<svg width="10.591in" height="12.76in" viewBox="0 0 10.591 12.76" xmlns="http://www.w3.org/2000/svg"><g id="svgGroup" stroke-linecap="round" fill-rule="evenodd" font-size="9pt" stroke="#000" stroke-width="1.5px" fill="none" style="stroke:#000;stroke-width:1.5px;fill:none"><path d="M 2.708 0.001 A 734.64 734.64 0 0 1 3.663 0.001 C 7.26 0.006 7.579 0.07 10.32 0.903 A 809.055 809.055 0 0 1 10.591 0.985 A 2098.164 2098.164 0 0 1 10.454 1.017 C 7.588 1.67 7.317 1.719 3.663 1.723 A 979.706 979.706 0 0 1 2.708 1.723 M 3.527 1.98 C 7.314 1.925 7.553 1.498 10.461 1.486 C 7.553 1.498 7.314 1.925 3.527 1.98 Z M 0.985 4.485 L 0.985 1.485 C 1.723 1.485 1.723 1.985 1.723 1.985 M 2.708 1.985 A 57.352 57.352 0 0 0 3.527 1.98 A 57.352 57.352 0 0 1 2.708 1.985 Z M 0.001 1.985 A 0.154 0.154 0 0 1 0.002 1.969 C 0.012 1.885 0.101 1.516 0.887 1.487 A 2.712 2.712 0 0 1 0.985 1.485 M 10.591 1.485 A 30.547 30.547 0 0 0 10.461 1.486 A 30.547 30.547 0 0 1 10.591 1.485 Z M 2.708 0.985 10.591 0.985 M 2.708 4.485 C 7.358 4.485 9.788 4.485 10.591 1.485" vector-effect="non-scaling-stroke"/><path d="M 8.586 2.331 C 7.953 3.147 3.406 3.663 2.779 3.728 A 3.121 3.121 0 0 1 2.708 3.735 M 8.586 1.354 A 3.613 3.613 0 0 0 8.566 1.354 C 7.835 1.354 3.048 1.54 2.725 1.551 A 1.421 1.421 0 0 1 2.708 1.552 M 1.552 3.735 A 0.612 0.612 0 0 1 1.547 3.722 C 1.516 3.635 1.354 3.135 1.354 2.355 A 5.623 5.623 0 0 1 1.354 2.331 M 5.028 10.637 m -0.063 0 a 0.063 0.063 0 0 1 0.126 0 a 0.063 0.063 0 0 1 -0.126 0 z M 5.446 4.709 m -0.063 0 a 0.063 0.063 0 0 1 0.126 0 a 0.063 0.063 0 0 1 -0.126 0 z M 5.81 10.611 m -0.063 0 a 0.063 0.063 0 0 1 0.126 0 a 0.063 0.063 0 0 1 -0.126 0 z M 7.601 4.726 m -0.063 0 a 0.063 0.063 0 0 1 0.126 0 a 0.063 0.063 0 0 1 -0.126 0 z M 7.448 10.664 m -0.063 0 a 0.063 0.063 0 0 1 0.126 0 a 0.063 0.063 0 0 1 -0.126 0 z M 5.584 12.647 m -0.063 0 a 0.063 0.063 0 0 1 0.126 0 a 0.063 0.063 0 0 1 -0.126 0 z M 4.833 10.84 m -0.063 0 a 0.063 0.063 0 0 1 0.126 0 a 0.063 0.063 0 0 1 -0.126 0 z M 4.398 4.709 m -0.063 0 a 0.063 0.063 0 0 1 0.126 0 a 0.063 0.063 0 0 1 -0.126 0 z M 4.08 10.812 m -0.063 0 a 0.063 0.063 0 0 1 0.126 0 a 0.063 0.063 0 0 1 -0.126 0 z M 2.078 4.752 m -0.063 0 a 0.063 0.063 0 0 1 0.126 0 a 0.063 0.063 0 0 1 -0.126 0 z M 2.455 10.89 m -0.063 0 a 0.063 0.063 0 0 1 0.126 0 a 0.063 0.063 0 0 1 -0.126 0 z M 4.259 12.697 m -0.063 0 a 0.063 0.063 0 0 1 0.126 0 a 0.063 0.063 0 0 1 -0.126 0 z" id="red" stroke="red" style="stroke:red" vector-effect="non-scaling-stroke"/><path d="M 5.447 12.646 L 5.447 12.626 L 5.446 12.607 L 5.446 12.587 L 5.446 12.568 L 5.446 12.548 L 5.446 12.529 L 5.446 12.51 L 4.946 12.478 L 4.946 12.458 L 4.946 12.439 L 4.946 12.42 L 4.946 12.402 L 4.947 12.383 L 4.947 12.364 L 4.947 12.346 L 4.947 12.326 L 4.947 12.308 L 4.947 12.29 L 4.948 12.271 L 4.948 12.253 L 4.948 12.235 L 4.948 12.217 L 4.949 12.199 L 4.949 12.181 L 4.949 12.163 L 4.95 12.145 L 4.95 12.128 L 4.95 12.11 L 4.951 12.093 L 4.951 12.075 L 4.952 12.058 L 4.951 12.041 L 4.952 12.023 L 4.952 12.006 L 4.953 11.988 L 4.953 11.972 L 4.953 11.954 L 4.954 11.938 L 4.954 11.921 L 4.955 11.904 L 4.956 11.887 L 4.956 11.87 L 4.956 11.854 L 4.957 11.837 L 4.958 11.821 L 4.958 11.804 L 4.958 11.788 L 4.959 11.772 L 4.959 11.755 L 4.96 11.739 L 4.96 11.723 L 4.961 11.707 L 4.962 11.691 L 4.962 11.675 L 4.962 11.658 L 4.963 11.643 L 4.964 11.627 L 4.965 11.611 L 4.965 11.596 L 4.965 11.58 L 4.967 11.564 L 4.967 11.548 L 4.968 11.533 L 4.968 11.518 L 4.97 11.502 L 4.97 11.487 L 4.97 11.471 L 4.971 11.456 L 4.973 11.442 L 4.973 11.426 L 4.974 11.411 L 4.975 11.396 L 4.975 11.381 L 4.976 11.366 L 4.977 11.351 L 4.978 11.336 L 4.979 11.322 L 4.979 11.307 L 4.98 11.292 L 4.981 11.277 L 4.981 11.263 L 4.982 11.249 L 4.984 11.234 L 4.983 11.22 L 4.985 11.205 L 4.986 11.191 L 4.986 11.177 L 4.988 11.162 L 4.988 11.148 L 4.99 11.134 L 4.99 11.12 L 4.991 11.106 L 4.992 11.092 L 4.993 11.077 L 4.994 11.064 L 4.996 11.05 L 4.996 11.036 L 4.997 11.022 L 4.998 11.008 L 4.999 10.994 L 4.999 10.981 L 5 10.967 L 5.001 10.954 L 5.002 10.94 L 5.004 10.927 L 5.005 10.913 L 5.006 10.9 L 5.007 10.886 L 5.008 10.872 L 5.009 10.859 L 5.01 10.846 L 5.01 10.833 L 5.012 10.819 L 5.013 10.806 L 5.015 10.793 L 5.016 10.78 L 5.016 10.767 L 5.017 10.753 L 5.019 10.741 L 5.019 10.728 L 5.021 10.714 L 5.022 10.701 L 5.024 10.689 L 5.024 10.676 L 5.026 10.663 L 5.026 10.65 L 5.028 10.637 L 5.03 10.612 L 5.032 10.599 L 5.032 10.586 L 5.034 10.574 L 5.034 10.561 L 5.037 10.548 L 5.037 10.536 L 5.039 10.523 L 5.039 10.511 L 5.041 10.499 L 5.042 10.486 L 5.044 10.474 L 5.045 10.461 L 5.045 10.449 L 5.047 10.437 L 5.048 10.424 L 5.05 10.412 L 5.051 10.4 L 5.052 10.387 L 5.054 10.375 L 5.054 10.363 L 5.055 10.351 L 5.058 10.338 L 5.058 10.326 L 5.059 10.314 L 5.061 10.302 L 5.062 10.29 L 5.063 10.278 L 5.065 10.266 L 5.066 10.254 L 5.067 10.242 L 5.07 10.23 L 5.071 10.218 L 5.071 10.206 L 5.072 10.194 L 5.075 10.182 L 5.076 10.17 L 5.077 10.158 L 5.078 10.146 L 5.08 10.134 L 5.081 10.122 L 5.082 10.11 L 5.083 10.099 L 5.084 10.087 L 5.087 10.075 L 5.088 10.063 L 5.089 10.051 L 5.09 10.04 L 5.091 10.028 L 5.094 10.016 L 5.095 10.005 L 5.097 9.993 L 5.098 9.981 L 5.099 9.969 L 5.1 9.958 L 5.101 9.946 L 5.104 9.934 L 5.105 9.923 L 5.106 9.911 L 5.108 9.9 L 5.109 9.888 L 5.11 9.876 L 5.111 9.864 L 5.113 9.853 L 5.116 9.841 L 5.117 9.83 L 5.118 9.818 L 5.119 9.806 L 5.121 9.795 L 5.122 9.783 L 5.123 9.772 L 5.125 9.76 L 5.126 9.748 L 5.127 9.737 L 5.129 9.725 L 5.13 9.714 L 5.132 9.702 L 5.133 9.69 L 5.134 9.679 L 5.138 9.667 L 5.139 9.656 L 5.14 9.644 L 5.142 9.633 L 5.143 9.621 L 5.145 9.609 L 5.146 9.598 L 5.148 9.586 L 5.149 9.575 L 5.15 9.563 L 5.152 9.552 L 5.153 9.54 L 5.155 9.528 L 5.156 9.517 L 5.158 9.505 L 5.159 9.493 L 5.161 9.482 L 5.163 9.47 L 5.164 9.458 L 5.166 9.447 L 5.167 9.435 L 5.169 9.423 L 5.17 9.412 L 5.17 9.4 L 5.172 9.388 L 5.173 9.377 L 5.175 9.365 L 5.176 9.353 L 5.178 9.342 L 5.18 9.33 L 5.181 9.318 L 5.183 9.306 L 5.184 9.294 L 5.186 9.283 L 5.188 9.271 L 5.189 9.259 L 5.191 9.247 L 5.193 9.235 L 5.194 9.224 L 5.194 9.212 L 5.196 9.2 L 5.197 9.188 L 5.199 9.176 L 5.201 9.164 L 5.203 9.152 L 5.204 9.14 L 5.206 9.128 L 5.208 9.116 L 5.209 9.104 L 5.209 9.092 L 5.211 9.08 L 5.213 9.067 L 5.214 9.055 L 5.216 9.043 L 5.218 9.031 L 5.22 9.019 L 5.22 9.007 L 5.221 8.995 L 5.223 8.982 L 5.225 8.97 L 5.227 8.958 L 5.229 8.945 L 5.23 8.933 L 5.23 8.921 L 5.232 8.908 L 5.234 8.896 L 5.236 8.883 L 5.237 8.871 L 5.239 8.858 L 5.239 8.846 L 5.241 8.833 L 5.243 8.821 L 5.245 8.808 L 5.246 8.795 L 5.246 8.783 L 5.248 8.77 L 5.25 8.757 L 5.252 8.744 L 5.254 8.732 L 5.256 8.719 L 5.256 8.706 L 5.257 8.693 L 5.259 8.68 L 5.261 8.667 L 5.261 8.654 L 5.263 8.641 L 5.265 8.628 L 5.267 8.615 L 5.269 8.602 L 5.269 8.589 L 5.271 8.576 L 5.272 8.562 L 5.274 8.549 L 5.274 8.536 L 5.276 8.523 L 5.278 8.509 L 5.28 8.496 L 5.28 8.482 L 5.282 8.469 L 5.284 8.455 L 5.286 8.442 L 5.286 8.428 L 5.288 8.414 L 5.29 8.401 L 5.29 8.387 L 5.292 8.373 L 5.294 8.359 L 5.296 8.345 L 5.296 8.332 L 5.298 8.318 L 5.3 8.304 L 5.299 8.29 L 5.301 8.276 L 5.303 8.262 L 5.305 8.247 L 5.305 8.233 L 5.307 8.219 L 5.309 8.205 L 5.309 8.19 L 5.311 8.176 L 5.313 8.161 L 5.313 8.147 L 5.315 8.132 L 5.317 8.118 L 5.317 8.103 L 5.319 8.089 L 5.321 8.074 L 5.321 8.059 L 5.323 8.044 L 5.325 8.029 L 5.325 8.014 L 5.327 7.999 L 5.33 7.985 L 5.329 7.969 L 5.332 7.954 L 5.332 7.939 L 5.334 7.924 L 5.336 7.909 L 5.336 7.893 L 5.338 7.878 L 5.34 7.862 L 5.34 7.847 L 5.342 7.831 L 5.342 7.816 L 5.344 7.8 L 5.346 7.784 L 5.346 7.768 L 5.348 7.753 L 5.348 7.737 L 5.35 7.721 L 5.352 7.705 L 5.352 7.689 L 5.354 7.673 L 5.354 7.656 L 5.356 7.64 L 5.356 7.624 L 5.358 7.607 L 5.358 7.591 L 5.361 7.575 L 5.363 7.558 L 5.363 7.541 L 5.365 7.525 L 5.365 7.508 L 5.367 7.491 L 5.367 7.474 L 5.369 7.457 L 5.369 7.44 L 5.371 7.423 L 5.371 7.406 L 5.373 7.389 L 5.373 7.372 L 5.375 7.354 L 5.377 7.337 L 5.377 7.319 L 5.38 7.302 L 5.38 7.284 L 5.382 7.267 L 5.382 7.249 L 5.382 7.231 L 5.384 7.213 L 5.384 7.195 L 5.386 7.177 L 5.386 7.159 L 5.388 7.141 L 5.388 7.123 L 5.39 7.104 L 5.39 7.086 L 5.392 7.068 L 5.392 7.049 L 5.395 7.03 L 5.395 7.012 L 5.397 6.993 L 5.397 6.974 L 5.397 6.955 L 5.399 6.936 L 5.399 6.917 L 5.401 6.898 L 5.401 6.879 L 5.403 6.86 L 5.403 6.84 L 5.403 6.821 L 5.405 6.801 L 5.405 6.782 L 5.408 6.762 L 5.408 6.742 L 5.408 6.723 L 5.41 6.703 L 5.41 6.683 L 5.41 6.663 L 5.412 6.642 L 5.412 6.622 L 5.414 6.602 L 5.414 6.582 L 5.414 6.561 L 5.416 6.541 L 5.416 6.52 L 5.416 6.499 L 5.419 6.478 L 5.419 6.458 L 5.418 6.437 L 5.421 6.415 L 5.421 6.394 L 5.421 6.373 L 5.423 6.352 L 5.423 6.33 L 5.423 6.309 L 5.425 6.287 L 5.425 6.266 L 5.425 6.244 L 5.427 6.222 L 5.427 6.2 L 5.427 6.178 L 5.427 6.156 L 5.429 6.134 L 5.429 6.112 L 5.429 6.089 L 5.429 6.067 L 5.432 6.044 L 5.432 6.021 L 5.432 5.999 L 5.434 5.976 L 5.434 5.953 L 5.434 5.93 L 5.434 5.907 L 5.434 5.884 L 5.436 5.86 L 5.436 5.837 L 5.436 5.813 L 5.436 5.79 L 5.438 5.766 L 5.438 5.742 L 5.438 5.718 L 5.438 5.694 L 5.438 5.67 L 5.44 5.646 L 5.44 5.622 L 5.44 5.598 L 5.44 5.573 L 5.44 5.548 L 5.44 5.524 L 5.443 5.499 L 5.443 5.474 L 5.443 5.449 L 5.443 5.424 L 5.443 5.399 L 5.443 5.374 L 5.443 5.348 L 5.445 5.323 L 5.445 5.297 L 5.445 5.272 L 5.445 5.246 L 5.445 5.22 L 5.445 5.194 L 5.445 5.168 L 5.445 5.141 L 5.445 5.115 L 5.445 5.089 L 5.445 5.062 L 5.445 5.036 L 5.445 5.009 L 5.445 4.982 L 5.445 4.956 L 5.446 4.929 L 5.446 4.901 L 5.446 4.874 L 5.446 4.847 L 5.446 4.82 L 5.446 4.792 L 5.446 4.764 L 5.446 4.737 L 5.446 4.709 L 7.21 4.709 L 7.21 4.737 L 7.21 4.765 L 7.21 4.792 L 7.21 4.82 L 7.21 4.848 L 7.209 4.875 L 7.209 4.902 L 7.209 4.93 L 7.208 4.957 L 7.208 4.984 L 7.208 5.008 L 7.207 5.035 L 7.199 5.175 L 7.206 5.089 L 7.206 5.115 L 7.206 5.141 L 7.205 5.168 L 7.205 5.197 L 7.205 5.219 L 7.205 5.245 L 7.204 5.271 L 7.204 5.297 L 7.203 5.323 L 7.201 5.351 L 7.2 5.373 L 7.2 5.399 L 7.2 5.424 L 7.199 5.452 L 7.199 5.474 L 7.198 5.499 L 7.196 5.524 L 7.195 5.551 L 7.195 5.573 L 7.194 5.597 L 7.194 5.622 L 7.193 5.649 L 7.19 5.67 L 7.19 5.694 L 7.189 5.721 L 7.189 5.742 L 7.188 5.766 L 7.185 5.793 L 7.185 5.813 L 7.184 5.837 L 7.184 5.863 L 7.181 5.884 L 7.18 5.91 L 7.18 5.93 L 7.179 5.953 L 7.178 5.979 L 7.175 5.999 L 7.175 6.024 L 7.174 6.044 L 7.171 6.069 L 7.171 6.089 L 7.17 6.112 L 7.169 6.137 L 7.166 6.156 L 7.165 6.181 L 7.165 6.2 L 7.164 6.225 L 7.161 6.244 L 7.16 6.269 L 7.16 6.288 L 7.156 6.312 L 7.156 6.331 L 7.155 6.355 L 7.152 6.376 L 7.151 6.395 L 7.15 6.419 L 7.147 6.437 L 7.146 6.461 L 7.146 6.481 L 7.143 6.499 L 7.142 6.523 L 7.141 6.541 L 7.138 6.564 L 7.137 6.585 L 7.136 6.602 L 7.133 6.626 L 7.132 6.646 L 7.129 6.663 L 7.128 6.686 L 7.127 6.706 L 7.124 6.723 L 7.123 6.746 L 7.122 6.765 L 7.119 6.782 L 7.117 6.805 L 7.114 6.824 L 7.113 6.844 L 7.112 6.86 L 7.109 6.883 L 7.108 6.902 L 7.105 6.921 L 7.104 6.937 L 7.1 6.959 L 7.1 6.978 L 7.098 6.997 L 7.095 7.013 L 7.094 7.034 L 7.091 7.053 L 7.09 7.071 L 7.086 7.09 L 7.085 7.106 L 7.082 7.127 L 7.081 7.145 L 7.077 7.163 L 7.076 7.181 L 7.073 7.199 L 7.072 7.217 L 7.068 7.235 L 7.067 7.25 L 7.066 7.271 L 7.062 7.289 L 7.061 7.306 L 7.058 7.324 L 7.056 7.341 L 7.053 7.358 L 7.05 7.376 L 7.048 7.393 L 7.045 7.41 L 7.044 7.427 L 7.04 7.444 L 7.039 7.461 L 7.035 7.476 L 7.034 7.496 L 7.03 7.513 L 7.029 7.529 L 7.026 7.546 L 7.024 7.563 L 7.021 7.579 L 7.017 7.596 L 7.016 7.612 L 7.012 7.629 L 7.011 7.648 L 7.007 7.661 L 7.006 7.677 L 7.002 7.693 L 7.001 7.71 L 6.997 7.726 L 6.994 7.742 L 6.992 7.758 L 6.989 7.774 L 6.987 7.789 L 6.983 7.805 L 6.98 7.821 L 6.978 7.837 L 6.974 7.852 L 6.973 7.87 L 6.969 7.883 L 6.966 7.898 L 6.964 7.914 L 6.96 7.929 L 6.957 7.945 L 6.955 7.96 L 6.951 7.975 L 6.95 7.993 L 6.946 8.005 L 6.942 8.02 L 6.94 8.035 L 6.937 8.05 L 6.933 8.065 L 6.931 8.082 L 6.928 8.094 L 6.924 8.109 L 6.922 8.124 L 6.918 8.139 L 6.914 8.156 L 6.913 8.167 L 6.909 8.182 L 6.905 8.196 L 6.903 8.211 L 6.9 8.228 L 6.896 8.239 L 6.894 8.254 L 6.89 8.268 L 6.886 8.285 L 6.882 8.296 L 6.88 8.31 L 6.876 8.324 L 6.872 8.341 L 6.871 8.352 L 6.867 8.366 L 6.863 8.38 L 6.859 8.396 L 6.857 8.407 L 6.853 8.421 L 6.849 8.437 L 6.847 8.448 L 6.843 8.462 L 6.839 8.475 L 6.835 8.492 L 6.833 8.502 L 6.829 8.516 L 6.825 8.532 L 6.821 8.542 L 6.819 8.556 L 6.815 8.572 L 6.811 8.582 L 6.807 8.596 L 6.804 8.611 L 6.8 8.622 L 6.796 8.635 L 6.792 8.651 L 6.788 8.661 L 6.786 8.674 L 6.782 8.69 L 6.778 8.7 L 6.773 8.713 L 6.771 8.728 L 6.767 8.739 L 6.763 8.752 L 6.758 8.767 L 6.755 8.777 L 6.75 8.79 L 6.748 8.805 L 6.744 8.815 L 6.739 8.828 L 6.735 8.843 L 6.731 8.853 L 6.728 8.868 L 6.724 8.878 L 6.72 8.89 L 6.716 8.905 L 6.712 8.915 L 6.707 8.928 L 6.705 8.943 L 6.7 8.952 L 6.696 8.967 L 6.692 8.977 L 6.687 8.989 L 6.683 9.004 L 6.679 9.014 L 6.676 9.026 L 6.671 9.041 L 6.667 9.05 L 6.663 9.065 L 6.658 9.074 L 6.654 9.087 L 6.649 9.101 L 6.647 9.111 L 6.642 9.123 L 6.638 9.137 L 6.633 9.147 L 6.628 9.161 L 6.624 9.171 L 6.62 9.183 L 6.615 9.197 L 6.61 9.207 L 6.606 9.219 L 6.603 9.233 L 6.599 9.242 L 6.593 9.256 L 6.589 9.266 L 6.584 9.278 L 6.58 9.292 L 6.575 9.301 L 6.57 9.313 L 6.565 9.327 L 6.561 9.336 L 6.556 9.35 L 6.551 9.36 L 6.547 9.372 L 6.541 9.386 L 6.537 9.395 L 6.532 9.407 L 6.529 9.421 L 6.524 9.43 L 6.519 9.442 L 6.514 9.456 L 6.509 9.465 L 6.505 9.477 L 6.499 9.49 L 6.495 9.5 L 6.489 9.511 L 6.484 9.525 L 6.48 9.534 L 6.474 9.546 L 6.469 9.56 L 6.464 9.569 L 6.459 9.581 L 6.454 9.592 L 6.449 9.606 L 6.444 9.615 L 6.439 9.627 L 6.434 9.641 L 6.428 9.65 L 6.423 9.661 L 6.418 9.673 L 6.41 9.687 L 6.406 9.696 L 6.4 9.708 L 6.395 9.719 L 6.389 9.733 L 6.384 9.742 L 6.379 9.754 L 6.373 9.765 L 6.367 9.779 L 6.362 9.788 L 6.357 9.8 L 6.351 9.811 L 6.345 9.823 L 6.34 9.836 L 6.334 9.846 L 6.327 9.857 L 6.321 9.869 L 6.315 9.881 L 6.309 9.892 L 6.304 9.906 L 6.298 9.915 L 6.293 9.927 L 6.287 9.939 L 6.279 9.95 L 6.273 9.962 L 6.267 9.974 L 6.26 9.985 L 6.254 9.997 L 6.248 10.009 L 6.242 10.022 L 6.235 10.032 L 6.228 10.043 L 6.222 10.055 L 6.216 10.067 L 6.21 10.078 L 6.201 10.09 L 6.195 10.102 L 6.188 10.114 L 6.182 10.125 L 6.175 10.137 L 6.167 10.149 L 6.161 10.161 L 6.154 10.173 L 6.147 10.183 L 6.138 10.197 L 6.131 10.209 L 6.124 10.22 L 6.117 10.232 L 6.109 10.244 L 6.102 10.256 L 6.094 10.268 L 6.085 10.279 L 6.077 10.292 L 6.07 10.304 L 6.061 10.316 L 6.053 10.328 L 6.046 10.339 L 6.035 10.353 L 6.027 10.365 L 6.019 10.377 L 6.01 10.387 L 6.001 10.401 L 5.993 10.413 L 5.982 10.424 L 5.973 10.438 L 5.963 10.45 L 5.954 10.461 L 5.944 10.475 L 5.933 10.486 L 5.923 10.5 L 5.912 10.512 L 5.901 10.523 L 5.889 10.537 L 5.878 10.548 L 5.864 10.562 L 5.853 10.573 L 5.838 10.587 L 5.826 10.598 L 5.81 10.611 L 5.805 10.624 L 5.82 10.611 L 5.833 10.603 L 5.846 10.586 L 5.858 10.578 L 5.871 10.561 L 5.882 10.553 L 5.894 10.535 L 5.904 10.527 L 5.915 10.515 L 5.925 10.498 L 5.935 10.49 L 5.945 10.473 L 5.954 10.465 L 5.964 10.453 L 5.973 10.436 L 5.982 10.428 L 5.991 10.416 L 6 10.399 L 6.008 10.391 L 6.017 10.379 L 6.025 10.367 L 6.034 10.35 L 6.042 10.342 L 6.05 10.33 L 6.058 10.318 L 6.065 10.306 L 6.073 10.289 L 6.081 10.281 L 6.088 10.269 L 6.096 10.258 L 6.103 10.246 L 6.11 10.234 L 6.117 10.222 L 6.125 10.21 L 6.131 10.192 L 6.139 10.185 L 6.146 10.173 L 6.153 10.161 L 6.159 10.149 L 6.166 10.137 L 6.172 10.126 L 6.179 10.114 L 6.186 10.102 L 6.193 10.09 L 6.199 10.078 L 6.205 10.066 L 6.211 10.054 L 6.218 10.042 L 6.223 10.04 L 6.23 10.02 L 6.236 10.008 L 6.242 9.996 L 6.249 9.984 L 6.255 9.972 L 6.261 9.96 L 6.267 9.949 L 6.273 9.937 L 6.279 9.925 L 6.284 9.923 L 6.289 9.902 L 6.295 9.89 L 6.301 9.878 L 6.307 9.866 L 6.313 9.854 L 6.318 9.853 L 6.323 9.832 L 6.329 9.82 L 6.335 9.808 L 6.341 9.796 L 6.345 9.794 L 6.351 9.773 L 6.357 9.761 L 6.362 9.749 L 6.367 9.748 L 6.373 9.727 L 6.378 9.715 L 6.384 9.703 L 6.388 9.701 L 6.394 9.68 L 6.399 9.668 L 6.404 9.656 L 6.409 9.654 L 6.414 9.633 L 6.42 9.621 L 6.424 9.619 L 6.429 9.598 L 6.435 9.586 L 6.44 9.574 L 6.445 9.572 L 6.45 9.551 L 6.455 9.539 L 6.459 9.537 L 6.464 9.516 L 6.47 9.503 L 6.474 9.502 L 6.48 9.48 L 6.484 9.468 L 6.488 9.466 L 6.494 9.445 L 6.499 9.433 L 6.503 9.431 L 6.508 9.41 L 6.513 9.397 L 6.517 9.395 L 6.523 9.374 L 6.527 9.361 L 6.531 9.36 L 6.537 9.338 L 6.541 9.336 L 6.546 9.315 L 6.55 9.302 L 6.555 9.3 L 6.56 9.279 L 6.564 9.266 L 6.568 9.264 L 6.574 9.243 L 6.577 9.241 L 6.582 9.219 L 6.587 9.206 L 6.591 9.204 L 6.596 9.183 L 6.6 9.17 L 6.604 9.168 L 6.61 9.146 L 6.613 9.144 L 6.618 9.122 L 6.623 9.109 L 6.626 9.107 L 6.632 9.085 L 6.636 9.072 L 6.639 9.07 L 6.644 9.048 L 6.648 9.046 L 6.653 9.024 L 6.658 9.011 L 6.661 9.008 L 6.666 8.986 L 6.671 8.973 L 6.674 8.971 L 6.679 8.949 L 6.683 8.946 L 6.687 8.924 L 6.692 8.911 L 6.696 8.908 L 6.7 8.886 L 6.705 8.873 L 6.708 8.87 L 6.713 8.848 L 6.717 8.845 L 6.721 8.823 L 6.726 8.81 L 6.729 8.807 L 6.734 8.785 L 6.738 8.771 L 6.742 8.768 L 6.747 8.746 L 6.751 8.732 L 6.754 8.729 L 6.759 8.707 L 6.764 8.693 L 6.767 8.69 L 6.771 8.668 L 6.776 8.654 L 6.779 8.65 L 6.784 8.628 L 6.788 8.614 L 6.791 8.61 L 6.796 8.589 L 6.8 8.575 L 6.803 8.57 L 6.808 8.549 L 6.813 8.535 L 6.816 8.53 L 6.82 8.509 L 6.825 8.494 L 6.828 8.49 L 6.832 8.468 L 6.837 8.454 L 6.841 8.439 L 6.844 8.434 L 6.849 8.413 L 6.853 8.398 L 6.856 8.393 L 6.861 8.372 L 6.865 8.357 L 6.869 8.343 L 6.872 8.337 L 6.877 8.316 L 6.881 8.301 L 6.885 8.286 L 6.888 8.281 L 6.893 8.259 L 6.897 8.244 L 6.901 8.23 L 6.904 8.224 L 6.909 8.202 L 6.913 8.187 L 6.917 8.172 L 6.921 8.157 L 6.924 8.151 L 6.929 8.13 L 6.933 8.114 L 6.937 8.099 L 6.941 8.084 L 6.944 8.077 L 6.949 8.056 L 6.953 8.041 L 6.957 8.025 L 6.961 8.01 L 6.965 7.995 L 6.968 7.987 L 6.972 7.966 L 6.976 7.95 L 6.98 7.935 L 6.985 7.919 L 6.988 7.904 L 6.992 7.888 L 6.997 7.872 L 6.999 7.865 L 7.004 7.843 L 7.008 7.827 L 7.012 7.811 L 7.016 7.796 L 7.02 7.78 L 7.024 7.764 L 7.028 7.747 L 7.032 7.731 L 7.036 7.715 L 7.04 7.699 L 7.044 7.683 L 7.048 7.667 L 7.052 7.65 L 7.055 7.642 L 7.059 7.62 L 7.063 7.604 L 7.067 7.587 L 7.071 7.571 L 7.075 7.554 L 7.079 7.538 L 7.083 7.521 L 7.087 7.504 L 7.091 7.488 L 7.095 7.466 L 7.099 7.451 L 7.103 7.434 L 7.107 7.418 L 7.111 7.401 L 7.115 7.384 L 7.119 7.367 L 7.123 7.349 L 7.126 7.332 L 7.131 7.315 L 7.134 7.298 L 7.138 7.281 L 7.142 7.263 L 7.147 7.241 L 7.15 7.226 L 7.154 7.208 L 7.158 7.191 L 7.162 7.173 L 7.166 7.156 L 7.17 7.138 L 7.174 7.12 L 7.178 7.098 L 7.182 7.082 L 7.186 7.064 L 7.19 7.046 L 7.194 7.028 L 7.198 7.005 L 7.202 6.989 L 7.206 6.971 L 7.21 6.953 L 7.214 6.93 L 7.218 6.914 L 7.222 6.895 L 7.226 6.877 L 7.23 6.854 L 7.234 6.837 L 7.238 6.819 L 7.241 6.8 L 7.246 6.777 L 7.25 6.76 L 7.253 6.741 L 7.258 6.718 L 7.262 6.701 L 7.265 6.682 L 7.27 6.659 L 7.274 6.641 L 7.278 6.622 L 7.282 6.599 L 7.286 6.581 L 7.289 6.562 L 7.294 6.538 L 7.298 6.52 L 7.302 6.496 L 7.306 6.478 L 7.31 6.459 L 7.314 6.435 L 7.318 6.417 L 7.322 6.393 L 7.326 6.374 L 7.33 6.355 L 7.334 6.33 L 7.338 6.312 L 7.342 6.288 L 7.346 6.269 L 7.35 6.245 L 7.354 6.226 L 7.358 6.201 L 7.362 6.182 L 7.366 6.158 L 7.37 6.138 L 7.374 6.114 L 7.379 6.09 L 7.382 6.071 L 7.387 6.046 L 7.39 6.026 L 7.395 6.002 L 7.398 5.982 L 7.403 5.957 L 7.407 5.933 L 7.411 5.913 L 7.415 5.888 L 7.419 5.867 L 7.423 5.842 L 7.427 5.818 L 7.431 5.797 L 7.435 5.772 L 7.439 5.748 L 7.443 5.727 L 7.447 5.701 L 7.451 5.677 L 7.455 5.655 L 7.459 5.63 L 7.464 5.605 L 7.468 5.58 L 7.471 5.558 L 7.476 5.533 L 7.48 5.507 L 7.484 5.482 L 7.488 5.46 L 7.492 5.434 L 7.496 5.409 L 7.5 5.383 L 7.504 5.361 L 7.508 5.335 L 7.512 5.309 L 7.516 5.283 L 7.521 5.257 L 7.525 5.231 L 7.528 5.208 L 7.532 5.181 L 7.537 5.155 L 7.541 5.129 L 7.545 5.102 L 7.549 5.075 L 7.553 5.049 L 7.557 5.022 L 7.561 4.999 L 7.565 4.972 L 7.569 4.945 L 7.573 4.918 L 7.577 4.89 L 7.581 4.863 L 7.585 4.836 L 7.589 4.808 L 7.593 4.781 L 7.597 4.753 L 7.601 4.726 L 8.569 4.861 L 8.565 4.889 L 8.561 4.916 L 8.557 4.944 L 8.554 4.971 L 8.55 4.999 L 8.546 5.026 L 8.542 5.053 L 8.538 5.081 L 8.535 5.108 L 8.531 5.135 L 8.528 5.155 L 8.524 5.182 L 8.52 5.209 L 8.517 5.236 L 8.513 5.263 L 8.509 5.29 L 8.505 5.317 L 8.502 5.343 L 8.499 5.363 L 8.495 5.39 L 8.491 5.417 L 8.488 5.443 L 8.484 5.47 L 8.48 5.496 L 8.477 5.516 L 8.474 5.542 L 8.47 5.568 L 8.466 5.595 L 8.463 5.614 L 8.46 5.64 L 8.456 5.666 L 8.452 5.693 L 8.45 5.712 L 8.446 5.738 L 8.442 5.764 L 8.439 5.79 L 8.436 5.809 L 8.432 5.835 L 8.429 5.86 L 8.426 5.88 L 8.422 5.905 L 8.419 5.931 L 8.416 5.95 L 8.413 5.975 L 8.409 6.001 L 8.406 6.02 L 8.403 6.045 L 8.4 6.064 L 8.396 6.089 L 8.393 6.115 L 8.39 6.133 L 8.387 6.158 L 8.384 6.177 L 8.38 6.202 L 8.378 6.221 L 8.374 6.246 L 8.371 6.271 L 8.368 6.289 L 8.364 6.314 L 8.362 6.333 L 8.358 6.357 L 8.356 6.376 L 8.352 6.4 L 8.349 6.419 L 8.346 6.443 L 8.343 6.462 L 8.34 6.486 L 8.337 6.504 L 8.334 6.522 L 8.331 6.547 L 8.328 6.565 L 8.325 6.589 L 8.322 6.607 L 8.32 6.625 L 8.316 6.649 L 8.314 6.667 L 8.31 6.691 L 8.307 6.709 L 8.305 6.727 L 8.301 6.751 L 8.299 6.769 L 8.296 6.787 L 8.293 6.81 L 8.29 6.828 L 8.288 6.846 L 8.284 6.869 L 8.281 6.887 L 8.279 6.905 L 8.275 6.928 L 8.273 6.946 L 8.27 6.963 L 8.268 6.981 L 8.264 7.004 L 8.262 7.021 L 8.259 7.039 L 8.257 7.056 L 8.253 7.079 L 8.251 7.097 L 8.248 7.114 L 8.245 7.131 L 8.242 7.154 L 8.239 7.171 L 8.237 7.189 L 8.234 7.206 L 8.232 7.223 L 8.228 7.246 L 8.226 7.263 L 8.223 7.28 L 8.221 7.297 L 8.218 7.314 L 8.216 7.33 L 8.213 7.347 L 8.21 7.364 L 8.207 7.387 L 8.204 7.403 L 8.202 7.42 L 8.199 7.437 L 8.197 7.454 L 8.194 7.47 L 8.192 7.487 L 8.189 7.504 L 8.187 7.52 L 8.184 7.537 L 8.181 7.553 L 8.179 7.57 L 8.176 7.586 L 8.173 7.608 L 8.17 7.625 L 8.168 7.641 L 8.165 7.658 L 8.163 7.674 L 8.16 7.69 L 8.158 7.706 L 8.155 7.723 L 8.152 7.739 L 8.15 7.755 L 8.148 7.766 L 8.146 7.782 L 8.143 7.798 L 8.141 7.814 L 8.138 7.83 L 8.135 7.846 L 8.133 7.862 L 8.13 7.878 L 8.128 7.894 L 8.125 7.91 L 8.123 7.926 L 8.12 7.942 L 8.118 7.958 L 8.115 7.974 L 8.113 7.984 L 8.111 8 L 8.108 8.016 L 8.106 8.031 L 8.103 8.047 L 8.1 8.063 L 8.098 8.078 L 8.095 8.094 L 8.094 8.104 L 8.091 8.12 L 8.088 8.136 L 8.086 8.151 L 8.083 8.166 L 8.081 8.182 L 8.079 8.192 L 8.076 8.208 L 8.074 8.223 L 8.071 8.238 L 8.069 8.254 L 8.067 8.264 L 8.064 8.279 L 8.062 8.294 L 8.059 8.31 L 8.056 8.325 L 8.055 8.335 L 8.052 8.35 L 8.049 8.365 L 8.047 8.38 L 8.045 8.39 L 8.042 8.405 L 8.04 8.42 L 8.037 8.435 L 8.035 8.445 L 8.033 8.46 L 8.03 8.475 L 8.028 8.49 L 8.026 8.5 L 8.023 8.515 L 8.02 8.53 L 8.019 8.539 L 8.016 8.554 L 8.013 8.569 L 8.011 8.584 L 8.009 8.593 L 8.006 8.608 L 8.004 8.623 L 8.002 8.633 L 7.999 8.647 L 7.996 8.662 L 7.995 8.671 L 7.992 8.686 L 7.989 8.7 L 7.988 8.71 L 7.985 8.725 L 7.982 8.739 L 7.98 8.749 L 7.978 8.763 L 7.975 8.777 L 7.973 8.787 L 7.97 8.801 L 7.968 8.815 L 7.966 8.825 L 7.963 8.839 L 7.96 8.853 L 7.958 8.863 L 7.956 8.877 L 7.953 8.891 L 7.951 8.901 L 7.948 8.915 L 7.946 8.929 L 7.944 8.938 L 7.941 8.952 L 7.939 8.961 L 7.936 8.975 L 7.934 8.989 L 7.932 8.999 L 7.929 9.012 L 7.926 9.026 L 7.924 9.036 L 7.921 9.049 L 7.919 9.059 L 7.917 9.072 L 7.914 9.086 L 7.912 9.095 L 7.909 9.109 L 7.906 9.123 L 7.904 9.132 L 7.901 9.146 L 7.899 9.155 L 7.897 9.168 L 7.894 9.182 L 7.892 9.191 L 7.889 9.204 L 7.886 9.218 L 7.884 9.227 L 7.881 9.24 L 7.879 9.249 L 7.876 9.263 L 7.873 9.276 L 7.871 9.285 L 7.868 9.298 L 7.865 9.312 L 7.863 9.32 L 7.86 9.334 L 7.858 9.343 L 7.855 9.356 L 7.853 9.369 L 7.85 9.378 L 7.847 9.391 L 7.844 9.404 L 7.842 9.413 L 7.839 9.426 L 7.837 9.435 L 7.834 9.448 L 7.831 9.461 L 7.829 9.469 L 7.826 9.482 L 7.823 9.495 L 7.821 9.504 L 7.818 9.517 L 7.815 9.53 L 7.813 9.538 L 7.81 9.551 L 7.806 9.564 L 7.804 9.572 L 7.801 9.585 L 7.798 9.598 L 7.796 9.606 L 7.793 9.619 L 7.79 9.632 L 7.787 9.64 L 7.784 9.653 L 7.781 9.665 L 7.778 9.678 L 7.776 9.686 L 7.772 9.699 L 7.769 9.711 L 7.767 9.72 L 7.764 9.732 L 7.76 9.745 L 7.757 9.757 L 7.755 9.765 L 7.752 9.778 L 7.748 9.79 L 7.745 9.802 L 7.743 9.81 L 7.739 9.823 L 7.736 9.835 L 7.732 9.847 L 7.73 9.855 L 7.727 9.868 L 7.723 9.88 L 7.72 9.892 L 7.716 9.904 L 7.714 9.912 L 7.711 9.924 L 7.707 9.936 L 7.704 9.948 L 7.7 9.96 L 7.697 9.972 L 7.694 9.98 L 7.691 9.992 L 7.687 10.004 L 7.684 10.016 L 7.68 10.027 L 7.676 10.039 L 7.673 10.051 L 7.669 10.063 L 7.666 10.075 L 7.662 10.086 L 7.659 10.094 L 7.656 10.106 L 7.652 10.117 L 7.648 10.129 L 7.645 10.141 L 7.641 10.152 L 7.637 10.164 L 7.633 10.175 L 7.63 10.187 L 7.626 10.198 L 7.622 10.21 L 7.618 10.221 L 7.614 10.232 L 7.61 10.244 L 7.605 10.259 L 7.601 10.27 L 7.597 10.281 L 7.594 10.293 L 7.59 10.304 L 7.586 10.315 L 7.582 10.326 L 7.578 10.337 L 7.572 10.352 L 7.568 10.363 L 7.564 10.374 L 7.56 10.385 L 7.556 10.396 L 7.551 10.411 L 7.546 10.422 L 7.542 10.433 L 7.538 10.444 L 7.533 10.458 L 7.528 10.469 L 7.524 10.48 L 7.518 10.494 L 7.514 10.505 L 7.51 10.516 L 7.504 10.53 L 7.5 10.541 L 7.494 10.555 L 7.49 10.566 L 7.485 10.576 L 7.479 10.59 L 7.475 10.601 L 7.469 10.615 L 7.465 10.625 L 7.459 10.639 L 7.454 10.65 L 7.448 10.664 L 7.442 10.677 L 7.435 10.696 L 7.431 10.702 L 7.424 10.715 L 7.418 10.734 L 7.412 10.74 L 7.405 10.753 L 7.398 10.766 L 7.392 10.784 L 7.387 10.79 L 7.38 10.803 L 7.374 10.817 L 7.367 10.829 L 7.36 10.842 L 7.353 10.855 L 7.346 10.869 L 7.339 10.887 L 7.334 10.893 L 7.327 10.906 L 7.32 10.915 L 7.311 10.934 L 7.303 10.947 L 7.296 10.96 L 7.289 10.973 L 7.281 10.986 L 7.274 10.999 L 7.267 11.012 L 7.26 11.021 L 7.25 11.04 L 7.243 11.053 L 7.236 11.062 L 7.227 11.08 L 7.218 11.093 L 7.211 11.103 L 7.201 11.121 L 7.193 11.13 L 7.183 11.148 L 7.176 11.158 L 7.165 11.176 L 7.158 11.185 L 7.147 11.2 L 7.138 11.218 L 7.129 11.227 L 7.119 11.242 L 7.109 11.256 L 7.098 11.274 L 7.09 11.284 L 7.081 11.298 L 7.07 11.313 L 7.059 11.327 L 7.049 11.342 L 7.038 11.356 L 7.027 11.371 L 7.016 11.382 L 7.003 11.401 L 6.992 11.415 L 6.981 11.43 L 6.97 11.441 L 6.957 11.46 L 6.945 11.474 L 6.933 11.486 L 6.92 11.504 L 6.909 11.516 L 6.894 11.532 L 6.881 11.55 L 6.868 11.562 L 6.854 11.577 L 6.839 11.593 L 6.825 11.611 L 6.814 11.623 L 6.799 11.639 L 6.784 11.655 L 6.768 11.667 L 6.751 11.687 L 6.736 11.702 L 6.721 11.718 L 6.705 11.731 L 6.688 11.75 L 6.672 11.763 L 6.653 11.782 L 6.637 11.796 L 6.619 11.812 L 6.601 11.831 L 6.584 11.844 L 6.565 11.861 L 6.545 11.877 L 6.526 11.894 L 6.506 11.908 L 6.484 11.928 L 6.464 11.944 L 6.444 11.959 L 6.421 11.978 L 6.4 11.993 L 6.376 12.01 L 6.353 12.027 L 6.328 12.045 L 6.305 12.062 L 6.28 12.079 L 6.255 12.097 L 6.23 12.112 L 6.202 12.132 L 6.176 12.147 L 6.147 12.165 L 6.118 12.183 L 6.088 12.201 L 6.058 12.219 L 6.028 12.235 L 5.994 12.255 L 5.964 12.271 L 5.929 12.29 L 5.894 12.308 L 5.858 12.325 L 5.819 12.346 L 5.783 12.363 L 5.743 12.382 L 5.702 12.401 L 5.66 12.42 L 5.619 12.437 L 5.572 12.456 L 5.526 12.476 L 5.947 12.514 L 5.931 12.532 L 5.879 12.551 L 5.826 12.57 L 5.768 12.589 L 5.709 12.609 L 5.649 12.627 L 5.584 12.647 L 5.447 12.646 Z M 1.723 1.971 A 12.831 12.831 0 0 1 1.723 2.085 Q 1.723 3.547 1.378 4.131 A 0.755 0.755 0 0 1 0.985 4.483 Q 1.724 4.231 1.724 2.101 A 12.766 12.766 0 0 0 1.723 1.976 A 12.713 12.713 0 0 1 1.724 2.114 Q 1.724 4.236 0.985 4.485 A 0.741 0.741 0 0 0 1.383 4.136 Q 1.724 3.562 1.724 2.123 A 12.669 12.669 0 0 0 1.723 1.983 M 1.722 1.965 A 12.914 12.914 0 0 1 1.722 2.066 Q 1.722 4.215 0.985 4.481 A 0.772 0.772 0 0 0 1.374 4.123 Q 1.731 3.512 1.721 1.959 Q 1.717 3.49 1.363 4.105 A 0.806 0.806 0 0 1 0.985 4.468 M 1.72 1.951 A 13.123 13.123 0 0 1 1.721 2.017 Q 1.721 4.192 0.985 4.476 A 0.79 0.79 0 0 0 1.364 4.117 Q 1.719 3.511 1.719 1.989 A 13.271 13.271 0 0 0 1.719 1.942 M 0.985 4.485 A 0.737 0.737 0 0 0 1.383 4.138 Q 1.724 3.567 1.724 2.13 A 12.634 12.634 0 0 0 1.723 1.985 A 12.643 12.643 0 0 1 1.724 2.128 Q 1.724 3.565 1.383 4.138 A 0.738 0.738 0 0 1 0.985 4.485 Z M 1.713 1.913 A 12.122 12.122 0 0 1 1.707 2.285 Q 1.665 3.547 1.351 4.095 A 0.831 0.831 0 0 1 0.985 4.457 M 1.71 1.901 A 12.328 12.328 0 0 1 1.705 2.237 Q 1.664 3.524 1.348 4.083 A 0.85 0.85 0 0 1 0.985 4.45 M 1.716 1.923 A 12.068 12.068 0 0 1 1.71 2.295 Q 1.652 4.172 0.985 4.463 M 1.707 1.89 A 12.396 12.396 0 0 1 1.701 2.226 Q 1.657 3.515 1.34 4.077 A 0.867 0.867 0 0 1 0.985 4.443 M 1.703 1.877 Q 1.689 3.433 1.332 4.07 A 0.884 0.884 0 0 1 0.985 4.435 M 1.699 1.864 A 12.644 12.644 0 0 1 1.692 2.177 Q 1.645 3.48 1.328 4.055 A 0.91 0.91 0 0 1 0.985 4.426 M 1.694 1.851 A 12.783 12.783 0 0 1 1.687 2.152 Q 1.637 3.461 1.321 4.042 A 0.936 0.936 0 0 1 0.985 4.417 M 1.689 1.837 A 12.923 12.923 0 0 1 1.681 2.128 Q 1.629 3.441 1.315 4.028 A 0.964 0.964 0 0 1 0.985 4.406 M 1.683 1.823 A 13.037 13.037 0 0 1 1.674 2.113 Q 1.595 3.995 0.985 4.395 M 1.676 1.809 A 13.165 13.165 0 0 1 1.667 2.097 Q 1.584 3.967 0.985 4.382 M 1.669 1.795 A 13.302 13.302 0 0 1 1.658 2.081 Q 1.597 3.38 1.292 3.981 A 1.071 1.071 0 0 1 0.985 4.369 M 1.661 1.78 A 13.448 13.448 0 0 1 1.649 2.065 Q 1.585 3.358 1.284 3.964 A 1.114 1.114 0 0 1 0.985 4.354 M 1.642 1.75 A 13.801 13.801 0 0 1 1.629 2.031 Q 1.529 3.843 0.985 4.323 M 1.631 1.735 A 13.993 13.993 0 0 1 1.618 2.017 Q 1.543 3.296 1.253 3.916 A 1.27 1.27 0 0 1 0.985 4.306 M 1.62 1.72 A 14.208 14.208 0 0 1 1.606 1.999 Q 1.529 3.265 1.245 3.89 A 1.343 1.343 0 0 1 0.985 4.287 M 1.607 1.705 Q 1.543 3.166 1.238 3.863 A 1.427 1.427 0 0 1 0.985 4.267 M 1.594 1.69 A 15.327 15.327 0 0 1 1.587 1.818 Q 1.484 3.673 0.985 4.245 M 1.579 1.676 A 15.642 15.642 0 0 1 1.573 1.796 Q 1.467 3.631 0.985 4.222 M 1.564 1.661 A 16.433 16.433 0 0 1 1.562 1.69 Q 1.487 3.07 1.212 3.773 A 1.751 1.751 0 0 1 0.985 4.197 M 1.547 1.647 A 13.197 13.197 0 0 1 1.476 2.48 Q 1.383 3.259 1.203 3.739 A 1.888 1.888 0 0 1 0.985 4.169 M 1.53 1.633 A 13.582 13.582 0 0 1 1.459 2.453 Q 1.366 3.222 1.194 3.703 A 2.047 2.047 0 0 1 0.985 4.139 M 6.819 4.354 A 272.116 272.116 0 0 1 6.818 4.117 Q 6.817 3.531 6.817 2.042 A 9316.72 9316.72 0 0 1 6.816 1.78 M 6.941 4.339 A 832.385 832.385 0 0 1 6.941 4.097 Q 6.94 3.503 6.94 2.025 A 25825.669 25825.669 0 0 1 6.94 1.765 M 6.69 1.795 Q 6.69 3.51 6.69 4.137 A 1861.609 1861.609 0 0 1 6.69 4.369 M 6.56 1.809 A 11339.65 11339.65 0 0 1 6.56 2.076 Q 6.559 3.586 6.559 4.156 A 275.975 275.975 0 0 1 6.558 4.382 M 7.061 1.75 Q 7.061 3.421 7.061 4.075 A 3410.994 3410.994 0 0 1 7.061 4.323 M 6.427 1.823 A 9312.525 9312.525 0 0 1 6.426 2.403 Q 6.426 3.671 6.425 4.173 A 229.068 229.068 0 0 1 6.425 4.395 M 7.181 1.735 A 17507.698 17507.698 0 0 1 7.18 1.991 Q 7.18 3.441 7.18 4.052 A 683.184 683.184 0 0 1 7.179 4.306 M 6.289 1.837 A 37801.31 37801.31 0 0 1 6.289 2.423 Q 6.289 3.695 6.289 4.189 A 851.876 851.876 0 0 1 6.289 4.406 M 7.3 4.287 A 459.647 459.647 0 0 1 7.3 4.028 Q 7.299 3.381 7.298 1.841 A 11158.542 11158.542 0 0 1 7.298 1.72 M 6.148 1.851 A 9602.912 9602.912 0 0 1 6.147 2.445 Q 6.147 3.718 6.146 4.205 A 199.339 199.339 0 0 1 6.146 4.417 M 1.511 1.619 A 14.051 14.051 0 0 1 1.441 2.417 Q 1.351 3.169 1.189 3.651 A 2.257 2.257 0 0 1 0.985 4.107 M 6.001 1.864 A 16427.832 16427.832 0 0 1 6.001 2.461 Q 6.001 4.099 6 4.426 M 7.414 1.705 Q 7.414 3.259 7.414 3.949 A 9474.589 9474.589 0 0 1 7.414 4.267 M 5.852 4.435 Q 5.851 4.12 5.85 2.477 A 8136.386 8136.386 0 0 1 5.85 1.877 M 7.53 4.245 A 1122.022 1122.022 0 0 1 7.53 3.921 Q 7.53 3.388 7.53 2.364 A 17270.3 17270.3 0 0 1 7.529 1.69 M 5.693 1.89 A 9883.85 9883.85 0 0 1 5.693 2.491 Q 5.692 3.778 5.691 4.245 A 161.23 161.23 0 0 1 5.691 4.443 M 7.645 4.222 A 2069.533 2069.533 0 0 1 7.644 3.892 Q 7.644 3.353 7.644 2.34 A 29017.434 29017.434 0 0 1 7.644 1.676 M 5.361 1.913 A 20223.516 20223.516 0 0 1 5.361 2.53 Q 5.36 4.176 5.36 4.457 M 5.185 1.923 A 29513.556 29513.556 0 0 1 5.185 2.542 Q 5.185 3.829 5.185 4.277 A 389.178 389.178 0 0 1 5.185 4.463 M 7.758 1.661 A 10193.038 10193.038 0 0 1 7.758 2.317 Q 7.757 3.684 7.757 4.197 M 5.003 1.933 Q 5.002 3.743 5.001 4.285 A 106.4 106.4 0 0 1 5 4.468 M 1.491 1.606 A 14.594 14.594 0 0 1 1.423 2.372 Q 1.335 3.122 1.179 3.61 A 2.468 2.468 0 0 1 0.985 4.071 M 4.616 4.476 A 94.866 94.866 0 0 1 4.616 4.373 Q 4.615 3.938 4.615 2.196 A 14621.081 14621.081 0 0 1 4.615 1.951 M 7.875 4.169 A 957.386 957.386 0 0 1 7.874 3.828 Q 7.874 3.113 7.873 1.647 M 4.41 4.479 Q 4.409 4.215 4.409 2.204 A 20358.576 20358.576 0 0 1 4.409 1.959 M 3.973 4.483 Q 3.972 4.232 3.971 2.218 A 9350.438 9350.438 0 0 1 3.971 1.971 M 3.738 1.976 Q 3.737 3.943 3.736 4.388 A 48.695 48.695 0 0 1 3.736 4.484 M 7.99 4.139 A 890.753 890.753 0 0 1 7.99 3.763 Q 7.989 3.213 7.989 2.256 A 9151.193 9151.193 0 0 1 7.988 1.633 M 3.496 1.98 Q 3.495 3.948 3.495 4.39 A 64.398 64.398 0 0 1 3.494 4.485 M 3.244 1.983 A 9492.054 9492.054 0 0 1 3.244 2.23 Q 3.243 3.979 3.242 4.391 A 47.057 47.057 0 0 1 3.241 4.485 M 2.984 4.485 Q 2.982 4.249 2.981 2.231 A 7385.572 7385.572 0 0 1 2.981 1.985 M 1.47 1.593 A 15.571 15.571 0 0 1 1.414 2.244 Q 1.327 3.041 1.171 3.559 A 2.726 2.726 0 0 1 0.985 4.031 M 8.104 1.619 A 15951.445 15951.445 0 0 1 8.104 2.226 Q 8.104 3.548 8.103 4.107 M 8.222 1.606 A 48525.147 48525.147 0 0 1 8.222 2.198 Q 8.222 3.499 8.222 4.071 M 1.448 1.581 A 16.175 16.175 0 0 1 1.394 2.206 Q 1.31 2.986 1.162 3.504 A 3.021 3.021 0 0 1 0.985 3.986 M 8.341 1.593 Q 8.341 2.89 8.341 3.613 A 5748.497 5748.497 0 0 1 8.341 4.031 M 1.424 1.569 A 17.001 17.001 0 0 1 1.375 2.136 Q 1.25 3.339 0.985 3.937 M 8.464 3.986 A 1425.616 1425.616 0 0 1 8.464 3.565 Q 8.463 2.92 8.463 1.841 A 10740.857 10740.857 0 0 1 8.463 1.581 M 1.399 1.558 Q 1.317 2.697 1.139 3.4 A 3.737 3.737 0 0 1 0.985 3.883 M 8.588 3.937 A 1670.848 1670.848 0 0 1 8.587 3.515 Q 8.587 2.832 8.586 1.69 A 11847.28 11847.28 0 0 1 8.586 1.569 M 8.713 1.558 Q 8.712 2.747 8.712 3.46 A 1936.844 1936.844 0 0 1 8.711 3.883 M 1.373 1.547 A 18.674 18.674 0 0 1 1.331 2.04 Q 1.254 2.808 1.128 3.34 A 4.183 4.183 0 0 1 0.985 3.821 M 1.345 1.537 Q 1.269 2.568 1.122 3.243 A 4.78 4.78 0 0 1 0.985 3.749 M 1.316 1.528 A 21.484 21.484 0 0 1 1.295 1.794 Q 1.226 2.587 1.114 3.148 A 5.467 5.467 0 0 1 0.985 3.669 M 1.286 1.52 A 22.468 22.468 0 0 1 1.266 1.77 Q 1.202 2.517 1.101 3.059 A 6.209 6.209 0 0 1 0.985 3.575 M 9.255 1.52 A 22815.429 22815.429 0 0 1 9.255 2.107 Q 9.255 2.717 9.255 3.171 A 6080.892 6080.892 0 0 1 9.255 3.575 M 1.254 1.512 Q 1.191 2.362 1.087 2.967 A 7.046 7.046 0 0 1 0.985 3.465 M 9.402 3.465 A 25967.736 25967.736 0 0 1 9.402 3.074 Q 9.402 2.44 9.402 1.512 M 1.22 1.505 A 25.758 25.758 0 0 1 1.217 1.555 Q 1.16 2.308 1.073 2.862 A 8.036 8.036 0 0 1 0.985 3.337 M 9.553 1.505 A 11144.12 11144.12 0 0 1 9.553 1.741 Q 9.553 2.72 9.552 3.337 M 1.185 1.499 Q 1.137 2.176 1.066 2.689 A 9.324 9.324 0 0 1 0.985 3.181 M 9.711 3.181 A 4042.659 4042.659 0 0 1 9.711 2.832 Q 9.711 2.351 9.711 1.712 A 12255.204 12255.204 0 0 1 9.71 1.499 M 1.149 1.494 A 23.511 23.511 0 0 1 1.105 2.042 Q 1.081 2.3 1.053 2.526 A 10.646 10.646 0 0 1 0.985 2.995 M 3.973 0.985 A 809.451 809.451 0 0 1 3.973 1.158 Q 3.972 1.699 3.971 1.722 A 0.005 0.005 0 0 0 3.971 1.722 Q 3.972 1.699 3.973 1.158 M 1.11 1.49 A 24.122 24.122 0 0 1 1.077 1.938 Q 1.059 2.151 1.038 2.341 A 11.918 11.918 0 0 1 0.985 2.764 M 10.043 1.49 A 7271.709 7271.709 0 0 1 10.042 1.938 Q 10.042 2.151 10.042 2.341 A 3538.213 3538.213 0 0 1 10.042 2.764 M 1.07 1.488 A 23.136 23.136 0 0 1 1.047 1.827 Q 1.035 1.989 1.021 2.135 A 12.43 12.43 0 0 1 0.985 2.465 M 10.218 1.488 Q 10.218 1.842 10.218 2.135 A 7256.478 7256.478 0 0 1 10.218 2.465 M 2.984 0.985 A 650.164 650.164 0 0 1 2.984 1.158 Q 2.982 1.724 2.981 1.724 M 3.244 1.724 A 0.011 0.011 0 0 1 3.244 1.722 Q 3.243 1.692 3.242 1.158 A 833.263 833.263 0 0 1 3.241 0.985 M 3.494 0.985 Q 3.495 1.688 3.496 1.722 A 0.015 0.015 0 0 1 3.496 1.722 M 3.738 1.724 A 0.005 0.005 0 0 1 3.738 1.723 Q 3.737 1.7 3.736 1.158 A 806.991 806.991 0 0 1 3.736 0.985 M 4.194 1.722 A 0.031 0.031 0 0 1 4.194 1.721 Q 4.194 1.691 4.194 1.158 A 2263.787 2263.787 0 0 1 4.193 0.985 M 4.41 0.985 A 1743.272 1743.272 0 0 1 4.41 1.158 Q 4.409 1.722 4.409 1.722 M 4.615 1.719 A 0.017 0.017 0 0 1 4.615 1.72 Q 4.615 1.684 4.616 0.985 M 4.813 0.985 A 4541.698 4541.698 0 0 1 4.813 1.157 Q 4.813 1.719 4.813 1.719 M 5.003 1.717 A 0.011 0.011 0 0 1 5.002 1.716 Q 5.002 1.686 5.001 1.157 A 811.159 811.159 0 0 1 5 0.985 M 5.185 1.715 A 0.039 0.039 0 0 1 5.185 1.714 Q 5.185 1.684 5.185 1.156 A 2742.168 2742.168 0 0 1 5.185 0.985 M 5.532 0.985 A 722.539 722.539 0 0 1 5.532 1.153 Q 5.531 1.62 5.53 1.696 A 0.338 0.338 0 0 1 5.53 1.71 M 5.693 1.707 A 0.52 0.52 0 0 1 5.693 1.692 Q 5.692 1.615 5.691 1.151 A 876.734 876.734 0 0 1 5.691 0.985 M 5.852 0.985 A 708.686 708.686 0 0 1 5.852 1.149 Q 5.851 1.608 5.85 1.687 A 0.554 0.554 0 0 1 5.85 1.703 M 6.001 1.699 A 1.431 1.431 0 0 1 6.001 1.682 Q 6.001 1.586 6 0.985 M 6.148 1.694 A 1.059 1.059 0 0 1 6.148 1.676 Q 6.147 1.591 6.146 1.145 A 803.382 803.382 0 0 1 6.146 0.985 M 6.289 1.689 Q 6.289 1.657 6.289 1.142 A 3100.757 3100.757 0 0 1 6.289 0.985 M 6.427 1.683 A 1.576 1.576 0 0 1 6.426 1.662 Q 6.426 1.558 6.425 0.985 M 6.56 1.676 A 0.961 0.961 0 0 1 6.56 1.669 Q 6.559 1.602 6.558 1.137 A 798.772 798.772 0 0 1 6.558 0.985 M 6.69 1.669 A 7.691 7.691 0 0 1 6.69 1.661 Q 6.69 1.579 6.69 0.985 M 6.819 0.985 A 621.735 621.735 0 0 1 6.818 1.13 Q 6.817 1.578 6.817 1.652 A 1.341 1.341 0 0 1 6.816 1.66 M 7.061 1.642 A 22.114 22.114 0 0 1 7.061 1.632 Q 7.061 1.55 7.061 1.123 A 6045.868 6045.868 0 0 1 7.061 0.985 M 7.181 1.631 A 5.065 5.065 0 0 1 7.18 1.621 Q 7.18 1.535 7.179 1.12 A 1060.743 1060.743 0 0 1 7.179 0.985 M 7.3 0.985 A 573.26 573.26 0 0 1 7.3 1.176 Q 7.299 1.484 7.298 1.585 A 6.919 6.919 0 0 1 7.298 1.62 M 7.414 1.607 A 135.76 135.76 0 0 1 7.414 1.572 Q 7.414 1.47 7.414 1.17 A 9438.141 9438.141 0 0 1 7.414 0.985 M 7.645 0.985 A 1560.567 1560.567 0 0 1 7.644 1.157 Q 7.644 1.439 7.644 1.543 A 31.866 31.866 0 0 1 7.644 1.579 M 1.029 1.486 A 19.294 19.294 0 0 1 1.023 1.577 Q 1.015 1.711 1.006 1.831 A 10.921 10.921 0 0 1 0.985 2.064 M 7.758 1.564 Q 7.758 1.481 7.757 1.151 A 521.394 521.394 0 0 1 7.757 0.985 M 10.402 2.064 A 2392.463 2392.463 0 0 1 10.401 1.831 Q 10.401 1.671 10.401 1.486 M 7.875 0.985 A 541.623 541.623 0 0 1 7.874 1.144 Q 7.874 1.462 7.873 1.547 M 7.99 0.985 Q 7.989 1.393 7.988 1.515 A 10.585 10.585 0 0 1 7.988 1.53 M 8.104 1.511 A 18.508 18.508 0 0 1 8.104 1.504 Q 8.104 1.41 8.104 1.13 A 684.972 684.972 0 0 1 8.103 0.985 M 8.222 1.491 A 106.207 106.207 0 0 1 8.222 1.44 Q 8.222 1.342 8.222 1.144 A 1893.916 1893.916 0 0 1 8.222 0.985 M 8.341 1.47 A 103.516 103.516 0 0 1 8.341 1.42 Q 8.341 1.323 8.341 1.135 A 1579.371 1579.371 0 0 1 8.341 0.985 M 8.464 0.985 A 332.708 332.708 0 0 1 8.464 1.126 Q 8.463 1.303 8.463 1.398 A 25.26 25.26 0 0 1 8.463 1.448 M 8.588 0.985 A 323.45 323.45 0 0 1 8.587 1.126 Q 8.587 1.336 8.586 1.424 M 8.713 1.399 Q 8.712 1.313 8.712 1.12 A 311.405 311.405 0 0 1 8.711 0.985 M 8.843 1.373 A 25.789 25.789 0 0 1 8.843 1.354 Q 8.842 1.239 8.841 0.985 M 9.255 1.286 Q 9.255 1.212 9.255 1.08 A 446.417 446.417 0 0 1 9.255 0.985 M 9.402 0.985 A 1533.039 1533.039 0 0 1 9.402 1.068 Q 9.402 1.185 9.402 1.254 M 9.553 1.22 A 40.718 40.718 0 0 1 9.553 1.177 Q 9.553 1.101 9.552 0.985 M 9.711 0.985 A 147.785 147.785 0 0 1 9.711 1.045 Q 9.711 1.103 9.711 1.148 A 44.224 44.224 0 0 1 9.71 1.185 M 9.873 0.985 A 1209.42 1209.42 0 0 1 9.873 1.033 Q 9.873 1.092 9.873 1.135 A 375.491 375.491 0 0 1 9.873 1.149 M 10.043 1.11 Q 10.042 1.073 10.042 1.021 A 67.685 67.685 0 0 1 10.042 0.985 M 10.218 1.07 A 47.523 47.523 0 0 1 10.218 1.047 Q 10.218 1.034 10.218 1.021 A 94.813 94.813 0 0 1 10.218 0.985 M 10.402 0.985 A 21.152 21.152 0 0 1 10.402 1.003 Q 10.401 1.01 10.401 1.016 A 11.979 11.979 0 0 1 10.401 1.029 M 1.717 1.933 A 13.299 13.299 0 0 1 1.717 1.956 M 0.985 4.339 Q 1.586 3.841 1.652 1.765 M 2.708 0.985 2.708 1.723 M 5.36 0.985 Q 5.361 1.708 5.361 1.713 M 6.941 0.985 Q 6.94 1.586 6.94 1.651 M 7.53 0.985 Q 7.53 1.501 7.529 1.594 M 8.976 0.985 Q 8.976 1.237 8.976 1.345 M 9.112 0.985 Q 9.113 1.212 9.113 1.316 M 2.708 4.485 2.708 1.985 M 4.193 4.481 Q 4.194 4.209 4.194 1.965 M 4.813 4.472 Q 4.813 4.175 4.813 1.942 M 5.532 4.45 Q 5.531 4.108 5.53 1.901 M 8.841 3.821 Q 8.842 3.076 8.843 1.547 M 8.976 3.749 8.976 1.537 M 9.112 3.669 Q 9.113 2.926 9.113 1.528 M 9.873 2.995 Q 9.873 2.398 9.873 1.494" id="blue" stroke="blue" style="stroke:blue" vector-effect="non-scaling-stroke"/><path d="M 8.764 2.283 A 1.02 1.02 0 0 1 8.481 2.505 C 7.263 3.203 3.365 3.664 2.781 3.728 A 3.168 3.168 0 0 1 2.708 3.735 M 2.708 0.23 A 1.139 1.139 0 0 1 2.726 0.231 C 3.071 0.248 8.069 0.524 8.764 0.537 M 0.537 2.283 A 4.076 4.076 0 0 1 0.526 2.526 C 0.476 3.189 0.279 3.633 0.238 3.72 A 0.643 0.643 0 0 1 0.23 3.735 M 5.447 12.646 m -0.063 0 a 0.063 0.063 0 0 1 0.126 0 a 0.063 0.063 0 0 1 -0.126 0 z M 5.03 10.612 m -0.063 0 a 0.063 0.063 0 0 1 0.126 0 a 0.063 0.063 0 0 1 -0.126 0 z M 7.21 4.709 m -0.063 0 a 0.063 0.063 0 0 1 0.126 0 a 0.063 0.063 0 0 1 -0.126 0 z M 5.805 10.624 m -0.063 0 a 0.063 0.063 0 0 1 0.126 0 a 0.063 0.063 0 0 1 -0.126 0 z M 8.569 4.861 m -0.063 0 a 0.063 0.063 0 0 1 0.126 0 a 0.063 0.063 0 0 1 -0.126 0 z M 7.442 10.677 m -0.063 0 a 0.063 0.063 0 0 1 0.126 0 a 0.063 0.063 0 0 1 -0.126 0 z M 4.397 12.696 m -0.063 0 a 0.063 0.063 0 0 1 0.126 0 a 0.063 0.063 0 0 1 -0.126 0 z M 4.83 10.813 m -0.063 0 a 0.063 0.063 0 0 1 0.126 0 a 0.063 0.063 0 0 1 -0.126 0 z M 2.622 4.709 m -0.063 0 a 0.063 0.063 0 0 1 0.126 0 a 0.063 0.063 0 0 1 -0.126 0 z M 4.088 10.826 m -0.063 0 a 0.063 0.063 0 0 1 0.126 0 a 0.063 0.063 0 0 1 -0.126 0 z M 0.989 4.965 m -0.063 0 a 0.063 0.063 0 0 1 0.126 0 a 0.063 0.063 0 0 1 -0.126 0 z M 2.461 10.903 m -0.063 0 a 0.063 0.063 0 0 1 0.126 0 a 0.063 0.063 0 0 1 -0.126 0 z" id="green" stroke="green" style="stroke:green" vector-effect="non-scaling-stroke"/><path d="M 4.397 12.696 L 4.397 12.676 L 4.398 12.656 L 4.398 12.636 L 4.398 12.616 L 4.398 12.596 L 4.399 12.577 L 4.399 12.557 L 4.899 12.529 L 4.899 12.509 L 4.899 12.489 L 4.899 12.47 L 4.899 12.451 L 4.898 12.432 L 4.898 12.412 L 4.898 12.394 L 4.898 12.374 L 4.897 12.355 L 4.897 12.337 L 4.897 12.318 L 4.897 12.3 L 4.897 12.281 L 4.897 12.263 L 4.896 12.244 L 4.896 12.226 L 4.895 12.208 L 4.895 12.19 L 4.895 12.172 L 4.895 12.154 L 4.894 12.136 L 4.894 12.118 L 4.893 12.101 L 4.894 12.083 L 4.893 12.065 L 4.893 12.048 L 4.892 12.03 L 4.892 12.013 L 4.892 11.995 L 4.891 11.978 L 4.891 11.961 L 4.89 11.944 L 4.889 11.927 L 4.889 11.91 L 4.889 11.893 L 4.888 11.876 L 4.887 11.859 L 4.887 11.843 L 4.887 11.826 L 4.886 11.809 L 4.886 11.792 L 4.885 11.776 L 4.885 11.759 L 4.884 11.743 L 4.883 11.727 L 4.883 11.711 L 4.883 11.694 L 4.882 11.678 L 4.881 11.662 L 4.88 11.646 L 4.88 11.63 L 4.88 11.614 L 4.878 11.598 L 4.878 11.582 L 4.877 11.567 L 4.877 11.551 L 4.875 11.535 L 4.875 11.52 L 4.875 11.504 L 4.874 11.489 L 4.872 11.473 L 4.872 11.458 L 4.871 11.442 L 4.871 11.427 L 4.87 11.412 L 4.87 11.396 L 4.868 11.381 L 4.867 11.366 L 4.867 11.351 L 4.866 11.336 L 4.865 11.321 L 4.864 11.306 L 4.864 11.291 L 4.863 11.277 L 4.862 11.262 L 4.862 11.247 L 4.86 11.233 L 4.859 11.218 L 4.859 11.204 L 4.857 11.189 L 4.857 11.175 L 4.855 11.16 L 4.855 11.146 L 4.854 11.131 L 4.853 11.117 L 4.852 11.103 L 4.852 11.089 L 4.849 11.075 L 4.849 11.06 L 4.848 11.046 L 4.847 11.033 L 4.846 11.018 L 4.846 11.004 L 4.845 10.991 L 4.844 10.977 L 4.843 10.963 L 4.841 10.949 L 4.84 10.936 L 4.839 10.922 L 4.838 10.908 L 4.837 10.894 L 4.836 10.88 L 4.835 10.867 L 4.834 10.854 L 4.833 10.84 L 4.83 10.813 L 4.829 10.8 L 4.829 10.787 L 4.828 10.773 L 4.826 10.76 L 4.826 10.747 L 4.824 10.734 L 4.823 10.72 L 4.821 10.707 L 4.821 10.694 L 4.819 10.681 L 4.819 10.668 L 4.817 10.655 L 4.815 10.642 L 4.815 10.629 L 4.813 10.616 L 4.813 10.603 L 4.811 10.59 L 4.81 10.578 L 4.808 10.565 L 4.808 10.552 L 4.806 10.539 L 4.805 10.527 L 4.803 10.514 L 4.803 10.501 L 4.801 10.489 L 4.8 10.476 L 4.8 10.464 L 4.797 10.451 L 4.797 10.438 L 4.795 10.426 L 4.794 10.414 L 4.793 10.401 L 4.791 10.389 L 4.79 10.376 L 4.789 10.364 L 4.787 10.351 L 4.786 10.339 L 4.786 10.327 L 4.783 10.315 L 4.782 10.303 L 4.782 10.29 L 4.779 10.278 L 4.778 10.266 L 4.777 10.254 L 4.775 10.241 L 4.774 10.229 L 4.773 10.217 L 4.772 10.205 L 4.769 10.193 L 4.769 10.181 L 4.768 10.169 L 4.767 10.157 L 4.764 10.145 L 4.763 10.133 L 4.762 10.121 L 4.761 10.109 L 4.76 10.097 L 4.757 10.085 L 4.756 10.073 L 4.755 10.061 L 4.754 10.049 L 4.753 10.037 L 4.75 10.026 L 4.749 10.014 L 4.748 10.002 L 4.747 9.99 L 4.745 9.978 L 4.744 9.966 L 4.743 9.954 L 4.74 9.942 L 4.739 9.931 L 4.738 9.919 L 4.737 9.907 L 4.735 9.896 L 4.734 9.884 L 4.733 9.872 L 4.732 9.86 L 4.729 9.848 L 4.727 9.837 L 4.726 9.825 L 4.725 9.813 L 4.723 9.801 L 4.722 9.79 L 4.721 9.778 L 4.719 9.767 L 4.718 9.755 L 4.717 9.743 L 4.715 9.732 L 4.714 9.72 L 4.713 9.708 L 4.711 9.696 L 4.71 9.685 L 4.707 9.673 L 4.705 9.661 L 4.704 9.649 L 4.702 9.638 L 4.701 9.626 L 4.699 9.615 L 4.698 9.603 L 4.697 9.591 L 4.695 9.579 L 4.694 9.568 L 4.692 9.556 L 4.691 9.544 L 4.689 9.533 L 4.688 9.521 L 4.686 9.509 L 4.685 9.498 L 4.683 9.486 L 4.681 9.474 L 4.68 9.462 L 4.678 9.451 L 4.677 9.439 L 4.675 9.427 L 4.674 9.416 L 4.674 9.404 L 4.672 9.392 L 4.671 9.38 L 4.669 9.368 L 4.668 9.356 L 4.666 9.345 L 4.664 9.333 L 4.663 9.321 L 4.661 9.309 L 4.659 9.297 L 4.658 9.286 L 4.656 9.274 L 4.655 9.262 L 4.653 9.25 L 4.651 9.238 L 4.65 9.226 L 4.65 9.214 L 4.648 9.202 L 4.646 9.19 L 4.645 9.178 L 4.643 9.166 L 4.641 9.154 L 4.64 9.142 L 4.638 9.13 L 4.636 9.118 L 4.634 9.106 L 4.635 9.094 L 4.633 9.082 L 4.631 9.069 L 4.629 9.057 L 4.628 9.045 L 4.626 9.033 L 4.624 9.021 L 4.624 9.008 L 4.622 8.996 L 4.621 8.984 L 4.619 8.971 L 4.617 8.959 L 4.615 8.947 L 4.613 8.935 L 4.614 8.922 L 4.612 8.91 L 4.61 8.897 L 4.608 8.885 L 4.606 8.872 L 4.604 8.86 L 4.605 8.847 L 4.603 8.835 L 4.601 8.822 L 4.599 8.809 L 4.597 8.797 L 4.597 8.784 L 4.596 8.771 L 4.594 8.758 L 4.592 8.745 L 4.59 8.733 L 4.588 8.72 L 4.588 8.707 L 4.586 8.694 L 4.584 8.681 L 4.582 8.668 L 4.583 8.655 L 4.581 8.642 L 4.579 8.629 L 4.577 8.616 L 4.575 8.603 L 4.575 8.59 L 4.573 8.576 L 4.571 8.563 L 4.569 8.55 L 4.569 8.536 L 4.567 8.523 L 4.565 8.51 L 4.564 8.496 L 4.564 8.483 L 4.562 8.469 L 4.56 8.456 L 4.558 8.442 L 4.558 8.429 L 4.556 8.415 L 4.554 8.401 L 4.554 8.388 L 4.552 8.374 L 4.55 8.36 L 4.548 8.346 L 4.548 8.332 L 4.546 8.318 L 4.544 8.304 L 4.544 8.29 L 4.542 8.276 L 4.54 8.262 L 4.538 8.248 L 4.538 8.233 L 4.536 8.219 L 4.534 8.205 L 4.534 8.191 L 4.532 8.176 L 4.53 8.162 L 4.53 8.147 L 4.528 8.133 L 4.526 8.118 L 4.526 8.103 L 4.524 8.089 L 4.522 8.074 L 4.522 8.059 L 4.52 8.045 L 4.518 8.03 L 4.518 8.015 L 4.516 8 L 4.514 7.985 L 4.514 7.97 L 4.512 7.954 L 4.512 7.939 L 4.51 7.924 L 4.508 7.909 L 4.508 7.893 L 4.506 7.878 L 4.504 7.863 L 4.504 7.847 L 4.502 7.831 L 4.502 7.816 L 4.5 7.8 L 4.498 7.784 L 4.498 7.769 L 4.496 7.753 L 4.496 7.737 L 4.494 7.721 L 4.491 7.705 L 4.491 7.689 L 4.489 7.673 L 4.489 7.656 L 4.487 7.64 L 4.487 7.624 L 4.485 7.608 L 4.485 7.591 L 4.483 7.575 L 4.481 7.558 L 4.481 7.541 L 4.479 7.525 L 4.479 7.508 L 4.477 7.491 L 4.477 7.474 L 4.475 7.457 L 4.475 7.44 L 4.473 7.423 L 4.473 7.406 L 4.47 7.389 L 4.47 7.372 L 4.468 7.354 L 4.466 7.337 L 4.466 7.319 L 4.464 7.302 L 4.464 7.284 L 4.462 7.267 L 4.462 7.249 L 4.462 7.231 L 4.46 7.213 L 4.46 7.195 L 4.458 7.177 L 4.458 7.159 L 4.455 7.141 L 4.455 7.123 L 4.453 7.104 L 4.453 7.086 L 4.451 7.068 L 4.451 7.049 L 4.449 7.03 L 4.449 7.012 L 4.447 6.993 L 4.447 6.974 L 4.447 6.955 L 4.445 6.936 L 4.445 6.917 L 4.442 6.898 L 4.443 6.879 L 4.44 6.86 L 4.44 6.84 L 4.44 6.821 L 4.438 6.801 L 4.438 6.782 L 4.436 6.762 L 4.436 6.742 L 4.436 6.723 L 4.434 6.703 L 4.434 6.683 L 4.434 6.663 L 4.432 6.642 L 4.432 6.622 L 4.429 6.602 L 4.429 6.582 L 4.429 6.561 L 4.427 6.541 L 4.427 6.52 L 4.427 6.499 L 4.425 6.478 L 4.425 6.458 L 4.425 6.437 L 4.423 6.415 L 4.423 6.394 L 4.423 6.373 L 4.421 6.352 L 4.421 6.33 L 4.421 6.309 L 4.419 6.287 L 4.418 6.266 L 4.419 6.244 L 4.416 6.222 L 4.416 6.2 L 4.416 6.178 L 4.416 6.156 L 4.414 6.134 L 4.414 6.112 L 4.414 6.089 L 4.414 6.067 L 4.412 6.044 L 4.412 6.021 L 4.412 5.999 L 4.41 5.976 L 4.41 5.953 L 4.41 5.93 L 4.41 5.907 L 4.41 5.884 L 4.408 5.86 L 4.408 5.837 L 4.408 5.813 L 4.408 5.79 L 4.405 5.766 L 4.405 5.742 L 4.405 5.718 L 4.405 5.694 L 4.405 5.67 L 4.403 5.646 L 4.403 5.622 L 4.403 5.598 L 4.403 5.573 L 4.403 5.548 L 4.403 5.524 L 4.401 5.499 L 4.401 5.474 L 4.401 5.449 L 4.401 5.424 L 4.401 5.399 L 4.401 5.374 L 4.401 5.348 L 4.399 5.323 L 4.399 5.297 L 4.399 5.272 L 4.399 5.246 L 4.399 5.22 L 4.399 5.194 L 4.399 5.168 L 4.399 5.141 L 4.399 5.115 L 4.399 5.089 L 4.399 5.062 L 4.399 5.036 L 4.398 5.009 L 4.398 4.982 L 4.398 4.956 L 4.398 4.929 L 4.398 4.901 L 4.398 4.874 L 4.398 4.847 L 4.398 4.82 L 4.398 4.792 L 4.398 4.764 L 4.398 4.737 L 4.398 4.709 L 2.622 4.709 L 2.622 4.737 L 2.623 4.765 L 2.623 4.792 L 2.623 4.82 L 2.623 4.848 L 2.623 4.875 L 2.624 4.903 L 2.624 4.93 L 2.624 4.957 L 2.625 4.984 L 2.625 5.008 L 2.625 5.035 L 2.641 5.224 L 2.626 5.089 L 2.626 5.115 L 2.627 5.142 L 2.627 5.168 L 2.627 5.197 L 2.628 5.22 L 2.628 5.246 L 2.628 5.272 L 2.629 5.297 L 2.629 5.323 L 2.632 5.352 L 2.632 5.374 L 2.633 5.399 L 2.633 5.425 L 2.633 5.452 L 2.634 5.474 L 2.634 5.499 L 2.637 5.524 L 2.637 5.552 L 2.638 5.573 L 2.638 5.598 L 2.639 5.623 L 2.639 5.65 L 2.642 5.671 L 2.643 5.695 L 2.643 5.722 L 2.644 5.743 L 2.644 5.767 L 2.647 5.793 L 2.648 5.814 L 2.648 5.838 L 2.649 5.864 L 2.651 5.884 L 2.652 5.91 L 2.653 5.931 L 2.653 5.954 L 2.654 5.98 L 2.657 6 L 2.657 6.025 L 2.658 6.045 L 2.661 6.071 L 2.662 6.09 L 2.662 6.113 L 2.663 6.138 L 2.666 6.157 L 2.667 6.182 L 2.667 6.201 L 2.668 6.226 L 2.671 6.245 L 2.672 6.27 L 2.672 6.289 L 2.675 6.313 L 2.676 6.332 L 2.677 6.356 L 2.68 6.378 L 2.681 6.396 L 2.681 6.42 L 2.685 6.438 L 2.685 6.462 L 2.686 6.483 L 2.689 6.501 L 2.69 6.525 L 2.691 6.543 L 2.694 6.566 L 2.695 6.586 L 2.696 6.604 L 2.699 6.627 L 2.7 6.648 L 2.703 6.665 L 2.704 6.688 L 2.704 6.708 L 2.708 6.725 L 2.709 6.748 L 2.71 6.768 L 2.713 6.784 L 2.714 6.807 L 2.717 6.827 L 2.718 6.846 L 2.719 6.862 L 2.722 6.885 L 2.723 6.904 L 2.726 6.923 L 2.727 6.939 L 2.73 6.961 L 2.731 6.98 L 2.732 6.999 L 2.736 7.015 L 2.737 7.037 L 2.74 7.055 L 2.741 7.074 L 2.744 7.092 L 2.746 7.108 L 2.749 7.13 L 2.75 7.148 L 2.753 7.166 L 2.754 7.184 L 2.758 7.202 L 2.759 7.22 L 2.762 7.238 L 2.763 7.253 L 2.765 7.274 L 2.768 7.292 L 2.769 7.309 L 2.772 7.327 L 2.774 7.344 L 2.777 7.362 L 2.78 7.379 L 2.782 7.396 L 2.785 7.414 L 2.786 7.431 L 2.79 7.448 L 2.791 7.465 L 2.794 7.479 L 2.796 7.499 L 2.799 7.516 L 2.801 7.533 L 2.804 7.55 L 2.805 7.567 L 2.809 7.583 L 2.812 7.6 L 2.814 7.616 L 2.817 7.633 L 2.818 7.652 L 2.822 7.665 L 2.823 7.681 L 2.827 7.698 L 2.828 7.714 L 2.832 7.73 L 2.835 7.746 L 2.837 7.762 L 2.84 7.778 L 2.842 7.794 L 2.845 7.81 L 2.849 7.825 L 2.85 7.841 L 2.854 7.857 L 2.855 7.875 L 2.859 7.888 L 2.863 7.903 L 2.864 7.919 L 2.868 7.934 L 2.871 7.949 L 2.873 7.965 L 2.877 7.98 L 2.878 7.998 L 2.882 8.01 L 2.886 8.025 L 2.887 8.04 L 2.891 8.055 L 2.895 8.07 L 2.896 8.088 L 2.9 8.1 L 2.903 8.114 L 2.905 8.129 L 2.909 8.144 L 2.913 8.162 L 2.914 8.173 L 2.918 8.187 L 2.922 8.202 L 2.924 8.216 L 2.927 8.234 L 2.931 8.245 L 2.933 8.259 L 2.937 8.274 L 2.941 8.291 L 2.944 8.302 L 2.946 8.316 L 2.95 8.33 L 2.954 8.347 L 2.955 8.358 L 2.959 8.372 L 2.963 8.386 L 2.967 8.403 L 2.969 8.413 L 2.973 8.427 L 2.977 8.444 L 2.978 8.454 L 2.982 8.468 L 2.986 8.482 L 2.991 8.499 L 2.992 8.509 L 2.996 8.522 L 3 8.539 L 3.004 8.549 L 3.006 8.563 L 3.01 8.579 L 3.014 8.589 L 3.018 8.602 L 3.02 8.619 L 3.024 8.629 L 3.028 8.642 L 3.032 8.658 L 3.036 8.668 L 3.038 8.681 L 3.042 8.697 L 3.046 8.707 L 3.05 8.72 L 3.052 8.736 L 3.056 8.746 L 3.061 8.759 L 3.065 8.775 L 3.069 8.784 L 3.073 8.797 L 3.075 8.813 L 3.079 8.822 L 3.083 8.835 L 3.087 8.851 L 3.091 8.86 L 3.093 8.876 L 3.098 8.885 L 3.102 8.898 L 3.106 8.914 L 3.11 8.923 L 3.115 8.936 L 3.117 8.951 L 3.121 8.96 L 3.125 8.976 L 3.129 8.985 L 3.134 8.997 L 3.138 9.013 L 3.142 9.022 L 3.144 9.034 L 3.149 9.05 L 3.153 9.059 L 3.158 9.074 L 3.162 9.083 L 3.166 9.095 L 3.171 9.11 L 3.173 9.119 L 3.177 9.131 L 3.182 9.147 L 3.186 9.155 L 3.191 9.17 L 3.195 9.179 L 3.199 9.192 L 3.204 9.206 L 3.208 9.215 L 3.213 9.227 L 3.215 9.242 L 3.219 9.251 L 3.225 9.266 L 3.229 9.275 L 3.233 9.287 L 3.238 9.301 L 3.242 9.31 L 3.247 9.322 L 3.252 9.337 L 3.256 9.346 L 3.261 9.36 L 3.265 9.369 L 3.27 9.381 L 3.275 9.396 L 3.279 9.404 L 3.284 9.416 L 3.287 9.431 L 3.291 9.44 L 3.296 9.451 L 3.301 9.466 L 3.305 9.475 L 3.31 9.486 L 3.315 9.501 L 3.32 9.51 L 3.324 9.521 L 3.329 9.536 L 3.334 9.544 L 3.339 9.556 L 3.344 9.57 L 3.348 9.579 L 3.353 9.591 L 3.359 9.603 L 3.364 9.617 L 3.368 9.626 L 3.373 9.637 L 3.378 9.652 L 3.383 9.66 L 3.388 9.672 L 3.393 9.684 L 3.4 9.698 L 3.405 9.707 L 3.41 9.719 L 3.415 9.73 L 3.42 9.744 L 3.425 9.753 L 3.43 9.765 L 3.435 9.777 L 3.441 9.79 L 3.446 9.8 L 3.451 9.811 L 3.456 9.823 L 3.461 9.835 L 3.467 9.848 L 3.472 9.858 L 3.479 9.869 L 3.484 9.881 L 3.49 9.893 L 3.495 9.904 L 3.501 9.918 L 3.506 9.927 L 3.512 9.939 L 3.517 9.951 L 3.524 9.963 L 3.53 9.974 L 3.535 9.986 L 3.541 9.998 L 3.547 10.01 L 3.552 10.021 L 3.558 10.035 L 3.565 10.044 L 3.571 10.056 L 3.577 10.068 L 3.582 10.08 L 3.588 10.092 L 3.596 10.104 L 3.602 10.115 L 3.608 10.127 L 3.614 10.139 L 3.62 10.151 L 3.627 10.163 L 3.633 10.175 L 3.639 10.187 L 3.645 10.197 L 3.653 10.211 L 3.66 10.223 L 3.666 10.235 L 3.672 10.247 L 3.68 10.259 L 3.687 10.271 L 3.693 10.283 L 3.701 10.293 L 3.708 10.307 L 3.715 10.319 L 3.722 10.331 L 3.729 10.344 L 3.735 10.354 L 3.744 10.368 L 3.751 10.38 L 3.758 10.393 L 3.767 10.403 L 3.773 10.417 L 3.78 10.43 L 3.79 10.44 L 3.797 10.455 L 3.806 10.467 L 3.813 10.478 L 3.82 10.492 L 3.829 10.503 L 3.837 10.517 L 3.846 10.529 L 3.854 10.541 L 3.863 10.555 L 3.871 10.566 L 3.881 10.58 L 3.889 10.591 L 3.9 10.605 L 3.908 10.617 L 3.919 10.63 L 3.927 10.644 L 3.938 10.655 L 3.949 10.669 L 3.958 10.681 L 3.969 10.694 L 3.979 10.708 L 3.99 10.72 L 4.002 10.733 L 4.015 10.746 L 4.027 10.761 L 4.039 10.773 L 4.052 10.786 L 4.066 10.799 L 4.08 10.812 L 4.088 10.826 L 4.075 10.813 L 4.061 10.799 L 4.049 10.786 L 4.037 10.779 L 4.025 10.76 L 4.013 10.746 L 4.002 10.733 L 3.992 10.726 L 3.982 10.707 L 3.971 10.694 L 3.962 10.687 L 3.952 10.668 L 3.943 10.661 L 3.934 10.642 L 3.924 10.629 L 3.916 10.622 L 3.906 10.603 L 3.898 10.597 L 3.889 10.578 L 3.881 10.571 L 3.873 10.552 L 3.865 10.546 L 3.857 10.534 L 3.849 10.514 L 3.841 10.508 L 3.833 10.489 L 3.826 10.483 L 3.819 10.471 L 3.811 10.451 L 3.803 10.445 L 3.796 10.433 L 3.789 10.414 L 3.782 10.408 L 3.775 10.396 L 3.768 10.384 L 3.76 10.364 L 3.754 10.358 L 3.747 10.346 L 3.741 10.334 L 3.734 10.322 L 3.727 10.302 L 3.721 10.297 L 3.714 10.285 L 3.708 10.273 L 3.701 10.261 L 3.695 10.249 L 3.689 10.237 L 3.682 10.225 L 3.676 10.205 L 3.67 10.199 L 3.664 10.187 L 3.658 10.175 L 3.652 10.163 L 3.646 10.151 L 3.64 10.139 L 3.634 10.127 L 3.628 10.115 L 3.622 10.103 L 3.616 10.091 L 3.611 10.079 L 3.605 10.067 L 3.599 10.055 L 3.594 10.056 L 3.588 10.033 L 3.583 10.021 L 3.577 10.009 L 3.571 9.996 L 3.566 9.984 L 3.56 9.972 L 3.555 9.96 L 3.55 9.948 L 3.544 9.936 L 3.54 9.938 L 3.534 9.914 L 3.529 9.901 L 3.523 9.889 L 3.518 9.877 L 3.512 9.865 L 3.508 9.867 L 3.502 9.842 L 3.497 9.83 L 3.491 9.818 L 3.487 9.806 L 3.482 9.808 L 3.477 9.783 L 3.472 9.771 L 3.466 9.759 L 3.462 9.761 L 3.457 9.736 L 3.451 9.724 L 3.446 9.712 L 3.443 9.714 L 3.436 9.689 L 3.432 9.677 L 3.427 9.664 L 3.423 9.666 L 3.417 9.641 L 3.412 9.629 L 3.409 9.631 L 3.403 9.606 L 3.398 9.594 L 3.393 9.581 L 3.389 9.583 L 3.384 9.558 L 3.379 9.546 L 3.375 9.548 L 3.369 9.523 L 3.365 9.51 L 3.361 9.512 L 3.356 9.487 L 3.35 9.475 L 3.347 9.477 L 3.341 9.452 L 3.337 9.439 L 3.333 9.441 L 3.328 9.416 L 3.323 9.403 L 3.32 9.405 L 3.314 9.38 L 3.309 9.367 L 3.306 9.369 L 3.3 9.344 L 3.297 9.345 L 3.291 9.32 L 3.287 9.308 L 3.284 9.309 L 3.278 9.284 L 3.273 9.271 L 3.27 9.273 L 3.264 9.247 L 3.261 9.249 L 3.256 9.224 L 3.251 9.211 L 3.248 9.212 L 3.242 9.187 L 3.238 9.174 L 3.235 9.175 L 3.229 9.15 L 3.226 9.151 L 3.221 9.126 L 3.216 9.113 L 3.213 9.114 L 3.208 9.089 L 3.203 9.076 L 3.2 9.077 L 3.194 9.052 L 3.191 9.052 L 3.186 9.027 L 3.181 9.014 L 3.178 9.015 L 3.173 8.99 L 3.168 8.976 L 3.165 8.977 L 3.16 8.952 L 3.157 8.952 L 3.151 8.927 L 3.147 8.914 L 3.144 8.914 L 3.138 8.889 L 3.134 8.876 L 3.131 8.875 L 3.125 8.851 L 3.122 8.85 L 3.117 8.826 L 3.112 8.812 L 3.11 8.812 L 3.104 8.787 L 3.1 8.774 L 3.097 8.773 L 3.091 8.748 L 3.087 8.735 L 3.084 8.734 L 3.078 8.709 L 3.074 8.695 L 3.071 8.694 L 3.066 8.67 L 3.061 8.656 L 3.058 8.655 L 3.053 8.63 L 3.048 8.616 L 3.045 8.615 L 3.04 8.591 L 3.036 8.577 L 3.033 8.575 L 3.027 8.551 L 3.023 8.536 L 3.02 8.534 L 3.015 8.51 L 3.01 8.496 L 3.007 8.494 L 3.002 8.47 L 2.997 8.455 L 2.993 8.441 L 2.99 8.438 L 2.984 8.415 L 2.98 8.4 L 2.977 8.397 L 2.972 8.373 L 2.967 8.359 L 2.963 8.344 L 2.96 8.341 L 2.955 8.317 L 2.95 8.303 L 2.946 8.288 L 2.943 8.284 L 2.937 8.261 L 2.933 8.246 L 2.929 8.231 L 2.926 8.227 L 2.92 8.204 L 2.916 8.189 L 2.911 8.174 L 2.907 8.159 L 2.904 8.155 L 2.899 8.131 L 2.894 8.116 L 2.89 8.101 L 2.886 8.086 L 2.882 8.081 L 2.877 8.058 L 2.873 8.043 L 2.868 8.028 L 2.864 8.012 L 2.859 7.997 L 2.857 7.991 L 2.851 7.968 L 2.847 7.953 L 2.842 7.937 L 2.837 7.922 L 2.833 7.906 L 2.829 7.891 L 2.824 7.875 L 2.821 7.869 L 2.816 7.846 L 2.811 7.83 L 2.807 7.814 L 2.803 7.798 L 2.798 7.783 L 2.793 7.767 L 2.789 7.751 L 2.785 7.735 L 2.78 7.719 L 2.776 7.702 L 2.771 7.686 L 2.767 7.67 L 2.762 7.654 L 2.759 7.646 L 2.754 7.624 L 2.749 7.608 L 2.745 7.591 L 2.74 7.575 L 2.736 7.558 L 2.731 7.542 L 2.727 7.525 L 2.722 7.509 L 2.718 7.492 L 2.712 7.469 L 2.708 7.456 L 2.703 7.439 L 2.699 7.422 L 2.694 7.406 L 2.69 7.389 L 2.685 7.372 L 2.681 7.355 L 2.676 7.338 L 2.671 7.321 L 2.667 7.303 L 2.662 7.286 L 2.658 7.269 L 2.652 7.246 L 2.648 7.232 L 2.643 7.214 L 2.639 7.197 L 2.634 7.18 L 2.63 7.162 L 2.625 7.145 L 2.621 7.127 L 2.615 7.104 L 2.611 7.089 L 2.606 7.071 L 2.602 7.053 L 2.597 7.036 L 2.591 7.012 L 2.587 6.997 L 2.582 6.979 L 2.578 6.961 L 2.572 6.938 L 2.568 6.922 L 2.563 6.904 L 2.559 6.886 L 2.553 6.862 L 2.549 6.846 L 2.544 6.828 L 2.54 6.809 L 2.534 6.786 L 2.53 6.769 L 2.525 6.751 L 2.519 6.727 L 2.515 6.711 L 2.51 6.692 L 2.505 6.668 L 2.501 6.651 L 2.496 6.632 L 2.49 6.609 L 2.486 6.592 L 2.481 6.573 L 2.475 6.549 L 2.471 6.531 L 2.466 6.507 L 2.461 6.49 L 2.456 6.471 L 2.451 6.447 L 2.446 6.429 L 2.441 6.405 L 2.436 6.387 L 2.432 6.367 L 2.426 6.343 L 2.421 6.325 L 2.416 6.3 L 2.411 6.282 L 2.406 6.258 L 2.401 6.239 L 2.396 6.215 L 2.391 6.196 L 2.385 6.172 L 2.381 6.153 L 2.375 6.128 L 2.37 6.105 L 2.365 6.086 L 2.36 6.061 L 2.355 6.042 L 2.35 6.017 L 2.345 5.997 L 2.339 5.973 L 2.334 5.949 L 2.329 5.929 L 2.324 5.904 L 2.319 5.884 L 2.313 5.859 L 2.308 5.835 L 2.303 5.815 L 2.298 5.789 L 2.292 5.765 L 2.288 5.745 L 2.282 5.719 L 2.277 5.695 L 2.272 5.674 L 2.266 5.648 L 2.261 5.624 L 2.255 5.599 L 2.251 5.578 L 2.245 5.552 L 2.24 5.527 L 2.234 5.502 L 2.229 5.48 L 2.224 5.455 L 2.218 5.429 L 2.213 5.404 L 2.208 5.382 L 2.203 5.356 L 2.197 5.33 L 2.191 5.304 L 2.186 5.279 L 2.181 5.253 L 2.176 5.23 L 2.17 5.204 L 2.165 5.178 L 2.159 5.152 L 2.154 5.125 L 2.148 5.099 L 2.143 5.072 L 2.137 5.046 L 2.132 5.023 L 2.127 4.996 L 2.121 4.969 L 2.116 4.942 L 2.11 4.916 L 2.105 4.889 L 2.099 4.861 L 2.094 4.834 L 2.089 4.807 L 2.083 4.78 L 2.078 4.752 L 0.989 4.965 L 0.995 4.992 L 1 5.019 L 1.005 5.046 L 1.011 5.074 L 1.016 5.101 L 1.021 5.128 L 1.026 5.155 L 1.032 5.182 L 1.037 5.209 L 1.042 5.236 L 1.046 5.256 L 1.051 5.283 L 1.057 5.309 L 1.062 5.336 L 1.067 5.363 L 1.072 5.389 L 1.077 5.416 L 1.082 5.442 L 1.086 5.462 L 1.092 5.489 L 1.097 5.515 L 1.102 5.541 L 1.107 5.567 L 1.112 5.594 L 1.116 5.613 L 1.121 5.639 L 1.126 5.665 L 1.131 5.691 L 1.135 5.711 L 1.14 5.737 L 1.145 5.763 L 1.15 5.788 L 1.154 5.808 L 1.159 5.833 L 1.164 5.859 L 1.169 5.885 L 1.173 5.904 L 1.178 5.929 L 1.183 5.955 L 1.186 5.974 L 1.191 5.999 L 1.196 6.025 L 1.2 6.044 L 1.205 6.069 L 1.21 6.094 L 1.214 6.113 L 1.219 6.138 L 1.222 6.157 L 1.227 6.182 L 1.232 6.207 L 1.236 6.225 L 1.241 6.25 L 1.244 6.269 L 1.249 6.294 L 1.253 6.312 L 1.258 6.337 L 1.263 6.361 L 1.266 6.38 L 1.271 6.404 L 1.275 6.423 L 1.28 6.447 L 1.283 6.466 L 1.288 6.49 L 1.292 6.508 L 1.296 6.532 L 1.3 6.551 L 1.305 6.575 L 1.308 6.593 L 1.312 6.611 L 1.317 6.635 L 1.32 6.653 L 1.325 6.677 L 1.329 6.695 L 1.332 6.713 L 1.337 6.737 L 1.341 6.755 L 1.345 6.778 L 1.349 6.796 L 1.352 6.814 L 1.357 6.837 L 1.361 6.855 L 1.364 6.873 L 1.369 6.896 L 1.372 6.914 L 1.376 6.931 L 1.381 6.955 L 1.384 6.972 L 1.388 6.99 L 1.392 7.013 L 1.396 7.03 L 1.399 7.048 L 1.403 7.065 L 1.407 7.088 L 1.411 7.105 L 1.414 7.123 L 1.418 7.14 L 1.422 7.163 L 1.426 7.18 L 1.429 7.197 L 1.433 7.214 L 1.437 7.237 L 1.441 7.254 L 1.444 7.271 L 1.448 7.288 L 1.451 7.305 L 1.456 7.328 L 1.459 7.344 L 1.463 7.361 L 1.466 7.378 L 1.469 7.395 L 1.473 7.412 L 1.476 7.428 L 1.48 7.445 L 1.484 7.467 L 1.488 7.484 L 1.491 7.501 L 1.494 7.517 L 1.498 7.534 L 1.501 7.55 L 1.505 7.567 L 1.508 7.583 L 1.511 7.6 L 1.515 7.616 L 1.518 7.633 L 1.522 7.649 L 1.525 7.665 L 1.529 7.687 L 1.533 7.703 L 1.536 7.72 L 1.54 7.736 L 1.543 7.752 L 1.546 7.768 L 1.55 7.784 L 1.553 7.8 L 1.556 7.816 L 1.56 7.832 L 1.562 7.843 L 1.565 7.859 L 1.569 7.875 L 1.572 7.891 L 1.575 7.907 L 1.579 7.923 L 1.582 7.939 L 1.585 7.955 L 1.589 7.97 L 1.592 7.986 L 1.595 8.002 L 1.599 8.018 L 1.602 8.033 L 1.605 8.049 L 1.608 8.06 L 1.611 8.075 L 1.614 8.091 L 1.618 8.106 L 1.621 8.122 L 1.624 8.137 L 1.628 8.153 L 1.631 8.168 L 1.633 8.179 L 1.636 8.194 L 1.64 8.209 L 1.643 8.225 L 1.646 8.24 L 1.65 8.255 L 1.652 8.266 L 1.655 8.281 L 1.659 8.296 L 1.662 8.311 L 1.665 8.326 L 1.667 8.337 L 1.671 8.352 L 1.674 8.367 L 1.677 8.382 L 1.681 8.397 L 1.683 8.407 L 1.686 8.422 L 1.69 8.437 L 1.693 8.452 L 1.695 8.462 L 1.698 8.477 L 1.702 8.492 L 1.705 8.506 L 1.707 8.516 L 1.711 8.531 L 1.714 8.546 L 1.717 8.561 L 1.719 8.571 L 1.723 8.585 L 1.726 8.6 L 1.728 8.61 L 1.732 8.624 L 1.735 8.639 L 1.738 8.653 L 1.74 8.663 L 1.744 8.678 L 1.747 8.692 L 1.749 8.702 L 1.753 8.716 L 1.756 8.731 L 1.758 8.74 L 1.761 8.755 L 1.765 8.769 L 1.767 8.779 L 1.77 8.793 L 1.774 8.807 L 1.776 8.817 L 1.779 8.831 L 1.783 8.845 L 1.785 8.855 L 1.788 8.869 L 1.791 8.883 L 1.794 8.893 L 1.797 8.907 L 1.8 8.921 L 1.803 8.93 L 1.806 8.944 L 1.809 8.958 L 1.812 8.967 L 1.815 8.981 L 1.818 8.995 L 1.821 9.005 L 1.824 9.018 L 1.826 9.028 L 1.83 9.042 L 1.833 9.055 L 1.835 9.065 L 1.839 9.078 L 1.842 9.092 L 1.844 9.101 L 1.848 9.115 L 1.85 9.124 L 1.853 9.138 L 1.857 9.151 L 1.859 9.16 L 1.862 9.174 L 1.866 9.188 L 1.868 9.197 L 1.871 9.21 L 1.874 9.219 L 1.877 9.233 L 1.881 9.246 L 1.883 9.255 L 1.886 9.268 L 1.89 9.282 L 1.892 9.291 L 1.895 9.304 L 1.898 9.313 L 1.901 9.326 L 1.905 9.339 L 1.907 9.348 L 1.91 9.362 L 1.914 9.375 L 1.916 9.383 L 1.92 9.397 L 1.922 9.405 L 1.925 9.419 L 1.929 9.432 L 1.931 9.44 L 1.935 9.453 L 1.938 9.466 L 1.941 9.475 L 1.944 9.488 L 1.946 9.497 L 1.95 9.51 L 1.953 9.522 L 1.956 9.531 L 1.959 9.544 L 1.963 9.557 L 1.965 9.565 L 1.969 9.578 L 1.972 9.591 L 1.975 9.599 L 1.978 9.612 L 1.982 9.625 L 1.984 9.633 L 1.988 9.646 L 1.992 9.658 L 1.994 9.667 L 1.998 9.679 L 2.001 9.692 L 2.004 9.7 L 2.007 9.713 L 2.011 9.725 L 2.015 9.738 L 2.017 9.746 L 2.021 9.758 L 2.024 9.771 L 2.027 9.779 L 2.03 9.791 L 2.034 9.804 L 2.038 9.816 L 2.04 9.824 L 2.044 9.836 L 2.048 9.849 L 2.051 9.861 L 2.054 9.869 L 2.058 9.881 L 2.061 9.893 L 2.065 9.905 L 2.068 9.913 L 2.072 9.926 L 2.075 9.938 L 2.079 9.95 L 2.083 9.962 L 2.085 9.97 L 2.089 9.982 L 2.093 9.993 L 2.097 10.005 L 2.101 10.017 L 2.105 10.029 L 2.107 10.037 L 2.111 10.049 L 2.115 10.061 L 2.119 10.072 L 2.123 10.084 L 2.127 10.096 L 2.131 10.107 L 2.135 10.119 L 2.139 10.131 L 2.143 10.142 L 2.145 10.15 L 2.149 10.162 L 2.153 10.173 L 2.157 10.185 L 2.161 10.196 L 2.165 10.208 L 2.17 10.219 L 2.174 10.23 L 2.178 10.242 L 2.182 10.253 L 2.186 10.264 L 2.19 10.276 L 2.194 10.287 L 2.198 10.298 L 2.204 10.313 L 2.208 10.324 L 2.212 10.336 L 2.216 10.347 L 2.221 10.358 L 2.225 10.369 L 2.229 10.38 L 2.233 10.391 L 2.239 10.406 L 2.243 10.417 L 2.248 10.428 L 2.252 10.439 L 2.256 10.45 L 2.262 10.464 L 2.266 10.475 L 2.271 10.486 L 2.275 10.497 L 2.281 10.511 L 2.286 10.522 L 2.29 10.533 L 2.296 10.547 L 2.3 10.558 L 2.305 10.568 L 2.311 10.582 L 2.316 10.593 L 2.322 10.607 L 2.326 10.618 L 2.331 10.628 L 2.337 10.642 L 2.342 10.653 L 2.348 10.666 L 2.352 10.677 L 2.359 10.691 L 2.363 10.701 L 2.37 10.715 L 2.376 10.728 L 2.381 10.739 L 2.387 10.752 L 2.392 10.762 L 2.399 10.776 L 2.405 10.79 L 2.41 10.8 L 2.416 10.813 L 2.423 10.826 L 2.43 10.84 L 2.435 10.85 L 2.441 10.863 L 2.448 10.876 L 2.455 10.89 L 2.461 10.903 L 2.469 10.916 L 2.476 10.936 L 2.481 10.94 L 2.489 10.953 L 2.496 10.96 L 2.506 10.98 L 2.513 10.994 L 2.521 11.007 L 2.529 11.02 L 2.537 11.033 L 2.544 11.046 L 2.552 11.059 L 2.559 11.066 L 2.569 11.086 L 2.577 11.099 L 2.584 11.107 L 2.594 11.126 L 2.603 11.139 L 2.611 11.147 L 2.62 11.167 L 2.629 11.175 L 2.639 11.194 L 2.647 11.202 L 2.658 11.222 L 2.665 11.23 L 2.676 11.244 L 2.686 11.264 L 2.695 11.272 L 2.706 11.286 L 2.715 11.301 L 2.727 11.32 L 2.736 11.329 L 2.745 11.343 L 2.756 11.357 L 2.767 11.372 L 2.778 11.386 L 2.789 11.401 L 2.8 11.415 L 2.812 11.426 L 2.825 11.445 L 2.836 11.46 L 2.848 11.474 L 2.859 11.485 L 2.873 11.504 L 2.885 11.519 L 2.897 11.53 L 2.91 11.549 L 2.922 11.56 L 2.937 11.576 L 2.951 11.595 L 2.963 11.606 L 2.978 11.621 L 2.993 11.637 L 3.007 11.656 L 3.019 11.667 L 3.034 11.683 L 3.049 11.699 L 3.065 11.711 L 3.083 11.731 L 3.098 11.747 L 3.113 11.762 L 3.129 11.775 L 3.147 11.795 L 3.163 11.807 L 3.182 11.827 L 3.198 11.84 L 3.217 11.856 L 3.235 11.876 L 3.252 11.889 L 3.272 11.905 L 3.291 11.922 L 3.311 11.939 L 3.331 11.953 L 3.354 11.973 L 3.374 11.989 L 3.394 12.004 L 3.418 12.024 L 3.438 12.038 L 3.463 12.055 L 3.486 12.073 L 3.511 12.09 L 3.535 12.108 L 3.56 12.125 L 3.585 12.142 L 3.61 12.158 L 3.639 12.178 L 3.664 12.193 L 3.693 12.211 L 3.723 12.229 L 3.753 12.248 L 3.783 12.266 L 3.813 12.282 L 3.847 12.302 L 3.878 12.318 L 3.913 12.337 L 3.948 12.356 L 3.984 12.373 L 4.023 12.394 L 4.06 12.411 L 4.1 12.43 L 4.141 12.449 L 4.183 12.468 L 4.224 12.485 L 4.271 12.505 L 4.318 12.525 L 3.897 12.563 L 3.913 12.582 L 3.965 12.601 L 4.018 12.62 L 4.076 12.639 L 4.135 12.659 L 4.194 12.678 L 4.259 12.697 L 4.397 12.696 Z M 0.001 1.983 A 9.501 9.501 0 0 0 0 2.123 Q 0 3.355 0.334 3.953 A 1.019 1.019 0 0 0 0.985 4.485 A 1.021 1.021 0 0 1 0.339 3.958 Q 0 3.357 0 2.114 A 9.533 9.533 0 0 1 0.001 1.98 A 9.573 9.573 0 0 0 0.001 2.101 Q 0.001 4.231 0.985 4.484 Q 0.001 4.224 0.001 2.085 A 9.627 9.627 0 0 1 0.002 1.971 M 0.007 1.942 Q -0.003 4.175 0.985 4.472 Q 0.005 4.192 0.005 2.017 A 9.848 9.848 0 0 1 0.005 1.951 M 0.004 1.959 A 9.763 9.763 0 0 0 0.003 2.043 Q 0.003 3.331 0.352 3.948 A 1.045 1.045 0 0 0 0.985 4.479 A 1.037 1.037 0 0 1 0.349 3.954 Q 0.002 3.342 0.002 2.066 A 9.683 9.683 0 0 1 0.003 1.965 M 0.001 1.985 A 9.477 9.477 0 0 0 0 2.13 Q 0 4.243 0.985 4.485 A 1.018 1.018 0 0 1 0.332 3.951 Q 0 3.355 0 2.128 A 9.486 9.486 0 0 1 0.001 1.985 Z M 0.985 4.468 A 1.073 1.073 0 0 1 0.372 3.939 Q 0.006 3.295 0.009 1.933 M 0.985 4.457 Q 0.19 4.185 0.046 2.631 A 8.085 8.085 0 0 1 0.015 1.913 M 0.985 4.45 A 1.106 1.106 0 0 1 0.402 3.932 Q 0.133 3.465 0.052 2.624 A 8.12 8.12 0 0 1 0.018 1.901 M 0.985 4.435 A 1.136 1.136 0 0 1 0.423 3.919 Q 0.155 3.455 0.069 2.626 A 8.154 8.154 0 0 1 0.028 1.877 M 0.985 4.426 A 1.15 1.15 0 0 1 0.439 3.919 Q 0.168 3.454 0.077 2.621 A 8.196 8.196 0 0 1 0.033 1.864 M 0.985 4.417 Q 0.252 4.093 0.086 2.607 A 8.268 8.268 0 0 1 0.04 1.851 M 0.985 4.406 A 1.19 1.19 0 0 1 0.464 3.9 Q 0.192 3.431 0.096 2.598 A 8.328 8.328 0 0 1 0.047 1.837 M 0.985 4.382 A 1.239 1.239 0 0 1 0.49 3.878 Q 0.219 3.404 0.119 2.57 A 8.498 8.498 0 0 1 0.064 1.809 M 0.985 4.369 A 1.263 1.263 0 0 1 0.508 3.872 Q 0.236 3.395 0.132 2.558 A 8.586 8.586 0 0 1 0.074 1.795 M 0.985 4.354 Q 0.326 3.968 0.145 2.542 A 8.694 8.694 0 0 1 0.085 1.78 M 0.985 4.339 A 1.33 1.33 0 0 1 0.536 3.842 Q 0.268 3.361 0.16 2.525 A 8.816 8.816 0 0 1 0.097 1.765 M 0.985 4.323 A 1.37 1.37 0 0 1 0.551 3.826 Q 0.282 3.335 0.172 2.485 A 9.019 9.019 0 0 1 0.11 1.75 M 0.985 4.306 Q 0.374 3.874 0.189 2.467 A 9.167 9.167 0 0 1 0.124 1.735 M 0.985 4.287 Q 0.394 3.842 0.207 2.453 A 9.313 9.313 0 0 1 0.14 1.72 M 0.985 4.267 A 1.523 1.523 0 0 1 0.598 3.771 Q 0.337 3.268 0.223 2.417 A 9.546 9.546 0 0 1 0.156 1.705 M 0.985 4.245 A 1.587 1.587 0 0 1 0.614 3.75 Q 0.357 3.241 0.241 2.388 A 9.769 9.769 0 0 1 0.174 1.69 M 0.985 4.222 A 1.661 1.661 0 0 1 0.631 3.727 Q 0.378 3.215 0.262 2.364 A 9.996 9.996 0 0 1 0.193 1.676 M 0.985 4.197 A 1.738 1.738 0 0 1 0.652 3.711 Q 0.403 3.197 0.284 2.348 A 10.225 10.225 0 0 1 0.214 1.661 M 0.985 4.169 A 1.84 1.84 0 0 1 0.665 3.677 Q 0.334 2.966 0.236 1.647 M 0.985 4.139 A 1.958 1.958 0 0 1 0.679 3.641 Q 0.448 3.124 0.331 2.298 A 10.784 10.784 0 0 1 0.259 1.633 M 0.985 4.107 Q 0.539 3.558 0.356 2.273 A 11.117 11.117 0 0 1 0.284 1.619 M 0.985 4.071 A 2.252 2.252 0 0 1 0.707 3.563 Q 0.417 2.851 0.311 1.606 M 6.819 4.354 A 272.116 272.116 0 0 1 6.818 4.117 Q 6.817 3.531 6.817 2.042 A 9316.72 9316.72 0 0 1 6.816 1.78 M 6.941 4.339 A 832.385 832.385 0 0 1 6.941 4.097 Q 6.94 3.503 6.94 2.025 A 25825.669 25825.669 0 0 1 6.94 1.765 M 6.69 1.795 Q 6.69 3.51 6.69 4.137 A 1861.609 1861.609 0 0 1 6.69 4.369 M 6.56 1.809 A 11339.65 11339.65 0 0 1 6.56 2.076 Q 6.559 3.586 6.559 4.156 A 275.975 275.975 0 0 1 6.558 4.382 M 7.061 1.75 Q 7.061 3.421 7.061 4.075 A 3410.994 3410.994 0 0 1 7.061 4.323 M 6.427 1.823 A 9312.525 9312.525 0 0 1 6.426 2.403 Q 6.426 3.671 6.425 4.173 A 229.068 229.068 0 0 1 6.425 4.395 M 7.181 1.735 A 17507.698 17507.698 0 0 1 7.18 1.991 Q 7.18 3.441 7.18 4.052 A 683.184 683.184 0 0 1 7.179 4.306 M 6.289 1.837 A 37801.31 37801.31 0 0 1 6.289 2.423 Q 6.289 3.695 6.289 4.189 A 851.876 851.876 0 0 1 6.289 4.406 M 7.3 4.287 A 459.647 459.647 0 0 1 7.3 4.028 Q 7.299 3.381 7.298 1.841 A 11158.542 11158.542 0 0 1 7.298 1.72 M 6.148 1.851 A 9602.912 9602.912 0 0 1 6.147 2.445 Q 6.147 3.718 6.146 4.205 A 199.339 199.339 0 0 1 6.146 4.417 M 6.001 1.864 A 16427.832 16427.832 0 0 1 6.001 2.461 Q 6.001 4.099 6 4.426 M 7.414 1.705 Q 7.414 3.259 7.414 3.949 A 9474.589 9474.589 0 0 1 7.414 4.267 M 5.852 4.435 Q 5.851 4.12 5.85 2.477 A 8136.386 8136.386 0 0 1 5.85 1.877 M 7.53 4.245 A 1122.022 1122.022 0 0 1 7.53 3.921 Q 7.53 3.388 7.53 2.364 A 17270.3 17270.3 0 0 1 7.529 1.69 M 5.693 1.89 A 9883.85 9883.85 0 0 1 5.693 2.491 Q 5.692 3.778 5.691 4.245 A 161.23 161.23 0 0 1 5.691 4.443 M 0.985 4.031 A 2.433 2.433 0 0 1 0.722 3.52 Q 0.509 2.971 0.397 2.122 A 12.203 12.203 0 0 1 0.339 1.593 M 7.645 4.222 A 2069.533 2069.533 0 0 1 7.644 3.892 Q 7.644 3.353 7.644 2.34 A 29017.434 29017.434 0 0 1 7.644 1.676 M 5.361 1.913 A 20223.516 20223.516 0 0 1 5.361 2.53 Q 5.36 4.176 5.36 4.457 M 5.185 1.923 A 29513.556 29513.556 0 0 1 5.185 2.542 Q 5.185 3.829 5.185 4.277 A 389.178 389.178 0 0 1 5.185 4.463 M 7.758 1.661 A 10193.038 10193.038 0 0 1 7.758 2.317 Q 7.757 3.684 7.757 4.197 M 5.003 1.933 Q 5.002 3.743 5.001 4.285 A 106.4 106.4 0 0 1 5 4.468 M 4.616 4.476 A 94.866 94.866 0 0 1 4.616 4.373 Q 4.615 3.938 4.615 2.196 A 14621.081 14621.081 0 0 1 4.615 1.951 M 7.875 4.169 A 957.386 957.386 0 0 1 7.874 3.828 Q 7.874 3.113 7.873 1.647 M 4.41 4.479 Q 4.409 4.215 4.409 2.204 A 20358.576 20358.576 0 0 1 4.409 1.959 M 3.973 4.483 Q 3.972 4.232 3.971 2.218 A 9350.438 9350.438 0 0 1 3.971 1.971 M 3.738 1.976 Q 3.737 3.943 3.736 4.388 A 48.695 48.695 0 0 1 3.736 4.484 M 7.99 4.139 A 890.753 890.753 0 0 1 7.99 3.763 Q 7.989 3.213 7.989 2.256 A 9151.193 9151.193 0 0 1 7.988 1.633 M 3.496 1.98 Q 3.495 3.948 3.495 4.39 A 64.398 64.398 0 0 1 3.494 4.485 M 0.985 3.986 A 2.639 2.639 0 0 1 0.738 3.473 Q 0.538 2.933 0.428 2.115 A 12.562 12.562 0 0 1 0.368 1.581 M 3.244 1.983 A 9492.054 9492.054 0 0 1 3.244 2.23 Q 3.243 3.979 3.242 4.391 A 47.057 47.057 0 0 1 3.241 4.485 M 2.984 4.485 Q 2.982 4.249 2.981 2.231 A 7385.572 7385.572 0 0 1 2.981 1.985 M 8.104 1.619 A 15951.445 15951.445 0 0 1 8.104 2.226 Q 8.104 3.548 8.103 4.107 M 8.222 1.606 A 48525.147 48525.147 0 0 1 8.222 2.198 Q 8.222 3.499 8.222 4.071 M 0.985 3.937 A 2.881 2.881 0 0 1 0.753 3.423 Q 0.562 2.876 0.455 2.059 A 13.143 13.143 0 0 1 0.4 1.569 M 8.341 1.593 Q 8.341 2.89 8.341 3.613 A 5748.497 5748.497 0 0 1 8.341 4.031 M 8.464 3.986 A 1425.616 1425.616 0 0 1 8.464 3.565 Q 8.463 2.92 8.463 1.841 A 10740.857 10740.857 0 0 1 8.463 1.581 M 0.985 3.883 A 3.195 3.195 0 0 1 0.764 3.354 Q 0.581 2.789 0.476 1.953 A 13.986 13.986 0 0 1 0.433 1.558 M 8.588 3.937 A 1670.848 1670.848 0 0 1 8.587 3.515 Q 8.587 2.832 8.586 1.69 A 11847.28 11847.28 0 0 1 8.586 1.569 M 0.985 3.821 Q 0.659 3.159 0.504 1.881 A 14.746 14.746 0 0 1 0.468 1.547 M 8.713 1.558 Q 8.712 2.747 8.712 3.46 A 1936.844 1936.844 0 0 1 8.711 3.883 M 0.985 3.749 A 3.938 3.938 0 0 1 0.794 3.213 Q 0.631 2.639 0.535 1.814 A 15.541 15.541 0 0 1 0.505 1.537 M 0.985 3.669 A 4.397 4.397 0 0 1 0.812 3.141 Q 0.664 2.581 0.572 1.792 A 16.238 16.238 0 0 1 0.544 1.528 M 0.985 3.575 A 4.924 4.924 0 0 1 0.83 3.059 Q 0.697 2.517 0.611 1.77 A 16.972 16.972 0 0 1 0.584 1.52 M 9.255 1.52 A 22815.429 22815.429 0 0 1 9.255 2.107 Q 9.255 2.717 9.255 3.171 A 6080.892 6080.892 0 0 1 9.255 3.575 M 0.985 3.465 A 5.538 5.538 0 0 1 0.849 2.967 Q 0.72 2.402 0.639 1.624 A 18.322 18.322 0 0 1 0.627 1.512 M 9.402 3.465 A 25967.736 25967.736 0 0 1 9.402 3.074 Q 9.402 2.44 9.402 1.512 M 0.985 3.337 A 6.419 6.419 0 0 1 0.857 2.809 Q 0.801 2.532 0.755 2.206 A 16.17 16.17 0 0 1 0.672 1.505 M 9.553 1.505 A 11144.12 11144.12 0 0 1 9.553 1.741 Q 9.553 2.72 9.552 3.337 M 0.985 3.181 Q 0.872 2.744 0.791 2.135 A 16.958 16.958 0 0 1 0.719 1.499 M 9.711 3.181 A 4042.659 4042.659 0 0 1 9.711 2.832 Q 9.711 2.351 9.711 1.712 A 12255.204 12255.204 0 0 1 9.71 1.499 M 0.985 2.995 Q 0.893 2.586 0.825 2.032 A 17.821 17.821 0 0 1 0.767 1.494 M 0.985 2.764 A 9.1 9.1 0 0 1 0.915 2.341 Q 0.887 2.151 0.863 1.938 A 18.211 18.211 0 0 1 0.819 1.49 M 10.043 1.49 A 7271.709 7271.709 0 0 1 10.042 1.938 Q 10.042 2.151 10.042 2.341 A 3538.213 3538.213 0 0 1 10.042 2.764 M 2.981 0 A 0.016 0.016 0 0 1 2.981 0.002 Q 2.982 0.042 2.984 0.754 A 1155.824 1155.824 0 0 1 2.984 0.985 M 3.241 0.985 A 1481.313 1481.313 0 0 1 3.242 0.754 Q 3.243 0.043 3.244 0.003 A 0.02 0.02 0 0 0 3.244 0.003 M 3.494 0.985 A 1972.167 1972.167 0 0 1 3.495 0.754 Q 3.495 0.043 3.496 0.003 A 0.027 0.027 0 0 0 3.496 0.003 M 3.736 0.985 A 1434.635 1434.635 0 0 1 3.736 0.754 Q 3.737 0.001 3.738 0.001 M 0.985 2.465 A 9.447 9.447 0 0 1 0.938 2.135 Q 0.915 1.952 0.895 1.745 A 18.039 18.039 0 0 1 0.872 1.488 M 3.971 0.001 A 0.02 0.02 0 0 1 3.971 0.004 Q 3.972 0.044 3.973 0.755 A 1439.012 1439.012 0 0 1 3.973 0.985 M 4.193 0.985 A 4024.406 4024.406 0 0 1 4.194 0.755 Q 4.194 0.045 4.194 0.005 A 0.055 0.055 0 0 0 4.194 0.005 M 4.409 0.003 Q 4.409 0.003 4.41 0.755 A 3099.038 3099.038 0 0 1 4.41 0.985 M 4.616 0.985 Q 4.615 0.053 4.615 0.007 A 0.03 0.03 0 0 1 4.615 0.007 M 4.813 0.007 Q 4.813 0.007 4.813 0.756 A 8074.281 8074.281 0 0 1 4.813 0.985 M 10.218 1.488 Q 10.218 1.842 10.218 2.135 A 7256.478 7256.478 0 0 1 10.218 2.465 M 5 0.985 A 1442.059 1442.059 0 0 1 5.001 0.756 Q 5.002 0.051 5.002 0.011 A 0.02 0.02 0 0 0 5.002 0.011 M 5.185 0.985 A 4874.844 4874.844 0 0 1 5.185 0.757 Q 5.185 0.054 5.185 0.014 A 0.07 0.07 0 0 0 5.185 0.014 M 5.36 0.985 A 3301.45 3301.45 0 0 1 5.36 0.759 Q 5.361 0.13 5.361 0.033 A 1.153 1.153 0 0 1 5.361 0.015 M 5.53 0.018 A 0.601 0.601 0 0 1 5.53 0.038 Q 5.531 0.138 5.532 0.761 A 1284.511 1284.511 0 0 1 5.532 0.985 M 5.691 0.985 A 1558.62 1558.62 0 0 1 5.691 0.764 Q 5.692 0.145 5.693 0.043 A 0.924 0.924 0 0 1 5.693 0.023 M 5.85 0.028 A 0.984 0.984 0 0 1 5.85 0.049 Q 5.851 0.155 5.852 0.767 A 1259.869 1259.869 0 0 1 5.852 0.985 M 6 0.985 A 2492.543 2492.543 0 0 1 6 0.769 Q 6.001 0.166 6.001 0.056 A 2.544 2.544 0 0 1 6.001 0.033 M 6.146 0.985 A 1428.202 1428.202 0 0 1 6.146 0.773 Q 6.147 0.177 6.148 0.064 A 1.882 1.882 0 0 1 6.148 0.04 M 6.289 0.985 A 5512.285 5512.285 0 0 1 6.289 0.776 Q 6.289 0.089 6.289 0.047 M 6.425 0.985 Q 6.426 0.222 6.426 0.082 A 2.802 2.802 0 0 1 6.427 0.055 M 6.558 0.985 A 1420.04 1420.04 0 0 1 6.558 0.783 Q 6.559 0.163 6.56 0.074 A 1.709 1.709 0 0 1 6.56 0.064 M 6.69 0.985 A 8489.984 8489.984 0 0 1 6.69 0.787 Q 6.69 0.179 6.69 0.085 A 13.673 13.673 0 0 1 6.69 0.074 M 6.816 0.085 A 2.383 2.383 0 0 1 6.817 0.096 Q 6.817 0.196 6.818 0.792 A 1105.294 1105.294 0 0 1 6.819 0.985 M 6.94 0.097 A 8.503 8.503 0 0 1 6.94 0.109 Q 6.941 0.229 6.941 0.985 M 7.061 0.985 Q 7.061 0.249 7.061 0.123 A 39.323 39.323 0 0 1 7.061 0.11 M 7.179 0.985 A 1885.761 1885.761 0 0 1 7.179 0.806 Q 7.18 0.252 7.18 0.138 A 9.003 9.003 0 0 1 7.181 0.124 M 7.298 0.139 A 12.301 12.301 0 0 1 7.298 0.186 Q 7.299 0.359 7.3 0.985 M 7.414 0.985 Q 7.414 0.387 7.414 0.209 A 260.878 260.878 0 0 1 7.414 0.156 M 7.644 0.193 A 56.65 56.65 0 0 1 7.644 0.242 Q 7.644 0.38 7.644 0.756 A 2774.303 2774.303 0 0 1 7.645 0.985 M 7.757 0.985 A 926.913 926.913 0 0 1 7.757 0.764 Q 7.758 0.324 7.758 0.214 M 7.873 0.236 Q 7.874 0.35 7.874 0.773 A 962.9 962.9 0 0 1 7.875 0.985 M 7.988 0.259 A 18.816 18.816 0 0 1 7.988 0.279 Q 7.989 0.441 7.99 0.985 M 8.103 0.985 A 1217.758 1217.758 0 0 1 8.104 0.792 Q 8.104 0.405 8.104 0.284 M 8.222 0.985 A 3366.935 3366.935 0 0 1 8.222 0.774 Q 8.222 0.51 8.222 0.378 A 188.807 188.807 0 0 1 8.222 0.311 M 8.341 0.985 A 2807.703 2807.703 0 0 1 8.341 0.786 Q 8.341 0.535 8.341 0.406 A 184.038 184.038 0 0 1 8.341 0.339 M 8.463 0.368 A 44.908 44.908 0 0 1 8.463 0.435 Q 8.463 0.561 8.464 0.797 A 591.491 591.491 0 0 1 8.464 0.985 M 8.586 0.4 Q 8.587 0.517 8.587 0.798 A 575.034 575.034 0 0 1 8.588 0.985 M 0.985 2.064 Q 0.957 1.85 0.935 1.577 A 14.522 14.522 0 0 1 0.927 1.486 M 10.402 2.064 A 2392.463 2392.463 0 0 1 10.401 1.831 Q 10.401 1.671 10.401 1.486 M 8.711 0.985 A 553.621 553.621 0 0 1 8.712 0.806 Q 8.712 0.548 8.713 0.433 M 8.841 0.985 Q 8.842 0.646 8.843 0.493 A 45.837 45.837 0 0 1 8.843 0.468 M 9.112 0.985 A 429.486 429.486 0 0 1 9.113 0.844 Q 9.113 0.658 9.113 0.554 A 55.091 55.091 0 0 1 9.113 0.544 M 9.255 0.985 A 793.633 793.633 0 0 1 9.255 0.859 Q 9.255 0.683 9.255 0.584 M 9.402 0.627 A 629.85 629.85 0 0 1 9.402 0.691 Q 9.402 0.768 9.402 0.874 A 2725.554 2725.554 0 0 1 9.402 0.985 M 9.552 0.985 Q 9.553 0.831 9.553 0.729 A 72.387 72.387 0 0 1 9.553 0.672 M 9.71 0.719 A 78.625 78.625 0 0 1 9.711 0.769 Q 9.711 0.828 9.711 0.906 A 262.687 262.687 0 0 1 9.711 0.985 M 9.873 0.767 A 668.181 668.181 0 0 1 9.873 0.786 Q 9.873 0.843 9.873 0.921 A 2150.339 2150.339 0 0 1 9.873 0.985 M 10.042 0.985 Q 10.042 0.89 10.043 0.825 A 41.212 41.212 0 0 1 10.043 0.818 M 10.218 0.985 A 168.562 168.562 0 0 1 10.218 0.938 Q 10.218 0.92 10.218 0.903 A 84.483 84.483 0 0 1 10.218 0.872 M 10.401 0.927 A 21.287 21.287 0 0 1 10.401 0.944 Q 10.402 0.962 10.402 0.985 M 0.985 4.463 Q 0.012 4.145 0.012 1.923 M 0.985 4.443 Q 0.042 4.088 0.023 1.89 M 0.985 4.395 Q 0.111 3.965 0.055 1.823 M 2.708 0.985 2.708 0.001 M 7.53 0.985 Q 7.53 0.297 7.529 0.174 M 8.976 0.985 Q 8.976 0.65 8.976 0.505 M 2.708 4.485 2.708 1.985 M 4.193 4.481 Q 4.194 4.209 4.194 1.965 M 4.813 4.472 Q 4.813 4.175 4.813 1.942 M 5.532 4.45 Q 5.531 4.108 5.53 1.901 M 8.841 3.821 Q 8.842 3.076 8.843 1.547 M 8.976 3.749 8.976 1.537 M 9.112 3.669 Q 9.113 2.926 9.113 1.528 M 9.873 2.995 Q 9.873 2.398 9.873 1.494" id="purple" stroke="purple" style="stroke:purple" vector-effect="non-scaling-stroke"/></g></svg>