<svg width="10.591in" height="12.76in" viewBox="0 0 10.591 12.76" xmlns="http://www.w3.org/2000/svg"><g id="svgGroup" stroke-linecap="round" fill-rule="evenodd" font-size="9pt" stroke="#000" stroke-width="1.5px" fill="none" style="stroke:#000;stroke-width:1.5px;fill:none"><path d="M 2.708 0.001 A 734.64 734.64 0 0 1 3.663 0.001 C 7.26 0.006 7.579 0.07 10.32 0.903 A 809.055 809.055 0 0 1 10.591 0.985 A 2098.164 2098.164 0 0 1 10.454 1.017 C 7.588 1.67 7.317 1.719 3.663 1.723 A 979.706 979.706 0 0 1 2.708 1.723 M 3.527 1.98 C 7.314 1.925 7.553 1.498 10.461 1.486 C 7.553 1.498 7.314 1.925 3.527 1.98 Z M 0.985 4.485 L 0.985 1.485 C 1.723 1.485 1.723 1.985 1.723 1.985 M 2.708 1.985 A 57.352 57.352 0 0 0 3.527 1.98 A 57.352 57.352 0 0 1 2.708 1.985 Z M 0.001 1.985 A 0.154 0.154 0 0 1 0.002 1.969 C 0.012 1.885 0.101 1.516 0.887 1.487 A 2.712 2.712 0 0 1 0.985 1.485 M 10.591 1.485 A 30.547 30.547 0 0 0 10.461 1.486 A 30.547 30.547 0 0 1 10.591 1.485 Z M 2.708 0.985 10.591 0.985 M 2.708 4.485 C 7.358 4.485 9.788 4.485 10.591 1.485" vector-effect="non-scaling-stroke"/><path d="M 7.427 3.635 A 12452.421 12452.421 0 0 1 6.344 3.723 C 2.731 4.016 2.708 4.016 2.708 4.016 M 4.871 3.146 C 3.269 3.184 2.853 3.193 2.745 3.195 A 6.378 6.378 0 0 1 2.708 3.196 M 4.871 1.65 A 34089.31 34089.31 0 0 1 4.378 1.653 C 2.731 1.662 2.708 1.662 2.708 1.662 M 1.322 3.635 L 1.445 4.011 A 45.597 45.597 0 0 1 1.447 4.016 M 5.644 7.933 m -0.063 0 a 0.063 0.063 0 0 1 0.126 0 a 0.063 0.063 0 0 1 -0.126 0 z M 5.879 10.473 m -0.063 0 a 0.063 0.063 0 0 1 0.126 0 a 0.063 0.063 0 0 1 -0.126 0 z M 5.925 12.635 m -0.063 0 a 0.063 0.063 0 0 1 0.126 0 a 0.063 0.063 0 0 1 -0.126 0 z M 7.089 10.491 m -0.063 0 a 0.063 0.063 0 0 1 0.126 0 a 0.063 0.063 0 0 1 -0.126 0 z M 7.154 12.639 m -0.063 0 a 0.063 0.063 0 0 1 0.126 0 a 0.063 0.063 0 0 1 -0.126 0 z M 7.948 10.487 m -0.063 0 a 0.063 0.063 0 0 1 0.126 0 a 0.063 0.063 0 0 1 -0.126 0 z M 7.605 7.911 m -0.063 0 a 0.063 0.063 0 0 1 0.126 0 a 0.063 0.063 0 0 1 -0.126 0 z M 8.382 12.612 m -0.063 0 a 0.063 0.063 0 0 1 0.126 0 a 0.063 0.063 0 0 1 -0.126 0 z M 8.321 7.863 m -0.063 0 a 0.063 0.063 0 0 1 0.126 0 a 0.063 0.063 0 0 1 -0.126 0 z M 5.584 4.754 m -0.063 0 a 0.063 0.063 0 0 1 0.126 0 a 0.063 0.063 0 0 1 -0.126 0 z M 4.208 8.098 m -0.063 0 a 0.063 0.063 0 0 1 0.126 0 a 0.063 0.063 0 0 1 -0.126 0 z M 4.066 9.382 m -0.063 0 a 0.063 0.063 0 0 1 0.126 0 a 0.063 0.063 0 0 1 -0.126 0 z M 3.943 12.691 m -0.063 0 a 0.063 0.063 0 0 1 0.126 0 a 0.063 0.063 0 0 1 -0.126 0 z M 2.873 9.391 m -0.063 0 a 0.063 0.063 0 0 1 0.126 0 a 0.063 0.063 0 0 1 -0.126 0 z M 2.635 12.697 m -0.063 0 a 0.063 0.063 0 0 1 0.126 0 a 0.063 0.063 0 0 1 -0.126 0 z M 1.988 9.37 m -0.063 0 a 0.063 0.063 0 0 1 0.126 0 a 0.063 0.063 0 0 1 -0.126 0 z M 2.214 8.049 m -0.063 0 a 0.063 0.063 0 0 1 0.126 0 a 0.063 0.063 0 0 1 -0.126 0 z M 1.236 12.605 m -0.063 0 a 0.063 0.063 0 0 1 0.126 0 a 0.063 0.063 0 0 1 -0.126 0 z M 1.439 7.952 m -0.063 0 a 0.063 0.063 0 0 1 0.126 0 a 0.063 0.063 0 0 1 -0.126 0 z M 4.259 4.754 m -0.063 0 a 0.063 0.063 0 0 1 0.126 0 a 0.063 0.063 0 0 1 -0.126 0 z M 1.65 3.146 A 242.242 242.242 0 0 0 1.652 3.156 C 1.657 3.175 1.66 3.185 1.661 3.19 A 11.739 11.739 0 0 1 1.661 3.192 M 1.662 3.195 C 1.662 3.194 1.662 3.193 1.661 3.192 M 2.708 1.447 C 2.708 1.447 2.735 1.447 7.427 1.322" id="red" stroke="red" style="stroke:red" vector-effect="non-scaling-stroke"/><path d="M 5.447 4.755 L 5.447 4.775 L 5.446 4.794 L 5.446 4.814 L 5.446 4.833 L 5.446 4.853 L 5.446 4.872 L 5.446 4.891 L 5.446 4.91 L 5.446 4.93 L 5.446 4.949 L 5.446 4.968 L 5.446 4.986 L 5.446 5.005 L 5.446 5.024 L 5.446 5.043 L 5.446 5.061 L 5.446 5.08 L 5.446 5.098 L 5.446 5.116 L 5.446 5.135 L 5.446 5.153 L 5.447 5.171 L 5.447 5.189 L 5.447 5.207 L 5.447 5.225 L 5.447 5.243 L 5.447 5.261 L 5.448 5.278 L 5.448 5.296 L 5.448 5.314 L 5.448 5.331 L 5.448 5.349 L 5.449 5.366 L 5.449 5.383 L 5.449 5.4 L 5.45 5.418 L 5.45 5.435 L 5.45 5.452 L 5.45 5.469 L 5.451 5.486 L 5.451 5.503 L 5.451 5.519 L 5.452 5.536 L 5.452 5.553 L 5.453 5.569 L 5.453 5.586 L 5.453 5.602 L 5.454 5.619 L 5.454 5.635 L 5.455 5.652 L 5.455 5.668 L 5.455 5.684 L 5.456 5.7 L 5.456 5.716 L 5.457 5.732 L 5.457 5.748 L 5.458 5.764 L 5.458 5.78 L 5.459 5.796 L 5.459 5.811 L 5.46 5.827 L 5.46 5.843 L 5.461 5.858 L 5.462 5.874 L 5.462 5.889 L 5.463 5.905 L 5.463 5.92 L 5.464 5.935 L 5.465 5.95 L 5.465 5.966 L 5.466 5.981 L 5.466 5.996 L 5.467 6.011 L 5.468 6.026 L 5.468 6.041 L 5.469 6.056 L 5.47 6.07 L 5.47 6.085 L 5.471 6.1 L 5.472 6.115 L 5.473 6.129 L 5.473 6.144 L 5.474 6.158 L 5.475 6.173 L 5.476 6.187 L 5.476 6.202 L 5.477 6.216 L 5.478 6.23 L 5.479 6.245 L 5.479 6.259 L 5.48 6.273 L 5.481 6.287 L 5.482 6.301 L 5.483 6.315 L 5.484 6.329 L 5.484 6.343 L 5.485 6.357 L 5.486 6.371 L 5.487 6.385 L 5.488 6.398 L 5.489 6.412 L 5.49 6.426 L 5.49 6.439 L 5.491 6.453 L 5.492 6.467 L 5.493 6.48 L 5.494 6.494 L 5.495 6.507 L 5.496 6.521 L 5.497 6.534 L 5.498 6.547 L 5.499 6.561 L 5.5 6.574 L 5.501 6.587 L 5.502 6.6 L 5.503 6.613 L 5.504 6.627 L 5.505 6.64 L 5.506 6.653 L 5.507 6.666 L 5.508 6.679 L 5.509 6.692 L 5.51 6.705 L 5.511 6.717 L 5.512 6.73 L 5.513 6.743 L 5.514 6.756 L 5.515 6.769 L 5.516 6.781 L 5.517 6.794 L 5.519 6.807 L 5.52 6.819 L 5.521 6.832 L 5.522 6.845 L 5.523 6.857 L 5.524 6.87 L 5.525 6.882 L 5.526 6.895 L 5.528 6.907 L 5.529 6.92 L 5.53 6.932 L 5.531 6.944 L 5.532 6.957 L 5.533 6.969 L 5.535 6.981 L 5.536 6.994 L 5.537 7.006 L 5.538 7.018 L 5.539 7.03 L 5.541 7.043 L 5.542 7.055 L 5.543 7.067 L 5.544 7.079 L 5.545 7.091 L 5.547 7.103 L 5.548 7.115 L 5.549 7.127 L 5.55 7.139 L 5.552 7.151 L 5.553 7.163 L 5.554 7.175 L 5.555 7.187 L 5.557 7.199 L 5.558 7.211 L 5.559 7.223 L 5.561 7.235 L 5.562 7.247 L 5.563 7.259 L 5.564 7.27 L 5.566 7.282 L 5.567 7.294 L 5.568 7.306 L 5.57 7.318 L 5.571 7.329 L 5.572 7.341 L 5.574 7.353 L 5.575 7.365 L 5.576 7.376 L 5.578 7.388 L 5.579 7.4 L 5.58 7.411 L 5.582 7.423 L 5.583 7.435 L 5.584 7.446 L 5.586 7.458 L 5.587 7.47 L 5.589 7.481 L 5.59 7.493 L 5.591 7.504 L 5.593 7.516 L 5.594 7.528 L 5.595 7.539 L 5.597 7.551 L 5.598 7.562 L 5.6 7.574 L 5.601 7.586 L 5.602 7.597 L 5.604 7.609 L 5.605 7.62 L 5.607 7.632 L 5.608 7.643 L 5.609 7.655 L 5.611 7.666 L 5.612 7.678 L 5.614 7.69 L 5.615 7.701 L 5.617 7.713 L 5.618 7.724 L 5.619 7.736 L 5.621 7.747 L 5.622 7.759 L 5.624 7.77 L 5.625 7.782 L 5.627 7.794 L 5.628 7.805 L 5.63 7.817 L 5.631 7.828 L 5.633 7.84 L 5.634 7.851 L 5.635 7.863 L 5.637 7.875 L 5.638 7.886 L 5.64 7.898 L 5.641 7.909 L 5.643 7.921 L 5.644 7.933 L 5.646 7.944 L 5.647 7.956 L 5.649 7.967 L 5.65 7.979 L 5.652 7.991 L 5.653 8.002 L 5.655 8.014 L 5.656 8.026 L 5.657 8.038 L 5.659 8.049 L 5.66 8.061 L 5.662 8.073 L 5.663 8.085 L 5.665 8.096 L 5.666 8.108 L 5.668 8.12 L 5.669 8.132 L 5.671 8.144 L 5.672 8.155 L 5.674 8.167 L 5.675 8.179 L 5.677 8.191 L 5.678 8.203 L 5.68 8.215 L 5.681 8.227 L 5.683 8.239 L 5.684 8.251 L 5.686 8.263 L 5.687 8.275 L 5.689 8.287 L 5.69 8.299 L 5.692 8.311 L 5.693 8.323 L 5.695 8.335 L 5.696 8.347 L 5.698 8.359 L 5.699 8.371 L 5.701 8.384 L 5.702 8.396 L 5.703 8.408 L 5.705 8.42 L 5.706 8.433 L 5.708 8.445 L 5.709 8.457 L 5.711 8.47 L 5.712 8.482 L 5.714 8.495 L 5.715 8.507 L 5.717 8.519 L 5.718 8.532 L 5.72 8.544 L 5.721 8.557 L 5.723 8.57 L 5.724 8.582 L 5.726 8.595 L 5.727 8.607 L 5.729 8.62 L 5.73 8.633 L 5.731 8.646 L 5.733 8.658 L 5.734 8.671 L 5.736 8.684 L 5.737 8.697 L 5.739 8.71 L 5.74 8.723 L 5.742 8.736 L 5.743 8.749 L 5.745 8.762 L 5.746 8.775 L 5.747 8.788 L 5.749 8.801 L 5.75 8.814 L 5.752 8.828 L 5.753 8.841 L 5.755 8.854 L 5.756 8.868 L 5.757 8.881 L 5.759 8.894 L 5.76 8.908 L 5.762 8.921 L 5.763 8.935 L 5.765 8.948 L 5.766 8.962 L 5.767 8.976 L 5.769 8.989 L 5.77 9.003 L 5.772 9.017 L 5.773 9.031 L 5.774 9.044 L 5.776 9.058 L 5.777 9.072 L 5.779 9.086 L 5.78 9.1 L 5.781 9.114 L 5.783 9.128 L 5.784 9.143 L 5.785 9.157 L 5.787 9.171 L 5.788 9.185 L 5.79 9.2 L 5.791 9.214 L 5.792 9.228 L 5.794 9.243 L 5.795 9.257 L 5.796 9.272 L 5.798 9.287 L 5.799 9.301 L 5.8 9.316 L 5.802 9.331 L 5.803 9.346 L 5.804 9.36 L 5.806 9.375 L 5.807 9.39 L 5.808 9.405 L 5.809 9.42 L 5.811 9.436 L 5.812 9.451 L 5.813 9.466 L 5.815 9.481 L 5.816 9.497 L 5.817 9.512 L 5.818 9.527 L 5.82 9.543 L 5.821 9.558 L 5.822 9.574 L 5.823 9.59 L 5.825 9.606 L 5.826 9.621 L 5.827 9.637 L 5.828 9.653 L 5.83 9.669 L 5.831 9.685 L 5.832 9.701 L 5.833 9.717 L 5.834 9.733 L 5.836 9.75 L 5.837 9.766 L 5.838 9.782 L 5.839 9.799 L 5.84 9.815 L 5.841 9.832 L 5.843 9.848 L 5.844 9.865 L 5.845 9.882 L 5.846 9.899 L 5.847 9.916 L 5.848 9.933 L 5.849 9.95 L 5.851 9.967 L 5.852 9.984 L 5.853 10.001 L 5.854 10.018 L 5.855 10.036 L 5.856 10.053 L 5.857 10.07 L 5.858 10.088 L 5.859 10.106 L 5.86 10.123 L 5.861 10.141 L 5.862 10.159 L 5.863 10.177 L 5.865 10.195 L 5.866 10.213 L 5.867 10.231 L 5.868 10.249 L 5.869 10.267 L 5.87 10.285 L 5.871 10.304 L 5.872 10.322 L 5.873 10.341 L 5.874 10.359 L 5.875 10.378 L 5.875 10.397 L 5.876 10.416 L 5.877 10.434 L 5.878 10.453 L 5.879 10.473 L 5.88 10.492 L 5.881 10.511 L 5.882 10.53 L 5.883 10.55 L 5.884 10.569 L 5.885 10.589 L 5.885 10.609 L 5.886 10.628 L 5.887 10.648 L 5.888 10.668 L 5.889 10.688 L 5.89 10.708 L 5.89 10.728 L 5.891 10.748 L 5.892 10.769 L 5.893 10.789 L 5.894 10.81 L 5.894 10.83 L 5.895 10.851 L 5.896 10.871 L 5.897 10.892 L 5.897 10.913 L 5.898 10.934 L 5.899 10.955 L 5.9 10.976 L 5.9 10.998 L 5.901 11.019 L 5.902 11.04 L 5.902 11.062 L 5.903 11.083 L 5.904 11.105 L 5.904 11.127 L 5.905 11.149 L 5.906 11.171 L 5.906 11.193 L 5.907 11.215 L 5.907 11.237 L 5.908 11.259 L 5.909 11.282 L 5.909 11.304 L 5.91 11.327 L 5.91 11.349 L 5.911 11.372 L 5.911 11.395 L 5.912 11.418 L 5.912 11.441 L 5.913 11.464 L 5.913 11.487 L 5.914 11.51 L 5.914 11.534 L 5.915 11.557 L 5.915 11.581 L 5.916 11.605 L 5.916 11.628 L 5.917 11.652 L 5.917 11.676 L 5.918 11.7 L 5.918 11.724 L 5.918 11.749 L 5.919 11.773 L 5.919 11.798 L 5.919 11.822 L 5.92 11.847 L 5.92 11.872 L 5.92 11.896 L 5.921 11.921 L 5.921 11.947 L 5.921 11.972 L 5.922 11.997 L 5.922 12.022 L 5.922 12.048 L 5.922 12.073 L 5.923 12.099 L 5.923 12.125 L 5.923 12.151 L 5.923 12.177 L 5.923 12.203 L 5.924 12.229 L 5.924 12.255 L 5.924 12.282 L 5.924 12.308 L 5.924 12.335 L 5.924 12.362 L 5.925 12.389 L 5.925 12.416 L 5.925 12.443 L 5.925 12.47 L 5.925 12.497 L 5.925 12.525 L 5.925 12.552 L 5.925 12.58 L 5.925 12.607 L 5.925 12.635 L 7.139 12.635 L 7.139 12.607 L 7.139 12.58 L 7.139 12.552 L 7.138 12.524 L 7.138 12.497 L 7.138 12.469 L 7.138 12.442 L 7.138 12.415 L 7.138 12.388 L 7.138 12.361 L 7.138 12.336 L 7.138 12.309 L 7.138 12.282 L 7.137 12.256 L 7.137 12.229 L 7.137 12.203 L 7.137 12.176 L 7.137 12.15 L 7.136 12.126 L 7.136 12.1 L 7.136 12.073 L 7.136 12.048 L 7.135 12.022 L 7.135 11.996 L 7.135 11.972 L 7.135 11.947 L 7.134 11.921 L 7.134 11.896 L 7.134 11.872 L 7.133 11.847 L 7.133 11.822 L 7.132 11.797 L 7.132 11.774 L 7.132 11.749 L 7.131 11.724 L 7.131 11.699 L 7.13 11.676 L 7.13 11.652 L 7.13 11.627 L 7.129 11.605 L 7.129 11.58 L 7.128 11.556 L 7.128 11.534 L 7.127 11.51 L 7.127 11.486 L 7.126 11.464 L 7.125 11.44 L 7.125 11.418 L 7.124 11.394 L 7.124 11.371 L 7.123 11.349 L 7.123 11.326 L 7.122 11.304 L 7.121 11.281 L 7.121 11.259 L 7.12 11.236 L 7.119 11.213 L 7.119 11.192 L 7.118 11.169 L 7.117 11.148 L 7.117 11.125 L 7.116 11.105 L 7.115 11.082 L 7.114 11.061 L 7.114 11.039 L 7.113 11.018 L 7.112 10.996 L 7.111 10.975 L 7.111 10.955 L 7.11 10.933 L 7.109 10.913 L 7.108 10.891 L 7.107 10.871 L 7.106 10.851 L 7.105 10.829 L 7.105 10.809 L 7.104 10.787 L 7.103 10.768 L 7.102 10.748 L 7.101 10.727 L 7.1 10.707 L 7.099 10.688 L 7.098 10.667 L 7.097 10.647 L 7.096 10.628 L 7.095 10.607 L 7.094 10.588 L 7.093 10.569 L 7.092 10.548 L 7.091 10.529 L 7.09 10.51 L 7.089 10.491 L 7.09 10.51 L 7.091 10.529 L 7.092 10.548 L 7.093 10.57 L 7.094 10.588 L 7.095 10.607 L 7.096 10.629 L 7.097 10.648 L 7.098 10.667 L 7.099 10.689 L 7.1 10.708 L 7.101 10.727 L 7.102 10.749 L 7.103 10.768 L 7.104 10.788 L 7.105 10.81 L 7.106 10.83 L 7.107 10.852 L 7.108 10.872 L 7.109 10.892 L 7.11 10.914 L 7.111 10.934 L 7.112 10.957 L 7.112 10.977 L 7.113 10.997 L 7.114 11.02 L 7.115 11.04 L 7.116 11.063 L 7.117 11.083 L 7.118 11.106 L 7.118 11.127 L 7.119 11.15 L 7.12 11.171 L 7.121 11.194 L 7.122 11.215 L 7.122 11.238 L 7.123 11.261 L 7.124 11.282 L 7.125 11.306 L 7.126 11.327 L 7.126 11.351 L 7.127 11.372 L 7.128 11.396 L 7.129 11.42 L 7.129 11.442 L 7.13 11.466 L 7.131 11.488 L 7.131 11.512 L 7.132 11.536 L 7.133 11.558 L 7.133 11.583 L 7.134 11.607 L 7.135 11.629 L 7.135 11.654 L 7.136 11.679 L 7.137 11.701 L 7.137 11.726 L 7.138 11.751 L 7.138 11.776 L 7.139 11.799 L 7.14 11.824 L 7.14 11.85 L 7.141 11.875 L 7.141 11.898 L 7.142 11.924 L 7.142 11.949 L 7.143 11.975 L 7.143 11.999 L 7.144 12.024 L 7.144 12.05 L 7.145 12.076 L 7.145 12.102 L 7.146 12.129 L 7.146 12.153 L 7.147 12.179 L 7.147 12.206 L 7.148 12.232 L 7.148 12.259 L 7.149 12.285 L 7.149 12.312 L 7.15 12.339 L 7.15 12.364 L 7.15 12.391 L 7.151 12.418 L 7.151 12.445 L 7.151 12.473 L 7.152 12.5 L 7.152 12.528 L 7.153 12.555 L 7.153 12.583 L 7.153 12.611 L 7.154 12.639 L 8.005 12.629 L 8.004 12.601 L 8.004 12.573 L 8.004 12.546 L 8.003 12.518 L 8.003 12.49 L 8.003 12.463 L 8.002 12.435 L 8.002 12.408 L 8.002 12.381 L 8.001 12.354 L 8.001 12.331 L 8 12.304 L 8 12.277 L 8 12.25 L 7.999 12.223 L 7.999 12.196 L 7.998 12.17 L 7.998 12.143 L 7.998 12.121 L 7.997 12.094 L 7.997 12.068 L 7.996 12.041 L 7.996 12.015 L 7.995 11.989 L 7.995 11.967 L 7.994 11.941 L 7.994 11.915 L 7.994 11.889 L 7.993 11.867 L 7.993 11.842 L 7.992 11.816 L 7.992 11.79 L 7.991 11.769 L 7.991 11.743 L 7.99 11.718 L 7.989 11.692 L 7.989 11.671 L 7.988 11.646 L 7.988 11.621 L 7.987 11.6 L 7.987 11.575 L 7.986 11.55 L 7.986 11.529 L 7.985 11.504 L 7.984 11.479 L 7.984 11.458 L 7.983 11.434 L 7.982 11.413 L 7.982 11.389 L 7.981 11.364 L 7.981 11.344 L 7.98 11.32 L 7.979 11.299 L 7.979 11.275 L 7.978 11.255 L 7.977 11.231 L 7.976 11.207 L 7.976 11.187 L 7.975 11.163 L 7.974 11.143 L 7.974 11.119 L 7.973 11.099 L 7.972 11.076 L 7.972 11.056 L 7.971 11.032 L 7.97 11.013 L 7.969 10.989 L 7.968 10.97 L 7.968 10.95 L 7.967 10.927 L 7.966 10.908 L 7.965 10.885 L 7.965 10.866 L 7.964 10.846 L 7.963 10.823 L 7.962 10.804 L 7.961 10.782 L 7.96 10.763 L 7.96 10.744 L 7.959 10.721 L 7.958 10.702 L 7.957 10.683 L 7.956 10.661 L 7.955 10.642 L 7.954 10.624 L 7.953 10.601 L 7.952 10.583 L 7.951 10.564 L 7.95 10.542 L 7.95 10.524 L 7.949 10.506 L 7.948 10.487 L 7.947 10.465 L 7.946 10.447 L 7.945 10.429 L 7.944 10.407 L 7.943 10.389 L 7.942 10.371 L 7.941 10.354 L 7.939 10.331 L 7.938 10.314 L 7.937 10.296 L 7.936 10.278 L 7.935 10.261 L 7.934 10.239 L 7.933 10.221 L 7.932 10.203 L 7.931 10.186 L 7.93 10.168 L 7.928 10.151 L 7.927 10.133 L 7.926 10.116 L 7.925 10.095 L 7.924 10.078 L 7.922 10.06 L 7.921 10.043 L 7.92 10.026 L 7.919 10.009 L 7.917 9.992 L 7.916 9.974 L 7.915 9.957 L 7.914 9.94 L 7.912 9.923 L 7.911 9.907 L 7.91 9.89 L 7.908 9.869 L 7.907 9.853 L 7.905 9.836 L 7.904 9.819 L 7.903 9.802 L 7.901 9.786 L 7.9 9.769 L 7.898 9.753 L 7.897 9.736 L 7.895 9.719 L 7.894 9.707 L 7.893 9.69 L 7.891 9.674 L 7.89 9.658 L 7.888 9.641 L 7.887 9.625 L 7.885 9.609 L 7.884 9.593 L 7.882 9.577 L 7.881 9.56 L 7.879 9.544 L 7.877 9.528 L 7.876 9.512 L 7.874 9.495 L 7.873 9.484 L 7.871 9.468 L 7.869 9.452 L 7.868 9.436 L 7.866 9.421 L 7.864 9.405 L 7.863 9.389 L 7.861 9.372 L 7.859 9.361 L 7.858 9.346 L 7.856 9.33 L 7.854 9.314 L 7.852 9.299 L 7.851 9.282 L 7.849 9.271 L 7.847 9.256 L 7.845 9.241 L 7.844 9.225 L 7.842 9.208 L 7.84 9.198 L 7.838 9.183 L 7.836 9.168 L 7.835 9.152 L 7.833 9.136 L 7.831 9.125 L 7.829 9.11 L 7.827 9.095 L 7.825 9.079 L 7.823 9.069 L 7.821 9.054 L 7.819 9.039 L 7.817 9.022 L 7.816 9.012 L 7.814 8.997 L 7.812 8.983 L 7.81 8.966 L 7.808 8.956 L 7.806 8.942 L 7.804 8.925 L 7.802 8.916 L 7.8 8.901 L 7.798 8.886 L 7.795 8.87 L 7.794 8.86 L 7.791 8.846 L 7.789 8.83 L 7.787 8.82 L 7.785 8.806 L 7.783 8.789 L 7.781 8.78 L 7.779 8.766 L 7.776 8.75 L 7.775 8.74 L 7.772 8.726 L 7.77 8.71 L 7.768 8.701 L 7.766 8.687 L 7.763 8.671 L 7.761 8.662 L 7.759 8.648 L 7.757 8.631 L 7.755 8.623 L 7.752 8.609 L 7.75 8.592 L 7.748 8.584 L 7.745 8.57 L 7.743 8.554 L 7.741 8.545 L 7.738 8.531 L 7.736 8.515 L 7.734 8.507 L 7.731 8.491 L 7.729 8.482 L 7.727 8.468 L 7.724 8.452 L 7.722 8.444 L 7.719 8.43 L 7.717 8.414 L 7.715 8.406 L 7.712 8.39 L 7.71 8.382 L 7.707 8.368 L 7.705 8.353 L 7.702 8.344 L 7.7 8.331 L 7.697 8.315 L 7.695 8.307 L 7.692 8.291 L 7.69 8.283 L 7.687 8.27 L 7.684 8.254 L 7.682 8.246 L 7.679 8.233 L 7.676 8.217 L 7.674 8.209 L 7.671 8.194 L 7.669 8.186 L 7.666 8.173 L 7.663 8.157 L 7.661 8.149 L 7.658 8.136 L 7.655 8.121 L 7.653 8.113 L 7.65 8.098 L 7.647 8.09 L 7.645 8.077 L 7.642 8.061 L 7.639 8.054 L 7.636 8.041 L 7.633 8.025 L 7.631 8.018 L 7.628 8.002 L 7.625 7.995 L 7.622 7.982 L 7.619 7.967 L 7.617 7.959 L 7.614 7.946 L 7.61 7.931 L 7.608 7.924 L 7.605 7.911 L 7.607 7.923 L 7.609 7.93 L 7.612 7.946 L 7.616 7.958 L 7.618 7.966 L 7.621 7.981 L 7.624 7.994 L 7.626 8.001 L 7.629 8.017 L 7.632 8.024 L 7.635 8.039 L 7.638 8.052 L 7.64 8.059 L 7.643 8.075 L 7.646 8.088 L 7.648 8.095 L 7.652 8.111 L 7.654 8.118 L 7.657 8.134 L 7.66 8.147 L 7.662 8.154 L 7.665 8.17 L 7.668 8.183 L 7.67 8.191 L 7.673 8.207 L 7.675 8.214 L 7.679 8.23 L 7.681 8.243 L 7.684 8.25 L 7.687 8.267 L 7.69 8.28 L 7.692 8.287 L 7.695 8.303 L 7.697 8.311 L 7.7 8.327 L 7.703 8.34 L 7.705 8.348 L 7.708 8.364 L 7.711 8.378 L 7.713 8.385 L 7.716 8.401 L 7.718 8.409 L 7.721 8.425 L 7.724 8.439 L 7.726 8.447 L 7.729 8.463 L 7.732 8.477 L 7.734 8.485 L 7.737 8.501 L 7.739 8.509 L 7.742 8.525 L 7.744 8.539 L 7.746 8.547 L 7.749 8.564 L 7.752 8.577 L 7.754 8.585 L 7.757 8.602 L 7.76 8.616 L 7.762 8.624 L 7.765 8.641 L 7.768 8.655 L 7.77 8.663 L 7.773 8.68 L 7.775 8.694 L 7.777 8.702 L 7.78 8.719 L 7.783 8.733 L 7.785 8.741 L 7.788 8.758 L 7.791 8.772 L 7.793 8.78 L 7.796 8.797 L 7.798 8.812 L 7.8 8.82 L 7.803 8.837 L 7.806 8.852 L 7.808 8.86 L 7.811 8.877 L 7.814 8.892 L 7.816 8.906 L 7.818 8.915 L 7.821 8.932 L 7.824 8.947 L 7.826 8.955 L 7.829 8.973 L 7.831 8.987 L 7.834 9.002 L 7.836 9.011 L 7.839 9.028 L 7.842 9.043 L 7.844 9.058 L 7.846 9.067 L 7.849 9.084 L 7.852 9.099 L 7.855 9.114 L 7.856 9.123 L 7.859 9.141 L 7.862 9.156 L 7.865 9.171 L 7.867 9.186 L 7.869 9.196 L 7.872 9.213 L 7.875 9.228 L 7.878 9.244 L 7.88 9.259 L 7.882 9.268 L 7.885 9.286 L 7.888 9.302 L 7.89 9.317 L 7.893 9.332 L 7.896 9.348 L 7.898 9.358 L 7.901 9.376 L 7.903 9.391 L 7.906 9.407 L 7.909 9.422 L 7.911 9.438 L 7.914 9.454 L 7.917 9.469 L 7.919 9.48 L 7.921 9.498 L 7.924 9.514 L 7.927 9.529 L 7.929 9.545 L 7.932 9.561 L 7.935 9.577 L 7.937 9.593 L 7.94 9.609 L 7.943 9.626 L 7.946 9.642 L 7.948 9.658 L 7.951 9.674 L 7.954 9.69 L 7.955 9.701 L 7.958 9.72 L 7.961 9.736 L 7.964 9.752 L 7.966 9.769 L 7.969 9.785 L 7.972 9.802 L 7.974 9.818 L 7.977 9.835 L 7.98 9.852 L 7.983 9.873 L 7.986 9.889 L 7.988 9.905 L 7.991 9.922 L 7.994 9.939 L 7.997 9.956 L 7.999 9.973 L 8.002 9.99 L 8.005 10.007 L 8.007 10.024 L 8.01 10.041 L 8.013 10.058 L 8.016 10.075 L 8.019 10.097 L 8.022 10.113 L 8.024 10.131 L 8.027 10.148 L 8.03 10.166 L 8.032 10.183 L 8.035 10.201 L 8.038 10.218 L 8.041 10.24 L 8.044 10.257 L 8.047 10.275 L 8.049 10.292 L 8.052 10.31 L 8.055 10.332 L 8.058 10.349 L 8.061 10.367 L 8.064 10.385 L 8.067 10.408 L 8.07 10.425 L 8.072 10.443 L 8.075 10.461 L 8.079 10.484 L 8.081 10.501 L 8.084 10.519 L 8.087 10.538 L 8.09 10.56 L 8.093 10.578 L 8.096 10.597 L 8.099 10.62 L 8.102 10.637 L 8.105 10.656 L 8.108 10.679 L 8.111 10.697 L 8.114 10.716 L 8.117 10.739 L 8.12 10.757 L 8.123 10.776 L 8.126 10.799 L 8.129 10.818 L 8.132 10.841 L 8.135 10.86 L 8.138 10.879 L 8.141 10.903 L 8.144 10.921 L 8.147 10.945 L 8.15 10.964 L 8.153 10.983 L 8.156 11.007 L 8.159 11.026 L 8.163 11.05 L 8.166 11.069 L 8.169 11.093 L 8.172 11.112 L 8.175 11.136 L 8.178 11.156 L 8.182 11.18 L 8.184 11.199 L 8.188 11.224 L 8.191 11.248 L 8.194 11.267 L 8.198 11.292 L 8.201 11.312 L 8.204 11.336 L 8.207 11.356 L 8.211 11.381 L 8.214 11.405 L 8.217 11.425 L 8.22 11.45 L 8.223 11.47 L 8.227 11.495 L 8.23 11.52 L 8.233 11.54 L 8.237 11.566 L 8.24 11.591 L 8.243 11.611 L 8.247 11.636 L 8.25 11.662 L 8.253 11.682 L 8.257 11.708 L 8.261 11.733 L 8.264 11.758 L 8.267 11.78 L 8.271 11.805 L 8.274 11.831 L 8.278 11.856 L 8.281 11.878 L 8.284 11.904 L 8.288 11.93 L 8.292 11.955 L 8.295 11.977 L 8.298 12.003 L 8.302 12.029 L 8.306 12.055 L 8.309 12.082 L 8.313 12.108 L 8.316 12.13 L 8.32 12.157 L 8.323 12.183 L 8.327 12.21 L 8.331 12.236 L 8.334 12.263 L 8.338 12.29 L 8.342 12.317 L 8.345 12.339 L 8.348 12.366 L 8.352 12.393 L 8.356 12.42 L 8.36 12.448 L 8.363 12.475 L 8.367 12.502 L 8.371 12.53 L 8.374 12.557 L 8.378 12.585 L 8.382 12.612 L 9.053 12.521 L 9.049 12.494 L 9.046 12.466 L 9.042 12.439 L 9.038 12.411 L 9.034 12.384 L 9.031 12.356 L 9.027 12.329 L 9.023 12.302 L 9.02 12.275 L 9.016 12.247 L 9.013 12.227 L 9.009 12.2 L 9.006 12.173 L 9.002 12.146 L 8.998 12.119 L 8.995 12.092 L 8.991 12.066 L 8.988 12.039 L 8.985 12.019 L 8.981 11.992 L 8.978 11.966 L 8.974 11.939 L 8.97 11.913 L 8.967 11.886 L 8.964 11.866 L 8.96 11.84 L 8.957 11.814 L 8.953 11.787 L 8.951 11.768 L 8.947 11.742 L 8.943 11.716 L 8.94 11.69 L 8.937 11.67 L 8.934 11.644 L 8.93 11.618 L 8.927 11.592 L 8.924 11.573 L 8.92 11.547 L 8.917 11.521 L 8.914 11.502 L 8.911 11.477 L 8.907 11.451 L 8.905 11.432 L 8.901 11.406 L 8.898 11.381 L 8.895 11.362 L 8.892 11.337 L 8.889 11.318 L 8.885 11.292 L 8.882 11.267 L 8.879 11.248 L 8.876 11.223 L 8.873 11.205 L 8.87 11.179 L 8.867 11.161 L 8.864 11.136 L 8.86 11.111 L 8.858 11.092 L 8.854 11.068 L 8.852 11.049 L 8.848 11.024 L 8.846 11.006 L 8.842 10.981 L 8.84 10.963 L 8.836 10.938 L 8.834 10.92 L 8.83 10.896 L 8.828 10.877 L 8.825 10.859 L 8.822 10.835 L 8.819 10.817 L 8.816 10.792 L 8.813 10.774 L 8.811 10.756 L 8.807 10.732 L 8.805 10.714 L 8.802 10.69 L 8.799 10.672 L 8.796 10.654 L 8.793 10.63 L 8.791 10.613 L 8.788 10.595 L 8.785 10.571 L 8.782 10.553 L 8.78 10.536 L 8.776 10.512 L 8.774 10.494 L 8.771 10.477 L 8.768 10.453 L 8.765 10.436 L 8.763 10.418 L 8.76 10.401 L 8.757 10.377 L 8.755 10.36 L 8.752 10.342 L 8.75 10.325 L 8.746 10.302 L 8.744 10.285 L 8.741 10.267 L 8.739 10.25 L 8.735 10.227 L 8.733 10.21 L 8.73 10.193 L 8.728 10.175 L 8.725 10.158 L 8.722 10.136 L 8.72 10.119 L 8.717 10.102 L 8.715 10.085 L 8.712 10.068 L 8.71 10.051 L 8.707 10.034 L 8.705 10.017 L 8.701 9.994 L 8.699 9.978 L 8.696 9.961 L 8.694 9.944 L 8.691 9.927 L 8.689 9.911 L 8.686 9.894 L 8.684 9.877 L 8.681 9.861 L 8.679 9.844 L 8.676 9.828 L 8.674 9.811 L 8.671 9.795 L 8.668 9.773 L 8.666 9.756 L 8.663 9.74 L 8.661 9.723 L 8.658 9.707 L 8.656 9.691 L 8.653 9.674 L 8.651 9.658 L 8.648 9.642 L 8.646 9.626 L 8.644 9.615 L 8.642 9.599 L 8.639 9.583 L 8.637 9.566 L 8.634 9.55 L 8.632 9.534 L 8.629 9.518 L 8.627 9.502 L 8.624 9.486 L 8.622 9.47 L 8.619 9.455 L 8.617 9.439 L 8.614 9.423 L 8.612 9.407 L 8.61 9.396 L 8.607 9.381 L 8.605 9.365 L 8.602 9.349 L 8.6 9.333 L 8.597 9.318 L 8.595 9.302 L 8.592 9.287 L 8.591 9.276 L 8.588 9.261 L 8.586 9.245 L 8.583 9.23 L 8.581 9.214 L 8.578 9.199 L 8.576 9.188 L 8.574 9.173 L 8.571 9.158 L 8.569 9.142 L 8.566 9.127 L 8.565 9.117 L 8.562 9.101 L 8.56 9.086 L 8.557 9.071 L 8.555 9.056 L 8.553 9.046 L 8.55 9.03 L 8.548 9.015 L 8.545 9 L 8.543 8.99 L 8.541 8.975 L 8.538 8.96 L 8.536 8.945 L 8.534 8.935 L 8.531 8.92 L 8.529 8.905 L 8.526 8.89 L 8.525 8.88 L 8.522 8.866 L 8.519 8.851 L 8.518 8.841 L 8.515 8.826 L 8.513 8.811 L 8.51 8.797 L 8.508 8.787 L 8.506 8.772 L 8.503 8.757 L 8.501 8.748 L 8.499 8.733 L 8.496 8.718 L 8.494 8.709 L 8.492 8.694 L 8.489 8.68 L 8.487 8.67 L 8.485 8.656 L 8.482 8.641 L 8.48 8.632 L 8.478 8.617 L 8.475 8.603 L 8.473 8.593 L 8.47 8.579 L 8.468 8.565 L 8.466 8.555 L 8.463 8.541 L 8.461 8.527 L 8.459 8.517 L 8.456 8.503 L 8.453 8.489 L 8.452 8.479 L 8.449 8.465 L 8.446 8.451 L 8.444 8.442 L 8.442 8.428 L 8.44 8.419 L 8.437 8.405 L 8.434 8.391 L 8.433 8.381 L 8.43 8.367 L 8.427 8.354 L 8.425 8.344 L 8.423 8.33 L 8.421 8.321 L 8.418 8.307 L 8.415 8.294 L 8.413 8.284 L 8.41 8.271 L 8.408 8.257 L 8.406 8.248 L 8.403 8.234 L 8.401 8.225 L 8.398 8.212 L 8.395 8.198 L 8.394 8.189 L 8.391 8.175 L 8.388 8.162 L 8.386 8.153 L 8.383 8.139 L 8.381 8.13 L 8.378 8.117 L 8.375 8.104 L 8.374 8.095 L 8.371 8.081 L 8.368 8.068 L 8.366 8.059 L 8.363 8.046 L 8.361 8.037 L 8.358 8.024 L 8.355 8.011 L 8.353 8.002 L 8.35 7.989 L 8.347 7.975 L 8.345 7.967 L 8.342 7.954 L 8.34 7.945 L 8.337 7.932 L 8.334 7.919 L 8.332 7.91 L 8.329 7.897 L 8.326 7.884 L 8.324 7.876 L 8.321 7.863 L 8.318 7.85 L 8.315 7.837 L 8.311 7.814 L 8.31 7.814 L 8.306 7.801 L 8.303 7.779 L 8.301 7.779 L 8.298 7.766 L 8.294 7.744 L 8.292 7.744 L 8.289 7.731 L 8.286 7.719 L 8.282 7.697 L 8.28 7.697 L 8.277 7.684 L 8.273 7.662 L 8.271 7.663 L 8.268 7.65 L 8.264 7.637 L 8.26 7.615 L 8.259 7.616 L 8.255 7.603 L 8.252 7.59 L 8.248 7.569 L 8.246 7.569 L 8.242 7.557 L 8.239 7.544 L 8.235 7.523 L 8.233 7.523 L 8.229 7.511 L 8.226 7.498 L 8.222 7.486 L 8.218 7.465 L 8.216 7.465 L 8.213 7.453 L 8.209 7.441 L 8.205 7.428 L 8.202 7.416 L 8.198 7.396 L 8.196 7.396 L 8.192 7.384 L 8.188 7.372 L 8.184 7.359 L 8.181 7.347 L 8.177 7.335 L 8.173 7.323 L 8.169 7.311 L 8.166 7.299 L 8.161 7.28 L 8.159 7.28 L 8.155 7.268 L 8.151 7.256 L 8.147 7.244 L 8.144 7.232 L 8.14 7.221 L 8.136 7.209 L 8.132 7.197 L 8.128 7.186 L 8.124 7.174 L 8.12 7.162 L 8.116 7.151 L 8.112 7.139 L 8.108 7.133 L 8.102 7.113 L 8.098 7.101 L 8.094 7.09 L 8.09 7.078 L 8.086 7.067 L 8.082 7.056 L 8.078 7.044 L 8.074 7.038 L 8.068 7.018 L 8.064 7.007 L 8.059 6.996 L 8.055 6.985 L 8.051 6.978 L 8.045 6.959 L 8.041 6.948 L 8.036 6.937 L 8.032 6.93 L 8.026 6.911 L 8.022 6.9 L 8.018 6.894 L 8.012 6.875 L 8.007 6.864 L 8.003 6.858 L 7.997 6.839 L 7.992 6.832 L 7.986 6.814 L 7.982 6.803 L 7.977 6.797 L 7.971 6.779 L 7.967 6.772 L 7.96 6.754 L 7.956 6.747 L 7.949 6.73 L 7.945 6.723 L 7.939 6.709 L 7.932 6.692 L 7.927 6.685 L 7.921 6.667 L 7.916 6.661 L 7.91 6.647 L 7.903 6.63 L 7.898 6.623 L 7.892 6.61 L 7.885 6.596 L 7.879 6.579 L 7.874 6.573 L 7.867 6.559 L 7.86 6.546 L 7.854 6.533 L 7.847 6.519 L 7.84 6.506 L 7.833 6.493 L 7.826 6.477 L 7.821 6.47 L 7.814 6.457 L 7.807 6.446 L 7.798 6.428 L 7.791 6.415 L 7.784 6.402 L 7.777 6.39 L 7.77 6.377 L 7.763 6.364 L 7.755 6.352 L 7.748 6.341 L 7.739 6.323 L 7.731 6.311 L 7.724 6.3 L 7.715 6.283 L 7.707 6.271 L 7.7 6.26 L 7.69 6.243 L 7.682 6.232 L 7.673 6.216 L 7.665 6.205 L 7.655 6.188 L 7.647 6.178 L 7.638 6.163 L 7.628 6.147 L 7.62 6.136 L 7.61 6.122 L 7.599 6.107 L 7.589 6.091 L 7.581 6.081 L 7.571 6.066 L 7.56 6.052 L 7.55 6.037 L 7.539 6.023 L 7.529 6.009 L 7.518 5.995 L 7.507 5.982 L 7.494 5.964 L 7.484 5.95 L 7.473 5.936 L 7.462 5.923 L 7.448 5.906 L 7.437 5.892 L 7.426 5.879 L 7.412 5.862 L 7.401 5.85 L 7.387 5.834 L 7.373 5.817 L 7.361 5.805 L 7.347 5.789 L 7.333 5.773 L 7.319 5.757 L 7.307 5.745 L 7.292 5.729 L 7.277 5.714 L 7.263 5.699 L 7.245 5.681 L 7.23 5.666 L 7.215 5.651 L 7.2 5.637 L 7.182 5.619 L 7.166 5.605 L 7.148 5.588 L 7.132 5.574 L 7.114 5.557 L 7.095 5.54 L 7.079 5.526 L 7.06 5.51 L 7.041 5.494 L 7.022 5.478 L 7.002 5.462 L 6.98 5.444 L 6.96 5.428 L 6.94 5.413 L 6.917 5.395 L 6.896 5.38 L 6.873 5.362 L 6.849 5.345 L 6.825 5.328 L 6.801 5.311 L 6.777 5.295 L 6.752 5.278 L 6.727 5.262 L 6.699 5.244 L 6.674 5.228 L 6.645 5.21 L 6.616 5.192 L 6.586 5.175 L 6.556 5.158 L 6.526 5.141 L 6.493 5.122 L 6.462 5.106 L 6.428 5.087 L 6.393 5.069 L 6.357 5.052 L 6.318 5.033 L 6.282 5.015 L 6.242 4.997 L 6.201 4.978 L 6.16 4.96 L 6.119 4.943 L 6.073 4.924 L 6.026 4.905 L 5.979 4.887 L 5.931 4.869 L 5.879 4.85 L 5.826 4.831 L 5.768 4.811 L 5.709 4.792 L 5.649 4.774 L 5.584 4.754 L 5.447 4.755 Z M 1.723 1.971 A 12.831 12.831 0 0 1 1.723 2.085 Q 1.723 3.547 1.378 4.131 A 0.755 0.755 0 0 1 0.985 4.483 Q 1.724 4.231 1.724 2.101 A 12.766 12.766 0 0 0 1.723 1.976 A 12.713 12.713 0 0 1 1.724 2.114 Q 1.724 4.236 0.985 4.485 A 0.741 0.741 0 0 0 1.383 4.136 Q 1.724 3.562 1.724 2.123 A 12.669 12.669 0 0 0 1.723 1.983 M 1.722 1.965 A 12.914 12.914 0 0 1 1.722 2.066 Q 1.722 4.215 0.985 4.481 A 0.772 0.772 0 0 0 1.374 4.123 Q 1.731 3.512 1.721 1.959 Q 1.717 3.49 1.363 4.105 A 0.806 0.806 0 0 1 0.985 4.468 M 1.72 1.951 A 13.123 13.123 0 0 1 1.721 2.017 Q 1.721 4.192 0.985 4.476 A 0.79 0.79 0 0 0 1.364 4.117 Q 1.719 3.511 1.719 1.989 A 13.271 13.271 0 0 0 1.719 1.942 M 0.985 4.485 A 0.737 0.737 0 0 0 1.383 4.138 Q 1.724 3.567 1.724 2.13 A 12.634 12.634 0 0 0 1.723 1.985 A 12.643 12.643 0 0 1 1.724 2.128 Q 1.724 3.565 1.383 4.138 A 0.738 0.738 0 0 1 0.985 4.485 Z M 1.713 1.913 A 12.122 12.122 0 0 1 1.707 2.285 Q 1.665 3.547 1.351 4.095 A 0.831 0.831 0 0 1 0.985 4.457 M 1.71 1.901 A 12.328 12.328 0 0 1 1.705 2.237 Q 1.664 3.524 1.348 4.083 A 0.85 0.85 0 0 1 0.985 4.45 M 1.716 1.923 A 12.068 12.068 0 0 1 1.71 2.295 Q 1.652 4.172 0.985 4.463 M 1.707 1.89 A 12.396 12.396 0 0 1 1.701 2.226 Q 1.657 3.515 1.34 4.077 A 0.867 0.867 0 0 1 0.985 4.443 M 1.703 1.877 Q 1.689 3.433 1.332 4.07 A 0.884 0.884 0 0 1 0.985 4.435 M 1.699 1.864 A 12.644 12.644 0 0 1 1.692 2.177 Q 1.645 3.48 1.328 4.055 A 0.91 0.91 0 0 1 0.985 4.426 M 1.694 1.851 A 12.783 12.783 0 0 1 1.687 2.152 Q 1.637 3.461 1.321 4.042 A 0.936 0.936 0 0 1 0.985 4.417 M 1.689 1.837 A 12.923 12.923 0 0 1 1.681 2.128 Q 1.629 3.441 1.315 4.028 A 0.964 0.964 0 0 1 0.985 4.406 M 1.683 1.823 A 13.037 13.037 0 0 1 1.674 2.113 Q 1.595 3.995 0.985 4.395 M 1.676 1.809 A 13.165 13.165 0 0 1 1.667 2.097 Q 1.584 3.967 0.985 4.382 M 1.669 1.795 A 13.302 13.302 0 0 1 1.658 2.081 Q 1.597 3.38 1.292 3.981 A 1.071 1.071 0 0 1 0.985 4.369 M 1.661 1.78 A 13.448 13.448 0 0 1 1.649 2.065 Q 1.585 3.358 1.284 3.964 A 1.114 1.114 0 0 1 0.985 4.354 M 1.642 1.75 A 13.801 13.801 0 0 1 1.629 2.031 Q 1.529 3.843 0.985 4.323 M 1.631 1.735 A 13.993 13.993 0 0 1 1.618 2.017 Q 1.543 3.296 1.253 3.916 A 1.27 1.27 0 0 1 0.985 4.306 M 1.62 1.72 A 14.208 14.208 0 0 1 1.606 1.999 Q 1.529 3.265 1.245 3.89 A 1.343 1.343 0 0 1 0.985 4.287 M 1.607 1.705 Q 1.543 3.166 1.238 3.863 A 1.427 1.427 0 0 1 0.985 4.267 M 1.594 1.69 A 15.327 15.327 0 0 1 1.587 1.818 Q 1.484 3.673 0.985 4.245 M 1.579 1.676 A 15.642 15.642 0 0 1 1.573 1.796 Q 1.467 3.631 0.985 4.222 M 1.564 1.661 A 16.433 16.433 0 0 1 1.562 1.69 Q 1.487 3.07 1.212 3.773 A 1.751 1.751 0 0 1 0.985 4.197 M 1.547 1.647 A 13.197 13.197 0 0 1 1.476 2.48 Q 1.383 3.259 1.203 3.739 A 1.888 1.888 0 0 1 0.985 4.169 M 1.53 1.633 A 13.582 13.582 0 0 1 1.459 2.453 Q 1.366 3.222 1.194 3.703 A 2.047 2.047 0 0 1 0.985 4.139 M 6.819 4.354 A 272.116 272.116 0 0 1 6.818 4.117 Q 6.817 3.531 6.817 2.042 A 9316.72 9316.72 0 0 1 6.816 1.78 M 6.941 4.339 A 832.385 832.385 0 0 1 6.941 4.097 Q 6.94 3.503 6.94 2.025 A 25825.669 25825.669 0 0 1 6.94 1.765 M 6.69 1.795 Q 6.69 3.51 6.69 4.137 A 1861.609 1861.609 0 0 1 6.69 4.369 M 6.56 1.809 A 11339.65 11339.65 0 0 1 6.56 2.076 Q 6.559 3.586 6.559 4.156 A 275.975 275.975 0 0 1 6.558 4.382 M 7.061 1.75 Q 7.061 3.421 7.061 4.075 A 3410.994 3410.994 0 0 1 7.061 4.323 M 6.427 1.823 A 9312.525 9312.525 0 0 1 6.426 2.403 Q 6.426 3.671 6.425 4.173 A 229.068 229.068 0 0 1 6.425 4.395 M 7.181 1.735 A 17507.698 17507.698 0 0 1 7.18 1.991 Q 7.18 3.441 7.18 4.052 A 683.184 683.184 0 0 1 7.179 4.306 M 6.289 1.837 A 37801.31 37801.31 0 0 1 6.289 2.423 Q 6.289 3.695 6.289 4.189 A 851.876 851.876 0 0 1 6.289 4.406 M 7.3 4.287 A 459.647 459.647 0 0 1 7.3 4.028 Q 7.299 3.381 7.298 1.841 A 11158.542 11158.542 0 0 1 7.298 1.72 M 6.148 1.851 A 9602.912 9602.912 0 0 1 6.147 2.445 Q 6.147 3.718 6.146 4.205 A 199.339 199.339 0 0 1 6.146 4.417 M 1.511 1.619 A 14.051 14.051 0 0 1 1.441 2.417 Q 1.351 3.169 1.189 3.651 A 2.257 2.257 0 0 1 0.985 4.107 M 6.001 1.864 A 16427.832 16427.832 0 0 1 6.001 2.461 Q 6.001 4.099 6 4.426 M 7.414 1.705 Q 7.414 3.259 7.414 3.949 A 9474.589 9474.589 0 0 1 7.414 4.267 M 5.852 4.435 Q 5.851 4.12 5.85 2.477 A 8136.386 8136.386 0 0 1 5.85 1.877 M 7.53 4.245 A 1122.022 1122.022 0 0 1 7.53 3.921 Q 7.53 3.388 7.53 2.364 A 17270.3 17270.3 0 0 1 7.529 1.69 M 5.693 1.89 A 9883.85 9883.85 0 0 1 5.693 2.491 Q 5.692 3.778 5.691 4.245 A 161.23 161.23 0 0 1 5.691 4.443 M 7.645 4.222 A 2069.533 2069.533 0 0 1 7.644 3.892 Q 7.644 3.353 7.644 2.34 A 29017.434 29017.434 0 0 1 7.644 1.676 M 5.361 1.913 A 20223.516 20223.516 0 0 1 5.361 2.53 Q 5.36 4.176 5.36 4.457 M 5.185 1.923 A 29513.556 29513.556 0 0 1 5.185 2.542 Q 5.185 3.829 5.185 4.277 A 389.178 389.178 0 0 1 5.185 4.463 M 7.758 1.661 A 10193.038 10193.038 0 0 1 7.758 2.317 Q 7.757 3.684 7.757 4.197 M 5.003 1.933 Q 5.002 3.743 5.001 4.285 A 106.4 106.4 0 0 1 5 4.468 M 1.491 1.606 A 14.594 14.594 0 0 1 1.423 2.372 Q 1.335 3.122 1.179 3.61 A 2.468 2.468 0 0 1 0.985 4.071 M 4.616 4.476 A 94.866 94.866 0 0 1 4.616 4.373 Q 4.615 3.938 4.615 2.196 A 14621.081 14621.081 0 0 1 4.615 1.951 M 7.875 4.169 A 957.386 957.386 0 0 1 7.874 3.828 Q 7.874 3.113 7.873 1.647 M 4.41 4.479 Q 4.409 4.215 4.409 2.204 A 20358.576 20358.576 0 0 1 4.409 1.959 M 3.973 4.483 Q 3.972 4.232 3.971 2.218 A 9350.438 9350.438 0 0 1 3.971 1.971 M 3.738 1.976 Q 3.737 3.943 3.736 4.388 A 48.695 48.695 0 0 1 3.736 4.484 M 7.99 4.139 A 890.753 890.753 0 0 1 7.99 3.763 Q 7.989 3.213 7.989 2.256 A 9151.193 9151.193 0 0 1 7.988 1.633 M 3.496 1.98 Q 3.495 3.948 3.495 4.39 A 64.398 64.398 0 0 1 3.494 4.485 M 3.244 1.983 A 9492.054 9492.054 0 0 1 3.244 2.23 Q 3.243 3.979 3.242 4.391 A 47.057 47.057 0 0 1 3.241 4.485 M 2.984 4.485 Q 2.982 4.249 2.981 2.231 A 7385.572 7385.572 0 0 1 2.981 1.985 M 1.47 1.593 A 15.571 15.571 0 0 1 1.414 2.244 Q 1.327 3.041 1.171 3.559 A 2.726 2.726 0 0 1 0.985 4.031 M 8.104 1.619 A 15951.445 15951.445 0 0 1 8.104 2.226 Q 8.104 3.548 8.103 4.107 M 8.222 1.606 A 48525.147 48525.147 0 0 1 8.222 2.198 Q 8.222 3.499 8.222 4.071 M 1.448 1.581 A 16.175 16.175 0 0 1 1.394 2.206 Q 1.31 2.986 1.162 3.504 A 3.021 3.021 0 0 1 0.985 3.986 M 8.341 1.593 Q 8.341 2.89 8.341 3.613 A 5748.497 5748.497 0 0 1 8.341 4.031 M 1.424 1.569 A 17.001 17.001 0 0 1 1.375 2.136 Q 1.25 3.339 0.985 3.937 M 8.464 3.986 A 1425.616 1425.616 0 0 1 8.464 3.565 Q 8.463 2.92 8.463 1.841 A 10740.857 10740.857 0 0 1 8.463 1.581 M 1.399 1.558 Q 1.317 2.697 1.139 3.4 A 3.737 3.737 0 0 1 0.985 3.883 M 8.588 3.937 A 1670.848 1670.848 0 0 1 8.587 3.515 Q 8.587 2.832 8.586 1.69 A 11847.28 11847.28 0 0 1 8.586 1.569 M 8.713 1.558 Q 8.712 2.747 8.712 3.46 A 1936.844 1936.844 0 0 1 8.711 3.883 M 1.373 1.547 A 18.674 18.674 0 0 1 1.331 2.04 Q 1.254 2.808 1.128 3.34 A 4.183 4.183 0 0 1 0.985 3.821 M 1.345 1.537 Q 1.269 2.568 1.122 3.243 A 4.78 4.78 0 0 1 0.985 3.749 M 1.316 1.528 A 21.484 21.484 0 0 1 1.295 1.794 Q 1.226 2.587 1.114 3.148 A 5.467 5.467 0 0 1 0.985 3.669 M 1.286 1.52 A 22.468 22.468 0 0 1 1.266 1.77 Q 1.202 2.517 1.101 3.059 A 6.209 6.209 0 0 1 0.985 3.575 M 9.255 1.52 A 22815.429 22815.429 0 0 1 9.255 2.107 Q 9.255 2.717 9.255 3.171 A 6080.892 6080.892 0 0 1 9.255 3.575 M 1.254 1.512 Q 1.191 2.362 1.087 2.967 A 7.046 7.046 0 0 1 0.985 3.465 M 9.402 3.465 A 25967.736 25967.736 0 0 1 9.402 3.074 Q 9.402 2.44 9.402 1.512 M 1.22 1.505 A 25.758 25.758 0 0 1 1.217 1.555 Q 1.16 2.308 1.073 2.862 A 8.036 8.036 0 0 1 0.985 3.337 M 9.553 1.505 A 11144.12 11144.12 0 0 1 9.553 1.741 Q 9.553 2.72 9.552 3.337 M 1.185 1.499 Q 1.137 2.176 1.066 2.689 A 9.324 9.324 0 0 1 0.985 3.181 M 9.711 3.181 A 4042.659 4042.659 0 0 1 9.711 2.832 Q 9.711 2.351 9.711 1.712 A 12255.204 12255.204 0 0 1 9.71 1.499 M 1.149 1.494 A 23.511 23.511 0 0 1 1.105 2.042 Q 1.081 2.3 1.053 2.526 A 10.646 10.646 0 0 1 0.985 2.995 M 3.973 0.985 A 809.451 809.451 0 0 1 3.973 1.158 Q 3.972 1.699 3.971 1.722 A 0.005 0.005 0 0 0 3.971 1.722 Q 3.972 1.699 3.973 1.158 M 1.11 1.49 A 24.122 24.122 0 0 1 1.077 1.938 Q 1.059 2.151 1.038 2.341 A 11.918 11.918 0 0 1 0.985 2.764 M 10.043 1.49 A 7271.709 7271.709 0 0 1 10.042 1.938 Q 10.042 2.151 10.042 2.341 A 3538.213 3538.213 0 0 1 10.042 2.764 M 1.07 1.488 A 23.136 23.136 0 0 1 1.047 1.827 Q 1.035 1.989 1.021 2.135 A 12.43 12.43 0 0 1 0.985 2.465 M 10.218 1.488 Q 10.218 1.842 10.218 2.135 A 7256.478 7256.478 0 0 1 10.218 2.465 M 2.984 0.985 A 650.164 650.164 0 0 1 2.984 1.158 Q 2.982 1.724 2.981 1.724 M 3.244 1.724 A 0.011 0.011 0 0 1 3.244 1.722 Q 3.243 1.692 3.242 1.158 A 833.263 833.263 0 0 1 3.241 0.985 M 3.494 0.985 Q 3.495 1.688 3.496 1.722 A 0.015 0.015 0 0 1 3.496 1.722 M 3.738 1.724 A 0.005 0.005 0 0 1 3.738 1.723 Q 3.737 1.7 3.736 1.158 A 806.991 806.991 0 0 1 3.736 0.985 M 4.194 1.722 A 0.031 0.031 0 0 1 4.194 1.721 Q 4.194 1.691 4.194 1.158 A 2263.787 2263.787 0 0 1 4.193 0.985 M 4.41 0.985 A 1743.272 1743.272 0 0 1 4.41 1.158 Q 4.409 1.722 4.409 1.722 M 4.615 1.719 A 0.017 0.017 0 0 1 4.615 1.72 Q 4.615 1.684 4.616 0.985 M 4.813 0.985 A 4541.698 4541.698 0 0 1 4.813 1.157 Q 4.813 1.719 4.813 1.719 M 5.003 1.717 A 0.011 0.011 0 0 1 5.002 1.716 Q 5.002 1.686 5.001 1.157 A 811.159 811.159 0 0 1 5 0.985 M 5.185 1.715 A 0.039 0.039 0 0 1 5.185 1.714 Q 5.185 1.684 5.185 1.156 A 2742.168 2742.168 0 0 1 5.185 0.985 M 5.532 0.985 A 722.539 722.539 0 0 1 5.532 1.153 Q 5.531 1.62 5.53 1.696 A 0.338 0.338 0 0 1 5.53 1.71 M 5.693 1.707 A 0.52 0.52 0 0 1 5.693 1.692 Q 5.692 1.615 5.691 1.151 A 876.734 876.734 0 0 1 5.691 0.985 M 5.852 0.985 A 708.686 708.686 0 0 1 5.852 1.149 Q 5.851 1.608 5.85 1.687 A 0.554 0.554 0 0 1 5.85 1.703 M 6.001 1.699 A 1.431 1.431 0 0 1 6.001 1.682 Q 6.001 1.586 6 0.985 M 6.148 1.694 A 1.059 1.059 0 0 1 6.148 1.676 Q 6.147 1.591 6.146 1.145 A 803.382 803.382 0 0 1 6.146 0.985 M 6.289 1.689 Q 6.289 1.657 6.289 1.142 A 3100.757 3100.757 0 0 1 6.289 0.985 M 6.427 1.683 A 1.576 1.576 0 0 1 6.426 1.662 Q 6.426 1.558 6.425 0.985 M 6.56 1.676 A 0.961 0.961 0 0 1 6.56 1.669 Q 6.559 1.602 6.558 1.137 A 798.772 798.772 0 0 1 6.558 0.985 M 6.69 1.669 A 7.691 7.691 0 0 1 6.69 1.661 Q 6.69 1.579 6.69 0.985 M 6.819 0.985 A 621.735 621.735 0 0 1 6.818 1.13 Q 6.817 1.578 6.817 1.652 A 1.341 1.341 0 0 1 6.816 1.66 M 7.061 1.642 A 22.114 22.114 0 0 1 7.061 1.632 Q 7.061 1.55 7.061 1.123 A 6045.868 6045.868 0 0 1 7.061 0.985 M 7.181 1.631 A 5.065 5.065 0 0 1 7.18 1.621 Q 7.18 1.535 7.179 1.12 A 1060.743 1060.743 0 0 1 7.179 0.985 M 7.3 0.985 A 573.26 573.26 0 0 1 7.3 1.176 Q 7.299 1.484 7.298 1.585 A 6.919 6.919 0 0 1 7.298 1.62 M 7.414 1.607 A 135.76 135.76 0 0 1 7.414 1.572 Q 7.414 1.47 7.414 1.17 A 9438.141 9438.141 0 0 1 7.414 0.985 M 7.645 0.985 A 1560.567 1560.567 0 0 1 7.644 1.157 Q 7.644 1.439 7.644 1.543 A 31.866 31.866 0 0 1 7.644 1.579 M 1.029 1.486 A 19.294 19.294 0 0 1 1.023 1.577 Q 1.015 1.711 1.006 1.831 A 10.921 10.921 0 0 1 0.985 2.064 M 7.758 1.564 Q 7.758 1.481 7.757 1.151 A 521.394 521.394 0 0 1 7.757 0.985 M 10.402 2.064 A 2392.463 2392.463 0 0 1 10.401 1.831 Q 10.401 1.671 10.401 1.486 M 7.875 0.985 A 541.623 541.623 0 0 1 7.874 1.144 Q 7.874 1.462 7.873 1.547 M 7.99 0.985 Q 7.989 1.393 7.988 1.515 A 10.585 10.585 0 0 1 7.988 1.53 M 8.104 1.511 A 18.508 18.508 0 0 1 8.104 1.504 Q 8.104 1.41 8.104 1.13 A 684.972 684.972 0 0 1 8.103 0.985 M 8.222 1.491 A 106.207 106.207 0 0 1 8.222 1.44 Q 8.222 1.342 8.222 1.144 A 1893.916 1893.916 0 0 1 8.222 0.985 M 8.341 1.47 A 103.516 103.516 0 0 1 8.341 1.42 Q 8.341 1.323 8.341 1.135 A 1579.371 1579.371 0 0 1 8.341 0.985 M 8.464 0.985 A 332.708 332.708 0 0 1 8.464 1.126 Q 8.463 1.303 8.463 1.398 A 25.26 25.26 0 0 1 8.463 1.448 M 8.588 0.985 A 323.45 323.45 0 0 1 8.587 1.126 Q 8.587 1.336 8.586 1.424 M 8.713 1.399 Q 8.712 1.313 8.712 1.12 A 311.405 311.405 0 0 1 8.711 0.985 M 8.843 1.373 A 25.789 25.789 0 0 1 8.843 1.354 Q 8.842 1.239 8.841 0.985 M 9.255 1.286 Q 9.255 1.212 9.255 1.08 A 446.417 446.417 0 0 1 9.255 0.985 M 9.402 0.985 A 1533.039 1533.039 0 0 1 9.402 1.068 Q 9.402 1.185 9.402 1.254 M 9.553 1.22 A 40.718 40.718 0 0 1 9.553 1.177 Q 9.553 1.101 9.552 0.985 M 9.711 0.985 A 147.785 147.785 0 0 1 9.711 1.045 Q 9.711 1.103 9.711 1.148 A 44.224 44.224 0 0 1 9.71 1.185 M 9.873 0.985 A 1209.42 1209.42 0 0 1 9.873 1.033 Q 9.873 1.092 9.873 1.135 A 375.491 375.491 0 0 1 9.873 1.149 M 10.043 1.11 Q 10.042 1.073 10.042 1.021 A 67.685 67.685 0 0 1 10.042 0.985 M 10.218 1.07 A 47.523 47.523 0 0 1 10.218 1.047 Q 10.218 1.034 10.218 1.021 A 94.813 94.813 0 0 1 10.218 0.985 M 10.402 0.985 A 21.152 21.152 0 0 1 10.402 1.003 Q 10.401 1.01 10.401 1.016 A 11.979 11.979 0 0 1 10.401 1.029 M 1.717 1.933 A 13.299 13.299 0 0 1 1.717 1.956 M 0.985 4.339 Q 1.586 3.841 1.652 1.765 M 2.708 0.985 2.708 1.723 M 5.36 0.985 Q 5.361 1.708 5.361 1.713 M 6.941 0.985 Q 6.94 1.586 6.94 1.651 M 7.53 0.985 Q 7.53 1.501 7.529 1.594 M 8.976 0.985 Q 8.976 1.237 8.976 1.345 M 9.112 0.985 Q 9.113 1.212 9.113 1.316 M 2.708 4.485 2.708 1.985 M 4.193 4.481 Q 4.194 4.209 4.194 1.965 M 4.813 4.472 Q 4.813 4.175 4.813 1.942 M 5.532 4.45 Q 5.531 4.108 5.53 1.901 M 8.841 3.821 Q 8.842 3.076 8.843 1.547 M 8.976 3.749 8.976 1.537 M 9.112 3.669 Q 9.113 2.926 9.113 1.528 M 9.873 2.995 Q 9.873 2.398 9.873 1.494" id="blue" stroke="blue" style="stroke:blue" vector-effect="non-scaling-stroke"/><path d="M 7.309 3.664 A 12410.638 12410.638 0 0 1 6.254 3.745 C 2.731 4.016 2.708 4.016 2.708 4.016 M 6.016 3.049 C 3.556 3.159 2.925 3.187 2.763 3.194 A 6.828 6.828 0 0 1 2.708 3.196 M 5.447 4.755 m -0.063 0 a 0.063 0.063 0 0 1 0.126 0 a 0.063 0.063 0 0 1 -0.126 0 z M 5.646 7.944 m -0.063 0 a 0.063 0.063 0 0 1 0.126 0 a 0.063 0.063 0 0 1 -0.126 0 z M 5.88 10.492 m -0.063 0 a 0.063 0.063 0 0 1 0.126 0 a 0.063 0.063 0 0 1 -0.126 0 z M 7.139 12.635 m -0.063 0 a 0.063 0.063 0 0 1 0.126 0 a 0.063 0.063 0 0 1 -0.126 0 z M 7.089 10.492 m -0.063 0 a 0.063 0.063 0 0 1 0.126 0 a 0.063 0.063 0 0 1 -0.126 0 z M 8.005 12.629 m -0.063 0 a 0.063 0.063 0 0 1 0.126 0 a 0.063 0.063 0 0 1 -0.126 0 z M 7.947 10.465 m -0.063 0 a 0.063 0.063 0 0 1 0.126 0 a 0.063 0.063 0 0 1 -0.126 0 z M 7.604 7.911 m -0.063 0 a 0.063 0.063 0 0 1 0.126 0 a 0.063 0.063 0 0 1 -0.126 0 z M 9.053 12.521 m -0.063 0 a 0.063 0.063 0 0 1 0.126 0 a 0.063 0.063 0 0 1 -0.126 0 z M 8.318 7.85 m -0.063 0 a 0.063 0.063 0 0 1 0.126 0 a 0.063 0.063 0 0 1 -0.126 0 z M 4.397 4.755 m -0.063 0 a 0.063 0.063 0 0 1 0.126 0 a 0.063 0.063 0 0 1 -0.126 0 z M 4.206 8.11 m -0.063 0 a 0.063 0.063 0 0 1 0.126 0 a 0.063 0.063 0 0 1 -0.126 0 z M 4.065 9.396 m -0.063 0 a 0.063 0.063 0 0 1 0.126 0 a 0.063 0.063 0 0 1 -0.126 0 z M 2.727 12.69 m -0.063 0 a 0.063 0.063 0 0 1 0.126 0 a 0.063 0.063 0 0 1 -0.126 0 z M 2.873 9.391 m -0.063 0 a 0.063 0.063 0 0 1 0.126 0 a 0.063 0.063 0 0 1 -0.126 0 z M 1.762 12.66 m -0.063 0 a 0.063 0.063 0 0 1 0.126 0 a 0.063 0.063 0 0 1 -0.126 0 z M 1.99 9.355 m -0.063 0 a 0.063 0.063 0 0 1 0.126 0 a 0.063 0.063 0 0 1 -0.126 0 z M 2.216 8.049 m -0.063 0 a 0.063 0.063 0 0 1 0.126 0 a 0.063 0.063 0 0 1 -0.126 0 z M 0.457 12.447 m -0.063 0 a 0.063 0.063 0 0 1 0.126 0 a 0.063 0.063 0 0 1 -0.126 0 z M 1.442 7.943 m -0.063 0 a 0.063 0.063 0 0 1 0.126 0 a 0.063 0.063 0 0 1 -0.126 0 z M 0.142 3.049 C 0.097 3.159 0.086 3.187 0.083 3.194 A 70.624 70.624 0 0 1 0.083 3.194 M 0.369 4.016 0.523 3.664 M 2.708 0.369 C 2.708 0.369 2.735 0.369 7.309 0.523 M 2.708 0.082 C 2.708 0.082 2.735 0.082 6.016 0.142" id="green" stroke="green" style="stroke:green" vector-effect="non-scaling-stroke"/><path d="M 4.397 4.755 L 4.397 4.775 L 4.398 4.795 L 4.398 4.815 L 4.398 4.835 L 4.398 4.855 L 4.399 4.875 L 4.399 4.894 L 4.399 4.914 L 4.399 4.933 L 4.399 4.953 L 4.4 4.972 L 4.4 4.991 L 4.4 5.01 L 4.4 5.029 L 4.4 5.048 L 4.4 5.067 L 4.4 5.086 L 4.4 5.105 L 4.401 5.124 L 4.401 5.142 L 4.401 5.161 L 4.401 5.179 L 4.401 5.198 L 4.401 5.216 L 4.401 5.234 L 4.401 5.252 L 4.401 5.271 L 4.401 5.289 L 4.401 5.307 L 4.401 5.325 L 4.4 5.342 L 4.4 5.36 L 4.4 5.378 L 4.4 5.396 L 4.4 5.413 L 4.4 5.431 L 4.4 5.448 L 4.4 5.465 L 4.399 5.483 L 4.399 5.5 L 4.399 5.517 L 4.399 5.534 L 4.399 5.551 L 4.398 5.568 L 4.398 5.585 L 4.398 5.602 L 4.398 5.619 L 4.397 5.636 L 4.397 5.652 L 4.397 5.669 L 4.397 5.685 L 4.396 5.702 L 4.396 5.718 L 4.396 5.735 L 4.395 5.751 L 4.395 5.767 L 4.395 5.783 L 4.394 5.8 L 4.394 5.816 L 4.393 5.832 L 4.393 5.848 L 4.393 5.864 L 4.392 5.879 L 4.392 5.895 L 4.391 5.911 L 4.391 5.927 L 4.39 5.942 L 4.39 5.958 L 4.389 5.973 L 4.389 5.989 L 4.388 6.004 L 4.388 6.019 L 4.387 6.035 L 4.387 6.05 L 4.386 6.065 L 4.386 6.08 L 4.385 6.095 L 4.385 6.11 L 4.384 6.125 L 4.383 6.14 L 4.383 6.155 L 4.382 6.17 L 4.382 6.185 L 4.381 6.2 L 4.38 6.214 L 4.38 6.229 L 4.379 6.243 L 4.378 6.258 L 4.378 6.272 L 4.377 6.287 L 4.376 6.301 L 4.376 6.316 L 4.375 6.33 L 4.374 6.344 L 4.373 6.358 L 4.373 6.373 L 4.372 6.387 L 4.371 6.401 L 4.37 6.415 L 4.37 6.429 L 4.369 6.443 L 4.368 6.457 L 4.367 6.471 L 4.366 6.484 L 4.366 6.498 L 4.365 6.512 L 4.364 6.526 L 4.363 6.539 L 4.362 6.553 L 4.361 6.567 L 4.361 6.58 L 4.36 6.594 L 4.359 6.607 L 4.358 6.621 L 4.357 6.634 L 4.356 6.647 L 4.355 6.661 L 4.354 6.674 L 4.353 6.687 L 4.353 6.7 L 4.352 6.714 L 4.351 6.727 L 4.35 6.74 L 4.349 6.753 L 4.348 6.766 L 4.347 6.779 L 4.346 6.792 L 4.345 6.805 L 4.344 6.818 L 4.343 6.831 L 4.342 6.844 L 4.341 6.857 L 4.34 6.869 L 4.339 6.882 L 4.338 6.895 L 4.337 6.908 L 4.336 6.92 L 4.335 6.933 L 4.333 6.945 L 4.332 6.958 L 4.331 6.971 L 4.33 6.983 L 4.329 6.996 L 4.328 7.008 L 4.327 7.021 L 4.326 7.033 L 4.325 7.046 L 4.324 7.058 L 4.323 7.07 L 4.321 7.083 L 4.32 7.095 L 4.319 7.107 L 4.318 7.119 L 4.317 7.132 L 4.316 7.144 L 4.315 7.156 L 4.313 7.168 L 4.312 7.181 L 4.311 7.193 L 4.31 7.205 L 4.309 7.217 L 4.307 7.229 L 4.306 7.241 L 4.305 7.253 L 4.304 7.265 L 4.303 7.277 L 4.301 7.289 L 4.3 7.301 L 4.299 7.313 L 4.298 7.325 L 4.296 7.337 L 4.295 7.349 L 4.294 7.361 L 4.293 7.373 L 4.291 7.384 L 4.29 7.396 L 4.289 7.408 L 4.288 7.42 L 4.286 7.432 L 4.285 7.444 L 4.284 7.455 L 4.282 7.467 L 4.281 7.479 L 4.28 7.491 L 4.279 7.503 L 4.277 7.514 L 4.276 7.526 L 4.275 7.538 L 4.273 7.549 L 4.272 7.561 L 4.271 7.573 L 4.269 7.585 L 4.268 7.596 L 4.267 7.608 L 4.265 7.62 L 4.264 7.631 L 4.263 7.643 L 4.261 7.655 L 4.26 7.666 L 4.258 7.678 L 4.257 7.69 L 4.256 7.701 L 4.254 7.713 L 4.253 7.724 L 4.252 7.736 L 4.25 7.748 L 4.249 7.759 L 4.247 7.771 L 4.246 7.783 L 4.245 7.794 L 4.243 7.806 L 4.242 7.817 L 4.24 7.829 L 4.239 7.841 L 4.238 7.852 L 4.236 7.864 L 4.235 7.876 L 4.233 7.887 L 4.232 7.899 L 4.231 7.911 L 4.229 7.922 L 4.228 7.934 L 4.226 7.946 L 4.225 7.957 L 4.223 7.969 L 4.222 7.981 L 4.221 7.992 L 4.219 8.004 L 4.218 8.016 L 4.216 8.027 L 4.215 8.039 L 4.213 8.051 L 4.212 8.063 L 4.211 8.074 L 4.209 8.086 L 4.208 8.098 L 4.206 8.11 L 4.205 8.121 L 4.203 8.133 L 4.202 8.145 L 4.2 8.157 L 4.199 8.169 L 4.197 8.181 L 4.196 8.192 L 4.195 8.204 L 4.193 8.216 L 4.192 8.228 L 4.19 8.24 L 4.189 8.252 L 4.187 8.264 L 4.186 8.276 L 4.184 8.288 L 4.183 8.3 L 4.181 8.312 L 4.18 8.324 L 4.178 8.336 L 4.177 8.348 L 4.175 8.36 L 4.174 8.372 L 4.173 8.385 L 4.171 8.397 L 4.17 8.409 L 4.168 8.421 L 4.167 8.433 L 4.165 8.446 L 4.164 8.458 L 4.162 8.47 L 4.161 8.482 L 4.159 8.495 L 4.158 8.507 L 4.156 8.52 L 4.155 8.532 L 4.153 8.544 L 4.152 8.557 L 4.151 8.569 L 4.149 8.582 L 4.148 8.594 L 4.146 8.607 L 4.145 8.62 L 4.143 8.632 L 4.142 8.645 L 4.14 8.658 L 4.139 8.67 L 4.137 8.683 L 4.136 8.696 L 4.135 8.709 L 4.133 8.721 L 4.132 8.734 L 4.13 8.747 L 4.129 8.76 L 4.127 8.773 L 4.126 8.786 L 4.124 8.799 L 4.123 8.812 L 4.122 8.825 L 4.12 8.838 L 4.119 8.852 L 4.117 8.865 L 4.116 8.878 L 4.114 8.891 L 4.113 8.905 L 4.112 8.918 L 4.11 8.931 L 4.109 8.945 L 4.107 8.958 L 4.106 8.972 L 4.105 8.985 L 4.103 8.999 L 4.102 9.012 L 4.1 9.026 L 4.099 9.04 L 4.098 9.054 L 4.096 9.067 L 4.095 9.081 L 4.093 9.095 L 4.092 9.109 L 4.091 9.123 L 4.089 9.137 L 4.088 9.151 L 4.086 9.165 L 4.085 9.179 L 4.084 9.193 L 4.082 9.207 L 4.081 9.222 L 4.08 9.236 L 4.078 9.25 L 4.077 9.265 L 4.076 9.279 L 4.074 9.294 L 4.073 9.308 L 4.072 9.323 L 4.07 9.337 L 4.069 9.352 L 4.068 9.367 L 4.066 9.382 L 4.065 9.396 L 4.064 9.411 L 4.062 9.426 L 4.061 9.441 L 4.06 9.456 L 4.059 9.472 L 4.057 9.487 L 4.056 9.502 L 4.055 9.517 L 4.053 9.533 L 4.052 9.548 L 4.051 9.563 L 4.05 9.579 L 4.048 9.595 L 4.047 9.61 L 4.046 9.626 L 4.045 9.642 L 4.043 9.657 L 4.042 9.673 L 4.041 9.689 L 4.04 9.705 L 4.039 9.721 L 4.037 9.737 L 4.036 9.753 L 4.035 9.769 L 4.034 9.786 L 4.033 9.802 L 4.031 9.818 L 4.03 9.835 L 4.029 9.851 L 4.028 9.868 L 4.027 9.885 L 4.026 9.901 L 4.024 9.918 L 4.023 9.935 L 4.022 9.952 L 4.021 9.969 L 4.02 9.986 L 4.019 10.003 L 4.018 10.02 L 4.017 10.037 L 4.015 10.054 L 4.014 10.072 L 4.013 10.089 L 4.012 10.107 L 4.011 10.124 L 4.01 10.142 L 4.009 10.159 L 4.008 10.177 L 4.007 10.195 L 4.006 10.213 L 4.005 10.231 L 4.004 10.249 L 4.003 10.267 L 4.002 10.285 L 4.001 10.303 L 4 10.322 L 3.999 10.34 L 3.998 10.358 L 3.997 10.377 L 3.996 10.395 L 3.995 10.414 L 3.994 10.433 L 3.993 10.452 L 3.992 10.471 L 3.991 10.49 L 3.99 10.509 L 3.989 10.528 L 3.988 10.547 L 3.987 10.566 L 3.987 10.586 L 3.986 10.605 L 3.985 10.625 L 3.984 10.644 L 3.983 10.664 L 3.982 10.683 L 3.981 10.703 L 3.98 10.723 L 3.98 10.743 L 3.979 10.763 L 3.978 10.783 L 3.977 10.804 L 3.976 10.824 L 3.976 10.844 L 3.975 10.865 L 3.974 10.885 L 3.973 10.906 L 3.972 10.927 L 3.972 10.948 L 3.971 10.968 L 3.97 10.989 L 3.97 11.01 L 3.969 11.032 L 3.968 11.053 L 3.967 11.074 L 3.967 11.096 L 3.966 11.117 L 3.965 11.139 L 3.965 11.16 L 3.964 11.182 L 3.963 11.204 L 3.963 11.226 L 3.962 11.248 L 3.962 11.27 L 3.961 11.292 L 3.96 11.314 L 3.96 11.337 L 3.959 11.359 L 3.959 11.382 L 3.958 11.404 L 3.957 11.427 L 3.957 11.45 L 3.956 11.473 L 3.956 11.496 L 3.955 11.519 L 3.955 11.542 L 3.954 11.566 L 3.954 11.589 L 3.953 11.613 L 3.953 11.636 L 3.952 11.66 L 3.952 11.684 L 3.952 11.707 L 3.951 11.731 L 3.951 11.756 L 3.95 11.78 L 3.95 11.804 L 3.95 11.828 L 3.949 11.853 L 3.949 11.877 L 3.948 11.902 L 3.948 11.927 L 3.948 11.952 L 3.947 11.977 L 3.947 12.002 L 3.947 12.027 L 3.947 12.052 L 3.946 12.078 L 3.946 12.103 L 3.946 12.129 L 3.946 12.154 L 3.945 12.18 L 3.945 12.206 L 3.945 12.232 L 3.945 12.258 L 3.944 12.284 L 3.944 12.311 L 3.944 12.337 L 3.944 12.364 L 3.944 12.39 L 3.944 12.417 L 3.944 12.444 L 3.943 12.471 L 3.943 12.498 L 3.943 12.525 L 3.943 12.552 L 3.943 12.58 L 3.943 12.607 L 3.943 12.635 L 3.943 12.663 L 3.943 12.691 L 2.727 12.69 L 2.727 12.662 L 2.728 12.635 L 2.728 12.607 L 2.728 12.579 L 2.728 12.552 L 2.728 12.524 L 2.728 12.497 L 2.728 12.47 L 2.728 12.443 L 2.728 12.416 L 2.728 12.391 L 2.728 12.364 L 2.729 12.337 L 2.729 12.311 L 2.729 12.284 L 2.729 12.258 L 2.729 12.231 L 2.73 12.205 L 2.73 12.181 L 2.73 12.155 L 2.73 12.128 L 2.73 12.102 L 2.731 12.077 L 2.731 12.051 L 2.731 12.027 L 2.732 12.002 L 2.732 11.976 L 2.732 11.95 L 2.733 11.927 L 2.733 11.902 L 2.733 11.877 L 2.734 11.852 L 2.734 11.829 L 2.734 11.804 L 2.735 11.779 L 2.735 11.754 L 2.736 11.731 L 2.736 11.707 L 2.737 11.682 L 2.737 11.66 L 2.738 11.635 L 2.738 11.611 L 2.739 11.589 L 2.739 11.565 L 2.74 11.541 L 2.74 11.519 L 2.741 11.495 L 2.741 11.473 L 2.742 11.449 L 2.742 11.425 L 2.743 11.404 L 2.744 11.38 L 2.744 11.359 L 2.745 11.335 L 2.746 11.314 L 2.746 11.291 L 2.747 11.268 L 2.748 11.247 L 2.748 11.224 L 2.749 11.203 L 2.75 11.18 L 2.75 11.159 L 2.751 11.137 L 2.752 11.116 L 2.753 11.093 L 2.753 11.073 L 2.754 11.05 L 2.755 11.03 L 2.756 11.01 L 2.757 10.988 L 2.757 10.967 L 2.758 10.945 L 2.759 10.925 L 2.76 10.905 L 2.761 10.883 L 2.762 10.864 L 2.763 10.842 L 2.763 10.822 L 2.764 10.803 L 2.765 10.781 L 2.766 10.762 L 2.767 10.742 L 2.768 10.721 L 2.769 10.702 L 2.77 10.682 L 2.771 10.661 L 2.772 10.642 L 2.773 10.623 L 2.774 10.602 L 2.775 10.583 L 2.776 10.564 L 2.777 10.546 L 2.778 10.525 L 2.779 10.506 L 2.78 10.488 L 2.781 10.469 L 2.783 10.449 L 2.784 10.43 L 2.785 10.412 L 2.786 10.394 L 2.787 10.374 L 2.788 10.355 L 2.789 10.337 L 2.791 10.319 L 2.792 10.301 L 2.793 10.281 L 2.794 10.263 L 2.795 10.246 L 2.797 10.228 L 2.798 10.21 L 2.799 10.192 L 2.8 10.175 L 2.802 10.157 L 2.803 10.138 L 2.804 10.12 L 2.806 10.103 L 2.807 10.086 L 2.808 10.068 L 2.81 10.051 L 2.811 10.034 L 2.812 10.017 L 2.814 10 L 2.815 9.983 L 2.816 9.966 L 2.818 9.949 L 2.819 9.932 L 2.821 9.913 L 2.822 9.897 L 2.824 9.88 L 2.825 9.863 L 2.826 9.847 L 2.828 9.83 L 2.829 9.814 L 2.831 9.797 L 2.832 9.781 L 2.834 9.764 L 2.835 9.75 L 2.837 9.733 L 2.838 9.717 L 2.84 9.701 L 2.841 9.685 L 2.843 9.669 L 2.845 9.653 L 2.846 9.637 L 2.848 9.621 L 2.849 9.605 L 2.851 9.589 L 2.853 9.573 L 2.854 9.558 L 2.856 9.542 L 2.857 9.528 L 2.859 9.512 L 2.861 9.497 L 2.862 9.481 L 2.864 9.466 L 2.866 9.45 L 2.867 9.435 L 2.869 9.419 L 2.871 9.406 L 2.873 9.391 L 2.871 9.406 L 2.87 9.417 L 2.868 9.435 L 2.866 9.451 L 2.864 9.466 L 2.863 9.482 L 2.861 9.497 L 2.859 9.513 L 2.857 9.529 L 2.856 9.54 L 2.854 9.559 L 2.852 9.574 L 2.851 9.59 L 2.849 9.606 L 2.847 9.622 L 2.846 9.638 L 2.844 9.654 L 2.842 9.67 L 2.841 9.686 L 2.839 9.702 L 2.837 9.719 L 2.836 9.735 L 2.834 9.751 L 2.832 9.764 L 2.831 9.782 L 2.829 9.799 L 2.827 9.815 L 2.826 9.832 L 2.824 9.849 L 2.822 9.865 L 2.821 9.882 L 2.819 9.899 L 2.817 9.916 L 2.816 9.936 L 2.814 9.951 L 2.812 9.968 L 2.811 9.985 L 2.809 10.002 L 2.807 10.019 L 2.806 10.037 L 2.804 10.054 L 2.803 10.071 L 2.801 10.088 L 2.799 10.106 L 2.798 10.123 L 2.796 10.141 L 2.794 10.161 L 2.793 10.178 L 2.791 10.196 L 2.79 10.213 L 2.788 10.231 L 2.787 10.249 L 2.785 10.267 L 2.783 10.285 L 2.782 10.306 L 2.78 10.323 L 2.779 10.341 L 2.777 10.359 L 2.776 10.377 L 2.774 10.398 L 2.772 10.416 L 2.771 10.434 L 2.769 10.453 L 2.768 10.474 L 2.766 10.492 L 2.765 10.51 L 2.763 10.529 L 2.761 10.551 L 2.76 10.569 L 2.758 10.587 L 2.757 10.606 L 2.755 10.628 L 2.754 10.646 L 2.752 10.666 L 2.751 10.688 L 2.749 10.706 L 2.748 10.725 L 2.746 10.748 L 2.745 10.766 L 2.743 10.786 L 2.742 10.808 L 2.74 10.827 L 2.739 10.847 L 2.737 10.869 L 2.736 10.888 L 2.734 10.911 L 2.733 10.93 L 2.731 10.95 L 2.73 10.973 L 2.728 10.993 L 2.727 11.015 L 2.726 11.035 L 2.724 11.056 L 2.723 11.079 L 2.721 11.098 L 2.72 11.122 L 2.718 11.142 L 2.717 11.165 L 2.715 11.185 L 2.714 11.209 L 2.713 11.229 L 2.711 11.253 L 2.71 11.273 L 2.708 11.297 L 2.707 11.32 L 2.705 11.341 L 2.704 11.365 L 2.703 11.386 L 2.701 11.41 L 2.7 11.431 L 2.698 11.455 L 2.697 11.479 L 2.696 11.5 L 2.694 11.525 L 2.693 11.546 L 2.692 11.571 L 2.69 11.595 L 2.689 11.617 L 2.687 11.642 L 2.686 11.666 L 2.685 11.688 L 2.683 11.713 L 2.682 11.738 L 2.681 11.76 L 2.679 11.785 L 2.678 11.81 L 2.677 11.835 L 2.675 11.858 L 2.674 11.883 L 2.673 11.908 L 2.671 11.934 L 2.67 11.957 L 2.669 11.983 L 2.668 12.008 L 2.666 12.034 L 2.665 12.057 L 2.664 12.083 L 2.662 12.109 L 2.661 12.135 L 2.66 12.161 L 2.658 12.187 L 2.657 12.211 L 2.656 12.238 L 2.655 12.264 L 2.653 12.291 L 2.652 12.317 L 2.651 12.344 L 2.65 12.371 L 2.648 12.398 L 2.647 12.422 L 2.646 12.45 L 2.645 12.477 L 2.644 12.504 L 2.642 12.531 L 2.641 12.559 L 2.64 12.586 L 2.639 12.614 L 2.637 12.641 L 2.636 12.669 L 2.635 12.697 L 1.762 12.66 L 1.763 12.632 L 1.764 12.604 L 1.765 12.576 L 1.767 12.549 L 1.768 12.521 L 1.769 12.494 L 1.77 12.466 L 1.771 12.439 L 1.773 12.412 L 1.774 12.385 L 1.775 12.362 L 1.776 12.335 L 1.777 12.308 L 1.779 12.281 L 1.78 12.254 L 1.781 12.227 L 1.782 12.201 L 1.784 12.174 L 1.785 12.152 L 1.786 12.125 L 1.787 12.099 L 1.788 12.073 L 1.79 12.046 L 1.791 12.02 L 1.792 11.998 L 1.793 11.972 L 1.795 11.946 L 1.796 11.92 L 1.797 11.899 L 1.798 11.873 L 1.799 11.847 L 1.801 11.822 L 1.802 11.8 L 1.803 11.775 L 1.804 11.749 L 1.806 11.724 L 1.807 11.703 L 1.808 11.678 L 1.81 11.652 L 1.811 11.631 L 1.812 11.606 L 1.813 11.581 L 1.815 11.561 L 1.816 11.536 L 1.817 11.511 L 1.818 11.49 L 1.82 11.466 L 1.821 11.445 L 1.822 11.421 L 1.824 11.396 L 1.825 11.376 L 1.826 11.352 L 1.827 11.331 L 1.829 11.307 L 1.83 11.287 L 1.831 11.263 L 1.833 11.239 L 1.834 11.219 L 1.835 11.195 L 1.837 11.175 L 1.838 11.151 L 1.839 11.132 L 1.841 11.108 L 1.842 11.088 L 1.843 11.065 L 1.845 11.045 L 1.846 11.022 L 1.847 11.002 L 1.849 10.983 L 1.85 10.96 L 1.851 10.94 L 1.853 10.917 L 1.854 10.898 L 1.856 10.879 L 1.857 10.856 L 1.858 10.837 L 1.86 10.814 L 1.861 10.795 L 1.862 10.776 L 1.864 10.754 L 1.865 10.735 L 1.867 10.716 L 1.868 10.694 L 1.87 10.675 L 1.871 10.657 L 1.872 10.634 L 1.874 10.616 L 1.875 10.597 L 1.877 10.575 L 1.878 10.557 L 1.879 10.539 L 1.881 10.52 L 1.882 10.499 L 1.884 10.48 L 1.885 10.462 L 1.887 10.444 L 1.888 10.423 L 1.89 10.405 L 1.891 10.387 L 1.893 10.369 L 1.894 10.347 L 1.896 10.33 L 1.897 10.312 L 1.898 10.294 L 1.9 10.276 L 1.902 10.255 L 1.903 10.238 L 1.905 10.22 L 1.906 10.203 L 1.908 10.185 L 1.909 10.168 L 1.91 10.151 L 1.912 10.133 L 1.914 10.113 L 1.915 10.095 L 1.917 10.078 L 1.918 10.061 L 1.92 10.044 L 1.921 10.027 L 1.923 10.01 L 1.924 9.993 L 1.926 9.976 L 1.927 9.959 L 1.929 9.943 L 1.931 9.926 L 1.932 9.909 L 1.934 9.889 L 1.936 9.872 L 1.937 9.856 L 1.939 9.839 L 1.94 9.823 L 1.942 9.806 L 1.944 9.79 L 1.945 9.773 L 1.947 9.757 L 1.948 9.741 L 1.95 9.728 L 1.951 9.711 L 1.953 9.695 L 1.955 9.679 L 1.956 9.663 L 1.958 9.647 L 1.96 9.631 L 1.961 9.615 L 1.963 9.599 L 1.965 9.583 L 1.966 9.567 L 1.968 9.551 L 1.97 9.535 L 1.971 9.519 L 1.973 9.507 L 1.975 9.491 L 1.976 9.476 L 1.978 9.46 L 1.98 9.444 L 1.982 9.429 L 1.983 9.413 L 1.985 9.398 L 1.986 9.385 L 1.988 9.37 L 1.99 9.355 L 1.992 9.339 L 1.994 9.321 L 1.995 9.311 L 1.997 9.296 L 1.999 9.28 L 2.001 9.265 L 2.003 9.246 L 2.004 9.237 L 2.006 9.222 L 2.008 9.206 L 2.01 9.191 L 2.012 9.173 L 2.014 9.164 L 2.016 9.149 L 2.017 9.134 L 2.02 9.115 L 2.021 9.107 L 2.023 9.091 L 2.025 9.076 L 2.027 9.058 L 2.029 9.05 L 2.031 9.035 L 2.033 9.02 L 2.035 9.002 L 2.037 8.993 L 2.039 8.978 L 2.041 8.96 L 2.043 8.952 L 2.045 8.937 L 2.047 8.922 L 2.05 8.904 L 2.051 8.896 L 2.054 8.882 L 2.056 8.864 L 2.058 8.856 L 2.06 8.841 L 2.062 8.823 L 2.064 8.815 L 2.066 8.801 L 2.069 8.783 L 2.071 8.775 L 2.073 8.761 L 2.075 8.743 L 2.077 8.735 L 2.079 8.721 L 2.082 8.703 L 2.084 8.695 L 2.086 8.681 L 2.089 8.663 L 2.091 8.656 L 2.093 8.641 L 2.096 8.624 L 2.098 8.616 L 2.1 8.602 L 2.103 8.584 L 2.105 8.577 L 2.107 8.563 L 2.11 8.545 L 2.112 8.538 L 2.114 8.521 L 2.116 8.513 L 2.119 8.5 L 2.122 8.482 L 2.124 8.475 L 2.126 8.461 L 2.129 8.443 L 2.131 8.437 L 2.134 8.419 L 2.136 8.412 L 2.139 8.398 L 2.142 8.381 L 2.144 8.374 L 2.146 8.361 L 2.149 8.343 L 2.151 8.336 L 2.154 8.319 L 2.156 8.312 L 2.159 8.299 L 2.162 8.281 L 2.164 8.275 L 2.167 8.261 L 2.17 8.244 L 2.172 8.237 L 2.175 8.22 L 2.177 8.214 L 2.18 8.2 L 2.183 8.183 L 2.185 8.177 L 2.188 8.163 L 2.192 8.146 L 2.194 8.14 L 2.197 8.122 L 2.199 8.116 L 2.202 8.103 L 2.205 8.086 L 2.208 8.08 L 2.211 8.067 L 2.214 8.049 L 2.216 8.049 L 2.212 8.065 L 2.209 8.078 L 2.207 8.084 L 2.203 8.101 L 2.2 8.114 L 2.198 8.12 L 2.194 8.137 L 2.192 8.143 L 2.188 8.16 L 2.185 8.173 L 2.183 8.179 L 2.179 8.196 L 2.176 8.209 L 2.174 8.216 L 2.17 8.233 L 2.168 8.239 L 2.164 8.256 L 2.161 8.269 L 2.159 8.275 L 2.156 8.292 L 2.152 8.306 L 2.15 8.312 L 2.147 8.329 L 2.145 8.336 L 2.141 8.353 L 2.138 8.366 L 2.136 8.373 L 2.132 8.39 L 2.129 8.403 L 2.127 8.41 L 2.123 8.427 L 2.121 8.434 L 2.117 8.451 L 2.114 8.465 L 2.112 8.472 L 2.108 8.489 L 2.105 8.502 L 2.103 8.509 L 2.1 8.527 L 2.098 8.534 L 2.094 8.551 L 2.091 8.565 L 2.089 8.572 L 2.085 8.589 L 2.082 8.603 L 2.08 8.61 L 2.076 8.627 L 2.073 8.641 L 2.071 8.648 L 2.067 8.666 L 2.064 8.68 L 2.062 8.687 L 2.058 8.705 L 2.055 8.719 L 2.053 8.726 L 2.049 8.744 L 2.046 8.758 L 2.044 8.765 L 2.04 8.783 L 2.037 8.797 L 2.035 8.805 L 2.031 8.822 L 2.028 8.837 L 2.026 8.844 L 2.022 8.862 L 2.019 8.876 L 2.017 8.884 L 2.013 8.902 L 2.01 8.916 L 2.007 8.931 L 2.005 8.939 L 2.001 8.957 L 1.998 8.971 L 1.996 8.979 L 1.992 8.997 L 1.989 9.012 L 1.986 9.026 L 1.984 9.034 L 1.98 9.052 L 1.977 9.067 L 1.973 9.082 L 1.971 9.09 L 1.967 9.108 L 1.964 9.123 L 1.961 9.138 L 1.959 9.146 L 1.955 9.164 L 1.952 9.179 L 1.948 9.194 L 1.945 9.209 L 1.943 9.218 L 1.939 9.236 L 1.936 9.251 L 1.933 9.267 L 1.929 9.282 L 1.927 9.291 L 1.923 9.309 L 1.92 9.324 L 1.917 9.339 L 1.913 9.355 L 1.91 9.37 L 1.908 9.379 L 1.904 9.398 L 1.901 9.413 L 1.897 9.429 L 1.894 9.444 L 1.89 9.46 L 1.887 9.475 L 1.884 9.491 L 1.881 9.501 L 1.878 9.519 L 1.874 9.535 L 1.871 9.551 L 1.867 9.566 L 1.864 9.582 L 1.861 9.598 L 1.857 9.614 L 1.854 9.63 L 1.85 9.646 L 1.847 9.662 L 1.843 9.678 L 1.84 9.694 L 1.836 9.71 L 1.834 9.721 L 1.83 9.739 L 1.827 9.756 L 1.823 9.772 L 1.82 9.788 L 1.816 9.805 L 1.813 9.821 L 1.809 9.838 L 1.806 9.854 L 1.802 9.871 L 1.798 9.892 L 1.794 9.907 L 1.791 9.924 L 1.787 9.941 L 1.784 9.957 L 1.78 9.974 L 1.777 9.991 L 1.773 10.008 L 1.769 10.025 L 1.766 10.042 L 1.762 10.059 L 1.759 10.076 L 1.755 10.093 L 1.751 10.114 L 1.747 10.13 L 1.743 10.147 L 1.74 10.165 L 1.736 10.182 L 1.733 10.199 L 1.729 10.217 L 1.725 10.234 L 1.721 10.256 L 1.717 10.272 L 1.713 10.29 L 1.71 10.308 L 1.706 10.325 L 1.701 10.347 L 1.698 10.364 L 1.694 10.382 L 1.69 10.4 L 1.686 10.422 L 1.682 10.439 L 1.678 10.457 L 1.675 10.475 L 1.67 10.497 L 1.666 10.515 L 1.662 10.533 L 1.659 10.551 L 1.654 10.574 L 1.65 10.591 L 1.646 10.609 L 1.642 10.632 L 1.638 10.65 L 1.634 10.668 L 1.629 10.691 L 1.626 10.709 L 1.622 10.727 L 1.617 10.75 L 1.613 10.768 L 1.609 10.787 L 1.604 10.81 L 1.601 10.828 L 1.596 10.852 L 1.592 10.87 L 1.588 10.889 L 1.583 10.912 L 1.579 10.931 L 1.575 10.954 L 1.571 10.973 L 1.567 10.992 L 1.562 11.016 L 1.558 11.034 L 1.553 11.058 L 1.549 11.077 L 1.544 11.101 L 1.54 11.12 L 1.535 11.144 L 1.531 11.163 L 1.526 11.187 L 1.522 11.206 L 1.517 11.23 L 1.512 11.254 L 1.508 11.273 L 1.503 11.298 L 1.499 11.317 L 1.494 11.342 L 1.49 11.361 L 1.485 11.386 L 1.48 11.41 L 1.476 11.43 L 1.471 11.455 L 1.467 11.475 L 1.462 11.499 L 1.457 11.524 L 1.453 11.544 L 1.448 11.569 L 1.442 11.594 L 1.438 11.614 L 1.433 11.639 L 1.428 11.664 L 1.424 11.684 L 1.419 11.71 L 1.413 11.735 L 1.408 11.76 L 1.404 11.781 L 1.399 11.806 L 1.394 11.831 L 1.388 11.857 L 1.384 11.878 L 1.379 11.904 L 1.374 11.929 L 1.368 11.955 L 1.364 11.976 L 1.359 12.002 L 1.353 12.028 L 1.348 12.054 L 1.343 12.08 L 1.338 12.106 L 1.333 12.127 L 1.328 12.154 L 1.322 12.18 L 1.317 12.206 L 1.312 12.233 L 1.306 12.259 L 1.301 12.285 L 1.296 12.312 L 1.291 12.334 L 1.286 12.361 L 1.28 12.388 L 1.275 12.415 L 1.269 12.442 L 1.264 12.469 L 1.258 12.496 L 1.253 12.523 L 1.247 12.55 L 1.242 12.577 L 1.236 12.605 L 0.457 12.447 L 0.463 12.419 L 0.468 12.392 L 0.474 12.365 L 0.479 12.338 L 0.485 12.311 L 0.49 12.284 L 0.496 12.257 L 0.501 12.23 L 0.507 12.203 L 0.512 12.176 L 0.516 12.156 L 0.522 12.129 L 0.527 12.102 L 0.532 12.076 L 0.538 12.049 L 0.543 12.023 L 0.549 11.996 L 0.554 11.97 L 0.558 11.95 L 0.563 11.924 L 0.569 11.897 L 0.574 11.871 L 0.579 11.845 L 0.585 11.819 L 0.589 11.799 L 0.594 11.773 L 0.599 11.747 L 0.605 11.721 L 0.608 11.702 L 0.614 11.676 L 0.619 11.65 L 0.624 11.624 L 0.628 11.605 L 0.633 11.579 L 0.639 11.554 L 0.644 11.528 L 0.648 11.509 L 0.653 11.483 L 0.658 11.458 L 0.662 11.439 L 0.667 11.414 L 0.672 11.388 L 0.676 11.369 L 0.681 11.344 L 0.686 11.319 L 0.69 11.3 L 0.695 11.275 L 0.699 11.256 L 0.704 11.231 L 0.709 11.207 L 0.713 11.188 L 0.718 11.163 L 0.722 11.144 L 0.727 11.12 L 0.731 11.101 L 0.736 11.077 L 0.741 11.052 L 0.745 11.034 L 0.75 11.009 L 0.754 10.991 L 0.759 10.966 L 0.762 10.948 L 0.767 10.924 L 0.771 10.905 L 0.776 10.881 L 0.78 10.863 L 0.785 10.839 L 0.788 10.821 L 0.792 10.803 L 0.797 10.779 L 0.801 10.761 L 0.806 10.737 L 0.809 10.719 L 0.813 10.701 L 0.818 10.677 L 0.822 10.659 L 0.827 10.636 L 0.83 10.618 L 0.834 10.6 L 0.839 10.577 L 0.843 10.559 L 0.846 10.541 L 0.851 10.518 L 0.855 10.5 L 0.858 10.483 L 0.863 10.459 L 0.867 10.442 L 0.87 10.425 L 0.875 10.401 L 0.879 10.384 L 0.883 10.367 L 0.886 10.349 L 0.891 10.326 L 0.895 10.309 L 0.898 10.292 L 0.902 10.275 L 0.907 10.252 L 0.91 10.235 L 0.914 10.217 L 0.917 10.2 L 0.922 10.178 L 0.926 10.161 L 0.929 10.144 L 0.933 10.127 L 0.936 10.11 L 0.941 10.087 L 0.945 10.07 L 0.948 10.054 L 0.952 10.037 L 0.955 10.02 L 0.959 10.003 L 0.962 9.987 L 0.966 9.97 L 0.971 9.948 L 0.974 9.931 L 0.978 9.914 L 0.981 9.898 L 0.985 9.881 L 0.988 9.865 L 0.992 9.848 L 0.995 9.832 L 0.999 9.816 L 1.002 9.799 L 1.006 9.783 L 1.009 9.766 L 1.013 9.75 L 1.017 9.728 L 1.021 9.712 L 1.024 9.696 L 1.028 9.68 L 1.031 9.664 L 1.035 9.647 L 1.038 9.631 L 1.042 9.615 L 1.045 9.599 L 1.049 9.583 L 1.051 9.572 L 1.055 9.556 L 1.058 9.541 L 1.062 9.525 L 1.065 9.509 L 1.068 9.493 L 1.072 9.477 L 1.075 9.461 L 1.079 9.445 L 1.082 9.43 L 1.086 9.414 L 1.089 9.398 L 1.093 9.383 L 1.096 9.367 L 1.098 9.356 L 1.102 9.341 L 1.105 9.325 L 1.109 9.31 L 1.112 9.294 L 1.116 9.279 L 1.119 9.263 L 1.123 9.248 L 1.125 9.238 L 1.128 9.222 L 1.132 9.207 L 1.135 9.191 L 1.139 9.176 L 1.142 9.161 L 1.144 9.151 L 1.148 9.135 L 1.151 9.12 L 1.155 9.105 L 1.158 9.09 L 1.16 9.08 L 1.164 9.065 L 1.167 9.05 L 1.171 9.035 L 1.174 9.02 L 1.176 9.01 L 1.18 8.995 L 1.183 8.98 L 1.187 8.965 L 1.189 8.955 L 1.192 8.94 L 1.196 8.925 L 1.199 8.91 L 1.201 8.9 L 1.205 8.886 L 1.208 8.871 L 1.212 8.856 L 1.214 8.846 L 1.217 8.832 L 1.221 8.817 L 1.223 8.807 L 1.226 8.793 L 1.23 8.778 L 1.233 8.763 L 1.236 8.754 L 1.239 8.739 L 1.242 8.725 L 1.245 8.715 L 1.248 8.701 L 1.252 8.686 L 1.254 8.677 L 1.257 8.662 L 1.261 8.648 L 1.263 8.638 L 1.267 8.624 L 1.27 8.61 L 1.272 8.6 L 1.276 8.586 L 1.279 8.572 L 1.281 8.563 L 1.285 8.548 L 1.288 8.534 L 1.291 8.525 L 1.294 8.511 L 1.297 8.497 L 1.3 8.487 L 1.303 8.473 L 1.307 8.459 L 1.309 8.45 L 1.312 8.436 L 1.316 8.422 L 1.318 8.413 L 1.322 8.399 L 1.324 8.39 L 1.327 8.376 L 1.331 8.362 L 1.333 8.353 L 1.337 8.339 L 1.34 8.326 L 1.343 8.316 L 1.346 8.303 L 1.348 8.294 L 1.352 8.28 L 1.355 8.266 L 1.358 8.257 L 1.361 8.244 L 1.365 8.23 L 1.367 8.221 L 1.371 8.208 L 1.373 8.199 L 1.376 8.185 L 1.38 8.172 L 1.382 8.163 L 1.386 8.15 L 1.389 8.136 L 1.392 8.127 L 1.395 8.114 L 1.398 8.105 L 1.401 8.092 L 1.405 8.079 L 1.407 8.07 L 1.411 8.057 L 1.414 8.044 L 1.417 8.035 L 1.42 8.022 L 1.422 8.013 L 1.426 8 L 1.43 7.987 L 1.432 7.978 L 1.436 7.965 L 1.439 7.952 L 1.442 7.943 L 1.443 7.95 L 1.446 7.936 L 1.451 7.907 L 1.452 7.913 L 1.455 7.9 L 1.46 7.87 L 1.461 7.877 L 1.465 7.863 L 1.47 7.834 L 1.471 7.841 L 1.475 7.827 L 1.48 7.798 L 1.481 7.805 L 1.484 7.792 L 1.49 7.763 L 1.491 7.769 L 1.494 7.756 L 1.499 7.728 L 1.5 7.734 L 1.504 7.721 L 1.508 7.708 L 1.513 7.679 L 1.514 7.686 L 1.518 7.673 L 1.523 7.645 L 1.524 7.651 L 1.528 7.638 L 1.532 7.625 L 1.537 7.597 L 1.539 7.604 L 1.542 7.591 L 1.546 7.578 L 1.552 7.55 L 1.553 7.557 L 1.557 7.544 L 1.561 7.531 L 1.566 7.504 L 1.567 7.51 L 1.571 7.497 L 1.575 7.485 L 1.579 7.472 L 1.585 7.446 L 1.586 7.452 L 1.59 7.439 L 1.594 7.427 L 1.598 7.414 L 1.602 7.402 L 1.608 7.376 L 1.609 7.382 L 1.613 7.369 L 1.617 7.357 L 1.621 7.345 L 1.625 7.333 L 1.63 7.321 L 1.634 7.309 L 1.638 7.297 L 1.642 7.285 L 1.648 7.26 L 1.649 7.265 L 1.654 7.253 L 1.658 7.241 L 1.662 7.229 L 1.666 7.217 L 1.671 7.205 L 1.675 7.194 L 1.679 7.182 L 1.684 7.17 L 1.688 7.159 L 1.692 7.147 L 1.697 7.135 L 1.701 7.124 L 1.705 7.121 L 1.711 7.097 L 1.716 7.086 L 1.72 7.074 L 1.725 7.063 L 1.729 7.051 L 1.734 7.04 L 1.738 7.029 L 1.742 7.026 L 1.748 7.003 L 1.753 6.992 L 1.758 6.98 L 1.762 6.969 L 1.766 6.966 L 1.773 6.943 L 1.778 6.932 L 1.782 6.921 L 1.786 6.918 L 1.793 6.896 L 1.798 6.885 L 1.802 6.882 L 1.809 6.86 L 1.813 6.849 L 1.818 6.845 L 1.825 6.824 L 1.829 6.82 L 1.836 6.799 L 1.841 6.789 L 1.845 6.785 L 1.852 6.764 L 1.856 6.76 L 1.863 6.74 L 1.868 6.736 L 1.875 6.715 L 1.879 6.711 L 1.886 6.697 L 1.893 6.677 L 1.898 6.673 L 1.905 6.653 L 1.909 6.649 L 1.916 6.636 L 1.923 6.616 L 1.928 6.612 L 1.935 6.598 L 1.942 6.585 L 1.949 6.566 L 1.954 6.561 L 1.961 6.548 L 1.968 6.535 L 1.975 6.522 L 1.982 6.509 L 1.989 6.495 L 1.996 6.482 L 2.004 6.464 L 2.009 6.46 L 2.016 6.447 L 2.023 6.438 L 2.032 6.418 L 2.04 6.405 L 2.047 6.392 L 2.054 6.38 L 2.062 6.367 L 2.069 6.354 L 2.077 6.342 L 2.084 6.333 L 2.094 6.314 L 2.101 6.301 L 2.109 6.292 L 2.119 6.274 L 2.126 6.262 L 2.134 6.252 L 2.144 6.234 L 2.152 6.225 L 2.162 6.207 L 2.17 6.198 L 2.18 6.18 L 2.188 6.171 L 2.198 6.156 L 2.208 6.139 L 2.216 6.13 L 2.226 6.115 L 2.237 6.1 L 2.247 6.084 L 2.256 6.074 L 2.266 6.06 L 2.277 6.046 L 2.287 6.031 L 2.298 6.017 L 2.309 6.003 L 2.32 5.989 L 2.33 5.977 L 2.344 5.958 L 2.355 5.945 L 2.366 5.931 L 2.377 5.919 L 2.391 5.901 L 2.402 5.887 L 2.413 5.875 L 2.427 5.858 L 2.439 5.846 L 2.453 5.83 L 2.467 5.813 L 2.479 5.801 L 2.493 5.785 L 2.507 5.77 L 2.522 5.753 L 2.534 5.742 L 2.549 5.726 L 2.563 5.711 L 2.578 5.697 L 2.596 5.679 L 2.611 5.664 L 2.626 5.649 L 2.642 5.635 L 2.66 5.617 L 2.675 5.603 L 2.694 5.586 L 2.709 5.572 L 2.728 5.556 L 2.747 5.539 L 2.763 5.525 L 2.782 5.509 L 2.801 5.493 L 2.821 5.477 L 2.84 5.461 L 2.863 5.443 L 2.883 5.427 L 2.903 5.412 L 2.926 5.394 L 2.947 5.38 L 2.97 5.362 L 2.994 5.345 L 3.018 5.328 L 3.042 5.312 L 3.067 5.295 L 3.091 5.279 L 3.116 5.262 L 3.145 5.244 L 3.17 5.228 L 3.199 5.211 L 3.228 5.193 L 3.257 5.176 L 3.287 5.159 L 3.317 5.142 L 3.351 5.123 L 3.382 5.107 L 3.416 5.088 L 3.451 5.07 L 3.486 5.053 L 3.526 5.034 L 3.562 5.017 L 3.602 4.998 L 3.642 4.98 L 3.684 4.962 L 3.725 4.944 L 3.771 4.925 L 3.818 4.906 L 3.865 4.888 L 3.913 4.87 L 3.965 4.85 L 4.018 4.832 L 4.076 4.812 L 4.135 4.793 L 4.194 4.774 L 4.259 4.754 L 4.397 4.755 Z M 0.001 1.983 A 9.501 9.501 0 0 0 0 2.123 Q 0 3.355 0.334 3.953 A 1.019 1.019 0 0 0 0.985 4.485 A 1.021 1.021 0 0 1 0.339 3.958 Q 0 3.357 0 2.114 A 9.533 9.533 0 0 1 0.001 1.98 A 9.573 9.573 0 0 0 0.001 2.101 Q 0.001 4.231 0.985 4.484 Q 0.001 4.224 0.001 2.085 A 9.627 9.627 0 0 1 0.002 1.971 M 0.007 1.942 Q -0.003 4.175 0.985 4.472 Q 0.005 4.192 0.005 2.017 A 9.848 9.848 0 0 1 0.005 1.951 M 0.004 1.959 A 9.763 9.763 0 0 0 0.003 2.043 Q 0.003 3.331 0.352 3.948 A 1.045 1.045 0 0 0 0.985 4.479 A 1.037 1.037 0 0 1 0.349 3.954 Q 0.002 3.342 0.002 2.066 A 9.683 9.683 0 0 1 0.003 1.965 M 0.001 1.985 A 9.477 9.477 0 0 0 0 2.13 Q 0 4.243 0.985 4.485 A 1.018 1.018 0 0 1 0.332 3.951 Q 0 3.355 0 2.128 A 9.486 9.486 0 0 1 0.001 1.985 Z M 0.985 4.468 A 1.073 1.073 0 0 1 0.372 3.939 Q 0.006 3.295 0.009 1.933 M 0.985 4.457 Q 0.19 4.185 0.046 2.631 A 8.085 8.085 0 0 1 0.015 1.913 M 0.985 4.45 A 1.106 1.106 0 0 1 0.402 3.932 Q 0.133 3.465 0.052 2.624 A 8.12 8.12 0 0 1 0.018 1.901 M 0.985 4.435 A 1.136 1.136 0 0 1 0.423 3.919 Q 0.155 3.455 0.069 2.626 A 8.154 8.154 0 0 1 0.028 1.877 M 0.985 4.426 A 1.15 1.15 0 0 1 0.439 3.919 Q 0.168 3.454 0.077 2.621 A 8.196 8.196 0 0 1 0.033 1.864 M 0.985 4.417 Q 0.252 4.093 0.086 2.607 A 8.268 8.268 0 0 1 0.04 1.851 M 0.985 4.406 A 1.19 1.19 0 0 1 0.464 3.9 Q 0.192 3.431 0.096 2.598 A 8.328 8.328 0 0 1 0.047 1.837 M 0.985 4.382 A 1.239 1.239 0 0 1 0.49 3.878 Q 0.219 3.404 0.119 2.57 A 8.498 8.498 0 0 1 0.064 1.809 M 0.985 4.369 A 1.263 1.263 0 0 1 0.508 3.872 Q 0.236 3.395 0.132 2.558 A 8.586 8.586 0 0 1 0.074 1.795 M 0.985 4.354 Q 0.326 3.968 0.145 2.542 A 8.694 8.694 0 0 1 0.085 1.78 M 0.985 4.339 A 1.33 1.33 0 0 1 0.536 3.842 Q 0.268 3.361 0.16 2.525 A 8.816 8.816 0 0 1 0.097 1.765 M 0.985 4.323 A 1.37 1.37 0 0 1 0.551 3.826 Q 0.282 3.335 0.172 2.485 A 9.019 9.019 0 0 1 0.11 1.75 M 0.985 4.306 Q 0.374 3.874 0.189 2.467 A 9.167 9.167 0 0 1 0.124 1.735 M 0.985 4.287 Q 0.394 3.842 0.207 2.453 A 9.313 9.313 0 0 1 0.14 1.72 M 0.985 4.267 A 1.523 1.523 0 0 1 0.598 3.771 Q 0.337 3.268 0.223 2.417 A 9.546 9.546 0 0 1 0.156 1.705 M 0.985 4.245 A 1.587 1.587 0 0 1 0.614 3.75 Q 0.357 3.241 0.241 2.388 A 9.769 9.769 0 0 1 0.174 1.69 M 0.985 4.222 A 1.661 1.661 0 0 1 0.631 3.727 Q 0.378 3.215 0.262 2.364 A 9.996 9.996 0 0 1 0.193 1.676 M 0.985 4.197 A 1.738 1.738 0 0 1 0.652 3.711 Q 0.403 3.197 0.284 2.348 A 10.225 10.225 0 0 1 0.214 1.661 M 0.985 4.169 A 1.84 1.84 0 0 1 0.665 3.677 Q 0.334 2.966 0.236 1.647 M 0.985 4.139 A 1.958 1.958 0 0 1 0.679 3.641 Q 0.448 3.124 0.331 2.298 A 10.784 10.784 0 0 1 0.259 1.633 M 0.985 4.107 Q 0.539 3.558 0.356 2.273 A 11.117 11.117 0 0 1 0.284 1.619 M 0.985 4.071 A 2.252 2.252 0 0 1 0.707 3.563 Q 0.417 2.851 0.311 1.606 M 6.819 4.354 A 272.116 272.116 0 0 1 6.818 4.117 Q 6.817 3.531 6.817 2.042 A 9316.72 9316.72 0 0 1 6.816 1.78 M 6.941 4.339 A 832.385 832.385 0 0 1 6.941 4.097 Q 6.94 3.503 6.94 2.025 A 25825.669 25825.669 0 0 1 6.94 1.765 M 6.69 1.795 Q 6.69 3.51 6.69 4.137 A 1861.609 1861.609 0 0 1 6.69 4.369 M 6.56 1.809 A 11339.65 11339.65 0 0 1 6.56 2.076 Q 6.559 3.586 6.559 4.156 A 275.975 275.975 0 0 1 6.558 4.382 M 7.061 1.75 Q 7.061 3.421 7.061 4.075 A 3410.994 3410.994 0 0 1 7.061 4.323 M 6.427 1.823 A 9312.525 9312.525 0 0 1 6.426 2.403 Q 6.426 3.671 6.425 4.173 A 229.068 229.068 0 0 1 6.425 4.395 M 7.181 1.735 A 17507.698 17507.698 0 0 1 7.18 1.991 Q 7.18 3.441 7.18 4.052 A 683.184 683.184 0 0 1 7.179 4.306 M 6.289 1.837 A 37801.31 37801.31 0 0 1 6.289 2.423 Q 6.289 3.695 6.289 4.189 A 851.876 851.876 0 0 1 6.289 4.406 M 7.3 4.287 A 459.647 459.647 0 0 1 7.3 4.028 Q 7.299 3.381 7.298 1.841 A 11158.542 11158.542 0 0 1 7.298 1.72 M 6.148 1.851 A 9602.912 9602.912 0 0 1 6.147 2.445 Q 6.147 3.718 6.146 4.205 A 199.339 199.339 0 0 1 6.146 4.417 M 6.001 1.864 A 16427.832 16427.832 0 0 1 6.001 2.461 Q 6.001 4.099 6 4.426 M 7.414 1.705 Q 7.414 3.259 7.414 3.949 A 9474.589 9474.589 0 0 1 7.414 4.267 M 5.852 4.435 Q 5.851 4.12 5.85 2.477 A 8136.386 8136.386 0 0 1 5.85 1.877 M 7.53 4.245 A 1122.022 1122.022 0 0 1 7.53 3.921 Q 7.53 3.388 7.53 2.364 A 17270.3 17270.3 0 0 1 7.529 1.69 M 5.693 1.89 A 9883.85 9883.85 0 0 1 5.693 2.491 Q 5.692 3.778 5.691 4.245 A 161.23 161.23 0 0 1 5.691 4.443 M 0.985 4.031 A 2.433 2.433 0 0 1 0.722 3.52 Q 0.509 2.971 0.397 2.122 A 12.203 12.203 0 0 1 0.339 1.593 M 7.645 4.222 A 2069.533 2069.533 0 0 1 7.644 3.892 Q 7.644 3.353 7.644 2.34 A 29017.434 29017.434 0 0 1 7.644 1.676 M 5.361 1.913 A 20223.516 20223.516 0 0 1 5.361 2.53 Q 5.36 4.176 5.36 4.457 M 5.185 1.923 A 29513.556 29513.556 0 0 1 5.185 2.542 Q 5.185 3.829 5.185 4.277 A 389.178 389.178 0 0 1 5.185 4.463 M 7.758 1.661 A 10193.038 10193.038 0 0 1 7.758 2.317 Q 7.757 3.684 7.757 4.197 M 5.003 1.933 Q 5.002 3.743 5.001 4.285 A 106.4 106.4 0 0 1 5 4.468 M 4.616 4.476 A 94.866 94.866 0 0 1 4.616 4.373 Q 4.615 3.938 4.615 2.196 A 14621.081 14621.081 0 0 1 4.615 1.951 M 7.875 4.169 A 957.386 957.386 0 0 1 7.874 3.828 Q 7.874 3.113 7.873 1.647 M 4.41 4.479 Q 4.409 4.215 4.409 2.204 A 20358.576 20358.576 0 0 1 4.409 1.959 M 3.973 4.483 Q 3.972 4.232 3.971 2.218 A 9350.438 9350.438 0 0 1 3.971 1.971 M 3.738 1.976 Q 3.737 3.943 3.736 4.388 A 48.695 48.695 0 0 1 3.736 4.484 M 7.99 4.139 A 890.753 890.753 0 0 1 7.99 3.763 Q 7.989 3.213 7.989 2.256 A 9151.193 9151.193 0 0 1 7.988 1.633 M 3.496 1.98 Q 3.495 3.948 3.495 4.39 A 64.398 64.398 0 0 1 3.494 4.485 M 0.985 3.986 A 2.639 2.639 0 0 1 0.738 3.473 Q 0.538 2.933 0.428 2.115 A 12.562 12.562 0 0 1 0.368 1.581 M 3.244 1.983 A 9492.054 9492.054 0 0 1 3.244 2.23 Q 3.243 3.979 3.242 4.391 A 47.057 47.057 0 0 1 3.241 4.485 M 2.984 4.485 Q 2.982 4.249 2.981 2.231 A 7385.572 7385.572 0 0 1 2.981 1.985 M 8.104 1.619 A 15951.445 15951.445 0 0 1 8.104 2.226 Q 8.104 3.548 8.103 4.107 M 8.222 1.606 A 48525.147 48525.147 0 0 1 8.222 2.198 Q 8.222 3.499 8.222 4.071 M 0.985 3.937 A 2.881 2.881 0 0 1 0.753 3.423 Q 0.562 2.876 0.455 2.059 A 13.143 13.143 0 0 1 0.4 1.569 M 8.341 1.593 Q 8.341 2.89 8.341 3.613 A 5748.497 5748.497 0 0 1 8.341 4.031 M 8.464 3.986 A 1425.616 1425.616 0 0 1 8.464 3.565 Q 8.463 2.92 8.463 1.841 A 10740.857 10740.857 0 0 1 8.463 1.581 M 0.985 3.883 A 3.195 3.195 0 0 1 0.764 3.354 Q 0.581 2.789 0.476 1.953 A 13.986 13.986 0 0 1 0.433 1.558 M 8.588 3.937 A 1670.848 1670.848 0 0 1 8.587 3.515 Q 8.587 2.832 8.586 1.69 A 11847.28 11847.28 0 0 1 8.586 1.569 M 0.985 3.821 Q 0.659 3.159 0.504 1.881 A 14.746 14.746 0 0 1 0.468 1.547 M 8.713 1.558 Q 8.712 2.747 8.712 3.46 A 1936.844 1936.844 0 0 1 8.711 3.883 M 0.985 3.749 A 3.938 3.938 0 0 1 0.794 3.213 Q 0.631 2.639 0.535 1.814 A 15.541 15.541 0 0 1 0.505 1.537 M 0.985 3.669 A 4.397 4.397 0 0 1 0.812 3.141 Q 0.664 2.581 0.572 1.792 A 16.238 16.238 0 0 1 0.544 1.528 M 0.985 3.575 A 4.924 4.924 0 0 1 0.83 3.059 Q 0.697 2.517 0.611 1.77 A 16.972 16.972 0 0 1 0.584 1.52 M 9.255 1.52 A 22815.429 22815.429 0 0 1 9.255 2.107 Q 9.255 2.717 9.255 3.171 A 6080.892 6080.892 0 0 1 9.255 3.575 M 0.985 3.465 A 5.538 5.538 0 0 1 0.849 2.967 Q 0.72 2.402 0.639 1.624 A 18.322 18.322 0 0 1 0.627 1.512 M 9.402 3.465 A 25967.736 25967.736 0 0 1 9.402 3.074 Q 9.402 2.44 9.402 1.512 M 0.985 3.337 A 6.419 6.419 0 0 1 0.857 2.809 Q 0.801 2.532 0.755 2.206 A 16.17 16.17 0 0 1 0.672 1.505 M 9.553 1.505 A 11144.12 11144.12 0 0 1 9.553 1.741 Q 9.553 2.72 9.552 3.337 M 0.985 3.181 Q 0.872 2.744 0.791 2.135 A 16.958 16.958 0 0 1 0.719 1.499 M 9.711 3.181 A 4042.659 4042.659 0 0 1 9.711 2.832 Q 9.711 2.351 9.711 1.712 A 12255.204 12255.204 0 0 1 9.71 1.499 M 0.985 2.995 Q 0.893 2.586 0.825 2.032 A 17.821 17.821 0 0 1 0.767 1.494 M 0.985 2.764 A 9.1 9.1 0 0 1 0.915 2.341 Q 0.887 2.151 0.863 1.938 A 18.211 18.211 0 0 1 0.819 1.49 M 10.043 1.49 A 7271.709 7271.709 0 0 1 10.042 1.938 Q 10.042 2.151 10.042 2.341 A 3538.213 3538.213 0 0 1 10.042 2.764 M 2.981 0 A 0.016 0.016 0 0 1 2.981 0.002 Q 2.982 0.042 2.984 0.754 A 1155.824 1155.824 0 0 1 2.984 0.985 M 3.241 0.985 A 1481.313 1481.313 0 0 1 3.242 0.754 Q 3.243 0.043 3.244 0.003 A 0.02 0.02 0 0 0 3.244 0.003 M 3.494 0.985 A 1972.167 1972.167 0 0 1 3.495 0.754 Q 3.495 0.043 3.496 0.003 A 0.027 0.027 0 0 0 3.496 0.003 M 3.736 0.985 A 1434.635 1434.635 0 0 1 3.736 0.754 Q 3.737 0.001 3.738 0.001 M 0.985 2.465 A 9.447 9.447 0 0 1 0.938 2.135 Q 0.915 1.952 0.895 1.745 A 18.039 18.039 0 0 1 0.872 1.488 M 3.971 0.001 A 0.02 0.02 0 0 1 3.971 0.004 Q 3.972 0.044 3.973 0.755 A 1439.012 1439.012 0 0 1 3.973 0.985 M 4.193 0.985 A 4024.406 4024.406 0 0 1 4.194 0.755 Q 4.194 0.045 4.194 0.005 A 0.055 0.055 0 0 0 4.194 0.005 M 4.409 0.003 Q 4.409 0.003 4.41 0.755 A 3099.038 3099.038 0 0 1 4.41 0.985 M 4.616 0.985 Q 4.615 0.053 4.615 0.007 A 0.03 0.03 0 0 1 4.615 0.007 M 4.813 0.007 Q 4.813 0.007 4.813 0.756 A 8074.281 8074.281 0 0 1 4.813 0.985 M 10.218 1.488 Q 10.218 1.842 10.218 2.135 A 7256.478 7256.478 0 0 1 10.218 2.465 M 5 0.985 A 1442.059 1442.059 0 0 1 5.001 0.756 Q 5.002 0.051 5.002 0.011 A 0.02 0.02 0 0 0 5.002 0.011 M 5.185 0.985 A 4874.844 4874.844 0 0 1 5.185 0.757 Q 5.185 0.054 5.185 0.014 A 0.07 0.07 0 0 0 5.185 0.014 M 5.36 0.985 A 3301.45 3301.45 0 0 1 5.36 0.759 Q 5.361 0.13 5.361 0.033 A 1.153 1.153 0 0 1 5.361 0.015 M 5.53 0.018 A 0.601 0.601 0 0 1 5.53 0.038 Q 5.531 0.138 5.532 0.761 A 1284.511 1284.511 0 0 1 5.532 0.985 M 5.691 0.985 A 1558.62 1558.62 0 0 1 5.691 0.764 Q 5.692 0.145 5.693 0.043 A 0.924 0.924 0 0 1 5.693 0.023 M 5.85 0.028 A 0.984 0.984 0 0 1 5.85 0.049 Q 5.851 0.155 5.852 0.767 A 1259.869 1259.869 0 0 1 5.852 0.985 M 6 0.985 A 2492.543 2492.543 0 0 1 6 0.769 Q 6.001 0.166 6.001 0.056 A 2.544 2.544 0 0 1 6.001 0.033 M 6.146 0.985 A 1428.202 1428.202 0 0 1 6.146 0.773 Q 6.147 0.177 6.148 0.064 A 1.882 1.882 0 0 1 6.148 0.04 M 6.289 0.985 A 5512.285 5512.285 0 0 1 6.289 0.776 Q 6.289 0.089 6.289 0.047 M 6.425 0.985 Q 6.426 0.222 6.426 0.082 A 2.802 2.802 0 0 1 6.427 0.055 M 6.558 0.985 A 1420.04 1420.04 0 0 1 6.558 0.783 Q 6.559 0.163 6.56 0.074 A 1.709 1.709 0 0 1 6.56 0.064 M 6.69 0.985 A 8489.984 8489.984 0 0 1 6.69 0.787 Q 6.69 0.179 6.69 0.085 A 13.673 13.673 0 0 1 6.69 0.074 M 6.816 0.085 A 2.383 2.383 0 0 1 6.817 0.096 Q 6.817 0.196 6.818 0.792 A 1105.294 1105.294 0 0 1 6.819 0.985 M 6.94 0.097 A 8.503 8.503 0 0 1 6.94 0.109 Q 6.941 0.229 6.941 0.985 M 7.061 0.985 Q 7.061 0.249 7.061 0.123 A 39.323 39.323 0 0 1 7.061 0.11 M 7.179 0.985 A 1885.761 1885.761 0 0 1 7.179 0.806 Q 7.18 0.252 7.18 0.138 A 9.003 9.003 0 0 1 7.181 0.124 M 7.298 0.139 A 12.301 12.301 0 0 1 7.298 0.186 Q 7.299 0.359 7.3 0.985 M 7.414 0.985 Q 7.414 0.387 7.414 0.209 A 260.878 260.878 0 0 1 7.414 0.156 M 7.644 0.193 A 56.65 56.65 0 0 1 7.644 0.242 Q 7.644 0.38 7.644 0.756 A 2774.303 2774.303 0 0 1 7.645 0.985 M 7.757 0.985 A 926.913 926.913 0 0 1 7.757 0.764 Q 7.758 0.324 7.758 0.214 M 7.873 0.236 Q 7.874 0.35 7.874 0.773 A 962.9 962.9 0 0 1 7.875 0.985 M 7.988 0.259 A 18.816 18.816 0 0 1 7.988 0.279 Q 7.989 0.441 7.99 0.985 M 8.103 0.985 A 1217.758 1217.758 0 0 1 8.104 0.792 Q 8.104 0.405 8.104 0.284 M 8.222 0.985 A 3366.935 3366.935 0 0 1 8.222 0.774 Q 8.222 0.51 8.222 0.378 A 188.807 188.807 0 0 1 8.222 0.311 M 8.341 0.985 A 2807.703 2807.703 0 0 1 8.341 0.786 Q 8.341 0.535 8.341 0.406 A 184.038 184.038 0 0 1 8.341 0.339 M 8.463 0.368 A 44.908 44.908 0 0 1 8.463 0.435 Q 8.463 0.561 8.464 0.797 A 591.491 591.491 0 0 1 8.464 0.985 M 8.586 0.4 Q 8.587 0.517 8.587 0.798 A 575.034 575.034 0 0 1 8.588 0.985 M 0.985 2.064 Q 0.957 1.85 0.935 1.577 A 14.522 14.522 0 0 1 0.927 1.486 M 10.402 2.064 A 2392.463 2392.463 0 0 1 10.401 1.831 Q 10.401 1.671 10.401 1.486 M 8.711 0.985 A 553.621 553.621 0 0 1 8.712 0.806 Q 8.712 0.548 8.713 0.433 M 8.841 0.985 Q 8.842 0.646 8.843 0.493 A 45.837 45.837 0 0 1 8.843 0.468 M 9.112 0.985 A 429.486 429.486 0 0 1 9.113 0.844 Q 9.113 0.658 9.113 0.554 A 55.091 55.091 0 0 1 9.113 0.544 M 9.255 0.985 A 793.633 793.633 0 0 1 9.255 0.859 Q 9.255 0.683 9.255 0.584 M 9.402 0.627 A 629.85 629.85 0 0 1 9.402 0.691 Q 9.402 0.768 9.402 0.874 A 2725.554 2725.554 0 0 1 9.402 0.985 M 9.552 0.985 Q 9.553 0.831 9.553 0.729 A 72.387 72.387 0 0 1 9.553 0.672 M 9.71 0.719 A 78.625 78.625 0 0 1 9.711 0.769 Q 9.711 0.828 9.711 0.906 A 262.687 262.687 0 0 1 9.711 0.985 M 9.873 0.767 A 668.181 668.181 0 0 1 9.873 0.786 Q 9.873 0.843 9.873 0.921 A 2150.339 2150.339 0 0 1 9.873 0.985 M 10.042 0.985 Q 10.042 0.89 10.043 0.825 A 41.212 41.212 0 0 1 10.043 0.818 M 10.218 0.985 A 168.562 168.562 0 0 1 10.218 0.938 Q 10.218 0.92 10.218 0.903 A 84.483 84.483 0 0 1 10.218 0.872 M 10.401 0.927 A 21.287 21.287 0 0 1 10.401 0.944 Q 10.402 0.962 10.402 0.985 M 0.985 4.463 Q 0.012 4.145 0.012 1.923 M 0.985 4.443 Q 0.042 4.088 0.023 1.89 M 0.985 4.395 Q 0.111 3.965 0.055 1.823 M 2.708 0.985 2.708 0.001 M 7.53 0.985 Q 7.53 0.297 7.529 0.174 M 8.976 0.985 Q 8.976 0.65 8.976 0.505 M 2.708 4.485 2.708 1.985 M 4.193 4.481 Q 4.194 4.209 4.194 1.965 M 4.813 4.472 Q 4.813 4.175 4.813 1.942 M 5.532 4.45 Q 5.531 4.108 5.53 1.901 M 8.841 3.821 Q 8.842 3.076 8.843 1.547 M 8.976 3.749 8.976 1.537 M 9.112 3.669 Q 9.113 2.926 9.113 1.528 M 9.873 2.995 Q 9.873 2.398 9.873 1.494" id="purple" stroke="purple" style="stroke:purple" vector-effect="non-scaling-stroke"/></g></svg>