<svg width="10.59in" height="12.569in" viewBox="0 0 10.59 12.569" xmlns="http://www.w3.org/2000/svg"><g id="svgGroup" stroke-linecap="round" fill-rule="evenodd" font-size="9pt" stroke="#000" stroke-width="1.5px" fill="none" style="stroke:#000;stroke-width:1.5px;fill:none"><path d="M 2.706 0 A 734.64 734.64 0 0 1 3.662 0 C 7.258 0.005 7.578 0.068 10.318 0.901 A 809.055 809.055 0 0 1 10.59 0.984 A 2098.164 2098.164 0 0 1 10.452 1.016 C 7.587 1.669 7.316 1.718 3.662 1.722 A 979.706 979.706 0 0 1 2.706 1.722 M 3.526 1.979 C 7.313 1.924 7.552 1.497 10.46 1.484 C 7.552 1.497 7.313 1.924 3.526 1.979 Z M 0.984 4.484 L 0.984 1.484 C 1.722 1.484 1.722 1.984 1.722 1.984 M 2.706 1.984 A 57.352 57.352 0 0 0 3.526 1.979 A 57.352 57.352 0 0 1 2.706 1.984 Z M 0 1.984 A 0.154 0.154 0 0 1 0.001 1.968 C 0.011 1.884 0.1 1.514 0.886 1.486 A 2.712 2.712 0 0 1 0.984 1.484 M 10.59 1.484 A 30.547 30.547 0 0 0 10.46 1.484 A 30.547 30.547 0 0 1 10.59 1.484 Z M 2.706 0.984 10.59 0.984 M 2.706 4.484 C 7.356 4.484 9.786 4.484 10.59 1.484" vector-effect="non-scaling-stroke"/><path d="M 5.445 4.783 L 5.445 4.832 L 5.445 4.88 L 5.445 4.927 L 5.445 4.974 L 5.445 5.021 L 5.445 5.067 L 5.445 5.113 L 5.446 5.158 L 5.446 5.202 L 5.447 5.246 L 5.447 5.29 L 5.448 5.333 L 5.449 5.376 L 5.45 5.418 L 5.45 5.46 L 5.451 5.502 L 5.452 5.543 L 5.453 5.584 L 5.454 5.624 L 5.456 5.664 L 5.457 5.704 L 5.458 5.743 L 5.46 5.782 L 5.461 5.82 L 5.463 5.858 L 5.464 5.896 L 5.466 5.933 L 5.468 5.97 L 5.469 6.007 L 5.471 6.043 L 5.473 6.079 L 5.475 6.115 L 5.477 6.151 L 5.479 6.186 L 5.481 6.221 L 5.483 6.256 L 5.485 6.29 L 5.487 6.324 L 5.49 6.358 L 5.492 6.392 L 5.494 6.425 L 5.497 6.458 L 5.499 6.491 L 5.502 6.523 L 5.504 6.556 L 5.507 6.588 L 5.51 6.62 L 5.512 6.652 L 5.515 6.683 L 5.518 6.715 L 5.521 6.746 L 5.523 6.777 L 5.526 6.808 L 5.529 6.839 L 5.532 6.869 L 5.535 6.9 L 5.538 6.93 L 5.541 6.96 L 5.544 6.99 L 5.547 7.02 L 5.55 7.05 L 5.554 7.08 L 5.557 7.11 L 5.56 7.139 L 5.563 7.169 L 5.566 7.198 L 5.57 7.227 L 5.573 7.256 L 5.576 7.286 L 5.58 7.315 L 5.583 7.344 L 5.586 7.373 L 5.59 7.402 L 5.593 7.431 L 5.596 7.459 L 5.6 7.488 L 5.603 7.517 L 5.607 7.546 L 5.61 7.575 L 5.614 7.604 L 5.617 7.633 L 5.621 7.662 L 5.624 7.691 L 5.628 7.72 L 5.631 7.749 L 5.635 7.778 L 5.638 7.807 L 5.642 7.836 L 5.645 7.865 L 5.649 7.895 L 5.652 7.924 L 5.656 7.954 L 5.659 7.983 L 5.663 8.013 L 5.666 8.043 L 5.67 8.073 L 5.673 8.103 L 5.677 8.133 L 5.68 8.163 L 5.684 8.193 L 5.687 8.224 L 5.691 8.255 L 5.694 8.285 L 5.698 8.316 L 5.701 8.347 L 5.705 8.379 L 5.708 8.41 L 5.711 8.442 L 5.715 8.474 L 5.718 8.506 L 5.721 8.538 L 5.725 8.57 L 5.728 8.603 L 5.731 8.636 L 5.735 8.669 L 5.738 8.702 L 5.741 8.736 L 5.744 8.769 L 5.747 8.803 L 5.75 8.838 L 5.753 8.872 L 5.757 8.907 L 5.76 8.942 L 5.763 8.977 L 5.766 9.013 L 5.769 9.049 L 5.771 9.085 L 5.774 9.122 L 5.777 9.158 L 5.78 9.196 L 5.783 9.234 L 5.785 9.272 L 5.788 9.31 L 5.791 9.349 L 5.793 9.388 L 5.796 9.427 L 5.798 9.467 L 5.801 9.507 L 5.803 9.548 L 5.806 9.589 L 5.808 9.63 L 5.81 9.672 L 5.813 9.714 L 5.815 9.757 L 5.817 9.8 L 5.819 9.843 L 5.821 9.887 L 5.823 9.931 L 5.825 9.975 L 5.827 10.02 L 5.829 10.066 L 5.831 10.112 L 5.833 10.158 L 5.834 10.205 L 5.836 10.252 L 5.837 10.3 L 5.839 10.348 L 5.84 10.397 L 5.842 10.446 L 5.843 10.496 L 5.844 10.546 L 5.846 10.597 L 5.847 10.648 L 5.848 10.7 L 5.849 10.752 L 5.85 10.805 L 5.851 10.859 L 5.852 10.912 L 5.853 10.967 L 5.853 11.022 L 5.854 11.078 L 5.855 11.134 L 5.855 11.19 L 5.856 11.248 L 5.856 11.306 L 5.856 11.364 L 5.856 11.423 L 5.857 11.483 L 5.857 11.543 L 5.857 11.604 L 5.857 11.665 L 5.856 11.727 L 5.856 11.79 L 5.856 11.854 L 5.856 11.918 L 5.855 11.982 L 5.855 12.048 L 5.854 12.114 L 5.853 12.18 L 5.853 12.248 L 5.852 12.316 L 5.851 12.384 L 5.85 12.454 L 6.14 12.458 L 6.141 12.389 L 6.142 12.32 L 6.143 12.252 L 6.144 12.185 L 6.144 12.118 L 6.145 12.052 L 6.145 11.987 L 6.146 11.922 L 6.146 11.858 L 6.146 11.795 L 6.147 11.732 L 6.147 11.67 L 6.147 11.608 L 6.147 11.547 L 6.147 11.487 L 6.146 11.428 L 6.146 11.368 L 6.146 11.31 L 6.145 11.252 L 6.145 11.195 L 6.144 11.138 L 6.143 11.082 L 6.143 11.026 L 6.142 10.971 L 6.141 10.917 L 6.14 10.863 L 6.139 10.81 L 6.138 10.757 L 6.137 10.705 L 6.136 10.653 L 6.134 10.602 L 6.133 10.551 L 6.131 10.501 L 6.13 10.451 L 6.128 10.401 L 6.127 10.353 L 6.125 10.305 L 6.123 10.257 L 6.121 10.21 L 6.12 10.163 L 6.118 10.116 L 6.116 10.07 L 6.113 10.025 L 6.111 9.98 L 6.109 9.935 L 6.107 9.891 L 6.105 9.847 L 6.102 9.804 L 6.1 9.761 L 6.097 9.719 L 6.095 9.676 L 6.092 9.634 L 6.09 9.593 L 6.087 9.552 L 6.084 9.512 L 6.082 9.472 L 6.079 9.432 L 6.076 9.392 L 6.073 9.353 L 6.07 9.314 L 6.067 9.276 L 6.064 9.238 L 6.061 9.2 L 6.064 9.238 L 6.067 9.276 L 6.07 9.314 L 6.073 9.354 L 6.076 9.393 L 6.079 9.432 L 6.081 9.472 L 6.084 9.512 L 6.087 9.553 L 6.09 9.594 L 6.093 9.635 L 6.095 9.677 L 6.098 9.72 L 6.101 9.762 L 6.103 9.805 L 6.106 9.849 L 6.108 9.892 L 6.11 9.937 L 6.113 9.981 L 6.115 10.026 L 6.117 10.072 L 6.12 10.118 L 6.122 10.164 L 6.124 10.211 L 6.126 10.259 L 6.128 10.306 L 6.13 10.355 L 6.132 10.403 L 6.134 10.453 L 6.135 10.503 L 6.137 10.553 L 6.139 10.604 L 6.14 10.655 L 6.142 10.707 L 6.143 10.759 L 6.145 10.812 L 6.146 10.865 L 6.147 10.919 L 6.148 10.974 L 6.15 11.029 L 6.151 11.084 L 6.152 11.14 L 6.153 11.197 L 6.154 11.254 L 6.154 11.312 L 6.155 11.371 L 6.156 11.43 L 6.156 11.49 L 6.157 11.55 L 6.157 11.611 L 6.158 11.672 L 6.158 11.734 L 6.158 11.797 L 6.159 11.861 L 6.159 11.925 L 6.159 11.989 L 6.159 12.055 L 6.158 12.121 L 6.158 12.187 L 6.158 12.255 L 6.158 12.323 L 6.157 12.392 L 6.157 12.461 L 6.918 12.467 L 6.919 12.398 L 6.921 12.329 L 6.923 12.261 L 6.924 12.193 L 6.926 12.128 L 6.927 12.061 L 6.928 11.995 L 6.93 11.932 L 6.931 11.867 L 6.932 11.804 L 6.932 11.741 L 6.933 11.679 L 6.934 11.617 L 6.935 11.556 L 6.935 11.496 L 6.936 11.437 L 6.936 11.377 L 6.936 11.318 L 6.936 11.261 L 6.936 11.203 L 6.936 11.147 L 6.936 11.092 L 6.936 11.036 L 6.936 10.981 L 6.935 10.926 L 6.935 10.872 L 6.935 10.819 L 6.934 10.766 L 6.933 10.714 L 6.933 10.662 L 6.932 10.611 L 6.931 10.56 L 6.93 10.51 L 6.929 10.461 L 6.927 10.41 L 6.926 10.362 L 6.925 10.314 L 6.924 10.266 L 6.922 10.219 L 6.921 10.173 L 6.919 10.126 L 6.917 10.08 L 6.915 10.034 L 6.914 9.989 L 6.912 9.944 L 6.91 9.9 L 6.908 9.857 L 6.905 9.813 L 6.903 9.77 L 6.901 9.728 L 6.899 9.686 L 6.896 9.643 L 6.894 9.603 L 6.891 9.561 L 6.888 9.521 L 6.886 9.481 L 6.883 9.44 L 6.88 9.401 L 6.877 9.363 L 6.874 9.323 L 6.871 9.285 L 6.868 9.247 L 6.865 9.209 L 6.862 9.172 L 6.859 9.135 L 6.855 9.098 L 6.852 9.062 L 6.848 9.026 L 6.845 8.99 L 6.841 8.954 L 6.837 8.919 L 6.834 8.884 L 6.83 8.849 L 6.826 8.814 L 6.822 8.781 L 6.818 8.747 L 6.814 8.713 L 6.81 8.679 L 6.806 8.647 L 6.801 8.613 L 6.797 8.58 L 6.793 8.548 L 6.788 8.515 L 6.784 8.482 L 6.779 8.451 L 6.775 8.419 L 6.77 8.387 L 6.765 8.356 L 6.804 8.324 L 6.801 8.293 L 6.798 8.262 L 6.793 8.232 L 6.789 8.2 L 6.784 8.17 L 6.778 8.139 L 6.772 8.108 L 6.766 8.079 L 6.76 8.048 L 6.753 8.019 L 6.746 7.988 L 6.739 7.959 L 6.731 7.929 L 6.723 7.898 L 6.543 7.871 L 6.528 7.841 L 6.513 7.812 L 6.498 7.782 L 6.482 7.753 L 6.465 7.724 L 6.448 7.695 L 6.43 7.665 L 6.412 7.637 L 6.394 7.607 L 6.375 7.578 L 6.356 7.549 L 6.336 7.52 L 6.315 7.491 L 6.295 7.462 L 6.274 7.433 L 6.252 7.404 L 6.23 7.375 L 6.208 7.346 L 6.185 7.316 L 6.162 7.287 L 6.136 7.258 L 6.041 7.229 L 6.076 7.199 L 6.054 7.199 L 6.02 7.229 L 6.115 7.258 L 6.14 7.287 L 6.164 7.316 L 6.187 7.346 L 6.209 7.375 L 6.231 7.404 L 6.252 7.433 L 6.273 7.462 L 6.294 7.49 L 6.314 7.52 L 6.334 7.549 L 6.354 7.578 L 6.373 7.608 L 6.391 7.637 L 6.409 7.665 L 6.427 7.695 L 6.444 7.724 L 6.461 7.752 L 6.477 7.783 L 6.493 7.812 L 6.508 7.84 L 6.523 7.871 L 6.703 7.897 L 6.712 7.928 L 6.72 7.958 L 6.727 7.986 L 6.734 8.017 L 6.741 8.046 L 6.748 8.077 L 6.754 8.106 L 6.76 8.137 L 6.766 8.168 L 6.772 8.198 L 6.777 8.229 L 6.782 8.259 L 6.786 8.291 L 6.789 8.321 L 6.75 8.354 L 6.756 8.384 L 6.761 8.417 L 6.766 8.449 L 6.771 8.48 L 6.776 8.513 L 6.781 8.546 L 6.786 8.577 L 6.791 8.61 L 6.796 8.644 L 6.801 8.676 L 6.806 8.71 L 6.811 8.744 L 6.815 8.778 L 6.82 8.811 L 6.825 8.845 L 6.83 8.88 L 6.834 8.915 L 6.839 8.951 L 6.843 8.986 L 6.848 9.022 L 6.852 9.058 L 6.857 9.094 L 6.861 9.131 L 6.866 9.167 L 6.87 9.204 L 6.874 9.242 L 6.879 9.279 L 6.883 9.317 L 6.887 9.355 L 6.891 9.395 L 6.895 9.434 L 6.899 9.473 L 6.903 9.514 L 6.907 9.553 L 6.911 9.593 L 6.915 9.635 L 6.919 9.675 L 6.923 9.718 L 6.927 9.761 L 6.93 9.802 L 6.934 9.846 L 6.938 9.889 L 6.941 9.932 L 6.945 9.976 L 6.948 10.021 L 6.952 10.067 L 6.955 10.112 L 6.958 10.158 L 6.962 10.204 L 6.965 10.251 L 6.968 10.298 L 6.971 10.346 L 6.974 10.394 L 6.978 10.442 L 6.981 10.493 L 6.984 10.542 L 6.986 10.591 L 6.989 10.643 L 6.992 10.694 L 6.995 10.746 L 6.997 10.797 L 7 10.851 L 7.003 10.903 L 7.005 10.958 L 7.008 11.012 L 7.01 11.068 L 7.013 11.124 L 7.015 11.178 L 7.017 11.235 L 7.019 11.292 L 7.021 11.35 L 7.023 11.408 L 7.026 11.469 L 7.028 11.528 L 7.029 11.588 L 7.031 11.648 L 7.033 11.711 L 7.035 11.772 L 7.037 11.836 L 7.038 11.899 L 7.04 11.963 L 7.041 12.027 L 7.043 12.093 L 7.044 12.16 L 7.045 12.225 L 7.047 12.293 L 7.048 12.361 L 7.049 12.43 L 7.05 12.499 L 7.548 12.482 L 7.547 12.413 L 7.546 12.344 L 7.546 12.276 L 7.545 12.208 L 7.544 12.143 L 7.543 12.076 L 7.542 12.01 L 7.541 11.947 L 7.54 11.882 L 7.538 11.82 L 7.537 11.756 L 7.536 11.695 L 7.534 11.631 L 7.533 11.571 L 7.532 11.512 L 7.53 11.453 L 7.528 11.391 L 7.527 11.333 L 7.525 11.275 L 7.523 11.218 L 7.522 11.161 L 7.52 11.108 L 7.518 11.052 L 7.516 10.996 L 7.514 10.941 L 7.512 10.886 L 7.509 10.835 L 7.507 10.781 L 7.505 10.73 L 7.503 10.677 L 7.5 10.627 L 7.498 10.575 L 7.495 10.526 L 7.493 10.477 L 7.49 10.426 L 7.487 10.378 L 7.485 10.33 L 7.482 10.283 L 7.479 10.236 L 7.476 10.189 L 7.473 10.143 L 7.47 10.097 L 7.467 10.051 L 7.464 10.006 L 7.461 9.961 L 7.457 9.916 L 7.454 9.874 L 7.451 9.83 L 7.447 9.787 L 7.444 9.746 L 7.44 9.703 L 7.437 9.66 L 7.433 9.62 L 7.429 9.578 L 7.426 9.538 L 7.422 9.499 L 7.418 9.458 L 7.414 9.419 L 7.41 9.381 L 7.406 9.34 L 7.402 9.302 L 7.398 9.265 L 7.394 9.227 L 7.39 9.19 L 7.386 9.153 L 7.381 9.117 L 7.377 9.08 L 7.372 9.044 L 7.368 9.008 L 7.363 8.972 L 7.359 8.937 L 7.354 8.901 L 7.349 8.866 L 7.345 8.831 L 7.34 8.797 L 7.335 8.764 L 7.33 8.73 L 7.325 8.696 L 7.32 8.662 L 7.316 8.631 L 7.31 8.597 L 7.305 8.564 L 7.3 8.533 L 7.295 8.5 L 7.29 8.467 L 7.284 8.436 L 7.279 8.404 L 7.273 8.371 L 7.268 8.341 L 7.263 8.309 L 7.257 8.279 L 7.252 8.248 L 7.246 8.218 L 7.241 8.186 L 7.252 8.157 L 7.245 8.125 L 7.238 8.094 L 7.232 8.065 L 7.232 8.034 L 7.23 8.005 L 7.191 7.976 L 7.179 7.947 L 7.168 7.917 L 7.158 7.887 L 7.203 7.857 L 7.196 7.826 L 7.189 7.798 L 7.181 7.768 L 7.158 7.739 L 7.154 7.711 L 7.152 7.681 L 7.145 7.652 L 7.138 7.624 L 7.13 7.594 L 7.07 7.567 L 7.055 7.537 L 7.038 7.508 L 7.02 7.479 L 7.001 7.452 L 6.981 7.423 L 6.96 7.395 L 6.938 7.366 L 6.916 7.337 L 6.893 7.307 L 6.869 7.278 L 6.846 7.25 L 6.822 7.221 L 6.798 7.191 L 6.774 7.162 L 6.748 7.132 L 6.723 7.104 L 6.697 7.073 L 6.671 7.043 L 6.645 7.015 L 6.618 6.985 L 6.59 6.954 L 6.561 6.924 L 6.531 6.894 L 6.499 6.864 L 6.465 6.834 L 6.427 6.803 L 6.386 6.773 L 6.342 6.741 L 6.298 6.711 L 6.253 6.68 L 6.21 6.648 L 6.169 6.617 L 6.128 6.585 L 6.088 6.553 L 6.05 6.521 L 6.012 6.489 L 5.975 6.456 L 5.938 6.423 L 5.902 6.39 L 5.867 6.357 L 5.836 6.357 L 5.872 6.39 L 5.907 6.423 L 5.944 6.456 L 5.981 6.489 L 6.019 6.521 L 6.058 6.553 L 6.097 6.585 L 6.138 6.617 L 6.179 6.648 L 6.222 6.68 L 6.267 6.711 L 6.311 6.741 L 6.355 6.773 L 6.396 6.803 L 6.434 6.835 L 6.468 6.864 L 6.5 6.895 L 6.53 6.925 L 6.559 6.955 L 6.587 6.985 L 6.614 7.015 L 6.64 7.043 L 6.666 7.074 L 6.692 7.104 L 6.717 7.132 L 6.743 7.163 L 6.767 7.191 L 6.792 7.219 L 6.816 7.25 L 6.84 7.278 L 6.864 7.307 L 6.887 7.335 L 6.91 7.366 L 6.932 7.394 L 6.954 7.423 L 6.975 7.452 L 6.996 7.48 L 7.015 7.507 L 7.033 7.536 L 7.05 7.565 L 7.065 7.595 L 7.126 7.622 L 7.134 7.651 L 7.141 7.679 L 7.148 7.709 L 7.15 7.739 L 7.155 7.766 L 7.178 7.796 L 7.186 7.826 L 7.193 7.854 L 7.2 7.884 L 7.155 7.914 L 7.166 7.945 L 7.178 7.975 L 7.189 8.003 L 7.229 8.033 L 7.231 8.061 L 7.232 8.093 L 7.238 8.121 L 7.245 8.153 L 7.252 8.184 L 7.242 8.214 L 7.248 8.246 L 7.253 8.275 L 7.259 8.307 L 7.265 8.337 L 7.271 8.369 L 7.277 8.399 L 7.283 8.432 L 7.289 8.464 L 7.294 8.494 L 7.3 8.528 L 7.306 8.561 L 7.312 8.591 L 7.317 8.625 L 7.323 8.658 L 7.328 8.69 L 7.334 8.724 L 7.34 8.758 L 7.345 8.792 L 7.351 8.824 L 7.356 8.859 L 7.362 8.894 L 7.367 8.929 L 7.373 8.964 L 7.378 9 L 7.383 9.036 L 7.389 9.072 L 7.394 9.108 L 7.399 9.144 L 7.404 9.181 L 7.41 9.218 L 7.415 9.255 L 7.42 9.292 L 7.425 9.33 L 7.43 9.367 L 7.435 9.408 L 7.44 9.446 L 7.445 9.485 L 7.45 9.526 L 7.455 9.565 L 7.46 9.605 L 7.465 9.647 L 7.47 9.687 L 7.475 9.73 L 7.48 9.773 L 7.484 9.813 L 7.489 9.857 L 7.494 9.901 L 7.498 9.943 L 7.503 9.988 L 7.508 10.032 L 7.513 10.078 L 7.517 10.123 L 7.522 10.169 L 7.526 10.216 L 7.531 10.262 L 7.535 10.309 L 7.54 10.356 L 7.544 10.404 L 7.549 10.452 L 7.553 10.503 L 7.558 10.552 L 7.562 10.601 L 7.566 10.653 L 7.571 10.703 L 7.575 10.756 L 7.579 10.807 L 7.584 10.861 L 7.588 10.912 L 7.592 10.967 L 7.596 11.022 L 7.601 11.077 L 7.605 11.133 L 7.609 11.187 L 7.613 11.243 L 7.617 11.301 L 7.621 11.358 L 7.625 11.416 L 7.629 11.478 L 7.633 11.537 L 7.637 11.596 L 7.641 11.656 L 7.645 11.719 L 7.649 11.78 L 7.653 11.844 L 7.657 11.906 L 7.661 11.971 L 7.665 12.034 L 7.669 12.101 L 7.673 12.167 L 7.676 12.232 L 7.68 12.3 L 7.684 12.368 L 7.688 12.437 L 7.691 12.506 L 8.061 12.477 L 8.057 12.408 L 8.054 12.339 L 8.05 12.27 L 8.047 12.202 L 8.043 12.139 L 8.04 12.072 L 8.036 12.005 L 8.033 11.943 L 8.029 11.877 L 8.025 11.816 L 8.022 11.751 L 8.018 11.691 L 8.014 11.627 L 8.011 11.567 L 8.007 11.508 L 8.004 11.449 L 8 11.387 L 7.996 11.329 L 7.992 11.271 L 7.989 11.214 L 7.985 11.157 L 7.981 11.105 L 7.978 11.049 L 7.974 10.993 L 7.97 10.938 L 7.966 10.883 L 7.962 10.832 L 7.958 10.778 L 7.955 10.728 L 7.95 10.674 L 7.947 10.625 L 7.943 10.572 L 7.939 10.524 L 7.935 10.475 L 7.931 10.423 L 7.927 10.376 L 7.923 10.328 L 7.919 10.281 L 7.915 10.234 L 7.911 10.188 L 7.906 10.141 L 7.902 10.095 L 7.898 10.05 L 7.894 10.004 L 7.889 9.959 L 7.885 9.915 L 7.881 9.874 L 7.876 9.829 L 7.872 9.786 L 7.867 9.745 L 7.863 9.702 L 7.858 9.659 L 7.854 9.619 L 7.849 9.577 L 7.844 9.538 L 7.84 9.499 L 7.835 9.457 L 7.83 9.419 L 7.825 9.381 L 7.82 9.34 L 7.815 9.303 L 7.81 9.265 L 7.805 9.228 L 7.8 9.191 L 7.795 9.154 L 7.79 9.118 L 7.785 9.082 L 7.78 9.046 L 7.775 9.01 L 7.77 8.974 L 7.764 8.939 L 7.759 8.903 L 7.754 8.868 L 7.748 8.833 L 7.743 8.799 L 7.738 8.767 L 7.732 8.733 L 7.726 8.699 L 7.721 8.665 L 7.715 8.634 L 7.71 8.6 L 7.704 8.567 L 7.698 8.536 L 7.692 8.503 L 7.686 8.47 L 7.681 8.44 L 7.675 8.407 L 7.669 8.375 L 7.663 8.345 L 7.657 8.313 L 7.651 8.284 L 7.645 8.252 L 7.639 8.223 L 7.633 8.191 L 7.628 8.162 L 7.621 8.131 L 7.615 8.1 L 7.609 8.071 L 7.603 8.04 L 7.597 8.012 L 7.59 7.981 L 7.585 7.953 L 7.578 7.922 L 7.572 7.892 L 7.566 7.864 L 7.559 7.834 L 7.554 7.806 L 7.547 7.776 L 7.541 7.746 L 7.535 7.718 L 7.528 7.689 L 7.522 7.659 L 7.516 7.632 L 7.51 7.602 L 7.503 7.573 L 7.497 7.543 L 7.491 7.514 L 7.485 7.485 L 7.48 7.458 L 7.475 7.429 L 7.47 7.399 L 7.474 7.37 L 7.441 7.343 L 7.425 7.312 L 7.411 7.284 L 7.397 7.255 L 7.383 7.227 L 7.368 7.196 L 7.354 7.168 L 7.341 7.14 L 7.326 7.11 L 7.312 7.082 L 7.297 7.052 L 7.282 7.021 L 7.268 6.994 L 7.253 6.963 L 7.237 6.933 L 7.221 6.904 L 7.205 6.874 L 7.189 6.844 L 7.172 6.814 L 7.154 6.782 L 7.136 6.752 L 7.116 6.721 L 7.096 6.691 L 7.074 6.66 L 7.048 6.629 L 7.02 6.597 L 6.987 6.566 L 6.953 6.535 L 6.918 6.504 L 6.882 6.473 L 6.847 6.441 L 6.812 6.408 L 6.779 6.377 L 6.746 6.344 L 6.712 6.309 L 6.679 6.277 L 6.644 6.242 L 6.609 6.208 L 6.571 6.174 L 6.528 6.139 L 6.395 6.107 L 6.322 6.072 L 6.263 6.036 L 6.208 6 L 6.153 5.965 L 6.097 5.928 L 6.041 5.891 L 5.984 5.854 L 5.928 5.817 L 5.873 5.779 L 5.834 5.779 L 5.889 5.817 L 5.944 5.854 L 6.001 5.891 L 6.057 5.928 L 6.113 5.965 L 6.168 6.001 L 6.223 6.036 L 6.282 6.072 L 6.355 6.107 L 6.488 6.14 L 6.531 6.174 L 6.568 6.209 L 6.604 6.243 L 6.639 6.278 L 6.672 6.31 L 6.705 6.343 L 6.738 6.378 L 6.771 6.411 L 6.804 6.442 L 6.839 6.475 L 6.874 6.508 L 6.909 6.538 L 6.945 6.569 L 6.979 6.6 L 7.011 6.632 L 7.04 6.663 L 7.065 6.694 L 7.088 6.726 L 7.108 6.755 L 7.127 6.787 L 7.145 6.816 L 7.163 6.849 L 7.18 6.878 L 7.196 6.908 L 7.212 6.938 L 7.228 6.968 L 7.243 6.998 L 7.259 7.028 L 7.273 7.056 L 7.288 7.086 L 7.302 7.117 L 7.316 7.144 L 7.331 7.175 L 7.344 7.203 L 7.358 7.231 L 7.372 7.262 L 7.386 7.29 L 7.4 7.318 L 7.415 7.347 L 7.431 7.378 L 7.464 7.405 L 7.459 7.435 L 7.464 7.464 L 7.469 7.493 L 7.474 7.519 L 7.48 7.549 L 7.486 7.579 L 7.493 7.608 L 7.499 7.638 L 7.505 7.667 L 7.511 7.694 L 7.517 7.724 L 7.524 7.754 L 7.53 7.781 L 7.536 7.812 L 7.543 7.842 L 7.549 7.869 L 7.555 7.9 L 7.561 7.927 L 7.568 7.959 L 7.574 7.989 L 7.58 8.017 L 7.587 8.048 L 7.593 8.076 L 7.599 8.108 L 7.605 8.136 L 7.612 8.168 L 7.618 8.199 L 7.624 8.228 L 7.631 8.26 L 7.637 8.289 L 7.643 8.321 L 7.649 8.35 L 7.656 8.383 L 7.661 8.412 L 7.668 8.445 L 7.675 8.478 L 7.68 8.507 L 7.687 8.541 L 7.693 8.574 L 7.699 8.604 L 7.705 8.638 L 7.712 8.672 L 7.717 8.702 L 7.724 8.737 L 7.73 8.771 L 7.736 8.806 L 7.742 8.836 L 7.748 8.872 L 7.755 8.907 L 7.761 8.942 L 7.767 8.977 L 7.773 9.013 L 7.779 9.048 L 7.786 9.084 L 7.792 9.12 L 7.798 9.157 L 7.804 9.193 L 7.81 9.23 L 7.816 9.267 L 7.822 9.304 L 7.828 9.341 L 7.834 9.379 L 7.841 9.42 L 7.847 9.458 L 7.853 9.496 L 7.859 9.538 L 7.865 9.577 L 7.871 9.616 L 7.878 9.658 L 7.884 9.697 L 7.89 9.741 L 7.897 9.784 L 7.902 9.824 L 7.909 9.868 L 7.915 9.912 L 7.921 9.953 L 7.927 9.998 L 7.934 10.043 L 7.94 10.088 L 7.946 10.134 L 7.953 10.179 L 7.959 10.226 L 7.965 10.272 L 7.972 10.319 L 7.978 10.366 L 7.984 10.413 L 7.991 10.461 L 7.998 10.512 L 8.004 10.561 L 8.01 10.609 L 8.017 10.662 L 8.024 10.711 L 8.031 10.765 L 8.037 10.814 L 8.044 10.868 L 8.051 10.919 L 8.058 10.974 L 8.065 11.029 L 8.072 11.084 L 8.079 11.14 L 8.085 11.193 L 8.092 11.249 L 8.099 11.306 L 8.107 11.363 L 8.114 11.421 L 8.121 11.483 L 8.129 11.542 L 8.136 11.601 L 8.143 11.66 L 8.151 11.724 L 8.158 11.784 L 8.166 11.848 L 8.173 11.909 L 8.181 11.975 L 8.188 12.037 L 8.196 12.103 L 8.204 12.17 L 8.212 12.233 L 8.22 12.301 L 8.228 12.369 L 8.236 12.438 L 8.244 12.507 L 8.657 12.447 L 8.649 12.378 L 8.641 12.309 L 8.633 12.241 L 8.626 12.173 L 8.619 12.111 L 8.611 12.043 L 8.603 11.977 L 8.596 11.916 L 8.589 11.85 L 8.582 11.789 L 8.574 11.724 L 8.567 11.664 L 8.56 11.6 L 8.553 11.541 L 8.546 11.482 L 8.54 11.424 L 8.532 11.361 L 8.526 11.304 L 8.519 11.246 L 8.512 11.189 L 8.505 11.133 L 8.5 11.081 L 8.493 11.025 L 8.486 10.97 L 8.48 10.915 L 8.473 10.86 L 8.467 10.81 L 8.46 10.755 L 8.455 10.706 L 8.448 10.652 L 8.442 10.604 L 8.435 10.55 L 8.43 10.502 L 8.424 10.454 L 8.417 10.402 L 8.411 10.355 L 8.405 10.308 L 8.399 10.261 L 8.394 10.214 L 8.388 10.168 L 8.382 10.122 L 8.376 10.076 L 8.37 10.031 L 8.364 9.985 L 8.358 9.94 L 8.352 9.896 L 8.347 9.856 L 8.34 9.811 L 8.334 9.767 L 8.329 9.728 L 8.323 9.684 L 8.317 9.641 L 8.311 9.602 L 8.305 9.559 L 8.299 9.521 L 8.294 9.483 L 8.288 9.44 L 8.282 9.403 L 8.276 9.365 L 8.27 9.324 L 8.264 9.286 L 8.258 9.249 L 8.253 9.213 L 8.247 9.176 L 8.241 9.14 L 8.235 9.103 L 8.229 9.067 L 8.224 9.031 L 8.218 8.996 L 8.212 8.96 L 8.206 8.925 L 8.2 8.89 L 8.194 8.855 L 8.188 8.82 L 8.182 8.785 L 8.176 8.755 L 8.17 8.72 L 8.164 8.686 L 8.158 8.652 L 8.152 8.622 L 8.146 8.589 L 8.14 8.555 L 8.134 8.525 L 8.128 8.492 L 8.122 8.459 L 8.116 8.43 L 8.11 8.397 L 8.103 8.364 L 8.098 8.336 L 8.091 8.303 L 8.085 8.275 L 8.079 8.243 L 8.073 8.214 L 8.066 8.183 L 8.061 8.155 L 8.054 8.123 L 8.047 8.092 L 8.041 8.064 L 8.034 8.033 L 8.028 8.005 L 8.022 7.974 L 8.016 7.947 L 8.009 7.916 L 8.002 7.886 L 7.996 7.859 L 7.989 7.828 L 7.982 7.802 L 7.975 7.772 L 7.968 7.742 L 7.962 7.715 L 7.955 7.685 L 7.948 7.656 L 7.941 7.63 L 7.934 7.6 L 7.927 7.571 L 7.919 7.542 L 7.912 7.513 L 7.905 7.484 L 7.898 7.458 L 7.891 7.429 L 7.884 7.401 L 7.86 7.374 L 7.849 7.346 L 7.836 7.314 L 7.825 7.286 L 7.814 7.259 L 7.803 7.231 L 7.791 7.2 L 7.78 7.172 L 7.769 7.145 L 7.758 7.115 L 7.747 7.087 L 7.735 7.057 L 7.723 7.027 L 7.712 7 L 7.701 6.97 L 7.689 6.94 L 7.677 6.91 L 7.666 6.88 L 7.655 6.851 L 7.644 6.821 L 7.632 6.789 L 7.621 6.76 L 7.609 6.728 L 7.599 6.699 L 7.587 6.667 L 7.575 6.635 L 7.561 6.604 L 7.545 6.573 L 7.527 6.542 L 7.507 6.512 L 7.485 6.481 L 7.461 6.449 L 7.436 6.416 L 7.411 6.386 L 7.385 6.354 L 7.358 6.319 L 7.331 6.287 L 7.304 6.255 L 7.275 6.221 L 7.246 6.187 L 7.216 6.153 L 7.187 6.12 L 7.157 6.086 L 7.125 6.051 L 7.094 6.015 L 7.061 5.98 L 7.029 5.945 L 6.995 5.908 L 6.96 5.871 L 6.925 5.835 L 6.889 5.799 L 6.851 5.761 L 6.811 5.723 L 6.768 5.686 L 6.721 5.648 L 6.668 5.608 L 6.613 5.57 L 6.553 5.529 L 6.493 5.49 L 6.431 5.45 L 6.369 5.408 L 6.308 5.367 L 6.247 5.325 L 6.186 5.283 L 6.125 5.24 L 5.922 5.199 L 5.895 5.154 L 5.818 5.155 L 5.846 5.2 L 6.048 5.241 L 6.11 5.284 L 6.17 5.326 L 6.231 5.368 L 6.292 5.409 L 6.355 5.451 L 6.416 5.491 L 6.476 5.53 L 6.537 5.571 L 6.591 5.609 L 6.644 5.649 L 6.692 5.688 L 6.734 5.725 L 6.775 5.763 L 6.814 5.8 L 6.853 5.838 L 6.888 5.874 L 6.924 5.911 L 6.958 5.947 L 6.993 5.984 L 7.025 6.019 L 7.057 6.054 L 7.089 6.09 L 7.121 6.125 L 7.15 6.159 L 7.18 6.193 L 7.209 6.226 L 7.238 6.26 L 7.267 6.295 L 7.294 6.326 L 7.321 6.358 L 7.349 6.393 L 7.375 6.426 L 7.399 6.455 L 7.424 6.488 L 7.448 6.521 L 7.469 6.551 L 7.49 6.582 L 7.508 6.613 L 7.524 6.644 L 7.537 6.675 L 7.549 6.707 L 7.561 6.738 L 7.571 6.767 L 7.583 6.8 L 7.593 6.829 L 7.605 6.861 L 7.616 6.891 L 7.627 6.92 L 7.638 6.95 L 7.65 6.98 L 7.661 7.01 L 7.673 7.04 L 7.683 7.066 L 7.695 7.097 L 7.707 7.127 L 7.717 7.154 L 7.729 7.185 L 7.74 7.212 L 7.751 7.24 L 7.762 7.271 L 7.773 7.299 L 7.784 7.327 L 7.795 7.355 L 7.807 7.386 L 7.818 7.414 L 7.842 7.441 L 7.849 7.47 L 7.856 7.499 L 7.862 7.524 L 7.869 7.553 L 7.876 7.583 L 7.883 7.612 L 7.89 7.641 L 7.898 7.671 L 7.904 7.697 L 7.911 7.727 L 7.918 7.756 L 7.924 7.783 L 7.931 7.813 L 7.938 7.843 L 7.944 7.87 L 7.95 7.9 L 7.956 7.927 L 7.963 7.958 L 7.97 7.989 L 7.976 8.016 L 7.983 8.047 L 7.988 8.074 L 7.995 8.106 L 8.001 8.133 L 8.007 8.165 L 8.014 8.197 L 8.02 8.225 L 8.026 8.257 L 8.032 8.285 L 8.039 8.317 L 8.044 8.346 L 8.051 8.378 L 8.056 8.407 L 8.063 8.44 L 8.069 8.473 L 8.075 8.502 L 8.081 8.535 L 8.088 8.569 L 8.093 8.598 L 8.1 8.632 L 8.106 8.666 L 8.112 8.695 L 8.118 8.73 L 8.124 8.764 L 8.131 8.798 L 8.136 8.829 L 8.143 8.864 L 8.149 8.898 L 8.155 8.933 L 8.162 8.969 L 8.168 9.004 L 8.174 9.04 L 8.18 9.075 L 8.187 9.111 L 8.193 9.147 L 8.199 9.184 L 8.206 9.22 L 8.212 9.257 L 8.218 9.293 L 8.225 9.33 L 8.231 9.368 L 8.238 9.409 L 8.244 9.447 L 8.251 9.485 L 8.258 9.527 L 8.264 9.565 L 8.271 9.603 L 8.278 9.646 L 8.284 9.685 L 8.291 9.728 L 8.298 9.772 L 8.305 9.811 L 8.312 9.855 L 8.319 9.9 L 8.325 9.94 L 8.333 9.984 L 8.34 10.029 L 8.347 10.075 L 8.354 10.12 L 8.362 10.166 L 8.369 10.212 L 8.376 10.258 L 8.384 10.304 L 8.391 10.351 L 8.399 10.398 L 8.406 10.445 L 8.414 10.497 L 8.422 10.545 L 8.429 10.593 L 8.438 10.646 L 8.446 10.695 L 8.454 10.748 L 8.462 10.798 L 8.471 10.852 L 8.478 10.901 L 8.487 10.956 L 8.496 11.011 L 8.505 11.067 L 8.514 11.123 L 8.522 11.174 L 8.531 11.23 L 8.54 11.287 L 8.549 11.344 L 8.558 11.401 L 8.568 11.464 L 8.578 11.522 L 8.587 11.58 L 8.596 11.639 L 8.607 11.703 L 8.616 11.762 L 8.627 11.827 L 8.636 11.887 L 8.647 11.953 L 8.657 12.014 L 8.667 12.08 L 8.678 12.147 L 8.688 12.209 L 8.699 12.276 L 8.71 12.344 L 8.721 12.412 L 8.732 12.481 L 9.24 12.382 L 9.227 12.314 L 9.214 12.246 L 9.201 12.178 L 9.188 12.111 L 9.176 12.051 L 9.163 11.984 L 9.15 11.918 L 9.138 11.858 L 9.126 11.792 L 9.114 11.734 L 9.101 11.668 L 9.09 11.61 L 9.077 11.545 L 9.066 11.488 L 9.055 11.43 L 9.044 11.373 L 9.031 11.309 L 9.02 11.253 L 9.009 11.196 L 8.998 11.14 L 8.987 11.084 L 8.977 11.035 L 8.966 10.979 L 8.956 10.924 L 8.945 10.869 L 8.934 10.814 L 8.924 10.766 L 8.914 10.712 L 8.904 10.664 L 8.894 10.61 L 8.884 10.562 L 8.874 10.509 L 8.864 10.462 L 8.855 10.415 L 8.844 10.363 L 8.835 10.316 L 8.826 10.27 L 8.817 10.224 L 8.807 10.178 L 8.798 10.132 L 8.789 10.087 L 8.78 10.042 L 8.771 9.997 L 8.762 9.952 L 8.753 9.907 L 8.744 9.863 L 8.736 9.824 L 8.727 9.78 L 8.718 9.736 L 8.71 9.698 L 8.701 9.654 L 8.692 9.611 L 8.684 9.573 L 8.675 9.53 L 8.667 9.493 L 8.66 9.455 L 8.651 9.413 L 8.643 9.376 L 8.635 9.339 L 8.626 9.297 L 8.619 9.261 L 8.611 9.225 L 8.603 9.188 L 8.595 9.152 L 8.588 9.116 L 8.58 9.081 L 8.572 9.045 L 8.565 9.01 L 8.557 8.975 L 8.549 8.939 L 8.542 8.904 L 8.534 8.87 L 8.526 8.835 L 8.518 8.8 L 8.511 8.766 L 8.504 8.737 L 8.496 8.702 L 8.489 8.669 L 8.481 8.635 L 8.474 8.606 L 8.467 8.572 L 8.459 8.539 L 8.452 8.51 L 8.445 8.477 L 8.437 8.444 L 8.43 8.416 L 8.422 8.383 L 8.415 8.351 L 8.408 8.323 L 8.4 8.291 L 8.393 8.263 L 8.385 8.231 L 8.379 8.204 L 8.371 8.172 L 8.364 8.145 L 8.356 8.113 L 8.348 8.082 L 8.341 8.055 L 8.333 8.024 L 8.326 7.998 L 8.318 7.967 L 8.312 7.941 L 8.303 7.91 L 8.295 7.88 L 8.288 7.854 L 8.28 7.824 L 8.273 7.798 L 8.265 7.768 L 8.257 7.738 L 8.249 7.713 L 8.241 7.683 L 8.233 7.654 L 8.225 7.629 L 8.217 7.6 L 8.208 7.571 L 8.2 7.542 L 8.191 7.514 L 8.182 7.485 L 8.175 7.461 L 8.166 7.432 L 8.157 7.404 L 8.148 7.376 L 8.14 7.348 L 8.129 7.317 L 8.12 7.289 L 8.111 7.262 L 8.102 7.235 L 8.091 7.204 L 8.082 7.177 L 8.073 7.15 L 8.062 7.119 L 8.052 7.093 L 8.041 7.063 L 8.03 7.033 L 8.02 7.007 L 8.009 6.977 L 7.998 6.947 L 7.986 6.918 L 7.974 6.889 L 7.963 6.86 L 7.951 6.831 L 7.937 6.799 L 7.925 6.771 L 7.912 6.739 L 7.899 6.711 L 7.885 6.68 L 7.871 6.649 L 7.857 6.618 L 7.842 6.587 L 7.828 6.557 L 7.813 6.527 L 7.798 6.497 L 7.781 6.464 L 7.764 6.431 L 7.748 6.402 L 7.731 6.369 L 7.711 6.334 L 7.693 6.303 L 7.675 6.271 L 7.655 6.237 L 7.634 6.203 L 7.613 6.169 L 7.592 6.136 L 7.57 6.103 L 7.546 6.068 L 7.522 6.033 L 7.498 5.998 L 7.473 5.963 L 7.445 5.926 L 7.417 5.89 L 7.388 5.854 L 7.359 5.819 L 7.328 5.781 L 7.295 5.744 L 7.262 5.707 L 7.229 5.671 L 7.192 5.632 L 7.153 5.592 L 7.114 5.555 L 7.071 5.514 L 7.028 5.476 L 6.982 5.436 L 6.933 5.395 L 6.882 5.354 L 6.827 5.312 L 6.772 5.271 L 6.711 5.229 L 6.65 5.188 L 6.58 5.144 L 6.509 5.101 L 6.427 5.057 L 6.339 5.012 L 6.241 4.966 L 6.14 4.922 L 6.025 4.874 L 5.902 4.828 L 5.767 4.781 L 5.445 4.783 Z M 1.721 1.97 A 8.831 8.831 0 0 1 1.751 2.206 Q 1.876 3.316 1.633 3.893 A 0.935 0.935 0 0 1 0.984 4.482 Q 1.982 4.237 1.752 2.213 A 8.812 8.812 0 0 0 1.722 1.975 A 8.797 8.797 0 0 1 1.753 2.218 Q 1.985 4.242 0.984 4.484 A 0.925 0.925 0 0 0 1.642 3.895 Q 1.88 3.322 1.753 2.222 A 8.785 8.785 0 0 0 1.722 1.982 M 1.721 1.964 A 8.889 8.889 0 0 1 1.749 2.187 Q 1.875 3.317 1.626 3.899 A 0.939 0.939 0 0 1 0.984 4.48 A 0.945 0.945 0 0 0 1.621 3.896 Q 1.896 3.256 1.72 1.957 M 1.719 1.95 A 8.913 8.913 0 0 1 1.747 2.179 Q 1.962 4.202 0.984 4.475 A 0.957 0.957 0 0 0 1.604 3.9 Q 1.864 3.313 1.744 2.167 A 8.949 8.949 0 0 0 1.718 1.941 M 0.984 4.484 A 0.924 0.924 0 0 0 1.645 3.891 Q 1.881 3.319 1.754 2.225 A 8.775 8.775 0 0 0 1.722 1.984 A 8.777 8.777 0 0 1 1.754 2.224 Q 1.881 3.318 1.645 3.89 A 0.925 0.925 0 0 1 0.984 4.484 Z M 1.716 1.932 Q 1.884 3.254 1.594 3.9 A 0.964 0.964 0 0 1 0.984 4.467 M 1.714 1.922 A 9.033 9.033 0 0 1 1.739 2.14 Q 1.854 3.311 1.582 3.905 A 0.97 0.97 0 0 1 0.984 4.462 M 1.712 1.912 A 9.083 9.083 0 0 1 1.735 2.125 Q 1.847 3.304 1.572 3.902 A 0.979 0.979 0 0 1 0.984 4.456 M 1.709 1.9 A 9.38 9.38 0 0 1 1.723 2.027 Q 1.85 3.279 1.56 3.9 A 0.989 0.989 0 0 1 0.984 4.449 M 1.706 1.888 Q 1.857 3.25 1.544 3.905 A 0.997 0.997 0 0 1 0.984 4.442 M 1.702 1.876 A 9.496 9.496 0 0 1 1.714 1.996 Q 1.833 3.269 1.532 3.898 A 1.01 1.01 0 0 1 0.984 4.434 M 1.698 1.863 A 9.564 9.564 0 0 1 1.709 1.979 Q 1.893 4.052 0.984 4.425 M 1.693 1.85 Q 1.826 3.23 1.502 3.893 A 1.035 1.035 0 0 1 0.984 4.415 M 1.688 1.836 Q 1.813 3.223 1.486 3.889 A 1.051 1.051 0 0 1 0.984 4.405 M 1.682 1.822 A 5.656 5.656 0 0 1 1.682 1.825 Q 1.799 3.216 1.469 3.884 A 1.068 1.068 0 0 1 0.984 4.393 M 1.675 1.808 A 9.217 9.217 0 0 1 1.696 2.145 Q 1.744 3.295 1.449 3.884 A 1.084 1.084 0 0 1 0.984 4.381 M 1.668 1.794 A 9.37 9.37 0 0 1 1.685 2.111 Q 1.756 3.94 0.984 4.368 M 1.659 1.779 A 9.537 9.537 0 0 1 1.675 2.077 Q 1.716 3.255 1.418 3.86 A 1.133 1.133 0 0 1 0.984 4.353 M 1.65 1.764 A 9.725 9.725 0 0 1 1.663 2.04 Q 1.701 3.236 1.401 3.85 A 1.161 1.161 0 0 1 0.984 4.338 M 1.641 1.749 A 9.931 9.931 0 0 1 1.651 2.002 Q 1.685 3.216 1.383 3.839 A 1.194 1.194 0 0 1 0.984 4.322 M 1.63 1.734 A 10.325 10.325 0 0 1 1.637 1.906 Q 1.675 3.179 1.365 3.826 A 1.231 1.231 0 0 1 0.984 4.305 M 1.618 1.719 A 10.631 10.631 0 0 1 1.623 1.846 Q 1.659 3.142 1.35 3.805 A 1.277 1.277 0 0 1 0.984 4.286 M 1.606 1.704 A 10.934 10.934 0 0 1 1.609 1.791 Q 1.642 3.12 1.328 3.796 A 1.321 1.321 0 0 1 0.984 4.266 M 1.593 1.689 A 11.213 11.213 0 0 1 1.594 1.76 Q 1.621 3.076 1.319 3.759 A 1.393 1.393 0 0 1 0.984 4.244 M 1.578 1.675 Q 1.605 3.04 1.299 3.746 A 1.454 1.454 0 0 1 0.984 4.221 M 1.563 1.66 A 11.473 11.473 0 0 1 1.564 1.804 Q 1.564 3.035 1.289 3.705 A 1.55 1.55 0 0 1 0.984 4.196 M 1.546 1.646 A 11.986 11.986 0 0 1 1.547 1.714 Q 1.547 3.534 0.984 4.168 M 1.529 1.632 A 10.37 10.37 0 0 1 1.508 2.298 Q 1.454 3.123 1.259 3.64 A 1.76 1.76 0 0 1 0.984 4.138 M 1.51 1.618 A 10.738 10.738 0 0 1 1.486 2.272 Q 1.43 3.085 1.244 3.603 A 1.897 1.897 0 0 1 0.984 4.106 M 6.817 4.353 A 272.116 272.116 0 0 1 6.817 4.116 Q 6.816 3.53 6.815 2.041 A 9316.72 9316.72 0 0 1 6.815 1.779 M 6.94 4.338 A 832.385 832.385 0 0 1 6.94 4.096 Q 6.939 3.501 6.939 2.024 A 25825.669 25825.669 0 0 1 6.939 1.764 M 6.689 1.794 Q 6.689 3.509 6.688 4.136 A 1861.609 1861.609 0 0 1 6.688 4.368 M 6.559 1.808 A 11339.65 11339.65 0 0 1 6.559 2.075 Q 6.558 3.585 6.557 4.155 A 275.975 275.975 0 0 1 6.557 4.381 M 7.06 1.749 Q 7.06 3.42 7.06 4.074 A 3410.994 3410.994 0 0 1 7.06 4.322 M 6.426 1.822 A 9312.525 9312.525 0 0 1 6.425 2.402 Q 6.425 3.67 6.424 4.172 A 229.068 229.068 0 0 1 6.424 4.393 M 7.179 1.734 A 17507.698 17507.698 0 0 1 7.179 1.99 Q 7.179 3.44 7.178 4.051 A 683.184 683.184 0 0 1 7.178 4.305 M 6.288 1.836 A 37801.31 37801.31 0 0 1 6.288 2.422 Q 6.288 3.694 6.288 4.188 A 851.876 851.876 0 0 1 6.288 4.405 M 7.299 4.286 A 459.647 459.647 0 0 1 7.298 4.027 Q 7.298 3.38 7.297 1.84 A 11158.542 11158.542 0 0 1 7.297 1.719 M 6.147 1.85 A 9602.912 9602.912 0 0 1 6.146 2.444 Q 6.146 3.717 6.145 4.204 A 199.339 199.339 0 0 1 6.145 4.415 M 6 1.863 A 16427.832 16427.832 0 0 1 6 2.46 Q 6 4.098 5.999 4.425 M 7.413 1.704 Q 7.413 3.258 7.413 3.948 A 9474.589 9474.589 0 0 1 7.413 4.266 M 5.851 4.434 Q 5.85 4.119 5.849 2.476 A 8136.386 8136.386 0 0 1 5.849 1.876 M 7.529 4.244 A 1122.022 1122.022 0 0 1 7.529 3.92 Q 7.529 3.387 7.528 2.362 A 17270.3 17270.3 0 0 1 7.528 1.689 M 5.692 1.888 A 9883.85 9883.85 0 0 1 5.691 2.49 Q 5.691 3.777 5.69 4.244 A 161.23 161.23 0 0 1 5.69 4.442 M 1.49 1.605 A 11.135 11.135 0 0 1 1.464 2.246 Q 1.372 3.508 0.984 4.07 M 7.643 4.221 A 2069.533 2069.533 0 0 1 7.643 3.891 Q 7.643 3.352 7.643 2.339 A 29017.434 29017.434 0 0 1 7.643 1.675 M 5.36 1.912 A 20223.516 20223.516 0 0 1 5.36 2.529 Q 5.359 4.175 5.359 4.456 M 5.184 1.922 A 29513.556 29513.556 0 0 1 5.184 2.541 Q 5.184 3.827 5.184 4.276 A 389.178 389.178 0 0 1 5.183 4.462 M 7.757 1.66 A 10193.038 10193.038 0 0 1 7.757 2.316 Q 7.756 3.683 7.756 4.196 M 5.001 1.932 Q 5.001 3.742 5 4.284 A 106.4 106.4 0 0 1 4.999 4.467 M 4.615 4.475 A 94.866 94.866 0 0 1 4.615 4.372 Q 4.614 3.937 4.614 2.195 A 14621.081 14621.081 0 0 1 4.614 1.95 M 7.874 4.168 A 957.386 957.386 0 0 1 7.873 3.826 Q 7.873 3.112 7.872 1.646 M 4.409 4.478 Q 4.408 4.214 4.408 2.203 A 20358.576 20358.576 0 0 1 4.408 1.957 M 1.469 1.592 A 11.725 11.725 0 0 1 1.443 2.177 Q 1.386 2.988 1.214 3.519 A 2.238 2.238 0 0 1 0.984 4.03 M 3.972 4.482 Q 3.971 4.231 3.97 2.216 A 9350.438 9350.438 0 0 1 3.97 1.97 M 3.737 1.975 Q 3.736 3.942 3.735 4.387 A 48.695 48.695 0 0 1 3.735 4.483 M 7.989 4.138 A 890.753 890.753 0 0 1 7.989 3.762 Q 7.988 3.212 7.988 2.255 A 9151.193 9151.193 0 0 1 7.987 1.632 M 3.495 1.979 Q 3.494 3.947 3.493 4.388 A 64.398 64.398 0 0 1 3.493 4.484 M 3.243 1.982 A 9492.054 9492.054 0 0 1 3.242 2.229 Q 3.241 3.978 3.241 4.39 A 47.057 47.057 0 0 1 3.24 4.484 M 2.983 4.484 Q 2.981 4.248 2.98 2.23 A 7385.572 7385.572 0 0 1 2.98 1.984 M 8.103 1.618 A 15951.445 15951.445 0 0 1 8.103 2.225 Q 8.103 3.547 8.102 4.106 M 1.447 1.58 A 12.286 12.286 0 0 1 1.42 2.13 Q 1.33 3.388 0.984 3.985 M 8.221 1.605 A 48525.147 48525.147 0 0 1 8.221 2.197 Q 8.221 3.498 8.22 4.07 M 8.34 1.592 Q 8.34 2.889 8.34 3.612 A 5748.497 5748.497 0 0 1 8.34 4.03 M 8.463 3.985 A 1425.616 1425.616 0 0 1 8.463 3.564 Q 8.462 2.919 8.461 1.84 A 10740.857 10740.857 0 0 1 8.461 1.58 M 1.398 1.557 A 13.634 13.634 0 0 1 1.372 2.032 Q 1.283 3.258 0.984 3.882 M 8.587 3.936 A 1670.848 1670.848 0 0 1 8.586 3.514 Q 8.586 2.831 8.585 1.689 A 11847.28 11847.28 0 0 1 8.585 1.568 M 8.712 1.557 Q 8.711 2.746 8.711 3.459 A 1936.844 1936.844 0 0 1 8.71 3.882 M 1.372 1.546 A 14.638 14.638 0 0 1 1.351 1.927 Q 1.295 2.736 1.157 3.293 A 3.394 3.394 0 0 1 0.984 3.82 M 1.344 1.536 A 15.719 15.719 0 0 1 1.328 1.827 Q 1.273 2.648 1.142 3.219 A 3.829 3.829 0 0 1 0.984 3.748 M 1.315 1.527 A 16.653 16.653 0 0 1 1.3 1.791 Q 1.218 2.997 0.984 3.668 M 1.285 1.518 Q 1.234 2.427 1.111 3.058 A 4.959 4.959 0 0 1 0.984 3.574 M 9.254 1.518 A 22815.429 22815.429 0 0 1 9.254 2.106 Q 9.254 2.716 9.254 3.17 A 6080.892 6080.892 0 0 1 9.254 3.574 M 1.253 1.511 Q 1.203 2.361 1.095 2.965 A 5.677 5.677 0 0 1 0.984 3.464 M 9.401 3.464 A 25967.736 25967.736 0 0 1 9.401 3.073 Q 9.401 2.439 9.401 1.511 M 1.219 1.504 A 20.703 20.703 0 0 1 1.216 1.554 Q 1.169 2.307 1.079 2.861 A 6.549 6.549 0 0 1 0.984 3.336 M 9.552 1.504 A 11144.12 11144.12 0 0 1 9.552 1.74 Q 9.552 2.719 9.551 3.336 M 1.184 1.498 A 18.416 18.416 0 0 1 1.135 2.134 Q 1.106 2.431 1.069 2.688 A 7.709 7.709 0 0 1 0.984 3.18 M 9.71 3.18 A 4042.659 4042.659 0 0 1 9.71 2.831 Q 9.71 2.35 9.709 1.711 A 12255.204 12255.204 0 0 1 9.709 1.498 M 1.147 1.493 A 19.766 19.766 0 0 1 1.107 2.034 Q 1.058 2.586 0.984 2.994 M 1.109 1.489 A 20.772 20.772 0 0 1 1.077 1.937 Q 1.06 2.15 1.039 2.34 A 10.287 10.287 0 0 1 0.984 2.763 M 10.041 1.489 A 7271.709 7271.709 0 0 1 10.041 1.937 Q 10.041 2.15 10.041 2.34 A 3538.213 3538.213 0 0 1 10.041 2.763 M 7.299 0.984 A 777.933 777.933 0 0 1 7.299 1.135 Q 7.298 1.681 7.297 1.621 A 1.107 1.107 0 0 0 7.297 1.621 Q 7.298 1.681 7.299 1.135 M 7.643 0.984 A 1998.463 1998.463 0 0 1 7.643 1.124 Q 7.643 1.58 7.643 1.58 A 0.211 0.211 0 0 0 7.643 1.58 Q 7.643 1.58 7.643 1.124 M 1.069 1.486 A 20.605 20.605 0 0 1 1.047 1.826 Q 1.034 1.988 1.02 2.134 A 11.083 11.083 0 0 1 0.984 2.464 M 10.217 1.486 Q 10.217 1.841 10.217 2.134 A 7256.478 7256.478 0 0 1 10.217 2.464 M 2.983 0.984 Q 2.981 2.037 2.98 1.728 A 32.694 32.694 0 0 1 2.98 1.722 M 3.243 1.722 A 40.886 40.886 0 0 1 3.243 1.728 Q 3.241 2.036 3.24 0.984 M 3.495 1.722 A 54.53 54.53 0 0 1 3.495 1.728 Q 3.494 2.004 3.493 1.175 A 1693.731 1693.731 0 0 1 3.493 0.984 M 3.737 1.722 A 38.92 38.92 0 0 1 3.737 1.727 Q 3.736 2.03 3.735 0.984 M 3.972 0.984 A 1232.314 1232.314 0 0 1 3.972 1.174 Q 3.971 2.001 3.97 1.724 A 38.333 38.333 0 0 0 3.97 1.724 M 4.193 1.721 A 109.066 109.066 0 0 1 4.193 1.723 Q 4.193 1.996 4.192 1.173 A 3438.056 3438.056 0 0 1 4.192 0.984 M 4.409 0.984 A 2642.795 2642.795 0 0 1 4.409 1.173 Q 4.408 1.992 4.408 1.721 A 80.579 80.579 0 0 0 4.408 1.721 M 4.615 0.984 A 1871.82 1871.82 0 0 1 4.615 1.172 Q 4.614 1.93 4.614 1.751 A 33.703 33.703 0 0 1 4.614 1.72 M 5.184 1.714 A 68.609 68.609 0 0 1 5.184 1.739 Q 5.184 1.917 5.184 1.169 A 4076.306 4076.306 0 0 1 5.183 0.984 M 5.36 1.712 A 42.94 42.94 0 0 1 5.36 1.735 Q 5.359 1.907 5.359 1.168 A 2733.05 2733.05 0 0 1 5.359 0.984 M 5.531 0.984 A 1057.451 1057.451 0 0 1 5.531 1.166 Q 5.53 1.938 5.529 1.709 M 5.692 1.706 A 16.956 16.956 0 0 1 5.692 1.726 Q 5.691 1.904 5.69 0.984 M 5.851 0.984 A 1018.759 1018.759 0 0 1 5.851 1.163 Q 5.85 1.873 5.849 1.721 A 12.328 12.328 0 0 1 5.849 1.702 M 6 1.698 Q 6 1.896 5.999 1.161 A 1992.73 1992.73 0 0 1 5.999 0.984 M 6.147 1.693 A 10.95 10.95 0 0 1 6.147 1.709 Q 6.146 1.845 6.145 1.159 A 1131.518 1131.518 0 0 1 6.145 0.984 M 6.288 1.688 Q 6.288 1.863 6.288 1.157 A 4314.99 4314.99 0 0 1 6.288 0.984 M 6.426 1.682 Q 6.425 1.845 6.424 1.155 A 1022.993 1022.993 0 0 1 6.424 0.984 M 6.559 1.675 A 8.33 8.33 0 0 1 6.559 1.68 Q 6.558 1.812 6.557 1.153 A 1085.566 1085.566 0 0 1 6.557 0.984 M 6.817 0.984 A 822.885 822.885 0 0 1 6.817 1.147 Q 6.816 1.744 6.815 1.672 A 2.574 2.574 0 0 1 6.815 1.66 M 6.94 0.984 A 2193.492 2193.492 0 0 1 6.94 1.144 Q 6.939 1.732 6.939 1.659 A 6.228 6.228 0 0 1 6.939 1.65 M 7.06 1.641 A 17.085 17.085 0 0 1 7.06 1.648 Q 7.06 1.713 7.06 1.141 A 7835.873 7835.873 0 0 1 7.06 0.984 M 7.179 1.63 A 2.093 2.093 0 0 1 7.179 1.636 Q 7.179 1.692 7.178 1.138 A 1344.749 1344.749 0 0 1 7.178 0.984 M 7.413 1.606 A 5.799 5.799 0 0 1 7.413 1.61 Q 7.413 1.638 7.413 1.131 A 12667.746 12667.746 0 0 1 7.413 0.984 M 7.528 1.595 A 0.309 0.309 0 0 1 7.528 1.593 Q 7.529 1.596 7.529 0.984 M 1.028 1.485 A 18.005 18.005 0 0 1 1.022 1.576 Q 1.014 1.71 1.005 1.83 A 10.187 10.187 0 0 1 0.984 2.063 M 7.757 1.564 Q 7.756 1.564 7.756 1.12 A 653.293 653.293 0 0 1 7.756 0.984 M 10.401 2.063 A 2392.463 2392.463 0 0 1 10.4 1.83 Q 10.4 1.67 10.4 1.485 M 7.874 0.984 A 662.708 662.708 0 0 1 7.873 1.116 Q 7.873 1.547 7.872 1.547 M 7.989 0.984 A 502.031 502.031 0 0 1 7.989 1.111 Q 7.988 1.433 7.988 1.507 A 0.944 0.944 0 0 1 7.987 1.528 M 8.103 1.51 Q 8.103 1.498 8.102 1.104 A 805.331 805.331 0 0 1 8.102 0.984 M 8.221 1.49 A 3.655 3.655 0 0 1 8.221 1.476 Q 8.221 1.414 8.221 1.097 A 2264.162 2264.162 0 0 1 8.22 0.984 M 8.34 1.469 A 2.56 2.56 0 0 1 8.34 1.464 Q 8.34 1.408 8.34 0.984 M 8.463 0.984 A 380.531 380.531 0 0 1 8.463 1.083 Q 8.462 1.386 8.461 1.441 A 1.056 1.056 0 0 1 8.461 1.447 M 8.587 0.984 A 337.229 337.229 0 0 1 8.586 1.117 Q 8.586 1.332 8.585 1.4 A 3.51 3.51 0 0 1 8.585 1.423 M 8.712 1.398 A 4.955 4.955 0 0 1 8.711 1.374 Q 8.711 1.306 8.711 1.107 A 321.035 321.035 0 0 1 8.71 0.984 M 8.842 1.372 A 5.894 5.894 0 0 1 8.841 1.348 Q 8.841 1.279 8.84 1.096 A 263.783 263.783 0 0 1 8.84 0.984 M 8.975 1.343 A 647.569 647.569 0 0 1 8.975 1.304 Q 8.975 1.212 8.975 0.984 M 9.112 1.315 A 7.146 7.146 0 0 1 9.112 1.311 Q 9.112 1.25 9.111 1.075 A 236.006 236.006 0 0 1 9.111 0.984 M 9.254 1.285 A 29.173 29.173 0 0 1 9.254 1.253 Q 9.254 1.192 9.254 1.076 A 411.727 411.727 0 0 1 9.254 0.984 M 9.401 0.984 Q 9.401 1.146 9.401 1.223 A 130.462 130.462 0 0 1 9.401 1.253 M 9.552 1.219 A 14.113 14.113 0 0 1 9.552 1.208 Q 9.552 1.137 9.551 0.984 M 9.71 0.984 A 127.53 127.53 0 0 1 9.71 1.048 Q 9.71 1.132 9.709 1.179 A 16.755 16.755 0 0 0 9.709 1.179 M 9.872 0.984 A 1039.852 1039.852 0 0 1 9.872 1.035 Q 9.872 1.083 9.872 1.118 A 239.247 239.247 0 0 1 9.872 1.147 M 10.041 1.109 A 17.127 17.127 0 0 1 10.041 1.086 Q 10.041 1.045 10.041 0.984 M 10.217 1.069 Q 10.217 1.044 10.217 1.009 A 88.049 88.049 0 0 1 10.217 0.984 M 10.401 0.984 Q 10.4 1.002 10.4 1.016 A 10.015 10.015 0 0 1 10.4 1.028 M 0.984 3.936 Q 1.37 3.204 1.423 1.568 M 2.706 0.984 2.706 1.722 M 4.812 0.984 Q 4.812 2.008 4.811 1.718 M 4.999 0.984 Q 5 1.998 5.001 1.716 M 6.688 0.984 Q 6.689 1.821 6.689 1.668 M 2.706 4.484 2.706 1.984 M 4.192 4.48 Q 4.193 4.208 4.193 1.964 M 4.812 4.471 Q 4.812 4.174 4.811 1.941 M 5.531 4.449 Q 5.53 4.107 5.529 1.9 M 8.84 3.82 Q 8.841 3.075 8.842 1.546 M 8.975 3.748 8.975 1.536 M 9.111 3.668 Q 9.112 2.925 9.112 1.527 M 9.872 2.994 Q 9.872 2.397 9.872 1.493" id="blue" stroke="blue" style="stroke:blue" vector-effect="non-scaling-stroke"/><path d="M 10.129 1.808 L 9.914 2.288 L 9.044 3.293 L 8.017 3.839 L 6.817 4.116 L 2.706 4.234 M 9.476 1.867 L 9.183 2.312 L 8.875 2.793 L 8.016 3.431 L 6.817 3.732 L 2.706 3.883 M 10.129 1.068 L 9.914 1.073 L 9.044 1.109 L 8.017 1.166 L 6.817 1.256 L 2.706 1.429 M 9.476 1.211 L 9.183 1.238 L 8.875 1.248 L 8.016 1.321 L 6.817 1.475 L 2.706 1.649 M 8.875 1.888 L 8.016 2.857 L 7.209 3.275 L 6.816 3.356 L 2.706 3.527 M 8.875 1.346 L 8.016 1.443 L 7.209 1.539 L 6.816 1.588 L 2.706 1.749 M 8.016 1.967 L 7.757 2.34 L 6.846 2.838 L 6.816 2.843 L 2.706 3.032 M 8.016 1.518 L 7.757 1.549 L 6.846 1.658 L 6.816 1.661 L 2.706 1.797 M 1.068 1.808 L 1.073 2.288 L 1.109 3.293 L 1.166 3.839 L 1.256 4.116 L 1.429 4.234 M 1.211 1.867 L 1.238 2.312 L 1.248 2.793 L 1.321 3.431 L 1.475 3.732 L 1.649 3.883 M 1.346 1.888 L 1.443 2.857 L 1.538 3.275 L 1.588 3.356 L 1.749 3.527 M 1.518 1.967 L 1.549 2.34 L 1.658 2.838 L 1.661 2.843 L 1.797 3.032 M 1.759 2.272 1.722 2.143 M 2.706 1.759 6 1.722 M 2.706 2.272 6 2.143" id="fuchsia" stroke="fuchsia" style="stroke:fuchsia" vector-effect="non-scaling-stroke"/><path d="M 10.129 1.808 L 10.085 1.936 L 10.041 1.964 L 9.999 2.166 L 9.956 2.228 L 9.914 2.288 L 9.872 2.349 L 9.831 2.41 L 9.79 2.472 L 9.749 2.534 L 9.71 2.594 L 9.669 2.654 L 9.63 2.709 L 9.59 2.761 L 9.551 2.809 L 9.514 2.851 L 9.477 2.892 L 9.439 2.931 L 9.401 2.969 L 9.364 3.005 L 9.328 3.04 L 9.291 3.074 L 9.254 3.108 L 9.218 3.14 L 9.183 3.172 L 9.147 3.204 L 9.111 3.235 L 9.078 3.264 L 9.044 3.293 L 9.009 3.322 L 8.975 3.351 L 8.94 3.379 L 8.908 3.406 L 8.876 3.432 L 8.84 3.459 L 8.807 3.484 L 8.777 3.508 L 8.744 3.532 L 8.711 3.556 L 8.68 3.577 L 8.649 3.596 L 8.618 3.614 L 8.586 3.63 L 8.555 3.643 L 8.523 3.655 L 8.492 3.666 L 8.463 3.676 L 8.431 3.687 L 8.402 3.698 L 8.369 3.709 L 8.34 3.72 L 8.31 3.731 L 8.28 3.742 L 8.251 3.753 L 8.221 3.764 L 8.19 3.775 L 8.163 3.785 L 8.133 3.796 L 8.102 3.807 L 8.075 3.818 L 8.044 3.829 L 8.017 3.839 L 7.989 3.849 L 7.958 3.86 L 7.93 3.87 L 7.901 3.88 L 7.873 3.891 L 7.842 3.902 L 7.813 3.912 L 7.785 3.933 L 7.756 3.94 L 7.727 3.946 L 7.702 3.952 L 7.672 3.959 L 7.643 3.965 L 7.614 3.972 L 7.585 3.978 L 7.555 3.985 L 7.529 3.99 L 7.499 3.997 L 7.469 4.003 L 7.443 4.008 L 7.413 4.014 L 7.383 4.02 L 7.356 4.026 L 7.325 4.032 L 7.298 4.037 L 7.268 4.043 L 7.237 4.048 L 7.209 4.053 L 7.178 4.059 L 7.151 4.064 L 7.119 4.069 L 7.092 4.074 L 7.06 4.079 L 7.028 4.084 L 7 4.089 L 6.968 4.094 L 6.94 4.098 L 6.907 4.103 L 6.879 4.107 L 6.846 4.112 L 6.817 4.116 L 6.784 4.121 L 6.751 4.125 L 6.722 4.129 L 6.688 4.134 L 6.655 4.138 L 6.625 4.142 L 6.591 4.146 L 6.557 4.15 L 6.527 4.154 L 6.493 4.157 L 6.459 4.161 L 6.424 4.165 L 6.393 4.168 L 6.358 4.172 L 6.323 4.175 L 6.288 4.179 L 6.252 4.182 L 6.217 4.185 L 6.181 4.189 L 6.145 4.192 L 6.109 4.195 L 6.073 4.198 L 6.036 4.201 L 5.999 4.204 L 5.962 4.206 L 5.925 4.209 L 5.888 4.211 L 5.851 4.214 L 5.809 4.217 L 5.771 4.219 L 5.733 4.221 L 5.69 4.224 L 5.652 4.226 L 5.613 4.228 L 5.57 4.23 L 5.531 4.232 L 5.487 4.234 L 5.443 4.235 L 5.403 4.237 L 5.359 4.239 L 5.314 4.24 L 5.274 4.242 L 5.229 4.243 L 5.184 4.244 L 5.138 4.246 L 5.092 4.247 L 5.046 4.248 L 5 4.249 L 4.953 4.25 L 4.906 4.251 L 4.859 4.251 L 4.812 4.252 L 4.764 4.253 L 4.711 4.253 L 4.663 4.254 L 4.615 4.254 L 4.561 4.255 L 4.512 4.255 L 4.458 4.255 L 4.408 4.255 L 4.354 4.255 L 4.303 4.255 L 4.248 4.255 L 4.192 4.255 L 4.136 4.255 L 4.08 4.255 L 4.028 4.255 L 3.971 4.254 L 3.914 4.254 L 3.857 4.253 L 3.799 4.253 L 3.735 4.252 L 3.677 4.252 L 3.618 4.251 L 3.558 4.25 L 3.494 4.249 L 3.433 4.248 L 3.368 4.247 L 3.307 4.246 L 3.241 4.245 L 3.179 4.244 L 3.112 4.243 L 3.045 4.241 L 2.982 4.24 L 2.914 4.239 L 2.845 4.237 L 2.776 4.236 L 2.706 4.234 M 9.476 1.867 L 9.438 1.922 L 9.401 1.977 L 9.364 2.033 L 9.327 2.09 L 9.29 2.146 L 9.254 2.202 L 9.218 2.257 L 9.183 2.312 L 9.147 2.371 L 9.112 2.444 L 9.078 2.576 L 9.043 2.619 L 9.009 2.657 L 8.975 2.692 L 8.941 2.727 L 8.908 2.76 L 8.875 2.793 L 8.841 2.827 L 8.808 2.86 L 8.777 2.893 L 8.744 2.927 L 8.711 2.963 L 8.68 2.998 L 8.649 3.033 L 8.617 3.067 L 8.586 3.099 L 8.555 3.127 L 8.523 3.152 L 8.492 3.175 L 8.462 3.195 L 8.431 3.215 L 8.401 3.232 L 8.369 3.25 L 8.34 3.267 L 8.31 3.283 L 8.28 3.299 L 8.251 3.315 L 8.221 3.33 L 8.191 3.346 L 8.163 3.36 L 8.133 3.375 L 8.103 3.389 L 8.075 3.403 L 8.044 3.417 L 8.016 3.431 L 7.988 3.444 L 7.958 3.459 L 7.93 3.472 L 7.901 3.486 L 7.873 3.5 L 7.842 3.516 L 7.813 3.548 L 7.785 3.544 L 7.756 3.548 L 7.727 3.554 L 7.701 3.559 L 7.672 3.565 L 7.643 3.571 L 7.614 3.577 L 7.585 3.583 L 7.556 3.589 L 7.529 3.595 L 7.499 3.601 L 7.47 3.607 L 7.443 3.613 L 7.413 3.619 L 7.383 3.626 L 7.356 3.631 L 7.326 3.637 L 7.298 3.643 L 7.268 3.649 L 7.237 3.655 L 7.209 3.661 L 7.179 3.667 L 7.151 3.672 L 7.12 3.678 L 7.091 3.683 L 7.06 3.689 L 7.029 3.695 L 7 3.7 L 6.968 3.705 L 6.939 3.711 L 6.907 3.716 L 6.878 3.721 L 6.846 3.727 L 6.817 3.732 L 6.784 3.737 L 6.751 3.742 L 6.721 3.747 L 6.688 3.752 L 6.655 3.757 L 6.625 3.761 L 6.591 3.766 L 6.558 3.771 L 6.527 3.775 L 6.493 3.78 L 6.459 3.784 L 6.424 3.789 L 6.393 3.793 L 6.358 3.797 L 6.323 3.801 L 6.288 3.805 L 6.253 3.809 L 6.217 3.813 L 6.181 3.817 L 6.145 3.821 L 6.109 3.825 L 6.073 3.828 L 6.036 3.832 L 6 3.835 L 5.962 3.839 L 5.925 3.842 L 5.888 3.845 L 5.85 3.848 L 5.809 3.851 L 5.771 3.854 L 5.732 3.857 L 5.691 3.86 L 5.652 3.863 L 5.613 3.865 L 5.57 3.868 L 5.53 3.87 L 5.487 3.873 L 5.444 3.875 L 5.403 3.877 L 5.359 3.879 L 5.315 3.881 L 5.274 3.883 L 5.229 3.885 L 5.184 3.886 L 5.138 3.888 L 5.093 3.89 L 5.046 3.891 L 5 3.893 L 4.953 3.894 L 4.906 3.895 L 4.859 3.896 L 4.812 3.897 L 4.764 3.898 L 4.712 3.899 L 4.663 3.9 L 4.614 3.901 L 4.562 3.901 L 4.512 3.902 L 4.458 3.902 L 4.408 3.903 L 4.354 3.903 L 4.303 3.903 L 4.248 3.904 L 4.193 3.904 L 4.137 3.904 L 4.081 3.904 L 4.028 3.903 L 3.971 3.903 L 3.914 3.903 L 3.856 3.903 L 3.798 3.902 L 3.736 3.902 L 3.677 3.901 L 3.618 3.9 L 3.558 3.899 L 3.494 3.899 L 3.433 3.898 L 3.368 3.897 L 3.307 3.896 L 3.241 3.895 L 3.179 3.893 L 3.112 3.892 L 3.045 3.891 L 2.981 3.889 L 2.913 3.888 L 2.845 3.886 L 2.776 3.884 L 2.706 3.883 M 10.129 1.068 L 10.085 1.068 L 10.041 1.075 L 9.999 1.066 L 9.956 1.07 L 9.914 1.073 L 9.872 1.076 L 9.831 1.078 L 9.79 1.08 L 9.749 1.081 L 9.71 1.082 L 9.669 1.083 L 9.63 1.084 L 9.59 1.085 L 9.551 1.087 L 9.514 1.089 L 9.477 1.09 L 9.439 1.092 L 9.401 1.094 L 9.364 1.096 L 9.328 1.098 L 9.291 1.1 L 9.254 1.101 L 9.218 1.103 L 9.183 1.104 L 9.147 1.106 L 9.111 1.107 L 9.078 1.108 L 9.044 1.109 L 9.009 1.11 L 8.975 1.11 L 8.94 1.111 L 8.908 1.111 L 8.876 1.112 L 8.84 1.112 L 8.807 1.112 L 8.777 1.112 L 8.744 1.113 L 8.711 1.113 L 8.68 1.113 L 8.649 1.114 L 8.618 1.115 L 8.586 1.117 L 8.555 1.12 L 8.523 1.123 L 8.492 1.126 L 8.463 1.129 L 8.431 1.133 L 8.402 1.136 L 8.369 1.139 L 8.34 1.141 L 8.31 1.144 L 8.28 1.147 L 8.251 1.149 L 8.221 1.152 L 8.19 1.154 L 8.163 1.156 L 8.133 1.158 L 8.102 1.16 L 8.075 1.162 L 8.044 1.164 L 8.017 1.166 L 7.989 1.168 L 7.958 1.17 L 7.93 1.171 L 7.901 1.173 L 7.873 1.174 L 7.842 1.175 L 7.813 1.176 L 7.785 1.171 L 7.756 1.174 L 7.727 1.177 L 7.702 1.18 L 7.672 1.183 L 7.643 1.186 L 7.614 1.188 L 7.585 1.191 L 7.555 1.194 L 7.529 1.196 L 7.499 1.199 L 7.469 1.202 L 7.443 1.204 L 7.413 1.207 L 7.383 1.21 L 7.356 1.212 L 7.325 1.215 L 7.298 1.217 L 7.268 1.22 L 7.237 1.222 L 7.209 1.225 L 7.178 1.227 L 7.151 1.23 L 7.119 1.232 L 7.092 1.235 L 7.06 1.237 L 7.028 1.24 L 7 1.242 L 6.968 1.244 L 6.94 1.247 L 6.907 1.249 L 6.879 1.252 L 6.846 1.254 L 6.817 1.256 L 6.784 1.258 L 6.751 1.261 L 6.722 1.263 L 6.688 1.265 L 6.655 1.267 L 6.625 1.27 L 6.591 1.272 L 6.557 1.274 L 6.527 1.276 L 6.493 1.279 L 6.459 1.281 L 6.424 1.283 L 6.393 1.285 L 6.358 1.287 L 6.323 1.289 L 6.288 1.291 L 6.252 1.294 L 6.217 1.296 L 6.181 1.298 L 6.145 1.3 L 6.109 1.302 L 6.073 1.304 L 6.036 1.306 L 5.999 1.308 L 5.962 1.31 L 5.925 1.312 L 5.888 1.314 L 5.851 1.316 L 5.809 1.319 L 5.771 1.321 L 5.733 1.323 L 5.69 1.325 L 5.652 1.327 L 5.613 1.329 L 5.57 1.331 L 5.531 1.333 L 5.487 1.335 L 5.443 1.337 L 5.403 1.339 L 5.359 1.341 L 5.314 1.343 L 5.274 1.345 L 5.229 1.347 L 5.184 1.349 L 5.138 1.351 L 5.092 1.353 L 5.046 1.355 L 5 1.357 L 4.953 1.359 L 4.906 1.361 L 4.859 1.363 L 4.812 1.365 L 4.764 1.367 L 4.711 1.369 L 4.663 1.371 L 4.615 1.373 L 4.561 1.375 L 4.512 1.377 L 4.458 1.379 L 4.408 1.381 L 4.354 1.383 L 4.303 1.385 L 4.248 1.387 L 4.192 1.389 L 4.136 1.39 L 4.08 1.392 L 4.028 1.394 L 3.971 1.396 L 3.914 1.398 L 3.857 1.399 L 3.799 1.401 L 3.735 1.403 L 3.677 1.405 L 3.618 1.406 L 3.558 1.408 L 3.494 1.41 L 3.433 1.411 L 3.368 1.413 L 3.307 1.415 L 3.241 1.416 L 3.179 1.418 L 3.112 1.419 L 3.045 1.421 L 2.982 1.423 L 2.914 1.424 L 2.845 1.426 L 2.776 1.427 L 2.706 1.429 M 8.875 1.888 L 8.841 1.923 L 8.809 1.958 L 8.776 1.994 L 8.744 2.031 L 8.711 2.069 L 8.68 2.107 L 8.648 2.145 L 8.617 2.185 L 8.585 2.226 L 8.554 2.268 L 8.523 2.311 L 8.492 2.355 L 8.462 2.4 L 8.431 2.444 L 8.401 2.485 L 8.37 2.522 L 8.34 2.557 L 8.31 2.588 L 8.28 2.619 L 8.25 2.648 L 8.221 2.676 L 8.191 2.703 L 8.163 2.729 L 8.133 2.756 L 8.103 2.782 L 8.075 2.807 L 8.045 2.832 L 8.016 2.857 L 7.988 2.881 L 7.958 2.906 L 7.93 2.929 L 7.901 2.953 L 7.873 2.976 L 7.842 2.999 L 7.814 3.021 L 7.785 3.043 L 7.757 3.064 L 7.728 3.084 L 7.701 3.103 L 7.672 3.121 L 7.643 3.138 L 7.614 3.153 L 7.585 3.213 L 7.556 3.22 L 7.529 3.227 L 7.499 3.235 L 7.47 3.237 L 7.442 3.241 L 7.413 3.264 L 7.383 3.272 L 7.356 3.279 L 7.326 3.286 L 7.298 3.242 L 7.268 3.252 L 7.237 3.263 L 7.209 3.275 L 7.179 3.313 L 7.15 3.315 L 7.12 3.315 L 7.091 3.321 L 7.06 3.328 L 7.029 3.334 L 7 3.324 L 6.969 3.329 L 6.939 3.335 L 6.908 3.34 L 6.878 3.345 L 6.846 3.351 L 6.816 3.356 L 6.784 3.361 L 6.752 3.366 L 6.721 3.371 L 6.689 3.376 L 6.656 3.381 L 6.625 3.386 L 6.592 3.391 L 6.558 3.396 L 6.527 3.4 L 6.493 3.405 L 6.459 3.409 L 6.425 3.414 L 6.393 3.418 L 6.358 3.422 L 6.323 3.427 L 6.288 3.431 L 6.253 3.435 L 6.217 3.439 L 6.182 3.443 L 6.146 3.447 L 6.11 3.451 L 6.073 3.455 L 6.037 3.458 L 6 3.462 L 5.963 3.465 L 5.925 3.469 L 5.888 3.472 L 5.85 3.475 L 5.809 3.479 L 5.771 3.482 L 5.732 3.485 L 5.691 3.488 L 5.652 3.491 L 5.612 3.494 L 5.57 3.497 L 5.53 3.499 L 5.487 3.502 L 5.444 3.505 L 5.403 3.507 L 5.359 3.509 L 5.315 3.512 L 5.274 3.514 L 5.229 3.516 L 5.184 3.518 L 5.138 3.52 L 5.093 3.522 L 5.047 3.524 L 5 3.526 L 4.954 3.527 L 4.907 3.529 L 4.859 3.53 L 4.812 3.532 L 4.763 3.533 L 4.712 3.534 L 4.663 3.536 L 4.614 3.537 L 4.562 3.538 L 4.512 3.539 L 4.459 3.539 L 4.408 3.54 L 4.354 3.541 L 4.303 3.541 L 4.248 3.542 L 4.193 3.542 L 4.137 3.543 L 4.081 3.543 L 4.028 3.543 L 3.971 3.543 L 3.913 3.543 L 3.856 3.543 L 3.798 3.543 L 3.736 3.543 L 3.677 3.542 L 3.617 3.542 L 3.557 3.541 L 3.494 3.541 L 3.433 3.54 L 3.369 3.539 L 3.307 3.538 L 3.242 3.537 L 3.179 3.536 L 3.112 3.535 L 3.045 3.534 L 2.981 3.533 L 2.913 3.531 L 2.845 3.53 L 2.776 3.528 L 2.706 3.527 M 9.476 1.211 L 9.438 1.216 L 9.401 1.22 L 9.364 1.223 L 9.327 1.227 L 9.29 1.23 L 9.254 1.233 L 9.218 1.236 L 9.183 1.238 L 9.147 1.24 L 9.112 1.24 L 9.078 1.231 L 9.043 1.233 L 9.009 1.236 L 8.975 1.239 L 8.941 1.242 L 8.908 1.245 L 8.875 1.248 L 8.841 1.251 L 8.808 1.253 L 8.777 1.255 L 8.744 1.257 L 8.711 1.259 L 8.68 1.26 L 8.649 1.261 L 8.617 1.262 L 8.586 1.263 L 8.555 1.265 L 8.523 1.267 L 8.492 1.27 L 8.462 1.272 L 8.431 1.276 L 8.401 1.279 L 8.369 1.282 L 8.34 1.285 L 8.31 1.289 L 8.28 1.292 L 8.251 1.295 L 8.221 1.299 L 8.191 1.302 L 8.163 1.305 L 8.133 1.309 L 8.103 1.312 L 8.075 1.315 L 8.044 1.318 L 8.016 1.321 L 7.988 1.324 L 7.958 1.327 L 7.93 1.33 L 7.901 1.333 L 7.873 1.335 L 7.842 1.337 L 7.813 1.333 L 7.785 1.342 L 7.756 1.347 L 7.727 1.352 L 7.701 1.357 L 7.672 1.361 L 7.643 1.366 L 7.614 1.37 L 7.585 1.375 L 7.556 1.379 L 7.529 1.384 L 7.499 1.388 L 7.47 1.392 L 7.443 1.397 L 7.413 1.401 L 7.383 1.405 L 7.356 1.409 L 7.326 1.413 L 7.298 1.417 L 7.268 1.421 L 7.237 1.425 L 7.209 1.429 L 7.179 1.432 L 7.151 1.436 L 7.12 1.44 L 7.091 1.444 L 7.06 1.447 L 7.029 1.451 L 7 1.454 L 6.968 1.458 L 6.939 1.462 L 6.907 1.465 L 6.878 1.468 L 6.846 1.472 L 6.817 1.475 L 6.784 1.478 L 6.751 1.482 L 6.721 1.485 L 6.688 1.488 L 6.655 1.491 L 6.625 1.494 L 6.591 1.497 L 6.558 1.5 L 6.527 1.504 L 6.493 1.507 L 6.459 1.509 L 6.424 1.512 L 6.393 1.515 L 6.358 1.518 L 6.323 1.521 L 6.288 1.524 L 6.253 1.527 L 6.217 1.529 L 6.181 1.532 L 6.145 1.535 L 6.109 1.537 L 6.073 1.54 L 6.036 1.542 L 6 1.545 L 5.962 1.548 L 5.925 1.55 L 5.888 1.552 L 5.85 1.555 L 5.809 1.557 L 5.771 1.56 L 5.732 1.562 L 5.691 1.564 L 5.652 1.567 L 5.613 1.569 L 5.57 1.571 L 5.53 1.573 L 5.487 1.575 L 5.444 1.578 L 5.403 1.58 L 5.359 1.582 L 5.315 1.584 L 5.274 1.586 L 5.229 1.588 L 5.184 1.59 L 5.138 1.592 L 5.093 1.594 L 5.046 1.596 L 5 1.598 L 4.953 1.599 L 4.906 1.601 L 4.859 1.603 L 4.812 1.605 L 4.764 1.607 L 4.712 1.608 L 4.663 1.61 L 4.614 1.612 L 4.562 1.613 L 4.512 1.615 L 4.458 1.616 L 4.408 1.618 L 4.354 1.619 L 4.303 1.621 L 4.248 1.622 L 4.193 1.624 L 4.137 1.625 L 4.081 1.626 L 4.028 1.628 L 3.971 1.629 L 3.914 1.63 L 3.856 1.631 L 3.798 1.632 L 3.736 1.634 L 3.677 1.635 L 3.618 1.636 L 3.558 1.637 L 3.494 1.638 L 3.433 1.639 L 3.368 1.64 L 3.307 1.641 L 3.241 1.642 L 3.179 1.643 L 3.112 1.644 L 3.045 1.645 L 2.981 1.645 L 2.913 1.646 L 2.845 1.647 L 2.776 1.648 L 2.706 1.649 M 8.875 1.346 L 8.841 1.351 L 8.809 1.356 L 8.776 1.361 L 8.744 1.365 L 8.711 1.369 L 8.68 1.374 L 8.648 1.378 L 8.617 1.382 L 8.585 1.385 L 8.554 1.389 L 8.523 1.392 L 8.492 1.395 L 8.462 1.397 L 8.431 1.4 L 8.401 1.402 L 8.37 1.405 L 8.34 1.408 L 8.31 1.411 L 8.28 1.415 L 8.25 1.418 L 8.221 1.421 L 8.191 1.425 L 8.163 1.428 L 8.133 1.431 L 8.103 1.434 L 8.075 1.437 L 8.045 1.44 L 8.016 1.443 L 7.988 1.446 L 7.958 1.449 L 7.93 1.452 L 7.901 1.455 L 7.873 1.457 L 7.842 1.46 L 7.814 1.462 L 7.785 1.465 L 7.757 1.468 L 7.728 1.47 L 7.701 1.473 L 7.672 1.476 L 7.643 1.479 L 7.614 1.482 L 7.585 1.476 L 7.556 1.48 L 7.529 1.485 L 7.499 1.489 L 7.47 1.495 L 7.442 1.5 L 7.413 1.501 L 7.383 1.505 L 7.356 1.509 L 7.326 1.514 L 7.298 1.529 L 7.268 1.532 L 7.237 1.535 L 7.209 1.539 L 7.179 1.536 L 7.15 1.541 L 7.12 1.546 L 7.091 1.55 L 7.06 1.554 L 7.029 1.557 L 7 1.565 L 6.969 1.569 L 6.939 1.573 L 6.908 1.576 L 6.878 1.58 L 6.846 1.584 L 6.816 1.588 L 6.784 1.591 L 6.752 1.595 L 6.721 1.598 L 6.689 1.602 L 6.656 1.605 L 6.625 1.609 L 6.592 1.612 L 6.558 1.615 L 6.527 1.619 L 6.493 1.622 L 6.459 1.625 L 6.425 1.628 L 6.393 1.631 L 6.358 1.634 L 6.323 1.637 L 6.288 1.64 L 6.253 1.643 L 6.217 1.646 L 6.182 1.649 L 6.146 1.651 L 6.11 1.654 L 6.073 1.657 L 6.037 1.66 L 6 1.662 L 5.963 1.665 L 5.925 1.667 L 5.888 1.67 L 5.85 1.672 L 5.809 1.675 L 5.771 1.677 L 5.732 1.679 L 5.691 1.682 L 5.652 1.684 L 5.612 1.686 L 5.57 1.688 L 5.53 1.69 L 5.487 1.692 L 5.444 1.694 L 5.403 1.696 L 5.359 1.698 L 5.315 1.7 L 5.274 1.702 L 5.229 1.704 L 5.184 1.706 L 5.138 1.707 L 5.093 1.709 L 5.047 1.711 L 5 1.712 L 4.954 1.714 L 4.907 1.716 L 4.859 1.717 L 4.812 1.719 L 4.763 1.72 L 4.712 1.721 L 4.663 1.723 L 4.614 1.724 L 4.562 1.725 L 4.512 1.727 L 4.459 1.728 L 4.408 1.729 L 4.354 1.73 L 4.303 1.731 L 4.248 1.732 L 4.193 1.734 L 4.137 1.735 L 4.081 1.736 L 4.028 1.736 L 3.971 1.737 L 3.913 1.738 L 3.856 1.739 L 3.798 1.74 L 3.736 1.741 L 3.677 1.741 L 3.617 1.742 L 3.557 1.743 L 3.494 1.744 L 3.433 1.744 L 3.369 1.745 L 3.307 1.745 L 3.242 1.746 L 3.179 1.746 L 3.112 1.747 L 3.045 1.747 L 2.981 1.748 L 2.913 1.748 L 2.845 1.749 L 2.776 1.749 L 2.706 1.749 M 8.016 1.967 L 7.987 2.141 L 7.958 2.107 L 7.929 2.202 L 7.901 2.228 L 7.872 2.252 L 7.843 2.275 L 7.814 2.297 L 7.786 2.319 L 7.757 2.34 L 7.728 2.362 L 7.7 2.382 L 7.672 2.403 L 7.643 2.423 L 7.614 2.443 L 7.585 2.462 L 7.556 2.481 L 7.528 2.499 L 7.499 2.516 L 7.47 2.534 L 7.442 2.55 L 7.413 2.567 L 7.384 2.583 L 7.355 2.598 L 7.326 2.613 L 7.297 2.792 L 7.268 2.801 L 7.238 2.809 L 7.209 2.816 L 7.179 2.823 L 7.15 2.83 L 7.12 2.837 L 7.091 2.843 L 7.06 2.849 L 7.029 2.855 L 7 2.86 L 6.969 2.865 L 6.939 2.87 L 6.908 2.874 L 6.878 2.877 L 6.846 2.838 L 6.816 2.843 L 6.784 2.848 L 6.752 2.853 L 6.721 2.858 L 6.689 2.863 L 6.656 2.868 L 6.625 2.872 L 6.592 2.877 L 6.558 2.881 L 6.526 2.886 L 6.493 2.89 L 6.459 2.895 L 6.425 2.899 L 6.392 2.903 L 6.358 2.908 L 6.323 2.912 L 6.288 2.916 L 6.253 2.92 L 6.218 2.924 L 6.182 2.928 L 6.146 2.932 L 6.11 2.936 L 6.073 2.94 L 6.037 2.943 L 6 2.947 L 5.963 2.951 L 5.925 2.954 L 5.887 2.957 L 5.849 2.961 L 5.81 2.964 L 5.771 2.968 L 5.732 2.971 L 5.691 2.974 L 5.652 2.977 L 5.612 2.98 L 5.57 2.983 L 5.53 2.986 L 5.487 2.989 L 5.444 2.992 L 5.403 2.994 L 5.36 2.997 L 5.316 2.999 L 5.273 3.002 L 5.229 3.004 L 5.184 3.007 L 5.139 3.009 L 5.093 3.011 L 5.047 3.013 L 5.001 3.015 L 4.954 3.017 L 4.907 3.019 L 4.859 3.021 L 4.811 3.023 L 4.763 3.024 L 4.713 3.026 L 4.664 3.027 L 4.614 3.029 L 4.562 3.03 L 4.512 3.032 L 4.459 3.033 L 4.408 3.034 L 4.354 3.035 L 4.302 3.036 L 4.248 3.037 L 4.193 3.038 L 4.138 3.038 L 4.082 3.039 L 4.027 3.039 L 3.97 3.04 L 3.913 3.04 L 3.855 3.041 L 3.797 3.041 L 3.736 3.041 L 3.677 3.041 L 3.617 3.041 L 3.557 3.041 L 3.494 3.041 L 3.433 3.04 L 3.369 3.04 L 3.307 3.04 L 3.242 3.039 L 3.178 3.038 L 3.112 3.038 L 3.046 3.037 L 2.981 3.036 L 2.913 3.035 L 2.845 3.034 L 2.776 3.033 L 2.706 3.032 M 8.016 1.518 L 7.987 1.517 L 7.958 1.524 L 7.929 1.525 L 7.901 1.529 L 7.872 1.533 L 7.843 1.537 L 7.814 1.541 L 7.786 1.545 L 7.757 1.549 L 7.728 1.553 L 7.7 1.557 L 7.672 1.561 L 7.643 1.565 L 7.614 1.569 L 7.585 1.573 L 7.556 1.576 L 7.528 1.58 L 7.499 1.584 L 7.47 1.588 L 7.442 1.591 L 7.413 1.595 L 7.384 1.599 L 7.355 1.602 L 7.326 1.606 L 7.297 1.596 L 7.268 1.6 L 7.238 1.604 L 7.209 1.608 L 7.179 1.612 L 7.15 1.616 L 7.12 1.62 L 7.091 1.624 L 7.06 1.627 L 7.029 1.631 L 7 1.635 L 6.969 1.639 L 6.939 1.643 L 6.908 1.647 L 6.878 1.65 L 6.846 1.658 L 6.816 1.661 L 6.784 1.665 L 6.752 1.668 L 6.721 1.671 L 6.689 1.675 L 6.656 1.678 L 6.625 1.681 L 6.592 1.684 L 6.558 1.687 L 6.526 1.691 L 6.493 1.694 L 6.459 1.697 L 6.425 1.699 L 6.392 1.702 L 6.358 1.705 L 6.323 1.708 L 6.288 1.711 L 6.253 1.713 L 6.218 1.716 L 6.182 1.718 L 6.146 1.721 L 6.11 1.723 L 6.073 1.726 L 6.037 1.728 L 6 1.731 L 5.963 1.733 L 5.925 1.735 L 5.887 1.737 L 5.849 1.739 L 5.81 1.742 L 5.771 1.744 L 5.732 1.746 L 5.691 1.748 L 5.652 1.75 L 5.612 1.751 L 5.57 1.753 L 5.53 1.755 L 5.487 1.757 L 5.444 1.758 L 5.403 1.76 L 5.36 1.762 L 5.316 1.763 L 5.273 1.765 L 5.229 1.766 L 5.184 1.768 L 5.139 1.769 L 5.093 1.771 L 5.047 1.772 L 5.001 1.773 L 4.954 1.774 L 4.907 1.776 L 4.859 1.777 L 4.811 1.778 L 4.763 1.779 L 4.713 1.78 L 4.664 1.781 L 4.614 1.782 L 4.562 1.783 L 4.512 1.784 L 4.459 1.785 L 4.408 1.786 L 4.354 1.787 L 4.302 1.787 L 4.248 1.788 L 4.193 1.789 L 4.138 1.789 L 4.082 1.79 L 4.027 1.791 L 3.97 1.791 L 3.913 1.792 L 3.855 1.792 L 3.797 1.793 L 3.736 1.793 L 3.677 1.794 L 3.617 1.794 L 3.557 1.795 L 3.494 1.795 L 3.433 1.795 L 3.369 1.796 L 3.307 1.796 L 3.242 1.796 L 3.178 1.796 L 3.112 1.796 L 3.046 1.797 L 2.981 1.797 L 2.913 1.797 L 2.845 1.797 L 2.776 1.797 L 2.706 1.797 M 6 2.143 L 5.963 2.146 L 5.925 2.15 L 5.887 2.153 L 5.849 2.157 L 5.81 2.16 L 5.771 2.164 L 5.732 2.167 L 5.692 2.17 L 5.652 2.174 L 5.611 2.177 L 5.57 2.18 L 5.529 2.183 L 5.487 2.186 L 5.445 2.189 L 5.403 2.192 L 5.36 2.195 L 5.316 2.198 L 5.273 2.201 L 5.229 2.204 L 5.184 2.207 L 5.139 2.21 L 5.094 2.212 L 5.048 2.215 L 5.001 2.217 L 4.954 2.22 L 4.907 2.222 L 4.86 2.225 L 4.811 2.227 L 4.763 2.23 L 4.713 2.232 L 4.664 2.234 L 4.614 2.236 L 4.563 2.238 L 4.512 2.24 L 4.46 2.242 L 4.408 2.244 L 4.355 2.246 L 4.302 2.248 L 4.248 2.25 L 4.193 2.251 L 4.138 2.253 L 4.082 2.255 L 4.027 2.256 L 3.97 2.258 L 3.913 2.259 L 3.855 2.26 L 3.796 2.262 L 3.737 2.263 L 3.677 2.264 L 3.617 2.265 L 3.556 2.266 L 3.495 2.267 L 3.433 2.268 L 3.37 2.268 L 3.307 2.269 L 3.242 2.27 L 3.178 2.27 L 3.112 2.271 L 3.046 2.271 L 2.98 2.271 L 2.913 2.272 L 2.845 2.272 L 2.776 2.272 L 2.706 2.272 M 6 1.722 L 5.963 1.724 L 5.925 1.725 L 5.887 1.726 L 5.849 1.728 L 5.81 1.729 L 5.771 1.73 L 5.732 1.732 L 5.692 1.733 L 5.652 1.734 L 5.611 1.735 L 5.57 1.736 L 5.529 1.737 L 5.487 1.738 L 5.445 1.739 L 5.403 1.74 L 5.36 1.741 L 5.316 1.742 L 5.273 1.743 L 5.229 1.744 L 5.184 1.745 L 5.139 1.746 L 5.094 1.746 L 5.048 1.747 L 5.001 1.748 L 4.954 1.749 L 4.907 1.749 L 4.86 1.75 L 4.811 1.75 L 4.763 1.751 L 4.713 1.752 L 4.664 1.752 L 4.614 1.753 L 4.563 1.753 L 4.512 1.754 L 4.46 1.754 L 4.408 1.754 L 4.355 1.755 L 4.302 1.755 L 4.248 1.755 L 4.193 1.756 L 4.138 1.756 L 4.082 1.756 L 4.027 1.757 L 3.97 1.757 L 3.913 1.757 L 3.855 1.757 L 3.796 1.758 L 3.737 1.758 L 3.677 1.758 L 3.617 1.758 L 3.556 1.758 L 3.495 1.758 L 3.433 1.758 L 3.37 1.759 L 3.307 1.759 L 3.242 1.759 L 3.178 1.759 L 3.112 1.759 L 3.046 1.759 L 2.98 1.759 L 2.913 1.759 L 2.845 1.759 L 2.776 1.759 L 2.706 1.759 M 1.068 1.808 L 1.068 1.936 L 1.075 1.964 L 1.066 2.166 L 1.07 2.228 L 1.073 2.288 L 1.076 2.349 L 1.078 2.41 L 1.08 2.472 L 1.081 2.534 L 1.082 2.594 L 1.083 2.654 L 1.084 2.709 L 1.085 2.761 L 1.087 2.809 L 1.089 2.851 L 1.09 2.892 L 1.092 2.931 L 1.094 2.969 L 1.096 3.005 L 1.098 3.04 L 1.1 3.074 L 1.101 3.108 L 1.103 3.14 L 1.104 3.172 L 1.105 3.204 L 1.107 3.235 L 1.108 3.264 L 1.109 3.293 L 1.109 3.322 L 1.11 3.351 L 1.111 3.379 L 1.111 3.406 L 1.112 3.432 L 1.112 3.459 L 1.112 3.484 L 1.112 3.508 L 1.113 3.532 L 1.113 3.556 L 1.113 3.577 L 1.114 3.596 L 1.115 3.614 L 1.117 3.63 L 1.12 3.643 L 1.123 3.655 L 1.126 3.666 L 1.129 3.676 L 1.133 3.687 L 1.136 3.698 L 1.139 3.709 L 1.141 3.72 L 1.144 3.731 L 1.147 3.742 L 1.149 3.753 L 1.152 3.764 L 1.154 3.775 L 1.156 3.785 L 1.158 3.796 L 1.16 3.807 L 1.162 3.818 L 1.164 3.829 L 1.166 3.839 L 1.168 3.849 L 1.17 3.86 L 1.171 3.87 L 1.173 3.88 L 1.174 3.891 L 1.175 3.902 L 1.176 3.912 L 1.171 3.933 L 1.174 3.94 L 1.177 3.946 L 1.18 3.952 L 1.183 3.959 L 1.186 3.965 L 1.188 3.972 L 1.191 3.978 L 1.194 3.985 L 1.196 3.99 L 1.199 3.997 L 1.202 4.003 L 1.204 4.008 L 1.207 4.014 L 1.21 4.02 L 1.212 4.026 L 1.215 4.032 L 1.217 4.037 L 1.22 4.043 L 1.222 4.048 L 1.225 4.053 L 1.227 4.059 L 1.23 4.064 L 1.232 4.069 L 1.235 4.074 L 1.237 4.079 L 1.24 4.084 L 1.242 4.089 L 1.244 4.094 L 1.247 4.098 L 1.249 4.103 L 1.251 4.107 L 1.254 4.112 L 1.256 4.116 L 1.258 4.121 L 1.261 4.125 L 1.263 4.129 L 1.265 4.134 L 1.267 4.138 L 1.27 4.142 L 1.272 4.146 L 1.274 4.15 L 1.276 4.154 L 1.279 4.157 L 1.281 4.161 L 1.283 4.165 L 1.285 4.168 L 1.287 4.172 L 1.289 4.175 L 1.291 4.179 L 1.294 4.182 L 1.296 4.185 L 1.298 4.189 L 1.3 4.192 L 1.302 4.195 L 1.304 4.198 L 1.306 4.201 L 1.308 4.204 L 1.31 4.206 L 1.312 4.209 L 1.314 4.211 L 1.316 4.214 L 1.318 4.217 L 1.321 4.219 L 1.323 4.221 L 1.325 4.224 L 1.327 4.226 L 1.329 4.228 L 1.331 4.23 L 1.333 4.232 L 1.335 4.234 L 1.337 4.235 L 1.339 4.237 L 1.341 4.239 L 1.343 4.24 L 1.345 4.242 L 1.347 4.243 L 1.349 4.244 L 1.351 4.246 L 1.353 4.247 L 1.355 4.248 L 1.357 4.249 L 1.359 4.25 L 1.361 4.251 L 1.363 4.251 L 1.365 4.252 L 1.367 4.253 L 1.369 4.253 L 1.371 4.254 L 1.373 4.254 L 1.375 4.255 L 1.377 4.255 L 1.379 4.255 L 1.381 4.255 L 1.383 4.255 L 1.385 4.255 L 1.387 4.255 L 1.388 4.255 L 1.39 4.255 L 1.392 4.255 L 1.394 4.255 L 1.396 4.254 L 1.398 4.254 L 1.399 4.253 L 1.401 4.253 L 1.403 4.252 L 1.405 4.252 L 1.406 4.251 L 1.408 4.25 L 1.41 4.249 L 1.411 4.248 L 1.413 4.247 L 1.415 4.246 L 1.416 4.245 L 1.418 4.244 L 1.419 4.243 L 1.421 4.241 L 1.423 4.24 L 1.424 4.239 L 1.426 4.237 L 1.427 4.236 L 1.429 4.234 M 1.211 1.867 L 1.216 1.922 L 1.22 1.977 L 1.223 2.033 L 1.227 2.09 L 1.23 2.146 L 1.233 2.202 L 1.236 2.257 L 1.238 2.312 L 1.24 2.371 L 1.24 2.444 L 1.231 2.576 L 1.233 2.619 L 1.236 2.657 L 1.239 2.692 L 1.242 2.727 L 1.245 2.76 L 1.248 2.793 L 1.251 2.827 L 1.253 2.86 L 1.255 2.893 L 1.257 2.927 L 1.259 2.963 L 1.26 2.998 L 1.261 3.033 L 1.262 3.067 L 1.263 3.099 L 1.265 3.127 L 1.267 3.152 L 1.27 3.175 L 1.272 3.195 L 1.276 3.215 L 1.279 3.232 L 1.282 3.25 L 1.285 3.267 L 1.289 3.283 L 1.292 3.299 L 1.295 3.315 L 1.299 3.33 L 1.302 3.346 L 1.305 3.36 L 1.309 3.375 L 1.312 3.389 L 1.315 3.403 L 1.318 3.417 L 1.321 3.431 L 1.324 3.444 L 1.327 3.459 L 1.33 3.472 L 1.332 3.486 L 1.335 3.5 L 1.337 3.516 L 1.333 3.548 L 1.342 3.544 L 1.347 3.548 L 1.352 3.554 L 1.357 3.559 L 1.361 3.565 L 1.366 3.571 L 1.37 3.577 L 1.375 3.583 L 1.379 3.589 L 1.384 3.595 L 1.388 3.601 L 1.392 3.607 L 1.396 3.613 L 1.401 3.619 L 1.405 3.626 L 1.409 3.631 L 1.413 3.637 L 1.417 3.643 L 1.421 3.649 L 1.425 3.655 L 1.429 3.661 L 1.432 3.667 L 1.436 3.672 L 1.44 3.678 L 1.444 3.683 L 1.447 3.689 L 1.451 3.695 L 1.454 3.7 L 1.458 3.705 L 1.461 3.711 L 1.465 3.716 L 1.468 3.721 L 1.472 3.727 L 1.475 3.732 L 1.478 3.737 L 1.482 3.742 L 1.485 3.747 L 1.488 3.752 L 1.491 3.757 L 1.494 3.761 L 1.497 3.766 L 1.5 3.771 L 1.504 3.775 L 1.506 3.78 L 1.509 3.784 L 1.512 3.789 L 1.515 3.793 L 1.518 3.797 L 1.521 3.801 L 1.524 3.805 L 1.527 3.809 L 1.529 3.813 L 1.532 3.817 L 1.535 3.821 L 1.537 3.825 L 1.54 3.828 L 1.542 3.832 L 1.545 3.835 L 1.548 3.839 L 1.55 3.842 L 1.552 3.845 L 1.555 3.848 L 1.557 3.851 L 1.56 3.854 L 1.562 3.857 L 1.564 3.86 L 1.567 3.863 L 1.569 3.865 L 1.571 3.868 L 1.573 3.87 L 1.575 3.873 L 1.578 3.875 L 1.58 3.877 L 1.582 3.879 L 1.584 3.881 L 1.586 3.883 L 1.588 3.885 L 1.59 3.886 L 1.592 3.888 L 1.594 3.89 L 1.596 3.891 L 1.598 3.893 L 1.599 3.894 L 1.601 3.895 L 1.603 3.896 L 1.605 3.897 L 1.607 3.898 L 1.608 3.899 L 1.61 3.9 L 1.612 3.901 L 1.613 3.901 L 1.615 3.902 L 1.616 3.902 L 1.618 3.903 L 1.619 3.903 L 1.621 3.903 L 1.622 3.904 L 1.624 3.904 L 1.625 3.904 L 1.626 3.904 L 1.628 3.903 L 1.629 3.903 L 1.63 3.903 L 1.631 3.903 L 1.632 3.902 L 1.634 3.902 L 1.635 3.901 L 1.636 3.9 L 1.637 3.899 L 1.638 3.899 L 1.639 3.898 L 1.64 3.897 L 1.641 3.896 L 1.642 3.895 L 1.643 3.893 L 1.644 3.892 L 1.645 3.891 L 1.645 3.889 L 1.646 3.888 L 1.647 3.886 L 1.648 3.884 L 1.649 3.883 M 1.346 1.888 L 1.351 1.923 L 1.356 1.958 L 1.361 1.994 L 1.365 2.031 L 1.369 2.069 L 1.374 2.107 L 1.378 2.145 L 1.382 2.185 L 1.385 2.226 L 1.389 2.268 L 1.392 2.311 L 1.395 2.355 L 1.397 2.4 L 1.4 2.444 L 1.402 2.485 L 1.405 2.522 L 1.408 2.557 L 1.411 2.588 L 1.415 2.619 L 1.418 2.648 L 1.421 2.676 L 1.425 2.703 L 1.428 2.729 L 1.431 2.756 L 1.434 2.782 L 1.437 2.807 L 1.44 2.832 L 1.443 2.857 L 1.446 2.881 L 1.449 2.906 L 1.452 2.929 L 1.455 2.953 L 1.457 2.976 L 1.46 2.999 L 1.462 3.021 L 1.465 3.043 L 1.468 3.064 L 1.47 3.084 L 1.473 3.103 L 1.476 3.121 L 1.479 3.138 L 1.482 3.153 L 1.476 3.213 L 1.48 3.22 L 1.485 3.227 L 1.489 3.235 L 1.495 3.237 L 1.5 3.241 L 1.501 3.264 L 1.505 3.272 L 1.509 3.279 L 1.514 3.286 L 1.529 3.242 L 1.532 3.252 L 1.535 3.263 L 1.538 3.275 L 1.536 3.313 L 1.541 3.315 L 1.546 3.315 L 1.55 3.321 L 1.554 3.328 L 1.557 3.334 L 1.565 3.324 L 1.569 3.329 L 1.573 3.335 L 1.576 3.34 L 1.58 3.345 L 1.584 3.351 L 1.588 3.356 L 1.591 3.361 L 1.595 3.366 L 1.598 3.371 L 1.602 3.376 L 1.605 3.381 L 1.609 3.386 L 1.612 3.391 L 1.615 3.396 L 1.618 3.4 L 1.622 3.405 L 1.625 3.409 L 1.628 3.414 L 1.631 3.418 L 1.634 3.422 L 1.637 3.427 L 1.64 3.431 L 1.643 3.435 L 1.646 3.439 L 1.649 3.443 L 1.651 3.447 L 1.654 3.451 L 1.657 3.455 L 1.66 3.458 L 1.662 3.462 L 1.665 3.465 L 1.667 3.469 L 1.67 3.472 L 1.672 3.475 L 1.675 3.479 L 1.677 3.482 L 1.679 3.485 L 1.681 3.488 L 1.684 3.491 L 1.686 3.494 L 1.688 3.497 L 1.69 3.499 L 1.692 3.502 L 1.694 3.505 L 1.696 3.507 L 1.698 3.509 L 1.7 3.512 L 1.702 3.514 L 1.704 3.516 L 1.706 3.518 L 1.707 3.52 L 1.709 3.522 L 1.711 3.524 L 1.712 3.526 L 1.714 3.527 L 1.716 3.529 L 1.717 3.53 L 1.719 3.532 L 1.72 3.533 L 1.721 3.534 L 1.723 3.536 L 1.724 3.537 L 1.725 3.538 L 1.727 3.539 L 1.728 3.539 L 1.729 3.54 L 1.73 3.541 L 1.731 3.541 L 1.732 3.542 L 1.733 3.542 L 1.735 3.543 L 1.735 3.543 M 1.518 1.967 L 1.517 2.141 L 1.524 2.107 L 1.525 2.202 L 1.529 2.228 L 1.533 2.252 L 1.537 2.275 L 1.541 2.297 L 1.545 2.319 L 1.549 2.34 L 1.553 2.362 L 1.557 2.382 L 1.561 2.403 L 1.565 2.423 L 1.569 2.443 L 1.573 2.462 L 1.576 2.481 L 1.58 2.499 L 1.584 2.516 L 1.588 2.534 L 1.591 2.55 L 1.595 2.567 L 1.599 2.583 L 1.602 2.598 L 1.606 2.613 L 1.596 2.792 L 1.6 2.801 L 1.604 2.809 L 1.608 2.816 L 1.612 2.823 L 1.616 2.83 L 1.62 2.837 L 1.624 2.843 L 1.627 2.849 L 1.631 2.855 L 1.635 2.86 L 1.639 2.865 L 1.643 2.87 L 1.647 2.874 L 1.65 2.877 L 1.658 2.838 L 1.661 2.843 L 1.665 2.848 L 1.668 2.853 L 1.671 2.858 L 1.675 2.863 L 1.678 2.868 L 1.681 2.872 L 1.684 2.877 L 1.687 2.881 L 1.691 2.886 L 1.694 2.89 L 1.697 2.895 L 1.699 2.899 L 1.702 2.903 L 1.705 2.908 L 1.708 2.912 L 1.711 2.916 L 1.713 2.92 L 1.716 2.924 L 1.718 2.928 L 1.721 2.932 L 1.723 2.936 L 1.726 2.94 L 1.728 2.943 L 1.731 2.947 L 1.733 2.951 L 1.735 2.954 L 1.737 2.957 L 1.739 2.961 L 1.742 2.964 L 1.744 2.968 L 1.746 2.971 L 1.748 2.974 L 1.749 2.977 L 1.751 2.98 L 1.753 2.983 L 1.755 2.986 L 1.757 2.989 L 1.758 2.992 L 1.76 2.994 L 1.762 2.997 L 1.763 2.999 L 1.765 3.002 L 1.766 3.004 L 1.768 3.007 L 1.769 3.009 L 1.771 3.011 L 1.772 3.013 L 1.773 3.015 L 1.774 3.017 L 1.776 3.019 L 1.777 3.021 L 1.778 3.023 L 1.779 3.024 L 1.78 3.026 L 1.781 3.027 L 1.782 3.029 L 1.783 3.03 L 1.784 3.032 L 1.785 3.033 L 1.786 3.034 L 1.787 3.035 L 1.787 3.036 L 1.788 3.037 L 1.789 3.038 M 5.445 5.113 m -0.063 0 a 0.063 0.063 0 0 1 0.126 0 a 0.063 0.063 0 0 1 -0.126 0 z M 5.458 5.743 m -0.063 0 a 0.063 0.063 0 0 1 0.126 0 a 0.063 0.063 0 0 1 -0.126 0 z M 5.487 6.324 m -0.063 0 a 0.063 0.063 0 0 1 0.126 0 a 0.063 0.063 0 0 1 -0.126 0 z M 5.563 7.169 m -0.063 0 a 0.063 0.063 0 0 1 0.126 0 a 0.063 0.063 0 0 1 -0.126 0 z M 5.777 9.158 m -0.063 0 a 0.063 0.063 0 0 1 0.126 0 a 0.063 0.063 0 0 1 -0.126 0 z M 5.85 12.454 m -0.063 0 a 0.063 0.063 0 0 1 0.126 0 a 0.063 0.063 0 0 1 -0.126 0 z M 6.061 9.2 m -0.063 0 a 0.063 0.063 0 0 1 0.126 0 a 0.063 0.063 0 0 1 -0.126 0 z M 6.157 12.461 m -0.063 0 a 0.063 0.063 0 0 1 0.126 0 a 0.063 0.063 0 0 1 -0.126 0 z M 6.865 9.209 m -0.063 0 a 0.063 0.063 0 0 1 0.126 0 a 0.063 0.063 0 0 1 -0.126 0 z M 6.076 7.199 m -0.063 0 a 0.063 0.063 0 0 1 0.126 0 a 0.063 0.063 0 0 1 -0.126 0 z M 7.05 12.499 m -0.063 0 a 0.063 0.063 0 0 1 0.126 0 a 0.063 0.063 0 0 1 -0.126 0 z M 6.798 7.191 m -0.063 0 a 0.063 0.063 0 0 1 0.126 0 a 0.063 0.063 0 0 1 -0.126 0 z M 5.867 6.357 m -0.063 0 a 0.063 0.063 0 0 1 0.126 0 a 0.063 0.063 0 0 1 -0.126 0 z M 7.691 12.506 m -0.063 0 a 0.063 0.063 0 0 1 0.126 0 a 0.063 0.063 0 0 1 -0.126 0 z M 6.746 6.344 m -0.063 0 a 0.063 0.063 0 0 1 0.126 0 a 0.063 0.063 0 0 1 -0.126 0 z M 5.873 5.779 m -0.063 0 a 0.063 0.063 0 0 1 0.126 0 a 0.063 0.063 0 0 1 -0.126 0 z M 8.244 12.507 m -0.063 0 a 0.063 0.063 0 0 1 0.126 0 a 0.063 0.063 0 0 1 -0.126 0 z M 6.851 5.761 m -0.063 0 a 0.063 0.063 0 0 1 0.126 0 a 0.063 0.063 0 0 1 -0.126 0 z M 5.895 5.154 m -0.063 0 a 0.063 0.063 0 0 1 0.126 0 a 0.063 0.063 0 0 1 -0.126 0 z M 8.732 12.481 m -0.063 0 a 0.063 0.063 0 0 1 0.126 0 a 0.063 0.063 0 0 1 -0.126 0 z M 6.58 5.144 m -0.063 0 a 0.063 0.063 0 0 1 0.126 0 a 0.063 0.063 0 0 1 -0.126 0 z M 5.767 4.781 m -0.063 0 a 0.063 0.063 0 0 1 0.126 0 a 0.063 0.063 0 0 1 -0.126 0 z M 1.722 2.143 L 1.724 2.146 L 1.725 2.15 L 1.726 2.153 L 1.728 2.157 L 1.729 2.16 L 1.73 2.164 L 1.732 2.167 L 1.733 2.17 L 1.734 2.174 L 1.735 2.177 L 1.736 2.18 L 1.737 2.183 L 1.738 2.186 L 1.739 2.189 L 1.74 2.192 L 1.741 2.195 L 1.742 2.198 L 1.743 2.201 L 1.744 2.204 L 1.745 2.207 L 1.746 2.21 L 1.746 2.212 L 1.747 2.215 L 1.748 2.217 L 1.749 2.22 L 1.749 2.222 L 1.75 2.225 L 1.75 2.227 L 1.751 2.23 L 1.752 2.232 L 1.752 2.234 L 1.753 2.236 L 1.753 2.238 L 1.753 2.24 L 1.754 2.242 L 1.754 2.244 L 1.755 2.246 L 1.755 2.248 L 1.755 2.25 L 1.756 2.251 L 1.756 2.253 L 1.756 2.255 L 1.757 2.256 L 1.757 2.258 L 1.757 2.259 L 1.757 2.26 L 1.758 2.262 L 1.758 2.263 L 1.758 2.264 L 1.758 2.265 M 1.745 3.539 L 1.745 3.538 L 1.746 3.537 L 1.746 3.536 L 1.747 3.535 L 1.747 3.534 L 1.748 3.533 L 1.748 3.531 L 1.749 3.53 L 1.749 3.528 L 1.749 3.527 M 1.797 3.032 L 1.797 3.033 L 1.797 3.034 L 1.797 3.035 Z" id="red" stroke="red" style="stroke:red" vector-effect="non-scaling-stroke"/><path d="M 5.445 4.783 m -0.063 0 a 0.063 0.063 0 0 1 0.126 0 a 0.063 0.063 0 0 1 -0.126 0 z M 5.446 5.158 m -0.063 0 a 0.063 0.063 0 0 1 0.126 0 a 0.063 0.063 0 0 1 -0.126 0 z M 5.46 5.782 m -0.063 0 a 0.063 0.063 0 0 1 0.126 0 a 0.063 0.063 0 0 1 -0.126 0 z M 5.49 6.358 m -0.063 0 a 0.063 0.063 0 0 1 0.126 0 a 0.063 0.063 0 0 1 -0.126 0 z M 5.566 7.198 m -0.063 0 a 0.063 0.063 0 0 1 0.126 0 a 0.063 0.063 0 0 1 -0.126 0 z M 5.78 9.196 m -0.063 0 a 0.063 0.063 0 0 1 0.126 0 a 0.063 0.063 0 0 1 -0.126 0 z M 6.14 12.458 m -0.063 0 a 0.063 0.063 0 0 1 0.126 0 a 0.063 0.063 0 0 1 -0.126 0 z M 6.06 9.2 m -0.063 0 a 0.063 0.063 0 0 1 0.126 0 a 0.063 0.063 0 0 1 -0.126 0 z M 6.918 12.467 m -0.063 0 a 0.063 0.063 0 0 1 0.126 0 a 0.063 0.063 0 0 1 -0.126 0 z M 6.862 9.172 m -0.063 0 a 0.063 0.063 0 0 1 0.126 0 a 0.063 0.063 0 0 1 -0.126 0 z M 6.054 7.199 m -0.063 0 a 0.063 0.063 0 0 1 0.126 0 a 0.063 0.063 0 0 1 -0.126 0 z M 7.548 12.482 m -0.063 0 a 0.063 0.063 0 0 1 0.126 0 a 0.063 0.063 0 0 1 -0.126 0 z M 6.774 7.162 m -0.063 0 a 0.063 0.063 0 0 1 0.126 0 a 0.063 0.063 0 0 1 -0.126 0 z M 5.836 6.357 m -0.063 0 a 0.063 0.063 0 0 1 0.126 0 a 0.063 0.063 0 0 1 -0.126 0 z M 8.061 12.477 m -0.063 0 a 0.063 0.063 0 0 1 0.126 0 a 0.063 0.063 0 0 1 -0.126 0 z M 6.712 6.309 m -0.063 0 a 0.063 0.063 0 0 1 0.126 0 a 0.063 0.063 0 0 1 -0.126 0 z M 5.834 5.779 m -0.063 0 a 0.063 0.063 0 0 1 0.126 0 a 0.063 0.063 0 0 1 -0.126 0 z M 8.657 12.447 m -0.063 0 a 0.063 0.063 0 0 1 0.126 0 a 0.063 0.063 0 0 1 -0.126 0 z M 6.811 5.723 m -0.063 0 a 0.063 0.063 0 0 1 0.126 0 a 0.063 0.063 0 0 1 -0.126 0 z M 5.818 5.155 m -0.063 0 a 0.063 0.063 0 0 1 0.126 0 a 0.063 0.063 0 0 1 -0.126 0 z M 9.24 12.382 m -0.063 0 a 0.063 0.063 0 0 1 0.126 0 a 0.063 0.063 0 0 1 -0.126 0 z M 6.509 5.101 m -0.063 0 a 0.063 0.063 0 0 1 0.126 0 a 0.063 0.063 0 0 1 -0.126 0 z" id="green" stroke="green" style="stroke:green" vector-effect="non-scaling-stroke"/></g></svg>