<svg width="10.591in" height="12.767in" viewBox="0 0 10.591 12.767" xmlns="http://www.w3.org/2000/svg"><g id="svgGroup" stroke-linecap="round" fill-rule="evenodd" font-size="9pt" stroke="#000" stroke-width="1.5px" fill="none" style="stroke:#000;stroke-width:1.5px;fill:none"><path d="M 2.708 0.001 A 734.64 734.64 0 0 1 3.663 0.001 C 7.26 0.006 7.579 0.07 10.32 0.903 A 809.055 809.055 0 0 1 10.591 0.985 A 2098.164 2098.164 0 0 1 10.454 1.017 C 7.588 1.67 7.317 1.719 3.663 1.723 A 979.706 979.706 0 0 1 2.708 1.723 M 3.527 1.98 C 7.314 1.925 7.553 1.498 10.461 1.486 C 7.553 1.498 7.314 1.925 3.527 1.98 Z M 0.985 4.485 L 0.985 1.485 C 1.723 1.485 1.723 1.985 1.723 1.985 M 2.708 1.985 A 57.352 57.352 0 0 0 3.527 1.98 A 57.352 57.352 0 0 1 2.708 1.985 Z M 0.001 1.985 A 0.154 0.154 0 0 1 0.002 1.969 C 0.012 1.885 0.101 1.516 0.887 1.487 A 2.712 2.712 0 0 1 0.985 1.485 M 10.591 1.485 A 30.547 30.547 0 0 0 10.461 1.486 A 30.547 30.547 0 0 1 10.591 1.485 Z M 2.708 0.985 10.591 0.985 M 2.708 4.485 C 7.358 4.485 9.788 4.485 10.591 1.485" vector-effect="non-scaling-stroke"/><path d="M 8.586 2.331 C 7.953 3.147 3.406 3.663 2.779 3.728 A 3.121 3.121 0 0 1 2.708 3.735 M 8.586 1.354 A 3.613 3.613 0 0 0 8.566 1.354 C 7.835 1.354 3.048 1.54 2.725 1.551 A 1.421 1.421 0 0 1 2.708 1.552 M 1.552 3.735 A 0.612 0.612 0 0 1 1.547 3.722 C 1.516 3.635 1.354 3.135 1.354 2.355 A 5.623 5.623 0 0 1 1.354 2.331 M 5.514 6.756 m -0.063 0 a 0.063 0.063 0 0 1 0.126 0 a 0.063 0.063 0 0 1 -0.126 0 z M 5.927 12.653 m -0.063 0 a 0.063 0.063 0 0 1 0.126 0 a 0.063 0.063 0 0 1 -0.126 0 z M 6.295 6.76 m -0.063 0 a 0.063 0.063 0 0 1 0.126 0 a 0.063 0.063 0 0 1 -0.126 0 z M 8.162 12.634 m -0.063 0 a 0.063 0.063 0 0 1 0.126 0 a 0.063 0.063 0 0 1 -0.126 0 z M 7.934 6.699 m -0.063 0 a 0.063 0.063 0 0 1 0.126 0 a 0.063 0.063 0 0 1 -0.126 0 z M 5.584 4.754 m -0.063 0 a 0.063 0.063 0 0 1 0.126 0 a 0.063 0.063 0 0 1 -0.126 0 z M 4.359 6.607 m -0.063 0 a 0.063 0.063 0 0 1 0.126 0 a 0.063 0.063 0 0 1 -0.126 0 z M 3.943 12.704 m -0.063 0 a 0.063 0.063 0 0 1 0.126 0 a 0.063 0.063 0 0 1 -0.126 0 z M 3.608 6.606 m -0.063 0 a 0.063 0.063 0 0 1 0.126 0 a 0.063 0.063 0 0 1 -0.126 0 z M 1.477 12.636 m -0.063 0 a 0.063 0.063 0 0 1 0.126 0 a 0.063 0.063 0 0 1 -0.126 0 z M 1.982 6.508 m -0.063 0 a 0.063 0.063 0 0 1 0.126 0 a 0.063 0.063 0 0 1 -0.126 0 z M 4.259 4.754 m -0.063 0 a 0.063 0.063 0 0 1 0.126 0 a 0.063 0.063 0 0 1 -0.126 0 z" id="red" stroke="red" style="stroke:red" vector-effect="non-scaling-stroke"/><path d="M 5.447 4.755 L 5.447 4.775 L 5.446 4.794 L 5.446 4.814 L 5.446 4.833 L 5.446 4.853 L 5.446 4.872 L 5.446 4.891 L 5.446 4.91 L 5.446 4.93 L 5.446 4.949 L 5.446 4.968 L 5.446 4.986 L 5.446 5.005 L 5.446 5.024 L 5.446 5.043 L 5.446 5.061 L 5.446 5.08 L 5.446 5.098 L 5.446 5.116 L 5.446 5.135 L 5.446 5.153 L 5.447 5.171 L 5.447 5.189 L 5.447 5.207 L 5.447 5.225 L 5.447 5.243 L 5.447 5.261 L 5.448 5.278 L 5.448 5.296 L 5.448 5.314 L 5.448 5.331 L 5.448 5.349 L 5.449 5.366 L 5.449 5.383 L 5.449 5.4 L 5.45 5.418 L 5.45 5.435 L 5.45 5.452 L 5.45 5.469 L 5.451 5.486 L 5.451 5.503 L 5.451 5.519 L 5.452 5.536 L 5.452 5.553 L 5.453 5.569 L 5.453 5.586 L 5.453 5.602 L 5.454 5.619 L 5.454 5.635 L 5.455 5.652 L 5.455 5.668 L 5.455 5.684 L 5.456 5.7 L 5.456 5.716 L 5.457 5.732 L 5.457 5.748 L 5.458 5.764 L 5.458 5.78 L 5.459 5.796 L 5.459 5.811 L 5.46 5.827 L 5.46 5.843 L 5.461 5.858 L 5.462 5.874 L 5.462 5.889 L 5.463 5.905 L 5.463 5.92 L 5.464 5.935 L 5.465 5.95 L 5.465 5.966 L 5.466 5.981 L 5.466 5.996 L 5.467 6.011 L 5.468 6.026 L 5.468 6.041 L 5.469 6.056 L 5.47 6.07 L 5.47 6.085 L 5.471 6.1 L 5.472 6.115 L 5.473 6.129 L 5.473 6.144 L 5.474 6.158 L 5.475 6.173 L 5.476 6.187 L 5.476 6.202 L 5.477 6.216 L 5.478 6.23 L 5.479 6.245 L 5.479 6.259 L 5.48 6.273 L 5.481 6.287 L 5.482 6.301 L 5.483 6.315 L 5.484 6.329 L 5.484 6.343 L 5.485 6.357 L 5.486 6.371 L 5.487 6.385 L 5.488 6.398 L 5.489 6.412 L 5.49 6.426 L 5.49 6.439 L 5.491 6.453 L 5.492 6.467 L 5.493 6.48 L 5.494 6.494 L 5.495 6.507 L 5.496 6.521 L 5.497 6.534 L 5.498 6.547 L 5.499 6.561 L 5.5 6.574 L 5.501 6.587 L 5.502 6.6 L 5.503 6.613 L 5.504 6.627 L 5.505 6.64 L 5.506 6.653 L 5.507 6.666 L 5.508 6.679 L 5.509 6.692 L 5.51 6.705 L 5.511 6.717 L 5.512 6.73 L 5.513 6.743 L 5.514 6.756 L 5.515 6.769 L 5.516 6.781 L 5.517 6.794 L 5.519 6.807 L 5.52 6.819 L 5.521 6.832 L 5.522 6.844 L 5.523 6.857 L 5.524 6.87 L 5.525 6.882 L 5.526 6.894 L 5.528 6.907 L 5.529 6.919 L 5.53 6.932 L 5.531 6.944 L 5.532 6.956 L 5.533 6.969 L 5.535 6.981 L 5.536 6.993 L 5.537 7.005 L 5.538 7.018 L 5.539 7.03 L 5.541 7.042 L 5.542 7.054 L 5.543 7.066 L 5.544 7.078 L 5.545 7.09 L 5.547 7.102 L 5.548 7.115 L 5.549 7.127 L 5.55 7.139 L 5.552 7.151 L 5.553 7.162 L 5.554 7.174 L 5.555 7.186 L 5.557 7.198 L 5.558 7.21 L 5.559 7.222 L 5.561 7.234 L 5.562 7.246 L 5.563 7.258 L 5.564 7.269 L 5.566 7.281 L 5.567 7.293 L 5.568 7.305 L 5.57 7.317 L 5.571 7.328 L 5.572 7.34 L 5.574 7.352 L 5.575 7.363 L 5.576 7.375 L 5.578 7.387 L 5.579 7.399 L 5.58 7.41 L 5.582 7.422 L 5.583 7.434 L 5.584 7.445 L 5.586 7.457 L 5.587 7.468 L 5.588 7.48 L 5.59 7.492 L 5.591 7.503 L 5.593 7.515 L 5.594 7.527 L 5.595 7.538 L 5.597 7.55 L 5.598 7.561 L 5.6 7.573 L 5.601 7.584 L 5.602 7.596 L 5.604 7.608 L 5.605 7.619 L 5.607 7.631 L 5.608 7.642 L 5.609 7.654 L 5.611 7.665 L 5.612 7.677 L 5.614 7.688 L 5.615 7.7 L 5.616 7.712 L 5.618 7.723 L 5.619 7.735 L 5.621 7.746 L 5.622 7.758 L 5.624 7.769 L 5.625 7.781 L 5.627 7.792 L 5.628 7.804 L 5.629 7.816 L 5.631 7.827 L 5.632 7.839 L 5.634 7.85 L 5.635 7.862 L 5.637 7.873 L 5.638 7.885 L 5.64 7.897 L 5.641 7.908 L 5.643 7.92 L 5.644 7.931 L 5.646 7.943 L 5.647 7.955 L 5.648 7.966 L 5.65 7.978 L 5.651 7.99 L 5.653 8.001 L 5.654 8.013 L 5.656 8.025 L 5.657 8.037 L 5.659 8.048 L 5.66 8.06 L 5.662 8.072 L 5.663 8.083 L 5.665 8.095 L 5.666 8.107 L 5.668 8.119 L 5.669 8.131 L 5.671 8.142 L 5.672 8.154 L 5.674 8.166 L 5.675 8.178 L 5.677 8.19 L 5.678 8.202 L 5.68 8.214 L 5.681 8.226 L 5.683 8.238 L 5.684 8.25 L 5.685 8.262 L 5.687 8.274 L 5.688 8.286 L 5.69 8.298 L 5.691 8.31 L 5.693 8.322 L 5.694 8.334 L 5.696 8.346 L 5.697 8.358 L 5.699 8.37 L 5.7 8.383 L 5.702 8.395 L 5.703 8.407 L 5.705 8.419 L 5.706 8.432 L 5.708 8.444 L 5.709 8.456 L 5.711 8.469 L 5.712 8.481 L 5.714 8.493 L 5.715 8.506 L 5.717 8.518 L 5.718 8.531 L 5.72 8.543 L 5.721 8.556 L 5.723 8.569 L 5.724 8.581 L 5.725 8.594 L 5.727 8.606 L 5.728 8.619 L 5.73 8.632 L 5.731 8.645 L 5.733 8.657 L 5.734 8.67 L 5.736 8.683 L 5.737 8.696 L 5.739 8.709 L 5.74 8.722 L 5.742 8.735 L 5.743 8.748 L 5.744 8.761 L 5.746 8.774 L 5.747 8.787 L 5.749 8.8 L 5.75 8.813 L 5.752 8.827 L 5.753 8.84 L 5.755 8.853 L 5.756 8.866 L 5.757 8.88 L 5.759 8.893 L 5.76 8.907 L 5.762 8.92 L 5.763 8.934 L 5.764 8.947 L 5.766 8.961 L 5.767 8.974 L 5.769 8.988 L 5.77 9.002 L 5.772 9.016 L 5.773 9.029 L 5.774 9.043 L 5.776 9.057 L 5.777 9.071 L 5.778 9.085 L 5.78 9.099 L 5.781 9.113 L 5.783 9.127 L 5.784 9.141 L 5.785 9.156 L 5.787 9.17 L 5.788 9.184 L 5.789 9.198 L 5.791 9.213 L 5.792 9.227 L 5.794 9.242 L 5.795 9.256 L 5.796 9.271 L 5.798 9.285 L 5.799 9.3 L 5.8 9.315 L 5.802 9.33 L 5.803 9.344 L 5.804 9.359 L 5.805 9.374 L 5.807 9.389 L 5.808 9.404 L 5.809 9.419 L 5.811 9.434 L 5.812 9.45 L 5.813 9.465 L 5.815 9.48 L 5.816 9.495 L 5.817 9.511 L 5.818 9.526 L 5.82 9.542 L 5.821 9.557 L 5.822 9.573 L 5.823 9.589 L 5.825 9.604 L 5.826 9.62 L 5.827 9.636 L 5.828 9.652 L 5.829 9.668 L 5.831 9.684 L 5.832 9.7 L 5.833 9.716 L 5.834 9.732 L 5.836 9.749 L 5.837 9.765 L 5.838 9.781 L 5.839 9.798 L 5.84 9.814 L 5.841 9.831 L 5.843 9.847 L 5.844 9.864 L 5.845 9.881 L 5.846 9.898 L 5.847 9.915 L 5.848 9.931 L 5.849 9.948 L 5.851 9.966 L 5.852 9.983 L 5.853 10 L 5.854 10.017 L 5.855 10.034 L 5.856 10.052 L 5.857 10.069 L 5.858 10.087 L 5.859 10.104 L 5.86 10.122 L 5.861 10.14 L 5.862 10.158 L 5.863 10.176 L 5.865 10.194 L 5.866 10.212 L 5.867 10.23 L 5.868 10.248 L 5.869 10.266 L 5.87 10.284 L 5.871 10.303 L 5.872 10.321 L 5.873 10.34 L 5.874 10.358 L 5.875 10.377 L 5.875 10.396 L 5.876 10.415 L 5.877 10.433 L 5.878 10.452 L 5.879 10.471 L 5.88 10.491 L 5.881 10.51 L 5.882 10.529 L 5.883 10.548 L 5.884 10.568 L 5.885 10.587 L 5.886 10.607 L 5.886 10.627 L 5.887 10.646 L 5.888 10.666 L 5.889 10.686 L 5.89 10.706 L 5.891 10.726 L 5.891 10.746 L 5.892 10.766 L 5.893 10.787 L 5.894 10.807 L 5.895 10.828 L 5.895 10.848 L 5.896 10.869 L 5.897 10.889 L 5.898 10.91 L 5.899 10.931 L 5.899 10.952 L 5.9 10.973 L 5.901 10.994 L 5.901 11.016 L 5.902 11.037 L 5.903 11.058 L 5.904 11.08 L 5.904 11.101 L 5.905 11.123 L 5.906 11.145 L 5.906 11.167 L 5.907 11.189 L 5.907 11.211 L 5.908 11.233 L 5.909 11.255 L 5.909 11.277 L 5.91 11.3 L 5.91 11.322 L 5.911 11.345 L 5.912 11.367 L 5.912 11.39 L 5.913 11.413 L 5.913 11.436 L 5.914 11.459 L 5.914 11.482 L 5.915 11.505 L 5.915 11.528 L 5.916 11.552 L 5.916 11.575 L 5.917 11.599 L 5.917 11.623 L 5.918 11.646 L 5.918 11.67 L 5.919 11.694 L 5.919 11.718 L 5.919 11.742 L 5.92 11.767 L 5.92 11.791 L 5.921 11.816 L 5.921 11.84 L 5.921 11.865 L 5.922 11.89 L 5.922 11.914 L 5.922 11.939 L 5.923 11.965 L 5.923 11.99 L 5.923 12.015 L 5.923 12.04 L 5.924 12.066 L 5.924 12.091 L 5.924 12.117 L 5.924 12.143 L 5.925 12.169 L 5.925 12.195 L 5.925 12.221 L 5.925 12.247 L 5.926 12.273 L 5.926 12.3 L 5.926 12.326 L 5.926 12.353 L 5.926 12.38 L 5.926 12.407 L 5.926 12.434 L 5.926 12.461 L 5.927 12.488 L 5.927 12.515 L 5.927 12.543 L 5.927 12.57 L 5.927 12.598 L 5.927 12.625 L 5.927 12.653 L 7.691 12.652 L 7.691 12.624 L 7.691 12.597 L 7.691 12.569 L 7.691 12.541 L 7.69 12.514 L 7.69 12.486 L 7.69 12.459 L 7.69 12.432 L 7.689 12.404 L 7.689 12.377 L 7.689 12.354 L 7.688 12.327 L 7.688 12.3 L 7.687 12.273 L 7.687 12.246 L 7.686 12.219 L 7.686 12.193 L 7.685 12.166 L 7.685 12.143 L 7.684 12.117 L 7.683 12.091 L 7.683 12.064 L 7.682 12.038 L 7.681 12.012 L 7.681 11.99 L 7.68 11.964 L 7.679 11.938 L 7.678 11.912 L 7.678 11.89 L 7.677 11.864 L 7.676 11.839 L 7.675 11.813 L 7.674 11.791 L 7.673 11.766 L 7.673 11.74 L 7.672 11.715 L 7.671 11.693 L 7.67 11.668 L 7.669 11.643 L 7.668 11.622 L 7.667 11.597 L 7.666 11.572 L 7.665 11.551 L 7.664 11.526 L 7.662 11.502 L 7.661 11.481 L 7.66 11.456 L 7.659 11.435 L 7.658 11.411 L 7.657 11.387 L 7.655 11.366 L 7.654 11.342 L 7.653 11.321 L 7.652 11.297 L 7.65 11.276 L 7.649 11.253 L 7.648 11.229 L 7.646 11.208 L 7.645 11.185 L 7.644 11.165 L 7.642 11.141 L 7.641 11.121 L 7.639 11.097 L 7.638 11.077 L 7.636 11.054 L 7.635 11.034 L 7.633 11.011 L 7.632 10.991 L 7.63 10.972 L 7.629 10.949 L 7.627 10.929 L 7.626 10.906 L 7.624 10.887 L 7.622 10.867 L 7.621 10.845 L 7.619 10.825 L 7.617 10.803 L 7.616 10.783 L 7.614 10.764 L 7.612 10.742 L 7.61 10.723 L 7.609 10.704 L 7.607 10.682 L 7.605 10.663 L 7.603 10.644 L 7.602 10.622 L 7.6 10.603 L 7.598 10.585 L 7.596 10.563 L 7.594 10.544 L 7.592 10.526 L 7.59 10.507 L 7.588 10.486 L 7.586 10.467 L 7.584 10.449 L 7.582 10.431 L 7.58 10.41 L 7.578 10.391 L 7.576 10.373 L 7.574 10.355 L 7.572 10.334 L 7.57 10.316 L 7.568 10.298 L 7.566 10.28 L 7.564 10.263 L 7.561 10.242 L 7.559 10.224 L 7.557 10.206 L 7.555 10.189 L 7.553 10.171 L 7.55 10.153 L 7.548 10.136 L 7.546 10.119 L 7.543 10.098 L 7.541 10.081 L 7.539 10.064 L 7.536 10.046 L 7.534 10.029 L 7.532 10.012 L 7.529 9.995 L 7.527 9.978 L 7.525 9.961 L 7.522 9.944 L 7.52 9.927 L 7.517 9.91 L 7.515 9.893 L 7.512 9.874 L 7.509 9.857 L 7.507 9.84 L 7.504 9.824 L 7.502 9.807 L 7.499 9.79 L 7.497 9.774 L 7.494 9.758 L 7.492 9.741 L 7.489 9.724 L 7.486 9.711 L 7.484 9.695 L 7.481 9.678 L 7.478 9.662 L 7.475 9.646 L 7.473 9.63 L 7.47 9.614 L 7.467 9.598 L 7.464 9.582 L 7.461 9.566 L 7.459 9.55 L 7.456 9.534 L 7.453 9.518 L 7.45 9.502 L 7.448 9.489 L 7.445 9.474 L 7.442 9.458 L 7.439 9.442 L 7.436 9.427 L 7.433 9.411 L 7.43 9.396 L 7.427 9.38 L 7.424 9.367 L 7.421 9.352 L 7.418 9.337 L 7.415 9.321 L 7.412 9.306 L 7.409 9.29 L 7.406 9.278 L 7.403 9.263 L 7.4 9.248 L 7.396 9.233 L 7.393 9.217 L 7.39 9.205 L 7.387 9.19 L 7.384 9.175 L 7.381 9.16 L 7.377 9.145 L 7.374 9.133 L 7.371 9.118 L 7.368 9.104 L 7.364 9.088 L 7.361 9.077 L 7.358 9.062 L 7.354 9.047 L 7.351 9.032 L 7.348 9.021 L 7.344 9.006 L 7.341 8.992 L 7.338 8.977 L 7.334 8.965 L 7.331 8.951 L 7.327 8.936 L 7.324 8.925 L 7.321 8.91 L 7.317 8.896 L 7.314 8.881 L 7.31 8.87 L 7.306 8.856 L 7.303 8.841 L 7.3 8.83 L 7.296 8.816 L 7.292 8.801 L 7.289 8.79 L 7.285 8.776 L 7.281 8.762 L 7.278 8.751 L 7.274 8.737 L 7.271 8.723 L 7.267 8.712 L 7.263 8.698 L 7.26 8.683 L 7.256 8.673 L 7.252 8.659 L 7.248 8.645 L 7.245 8.634 L 7.241 8.62 L 7.237 8.606 L 7.233 8.595 L 7.229 8.582 L 7.226 8.568 L 7.222 8.557 L 7.218 8.544 L 7.214 8.53 L 7.21 8.519 L 7.206 8.505 L 7.202 8.494 L 7.198 8.481 L 7.194 8.467 L 7.191 8.457 L 7.186 8.444 L 7.182 8.43 L 7.178 8.419 L 7.174 8.406 L 7.17 8.395 L 7.166 8.382 L 7.162 8.369 L 7.158 8.358 L 7.154 8.345 L 7.149 8.332 L 7.145 8.321 L 7.141 8.308 L 7.137 8.297 L 7.133 8.285 L 7.128 8.271 L 7.124 8.261 L 7.12 8.248 L 7.116 8.235 L 7.112 8.224 L 7.107 8.211 L 7.103 8.201 L 7.098 8.188 L 7.094 8.175 L 7.089 8.165 L 7.085 8.152 L 7.081 8.139 L 7.076 8.129 L 7.071 8.116 L 7.067 8.106 L 7.063 8.093 L 7.058 8.08 L 7.054 8.07 L 7.049 8.057 L 7.044 8.044 L 7.04 8.034 L 7.035 8.021 L 7.031 8.011 L 7.026 7.999 L 7.021 7.986 L 7.017 7.976 L 7.012 7.964 L 7.007 7.951 L 7.002 7.941 L 6.998 7.929 L 6.992 7.916 L 6.988 7.906 L 6.983 7.894 L 6.978 7.881 L 6.973 7.871 L 6.968 7.859 L 6.963 7.846 L 6.959 7.836 L 6.953 7.824 L 6.948 7.811 L 6.943 7.802 L 6.938 7.789 L 6.933 7.777 L 6.928 7.765 L 6.923 7.755 L 6.918 7.743 L 6.913 7.73 L 6.907 7.72 L 6.902 7.708 L 6.897 7.697 L 6.891 7.684 L 6.886 7.674 L 6.88 7.662 L 6.875 7.65 L 6.87 7.638 L 6.864 7.628 L 6.859 7.616 L 6.853 7.604 L 6.847 7.592 L 6.843 7.582 L 6.837 7.57 L 6.831 7.558 L 6.825 7.546 L 6.82 7.534 L 6.814 7.524 L 6.808 7.512 L 6.802 7.5 L 6.796 7.489 L 6.79 7.477 L 6.785 7.465 L 6.779 7.455 L 6.773 7.443 L 6.767 7.431 L 6.761 7.419 L 6.755 7.407 L 6.748 7.396 L 6.741 7.384 L 6.735 7.372 L 6.729 7.36 L 6.723 7.348 L 6.717 7.338 L 6.71 7.326 L 6.704 7.315 L 6.697 7.303 L 6.691 7.291 L 6.684 7.279 L 6.677 7.268 L 6.67 7.256 L 6.664 7.244 L 6.657 7.232 L 6.65 7.221 L 6.643 7.209 L 6.636 7.197 L 6.628 7.186 L 6.621 7.172 L 6.614 7.161 L 6.607 7.149 L 6.599 7.137 L 6.592 7.125 L 6.584 7.114 L 6.577 7.102 L 6.568 7.09 L 6.561 7.077 L 6.553 7.065 L 6.544 7.054 L 6.537 7.042 L 6.528 7.03 L 6.519 7.017 L 6.511 7.005 L 6.502 6.994 L 6.494 6.982 L 6.485 6.969 L 6.476 6.957 L 6.466 6.945 L 6.457 6.932 L 6.447 6.92 L 6.438 6.909 L 6.427 6.896 L 6.418 6.884 L 6.407 6.871 L 6.396 6.859 L 6.385 6.847 L 6.374 6.834 L 6.362 6.822 L 6.349 6.809 L 6.337 6.797 L 6.323 6.784 L 6.31 6.772 L 6.295 6.76 L 6.291 6.759 L 6.306 6.772 L 6.319 6.78 L 6.333 6.797 L 6.345 6.805 L 6.358 6.822 L 6.37 6.829 L 6.381 6.847 L 6.392 6.854 L 6.403 6.866 L 6.413 6.883 L 6.423 6.891 L 6.433 6.908 L 6.443 6.916 L 6.453 6.928 L 6.462 6.945 L 6.471 6.953 L 6.48 6.965 L 6.489 6.982 L 6.498 6.989 L 6.506 7.001 L 6.515 7.013 L 6.524 7.031 L 6.532 7.038 L 6.54 7.05 L 6.548 7.062 L 6.556 7.073 L 6.564 7.091 L 6.572 7.098 L 6.579 7.11 L 6.587 7.122 L 6.594 7.134 L 6.602 7.145 L 6.609 7.157 L 6.616 7.169 L 6.623 7.187 L 6.63 7.194 L 6.638 7.206 L 6.645 7.217 L 6.651 7.229 L 6.659 7.241 L 6.665 7.253 L 6.672 7.265 L 6.679 7.276 L 6.686 7.288 L 6.692 7.3 L 6.698 7.312 L 6.705 7.324 L 6.712 7.335 L 6.717 7.338 L 6.724 7.358 L 6.73 7.369 L 6.736 7.381 L 6.743 7.393 L 6.749 7.405 L 6.755 7.417 L 6.762 7.429 L 6.768 7.44 L 6.774 7.452 L 6.779 7.454 L 6.785 7.475 L 6.791 7.486 L 6.797 7.498 L 6.803 7.51 L 6.809 7.522 L 6.814 7.524 L 6.82 7.544 L 6.826 7.556 L 6.832 7.568 L 6.838 7.58 L 6.842 7.582 L 6.848 7.603 L 6.854 7.615 L 6.859 7.627 L 6.865 7.628 L 6.871 7.649 L 6.876 7.661 L 6.882 7.673 L 6.886 7.675 L 6.892 7.696 L 6.897 7.708 L 6.903 7.72 L 6.908 7.721 L 6.913 7.742 L 6.919 7.754 L 6.923 7.756 L 6.929 7.777 L 6.935 7.789 L 6.94 7.801 L 6.944 7.803 L 6.95 7.824 L 6.955 7.836 L 6.959 7.838 L 6.965 7.859 L 6.97 7.871 L 6.975 7.873 L 6.981 7.894 L 6.985 7.906 L 6.989 7.908 L 6.995 7.929 L 7 7.942 L 7.004 7.943 L 7.01 7.964 L 7.015 7.977 L 7.019 7.979 L 7.025 8 L 7.03 8.012 L 7.034 8.014 L 7.04 8.036 L 7.043 8.037 L 7.049 8.059 L 7.053 8.071 L 7.058 8.073 L 7.063 8.095 L 7.068 8.107 L 7.072 8.109 L 7.077 8.131 L 7.081 8.133 L 7.086 8.154 L 7.091 8.167 L 7.095 8.169 L 7.101 8.19 L 7.105 8.203 L 7.109 8.205 L 7.115 8.227 L 7.118 8.229 L 7.124 8.251 L 7.128 8.263 L 7.132 8.266 L 7.137 8.287 L 7.142 8.3 L 7.146 8.303 L 7.151 8.324 L 7.154 8.327 L 7.16 8.348 L 7.165 8.361 L 7.168 8.364 L 7.173 8.386 L 7.178 8.399 L 7.182 8.401 L 7.187 8.423 L 7.19 8.426 L 7.195 8.447 L 7.2 8.461 L 7.204 8.464 L 7.209 8.485 L 7.213 8.498 L 7.217 8.502 L 7.222 8.523 L 7.226 8.526 L 7.231 8.548 L 7.235 8.561 L 7.239 8.565 L 7.244 8.586 L 7.248 8.6 L 7.252 8.603 L 7.257 8.625 L 7.261 8.638 L 7.265 8.642 L 7.27 8.664 L 7.274 8.677 L 7.278 8.681 L 7.283 8.703 L 7.287 8.717 L 7.291 8.72 L 7.296 8.742 L 7.3 8.756 L 7.303 8.76 L 7.308 8.782 L 7.313 8.796 L 7.316 8.8 L 7.321 8.821 L 7.326 8.835 L 7.329 8.84 L 7.334 8.861 L 7.338 8.876 L 7.341 8.88 L 7.346 8.902 L 7.351 8.916 L 7.355 8.93 L 7.358 8.935 L 7.363 8.957 L 7.368 8.971 L 7.371 8.976 L 7.376 8.998 L 7.38 9.012 L 7.385 9.027 L 7.388 9.032 L 7.392 9.053 L 7.397 9.068 L 7.401 9.083 L 7.405 9.088 L 7.409 9.11 L 7.414 9.125 L 7.418 9.139 L 7.421 9.145 L 7.426 9.167 L 7.43 9.182 L 7.435 9.196 L 7.439 9.211 L 7.442 9.218 L 7.447 9.239 L 7.451 9.254 L 7.456 9.269 L 7.46 9.284 L 7.463 9.291 L 7.468 9.312 L 7.472 9.328 L 7.476 9.343 L 7.48 9.358 L 7.485 9.374 L 7.488 9.381 L 7.493 9.402 L 7.497 9.417 L 7.501 9.433 L 7.505 9.449 L 7.509 9.464 L 7.514 9.48 L 7.518 9.495 L 7.521 9.503 L 7.526 9.524 L 7.53 9.54 L 7.534 9.556 L 7.538 9.572 L 7.543 9.588 L 7.547 9.604 L 7.551 9.62 L 7.555 9.636 L 7.559 9.652 L 7.563 9.668 L 7.568 9.684 L 7.572 9.7 L 7.576 9.717 L 7.579 9.725 L 7.584 9.747 L 7.588 9.763 L 7.592 9.78 L 7.596 9.796 L 7.6 9.812 L 7.605 9.829 L 7.609 9.846 L 7.613 9.862 L 7.617 9.879 L 7.622 9.901 L 7.626 9.915 L 7.63 9.932 L 7.634 9.949 L 7.638 9.966 L 7.642 9.983 L 7.647 10 L 7.651 10.017 L 7.655 10.034 L 7.659 10.051 L 7.663 10.068 L 7.667 10.085 L 7.671 10.103 L 7.676 10.125 L 7.68 10.14 L 7.684 10.157 L 7.688 10.175 L 7.692 10.192 L 7.696 10.21 L 7.701 10.227 L 7.705 10.245 L 7.71 10.268 L 7.713 10.283 L 7.718 10.301 L 7.722 10.319 L 7.726 10.337 L 7.731 10.36 L 7.735 10.376 L 7.739 10.394 L 7.743 10.412 L 7.748 10.435 L 7.752 10.451 L 7.755 10.469 L 7.76 10.488 L 7.764 10.511 L 7.768 10.527 L 7.773 10.546 L 7.776 10.564 L 7.781 10.587 L 7.785 10.604 L 7.789 10.623 L 7.794 10.646 L 7.798 10.663 L 7.802 10.682 L 7.807 10.706 L 7.811 10.723 L 7.815 10.742 L 7.82 10.765 L 7.823 10.783 L 7.828 10.802 L 7.832 10.826 L 7.836 10.844 L 7.841 10.867 L 7.845 10.885 L 7.849 10.905 L 7.854 10.929 L 7.858 10.947 L 7.862 10.971 L 7.866 10.989 L 7.87 11.009 L 7.875 11.033 L 7.879 11.051 L 7.884 11.076 L 7.888 11.094 L 7.892 11.119 L 7.896 11.137 L 7.901 11.162 L 7.905 11.181 L 7.909 11.205 L 7.913 11.224 L 7.918 11.249 L 7.923 11.272 L 7.926 11.292 L 7.931 11.317 L 7.935 11.336 L 7.94 11.361 L 7.944 11.381 L 7.948 11.406 L 7.953 11.43 L 7.957 11.45 L 7.962 11.475 L 7.965 11.495 L 7.97 11.52 L 7.975 11.544 L 7.979 11.565 L 7.983 11.59 L 7.988 11.614 L 7.992 11.635 L 7.996 11.66 L 8.001 11.685 L 8.005 11.706 L 8.009 11.732 L 8.014 11.757 L 8.018 11.782 L 8.022 11.803 L 8.027 11.829 L 8.031 11.854 L 8.036 11.879 L 8.04 11.901 L 8.044 11.927 L 8.049 11.953 L 8.053 11.978 L 8.057 12 L 8.062 12.026 L 8.066 12.052 L 8.071 12.078 L 8.075 12.104 L 8.08 12.13 L 8.084 12.153 L 8.088 12.179 L 8.093 12.206 L 8.097 12.232 L 8.101 12.258 L 8.106 12.285 L 8.11 12.312 L 8.115 12.338 L 8.119 12.362 L 8.123 12.389 L 8.127 12.416 L 8.132 12.443 L 8.136 12.47 L 8.141 12.497 L 8.145 12.524 L 8.149 12.551 L 8.154 12.579 L 8.158 12.606 L 8.162 12.634 L 9.129 12.486 L 9.124 12.459 L 9.12 12.431 L 9.116 12.404 L 9.112 12.376 L 9.108 12.349 L 9.103 12.322 L 9.099 12.294 L 9.095 12.267 L 9.091 12.24 L 9.087 12.213 L 9.084 12.193 L 9.08 12.166 L 9.075 12.139 L 9.071 12.112 L 9.067 12.085 L 9.063 12.058 L 9.059 12.032 L 9.055 12.005 L 9.052 11.985 L 9.048 11.958 L 9.044 11.932 L 9.04 11.905 L 9.036 11.879 L 9.032 11.853 L 9.029 11.833 L 9.025 11.807 L 9.021 11.78 L 9.017 11.754 L 9.013 11.735 L 9.009 11.708 L 9.005 11.682 L 9.001 11.656 L 8.998 11.637 L 8.995 11.611 L 8.991 11.585 L 8.987 11.56 L 8.984 11.54 L 8.98 11.515 L 8.976 11.489 L 8.973 11.47 L 8.969 11.444 L 8.965 11.419 L 8.962 11.4 L 8.958 11.374 L 8.954 11.349 L 8.951 11.33 L 8.947 11.304 L 8.944 11.286 L 8.94 11.26 L 8.936 11.235 L 8.934 11.216 L 8.93 11.191 L 8.927 11.173 L 8.923 11.148 L 8.92 11.129 L 8.916 11.104 L 8.912 11.079 L 8.909 11.061 L 8.905 11.036 L 8.903 11.018 L 8.899 10.993 L 8.896 10.975 L 8.892 10.95 L 8.889 10.932 L 8.885 10.907 L 8.882 10.889 L 8.879 10.865 L 8.876 10.846 L 8.873 10.828 L 8.869 10.804 L 8.866 10.786 L 8.862 10.762 L 8.86 10.744 L 8.857 10.725 L 8.853 10.701 L 8.85 10.683 L 8.846 10.66 L 8.844 10.642 L 8.841 10.624 L 8.837 10.6 L 8.834 10.582 L 8.831 10.564 L 8.828 10.541 L 8.825 10.523 L 8.822 10.505 L 8.818 10.482 L 8.815 10.464 L 8.812 10.447 L 8.809 10.423 L 8.806 10.406 L 8.803 10.388 L 8.8 10.371 L 8.797 10.347 L 8.794 10.33 L 8.791 10.313 L 8.788 10.295 L 8.784 10.272 L 8.782 10.255 L 8.779 10.238 L 8.776 10.22 L 8.772 10.198 L 8.77 10.18 L 8.767 10.163 L 8.764 10.146 L 8.761 10.129 L 8.758 10.106 L 8.755 10.089 L 8.752 10.072 L 8.749 10.056 L 8.746 10.039 L 8.744 10.022 L 8.741 10.005 L 8.738 9.988 L 8.734 9.966 L 8.732 9.949 L 8.729 9.932 L 8.726 9.915 L 8.723 9.899 L 8.721 9.882 L 8.718 9.865 L 8.715 9.849 L 8.712 9.832 L 8.71 9.816 L 8.707 9.799 L 8.704 9.783 L 8.701 9.766 L 8.698 9.744 L 8.695 9.728 L 8.692 9.712 L 8.689 9.695 L 8.687 9.679 L 8.684 9.663 L 8.681 9.646 L 8.678 9.63 L 8.675 9.614 L 8.673 9.598 L 8.671 9.587 L 8.668 9.571 L 8.665 9.555 L 8.663 9.539 L 8.66 9.523 L 8.657 9.507 L 8.654 9.491 L 8.652 9.475 L 8.649 9.459 L 8.646 9.443 L 8.643 9.427 L 8.64 9.411 L 8.638 9.396 L 8.635 9.38 L 8.633 9.369 L 8.63 9.354 L 8.628 9.338 L 8.625 9.322 L 8.622 9.306 L 8.619 9.291 L 8.616 9.275 L 8.614 9.26 L 8.612 9.249 L 8.609 9.234 L 8.606 9.218 L 8.604 9.203 L 8.601 9.187 L 8.598 9.172 L 8.596 9.162 L 8.593 9.146 L 8.591 9.131 L 8.588 9.116 L 8.585 9.1 L 8.583 9.09 L 8.58 9.075 L 8.577 9.06 L 8.575 9.045 L 8.572 9.029 L 8.57 9.019 L 8.567 9.004 L 8.564 8.989 L 8.562 8.974 L 8.56 8.964 L 8.557 8.949 L 8.554 8.934 L 8.551 8.919 L 8.549 8.909 L 8.547 8.894 L 8.544 8.879 L 8.541 8.865 L 8.539 8.855 L 8.536 8.84 L 8.533 8.825 L 8.531 8.815 L 8.529 8.801 L 8.526 8.786 L 8.523 8.771 L 8.521 8.761 L 8.518 8.747 L 8.515 8.732 L 8.513 8.722 L 8.511 8.708 L 8.508 8.693 L 8.506 8.684 L 8.503 8.669 L 8.5 8.655 L 8.498 8.645 L 8.495 8.631 L 8.492 8.616 L 8.49 8.607 L 8.488 8.592 L 8.485 8.578 L 8.483 8.569 L 8.48 8.554 L 8.477 8.54 L 8.475 8.531 L 8.472 8.516 L 8.469 8.502 L 8.467 8.493 L 8.464 8.479 L 8.461 8.464 L 8.459 8.455 L 8.456 8.441 L 8.453 8.427 L 8.451 8.418 L 8.449 8.404 L 8.447 8.394 L 8.444 8.38 L 8.441 8.367 L 8.439 8.357 L 8.436 8.343 L 8.433 8.33 L 8.431 8.32 L 8.428 8.307 L 8.426 8.297 L 8.423 8.284 L 8.42 8.27 L 8.418 8.261 L 8.415 8.247 L 8.412 8.233 L 8.41 8.224 L 8.406 8.211 L 8.404 8.202 L 8.401 8.188 L 8.398 8.175 L 8.396 8.166 L 8.393 8.152 L 8.39 8.139 L 8.388 8.13 L 8.385 8.116 L 8.383 8.107 L 8.38 8.094 L 8.377 8.081 L 8.375 8.072 L 8.372 8.058 L 8.368 8.045 L 8.366 8.036 L 8.363 8.023 L 8.361 8.014 L 8.358 8.001 L 8.355 7.988 L 8.353 7.979 L 8.349 7.966 L 8.346 7.953 L 8.344 7.944 L 8.341 7.931 L 8.339 7.923 L 8.336 7.91 L 8.332 7.897 L 8.33 7.888 L 8.327 7.875 L 8.324 7.862 L 8.322 7.853 L 8.318 7.841 L 8.315 7.828 L 8.313 7.819 L 8.31 7.806 L 8.306 7.794 L 8.304 7.785 L 8.301 7.772 L 8.297 7.76 L 8.295 7.751 L 8.292 7.739 L 8.288 7.726 L 8.286 7.718 L 8.283 7.705 L 8.279 7.692 L 8.276 7.68 L 8.274 7.672 L 8.27 7.659 L 8.267 7.647 L 8.265 7.638 L 8.261 7.626 L 8.258 7.614 L 8.254 7.601 L 8.252 7.593 L 8.249 7.581 L 8.245 7.568 L 8.242 7.556 L 8.239 7.548 L 8.236 7.536 L 8.232 7.523 L 8.229 7.511 L 8.226 7.503 L 8.223 7.491 L 8.219 7.479 L 8.216 7.467 L 8.212 7.455 L 8.21 7.447 L 8.206 7.435 L 8.202 7.423 L 8.199 7.411 L 8.195 7.399 L 8.191 7.387 L 8.189 7.379 L 8.185 7.367 L 8.181 7.355 L 8.178 7.344 L 8.174 7.332 L 8.17 7.32 L 8.166 7.308 L 8.163 7.297 L 8.159 7.285 L 8.155 7.273 L 8.152 7.265 L 8.149 7.254 L 8.145 7.242 L 8.141 7.231 L 8.137 7.219 L 8.133 7.208 L 8.129 7.196 L 8.125 7.185 L 8.121 7.173 L 8.118 7.162 L 8.114 7.15 L 8.11 7.139 L 8.106 7.128 L 8.102 7.116 L 8.096 7.101 L 8.092 7.09 L 8.088 7.079 L 8.084 7.068 L 8.08 7.057 L 8.076 7.045 L 8.072 7.034 L 8.068 7.023 L 8.062 7.008 L 8.058 6.997 L 8.054 6.986 L 8.049 6.975 L 8.045 6.964 L 8.04 6.95 L 8.035 6.939 L 8.031 6.928 L 8.027 6.917 L 8.021 6.903 L 8.017 6.892 L 8.012 6.881 L 8.006 6.867 L 8.002 6.856 L 7.998 6.846 L 7.992 6.831 L 7.987 6.821 L 7.981 6.807 L 7.977 6.796 L 7.972 6.785 L 7.966 6.771 L 7.962 6.761 L 7.955 6.747 L 7.951 6.737 L 7.945 6.723 L 7.94 6.712 L 7.934 6.699 L 7.927 6.685 L 7.921 6.667 L 7.916 6.661 L 7.91 6.647 L 7.903 6.63 L 7.898 6.623 L 7.892 6.61 L 7.885 6.596 L 7.879 6.579 L 7.874 6.573 L 7.867 6.559 L 7.86 6.546 L 7.854 6.533 L 7.847 6.519 L 7.84 6.506 L 7.833 6.493 L 7.826 6.477 L 7.821 6.47 L 7.814 6.457 L 7.807 6.446 L 7.798 6.428 L 7.791 6.415 L 7.784 6.402 L 7.777 6.39 L 7.77 6.377 L 7.763 6.364 L 7.755 6.352 L 7.748 6.341 L 7.739 6.323 L 7.731 6.311 L 7.724 6.3 L 7.715 6.283 L 7.707 6.271 L 7.7 6.26 L 7.69 6.243 L 7.682 6.232 L 7.673 6.216 L 7.665 6.205 L 7.655 6.188 L 7.647 6.178 L 7.638 6.163 L 7.628 6.147 L 7.62 6.136 L 7.61 6.122 L 7.599 6.107 L 7.589 6.091 L 7.581 6.081 L 7.571 6.066 L 7.56 6.052 L 7.55 6.037 L 7.539 6.023 L 7.529 6.009 L 7.518 5.995 L 7.507 5.982 L 7.494 5.964 L 7.484 5.95 L 7.473 5.936 L 7.462 5.923 L 7.448 5.906 L 7.437 5.892 L 7.426 5.879 L 7.412 5.862 L 7.401 5.85 L 7.387 5.834 L 7.373 5.817 L 7.361 5.805 L 7.347 5.789 L 7.333 5.773 L 7.319 5.757 L 7.307 5.745 L 7.292 5.729 L 7.277 5.714 L 7.263 5.699 L 7.245 5.681 L 7.23 5.666 L 7.215 5.651 L 7.2 5.637 L 7.182 5.619 L 7.166 5.605 L 7.148 5.588 L 7.132 5.574 L 7.114 5.557 L 7.095 5.54 L 7.079 5.526 L 7.06 5.51 L 7.041 5.494 L 7.022 5.478 L 7.002 5.462 L 6.98 5.444 L 6.96 5.428 L 6.94 5.413 L 6.917 5.395 L 6.896 5.38 L 6.873 5.362 L 6.849 5.345 L 6.825 5.328 L 6.801 5.311 L 6.777 5.295 L 6.752 5.278 L 6.727 5.262 L 6.699 5.244 L 6.674 5.228 L 6.645 5.21 L 6.616 5.192 L 6.586 5.175 L 6.556 5.158 L 6.526 5.141 L 6.493 5.122 L 6.462 5.106 L 6.428 5.087 L 6.393 5.069 L 6.357 5.052 L 6.318 5.033 L 6.282 5.015 L 6.242 4.997 L 6.201 4.978 L 6.16 4.96 L 6.119 4.943 L 6.073 4.924 L 6.026 4.905 L 5.979 4.887 L 5.931 4.869 L 5.879 4.85 L 5.826 4.831 L 5.768 4.811 L 5.709 4.792 L 5.649 4.774 L 5.584 4.754 L 5.447 4.755 Z M 1.723 1.971 A 12.831 12.831 0 0 1 1.723 2.085 Q 1.723 3.547 1.378 4.131 A 0.755 0.755 0 0 1 0.985 4.483 Q 1.724 4.231 1.724 2.101 A 12.766 12.766 0 0 0 1.723 1.976 A 12.713 12.713 0 0 1 1.724 2.114 Q 1.724 4.236 0.985 4.485 A 0.741 0.741 0 0 0 1.383 4.136 Q 1.724 3.562 1.724 2.123 A 12.669 12.669 0 0 0 1.723 1.983 M 1.722 1.965 A 12.914 12.914 0 0 1 1.722 2.066 Q 1.722 4.215 0.985 4.481 A 0.772 0.772 0 0 0 1.374 4.123 Q 1.731 3.512 1.721 1.959 Q 1.717 3.49 1.363 4.105 A 0.806 0.806 0 0 1 0.985 4.468 M 1.72 1.951 A 13.123 13.123 0 0 1 1.721 2.017 Q 1.721 4.192 0.985 4.476 A 0.79 0.79 0 0 0 1.364 4.117 Q 1.719 3.511 1.719 1.989 A 13.271 13.271 0 0 0 1.719 1.942 M 0.985 4.485 A 0.737 0.737 0 0 0 1.383 4.138 Q 1.724 3.567 1.724 2.13 A 12.634 12.634 0 0 0 1.723 1.985 A 12.643 12.643 0 0 1 1.724 2.128 Q 1.724 3.565 1.383 4.138 A 0.738 0.738 0 0 1 0.985 4.485 Z M 1.713 1.913 A 12.122 12.122 0 0 1 1.707 2.285 Q 1.665 3.547 1.351 4.095 A 0.831 0.831 0 0 1 0.985 4.457 M 1.71 1.901 A 12.328 12.328 0 0 1 1.705 2.237 Q 1.664 3.524 1.348 4.083 A 0.85 0.85 0 0 1 0.985 4.45 M 1.716 1.923 A 12.068 12.068 0 0 1 1.71 2.295 Q 1.652 4.172 0.985 4.463 M 1.707 1.89 A 12.396 12.396 0 0 1 1.701 2.226 Q 1.657 3.515 1.34 4.077 A 0.867 0.867 0 0 1 0.985 4.443 M 1.703 1.877 Q 1.689 3.433 1.332 4.07 A 0.884 0.884 0 0 1 0.985 4.435 M 1.699 1.864 A 12.644 12.644 0 0 1 1.692 2.177 Q 1.645 3.48 1.328 4.055 A 0.91 0.91 0 0 1 0.985 4.426 M 1.694 1.851 A 12.783 12.783 0 0 1 1.687 2.152 Q 1.637 3.461 1.321 4.042 A 0.936 0.936 0 0 1 0.985 4.417 M 1.689 1.837 A 12.923 12.923 0 0 1 1.681 2.128 Q 1.629 3.441 1.315 4.028 A 0.964 0.964 0 0 1 0.985 4.406 M 1.683 1.823 A 13.037 13.037 0 0 1 1.674 2.113 Q 1.595 3.995 0.985 4.395 M 1.676 1.809 A 13.165 13.165 0 0 1 1.667 2.097 Q 1.584 3.967 0.985 4.382 M 1.669 1.795 A 13.302 13.302 0 0 1 1.658 2.081 Q 1.597 3.38 1.292 3.981 A 1.071 1.071 0 0 1 0.985 4.369 M 1.661 1.78 A 13.448 13.448 0 0 1 1.649 2.065 Q 1.585 3.358 1.284 3.964 A 1.114 1.114 0 0 1 0.985 4.354 M 1.642 1.75 A 13.801 13.801 0 0 1 1.629 2.031 Q 1.529 3.843 0.985 4.323 M 1.631 1.735 A 13.993 13.993 0 0 1 1.618 2.017 Q 1.543 3.296 1.253 3.916 A 1.27 1.27 0 0 1 0.985 4.306 M 1.62 1.72 A 14.208 14.208 0 0 1 1.606 1.999 Q 1.529 3.265 1.245 3.89 A 1.343 1.343 0 0 1 0.985 4.287 M 1.607 1.705 Q 1.543 3.166 1.238 3.863 A 1.427 1.427 0 0 1 0.985 4.267 M 1.594 1.69 A 15.327 15.327 0 0 1 1.587 1.818 Q 1.484 3.673 0.985 4.245 M 1.579 1.676 A 15.642 15.642 0 0 1 1.573 1.796 Q 1.467 3.631 0.985 4.222 M 1.564 1.661 A 16.433 16.433 0 0 1 1.562 1.69 Q 1.487 3.07 1.212 3.773 A 1.751 1.751 0 0 1 0.985 4.197 M 1.547 1.647 A 13.197 13.197 0 0 1 1.476 2.48 Q 1.383 3.259 1.203 3.739 A 1.888 1.888 0 0 1 0.985 4.169 M 1.53 1.633 A 13.582 13.582 0 0 1 1.459 2.453 Q 1.366 3.222 1.194 3.703 A 2.047 2.047 0 0 1 0.985 4.139 M 6.819 4.354 A 272.116 272.116 0 0 1 6.818 4.117 Q 6.817 3.531 6.817 2.042 A 9316.72 9316.72 0 0 1 6.816 1.78 M 6.941 4.339 A 832.385 832.385 0 0 1 6.941 4.097 Q 6.94 3.503 6.94 2.025 A 25825.669 25825.669 0 0 1 6.94 1.765 M 6.69 1.795 Q 6.69 3.51 6.69 4.137 A 1861.609 1861.609 0 0 1 6.69 4.369 M 6.56 1.809 A 11339.65 11339.65 0 0 1 6.56 2.076 Q 6.559 3.586 6.559 4.156 A 275.975 275.975 0 0 1 6.558 4.382 M 7.061 1.75 Q 7.061 3.421 7.061 4.075 A 3410.994 3410.994 0 0 1 7.061 4.323 M 6.427 1.823 A 9312.525 9312.525 0 0 1 6.426 2.403 Q 6.426 3.671 6.425 4.173 A 229.068 229.068 0 0 1 6.425 4.395 M 7.181 1.735 A 17507.698 17507.698 0 0 1 7.18 1.991 Q 7.18 3.441 7.18 4.052 A 683.184 683.184 0 0 1 7.179 4.306 M 6.289 1.837 A 37801.31 37801.31 0 0 1 6.289 2.423 Q 6.289 3.695 6.289 4.189 A 851.876 851.876 0 0 1 6.289 4.406 M 7.3 4.287 A 459.647 459.647 0 0 1 7.3 4.028 Q 7.299 3.381 7.298 1.841 A 11158.542 11158.542 0 0 1 7.298 1.72 M 6.148 1.851 A 9602.912 9602.912 0 0 1 6.147 2.445 Q 6.147 3.718 6.146 4.205 A 199.339 199.339 0 0 1 6.146 4.417 M 1.511 1.619 A 14.051 14.051 0 0 1 1.441 2.417 Q 1.351 3.169 1.189 3.651 A 2.257 2.257 0 0 1 0.985 4.107 M 6.001 1.864 A 16427.832 16427.832 0 0 1 6.001 2.461 Q 6.001 4.099 6 4.426 M 7.414 1.705 Q 7.414 3.259 7.414 3.949 A 9474.589 9474.589 0 0 1 7.414 4.267 M 5.852 4.435 Q 5.851 4.12 5.85 2.477 A 8136.386 8136.386 0 0 1 5.85 1.877 M 7.53 4.245 A 1122.022 1122.022 0 0 1 7.53 3.921 Q 7.53 3.388 7.53 2.364 A 17270.3 17270.3 0 0 1 7.529 1.69 M 5.693 1.89 A 9883.85 9883.85 0 0 1 5.693 2.491 Q 5.692 3.778 5.691 4.245 A 161.23 161.23 0 0 1 5.691 4.443 M 7.645 4.222 A 2069.533 2069.533 0 0 1 7.644 3.892 Q 7.644 3.353 7.644 2.34 A 29017.434 29017.434 0 0 1 7.644 1.676 M 5.361 1.913 A 20223.516 20223.516 0 0 1 5.361 2.53 Q 5.36 4.176 5.36 4.457 M 5.185 1.923 A 29513.556 29513.556 0 0 1 5.185 2.542 Q 5.185 3.829 5.185 4.277 A 389.178 389.178 0 0 1 5.185 4.463 M 7.758 1.661 A 10193.038 10193.038 0 0 1 7.758 2.317 Q 7.757 3.684 7.757 4.197 M 5.003 1.933 Q 5.002 3.743 5.001 4.285 A 106.4 106.4 0 0 1 5 4.468 M 1.491 1.606 A 14.594 14.594 0 0 1 1.423 2.372 Q 1.335 3.122 1.179 3.61 A 2.468 2.468 0 0 1 0.985 4.071 M 4.616 4.476 A 94.866 94.866 0 0 1 4.616 4.373 Q 4.615 3.938 4.615 2.196 A 14621.081 14621.081 0 0 1 4.615 1.951 M 7.875 4.169 A 957.386 957.386 0 0 1 7.874 3.828 Q 7.874 3.113 7.873 1.647 M 4.41 4.479 Q 4.409 4.215 4.409 2.204 A 20358.576 20358.576 0 0 1 4.409 1.959 M 3.973 4.483 Q 3.972 4.232 3.971 2.218 A 9350.438 9350.438 0 0 1 3.971 1.971 M 3.738 1.976 Q 3.737 3.943 3.736 4.388 A 48.695 48.695 0 0 1 3.736 4.484 M 7.99 4.139 A 890.753 890.753 0 0 1 7.99 3.763 Q 7.989 3.213 7.989 2.256 A 9151.193 9151.193 0 0 1 7.988 1.633 M 3.496 1.98 Q 3.495 3.948 3.495 4.39 A 64.398 64.398 0 0 1 3.494 4.485 M 3.244 1.983 A 9492.054 9492.054 0 0 1 3.244 2.23 Q 3.243 3.979 3.242 4.391 A 47.057 47.057 0 0 1 3.241 4.485 M 2.984 4.485 Q 2.982 4.249 2.981 2.231 A 7385.572 7385.572 0 0 1 2.981 1.985 M 1.47 1.593 A 15.571 15.571 0 0 1 1.414 2.244 Q 1.327 3.041 1.171 3.559 A 2.726 2.726 0 0 1 0.985 4.031 M 8.104 1.619 A 15951.445 15951.445 0 0 1 8.104 2.226 Q 8.104 3.548 8.103 4.107 M 8.222 1.606 A 48525.147 48525.147 0 0 1 8.222 2.198 Q 8.222 3.499 8.222 4.071 M 1.448 1.581 A 16.175 16.175 0 0 1 1.394 2.206 Q 1.31 2.986 1.162 3.504 A 3.021 3.021 0 0 1 0.985 3.986 M 8.341 1.593 Q 8.341 2.89 8.341 3.613 A 5748.497 5748.497 0 0 1 8.341 4.031 M 1.424 1.569 A 17.001 17.001 0 0 1 1.375 2.136 Q 1.25 3.339 0.985 3.937 M 8.464 3.986 A 1425.616 1425.616 0 0 1 8.464 3.565 Q 8.463 2.92 8.463 1.841 A 10740.857 10740.857 0 0 1 8.463 1.581 M 1.399 1.558 Q 1.317 2.697 1.139 3.4 A 3.737 3.737 0 0 1 0.985 3.883 M 8.588 3.937 A 1670.848 1670.848 0 0 1 8.587 3.515 Q 8.587 2.832 8.586 1.69 A 11847.28 11847.28 0 0 1 8.586 1.569 M 8.713 1.558 Q 8.712 2.747 8.712 3.46 A 1936.844 1936.844 0 0 1 8.711 3.883 M 1.373 1.547 A 18.674 18.674 0 0 1 1.331 2.04 Q 1.254 2.808 1.128 3.34 A 4.183 4.183 0 0 1 0.985 3.821 M 1.345 1.537 Q 1.269 2.568 1.122 3.243 A 4.78 4.78 0 0 1 0.985 3.749 M 1.316 1.528 A 21.484 21.484 0 0 1 1.295 1.794 Q 1.226 2.587 1.114 3.148 A 5.467 5.467 0 0 1 0.985 3.669 M 1.286 1.52 A 22.468 22.468 0 0 1 1.266 1.77 Q 1.202 2.517 1.101 3.059 A 6.209 6.209 0 0 1 0.985 3.575 M 9.255 1.52 A 22815.429 22815.429 0 0 1 9.255 2.107 Q 9.255 2.717 9.255 3.171 A 6080.892 6080.892 0 0 1 9.255 3.575 M 1.254 1.512 Q 1.191 2.362 1.087 2.967 A 7.046 7.046 0 0 1 0.985 3.465 M 9.402 3.465 A 25967.736 25967.736 0 0 1 9.402 3.074 Q 9.402 2.44 9.402 1.512 M 1.22 1.505 A 25.758 25.758 0 0 1 1.217 1.555 Q 1.16 2.308 1.073 2.862 A 8.036 8.036 0 0 1 0.985 3.337 M 9.553 1.505 A 11144.12 11144.12 0 0 1 9.553 1.741 Q 9.553 2.72 9.552 3.337 M 1.185 1.499 Q 1.137 2.176 1.066 2.689 A 9.324 9.324 0 0 1 0.985 3.181 M 9.711 3.181 A 4042.659 4042.659 0 0 1 9.711 2.832 Q 9.711 2.351 9.711 1.712 A 12255.204 12255.204 0 0 1 9.71 1.499 M 1.149 1.494 A 23.511 23.511 0 0 1 1.105 2.042 Q 1.081 2.3 1.053 2.526 A 10.646 10.646 0 0 1 0.985 2.995 M 3.973 0.985 A 809.451 809.451 0 0 1 3.973 1.158 Q 3.972 1.699 3.971 1.722 A 0.005 0.005 0 0 0 3.971 1.722 Q 3.972 1.699 3.973 1.158 M 1.11 1.49 A 24.122 24.122 0 0 1 1.077 1.938 Q 1.059 2.151 1.038 2.341 A 11.918 11.918 0 0 1 0.985 2.764 M 10.043 1.49 A 7271.709 7271.709 0 0 1 10.042 1.938 Q 10.042 2.151 10.042 2.341 A 3538.213 3538.213 0 0 1 10.042 2.764 M 1.07 1.488 A 23.136 23.136 0 0 1 1.047 1.827 Q 1.035 1.989 1.021 2.135 A 12.43 12.43 0 0 1 0.985 2.465 M 10.218 1.488 Q 10.218 1.842 10.218 2.135 A 7256.478 7256.478 0 0 1 10.218 2.465 M 2.984 0.985 A 650.164 650.164 0 0 1 2.984 1.158 Q 2.982 1.724 2.981 1.724 M 3.244 1.724 A 0.011 0.011 0 0 1 3.244 1.722 Q 3.243 1.692 3.242 1.158 A 833.263 833.263 0 0 1 3.241 0.985 M 3.494 0.985 Q 3.495 1.688 3.496 1.722 A 0.015 0.015 0 0 1 3.496 1.722 M 3.738 1.724 A 0.005 0.005 0 0 1 3.738 1.723 Q 3.737 1.7 3.736 1.158 A 806.991 806.991 0 0 1 3.736 0.985 M 4.194 1.722 A 0.031 0.031 0 0 1 4.194 1.721 Q 4.194 1.691 4.194 1.158 A 2263.787 2263.787 0 0 1 4.193 0.985 M 4.41 0.985 A 1743.272 1743.272 0 0 1 4.41 1.158 Q 4.409 1.722 4.409 1.722 M 4.615 1.719 A 0.017 0.017 0 0 1 4.615 1.72 Q 4.615 1.684 4.616 0.985 M 4.813 0.985 A 4541.698 4541.698 0 0 1 4.813 1.157 Q 4.813 1.719 4.813 1.719 M 5.003 1.717 A 0.011 0.011 0 0 1 5.002 1.716 Q 5.002 1.686 5.001 1.157 A 811.159 811.159 0 0 1 5 0.985 M 5.185 1.715 A 0.039 0.039 0 0 1 5.185 1.714 Q 5.185 1.684 5.185 1.156 A 2742.168 2742.168 0 0 1 5.185 0.985 M 5.532 0.985 A 722.539 722.539 0 0 1 5.532 1.153 Q 5.531 1.62 5.53 1.696 A 0.338 0.338 0 0 1 5.53 1.71 M 5.693 1.707 A 0.52 0.52 0 0 1 5.693 1.692 Q 5.692 1.615 5.691 1.151 A 876.734 876.734 0 0 1 5.691 0.985 M 5.852 0.985 A 708.686 708.686 0 0 1 5.852 1.149 Q 5.851 1.608 5.85 1.687 A 0.554 0.554 0 0 1 5.85 1.703 M 6.001 1.699 A 1.431 1.431 0 0 1 6.001 1.682 Q 6.001 1.586 6 0.985 M 6.148 1.694 A 1.059 1.059 0 0 1 6.148 1.676 Q 6.147 1.591 6.146 1.145 A 803.382 803.382 0 0 1 6.146 0.985 M 6.289 1.689 Q 6.289 1.657 6.289 1.142 A 3100.757 3100.757 0 0 1 6.289 0.985 M 6.427 1.683 A 1.576 1.576 0 0 1 6.426 1.662 Q 6.426 1.558 6.425 0.985 M 6.56 1.676 A 0.961 0.961 0 0 1 6.56 1.669 Q 6.559 1.602 6.558 1.137 A 798.772 798.772 0 0 1 6.558 0.985 M 6.69 1.669 A 7.691 7.691 0 0 1 6.69 1.661 Q 6.69 1.579 6.69 0.985 M 6.819 0.985 A 621.735 621.735 0 0 1 6.818 1.13 Q 6.817 1.578 6.817 1.652 A 1.341 1.341 0 0 1 6.816 1.66 M 7.061 1.642 A 22.114 22.114 0 0 1 7.061 1.632 Q 7.061 1.55 7.061 1.123 A 6045.868 6045.868 0 0 1 7.061 0.985 M 7.181 1.631 A 5.065 5.065 0 0 1 7.18 1.621 Q 7.18 1.535 7.179 1.12 A 1060.743 1060.743 0 0 1 7.179 0.985 M 7.3 0.985 A 573.26 573.26 0 0 1 7.3 1.176 Q 7.299 1.484 7.298 1.585 A 6.919 6.919 0 0 1 7.298 1.62 M 7.414 1.607 A 135.76 135.76 0 0 1 7.414 1.572 Q 7.414 1.47 7.414 1.17 A 9438.141 9438.141 0 0 1 7.414 0.985 M 7.645 0.985 A 1560.567 1560.567 0 0 1 7.644 1.157 Q 7.644 1.439 7.644 1.543 A 31.866 31.866 0 0 1 7.644 1.579 M 1.029 1.486 A 19.294 19.294 0 0 1 1.023 1.577 Q 1.015 1.711 1.006 1.831 A 10.921 10.921 0 0 1 0.985 2.064 M 7.758 1.564 Q 7.758 1.481 7.757 1.151 A 521.394 521.394 0 0 1 7.757 0.985 M 10.402 2.064 A 2392.463 2392.463 0 0 1 10.401 1.831 Q 10.401 1.671 10.401 1.486 M 7.875 0.985 A 541.623 541.623 0 0 1 7.874 1.144 Q 7.874 1.462 7.873 1.547 M 7.99 0.985 Q 7.989 1.393 7.988 1.515 A 10.585 10.585 0 0 1 7.988 1.53 M 8.104 1.511 A 18.508 18.508 0 0 1 8.104 1.504 Q 8.104 1.41 8.104 1.13 A 684.972 684.972 0 0 1 8.103 0.985 M 8.222 1.491 A 106.207 106.207 0 0 1 8.222 1.44 Q 8.222 1.342 8.222 1.144 A 1893.916 1893.916 0 0 1 8.222 0.985 M 8.341 1.47 A 103.516 103.516 0 0 1 8.341 1.42 Q 8.341 1.323 8.341 1.135 A 1579.371 1579.371 0 0 1 8.341 0.985 M 8.464 0.985 A 332.708 332.708 0 0 1 8.464 1.126 Q 8.463 1.303 8.463 1.398 A 25.26 25.26 0 0 1 8.463 1.448 M 8.588 0.985 A 323.45 323.45 0 0 1 8.587 1.126 Q 8.587 1.336 8.586 1.424 M 8.713 1.399 Q 8.712 1.313 8.712 1.12 A 311.405 311.405 0 0 1 8.711 0.985 M 8.843 1.373 A 25.789 25.789 0 0 1 8.843 1.354 Q 8.842 1.239 8.841 0.985 M 9.255 1.286 Q 9.255 1.212 9.255 1.08 A 446.417 446.417 0 0 1 9.255 0.985 M 9.402 0.985 A 1533.039 1533.039 0 0 1 9.402 1.068 Q 9.402 1.185 9.402 1.254 M 9.553 1.22 A 40.718 40.718 0 0 1 9.553 1.177 Q 9.553 1.101 9.552 0.985 M 9.711 0.985 A 147.785 147.785 0 0 1 9.711 1.045 Q 9.711 1.103 9.711 1.148 A 44.224 44.224 0 0 1 9.71 1.185 M 9.873 0.985 A 1209.42 1209.42 0 0 1 9.873 1.033 Q 9.873 1.092 9.873 1.135 A 375.491 375.491 0 0 1 9.873 1.149 M 10.043 1.11 Q 10.042 1.073 10.042 1.021 A 67.685 67.685 0 0 1 10.042 0.985 M 10.218 1.07 A 47.523 47.523 0 0 1 10.218 1.047 Q 10.218 1.034 10.218 1.021 A 94.813 94.813 0 0 1 10.218 0.985 M 10.402 0.985 A 21.152 21.152 0 0 1 10.402 1.003 Q 10.401 1.01 10.401 1.016 A 11.979 11.979 0 0 1 10.401 1.029 M 1.717 1.933 A 13.299 13.299 0 0 1 1.717 1.956 M 0.985 4.339 Q 1.586 3.841 1.652 1.765 M 2.708 0.985 2.708 1.723 M 5.36 0.985 Q 5.361 1.708 5.361 1.713 M 6.941 0.985 Q 6.94 1.586 6.94 1.651 M 7.53 0.985 Q 7.53 1.501 7.529 1.594 M 8.976 0.985 Q 8.976 1.237 8.976 1.345 M 9.112 0.985 Q 9.113 1.212 9.113 1.316 M 2.708 4.485 2.708 1.985 M 4.193 4.481 Q 4.194 4.209 4.194 1.965 M 4.813 4.472 Q 4.813 4.175 4.813 1.942 M 5.532 4.45 Q 5.531 4.108 5.53 1.901 M 8.841 3.821 Q 8.842 3.076 8.843 1.547 M 8.976 3.749 8.976 1.537 M 9.112 3.669 Q 9.113 2.926 9.113 1.528 M 9.873 2.995 Q 9.873 2.398 9.873 1.494" id="blue" stroke="blue" style="stroke:blue" vector-effect="non-scaling-stroke"/><path d="M 8.764 2.283 A 1.02 1.02 0 0 1 8.481 2.505 C 7.263 3.203 3.365 3.664 2.781 3.728 A 3.168 3.168 0 0 1 2.708 3.735 M 2.708 0.23 A 1.139 1.139 0 0 1 2.726 0.231 C 3.071 0.248 8.069 0.524 8.764 0.537 M 0.537 2.283 A 4.076 4.076 0 0 1 0.526 2.526 C 0.476 3.189 0.279 3.633 0.238 3.72 A 0.643 0.643 0 0 1 0.23 3.735 M 5.447 4.755 m -0.063 0 a 0.063 0.063 0 0 1 0.126 0 a 0.063 0.063 0 0 1 -0.126 0 z M 5.515 6.769 m -0.063 0 a 0.063 0.063 0 0 1 0.126 0 a 0.063 0.063 0 0 1 -0.126 0 z M 7.691 12.652 m -0.063 0 a 0.063 0.063 0 0 1 0.126 0 a 0.063 0.063 0 0 1 -0.126 0 z M 6.291 6.759 m -0.063 0 a 0.063 0.063 0 0 1 0.126 0 a 0.063 0.063 0 0 1 -0.126 0 z M 9.129 12.486 m -0.063 0 a 0.063 0.063 0 0 1 0.126 0 a 0.063 0.063 0 0 1 -0.126 0 z M 7.927 6.685 m -0.063 0 a 0.063 0.063 0 0 1 0.126 0 a 0.063 0.063 0 0 1 -0.126 0 z M 4.397 4.755 m -0.063 0 a 0.063 0.063 0 0 1 0.126 0 a 0.063 0.063 0 0 1 -0.126 0 z M 4.358 6.621 m -0.063 0 a 0.063 0.063 0 0 1 0.126 0 a 0.063 0.063 0 0 1 -0.126 0 z M 2.168 12.704 m -0.063 0 a 0.063 0.063 0 0 1 0.126 0 a 0.063 0.063 0 0 1 -0.126 0 z M 3.614 6.606 m -0.063 0 a 0.063 0.063 0 0 1 0.126 0 a 0.063 0.063 0 0 1 -0.126 0 z M 0.393 12.402 m -0.063 0 a 0.063 0.063 0 0 1 0.126 0 a 0.063 0.063 0 0 1 -0.126 0 z M 1.989 6.495 m -0.063 0 a 0.063 0.063 0 0 1 0.126 0 a 0.063 0.063 0 0 1 -0.126 0 z" id="green" stroke="green" style="stroke:green" vector-effect="non-scaling-stroke"/><path d="M 4.397 4.755 L 4.397 4.775 L 4.398 4.795 L 4.398 4.815 L 4.398 4.835 L 4.398 4.855 L 4.399 4.875 L 4.399 4.894 L 4.399 4.914 L 4.399 4.933 L 4.399 4.953 L 4.4 4.972 L 4.4 4.991 L 4.4 5.01 L 4.4 5.029 L 4.4 5.048 L 4.4 5.067 L 4.4 5.086 L 4.4 5.105 L 4.401 5.124 L 4.401 5.142 L 4.401 5.161 L 4.401 5.179 L 4.401 5.198 L 4.401 5.216 L 4.401 5.234 L 4.401 5.252 L 4.401 5.271 L 4.401 5.289 L 4.401 5.307 L 4.401 5.325 L 4.4 5.342 L 4.4 5.36 L 4.4 5.378 L 4.4 5.396 L 4.4 5.413 L 4.4 5.431 L 4.4 5.448 L 4.4 5.465 L 4.399 5.483 L 4.399 5.5 L 4.399 5.517 L 4.399 5.534 L 4.399 5.551 L 4.398 5.568 L 4.398 5.585 L 4.398 5.602 L 4.398 5.619 L 4.397 5.636 L 4.397 5.652 L 4.397 5.669 L 4.397 5.685 L 4.396 5.702 L 4.396 5.718 L 4.396 5.735 L 4.395 5.751 L 4.395 5.767 L 4.395 5.783 L 4.394 5.8 L 4.394 5.816 L 4.393 5.832 L 4.393 5.848 L 4.393 5.864 L 4.392 5.879 L 4.392 5.895 L 4.391 5.911 L 4.391 5.927 L 4.39 5.942 L 4.39 5.958 L 4.389 5.973 L 4.389 5.989 L 4.388 6.004 L 4.388 6.019 L 4.387 6.035 L 4.387 6.05 L 4.386 6.065 L 4.386 6.08 L 4.385 6.095 L 4.385 6.11 L 4.384 6.125 L 4.383 6.14 L 4.383 6.155 L 4.382 6.17 L 4.382 6.185 L 4.381 6.2 L 4.38 6.214 L 4.38 6.229 L 4.379 6.243 L 4.378 6.258 L 4.378 6.272 L 4.377 6.287 L 4.376 6.301 L 4.376 6.316 L 4.375 6.33 L 4.374 6.344 L 4.373 6.358 L 4.373 6.373 L 4.372 6.387 L 4.371 6.401 L 4.37 6.415 L 4.37 6.429 L 4.369 6.443 L 4.368 6.457 L 4.367 6.471 L 4.366 6.484 L 4.366 6.498 L 4.365 6.512 L 4.364 6.526 L 4.363 6.539 L 4.362 6.553 L 4.361 6.567 L 4.361 6.58 L 4.36 6.594 L 4.359 6.607 L 4.358 6.621 L 4.357 6.634 L 4.356 6.647 L 4.355 6.661 L 4.354 6.674 L 4.353 6.687 L 4.352 6.7 L 4.351 6.713 L 4.351 6.726 L 4.35 6.74 L 4.349 6.753 L 4.348 6.766 L 4.347 6.779 L 4.346 6.792 L 4.345 6.805 L 4.344 6.817 L 4.343 6.83 L 4.342 6.843 L 4.341 6.856 L 4.34 6.869 L 4.338 6.881 L 4.337 6.894 L 4.336 6.907 L 4.335 6.919 L 4.334 6.932 L 4.333 6.945 L 4.332 6.957 L 4.331 6.97 L 4.33 6.982 L 4.329 6.995 L 4.328 7.007 L 4.327 7.02 L 4.326 7.032 L 4.324 7.044 L 4.323 7.057 L 4.322 7.069 L 4.321 7.081 L 4.32 7.094 L 4.319 7.106 L 4.318 7.118 L 4.316 7.13 L 4.315 7.143 L 4.314 7.155 L 4.313 7.167 L 4.312 7.179 L 4.31 7.191 L 4.309 7.203 L 4.308 7.216 L 4.307 7.228 L 4.306 7.24 L 4.304 7.252 L 4.303 7.264 L 4.302 7.276 L 4.301 7.288 L 4.3 7.3 L 4.298 7.312 L 4.297 7.323 L 4.296 7.335 L 4.295 7.347 L 4.293 7.359 L 4.292 7.371 L 4.291 7.383 L 4.289 7.395 L 4.288 7.407 L 4.287 7.418 L 4.286 7.43 L 4.284 7.442 L 4.283 7.454 L 4.282 7.466 L 4.28 7.477 L 4.279 7.489 L 4.278 7.501 L 4.276 7.513 L 4.275 7.524 L 4.274 7.536 L 4.272 7.548 L 4.271 7.559 L 4.27 7.571 L 4.268 7.583 L 4.267 7.594 L 4.266 7.606 L 4.264 7.618 L 4.263 7.629 L 4.262 7.641 L 4.26 7.653 L 4.259 7.664 L 4.258 7.676 L 4.256 7.688 L 4.255 7.699 L 4.254 7.711 L 4.252 7.723 L 4.251 7.734 L 4.249 7.746 L 4.248 7.757 L 4.247 7.769 L 4.245 7.781 L 4.244 7.792 L 4.242 7.804 L 4.241 7.816 L 4.24 7.827 L 4.238 7.839 L 4.237 7.851 L 4.235 7.862 L 4.234 7.874 L 4.233 7.885 L 4.231 7.897 L 4.23 7.909 L 4.228 7.92 L 4.227 7.932 L 4.225 7.944 L 4.224 7.955 L 4.223 7.967 L 4.221 7.979 L 4.22 7.99 L 4.218 8.002 L 4.217 8.014 L 4.215 8.026 L 4.214 8.037 L 4.212 8.049 L 4.211 8.061 L 4.21 8.073 L 4.208 8.084 L 4.207 8.096 L 4.205 8.108 L 4.204 8.12 L 4.202 8.131 L 4.201 8.143 L 4.199 8.155 L 4.198 8.167 L 4.196 8.179 L 4.195 8.191 L 4.194 8.203 L 4.192 8.214 L 4.191 8.226 L 4.189 8.238 L 4.188 8.25 L 4.186 8.262 L 4.185 8.274 L 4.183 8.286 L 4.182 8.298 L 4.18 8.31 L 4.179 8.322 L 4.177 8.334 L 4.176 8.346 L 4.175 8.359 L 4.173 8.371 L 4.172 8.383 L 4.17 8.395 L 4.169 8.407 L 4.167 8.419 L 4.166 8.432 L 4.164 8.444 L 4.163 8.456 L 4.161 8.468 L 4.16 8.481 L 4.158 8.493 L 4.157 8.505 L 4.156 8.518 L 4.154 8.53 L 4.153 8.543 L 4.151 8.555 L 4.15 8.568 L 4.148 8.58 L 4.147 8.593 L 4.145 8.605 L 4.144 8.618 L 4.142 8.631 L 4.141 8.643 L 4.139 8.656 L 4.138 8.669 L 4.137 8.681 L 4.135 8.694 L 4.134 8.707 L 4.132 8.72 L 4.131 8.733 L 4.129 8.746 L 4.128 8.758 L 4.127 8.771 L 4.125 8.784 L 4.124 8.797 L 4.122 8.811 L 4.121 8.824 L 4.119 8.837 L 4.118 8.85 L 4.116 8.863 L 4.115 8.876 L 4.114 8.89 L 4.112 8.903 L 4.111 8.916 L 4.109 8.93 L 4.108 8.943 L 4.107 8.957 L 4.105 8.97 L 4.104 8.984 L 4.102 8.997 L 4.101 9.011 L 4.1 9.024 L 4.098 9.038 L 4.097 9.052 L 4.095 9.066 L 4.094 9.079 L 4.093 9.093 L 4.091 9.107 L 4.09 9.121 L 4.089 9.135 L 4.087 9.149 L 4.086 9.163 L 4.084 9.177 L 4.083 9.192 L 4.082 9.206 L 4.08 9.22 L 4.079 9.234 L 4.078 9.249 L 4.076 9.263 L 4.075 9.277 L 4.074 9.292 L 4.072 9.306 L 4.071 9.321 L 4.07 9.336 L 4.068 9.35 L 4.067 9.365 L 4.066 9.38 L 4.064 9.395 L 4.063 9.41 L 4.062 9.424 L 4.061 9.439 L 4.059 9.454 L 4.058 9.47 L 4.057 9.485 L 4.055 9.5 L 4.054 9.515 L 4.053 9.53 L 4.052 9.546 L 4.05 9.561 L 4.049 9.577 L 4.048 9.592 L 4.047 9.608 L 4.045 9.623 L 4.044 9.639 L 4.043 9.655 L 4.042 9.671 L 4.04 9.686 L 4.039 9.702 L 4.038 9.718 L 4.037 9.734 L 4.036 9.75 L 4.034 9.766 L 4.033 9.783 L 4.032 9.799 L 4.031 9.815 L 4.03 9.832 L 4.029 9.848 L 4.027 9.865 L 4.026 9.881 L 4.025 9.898 L 4.024 9.914 L 4.023 9.931 L 4.022 9.948 L 4.021 9.965 L 4.019 9.982 L 4.018 9.999 L 4.017 10.016 L 4.016 10.033 L 4.015 10.05 L 4.014 10.068 L 4.013 10.085 L 4.012 10.102 L 4.011 10.12 L 4.01 10.137 L 4.009 10.155 L 4.008 10.173 L 4.006 10.19 L 4.005 10.208 L 4.004 10.226 L 4.003 10.244 L 4.002 10.262 L 4.001 10.28 L 4 10.298 L 3.999 10.316 L 3.998 10.335 L 3.997 10.353 L 3.996 10.372 L 3.995 10.39 L 3.994 10.409 L 3.994 10.427 L 3.993 10.446 L 3.992 10.465 L 3.991 10.484 L 3.99 10.503 L 3.989 10.522 L 3.988 10.541 L 3.987 10.56 L 3.986 10.579 L 3.985 10.599 L 3.984 10.618 L 3.984 10.638 L 3.983 10.657 L 3.982 10.677 L 3.981 10.697 L 3.98 10.717 L 3.979 10.736 L 3.978 10.756 L 3.978 10.776 L 3.977 10.797 L 3.976 10.817 L 3.975 10.837 L 3.974 10.858 L 3.974 10.878 L 3.973 10.899 L 3.972 10.919 L 3.971 10.94 L 3.971 10.961 L 3.97 10.982 L 3.969 11.003 L 3.969 11.024 L 3.968 11.045 L 3.967 11.066 L 3.966 11.087 L 3.966 11.109 L 3.965 11.13 L 3.964 11.152 L 3.964 11.173 L 3.963 11.195 L 3.963 11.217 L 3.962 11.239 L 3.961 11.261 L 3.961 11.283 L 3.96 11.305 L 3.959 11.328 L 3.959 11.35 L 3.958 11.372 L 3.958 11.395 L 3.957 11.418 L 3.957 11.44 L 3.956 11.463 L 3.956 11.486 L 3.955 11.509 L 3.955 11.532 L 3.954 11.556 L 3.954 11.579 L 3.953 11.602 L 3.953 11.626 L 3.952 11.649 L 3.952 11.673 L 3.951 11.697 L 3.951 11.721 L 3.951 11.745 L 3.95 11.769 L 3.95 11.793 L 3.949 11.817 L 3.949 11.842 L 3.949 11.866 L 3.948 11.891 L 3.948 11.915 L 3.948 11.94 L 3.947 11.965 L 3.947 11.99 L 3.947 12.015 L 3.946 12.04 L 3.946 12.065 L 3.946 12.091 L 3.946 12.116 L 3.945 12.142 L 3.945 12.168 L 3.945 12.193 L 3.945 12.219 L 3.945 12.245 L 3.944 12.271 L 3.944 12.298 L 3.944 12.324 L 3.944 12.35 L 3.944 12.377 L 3.944 12.404 L 3.943 12.43 L 3.943 12.457 L 3.943 12.484 L 3.943 12.511 L 3.943 12.538 L 3.943 12.566 L 3.943 12.593 L 3.943 12.621 L 3.943 12.648 L 3.943 12.676 L 3.943 12.704 L 2.168 12.704 L 2.168 12.676 L 2.168 12.649 L 2.168 12.621 L 2.168 12.593 L 2.168 12.566 L 2.169 12.538 L 2.169 12.511 L 2.169 12.483 L 2.169 12.456 L 2.17 12.429 L 2.17 12.405 L 2.17 12.378 L 2.171 12.351 L 2.171 12.325 L 2.172 12.298 L 2.172 12.271 L 2.173 12.244 L 2.173 12.218 L 2.174 12.195 L 2.174 12.168 L 2.175 12.142 L 2.176 12.116 L 2.176 12.09 L 2.177 12.064 L 2.178 12.041 L 2.178 12.015 L 2.179 11.989 L 2.18 11.963 L 2.18 11.941 L 2.181 11.915 L 2.182 11.89 L 2.183 11.864 L 2.184 11.842 L 2.185 11.817 L 2.185 11.792 L 2.186 11.766 L 2.187 11.745 L 2.188 11.72 L 2.189 11.695 L 2.19 11.673 L 2.191 11.648 L 2.192 11.623 L 2.193 11.602 L 2.194 11.577 L 2.195 11.553 L 2.196 11.532 L 2.197 11.507 L 2.199 11.486 L 2.2 11.462 L 2.201 11.437 L 2.202 11.417 L 2.203 11.392 L 2.204 11.372 L 2.206 11.348 L 2.207 11.327 L 2.208 11.303 L 2.21 11.28 L 2.211 11.259 L 2.212 11.235 L 2.213 11.215 L 2.215 11.192 L 2.216 11.171 L 2.218 11.148 L 2.219 11.128 L 2.221 11.105 L 2.222 11.085 L 2.223 11.062 L 2.225 11.042 L 2.226 11.022 L 2.228 10.999 L 2.229 10.979 L 2.231 10.956 L 2.232 10.937 L 2.234 10.917 L 2.236 10.895 L 2.237 10.875 L 2.239 10.853 L 2.241 10.833 L 2.242 10.814 L 2.244 10.792 L 2.246 10.773 L 2.247 10.754 L 2.249 10.732 L 2.251 10.713 L 2.253 10.694 L 2.254 10.672 L 2.256 10.653 L 2.258 10.635 L 2.26 10.613 L 2.262 10.594 L 2.264 10.575 L 2.266 10.557 L 2.268 10.535 L 2.269 10.517 L 2.271 10.498 L 2.273 10.48 L 2.275 10.459 L 2.277 10.441 L 2.279 10.422 L 2.281 10.405 L 2.283 10.383 L 2.285 10.365 L 2.287 10.347 L 2.289 10.329 L 2.292 10.312 L 2.294 10.291 L 2.296 10.273 L 2.298 10.255 L 2.3 10.237 L 2.302 10.22 L 2.304 10.202 L 2.307 10.185 L 2.309 10.167 L 2.311 10.147 L 2.313 10.129 L 2.316 10.112 L 2.318 10.095 L 2.32 10.077 L 2.323 10.06 L 2.325 10.043 L 2.327 10.026 L 2.33 10.009 L 2.332 9.992 L 2.334 9.975 L 2.337 9.958 L 2.339 9.942 L 2.342 9.922 L 2.344 9.905 L 2.347 9.888 L 2.349 9.871 L 2.352 9.855 L 2.354 9.838 L 2.357 9.822 L 2.359 9.805 L 2.362 9.789 L 2.364 9.771 L 2.367 9.758 L 2.37 9.742 L 2.372 9.726 L 2.375 9.709 L 2.377 9.693 L 2.38 9.677 L 2.383 9.661 L 2.385 9.645 L 2.388 9.629 L 2.391 9.613 L 2.394 9.597 L 2.396 9.581 L 2.399 9.565 L 2.402 9.548 L 2.405 9.536 L 2.407 9.52 L 2.41 9.504 L 2.413 9.489 L 2.416 9.473 L 2.419 9.457 L 2.422 9.442 L 2.425 9.425 L 2.427 9.413 L 2.431 9.398 L 2.433 9.382 L 2.437 9.367 L 2.439 9.352 L 2.442 9.336 L 2.445 9.324 L 2.448 9.308 L 2.451 9.293 L 2.454 9.278 L 2.458 9.262 L 2.46 9.25 L 2.463 9.235 L 2.467 9.22 L 2.47 9.206 L 2.473 9.19 L 2.476 9.178 L 2.479 9.163 L 2.482 9.148 L 2.486 9.133 L 2.489 9.121 L 2.492 9.107 L 2.495 9.092 L 2.498 9.076 L 2.501 9.065 L 2.505 9.05 L 2.508 9.036 L 2.511 9.02 L 2.515 9.009 L 2.518 8.995 L 2.522 8.979 L 2.525 8.968 L 2.528 8.954 L 2.531 8.94 L 2.535 8.925 L 2.538 8.914 L 2.542 8.899 L 2.545 8.884 L 2.548 8.873 L 2.552 8.859 L 2.556 8.844 L 2.559 8.833 L 2.562 8.819 L 2.566 8.804 L 2.569 8.794 L 2.573 8.78 L 2.577 8.765 L 2.58 8.754 L 2.584 8.74 L 2.587 8.725 L 2.591 8.715 L 2.594 8.701 L 2.598 8.686 L 2.602 8.676 L 2.605 8.662 L 2.609 8.648 L 2.613 8.637 L 2.616 8.624 L 2.62 8.609 L 2.624 8.599 L 2.627 8.585 L 2.631 8.571 L 2.635 8.56 L 2.639 8.546 L 2.643 8.536 L 2.647 8.522 L 2.651 8.508 L 2.654 8.498 L 2.658 8.485 L 2.662 8.47 L 2.666 8.46 L 2.67 8.446 L 2.673 8.436 L 2.677 8.423 L 2.681 8.408 L 2.685 8.398 L 2.689 8.385 L 2.693 8.371 L 2.697 8.361 L 2.702 8.347 L 2.706 8.337 L 2.71 8.324 L 2.714 8.31 L 2.718 8.3 L 2.722 8.288 L 2.726 8.274 L 2.73 8.264 L 2.734 8.25 L 2.738 8.24 L 2.742 8.227 L 2.747 8.213 L 2.751 8.204 L 2.755 8.191 L 2.759 8.177 L 2.763 8.167 L 2.768 8.154 L 2.772 8.144 L 2.777 8.131 L 2.781 8.118 L 2.785 8.108 L 2.79 8.096 L 2.794 8.082 L 2.798 8.072 L 2.803 8.059 L 2.807 8.049 L 2.811 8.037 L 2.817 8.023 L 2.821 8.014 L 2.825 8.001 L 2.83 7.988 L 2.834 7.978 L 2.839 7.966 L 2.843 7.952 L 2.848 7.943 L 2.853 7.931 L 2.858 7.917 L 2.862 7.908 L 2.867 7.895 L 2.871 7.882 L 2.876 7.873 L 2.881 7.86 L 2.886 7.847 L 2.89 7.838 L 2.895 7.825 L 2.9 7.813 L 2.905 7.8 L 2.91 7.791 L 2.915 7.778 L 2.92 7.765 L 2.925 7.756 L 2.929 7.744 L 2.934 7.732 L 2.94 7.719 L 2.944 7.709 L 2.949 7.697 L 2.955 7.685 L 2.96 7.672 L 2.965 7.663 L 2.97 7.651 L 2.975 7.639 L 2.98 7.626 L 2.986 7.616 L 2.991 7.604 L 2.996 7.592 L 3.001 7.58 L 3.007 7.567 L 3.012 7.558 L 3.018 7.546 L 3.023 7.534 L 3.029 7.522 L 3.034 7.51 L 3.04 7.497 L 3.045 7.488 L 3.051 7.476 L 3.056 7.464 L 3.062 7.452 L 3.068 7.44 L 3.073 7.428 L 3.079 7.416 L 3.085 7.405 L 3.09 7.393 L 3.096 7.38 L 3.102 7.37 L 3.108 7.358 L 3.114 7.347 L 3.12 7.335 L 3.126 7.323 L 3.132 7.311 L 3.138 7.299 L 3.144 7.287 L 3.15 7.275 L 3.157 7.264 L 3.163 7.252 L 3.169 7.24 L 3.175 7.228 L 3.182 7.217 L 3.188 7.203 L 3.195 7.191 L 3.202 7.179 L 3.208 7.168 L 3.214 7.156 L 3.222 7.144 L 3.228 7.132 L 3.235 7.12 L 3.242 7.107 L 3.249 7.095 L 3.256 7.083 L 3.263 7.071 L 3.269 7.06 L 3.277 7.046 L 3.285 7.034 L 3.292 7.022 L 3.299 7.011 L 3.306 6.997 L 3.314 6.986 L 3.322 6.974 L 3.33 6.961 L 3.337 6.949 L 3.345 6.937 L 3.353 6.924 L 3.361 6.912 L 3.369 6.898 L 3.378 6.886 L 3.386 6.875 L 3.394 6.861 L 3.403 6.85 L 3.412 6.836 L 3.42 6.824 L 3.43 6.811 L 3.439 6.799 L 3.449 6.786 L 3.458 6.773 L 3.468 6.761 L 3.478 6.748 L 3.487 6.736 L 3.499 6.722 L 3.509 6.709 L 3.519 6.697 L 3.531 6.684 L 3.543 6.671 L 3.555 6.658 L 3.567 6.645 L 3.58 6.632 L 3.594 6.619 L 3.608 6.606 L 3.614 6.606 L 3.6 6.619 L 3.586 6.632 L 3.573 6.645 L 3.562 6.652 L 3.549 6.671 L 3.537 6.684 L 3.526 6.697 L 3.515 6.704 L 3.505 6.723 L 3.494 6.736 L 3.484 6.742 L 3.474 6.761 L 3.465 6.767 L 3.455 6.786 L 3.445 6.8 L 3.437 6.806 L 3.427 6.825 L 3.419 6.831 L 3.409 6.85 L 3.401 6.856 L 3.393 6.875 L 3.385 6.881 L 3.376 6.893 L 3.368 6.913 L 3.36 6.918 L 3.352 6.938 L 3.344 6.943 L 3.337 6.955 L 3.329 6.975 L 3.321 6.981 L 3.313 6.992 L 3.306 7.012 L 3.299 7.018 L 3.292 7.029 L 3.284 7.041 L 3.276 7.061 L 3.27 7.066 L 3.263 7.078 L 3.257 7.09 L 3.249 7.102 L 3.242 7.122 L 3.235 7.127 L 3.229 7.139 L 3.222 7.151 L 3.215 7.163 L 3.209 7.175 L 3.203 7.187 L 3.196 7.198 L 3.188 7.219 L 3.182 7.224 L 3.176 7.236 L 3.17 7.247 L 3.164 7.259 L 3.157 7.271 L 3.151 7.283 L 3.145 7.295 L 3.139 7.307 L 3.133 7.319 L 3.127 7.331 L 3.121 7.343 L 3.115 7.354 L 3.109 7.366 L 3.104 7.365 L 3.097 7.389 L 3.092 7.401 L 3.086 7.413 L 3.08 7.424 L 3.074 7.436 L 3.068 7.448 L 3.062 7.46 L 3.057 7.472 L 3.051 7.484 L 3.047 7.483 L 3.04 7.507 L 3.035 7.519 L 3.029 7.531 L 3.024 7.543 L 3.018 7.555 L 3.014 7.553 L 3.007 7.577 L 3.002 7.589 L 2.996 7.601 L 2.991 7.613 L 2.987 7.611 L 2.98 7.636 L 2.975 7.648 L 2.969 7.66 L 2.966 7.658 L 2.96 7.682 L 2.954 7.695 L 2.949 7.707 L 2.945 7.705 L 2.938 7.729 L 2.933 7.741 L 2.928 7.754 L 2.925 7.752 L 2.918 7.776 L 2.913 7.789 L 2.909 7.786 L 2.903 7.811 L 2.898 7.823 L 2.893 7.836 L 2.889 7.834 L 2.883 7.859 L 2.878 7.871 L 2.874 7.869 L 2.868 7.894 L 2.863 7.906 L 2.86 7.904 L 2.853 7.929 L 2.848 7.941 L 2.845 7.94 L 2.838 7.964 L 2.834 7.977 L 2.83 7.975 L 2.824 8 L 2.819 8.012 L 2.816 8.011 L 2.809 8.036 L 2.804 8.048 L 2.801 8.047 L 2.795 8.071 L 2.792 8.07 L 2.786 8.095 L 2.781 8.107 L 2.778 8.106 L 2.772 8.131 L 2.767 8.143 L 2.764 8.142 L 2.757 8.167 L 2.754 8.166 L 2.748 8.19 L 2.743 8.203 L 2.74 8.202 L 2.734 8.227 L 2.729 8.24 L 2.726 8.239 L 2.72 8.264 L 2.717 8.263 L 2.711 8.287 L 2.706 8.3 L 2.703 8.299 L 2.697 8.324 L 2.692 8.337 L 2.689 8.337 L 2.683 8.361 L 2.68 8.361 L 2.674 8.385 L 2.669 8.398 L 2.666 8.398 L 2.66 8.423 L 2.655 8.436 L 2.652 8.436 L 2.646 8.46 L 2.644 8.46 L 2.638 8.485 L 2.633 8.498 L 2.63 8.498 L 2.624 8.523 L 2.619 8.536 L 2.616 8.536 L 2.61 8.561 L 2.607 8.561 L 2.601 8.585 L 2.596 8.599 L 2.593 8.599 L 2.587 8.624 L 2.583 8.637 L 2.58 8.638 L 2.574 8.662 L 2.569 8.676 L 2.566 8.677 L 2.56 8.701 L 2.555 8.715 L 2.552 8.716 L 2.547 8.74 L 2.542 8.754 L 2.539 8.755 L 2.533 8.78 L 2.528 8.793 L 2.525 8.795 L 2.519 8.819 L 2.515 8.833 L 2.512 8.835 L 2.506 8.859 L 2.501 8.873 L 2.498 8.875 L 2.492 8.899 L 2.487 8.913 L 2.485 8.915 L 2.478 8.939 L 2.474 8.953 L 2.469 8.967 L 2.466 8.97 L 2.46 8.994 L 2.455 9.008 L 2.453 9.011 L 2.447 9.035 L 2.442 9.049 L 2.437 9.064 L 2.434 9.067 L 2.428 9.09 L 2.423 9.105 L 2.419 9.119 L 2.416 9.123 L 2.41 9.146 L 2.405 9.161 L 2.401 9.176 L 2.397 9.18 L 2.392 9.203 L 2.387 9.218 L 2.382 9.233 L 2.377 9.248 L 2.375 9.252 L 2.368 9.275 L 2.364 9.29 L 2.359 9.305 L 2.354 9.32 L 2.351 9.325 L 2.345 9.348 L 2.341 9.363 L 2.336 9.378 L 2.331 9.394 L 2.326 9.409 L 2.323 9.414 L 2.317 9.437 L 2.313 9.453 L 2.308 9.468 L 2.303 9.483 L 2.298 9.499 L 2.293 9.514 L 2.289 9.53 L 2.286 9.536 L 2.28 9.559 L 2.275 9.575 L 2.27 9.59 L 2.265 9.606 L 2.26 9.622 L 2.256 9.638 L 2.251 9.654 L 2.246 9.669 L 2.241 9.685 L 2.237 9.701 L 2.232 9.718 L 2.227 9.734 L 2.222 9.75 L 2.219 9.757 L 2.213 9.78 L 2.208 9.796 L 2.203 9.812 L 2.198 9.828 L 2.193 9.845 L 2.188 9.861 L 2.184 9.878 L 2.179 9.894 L 2.174 9.911 L 2.168 9.933 L 2.164 9.947 L 2.159 9.963 L 2.154 9.98 L 2.149 9.997 L 2.144 10.013 L 2.139 10.03 L 2.134 10.047 L 2.129 10.064 L 2.124 10.081 L 2.119 10.098 L 2.115 10.115 L 2.11 10.132 L 2.104 10.155 L 2.099 10.169 L 2.094 10.187 L 2.089 10.204 L 2.084 10.221 L 2.079 10.239 L 2.074 10.256 L 2.069 10.274 L 2.063 10.296 L 2.059 10.311 L 2.054 10.329 L 2.049 10.347 L 2.044 10.365 L 2.038 10.388 L 2.033 10.403 L 2.028 10.421 L 2.023 10.439 L 2.017 10.462 L 2.013 10.477 L 2.008 10.496 L 2.003 10.514 L 1.997 10.537 L 1.992 10.553 L 1.987 10.571 L 1.982 10.59 L 1.976 10.613 L 1.971 10.629 L 1.966 10.648 L 1.96 10.671 L 1.955 10.688 L 1.95 10.706 L 1.944 10.73 L 1.94 10.747 L 1.934 10.765 L 1.928 10.789 L 1.923 10.806 L 1.918 10.825 L 1.912 10.849 L 1.908 10.866 L 1.902 10.89 L 1.897 10.907 L 1.892 10.926 L 1.886 10.95 L 1.881 10.968 L 1.875 10.992 L 1.87 11.01 L 1.865 11.029 L 1.858 11.053 L 1.854 11.072 L 1.847 11.096 L 1.843 11.114 L 1.836 11.138 L 1.832 11.157 L 1.825 11.181 L 1.821 11.2 L 1.814 11.224 L 1.81 11.243 L 1.803 11.267 L 1.798 11.29 L 1.793 11.309 L 1.786 11.334 L 1.781 11.353 L 1.775 11.378 L 1.77 11.397 L 1.764 11.422 L 1.758 11.446 L 1.753 11.465 L 1.747 11.49 L 1.742 11.51 L 1.736 11.535 L 1.73 11.559 L 1.725 11.579 L 1.719 11.604 L 1.713 11.628 L 1.708 11.649 L 1.702 11.674 L 1.696 11.698 L 1.691 11.719 L 1.684 11.744 L 1.678 11.769 L 1.673 11.794 L 1.667 11.815 L 1.661 11.84 L 1.655 11.865 L 1.649 11.89 L 1.644 11.912 L 1.638 11.937 L 1.632 11.963 L 1.626 11.988 L 1.621 12.01 L 1.615 12.036 L 1.609 12.061 L 1.602 12.087 L 1.596 12.113 L 1.59 12.138 L 1.585 12.161 L 1.579 12.187 L 1.573 12.213 L 1.567 12.239 L 1.561 12.265 L 1.555 12.291 L 1.549 12.318 L 1.543 12.344 L 1.538 12.367 L 1.531 12.394 L 1.525 12.42 L 1.519 12.447 L 1.513 12.474 L 1.507 12.501 L 1.501 12.528 L 1.495 12.555 L 1.489 12.582 L 1.483 12.609 L 1.477 12.636 L 0.393 12.402 L 0.399 12.374 L 0.405 12.347 L 0.411 12.32 L 0.417 12.293 L 0.423 12.266 L 0.429 12.239 L 0.435 12.212 L 0.44 12.185 L 0.446 12.158 L 0.452 12.132 L 0.456 12.111 L 0.462 12.085 L 0.468 12.058 L 0.474 12.032 L 0.479 12.005 L 0.485 11.979 L 0.491 11.952 L 0.497 11.926 L 0.501 11.906 L 0.507 11.88 L 0.512 11.854 L 0.518 11.827 L 0.524 11.801 L 0.529 11.775 L 0.534 11.756 L 0.539 11.73 L 0.545 11.704 L 0.55 11.678 L 0.555 11.658 L 0.56 11.633 L 0.566 11.607 L 0.571 11.581 L 0.576 11.562 L 0.581 11.536 L 0.587 11.511 L 0.592 11.485 L 0.596 11.466 L 0.602 11.441 L 0.608 11.416 L 0.612 11.397 L 0.617 11.371 L 0.623 11.346 L 0.627 11.327 L 0.632 11.302 L 0.638 11.277 L 0.642 11.258 L 0.647 11.233 L 0.651 11.215 L 0.657 11.19 L 0.662 11.165 L 0.666 11.146 L 0.672 11.121 L 0.676 11.103 L 0.681 11.078 L 0.685 11.06 L 0.691 11.035 L 0.696 11.011 L 0.7 10.992 L 0.705 10.968 L 0.709 10.95 L 0.715 10.925 L 0.719 10.907 L 0.724 10.883 L 0.728 10.865 L 0.733 10.84 L 0.737 10.822 L 0.742 10.798 L 0.746 10.78 L 0.75 10.762 L 0.756 10.738 L 0.76 10.72 L 0.765 10.697 L 0.769 10.679 L 0.773 10.661 L 0.778 10.637 L 0.782 10.619 L 0.787 10.596 L 0.791 10.578 L 0.795 10.56 L 0.8 10.537 L 0.804 10.519 L 0.808 10.502 L 0.813 10.478 L 0.817 10.461 L 0.821 10.443 L 0.826 10.42 L 0.83 10.402 L 0.834 10.385 L 0.839 10.362 L 0.843 10.345 L 0.847 10.327 L 0.85 10.31 L 0.856 10.287 L 0.859 10.27 L 0.863 10.253 L 0.867 10.236 L 0.872 10.213 L 0.876 10.196 L 0.88 10.179 L 0.884 10.162 L 0.889 10.139 L 0.893 10.122 L 0.896 10.105 L 0.9 10.088 L 0.904 10.071 L 0.909 10.049 L 0.913 10.032 L 0.917 10.015 L 0.92 9.998 L 0.924 9.982 L 0.928 9.965 L 0.932 9.948 L 0.935 9.932 L 0.94 9.91 L 0.944 9.893 L 0.948 9.877 L 0.952 9.86 L 0.955 9.844 L 0.959 9.827 L 0.963 9.811 L 0.967 9.794 L 0.97 9.778 L 0.974 9.761 L 0.978 9.745 L 0.981 9.729 L 0.985 9.713 L 0.99 9.691 L 0.994 9.675 L 0.998 9.659 L 1.001 9.642 L 1.005 9.626 L 1.009 9.61 L 1.012 9.594 L 1.016 9.578 L 1.02 9.562 L 1.023 9.546 L 1.026 9.536 L 1.03 9.52 L 1.033 9.504 L 1.037 9.488 L 1.041 9.472 L 1.044 9.456 L 1.048 9.44 L 1.052 9.425 L 1.055 9.409 L 1.059 9.393 L 1.063 9.377 L 1.066 9.362 L 1.07 9.346 L 1.074 9.331 L 1.076 9.32 L 1.08 9.305 L 1.083 9.289 L 1.087 9.274 L 1.091 9.258 L 1.094 9.243 L 1.098 9.227 L 1.102 9.212 L 1.104 9.202 L 1.108 9.186 L 1.111 9.171 L 1.115 9.156 L 1.119 9.14 L 1.122 9.125 L 1.125 9.115 L 1.128 9.1 L 1.132 9.085 L 1.136 9.07 L 1.139 9.054 L 1.142 9.044 L 1.145 9.029 L 1.149 9.014 L 1.153 8.999 L 1.156 8.984 L 1.159 8.974 L 1.162 8.959 L 1.166 8.945 L 1.17 8.93 L 1.172 8.92 L 1.176 8.905 L 1.179 8.89 L 1.183 8.875 L 1.185 8.865 L 1.189 8.851 L 1.192 8.836 L 1.196 8.821 L 1.198 8.812 L 1.202 8.797 L 1.206 8.782 L 1.208 8.773 L 1.212 8.758 L 1.215 8.744 L 1.219 8.729 L 1.221 8.719 L 1.225 8.705 L 1.229 8.69 L 1.231 8.681 L 1.235 8.666 L 1.238 8.652 L 1.241 8.643 L 1.244 8.628 L 1.248 8.614 L 1.25 8.604 L 1.254 8.59 L 1.258 8.576 L 1.26 8.567 L 1.264 8.552 L 1.267 8.538 L 1.27 8.529 L 1.273 8.515 L 1.277 8.501 L 1.28 8.491 L 1.283 8.477 L 1.287 8.463 L 1.289 8.454 L 1.293 8.44 L 1.297 8.426 L 1.299 8.417 L 1.303 8.403 L 1.306 8.389 L 1.309 8.38 L 1.312 8.366 L 1.315 8.357 L 1.318 8.343 L 1.322 8.329 L 1.325 8.32 L 1.328 8.306 L 1.332 8.293 L 1.334 8.284 L 1.338 8.27 L 1.34 8.261 L 1.344 8.247 L 1.348 8.234 L 1.35 8.225 L 1.354 8.211 L 1.358 8.198 L 1.36 8.189 L 1.364 8.175 L 1.366 8.166 L 1.37 8.153 L 1.374 8.14 L 1.376 8.131 L 1.38 8.117 L 1.384 8.104 L 1.386 8.095 L 1.39 8.082 L 1.392 8.073 L 1.396 8.06 L 1.4 8.047 L 1.402 8.038 L 1.406 8.025 L 1.41 8.012 L 1.412 8.003 L 1.416 7.99 L 1.418 7.981 L 1.422 7.968 L 1.426 7.955 L 1.428 7.946 L 1.432 7.933 L 1.436 7.921 L 1.438 7.912 L 1.442 7.899 L 1.445 7.89 L 1.449 7.878 L 1.452 7.865 L 1.455 7.856 L 1.459 7.843 L 1.463 7.831 L 1.465 7.822 L 1.469 7.81 L 1.473 7.797 L 1.475 7.788 L 1.479 7.776 L 1.483 7.763 L 1.486 7.755 L 1.489 7.742 L 1.493 7.73 L 1.496 7.721 L 1.5 7.709 L 1.504 7.696 L 1.506 7.688 L 1.51 7.676 L 1.514 7.663 L 1.518 7.651 L 1.52 7.643 L 1.524 7.63 L 1.528 7.618 L 1.531 7.61 L 1.535 7.597 L 1.539 7.585 L 1.543 7.573 L 1.545 7.565 L 1.549 7.553 L 1.553 7.541 L 1.557 7.528 L 1.56 7.52 L 1.564 7.508 L 1.568 7.496 L 1.572 7.484 L 1.575 7.476 L 1.579 7.464 L 1.583 7.452 L 1.587 7.44 L 1.591 7.428 L 1.594 7.42 L 1.598 7.409 L 1.602 7.397 L 1.606 7.385 L 1.61 7.373 L 1.614 7.361 L 1.617 7.354 L 1.621 7.342 L 1.625 7.33 L 1.629 7.318 L 1.633 7.307 L 1.638 7.295 L 1.642 7.284 L 1.646 7.272 L 1.65 7.261 L 1.654 7.249 L 1.657 7.241 L 1.661 7.23 L 1.666 7.218 L 1.67 7.207 L 1.674 7.196 L 1.679 7.184 L 1.683 7.173 L 1.687 7.162 L 1.691 7.15 L 1.696 7.139 L 1.7 7.128 L 1.704 7.117 L 1.709 7.105 L 1.713 7.094 L 1.719 7.079 L 1.724 7.068 L 1.728 7.057 L 1.732 7.046 L 1.737 7.035 L 1.741 7.024 L 1.746 7.013 L 1.75 7.002 L 1.756 6.987 L 1.761 6.977 L 1.765 6.966 L 1.77 6.955 L 1.774 6.944 L 1.781 6.93 L 1.785 6.919 L 1.79 6.908 L 1.794 6.897 L 1.801 6.883 L 1.805 6.872 L 1.81 6.862 L 1.816 6.848 L 1.821 6.837 L 1.826 6.827 L 1.832 6.813 L 1.837 6.802 L 1.843 6.788 L 1.848 6.778 L 1.853 6.767 L 1.859 6.753 L 1.864 6.743 L 1.87 6.729 L 1.875 6.719 L 1.882 6.705 L 1.887 6.695 L 1.893 6.681 L 1.9 6.668 L 1.905 6.658 L 1.912 6.644 L 1.917 6.634 L 1.923 6.621 L 1.93 6.607 L 1.935 6.597 L 1.942 6.584 L 1.949 6.571 L 1.956 6.558 L 1.961 6.548 L 1.968 6.535 L 1.975 6.521 L 1.982 6.508 L 1.989 6.495 L 1.996 6.482 L 2.004 6.464 L 2.009 6.46 L 2.016 6.447 L 2.023 6.438 L 2.032 6.418 L 2.04 6.405 L 2.047 6.392 L 2.054 6.38 L 2.062 6.367 L 2.069 6.354 L 2.077 6.342 L 2.084 6.333 L 2.094 6.314 L 2.101 6.301 L 2.109 6.292 L 2.119 6.274 L 2.126 6.262 L 2.134 6.252 L 2.144 6.234 L 2.152 6.225 L 2.162 6.207 L 2.17 6.198 L 2.18 6.18 L 2.188 6.171 L 2.198 6.156 L 2.208 6.139 L 2.216 6.13 L 2.226 6.115 L 2.237 6.1 L 2.247 6.084 L 2.256 6.074 L 2.266 6.06 L 2.277 6.046 L 2.287 6.031 L 2.298 6.017 L 2.309 6.003 L 2.32 5.989 L 2.33 5.977 L 2.344 5.958 L 2.355 5.945 L 2.366 5.931 L 2.377 5.919 L 2.391 5.901 L 2.402 5.887 L 2.413 5.875 L 2.427 5.858 L 2.439 5.846 L 2.453 5.83 L 2.467 5.813 L 2.479 5.801 L 2.493 5.785 L 2.507 5.77 L 2.522 5.753 L 2.534 5.742 L 2.549 5.726 L 2.563 5.711 L 2.578 5.697 L 2.596 5.679 L 2.611 5.664 L 2.626 5.649 L 2.642 5.635 L 2.66 5.617 L 2.675 5.603 L 2.694 5.586 L 2.709 5.572 L 2.728 5.556 L 2.747 5.539 L 2.763 5.525 L 2.782 5.509 L 2.801 5.493 L 2.821 5.477 L 2.84 5.461 L 2.863 5.443 L 2.883 5.427 L 2.903 5.412 L 2.926 5.394 L 2.947 5.38 L 2.97 5.362 L 2.994 5.345 L 3.018 5.328 L 3.042 5.312 L 3.067 5.295 L 3.091 5.279 L 3.116 5.262 L 3.145 5.244 L 3.17 5.228 L 3.199 5.211 L 3.228 5.193 L 3.257 5.176 L 3.287 5.159 L 3.317 5.142 L 3.351 5.123 L 3.382 5.107 L 3.416 5.088 L 3.451 5.07 L 3.486 5.053 L 3.526 5.034 L 3.562 5.017 L 3.602 4.998 L 3.642 4.98 L 3.684 4.962 L 3.725 4.944 L 3.771 4.925 L 3.818 4.906 L 3.865 4.888 L 3.913 4.87 L 3.965 4.85 L 4.018 4.832 L 4.076 4.812 L 4.135 4.793 L 4.194 4.774 L 4.259 4.754 L 4.397 4.755 Z M 0.001 1.983 A 9.501 9.501 0 0 0 0 2.123 Q 0 3.355 0.334 3.953 A 1.019 1.019 0 0 0 0.985 4.485 A 1.021 1.021 0 0 1 0.339 3.958 Q 0 3.357 0 2.114 A 9.533 9.533 0 0 1 0.001 1.98 A 9.573 9.573 0 0 0 0.001 2.101 Q 0.001 4.231 0.985 4.484 Q 0.001 4.224 0.001 2.085 A 9.627 9.627 0 0 1 0.002 1.971 M 0.007 1.942 Q -0.003 4.175 0.985 4.472 Q 0.005 4.192 0.005 2.017 A 9.848 9.848 0 0 1 0.005 1.951 M 0.004 1.959 A 9.763 9.763 0 0 0 0.003 2.043 Q 0.003 3.331 0.352 3.948 A 1.045 1.045 0 0 0 0.985 4.479 A 1.037 1.037 0 0 1 0.349 3.954 Q 0.002 3.342 0.002 2.066 A 9.683 9.683 0 0 1 0.003 1.965 M 0.001 1.985 A 9.477 9.477 0 0 0 0 2.13 Q 0 4.243 0.985 4.485 A 1.018 1.018 0 0 1 0.332 3.951 Q 0 3.355 0 2.128 A 9.486 9.486 0 0 1 0.001 1.985 Z M 0.985 4.468 A 1.073 1.073 0 0 1 0.372 3.939 Q 0.006 3.295 0.009 1.933 M 0.985 4.457 Q 0.19 4.185 0.046 2.631 A 8.085 8.085 0 0 1 0.015 1.913 M 0.985 4.45 A 1.106 1.106 0 0 1 0.402 3.932 Q 0.133 3.465 0.052 2.624 A 8.12 8.12 0 0 1 0.018 1.901 M 0.985 4.435 A 1.136 1.136 0 0 1 0.423 3.919 Q 0.155 3.455 0.069 2.626 A 8.154 8.154 0 0 1 0.028 1.877 M 0.985 4.426 A 1.15 1.15 0 0 1 0.439 3.919 Q 0.168 3.454 0.077 2.621 A 8.196 8.196 0 0 1 0.033 1.864 M 0.985 4.417 Q 0.252 4.093 0.086 2.607 A 8.268 8.268 0 0 1 0.04 1.851 M 0.985 4.406 A 1.19 1.19 0 0 1 0.464 3.9 Q 0.192 3.431 0.096 2.598 A 8.328 8.328 0 0 1 0.047 1.837 M 0.985 4.382 A 1.239 1.239 0 0 1 0.49 3.878 Q 0.219 3.404 0.119 2.57 A 8.498 8.498 0 0 1 0.064 1.809 M 0.985 4.369 A 1.263 1.263 0 0 1 0.508 3.872 Q 0.236 3.395 0.132 2.558 A 8.586 8.586 0 0 1 0.074 1.795 M 0.985 4.354 Q 0.326 3.968 0.145 2.542 A 8.694 8.694 0 0 1 0.085 1.78 M 0.985 4.339 A 1.33 1.33 0 0 1 0.536 3.842 Q 0.268 3.361 0.16 2.525 A 8.816 8.816 0 0 1 0.097 1.765 M 0.985 4.323 A 1.37 1.37 0 0 1 0.551 3.826 Q 0.282 3.335 0.172 2.485 A 9.019 9.019 0 0 1 0.11 1.75 M 0.985 4.306 Q 0.374 3.874 0.189 2.467 A 9.167 9.167 0 0 1 0.124 1.735 M 0.985 4.287 Q 0.394 3.842 0.207 2.453 A 9.313 9.313 0 0 1 0.14 1.72 M 0.985 4.267 A 1.523 1.523 0 0 1 0.598 3.771 Q 0.337 3.268 0.223 2.417 A 9.546 9.546 0 0 1 0.156 1.705 M 0.985 4.245 A 1.587 1.587 0 0 1 0.614 3.75 Q 0.357 3.241 0.241 2.388 A 9.769 9.769 0 0 1 0.174 1.69 M 0.985 4.222 A 1.661 1.661 0 0 1 0.631 3.727 Q 0.378 3.215 0.262 2.364 A 9.996 9.996 0 0 1 0.193 1.676 M 0.985 4.197 A 1.738 1.738 0 0 1 0.652 3.711 Q 0.403 3.197 0.284 2.348 A 10.225 10.225 0 0 1 0.214 1.661 M 0.985 4.169 A 1.84 1.84 0 0 1 0.665 3.677 Q 0.334 2.966 0.236 1.647 M 0.985 4.139 A 1.958 1.958 0 0 1 0.679 3.641 Q 0.448 3.124 0.331 2.298 A 10.784 10.784 0 0 1 0.259 1.633 M 0.985 4.107 Q 0.539 3.558 0.356 2.273 A 11.117 11.117 0 0 1 0.284 1.619 M 0.985 4.071 A 2.252 2.252 0 0 1 0.707 3.563 Q 0.417 2.851 0.311 1.606 M 6.819 4.354 A 272.116 272.116 0 0 1 6.818 4.117 Q 6.817 3.531 6.817 2.042 A 9316.72 9316.72 0 0 1 6.816 1.78 M 6.941 4.339 A 832.385 832.385 0 0 1 6.941 4.097 Q 6.94 3.503 6.94 2.025 A 25825.669 25825.669 0 0 1 6.94 1.765 M 6.69 1.795 Q 6.69 3.51 6.69 4.137 A 1861.609 1861.609 0 0 1 6.69 4.369 M 6.56 1.809 A 11339.65 11339.65 0 0 1 6.56 2.076 Q 6.559 3.586 6.559 4.156 A 275.975 275.975 0 0 1 6.558 4.382 M 7.061 1.75 Q 7.061 3.421 7.061 4.075 A 3410.994 3410.994 0 0 1 7.061 4.323 M 6.427 1.823 A 9312.525 9312.525 0 0 1 6.426 2.403 Q 6.426 3.671 6.425 4.173 A 229.068 229.068 0 0 1 6.425 4.395 M 7.181 1.735 A 17507.698 17507.698 0 0 1 7.18 1.991 Q 7.18 3.441 7.18 4.052 A 683.184 683.184 0 0 1 7.179 4.306 M 6.289 1.837 A 37801.31 37801.31 0 0 1 6.289 2.423 Q 6.289 3.695 6.289 4.189 A 851.876 851.876 0 0 1 6.289 4.406 M 7.3 4.287 A 459.647 459.647 0 0 1 7.3 4.028 Q 7.299 3.381 7.298 1.841 A 11158.542 11158.542 0 0 1 7.298 1.72 M 6.148 1.851 A 9602.912 9602.912 0 0 1 6.147 2.445 Q 6.147 3.718 6.146 4.205 A 199.339 199.339 0 0 1 6.146 4.417 M 6.001 1.864 A 16427.832 16427.832 0 0 1 6.001 2.461 Q 6.001 4.099 6 4.426 M 7.414 1.705 Q 7.414 3.259 7.414 3.949 A 9474.589 9474.589 0 0 1 7.414 4.267 M 5.852 4.435 Q 5.851 4.12 5.85 2.477 A 8136.386 8136.386 0 0 1 5.85 1.877 M 7.53 4.245 A 1122.022 1122.022 0 0 1 7.53 3.921 Q 7.53 3.388 7.53 2.364 A 17270.3 17270.3 0 0 1 7.529 1.69 M 5.693 1.89 A 9883.85 9883.85 0 0 1 5.693 2.491 Q 5.692 3.778 5.691 4.245 A 161.23 161.23 0 0 1 5.691 4.443 M 0.985 4.031 A 2.433 2.433 0 0 1 0.722 3.52 Q 0.509 2.971 0.397 2.122 A 12.203 12.203 0 0 1 0.339 1.593 M 7.645 4.222 A 2069.533 2069.533 0 0 1 7.644 3.892 Q 7.644 3.353 7.644 2.34 A 29017.434 29017.434 0 0 1 7.644 1.676 M 5.361 1.913 A 20223.516 20223.516 0 0 1 5.361 2.53 Q 5.36 4.176 5.36 4.457 M 5.185 1.923 A 29513.556 29513.556 0 0 1 5.185 2.542 Q 5.185 3.829 5.185 4.277 A 389.178 389.178 0 0 1 5.185 4.463 M 7.758 1.661 A 10193.038 10193.038 0 0 1 7.758 2.317 Q 7.757 3.684 7.757 4.197 M 5.003 1.933 Q 5.002 3.743 5.001 4.285 A 106.4 106.4 0 0 1 5 4.468 M 4.616 4.476 A 94.866 94.866 0 0 1 4.616 4.373 Q 4.615 3.938 4.615 2.196 A 14621.081 14621.081 0 0 1 4.615 1.951 M 7.875 4.169 A 957.386 957.386 0 0 1 7.874 3.828 Q 7.874 3.113 7.873 1.647 M 4.41 4.479 Q 4.409 4.215 4.409 2.204 A 20358.576 20358.576 0 0 1 4.409 1.959 M 3.973 4.483 Q 3.972 4.232 3.971 2.218 A 9350.438 9350.438 0 0 1 3.971 1.971 M 3.738 1.976 Q 3.737 3.943 3.736 4.388 A 48.695 48.695 0 0 1 3.736 4.484 M 7.99 4.139 A 890.753 890.753 0 0 1 7.99 3.763 Q 7.989 3.213 7.989 2.256 A 9151.193 9151.193 0 0 1 7.988 1.633 M 3.496 1.98 Q 3.495 3.948 3.495 4.39 A 64.398 64.398 0 0 1 3.494 4.485 M 0.985 3.986 A 2.639 2.639 0 0 1 0.738 3.473 Q 0.538 2.933 0.428 2.115 A 12.562 12.562 0 0 1 0.368 1.581 M 3.244 1.983 A 9492.054 9492.054 0 0 1 3.244 2.23 Q 3.243 3.979 3.242 4.391 A 47.057 47.057 0 0 1 3.241 4.485 M 2.984 4.485 Q 2.982 4.249 2.981 2.231 A 7385.572 7385.572 0 0 1 2.981 1.985 M 8.104 1.619 A 15951.445 15951.445 0 0 1 8.104 2.226 Q 8.104 3.548 8.103 4.107 M 8.222 1.606 A 48525.147 48525.147 0 0 1 8.222 2.198 Q 8.222 3.499 8.222 4.071 M 0.985 3.937 A 2.881 2.881 0 0 1 0.753 3.423 Q 0.562 2.876 0.455 2.059 A 13.143 13.143 0 0 1 0.4 1.569 M 8.341 1.593 Q 8.341 2.89 8.341 3.613 A 5748.497 5748.497 0 0 1 8.341 4.031 M 8.464 3.986 A 1425.616 1425.616 0 0 1 8.464 3.565 Q 8.463 2.92 8.463 1.841 A 10740.857 10740.857 0 0 1 8.463 1.581 M 0.985 3.883 A 3.195 3.195 0 0 1 0.764 3.354 Q 0.581 2.789 0.476 1.953 A 13.986 13.986 0 0 1 0.433 1.558 M 8.588 3.937 A 1670.848 1670.848 0 0 1 8.587 3.515 Q 8.587 2.832 8.586 1.69 A 11847.28 11847.28 0 0 1 8.586 1.569 M 0.985 3.821 Q 0.659 3.159 0.504 1.881 A 14.746 14.746 0 0 1 0.468 1.547 M 8.713 1.558 Q 8.712 2.747 8.712 3.46 A 1936.844 1936.844 0 0 1 8.711 3.883 M 0.985 3.749 A 3.938 3.938 0 0 1 0.794 3.213 Q 0.631 2.639 0.535 1.814 A 15.541 15.541 0 0 1 0.505 1.537 M 0.985 3.669 A 4.397 4.397 0 0 1 0.812 3.141 Q 0.664 2.581 0.572 1.792 A 16.238 16.238 0 0 1 0.544 1.528 M 0.985 3.575 A 4.924 4.924 0 0 1 0.83 3.059 Q 0.697 2.517 0.611 1.77 A 16.972 16.972 0 0 1 0.584 1.52 M 9.255 1.52 A 22815.429 22815.429 0 0 1 9.255 2.107 Q 9.255 2.717 9.255 3.171 A 6080.892 6080.892 0 0 1 9.255 3.575 M 0.985 3.465 A 5.538 5.538 0 0 1 0.849 2.967 Q 0.72 2.402 0.639 1.624 A 18.322 18.322 0 0 1 0.627 1.512 M 9.402 3.465 A 25967.736 25967.736 0 0 1 9.402 3.074 Q 9.402 2.44 9.402 1.512 M 0.985 3.337 A 6.419 6.419 0 0 1 0.857 2.809 Q 0.801 2.532 0.755 2.206 A 16.17 16.17 0 0 1 0.672 1.505 M 9.553 1.505 A 11144.12 11144.12 0 0 1 9.553 1.741 Q 9.553 2.72 9.552 3.337 M 0.985 3.181 Q 0.872 2.744 0.791 2.135 A 16.958 16.958 0 0 1 0.719 1.499 M 9.711 3.181 A 4042.659 4042.659 0 0 1 9.711 2.832 Q 9.711 2.351 9.711 1.712 A 12255.204 12255.204 0 0 1 9.71 1.499 M 0.985 2.995 Q 0.893 2.586 0.825 2.032 A 17.821 17.821 0 0 1 0.767 1.494 M 0.985 2.764 A 9.1 9.1 0 0 1 0.915 2.341 Q 0.887 2.151 0.863 1.938 A 18.211 18.211 0 0 1 0.819 1.49 M 10.043 1.49 A 7271.709 7271.709 0 0 1 10.042 1.938 Q 10.042 2.151 10.042 2.341 A 3538.213 3538.213 0 0 1 10.042 2.764 M 2.981 0 A 0.016 0.016 0 0 1 2.981 0.002 Q 2.982 0.042 2.984 0.754 A 1155.824 1155.824 0 0 1 2.984 0.985 M 3.241 0.985 A 1481.313 1481.313 0 0 1 3.242 0.754 Q 3.243 0.043 3.244 0.003 A 0.02 0.02 0 0 0 3.244 0.003 M 3.494 0.985 A 1972.167 1972.167 0 0 1 3.495 0.754 Q 3.495 0.043 3.496 0.003 A 0.027 0.027 0 0 0 3.496 0.003 M 3.736 0.985 A 1434.635 1434.635 0 0 1 3.736 0.754 Q 3.737 0.001 3.738 0.001 M 0.985 2.465 A 9.447 9.447 0 0 1 0.938 2.135 Q 0.915 1.952 0.895 1.745 A 18.039 18.039 0 0 1 0.872 1.488 M 3.971 0.001 A 0.02 0.02 0 0 1 3.971 0.004 Q 3.972 0.044 3.973 0.755 A 1439.012 1439.012 0 0 1 3.973 0.985 M 4.193 0.985 A 4024.406 4024.406 0 0 1 4.194 0.755 Q 4.194 0.045 4.194 0.005 A 0.055 0.055 0 0 0 4.194 0.005 M 4.409 0.003 Q 4.409 0.003 4.41 0.755 A 3099.038 3099.038 0 0 1 4.41 0.985 M 4.616 0.985 Q 4.615 0.053 4.615 0.007 A 0.03 0.03 0 0 1 4.615 0.007 M 4.813 0.007 Q 4.813 0.007 4.813 0.756 A 8074.281 8074.281 0 0 1 4.813 0.985 M 10.218 1.488 Q 10.218 1.842 10.218 2.135 A 7256.478 7256.478 0 0 1 10.218 2.465 M 5 0.985 A 1442.059 1442.059 0 0 1 5.001 0.756 Q 5.002 0.051 5.002 0.011 A 0.02 0.02 0 0 0 5.002 0.011 M 5.185 0.985 A 4874.844 4874.844 0 0 1 5.185 0.757 Q 5.185 0.054 5.185 0.014 A 0.07 0.07 0 0 0 5.185 0.014 M 5.36 0.985 A 3301.45 3301.45 0 0 1 5.36 0.759 Q 5.361 0.13 5.361 0.033 A 1.153 1.153 0 0 1 5.361 0.015 M 5.53 0.018 A 0.601 0.601 0 0 1 5.53 0.038 Q 5.531 0.138 5.532 0.761 A 1284.511 1284.511 0 0 1 5.532 0.985 M 5.691 0.985 A 1558.62 1558.62 0 0 1 5.691 0.764 Q 5.692 0.145 5.693 0.043 A 0.924 0.924 0 0 1 5.693 0.023 M 5.85 0.028 A 0.984 0.984 0 0 1 5.85 0.049 Q 5.851 0.155 5.852 0.767 A 1259.869 1259.869 0 0 1 5.852 0.985 M 6 0.985 A 2492.543 2492.543 0 0 1 6 0.769 Q 6.001 0.166 6.001 0.056 A 2.544 2.544 0 0 1 6.001 0.033 M 6.146 0.985 A 1428.202 1428.202 0 0 1 6.146 0.773 Q 6.147 0.177 6.148 0.064 A 1.882 1.882 0 0 1 6.148 0.04 M 6.289 0.985 A 5512.285 5512.285 0 0 1 6.289 0.776 Q 6.289 0.089 6.289 0.047 M 6.425 0.985 Q 6.426 0.222 6.426 0.082 A 2.802 2.802 0 0 1 6.427 0.055 M 6.558 0.985 A 1420.04 1420.04 0 0 1 6.558 0.783 Q 6.559 0.163 6.56 0.074 A 1.709 1.709 0 0 1 6.56 0.064 M 6.69 0.985 A 8489.984 8489.984 0 0 1 6.69 0.787 Q 6.69 0.179 6.69 0.085 A 13.673 13.673 0 0 1 6.69 0.074 M 6.816 0.085 A 2.383 2.383 0 0 1 6.817 0.096 Q 6.817 0.196 6.818 0.792 A 1105.294 1105.294 0 0 1 6.819 0.985 M 6.94 0.097 A 8.503 8.503 0 0 1 6.94 0.109 Q 6.941 0.229 6.941 0.985 M 7.061 0.985 Q 7.061 0.249 7.061 0.123 A 39.323 39.323 0 0 1 7.061 0.11 M 7.179 0.985 A 1885.761 1885.761 0 0 1 7.179 0.806 Q 7.18 0.252 7.18 0.138 A 9.003 9.003 0 0 1 7.181 0.124 M 7.298 0.139 A 12.301 12.301 0 0 1 7.298 0.186 Q 7.299 0.359 7.3 0.985 M 7.414 0.985 Q 7.414 0.387 7.414 0.209 A 260.878 260.878 0 0 1 7.414 0.156 M 7.644 0.193 A 56.65 56.65 0 0 1 7.644 0.242 Q 7.644 0.38 7.644 0.756 A 2774.303 2774.303 0 0 1 7.645 0.985 M 7.757 0.985 A 926.913 926.913 0 0 1 7.757 0.764 Q 7.758 0.324 7.758 0.214 M 7.873 0.236 Q 7.874 0.35 7.874 0.773 A 962.9 962.9 0 0 1 7.875 0.985 M 7.988 0.259 A 18.816 18.816 0 0 1 7.988 0.279 Q 7.989 0.441 7.99 0.985 M 8.103 0.985 A 1217.758 1217.758 0 0 1 8.104 0.792 Q 8.104 0.405 8.104 0.284 M 8.222 0.985 A 3366.935 3366.935 0 0 1 8.222 0.774 Q 8.222 0.51 8.222 0.378 A 188.807 188.807 0 0 1 8.222 0.311 M 8.341 0.985 A 2807.703 2807.703 0 0 1 8.341 0.786 Q 8.341 0.535 8.341 0.406 A 184.038 184.038 0 0 1 8.341 0.339 M 8.463 0.368 A 44.908 44.908 0 0 1 8.463 0.435 Q 8.463 0.561 8.464 0.797 A 591.491 591.491 0 0 1 8.464 0.985 M 8.586 0.4 Q 8.587 0.517 8.587 0.798 A 575.034 575.034 0 0 1 8.588 0.985 M 0.985 2.064 Q 0.957 1.85 0.935 1.577 A 14.522 14.522 0 0 1 0.927 1.486 M 10.402 2.064 A 2392.463 2392.463 0 0 1 10.401 1.831 Q 10.401 1.671 10.401 1.486 M 8.711 0.985 A 553.621 553.621 0 0 1 8.712 0.806 Q 8.712 0.548 8.713 0.433 M 8.841 0.985 Q 8.842 0.646 8.843 0.493 A 45.837 45.837 0 0 1 8.843 0.468 M 9.112 0.985 A 429.486 429.486 0 0 1 9.113 0.844 Q 9.113 0.658 9.113 0.554 A 55.091 55.091 0 0 1 9.113 0.544 M 9.255 0.985 A 793.633 793.633 0 0 1 9.255 0.859 Q 9.255 0.683 9.255 0.584 M 9.402 0.627 A 629.85 629.85 0 0 1 9.402 0.691 Q 9.402 0.768 9.402 0.874 A 2725.554 2725.554 0 0 1 9.402 0.985 M 9.552 0.985 Q 9.553 0.831 9.553 0.729 A 72.387 72.387 0 0 1 9.553 0.672 M 9.71 0.719 A 78.625 78.625 0 0 1 9.711 0.769 Q 9.711 0.828 9.711 0.906 A 262.687 262.687 0 0 1 9.711 0.985 M 9.873 0.767 A 668.181 668.181 0 0 1 9.873 0.786 Q 9.873 0.843 9.873 0.921 A 2150.339 2150.339 0 0 1 9.873 0.985 M 10.042 0.985 Q 10.042 0.89 10.043 0.825 A 41.212 41.212 0 0 1 10.043 0.818 M 10.218 0.985 A 168.562 168.562 0 0 1 10.218 0.938 Q 10.218 0.92 10.218 0.903 A 84.483 84.483 0 0 1 10.218 0.872 M 10.401 0.927 A 21.287 21.287 0 0 1 10.401 0.944 Q 10.402 0.962 10.402 0.985 M 0.985 4.463 Q 0.012 4.145 0.012 1.923 M 0.985 4.443 Q 0.042 4.088 0.023 1.89 M 0.985 4.395 Q 0.111 3.965 0.055 1.823 M 2.708 0.985 2.708 0.001 M 7.53 0.985 Q 7.53 0.297 7.529 0.174 M 8.976 0.985 Q 8.976 0.65 8.976 0.505 M 2.708 4.485 2.708 1.985 M 4.193 4.481 Q 4.194 4.209 4.194 1.965 M 4.813 4.472 Q 4.813 4.175 4.813 1.942 M 5.532 4.45 Q 5.531 4.108 5.53 1.901 M 8.841 3.821 Q 8.842 3.076 8.843 1.547 M 8.976 3.749 8.976 1.537 M 9.112 3.669 Q 9.113 2.926 9.113 1.528 M 9.873 2.995 Q 9.873 2.398 9.873 1.494" id="purple" stroke="purple" style="stroke:purple" vector-effect="non-scaling-stroke"/></g></svg>