<svg width="169.982" height="225.026" viewBox="0 0 169.982 225.026" xmlns="http://www.w3.org/2000/svg"><g id="svgGroup" stroke-linecap="round" fill-rule="evenodd" font-size="9pt" stroke="#000" stroke-width="0.25mm" fill="none" style="stroke:#000;stroke-width:0.25mm;fill:none"><path d="M 97.134 225.026 L 97.545 222.892 L 97.973 220.761 L 98.419 218.635 L 98.884 216.512 L 99.367 214.393 L 99.869 212.279 L 100.39 210.169 L 100.931 208.065 L 101.493 205.965 L 102.074 203.872 L 102.677 201.784 L 103.302 199.702 L 103.948 197.628 L 104.616 195.56 L 105.307 193.5 L 106.02 191.447 L 106.757 189.403 L 107.518 187.367 L 108.302 185.341 L 109.111 183.324 L 109.944 181.317 L 110.802 179.32 L 111.685 177.334 L 112.592 175.36 L 113.524 173.397 L 114.481 171.446 L 115.463 169.508 L 116.47 167.582 L 117.5 165.669 L 118.555 163.769 L 119.633 161.882 L 120.734 160.008 L 121.857 158.148 L 123.001 156.301 L 124.165 154.466 L 125.349 152.643 L 126.55 150.832 L 127.767 149.032 L 128.999 147.242 L 130.244 145.461 L 131.5 143.688 L 132.765 141.921 L 134.036 140.158 L 135.312 138.399 L 136.589 136.641 L 137.866 134.882 L 139.138 133.121 L 140.404 131.354 L 141.659 129.581 L 142.902 127.798 L 144.129 126.005 L 145.337 124.198 L 146.523 122.377 L 147.684 120.541 L 148.817 118.687 L 149.921 116.814 L 150.992 114.924 L 152.029 113.014 L 153.03 111.085 L 153.993 109.138 L 154.919 107.172 L 155.807 105.188 L 156.655 103.188 L 157.465 101.171 L 158.237 99.14 L 158.972 97.095 L 159.669 95.037 L 160.331 92.967 L 160.958 90.887 L 161.552 88.796 L 162.113 86.697 L 162.644 84.59 L 163.146 82.476 L 163.62 80.355 L 164.066 78.228 L 164.488 76.096 L 164.885 73.96 L 165.259 71.819 L 165.612 69.675 L 165.944 67.528 L 166.256 65.377 L 166.55 63.224 L 166.826 61.069 L 167.085 58.911 L 167.328 56.752 L 167.557 54.591 L 167.771 52.428 L 167.971 50.264 L 168.158 48.099 L 168.334 45.934 L 168.497 43.767 L 168.649 41.599 L 168.791 39.431 L 168.923 37.262 L 169.045 35.092 L 169.158 32.921 L 169.262 30.751 L 169.357 28.58 L 169.445 26.409 L 169.525 24.238 L 169.597 22.066 L 169.663 19.894 L 169.722 17.722 L 169.774 15.549 L 169.821 13.377 L 169.861 11.203 L 169.896 9.031 L 169.925 6.858 L 169.949 4.685 L 169.968 2.513 L 169.982 0.34 L 0 0 L 0.018 2.29 L 0.043 4.58 L 0.074 6.87 L 0.112 9.16 L 0.157 11.45 L 0.21 13.739 L 0.27 16.028 L 0.338 18.318 L 0.414 20.606 L 0.498 22.895 L 0.591 25.183 L 0.693 27.471 L 0.805 29.759 L 0.926 32.046 L 1.058 34.332 L 1.2 36.618 L 1.352 38.903 L 1.516 41.187 L 1.692 43.47 L 1.88 45.753 L 2.081 48.034 L 2.295 50.314 L 2.522 52.593 L 2.763 54.87 L 3.019 57.146 L 3.289 59.421 L 3.576 61.693 L 3.878 63.963 L 4.197 66.231 L 4.534 68.496 L 4.888 70.759 L 5.26 73.018 L 5.651 75.275 L 6.062 77.528 L 6.493 79.777 L 6.944 82.022 L 7.416 84.263 L 7.91 86.499 L 8.427 88.731 L 8.966 90.956 L 9.528 93.177 L 10.113 95.391 L 10.723 97.598 L 11.357 99.799 L 12.016 101.992 L 12.7 104.178 L 13.409 106.355 L 14.144 108.524 L 14.904 110.685 L 15.69 112.836 L 16.502 114.977 L 17.34 117.108 L 18.203 119.23 L 19.092 121.34 L 20.006 123.44 L 20.945 125.529 L 21.91 127.606 L 22.898 129.672 L 23.911 131.726 L 24.948 133.768 L 26.008 135.798 L 27.09 137.816 L 28.195 139.822 L 29.322 141.816 L 30.47 143.798 L 31.638 145.767 L 32.826 147.725 L 34.034 149.671 L 35.26 151.605 L 36.504 153.528 L 37.766 155.439 L 39.045 157.339 L 40.34 159.228 L 41.651 161.105 L 42.977 162.973 L 44.318 164.829 L 45.672 166.676 L 47.041 168.513 L 48.422 170.339 L 49.815 172.157 L 51.221 173.965 L 52.637 175.764 L 54.065 177.555 L 55.504 179.337 L 56.953 181.11 L 58.411 182.876 L 59.879 184.634 L 61.356 186.385 L 62.841 188.128 L 64.335 189.864 L 65.836 191.593 L 67.345 193.316 L 68.862 195.032 L 70.385 196.742 L 71.916 198.445 L 73.453 200.143 L 74.995 201.836 L 76.544 203.523 L 78.099 205.204 L 79.66 206.881 L 81.225 208.552 L 82.796 210.219 L 84.371 211.881 L 85.952 213.538 L 87.537 215.191 L 89.126 216.84 L 90.72 218.485 L 92.317 220.126 L 93.919 221.763 L 95.524 223.396 L 97.134 225.026 Z" vector-effect="non-scaling-stroke"/><g id="captions"><text alignment-baseline="middle" text-anchor="middle" transform="rotate(0,91.062,112.598)" x="91.062" y="112.598">BULKHEAD, 1</text></g></g></svg>