<svg width="142.84" height="246.533" viewBox="0 0 142.84 246.533" xmlns="http://www.w3.org/2000/svg"><g id="svgGroup" stroke-linecap="round" fill-rule="evenodd" font-size="9pt" stroke="#000" stroke-width="0.25mm" fill="none" style="stroke:#000;stroke-width:0.25mm;fill:none"><path d="M 81.523 246.533 L 81.6 244.229 L 81.683 241.924 L 81.771 239.62 L 81.866 237.316 L 81.966 235.013 L 82.073 232.71 L 82.186 230.407 L 82.305 228.104 L 82.431 225.802 L 82.563 223.5 L 82.702 221.198 L 82.847 218.897 L 82.999 216.597 L 83.158 214.296 L 83.324 211.997 L 83.498 209.697 L 83.678 207.399 L 83.866 205.101 L 84.062 202.803 L 84.265 200.506 L 84.476 198.21 L 84.695 195.915 L 84.922 193.621 L 85.158 191.327 L 85.402 189.034 L 85.654 186.742 L 85.916 184.452 L 86.187 182.162 L 86.467 179.873 L 86.756 177.586 L 87.055 175.299 L 87.365 173.014 L 87.684 170.731 L 88.013 168.449 L 88.354 166.169 L 88.705 163.89 L 89.068 161.613 L 89.442 159.337 L 89.828 157.064 L 90.226 154.793 L 90.636 152.524 L 91.059 150.258 L 91.496 147.994 L 91.946 145.732 L 92.41 143.474 L 92.888 141.218 L 93.381 138.966 L 93.889 136.717 L 94.413 134.471 L 94.953 132.23 L 95.509 129.992 L 96.082 127.759 L 96.673 125.53 L 97.282 123.306 L 97.909 121.087 L 98.554 118.874 L 99.219 116.666 L 99.904 114.464 L 100.609 112.269 L 101.335 110.081 L 102.081 107.899 L 102.849 105.725 L 103.638 103.558 L 104.448 101.4 L 105.28 99.249 L 106.133 97.107 L 107.007 94.973 L 107.901 92.848 L 108.815 90.731 L 109.748 88.623 L 110.698 86.522 L 111.664 84.428 L 112.644 82.341 L 113.636 80.26 L 114.638 78.183 L 115.647 76.11 L 116.66 74.039 L 117.675 71.969 L 118.689 69.897 L 119.698 67.824 L 120.7 65.748 L 121.691 63.666 L 122.67 61.578 L 123.635 59.484 L 124.582 57.382 L 125.512 55.272 L 126.422 53.153 L 127.311 51.026 L 128.18 48.89 L 129.027 46.746 L 129.854 44.594 L 130.659 42.433 L 131.444 40.265 L 132.209 38.09 L 132.954 35.908 L 133.681 33.72 L 134.39 31.526 L 135.081 29.326 L 135.756 27.122 L 136.416 24.912 L 137.06 22.698 L 137.691 20.481 L 138.308 18.259 L 138.912 16.034 L 139.505 13.806 L 140.086 11.574 L 140.656 9.34 L 141.216 7.104 L 141.766 4.864 L 142.307 2.623 L 142.84 0.38 L 0 0 L 0.689 2.236 L 1.378 4.471 L 2.069 6.706 L 2.76 8.941 L 3.453 11.176 L 4.146 13.41 L 4.84 15.644 L 5.535 17.878 L 6.232 20.111 L 6.929 22.344 L 7.627 24.577 L 8.327 26.81 L 9.027 29.042 L 9.729 31.273 L 10.431 33.505 L 11.135 35.736 L 11.84 37.966 L 12.546 40.197 L 13.254 42.427 L 13.962 44.656 L 14.672 46.885 L 15.383 49.114 L 16.095 51.342 L 16.808 53.571 L 17.522 55.798 L 18.238 58.025 L 18.955 60.252 L 19.673 62.479 L 20.392 64.705 L 21.112 66.931 L 21.833 69.156 L 22.556 71.381 L 23.279 73.606 L 24.004 75.83 L 24.729 78.054 L 25.456 80.278 L 26.184 82.501 L 26.913 84.724 L 27.642 86.947 L 28.373 89.169 L 29.104 91.392 L 29.837 93.613 L 30.57 95.835 L 31.304 98.056 L 32.04 100.277 L 32.775 102.498 L 33.512 104.718 L 34.249 106.938 L 34.987 109.158 L 35.726 111.378 L 36.466 113.597 L 37.206 115.816 L 37.947 118.035 L 38.688 120.254 L 39.43 122.473 L 40.173 124.691 L 40.916 126.909 L 41.66 129.127 L 42.404 131.345 L 43.149 133.563 L 43.894 135.781 L 44.64 137.998 L 45.386 140.215 L 46.133 142.432 L 46.88 144.649 L 47.627 146.866 L 48.375 149.083 L 49.123 151.299 L 49.872 153.516 L 50.62 155.732 L 51.37 157.948 L 52.119 160.164 L 52.869 162.38 L 53.619 164.596 L 54.37 166.812 L 55.121 169.027 L 55.872 171.243 L 56.623 173.458 L 57.375 175.674 L 58.127 177.889 L 58.879 180.104 L 59.631 182.319 L 60.384 184.534 L 61.136 186.749 L 61.889 188.964 L 62.643 191.179 L 63.396 193.394 L 64.149 195.609 L 64.903 197.823 L 65.657 200.038 L 66.411 202.252 L 67.166 204.467 L 67.92 206.681 L 68.675 208.896 L 69.429 211.11 L 70.184 213.324 L 70.939 215.538 L 71.694 217.753 L 72.45 219.967 L 73.205 222.181 L 73.961 224.395 L 74.716 226.609 L 75.472 228.823 L 76.228 231.037 L 76.984 233.25 L 77.74 235.464 L 78.497 237.678 L 79.253 239.892 L 80.009 242.106 L 80.766 244.319 L 81.523 246.533 Z" vector-effect="non-scaling-stroke"/><g id="captions"><text alignment-baseline="middle" text-anchor="middle" transform="rotate(0,76.471,123.361)" x="76.471" y="123.361">BULKHEAD, 2</text></g></g></svg>