<svg width="169.999" height="224.233" viewBox="0 0 169.999 224.233" xmlns="http://www.w3.org/2000/svg"><g id="svgGroup" stroke-linecap="round" fill-rule="evenodd" font-size="9pt" stroke="#000" stroke-width="0.25mm" fill="none" style="stroke:#000;stroke-width:0.25mm;fill:none"><path d="M 97.142 224.233 L 97.557 222.109 L 97.992 219.988 L 98.447 217.872 L 98.922 215.761 L 99.418 213.654 L 99.935 211.552 L 100.474 209.456 L 101.034 207.365 L 101.616 205.28 L 102.22 203.202 L 102.847 201.13 L 103.496 199.065 L 104.169 197.008 L 104.864 194.958 L 105.582 192.917 L 106.325 190.883 L 107.09 188.859 L 107.879 186.843 L 108.692 184.838 L 109.529 182.841 L 110.39 180.855 L 111.274 178.88 L 112.181 176.915 L 113.112 174.961 L 114.066 173.018 L 115.043 171.086 L 116.042 169.166 L 117.063 167.258 L 118.106 165.361 L 119.169 163.476 L 120.253 161.602 L 121.355 159.74 L 122.476 157.888 L 123.615 156.047 L 124.769 154.216 L 125.939 152.395 L 127.122 150.583 L 128.317 148.778 L 129.523 146.981 L 130.739 145.19 L 131.961 143.404 L 133.189 141.621 L 134.42 139.841 L 135.652 138.061 L 136.883 136.281 L 138.111 134.499 L 139.334 132.713 L 140.549 130.922 L 141.753 129.123 L 142.945 127.316 L 144.122 125.5 L 145.281 123.672 L 146.419 121.831 L 147.536 119.977 L 148.628 118.108 L 149.694 116.224 L 150.731 114.325 L 151.739 112.409 L 152.716 110.478 L 153.66 108.53 L 154.571 106.566 L 155.448 104.588 L 156.29 102.594 L 157.099 100.586 L 157.873 98.565 L 158.613 96.531 L 159.319 94.485 L 159.992 92.428 L 160.634 90.361 L 161.243 88.284 L 161.822 86.198 L 162.372 84.105 L 162.893 82.004 L 163.386 79.897 L 163.854 77.783 L 164.296 75.664 L 164.713 73.541 L 165.108 71.413 L 165.48 69.28 L 165.831 67.144 L 166.161 65.006 L 166.473 62.864 L 166.765 60.719 L 167.041 58.572 L 167.299 56.423 L 167.541 54.272 L 167.768 52.12 L 167.98 49.966 L 168.179 47.81 L 168.364 45.654 L 168.536 43.496 L 168.696 41.338 L 168.845 39.178 L 168.982 37.018 L 169.109 34.858 L 169.225 32.697 L 169.332 30.535 L 169.429 28.373 L 169.518 26.21 L 169.598 24.047 L 169.669 21.884 L 169.733 19.72 L 169.789 17.556 L 169.838 15.392 L 169.88 13.229 L 169.915 11.064 L 169.944 8.9 L 169.967 6.736 L 169.983 4.571 L 169.994 2.407 L 169.999 0.243 L 0 0 L 0.006 2.28 L 0.021 4.561 L 0.044 6.842 L 0.075 9.122 L 0.114 11.403 L 0.163 13.683 L 0.221 15.963 L 0.289 18.243 L 0.366 20.522 L 0.454 22.802 L 0.552 25.08 L 0.66 27.358 L 0.78 29.636 L 0.911 31.913 L 1.054 34.189 L 1.209 36.465 L 1.377 38.739 L 1.557 41.013 L 1.751 43.285 L 1.958 45.557 L 2.18 47.827 L 2.415 50.095 L 2.666 52.362 L 2.932 54.627 L 3.213 56.891 L 3.511 59.152 L 3.825 61.411 L 4.156 63.668 L 4.504 65.922 L 4.87 68.173 L 5.254 70.421 L 5.657 72.666 L 6.079 74.907 L 6.521 77.145 L 6.982 79.378 L 7.463 81.608 L 7.965 83.833 L 8.488 86.053 L 9.033 88.267 L 9.599 90.477 L 10.187 92.681 L 10.797 94.878 L 11.429 97.069 L 12.085 99.254 L 12.763 101.432 L 13.464 103.602 L 14.188 105.765 L 14.936 107.919 L 15.707 110.066 L 16.501 112.204 L 17.319 114.333 L 18.159 116.453 L 19.024 118.564 L 19.911 120.665 L 20.821 122.756 L 21.754 124.837 L 22.71 126.908 L 23.687 128.969 L 24.687 131.019 L 25.709 133.058 L 26.752 135.086 L 27.816 137.103 L 28.901 139.11 L 30.006 141.105 L 31.131 143.089 L 32.275 145.062 L 33.439 147.024 L 34.62 148.974 L 35.821 150.914 L 37.038 152.842 L 38.273 154.76 L 39.525 156.666 L 40.793 158.562 L 42.076 160.447 L 43.375 162.322 L 44.689 164.186 L 46.017 166.041 L 47.36 167.885 L 48.715 169.719 L 50.084 171.543 L 51.466 173.358 L 52.86 175.163 L 54.265 176.959 L 55.683 178.746 L 57.111 180.524 L 58.55 182.293 L 60 184.054 L 61.459 185.807 L 62.928 187.551 L 64.407 189.288 L 65.894 191.017 L 67.391 192.738 L 68.895 194.452 L 70.408 196.159 L 71.929 197.859 L 73.457 199.552 L 74.993 201.238 L 76.536 202.917 L 78.086 204.591 L 79.642 206.258 L 81.205 207.919 L 82.774 209.575 L 84.349 211.224 L 85.93 212.868 L 87.516 214.507 L 89.108 216.14 L 90.705 217.769 L 92.307 219.392 L 93.914 221.01 L 95.526 222.624 L 97.142 224.233 Z" vector-effect="non-scaling-stroke"/><g id="captions"><text alignment-baseline="middle" text-anchor="middle" transform="rotate(0,91.071,112.177)" x="91.071" y="112.177">BULKHEAD, 0</text></g></g></svg>