<svg width="514.009" height="937.424" viewBox="0 0 514.009 937.424" xmlns="http://www.w3.org/2000/svg"><g id="svgGroup" stroke-linecap="round" fill-rule="evenodd" font-size="9pt" stroke="#000" stroke-width="0.25mm" fill="none" style="stroke:#000;stroke-width:0.25mm;fill:none"><path d="M 0 0 L 0.917 15.012 L 1.874 29.909 L 2.872 44.693 L 3.911 59.363 L 4.991 73.919 L 6.112 88.361 L 7.273 102.689 L 8.476 116.903 L 9.719 131.004 L 11.003 144.99 L 12.328 158.863 L 13.693 172.622 L 15.1 186.267 L 16.547 199.798 L 18.035 213.215 L 19.564 226.518 L 21.134 239.708 L 22.744 252.783 L 24.396 265.745 L 26.088 278.592 L 27.821 291.326 L 29.595 303.946 L 31.409 316.452 L 33.265 328.844 L 35.161 341.123 L 37.098 353.287 L 39.076 365.338 L 41.095 377.274 L 43.155 389.097 L 45.255 400.806 L 47.396 412.401 L 49.578 423.882 L 51.801 435.249 L 54.065 446.503 L 56.369 457.642 L 58.714 468.668 L 61.101 479.579 L 63.528 490.377 L 65.995 501.061 L 68.504 511.631 L 71.053 522.087 L 73.643 532.429 L 76.275 542.658 L 78.946 552.772 L 81.659 562.773 L 84.413 572.66 L 87.207 582.432 L 90.042 592.091 L 92.918 601.637 L 95.835 611.068 L 98.792 620.385 L 101.791 629.588 L 104.83 638.678 L 107.91 647.654 L 111.031 656.515 L 114.193 665.263 L 117.395 673.897 L 120.639 682.417 L 123.923 690.824 L 127.248 699.116 L 130.614 707.294 L 134.02 715.359 L 137.468 723.31 L 140.956 731.146 L 144.485 738.869 L 148.055 746.478 L 151.666 753.974 L 155.317 761.355 L 159.009 768.622 L 162.743 775.776 L 166.517 782.815 L 170.331 789.741 L 174.187 796.553 L 178.084 803.251 L 182.021 809.835 L 185.999 816.305 L 190.018 822.661 L 194.078 828.904 L 198.178 835.032 L 202.319 841.047 L 206.502 846.948 L 210.725 852.735 L 214.989 858.408 L 219.293 863.967 L 223.639 869.412 L 228.025 874.743 L 232.452 879.961 L 236.92 885.064 L 241.429 890.054 L 245.978 894.93 L 250.569 899.692 L 255.2 904.34 L 259.872 908.874 L 264.585 913.294 L 269.339 917.601 L 274.133 921.793 L 278.968 925.872 L 283.844 929.837 L 288.761 933.687 L 293.719 937.424 L 297.438 933.687 L 301.125 929.837 L 304.782 925.872 L 308.409 921.793 L 312.005 917.601 L 315.57 913.294 L 319.105 908.874 L 322.609 904.34 L 326.082 899.692 L 329.525 894.93 L 332.937 890.054 L 336.319 885.064 L 339.67 879.961 L 342.99 874.743 L 346.28 869.412 L 349.539 863.967 L 352.767 858.408 L 355.965 852.735 L 359.132 846.948 L 362.269 841.047 L 365.375 835.032 L 368.45 828.904 L 371.495 822.661 L 374.509 816.305 L 377.493 809.835 L 380.446 803.251 L 383.368 796.553 L 386.26 789.741 L 389.121 782.815 L 391.952 775.776 L 394.752 768.622 L 397.521 761.355 L 400.259 753.974 L 402.967 746.478 L 405.645 738.869 L 408.292 731.146 L 410.908 723.31 L 413.494 715.359 L 416.048 707.294 L 418.573 699.116 L 421.067 690.824 L 423.53 682.417 L 425.962 673.897 L 428.364 665.263 L 430.735 656.515 L 433.076 647.654 L 435.386 638.678 L 437.665 629.588 L 439.914 620.385 L 442.133 611.068 L 444.32 601.637 L 446.477 592.091 L 448.603 582.432 L 450.699 572.66 L 452.764 562.773 L 454.799 552.772 L 456.803 542.658 L 458.776 532.429 L 460.719 522.087 L 462.631 511.631 L 464.512 501.061 L 466.363 490.377 L 468.183 479.579 L 469.973 468.668 L 471.732 457.642 L 473.46 446.503 L 475.158 435.249 L 476.825 423.882 L 478.462 412.401 L 480.067 400.806 L 481.643 389.097 L 483.187 377.274 L 484.701 365.338 L 486.185 353.287 L 487.638 341.123 L 489.06 328.844 L 490.452 316.452 L 491.813 303.946 L 493.143 291.326 L 494.443 278.592 L 495.712 265.745 L 496.95 252.783 L 498.158 239.708 L 499.335 226.518 L 500.482 213.215 L 501.598 199.798 L 502.684 186.267 L 503.739 172.622 L 504.763 158.863 L 505.756 144.99 L 506.719 131.004 L 507.652 116.903 L 508.553 102.689 L 509.425 88.361 L 510.265 73.919 L 511.075 59.363 L 511.854 44.693 L 512.603 29.909 L 513.321 15.012 L 514.009 0 L 0 0 Z" vector-effect="non-scaling-stroke"/></g></svg>