<svg width="770.216" height="1146.289" viewBox="0 0 770.216 1146.289" xmlns="http://www.w3.org/2000/svg"><g id="svgGroup" stroke-linecap="round" fill-rule="evenodd" font-size="9pt" stroke="#000" stroke-width="0.25mm" fill="none" style="stroke:#000;stroke-width:0.25mm;fill:none"><path d="M 1.026 0 L 0.627 21.578 L 0.325 42.952 L 0.12 64.121 L 0.012 85.087 L 0 105.847 L 0.085 126.404 L 0.267 146.756 L 0.546 166.904 L 0.921 186.847 L 1.393 206.586 L 1.962 226.121 L 2.628 245.451 L 3.39 264.577 L 4.249 283.499 L 5.205 302.216 L 6.258 320.729 L 7.407 339.037 L 8.654 357.142 L 9.997 375.042 L 11.436 392.737 L 12.973 410.228 L 14.606 427.515 L 16.336 444.598 L 18.163 461.476 L 20.087 478.15 L 22.107 494.619 L 24.224 510.884 L 26.438 526.945 L 28.748 542.801 L 31.156 558.453 L 33.66 573.901 L 36.261 589.144 L 38.958 604.183 L 41.753 619.018 L 44.644 633.648 L 47.632 648.074 L 50.717 662.296 L 53.898 676.313 L 57.176 690.126 L 60.551 703.735 L 64.023 717.139 L 67.592 730.339 L 71.257 743.334 L 75.019 756.125 L 78.878 768.712 L 82.833 781.094 L 86.885 793.273 L 91.035 805.246 L 95.28 817.016 L 99.623 828.581 L 104.062 839.942 L 108.598 851.098 L 113.231 862.05 L 117.961 872.798 L 122.787 883.341 L 127.711 893.68 L 132.73 903.815 L 137.847 913.745 L 143.061 923.471 L 148.371 932.992 L 153.778 942.31 L 159.281 951.422 L 164.882 960.331 L 170.579 969.035 L 176.373 977.535 L 182.264 985.83 L 188.252 993.922 L 194.336 1001.808 L 200.517 1009.491 L 206.795 1016.969 L 213.169 1024.243 L 219.641 1031.312 L 226.209 1038.177 L 232.874 1044.838 L 239.635 1051.294 L 246.494 1057.546 L 253.449 1063.594 L 260.501 1069.437 L 267.649 1075.076 L 274.895 1080.511 L 282.237 1085.741 L 289.676 1090.767 L 297.212 1095.588 L 304.844 1100.205 L 312.573 1104.618 L 320.399 1108.827 L 328.322 1112.831 L 336.342 1116.631 L 344.458 1120.226 L 352.671 1123.617 L 360.981 1126.804 L 369.387 1129.786 L 377.891 1132.564 L 386.491 1135.138 L 395.188 1137.508 L 403.981 1139.673 L 412.872 1141.633 L 421.859 1143.389 L 430.943 1144.941 L 440.123 1146.289 L 447.009 1144.941 L 453.822 1143.389 L 460.562 1141.633 L 467.23 1139.673 L 473.825 1137.508 L 480.348 1135.138 L 486.798 1132.564 L 493.175 1129.786 L 499.48 1126.804 L 505.713 1123.617 L 511.872 1120.226 L 517.96 1116.631 L 523.974 1112.831 L 529.916 1108.827 L 535.786 1104.618 L 541.583 1100.205 L 547.307 1095.588 L 552.959 1090.767 L 558.538 1085.741 L 564.045 1080.511 L 569.479 1075.076 L 574.84 1069.437 L 580.129 1063.594 L 585.346 1057.546 L 590.49 1051.294 L 595.561 1044.838 L 600.559 1038.177 L 605.486 1031.312 L 610.339 1024.243 L 615.12 1016.969 L 619.828 1009.491 L 624.464 1001.808 L 629.027 993.922 L 633.518 985.83 L 637.936 977.535 L 642.282 969.035 L 646.555 960.331 L 650.755 951.422 L 654.883 942.31 L 658.938 932.992 L 662.921 923.471 L 666.831 913.745 L 670.668 903.815 L 674.433 893.68 L 678.125 883.341 L 681.745 872.798 L 685.293 862.05 L 688.767 851.098 L 692.169 839.942 L 695.499 828.581 L 698.756 817.016 L 701.94 805.246 L 705.052 793.273 L 708.091 781.094 L 711.058 768.712 L 713.952 756.125 L 716.773 743.334 L 719.522 730.339 L 722.199 717.139 L 724.803 703.735 L 727.334 690.126 L 729.792 676.313 L 732.179 662.296 L 734.492 648.074 L 736.733 633.648 L 738.901 619.018 L 740.997 604.183 L 743.02 589.144 L 744.971 573.901 L 746.849 558.453 L 748.655 542.801 L 750.388 526.945 L 752.048 510.884 L 753.636 494.619 L 755.151 478.15 L 756.594 461.476 L 757.964 444.598 L 759.261 427.515 L 760.486 410.228 L 761.639 392.737 L 762.719 375.042 L 763.726 357.142 L 764.66 339.037 L 765.523 320.729 L 766.312 302.216 L 767.029 283.499 L 767.673 264.577 L 768.245 245.451 L 768.744 226.121 L 769.171 206.586 L 769.525 186.847 L 769.807 166.904 L 770.016 146.756 L 770.152 126.404 L 770.216 105.847 L 770.207 85.087 L 770.126 64.121 L 769.972 42.952 L 769.746 21.578 L 769.447 0 L 1.026 0 Z" vector-effect="non-scaling-stroke"/></g></svg>