<svg width="161.904" height="223.903" viewBox="0 0 161.904 223.903" xmlns="http://www.w3.org/2000/svg"><g id="svgGroup" stroke-linecap="round" fill-rule="evenodd" font-size="9pt" stroke="#000" stroke-width="0.25mm" fill="none" style="stroke:#000;stroke-width:0.25mm;fill:none"><path d="M 92.517 223.903 L 92.71 221.738 L 92.916 219.574 L 93.136 217.412 L 93.37 215.251 L 93.618 213.092 L 93.882 210.935 L 94.161 208.779 L 94.457 206.626 L 94.769 204.475 L 95.099 202.327 L 95.446 200.182 L 95.812 198.039 L 96.197 195.9 L 96.601 193.765 L 97.027 191.634 L 97.473 189.506 L 97.941 187.384 L 98.432 185.267 L 98.947 183.155 L 99.486 181.05 L 100.05 178.951 L 100.64 176.859 L 101.257 174.775 L 101.902 172.7 L 102.575 170.633 L 103.278 168.577 L 104.011 166.531 L 104.776 164.497 L 105.573 162.475 L 106.404 160.466 L 107.268 158.472 L 108.166 156.493 L 109.1 154.531 L 110.071 152.586 L 111.077 150.66 L 112.12 148.753 L 113.2 146.867 L 114.317 145.003 L 115.471 143.161 L 116.662 141.343 L 117.888 139.548 L 119.149 137.778 L 120.443 136.032 L 121.77 134.311 L 123.127 132.613 L 124.512 130.938 L 125.923 129.285 L 127.356 127.651 L 128.808 126.034 L 130.277 124.432 L 131.756 122.84 L 133.243 121.255 L 134.732 119.671 L 136.217 118.084 L 137.693 116.489 L 139.152 114.879 L 140.589 113.248 L 141.996 111.592 L 143.366 109.904 L 144.691 108.182 L 145.965 106.421 L 147.182 104.62 L 148.335 102.778 L 149.423 100.897 L 150.442 98.977 L 151.392 97.023 L 152.274 95.036 L 153.089 93.022 L 153.84 90.982 L 154.531 88.922 L 155.165 86.843 L 155.748 84.749 L 156.282 82.643 L 156.771 80.525 L 157.22 78.399 L 157.632 76.264 L 158.01 74.124 L 158.357 71.979 L 158.676 69.829 L 158.968 67.675 L 159.238 65.519 L 159.485 63.36 L 159.713 61.198 L 159.922 59.035 L 160.115 56.87 L 160.293 54.704 L 160.456 52.537 L 160.606 50.369 L 160.744 48.2 L 160.871 46.03 L 160.987 43.86 L 161.093 41.689 L 161.191 39.518 L 161.28 37.346 L 161.361 35.175 L 161.434 33.003 L 161.501 30.831 L 161.562 28.658 L 161.616 26.484 L 161.665 24.313 L 161.708 22.139 L 161.746 19.967 L 161.78 17.793 L 161.809 15.619 L 161.833 13.447 L 161.854 11.274 L 161.871 9.101 L 161.884 6.928 L 161.894 4.754 L 161.9 2.579 L 161.904 0.407 L 0 0 L 0.002 2.273 L 0.006 4.546 L 0.011 6.82 L 0.019 9.093 L 0.029 11.367 L 0.042 13.641 L 0.057 15.914 L 0.075 18.188 L 0.095 20.461 L 0.119 22.735 L 0.146 25.008 L 0.177 27.282 L 0.211 29.554 L 0.249 31.828 L 0.291 34.101 L 0.338 36.374 L 0.39 38.647 L 0.447 40.92 L 0.51 43.193 L 0.579 45.465 L 0.654 47.737 L 0.736 50.01 L 0.826 52.282 L 0.924 54.553 L 1.031 56.824 L 1.148 59.094 L 1.275 61.364 L 1.414 63.634 L 1.565 65.902 L 1.73 68.17 L 1.91 70.436 L 2.105 72.701 L 2.319 74.965 L 2.551 77.227 L 2.805 79.486 L 3.082 81.743 L 3.383 83.996 L 3.712 86.246 L 4.069 88.491 L 4.459 90.731 L 4.883 92.965 L 5.343 95.191 L 5.842 97.409 L 6.383 99.618 L 6.966 101.815 L 7.594 104 L 8.268 106.171 L 8.989 108.328 L 9.757 110.468 L 10.571 112.59 L 11.431 114.695 L 12.336 116.781 L 13.284 118.847 L 14.272 120.895 L 15.299 122.923 L 16.361 124.933 L 17.457 126.925 L 18.584 128.9 L 19.74 130.858 L 20.921 132.8 L 22.126 134.728 L 23.353 136.642 L 24.6 138.543 L 25.865 140.432 L 27.146 142.311 L 28.443 144.179 L 29.752 146.037 L 31.075 147.886 L 32.408 149.728 L 33.752 151.562 L 35.105 153.389 L 36.467 155.209 L 37.837 157.024 L 39.215 158.833 L 40.598 160.636 L 41.988 162.435 L 43.384 164.23 L 44.785 166.021 L 46.191 167.808 L 47.602 169.591 L 49.016 171.371 L 50.435 173.147 L 51.857 174.921 L 53.282 176.692 L 54.711 178.461 L 56.143 180.228 L 57.577 181.992 L 59.014 183.753 L 60.453 185.514 L 61.894 187.272 L 63.338 189.028 L 64.784 190.783 L 66.231 192.536 L 67.681 194.288 L 69.132 196.038 L 70.584 197.787 L 72.038 199.535 L 73.494 201.281 L 74.951 203.027 L 76.409 204.771 L 77.868 206.515 L 79.329 208.257 L 80.79 209.998 L 82.253 211.739 L 83.716 213.479 L 85.181 215.218 L 86.647 216.956 L 88.113 218.694 L 89.58 220.431 L 91.048 222.167 L 92.517 223.903 Z" vector-effect="non-scaling-stroke"/><g id="captions"><text alignment-baseline="middle" text-anchor="middle" transform="rotate(0,86.734,112.053)" x="86.734" y="112.053">BULKHEAD, 0</text></g></g></svg>