<svg width="161.766" height="224.339" viewBox="0 0 161.766 224.339" xmlns="http://www.w3.org/2000/svg"><g id="svgGroup" stroke-linecap="round" fill-rule="evenodd" font-size="9pt" stroke="#000" stroke-width="0.25mm" fill="none" style="stroke:#000;stroke-width:0.25mm;fill:none"><path d="M 92.447 224.339 L 92.597 222.197 L 92.756 220.056 L 92.925 217.915 L 93.104 215.775 L 93.293 213.636 L 93.493 211.498 L 93.704 209.361 L 93.926 207.225 L 94.16 205.09 L 94.405 202.957 L 94.663 200.825 L 94.933 198.695 L 95.216 196.566 L 95.512 194.439 L 95.822 192.314 L 96.146 190.191 L 96.484 188.071 L 96.837 185.953 L 97.205 183.837 L 97.589 181.724 L 97.989 179.614 L 98.405 177.508 L 98.839 175.405 L 99.289 173.305 L 99.758 171.209 L 100.246 169.118 L 100.753 167.031 L 101.279 164.949 L 101.825 162.873 L 102.392 160.802 L 102.981 158.736 L 103.591 156.678 L 104.223 154.626 L 104.879 152.581 L 105.558 150.543 L 106.261 148.514 L 106.989 146.494 L 107.742 144.483 L 108.52 142.482 L 109.324 140.49 L 110.154 138.51 L 111.011 136.541 L 111.895 134.584 L 112.806 132.639 L 113.744 130.708 L 114.708 128.789 L 115.7 126.884 L 116.717 124.993 L 117.76 123.116 L 118.829 121.253 L 119.921 119.405 L 121.037 117.57 L 122.174 115.748 L 123.331 113.939 L 124.507 112.142 L 125.698 110.356 L 126.904 108.579 L 128.121 106.809 L 129.346 105.046 L 130.576 103.286 L 131.809 101.527 L 133.039 99.768 L 134.265 98.004 L 135.482 96.235 L 136.685 94.456 L 137.872 92.667 L 139.038 90.864 L 140.18 89.045 L 141.294 87.209 L 142.377 85.355 L 143.426 83.481 L 144.439 81.588 L 145.415 79.675 L 146.351 77.742 L 147.248 75.791 L 148.104 73.822 L 148.92 71.836 L 149.697 69.834 L 150.436 67.818 L 151.137 65.788 L 151.802 63.746 L 152.432 61.693 L 153.03 59.631 L 153.596 57.56 L 154.133 55.48 L 154.642 53.394 L 155.124 51.301 L 155.581 49.204 L 156.015 47.1 L 156.427 44.993 L 156.819 42.882 L 157.191 40.766 L 157.544 38.649 L 157.881 36.528 L 158.202 34.404 L 158.507 32.279 L 158.798 30.151 L 159.076 28.022 L 159.342 25.891 L 159.595 23.759 L 159.837 21.625 L 160.069 19.49 L 160.291 17.354 L 160.503 15.218 L 160.707 13.08 L 160.902 10.941 L 161.089 8.802 L 161.269 6.662 L 161.441 4.522 L 161.607 2.381 L 161.766 0.24 L 0 0 L 0.214 2.209 L 0.433 4.417 L 0.656 6.624 L 0.884 8.832 L 1.117 11.038 L 1.355 13.245 L 1.599 15.45 L 1.848 17.655 L 2.104 19.859 L 2.367 22.063 L 2.636 24.265 L 2.912 26.467 L 3.196 28.668 L 3.489 30.867 L 3.789 33.066 L 4.099 35.263 L 4.418 37.459 L 4.748 39.653 L 5.087 41.846 L 5.438 44.037 L 5.801 46.226 L 6.176 48.413 L 6.564 50.598 L 6.965 52.781 L 7.381 54.96 L 7.812 57.137 L 8.258 59.311 L 8.72 61.481 L 9.2 63.648 L 9.697 65.81 L 10.211 67.969 L 10.745 70.123 L 11.298 72.272 L 11.87 74.416 L 12.463 76.554 L 13.076 78.687 L 13.71 80.813 L 14.365 82.933 L 15.041 85.047 L 15.738 87.153 L 16.456 89.253 L 17.194 91.345 L 17.954 93.43 L 18.734 95.508 L 19.534 97.578 L 20.353 99.64 L 21.192 101.694 L 22.049 103.741 L 22.923 105.78 L 23.815 107.812 L 24.724 109.837 L 25.648 111.854 L 26.588 113.864 L 27.542 115.868 L 28.51 117.864 L 29.491 119.855 L 30.484 121.839 L 31.49 123.817 L 32.506 125.789 L 33.534 127.756 L 34.571 129.718 L 35.618 131.674 L 36.674 133.626 L 37.739 135.573 L 38.811 137.515 L 39.892 139.454 L 40.979 141.388 L 42.074 143.318 L 43.174 145.245 L 44.281 147.168 L 45.394 149.088 L 46.512 151.005 L 47.635 152.919 L 48.763 154.829 L 49.896 156.737 L 51.033 158.643 L 52.174 160.546 L 53.319 162.447 L 54.468 164.345 L 55.621 166.241 L 56.777 168.135 L 57.936 170.028 L 59.098 171.918 L 60.263 173.806 L 61.431 175.693 L 62.601 177.579 L 63.774 179.462 L 64.949 181.344 L 66.127 183.225 L 67.306 185.105 L 68.488 186.983 L 69.672 188.86 L 70.858 190.735 L 72.045 192.61 L 73.234 194.483 L 74.425 196.356 L 75.618 198.227 L 76.812 200.097 L 78.007 201.967 L 79.204 203.835 L 80.402 205.703 L 81.602 207.57 L 82.802 209.436 L 84.004 211.301 L 85.207 213.166 L 86.411 215.03 L 87.617 216.893 L 88.823 218.756 L 90.03 220.617 L 91.238 222.479 L 92.447 224.339 Z" vector-effect="non-scaling-stroke"/><g id="captions"><text alignment-baseline="middle" text-anchor="middle" transform="rotate(0,86.665,112.23)" x="86.665" y="112.23">BULKHEAD, 1</text></g></g></svg>