<svg width="150.944" height="224.656" viewBox="0 0 150.944 224.656" xmlns="http://www.w3.org/2000/svg"><g id="svgGroup" stroke-linecap="round" fill-rule="evenodd" font-size="9pt" stroke="#000" stroke-width="0.25mm" fill="none" style="stroke:#000;stroke-width:0.25mm;fill:none"><path d="M 86.266 224.656 L 86.339 222.5 L 86.418 220.345 L 86.503 218.189 L 86.595 216.034 L 86.693 213.88 L 86.797 211.725 L 86.909 209.571 L 87.027 207.417 L 87.153 205.265 L 87.286 203.111 L 87.427 200.959 L 87.576 198.807 L 87.734 196.656 L 87.9 194.506 L 88.076 192.356 L 88.26 190.207 L 88.455 188.059 L 88.659 185.911 L 88.874 183.766 L 89.1 181.62 L 89.337 179.476 L 89.585 177.334 L 89.847 175.193 L 90.12 173.053 L 90.408 170.916 L 90.709 168.78 L 91.025 166.646 L 91.356 164.515 L 91.703 162.386 L 92.066 160.26 L 92.447 158.137 L 92.847 156.017 L 93.266 153.902 L 93.705 151.79 L 94.165 149.683 L 94.648 147.58 L 95.155 145.484 L 95.686 143.393 L 96.244 141.31 L 96.829 139.234 L 97.444 137.166 L 98.089 135.108 L 98.767 133.061 L 99.479 131.025 L 100.227 129.002 L 101.013 126.993 L 101.839 125.001 L 102.707 123.026 L 103.618 121.071 L 104.575 119.138 L 105.579 117.229 L 106.631 115.346 L 107.733 113.492 L 108.885 111.668 L 110.086 109.877 L 111.336 108.12 L 112.634 106.397 L 113.976 104.708 L 115.358 103.053 L 116.777 101.428 L 118.226 99.83 L 119.698 98.253 L 121.185 96.691 L 122.678 95.135 L 124.169 93.576 L 125.646 92.004 L 127.099 90.41 L 128.519 88.786 L 129.895 87.125 L 131.218 85.423 L 132.483 83.675 L 133.683 81.883 L 134.815 80.047 L 135.879 78.171 L 136.874 76.258 L 137.803 74.311 L 138.67 72.336 L 139.477 70.336 L 140.229 68.315 L 140.93 66.275 L 141.585 64.22 L 142.196 62.151 L 142.768 60.072 L 143.305 57.983 L 143.808 55.885 L 144.282 53.781 L 144.729 51.671 L 145.15 49.555 L 145.548 47.436 L 145.926 45.312 L 146.284 43.185 L 146.624 41.055 L 146.947 38.923 L 147.255 36.788 L 147.55 34.651 L 147.83 32.513 L 148.099 30.373 L 148.357 28.231 L 148.603 26.089 L 148.84 23.944 L 149.068 21.8 L 149.287 19.654 L 149.498 17.508 L 149.701 15.36 L 149.897 13.212 L 150.086 11.064 L 150.269 8.915 L 150.446 6.764 L 150.617 4.615 L 150.783 2.464 L 150.944 0.313 L 0 0 L 0.214 2.19 L 0.43 4.38 L 0.649 6.57 L 0.872 8.76 L 1.097 10.949 L 1.326 13.138 L 1.559 15.326 L 1.795 17.514 L 2.036 19.702 L 2.28 21.889 L 2.529 24.076 L 2.783 26.262 L 3.042 28.447 L 3.306 30.633 L 3.576 32.817 L 3.852 35 L 4.134 37.183 L 4.423 39.364 L 4.719 41.545 L 5.023 43.725 L 5.334 45.904 L 5.655 48.081 L 5.984 50.257 L 6.324 52.432 L 6.673 54.604 L 7.034 56.776 L 7.406 58.945 L 7.79 61.112 L 8.187 63.276 L 8.598 65.439 L 9.024 67.598 L 9.464 69.754 L 9.921 71.907 L 10.394 74.056 L 10.885 76.202 L 11.394 78.343 L 11.921 80.479 L 12.469 82.611 L 13.036 84.738 L 13.624 86.858 L 14.234 88.973 L 14.864 91.082 L 15.516 93.184 L 16.19 95.279 L 16.886 97.367 L 17.604 99.447 L 18.343 101.52 L 19.103 103.586 L 19.883 105.643 L 20.684 107.693 L 21.505 109.735 L 22.345 111.77 L 23.203 113.796 L 24.079 115.815 L 24.971 117.827 L 25.879 119.832 L 26.803 121.829 L 27.741 123.82 L 28.693 125.805 L 29.657 127.783 L 30.634 129.755 L 31.623 131.721 L 32.622 133.682 L 33.631 135.638 L 34.65 137.589 L 35.678 139.535 L 36.714 141.476 L 37.759 143.414 L 38.81 145.347 L 39.869 147.276 L 40.934 149.202 L 42.006 151.125 L 43.083 153.044 L 44.166 154.96 L 45.253 156.873 L 46.346 158.783 L 47.443 160.691 L 48.544 162.597 L 49.65 164.5 L 50.759 166.401 L 51.872 168.299 L 52.988 170.196 L 54.107 172.091 L 55.23 173.984 L 56.355 175.876 L 57.483 177.765 L 58.614 179.654 L 59.747 181.54 L 60.882 183.426 L 62.019 185.31 L 63.159 187.193 L 64.301 189.074 L 65.444 190.955 L 66.589 192.834 L 67.736 194.712 L 68.885 196.59 L 70.035 198.466 L 71.186 200.342 L 72.339 202.216 L 73.494 204.09 L 74.649 205.963 L 75.806 207.835 L 76.964 209.707 L 78.124 211.578 L 79.284 213.448 L 80.445 215.317 L 81.607 217.186 L 82.771 219.054 L 83.935 220.922 L 85.1 222.789 L 86.266 224.656 Z" vector-effect="non-scaling-stroke"/><g id="captions"><text alignment-baseline="middle" text-anchor="middle" transform="rotate(0,80.869,112.406)" x="80.869" y="112.406">BULKHEAD, 1</text></g></g></svg>