<svg width="770.294" height="1135.337" viewBox="0 0 770.294 1135.337" xmlns="http://www.w3.org/2000/svg"><g id="svgGroup" stroke-linecap="round" fill-rule="evenodd" font-size="9pt" stroke="#000" stroke-width="0.25mm" fill="none" style="stroke:#000;stroke-width:0.25mm;fill:none"><path d="M 0.83 0 L 0.642 10.764 L 0.477 21.477 L 0.337 32.139 L 0.221 42.75 L 0.13 53.31 L 0.062 63.819 L 0.019 74.277 L 0 84.683 L 0.005 95.039 L 0.034 105.343 L 0.088 115.596 L 0.166 125.798 L 0.268 135.949 L 0.394 146.049 L 0.544 156.098 L 0.719 166.096 L 0.918 176.042 L 1.141 185.938 L 1.388 195.782 L 1.659 205.576 L 1.955 215.318 L 2.275 225.009 L 2.619 234.649 L 2.987 244.238 L 3.379 253.776 L 3.796 263.263 L 4.237 272.698 L 4.702 282.083 L 5.191 291.416 L 5.704 300.698 L 6.242 309.93 L 6.804 319.11 L 7.39 328.239 L 8 337.317 L 8.635 346.343 L 9.293 355.319 L 9.976 364.244 L 10.683 373.117 L 11.414 381.94 L 12.17 390.711 L 12.95 399.431 L 13.753 408.1 L 14.582 416.718 L 15.434 425.285 L 16.31 433.801 L 17.211 442.266 L 18.136 450.679 L 19.085 459.042 L 20.058 467.353 L 21.056 475.613 L 22.078 483.822 L 23.123 491.98 L 24.194 500.087 L 25.288 508.143 L 26.406 516.148 L 27.549 524.102 L 28.716 532.004 L 29.907 539.856 L 31.123 547.656 L 32.362 555.405 L 33.626 563.104 L 34.914 570.751 L 36.226 578.347 L 37.563 585.891 L 38.923 593.385 L 40.308 600.828 L 41.717 608.219 L 43.15 615.56 L 44.608 622.849 L 46.089 630.088 L 47.595 637.275 L 49.125 644.411 L 50.679 651.496 L 52.258 658.53 L 53.86 665.512 L 55.487 672.444 L 57.138 679.324 L 58.813 686.154 L 60.513 692.932 L 62.236 699.659 L 63.984 706.336 L 65.756 712.961 L 67.553 719.535 L 69.373 726.057 L 71.218 732.529 L 73.086 738.95 L 74.98 745.319 L 76.897 751.638 L 78.838 757.905 L 80.804 764.121 L 82.794 770.286 L 84.808 776.4 L 86.846 782.463 L 88.909 788.475 L 90.995 794.436 L 93.106 800.345 L 95.241 806.204 L 97.401 812.011 L 99.584 817.768 L 101.792 823.473 L 104.024 829.127 L 106.28 834.73 L 108.56 840.282 L 110.865 845.783 L 113.194 851.232 L 115.547 856.631 L 117.924 861.979 L 120.325 867.275 L 122.751 872.52 L 125.201 877.714 L 127.675 882.858 L 130.173 887.95 L 132.695 892.99 L 135.242 897.98 L 137.813 902.919 L 140.407 907.807 L 143.027 912.643 L 145.67 917.428 L 148.338 922.163 L 151.029 926.846 L 153.745 931.478 L 156.486 936.059 L 159.25 940.589 L 162.039 945.068 L 164.852 949.495 L 167.689 953.872 L 170.55 958.197 L 173.435 962.472 L 176.345 966.695 L 179.279 970.867 L 182.237 974.988 L 185.219 979.058 L 188.226 983.077 L 191.256 987.045 L 194.311 990.961 L 197.39 994.827 L 200.494 998.641 L 203.621 1002.405 L 206.773 1006.117 L 209.949 1009.778 L 213.149 1013.388 L 216.373 1016.947 L 219.621 1020.455 L 222.894 1023.912 L 226.191 1027.317 L 229.512 1030.672 L 232.858 1033.975 L 236.227 1037.228 L 239.621 1040.429 L 243.039 1043.579 L 246.481 1046.678 L 249.947 1049.726 L 253.438 1052.723 L 256.953 1055.669 L 260.492 1058.563 L 264.055 1061.407 L 267.642 1064.199 L 271.254 1066.941 L 274.889 1069.631 L 278.549 1072.27 L 282.234 1074.858 L 285.942 1077.395 L 289.675 1079.881 L 293.431 1082.315 L 297.212 1084.699 L 301.018 1087.032 L 304.847 1089.313 L 308.701 1091.543 L 312.578 1093.723 L 316.48 1095.851 L 320.407 1097.928 L 324.357 1099.954 L 328.332 1101.928 L 332.331 1103.852 L 336.354 1105.725 L 340.401 1107.546 L 344.472 1109.317 L 348.568 1111.036 L 352.688 1112.704 L 356.832 1114.321 L 361 1115.887 L 365.193 1117.402 L 369.409 1118.866 L 373.65 1120.279 L 377.915 1121.64 L 382.205 1122.951 L 386.518 1124.21 L 390.856 1125.418 L 395.218 1126.576 L 399.604 1127.682 L 404.014 1128.737 L 408.449 1129.741 L 412.907 1130.693 L 417.39 1131.595 L 421.897 1132.446 L 426.429 1133.245 L 430.984 1133.993 L 435.564 1134.691 L 440.168 1135.337 L 443.621 1134.691 L 447.056 1133.993 L 450.472 1133.245 L 453.871 1132.446 L 457.251 1131.595 L 460.613 1130.693 L 463.957 1129.741 L 467.283 1128.737 L 470.591 1127.682 L 473.881 1126.576 L 477.152 1125.418 L 480.405 1124.21 L 483.64 1122.951 L 486.857 1121.64 L 490.056 1120.279 L 493.237 1118.866 L 496.399 1117.402 L 499.544 1115.887 L 502.67 1114.321 L 505.778 1112.704 L 508.868 1111.036 L 511.94 1109.317 L 514.993 1107.546 L 518.029 1105.725 L 521.046 1103.852 L 524.045 1101.928 L 527.026 1099.954 L 529.989 1097.928 L 532.934 1095.851 L 535.86 1093.723 L 538.768 1091.543 L 541.659 1089.313 L 544.531 1087.032 L 547.385 1084.699 L 550.22 1082.315 L 553.038 1079.881 L 555.837 1077.395 L 558.619 1074.858 L 561.382 1072.27 L 564.127 1069.631 L 566.854 1066.941 L 569.562 1064.199 L 572.253 1061.407 L 574.925 1058.563 L 577.579 1055.669 L 580.215 1052.723 L 582.833 1049.726 L 585.433 1046.678 L 588.015 1043.579 L 590.578 1040.429 L 593.123 1037.228 L 595.651 1033.975 L 598.16 1030.672 L 600.65 1027.317 L 603.123 1023.912 L 605.578 1020.455 L 608.014 1016.947 L 610.432 1013.388 L 612.832 1009.778 L 615.214 1006.117 L 617.578 1002.405 L 619.924 998.641 L 622.251 994.827 L 624.56 990.961 L 626.852 987.045 L 629.125 983.077 L 631.379 979.058 L 633.616 974.988 L 635.835 970.867 L 638.035 966.695 L 640.217 962.472 L 642.381 958.197 L 644.527 953.872 L 646.655 949.495 L 648.765 945.068 L 650.856 940.589 L 652.93 936.059 L 654.985 931.478 L 657.022 926.846 L 659.041 922.163 L 661.041 917.428 L 663.024 912.643 L 664.988 907.807 L 666.934 902.919 L 668.863 897.98 L 670.773 892.99 L 672.664 887.95 L 674.538 882.858 L 676.393 877.714 L 678.231 872.52 L 680.05 867.275 L 681.851 861.979 L 683.634 856.631 L 685.399 851.232 L 687.145 845.783 L 688.873 840.282 L 690.584 834.73 L 692.276 829.127 L 693.95 823.473 L 695.606 817.768 L 697.243 812.011 L 698.863 806.204 L 700.464 800.345 L 702.047 794.436 L 703.612 788.475 L 705.159 782.463 L 706.688 776.4 L 708.198 770.286 L 709.691 764.121 L 711.165 757.905 L 712.621 751.638 L 714.059 745.319 L 715.479 738.95 L 716.881 732.529 L 718.264 726.057 L 719.629 719.535 L 720.977 712.961 L 722.306 706.336 L 723.617 699.659 L 724.909 692.932 L 726.184 686.154 L 727.44 679.324 L 728.679 672.444 L 729.899 665.512 L 731.101 658.53 L 732.285 651.496 L 733.45 644.411 L 734.598 637.275 L 735.727 630.088 L 736.838 622.849 L 737.931 615.56 L 739.006 608.219 L 740.063 600.828 L 741.102 593.385 L 742.122 585.891 L 743.124 578.347 L 744.108 570.751 L 745.074 563.104 L 746.022 555.405 L 746.952 547.656 L 747.863 539.856 L 748.757 532.004 L 749.632 524.102 L 750.489 516.148 L 751.328 508.143 L 752.149 500.087 L 752.951 491.98 L 753.736 483.822 L 754.502 475.613 L 755.25 467.353 L 755.98 459.042 L 756.692 450.679 L 757.386 442.266 L 758.061 433.801 L 758.718 425.285 L 759.358 416.718 L 759.979 408.1 L 760.582 399.431 L 761.166 390.711 L 761.733 381.94 L 762.281 373.117 L 762.812 364.244 L 763.324 355.319 L 763.818 346.343 L 764.294 337.317 L 764.751 328.239 L 765.191 319.11 L 765.612 309.93 L 766.016 300.698 L 766.401 291.416 L 766.768 282.083 L 767.116 272.698 L 767.447 263.263 L 767.759 253.776 L 768.054 244.238 L 768.33 234.649 L 768.588 225.009 L 768.828 215.318 L 769.049 205.576 L 769.253 195.782 L 769.438 185.938 L 769.606 176.042 L 769.755 166.096 L 769.886 156.098 L 769.998 146.049 L 770.093 135.949 L 770.17 125.798 L 770.228 115.596 L 770.268 105.343 L 770.29 95.039 L 770.294 84.683 L 770.28 74.277 L 770.247 63.819 L 770.197 53.31 L 770.128 42.75 L 770.041 32.139 L 769.936 21.477 L 769.813 10.764 L 769.671 0 L 0.83 0 Z" vector-effect="non-scaling-stroke"/></g></svg>