<svg width="770.162" height="1135.539" viewBox="0 0 770.162 1135.539" xmlns="http://www.w3.org/2000/svg"><g id="svgGroup" stroke-linecap="round" fill-rule="evenodd" font-size="9pt" stroke="#000" stroke-width="0.25mm" fill="none" style="stroke:#000;stroke-width:0.25mm;fill:none"><path d="M 0.812 0 L 0.626 10.762 L 0.464 21.474 L 0.326 32.134 L 0.213 42.743 L 0.123 53.302 L 0.058 63.809 L 0.017 74.265 L 0 84.67 L 0.007 95.024 L 0.039 105.326 L 0.094 115.578 L 0.174 125.779 L 0.278 135.928 L 0.406 146.027 L 0.559 156.074 L 0.735 166.071 L 0.936 176.016 L 1.161 185.91 L 1.41 195.753 L 1.683 205.545 L 1.98 215.286 L 2.302 224.976 L 2.648 234.615 L 3.017 244.203 L 3.412 253.74 L 3.83 263.225 L 4.272 272.66 L 4.739 282.043 L 5.23 291.376 L 5.745 300.657 L 6.284 309.887 L 6.847 319.067 L 7.435 328.195 L 8.046 337.272 L 8.682 346.298 L 9.342 355.273 L 10.027 364.197 L 10.735 373.069 L 11.468 381.891 L 12.224 390.662 L 13.005 399.381 L 13.81 408.05 L 14.64 416.667 L 15.493 425.233 L 16.371 433.749 L 17.273 442.213 L 18.199 450.626 L 19.149 458.988 L 20.123 467.299 L 21.122 475.559 L 22.145 483.767 L 23.191 491.925 L 24.263 500.032 L 25.358 508.087 L 26.477 516.092 L 27.621 524.045 L 28.789 531.948 L 29.981 539.799 L 31.197 547.599 L 32.437 555.348 L 33.702 563.047 L 34.99 570.694 L 36.303 578.29 L 37.64 585.834 L 39.001 593.328 L 40.387 600.771 L 41.796 608.163 L 43.23 615.503 L 44.688 622.793 L 46.17 630.031 L 47.676 637.218 L 49.207 644.355 L 50.761 651.44 L 52.34 658.474 L 53.943 665.457 L 55.57 672.389 L 57.222 679.27 L 58.897 686.1 L 60.597 692.878 L 62.321 699.606 L 64.069 706.283 L 65.841 712.908 L 67.638 719.483 L 69.458 726.006 L 71.303 732.478 L 73.172 738.9 L 75.065 745.27 L 76.982 751.589 L 78.924 757.857 L 80.889 764.074 L 82.879 770.24 L 84.893 776.355 L 86.931 782.419 L 88.994 788.431 L 91.08 794.393 L 93.191 800.303 L 95.326 806.163 L 97.485 811.971 L 99.668 817.728 L 101.876 823.435 L 104.107 829.09 L 106.363 834.694 L 108.643 840.247 L 110.947 845.749 L 113.276 851.2 L 115.628 856.599 L 118.005 861.948 L 120.406 867.246 L 122.831 872.492 L 125.28 877.688 L 127.753 882.832 L 130.251 887.926 L 132.773 892.968 L 135.319 897.959 L 137.889 902.899 L 140.483 907.788 L 143.101 912.626 L 145.744 917.413 L 148.411 922.149 L 151.102 926.834 L 153.817 931.468 L 156.556 936.05 L 159.32 940.582 L 162.108 945.062 L 164.92 949.492 L 167.756 953.87 L 170.616 958.197 L 173.5 962.473 L 176.409 966.698 L 179.342 970.873 L 182.299 974.995 L 185.28 979.067 L 188.285 983.088 L 191.315 987.058 L 194.368 990.977 L 197.446 994.844 L 200.548 998.661 L 203.674 1002.426 L 206.825 1006.141 L 209.999 1009.804 L 213.198 1013.416 L 216.421 1016.977 L 219.668 1020.487 L 222.939 1023.946 L 226.235 1027.354 L 229.554 1030.711 L 232.898 1034.017 L 236.266 1037.272 L 239.658 1040.475 L 243.074 1043.628 L 246.515 1046.729 L 249.98 1049.78 L 253.469 1052.779 L 256.982 1055.727 L 260.519 1058.625 L 264.08 1061.471 L 267.666 1064.266 L 271.275 1067.01 L 274.909 1069.703 L 278.568 1072.345 L 282.25 1074.935 L 285.956 1077.475 L 289.687 1079.964 L 293.442 1082.401 L 297.221 1084.788 L 301.024 1087.123 L 304.851 1089.407 L 308.703 1091.641 L 312.579 1093.823 L 316.478 1095.954 L 320.402 1098.034 L 324.351 1100.063 L 328.323 1102.041 L 332.32 1103.968 L 336.34 1105.843 L 340.385 1107.668 L 344.455 1109.442 L 348.548 1111.164 L 352.665 1112.836 L 356.807 1114.456 L 360.973 1116.025 L 365.163 1117.544 L 369.377 1119.011 L 373.615 1120.427 L 377.878 1121.792 L 382.165 1123.106 L 386.476 1124.369 L 390.811 1125.58 L 395.17 1126.741 L 399.553 1127.851 L 403.961 1128.909 L 408.393 1129.917 L 412.849 1130.873 L 417.329 1131.779 L 421.833 1132.633 L 426.362 1133.436 L 430.915 1134.188 L 435.491 1134.889 L 440.092 1135.539 L 443.543 1134.889 L 446.976 1134.188 L 450.39 1133.436 L 453.787 1132.633 L 457.165 1131.779 L 460.525 1130.873 L 463.867 1129.917 L 467.191 1128.909 L 470.497 1127.851 L 473.784 1126.741 L 477.054 1125.58 L 480.305 1124.369 L 483.538 1123.106 L 486.753 1121.792 L 489.95 1120.427 L 493.129 1119.011 L 496.29 1117.544 L 499.432 1116.025 L 502.557 1114.456 L 505.663 1112.836 L 508.751 1111.164 L 511.821 1109.442 L 514.873 1107.668 L 517.906 1105.843 L 520.922 1103.968 L 523.919 1102.041 L 526.899 1100.063 L 529.86 1098.034 L 532.803 1095.954 L 535.728 1093.823 L 538.635 1091.641 L 541.523 1089.407 L 544.394 1087.123 L 547.246 1084.788 L 550.081 1082.401 L 552.897 1079.964 L 555.695 1077.475 L 558.474 1074.935 L 561.236 1072.345 L 563.98 1069.703 L 566.705 1067.01 L 569.413 1064.266 L 572.102 1061.471 L 574.773 1058.625 L 577.426 1055.727 L 580.06 1052.779 L 582.677 1049.78 L 585.276 1046.729 L 587.856 1043.628 L 590.418 1040.475 L 592.962 1037.272 L 595.488 1034.017 L 597.996 1030.711 L 600.486 1027.354 L 602.957 1023.946 L 605.411 1020.487 L 607.846 1016.977 L 610.263 1013.416 L 612.662 1009.804 L 615.043 1006.141 L 617.406 1002.426 L 619.751 998.661 L 622.077 994.844 L 624.386 990.977 L 626.676 987.058 L 628.948 983.088 L 631.202 979.067 L 633.438 974.995 L 635.656 970.873 L 637.855 966.698 L 640.037 962.473 L 642.2 958.197 L 644.345 953.87 L 646.472 949.492 L 648.581 945.062 L 650.672 940.582 L 652.745 936.05 L 654.799 931.468 L 656.835 926.834 L 658.854 922.149 L 660.854 917.413 L 662.836 912.626 L 664.8 907.788 L 666.745 902.899 L 668.673 897.959 L 670.582 892.968 L 672.474 887.926 L 674.347 882.832 L 676.202 877.688 L 678.039 872.492 L 679.858 867.246 L 681.658 861.948 L 683.441 856.599 L 685.205 851.2 L 686.951 845.749 L 688.679 840.247 L 690.389 834.694 L 692.081 829.09 L 693.755 823.435 L 695.411 817.728 L 697.048 811.971 L 698.667 806.163 L 700.268 800.303 L 701.852 794.393 L 703.416 788.431 L 704.963 782.419 L 706.492 776.355 L 708.002 770.24 L 709.495 764.074 L 710.969 757.857 L 712.425 751.589 L 713.863 745.27 L 715.283 738.9 L 716.685 732.478 L 718.068 726.006 L 719.434 719.483 L 720.781 712.908 L 722.11 706.283 L 723.421 699.606 L 724.714 692.878 L 725.989 686.1 L 727.246 679.27 L 728.484 672.389 L 729.704 665.457 L 730.907 658.474 L 732.091 651.44 L 733.257 644.355 L 734.405 637.218 L 735.534 630.031 L 736.646 622.793 L 737.739 615.503 L 738.815 608.163 L 739.872 600.771 L 740.911 593.328 L 741.932 585.834 L 742.935 578.29 L 743.919 570.694 L 744.886 563.047 L 745.834 555.348 L 746.764 547.599 L 747.676 539.799 L 748.57 531.948 L 749.446 524.045 L 750.304 516.092 L 751.144 508.087 L 751.965 500.032 L 752.768 491.925 L 753.553 483.767 L 754.32 475.559 L 755.069 467.299 L 755.8 458.988 L 756.513 450.626 L 757.207 442.213 L 757.884 433.749 L 758.542 425.233 L 759.182 416.667 L 759.804 408.05 L 760.408 399.381 L 760.994 390.662 L 761.561 381.891 L 762.111 373.069 L 762.642 364.197 L 763.155 355.273 L 763.65 346.298 L 764.127 337.272 L 764.586 328.195 L 765.026 319.067 L 765.449 309.887 L 765.853 300.657 L 766.24 291.376 L 766.608 282.043 L 766.958 272.66 L 767.289 263.225 L 767.603 253.74 L 767.899 244.203 L 768.176 234.615 L 768.436 224.976 L 768.677 215.286 L 768.9 205.545 L 769.105 195.753 L 769.291 185.91 L 769.46 176.016 L 769.611 166.071 L 769.743 156.074 L 769.857 146.027 L 769.953 135.928 L 770.031 125.779 L 770.091 115.578 L 770.133 105.326 L 770.156 95.024 L 770.162 84.67 L 770.149 74.265 L 770.118 63.809 L 770.069 53.302 L 770.002 42.743 L 769.917 32.134 L 769.814 21.474 L 769.692 10.762 L 769.553 0 L 0.812 0 Z" vector-effect="non-scaling-stroke"/></g></svg>