<svg width="157.289" height="225" viewBox="0 0 157.289 225" xmlns="http://www.w3.org/2000/svg"><g id="svgGroup" stroke-linecap="round" fill-rule="evenodd" font-size="9pt" stroke="#000" stroke-width="0.25mm" fill="none" style="stroke:#000;stroke-width:0.25mm;fill:none"><path d="M 155.981 0 L 156.213 4.428 L 156.422 8.812 L 156.609 13.152 L 156.773 17.448 L 156.914 21.7 L 157.033 25.908 L 157.129 30.072 L 157.203 34.192 L 157.254 38.268 L 157.283 42.3 L 157.289 46.288 L 157.273 50.232 L 157.233 54.132 L 157.172 57.988 L 157.087 61.8 L 156.981 65.568 L 156.851 69.292 L 156.699 72.972 L 156.525 76.608 L 156.327 80.2 L 156.108 83.748 L 155.865 87.252 L 155.601 90.712 L 155.313 94.128 L 155.003 97.5 L 154.67 100.828 L 154.315 104.112 L 153.938 107.352 L 153.537 110.548 L 153.114 113.7 L 152.669 116.808 L 152.201 119.872 L 151.71 122.892 L 151.197 125.868 L 150.661 128.8 L 150.103 131.688 L 149.522 134.532 L 148.918 137.332 L 148.292 140.088 L 147.644 142.8 L 146.972 145.468 L 146.278 148.092 L 145.562 150.672 L 144.823 153.208 L 144.062 155.7 L 143.277 158.148 L 142.471 160.552 L 141.641 162.912 L 140.79 165.228 L 139.915 167.5 L 139.018 169.728 L 138.099 171.912 L 137.156 174.052 L 136.192 176.148 L 135.204 178.2 L 134.195 180.208 L 133.162 182.172 L 132.107 184.092 L 131.029 185.968 L 129.929 187.8 L 128.806 189.588 L 127.661 191.332 L 126.493 193.032 L 125.303 194.688 L 124.09 196.3 L 122.854 197.868 L 121.596 199.392 L 120.315 200.872 L 119.012 202.308 L 117.686 203.7 L 116.337 205.048 L 114.966 206.352 L 113.572 207.612 L 112.156 208.828 L 110.717 210 L 109.256 211.128 L 107.772 212.212 L 106.265 213.252 L 104.736 214.248 L 103.185 215.2 L 101.61 216.108 L 100.013 216.972 L 98.394 217.792 L 96.752 218.568 L 95.087 219.3 L 93.4 219.988 L 91.691 220.632 L 89.958 221.232 L 88.203 221.788 L 86.426 222.3 L 84.626 222.768 L 82.803 223.192 L 80.958 223.572 L 79.09 223.908 L 77.2 224.2 L 75.287 224.448 L 73.352 224.652 L 71.393 224.812 L 69.413 224.928 L 67.41 225 L 65.907 224.928 L 64.422 224.812 L 62.953 224.652 L 61.502 224.448 L 60.067 224.2 L 58.649 223.908 L 57.248 223.572 L 55.864 223.192 L 54.497 222.768 L 53.147 222.3 L 51.814 221.788 L 50.498 221.232 L 49.199 220.632 L 47.917 219.988 L 46.651 219.3 L 45.403 218.568 L 44.171 217.792 L 42.957 216.972 L 41.759 216.108 L 40.578 215.2 L 39.415 214.248 L 38.268 213.252 L 37.138 212.212 L 36.025 211.128 L 34.929 210 L 33.85 208.828 L 32.787 207.612 L 31.742 206.352 L 30.714 205.048 L 29.703 203.7 L 28.708 202.308 L 27.731 200.872 L 26.77 199.392 L 25.826 197.868 L 24.9 196.3 L 23.99 194.688 L 23.097 193.032 L 22.221 191.332 L 21.362 189.588 L 20.52 187.8 L 19.695 185.968 L 18.887 184.092 L 18.095 182.172 L 17.321 180.208 L 16.564 178.2 L 15.823 176.148 L 15.099 174.052 L 14.393 171.912 L 13.703 169.728 L 13.03 167.5 L 12.375 165.228 L 11.736 162.912 L 11.114 160.552 L 10.509 158.148 L 9.921 155.7 L 9.349 153.208 L 8.795 150.672 L 8.258 148.092 L 7.738 145.468 L 7.234 142.8 L 6.748 140.088 L 6.278 137.332 L 5.825 134.532 L 5.39 131.688 L 4.971 128.8 L 4.569 125.868 L 4.184 122.892 L 3.816 119.872 L 3.465 116.808 L 3.131 113.7 L 2.814 110.548 L 2.514 107.352 L 2.23 104.112 L 1.964 100.828 L 1.715 97.5 L 1.482 94.128 L 1.266 90.712 L 1.068 87.252 L 0.886 83.748 L 0.721 80.2 L 0.573 76.608 L 0.442 72.972 L 0.328 69.292 L 0.231 65.568 L 0.151 61.8 L 0.088 57.988 L 0.042 54.132 L 0.012 50.232 L 0 46.288 L 0.005 42.3 L 0.026 38.268 L 0.064 34.192 L 0.12 30.072 L 0.192 25.908 L 0.281 21.7 L 0.387 17.448 L 0.51 13.152 L 0.65 8.812 L 0.807 4.428 L 0.981 0 L 155.981 0 Z" vector-effect="non-scaling-stroke"/><g id="captions"><text alignment-baseline="middle" text-anchor="middle" transform="rotate(0,76.473,167.5)" x="76.473" y="167.5">BULKHEAD, 0</text></g></g></svg>