<svg width="154.043" height="229.258" viewBox="0 0 154.043 229.258" xmlns="http://www.w3.org/2000/svg"><g id="svgGroup" stroke-linecap="round" fill-rule="evenodd" font-size="9pt" stroke="#000" stroke-width="0.25mm" fill="none" style="stroke:#000;stroke-width:0.25mm;fill:none"><path d="M 153.838 0 L 153.918 4.316 L 153.978 8.59 L 154.019 12.824 L 154.041 17.017 L 154.043 21.169 L 154.026 25.281 L 153.99 29.351 L 153.934 33.381 L 153.859 37.369 L 153.765 41.317 L 153.651 45.224 L 153.518 49.09 L 153.365 52.915 L 153.193 56.7 L 153.002 60.443 L 152.792 64.146 L 152.562 67.807 L 152.312 71.428 L 152.044 75.008 L 151.756 78.547 L 151.449 82.046 L 151.122 85.503 L 150.776 88.92 L 150.411 92.295 L 150.026 95.63 L 149.622 98.924 L 149.198 102.177 L 148.756 105.389 L 148.294 108.56 L 147.812 111.691 L 147.311 114.78 L 146.791 117.829 L 146.252 120.837 L 145.693 123.804 L 145.114 126.73 L 144.517 129.615 L 143.9 132.459 L 143.264 135.263 L 142.608 138.025 L 141.933 140.747 L 141.239 143.428 L 140.525 146.068 L 139.792 148.667 L 139.039 151.225 L 138.268 153.742 L 137.477 156.219 L 136.666 158.655 L 135.836 161.049 L 134.987 163.403 L 134.119 165.716 L 133.231 167.988 L 132.324 170.22 L 131.397 172.41 L 130.451 174.56 L 129.486 176.668 L 128.501 178.736 L 127.497 180.763 L 126.474 182.749 L 125.431 184.694 L 124.369 186.598 L 123.288 188.462 L 122.187 190.284 L 121.067 192.066 L 119.927 193.807 L 118.769 195.507 L 117.59 197.166 L 116.393 198.784 L 115.176 200.362 L 113.94 201.898 L 112.684 203.394 L 111.409 204.849 L 110.115 206.262 L 108.801 207.635 L 107.468 208.968 L 106.116 210.259 L 104.744 211.509 L 103.353 212.719 L 101.943 213.887 L 100.513 215.015 L 99.064 216.102 L 97.596 217.148 L 96.108 218.153 L 94.601 219.118 L 93.074 220.041 L 91.529 220.924 L 89.963 221.765 L 88.379 222.566 L 86.775 223.326 L 85.152 224.045 L 83.509 224.723 L 81.847 225.361 L 80.166 225.957 L 78.465 226.513 L 76.745 227.028 L 75.006 227.501 L 73.247 227.935 L 71.469 228.327 L 69.671 228.678 L 67.855 228.988 L 66.019 229.258 L 64.641 228.988 L 63.279 228.678 L 61.931 228.327 L 60.597 227.935 L 59.278 227.501 L 57.974 227.028 L 56.684 226.513 L 55.408 225.957 L 54.147 225.361 L 52.901 224.723 L 51.669 224.045 L 50.451 223.326 L 49.248 222.566 L 48.06 221.765 L 46.886 220.924 L 45.727 220.041 L 44.582 219.118 L 43.451 218.153 L 42.336 217.148 L 41.234 216.102 L 40.147 215.015 L 39.075 213.887 L 38.017 212.719 L 36.974 211.509 L 35.945 210.259 L 34.931 208.968 L 33.931 207.635 L 32.946 206.262 L 31.975 204.849 L 31.019 203.394 L 30.078 201.898 L 29.15 200.362 L 28.238 198.784 L 27.34 197.166 L 26.456 195.507 L 25.587 193.807 L 24.732 192.066 L 23.892 190.284 L 23.067 188.462 L 22.256 186.598 L 21.459 184.694 L 20.677 182.749 L 19.91 180.763 L 19.157 178.736 L 18.418 176.668 L 17.694 174.56 L 16.985 172.41 L 16.29 170.22 L 15.609 167.988 L 14.943 165.716 L 14.292 163.403 L 13.655 161.049 L 13.033 158.655 L 12.425 156.219 L 11.832 153.742 L 11.253 151.225 L 10.689 148.667 L 10.139 146.068 L 9.603 143.428 L 9.083 140.747 L 8.576 138.025 L 8.085 135.263 L 7.607 132.459 L 7.145 129.615 L 6.697 126.73 L 6.263 123.804 L 5.844 120.837 L 5.439 117.829 L 5.049 114.78 L 4.673 111.691 L 4.312 108.56 L 3.966 105.389 L 3.634 102.177 L 3.316 98.924 L 3.013 95.63 L 2.724 92.295 L 2.45 88.92 L 2.191 85.503 L 1.946 82.046 L 1.715 78.547 L 1.499 75.008 L 1.298 71.428 L 1.111 67.807 L 0.939 64.146 L 0.781 60.443 L 0.637 56.7 L 0.509 52.915 L 0.394 49.09 L 0.294 45.224 L 0.209 41.317 L 0.138 37.369 L 0.082 33.381 L 0.04 29.351 L 0.013 25.281 L 0 21.169 L 0.002 17.017 L 0.018 12.824 L 0.049 8.59 L 0.094 4.316 L 0.154 0 L 153.838 0 Z" vector-effect="non-scaling-stroke"/><g id="captions"><text alignment-baseline="middle" text-anchor="middle" transform="rotate(0,74.531,165.716)" x="74.531" y="165.716">BULKHEAD, 1</text></g></g></svg>