<svg width="161.74" height="224.314" viewBox="0 0 161.74 224.314" xmlns="http://www.w3.org/2000/svg"><g id="svgGroup" stroke-linecap="round" fill-rule="evenodd" font-size="9pt" stroke="#000" stroke-width="0.25mm" fill="none" style="stroke:#000;stroke-width:0.25mm;fill:none"><path d="M 92.434 224.314 L 92.562 222.167 L 92.699 220.021 L 92.846 217.875 L 93.004 215.731 L 93.172 213.587 L 93.351 211.444 L 93.541 209.302 L 93.742 207.161 L 93.955 205.021 L 94.18 202.882 L 94.416 200.745 L 94.665 198.609 L 94.927 196.474 L 95.201 194.341 L 95.488 192.21 L 95.789 190.081 L 96.104 187.953 L 96.432 185.828 L 96.776 183.705 L 97.134 181.585 L 97.507 179.467 L 97.896 177.352 L 98.3 175.24 L 98.721 173.131 L 99.159 171.026 L 99.615 168.924 L 100.088 166.826 L 100.579 164.733 L 101.089 162.643 L 101.618 160.559 L 102.167 158.48 L 102.737 156.406 L 103.327 154.338 L 103.938 152.276 L 104.572 150.222 L 105.228 148.174 L 105.907 146.133 L 106.61 144.101 L 107.338 142.077 L 108.09 140.063 L 108.868 138.058 L 109.673 136.064 L 110.503 134.08 L 111.361 132.108 L 112.247 130.149 L 113.161 128.202 L 114.103 126.269 L 115.074 124.35 L 116.074 122.446 L 117.103 120.558 L 118.16 118.685 L 119.246 116.829 L 120.359 114.989 L 121.5 113.166 L 122.666 111.36 L 123.858 109.569 L 125.072 107.795 L 126.307 106.034 L 127.561 104.287 L 128.83 102.551 L 130.112 100.825 L 131.402 99.104 L 132.697 97.387 L 133.992 95.67 L 135.281 93.949 L 136.56 92.22 L 137.823 90.48 L 139.065 88.724 L 140.279 86.949 L 141.461 85.153 L 142.606 83.332 L 143.709 81.487 L 144.768 79.615 L 145.78 77.717 L 146.743 75.795 L 147.657 73.848 L 148.522 71.88 L 149.34 69.891 L 150.111 67.883 L 150.838 65.859 L 151.522 63.821 L 152.167 61.769 L 152.775 59.707 L 153.348 57.634 L 153.889 55.553 L 154.4 53.464 L 154.883 51.368 L 155.341 49.267 L 155.774 47.161 L 156.186 45.05 L 156.577 42.935 L 156.949 40.817 L 157.304 38.697 L 157.643 36.573 L 157.966 34.447 L 158.276 32.319 L 158.572 30.189 L 158.856 28.057 L 159.129 25.924 L 159.391 23.79 L 159.644 21.654 L 159.887 19.518 L 160.121 17.38 L 160.347 15.242 L 160.566 13.102 L 160.777 10.962 L 160.982 8.821 L 161.18 6.68 L 161.372 4.538 L 161.559 2.396 L 161.74 0.253 L 0 0 L 0.244 2.203 L 0.493 4.406 L 0.745 6.609 L 1.001 8.811 L 1.261 11.012 L 1.526 13.213 L 1.796 15.413 L 2.07 17.613 L 2.351 19.812 L 2.636 22.01 L 2.928 24.208 L 3.226 26.404 L 3.531 28.6 L 3.842 30.795 L 4.162 32.989 L 4.489 35.181 L 4.824 37.372 L 5.169 39.562 L 5.523 41.751 L 5.887 43.937 L 6.261 46.122 L 6.647 48.305 L 7.044 50.486 L 7.453 52.665 L 7.876 54.841 L 8.313 57.014 L 8.763 59.185 L 9.229 61.352 L 9.711 63.516 L 10.209 65.676 L 10.725 67.832 L 11.258 69.984 L 11.81 72.131 L 12.381 74.273 L 12.971 76.41 L 13.581 78.541 L 14.212 80.666 L 14.863 82.785 L 15.536 84.897 L 16.229 87.003 L 16.943 89.102 L 17.679 91.193 L 18.435 93.277 L 19.211 95.353 L 20.008 97.422 L 20.824 99.483 L 21.66 101.536 L 22.514 103.582 L 23.386 105.62 L 24.276 107.65 L 25.182 109.673 L 26.105 111.689 L 27.042 113.698 L 27.994 115.7 L 28.96 117.695 L 29.939 119.684 L 30.93 121.667 L 31.933 123.644 L 32.948 125.615 L 33.972 127.581 L 35.007 129.541 L 36.051 131.497 L 37.104 133.448 L 38.165 135.394 L 39.234 137.336 L 40.31 139.275 L 41.393 141.209 L 42.483 143.139 L 43.578 145.066 L 44.68 146.99 L 45.787 148.911 L 46.899 150.828 L 48.017 152.743 L 49.138 154.655 L 50.264 156.564 L 51.394 158.471 L 52.529 160.376 L 53.666 162.279 L 54.807 164.179 L 55.952 166.078 L 57.1 167.975 L 58.25 169.869 L 59.404 171.763 L 60.56 173.654 L 61.718 175.544 L 62.879 177.433 L 64.042 179.32 L 65.208 181.205 L 66.375 183.09 L 67.545 184.973 L 68.716 186.855 L 69.889 188.736 L 71.064 190.616 L 72.241 192.495 L 73.419 194.373 L 74.598 196.25 L 75.779 198.126 L 76.962 200.001 L 78.145 201.875 L 79.33 203.749 L 80.516 205.621 L 81.704 207.493 L 82.892 209.365 L 84.082 211.236 L 85.272 213.105 L 86.463 214.975 L 87.656 216.844 L 88.849 218.712 L 90.043 220.58 L 91.238 222.447 L 92.434 224.314 Z" vector-effect="non-scaling-stroke"/><g id="captions"><text alignment-baseline="middle" text-anchor="middle" transform="rotate(0,86.652,112.22)" x="86.652" y="112.22">BULKHEAD, 1</text></g></g></svg>