<svg width="128.502" height="234.356" viewBox="0 0 128.502 234.356" xmlns="http://www.w3.org/2000/svg"><g id="svgGroup" stroke-linecap="round" fill-rule="evenodd" font-size="9pt" stroke="#000" stroke-width="0.25mm" fill="none" style="stroke:#000;stroke-width:0.25mm;fill:none"><path d="M 0 0 L 0.229 3.753 L 0.469 7.477 L 0.718 11.173 L 0.978 14.841 L 1.248 18.48 L 1.528 22.09 L 1.818 25.672 L 2.119 29.226 L 2.43 32.751 L 2.751 36.248 L 3.082 39.716 L 3.423 43.155 L 3.775 46.567 L 4.137 49.949 L 4.509 53.304 L 4.891 56.63 L 5.283 59.927 L 5.686 63.196 L 6.099 66.436 L 6.522 69.648 L 6.955 72.832 L 7.399 75.987 L 7.852 79.113 L 8.316 82.211 L 8.79 85.281 L 9.275 88.322 L 9.769 91.334 L 10.274 94.319 L 10.789 97.274 L 11.314 100.201 L 11.849 103.1 L 12.395 105.971 L 12.95 108.812 L 13.516 111.626 L 14.092 114.411 L 14.679 117.167 L 15.275 119.895 L 15.882 122.594 L 16.499 125.265 L 17.126 127.908 L 17.763 130.522 L 18.411 133.107 L 19.069 135.664 L 19.737 138.193 L 20.415 140.693 L 21.103 143.165 L 21.802 145.608 L 22.511 148.023 L 23.23 150.409 L 23.959 152.767 L 24.698 155.096 L 25.448 157.397 L 26.208 159.669 L 26.978 161.913 L 27.758 164.129 L 28.548 166.316 L 29.349 168.474 L 30.16 170.604 L 30.981 172.706 L 31.812 174.779 L 32.653 176.824 L 33.505 178.84 L 34.367 180.827 L 35.239 182.787 L 36.121 184.717 L 37.014 186.62 L 37.916 188.493 L 38.829 190.339 L 39.752 192.156 L 40.686 193.944 L 41.629 195.704 L 42.583 197.435 L 43.547 199.138 L 44.521 200.813 L 45.505 202.459 L 46.5 204.076 L 47.504 205.665 L 48.519 207.226 L 49.545 208.758 L 50.58 210.262 L 51.625 211.737 L 52.681 213.184 L 53.747 214.602 L 54.823 215.992 L 55.91 217.353 L 57.006 218.686 L 58.113 219.99 L 59.23 221.266 L 60.357 222.514 L 61.495 223.732 L 62.642 224.923 L 63.8 226.085 L 64.968 227.219 L 66.146 228.324 L 67.335 229.4 L 68.533 230.448 L 69.742 231.468 L 70.961 232.459 L 72.19 233.422 L 73.43 234.356 L 74.359 233.422 L 75.281 232.459 L 76.196 231.468 L 77.102 230.448 L 78.001 229.4 L 78.892 228.324 L 79.776 227.219 L 80.652 226.085 L 81.521 224.923 L 82.381 223.732 L 83.234 222.514 L 84.08 221.266 L 84.917 219.99 L 85.747 218.686 L 86.57 217.353 L 87.385 215.992 L 88.192 214.602 L 88.991 213.184 L 89.783 211.737 L 90.567 210.262 L 91.344 208.758 L 92.113 207.226 L 92.874 205.665 L 93.627 204.076 L 94.373 202.459 L 95.111 200.813 L 95.842 199.138 L 96.565 197.435 L 97.28 195.704 L 97.988 193.944 L 98.688 192.156 L 99.38 190.339 L 100.065 188.493 L 100.742 186.62 L 101.411 184.717 L 102.073 182.787 L 102.727 180.827 L 103.373 178.84 L 104.012 176.824 L 104.643 174.779 L 105.267 172.706 L 105.882 170.604 L 106.491 168.474 L 107.091 166.316 L 107.684 164.129 L 108.269 161.913 L 108.847 159.669 L 109.416 157.397 L 109.979 155.096 L 110.533 152.767 L 111.08 150.409 L 111.619 148.023 L 112.151 145.608 L 112.675 143.165 L 113.191 140.693 L 113.7 138.193 L 114.201 135.664 L 114.694 133.107 L 115.18 130.522 L 115.658 127.908 L 116.128 125.265 L 116.591 122.594 L 117.046 119.895 L 117.493 117.167 L 117.933 114.411 L 118.365 111.626 L 118.789 108.812 L 119.206 105.971 L 119.615 103.1 L 120.017 100.201 L 120.411 97.274 L 120.797 94.319 L 121.175 91.334 L 121.546 88.322 L 121.909 85.281 L 122.265 82.211 L 122.613 79.113 L 122.953 75.987 L 123.286 72.832 L 123.611 69.648 L 123.928 66.436 L 124.238 63.196 L 124.54 59.927 L 124.834 56.63 L 125.121 53.304 L 125.4 49.949 L 125.671 46.567 L 125.935 43.155 L 126.191 39.716 L 126.439 36.248 L 126.68 32.751 L 126.913 29.226 L 127.138 25.672 L 127.356 22.09 L 127.566 18.48 L 127.769 14.841 L 127.964 11.173 L 128.151 7.477 L 128.33 3.753 L 128.502 0 L 0 0 Z" vector-effect="non-scaling-stroke"/><g id="captions"><text alignment-baseline="middle" text-anchor="middle" transform="rotate(0,67.246,152.767)" x="67.246" y="152.767">BULKHEAD, 2</text></g></g></svg>