<svg width="616.173" height="917.031" viewBox="0 0 616.173 917.031" xmlns="http://www.w3.org/2000/svg"><g id="svgGroup" stroke-linecap="round" fill-rule="evenodd" font-size="9pt" stroke="#000" stroke-width="0.25mm" fill="none" style="stroke:#000;stroke-width:0.25mm;fill:none"><path d="M 0.821 0 L 0.502 17.263 L 0.26 34.362 L 0.096 51.297 L 0.009 68.069 L 0 84.678 L 0.068 101.123 L 0.214 117.405 L 0.436 133.523 L 0.737 149.478 L 1.114 165.269 L 1.57 180.897 L 2.102 196.361 L 2.712 211.662 L 3.399 226.799 L 4.164 241.773 L 5.006 256.583 L 5.926 271.23 L 6.923 285.713 L 7.997 300.033 L 9.149 314.19 L 10.378 328.183 L 11.685 342.012 L 13.069 355.678 L 14.53 369.181 L 16.069 382.52 L 17.685 395.695 L 19.379 408.707 L 21.15 421.556 L 22.999 434.241 L 24.925 446.763 L 26.928 459.121 L 29.009 471.315 L 31.167 483.347 L 33.402 495.214 L 35.715 506.919 L 38.106 518.459 L 40.573 529.837 L 43.118 541.05 L 45.741 552.101 L 48.441 562.988 L 51.218 573.711 L 54.073 584.271 L 57.005 594.667 L 60.015 604.9 L 63.102 614.97 L 66.266 624.876 L 69.508 634.618 L 72.828 644.197 L 76.224 653.613 L 79.698 662.865 L 83.25 671.953 L 86.879 680.878 L 90.585 689.64 L 94.369 698.238 L 98.23 706.673 L 102.168 714.944 L 106.184 723.052 L 110.278 730.996 L 114.448 738.777 L 118.697 746.394 L 123.022 753.848 L 127.425 761.138 L 131.906 768.265 L 136.463 775.228 L 141.099 782.028 L 145.811 788.664 L 150.601 795.137 L 155.469 801.447 L 160.414 807.593 L 165.436 813.575 L 170.535 819.394 L 175.713 825.05 L 180.967 830.542 L 186.299 835.87 L 191.708 841.035 L 197.195 846.037 L 202.759 850.875 L 208.401 855.55 L 214.119 860.061 L 219.916 864.408 L 225.79 868.593 L 231.741 872.613 L 237.769 876.471 L 243.875 880.164 L 250.059 883.695 L 256.32 887.061 L 262.658 890.265 L 269.073 893.305 L 275.566 896.181 L 282.137 898.894 L 288.785 901.443 L 295.51 903.829 L 302.313 906.052 L 309.193 908.111 L 316.15 910.006 L 323.185 911.738 L 330.297 913.307 L 337.487 914.712 L 344.754 915.953 L 352.099 917.031 L 357.607 915.953 L 363.057 914.712 L 368.45 913.307 L 373.784 911.738 L 379.06 910.006 L 384.278 908.111 L 389.438 906.052 L 394.54 903.829 L 399.584 901.443 L 404.57 898.894 L 409.498 896.181 L 414.368 893.305 L 419.179 890.265 L 423.933 887.061 L 428.629 883.695 L 433.266 880.164 L 437.846 876.471 L 442.367 872.613 L 446.831 868.593 L 451.236 864.408 L 455.583 860.061 L 459.872 855.55 L 464.103 850.875 L 468.277 846.037 L 472.392 841.035 L 476.449 835.87 L 480.448 830.542 L 484.388 825.05 L 488.271 819.394 L 492.096 813.575 L 495.863 807.593 L 499.571 801.447 L 503.222 795.137 L 506.814 788.664 L 510.349 782.028 L 513.825 775.228 L 517.244 768.265 L 520.604 761.138 L 523.906 753.848 L 527.15 746.394 L 530.336 738.777 L 533.465 730.996 L 536.535 723.052 L 539.546 714.944 L 542.5 706.673 L 545.396 698.238 L 548.234 689.64 L 551.014 680.878 L 553.735 671.953 L 556.399 662.865 L 559.005 653.613 L 561.552 644.197 L 564.041 634.618 L 566.473 624.876 L 568.846 614.97 L 571.161 604.9 L 573.419 594.667 L 575.618 584.271 L 577.759 573.711 L 579.842 562.988 L 581.867 552.101 L 583.834 541.05 L 585.743 529.837 L 587.594 518.459 L 589.386 506.919 L 591.121 495.214 L 592.798 483.347 L 594.416 471.315 L 595.977 459.121 L 597.479 446.763 L 598.924 434.241 L 600.31 421.556 L 601.638 408.707 L 602.909 395.695 L 604.121 382.52 L 605.275 369.181 L 606.371 355.678 L 607.409 342.012 L 608.389 328.183 L 609.311 314.19 L 610.175 300.033 L 610.981 285.713 L 611.728 271.23 L 612.418 256.583 L 613.05 241.773 L 613.623 226.799 L 614.139 211.662 L 614.596 196.361 L 614.996 180.897 L 615.337 165.269 L 615.62 149.478 L 615.845 133.523 L 616.013 117.405 L 616.122 101.123 L 616.173 84.678 L 616.166 68.069 L 616.101 51.297 L 615.978 34.362 L 615.796 17.263 L 615.557 0 L 0.821 0 Z" vector-effect="non-scaling-stroke"/></g></svg>