<svg width="629.156" height="900" viewBox="0 0 629.156 900" xmlns="http://www.w3.org/2000/svg"><g id="svgGroup" stroke-linecap="round" fill-rule="evenodd" font-size="9pt" stroke="#000" stroke-width="0.25mm" fill="none" style="stroke:#000;stroke-width:0.25mm;fill:none"><path d="M 5.232 0 L 4.305 17.712 L 3.468 35.248 L 2.722 52.608 L 2.065 69.792 L 1.499 86.8 L 1.024 103.632 L 0.638 120.288 L 0.343 136.768 L 0.139 153.072 L 0.024 169.2 L 0 185.152 L 0.066 200.928 L 0.223 216.528 L 0.469 231.952 L 0.807 247.2 L 1.234 262.272 L 1.752 277.168 L 2.36 291.888 L 3.058 306.432 L 3.846 320.8 L 4.725 334.992 L 5.695 349.008 L 6.754 362.848 L 7.904 376.512 L 9.144 390 L 10.474 403.312 L 11.895 416.448 L 13.406 429.408 L 15.008 442.192 L 16.699 454.8 L 18.481 467.232 L 20.353 479.488 L 22.316 491.568 L 24.369 503.472 L 26.512 515.2 L 28.745 526.752 L 31.069 538.128 L 33.483 549.328 L 35.988 560.352 L 38.582 571.2 L 41.267 581.872 L 44.042 592.368 L 46.908 602.688 L 49.864 612.832 L 52.91 622.8 L 56.047 632.592 L 59.273 642.208 L 62.591 651.648 L 65.998 660.912 L 69.496 670 L 73.084 678.912 L 76.762 687.648 L 80.531 696.208 L 84.389 704.592 L 88.339 712.8 L 92.378 720.832 L 96.508 728.688 L 100.728 736.368 L 105.039 743.872 L 109.439 751.2 L 113.93 758.352 L 118.512 765.328 L 123.183 772.128 L 127.945 778.752 L 132.798 785.2 L 137.74 791.472 L 142.773 797.568 L 147.896 803.488 L 153.11 809.232 L 158.413 814.8 L 163.808 820.192 L 169.292 825.408 L 174.867 830.448 L 180.532 835.312 L 186.287 840 L 192.132 844.512 L 198.068 848.848 L 204.095 853.008 L 210.211 856.992 L 216.418 860.8 L 222.715 864.432 L 229.102 867.888 L 235.58 871.168 L 242.148 874.272 L 248.807 877.2 L 255.555 879.952 L 262.394 882.528 L 269.323 884.928 L 276.343 887.152 L 283.453 889.2 L 290.653 891.072 L 297.943 892.768 L 305.324 894.288 L 312.795 895.632 L 320.356 896.8 L 328.008 897.792 L 335.75 898.608 L 343.582 899.248 L 351.505 899.712 L 359.518 900 L 365.527 899.712 L 371.469 899.248 L 377.344 898.608 L 383.15 897.792 L 388.889 896.8 L 394.56 895.632 L 400.163 894.288 L 405.699 892.768 L 411.167 891.072 L 416.567 889.2 L 421.899 887.152 L 427.164 884.928 L 432.361 882.528 L 437.49 879.952 L 442.551 877.2 L 447.545 874.272 L 452.471 871.168 L 457.329 867.888 L 462.12 864.432 L 466.843 860.8 L 471.498 856.992 L 476.085 853.008 L 480.605 848.848 L 485.057 844.512 L 489.441 840 L 493.758 835.312 L 498.006 830.448 L 502.187 825.408 L 506.301 820.192 L 510.346 814.8 L 514.324 809.232 L 518.234 803.488 L 522.076 797.568 L 525.851 791.472 L 529.558 785.2 L 533.197 778.752 L 536.769 772.128 L 540.272 765.328 L 543.708 758.352 L 547.077 751.2 L 550.377 743.872 L 553.61 736.368 L 556.775 728.688 L 559.873 720.832 L 562.902 712.8 L 565.864 704.592 L 568.758 696.208 L 571.585 687.648 L 574.343 678.912 L 577.035 670 L 579.658 660.912 L 582.213 651.648 L 584.701 642.208 L 587.121 632.592 L 589.474 622.8 L 591.758 612.832 L 593.975 602.688 L 596.124 592.368 L 598.206 581.872 L 600.22 571.2 L 602.166 560.352 L 604.044 549.328 L 605.854 538.128 L 607.597 526.752 L 609.272 515.2 L 610.88 503.472 L 612.419 491.568 L 613.891 479.488 L 615.295 467.232 L 616.632 454.8 L 617.901 442.192 L 619.102 429.408 L 620.235 416.448 L 621.3 403.312 L 622.298 390 L 623.228 376.512 L 624.091 362.848 L 624.885 349.008 L 625.612 334.992 L 626.271 320.8 L 626.863 306.432 L 627.387 291.888 L 627.843 277.168 L 628.231 262.272 L 628.551 247.2 L 628.804 231.952 L 628.989 216.528 L 629.107 200.928 L 629.156 185.152 L 629.138 169.2 L 629.052 153.072 L 628.899 136.768 L 628.677 120.288 L 628.388 103.632 L 628.032 86.8 L 627.607 69.792 L 627.115 52.608 L 626.555 35.248 L 625.928 17.712 L 625.232 0 L 5.232 0 Z" vector-effect="non-scaling-stroke"/></g></svg>