<svg width="642.511" height="1171.781" viewBox="0 0 642.511 1171.781" xmlns="http://www.w3.org/2000/svg"><g id="svgGroup" stroke-linecap="round" fill-rule="evenodd" font-size="9pt" stroke="#000" stroke-width="0.25mm" fill="none" style="stroke:#000;stroke-width:0.25mm;fill:none"><path d="M 0 0 L 1.146 18.764 L 2.343 37.386 L 3.59 55.866 L 4.889 74.204 L 6.239 92.398 L 7.64 110.451 L 9.092 128.361 L 10.595 146.129 L 12.149 163.755 L 13.754 181.238 L 15.41 198.579 L 17.117 215.777 L 18.875 232.834 L 20.684 249.747 L 22.544 266.519 L 24.455 283.148 L 26.417 299.635 L 28.43 315.979 L 30.495 332.181 L 32.61 348.241 L 34.776 364.158 L 36.993 379.933 L 39.262 395.565 L 41.581 411.056 L 43.951 426.403 L 46.373 441.609 L 48.845 456.672 L 51.369 471.593 L 53.943 486.371 L 56.569 501.007 L 59.245 515.501 L 61.973 529.853 L 64.751 544.062 L 67.581 558.128 L 70.461 572.053 L 73.393 585.834 L 76.376 599.474 L 79.409 612.971 L 82.494 626.326 L 85.63 639.539 L 88.817 652.609 L 92.054 665.537 L 95.343 678.322 L 98.683 690.965 L 102.074 703.466 L 105.516 715.825 L 109.009 728.041 L 112.553 740.114 L 116.148 752.046 L 119.794 763.835 L 123.491 775.481 L 127.239 786.986 L 131.038 798.347 L 134.888 809.567 L 138.789 820.644 L 142.741 831.579 L 146.744 842.372 L 150.798 853.022 L 154.903 863.529 L 159.06 873.895 L 163.267 884.118 L 167.525 894.199 L 171.834 904.137 L 176.195 913.933 L 180.606 923.587 L 185.069 933.098 L 189.582 942.467 L 194.146 951.694 L 198.762 960.778 L 203.428 969.72 L 208.146 978.519 L 212.914 987.176 L 217.734 995.691 L 222.604 1004.064 L 227.526 1012.294 L 232.499 1020.381 L 237.522 1028.327 L 242.597 1036.13 L 247.723 1043.791 L 252.899 1051.309 L 258.127 1058.685 L 263.406 1065.918 L 268.736 1073.01 L 274.117 1079.959 L 279.548 1086.765 L 285.031 1093.429 L 290.565 1099.951 L 296.15 1106.331 L 301.786 1112.568 L 307.473 1118.662 L 313.211 1124.615 L 319 1130.425 L 324.84 1136.093 L 330.731 1141.618 L 336.673 1147.001 L 342.666 1152.242 L 348.71 1157.34 L 354.806 1162.296 L 360.952 1167.109 L 367.149 1171.781 L 371.797 1167.109 L 376.407 1162.296 L 380.978 1157.34 L 385.511 1152.242 L 390.006 1147.001 L 394.462 1141.618 L 398.881 1136.093 L 403.261 1130.425 L 407.603 1124.615 L 411.906 1118.662 L 416.171 1112.568 L 420.398 1106.331 L 424.587 1099.951 L 428.737 1093.429 L 432.85 1086.765 L 436.923 1079.959 L 440.959 1073.01 L 444.956 1065.918 L 448.915 1058.685 L 452.836 1051.309 L 456.719 1043.791 L 460.563 1036.13 L 464.369 1028.327 L 468.137 1020.381 L 471.866 1012.294 L 475.557 1004.064 L 479.21 995.691 L 482.825 987.176 L 486.401 978.519 L 489.94 969.72 L 493.439 960.778 L 496.901 951.694 L 500.324 942.467 L 503.709 933.098 L 507.056 923.587 L 510.365 913.933 L 513.635 904.137 L 516.867 894.199 L 520.061 884.118 L 523.216 873.895 L 526.333 863.529 L 529.412 853.022 L 532.453 842.372 L 535.455 831.579 L 538.419 820.644 L 541.345 809.567 L 544.233 798.347 L 547.082 786.986 L 549.893 775.481 L 552.666 763.835 L 555.4 752.046 L 558.096 740.114 L 560.754 728.041 L 563.374 715.825 L 565.955 703.466 L 568.498 690.965 L 571.003 678.322 L 573.47 665.537 L 575.898 652.609 L 578.288 639.539 L 580.64 626.326 L 582.954 612.971 L 585.229 599.474 L 587.466 585.834 L 589.665 572.053 L 591.825 558.128 L 593.947 544.062 L 596.031 529.853 L 598.077 515.501 L 600.084 501.007 L 602.053 486.371 L 603.984 471.593 L 605.877 456.672 L 607.731 441.609 L 609.547 426.403 L 611.325 411.056 L 613.064 395.565 L 614.766 379.933 L 616.429 364.158 L 618.053 348.241 L 619.64 332.181 L 621.188 315.979 L 622.698 299.635 L 624.169 283.148 L 625.603 266.519 L 626.998 249.747 L 628.355 232.834 L 629.673 215.777 L 630.953 198.579 L 632.195 181.238 L 633.399 163.755 L 634.565 146.129 L 635.692 128.361 L 636.781 110.451 L 637.831 92.398 L 638.844 74.204 L 639.818 55.866 L 640.754 37.386 L 641.651 18.764 L 642.511 0 L 0 0 Z" vector-effect="non-scaling-stroke"/></g></svg>