<svg width="142.868" height="246.534" viewBox="0 0 142.868 246.534" xmlns="http://www.w3.org/2000/svg"><g id="svgGroup" stroke-linecap="round" fill-rule="evenodd" font-size="9pt" stroke="#000" stroke-width="0.25mm" fill="none" style="stroke:#000;stroke-width:0.25mm;fill:none"><path d="M 81.536 246.534 L 81.625 244.232 L 81.719 241.929 L 81.819 239.628 L 81.925 237.326 L 82.037 235.024 L 82.154 232.723 L 82.278 230.423 L 82.407 228.122 L 82.543 225.822 L 82.686 223.522 L 82.835 221.223 L 82.991 218.924 L 83.153 216.626 L 83.323 214.328 L 83.499 212.031 L 83.683 209.734 L 83.875 207.438 L 84.074 205.143 L 84.28 202.848 L 84.495 200.554 L 84.718 198.26 L 84.949 195.968 L 85.189 193.676 L 85.438 191.386 L 85.695 189.096 L 85.962 186.808 L 86.238 184.52 L 86.524 182.234 L 86.82 179.949 L 87.125 177.665 L 87.442 175.383 L 87.769 173.102 L 88.107 170.823 L 88.456 168.545 L 88.817 166.27 L 89.19 163.996 L 89.575 161.724 L 89.972 159.455 L 90.383 157.188 L 90.806 154.923 L 91.244 152.661 L 91.695 150.401 L 92.161 148.145 L 92.641 145.891 L 93.137 143.641 L 93.649 141.395 L 94.176 139.152 L 94.72 136.913 L 95.281 134.678 L 95.859 132.448 L 96.455 130.222 L 97.069 128.001 L 97.701 125.786 L 98.352 123.575 L 99.023 121.371 L 99.713 119.173 L 100.423 116.981 L 101.152 114.795 L 101.902 112.617 L 102.672 110.445 L 103.462 108.281 L 104.272 106.124 L 105.102 103.974 L 105.951 101.832 L 106.819 99.698 L 107.705 97.571 L 108.608 95.451 L 109.527 93.338 L 110.461 91.232 L 111.408 89.131 L 112.366 87.036 L 113.335 84.945 L 114.31 82.858 L 115.292 80.774 L 116.276 78.69 L 117.261 76.608 L 118.245 74.524 L 119.225 72.438 L 120.198 70.35 L 121.162 68.258 L 122.116 66.16 L 123.057 64.057 L 123.984 61.948 L 124.895 59.831 L 125.789 57.708 L 126.664 55.576 L 127.521 53.438 L 128.359 51.291 L 129.177 49.137 L 129.975 46.976 L 130.753 44.807 L 131.511 42.631 L 132.25 40.449 L 132.971 38.26 L 133.672 36.066 L 134.356 33.865 L 135.022 31.66 L 135.672 29.449 L 136.305 27.234 L 136.923 25.014 L 137.526 22.791 L 138.115 20.563 L 138.69 18.332 L 139.252 16.097 L 139.802 13.86 L 140.34 11.619 L 140.866 9.376 L 141.382 7.131 L 141.887 4.883 L 142.382 2.632 L 142.868 0.38 L 0 0 L 0.638 2.251 L 1.278 4.502 L 1.92 6.752 L 2.564 9.001 L 3.21 11.25 L 3.858 13.498 L 4.508 15.746 L 5.16 17.993 L 5.814 20.24 L 6.471 22.486 L 7.129 24.731 L 7.79 26.975 L 8.454 29.219 L 9.119 31.462 L 9.787 33.705 L 10.458 35.946 L 11.131 38.187 L 11.806 40.427 L 12.484 42.667 L 13.164 44.906 L 13.847 47.144 L 14.532 49.381 L 15.22 51.617 L 15.91 53.853 L 16.602 56.088 L 17.297 58.322 L 17.995 60.556 L 18.695 62.788 L 19.397 65.02 L 20.102 67.252 L 20.809 69.482 L 21.518 71.712 L 22.23 73.941 L 22.943 76.169 L 23.659 78.397 L 24.378 80.623 L 25.098 82.85 L 25.82 85.075 L 26.545 87.3 L 27.271 89.524 L 27.999 91.748 L 28.729 93.971 L 29.461 96.193 L 30.195 98.415 L 30.931 100.636 L 31.668 102.857 L 32.406 105.077 L 33.147 107.296 L 33.889 109.516 L 34.632 111.734 L 35.377 113.952 L 36.123 116.17 L 36.871 118.387 L 37.62 120.604 L 38.37 122.82 L 39.121 125.036 L 39.874 127.251 L 40.628 129.466 L 41.383 131.681 L 42.139 133.895 L 42.896 136.109 L 43.654 138.323 L 44.412 140.536 L 45.172 142.749 L 45.933 144.962 L 46.695 147.174 L 47.457 149.386 L 48.221 151.598 L 48.985 153.81 L 49.75 156.021 L 50.515 158.232 L 51.281 160.443 L 52.048 162.653 L 52.816 164.864 L 53.584 167.074 L 54.353 169.284 L 55.123 171.493 L 55.893 173.703 L 56.664 175.912 L 57.435 178.121 L 58.206 180.33 L 58.979 182.539 L 59.751 184.747 L 60.525 186.956 L 61.298 189.164 L 62.072 191.372 L 62.847 193.58 L 63.622 195.787 L 64.397 197.995 L 65.173 200.203 L 65.949 202.41 L 66.726 204.617 L 67.502 206.824 L 68.28 209.031 L 69.057 211.238 L 69.835 213.445 L 70.613 215.651 L 71.392 217.858 L 72.17 220.064 L 72.949 222.271 L 73.729 224.477 L 74.508 226.683 L 75.288 228.889 L 76.068 231.095 L 76.849 233.301 L 77.629 235.506 L 78.41 237.712 L 79.191 239.918 L 79.973 242.123 L 80.754 244.329 L 81.536 246.534 Z" vector-effect="non-scaling-stroke"/><g id="captions"><text alignment-baseline="middle" text-anchor="middle" transform="rotate(0,76.485,123.362)" x="76.485" y="123.362">BULKHEAD, 2</text></g></g></svg>