<svg width="786.445" height="1125" viewBox="0 0 786.445 1125" xmlns="http://www.w3.org/2000/svg"><g id="svgGroup" stroke-linecap="round" fill-rule="evenodd" font-size="9pt" stroke="#000" stroke-width="0.25mm" fill="none" style="stroke:#000;stroke-width:0.25mm;fill:none"><path d="M 6.54 0 L 5.381 22.14 L 4.335 44.06 L 3.402 65.76 L 2.582 87.24 L 1.874 108.5 L 1.28 129.54 L 0.798 150.36 L 0.429 170.96 L 0.173 191.34 L 0.03 211.5 L 0 231.44 L 0.083 251.16 L 0.278 270.66 L 0.587 289.94 L 1.008 309 L 1.542 327.84 L 2.19 346.46 L 2.949 364.86 L 3.822 383.04 L 4.808 401 L 5.907 418.74 L 7.118 436.26 L 8.443 453.56 L 9.88 470.64 L 11.43 487.5 L 13.093 504.14 L 14.869 520.56 L 16.758 536.76 L 18.759 552.74 L 20.874 568.5 L 23.101 584.04 L 25.442 599.36 L 27.895 614.46 L 30.461 629.34 L 33.14 644 L 35.932 658.44 L 38.836 672.66 L 41.854 686.66 L 44.984 700.44 L 48.228 714 L 51.584 727.34 L 55.053 740.46 L 58.635 753.36 L 62.33 766.04 L 66.138 778.5 L 70.058 790.74 L 74.092 802.76 L 78.238 814.56 L 82.497 826.14 L 86.869 837.5 L 91.355 848.64 L 95.952 859.56 L 100.663 870.26 L 105.487 880.74 L 110.423 891 L 115.473 901.04 L 120.635 910.86 L 125.91 920.46 L 131.298 929.84 L 136.799 939 L 142.413 947.94 L 148.14 956.66 L 153.979 965.16 L 159.932 973.44 L 165.997 981.5 L 172.175 989.34 L 178.466 996.96 L 184.87 1004.36 L 191.387 1011.54 L 198.017 1018.5 L 204.759 1025.24 L 211.615 1031.76 L 218.583 1038.06 L 225.664 1044.14 L 232.859 1050 L 240.166 1055.64 L 247.585 1061.06 L 255.118 1066.26 L 262.764 1071.24 L 270.522 1076 L 278.394 1080.54 L 286.378 1084.86 L 294.475 1088.96 L 302.685 1092.84 L 311.008 1096.5 L 319.444 1099.94 L 327.993 1103.16 L 336.654 1106.16 L 345.429 1108.94 L 354.316 1111.5 L 363.316 1113.84 L 372.429 1115.96 L 381.655 1117.86 L 390.994 1119.54 L 400.446 1121 L 410.01 1122.24 L 419.688 1123.26 L 429.478 1124.06 L 439.381 1124.64 L 449.397 1125 L 456.909 1124.64 L 464.337 1124.06 L 471.68 1123.26 L 478.938 1122.24 L 486.111 1121 L 493.2 1119.54 L 500.204 1117.86 L 507.123 1115.96 L 513.958 1113.84 L 520.708 1111.5 L 527.374 1108.94 L 533.955 1106.16 L 540.451 1103.16 L 546.862 1099.94 L 553.189 1096.5 L 559.431 1092.84 L 565.589 1088.96 L 571.662 1084.86 L 577.65 1080.54 L 583.554 1076 L 589.372 1071.24 L 595.107 1066.26 L 600.756 1061.06 L 606.321 1055.64 L 611.801 1050 L 617.197 1044.14 L 622.508 1038.06 L 627.734 1031.76 L 632.876 1025.24 L 637.933 1018.5 L 642.905 1011.54 L 647.793 1004.36 L 652.596 996.96 L 657.314 989.34 L 661.948 981.5 L 666.497 973.44 L 670.961 965.16 L 675.341 956.66 L 679.636 947.94 L 683.846 939 L 687.972 929.84 L 692.013 920.46 L 695.969 910.86 L 699.841 901.04 L 703.628 891 L 707.33 880.74 L 710.948 870.26 L 714.481 859.56 L 717.929 848.64 L 721.293 837.5 L 724.572 826.14 L 727.767 814.56 L 730.876 802.76 L 733.902 790.74 L 736.842 778.5 L 739.698 766.04 L 742.469 753.36 L 745.155 740.46 L 747.757 727.34 L 750.274 714 L 752.707 700.44 L 755.055 686.66 L 757.318 672.66 L 759.497 658.44 L 761.59 644 L 763.6 629.34 L 765.524 614.46 L 767.364 599.36 L 769.119 584.04 L 770.79 568.5 L 772.376 552.74 L 773.877 536.76 L 775.294 520.56 L 776.626 504.14 L 777.873 487.5 L 779.035 470.64 L 780.113 453.56 L 781.107 436.26 L 782.015 418.74 L 782.839 401 L 783.579 383.04 L 784.233 364.86 L 784.803 346.46 L 785.289 327.84 L 785.689 309 L 786.005 289.94 L 786.237 270.66 L 786.383 251.16 L 786.445 231.44 L 786.423 211.5 L 786.315 191.34 L 786.123 170.96 L 785.847 150.36 L 785.486 129.54 L 785.04 108.5 L 784.509 87.24 L 783.894 65.76 L 783.194 44.06 L 782.409 22.14 L 781.54 0 L 6.54 0 Z" vector-effect="non-scaling-stroke"/></g></svg>