<svg width="123.624" height="253.731" viewBox="0 0 123.624 253.731" xmlns="http://www.w3.org/2000/svg"><g id="svgGroup" stroke-linecap="round" fill-rule="evenodd" font-size="9pt" stroke="#000" stroke-width="0.25mm" fill="none" style="stroke:#000;stroke-width:0.25mm;fill:none"><path d="M 70.527 253.731 L 70.57 251.377 L 70.618 249.024 L 70.671 246.672 L 70.727 244.319 L 70.788 241.966 L 70.854 239.614 L 70.924 237.261 L 70.999 234.909 L 71.079 232.557 L 71.163 230.205 L 71.253 227.853 L 71.348 225.502 L 71.448 223.151 L 71.553 220.799 L 71.664 218.449 L 71.781 216.098 L 71.904 213.748 L 72.032 211.398 L 72.167 209.048 L 72.308 206.699 L 72.455 204.35 L 72.609 202.002 L 72.77 199.654 L 72.937 197.307 L 73.112 194.96 L 73.295 192.613 L 73.485 190.267 L 73.683 187.922 L 73.889 185.578 L 74.103 183.234 L 74.326 180.892 L 74.558 178.55 L 74.799 176.208 L 75.049 173.868 L 75.31 171.529 L 75.58 169.192 L 75.861 166.855 L 76.153 164.52 L 76.456 162.186 L 76.771 159.854 L 77.098 157.523 L 77.438 155.194 L 77.79 152.867 L 78.156 150.543 L 78.537 148.22 L 78.932 145.9 L 79.342 143.583 L 79.768 141.268 L 80.211 138.957 L 80.671 136.649 L 81.149 134.344 L 81.645 132.044 L 82.161 129.748 L 82.698 127.456 L 83.255 125.17 L 83.835 122.889 L 84.437 120.614 L 85.063 118.345 L 85.714 116.083 L 86.39 113.829 L 87.092 111.583 L 87.821 109.345 L 88.577 107.117 L 89.361 104.898 L 90.173 102.689 L 91.014 100.491 L 91.882 98.303 L 92.777 96.127 L 93.698 93.961 L 94.643 91.806 L 95.611 89.66 L 96.598 87.524 L 97.601 85.395 L 98.617 83.272 L 99.64 81.153 L 100.668 79.036 L 101.694 76.918 L 102.714 74.797 L 103.724 72.671 L 104.718 70.538 L 105.693 68.396 L 106.645 66.244 L 107.572 64.08 L 108.471 61.906 L 109.341 59.719 L 110.181 57.52 L 110.991 55.311 L 111.77 53.09 L 112.52 50.859 L 113.24 48.619 L 113.932 46.369 L 114.598 44.112 L 115.237 41.847 L 115.852 39.576 L 116.444 37.298 L 117.013 35.014 L 117.562 32.726 L 118.092 30.433 L 118.602 28.135 L 119.096 25.834 L 119.573 23.53 L 120.034 21.222 L 120.481 18.911 L 120.915 16.598 L 121.335 14.283 L 121.743 11.965 L 122.14 9.645 L 122.526 7.323 L 122.901 5 L 123.267 2.676 L 123.624 0.349 L 0 0 L 0.46 2.329 L 0.924 4.658 L 1.39 6.985 L 1.86 9.313 L 2.332 11.639 L 2.808 13.965 L 3.288 16.29 L 3.771 18.615 L 4.257 20.939 L 4.747 23.262 L 5.241 25.584 L 5.739 27.905 L 6.24 30.226 L 6.746 32.546 L 7.255 34.864 L 7.769 37.182 L 8.286 39.499 L 8.808 41.815 L 9.334 44.131 L 9.864 46.445 L 10.399 48.758 L 10.938 51.07 L 11.481 53.381 L 12.029 55.691 L 12.581 58 L 13.137 60.308 L 13.698 62.615 L 14.263 64.921 L 14.833 67.226 L 15.407 69.53 L 15.985 71.832 L 16.568 74.134 L 17.155 76.434 L 17.746 78.734 L 18.341 81.032 L 18.94 83.329 L 19.544 85.626 L 20.151 87.921 L 20.762 90.215 L 21.377 92.508 L 21.996 94.8 L 22.618 97.091 L 23.244 99.381 L 23.874 101.67 L 24.507 103.958 L 25.144 106.246 L 25.783 108.532 L 26.426 110.817 L 27.072 113.102 L 27.721 115.386 L 28.373 117.669 L 29.028 119.951 L 29.685 122.232 L 30.345 124.512 L 31.008 126.792 L 31.674 129.071 L 32.341 131.349 L 33.012 133.627 L 33.684 135.904 L 34.359 138.18 L 35.035 140.456 L 35.714 142.731 L 36.395 145.005 L 37.078 147.279 L 37.763 149.552 L 38.449 151.825 L 39.138 154.097 L 39.827 156.369 L 40.519 158.64 L 41.212 160.911 L 41.907 163.181 L 42.603 165.451 L 43.301 167.72 L 44 169.989 L 44.7 172.257 L 45.402 174.526 L 46.105 176.793 L 46.809 179.061 L 47.514 181.327 L 48.221 183.594 L 48.929 185.86 L 49.637 188.126 L 50.347 190.392 L 51.057 192.657 L 51.769 194.922 L 52.482 197.187 L 53.195 199.451 L 53.909 201.715 L 54.624 203.979 L 55.34 206.243 L 56.057 208.506 L 56.775 210.769 L 57.493 213.032 L 58.212 215.295 L 58.932 217.557 L 59.652 219.819 L 60.373 222.081 L 61.095 224.343 L 61.817 226.605 L 62.54 228.866 L 63.263 231.127 L 63.987 233.389 L 64.712 235.649 L 65.437 237.91 L 66.163 240.171 L 66.889 242.431 L 67.615 244.691 L 68.343 246.951 L 69.07 249.211 L 69.798 251.471 L 70.527 253.731 Z" vector-effect="non-scaling-stroke"/><g id="captions"><text alignment-baseline="middle" text-anchor="middle" transform="rotate(0,66.169,126.953)" x="66.169" y="126.953">BULKHEAD, 2</text></g></g></svg>