<svg width="157.289" height="225" viewBox="0 0 157.289 225" xmlns="http://www.w3.org/2000/svg"><g id="svgGroup" stroke-linecap="round" fill-rule="evenodd" font-size="9pt" stroke="#000" stroke-width="0.25mm" fill="none" style="stroke:#000;stroke-width:0.25mm;fill:none"><path d="M 1.308 0 L 1.076 4.428 L 0.867 8.812 L 0.68 13.152 L 0.516 17.448 L 0.375 21.7 L 0.256 25.908 L 0.16 30.072 L 0.086 34.192 L 0.035 38.268 L 0.006 42.3 L 0 46.288 L 0.017 50.232 L 0.056 54.132 L 0.117 57.988 L 0.202 61.8 L 0.308 65.568 L 0.438 69.292 L 0.59 72.972 L 0.764 76.608 L 0.962 80.2 L 1.181 83.748 L 1.424 87.252 L 1.689 90.712 L 1.976 94.128 L 2.286 97.5 L 2.619 100.828 L 2.974 104.112 L 3.352 107.352 L 3.752 110.548 L 4.175 113.7 L 4.62 116.808 L 5.088 119.872 L 5.579 122.892 L 6.092 125.868 L 6.628 128.8 L 7.186 131.688 L 7.767 134.532 L 8.371 137.332 L 8.997 140.088 L 9.646 142.8 L 10.317 145.468 L 11.011 148.092 L 11.727 150.672 L 12.466 153.208 L 13.228 155.7 L 14.012 158.148 L 14.818 160.552 L 15.648 162.912 L 16.499 165.228 L 17.374 167.5 L 18.271 169.728 L 19.19 171.912 L 20.133 174.052 L 21.097 176.148 L 22.085 178.2 L 23.095 180.208 L 24.127 182.172 L 25.182 184.092 L 26.26 185.968 L 27.36 187.8 L 28.483 189.588 L 29.628 191.332 L 30.796 193.032 L 31.986 194.688 L 33.199 196.3 L 34.435 197.868 L 35.693 199.392 L 36.974 200.872 L 38.277 202.308 L 39.603 203.7 L 40.952 205.048 L 42.323 206.352 L 43.717 207.612 L 45.133 208.828 L 46.572 210 L 48.033 211.128 L 49.517 212.212 L 51.024 213.252 L 52.553 214.248 L 54.104 215.2 L 55.679 216.108 L 57.276 216.972 L 58.895 217.792 L 60.537 218.568 L 62.202 219.3 L 63.889 219.988 L 65.599 220.632 L 67.331 221.232 L 69.086 221.788 L 70.863 222.3 L 72.663 222.768 L 74.486 223.192 L 76.331 223.572 L 78.199 223.908 L 80.089 224.2 L 82.002 224.448 L 83.938 224.652 L 85.896 224.812 L 87.876 224.928 L 89.879 225 L 91.382 224.928 L 92.867 224.812 L 94.336 224.652 L 95.788 224.448 L 97.222 224.2 L 98.64 223.908 L 100.041 223.572 L 101.425 223.192 L 102.792 222.768 L 104.142 222.3 L 105.475 221.788 L 106.791 221.232 L 108.09 220.632 L 109.372 219.988 L 110.638 219.3 L 111.886 218.568 L 113.118 217.792 L 114.332 216.972 L 115.53 216.108 L 116.711 215.2 L 117.874 214.248 L 119.021 213.252 L 120.151 212.212 L 121.264 211.128 L 122.36 210 L 123.439 208.828 L 124.502 207.612 L 125.547 206.352 L 126.575 205.048 L 127.587 203.7 L 128.581 202.308 L 129.559 200.872 L 130.519 199.392 L 131.463 197.868 L 132.39 196.3 L 133.299 194.688 L 134.192 193.032 L 135.068 191.332 L 135.927 189.588 L 136.769 187.8 L 137.594 185.968 L 138.403 184.092 L 139.194 182.172 L 139.968 180.208 L 140.726 178.2 L 141.466 176.148 L 142.19 174.052 L 142.896 171.912 L 143.586 169.728 L 144.259 167.5 L 144.914 165.228 L 145.553 162.912 L 146.175 160.552 L 146.78 158.148 L 147.368 155.7 L 147.94 153.208 L 148.494 150.672 L 149.031 148.092 L 149.551 145.468 L 150.055 142.8 L 150.541 140.088 L 151.011 137.332 L 151.464 134.532 L 151.899 131.688 L 152.318 128.8 L 152.72 125.868 L 153.105 122.892 L 153.473 119.872 L 153.824 116.808 L 154.158 113.7 L 154.475 110.548 L 154.775 107.352 L 155.059 104.112 L 155.325 100.828 L 155.575 97.5 L 155.807 94.128 L 156.023 90.712 L 156.221 87.252 L 156.403 83.748 L 156.568 80.2 L 156.716 76.608 L 156.847 72.972 L 156.961 69.292 L 157.058 65.568 L 157.138 61.8 L 157.201 57.988 L 157.247 54.132 L 157.277 50.232 L 157.289 46.288 L 157.285 42.3 L 157.263 38.268 L 157.225 34.192 L 157.169 30.072 L 157.097 25.908 L 157.008 21.7 L 156.902 17.448 L 156.779 13.152 L 156.639 8.812 L 156.482 4.428 L 156.308 0 L 1.308 0 Z" vector-effect="non-scaling-stroke"/><g id="captions"><text alignment-baseline="middle" text-anchor="middle" transform="rotate(0,80.816,167.5)" x="80.816" y="167.5">BULKHEAD, 0</text></g></g></svg>