<svg width="169.967" height="221.784" viewBox="0 0 169.967 221.784" xmlns="http://www.w3.org/2000/svg"><g id="svgGroup" stroke-linecap="round" fill-rule="evenodd" font-size="9pt" stroke="#000" stroke-width="0.25mm" fill="none" style="stroke:#000;stroke-width:0.25mm;fill:none"><path d="M 97.125 221.784 L 98.339 220.014 L 99.533 218.232 L 100.716 216.441 L 101.89 214.644 L 103.055 212.842 L 104.213 211.035 L 105.364 209.224 L 106.509 207.409 L 107.648 205.59 L 108.781 203.768 L 109.908 201.941 L 111.03 200.112 L 112.147 198.279 L 113.258 196.443 L 114.364 194.605 L 115.465 192.762 L 116.561 190.917 L 117.652 189.069 L 118.738 187.218 L 119.819 185.364 L 120.895 183.507 L 121.965 181.647 L 123.03 179.784 L 124.091 177.918 L 125.145 176.049 L 126.195 174.177 L 127.239 172.302 L 128.277 170.424 L 129.31 168.543 L 130.337 166.659 L 131.358 164.771 L 132.373 162.88 L 133.382 160.986 L 134.385 159.089 L 135.381 157.188 L 136.37 155.284 L 137.353 153.376 L 138.328 151.464 L 139.296 149.549 L 140.257 147.63 L 141.209 145.707 L 142.154 143.779 L 143.09 141.848 L 144.017 139.913 L 144.935 137.973 L 145.844 136.029 L 146.743 134.081 L 147.632 132.127 L 148.51 130.169 L 149.377 128.206 L 150.232 126.237 L 151.075 124.264 L 151.905 122.285 L 152.722 120.3 L 153.524 118.31 L 154.313 116.314 L 155.085 114.312 L 155.842 112.304 L 156.582 110.289 L 157.304 108.268 L 158.007 106.241 L 158.692 104.207 L 159.356 102.166 L 159.999 100.119 L 160.62 98.065 L 161.219 96.004 L 161.795 93.937 L 162.346 91.863 L 162.873 89.782 L 163.375 87.696 L 163.851 85.603 L 164.302 83.505 L 164.726 81.401 L 165.125 79.293 L 165.499 77.179 L 165.847 75.062 L 166.171 72.94 L 166.471 70.815 L 166.749 68.687 L 167.005 66.557 L 167.24 64.424 L 167.456 62.289 L 167.654 60.152 L 167.836 58.013 L 168.002 55.874 L 168.155 53.733 L 168.294 51.592 L 168.422 49.449 L 168.54 47.307 L 168.648 45.163 L 168.748 43.02 L 168.841 40.875 L 168.927 38.731 L 169.007 36.587 L 169.083 34.442 L 169.154 32.297 L 169.221 30.152 L 169.285 28.007 L 169.346 25.862 L 169.404 23.717 L 169.461 21.571 L 169.516 19.426 L 169.569 17.281 L 169.621 15.135 L 169.672 12.99 L 169.722 10.844 L 169.772 8.699 L 169.821 6.553 L 169.87 4.408 L 169.918 2.262 L 169.967 0.117 L 0 0 L 0.08 2.23 L 0.176 4.46 L 0.286 6.689 L 0.411 8.917 L 0.552 11.144 L 0.708 13.37 L 0.878 15.595 L 1.065 17.819 L 1.266 20.041 L 1.483 22.262 L 1.715 24.482 L 1.963 26.699 L 2.226 28.915 L 2.505 31.13 L 2.799 33.342 L 3.109 35.552 L 3.434 37.759 L 3.775 39.965 L 4.132 42.168 L 4.504 44.368 L 4.892 46.566 L 5.296 48.76 L 5.715 50.952 L 6.15 53.141 L 6.6 55.327 L 7.067 57.509 L 7.548 59.688 L 8.046 61.863 L 8.559 64.035 L 9.087 66.203 L 9.632 68.368 L 10.191 70.528 L 10.767 72.684 L 11.357 74.836 L 11.964 76.984 L 12.585 79.127 L 13.222 81.266 L 13.875 83.4 L 14.542 85.529 L 15.225 87.654 L 15.923 89.773 L 16.636 91.888 L 17.364 93.997 L 18.107 96.101 L 18.866 98.2 L 19.639 100.294 L 20.426 102.382 L 21.229 104.464 L 22.046 106.541 L 22.878 108.611 L 23.724 110.676 L 24.584 112.735 L 25.459 114.788 L 26.348 116.835 L 27.252 118.876 L 28.169 120.91 L 29.1 122.938 L 30.046 124.959 L 31.004 126.974 L 31.977 128.983 L 32.963 130.985 L 33.963 132.98 L 34.976 134.968 L 36.002 136.95 L 37.042 138.925 L 38.094 140.893 L 39.16 142.853 L 40.238 144.807 L 41.329 146.754 L 42.432 148.693 L 43.548 150.626 L 44.677 152.551 L 45.818 154.469 L 46.971 156.38 L 48.136 158.283 L 49.313 160.179 L 50.501 162.068 L 51.702 163.949 L 52.914 165.823 L 54.137 167.689 L 55.372 169.548 L 56.618 171.399 L 57.875 173.243 L 59.143 175.079 L 60.422 176.908 L 61.712 178.729 L 63.013 180.543 L 64.324 182.348 L 65.645 184.147 L 66.977 185.937 L 68.319 187.72 L 69.671 189.496 L 71.033 191.264 L 72.404 193.024 L 73.786 194.776 L 75.177 196.521 L 76.578 198.258 L 77.988 199.988 L 79.407 201.71 L 80.836 203.424 L 82.273 205.131 L 83.72 206.831 L 85.175 208.522 L 86.64 210.206 L 88.112 211.883 L 89.594 213.552 L 91.084 215.213 L 92.582 216.867 L 94.088 218.514 L 95.603 220.153 L 97.125 221.784 Z" vector-effect="non-scaling-stroke"/><g id="captions"><text alignment-baseline="middle" text-anchor="middle" transform="rotate(0,91.054,110.921)" x="91.054" y="110.921">BULKHEAD, 1</text></g></g></svg>