<svg width="168.123" height="217.958" viewBox="0 0 168.123 217.958" xmlns="http://www.w3.org/2000/svg"><g id="svgGroup" stroke-linecap="round" fill-rule="evenodd" font-size="9pt" stroke="#000" stroke-width="0.25mm" fill="none" style="stroke:#000;stroke-width:0.25mm;fill:none"><path d="M 96.076 217.958 L 97.009 216.099 L 97.932 214.236 L 98.85 212.369 L 99.762 210.5 L 100.671 208.629 L 101.576 206.756 L 102.477 204.882 L 103.375 203.006 L 104.27 201.129 L 105.163 199.25 L 106.052 197.37 L 106.939 195.488 L 107.823 193.606 L 108.705 191.722 L 109.584 189.837 L 110.461 187.951 L 111.335 186.064 L 112.206 184.175 L 113.075 182.285 L 113.942 180.395 L 114.806 178.503 L 115.668 176.61 L 116.527 174.715 L 117.383 172.82 L 118.237 170.924 L 119.089 169.026 L 119.938 167.127 L 120.784 165.227 L 121.628 163.326 L 122.468 161.424 L 123.306 159.52 L 124.142 157.615 L 124.974 155.709 L 125.803 153.802 L 126.63 151.893 L 127.453 149.983 L 128.273 148.071 L 129.089 146.159 L 129.903 144.244 L 130.713 142.329 L 131.519 140.411 L 132.322 138.492 L 133.12 136.572 L 133.915 134.65 L 134.706 132.726 L 135.492 130.801 L 136.274 128.873 L 137.052 126.944 L 137.824 125.013 L 138.592 123.08 L 139.354 121.145 L 140.112 119.208 L 140.863 117.268 L 141.608 115.327 L 142.348 113.383 L 143.081 111.436 L 143.807 109.487 L 144.525 107.535 L 145.237 105.581 L 145.941 103.624 L 146.636 101.663 L 147.323 99.7 L 148 97.734 L 148.668 95.764 L 149.326 93.791 L 149.974 91.814 L 150.611 89.834 L 151.236 87.851 L 151.849 85.863 L 152.45 83.872 L 153.038 81.877 L 153.612 79.878 L 154.173 77.875 L 154.719 75.868 L 155.252 73.857 L 155.769 71.843 L 156.272 69.825 L 156.761 67.803 L 157.234 65.778 L 157.694 63.749 L 158.139 61.718 L 158.571 59.683 L 158.99 57.646 L 159.396 55.606 L 159.791 53.564 L 160.174 51.52 L 160.548 49.474 L 160.912 47.426 L 161.268 45.377 L 161.616 43.326 L 161.958 41.274 L 162.293 39.222 L 162.622 37.168 L 162.947 35.114 L 163.267 33.058 L 163.584 31.003 L 163.897 28.947 L 164.208 26.89 L 164.516 24.833 L 164.822 22.776 L 165.127 20.718 L 165.43 18.661 L 165.731 16.603 L 166.032 14.545 L 166.332 12.487 L 166.631 10.428 L 166.93 8.37 L 167.229 6.312 L 167.527 4.253 L 167.825 2.195 L 168.123 0.136 L 0 0 L 0.425 2.118 L 0.861 4.233 L 1.306 6.347 L 1.762 8.458 L 2.227 10.568 L 2.701 12.675 L 3.186 14.78 L 3.68 16.883 L 4.184 18.983 L 4.697 21.081 L 5.22 23.177 L 5.753 25.27 L 6.294 27.361 L 6.845 29.45 L 7.406 31.536 L 7.975 33.62 L 8.554 35.701 L 9.142 37.779 L 9.738 39.855 L 10.344 41.928 L 10.959 43.999 L 11.583 46.067 L 12.215 48.132 L 12.856 50.195 L 13.506 52.255 L 14.165 54.312 L 14.832 56.366 L 15.508 58.418 L 16.192 60.467 L 16.885 62.513 L 17.586 64.556 L 18.295 66.596 L 19.013 68.633 L 19.739 70.668 L 20.473 72.699 L 21.215 74.728 L 21.965 76.753 L 22.723 78.776 L 23.489 80.796 L 24.263 82.812 L 25.044 84.826 L 25.834 86.836 L 26.631 88.844 L 27.436 90.848 L 28.248 92.85 L 29.068 94.848 L 29.895 96.844 L 30.73 98.836 L 31.572 100.825 L 32.421 102.811 L 33.278 104.794 L 34.142 106.773 L 35.013 108.75 L 35.891 110.724 L 36.776 112.694 L 37.668 114.661 L 38.567 116.625 L 39.473 118.586 L 40.386 120.544 L 41.306 122.498 L 42.232 124.449 L 43.165 126.397 L 44.105 128.342 L 45.051 130.284 L 46.003 132.223 L 46.963 134.158 L 47.928 136.09 L 48.9 138.019 L 49.879 139.945 L 50.863 141.868 L 51.854 143.787 L 52.851 145.703 L 53.854 147.616 L 54.863 149.526 L 55.878 151.432 L 56.9 153.336 L 57.927 155.236 L 58.96 157.133 L 59.999 159.027 L 61.044 160.917 L 62.094 162.804 L 63.15 164.689 L 64.212 166.57 L 65.28 168.447 L 66.353 170.322 L 67.431 172.193 L 68.515 174.062 L 69.605 175.927 L 70.7 177.789 L 71.8 179.647 L 72.906 181.503 L 74.017 183.355 L 75.133 185.205 L 76.254 187.051 L 77.381 188.894 L 78.513 190.734 L 79.649 192.57 L 80.791 194.404 L 81.938 196.234 L 83.09 198.062 L 84.246 199.886 L 85.408 201.707 L 86.574 203.525 L 87.746 205.34 L 88.922 207.152 L 90.102 208.96 L 91.288 210.766 L 92.478 212.569 L 93.672 214.368 L 94.872 216.165 L 96.076 217.958 Z" vector-effect="non-scaling-stroke"/><g id="captions"><text alignment-baseline="middle" text-anchor="middle" transform="rotate(0,90.069,109.013)" x="90.069" y="109.013">BULKHEAD, 2</text></g></g></svg>