<svg width="643.665" height="1162.71" viewBox="0 0 643.665 1162.71" xmlns="http://www.w3.org/2000/svg"><g id="svgGroup" stroke-linecap="round" fill-rule="evenodd" font-size="9pt" stroke="#000" stroke-width="0.25mm" fill="none" style="stroke:#000;stroke-width:0.25mm;fill:none"><path d="M 0 0 L 0.574 9.384 L 1.162 18.732 L 1.762 28.044 L 2.375 37.321 L 3.001 46.561 L 3.639 55.766 L 4.291 64.936 L 4.956 74.069 L 5.633 83.167 L 6.323 92.229 L 7.026 101.255 L 7.742 110.245 L 8.471 119.2 L 9.213 128.119 L 9.967 137.002 L 10.735 145.849 L 11.515 154.661 L 12.308 163.436 L 13.114 172.176 L 13.933 180.881 L 14.765 189.549 L 15.609 198.182 L 16.467 206.779 L 17.337 215.34 L 18.22 223.865 L 19.117 232.355 L 20.025 240.809 L 20.947 249.227 L 21.882 257.609 L 22.83 265.956 L 23.79 274.266 L 24.763 282.541 L 25.749 290.781 L 26.749 298.984 L 27.76 307.152 L 28.785 315.284 L 29.823 323.38 L 30.873 331.44 L 31.937 339.465 L 33.013 347.454 L 34.102 355.407 L 35.204 363.324 L 36.319 371.206 L 37.447 379.052 L 38.587 386.862 L 39.741 394.636 L 40.907 402.374 L 42.086 410.077 L 43.278 417.744 L 44.483 425.375 L 45.701 432.971 L 46.931 440.53 L 48.175 448.054 L 49.431 455.542 L 50.701 462.995 L 51.983 470.411 L 53.278 477.792 L 54.586 485.137 L 55.906 492.446 L 57.24 499.72 L 58.586 506.957 L 59.946 514.159 L 61.318 521.326 L 62.703 528.456 L 64.101 535.551 L 65.512 542.61 L 66.935 549.633 L 68.372 556.62 L 69.821 563.572 L 71.283 570.487 L 72.759 577.367 L 74.247 584.212 L 75.747 591.02 L 77.261 597.793 L 78.788 604.53 L 80.327 611.231 L 81.88 617.897 L 83.445 624.526 L 85.023 631.12 L 86.614 637.678 L 88.218 644.201 L 89.834 650.687 L 91.464 657.138 L 93.106 663.553 L 94.761 669.932 L 96.43 676.276 L 98.111 682.584 L 99.804 688.856 L 101.511 695.092 L 103.231 701.292 L 104.963 707.457 L 106.709 713.586 L 108.467 719.679 L 110.238 725.736 L 112.022 731.758 L 113.819 737.744 L 115.628 743.694 L 117.451 749.608 L 119.286 755.487 L 121.135 761.33 L 122.996 767.137 L 124.87 772.908 L 126.757 778.643 L 128.656 784.343 L 130.569 790.007 L 132.495 795.635 L 134.433 801.227 L 136.384 806.784 L 138.348 812.305 L 140.325 817.79 L 142.315 823.239 L 144.318 828.653 L 146.333 834.031 L 148.362 839.373 L 150.403 844.679 L 152.457 849.949 L 154.524 855.184 L 156.604 860.383 L 158.697 865.546 L 160.802 870.674 L 162.921 875.765 L 165.052 880.821 L 167.197 885.841 L 169.354 890.825 L 171.524 895.774 L 173.706 900.687 L 175.902 905.564 L 178.111 910.405 L 180.332 915.211 L 182.566 919.98 L 184.814 924.714 L 187.074 929.412 L 189.347 934.075 L 191.632 938.701 L 193.931 943.292 L 196.243 947.847 L 198.567 952.367 L 200.904 956.85 L 203.254 961.298 L 205.617 965.71 L 207.993 970.086 L 210.382 974.427 L 212.783 978.732 L 215.198 983.001 L 217.625 987.234 L 220.065 991.431 L 222.518 995.593 L 224.984 999.719 L 227.463 1003.809 L 229.955 1007.863 L 232.459 1011.882 L 234.977 1015.865 L 237.507 1019.812 L 240.05 1023.723 L 242.606 1027.598 L 245.175 1031.438 L 247.757 1035.242 L 250.351 1039.01 L 252.959 1042.743 L 255.579 1046.439 L 258.212 1050.1 L 260.858 1053.725 L 263.517 1057.315 L 266.189 1060.868 L 268.874 1064.386 L 271.571 1067.868 L 274.282 1071.315 L 277.005 1074.725 L 279.741 1078.1 L 282.49 1081.439 L 285.252 1084.742 L 288.027 1088.009 L 290.814 1091.241 L 293.615 1094.437 L 296.428 1097.597 L 299.254 1100.722 L 302.093 1103.81 L 304.945 1106.863 L 307.81 1109.88 L 310.688 1112.861 L 313.578 1115.807 L 316.482 1118.717 L 319.398 1121.591 L 322.327 1124.429 L 325.269 1127.231 L 328.224 1129.998 L 331.192 1132.729 L 334.173 1135.424 L 337.166 1138.083 L 340.172 1140.707 L 343.192 1143.295 L 346.224 1145.847 L 349.269 1148.363 L 352.326 1150.844 L 355.397 1153.289 L 358.481 1155.698 L 361.577 1158.071 L 364.686 1160.408 L 367.809 1162.71 L 370.15 1160.408 L 372.482 1158.071 L 374.804 1155.698 L 377.117 1153.289 L 379.42 1150.844 L 381.714 1148.363 L 383.997 1145.847 L 386.271 1143.295 L 388.536 1140.707 L 390.791 1138.083 L 393.036 1135.424 L 395.271 1132.729 L 397.497 1129.998 L 399.713 1127.231 L 401.92 1124.429 L 404.116 1121.591 L 406.304 1118.717 L 408.481 1115.807 L 410.649 1112.861 L 412.807 1109.88 L 414.956 1106.863 L 417.095 1103.81 L 419.224 1100.722 L 421.344 1097.597 L 423.454 1094.437 L 425.554 1091.241 L 427.645 1088.009 L 429.726 1084.742 L 431.797 1081.439 L 433.859 1078.1 L 435.911 1074.725 L 437.954 1071.315 L 439.987 1067.868 L 442.01 1064.386 L 444.023 1060.868 L 446.027 1057.315 L 448.021 1053.725 L 450.006 1050.1 L 451.981 1046.439 L 453.946 1042.743 L 455.902 1039.01 L 457.848 1035.242 L 459.784 1031.438 L 461.71 1027.598 L 463.627 1023.723 L 465.535 1019.812 L 467.432 1015.865 L 469.321 1011.882 L 471.199 1007.863 L 473.068 1003.809 L 474.927 999.719 L 476.776 995.593 L 478.616 991.431 L 480.446 987.234 L 482.267 983.001 L 484.077 978.732 L 485.879 974.427 L 487.67 970.086 L 489.452 965.71 L 491.224 961.298 L 492.987 956.85 L 494.74 952.367 L 496.483 947.847 L 498.217 943.292 L 499.941 938.701 L 501.655 934.075 L 503.36 929.412 L 505.055 924.714 L 506.74 919.98 L 508.416 915.211 L 510.082 910.405 L 511.738 905.564 L 513.385 900.687 L 515.022 895.774 L 516.65 890.825 L 518.268 885.841 L 519.876 880.821 L 521.474 875.765 L 523.063 870.674 L 524.642 865.546 L 526.212 860.383 L 527.772 855.184 L 529.322 849.949 L 530.863 844.679 L 532.394 839.373 L 533.915 834.031 L 535.427 828.653 L 536.929 823.239 L 538.421 817.79 L 539.904 812.305 L 541.377 806.784 L 542.84 801.227 L 544.294 795.635 L 545.738 790.007 L 547.173 784.343 L 548.598 778.643 L 550.013 772.908 L 551.418 767.137 L 552.814 761.33 L 554.2 755.487 L 555.577 749.608 L 556.944 743.694 L 558.301 737.744 L 559.649 731.758 L 560.987 725.736 L 562.315 719.679 L 563.634 713.586 L 564.943 707.457 L 566.242 701.292 L 567.532 695.092 L 568.812 688.856 L 570.082 682.584 L 571.343 676.276 L 572.594 669.932 L 573.835 663.553 L 575.067 657.138 L 576.289 650.687 L 577.502 644.201 L 578.705 637.678 L 579.898 631.12 L 581.081 624.526 L 582.255 617.897 L 583.42 611.231 L 584.574 604.53 L 585.719 597.793 L 586.854 591.02 L 587.98 584.212 L 589.096 577.367 L 590.202 570.487 L 591.299 563.572 L 592.386 556.62 L 593.464 549.633 L 594.531 542.61 L 595.589 535.551 L 596.638 528.456 L 597.677 521.326 L 598.706 514.159 L 599.725 506.957 L 600.735 499.72 L 601.735 492.446 L 602.726 485.137 L 603.707 477.792 L 604.678 470.411 L 605.64 462.995 L 606.592 455.542 L 607.534 448.054 L 608.466 440.53 L 609.389 432.971 L 610.303 425.375 L 611.206 417.744 L 612.1 410.077 L 612.985 402.374 L 613.86 394.636 L 614.725 386.862 L 615.58 379.052 L 616.426 371.206 L 617.262 363.324 L 618.088 355.407 L 618.905 347.454 L 619.712 339.465 L 620.51 331.44 L 621.298 323.38 L 622.076 315.284 L 622.845 307.152 L 623.604 298.984 L 624.353 290.781 L 625.093 282.541 L 625.822 274.266 L 626.543 265.956 L 627.253 257.609 L 627.955 249.227 L 628.646 240.809 L 629.328 232.355 L 630 223.865 L 630.662 215.34 L 631.315 206.779 L 631.958 198.182 L 632.591 189.549 L 633.215 180.881 L 633.829 172.176 L 634.434 163.436 L 635.029 154.661 L 635.614 145.849 L 636.19 137.002 L 636.756 128.119 L 637.312 119.2 L 637.858 110.245 L 638.395 101.255 L 638.923 92.229 L 639.44 83.167 L 639.948 74.069 L 640.447 64.936 L 640.935 55.766 L 641.414 46.561 L 641.884 37.321 L 642.344 28.044 L 642.794 18.732 L 643.234 9.384 L 643.665 0 L 0 0 Z" vector-effect="non-scaling-stroke"/></g></svg>