<svg width="154.043" height="229.258" viewBox="0 0 154.043 229.258" xmlns="http://www.w3.org/2000/svg"><g id="svgGroup" stroke-linecap="round" fill-rule="evenodd" font-size="9pt" stroke="#000" stroke-width="0.25mm" fill="none" style="stroke:#000;stroke-width:0.25mm;fill:none"><path d="M 0.205 0 L 0.125 4.316 L 0.065 8.59 L 0.024 12.824 L 0.002 17.017 L 0 21.169 L 0.017 25.281 L 0.053 29.351 L 0.109 33.381 L 0.184 37.369 L 0.279 41.317 L 0.392 45.224 L 0.526 49.09 L 0.678 52.915 L 0.85 56.7 L 1.041 60.443 L 1.252 64.146 L 1.481 67.807 L 1.731 71.428 L 1.999 75.008 L 2.287 78.547 L 2.595 82.046 L 2.921 85.503 L 3.267 88.92 L 3.633 92.295 L 4.017 95.63 L 4.421 98.924 L 4.845 102.177 L 5.288 105.389 L 5.75 108.56 L 6.231 111.691 L 6.732 114.78 L 7.252 117.829 L 7.792 120.837 L 8.351 123.804 L 8.929 126.73 L 9.526 129.615 L 10.143 132.459 L 10.78 135.263 L 11.435 138.025 L 12.11 140.747 L 12.805 143.428 L 13.518 146.068 L 14.251 148.667 L 15.004 151.225 L 15.776 153.742 L 16.567 156.219 L 17.377 158.655 L 18.207 161.049 L 19.056 163.403 L 19.925 165.716 L 20.812 167.988 L 21.72 170.22 L 22.646 172.41 L 23.592 174.56 L 24.557 176.668 L 25.542 178.736 L 26.546 180.763 L 27.569 182.749 L 28.612 184.694 L 29.674 186.598 L 30.756 188.462 L 31.856 190.284 L 32.976 192.066 L 34.116 193.807 L 35.275 195.507 L 36.453 197.166 L 37.65 198.784 L 38.867 200.362 L 40.103 201.898 L 41.359 203.394 L 42.634 204.849 L 43.928 206.262 L 45.242 207.635 L 46.575 208.968 L 47.927 210.259 L 49.299 211.509 L 50.69 212.719 L 52.1 213.887 L 53.53 215.015 L 54.979 216.102 L 56.447 217.148 L 57.935 218.153 L 59.442 219.118 L 60.969 220.041 L 62.515 220.924 L 64.08 221.765 L 65.664 222.566 L 67.268 223.326 L 68.892 224.045 L 70.534 224.723 L 72.196 225.361 L 73.877 225.957 L 75.578 226.513 L 77.298 227.028 L 79.038 227.502 L 80.796 227.935 L 82.574 228.327 L 84.372 228.678 L 86.189 228.988 L 88.025 229.258 L 89.402 228.988 L 90.764 228.678 L 92.112 228.327 L 93.446 227.935 L 94.765 227.502 L 96.07 227.028 L 97.36 226.513 L 98.635 225.957 L 99.896 225.361 L 101.143 224.723 L 102.374 224.045 L 103.592 223.326 L 104.795 222.566 L 105.983 221.765 L 107.157 220.924 L 108.317 220.041 L 109.461 219.118 L 110.592 218.153 L 111.708 217.148 L 112.809 216.102 L 113.896 215.015 L 114.968 213.887 L 116.026 212.719 L 117.069 211.509 L 118.098 210.259 L 119.112 208.968 L 120.112 207.635 L 121.097 206.262 L 122.068 204.849 L 123.024 203.394 L 123.966 201.898 L 124.893 200.362 L 125.805 198.784 L 126.704 197.166 L 127.587 195.507 L 128.456 193.807 L 129.311 192.066 L 130.151 190.284 L 130.977 188.462 L 131.788 186.598 L 132.584 184.694 L 133.366 182.749 L 134.134 180.763 L 134.887 178.736 L 135.625 176.668 L 136.349 174.56 L 137.059 172.41 L 137.753 170.22 L 138.434 167.988 L 139.1 165.716 L 139.751 163.403 L 140.388 161.049 L 141.01 158.655 L 141.618 156.219 L 142.212 153.742 L 142.79 151.225 L 143.355 148.667 L 143.904 146.068 L 144.44 143.428 L 144.961 140.747 L 145.467 138.025 L 145.958 135.263 L 146.436 132.459 L 146.898 129.615 L 147.347 126.73 L 147.78 123.804 L 148.199 120.837 L 148.604 117.829 L 148.994 114.78 L 149.37 111.691 L 149.731 108.56 L 150.078 105.389 L 150.41 102.177 L 150.727 98.924 L 151.03 95.63 L 151.319 92.295 L 151.593 88.92 L 151.852 85.503 L 152.097 82.046 L 152.328 78.547 L 152.544 75.008 L 152.745 71.428 L 152.932 67.807 L 153.105 64.146 L 153.262 60.443 L 153.406 56.7 L 153.535 52.915 L 153.649 49.09 L 153.749 45.224 L 153.834 41.317 L 153.905 37.369 L 153.961 33.381 L 154.003 29.351 L 154.03 25.281 L 154.043 21.169 L 154.041 17.017 L 154.025 12.824 L 153.994 8.59 L 153.949 4.316 L 153.889 0 L 0.205 0 Z" vector-effect="non-scaling-stroke"/><g id="captions"><text alignment-baseline="middle" text-anchor="middle" transform="rotate(0,79.512,165.716)" x="79.512" y="165.716">BULKHEAD, 1</text></g></g></svg>