<svg width="151.11" height="223.681" viewBox="0 0 151.11 223.681" xmlns="http://www.w3.org/2000/svg"><g id="svgGroup" stroke-linecap="round" fill-rule="evenodd" font-size="9pt" stroke="#000" stroke-width="0.25mm" fill="none" style="stroke:#000;stroke-width:0.25mm;fill:none"><path d="M 86.349 223.681 L 86.5 221.523 L 86.659 219.366 L 86.828 217.209 L 87.005 215.053 L 87.193 212.898 L 87.391 210.744 L 87.6 208.591 L 87.821 206.44 L 88.054 204.289 L 88.3 202.14 L 88.561 199.992 L 88.836 197.847 L 89.127 195.703 L 89.435 193.562 L 89.761 191.424 L 90.106 189.288 L 90.471 187.156 L 90.858 185.028 L 91.268 182.904 L 91.703 180.785 L 92.164 178.672 L 92.653 176.564 L 93.173 174.465 L 93.724 172.373 L 94.31 170.291 L 94.932 168.219 L 95.593 166.159 L 96.295 164.113 L 97.04 162.082 L 97.831 160.069 L 98.67 158.075 L 99.559 156.103 L 100.499 154.155 L 101.493 152.234 L 102.541 150.342 L 103.643 148.48 L 104.799 146.652 L 106.009 144.859 L 107.27 143.102 L 108.58 141.38 L 109.935 139.694 L 111.333 138.043 L 112.767 136.424 L 114.234 134.834 L 115.727 133.269 L 117.241 131.724 L 118.77 130.194 L 120.307 128.672 L 121.847 127.152 L 123.381 125.628 L 124.905 124.092 L 126.409 122.538 L 127.888 120.959 L 129.334 119.35 L 130.74 117.707 L 132.1 116.025 L 133.408 114.302 L 134.658 112.536 L 135.847 110.729 L 136.972 108.882 L 138.03 106.995 L 139.022 105.073 L 139.948 103.118 L 140.811 101.135 L 141.612 99.125 L 142.354 97.094 L 143.042 95.043 L 143.678 92.975 L 144.266 90.893 L 144.809 88.8 L 145.311 86.696 L 145.775 84.583 L 146.205 82.463 L 146.602 80.336 L 146.969 78.205 L 147.309 76.068 L 147.624 73.929 L 147.916 71.785 L 148.187 69.639 L 148.437 67.49 L 148.669 65.34 L 148.885 63.187 L 149.085 61.034 L 149.27 58.879 L 149.441 56.722 L 149.6 54.565 L 149.747 52.407 L 149.883 50.248 L 150.009 48.089 L 150.126 45.929 L 150.233 43.768 L 150.332 41.607 L 150.423 39.446 L 150.506 37.285 L 150.583 35.122 L 150.653 32.961 L 150.716 30.799 L 150.774 28.637 L 150.826 26.474 L 150.873 24.312 L 150.915 22.149 L 150.952 19.987 L 150.985 17.824 L 151.014 15.659 L 151.038 13.497 L 151.059 11.335 L 151.076 9.169 L 151.089 7.009 L 151.099 4.843 L 151.106 2.684 L 151.11 0.519 L 0 0 L 0.001 2.254 L 0.004 4.507 L 0.008 6.758 L 0.014 9.013 L 0.021 11.265 L 0.029 13.519 L 0.04 15.771 L 0.052 18.025 L 0.066 20.278 L 0.083 22.531 L 0.101 24.784 L 0.122 27.037 L 0.145 29.29 L 0.171 31.543 L 0.2 33.796 L 0.232 36.049 L 0.267 38.302 L 0.305 40.555 L 0.348 42.807 L 0.394 45.06 L 0.444 47.313 L 0.5 49.565 L 0.56 51.818 L 0.625 54.07 L 0.697 56.322 L 0.774 58.574 L 0.859 60.825 L 0.951 63.077 L 1.051 65.328 L 1.16 67.578 L 1.279 69.828 L 1.408 72.078 L 1.549 74.326 L 1.703 76.574 L 1.87 78.821 L 2.054 81.067 L 2.254 83.311 L 2.472 85.554 L 2.711 87.794 L 2.973 90.032 L 3.26 92.267 L 3.574 94.498 L 3.917 96.725 L 4.294 98.946 L 4.705 101.162 L 5.155 103.37 L 5.646 105.569 L 6.18 107.757 L 6.761 109.935 L 7.389 112.098 L 8.066 114.247 L 8.794 116.379 L 9.572 118.494 L 10.4 120.589 L 11.277 122.665 L 12.2 124.721 L 13.167 126.756 L 14.176 128.77 L 15.224 130.765 L 16.308 132.74 L 17.424 134.697 L 18.571 136.637 L 19.745 138.56 L 20.944 140.468 L 22.165 142.361 L 23.406 144.242 L 24.665 146.11 L 25.941 147.967 L 27.232 149.814 L 28.536 151.652 L 29.852 153.481 L 31.179 155.302 L 32.515 157.115 L 33.861 158.923 L 35.215 160.723 L 36.577 162.519 L 37.945 164.309 L 39.32 166.094 L 40.7 167.875 L 42.086 169.652 L 43.476 171.425 L 44.871 173.194 L 46.27 174.961 L 47.673 176.724 L 49.079 178.484 L 50.489 180.242 L 51.901 181.997 L 53.317 183.751 L 54.735 185.502 L 56.155 187.251 L 57.578 188.998 L 59.003 190.744 L 60.429 192.487 L 61.858 194.229 L 63.289 195.97 L 64.721 197.71 L 66.154 199.448 L 67.59 201.185 L 69.026 202.921 L 70.464 204.656 L 71.903 206.39 L 73.343 208.122 L 74.784 209.854 L 76.227 211.585 L 77.67 213.315 L 79.114 215.044 L 80.56 216.773 L 82.006 218.501 L 83.453 220.228 L 84.9 221.955 L 86.349 223.681 Z" vector-effect="non-scaling-stroke"/><g id="captions"><text alignment-baseline="middle" text-anchor="middle" transform="rotate(0,80.952,111.97)" x="80.952" y="111.97">BULKHEAD, 0</text></g></g></svg>