<svg width="170" height="224.491" viewBox="0 0 170 224.491" xmlns="http://www.w3.org/2000/svg"><g id="svgGroup" stroke-linecap="round" fill-rule="evenodd" font-size="9pt" stroke="#000" stroke-width="0.25mm" fill="none" style="stroke:#000;stroke-width:0.25mm;fill:none"><path d="M 97.142 224.491 L 98.428 222.733 L 99.693 220.959 L 100.944 219.176 L 102.185 217.385 L 103.416 215.587 L 104.638 213.784 L 105.853 211.976 L 107.061 210.163 L 108.261 208.345 L 109.455 206.523 L 110.643 204.696 L 111.824 202.866 L 112.999 201.032 L 114.169 199.193 L 115.332 197.352 L 116.489 195.506 L 117.641 193.657 L 118.787 191.804 L 119.927 189.947 L 121.06 188.087 L 122.189 186.223 L 123.311 184.356 L 124.427 182.485 L 125.537 180.611 L 126.641 178.733 L 127.739 176.851 L 128.83 174.965 L 129.915 173.076 L 130.993 171.183 L 132.065 169.286 L 133.129 167.386 L 134.187 165.481 L 135.238 163.573 L 136.281 161.66 L 137.316 159.743 L 138.344 157.822 L 139.363 155.897 L 140.374 153.968 L 141.377 152.033 L 142.37 150.095 L 143.355 148.151 L 144.33 146.203 L 145.294 144.25 L 146.249 142.292 L 147.193 140.328 L 148.125 138.359 L 149.046 136.385 L 149.955 134.405 L 150.851 132.419 L 151.734 130.428 L 152.603 128.43 L 153.458 126.426 L 154.297 124.416 L 155.121 122.399 L 155.928 120.376 L 156.717 118.345 L 157.489 116.308 L 158.241 114.263 L 158.974 112.212 L 159.686 110.153 L 160.376 108.087 L 161.044 106.013 L 161.688 103.932 L 162.308 101.843 L 162.903 99.748 L 163.472 97.645 L 164.015 95.535 L 164.53 93.418 L 165.018 91.295 L 165.478 89.166 L 165.91 87.031 L 166.314 84.89 L 166.69 82.744 L 167.038 80.594 L 167.36 78.439 L 167.656 76.281 L 167.926 74.119 L 168.172 71.954 L 168.395 69.787 L 168.596 67.618 L 168.777 65.447 L 168.939 63.275 L 169.083 61.101 L 169.211 58.926 L 169.324 56.751 L 169.423 54.574 L 169.51 52.398 L 169.587 50.22 L 169.653 48.043 L 169.71 45.865 L 169.76 43.687 L 169.802 41.509 L 169.838 39.331 L 169.869 37.153 L 169.895 34.974 L 169.916 32.796 L 169.934 30.617 L 169.949 28.439 L 169.961 26.26 L 169.971 24.082 L 169.979 21.903 L 169.985 19.725 L 169.99 17.546 L 169.993 15.368 L 169.996 13.189 L 169.997 11.011 L 169.998 8.832 L 169.999 6.654 L 169.999 4.475 L 170 2.297 L 170 0.118 L 0 0 L 0.011 2.265 L 0.037 4.531 L 0.079 6.796 L 0.135 9.06 L 0.208 11.325 L 0.296 13.588 L 0.399 15.852 L 0.519 18.114 L 0.654 20.375 L 0.805 22.636 L 0.972 24.895 L 1.155 27.153 L 1.354 29.409 L 1.57 31.665 L 1.802 33.918 L 2.05 36.17 L 2.314 38.42 L 2.596 40.668 L 2.893 42.914 L 3.207 45.157 L 3.538 47.398 L 3.886 49.637 L 4.25 51.873 L 4.631 54.106 L 5.029 56.336 L 5.444 58.563 L 5.875 60.787 L 6.324 63.008 L 6.789 65.225 L 7.271 67.439 L 7.77 69.648 L 8.287 71.854 L 8.82 74.056 L 9.37 76.254 L 9.937 78.447 L 10.521 80.636 L 11.122 82.82 L 11.74 85 L 12.374 87.174 L 13.026 89.344 L 13.694 91.509 L 14.38 93.668 L 15.082 95.822 L 15.8 97.97 L 16.536 100.113 L 17.288 102.25 L 18.057 104.381 L 18.842 106.506 L 19.644 108.625 L 20.462 110.737 L 21.296 112.843 L 22.147 114.943 L 23.014 117.036 L 23.897 119.122 L 24.796 121.202 L 25.711 123.274 L 26.641 125.34 L 27.588 127.398 L 28.55 129.449 L 29.528 131.492 L 30.521 133.528 L 31.53 135.557 L 32.554 137.578 L 33.593 139.591 L 34.647 141.596 L 35.716 143.593 L 36.8 145.583 L 37.898 147.564 L 39.011 149.537 L 40.139 151.502 L 41.28 153.459 L 42.436 155.407 L 43.606 157.347 L 44.79 159.278 L 45.988 161.201 L 47.2 163.116 L 48.425 165.021 L 49.663 166.918 L 50.915 168.807 L 52.179 170.686 L 53.457 172.557 L 54.748 174.419 L 56.051 176.272 L 57.367 178.116 L 58.695 179.951 L 60.036 181.777 L 61.389 183.594 L 62.753 185.402 L 64.13 187.202 L 65.518 188.992 L 66.918 190.773 L 68.33 192.545 L 69.753 194.308 L 71.187 196.062 L 72.632 197.806 L 74.087 199.542 L 75.554 201.269 L 77.031 202.986 L 78.519 204.694 L 80.017 206.394 L 81.526 208.084 L 83.044 209.765 L 84.572 211.437 L 86.111 213.101 L 87.659 214.755 L 89.216 216.4 L 90.783 218.036 L 92.359 219.663 L 93.945 221.281 L 95.539 222.891 L 97.142 224.491 Z" vector-effect="non-scaling-stroke"/><g id="captions"><text alignment-baseline="middle" text-anchor="middle" transform="rotate(0,91.071,112.275)" x="91.071" y="112.275">BULKHEAD, 0</text></g></g></svg>