<svg width="786.445" height="1113.903" viewBox="0 0 786.445 1113.903" xmlns="http://www.w3.org/2000/svg"><g id="svgGroup" stroke-linecap="round" fill-rule="evenodd" font-size="9pt" stroke="#000" stroke-width="0.25mm" fill="none" style="stroke:#000;stroke-width:0.25mm;fill:none"><path d="M 5.947 0 L 5.381 11.043 L 4.844 22.03 L 4.335 32.963 L 3.854 43.84 L 3.402 54.663 L 2.978 65.43 L 2.582 76.143 L 2.214 86.8 L 1.874 97.403 L 1.563 107.95 L 1.28 118.443 L 1.025 128.88 L 0.798 139.263 L 0.599 149.59 L 0.429 159.863 L 0.287 170.08 L 0.173 180.243 L 0.088 190.35 L 0.03 200.403 L 0.001 210.4 L 0 220.343 L 0.027 230.23 L 0.083 240.063 L 0.166 249.84 L 0.278 259.563 L 0.418 269.23 L 0.587 278.843 L 0.783 288.4 L 1.008 297.903 L 1.261 307.35 L 1.542 316.743 L 1.852 326.08 L 2.19 335.362 L 2.555 344.59 L 2.949 353.763 L 3.372 362.88 L 3.822 371.942 L 4.301 380.95 L 4.808 389.903 L 5.343 398.8 L 5.907 407.643 L 6.498 416.43 L 7.118 425.162 L 7.766 433.84 L 8.443 442.463 L 9.147 451.03 L 9.88 459.542 L 10.641 468 L 11.43 476.403 L 12.247 484.75 L 13.093 493.043 L 13.967 501.28 L 14.869 509.463 L 15.799 517.59 L 16.758 525.663 L 17.744 533.68 L 18.759 541.643 L 19.803 549.55 L 20.874 557.403 L 21.974 565.2 L 23.101 572.943 L 24.257 580.63 L 25.442 588.263 L 26.654 595.84 L 27.895 603.363 L 29.164 610.83 L 30.461 618.243 L 31.786 625.6 L 33.14 632.903 L 34.522 640.15 L 35.932 647.343 L 37.37 654.48 L 38.836 661.563 L 40.331 668.59 L 41.854 675.563 L 43.405 682.48 L 44.984 689.343 L 46.592 696.15 L 48.228 702.903 L 49.892 709.6 L 51.584 716.243 L 53.304 722.83 L 55.053 729.363 L 56.83 735.84 L 58.635 742.263 L 60.468 748.63 L 62.33 754.943 L 64.22 761.2 L 66.138 767.403 L 68.084 773.55 L 70.058 779.643 L 72.061 785.68 L 74.092 791.663 L 76.151 797.59 L 78.238 803.463 L 80.354 809.28 L 82.497 815.043 L 84.669 820.75 L 86.869 826.403 L 89.098 832 L 91.355 837.543 L 93.639 843.03 L 95.952 848.463 L 98.294 853.84 L 100.663 859.163 L 103.061 864.43 L 105.487 869.643 L 107.941 874.8 L 110.423 879.903 L 112.934 884.95 L 115.473 889.943 L 118.04 894.88 L 120.635 899.763 L 123.259 904.59 L 125.91 909.363 L 128.59 914.08 L 131.298 918.743 L 134.035 923.35 L 136.799 927.903 L 139.592 932.4 L 142.413 936.843 L 145.262 941.23 L 148.14 945.563 L 151.045 949.84 L 153.979 954.063 L 156.941 958.23 L 159.932 962.343 L 162.95 966.4 L 165.997 970.403 L 169.072 974.35 L 172.175 978.243 L 175.307 982.08 L 178.466 985.863 L 181.654 989.59 L 184.87 993.262 L 188.115 996.88 L 191.387 1000.443 L 194.688 1003.95 L 198.017 1007.403 L 201.374 1010.8 L 204.759 1014.143 L 208.173 1017.43 L 211.615 1020.663 L 215.085 1023.84 L 218.583 1026.962 L 222.11 1030.03 L 225.664 1033.043 L 229.247 1036 L 232.859 1038.903 L 236.498 1041.75 L 240.166 1044.542 L 243.861 1047.28 L 247.585 1049.963 L 251.338 1052.59 L 255.118 1055.163 L 258.927 1057.68 L 262.764 1060.143 L 266.629 1062.55 L 270.522 1064.903 L 274.444 1067.2 L 278.394 1069.443 L 282.372 1071.63 L 286.378 1073.762 L 290.412 1075.84 L 294.475 1077.863 L 298.566 1079.83 L 302.685 1081.743 L 306.833 1083.6 L 311.008 1085.403 L 315.212 1087.15 L 319.444 1088.842 L 323.704 1090.48 L 327.993 1092.062 L 332.309 1093.59 L 336.654 1095.063 L 341.027 1096.48 L 345.429 1097.843 L 349.858 1099.15 L 354.316 1100.403 L 358.802 1101.6 L 363.316 1102.742 L 367.859 1103.83 L 372.429 1104.863 L 377.028 1105.84 L 381.655 1106.763 L 386.31 1107.63 L 390.994 1108.443 L 395.706 1109.2 L 400.446 1109.903 L 405.214 1110.55 L 410.01 1111.143 L 414.835 1111.68 L 419.688 1112.163 L 424.569 1112.59 L 429.478 1112.963 L 434.415 1113.28 L 439.381 1113.543 L 444.375 1113.75 L 449.397 1113.903 L 453.164 1113.75 L 456.909 1113.543 L 460.634 1113.28 L 464.337 1112.963 L 468.019 1112.59 L 471.68 1112.163 L 475.319 1111.68 L 478.938 1111.143 L 482.535 1110.55 L 486.111 1109.903 L 489.666 1109.2 L 493.2 1108.443 L 496.713 1107.63 L 500.204 1106.763 L 503.674 1105.84 L 507.123 1104.863 L 510.551 1103.83 L 513.958 1102.742 L 517.344 1101.6 L 520.708 1100.403 L 524.052 1099.15 L 527.374 1097.843 L 530.675 1096.48 L 533.955 1095.063 L 537.213 1093.59 L 540.451 1092.062 L 543.667 1090.48 L 546.862 1088.842 L 550.036 1087.15 L 553.189 1085.403 L 556.321 1083.6 L 559.431 1081.743 L 562.521 1079.83 L 565.589 1077.863 L 568.636 1075.84 L 571.662 1073.762 L 574.666 1071.63 L 577.65 1069.443 L 580.612 1067.2 L 583.554 1064.903 L 586.474 1062.55 L 589.372 1060.143 L 592.25 1057.68 L 595.107 1055.163 L 597.942 1052.59 L 600.756 1049.963 L 603.549 1047.28 L 606.321 1044.542 L 609.072 1041.75 L 611.801 1038.903 L 614.51 1036 L 617.197 1033.043 L 619.863 1030.03 L 622.508 1026.962 L 625.132 1023.84 L 627.734 1020.663 L 630.315 1017.43 L 632.876 1014.143 L 635.415 1010.8 L 637.933 1007.403 L 640.429 1003.95 L 642.905 1000.443 L 645.359 996.88 L 647.793 993.262 L 650.205 989.59 L 652.596 985.863 L 654.965 982.08 L 657.314 978.243 L 659.641 974.35 L 661.948 970.403 L 664.233 966.4 L 666.497 962.343 L 668.739 958.23 L 670.961 954.063 L 673.161 949.84 L 675.341 945.563 L 677.499 941.23 L 679.636 936.843 L 681.751 932.4 L 683.846 927.903 L 685.919 923.35 L 687.972 918.743 L 690.003 914.08 L 692.013 909.363 L 694.001 904.59 L 695.969 899.763 L 697.915 894.88 L 699.841 889.943 L 701.745 884.95 L 703.628 879.903 L 705.49 874.8 L 707.33 869.643 L 709.15 864.43 L 710.948 859.163 L 712.725 853.84 L 714.481 848.463 L 716.216 843.03 L 717.929 837.543 L 719.622 832 L 721.293 826.403 L 722.943 820.75 L 724.572 815.043 L 726.18 809.28 L 727.767 803.463 L 729.332 797.59 L 730.876 791.663 L 732.4 785.68 L 733.902 779.643 L 735.382 773.55 L 736.842 767.403 L 738.281 761.2 L 739.698 754.943 L 741.094 748.63 L 742.469 742.263 L 743.823 735.84 L 745.155 729.363 L 746.467 722.83 L 747.757 716.243 L 749.026 709.6 L 750.274 702.903 L 751.501 696.15 L 752.707 689.343 L 753.891 682.48 L 755.055 675.563 L 756.197 668.59 L 757.318 661.563 L 758.418 654.48 L 759.497 647.343 L 760.554 640.15 L 761.59 632.903 L 762.606 625.6 L 763.6 618.243 L 764.572 610.83 L 765.524 603.363 L 766.455 595.84 L 767.364 588.263 L 768.252 580.63 L 769.119 572.943 L 769.965 565.2 L 770.79 557.403 L 771.593 549.55 L 772.376 541.643 L 773.137 533.68 L 773.877 525.663 L 774.596 517.59 L 775.294 509.463 L 775.97 501.28 L 776.626 493.043 L 777.26 484.75 L 777.873 476.403 L 778.465 468 L 779.035 459.542 L 779.585 451.03 L 780.113 442.463 L 780.621 433.84 L 781.107 425.162 L 781.572 416.43 L 782.015 407.643 L 782.438 398.8 L 782.839 389.903 L 783.219 380.95 L 783.579 371.942 L 783.916 362.88 L 784.233 353.763 L 784.529 344.59 L 784.803 335.362 L 785.056 326.08 L 785.289 316.743 L 785.499 307.35 L 785.689 297.903 L 785.858 288.4 L 786.005 278.843 L 786.131 269.23 L 786.237 259.563 L 786.32 249.84 L 786.383 240.063 L 786.425 230.23 L 786.445 220.343 L 786.445 210.4 L 786.423 200.403 L 786.38 190.35 L 786.315 180.243 L 786.23 170.08 L 786.123 159.863 L 785.996 149.59 L 785.847 139.263 L 785.677 128.88 L 785.486 118.443 L 785.273 107.95 L 785.04 97.403 L 784.785 86.8 L 784.509 76.143 L 784.212 65.43 L 783.894 54.663 L 783.554 43.84 L 783.194 32.963 L 782.812 22.03 L 782.409 11.043 L 781.985 0 L 5.947 0 Z" vector-effect="non-scaling-stroke"/></g></svg>