<svg width="161.904" height="224.001" viewBox="0 0 161.904 224.001" xmlns="http://www.w3.org/2000/svg"><g id="svgGroup" stroke-linecap="round" fill-rule="evenodd" font-size="9pt" stroke="#000" stroke-width="0.25mm" fill="none" style="stroke:#000;stroke-width:0.25mm;fill:none"><path d="M 92.517 224.001 L 92.709 221.84 L 92.912 219.681 L 93.129 217.523 L 93.358 215.367 L 93.6 213.212 L 93.856 211.058 L 94.127 208.906 L 94.412 206.756 L 94.712 204.608 L 95.029 202.463 L 95.362 200.32 L 95.712 198.179 L 96.079 196.042 L 96.465 193.908 L 96.871 191.778 L 97.296 189.651 L 97.741 187.528 L 98.208 185.41 L 98.697 183.297 L 99.208 181.19 L 99.744 179.088 L 100.304 176.993 L 100.889 174.905 L 101.501 172.824 L 102.14 170.751 L 102.807 168.688 L 103.504 166.634 L 104.23 164.591 L 104.988 162.558 L 105.777 160.538 L 106.598 158.531 L 107.454 156.538 L 108.343 154.56 L 109.266 152.598 L 110.225 150.653 L 111.22 148.725 L 112.25 146.817 L 113.316 144.928 L 114.417 143.06 L 115.554 141.213 L 116.726 139.388 L 117.931 137.585 L 119.169 135.804 L 120.439 134.046 L 121.738 132.309 L 123.064 130.593 L 124.416 128.897 L 125.79 127.22 L 127.184 125.558 L 128.594 123.91 L 130.017 122.273 L 131.448 120.644 L 132.884 119.018 L 134.319 117.393 L 135.749 115.762 L 137.169 114.122 L 138.572 112.469 L 139.953 110.797 L 141.307 109.102 L 142.627 107.381 L 143.907 105.631 L 145.143 103.849 L 146.329 102.033 L 147.461 100.184 L 148.537 98.301 L 149.554 96.385 L 150.511 94.439 L 151.408 92.464 L 152.245 90.464 L 153.026 88.44 L 153.75 86.396 L 154.422 84.334 L 155.044 82.257 L 155.62 80.166 L 156.152 78.063 L 156.643 75.951 L 157.096 73.83 L 157.515 71.702 L 157.901 69.568 L 158.258 67.429 L 158.587 65.285 L 158.891 63.138 L 159.171 60.987 L 159.43 58.834 L 159.668 56.678 L 159.888 54.52 L 160.091 52.361 L 160.278 50.201 L 160.45 48.039 L 160.608 45.876 L 160.753 43.712 L 160.886 41.548 L 161.008 39.382 L 161.12 37.216 L 161.222 35.05 L 161.314 32.883 L 161.398 30.716 L 161.474 28.549 L 161.542 26.381 L 161.604 24.213 L 161.658 22.045 L 161.706 19.877 L 161.748 17.708 L 161.785 15.54 L 161.816 13.372 L 161.842 11.203 L 161.863 9.035 L 161.879 6.866 L 161.892 4.697 L 161.9 2.528 L 161.904 0.36 L 0 0 L 0.002 2.267 L 0.007 4.533 L 0.014 6.799 L 0.024 9.067 L 0.037 11.333 L 0.053 13.6 L 0.072 15.867 L 0.094 18.134 L 0.12 20.4 L 0.15 22.667 L 0.184 24.933 L 0.223 27.199 L 0.266 29.466 L 0.314 31.732 L 0.368 33.998 L 0.427 36.264 L 0.492 38.53 L 0.564 40.796 L 0.643 43.061 L 0.73 45.326 L 0.825 47.591 L 0.928 49.855 L 1.041 52.119 L 1.164 54.383 L 1.298 56.645 L 1.444 58.907 L 1.602 61.169 L 1.775 63.429 L 1.962 65.688 L 2.166 67.945 L 2.387 70.201 L 2.627 72.455 L 2.887 74.707 L 3.17 76.956 L 3.477 79.202 L 3.809 81.444 L 4.168 83.682 L 4.557 85.916 L 4.978 88.143 L 5.431 90.364 L 5.92 92.577 L 6.446 94.782 L 7.01 96.978 L 7.614 99.162 L 8.259 101.336 L 8.945 103.496 L 9.673 105.643 L 10.442 107.775 L 11.253 109.891 L 12.105 111.992 L 12.995 114.077 L 13.924 116.144 L 14.889 118.195 L 15.888 120.23 L 16.92 122.248 L 17.982 124.251 L 19.073 126.238 L 20.19 128.21 L 21.331 130.169 L 22.495 132.114 L 23.68 134.046 L 24.884 135.967 L 26.106 137.876 L 27.344 139.775 L 28.597 141.664 L 29.864 143.544 L 31.143 145.415 L 32.434 147.278 L 33.736 149.134 L 35.047 150.983 L 36.368 152.825 L 37.697 154.661 L 39.033 156.492 L 40.377 158.318 L 41.728 160.138 L 43.084 161.954 L 44.447 163.766 L 45.814 165.573 L 47.187 167.377 L 48.564 169.178 L 49.946 170.975 L 51.331 172.769 L 52.72 174.56 L 54.113 176.349 L 55.509 178.134 L 56.908 179.918 L 58.31 181.699 L 59.715 183.478 L 61.122 185.255 L 62.532 187.03 L 63.944 188.804 L 65.358 190.575 L 66.775 192.345 L 68.193 194.113 L 69.613 195.88 L 71.034 197.646 L 72.458 199.41 L 73.882 201.173 L 75.309 202.935 L 76.736 204.695 L 78.165 206.455 L 79.596 208.213 L 81.027 209.971 L 82.46 211.728 L 83.894 213.483 L 85.328 215.238 L 86.764 216.992 L 88.201 218.745 L 89.638 220.498 L 91.077 222.25 L 92.517 224.001 Z" vector-effect="non-scaling-stroke"/><g id="captions"><text alignment-baseline="middle" text-anchor="middle" transform="rotate(0,86.734,112.091)" x="86.734" y="112.091">BULKHEAD, 0</text></g></g></svg>