<svg width="167.849" height="235.803" viewBox="0 0 167.849 235.803" xmlns="http://www.w3.org/2000/svg"><g id="svgGroup" stroke-linecap="round" fill-rule="evenodd" font-size="9pt" stroke="#000" stroke-width="0.25mm" fill="none" style="stroke:#000;stroke-width:0.25mm;fill:none"><path d="M 95.908 235.803 L 96.239 233.583 L 96.581 231.364 L 96.934 229.146 L 97.298 226.931 L 97.673 224.717 L 98.06 222.506 L 98.46 220.296 L 98.871 218.089 L 99.296 215.885 L 99.734 213.683 L 100.186 211.483 L 100.652 209.287 L 101.132 207.094 L 101.628 204.904 L 102.139 202.718 L 102.666 200.535 L 103.209 198.357 L 103.769 196.183 L 104.347 194.013 L 104.943 191.848 L 105.557 189.689 L 106.19 187.535 L 106.843 185.387 L 107.516 183.245 L 108.209 181.109 L 108.924 178.981 L 109.661 176.86 L 110.42 174.747 L 111.201 172.642 L 112.007 170.547 L 112.835 168.46 L 113.688 166.383 L 114.566 164.316 L 115.468 162.261 L 116.395 160.216 L 117.347 158.182 L 118.324 156.161 L 119.326 154.152 L 120.353 152.155 L 121.403 150.171 L 122.477 148.199 L 123.574 146.24 L 124.692 144.293 L 125.83 142.358 L 126.986 140.433 L 128.159 138.519 L 129.347 136.613 L 130.546 134.715 L 131.755 132.824 L 132.971 130.936 L 134.19 129.05 L 135.409 127.165 L 136.624 125.277 L 137.832 123.385 L 139.03 121.486 L 140.213 119.578 L 141.378 117.658 L 142.521 115.726 L 143.64 113.78 L 144.732 111.818 L 145.793 109.839 L 146.822 107.844 L 147.817 105.831 L 148.777 103.801 L 149.7 101.755 L 150.588 99.693 L 151.439 97.615 L 152.254 95.523 L 153.033 93.417 L 153.778 91.299 L 154.49 89.17 L 155.169 87.03 L 155.817 84.881 L 156.436 82.722 L 157.026 80.556 L 157.589 78.383 L 158.127 76.203 L 158.641 74.017 L 159.131 71.827 L 159.6 69.631 L 160.049 67.431 L 160.478 65.227 L 160.889 63.02 L 161.283 60.809 L 161.661 58.597 L 162.023 56.381 L 162.37 54.162 L 162.704 51.942 L 163.025 49.72 L 163.334 47.497 L 163.631 45.271 L 163.917 43.044 L 164.192 40.816 L 164.458 38.587 L 164.714 36.356 L 164.962 34.125 L 165.201 31.892 L 165.431 29.659 L 165.655 27.425 L 165.871 25.19 L 166.079 22.954 L 166.282 20.719 L 166.478 18.483 L 166.668 16.245 L 166.852 14.008 L 167.031 11.77 L 167.204 9.531 L 167.372 7.291 L 167.536 5.053 L 167.695 2.814 L 167.849 0.574 L 0 0 L 0.219 2.325 L 0.443 4.65 L 0.671 6.974 L 0.905 9.299 L 1.143 11.622 L 1.387 13.944 L 1.637 16.267 L 1.892 18.588 L 2.154 20.909 L 2.422 23.23 L 2.696 25.549 L 2.977 27.868 L 3.265 30.185 L 3.561 32.502 L 3.865 34.818 L 4.176 37.133 L 4.496 39.447 L 4.825 41.759 L 5.162 44.07 L 5.509 46.38 L 5.866 48.688 L 6.234 50.995 L 6.612 53.299 L 7 55.602 L 7.401 57.904 L 7.813 60.202 L 8.238 62.499 L 8.676 64.793 L 9.127 67.085 L 9.592 69.374 L 10.071 71.66 L 10.564 73.943 L 11.073 76.222 L 11.598 78.498 L 12.139 80.77 L 12.696 83.039 L 13.271 85.302 L 13.862 87.562 L 14.472 89.817 L 15.1 92.066 L 15.746 94.311 L 16.411 96.55 L 17.095 98.783 L 17.799 101.01 L 18.522 103.231 L 19.264 105.445 L 20.026 107.653 L 20.809 109.854 L 21.611 112.048 L 22.432 114.234 L 23.273 116.413 L 24.134 118.584 L 25.014 120.747 L 25.913 122.903 L 26.831 125.051 L 27.768 127.19 L 28.722 129.322 L 29.695 131.446 L 30.684 133.561 L 31.691 135.669 L 32.714 137.769 L 33.753 139.86 L 34.808 141.944 L 35.877 144.021 L 36.961 146.089 L 38.06 148.151 L 39.172 150.205 L 40.297 152.252 L 41.434 154.292 L 42.584 156.325 L 43.745 158.351 L 44.918 160.371 L 46.101 162.385 L 47.294 164.392 L 48.498 166.394 L 49.711 168.39 L 50.933 170.381 L 52.164 172.366 L 53.403 174.345 L 54.65 176.32 L 55.905 178.29 L 57.167 180.256 L 58.436 182.216 L 59.712 184.173 L 60.994 186.125 L 62.282 188.073 L 63.577 190.017 L 64.877 191.958 L 66.182 193.894 L 67.493 195.828 L 68.808 197.758 L 70.129 199.684 L 71.454 201.608 L 72.783 203.528 L 74.117 205.446 L 75.454 207.36 L 76.796 209.272 L 78.141 211.182 L 79.489 213.089 L 80.842 214.993 L 82.197 216.895 L 83.556 218.795 L 84.917 220.693 L 86.282 222.588 L 87.65 224.482 L 89.02 226.373 L 90.393 228.263 L 91.768 230.15 L 93.146 232.036 L 94.526 233.921 L 95.908 235.803 Z" vector-effect="non-scaling-stroke"/><g id="captions"><text alignment-baseline="middle" text-anchor="middle" transform="rotate(0,89.916,118.045)" x="89.916" y="118.045">BULKHEAD, 2</text></g></g></svg>