<svg width="128.502" height="234.356" viewBox="0 0 128.502 234.356" xmlns="http://www.w3.org/2000/svg"><g id="svgGroup" stroke-linecap="round" fill-rule="evenodd" font-size="9pt" stroke="#000" stroke-width="0.25mm" fill="none" style="stroke:#000;stroke-width:0.25mm;fill:none"><path d="M 128.502 0 L 128.273 3.753 L 128.034 7.477 L 127.784 11.173 L 127.524 14.841 L 127.254 18.48 L 126.974 22.09 L 126.684 25.672 L 126.383 29.226 L 126.072 32.751 L 125.751 36.248 L 125.42 39.716 L 125.079 43.155 L 124.727 46.567 L 124.365 49.949 L 123.993 53.304 L 123.611 56.63 L 123.219 59.927 L 122.816 63.196 L 122.403 66.436 L 121.98 69.648 L 121.547 72.832 L 121.103 75.987 L 120.65 79.113 L 120.186 82.211 L 119.712 85.281 L 119.228 88.322 L 118.733 91.334 L 118.228 94.319 L 117.714 97.274 L 117.188 100.201 L 116.653 103.1 L 116.108 105.971 L 115.552 108.812 L 114.986 111.626 L 114.41 114.411 L 113.824 117.167 L 113.227 119.895 L 112.62 122.594 L 112.003 125.265 L 111.376 127.908 L 110.739 130.522 L 110.091 133.107 L 109.434 135.664 L 108.766 138.193 L 108.087 140.693 L 107.399 143.165 L 106.7 145.608 L 105.992 148.023 L 105.273 150.409 L 104.543 152.767 L 103.804 155.096 L 103.054 157.397 L 102.295 159.669 L 101.525 161.913 L 100.744 164.129 L 99.954 166.316 L 99.153 168.474 L 98.343 170.604 L 97.521 172.706 L 96.69 174.779 L 95.849 176.824 L 94.997 178.84 L 94.135 180.827 L 93.263 182.787 L 92.381 184.717 L 91.488 186.62 L 90.586 188.493 L 89.673 190.339 L 88.75 192.156 L 87.816 193.944 L 86.873 195.704 L 85.919 197.435 L 84.955 199.138 L 83.981 200.813 L 82.997 202.459 L 82.002 204.076 L 80.998 205.665 L 79.983 207.226 L 78.958 208.758 L 77.922 210.262 L 76.877 211.737 L 75.821 213.184 L 74.755 214.602 L 73.679 215.992 L 72.592 217.353 L 71.496 218.686 L 70.389 219.99 L 69.272 221.266 L 68.145 222.514 L 67.008 223.732 L 65.86 224.923 L 64.702 226.085 L 63.534 227.219 L 62.356 228.324 L 61.168 229.4 L 59.969 230.448 L 58.76 231.468 L 57.541 232.459 L 56.312 233.422 L 55.072 234.356 L 54.143 233.422 L 53.221 232.459 L 52.307 231.468 L 51.4 230.448 L 50.501 229.4 L 49.61 228.324 L 48.726 227.219 L 47.85 226.085 L 46.982 224.923 L 46.121 223.732 L 45.268 222.514 L 44.423 221.266 L 43.585 219.99 L 42.755 218.686 L 41.932 217.353 L 41.117 215.992 L 40.31 214.602 L 39.511 213.184 L 38.719 211.737 L 37.935 210.262 L 37.158 208.758 L 36.39 207.226 L 35.628 205.665 L 34.875 204.076 L 34.129 202.459 L 33.391 200.813 L 32.66 199.138 L 31.937 197.435 L 31.222 195.704 L 30.514 193.944 L 29.814 192.156 L 29.122 190.339 L 28.437 188.493 L 27.76 186.62 L 27.091 184.717 L 26.429 182.787 L 25.775 180.827 L 25.129 178.84 L 24.49 176.824 L 23.859 174.779 L 23.236 172.706 L 22.62 170.604 L 22.012 168.474 L 21.411 166.316 L 20.818 164.129 L 20.233 161.913 L 19.656 159.669 L 19.086 157.397 L 18.524 155.096 L 17.969 152.767 L 17.422 150.409 L 16.883 148.023 L 16.351 145.608 L 15.827 143.165 L 15.311 140.693 L 14.802 138.193 L 14.301 135.664 L 13.808 133.107 L 13.322 130.522 L 12.844 127.908 L 12.374 125.265 L 11.911 122.594 L 11.456 119.895 L 11.009 117.167 L 10.569 114.411 L 10.137 111.626 L 9.713 108.812 L 9.296 105.971 L 8.887 103.1 L 8.485 100.201 L 8.091 97.274 L 7.705 94.319 L 7.327 91.334 L 6.956 88.322 L 6.593 85.281 L 6.237 82.211 L 5.889 79.113 L 5.549 75.987 L 5.216 72.832 L 4.891 69.648 L 4.574 66.436 L 4.265 63.196 L 3.963 59.927 L 3.668 56.63 L 3.382 53.304 L 3.103 49.949 L 2.831 46.567 L 2.568 43.155 L 2.311 39.716 L 2.063 36.248 L 1.822 32.751 L 1.589 29.226 L 1.364 25.672 L 1.146 22.09 L 0.936 18.48 L 0.733 14.841 L 0.539 11.173 L 0.351 7.477 L 0.172 3.753 L 0 0 L 128.502 0 Z" vector-effect="non-scaling-stroke"/><g id="captions"><text alignment-baseline="middle" text-anchor="middle" transform="rotate(0,61.256,152.767)" x="61.256" y="152.767">BULKHEAD, 2</text></g></g></svg>