<svg width="641.519" height="1162.381" viewBox="0 0 641.519 1162.381" xmlns="http://www.w3.org/2000/svg"><g id="svgGroup" stroke-linecap="round" fill-rule="evenodd" font-size="9pt" stroke="#000" stroke-width="0.25mm" fill="none" style="stroke:#000;stroke-width:0.25mm;fill:none"><path d="M 0 0 L 0.579 9.364 L 1.171 18.693 L 1.776 27.986 L 2.394 37.244 L 3.024 46.466 L 3.667 55.653 L 4.323 64.803 L 4.991 73.919 L 5.673 82.998 L 6.367 92.043 L 7.073 101.051 L 7.793 110.024 L 8.525 118.961 L 9.27 127.863 L 10.028 136.729 L 10.799 145.56 L 11.582 154.355 L 12.378 163.114 L 13.187 171.838 L 14.009 180.526 L 14.843 189.179 L 15.69 197.796 L 16.55 206.377 L 17.423 214.923 L 18.308 223.433 L 19.206 231.908 L 20.117 240.347 L 21.041 248.751 L 21.978 257.119 L 22.927 265.451 L 23.889 273.748 L 24.863 282.009 L 25.851 290.234 L 26.851 298.424 L 27.864 306.579 L 28.89 314.698 L 29.928 322.781 L 30.979 330.828 L 32.043 338.841 L 33.12 346.817 L 34.21 354.758 L 35.312 362.663 L 36.427 370.533 L 37.555 378.367 L 38.695 386.165 L 39.849 393.928 L 41.015 401.656 L 42.193 409.347 L 43.385 417.003 L 44.589 424.624 L 45.806 432.209 L 47.036 439.758 L 48.279 447.272 L 49.534 454.75 L 50.802 462.193 L 52.083 469.6 L 53.377 476.971 L 54.683 484.307 L 56.002 491.607 L 57.334 498.872 L 58.679 506.101 L 60.036 513.295 L 61.406 520.453 L 62.789 527.575 L 64.185 534.662 L 65.593 541.713 L 67.014 548.728 L 68.448 555.708 L 69.895 562.653 L 71.354 569.561 L 72.827 576.435 L 74.311 583.272 L 75.809 590.074 L 77.32 596.841 L 78.843 603.571 L 80.379 610.267 L 81.928 616.926 L 83.489 623.55 L 85.063 630.139 L 86.65 636.692 L 88.25 643.209 L 89.863 649.691 L 91.488 656.137 L 93.126 662.547 L 94.777 668.922 L 96.44 675.262 L 98.116 681.565 L 99.806 687.834 L 101.507 694.066 L 103.222 700.263 L 104.949 706.425 L 106.689 712.55 L 108.442 718.641 L 110.208 724.695 L 111.986 730.714 L 113.777 736.698 L 115.581 742.646 L 117.398 748.558 L 119.227 754.435 L 121.069 760.276 L 122.924 766.081 L 124.792 771.851 L 126.672 777.586 L 128.565 783.284 L 130.471 788.947 L 132.39 794.575 L 134.321 800.167 L 136.265 805.723 L 138.222 811.244 L 140.192 816.729 L 142.174 822.179 L 144.17 827.593 L 146.178 832.972 L 148.198 838.314 L 150.232 843.622 L 152.278 848.893 L 154.337 854.129 L 156.409 859.33 L 158.493 864.495 L 160.59 869.624 L 162.7 874.718 L 164.823 879.776 L 166.959 884.799 L 169.107 889.786 L 171.268 894.737 L 173.442 899.653 L 175.628 904.533 L 177.828 909.378 L 180.04 914.187 L 182.264 918.96 L 184.502 923.698 L 186.752 928.4 L 189.015 933.067 L 191.291 937.698 L 193.58 942.294 L 195.881 946.853 L 198.195 951.378 L 200.522 955.866 L 202.862 960.32 L 205.214 964.737 L 207.579 969.119 L 209.957 973.466 L 212.348 977.776 L 214.751 982.052 L 217.167 986.291 L 219.596 990.495 L 222.038 994.664 L 224.492 998.796 L 226.96 1002.894 L 229.439 1006.955 L 231.932 1010.981 L 234.438 1014.972 L 236.956 1018.927 L 239.487 1022.846 L 242.03 1026.73 L 244.587 1030.578 L 247.156 1034.391 L 249.738 1038.167 L 252.333 1041.909 L 254.94 1045.615 L 257.561 1049.285 L 260.194 1052.919 L 262.839 1056.518 L 265.498 1060.082 L 268.169 1063.61 L 270.853 1067.102 L 273.55 1070.559 L 276.26 1073.98 L 278.982 1077.365 L 281.717 1080.715 L 284.465 1084.029 L 287.225 1087.308 L 289.999 1090.551 L 292.785 1093.759 L 295.583 1096.931 L 298.395 1100.067 L 301.219 1103.168 L 304.057 1106.233 L 306.906 1109.262 L 309.769 1112.256 L 312.644 1115.215 L 315.533 1118.138 L 318.433 1121.025 L 321.347 1123.877 L 324.274 1126.693 L 327.213 1129.473 L 330.165 1132.218 L 333.129 1134.927 L 336.107 1137.601 L 339.097 1140.239 L 342.1 1142.842 L 345.115 1145.408 L 348.144 1147.94 L 351.185 1150.436 L 354.239 1152.896 L 357.306 1155.32 L 360.385 1157.709 L 363.477 1160.063 L 366.583 1162.381 L 368.911 1160.063 L 371.23 1157.709 L 373.54 1155.32 L 375.84 1152.896 L 378.131 1150.436 L 380.411 1147.94 L 382.683 1145.408 L 384.945 1142.842 L 387.197 1140.239 L 389.439 1137.601 L 391.672 1134.927 L 393.896 1132.218 L 396.11 1129.473 L 398.314 1126.693 L 400.509 1123.877 L 402.694 1121.025 L 404.87 1118.138 L 407.036 1115.215 L 409.193 1112.256 L 411.34 1109.262 L 413.477 1106.233 L 415.605 1103.168 L 417.723 1100.067 L 419.832 1096.931 L 421.931 1093.759 L 424.02 1090.551 L 426.1 1087.308 L 428.171 1084.029 L 430.232 1080.715 L 432.283 1077.365 L 434.325 1073.98 L 436.357 1070.559 L 438.38 1067.102 L 440.393 1063.61 L 442.396 1060.082 L 444.39 1056.518 L 446.374 1052.919 L 448.349 1049.285 L 450.314 1045.615 L 452.27 1041.909 L 454.216 1038.167 L 456.152 1034.391 L 458.079 1030.578 L 459.997 1026.73 L 461.904 1022.846 L 463.803 1018.927 L 465.691 1014.972 L 467.57 1010.981 L 469.44 1006.955 L 471.3 1002.894 L 473.15 998.796 L 474.991 994.664 L 476.822 990.495 L 478.644 986.291 L 480.456 982.052 L 482.259 977.776 L 484.052 973.466 L 485.835 969.119 L 487.609 964.737 L 489.373 960.32 L 491.128 955.866 L 492.873 951.378 L 494.609 946.853 L 496.335 942.294 L 498.051 937.698 L 499.758 933.067 L 501.455 928.4 L 503.143 923.698 L 504.821 918.96 L 506.49 914.187 L 508.149 909.378 L 509.798 904.533 L 511.438 899.653 L 513.068 894.737 L 514.689 889.786 L 516.3 884.799 L 517.902 879.776 L 519.494 874.718 L 521.077 869.624 L 522.65 864.495 L 524.213 859.33 L 525.767 854.129 L 527.311 848.893 L 528.846 843.622 L 530.371 838.314 L 531.886 832.972 L 533.392 827.593 L 534.889 822.179 L 536.375 816.729 L 537.853 811.244 L 539.32 805.723 L 540.779 800.167 L 542.227 794.575 L 543.666 788.947 L 545.096 783.284 L 546.515 777.586 L 547.926 771.851 L 549.326 766.081 L 550.718 760.276 L 552.099 754.435 L 553.471 748.558 L 554.834 742.646 L 556.187 736.698 L 557.53 730.714 L 558.864 724.695 L 560.188 718.641 L 561.502 712.55 L 562.807 706.425 L 564.103 700.263 L 565.389 694.066 L 566.665 687.834 L 567.932 681.565 L 569.189 675.262 L 570.437 668.922 L 571.675 662.547 L 572.904 656.137 L 574.122 649.691 L 575.332 643.209 L 576.532 636.692 L 577.722 630.139 L 578.903 623.55 L 580.074 616.926 L 581.235 610.267 L 582.387 603.571 L 583.53 596.841 L 584.662 590.074 L 585.786 583.272 L 586.899 576.435 L 588.004 569.561 L 589.098 562.653 L 590.183 555.708 L 591.259 548.728 L 592.325 541.713 L 593.381 534.662 L 594.428 527.575 L 595.465 520.453 L 596.492 513.295 L 597.51 506.101 L 598.519 498.872 L 599.518 491.607 L 600.507 484.307 L 601.487 476.971 L 602.457 469.6 L 603.418 462.193 L 604.369 454.75 L 605.31 447.272 L 606.242 439.758 L 607.165 432.209 L 608.077 424.624 L 608.981 417.003 L 609.874 409.347 L 610.758 401.656 L 611.633 393.928 L 612.498 386.165 L 613.353 378.367 L 614.199 370.533 L 615.035 362.663 L 615.862 354.758 L 616.679 346.817 L 617.487 338.841 L 618.285 330.828 L 619.073 322.781 L 619.852 314.698 L 620.621 306.579 L 621.381 298.424 L 622.131 290.234 L 622.872 282.009 L 623.603 273.748 L 624.324 265.451 L 625.036 257.119 L 625.739 248.751 L 626.431 240.347 L 627.114 231.908 L 627.788 223.433 L 628.452 214.923 L 629.107 206.377 L 629.752 197.796 L 630.387 189.179 L 631.013 180.526 L 631.629 171.838 L 632.236 163.114 L 632.833 154.355 L 633.42 145.56 L 633.998 136.729 L 634.567 127.863 L 635.125 118.961 L 635.675 110.024 L 636.214 101.051 L 636.744 92.043 L 637.265 82.998 L 637.776 73.919 L 638.277 64.803 L 638.769 55.653 L 639.252 46.466 L 639.724 37.244 L 640.187 27.986 L 640.641 18.693 L 641.085 9.364 L 641.519 0 L 0 0 Z" vector-effect="non-scaling-stroke"/></g></svg>