<svg width="534.811" height="951.515" viewBox="0 0 534.811 951.515" xmlns="http://www.w3.org/2000/svg"><g id="svgGroup" stroke-linecap="round" fill-rule="evenodd" font-size="9pt" stroke="#000" stroke-width="0.25mm" fill="none" style="stroke:#000;stroke-width:0.25mm;fill:none"><path d="M 534.779 2.027 L 526.515 1.86 L 520.338 1.739 L 516.23 1.661 L 510.084 1.548 L 503.957 1.438 L 499.882 1.368 L 493.784 1.265 L 487.704 1.167 L 483.661 1.104 L 477.612 1.012 L 471.58 0.924 L 467.568 0.868 L 461.566 0.787 L 455.581 0.711 L 451.601 0.662 L 445.645 0.592 L 439.707 0.525 L 433.786 0.463 L 429.849 0.424 L 423.956 0.369 L 418.081 0.317 L 412.223 0.269 L 408.327 0.24 L 402.497 0.199 L 396.684 0.161 L 390.888 0.128 L 385.108 0.099 L 381.265 0.081 L 375.512 0.058 L 369.777 0.039 L 364.058 0.024 L 358.355 0.012 L 352.668 0.004 L 348.886 0.001 L 343.226 0 L 337.582 0.002 L 331.954 0.009 L 326.342 0.018 L 320.746 0.032 L 315.165 0.05 L 309.6 0.071 L 305.898 0.087 L 300.359 0.114 L 294.836 0.145 L 289.327 0.18 L 283.834 0.218 L 278.356 0.26 L 272.893 0.305 L 267.445 0.354 L 262.012 0.407 L 256.594 0.464 L 251.19 0.524 L 245.802 0.587 L 240.428 0.654 L 235.068 0.725 L 229.723 0.799 L 224.392 0.877 L 219.076 0.958 L 213.774 1.043 L 208.486 1.131 L 203.212 1.223 L 197.952 1.318 L 192.706 1.417 L 185.733 1.553 L 180.519 1.66 L 175.319 1.77 L 170.132 1.883 L 164.959 2 L 159.799 2.12 L 154.653 2.244 L 149.52 2.371 L 142.696 2.545 L 137.593 2.68 L 132.504 2.818 L 127.427 2.959 L 122.363 3.104 L 115.631 3.302 L 110.597 3.454 L 105.576 3.61 L 100.567 3.768 L 95.57 3.93 L 88.927 4.151 L 83.959 4.32 L 79.003 4.493 L 74.059 4.669 L 67.486 4.908 L 62.57 5.091 L 57.666 5.277 L 51.146 5.531 L 46.269 5.724 L 41.404 5.921 L 34.934 6.188 L 30.096 6.391 L 25.269 6.598 L 18.849 6.879 L 18.84 9.891 L 18.831 12.9 L 18.822 15.905 L 18.813 18.907 L 18.804 21.906 L 18.796 24.902 L 18.787 27.895 L 18.779 30.884 L 18.771 33.869 L 18.763 36.852 L 18.755 39.831 L 18.748 42.807 L 18.741 45.78 L 18.734 48.749 L 18.727 51.715 L 18.722 53.754 L 0.137 51.271 L 0.053 95.1 L 18.648 92.688 L 37.24 90.262 L 37.191 132.979 L 18.604 130.51 L 0.016 128.056 L 0 169.663 L 18.591 167.223 L 37.179 164.768 L 37.195 205.265 L 18.605 202.825 L 0.012 200.401 L 0.068 245.282 L 18.655 242.811 L 18.66 245.699 L 18.665 248.439 L 18.67 251.175 L 18.675 253.908 L 18.681 256.638 L 18.686 259.364 L 18.692 262.087 L 18.698 264.807 L 18.704 267.524 L 18.711 270.237 L 18.717 272.947 L 18.724 275.654 L 18.731 278.357 L 18.738 281.057 L 18.745 283.754 L 18.752 286.448 L 18.76 289.138 L 18.767 291.825 L 18.061 291.833 L 18.102 299.874 L 18.144 307.886 L 18.188 315.869 L 18.233 323.822 L 18.279 331.746 L 18.327 339.64 L 18.377 347.505 L 18.428 355.34 L 18.48 363.146 L 18.534 370.923 L 18.594 379.365 L 37.164 376.773 L 37.506 420.759 L 18.898 418.456 L 0.287 416.174 L 0.664 458.693 L 19.232 456.081 L 37.796 453.448 L 38.206 494.5 L 19.593 492.239 L 0.977 490.002 L 1.586 543.854 L 20.147 541.196 L 38.703 538.512 L 39.186 576.347 L 20.566 574.137 L 1.945 571.948 L 2.45 608.324 L 21.004 605.619 L 39.554 602.888 L 40.291 651.137 L 21.666 648.974 L 3.037 646.842 L 3.821 692.998 L 22.366 690.236 L 40.907 687.445 L 41.489 718.88 L 22.857 716.777 L 4.222 714.7 L 5.065 757.032 L 23.602 754.215 L 42.133 751.361 L 43.278 803.556 L 24.639 801.516 L 5.996 799.518 L 6.909 837.356 L 25.434 834.461 L 43.953 831.527 L 45.185 878.496 L 26.537 876.537 L 26.54 876.541 L 26.693 882.082 L 26.848 887.593 L 27.004 893.076 L 27.161 898.531 L 27.319 903.957 L 27.478 909.355 L 27.638 914.724 L 27.8 920.065 L 27.962 925.378 L 28.126 930.662 L 28.291 935.918 L 28.457 941.145 L 28.624 946.344 L 28.792 951.515 L 33.139 947.488 L 37.616 943.445 L 44.951 938.338 L 49.259 934.239 L 54.167 930.116 L 59.184 925.969 L 65.119 920.756 L 69.946 916.56 L 74.874 912.34 L 80.719 907.035 L 85.466 902.766 L 89.782 898.479 L 96.553 893.075 L 100.342 888.736 L 106.53 883.275 L 110.775 878.884 L 116.877 873.358 L 121.537 868.908 L 126.763 863.318 L 132.732 857.689 L 136.884 853.162 L 142.453 847.471 L 148.672 841.732 L 152.389 837.119 L 157.855 831.323 L 163.283 825.488 L 168.674 819.616 L 174.029 813.705 L 179.347 807.756 L 184.628 801.768 L 190.185 795.738 L 195.083 789.671 L 200.255 783.567 L 205.39 777.424 L 210.489 771.241 L 215.552 765.02 L 220.41 758.759 L 226.562 751.196 L 231.509 744.847 L 236.269 738.459 L 242.267 730.741 L 246.958 724.264 L 252.852 716.44 L 257.475 709.874 L 263.265 701.941 L 267.82 695.285 L 273.39 687.244 L 279.022 679.144 L 283.471 672.347 L 288.898 664.136 L 294.274 655.866 L 299.6 647.535 L 304.667 639.143 L 310.101 630.693 L 315.277 622.178 L 320.335 613.602 L 326.321 603.519 L 331.341 594.808 L 336.251 586.034 L 342.046 575.721 L 346.712 566.811 L 352.47 556.34 L 358.066 545.78 L 362.722 536.658 L 368.147 525.936 L 373.507 515.126 L 378.698 504.228 L 383.997 493.244 L 389.923 480.579 L 395.011 469.402 L 400.01 458.134 L 405.6 445.147 L 411.275 432.044 L 416.066 420.478 L 421.489 407.149 L 426.758 393.7 L 432.734 378.427 L 437.896 364.721 L 442.964 350.893 L 448.545 335.189 L 454.095 319.332 L 459.506 303.316 L 464.787 287.142 L 470.012 270.812 L 475.676 252.479 L 481.196 233.948 L 486.623 215.219 L 492.437 194.386 L 497.576 175.235 L 503.11 153.936 L 508.968 130.419 L 514.177 108.602 L 519.702 84.519 L 525.486 58.09 L 534.811 12.56 L 534.81 12.464 L 534.809 12.369 L 534.809 12.273 L 534.808 12.177 L 534.808 12.08 L 534.807 11.984 L 534.806 11.887 L 534.806 11.79 L 534.805 11.693 L 534.805 11.596 L 534.804 11.499 L 534.803 11.401 L 534.803 11.303 L 534.802 11.205 L 534.802 11.107 L 534.801 11.008 L 534.801 10.91 L 534.8 10.811 L 534.8 10.712 L 534.799 10.613 L 534.799 10.513 L 534.798 10.413 L 534.798 10.314 L 534.797 10.214 L 534.797 10.113 L 534.796 10.013 L 534.796 9.912 L 534.795 9.811 L 534.795 9.71 L 534.794 9.609 L 534.794 9.508 L 534.793 9.406 L 534.793 9.304 L 534.792 9.202 L 534.792 9.1 L 534.792 8.997 L 534.791 8.895 L 534.791 8.792 L 534.79 8.689 L 534.79 8.586 L 534.79 8.482 L 534.789 8.379 L 534.789 8.275 L 534.789 8.171 L 534.788 8.066 L 534.788 7.962 L 534.788 7.857 L 534.787 7.753 L 534.787 7.648 L 534.787 7.542 L 534.786 7.437 L 534.786 7.331 L 534.786 7.225 L 534.785 7.119 L 534.785 7.013 L 534.785 6.907 L 534.784 6.8 L 534.784 6.693 L 534.784 6.586 L 534.784 6.479 L 534.783 6.372 L 534.783 6.264 L 534.783 6.156 L 534.783 6.048 L 534.782 5.94 L 534.782 5.832 L 534.782 5.723 L 534.782 5.614 L 534.782 5.505 L 534.781 5.396 L 534.781 5.286 L 534.781 5.177 L 534.781 5.067 L 534.781 4.957 L 534.781 4.847 L 534.78 4.736 L 534.78 4.626 L 534.78 4.515 L 534.78 4.404 L 534.78 4.293 L 534.78 4.181 L 534.78 4.07 L 534.78 3.958 L 534.779 3.846 L 534.779 3.734 L 534.779 3.621 L 534.779 3.509 L 534.779 3.396 L 534.779 3.283 L 534.779 3.17 L 534.779 3.056 L 534.779 2.943 L 534.779 2.829 L 534.779 2.715 L 534.779 2.601 L 534.779 2.486 L 534.779 2.372 L 534.779 2.257 L 534.779 2.142 L 534.779 2.027 Z" vector-effect="non-scaling-stroke"/><g id="captions"><text alignment-baseline="middle" text-anchor="middle" transform="rotate(0,273.142,343.775)" x="273.142" y="343.775">LEE, 0, 0</text></g></g></svg>