<svg width="2060.608" height="691.619" viewBox="0 0 2060.608 691.619" xmlns="http://www.w3.org/2000/svg"><g id="svgGroup" stroke-linecap="round" fill-rule="evenodd" font-size="9pt" stroke="#000" stroke-width="0.25mm" fill="none" style="stroke:#000;stroke-width:0.25mm;fill:none"><path d="M 2042.975 0 L 2037.629 0.653 L 2032.238 1.305 L 2026.833 1.956 L 2021.414 2.606 L 2015.981 3.255 L 2010.534 3.902 L 2005.072 4.549 L 2000.496 4.999 L 1995.741 5.646 L 1990.24 6.289 L 1984.725 6.931 L 1979.196 7.572 L 1973.651 8.212 L 1967.96 8.687 L 1963.879 9.33 L 1958.294 9.966 L 1952.694 10.601 L 1947.08 11.235 L 1942.389 11.676 L 1937.488 12.31 L 1933.197 12.912 L 1926.464 13.538 L 1920.778 14.166 L 1916.045 14.604 L 1911.066 15.231 L 1905.338 15.856 L 1899.595 16.479 L 1894.823 16.914 L 1889.785 17.536 L 1884 18.156 L 1879.199 18.588 L 1874.118 19.207 L 1868.29 19.823 L 1863.459 20.252 L 1858.335 20.867 L 1852.464 21.48 L 1847.604 21.906 L 1842.436 22.517 L 1836.521 23.126 L 1831.632 23.549 L 1826.418 24.158 L 1820.458 24.763 L 1815.541 25.183 L 1811.642 25.76 L 1805.663 26.178 L 1800.369 26.779 L 1794.336 27.378 L 1789.377 27.795 L 1784.035 28.392 L 1779.056 28.807 L 1773.685 29.402 L 1768.686 29.815 L 1763.286 30.407 L 1757.15 30.997 L 1753.611 31.381 L 1746.991 31.968 L 1741.952 32.377 L 1736.464 32.962 L 1731.406 33.37 L 1725.888 33.952 L 1720.81 34.357 L 1715.262 34.938 L 1710.164 35.341 L 1705.92 35.892 L 1699.798 36.294 L 1694.179 36.868 L 1689.051 37.268 L 1683.4 37.84 L 1678.253 38.238 L 1673.786 38.635 L 1669.418 39.178 L 1663.249 39.573 L 1657.516 40.138 L 1652.326 40.532 L 1646.56 41.095 L 1641.352 41.486 L 1636.813 41.876 L 1632.314 42.41 L 1626.101 42.799 L 1621.532 43.186 L 1615.67 43.741 L 1610.409 44.127 L 1604.513 44.679 L 1600.659 45.038 L 1594.95 45.422 L 1589 45.969 L 1583.698 46.351 L 1579.046 46.73 L 1574.334 47.249 L 1568.06 47.629 L 1563.377 48.006 L 1557.325 48.546 L 1551.972 48.921 L 1547.257 49.295 L 1542.427 49.806 L 1536.119 50.181 L 1531.373 50.551 L 1526.617 50.921 L 1521.708 51.427 L 1515.381 51.798 L 1510.593 52.165 L 1505.796 52.531 L 1499.559 53.056 L 1495.479 53.397 L 1489.63 53.762 L 1484.791 54.124 L 1478.484 54.644 L 1473.004 55.005 L 1469.489 55.341 L 1463.602 55.701 L 1457.222 56.214 L 1451.711 56.572 L 1448.138 56.904 L 1442.226 57.26 L 1437.293 57.614 L 1430.828 58.12 L 1426.597 58.45 L 1420.662 58.803 L 1415.686 59.152 L 1410.7 59.5 L 1407.025 59.826 L 1399.486 60.326 L 1393.887 60.673 L 1388.858 61.017 L 1385.121 61.338 L 1379.128 61.683 L 1374.07 62.024 L 1369.001 62.365 L 1363.485 62.832 L 1357.007 63.174 L 1351.905 63.511 L 1348.065 63.826 L 1342.03 64.164 L 1336.898 64.499 L 1331.755 64.832 L 1327.87 65.144 L 1321.802 65.478 L 1316.629 65.808 L 1310.9 66.261 L 1304.382 66.595 L 1299.174 66.922 L 1293.956 67.248 L 1289.964 67.553 L 1283.855 67.88 L 1278.606 68.204 L 1274.573 68.505 L 1268.445 68.83 L 1263.166 69.151 L 1259.092 69.45 L 1252.944 69.771 L 1247.634 70.089 L 1243.518 70.385 L 1237.351 70.704 L 1232.009 71.019 L 1227.852 71.312 L 1221.666 71.628 L 1216.293 71.94 L 1212.092 72.23 L 1205.887 72.543 L 1200.483 72.852 L 1196.239 73.14 L 1190.016 73.45 L 1184.58 73.755 L 1180.292 74.04 L 1174.05 74.348 L 1168.582 74.65 L 1164.25 74.932 L 1157.989 75.236 L 1152.489 75.536 L 1148.112 75.815 L 1141.833 76.116 L 1136.301 76.412 L 1131.878 76.688 L 1125.582 76.987 L 1121.625 77.152 L 1117.977 77.423 L 1111.649 77.718 L 1106.056 78.008 L 1101.565 78.28 L 1095.219 78.572 L 1090.69 78.841 L 1084.339 79.131 L 1078.692 79.416 L 1074.115 79.682 L 1069.45 79.846 L 1064.525 80.125 L 1059.925 80.389 L 1053.525 80.673 L 1048.886 80.935 L 1042.482 81.217 L 1036.752 81.494 L 1032.063 81.753 L 1027.415 81.911 L 1023.432 82.165 L 1016.992 82.442 L 1011.211 82.715 L 1006.458 82.969 L 1000.002 83.243 L 994.187 83.512 L 991.271 83.646 L 985.442 83.914 L 980.624 84.164 L 974.133 84.432 L 969.274 84.68 L 964.661 84.832 L 959.444 85.091 L 954.56 85.336 L 948.033 85.6 L 943.108 85.842 L 938.501 85.991 L 933.215 86.245 L 928.263 86.486 L 921.702 86.745 L 916.708 86.983 L 912.109 87.129 L 907.731 87.363 L 901.147 87.617 L 895.136 87.867 L 890.073 88.101 L 885.483 88.243 L 881.017 88.473 L 874.398 88.722 L 869.276 88.952 L 864.704 89.093 L 859.214 89.332 L 854.065 89.56 L 847.412 89.804 L 844.351 89.924 L 838.23 90.163 L 833.02 90.387 L 828.447 90.523 L 823.794 90.742 L 817.101 90.981 L 810.923 91.215 L 807.826 91.331 L 801.632 91.563 L 796.333 91.781 L 791.762 91.912 L 786.998 92.125 L 780.252 92.356 L 774.891 92.569 L 770.341 92.699 L 765.492 92.908 L 758.725 93.135 L 755.577 93.247 L 749.28 93.469 L 743.838 93.676 L 739.299 93.803 L 733.476 94.019 L 728.004 94.224 L 723.448 94.348 L 718.467 94.549 L 711.629 94.767 L 708.434 94.874 L 702.045 95.087 L 696.49 95.286 L 691.947 95.407 L 686.859 95.602 L 679.982 95.814 L 676.756 95.918 L 670.304 96.125 L 664.666 96.318 L 660.137 96.436 L 654.941 96.625 L 650.403 96.741 L 645.187 96.929 L 638.252 97.133 L 634.985 97.233 L 628.451 97.432 L 622.709 97.618 L 618.187 97.731 L 612.86 97.913 L 608.329 98.024 L 602.982 98.204 L 595.99 98.4 L 592.682 98.496 L 586.064 98.687 L 582.746 98.782 L 576.11 98.971 L 570.242 99.148 L 565.72 99.254 L 560.239 99.427 L 556.53 99.522 L 549.841 99.706 L 543.899 99.878 L 539.401 99.982 L 533.818 100.15 L 529.311 100.253 L 523.707 100.419 L 519.193 100.521 L 513.567 100.685 L 509.045 100.786 L 503.398 100.949 L 496.265 101.125 L 492.86 101.211 L 486.047 101.383 L 482.632 101.469 L 476.535 101.628 L 472.03 101.725 L 466.257 101.881 L 461.744 101.976 L 455.948 102.131 L 451.428 102.225 L 445.61 102.378 L 438.396 102.543 L 434.934 102.624 L 428.009 102.784 L 424.537 102.864 L 418.3 103.013 L 413.798 103.104 L 407.851 103.249 L 403.342 103.339 L 397.372 103.482 L 392.856 103.571 L 386.863 103.713 L 383.077 103.791 L 376.05 103.942 L 372.528 104.017 L 365.481 104.166 L 361.95 104.24 L 354.882 104.387 L 351.34 104.46 L 344.93 104.595 L 340.426 104.679 L 334.268 104.81 L 329.757 104.892 L 323.575 105.023 L 319.057 105.103 L 315.753 105.171 L 309.27 105.301 L 304.743 105.379 L 298.504 105.506 L 293.971 105.583 L 287.708 105.708 L 283.867 105.776 L 276.649 105.908 L 273.031 105.974 L 265.792 106.104 L 262.164 106.168 L 254.904 106.296 L 251.266 106.36 L 247.626 106.423 L 240.338 106.548 L 236.686 106.611 L 229.376 106.734 L 225.714 106.795 L 219.021 106.908 L 214.488 106.978 L 211.035 107.036 L 203.677 107.154 L 199.99 107.213 L 193.244 107.322 L 188.696 107.388 L 182.143 107.494 L 178.246 107.552 L 173.88 107.616 L 167.292 107.718 L 162.731 107.782 L 156.117 107.883 L 152.202 107.939 L 147.817 107.999 L 141.167 108.098 L 136.593 108.159 L 129.917 108.255 L 125.983 108.308 L 121.578 108.366 L 114.867 108.46 L 110.922 108.511 L 103.372 108.611 L 99.589 108.66 L 95.164 108.716 L 88.39 108.805 L 84.427 108.854 L 76.826 108.948 L 73.018 108.995 L 69.208 109.041 L 61.578 109.133 L 57.755 109.178 L 53.93 109.223 L 46.271 109.312 L 42.434 109.356 L 34.753 109.443 L 30.905 109.486 L 27.055 109.528 L 19.345 109.612 L 15.482 109.653 L 11.617 109.694 L 3.877 109.775 L 0 109.815 L 4.513 669.481 L 8.39 669.81 L 16.131 670.084 L 19.998 670.409 L 23.862 670.733 L 31.578 671.001 L 35.433 671.321 L 39.285 671.64 L 46.976 671.901 L 50.819 672.216 L 58.491 672.472 L 62.325 672.784 L 66.155 673.093 L 73.803 673.343 L 77.624 673.65 L 81.442 673.954 L 89.066 674.198 L 92.875 674.499 L 98.669 674.753 L 104.28 675.035 L 108.077 675.331 L 115.658 675.563 L 119.445 675.855 L 125.199 676.099 L 130.787 676.372 L 134.562 676.658 L 140.292 676.896 L 145.867 677.163 L 151.58 677.396 L 157.145 677.659 L 160.9 677.937 L 166.59 678.164 L 172.142 678.421 L 177.815 678.644 L 183.357 678.897 L 187.091 679.166 L 192.741 679.383 L 198.27 679.63 L 203.903 679.843 L 207.619 680.104 L 215.039 680.294 L 218.746 680.552 L 224.252 680.789 L 229.846 680.991 L 233.541 681.243 L 240.92 681.423 L 244.606 681.671 L 251.967 681.846 L 255.644 682.09 L 259.319 682.333 L 266.656 682.501 L 270.322 682.74 L 277.642 682.903 L 281.299 683.138 L 288.601 683.297 L 292.249 683.529 L 297.74 683.7 L 303.174 683.91 L 308.648 684.078 L 314.072 684.283 L 319.53 684.446 L 323.153 684.667 L 328.563 684.866 L 334 685.023 L 339.401 685.218 L 344.822 685.371 L 350.213 685.562 L 355.617 685.71 L 359.211 685.917 L 366.387 686.041 L 369.972 686.244 L 377.131 686.363 L 380.708 686.562 L 387.85 686.676 L 391.418 686.871 L 396.76 687 L 402.102 687.172 L 407.429 687.296 L 412.761 687.464 L 418.072 687.584 L 423.394 687.747 L 428.69 687.863 L 432.224 688.042 L 439.282 688.132 L 442.808 688.308 L 449.849 688.394 L 455.105 688.496 L 460.391 688.646 L 465.631 688.744 L 470.908 688.889 L 476.133 688.983 L 481.399 689.123 L 486.609 689.213 L 490.096 689.37 L 497.06 689.433 L 500.539 689.587 L 507.486 689.645 L 512.657 689.722 L 517.888 689.848 L 523.043 689.92 L 528.264 690.041 L 533.405 690.109 L 538.615 690.226 L 543.742 690.289 L 548.942 690.401 L 554.054 690.46 L 560.914 690.492 L 564.341 690.621 L 569.429 690.671 L 574.603 690.773 L 579.677 690.819 L 586.494 690.839 L 589.9 690.957 L 596.701 690.972 L 600.099 691.086 L 606.884 691.096 L 611.909 691.126 L 617.042 691.21 L 622.053 691.235 L 627.175 691.315 L 632.173 691.336 L 638.905 691.33 L 642.268 691.426 L 648.984 691.415 L 653.949 691.425 L 659.039 691.49 L 663.99 691.496 L 669.069 691.556 L 674.006 691.557 L 680.67 691.53 L 683.998 691.609 L 690.646 691.576 L 695.551 691.565 L 700.598 691.612 L 705.49 691.597 L 712.102 691.553 L 715.404 691.619 L 722 691.569 L 726.86 691.543 L 731.875 691.576 L 736.721 691.545 L 743.281 691.484 L 748.279 691.508 L 753.103 691.47 L 759.637 691.401 L 762.901 691.446 L 769.419 691.371 L 774.212 691.321 L 779.177 691.331 L 783.957 691.277 L 790.439 691.19 L 795.202 691.129 L 800.145 691.13 L 804.894 691.064 L 811.342 690.966 L 814.563 690.988 L 820.995 690.884 L 827.417 690.777 L 832.128 690.697 L 837.031 690.679 L 841.729 690.594 L 848.116 690.476 L 851.306 690.481 L 857.678 690.356 L 862.346 690.26 L 868.699 690.13 L 873.563 690.092 L 878.209 689.988 L 884.536 689.849 L 889.166 689.738 L 894.008 689.69 L 898.625 689.575 L 904.918 689.423 L 911.201 689.268 L 915.793 689.143 L 920.606 689.081 L 925.186 688.951 L 931.435 688.784 L 935.999 688.647 L 942.229 688.473 L 947.012 688.398 L 951.555 688.253 L 957.76 688.07 L 962.287 687.918 L 968.473 687.728 L 973.227 687.639 L 977.734 687.479 L 983.895 687.279 L 988.386 687.113 L 994.529 686.907 L 997.596 686.84 L 1003.724 686.628 L 1009.841 686.412 L 1014.296 686.23 L 1020.395 686.008 L 1026.484 685.782 L 1030.916 685.59 L 1035.6 685.466 L 1040.02 685.269 L 1046.076 685.03 L 1052.122 684.787 L 1056.519 684.58 L 1062.547 684.331 L 1066.928 684.117 L 1072.938 683.861 L 1077.574 683.712 L 1081.936 683.49 L 1087.921 683.223 L 1093.896 682.952 L 1098.235 682.72 L 1104.193 682.443 L 1108.517 682.203 L 1114.457 681.919 L 1120.387 681.631 L 1124.689 681.381 L 1129.265 681.201 L 1135.17 680.902 L 1139.452 680.644 L 1145.34 680.337 L 1151.218 680.028 L 1155.479 679.759 L 1161.339 679.441 L 1167.19 679.12 L 1171.428 678.841 L 1177.262 678.513 L 1183.085 678.18 L 1187.302 677.89 L 1193.108 677.551 L 1198.904 677.207 L 1203.099 676.907 L 1208.878 676.556 L 1214.648 676.201 L 1218.821 675.889 L 1224.574 675.527 L 1230.316 675.16 L 1234.468 674.838 L 1240.194 674.463 L 1245.909 674.085 L 1250.04 673.752 L 1255.739 673.366 L 1261.428 672.976 L 1265.538 672.631 L 1271.21 672.233 L 1276.872 671.831 L 1280.961 671.476 L 1286.606 671.065 L 1292.242 670.651 L 1296.31 670.284 L 1301.929 669.862 L 1307.539 669.435 L 1313.139 669.004 L 1318.422 668.493 L 1324.003 668.054 L 1329.574 667.61 L 1333.591 667.216 L 1339.146 666.764 L 1344.691 666.307 L 1350.227 665.846 L 1354.216 665.437 L 1359.735 664.968 L 1365.245 664.494 L 1370.432 663.939 L 1375.923 663.457 L 1381.404 662.97 L 1386.876 662.478 L 1390.816 662.04 L 1396.271 661.539 L 1401.717 661.034 L 1408.354 660.389 L 1412.265 659.934 L 1417.683 659.416 L 1423.091 658.892 L 1428.491 658.364 L 1432.375 657.892 L 1438.944 657.217 L 1444.315 656.675 L 1449.677 656.129 L 1453.533 655.639 L 1458.879 655.083 L 1465.389 654.382 L 1470.714 653.816 L 1474.542 653.309 L 1479.851 652.734 L 1486.315 652.012 L 1491.603 651.427 L 1496.882 650.836 L 1500.675 650.306 L 1507.093 649.563 L 1512.344 648.958 L 1517.587 648.347 L 1522.82 647.732 L 1527.726 647.033 L 1532.941 646.408 L 1538.146 645.777 L 1543.343 645.141 L 1548.213 644.422 L 1553.392 643.776 L 1558.561 643.125 L 1564.852 642.321 L 1570.001 641.658 L 1575.141 640.99 L 1579.956 640.239 L 1585.078 639.561 L 1590.192 638.878 L 1596.413 638.038 L 1601.506 637.343 L 1605.161 636.716 L 1611.349 635.858 L 1616.416 635.147 L 1622.579 634.278 L 1627.626 633.555 L 1632.663 632.827 L 1637.378 632.014 L 1642.398 631.274 L 1647.409 630.529 L 1653.504 629.623 L 1658.496 628.866 L 1664.567 627.947 L 1669.538 627.177 L 1674.19 626.323 L 1679.144 625.542 L 1684.09 624.756 L 1690.104 623.805 L 1695.03 623.005 L 1701.021 622.041 L 1705.927 621.23 L 1710.517 620.332 L 1715.406 619.509 L 1721.352 618.518 L 1726.222 617.682 L 1732.144 616.678 L 1736.994 615.828 L 1742.893 614.81 L 1747.723 613.948 L 1753.599 612.916 L 1757.056 612.124 L 1762.911 611.079 L 1768.753 610.025 L 1773.538 609.13 L 1779.357 608.063 L 1784.121 607.154 L 1789.917 606.072 L 1794.663 605.149 L 1800.436 604.053 L 1806.196 602.948 L 1810.912 602.005 L 1815.328 600.974 L 1820.028 600.017 L 1825.746 598.883 L 1831.451 597.741 L 1836.121 596.763 L 1841.804 595.605 L 1847.475 594.44 L 1852.116 593.439 L 1857.764 592.258 L 1863.4 591.069 L 1868.012 590.046 L 1873.626 588.841 L 1879.227 587.627 L 1883.811 586.581 L 1889.39 585.352 L 1894.957 584.114 L 1899.512 583.044 L 1905.057 581.789 L 1910.591 580.526 L 1916.112 579.254 L 1920.628 578.152 L 1926.128 576.864 L 1931.616 575.566 L 1935.839 574.358 L 1941.307 573.044 L 1945.778 571.901 L 1951.224 570.569 L 1956.658 569.227 L 1962.082 567.877 L 1967.493 566.517 L 1973.15 565.229 L 1978.538 563.851 L 1983.913 562.463 L 1989.278 561.065 L 1994.631 559.659 L 1999.972 558.242 L 2004.335 557.002 L 2009.656 555.567 L 2014.966 554.121 L 2020.264 552.666 L 2025.551 551.201 L 2030.827 549.726 L 2036.092 548.241 L 2041.346 546.746 L 2041.319 542.302 L 2041.293 537.838 L 2041.268 533.355 L 2041.244 528.851 L 2041.221 524.328 L 2041.199 519.784 L 2041.177 515.221 L 2041.157 510.637 L 2041.138 506.033 L 2041.12 501.409 L 2041.102 496.765 L 2041.086 492.101 L 2041.07 487.416 L 2041.056 482.712 L 2041.042 477.987 L 2041.03 473.241 L 2041.018 468.476 L 2041.013 466.509 L 2059.606 468.93 L 2059.542 423.488 L 2040.956 425.961 L 2022.366 428.41 L 2022.364 390.563 L 2040.954 393.01 L 2059.541 395.478 L 2059.584 355.599 L 2040.992 358.026 L 2022.397 360.433 L 2022.489 318.509 L 2041.073 320.997 L 2059.655 323.504 L 2059.796 279.521 L 2041.198 281.908 L 2022.599 284.278 L 2022.791 238.224 L 2041.37 240.749 L 2059.947 243.288 L 2060.127 206.814 L 2041.525 209.17 L 2022.922 211.512 L 2023.206 161.583 L 2041.781 164.136 L 2060.355 166.701 L 2060.608 126.892 L 2042.003 129.221 L 2023.397 131.54 L 2023.682 90.182 L 2042.255 92.757 L 2042.325 83.077 L 2042.371 76.816 L 2042.417 70.534 L 2042.465 64.23 L 2042.513 57.904 L 2042.561 51.557 L 2042.611 45.188 L 2042.661 38.798 L 2042.711 32.386 L 2042.763 25.952 L 2042.815 19.497 L 2042.867 13.02 L 2042.921 6.521 L 2042.975 0 Z" vector-effect="non-scaling-stroke"/><g id="captions"><text alignment-baseline="middle" text-anchor="middle" transform="rotate(0,1018.694,384.225)" x="1018.694" y="384.225">LEE, 3, 1</text></g></g></svg>