<svg width="625.642" height="216.212" viewBox="0 0 625.642 216.212" xmlns="http://www.w3.org/2000/svg"><g id="svgGroup" stroke-linecap="round" fill-rule="evenodd" font-size="9pt" stroke="#000" stroke-width="0.25mm" fill="none" style="stroke:#000;stroke-width:0.25mm;fill:none"><path d="M 621.743 0 L 620.694 1.844 L 619.645 3.667 L 618.596 5.469 L 617.547 7.252 L 616.498 9.016 L 615.45 10.76 L 614.402 12.485 L 613.354 14.192 L 612.306 15.88 L 611.259 17.55 L 610.211 19.202 L 609.164 20.837 L 608.117 22.454 L 607.07 24.055 L 606.024 25.638 L 604.977 27.205 L 603.931 28.756 L 602.885 30.29 L 601.839 31.809 L 600.787 32.906 L 599.725 33.369 L 598.663 33.833 L 597.601 34.298 L 596.54 34.763 L 595.478 35.228 L 594.417 35.694 L 593.356 36.16 L 592.295 36.627 L 591.234 37.093 L 590.173 37.56 L 589.113 38.028 L 588.053 38.496 L 586.992 38.964 L 585.932 39.432 L 584.872 39.901 L 583.813 40.37 L 582.753 40.839 L 581.694 41.308 L 580.634 41.778 L 579.575 42.247 L 578.516 42.717 L 577.457 43.187 L 576.399 43.658 L 575.34 44.128 L 574.282 44.599 L 573.224 45.07 L 572.165 45.541 L 571.108 46.011 L 570.05 46.483 L 568.992 46.954 L 567.935 47.425 L 566.877 47.896 L 565.82 48.367 L 564.763 48.839 L 563.706 49.31 L 562.65 49.781 L 561.593 50.253 L 560.537 50.724 L 559.48 51.195 L 558.424 51.666 L 557.368 52.138 L 556.312 52.609 L 555.257 53.08 L 554.201 53.55 L 553.146 54.021 L 552.091 54.492 L 551.036 54.962 L 549.981 55.433 L 548.926 55.903 L 547.871 56.373 L 546.817 56.843 L 545.762 57.312 L 544.708 57.781 L 543.654 58.251 L 542.6 58.719 L 541.546 59.188 L 540.493 59.656 L 539.439 60.125 L 538.386 60.592 L 537.333 61.06 L 536.28 61.527 L 535.227 61.994 L 534.174 62.46 L 533.121 62.927 L 532.069 63.393 L 531.017 63.858 L 529.964 64.323 L 528.912 64.788 L 527.86 65.252 L 526.808 65.716 L 525.757 66.179 L 524.705 66.642 L 523.654 67.105 L 522.603 67.567 L 521.551 68.029 L 520.5 68.49 L 519.45 68.951 L 518.399 69.411 L 517.348 69.871 L 516.298 70.33 L 515.247 70.789 L 514.197 71.247 L 513.147 71.705 L 512.097 72.162 L 511.047 72.618 L 509.997 73.074 L 508.948 73.53 L 507.898 73.985 L 506.849 74.439 L 505.8 74.893 L 504.751 75.346 L 503.702 75.798 L 502.653 76.25 L 501.604 76.702 L 500.555 77.152 L 499.507 77.602 L 498.458 78.052 L 497.41 78.5 L 496.362 78.948 L 495.314 79.396 L 494.266 79.843 L 493.218 80.289 L 492.17 80.734 L 491.123 81.179 L 490.075 81.623 L 489.028 82.066 L 487.981 82.509 L 486.934 82.951 L 485.887 83.392 L 484.84 83.832 L 483.793 84.272 L 482.746 84.711 L 481.7 85.149 L 480.653 85.587 L 479.607 86.024 L 478.561 86.46 L 477.514 86.895 L 476.468 87.33 L 475.422 87.763 L 474.377 88.197 L 473.331 88.629 L 472.285 89.06 L 471.24 89.491 L 470.194 89.921 L 469.149 90.35 L 468.104 90.779 L 467.059 91.206 L 466.014 91.633 L 464.969 92.059 L 463.924 92.485 L 462.879 92.909 L 461.834 93.333 L 460.79 93.756 L 459.745 94.178 L 458.701 94.599 L 457.657 95.02 L 456.613 95.439 L 455.568 95.858 L 454.524 96.276 L 453.481 96.693 L 452.437 97.11 L 451.393 97.525 L 450.349 97.94 L 449.306 98.354 L 448.262 98.767 L 447.219 99.18 L 446.176 99.591 L 445.133 100.002 L 444.089 100.412 L 443.046 100.821 L 442.003 101.229 L 440.961 101.636 L 439.918 102.043 L 438.875 102.449 L 437.832 102.853 L 436.79 103.258 L 435.747 103.661 L 434.705 104.063 L 433.663 104.465 L 432.621 104.865 L 431.578 105.265 L 430.536 105.664 L 429.494 106.063 L 428.452 106.46 L 427.411 106.857 L 426.369 107.252 L 425.327 107.647 L 424.285 108.041 L 423.244 108.435 L 422.202 108.827 L 421.161 109.219 L 420.12 109.609 L 419.078 109.999 L 418.037 110.388 L 416.996 110.777 L 415.955 111.164 L 414.914 111.551 L 413.873 111.936 L 412.832 112.321 L 411.791 112.705 L 410.751 113.089 L 409.71 113.471 L 408.669 113.853 L 407.629 114.234 L 406.588 114.614 L 405.548 114.993 L 404.507 115.371 L 403.467 115.749 L 402.427 116.125 L 401.386 116.501 L 400.346 116.876 L 399.306 117.251 L 398.266 117.624 L 397.226 117.997 L 396.186 118.369 L 395.146 118.74 L 394.106 119.11 L 393.067 119.479 L 392.027 119.848 L 390.987 120.215 L 389.948 120.582 L 388.908 120.949 L 387.869 121.314 L 386.829 121.679 L 385.79 122.042 L 384.75 122.405 L 383.711 122.767 L 382.672 123.129 L 381.632 123.489 L 380.593 123.849 L 379.554 124.208 L 378.515 124.566 L 377.476 124.924 L 376.437 125.28 L 375.398 125.636 L 374.359 125.991 L 373.32 126.346 L 372.281 126.699 L 371.242 127.052 L 370.203 127.404 L 369.165 127.755 L 368.126 128.105 L 367.087 128.455 L 366.049 128.804 L 365.01 129.152 L 363.971 129.499 L 362.933 129.846 L 361.894 130.192 L 360.856 130.537 L 359.818 130.881 L 358.779 131.225 L 357.741 131.567 L 356.702 131.909 L 355.664 132.251 L 354.626 132.591 L 353.588 132.931 L 352.549 133.27 L 351.511 133.608 L 350.473 133.946 L 349.435 134.283 L 348.397 134.619 L 347.359 134.954 L 346.321 135.288 L 345.283 135.622 L 344.245 135.955 L 343.207 136.288 L 342.169 136.619 L 341.131 136.95 L 340.093 137.28 L 339.055 137.61 L 338.017 137.939 L 336.979 138.267 L 335.941 138.594 L 334.904 138.921 L 333.866 139.246 L 332.828 139.572 L 331.79 139.896 L 330.752 140.22 L 329.715 140.543 L 328.677 140.865 L 327.639 141.187 L 326.602 141.508 L 325.564 141.828 L 324.526 142.147 L 323.489 142.466 L 322.451 142.784 L 321.414 143.102 L 320.376 143.418 L 319.339 143.734 L 318.301 144.05 L 317.263 144.364 L 316.226 144.678 L 315.188 144.992 L 314.151 145.304 L 313.113 145.616 L 312.076 145.928 L 311.039 146.238 L 310.001 146.548 L 308.964 146.857 L 307.926 147.166 L 306.889 147.474 L 305.851 147.781 L 304.814 148.088 L 303.777 148.394 L 302.739 148.699 L 301.702 149.004 L 300.664 149.308 L 299.627 149.611 L 298.59 149.914 L 297.552 150.216 L 296.515 150.517 L 295.478 150.818 L 294.44 151.118 L 293.403 151.417 L 292.366 151.716 L 291.328 152.014 L 290.291 152.312 L 289.254 152.608 L 288.216 152.905 L 287.179 153.2 L 286.142 153.495 L 285.104 153.79 L 284.067 154.083 L 283.03 154.376 L 281.993 154.669 L 280.955 154.961 L 279.918 155.252 L 278.881 155.543 L 277.843 155.833 L 276.806 156.122 L 275.769 156.411 L 274.731 156.699 L 273.694 156.986 L 272.657 157.273 L 271.62 157.56 L 270.582 157.845 L 269.545 158.131 L 268.508 158.415 L 267.47 158.699 L 266.433 158.982 L 265.396 159.265 L 264.358 159.547 L 263.321 159.829 L 262.284 160.11 L 261.246 160.39 L 260.209 160.67 L 259.172 160.949 L 258.134 161.228 L 257.097 161.506 L 256.06 161.783 L 255.022 162.06 L 253.985 162.336 L 252.948 162.612 L 251.91 162.887 L 250.873 163.162 L 249.835 163.436 L 248.798 163.709 L 247.761 163.982 L 246.723 164.255 L 245.686 164.526 L 244.648 164.798 L 243.611 165.068 L 242.574 165.338 L 241.536 165.608 L 240.499 165.877 L 239.461 166.145 L 238.424 166.413 L 237.386 166.68 L 236.349 166.947 L 235.311 167.213 L 234.274 167.479 L 233.236 167.744 L 232.199 168.009 L 231.161 168.273 L 230.124 168.536 L 229.086 168.799 L 228.049 169.062 L 227.011 169.324 L 225.974 169.585 L 224.936 169.846 L 223.898 170.106 L 222.861 170.366 L 221.823 170.625 L 220.786 170.884 L 219.748 171.142 L 218.71 171.4 L 217.673 171.657 L 216.635 171.914 L 215.597 172.17 L 214.56 172.426 L 213.522 172.681 L 212.484 172.936 L 211.447 173.19 L 210.409 173.443 L 209.371 173.696 L 208.333 173.949 L 207.296 174.201 L 206.258 174.453 L 205.22 174.704 L 204.181 174.914 L 203.133 174.911 L 202.085 174.908 L 201.037 174.904 L 199.989 174.901 L 198.941 174.897 L 197.893 174.892 L 196.845 174.888 L 195.797 174.883 L 194.749 174.879 L 193.701 174.874 L 192.653 174.869 L 191.605 174.863 L 190.557 174.858 L 189.509 174.852 L 188.461 174.847 L 187.413 174.841 L 186.365 174.835 L 185.317 174.829 L 184.27 174.823 L 183.222 174.816 L 182.174 174.81 L 181.126 174.803 L 180.078 174.797 L 179.03 174.79 L 177.982 174.783 L 176.934 174.777 L 175.886 174.77 L 174.838 174.763 L 173.79 174.756 L 172.742 174.749 L 171.694 174.742 L 170.646 174.735 L 169.598 174.728 L 168.55 174.721 L 167.502 174.714 L 166.454 174.707 L 165.406 174.7 L 164.358 174.693 L 163.31 174.686 L 162.262 174.679 L 161.214 174.672 L 160.167 174.665 L 159.119 174.658 L 158.071 174.651 L 157.023 174.645 L 155.975 174.638 L 154.927 174.631 L 153.879 174.625 L 152.831 174.618 L 151.783 174.612 L 150.735 174.606 L 149.687 174.6 L 148.64 174.594 L 147.592 174.588 L 146.544 174.582 L 145.496 174.577 L 144.448 174.571 L 143.4 174.566 L 142.352 174.561 L 141.305 174.556 L 140.257 174.551 L 139.209 174.546 L 138.161 174.542 L 137.113 174.538 L 136.066 174.533 L 135.018 174.53 L 133.97 174.526 L 132.922 174.522 L 131.874 174.519 L 130.827 174.516 L 129.779 174.513 L 128.731 174.511 L 127.684 174.508 L 126.636 174.506 L 125.588 174.504 L 124.54 174.503 L 123.493 174.502 L 122.445 174.501 L 121.397 174.5 L 120.35 174.499 L 119.302 174.499 L 118.255 174.499 L 117.207 174.5 L 116.159 174.5 L 115.112 174.501 L 114.064 174.503 L 113.017 174.505 L 111.969 174.507 L 110.922 174.509 L 109.874 174.512 L 108.826 174.515 L 107.779 174.518 L 106.732 174.522 L 105.684 174.526 L 104.637 174.531 L 103.589 174.535 L 102.542 174.541 L 101.494 174.546 L 100.447 174.552 L 99.4 174.559 L 98.352 174.566 L 97.305 174.573 L 96.257 174.581 L 95.21 174.589 L 94.163 174.598 L 93.116 174.607 L 92.068 174.616 L 91.021 174.626 L 89.974 174.636 L 88.927 174.647 L 87.879 174.658 L 86.832 174.67 L 85.785 174.682 L 84.738 174.695 L 83.691 174.708 L 82.644 174.722 L 81.597 174.736 L 80.55 174.751 L 79.503 174.766 L 78.456 174.782 L 77.408 174.798 L 76.362 174.815 L 75.315 174.832 L 74.268 174.85 L 73.221 174.868 L 72.174 174.887 L 71.127 174.907 L 70.08 174.927 L 69.033 174.947 L 67.986 174.968 L 66.94 174.99 L 65.893 175.013 L 64.846 175.035 L 63.799 175.059 L 62.753 175.083 L 61.706 175.108 L 60.659 175.133 L 59.613 175.159 L 58.566 175.185 L 57.519 175.213 L 56.473 175.24 L 55.426 175.269 L 54.38 175.298 L 53.333 175.328 L 52.287 175.358 L 51.24 175.389 L 50.194 175.42 L 49.148 175.453 L 48.101 175.486 L 47.055 175.519 L 46.009 175.554 L 44.962 175.589 L 43.916 175.624 L 42.87 175.661 L 41.824 175.698 L 40.777 175.736 L 39.731 175.774 L 38.685 175.813 L 37.639 175.853 L 36.593 175.894 L 35.547 175.935 L 34.501 175.977 L 33.455 176.02 L 32.409 176.064 L 31.363 176.108 L 30.317 176.153 L 29.271 176.199 L 28.225 176.245 L 27.18 176.293 L 26.134 176.341 L 25.088 176.39 L 24.042 176.439 L 22.997 176.49 L 21.951 176.541 L 20.905 176.593 L 19.86 176.646 L 18.814 176.699 L 17.769 176.754 L 16.723 176.809 L 15.678 176.865 L 14.632 176.922 L 13.587 176.979 L 12.542 177.038 L 11.496 177.097 L 10.451 177.157 L 9.406 177.218 L 8.361 177.28 L 7.315 177.343 L 6.27 177.406 L 5.225 177.471 L 4.18 177.536 L 3.135 177.602 L 2.09 177.669 L 1.045 177.737 L 0 177.805 L 1.604 216.212 L 2.644 216.031 L 3.684 215.85 L 4.723 215.668 L 5.763 215.486 L 6.803 215.304 L 7.843 215.122 L 8.882 214.94 L 9.922 214.757 L 10.962 214.574 L 12.002 214.39 L 13.041 214.207 L 14.081 214.023 L 15.121 213.839 L 16.161 213.655 L 17.2 213.47 L 18.24 213.286 L 19.28 213.1 L 20.319 212.915 L 21.359 212.73 L 22.399 212.544 L 23.438 212.358 L 24.478 212.171 L 25.517 211.985 L 26.557 211.798 L 27.597 211.611 L 28.636 211.424 L 29.676 211.236 L 30.715 211.048 L 31.755 210.86 L 32.795 210.671 L 33.834 210.483 L 34.874 210.294 L 35.913 210.104 L 36.953 209.915 L 37.992 209.725 L 39.032 209.535 L 40.071 209.345 L 41.111 209.154 L 42.15 208.963 L 43.19 208.772 L 44.229 208.581 L 45.269 208.389 L 46.308 208.197 L 47.348 208.004 L 48.387 207.812 L 49.426 207.619 L 50.466 207.426 L 51.505 207.232 L 52.545 207.039 L 53.584 206.845 L 54.623 206.65 L 55.663 206.456 L 56.702 206.261 L 57.741 206.065 L 58.781 205.87 L 59.82 205.674 L 60.859 205.478 L 61.899 205.281 L 62.938 205.085 L 63.977 204.888 L 65.016 204.69 L 66.056 204.493 L 67.095 204.295 L 68.134 204.097 L 69.173 203.898 L 70.213 203.699 L 71.252 203.5 L 72.291 203.3 L 73.33 203.101 L 74.369 202.9 L 75.409 202.7 L 76.448 202.499 L 77.487 202.298 L 78.526 202.097 L 79.565 201.895 L 80.604 201.693 L 81.643 201.491 L 82.683 201.288 L 83.722 201.085 L 84.761 200.882 L 85.8 200.678 L 86.839 200.474 L 87.878 200.269 L 88.917 200.065 L 89.956 199.86 L 90.995 199.654 L 92.034 199.449 L 93.073 199.243 L 94.112 199.036 L 95.151 198.83 L 96.19 198.623 L 97.229 198.415 L 98.268 198.207 L 99.307 197.999 L 100.346 197.791 L 101.385 197.582 L 102.424 197.373 L 103.462 197.164 L 104.501 196.954 L 105.54 196.743 L 106.579 196.533 L 107.618 196.322 L 108.657 196.111 L 109.696 195.899 L 110.734 195.687 L 111.773 195.475 L 112.812 195.262 L 113.851 195.049 L 114.89 194.836 L 115.928 194.622 L 116.967 194.408 L 118.006 194.193 L 119.045 193.978 L 120.083 193.763 L 121.122 193.547 L 122.161 193.331 L 123.199 193.115 L 124.238 192.898 L 125.277 192.681 L 126.315 192.463 L 127.354 192.245 L 128.393 192.027 L 129.431 191.808 L 130.47 191.589 L 131.509 191.37 L 132.547 191.15 L 133.586 190.93 L 134.624 190.709 L 135.663 190.488 L 136.701 190.266 L 137.74 190.045 L 138.778 189.822 L 139.817 189.6 L 140.855 189.377 L 141.894 189.153 L 142.932 188.929 L 143.971 188.705 L 145.009 188.481 L 146.048 188.255 L 147.086 188.03 L 148.125 187.804 L 149.163 187.578 L 150.201 187.351 L 151.24 187.124 L 152.278 186.896 L 153.317 186.668 L 154.355 186.44 L 155.393 186.211 L 156.432 185.982 L 157.47 185.752 L 158.508 185.522 L 159.547 185.292 L 160.585 185.061 L 161.623 184.83 L 162.661 184.598 L 163.7 184.366 L 164.738 184.133 L 165.776 183.9 L 166.814 183.666 L 167.852 183.432 L 168.891 183.198 L 169.929 182.963 L 170.967 182.728 L 172.005 182.492 L 173.043 182.256 L 174.081 182.019 L 175.12 181.782 L 176.158 181.545 L 177.196 181.307 L 178.234 181.068 L 179.272 180.829 L 180.31 180.59 L 181.348 180.35 L 182.386 180.11 L 183.424 179.869 L 184.462 179.628 L 185.5 179.386 L 186.538 179.144 L 187.576 178.901 L 188.614 178.658 L 189.652 178.415 L 190.69 178.171 L 191.728 177.926 L 192.766 177.681 L 193.804 177.436 L 194.842 177.19 L 195.88 176.943 L 196.917 176.696 L 197.955 176.449 L 198.993 176.201 L 200.031 175.953 L 201.069 175.704 L 202.107 175.455 L 203.144 175.205 L 204.182 174.954 L 205.229 174.917 L 206.276 174.92 L 207.324 174.923 L 208.372 174.925 L 209.42 174.927 L 210.468 174.929 L 211.516 174.93 L 212.564 174.931 L 213.612 174.932 L 214.66 174.933 L 215.708 174.933 L 216.756 174.933 L 217.803 174.933 L 218.851 174.932 L 219.899 174.931 L 220.947 174.929 L 221.995 174.928 L 223.043 174.926 L 224.09 174.923 L 225.138 174.92 L 226.186 174.917 L 227.234 174.913 L 228.282 174.909 L 229.329 174.904 L 230.377 174.9 L 231.425 174.894 L 232.473 174.888 L 233.521 174.882 L 234.568 174.875 L 235.616 174.868 L 236.664 174.861 L 237.711 174.852 L 238.759 174.844 L 239.807 174.835 L 240.854 174.825 L 241.902 174.815 L 242.95 174.804 L 243.997 174.793 L 245.045 174.782 L 246.093 174.769 L 247.14 174.757 L 248.188 174.743 L 249.235 174.729 L 250.283 174.715 L 251.33 174.7 L 252.378 174.684 L 253.426 174.668 L 254.473 174.651 L 255.52 174.634 L 256.568 174.616 L 257.615 174.597 L 258.663 174.578 L 259.71 174.558 L 260.758 174.537 L 261.805 174.516 L 262.852 174.494 L 263.9 174.471 L 264.947 174.448 L 265.994 174.424 L 267.042 174.399 L 268.089 174.373 L 269.136 174.347 L 270.184 174.32 L 271.231 174.292 L 272.278 174.264 L 273.325 174.235 L 274.372 174.205 L 275.42 174.174 L 276.467 174.142 L 277.514 174.11 L 278.561 174.077 L 279.608 174.043 L 280.655 174.008 L 281.702 173.972 L 282.749 173.936 L 283.796 173.898 L 284.843 173.86 L 285.89 173.821 L 286.937 173.781 L 287.984 173.74 L 289.031 173.698 L 290.078 173.655 L 291.124 173.612 L 292.171 173.567 L 293.218 173.521 L 294.265 173.475 L 295.312 173.427 L 296.358 173.379 L 297.405 173.329 L 298.452 173.279 L 299.498 173.228 L 300.545 173.175 L 301.592 173.122 L 302.638 173.067 L 303.685 173.012 L 304.731 172.955 L 305.778 172.897 L 306.824 172.838 L 307.871 172.779 L 308.917 172.718 L 309.963 172.656 L 311.01 172.592 L 312.056 172.528 L 313.102 172.462 L 314.149 172.396 L 315.195 172.328 L 316.241 172.259 L 317.287 172.189 L 318.333 172.117 L 319.38 172.045 L 320.426 171.971 L 321.472 171.896 L 322.518 171.82 L 323.564 171.742 L 324.61 171.663 L 325.656 171.583 L 326.702 171.502 L 327.748 171.419 L 328.793 171.335 L 329.839 171.249 L 330.885 171.163 L 331.931 171.074 L 332.976 170.985 L 334.022 170.894 L 335.068 170.802 L 336.113 170.708 L 337.159 170.613 L 338.205 170.517 L 339.25 170.419 L 340.296 170.319 L 341.341 170.218 L 342.386 170.116 L 343.432 170.012 L 344.477 169.906 L 345.522 169.8 L 346.568 169.691 L 347.613 169.581 L 348.658 169.469 L 349.703 169.356 L 350.748 169.241 L 351.794 169.125 L 352.839 169.007 L 353.884 168.887 L 354.929 168.766 L 355.974 168.643 L 357.018 168.518 L 358.063 168.392 L 359.108 168.264 L 360.153 168.134 L 361.198 168.002 L 362.242 167.869 L 363.287 167.734 L 364.332 167.597 L 365.376 167.458 L 366.421 167.317 L 367.465 167.175 L 368.51 167.031 L 369.554 166.885 L 370.599 166.736 L 371.643 166.587 L 372.687 166.435 L 373.732 166.281 L 374.776 166.125 L 375.82 165.967 L 376.864 165.808 L 377.908 165.646 L 378.952 165.482 L 379.996 165.316 L 381.04 165.148 L 382.084 164.979 L 383.128 164.806 L 384.172 164.632 L 385.216 164.456 L 386.26 164.278 L 387.303 164.097 L 388.347 163.914 L 389.391 163.729 L 390.434 163.542 L 391.478 163.352 L 392.521 163.161 L 393.565 162.967 L 394.608 162.77 L 395.651 162.571 L 396.695 162.37 L 397.738 162.167 L 398.781 161.961 L 399.824 161.753 L 400.867 161.542 L 401.911 161.329 L 402.954 161.114 L 403.997 160.896 L 405.04 160.675 L 406.083 160.452 L 407.125 160.226 L 408.168 159.998 L 409.211 159.767 L 410.254 159.534 L 411.296 159.297 L 412.339 159.059 L 413.382 158.817 L 414.424 158.573 L 415.467 158.326 L 416.509 158.076 L 417.552 157.823 L 418.594 157.568 L 419.636 157.31 L 420.678 157.049 L 421.721 156.785 L 422.763 156.518 L 423.805 156.248 L 424.847 155.975 L 425.889 155.699 L 426.931 155.421 L 427.973 155.139 L 429.015 154.854 L 430.057 154.566 L 431.099 154.275 L 432.14 153.98 L 433.182 153.683 L 434.224 153.382 L 435.266 153.078 L 436.307 152.771 L 437.349 152.46 L 438.39 152.146 L 439.432 151.829 L 440.473 151.509 L 441.514 151.184 L 442.556 150.857 L 443.597 150.526 L 444.638 150.192 L 445.68 149.854 L 446.721 149.512 L 447.762 149.167 L 448.803 148.818 L 449.844 148.466 L 450.885 148.109 L 451.926 147.749 L 452.967 147.386 L 454.008 147.018 L 455.049 146.647 L 456.089 146.272 L 457.13 145.893 L 458.171 145.51 L 459.212 145.123 L 460.252 144.732 L 461.293 144.337 L 462.333 143.938 L 463.374 143.534 L 464.414 143.127 L 465.455 142.715 L 466.495 142.3 L 467.536 141.88 L 468.576 141.455 L 469.617 141.027 L 470.657 140.593 L 471.697 140.156 L 472.737 139.714 L 473.778 139.268 L 474.818 138.817 L 475.858 138.361 L 476.898 137.901 L 477.938 137.436 L 478.978 136.966 L 480.018 136.492 L 481.058 136.013 L 482.098 135.529 L 483.138 135.04 L 484.178 134.546 L 485.218 134.048 L 486.258 133.544 L 487.298 133.035 L 488.338 132.521 L 489.378 132.002 L 490.418 131.478 L 491.457 130.949 L 492.497 130.414 L 493.537 129.874 L 494.577 129.328 L 495.616 128.777 L 496.656 128.221 L 497.696 127.659 L 498.736 127.091 L 499.775 126.518 L 500.815 125.939 L 501.855 125.355 L 502.895 124.764 L 503.934 124.168 L 504.974 123.566 L 506.014 122.958 L 507.053 122.343 L 508.093 121.723 L 509.133 121.097 L 510.172 120.464 L 511.212 119.826 L 512.252 119.181 L 513.291 118.529 L 514.331 117.871 L 515.371 117.207 L 516.41 116.536 L 517.45 115.859 L 518.49 115.175 L 519.53 114.484 L 520.569 113.787 L 521.609 113.082 L 522.649 112.371 L 523.689 111.653 L 524.729 110.927 L 525.768 110.195 L 526.808 109.456 L 527.848 108.709 L 528.888 107.955 L 529.928 107.193 L 530.968 106.424 L 532.008 105.648 L 533.048 104.864 L 534.088 104.072 L 535.128 103.273 L 536.168 102.466 L 537.208 101.651 L 538.249 100.828 L 539.289 99.997 L 540.329 99.157 L 541.37 98.31 L 542.41 97.455 L 543.45 96.591 L 544.491 95.718 L 545.531 94.837 L 546.572 93.948 L 547.612 93.05 L 548.653 92.143 L 549.694 91.227 L 550.735 90.302 L 551.775 89.369 L 552.816 88.426 L 553.857 87.474 L 554.898 86.512 L 555.939 85.542 L 556.981 84.561 L 558.022 83.571 L 559.063 82.572 L 560.104 81.563 L 561.146 80.543 L 562.187 79.514 L 563.229 78.475 L 564.271 77.426 L 565.312 76.366 L 566.354 75.296 L 567.396 74.215 L 568.438 73.124 L 569.48 72.022 L 570.522 70.909 L 571.565 69.785 L 572.607 68.65 L 573.649 67.504 L 574.692 66.346 L 575.735 65.177 L 576.777 63.996 L 577.82 62.804 L 578.863 61.6 L 579.906 60.384 L 580.949 59.155 L 581.993 57.915 L 583.036 56.662 L 584.08 55.396 L 585.123 54.118 L 586.167 52.827 L 587.211 51.523 L 588.255 50.206 L 589.299 48.875 L 590.343 47.531 L 591.388 46.174 L 592.432 44.802 L 593.477 43.417 L 594.522 42.017 L 595.566 40.603 L 596.611 39.175 L 597.657 37.732 L 598.702 36.274 L 599.748 34.8 L 600.793 33.312 L 601.849 32.443 L 602.911 31.981 L 603.974 31.52 L 605.036 31.059 L 606.099 30.599 L 607.162 30.139 L 608.225 29.68 L 609.288 29.221 L 610.351 28.763 L 611.415 28.305 L 612.478 27.848 L 613.542 27.391 L 614.606 26.935 L 615.67 26.48 L 616.734 26.025 L 617.798 25.571 L 618.863 25.117 L 619.927 24.664 L 620.992 24.212 L 622.057 23.76 L 622.056 23.737 L 622.056 23.714 L 622.056 23.691 L 622.055 23.668 L 622.055 23.644 L 622.055 23.621 L 622.054 23.598 L 622.054 23.575 L 622.054 23.552 L 622.053 23.529 L 622.053 23.505 L 622.053 23.482 L 622.052 23.459 L 622.052 23.436 L 622.052 23.413 L 622.051 23.39 L 622.051 23.366 L 622.05 23.343 L 622.05 23.32 L 622.05 23.297 L 622.049 23.274 L 622.049 23.25 L 622.049 23.227 L 622.048 23.204 L 622.048 23.181 L 622.048 23.158 L 622.047 23.134 L 622.047 23.111 L 622.047 23.088 L 622.046 23.065 L 622.046 23.042 L 622.046 23.018 L 622.045 22.995 L 622.045 22.972 L 622.045 22.949 L 622.044 22.926 L 622.044 22.902 L 622.044 22.879 L 622.043 22.856 L 622.043 22.833 L 622.043 22.81 L 622.042 22.786 L 622.042 22.763 L 622.042 22.74 L 622.041 22.717 L 622.041 22.693 L 622.041 22.67 L 622.04 22.647 L 622.04 22.624 L 622.04 22.601 L 622.039 22.577 L 622.039 22.554 L 622.039 22.531 L 622.038 22.508 L 622.038 22.484 L 622.037 22.461 L 622.037 22.438 L 622.037 22.415 L 622.036 22.391 L 622.036 22.368 L 622.036 22.345 L 622.035 22.322 L 622.035 22.299 L 622.035 22.275 L 622.034 22.252 L 622.034 22.229 L 622.034 22.206 L 622.033 22.182 L 622.033 22.159 L 622.033 22.136 L 622.032 22.113 L 622.032 22.089 L 622.032 22.066 L 622.031 22.043 L 622.031 22.02 L 622.031 21.996 L 622.03 21.973 L 622.03 21.95 L 622.03 21.927 L 622.029 21.903 L 622.029 21.88 L 622.029 21.857 L 622.028 21.833 L 622.028 21.81 L 622.028 21.787 L 622.027 21.764 L 622.027 21.74 L 622.027 21.717 L 622.026 21.694 L 622.026 21.671 L 622.026 21.647 L 622.025 21.624 L 622.025 21.601 L 622.025 21.577 L 622.024 21.554 L 622.024 21.531 L 622.024 21.508 L 622.023 21.484 L 622.023 21.461 L 622.023 21.438 L 622.022 21.414 L 622.022 21.391 L 622.022 21.368 L 622.021 21.345 L 622.021 21.321 L 622.021 21.298 L 622.02 21.275 L 622.02 21.251 L 622.019 21.228 L 622.019 21.205 L 622.019 21.182 L 622.018 21.158 L 622.018 21.135 L 622.018 21.112 L 622.017 21.088 L 622.017 21.065 L 622.017 21.042 L 622.016 21.018 L 622.016 20.995 L 622.016 20.972 L 622.015 20.948 L 622.015 20.925 L 622.015 20.902 L 622.014 20.879 L 622.014 20.855 L 622.014 20.832 L 622.013 20.809 L 622.013 20.785 L 622.013 20.762 L 622.012 20.739 L 622.012 20.715 L 622.012 20.692 L 622.011 20.669 L 622.011 20.645 L 622.011 20.622 L 622.01 20.599 L 622.01 20.575 L 622.01 20.552 L 622.009 20.529 L 622.009 20.505 L 622.009 20.482 L 622.008 20.459 L 622.008 20.435 L 622.008 20.412 L 622.007 20.389 L 622.007 20.365 L 622.007 20.342 L 622.006 20.319 L 622.006 20.295 L 622.006 20.272 L 622.005 20.248 L 622.005 20.225 L 622.005 20.202 L 622.004 20.178 L 622.004 20.155 L 622.004 20.132 L 622.003 20.108 L 622.003 20.085 L 622.003 20.062 L 622.002 20.038 L 622.002 20.015 L 622.002 19.992 L 622.001 19.968 L 622.001 19.945 L 622.001 19.921 L 622 19.898 L 622 19.875 L 622 19.851 L 621.999 19.828 L 621.999 19.805 L 621.999 19.781 L 621.998 19.758 L 621.998 19.734 L 621.998 19.711 L 621.997 19.688 L 621.997 19.664 L 621.997 19.641 L 621.996 19.618 L 621.996 19.594 L 621.996 19.571 L 621.995 19.547 L 621.995 19.524 L 621.995 19.501 L 621.994 19.477 L 621.994 19.454 L 621.994 19.43 L 621.993 19.407 L 621.993 19.384 L 621.993 19.36 L 621.992 19.337 L 621.992 19.313 L 621.992 19.29 L 621.991 19.267 L 621.991 19.243 L 621.991 19.22 L 621.99 19.196 L 621.99 19.173 L 621.99 19.15 L 621.989 19.126 L 621.989 19.103 L 621.989 19.079 L 621.988 19.056 L 621.988 19.033 L 621.988 19.009 L 621.987 18.986 L 621.987 18.962 L 621.987 18.939 L 621.986 18.915 L 621.986 18.892 L 621.986 18.869 L 621.985 18.845 L 621.985 18.822 L 621.985 18.798 L 621.984 18.775 L 621.984 18.751 L 621.984 18.728 L 621.983 18.705 L 621.983 18.681 L 621.983 18.658 L 621.982 18.634 L 621.982 18.611 L 621.982 18.587 L 621.981 18.564 L 621.981 18.541 L 621.981 18.517 L 621.98 18.494 L 621.98 18.47 L 621.98 18.447 L 621.979 18.423 L 621.979 18.4 L 621.979 18.376 L 621.978 18.353 L 621.978 18.33 L 621.978 18.306 L 621.977 18.283 L 621.977 18.259 L 621.977 18.236 L 621.976 18.212 L 621.976 18.189 L 621.976 18.165 L 621.975 18.142 L 621.975 18.118 L 621.975 18.095 L 621.974 18.071 L 621.974 18.048 L 621.974 18.025 L 621.973 18.001 L 621.973 17.978 L 621.973 17.954 L 621.973 17.931 L 621.972 17.907 L 621.972 17.884 L 621.972 17.86 L 621.971 17.837 L 621.971 17.813 L 621.971 17.79 L 621.97 17.766 L 621.97 17.743 L 621.97 17.719 L 621.969 17.696 L 621.969 17.672 L 621.969 17.649 L 621.968 17.625 L 621.968 17.602 L 621.968 17.578 L 621.967 17.555 L 621.967 17.531 L 621.967 17.508 L 621.966 17.484 L 621.966 17.461 L 621.966 17.437 L 621.965 17.414 L 621.965 17.39 L 621.965 17.367 L 621.964 17.343 L 621.964 17.32 L 621.964 17.296 L 621.963 17.273 L 621.963 17.249 L 621.963 17.226 L 621.962 17.202 L 621.962 17.179 L 621.962 17.155 L 621.961 17.132 L 621.961 17.108 L 621.961 17.085 L 621.96 17.061 L 621.96 17.038 L 621.96 17.014 L 621.959 16.991 L 621.959 16.967 L 621.959 16.944 L 621.958 16.92 L 621.958 16.897 L 621.958 16.873 L 621.957 16.85 L 621.957 16.826 L 621.957 16.803 L 621.956 16.779 L 621.956 16.755 L 621.956 16.732 L 621.955 16.708 L 621.955 16.685 L 621.955 16.661 L 621.955 16.638 L 621.954 16.614 L 621.954 16.591 L 621.954 16.567 L 621.953 16.544 L 621.953 16.52 L 621.953 16.496 L 621.952 16.473 L 621.952 16.449 L 621.952 16.426 L 621.951 16.402 L 621.951 16.379 L 621.951 16.355 L 621.95 16.332 L 621.95 16.308 L 621.95 16.284 L 621.949 16.261 L 621.949 16.237 L 621.949 16.214 L 621.948 16.19 L 621.948 16.167 L 621.948 16.143 L 621.947 16.12 L 621.947 16.096 L 621.947 16.072 L 621.946 16.049 L 621.946 16.025 L 621.946 16.002 L 621.945 15.978 L 621.945 15.955 L 621.945 15.931 L 621.944 15.907 L 621.944 15.884 L 621.944 15.86 L 621.943 15.837 L 621.943 15.813 L 621.943 15.789 L 621.943 15.766 L 621.942 15.742 L 621.942 15.719 L 621.942 15.695 L 621.941 15.671 L 621.941 15.666 L 625.642 16.268 L 625.527 7.478 L 621.842 8.177 L 621.842 8.13 L 621.842 8.106 L 621.841 8.082 L 621.841 8.058 L 621.841 8.034 L 621.84 8.01 L 621.84 7.986 L 621.84 7.962 L 621.839 7.938 L 621.839 7.914 L 621.839 7.89 L 621.839 7.866 L 621.838 7.842 L 621.838 7.818 L 621.838 7.794 L 621.837 7.77 L 621.837 7.746 L 621.837 7.722 L 621.836 7.698 L 621.836 7.674 L 621.836 7.65 L 621.836 7.626 L 621.835 7.602 L 621.835 7.578 L 621.835 7.554 L 621.834 7.53 L 621.834 7.506 L 621.834 7.482 L 621.833 7.458 L 621.833 7.434 L 621.833 7.41 L 621.832 7.386 L 621.832 7.362 L 621.832 7.338 L 621.832 7.314 L 621.831 7.29 L 621.831 7.266 L 621.831 7.242 L 621.83 7.218 L 621.83 7.194 L 621.83 7.17 L 621.829 7.145 L 621.829 7.121 L 621.829 7.097 L 621.829 7.073 L 621.828 7.049 L 621.828 7.025 L 621.828 7.001 L 621.827 6.977 L 621.827 6.953 L 621.827 6.929 L 621.826 6.905 L 621.826 6.881 L 621.826 6.857 L 621.826 6.833 L 621.825 6.809 L 621.825 6.785 L 621.825 6.761 L 621.824 6.737 L 621.824 6.713 L 621.824 6.689 L 621.823 6.664 L 621.823 6.64 L 621.823 6.616 L 621.823 6.592 L 621.822 6.568 L 621.822 6.544 L 621.822 6.52 L 621.821 6.496 L 621.821 6.472 L 621.821 6.448 L 621.82 6.424 L 621.82 6.4 L 621.82 6.376 L 621.82 6.352 L 621.819 6.327 L 621.819 6.303 L 621.819 6.279 L 621.818 6.255 L 621.818 6.231 L 621.818 6.207 L 621.817 6.183 L 621.817 6.159 L 621.817 6.135 L 621.817 6.111 L 621.816 6.087 L 621.816 6.063 L 621.816 6.038 L 621.815 6.014 L 621.815 5.99 L 621.815 5.966 L 621.814 5.942 L 621.814 5.918 L 621.814 5.894 L 621.814 5.87 L 621.813 5.846 L 621.813 5.822 L 621.813 5.797 L 621.812 5.773 L 621.812 5.749 L 621.812 5.725 L 621.812 5.701 L 621.811 5.677 L 621.811 5.653 L 621.811 5.629 L 621.81 5.604 L 621.81 5.58 L 621.81 5.556 L 621.809 5.532 L 621.809 5.508 L 621.809 5.484 L 621.809 5.46 L 621.808 5.436 L 621.808 5.412 L 621.808 5.387 L 621.807 5.363 L 621.807 5.339 L 621.807 5.315 L 621.806 5.291 L 621.806 5.267 L 621.806 5.243 L 621.806 5.218 L 621.805 5.194 L 621.805 5.17 L 621.805 5.146 L 621.804 5.122 L 621.804 5.098 L 621.804 5.074 L 621.803 5.049 L 621.803 5.025 L 621.803 5.001 L 621.803 4.977 L 621.802 4.953 L 621.802 4.929 L 621.802 4.905 L 621.801 4.88 L 621.801 4.856 L 621.801 4.832 L 621.801 4.808 L 621.8 4.784 L 621.8 4.76 L 621.8 4.735 L 621.799 4.711 L 621.799 4.687 L 621.799 4.663 L 621.798 4.639 L 621.798 4.615 L 621.798 4.59 L 621.798 4.566 L 621.797 4.542 L 621.797 4.518 L 621.797 4.494 L 621.796 4.47 L 621.796 4.445 L 621.796 4.421 L 621.796 4.397 L 621.795 4.373 L 621.795 4.349 L 621.795 4.324 L 621.794 4.3 L 621.794 4.276 L 621.794 4.252 L 621.793 4.228 L 621.793 4.204 L 621.793 4.179 L 621.793 4.155 L 621.792 4.131 L 621.792 4.107 L 621.792 4.083 L 621.791 4.058 L 621.791 4.034 L 621.791 4.01 L 621.791 3.986 L 621.79 3.962 L 621.79 3.937 L 621.79 3.913 L 621.789 3.889 L 621.789 3.865 L 621.789 3.841 L 621.788 3.816 L 621.788 3.792 L 621.788 3.768 L 621.788 3.744 L 621.787 3.719 L 621.787 3.695 L 621.787 3.671 L 621.786 3.647 L 621.786 3.623 L 621.786 3.598 L 621.786 3.574 L 621.785 3.55 L 621.785 3.526 L 621.785 3.502 L 621.784 3.477 L 621.784 3.453 L 621.784 3.429 L 621.784 3.405 L 621.783 3.38 L 621.783 3.356 L 621.783 3.332 L 621.782 3.308 L 621.782 3.283 L 621.782 3.259 L 621.781 3.235 L 621.781 3.211 L 621.781 3.186 L 621.781 3.162 L 621.78 3.138 L 621.78 3.114 L 621.78 3.089 L 621.779 3.065 L 621.779 3.041 L 621.779 3.017 L 621.779 2.992 L 621.778 2.968 L 621.778 2.944 L 621.778 2.92 L 621.777 2.895 L 621.777 2.871 L 621.777 2.847 L 621.777 2.823 L 621.776 2.798 L 621.776 2.774 L 621.776 2.75 L 621.775 2.726 L 621.775 2.701 L 621.775 2.677 L 621.774 2.653 L 621.774 2.629 L 621.774 2.604 L 621.774 2.58 L 621.773 2.556 L 621.773 2.531 L 621.773 2.507 L 621.772 2.483 L 621.772 2.459 L 621.772 2.434 L 621.772 2.41 L 621.771 2.386 L 621.771 2.361 L 621.771 2.337 L 621.77 2.313 L 621.77 2.289 L 621.77 2.264 L 621.77 2.24 L 621.769 2.216 L 621.769 2.191 L 621.769 2.167 L 621.768 2.143 L 621.768 2.119 L 621.768 2.094 L 621.768 2.07 L 621.767 2.046 L 621.767 2.021 L 621.767 1.997 L 621.766 1.973 L 621.766 1.948 L 621.766 1.924 L 621.766 1.9 L 621.765 1.876 L 621.765 1.851 L 621.765 1.827 L 621.764 1.803 L 621.764 1.778 L 621.764 1.754 L 621.764 1.73 L 621.763 1.705 L 621.763 1.681 L 621.763 1.657 L 621.762 1.632 L 621.762 1.608 L 621.762 1.584 L 621.762 1.559 L 621.761 1.535 L 621.761 1.511 L 621.761 1.486 L 621.76 1.462 L 621.76 1.438 L 621.76 1.413 L 621.76 1.389 L 621.759 1.365 L 621.759 1.34 L 621.759 1.316 L 621.758 1.292 L 621.758 1.267 L 621.758 1.243 L 621.757 1.219 L 621.757 1.194 L 621.757 1.17 L 621.757 1.146 L 621.756 1.121 L 621.756 1.097 L 621.756 1.073 L 621.755 1.048 L 621.755 1.024 L 621.755 1 L 621.755 0.975 L 621.754 0.951 L 621.754 0.927 L 621.754 0.902 L 621.753 0.878 L 621.753 0.853 L 621.753 0.829 L 621.753 0.805 L 621.752 0.78 L 621.752 0.756 L 621.752 0.732 L 621.751 0.707 L 621.751 0.683 L 621.751 0.659 L 621.751 0.634 L 621.75 0.61 L 621.75 0.585 L 621.75 0.561 L 621.75 0.537 L 621.749 0.512 L 621.749 0.488 L 621.749 0.463 L 621.748 0.439 L 621.748 0.415 L 621.748 0.39 L 621.748 0.366 L 621.747 0.342 L 621.747 0.317 L 621.747 0.293 L 621.746 0.268 L 621.746 0.244 L 621.746 0.22 L 621.746 0.195 L 621.745 0.171 L 621.745 0.146 L 621.745 0.122 L 621.744 0.098 L 621.744 0.073 L 621.744 0.049 L 621.744 0.024 L 621.743 0 Z" vector-effect="non-scaling-stroke"/><path d="M 515.247 70.789 L 515.248 70.838 L 515.249 70.888 L 515.25 70.937 L 515.251 70.986 L 515.252 71.036 L 515.253 71.085 L 515.254 71.134 L 515.255 71.184 L 515.256 71.233 L 515.257 71.282 L 515.258 71.331 L 515.259 71.381 L 515.26 71.43 L 515.262 71.479 L 515.263 71.529 L 515.264 71.578 L 515.265 71.627 L 515.266 71.676 L 515.267 71.726 L 515.268 71.775 L 515.269 71.824 L 515.27 71.873 L 515.271 71.922 L 515.272 71.972 L 515.273 72.021 L 515.274 72.07 L 515.275 72.119 L 515.276 72.168 L 515.277 72.217 L 515.278 72.267 L 515.279 72.316 L 515.28 72.365 L 515.281 72.414 L 515.282 72.463 L 515.283 72.512 L 515.284 72.561 L 515.285 72.61 L 515.286 72.66 L 515.287 72.709 L 515.288 72.758 L 515.289 72.807 L 515.29 72.856 L 515.291 72.905 L 515.292 72.954 L 515.293 73.003 L 515.294 73.052 L 515.295 73.101 L 515.296 73.15 L 515.297 73.199 L 515.298 73.248 L 515.299 73.297 L 515.3 73.346 L 515.301 73.395 L 515.302 73.444 L 515.304 73.493 L 515.305 73.542 L 515.306 73.591 L 515.307 73.64 L 515.308 73.689 L 515.309 73.738 L 515.31 73.787 L 515.311 73.836 L 515.312 73.885 L 515.313 73.933 L 515.314 73.982 L 515.315 74.031 L 515.316 74.08 L 515.317 74.129 L 515.318 74.178 L 515.319 74.227 L 515.32 74.276 L 515.321 74.324 L 515.322 74.373 L 515.323 74.422 L 515.324 74.471 L 515.325 74.52 L 515.326 74.569 L 515.327 74.617 L 515.328 74.666 L 515.329 74.715 L 515.33 74.764 L 515.331 74.813 L 515.332 74.861 L 515.334 74.91 L 515.335 74.959 L 515.336 75.008 L 515.337 75.056 L 515.338 75.105 L 515.339 75.154 L 515.34 75.203 L 515.341 75.251 L 515.342 75.3 L 515.343 75.349 L 515.344 75.397 L 515.345 75.446 L 515.346 75.495 L 515.347 75.543 L 515.348 75.592 L 515.349 75.641 L 515.35 75.689 L 515.351 75.738 L 515.352 75.787 L 515.353 75.835 L 515.354 75.884 L 515.355 75.933 L 515.356 75.981 L 515.358 76.03 L 515.359 76.078 L 515.36 76.127 L 515.361 76.175 L 515.362 76.224 L 515.363 76.273 L 515.364 76.321 L 515.365 76.37 L 515.366 76.418 L 515.367 76.467 L 515.368 76.515 L 515.369 76.564 L 515.37 76.612 L 515.371 76.661 L 515.372 76.709 L 515.373 76.758 L 515.374 76.806 L 515.375 76.855 L 515.376 76.903 L 515.377 76.952 L 515.378 77 L 515.38 77.049 L 515.381 77.097 L 515.382 77.145 L 515.383 77.194 L 515.384 77.242 L 515.385 77.291 L 515.386 77.339 L 515.387 77.388 L 515.388 77.436 L 515.389 77.484 L 515.39 77.533 L 515.391 77.581 L 515.392 77.629 L 515.393 77.678 L 515.394 77.726 L 515.395 77.774 L 515.396 77.823 L 515.397 77.871 L 515.398 77.919 L 515.4 77.968 L 515.401 78.016 L 515.402 78.064 L 515.403 78.113 L 515.404 78.161 L 515.405 78.209 L 515.406 78.257 L 515.407 78.306 L 515.408 78.354 L 515.409 78.402 L 515.41 78.45 L 515.411 78.499 L 515.412 78.547 L 515.413 78.595 L 515.414 78.643 L 515.415 78.692 L 515.417 78.74 L 515.418 78.788 L 515.419 78.836 L 515.42 78.884 L 515.421 78.932 L 515.422 78.981 L 515.423 79.029 L 515.424 79.077 L 515.425 79.125 L 515.426 79.173 L 515.427 79.221 L 515.428 79.269 L 515.429 79.318 L 515.43 79.366 L 515.431 79.414 L 515.432 79.462 L 515.434 79.51 L 515.435 79.558 L 515.436 79.606 L 515.437 79.654 L 515.438 79.702 L 515.439 79.75 L 515.44 79.798 L 515.441 79.846 L 515.442 79.894 L 515.443 79.942 L 515.444 79.99 L 515.445 80.038 L 515.446 80.086 L 515.447 80.134 L 515.448 80.182 L 515.45 80.23 L 515.451 80.278 L 515.452 80.326 L 515.453 80.374 L 515.454 80.422 L 515.455 80.47 L 515.456 80.518 L 515.457 80.566 L 515.458 80.614 L 515.459 80.662 L 515.46 80.71 L 515.461 80.757 L 515.462 80.805 L 515.464 80.853 L 515.465 80.901 L 515.466 80.949 L 515.467 80.997 L 515.468 81.045 L 515.469 81.092 L 515.47 81.14 L 515.471 81.188 L 515.472 81.236 L 515.473 81.284 L 515.474 81.332 L 515.475 81.379 L 515.476 81.427 L 515.478 81.475 L 515.479 81.523 L 515.48 81.571 L 515.481 81.618 L 515.482 81.666 L 515.483 81.714 L 515.484 81.762 L 515.485 81.809 L 515.486 81.857 L 515.487 81.905 L 515.488 81.952 L 515.489 82 L 515.49 82.048 L 515.492 82.096 L 515.493 82.143 L 515.494 82.191 L 515.495 82.239 L 515.496 82.286 L 515.497 82.334 L 515.498 82.382 L 515.499 82.429 L 515.5 82.477 L 515.501 82.524 L 515.502 82.572 L 515.503 82.62 L 515.505 82.667 L 515.506 82.715 L 515.507 82.763 L 515.508 82.81 L 515.509 82.858 L 515.51 82.905 L 515.511 82.953 L 515.512 83 L 515.513 83.048 L 515.514 83.095 L 515.515 83.143 L 515.517 83.191 L 515.518 83.238 L 515.519 83.286 L 515.52 83.333 L 515.521 83.381 L 515.522 83.428 L 515.523 83.476 L 515.524 83.523 L 515.525 83.57 L 515.526 83.618 L 515.527 83.665 L 515.529 83.713 L 515.53 83.76 L 515.531 83.808 L 515.532 83.855 L 515.533 83.903 L 515.534 83.95 L 515.535 83.997 L 515.536 84.045 L 515.537 84.092 L 515.538 84.14 L 515.539 84.187 L 515.541 84.234 L 515.542 84.282 L 515.543 84.329 L 515.544 84.376 L 515.545 84.424 L 515.546 84.471 L 515.547 84.518 L 515.548 84.566 L 515.549 84.613 L 515.55 84.66 L 515.552 84.708 L 515.553 84.755 L 515.554 84.802 L 515.555 84.849 L 515.556 84.897 L 515.557 84.944 L 515.558 84.991 L 515.559 85.039 L 515.56 85.086 L 515.561 85.133 L 515.563 85.18 L 515.564 85.227 L 515.565 85.275 L 515.566 85.322 L 515.567 85.369 L 515.568 85.416 L 515.569 85.463 L 515.57 85.511 L 515.571 85.558 L 515.572 85.605 L 515.574 85.652 L 515.575 85.699 L 515.576 85.746 L 515.577 85.794 L 515.578 85.841 L 515.579 85.888 L 515.58 85.935 L 515.581 85.982 L 515.582 86.029 L 515.584 86.076 L 515.585 86.123 L 515.586 86.17 L 515.587 86.217 L 515.588 86.264 L 515.589 86.312 L 515.59 86.359 L 515.591 86.406 L 515.592 86.453 L 515.593 86.5 L 515.595 86.547 L 515.596 86.594 L 515.597 86.641 L 515.598 86.688 L 515.599 86.735 L 515.6 86.782 L 515.601 86.829 L 515.602 86.876 L 515.603 86.923 L 515.605 86.97 L 515.606 87.016 L 515.607 87.063 L 515.608 87.11 L 515.609 87.157 L 515.61 87.204 L 515.611 87.251 L 515.612 87.298 L 515.614 87.345 L 515.615 87.392 L 515.616 87.439 L 515.617 87.486 L 515.618 87.532 L 515.619 87.579 L 515.62 87.626 L 515.621 87.673 L 515.622 87.72 L 515.624 87.767 L 515.625 87.813 L 515.626 87.86 L 515.627 87.907 L 515.628 87.954 L 515.629 88.001 L 515.63 88.048 L 515.631 88.094 L 515.633 88.141 L 515.634 88.188 L 515.635 88.235 L 515.636 88.281 L 515.637 88.328 L 515.638 88.375 L 515.639 88.422 L 515.64 88.468 L 515.641 88.515 L 515.643 88.562 L 515.644 88.608 L 515.645 88.655 L 515.646 88.702 L 515.647 88.749 L 515.648 88.795 L 515.649 88.842 L 515.65 88.889 L 515.652 88.935 L 515.653 88.982 L 515.654 89.028 L 515.655 89.075 L 515.656 89.122 L 515.657 89.168 L 515.658 89.215 L 515.659 89.262 L 515.661 89.308 L 515.662 89.355 L 515.663 89.401 L 515.664 89.448 L 515.665 89.494 L 515.666 89.541 L 515.667 89.588 L 515.669 89.634 L 515.67 89.681 L 515.671 89.727 L 515.672 89.774 L 515.673 89.82 L 515.674 89.867 L 515.675 89.913 L 515.676 89.96 L 515.678 90.006 L 515.679 90.053 L 515.68 90.099 L 515.681 90.146 L 515.682 90.192 L 515.683 90.239 L 515.684 90.285 L 515.686 90.332 L 515.687 90.378 L 515.688 90.424 L 515.689 90.471 L 515.69 90.517 L 515.691 90.564 L 515.692 90.61 L 515.693 90.656 L 515.695 90.703 L 515.696 90.749 L 515.697 90.796 L 515.698 90.842 L 515.699 90.888 L 515.7 90.935 L 515.701 90.981 L 515.703 91.027 L 515.704 91.074 L 515.705 91.12 L 515.706 91.166 L 515.707 91.213 L 515.708 91.259 L 515.709 91.305 L 515.711 91.351 L 515.712 91.398 L 515.713 91.444 L 515.714 91.49 L 515.715 91.536 L 515.716 91.583 L 515.717 91.629 L 515.719 91.675 L 515.72 91.721 L 515.721 91.768 L 515.722 91.814 L 515.723 91.86 L 515.724 91.906 L 515.725 91.952 L 515.727 91.999 L 515.728 92.045 L 515.729 92.091 L 515.73 92.137 L 515.731 92.183 L 515.732 92.229 L 515.733 92.276 L 515.735 92.322 L 515.736 92.368 L 515.737 92.414 L 515.738 92.46 L 515.739 92.506 L 515.74 92.552 L 515.741 92.598 L 515.743 92.644 L 515.744 92.691 L 515.745 92.737 L 515.746 92.783 L 515.747 92.829 L 515.748 92.875 L 515.75 92.921 L 515.751 92.967 L 515.752 93.013 L 515.753 93.059 L 515.754 93.105 L 515.755 93.151 L 515.756 93.197 L 515.758 93.243 L 515.759 93.289 L 515.76 93.335 L 515.761 93.381 L 515.762 93.427 L 515.763 93.473 L 515.765 93.519 L 515.766 93.565 L 515.767 93.611 L 515.768 93.656 L 515.769 93.702 L 515.77 93.748 L 515.771 93.794 L 515.773 93.84 L 515.774 93.886 L 515.775 93.932 L 515.776 93.978 L 515.777 94.024 L 515.778 94.069 L 515.78 94.115 L 515.781 94.161 L 515.782 94.207 L 515.783 94.253 L 515.784 94.299 L 515.785 94.345 L 515.787 94.39 L 515.788 94.436 L 515.789 94.482 L 515.79 94.528 L 515.791 94.574 L 515.792 94.619 L 515.793 94.665 L 515.795 94.711 L 515.796 94.757 L 515.797 94.802 L 515.798 94.848 L 515.799 94.894 L 515.8 94.94 L 515.802 94.985 L 515.803 95.031 L 515.804 95.077 L 515.805 95.122 L 515.806 95.168 L 515.807 95.214 L 515.809 95.259 L 515.81 95.305 L 515.811 95.351 L 515.812 95.396 L 515.813 95.442 L 515.814 95.488 L 515.816 95.533 L 515.817 95.579 L 515.818 95.625 L 515.819 95.67 L 515.82 95.716 L 515.821 95.761 L 515.823 95.807 L 515.824 95.853 L 515.825 95.898 L 515.826 95.944 L 515.827 95.989 L 515.829 96.035 L 515.83 96.08 L 515.831 96.126 L 515.832 96.171 L 515.833 96.217 L 515.834 96.263 L 515.836 96.308 L 515.837 96.354 L 515.838 96.399 L 515.839 96.445 L 515.84 96.49 L 515.841 96.536 L 515.843 96.581 L 515.844 96.626 L 515.845 96.672 L 515.846 96.717 L 515.847 96.763 L 515.849 96.808 L 515.85 96.854 L 515.851 96.899 L 515.852 96.945 L 515.853 96.99 L 515.854 97.035 L 515.856 97.081 L 515.857 97.126 L 515.858 97.171 L 515.859 97.217 L 515.86 97.262 L 515.861 97.308 L 515.863 97.353 L 515.864 97.398 L 515.865 97.444 L 515.866 97.489 L 515.867 97.534 L 515.869 97.58 L 515.87 97.625 L 515.871 97.67 L 515.872 97.715 L 515.873 97.761 L 515.874 97.806 L 515.876 97.851 L 515.877 97.897 L 515.878 97.942 L 515.879 97.987 L 515.88 98.032 L 515.882 98.078 L 515.883 98.123 L 515.884 98.168 L 515.885 98.213 L 515.886 98.258 L 515.888 98.304 L 515.889 98.349 L 515.89 98.394 L 515.891 98.439 L 515.892 98.484 L 515.893 98.53 L 515.895 98.575 L 515.896 98.62 L 515.897 98.665 L 515.898 98.71 L 515.899 98.755 L 515.901 98.8 L 515.902 98.845 L 515.903 98.891 L 515.904 98.936 L 515.905 98.981 L 515.907 99.026 L 515.908 99.071 L 515.909 99.116 L 515.91 99.161 L 515.911 99.206 L 515.913 99.251 L 515.914 99.296 L 515.915 99.341 L 515.916 99.386 L 515.917 99.431 L 515.919 99.476 L 515.92 99.521 L 515.921 99.566 L 515.922 99.611 L 515.923 99.656 L 515.925 99.701 L 515.926 99.746 L 515.927 99.791 L 515.928 99.836 L 515.929 99.881 L 515.931 99.926 L 515.932 99.971 L 515.933 100.016 L 515.934 100.061 L 515.935 100.106 L 515.937 100.151 L 515.938 100.196 L 515.939 100.241 L 515.94 100.285 L 515.941 100.33 L 515.943 100.375 L 515.944 100.42 L 515.945 100.465 L 515.946 100.51 L 515.947 100.555 L 515.949 100.599 L 515.95 100.644 L 515.951 100.689 L 515.952 100.734 L 515.953 100.779 L 515.955 100.824 L 515.956 100.868 L 515.957 100.913 L 515.958 100.958 L 515.959 101.003 L 515.961 101.047 L 515.962 101.092 L 515.963 101.137 L 515.964 101.182 L 515.965 101.227 L 515.967 101.271 L 515.968 101.316 L 515.969 101.361 L 515.97 101.405 L 515.971 101.45 L 515.973 101.495 L 515.974 101.539 L 515.975 101.584 L 515.976 101.629 L 515.978 101.674 L 515.979 101.718 L 515.98 101.763 L 515.981 101.807 L 515.982 101.852 L 515.984 101.897 L 515.985 101.941 L 515.986 101.986 L 515.987 102.031 L 515.988 102.075 L 515.99 102.12 L 515.991 102.164 L 515.992 102.209 L 515.993 102.254 L 515.994 102.298 L 515.996 102.343 L 515.997 102.387 L 515.998 102.432 L 515.999 102.476 L 516.001 102.521 L 516.002 102.565 L 516.003 102.61 L 516.004 102.654 L 516.005 102.699 L 516.007 102.743 L 516.008 102.788 L 516.009 102.832 L 516.01 102.877 L 516.012 102.921 L 516.013 102.966 L 516.014 103.01 L 516.015 103.055 L 516.016 103.099 L 516.018 103.144 L 516.019 103.188 L 516.02 103.232 L 516.021 103.277 L 516.023 103.321 L 516.024 103.366 L 516.025 103.41 L 516.026 103.454 L 516.027 103.499 L 516.029 103.543 L 516.03 103.588 L 516.031 103.632 L 516.032 103.676 L 516.034 103.721 L 516.035 103.765 L 516.036 103.809 L 516.037 103.854 L 516.038 103.898 L 516.04 103.942 L 516.041 103.987 L 516.042 104.031 L 516.043 104.075 L 516.045 104.119 L 516.046 104.164 L 516.047 104.208 L 516.048 104.252 L 516.05 104.296 L 516.051 104.341 L 516.052 104.385 L 516.053 104.429 L 516.054 104.473 L 516.056 104.518 L 516.057 104.562 L 516.058 104.606 L 516.059 104.65 L 516.061 104.694 L 516.062 104.739 L 516.063 104.783 L 516.064 104.827 L 516.066 104.871 L 516.067 104.915 L 516.068 104.959 L 516.069 105.004 L 516.07 105.048 L 516.072 105.092 L 516.073 105.136 L 516.074 105.18 L 516.075 105.224 L 516.077 105.268 L 516.078 105.312 L 516.079 105.356 L 516.08 105.4 L 516.082 105.445 L 516.083 105.489 L 516.084 105.533 L 516.085 105.577 L 516.087 105.621 L 516.088 105.665 L 516.089 105.709 L 516.09 105.753 L 516.092 105.797 L 516.093 105.841 L 516.094 105.885 L 516.095 105.929 L 516.096 105.973 L 516.098 106.017 L 516.099 106.061 L 516.1 106.105 L 516.101 106.149 L 516.103 106.193 L 516.104 106.237 L 516.105 106.28 L 516.106 106.324 L 516.108 106.368 L 516.109 106.412 L 516.11 106.456 L 516.111 106.5 L 516.113 106.544 L 516.114 106.588 L 516.115 106.632 L 516.116 106.676 L 516.118 106.719 L 516.119 106.763 L 516.12 106.807 L 516.121 106.851 L 516.123 106.895 L 516.124 106.939 L 516.125 106.982 L 516.126 107.026 L 516.128 107.07 L 516.129 107.114 L 516.13 107.158 L 516.131 107.201 L 516.133 107.245 L 516.134 107.289 L 516.135 107.333 L 516.136 107.377 L 516.138 107.42 L 516.139 107.464 L 516.14 107.508 L 516.141 107.551 L 516.143 107.595 L 516.144 107.639 L 516.145 107.683 L 516.146 107.726 L 516.148 107.77 L 516.149 107.814 L 516.15 107.857 L 516.151 107.901 L 516.153 107.945 L 516.154 107.988 L 516.155 108.032 L 516.156 108.076 L 516.158 108.119 L 516.159 108.163 L 516.16 108.207 L 516.161 108.25 L 516.163 108.294 L 516.164 108.337 L 516.165 108.381 L 516.167 108.425 L 516.168 108.468 L 516.169 108.512 L 516.17 108.555 L 516.172 108.599 L 516.173 108.642 L 516.174 108.686 L 516.175 108.729 L 516.177 108.773 L 516.178 108.817 L 516.179 108.86 L 516.18 108.904 L 516.182 108.947 L 516.183 108.991 L 516.184 109.034 L 516.185 109.078 L 516.187 109.121 L 516.188 109.164 L 516.189 109.208 L 516.191 109.251 L 516.192 109.295 L 516.193 109.338 L 516.194 109.382 L 516.196 109.425 L 516.197 109.469 L 516.198 109.512 L 516.199 109.555 L 516.201 109.599 L 516.202 109.642 L 516.203 109.686 L 516.204 109.729 L 516.206 109.772 L 516.207 109.816 L 516.208 109.859 L 516.21 109.902 L 516.211 109.946 L 516.212 109.989 L 516.213 110.032 L 516.215 110.076 L 516.216 110.119 L 516.217 110.162 L 516.218 110.206 L 516.22 110.249 L 516.221 110.292 L 516.222 110.335 L 516.224 110.379 L 516.225 110.422 L 516.226 110.465 L 516.227 110.508 L 516.229 110.552 L 516.23 110.595 L 516.231 110.638 L 516.232 110.681 L 516.234 110.725 L 516.235 110.768 L 516.236 110.811 L 516.238 110.854 L 516.239 110.897 L 516.24 110.941 L 516.241 110.984 L 516.243 111.027 L 516.244 111.07 L 516.245 111.113 L 516.247 111.156 L 516.248 111.2 L 516.249 111.243 L 516.25 111.286 L 516.252 111.329 L 516.253 111.372 L 516.254 111.415 L 516.256 111.458 L 516.257 111.501 L 516.258 111.544 L 516.259 111.587 L 516.261 111.631 L 516.262 111.674 L 516.263 111.717 L 516.264 111.76 L 516.266 111.803 L 516.267 111.846 L 516.268 111.889 L 516.27 111.932 L 516.271 111.975 L 516.272 112.018 L 516.273 112.061 L 516.275 112.104 L 516.276 112.147 L 516.277 112.19 L 516.279 112.233 L 516.28 112.276 L 516.281 112.319 L 516.283 112.362 L 516.284 112.405 L 516.285 112.447 L 516.286 112.49 L 516.288 112.533 L 516.289 112.576 L 516.29 112.619 L 516.292 112.662 L 516.293 112.705 L 516.294 112.748 L 516.295 112.791 L 516.297 112.834 L 516.298 112.876 L 516.299 112.919 L 516.301 112.962 L 516.302 113.005 L 516.303 113.048 L 516.304 113.091 L 516.306 113.133 L 516.307 113.176 L 516.308 113.219 L 516.31 113.262 L 516.311 113.305 L 516.312 113.347 L 516.314 113.39 L 516.315 113.433 L 516.316 113.476 L 516.317 113.519 L 516.319 113.561 L 516.32 113.604 L 516.321 113.647 L 516.323 113.689 L 516.324 113.732 L 516.325 113.775 L 516.327 113.818 L 516.328 113.86 L 516.329 113.903 L 516.33 113.946 L 516.332 113.988 L 516.333 114.031 L 516.334 114.074 L 516.336 114.116 L 516.337 114.159 L 516.338 114.202 L 516.34 114.244 L 516.341 114.287 L 516.342 114.33 L 516.343 114.372 L 516.345 114.415 L 516.346 114.457 L 516.347 114.5 L 516.349 114.543 L 516.35 114.585 L 516.351 114.628 L 516.353 114.67 L 516.354 114.713 L 516.355 114.755 L 516.357 114.798 L 516.358 114.841 L 516.359 114.883 L 516.36 114.926 L 516.362 114.968 L 516.363 115.011 L 516.364 115.053 L 516.366 115.096 L 516.367 115.138 L 516.368 115.181 L 516.37 115.223 L 516.371 115.266 L 516.372 115.308 L 516.374 115.35 L 516.375 115.393 L 516.376 115.435 L 516.377 115.478 L 516.379 115.52 L 516.38 115.563 L 516.381 115.605 L 516.383 115.647 L 516.384 115.69 L 516.385 115.732 L 516.387 115.775 L 516.388 115.817 L 516.389 115.859 L 516.391 115.902 L 516.392 115.944 L 516.393 115.986 L 516.395 116.029 L 516.396 116.071 L 516.397 116.113 L 516.399 116.156 L 516.4 116.198 L 516.401 116.24 L 516.402 116.283 L 516.404 116.325 L 516.405 116.367 L 516.406 116.41 L 516.408 116.452 L 516.409 116.494 L 516.41 116.536 M 0 177.805 L 0.002 177.849 L 0.004 177.893 L 0.005 177.936 L 0.007 177.98 L 0.009 178.023 L 0.011 178.067 L 0.013 178.11 L 0.014 178.154 L 0.016 178.197 L 0.018 178.241 L 0.02 178.284 L 0.021 178.328 L 0.023 178.371 L 0.025 178.415 L 0.027 178.458 L 0.029 178.501 L 0.03 178.545 L 0.032 178.588 L 0.034 178.632 L 0.036 178.675 L 0.037 178.718 L 0.039 178.762 L 0.041 178.805 L 0.043 178.848 L 0.045 178.892 L 0.046 178.935 L 0.048 178.978 L 0.05 179.022 L 0.052 179.065 L 0.054 179.108 L 0.055 179.151 L 0.057 179.195 L 0.059 179.238 L 0.061 179.281 L 0.062 179.324 L 0.064 179.367 L 0.066 179.411 L 0.068 179.454 L 0.069 179.497 L 0.071 179.54 L 0.073 179.583 L 0.075 179.626 L 0.077 179.67 L 0.078 179.713 L 0.08 179.756 L 0.082 179.799 L 0.084 179.842 L 0.085 179.885 L 0.087 179.928 L 0.089 179.971 L 0.091 180.014 L 0.093 180.057 L 0.094 180.1 L 0.096 180.143 L 0.098 180.186 L 0.1 180.229 L 0.101 180.272 L 0.103 180.315 L 0.105 180.358 L 0.107 180.401 L 0.108 180.444 L 0.11 180.487 L 0.112 180.53 L 0.114 180.573 L 0.115 180.616 L 0.117 180.658 L 0.119 180.701 L 0.121 180.744 L 0.123 180.787 L 0.124 180.83 L 0.126 180.873 L 0.128 180.916 L 0.13 180.958 L 0.131 181.001 L 0.133 181.044 L 0.135 181.087 L 0.137 181.129 L 0.138 181.172 L 0.14 181.215 L 0.142 181.258 L 0.144 181.3 L 0.145 181.343 L 0.147 181.386 L 0.149 181.429 L 0.151 181.471 L 0.152 181.514 L 0.154 181.557 L 0.156 181.599 L 0.158 181.642 L 0.159 181.684 L 0.161 181.727 L 0.163 181.77 L 0.165 181.812 L 0.166 181.855 L 0.168 181.897 L 0.17 181.94 L 0.172 181.983 L 0.174 182.025 L 0.175 182.068 L 0.177 182.11 L 0.179 182.153 L 0.181 182.195 L 0.182 182.238 L 0.184 182.28 L 0.186 182.323 L 0.188 182.365 L 0.189 182.407 L 0.191 182.45 L 0.193 182.492 L 0.194 182.535 L 0.196 182.577 L 0.198 182.62 L 0.2 182.662 L 0.201 182.704 L 0.203 182.747 L 0.205 182.789 L 0.207 182.831 L 0.208 182.874 L 0.21 182.916 L 0.212 182.958 L 0.214 183.001 L 0.215 183.043 L 0.217 183.085 L 0.219 183.127 L 0.221 183.17 L 0.222 183.212 L 0.224 183.254 L 0.226 183.296 L 0.228 183.339 L 0.229 183.381 L 0.231 183.423 L 0.233 183.465 L 0.235 183.507 L 0.236 183.549 L 0.238 183.592 L 0.24 183.634 L 0.242 183.676 L 0.243 183.718 L 0.245 183.76 L 0.247 183.802 L 0.248 183.844 L 0.25 183.886 L 0.252 183.928 L 0.254 183.97 L 0.255 184.013 L 0.257 184.055 L 0.259 184.097 L 0.261 184.139 L 0.262 184.181 L 0.264 184.223 L 0.266 184.265 L 0.268 184.307 L 0.269 184.348 L 0.271 184.39 L 0.273 184.432 L 0.274 184.474 L 0.276 184.516 L 0.278 184.558 L 0.28 184.6 L 0.281 184.642 L 0.283 184.684 L 0.285 184.726 L 0.287 184.767 L 0.288 184.809 L 0.29 184.851 L 0.292 184.893 L 0.293 184.935 L 0.295 184.977 L 0.297 185.018 L 0.299 185.06 L 0.3 185.102 L 0.302 185.144 L 0.304 185.185 L 0.306 185.227 L 0.307 185.269 L 0.309 185.311 L 0.311 185.352 L 0.312 185.394 L 0.314 185.436 L 0.316 185.477 L 0.318 185.519 L 0.319 185.561 L 0.321 185.602 L 0.323 185.644 L 0.324 185.686 L 0.326 185.727 L 0.328 185.769 L 0.33 185.81 L 0.331 185.852 L 0.333 185.894 L 0.335 185.935 L 0.336 185.977 L 0.338 186.018 L 0.34 186.06 L 0.342 186.101 L 0.343 186.143 L 0.345 186.184 L 0.347 186.226 L 0.348 186.267 L 0.35 186.309 L 0.352 186.35 L 0.354 186.392 L 0.355 186.433 L 0.357 186.474 L 0.359 186.516 L 0.36 186.557 L 0.362 186.599 L 0.364 186.64 L 0.366 186.681 L 0.367 186.723 L 0.369 186.764 L 0.371 186.805 L 0.372 186.847 L 0.374 186.888 L 0.376 186.929 L 0.378 186.971 L 0.379 187.012 L 0.381 187.053 L 0.383 187.095 L 0.384 187.136 L 0.386 187.177 L 0.388 187.218 L 0.389 187.259 L 0.391 187.301 L 0.393 187.342 L 0.395 187.383 L 0.396 187.424 L 0.398 187.465 L 0.4 187.507 L 0.401 187.548 L 0.403 187.589 L 0.405 187.63 L 0.406 187.671 L 0.408 187.712 L 0.41 187.753 L 0.412 187.794 L 0.413 187.835 L 0.415 187.877 L 0.417 187.918 L 0.418 187.959 L 0.42 188 L 0.422 188.041 L 0.423 188.082 L 0.425 188.123 L 0.427 188.164 L 0.429 188.205 L 0.43 188.246 L 0.432 188.287 L 0.434 188.328 L 0.435 188.369 L 0.437 188.409 L 0.439 188.45 L 0.44 188.491 L 0.442 188.532 L 0.444 188.573 L 0.445 188.614 L 0.447 188.655 L 0.449 188.696 L 0.451 188.737 L 0.452 188.777 L 0.454 188.818 L 0.456 188.859 L 0.457 188.9 L 0.459 188.941 L 0.461 188.981 L 0.462 189.022 L 0.464 189.063 L 0.466 189.104 L 0.467 189.144 L 0.469 189.185 L 0.471 189.226 L 0.473 189.267 L 0.474 189.307 L 0.476 189.348 L 0.478 189.389 L 0.479 189.429 L 0.481 189.47 L 0.483 189.511 L 0.484 189.551 L 0.486 189.592 L 0.488 189.633 L 0.489 189.673 L 0.491 189.714 L 0.493 189.754 L 0.494 189.795 L 0.496 189.836 L 0.498 189.876 L 0.499 189.917 L 0.501 189.957 L 0.503 189.998 L 0.504 190.038 L 0.506 190.079 L 0.508 190.119 L 0.51 190.16 L 0.511 190.2 L 0.513 190.241 L 0.515 190.281 L 0.516 190.322 L 0.518 190.362 L 0.52 190.402 L 0.521 190.443 L 0.523 190.483 L 0.525 190.524 L 0.526 190.564 L 0.528 190.604 L 0.53 190.645 L 0.531 190.685 L 0.533 190.725 L 0.535 190.766 L 0.536 190.806 L 0.538 190.846 L 0.54 190.887 L 0.541 190.927 L 0.543 190.967 L 0.545 191.007 L 0.546 191.048 L 0.548 191.088 L 0.55 191.128 L 0.551 191.168 L 0.553 191.209 L 0.555 191.249 L 0.556 191.289 L 0.558 191.329 L 0.56 191.369 L 0.561 191.41 L 0.563 191.45 L 0.565 191.49 L 0.566 191.53 L 0.568 191.57 L 0.57 191.61 L 0.571 191.65 L 0.573 191.69 L 0.575 191.731 L 0.576 191.771 L 0.578 191.811 L 0.58 191.851 L 0.581 191.891 L 0.583 191.931 L 0.585 191.971 L 0.586 192.011 L 0.588 192.051 L 0.59 192.091 L 0.591 192.131 L 0.593 192.171 L 0.595 192.211 L 0.596 192.251 L 0.598 192.291 L 0.6 192.331 L 0.601 192.37 L 0.603 192.41 L 0.605 192.45 L 0.606 192.49 L 0.608 192.53 L 0.609 192.57 L 0.611 192.61 L 0.613 192.65 L 0.614 192.689 L 0.616 192.729 L 0.618 192.769 L 0.619 192.809 L 0.621 192.849 L 0.623 192.888 L 0.624 192.928 L 0.626 192.968 L 0.628 193.008 L 0.629 193.047 L 0.631 193.087 L 0.633 193.127 L 0.634 193.167 L 0.636 193.206 L 0.638 193.246 L 0.639 193.286 L 0.641 193.325 L 0.643 193.365 L 0.644 193.405 L 0.646 193.444 L 0.647 193.484 L 0.649 193.524 L 0.651 193.563 L 0.652 193.603 L 0.654 193.642 L 0.656 193.682 L 0.657 193.721 L 0.659 193.761 L 0.661 193.801 L 0.662 193.84 L 0.664 193.88 L 0.666 193.919 L 0.667 193.959 L 0.669 193.998 L 0.67 194.038 L 0.672 194.077 L 0.674 194.117 L 0.675 194.156 L 0.677 194.195 L 0.679 194.235 L 0.68 194.274 L 0.682 194.314 L 0.684 194.353 L 0.685 194.393 L 0.687 194.432 L 0.689 194.471 L 0.69 194.511 L 0.692 194.55 L 0.693 194.589 L 0.695 194.629 L 0.697 194.668 L 0.698 194.707 L 0.7 194.747 L 0.702 194.786 L 0.703 194.825 L 0.705 194.864 L 0.707 194.904 L 0.708 194.943 L 0.71 194.982 L 0.711 195.021 L 0.713 195.061 L 0.715 195.1 L 0.716 195.139 L 0.718 195.178 L 0.72 195.217 L 0.721 195.257 L 0.723 195.296 L 0.724 195.335 L 0.726 195.374 L 0.728 195.413 L 0.729 195.452 L 0.731 195.491 L 0.733 195.531 L 0.734 195.57 L 0.736 195.609 L 0.737 195.648 L 0.739 195.687 L 0.741 195.726 L 0.742 195.765 L 0.744 195.804 L 0.746 195.843 L 0.747 195.882 L 0.749 195.921 L 0.75 195.96 L 0.752 195.999 L 0.754 196.038 L 0.755 196.077 L 0.757 196.116 L 0.759 196.155 L 0.76 196.194 L 0.762 196.233 L 0.763 196.271 L 0.765 196.31 L 0.767 196.349 L 0.768 196.388 L 0.77 196.427 L 0.772 196.466 L 0.773 196.505 L 0.775 196.544 L 0.776 196.582 L 0.778 196.621 L 0.78 196.66 L 0.781 196.699 L 0.783 196.738 L 0.785 196.776 L 0.786 196.815 L 0.788 196.854 L 0.789 196.893 L 0.791 196.931 L 0.793 196.97 L 0.794 197.009 L 0.796 197.047 L 0.797 197.086 L 0.799 197.125 L 0.801 197.163 L 0.802 197.202 L 0.804 197.241 L 0.805 197.279 L 0.807 197.318 L 0.809 197.357 L 0.81 197.395 L 0.812 197.434 L 0.814 197.473 L 0.815 197.511 L 0.817 197.55 L 0.818 197.588 L 0.82 197.627 L 0.822 197.665 L 0.823 197.704 L 0.825 197.742 L 0.826 197.781 L 0.828 197.819 L 0.83 197.858 L 0.831 197.896 L 0.833 197.935 L 0.834 197.973 L 0.836 198.012 L 0.838 198.05 L 0.839 198.089 L 0.841 198.127 L 0.842 198.165 L 0.844 198.204 L 0.846 198.242 L 0.847 198.281 L 0.849 198.319 L 0.85 198.357 L 0.852 198.396 L 0.854 198.434 L 0.855 198.472 L 0.857 198.511 L 0.858 198.549 L 0.86 198.587 L 0.862 198.626 L 0.863 198.664 L 0.865 198.702 L 0.866 198.74 L 0.868 198.779 L 0.87 198.817 L 0.871 198.855 L 0.873 198.893 L 0.874 198.932 L 0.876 198.97 L 0.878 199.008 L 0.879 199.046 L 0.881 199.084 L 0.882 199.122 L 0.884 199.161 L 0.886 199.199 L 0.887 199.237 L 0.889 199.275 L 0.89 199.313 L 0.892 199.351 L 0.894 199.389 L 0.895 199.427 L 0.897 199.465 L 0.898 199.503 L 0.9 199.541 L 0.902 199.58 L 0.903 199.618 L 0.905 199.656 L 0.906 199.694 L 0.908 199.732 L 0.909 199.77 L 0.911 199.808 L 0.913 199.846 L 0.914 199.883 L 0.916 199.921 L 0.917 199.959 L 0.919 199.997 L 0.921 200.035 L 0.922 200.073 L 0.924 200.111 L 0.925 200.149 L 0.927 200.187 L 0.929 200.225 L 0.93 200.262 L 0.932 200.3 L 0.933 200.338 L 0.935 200.376 L 0.936 200.414 L 0.938 200.452 L 0.94 200.489 L 0.941 200.527 L 0.943 200.565 L 0.944 200.603 L 0.946 200.641 L 0.948 200.678 L 0.949 200.716 L 0.951 200.754 L 0.952 200.791 L 0.954 200.829 L 0.955 200.867 L 0.957 200.905 L 0.959 200.942 L 0.96 200.98 L 0.962 201.018 L 0.963 201.055 L 0.965 201.093 L 0.966 201.13 L 0.968 201.168 L 0.97 201.206 L 0.971 201.243 L 0.973 201.281 L 0.974 201.318 L 0.976 201.356 L 0.977 201.394 L 0.979 201.431 L 0.981 201.469 L 0.982 201.506 L 0.984 201.544 L 0.985 201.581 L 0.987 201.619 L 0.988 201.656 L 0.99 201.694 L 0.992 201.731 L 0.993 201.769 L 0.995 201.806 L 0.996 201.844 L 0.998 201.881 L 0.999 201.918 L 1.001 201.956 L 1.003 201.993 L 1.004 202.031 L 1.006 202.068 L 1.007 202.105 L 1.009 202.143 L 1.01 202.18 L 1.012 202.217 L 1.014 202.255 L 1.015 202.292 L 1.017 202.329 L 1.018 202.367 L 1.02 202.404 L 1.021 202.441 L 1.023 202.479 L 1.025 202.516 L 1.026 202.553 L 1.028 202.59 L 1.029 202.628 L 1.031 202.665 L 1.032 202.702 L 1.034 202.739 L 1.035 202.776 L 1.037 202.814 L 1.039 202.851 L 1.04 202.888 L 1.042 202.925 L 1.043 202.962 L 1.045 202.999 L 1.046 203.036 L 1.048 203.074 L 1.049 203.111 L 1.051 203.148 L 1.053 203.185 L 1.054 203.222 L 1.056 203.259 L 1.057 203.296 L 1.059 203.333 L 1.06 203.37 L 1.062 203.407 L 1.063 203.444 L 1.065 203.481 L 1.067 203.518 L 1.068 203.555 L 1.07 203.592 L 1.071 203.629 L 1.073 203.666 L 1.074 203.703 L 1.076 203.74 L 1.077 203.777 L 1.079 203.814 L 1.081 203.851 L 1.082 203.888 L 1.084 203.924 L 1.085 203.961 L 1.087 203.998 L 1.088 204.035 L 1.09 204.072 L 1.091 204.109 L 1.093 204.146 L 1.094 204.182 L 1.096 204.219 L 1.098 204.256 L 1.099 204.293 L 1.101 204.33 L 1.102 204.366 L 1.104 204.403 L 1.105 204.44 L 1.107 204.477 L 1.108 204.513 L 1.11 204.55 L 1.111 204.587 L 1.113 204.623 L 1.115 204.66 L 1.116 204.697 L 1.118 204.733 L 1.119 204.77 L 1.121 204.807 L 1.122 204.843 L 1.124 204.88 L 1.125 204.917 L 1.127 204.953 L 1.128 204.99 L 1.13 205.027 L 1.132 205.063 L 1.133 205.1 L 1.135 205.136 L 1.136 205.173 L 1.138 205.209 L 1.139 205.246 L 1.141 205.282 L 1.142 205.319 L 1.144 205.355 L 1.145 205.392 L 1.147 205.428 L 1.148 205.465 L 1.15 205.501 L 1.151 205.538 L 1.153 205.574 L 1.155 205.611 L 1.156 205.647 L 1.158 205.684 L 1.159 205.72 L 1.161 205.756 L 1.162 205.793 L 1.164 205.829 L 1.165 205.865 L 1.167 205.902 L 1.168 205.938 L 1.17 205.975 L 1.171 206.011 L 1.173 206.047 L 1.174 206.084 L 1.176 206.12 L 1.178 206.156 L 1.179 206.192 L 1.181 206.229 L 1.182 206.265 L 1.184 206.301 L 1.185 206.337 L 1.187 206.374 L 1.188 206.41 L 1.19 206.446 L 1.191 206.482 L 1.193 206.519 L 1.194 206.555 L 1.196 206.591 L 1.197 206.627 L 1.199 206.663 L 1.2 206.699 L 1.202 206.735 L 1.203 206.772 L 1.205 206.808 L 1.206 206.844 L 1.208 206.88 L 1.21 206.916 L 1.211 206.952 L 1.213 206.988 L 1.214 207.024 L 1.216 207.06 L 1.217 207.096 L 1.219 207.132 L 1.22 207.168 L 1.222 207.204 L 1.223 207.24 L 1.225 207.276 L 1.226 207.312 L 1.228 207.348 L 1.229 207.384 L 1.231 207.42 L 1.232 207.456 L 1.234 207.492 L 1.235 207.528 L 1.237 207.564 L 1.238 207.6 L 1.24 207.636 L 1.241 207.672 L 1.243 207.708 L 1.244 207.743 L 1.246 207.779 L 1.247 207.815 L 1.249 207.851 L 1.25 207.887 L 1.252 207.923 L 1.254 207.958 L 1.255 207.994 L 1.257 208.03 L 1.258 208.066 L 1.26 208.102 L 1.261 208.137 L 1.263 208.173 L 1.264 208.209 L 1.266 208.245 L 1.267 208.28 L 1.269 208.316 L 1.27 208.352 L 1.272 208.387 L 1.273 208.423 L 1.275 208.459 L 1.276 208.494 L 1.278 208.53 L 1.279 208.566 L 1.281 208.601 L 1.282 208.637 L 1.284 208.673 L 1.285 208.708 L 1.287 208.744 L 1.288 208.779 L 1.29 208.815 L 1.291 208.851 L 1.293 208.886 L 1.294 208.922 L 1.296 208.957 L 1.297 208.993 L 1.299 209.028 L 1.3 209.064 L 1.302 209.099 L 1.303 209.135 L 1.305 209.17 L 1.306 209.206 L 1.308 209.241 L 1.309 209.277 L 1.311 209.312 L 1.312 209.347 L 1.314 209.383 L 1.315 209.418 L 1.317 209.454 L 1.318 209.489 L 1.32 209.525 L 1.321 209.56 L 1.323 209.595 L 1.324 209.631 L 1.326 209.666 L 1.327 209.701 L 1.329 209.737 L 1.33 209.772 L 1.332 209.807 L 1.333 209.843 L 1.335 209.878 L 1.336 209.913 L 1.338 209.948 L 1.339 209.984 L 1.341 210.019 L 1.342 210.054 L 1.344 210.089 L 1.345 210.125 L 1.347 210.16 L 1.348 210.195 L 1.35 210.23 L 1.351 210.265 L 1.353 210.301 L 1.354 210.336 L 1.356 210.371 L 1.357 210.406 L 1.358 210.441 L 1.36 210.476 L 1.361 210.512 L 1.363 210.547 L 1.364 210.582 L 1.366 210.617 L 1.367 210.652 L 1.369 210.687 L 1.37 210.722 L 1.372 210.757 L 1.373 210.792 L 1.375 210.827 L 1.376 210.862 L 1.378 210.897 L 1.379 210.932 L 1.381 210.967 L 1.382 211.002 L 1.384 211.037 L 1.385 211.072 L 1.387 211.107 L 1.388 211.142 L 1.39 211.177 L 1.391 211.212 L 1.393 211.247 L 1.394 211.282 L 1.396 211.317 L 1.397 211.352 L 1.399 211.387 L 1.4 211.421 L 1.402 211.456 L 1.403 211.491 L 1.404 211.526 L 1.406 211.561 L 1.407 211.596 L 1.409 211.63 L 1.41 211.665 L 1.412 211.7 L 1.413 211.735 L 1.415 211.77 L 1.416 211.804 L 1.418 211.839 L 1.419 211.874 L 1.421 211.909 L 1.422 211.943 L 1.424 211.978 L 1.425 212.013 L 1.427 212.048 L 1.428 212.082 L 1.43 212.117 L 1.431 212.152 L 1.432 212.186 L 1.434 212.221 L 1.435 212.256 L 1.437 212.29 L 1.438 212.325 L 1.44 212.36 L 1.441 212.394 L 1.443 212.429 L 1.444 212.463 L 1.446 212.498 L 1.447 212.533 L 1.449 212.567 L 1.45 212.602 L 1.452 212.636 L 1.453 212.671 L 1.455 212.705 L 1.456 212.74 L 1.457 212.774 L 1.459 212.809 L 1.46 212.843 L 1.462 212.878 L 1.463 212.912 L 1.465 212.947 L 1.466 212.981 L 1.468 213.016 L 1.469 213.05 L 1.471 213.085 L 1.472 213.119 L 1.474 213.153 L 1.475 213.188 L 1.476 213.222 L 1.478 213.257 L 1.479 213.291 L 1.481 213.325 L 1.482 213.36 L 1.484 213.394 L 1.485 213.428 L 1.487 213.463 L 1.488 213.497 L 1.49 213.531 L 1.491 213.566 L 1.493 213.6 L 1.494 213.634 L 1.495 213.668 L 1.497 213.703 L 1.498 213.737 L 1.5 213.771 L 1.501 213.805 L 1.503 213.84 L 1.504 213.874 L 1.506 213.908 L 1.507 213.942 L 1.509 213.976 L 1.51 214.011 L 1.511 214.045 L 1.513 214.079 L 1.514 214.113 L 1.516 214.147 L 1.517 214.181 L 1.519 214.215 L 1.52 214.25 L 1.522 214.284 L 1.523 214.318 L 1.525 214.352 L 1.526 214.386 L 1.527 214.42 L 1.529 214.454 L 1.53 214.488 L 1.532 214.522 L 1.533 214.556 L 1.535 214.59 L 1.536 214.624 L 1.538 214.658 L 1.539 214.692 L 1.541 214.726 L 1.542 214.76 L 1.543 214.794 L 1.545 214.828 L 1.546 214.862 L 1.548 214.896 L 1.549 214.93 L 1.551 214.964 L 1.552 214.998 L 1.554 215.032 L 1.555 215.065 L 1.556 215.099 L 1.558 215.133 L 1.559 215.167 L 1.561 215.201 L 1.562 215.235 L 1.564 215.269 L 1.565 215.302 L 1.567 215.336 L 1.568 215.37 L 1.569 215.404 L 1.571 215.438 L 1.572 215.471 L 1.574 215.505 L 1.575 215.539 L 1.577 215.573 L 1.578 215.606 L 1.579 215.64 L 1.581 215.674 L 1.582 215.708 L 1.584 215.741 L 1.585 215.775 L 1.587 215.809 L 1.588 215.842 L 1.59 215.876 L 1.591 215.91 L 1.592 215.943 L 1.594 215.977 L 1.595 216.011 L 1.597 216.044 L 1.598 216.078 L 1.6 216.112 L 1.601 216.145 L 1.602 216.179 L 1.604 216.212 M 258.134 161.228 L 258.135 161.242 L 258.135 161.255 L 258.136 161.269 L 258.136 161.283 L 258.137 161.297 L 258.138 161.311 L 258.138 161.325 L 258.139 161.339 L 258.139 161.352 L 258.14 161.366 L 258.14 161.38 L 258.141 161.394 L 258.141 161.408 L 258.142 161.422 L 258.142 161.436 L 258.143 161.449 L 258.143 161.463 L 258.144 161.477 L 258.145 161.491 L 258.145 161.505 L 258.146 161.519 L 258.146 161.532 L 258.147 161.546 L 258.147 161.56 L 258.148 161.574 L 258.148 161.588 L 258.149 161.602 L 258.149 161.615 L 258.15 161.629 L 258.15 161.643 L 258.151 161.657 L 258.152 161.671 L 258.152 161.685 L 258.153 161.698 L 258.153 161.712 L 258.154 161.726 L 258.154 161.74 L 258.155 161.754 L 258.155 161.768 L 258.156 161.781 L 258.156 161.795 L 258.157 161.809 L 258.157 161.823 L 258.158 161.837 L 258.158 161.85 L 258.159 161.864 L 258.16 161.878 L 258.16 161.892 L 258.161 161.906 L 258.161 161.92 L 258.162 161.933 L 258.162 161.947 L 258.163 161.961 L 258.163 161.975 L 258.164 161.989 L 258.164 162.002 L 258.165 162.016 L 258.165 162.03 L 258.166 162.044 L 258.167 162.058 L 258.167 162.071 L 258.168 162.085 L 258.168 162.099 L 258.169 162.113 L 258.169 162.127 L 258.17 162.14 L 258.17 162.154 L 258.171 162.168 L 258.171 162.182 L 258.172 162.196 L 258.172 162.209 L 258.173 162.223 L 258.173 162.237 L 258.174 162.251 L 258.175 162.264 L 258.175 162.278 L 258.176 162.292 L 258.176 162.306 L 258.177 162.32 L 258.177 162.333 L 258.178 162.347 L 258.178 162.361 L 258.179 162.375 L 258.179 162.389 L 258.18 162.402 L 258.18 162.416 L 258.181 162.43 L 258.182 162.444 L 258.182 162.457 L 258.183 162.471 L 258.183 162.485 L 258.184 162.499 L 258.184 162.512 L 258.185 162.526 L 258.185 162.54 L 258.186 162.554 L 258.186 162.568 L 258.187 162.581 L 258.187 162.595 L 258.188 162.609 L 258.188 162.623 L 258.189 162.636 L 258.19 162.65 L 258.19 162.664 L 258.191 162.678 L 258.191 162.691 L 258.192 162.705 L 258.192 162.719 L 258.193 162.733 L 258.193 162.746 L 258.194 162.76 L 258.194 162.774 L 258.195 162.788 L 258.195 162.801 L 258.196 162.815 L 258.196 162.829 L 258.197 162.843 L 258.198 162.856 L 258.198 162.87 L 258.199 162.884 L 258.199 162.898 L 258.2 162.911 L 258.2 162.925 L 258.201 162.939 L 258.201 162.952 L 258.202 162.966 L 258.202 162.98 L 258.203 162.994 L 258.203 163.007 L 258.204 163.021 L 258.205 163.035 L 258.205 163.049 L 258.206 163.062 L 258.206 163.076 L 258.207 163.09 L 258.207 163.104 L 258.208 163.117 L 258.208 163.131 L 258.209 163.145 L 258.209 163.158 L 258.21 163.172 L 258.21 163.186 L 258.211 163.2 L 258.211 163.213 L 258.212 163.227 L 258.213 163.241 L 258.213 163.254 L 258.214 163.268 L 258.214 163.282 L 258.215 163.296 L 258.215 163.309 L 258.216 163.323 L 258.216 163.337 L 258.217 163.35 L 258.217 163.364 L 258.218 163.378 L 258.218 163.391 L 258.219 163.405 L 258.219 163.419 L 258.22 163.433 L 258.221 163.446 L 258.221 163.46 L 258.222 163.474 L 258.222 163.487 L 258.223 163.501 L 258.223 163.515 L 258.224 163.528 L 258.224 163.542 L 258.225 163.556 L 258.225 163.57 L 258.226 163.583 L 258.226 163.597 L 258.227 163.611 L 258.227 163.624 L 258.228 163.638 L 258.229 163.652 L 258.229 163.665 L 258.23 163.679 L 258.23 163.693 L 258.231 163.706 L 258.231 163.72 L 258.232 163.734 L 258.232 163.747 L 258.233 163.761 L 258.233 163.775 L 258.234 163.788 L 258.234 163.802 L 258.235 163.816 L 258.235 163.829 L 258.236 163.843 L 258.237 163.857 L 258.237 163.87 L 258.238 163.884 L 258.238 163.898 L 258.239 163.911 L 258.239 163.925 L 258.24 163.939 L 258.24 163.952 L 258.241 163.966 L 258.241 163.98 L 258.242 163.993 L 258.242 164.007 L 258.243 164.021 L 258.243 164.034 L 258.244 164.048 L 258.245 164.062 L 258.245 164.075 L 258.246 164.089 L 258.246 164.103 L 258.247 164.116 L 258.247 164.13 L 258.248 164.144 L 258.248 164.157 L 258.249 164.171 L 258.249 164.185 L 258.25 164.198 L 258.25 164.212 L 258.251 164.226 L 258.251 164.239 L 258.252 164.253 L 258.253 164.266 L 258.253 164.28 L 258.254 164.294 L 258.254 164.307 L 258.255 164.321 L 258.255 164.335 L 258.256 164.348 L 258.256 164.362 L 258.257 164.376 L 258.257 164.389 L 258.258 164.403 L 258.258 164.416 L 258.259 164.43 L 258.259 164.444 L 258.26 164.457 L 258.261 164.471 L 258.261 164.485 L 258.262 164.498 L 258.262 164.512 L 258.263 164.525 L 258.263 164.539 L 258.264 164.553 L 258.264 164.566 L 258.265 164.58 L 258.265 164.593 L 258.266 164.607 L 258.266 164.621 L 258.267 164.634 L 258.267 164.648 L 258.268 164.662 L 258.269 164.675 L 258.269 164.689 L 258.27 164.702 L 258.27 164.716 L 258.271 164.73 L 258.271 164.743 L 258.272 164.757 L 258.272 164.77 L 258.273 164.784 L 258.273 164.798 L 258.274 164.811 L 258.274 164.825 L 258.275 164.838 L 258.275 164.852 L 258.276 164.866 L 258.277 164.879 L 258.277 164.893 L 258.278 164.906 L 258.278 164.92 L 258.279 164.934 L 258.279 164.947 L 258.28 164.961 L 258.28 164.974 L 258.281 164.988 L 258.281 165.001 L 258.282 165.015 L 258.282 165.029 L 258.283 165.042 L 258.283 165.056 L 258.284 165.069 L 258.285 165.083 L 258.285 165.097 L 258.286 165.11 L 258.286 165.124 L 258.287 165.137 L 258.287 165.151 L 258.288 165.164 L 258.288 165.178 L 258.289 165.192 L 258.289 165.205 L 258.29 165.219 L 258.29 165.232 L 258.291 165.246 L 258.291 165.259 L 258.292 165.273 L 258.293 165.287 L 258.293 165.3 L 258.294 165.314 L 258.294 165.327 L 258.295 165.341 L 258.295 165.354 L 258.296 165.368 L 258.296 165.381 L 258.297 165.395 L 258.297 165.409 L 258.298 165.422 L 258.298 165.436 L 258.299 165.449 L 258.299 165.463 L 258.3 165.476 L 258.3 165.49 L 258.301 165.503 L 258.302 165.517 L 258.302 165.531 L 258.303 165.544 L 258.303 165.558 L 258.304 165.571 L 258.304 165.585 L 258.305 165.598 L 258.305 165.612 L 258.306 165.625 L 258.306 165.639 L 258.307 165.652 L 258.307 165.666 L 258.308 165.679 L 258.308 165.693 L 258.309 165.707 L 258.31 165.72 L 258.31 165.734 L 258.311 165.747 L 258.311 165.761 L 258.312 165.774 L 258.312 165.788 L 258.313 165.801 L 258.313 165.815 L 258.314 165.828 L 258.314 165.842 L 258.315 165.855 L 258.315 165.869 L 258.316 165.882 L 258.316 165.896 L 258.317 165.909 L 258.317 165.923 L 258.318 165.936 L 258.319 165.95 L 258.319 165.964 L 258.32 165.977 L 258.32 165.991 L 258.321 166.004 L 258.321 166.018 L 258.322 166.031 L 258.322 166.045 L 258.323 166.058 L 258.323 166.072 L 258.324 166.085 L 258.324 166.099 L 258.325 166.112 L 258.325 166.126 L 258.326 166.139 L 258.327 166.153 L 258.327 166.166 L 258.328 166.18 L 258.328 166.193 L 258.329 166.207 L 258.329 166.22 L 258.33 166.234 L 258.33 166.247 L 258.331 166.261 L 258.331 166.274 L 258.332 166.288 L 258.332 166.301 L 258.333 166.315 L 258.333 166.328 L 258.334 166.342 L 258.334 166.355 L 258.335 166.369 L 258.336 166.382 L 258.336 166.395 L 258.337 166.409 L 258.337 166.422 L 258.338 166.436 L 258.338 166.449 L 258.339 166.463 L 258.339 166.476 L 258.34 166.49 L 258.34 166.503 L 258.341 166.517 L 258.341 166.53 L 258.342 166.544 L 258.342 166.557 L 258.343 166.571 L 258.344 166.584 L 258.344 166.598 L 258.345 166.611 L 258.345 166.625 L 258.346 166.638 L 258.346 166.651 L 258.347 166.665 L 258.347 166.678 L 258.348 166.692 L 258.348 166.705 L 258.349 166.719 L 258.349 166.732 L 258.35 166.746 L 258.35 166.759 L 258.351 166.773 L 258.351 166.786 L 258.352 166.799 L 258.353 166.813 L 258.353 166.826 L 258.354 166.84 L 258.354 166.853 L 258.355 166.867 L 258.355 166.88 L 258.356 166.894 L 258.356 166.907 L 258.357 166.921 L 258.357 166.934 L 258.358 166.947 L 258.358 166.961 L 258.359 166.974 L 258.359 166.988 L 258.36 167.001 L 258.36 167.015 L 258.361 167.028 L 258.362 167.041 L 258.362 167.055 L 258.363 167.068 L 258.363 167.082 L 258.364 167.095 L 258.364 167.109 L 258.365 167.122 L 258.365 167.136 L 258.366 167.149 L 258.366 167.162 L 258.367 167.176 L 258.367 167.189 L 258.368 167.203 L 258.368 167.216 L 258.369 167.229 L 258.369 167.243 L 258.37 167.256 L 258.371 167.27 L 258.371 167.283 L 258.372 167.297 L 258.372 167.31 L 258.373 167.323 L 258.373 167.337 L 258.374 167.35 L 258.374 167.364 L 258.375 167.377 L 258.375 167.39 L 258.376 167.404 L 258.376 167.417 L 258.377 167.431 L 258.377 167.444 L 258.378 167.457 L 258.378 167.471 L 258.379 167.484 L 258.38 167.498 L 258.38 167.511 L 258.381 167.525 L 258.381 167.538 L 258.382 167.551 L 258.382 167.565 L 258.383 167.578 L 258.383 167.591 L 258.384 167.605 L 258.384 167.618 L 258.385 167.632 L 258.385 167.645 L 258.386 167.658 L 258.386 167.672 L 258.387 167.685 L 258.387 167.699 L 258.388 167.712 L 258.389 167.725 L 258.389 167.739 L 258.39 167.752 L 258.39 167.766 L 258.391 167.779 L 258.391 167.792 L 258.392 167.806 L 258.392 167.819 L 258.393 167.832 L 258.393 167.846 L 258.394 167.859 L 258.394 167.873 L 258.395 167.886 L 258.395 167.899 L 258.396 167.913 L 258.396 167.926 L 258.397 167.939 L 258.398 167.953 L 258.398 167.966 L 258.399 167.98 L 258.399 167.993 L 258.4 168.006 L 258.4 168.02 L 258.401 168.033 L 258.401 168.046 L 258.402 168.06 L 258.402 168.073 L 258.403 168.086 L 258.403 168.1 L 258.404 168.113 L 258.404 168.126 L 258.405 168.14 L 258.405 168.153 L 258.406 168.167 L 258.407 168.18 L 258.407 168.193 L 258.408 168.207 L 258.408 168.22 L 258.409 168.233 L 258.409 168.247 L 258.41 168.26 L 258.41 168.273 L 258.411 168.287 L 258.411 168.3 L 258.412 168.313 L 258.412 168.327 L 258.413 168.34 L 258.413 168.353 L 258.414 168.367 L 258.414 168.38 L 258.415 168.393 L 258.416 168.407 L 258.416 168.42 L 258.417 168.433 L 258.417 168.447 L 258.418 168.46 L 258.418 168.473 L 258.419 168.487 L 258.419 168.5 L 258.42 168.513 L 258.42 168.527 L 258.421 168.54 L 258.421 168.553 L 258.422 168.567 L 258.422 168.58 L 258.423 168.593 L 258.423 168.607 L 258.424 168.62 L 258.425 168.633 L 258.425 168.647 L 258.426 168.66 L 258.426 168.673 L 258.427 168.686 L 258.427 168.7 L 258.428 168.713 L 258.428 168.726 L 258.429 168.74 L 258.429 168.753 L 258.43 168.766 L 258.43 168.78 L 258.431 168.793 L 258.431 168.806 L 258.432 168.82 L 258.432 168.833 L 258.433 168.846 L 258.433 168.859 L 258.434 168.873 L 258.435 168.886 L 258.435 168.899 L 258.436 168.913 L 258.436 168.926 L 258.437 168.939 L 258.437 168.953 L 258.438 168.966 L 258.438 168.979 L 258.439 168.992 L 258.439 169.006 L 258.44 169.019 L 258.44 169.032 L 258.441 169.046 L 258.441 169.059 L 258.442 169.072 L 258.442 169.085 L 258.443 169.099 L 258.444 169.112 L 258.444 169.125 L 258.445 169.139 L 258.445 169.152 L 258.446 169.165 L 258.446 169.178 L 258.447 169.192 L 258.447 169.205 L 258.448 169.218 L 258.448 169.231 L 258.449 169.245 L 258.449 169.258 L 258.45 169.271 L 258.45 169.285 L 258.451 169.298 L 258.451 169.311 L 258.452 169.324 L 258.452 169.338 L 258.453 169.351 L 258.454 169.364 L 258.454 169.377 L 258.455 169.391 L 258.455 169.404 L 258.456 169.417 L 258.456 169.43 L 258.457 169.444 L 258.457 169.457 L 258.458 169.47 L 258.458 169.483 L 258.459 169.497 L 258.459 169.51 L 258.46 169.523 L 258.46 169.536 L 258.461 169.55 L 258.461 169.563 L 258.462 169.576 L 258.463 169.589 L 258.463 169.603 L 258.464 169.616 L 258.464 169.629 L 258.465 169.642 L 258.465 169.656 L 258.466 169.669 L 258.466 169.682 L 258.467 169.695 L 258.467 169.709 L 258.468 169.722 L 258.468 169.735 L 258.469 169.748 L 258.469 169.762 L 258.47 169.775 L 258.47 169.788 L 258.471 169.801 L 258.471 169.815 L 258.472 169.828 L 258.473 169.841 L 258.473 169.854 L 258.474 169.867 L 258.474 169.881 L 258.475 169.894 L 258.475 169.907 L 258.476 169.92 L 258.476 169.934 L 258.477 169.947 L 258.477 169.96 L 258.478 169.973 L 258.478 169.986 L 258.479 170 L 258.479 170.013 L 258.48 170.026 L 258.48 170.039 L 258.481 170.052 L 258.481 170.066 L 258.482 170.079 L 258.483 170.092 L 258.483 170.105 L 258.484 170.119 L 258.484 170.132 L 258.485 170.145 L 258.485 170.158 L 258.486 170.171 L 258.486 170.185 L 258.487 170.198 L 258.487 170.211 L 258.488 170.224 L 258.488 170.237 L 258.489 170.251 L 258.489 170.264 L 258.49 170.277 L 258.49 170.29 L 258.491 170.303 L 258.491 170.317 L 258.492 170.33 L 258.493 170.343 L 258.493 170.356 L 258.494 170.369 L 258.494 170.382 L 258.495 170.396 L 258.495 170.409 L 258.496 170.422 L 258.496 170.435 L 258.497 170.448 L 258.497 170.462 L 258.498 170.475 L 258.498 170.488 L 258.499 170.501 L 258.499 170.514 L 258.5 170.527 L 258.5 170.541 L 258.501 170.554 L 258.501 170.567 L 258.502 170.58 L 258.503 170.593 L 258.503 170.606 L 258.504 170.62 L 258.504 170.633 L 258.505 170.646 L 258.505 170.659 L 258.506 170.672 L 258.506 170.685 L 258.507 170.699 L 258.507 170.712 L 258.508 170.725 L 258.508 170.738 L 258.509 170.751 L 258.509 170.764 L 258.51 170.778 L 258.51 170.791 L 258.511 170.804 L 258.511 170.817 L 258.512 170.83 L 258.513 170.843 L 258.513 170.857 L 258.514 170.87 L 258.514 170.883 L 258.515 170.896 L 258.515 170.909 L 258.516 170.922 L 258.516 170.935 L 258.517 170.949 L 258.517 170.962 L 258.518 170.975 L 258.518 170.988 L 258.519 171.001 L 258.519 171.014 L 258.52 171.027 L 258.52 171.041 L 258.521 171.054 L 258.521 171.067 L 258.522 171.08 L 258.523 171.093 L 258.523 171.106 L 258.524 171.119 L 258.524 171.132 L 258.525 171.146 L 258.525 171.159 L 258.526 171.172 L 258.526 171.185 L 258.527 171.198 L 258.527 171.211 L 258.528 171.224 L 258.528 171.238 L 258.529 171.251 L 258.529 171.264 L 258.53 171.277 L 258.53 171.29 L 258.531 171.303 L 258.531 171.316 L 258.532 171.329 L 258.532 171.342 L 258.533 171.356 L 258.534 171.369 L 258.534 171.382 L 258.535 171.395 L 258.535 171.408 L 258.536 171.421 L 258.536 171.434 L 258.537 171.447 L 258.537 171.46 L 258.538 171.474 L 258.538 171.487 L 258.539 171.5 L 258.539 171.513 L 258.54 171.526 L 258.54 171.539 L 258.541 171.552 L 258.541 171.565 L 258.542 171.578 L 258.542 171.591 L 258.543 171.605 L 258.544 171.618 L 258.544 171.631 L 258.545 171.644 L 258.545 171.657 L 258.546 171.67 L 258.546 171.683 L 258.547 171.696 L 258.547 171.709 L 258.548 171.722 L 258.548 171.735 L 258.549 171.749 L 258.549 171.762 L 258.55 171.775 L 258.55 171.788 L 258.551 171.801 L 258.551 171.814 L 258.552 171.827 L 258.552 171.84 L 258.553 171.853 L 258.553 171.866 L 258.554 171.879 L 258.555 171.892 L 258.555 171.905 L 258.556 171.919 L 258.556 171.932 L 258.557 171.945 L 258.557 171.958 L 258.558 171.971 L 258.558 171.984 L 258.559 171.997 L 258.559 172.01 L 258.56 172.023 L 258.56 172.036 L 258.561 172.049 L 258.561 172.062 L 258.562 172.075 L 258.562 172.088 L 258.563 172.101 L 258.563 172.115 L 258.564 172.128 L 258.565 172.141 L 258.565 172.154 L 258.566 172.167 L 258.566 172.18 L 258.567 172.193 L 258.567 172.206 L 258.568 172.219 L 258.568 172.232 L 258.569 172.245 L 258.569 172.258 L 258.57 172.271 L 258.57 172.284 L 258.571 172.297 L 258.571 172.31 L 258.572 172.323 L 258.572 172.336 L 258.573 172.349 L 258.573 172.362 L 258.574 172.375 L 258.574 172.389 L 258.575 172.402 L 258.576 172.415 L 258.576 172.428 L 258.577 172.441 L 258.577 172.454 L 258.578 172.467 L 258.578 172.48 L 258.579 172.493 L 258.579 172.506 L 258.58 172.519 L 258.58 172.532 L 258.581 172.545 L 258.581 172.558 L 258.582 172.571 L 258.582 172.584 L 258.583 172.597 L 258.583 172.61 L 258.584 172.623 L 258.584 172.636 L 258.585 172.649 L 258.585 172.662 L 258.586 172.675 L 258.587 172.688 L 258.587 172.701 L 258.588 172.714 L 258.588 172.727 L 258.589 172.74 L 258.589 172.753 L 258.59 172.766 L 258.59 172.779 L 258.591 172.792 L 258.591 172.805 L 258.592 172.818 L 258.592 172.831 L 258.593 172.844 L 258.593 172.857 L 258.594 172.87 L 258.594 172.883 L 258.595 172.896 L 258.595 172.909 L 258.596 172.922 L 258.596 172.935 L 258.597 172.948 L 258.598 172.961 L 258.598 172.974 L 258.599 172.987 L 258.599 173 L 258.6 173.013 L 258.6 173.026 L 258.601 173.039 L 258.601 173.052 L 258.602 173.065 L 258.602 173.078 L 258.603 173.091 L 258.603 173.104 L 258.604 173.117 L 258.604 173.13 L 258.605 173.143 L 258.605 173.156 L 258.606 173.169 L 258.606 173.182 L 258.607 173.195 L 258.607 173.208 L 258.608 173.221 L 258.609 173.234 L 258.609 173.247 L 258.61 173.26 L 258.61 173.273 L 258.611 173.286 L 258.611 173.299 L 258.612 173.312 L 258.612 173.325 L 258.613 173.338 L 258.613 173.351 L 258.614 173.363 L 258.614 173.376 L 258.615 173.389 L 258.615 173.402 L 258.616 173.415 L 258.616 173.428 L 258.617 173.441 L 258.617 173.454 L 258.618 173.467 L 258.618 173.48 L 258.619 173.493 L 258.62 173.506 L 258.62 173.519 L 258.621 173.532 L 258.621 173.545 L 258.622 173.558 L 258.622 173.571 L 258.623 173.584 L 258.623 173.597 L 258.624 173.61 L 258.624 173.623 L 258.625 173.635 L 258.625 173.648 L 258.626 173.661 L 258.626 173.674 L 258.627 173.687 L 258.627 173.7 L 258.628 173.713 L 258.628 173.726 L 258.629 173.739 L 258.629 173.752 L 258.63 173.765 L 258.63 173.778 L 258.631 173.791 L 258.632 173.804 L 258.632 173.817 L 258.633 173.83 L 258.633 173.842 L 258.634 173.855 L 258.634 173.868 L 258.635 173.881 L 258.635 173.894 L 258.636 173.907 L 258.636 173.92 L 258.637 173.933 L 258.637 173.946 L 258.638 173.959 L 258.638 173.972 L 258.639 173.985 L 258.639 173.997 L 258.64 174.01 L 258.64 174.023 L 258.641 174.036 L 258.641 174.049 L 258.642 174.062 L 258.642 174.075 L 258.643 174.088 L 258.644 174.101 L 258.644 174.114 L 258.645 174.127 L 258.645 174.14 L 258.646 174.152 L 258.646 174.165 L 258.647 174.178 L 258.647 174.191 L 258.648 174.204 L 258.648 174.217 L 258.649 174.23 L 258.649 174.243 L 258.65 174.256 L 258.65 174.268 L 258.651 174.281 L 258.651 174.294 L 258.652 174.307 L 258.652 174.32 L 258.653 174.333 L 258.653 174.346 L 258.654 174.359 L 258.655 174.372 L 258.655 174.385 L 258.656 174.397 L 258.656 174.41 L 258.657 174.423 L 258.657 174.436 L 258.658 174.449 L 258.658 174.462 L 258.659 174.475 L 258.659 174.488 L 258.66 174.5 L 258.66 174.513 L 258.661 174.526 L 258.661 174.539 L 258.662 174.552 L 258.662 174.565 L 258.663 174.578" id="blue" stroke="blue" style="stroke:blue" vector-effect="non-scaling-stroke"/><g id="captions"><text alignment-baseline="middle" text-anchor="middle" transform="rotate(0,310.505,159.57)" x="310.505" y="159.57">LEE, 3, 1</text></g></g></svg>