<svg width="411.468" height="63.073" viewBox="0 0 411.468 63.073" xmlns="http://www.w3.org/2000/svg"><g id="svgGroup" stroke-linecap="round" fill-rule="evenodd" font-size="9pt" stroke="#000" stroke-width="0.25mm" fill="none" style="stroke:#000;stroke-width:0.25mm;fill:none"><path d="M 407.918 0 L 406.843 0.108 L 405.766 0.215 L 404.685 0.322 L 403.602 0.429 L 402.515 0.535 L 401.426 0.642 L 400.333 0.748 L 399.603 0.819 L 398.506 0.925 L 397.405 1.03 L 396.301 1.136 L 395.194 1.241 L 394.084 1.346 L 393.342 1.415 L 392.227 1.52 L 391.108 1.624 L 389.987 1.728 L 388.862 1.832 L 388.11 1.901 L 386.98 2.004 L 385.846 2.107 L 384.709 2.21 L 383.569 2.313 L 382.807 2.381 L 381.662 2.483 L 380.513 2.585 L 379.36 2.686 L 378.59 2.754 L 377.432 2.855 L 376.271 2.956 L 375.495 3.023 L 374.328 3.123 L 373.158 3.223 L 372.375 3.289 L 371.199 3.389 L 370.02 3.488 L 369.231 3.554 L 368.046 3.653 L 366.857 3.752 L 366.062 3.817 L 364.868 3.915 L 363.669 4.013 L 362.868 4.078 L 361.664 4.175 L 360.859 4.239 L 359.649 4.336 L 358.435 4.432 L 357.623 4.496 L 356.403 4.592 L 355.588 4.656 L 354.362 4.751 L 353.542 4.814 L 352.31 4.909 L 351.074 5.003 L 350.248 5.066 L 349.005 5.16 L 348.175 5.222 L 346.926 5.315 L 346.092 5.377 L 344.837 5.47 L 343.998 5.531 L 342.737 5.623 L 341.894 5.684 L 340.626 5.776 L 339.779 5.837 L 338.505 5.928 L 337.653 5.988 L 336.372 6.078 L 335.516 6.138 L 334.659 6.198 L 333.369 6.287 L 332.507 6.347 L 331.21 6.435 L 330.344 6.494 L 329.041 6.583 L 328.17 6.641 L 327.297 6.7 L 325.984 6.787 L 325.107 6.845 L 324.228 6.903 L 322.906 6.989 L 322.022 7.046 L 320.693 7.132 L 319.805 7.189 L 318.915 7.246 L 317.577 7.33 L 316.682 7.387 L 315.786 7.443 L 314.437 7.527 L 313.536 7.582 L 312.633 7.638 L 311.275 7.721 L 310.368 7.776 L 309.458 7.83 L 308.09 7.912 L 307.176 7.967 L 306.26 8.021 L 305.342 8.075 L 303.961 8.156 L 303.038 8.209 L 302.113 8.262 L 301.187 8.316 L 299.793 8.395 L 298.861 8.448 L 297.928 8.5 L 296.992 8.552 L 295.586 8.63 L 294.645 8.682 L 293.703 8.734 L 292.759 8.785 L 291.339 8.862 L 290.389 8.913 L 289.438 8.963 L 288.485 9.014 L 287.53 9.064 L 286.093 9.139 L 285.133 9.189 L 284.171 9.239 L 283.207 9.288 L 282.24 9.337 L 281.272 9.386 L 279.816 9.459 L 278.843 9.508 L 277.867 9.556 L 276.89 9.604 L 275.91 9.652 L 274.929 9.699 L 273.945 9.747 L 272.466 9.817 L 271.477 9.864 L 270.486 9.911 L 269.493 9.957 L 268.498 10.003 L 267.501 10.049 L 266.502 10.095 L 265.501 10.141 L 264.497 10.186 L 263.492 10.231 L 261.979 10.298 L 260.968 10.343 L 259.956 10.387 L 258.94 10.431 L 257.923 10.475 L 256.904 10.519 L 255.882 10.562 L 254.859 10.606 L 253.833 10.649 L 252.805 10.691 L 251.775 10.734 L 250.742 10.776 L 249.708 10.818 L 248.671 10.86 L 247.632 10.902 L 246.591 10.943 L 245.548 10.984 L 244.503 11.025 L 243.455 11.066 L 242.405 11.106 L 241.353 11.146 L 240.299 11.186 L 239.242 11.226 L 238.184 11.266 L 237.123 11.305 L 236.06 11.344 L 234.994 11.383 L 233.927 11.421 L 232.857 11.459 L 231.785 11.498 L 230.71 11.535 L 229.633 11.573 L 228.554 11.61 L 227.473 11.647 L 226.39 11.684 L 225.304 11.721 L 224.76 11.739 L 223.671 11.775 L 222.579 11.811 L 221.486 11.847 L 220.39 11.882 L 219.291 11.917 L 218.19 11.952 L 217.087 11.987 L 215.982 12.022 L 214.874 12.056 L 214.319 12.073 L 213.208 12.107 L 212.095 12.14 L 210.979 12.173 L 209.861 12.207 L 208.74 12.239 L 207.617 12.272 L 206.492 12.304 L 205.928 12.32 L 204.799 12.352 L 203.668 12.384 L 202.535 12.415 L 201.399 12.446 L 200.26 12.477 L 199.119 12.508 L 198.548 12.523 L 197.404 12.553 L 196.257 12.583 L 195.108 12.612 L 193.956 12.642 L 193.379 12.656 L 192.224 12.685 L 191.066 12.714 L 189.906 12.743 L 188.744 12.771 L 188.162 12.785 L 186.996 12.812 L 185.827 12.84 L 184.656 12.867 L 183.482 12.894 L 182.895 12.907 L 181.717 12.934 L 180.538 12.96 L 179.355 12.986 L 178.171 13.012 L 177.577 13.025 L 176.389 13.05 L 175.198 13.075 L 174.005 13.1 L 173.407 13.112 L 172.21 13.136 L 171.01 13.16 L 169.808 13.184 L 169.206 13.196 L 168 13.219 L 166.792 13.242 L 166.187 13.254 L 164.975 13.276 L 163.76 13.299 L 162.543 13.321 L 161.933 13.331 L 160.712 13.353 L 159.488 13.374 L 158.875 13.385 L 157.648 13.406 L 156.418 13.426 L 155.185 13.447 L 154.568 13.457 L 153.331 13.477 L 152.092 13.496 L 151.472 13.506 L 150.229 13.525 L 148.983 13.544 L 148.36 13.553 L 147.11 13.572 L 145.858 13.59 L 145.231 13.599 L 143.975 13.616 L 142.717 13.634 L 142.086 13.642 L 140.824 13.659 L 139.559 13.676 L 138.925 13.684 L 137.656 13.7 L 136.384 13.716 L 135.748 13.724 L 134.472 13.739 L 133.194 13.754 L 132.553 13.762 L 131.271 13.776 L 130.629 13.784 L 129.343 13.798 L 128.054 13.812 L 127.408 13.819 L 126.115 13.832 L 124.82 13.845 L 124.171 13.852 L 122.871 13.864 L 122.22 13.87 L 120.917 13.883 L 119.61 13.894 L 118.956 13.9 L 117.645 13.912 L 116.989 13.917 L 115.675 13.928 L 114.357 13.939 L 113.698 13.944 L 112.376 13.954 L 111.715 13.959 L 110.389 13.969 L 109.061 13.978 L 108.396 13.983 L 107.064 13.992 L 106.397 13.996 L 105.06 14.004 L 104.391 14.009 L 103.05 14.016 L 102.379 14.02 L 101.034 14.028 L 99.687 14.035 L 99.012 14.038 L 97.66 14.045 L 96.984 14.048 L 95.628 14.054 L 94.949 14.057 L 93.589 14.063 L 92.908 14.066 L 91.544 14.071 L 90.86 14.073 L 89.492 14.078 L 88.121 14.083 L 87.434 14.085 L 86.059 14.088 L 85.37 14.09 L 83.99 14.094 L 83.299 14.095 L 81.916 14.098 L 81.223 14.099 L 79.834 14.102 L 79.139 14.103 L 77.747 14.105 L 77.05 14.106 L 75.653 14.107 L 74.953 14.108 L 73.553 14.109 L 72.851 14.109 L 71.446 14.109 L 70.742 14.109 L 69.332 14.109 L 68.626 14.109 L 67.213 14.108 L 66.505 14.108 L 65.086 14.107 L 64.376 14.106 L 63.665 14.105 L 62.241 14.104 L 61.528 14.103 L 60.1 14.1 L 59.384 14.099 L 57.952 14.096 L 57.234 14.095 L 55.797 14.091 L 55.077 14.089 L 53.636 14.086 L 52.914 14.083 L 51.468 14.079 L 50.744 14.077 L 50.019 14.074 L 48.568 14.069 L 47.841 14.067 L 46.384 14.061 L 45.655 14.058 L 44.195 14.052 L 43.463 14.049 L 42.731 14.045 L 41.265 14.039 L 40.53 14.035 L 39.059 14.028 L 38.323 14.024 L 36.847 14.016 L 36.108 14.012 L 35.369 14.008 L 33.887 13.999 L 33.145 13.995 L 31.659 13.986 L 30.915 13.981 L 30.171 13.976 L 28.679 13.966 L 27.931 13.961 L 26.435 13.951 L 25.686 13.946 L 24.936 13.94 L 23.433 13.929 L 22.681 13.923 L 21.174 13.912 L 20.419 13.906 L 19.664 13.9 L 18.151 13.887 L 17.393 13.881 L 15.875 13.868 L 15.115 13.862 L 14.354 13.855 L 12.831 13.841 L 12.068 13.834 L 11.304 13.827 L 9.774 13.813 L 9.008 13.806 L 7.473 13.791 L 6.705 13.783 L 5.936 13.775 L 4.395 13.76 L 3.624 13.752 L 2.852 13.744 L 1.305 13.727 L 0.53 13.719 L 0 62.857 L 0.775 62.863 L 2.322 62.876 L 3.094 62.882 L 3.866 62.887 L 5.407 62.899 L 6.176 62.904 L 6.945 62.91 L 8.48 62.921 L 9.247 62.926 L 10.778 62.936 L 11.542 62.941 L 12.306 62.946 L 13.831 62.955 L 14.592 62.96 L 15.353 62.964 L 16.872 62.973 L 17.631 62.977 L 19.056 62.984 L 19.902 62.989 L 20.658 62.993 L 22.167 63.001 L 22.921 63.004 L 24.336 63.01 L 25.177 63.014 L 25.928 63.018 L 27.338 63.023 L 28.175 63.027 L 29.581 63.031 L 30.416 63.035 L 31.162 63.038 L 32.562 63.042 L 33.395 63.045 L 34.791 63.048 L 35.621 63.051 L 36.361 63.053 L 37.752 63.056 L 38.579 63.059 L 39.966 63.061 L 40.702 63.062 L 42.173 63.065 L 42.907 63.066 L 43.729 63.068 L 45.106 63.069 L 45.838 63.07 L 47.298 63.071 L 48.028 63.072 L 49.485 63.073 L 50.212 63.073 L 50.938 63.073 L 52.39 63.073 L 53.114 63.073 L 54.561 63.073 L 55.283 63.073 L 56.726 63.072 L 57.446 63.071 L 58.798 63.069 L 59.603 63.069 L 60.951 63.066 L 61.754 63.066 L 63.097 63.062 L 63.811 63.061 L 64.611 63.06 L 65.95 63.056 L 66.747 63.055 L 68.082 63.051 L 68.877 63.05 L 70.208 63.045 L 70.915 63.043 L 72.327 63.038 L 73.033 63.035 L 74.441 63.03 L 75.144 63.027 L 76.548 63.021 L 77.25 63.018 L 78.564 63.011 L 79.349 63.009 L 80.66 63.001 L 81.442 62.999 L 82.749 62.99 L 83.529 62.987 L 84.832 62.979 L 85.525 62.975 L 86.909 62.967 L 87.6 62.962 L 88.98 62.953 L 90.273 62.943 L 91.045 62.939 L 92.334 62.929 L 93.104 62.925 L 94.389 62.914 L 95.157 62.909 L 96.438 62.898 L 97.12 62.892 L 98.482 62.881 L 99.161 62.876 L 100.519 62.864 L 101.79 62.851 L 102.55 62.846 L 103.817 62.832 L 104.575 62.827 L 105.839 62.813 L 106.595 62.807 L 107.854 62.793 L 108.608 62.786 L 109.864 62.772 L 111.2 62.757 L 111.868 62.75 L 113.117 62.735 L 113.866 62.728 L 115.112 62.712 L 116.438 62.696 L 117.1 62.688 L 118.422 62.672 L 119.082 62.664 L 120.401 62.647 L 121.634 62.629 L 122.374 62.621 L 123.603 62.603 L 124.34 62.595 L 125.566 62.576 L 126.872 62.558 L 127.524 62.549 L 128.826 62.53 L 130.043 62.51 L 130.774 62.501 L 131.987 62.481 L 132.716 62.471 L 133.926 62.451 L 135.215 62.43 L 135.859 62.42 L 137.144 62.399 L 138.345 62.378 L 139.067 62.367 L 140.265 62.345 L 141.542 62.323 L 142.179 62.312 L 143.452 62.289 L 144.642 62.266 L 145.357 62.255 L 146.543 62.231 L 147.807 62.208 L 148.519 62.196 L 149.699 62.172 L 150.957 62.147 L 151.585 62.135 L 152.839 62.11 L 154.01 62.084 L 154.716 62.072 L 155.884 62.046 L 157.13 62.02 L 158.293 61.993 L 158.994 61.98 L 160.153 61.953 L 161.391 61.926 L 162.008 61.913 L 163.242 61.885 L 164.473 61.857 L 165.622 61.829 L 166.315 61.815 L 167.461 61.786 L 168.684 61.757 L 169.294 61.742 L 170.513 61.713 L 171.651 61.683 L 172.865 61.653 L 173.551 61.638 L 174.683 61.607 L 175.891 61.577 L 177.018 61.545 L 177.699 61.53 L 178.823 61.498 L 180.023 61.466 L 181.221 61.434 L 182.338 61.401 L 183.013 61.385 L 184.127 61.352 L 185.317 61.319 L 186.426 61.285 L 187.611 61.251 L 188.28 61.234 L 189.384 61.2 L 190.563 61.166 L 191.662 61.131 L 192.836 61.096 L 193.5 61.078 L 194.594 61.042 L 195.763 61.006 L 196.852 60.97 L 198.016 60.934 L 198.597 60.915 L 199.758 60.878 L 200.916 60.841 L 201.996 60.803 L 203.15 60.766 L 204.301 60.727 L 205.374 60.689 L 206.024 60.67 L 207.094 60.631 L 208.237 60.592 L 209.379 60.552 L 210.442 60.513 L 211.579 60.473 L 212.638 60.433 L 213.77 60.392 L 214.411 60.371 L 215.464 60.331 L 216.591 60.289 L 217.716 60.248 L 218.763 60.206 L 219.884 60.164 L 220.926 60.122 L 222.042 60.079 L 223.156 60.036 L 224.192 59.993 L 224.822 59.971 L 225.93 59.927 L 226.961 59.883 L 228.065 59.839 L 229.167 59.794 L 230.192 59.75 L 231.289 59.705 L 232.384 59.659 L 233.403 59.614 L 234.494 59.568 L 235.583 59.522 L 236.595 59.476 L 237.679 59.429 L 238.762 59.382 L 239.768 59.335 L 240.846 59.287 L 241.922 59.239 L 242.922 59.192 L 243.994 59.143 L 245.064 59.094 L 246.058 59.046 L 247.123 58.997 L 248.187 58.947 L 249.175 58.898 L 250.234 58.848 L 251.292 58.797 L 252.274 58.748 L 253.326 58.697 L 254.378 58.645 L 255.354 58.595 L 256.4 58.543 L 257.445 58.491 L 258.415 58.44 L 259.456 58.387 L 260.495 58.334 L 261.532 58.281 L 262.938 58.203 L 263.97 58.149 L 265 58.095 L 265.955 58.042 L 266.98 57.987 L 268.004 57.932 L 269.026 57.877 L 269.973 57.823 L 270.991 57.768 L 272.007 57.712 L 273.384 57.63 L 274.394 57.573 L 275.403 57.517 L 276.41 57.46 L 277.343 57.404 L 278.346 57.346 L 279.347 57.288 L 280.774 57.202 L 281.699 57.145 L 282.692 57.087 L 283.684 57.028 L 284.675 56.968 L 285.593 56.91 L 287.001 56.822 L 287.984 56.762 L 288.966 56.702 L 289.875 56.643 L 290.853 56.582 L 292.246 56.492 L 293.219 56.431 L 294.12 56.37 L 295.09 56.308 L 296.47 56.217 L 297.435 56.154 L 298.398 56.091 L 299.289 56.03 L 300.657 55.937 L 301.613 55.873 L 302.567 55.809 L 303.52 55.745 L 304.808 55.652 L 305.755 55.587 L 306.701 55.523 L 307.646 55.457 L 308.922 55.363 L 309.861 55.297 L 310.799 55.231 L 312.134 55.134 L 313.067 55.067 L 313.999 55 L 315.257 54.903 L 316.184 54.836 L 317.11 54.768 L 318.426 54.669 L 319.348 54.6 L 320.199 54.534 L 321.507 54.433 L 322.422 54.364 L 323.723 54.262 L 324.633 54.193 L 325.543 54.123 L 326.768 54.022 L 327.672 53.952 L 328.575 53.881 L 329.858 53.777 L 330.757 53.706 L 332.034 53.601 L 332.929 53.529 L 334.134 53.426 L 335.023 53.354 L 335.912 53.281 L 337.174 53.175 L 338.059 53.102 L 339.315 52.994 L 340.196 52.921 L 341.38 52.815 L 342.256 52.741 L 343.501 52.632 L 344.373 52.557 L 345.611 52.447 L 346.479 52.372 L 347.711 52.262 L 348.575 52.186 L 349.803 52.075 L 350.597 52.001 L 351.818 51.89 L 353.035 51.777 L 353.889 51.7 L 355.1 51.587 L 355.95 51.509 L 357.156 51.396 L 358.001 51.318 L 359.202 51.203 L 360.398 51.088 L 361.238 51.009 L 362.365 50.897 L 363.201 50.817 L 364.387 50.701 L 365.568 50.584 L 366.398 50.504 L 367.575 50.387 L 368.748 50.269 L 369.572 50.188 L 370.74 50.069 L 371.904 49.95 L 372.722 49.868 L 373.882 49.749 L 375.037 49.629 L 375.849 49.546 L 377 49.426 L 378.147 49.305 L 378.953 49.221 L 380.096 49.1 L 381.235 48.978 L 382.371 48.855 L 383.169 48.771 L 384.3 48.648 L 385.429 48.524 L 386.492 48.404 L 387.613 48.28 L 388.401 48.194 L 389.518 48.069 L 390.632 47.944 L 391.743 47.819 L 392.849 47.693 L 393.69 47.602 L 394.793 47.475 L 395.893 47.348 L 396.99 47.221 L 398.084 47.094 L 399.175 46.966 L 399.942 46.877 L 401.028 46.749 L 402.112 46.62 L 403.193 46.49 L 404.27 46.361 L 405.346 46.231 L 406.418 46.101 L 407.487 45.97 L 407.491 45.534 L 407.494 45.098 L 407.498 44.662 L 407.502 44.224 L 407.505 43.787 L 407.509 43.349 L 407.513 42.91 L 407.517 42.471 L 407.52 42.032 L 407.524 41.592 L 407.528 41.151 L 407.532 40.71 L 407.536 40.269 L 407.539 39.827 L 407.543 39.384 L 407.547 38.941 L 407.551 38.498 L 407.555 38.054 L 407.562 37.235 L 411.249 37.919 L 411.322 29.764 L 407.623 30.382 L 403.924 30.999 L 404.011 21.675 L 407.698 22.361 L 411.384 23.047 L 411.468 14.379 L 407.768 14.995 L 404.069 15.61 L 404.157 6.692 L 407.843 7.38 L 407.845 7.206 L 407.85 6.729 L 407.855 6.252 L 407.86 5.774 L 407.864 5.295 L 407.869 4.816 L 407.874 4.337 L 407.879 3.857 L 407.884 3.377 L 407.889 2.896 L 407.893 2.414 L 407.898 1.932 L 407.903 1.45 L 407.908 0.967 L 407.913 0.484 L 407.918 0 Z" vector-effect="non-scaling-stroke"/><path d="M 0 62.857 L 0.005 62.396 L 0.01 61.934 L 0.015 61.471 L 0.02 61.008 L 0.025 60.544 L 0.03 60.08 L 0.035 59.615 L 0.04 59.15 L 0.045 58.683 L 0.05 58.217 L 0.055 57.749 L 0.06 57.281 L 0.065 56.813 L 0.07 56.344 L 0.075 55.874 L 0.08 55.403 L 0.085 54.932 L 0.09 54.461 L 0.095 53.989 L 0.1 53.516 L 0.106 53.042 L 0.111 52.568 L 0.116 52.094 L 0.121 51.618 L 0.126 51.142 L 0.131 50.666 L 0.136 50.189 L 0.141 49.711 L 0.147 49.233 L 0.152 48.754 L 0.157 48.275 L 0.162 47.795 L 0.167 47.314 L 0.173 46.833 L 0.178 46.351 L 0.183 45.868 L 0.188 45.385 L 0.193 44.901 L 0.199 44.417 L 0.204 43.932 L 0.209 43.446 L 0.214 42.96 L 0.22 42.473 L 0.225 41.986 L 0.23 41.498 L 0.235 41.009 L 0.241 40.52 L 0.246 40.03 L 0.251 39.54 L 0.256 39.049 L 0.262 38.557 L 0.267 38.065 L 0.272 37.572 L 0.278 37.079 L 0.283 36.585 L 0.288 36.09 L 0.294 35.595 L 0.299 35.099 L 0.304 34.602 L 0.31 34.105 L 0.315 33.607 L 0.321 33.109 L 0.326 32.61 L 0.331 32.11 L 0.337 31.61 L 0.342 31.11 L 0.348 30.608 L 0.353 30.106 L 0.358 29.604 L 0.364 29.1 L 0.369 28.596 L 0.375 28.092 L 0.38 27.587 L 0.386 27.081 L 0.391 26.575 L 0.397 26.068 L 0.402 25.561 L 0.408 25.052 L 0.413 24.544 L 0.419 24.034 L 0.424 23.524 L 0.43 23.014 L 0.435 22.503 L 0.441 21.991 L 0.446 21.479 L 0.452 20.966 L 0.457 20.452 L 0.463 19.938 L 0.468 19.423 L 0.474 18.907 L 0.48 18.391 L 0.485 17.875 L 0.491 17.357 L 0.496 16.839 L 0.502 16.321 L 0.508 15.802 L 0.513 15.282 L 0.519 14.762 L 0.524 14.241 L 0.53 13.719 M 258.415 58.44 L 258.42 57.987 L 258.425 57.534 L 258.43 57.081 L 258.435 56.627 L 258.44 56.172 L 258.445 55.717 L 258.449 55.261 L 258.454 54.805 L 258.459 54.348 L 258.464 53.89 L 258.469 53.432 L 258.474 52.974 L 258.479 52.515 L 258.484 52.055 L 258.489 51.595 L 258.494 51.134 L 258.499 50.673 L 258.504 50.211 L 258.509 49.748 L 258.514 49.285 L 258.519 48.822 L 258.524 48.358 L 258.529 47.893 L 258.534 47.428 L 258.539 46.962 L 258.544 46.496 L 258.549 46.029 L 258.554 45.561 L 258.559 45.093 L 258.564 44.625 L 258.569 44.156 L 258.574 43.686 L 258.579 43.216 L 258.585 42.745 L 258.59 42.273 L 258.595 41.802 L 258.6 41.329 L 258.605 40.856 L 258.61 40.382 L 258.615 39.908 L 258.621 39.434 L 258.626 38.958 L 258.631 38.482 L 258.636 38.006 L 258.641 37.529 L 258.647 37.052 L 258.652 36.573 L 258.657 36.095 L 258.662 35.616 L 258.668 35.136 L 258.673 34.655 L 258.678 34.175 L 258.683 33.693 L 258.689 33.211 L 258.694 32.729 L 258.699 32.245 L 258.705 31.762 L 258.71 31.277 L 258.715 30.793 L 258.721 30.307 L 258.726 29.821 L 258.731 29.335 L 258.737 28.848 L 258.742 28.36 L 258.747 27.872 L 258.753 27.383 L 258.758 26.894 L 258.763 26.404 L 258.769 25.914 L 258.774 25.423 L 258.78 24.931 L 258.785 24.439 L 258.791 23.946 L 258.796 23.453 L 258.802 22.959 L 258.807 22.465 L 258.812 21.97 L 258.818 21.475 L 258.823 20.979 L 258.829 20.482 L 258.834 19.985 L 258.84 19.487 L 258.845 18.989 L 258.851 18.49 L 258.857 17.99 L 258.862 17.49 L 258.868 16.99 L 258.873 16.489 L 258.879 15.987 L 258.884 15.485 L 258.89 14.982 L 258.895 14.479 L 258.901 13.975 L 258.907 13.47 L 258.912 12.965 L 258.918 12.46 L 258.924 11.953 L 258.929 11.447 L 258.935 10.939 L 258.94 10.431" id="blue" stroke="blue" style="stroke:blue" vector-effect="non-scaling-stroke"/><g id="captions"><text alignment-baseline="middle" text-anchor="middle" transform="rotate(0,203.409,36.575)" x="203.409" y="36.575">LEE, 3, 0</text></g></g></svg>