<svg width="411.557" height="132.094" viewBox="0 0 411.557 132.094" xmlns="http://www.w3.org/2000/svg"><g id="svgGroup" stroke-linecap="round" fill-rule="evenodd" font-size="9pt" stroke="#000" stroke-width="0.25mm" fill="none" style="stroke:#000;stroke-width:0.25mm;fill:none"><path d="M 408.052 0 L 406.983 0.131 L 405.908 0.261 L 404.831 0.391 L 403.751 0.521 L 402.668 0.65 L 401.583 0.779 L 400.494 0.908 L 399.682 0.997 L 398.634 1.126 L 397.538 1.254 L 396.439 1.382 L 395.336 1.51 L 394.231 1.637 L 393.295 1.73 L 392.282 1.857 L 391.169 1.984 L 390.053 2.11 L 388.934 2.236 L 388.098 2.323 L 387.021 2.449 L 386.018 2.569 L 384.825 2.694 L 383.692 2.818 L 382.846 2.904 L 381.755 3.029 L 380.613 3.152 L 379.469 3.276 L 378.614 3.361 L 377.512 3.484 L 376.359 3.607 L 375.498 3.691 L 374.389 3.814 L 373.227 3.935 L 372.36 4.019 L 371.242 4.141 L 370.071 4.262 L 369.198 4.345 L 368.071 4.466 L 366.892 4.586 L 366.012 4.668 L 364.877 4.788 L 363.689 4.907 L 362.803 4.989 L 361.789 5.104 L 360.832 5.185 L 359.683 5.303 L 358.48 5.421 L 357.584 5.502 L 356.426 5.619 L 355.525 5.7 L 354.362 5.817 L 353.456 5.897 L 352.288 6.013 L 351.064 6.128 L 350.298 6.204 L 349.038 6.319 L 348.123 6.398 L 346.939 6.513 L 346.019 6.591 L 344.829 6.705 L 343.905 6.784 L 342.709 6.897 L 341.781 6.975 L 340.713 7.084 L 339.712 7.161 L 338.504 7.273 L 337.568 7.35 L 336.354 7.462 L 335.413 7.538 L 334.522 7.614 L 333.435 7.722 L 332.419 7.797 L 331.191 7.907 L 330.239 7.983 L 329.005 8.092 L 328.049 8.167 L 327.144 8.242 L 326.037 8.347 L 325.006 8.421 L 324.094 8.495 L 322.842 8.603 L 321.874 8.677 L 320.616 8.784 L 319.794 8.853 L 318.788 8.926 L 317.521 9.032 L 316.543 9.105 L 315.614 9.177 L 314.475 9.279 L 313.421 9.351 L 312.486 9.423 L 311.201 9.527 L 310.21 9.598 L 309.269 9.669 L 308.112 9.769 L 307.045 9.84 L 306.097 9.91 L 305.148 9.981 L 303.979 10.08 L 302.904 10.149 L 301.949 10.219 L 300.991 10.288 L 299.673 10.389 L 298.81 10.455 L 297.764 10.523 L 296.798 10.592 L 295.467 10.691 L 294.444 10.759 L 293.624 10.824 L 292.567 10.892 L 291.223 10.99 L 290.193 11.057 L 289.364 11.121 L 288.299 11.187 L 287.314 11.254 L 285.955 11.351 L 285.066 11.414 L 283.992 11.479 L 282.999 11.545 L 282.004 11.61 L 281.159 11.673 L 279.698 11.767 L 278.646 11.832 L 277.642 11.896 L 276.788 11.958 L 275.698 12.022 L 274.688 12.086 L 273.676 12.149 L 272.416 12.239 L 271.28 12.302 L 270.261 12.365 L 269.392 12.425 L 268.289 12.488 L 267.264 12.55 L 266.237 12.612 L 265.361 12.671 L 264.249 12.733 L 263.216 12.794 L 261.924 12.881 L 260.769 12.942 L 259.729 13.002 L 258.687 13.063 L 257.795 13.121 L 256.669 13.181 L 255.621 13.24 L 254.722 13.298 L 253.591 13.357 L 252.536 13.416 L 251.631 13.473 L 250.494 13.531 L 249.434 13.59 L 248.522 13.646 L 247.379 13.704 L 246.312 13.761 L 245.395 13.817 L 244.246 13.874 L 243.172 13.931 L 242.248 13.986 L 241.093 14.042 L 240.014 14.099 L 239.083 14.153 L 237.922 14.209 L 236.836 14.265 L 235.899 14.318 L 234.732 14.373 L 233.64 14.429 L 232.695 14.481 L 231.523 14.536 L 230.425 14.59 L 229.473 14.642 L 228.295 14.696 L 227.19 14.75 L 226.231 14.802 L 225.048 14.855 L 224.331 14.883 L 223.455 14.935 L 222.264 14.987 L 221.147 15.04 L 220.177 15.09 L 218.981 15.142 L 218.006 15.192 L 216.807 15.243 L 215.679 15.294 L 214.696 15.343 L 213.899 15.371 L 212.848 15.422 L 211.861 15.47 L 210.65 15.52 L 209.657 15.568 L 208.442 15.618 L 207.297 15.668 L 206.297 15.715 L 205.494 15.741 L 204.573 15.789 L 203.349 15.837 L 202.193 15.886 L 201.182 15.932 L 199.953 15.98 L 198.791 16.028 L 198.208 16.052 L 197.043 16.099 L 196.022 16.144 L 194.783 16.191 L 193.755 16.236 L 192.945 16.261 L 191.847 16.307 L 190.815 16.352 L 189.566 16.397 L 188.528 16.441 L 187.714 16.465 L 186.605 16.511 L 185.562 16.554 L 184.303 16.599 L 183.254 16.641 L 182.437 16.665 L 181.46 16.708 L 180.195 16.751 L 178.993 16.795 L 177.933 16.837 L 177.112 16.86 L 176.123 16.901 L 174.848 16.944 L 173.778 16.984 L 172.956 17.007 L 171.813 17.049 L 170.738 17.089 L 169.454 17.131 L 168.842 17.152 L 167.618 17.193 L 166.534 17.232 L 165.706 17.254 L 164.69 17.293 L 163.395 17.333 L 162.16 17.373 L 161.541 17.393 L 160.303 17.433 L 159.203 17.471 L 158.369 17.492 L 157.337 17.529 L 156.028 17.568 L 154.919 17.605 L 154.085 17.626 L 153.04 17.662 L 151.725 17.7 L 151.095 17.719 L 149.837 17.756 L 148.713 17.792 L 147.876 17.812 L 146.677 17.849 L 145.549 17.884 L 144.707 17.903 L 143.642 17.938 L 142.309 17.974 L 141.671 17.992 L 140.393 18.027 L 139.251 18.061 L 138.406 18.08 L 137.326 18.113 L 135.982 18.148 L 135.337 18.165 L 134.047 18.199 L 132.891 18.232 L 132.044 18.25 L 130.947 18.282 L 130.097 18.3 L 128.997 18.332 L 127.639 18.365 L 126.986 18.381 L 125.679 18.413 L 124.505 18.444 L 123.653 18.461 L 122.536 18.492 L 121.682 18.509 L 120.562 18.539 L 119.189 18.57 L 118.527 18.586 L 117.204 18.616 L 116.541 18.631 L 115.214 18.662 L 114.018 18.69 L 113.159 18.706 L 112.018 18.735 L 111.299 18.75 L 109.961 18.779 L 108.752 18.806 L 107.894 18.822 L 106.737 18.849 L 105.876 18.864 L 104.716 18.891 L 103.852 18.906 L 102.689 18.933 L 101.823 18.947 L 100.656 18.974 L 99.248 19.001 L 98.567 19.014 L 97.205 19.041 L 96.522 19.054 L 95.286 19.079 L 94.419 19.093 L 93.231 19.117 L 92.361 19.131 L 91.17 19.155 L 90.298 19.169 L 89.103 19.193 L 87.676 19.217 L 86.984 19.23 L 85.599 19.254 L 84.905 19.266 L 83.644 19.288 L 82.771 19.301 L 81.555 19.323 L 80.68 19.336 L 79.46 19.358 L 78.582 19.37 L 77.359 19.391 L 76.614 19.403 L 75.208 19.425 L 74.504 19.436 L 73.095 19.457 L 72.389 19.468 L 70.975 19.489 L 70.267 19.499 L 68.975 19.519 L 68.094 19.53 L 66.843 19.55 L 65.961 19.561 L 64.705 19.58 L 63.82 19.59 L 63.15 19.6 L 61.845 19.618 L 60.957 19.629 L 59.692 19.647 L 58.803 19.657 L 57.533 19.675 L 56.773 19.684 L 55.33 19.702 L 54.606 19.711 L 53.159 19.728 L 52.433 19.737 L 50.981 19.754 L 50.254 19.762 L 49.526 19.771 L 48.068 19.787 L 47.338 19.795 L 45.876 19.811 L 45.143 19.819 L 43.799 19.834 L 42.904 19.843 L 42.208 19.85 L 40.736 19.865 L 39.999 19.873 L 38.645 19.886 L 37.745 19.894 L 36.425 19.908 L 35.65 19.915 L 34.781 19.922 L 33.455 19.935 L 32.551 19.942 L 31.221 19.955 L 30.441 19.961 L 29.568 19.968 L 28.231 19.98 L 27.323 19.987 L 25.981 19.998 L 25.197 20.004 L 24.319 20.011 L 22.971 20.022 L 22.185 20.027 L 20.675 20.038 L 19.918 20.044 L 19.036 20.049 L 17.677 20.059 L 16.886 20.064 L 15.366 20.074 L 14.604 20.079 L 13.842 20.084 L 12.316 20.093 L 11.551 20.098 L 10.786 20.102 L 9.255 20.111 L 8.487 20.115 L 6.951 20.124 L 6.181 20.128 L 5.411 20.132 L 3.869 20.139 L 3.096 20.143 L 2.323 20.147 L 0.776 20.154 L 0 20.157 L 0.242 132.094 L 1.017 132.088 L 2.565 132.075 L 3.337 132.068 L 4.11 132.061 L 5.652 132.047 L 6.423 132.039 L 7.192 132.031 L 8.73 132.015 L 9.498 132.006 L 11.032 131.99 L 11.798 131.981 L 12.563 131.971 L 14.092 131.953 L 14.856 131.943 L 15.619 131.932 L 17.143 131.913 L 17.904 131.901 L 19.066 131.883 L 20.184 131.869 L 20.942 131.856 L 22.458 131.836 L 23.214 131.822 L 24.37 131.801 L 25.481 131.786 L 26.236 131.772 L 27.387 131.75 L 28.495 131.733 L 29.644 131.711 L 30.749 131.693 L 31.499 131.677 L 32.644 131.653 L 33.746 131.635 L 34.887 131.61 L 35.987 131.591 L 36.733 131.573 L 37.871 131.546 L 38.967 131.526 L 40.102 131.499 L 40.844 131.48 L 42.327 131.45 L 43.068 131.43 L 44.159 131.408 L 45.286 131.378 L 46.025 131.357 L 47.499 131.325 L 48.236 131.303 L 49.707 131.27 L 50.441 131.248 L 51.175 131.224 L 52.642 131.19 L 53.374 131.166 L 54.837 131.131 L 55.567 131.106 L 57.026 131.07 L 57.755 131.045 L 58.865 131.009 L 59.937 130.981 L 61.044 130.945 L 62.114 130.916 L 63.218 130.879 L 63.942 130.851 L 65.009 130.821 L 66.109 130.783 L 67.173 130.752 L 68.271 130.712 L 69.333 130.681 L 70.427 130.64 L 71.145 130.609 L 72.578 130.566 L 73.294 130.535 L 74.724 130.49 L 75.438 130.458 L 76.865 130.413 L 77.577 130.38 L 78.66 130.335 L 79.71 130.3 L 80.791 130.254 L 81.839 130.218 L 82.916 130.171 L 83.961 130.134 L 85.037 130.086 L 85.742 130.05 L 87.151 130 L 87.855 129.962 L 89.261 129.911 L 90.329 129.861 L 91.365 129.821 L 92.431 129.769 L 93.464 129.728 L 94.527 129.676 L 95.558 129.634 L 96.618 129.581 L 97.314 129.54 L 98.704 129.484 L 99.398 129.442 L 100.784 129.385 L 101.837 129.329 L 102.86 129.284 L 103.91 129.227 L 104.93 129.181 L 105.978 129.123 L 106.995 129.076 L 108.04 129.017 L 109.055 128.969 L 110.097 128.909 L 111.466 128.847 L 112.149 128.799 L 113.187 128.738 L 114.196 128.688 L 115.231 128.625 L 116.591 128.56 L 117.27 128.51 L 118.626 128.444 L 119.304 128.393 L 120.657 128.326 L 121.684 128.259 L 122.682 128.205 L 123.706 128.138 L 124.702 128.083 L 125.724 128.015 L 127.066 127.944 L 127.736 127.89 L 129.075 127.818 L 130.09 127.747 L 131.078 127.689 L 132.091 127.618 L 133.077 127.559 L 134.087 127.486 L 135.415 127.411 L 136.078 127.353 L 137.403 127.276 L 138.408 127.201 L 139.385 127.139 L 140.387 127.063 L 141.705 126.983 L 142.362 126.922 L 143.676 126.842 L 144.672 126.763 L 145.642 126.698 L 146.636 126.619 L 147.943 126.536 L 148.908 126.469 L 149.898 126.387 L 151.199 126.302 L 151.848 126.237 L 153.146 126.151 L 154.13 126.067 L 155.088 125.997 L 156.069 125.912 L 157.359 125.824 L 158.337 125.737 L 159.29 125.665 L 160.266 125.578 L 161.549 125.487 L 162.189 125.416 L 163.469 125.324 L 164.746 125.23 L 165.715 125.14 L 166.658 125.064 L 167.624 124.972 L 168.894 124.876 L 169.528 124.802 L 170.795 124.705 L 171.756 124.611 L 173.019 124.512 L 173.953 124.432 L 174.909 124.336 L 176.166 124.236 L 177.12 124.138 L 178.048 124.056 L 178.999 123.957 L 180.25 123.854 L 181.498 123.75 L 182.444 123.649 L 183.366 123.564 L 184.31 123.462 L 185.551 123.355 L 186.492 123.252 L 187.729 123.144 L 188.643 123.055 L 189.58 122.95 L 190.812 122.84 L 191.746 122.733 L 192.974 122.622 L 193.881 122.53 L 194.811 122.422 L 196.034 122.308 L 196.961 122.198 L 198.18 122.083 L 198.788 121.993 L 200.003 121.876 L 201.217 121.759 L 202.137 121.645 L 203.346 121.526 L 204.554 121.407 L 205.469 121.291 L 206.36 121.192 L 207.274 121.075 L 208.474 120.952 L 209.672 120.829 L 210.581 120.71 L 211.776 120.585 L 212.682 120.464 L 213.872 120.338 L 214.752 120.233 L 215.654 120.111 L 216.84 119.982 L 218.023 119.853 L 218.921 119.728 L 220.1 119.597 L 220.995 119.47 L 222.171 119.338 L 223.344 119.204 L 224.235 119.075 L 225.101 118.964 L 226.269 118.829 L 227.156 118.698 L 228.32 118.56 L 229.483 118.422 L 230.366 118.289 L 231.524 118.149 L 232.681 118.009 L 233.559 117.873 L 234.712 117.731 L 235.863 117.588 L 236.737 117.45 L 237.884 117.305 L 239.03 117.16 L 239.899 117.019 L 241.041 116.872 L 242.18 116.724 L 243.046 116.581 L 244.182 116.432 L 245.315 116.281 L 246.177 116.136 L 247.307 115.984 L 248.435 115.831 L 249.292 115.683 L 250.416 115.528 L 251.538 115.372 L 252.391 115.222 L 253.51 115.065 L 254.627 114.907 L 255.476 114.754 L 256.589 114.594 L 257.699 114.433 L 258.544 114.278 L 259.652 114.115 L 260.757 113.952 L 261.86 113.787 L 262.987 113.601 L 264.087 113.435 L 265.184 113.267 L 266.018 113.106 L 267.112 112.937 L 268.204 112.767 L 269.293 112.596 L 270.122 112.432 L 271.208 112.259 L 272.292 112.085 L 273.401 111.889 L 274.481 111.714 L 275.559 111.537 L 276.635 111.359 L 277.454 111.189 L 278.526 111.009 L 279.596 110.829 L 280.945 110.618 L 281.759 110.444 L 282.823 110.26 L 283.885 110.076 L 284.946 109.891 L 285.754 109.713 L 287.089 109.496 L 288.143 109.307 L 289.195 109.118 L 289.998 108.936 L 291.047 108.745 L 292.369 108.522 L 293.414 108.329 L 294.21 108.143 L 295.251 107.948 L 296.565 107.721 L 297.601 107.524 L 298.636 107.325 L 299.425 107.134 L 300.729 106.903 L 301.758 106.701 L 302.784 106.499 L 303.809 106.295 L 304.862 106.068 L 305.883 105.862 L 306.902 105.655 L 307.919 105.447 L 308.965 105.216 L 309.979 105.006 L 310.99 104.795 L 312.267 104.55 L 313.274 104.337 L 314.278 104.123 L 315.314 103.884 L 316.315 103.668 L 317.314 103.45 L 318.576 103.198 L 319.571 102.978 L 320.332 102.767 L 321.588 102.512 L 322.577 102.289 L 323.827 102.031 L 324.812 101.805 L 325.795 101.578 L 326.81 101.327 L 327.789 101.098 L 328.766 100.868 L 330.003 100.603 L 330.975 100.37 L 332.206 100.102 L 333.175 99.867 L 334.177 99.608 L 335.142 99.37 L 336.105 99.132 L 337.325 98.858 L 338.284 98.617 L 339.498 98.34 L 340.452 98.096 L 341.442 97.828 L 342.393 97.582 L 343.598 97.3 L 344.545 97.052 L 345.744 96.767 L 346.687 96.516 L 347.882 96.229 L 348.82 95.976 L 350.01 95.685 L 350.73 95.442 L 351.916 95.148 L 353.099 94.854 L 354.027 94.595 L 355.205 94.297 L 356.13 94.035 L 357.303 93.735 L 358.223 93.471 L 359.391 93.168 L 360.557 92.863 L 361.471 92.595 L 362.424 92.3 L 363.335 92.029 L 364.491 91.719 L 365.645 91.408 L 366.55 91.133 L 367.699 90.818 L 368.845 90.503 L 369.743 90.223 L 370.885 89.905 L 372.024 89.584 L 372.916 89.301 L 374.05 88.978 L 375.182 88.653 L 376.068 88.366 L 377.195 88.038 L 378.32 87.709 L 379.199 87.417 L 380.319 87.085 L 381.437 86.751 L 382.551 86.416 L 383.423 86.119 L 384.533 85.78 L 385.641 85.44 L 386.553 85.113 L 387.657 84.77 L 388.519 84.465 L 389.618 84.119 L 390.714 83.772 L 391.808 83.422 L 392.899 83.072 L 393.94 82.745 L 395.026 82.391 L 396.11 82.035 L 397.191 81.678 L 398.27 81.319 L 399.347 80.959 L 400.186 80.637 L 401.258 80.274 L 402.328 79.908 L 403.395 79.541 L 404.46 79.172 L 405.523 78.802 L 406.583 78.43 L 407.641 78.056 L 407.642 77.37 L 407.643 76.682 L 407.643 75.992 L 407.644 75.3 L 407.645 74.606 L 407.646 73.911 L 407.647 73.213 L 407.648 72.514 L 407.649 71.813 L 407.65 71.11 L 407.652 70.405 L 407.653 69.698 L 407.654 68.989 L 407.656 68.279 L 407.658 67.566 L 407.659 66.852 L 407.661 66.136 L 407.663 65.417 L 407.665 64.697 L 407.667 63.975 L 407.669 63.252 L 407.671 62.526 L 407.672 62.069 L 411.363 62.733 L 411.393 54.169 L 407.698 54.807 L 404.002 55.442 L 404.041 46.496 L 407.731 47.164 L 411.421 47.834 L 411.47 38.505 L 407.773 39.136 L 404.076 39.766 L 404.124 31.66 L 407.813 32.333 L 411.502 33.008 L 411.557 24.588 L 407.86 25.216 L 404.162 25.841 L 404.223 17.107 L 407.912 17.784 L 407.923 16.317 L 407.929 15.476 L 407.935 14.632 L 407.942 13.787 L 407.948 12.94 L 407.955 12.091 L 407.961 11.24 L 407.968 10.387 L 407.974 9.533 L 407.981 8.676 L 407.988 7.817 L 407.995 6.956 L 408.002 6.094 L 408.009 5.229 L 408.016 4.362 L 408.023 3.494 L 408.03 2.623 L 408.037 1.751 L 408.044 0.876 L 408.052 0 Z" vector-effect="non-scaling-stroke"/><path d="M 0 20.157 L 0.002 21.538 L 0.005 22.913 L 0.007 24.282 L 0.009 25.647 L 0.012 27.005 L 0.014 28.359 L 0.016 29.707 L 0.019 31.049 L 0.021 32.386 L 0.023 33.718 L 0.026 35.045 L 0.028 36.366 L 0.03 37.681 L 0.032 38.991 L 0.035 40.296 L 0.037 41.596 L 0.039 42.89 L 0.042 44.178 L 0.044 45.462 L 0.046 46.74 L 0.049 48.012 L 0.051 49.28 L 0.053 50.541 L 0.056 51.798 L 0.058 53.049 L 0.06 54.295 L 0.062 55.536 L 0.065 56.771 L 0.067 58.001 L 0.069 59.225 L 0.072 60.445 L 0.074 61.659 L 0.076 62.867 L 0.079 64.071 L 0.081 65.269 L 0.083 66.462 L 0.086 67.649 L 0.088 68.831 L 0.09 70.008 L 0.092 71.18 L 0.095 72.347 L 0.097 73.508 L 0.099 74.664 L 0.102 75.814 L 0.104 76.96 L 0.106 78.1 L 0.109 79.235 L 0.111 80.365 L 0.114 81.489 L 0.116 82.609 L 0.118 83.723 L 0.121 84.832 L 0.123 85.935 L 0.125 87.034 L 0.128 88.127 L 0.13 89.216 L 0.133 90.299 L 0.135 91.376 L 0.137 92.449 L 0.14 93.517 L 0.142 94.579 L 0.145 95.636 L 0.147 96.689 L 0.149 97.736 L 0.152 98.778 L 0.154 99.814 L 0.157 100.846 L 0.159 101.873 L 0.162 102.894 L 0.164 103.911 L 0.167 104.922 L 0.169 105.929 L 0.172 106.93 L 0.174 107.926 L 0.177 108.918 L 0.179 109.904 L 0.182 110.885 L 0.184 111.862 L 0.187 112.833 L 0.189 113.799 L 0.192 114.76 L 0.194 115.717 L 0.197 116.668 L 0.2 117.614 L 0.202 118.556 L 0.205 119.493 L 0.207 120.424 L 0.21 121.351 L 0.213 122.273 L 0.215 123.19 L 0.218 124.102 L 0.221 125.009 L 0.223 125.912 L 0.226 126.809 L 0.229 127.702 L 0.231 128.59 L 0.234 129.473 L 0.237 130.351 L 0.24 131.225 L 0.242 132.094 M 258.687 13.063 L 258.683 14.266 L 258.68 15.466 L 258.676 16.661 L 258.672 17.853 L 258.669 19.04 L 258.665 20.224 L 258.662 21.404 L 258.658 22.579 L 258.655 23.751 L 258.651 24.919 L 258.648 26.083 L 258.645 27.243 L 258.642 28.399 L 258.638 29.552 L 258.635 30.7 L 258.632 31.844 L 258.629 32.985 L 258.626 34.121 L 258.623 35.254 L 258.62 36.383 L 258.617 37.507 L 258.614 38.628 L 258.611 39.745 L 258.608 40.859 L 258.606 41.968 L 258.603 43.073 L 258.6 44.175 L 258.598 45.272 L 258.595 46.366 L 258.592 47.456 L 258.59 48.541 L 258.587 49.623 L 258.585 50.702 L 258.583 51.776 L 258.58 52.846 L 258.578 53.913 L 258.576 54.975 L 258.574 56.034 L 258.572 57.089 L 258.569 58.14 L 258.567 59.187 L 258.565 60.231 L 258.563 61.27 L 258.562 62.306 L 258.56 63.338 L 258.558 64.366 L 258.556 65.39 L 258.555 66.41 L 258.553 67.427 L 258.551 68.44 L 258.55 69.448 L 258.548 70.453 L 258.547 71.455 L 258.545 72.452 L 258.544 73.446 L 258.543 74.435 L 258.542 75.421 L 258.54 76.404 L 258.539 77.382 L 258.538 78.357 L 258.537 79.327 L 258.536 80.294 L 258.535 81.258 L 258.535 82.217 L 258.534 83.173 L 258.533 84.125 L 258.532 85.073 L 258.532 86.017 L 258.531 86.958 L 258.531 87.895 L 258.53 88.828 L 258.53 89.757 L 258.53 90.683 L 258.529 91.605 L 258.529 92.523 L 258.529 93.438 L 258.529 94.348 L 258.529 95.255 L 258.529 96.159 L 258.529 97.058 L 258.529 97.954 L 258.529 98.846 L 258.53 99.735 L 258.53 100.619 L 258.53 101.501 L 258.531 102.378 L 258.531 103.252 L 258.532 104.122 L 258.533 104.988 L 258.533 105.851 L 258.534 106.71 L 258.535 107.565 L 258.536 108.417 L 258.537 109.265 L 258.538 110.11 L 258.539 110.951 L 258.54 111.788 L 258.541 112.622 L 258.543 113.452 L 258.544 114.278" id="blue" stroke="blue" style="stroke:blue" vector-effect="non-scaling-stroke"/><g id="captions"><text alignment-baseline="middle" text-anchor="middle" transform="rotate(0,203.347,68.682)" x="203.347" y="68.682">LEE, 3, 1</text></g></g></svg>