<svg width="2909.739" height="1197.577" viewBox="0 0 2909.739 1197.577" xmlns="http://www.w3.org/2000/svg"><g id="svgGroup" stroke-linecap="round" fill-rule="evenodd" font-size="9pt" stroke="#000" stroke-width="0.25mm" fill="none" style="stroke:#000;stroke-width:0.25mm;fill:none"><path d="M 2884.387 0 L 2878.964 15.301 L 2875.773 29.163 L 2868.332 42.148 L 2862.881 54.269 L 2857.426 65.685 L 2851.968 76.5 L 2848.758 86.637 L 2841.4 96.498 L 2835.94 105.933 L 2830.474 115.008 L 2824.777 123.548 L 2822.855 131.813 L 2815.519 140.026 L 2810.033 147.969 L 2804.54 155.687 L 2801.314 163.015 L 2793.984 170.357 L 2788.478 177.493 L 2785.252 184.27 L 2777.919 191.108 L 2772.398 197.769 L 2766.867 204.29 L 2763.639 210.481 L 2756.29 216.777 L 2750.74 222.924 L 2747.51 228.753 L 2739.92 234.502 L 2735.568 240.3 L 2732.332 245.82 L 2724.945 251.488 L 2721.707 256.822 L 2714.31 262.319 L 2708.698 267.697 L 2705.454 272.779 L 2698.033 278.042 L 2692.396 283.194 L 2688.825 287.843 L 2682.668 292.868 L 2679.411 297.592 L 2671.945 302.518 L 2668.682 307.115 L 2661.2 311.922 L 2655.497 316.629 L 2651.887 320.844 L 2645.665 325.454 L 2642.384 329.768 L 2634.848 334.307 L 2631.559 338.517 L 2624.005 342.962 L 2620.358 346.872 L 2614.076 351.191 L 2610.769 355.212 L 2603.171 359.479 L 2599.854 363.412 L 2591.988 367.398 L 2589.836 371.213 L 2582.193 375.319 L 2578.854 379.09 L 2571.189 383.123 L 2567.471 386.622 L 2561.079 390.545 L 2557.714 394.168 L 2550.001 398.062 L 2546.253 401.422 L 2539.812 405.21 L 2536.421 408.698 L 2530.855 412.017 L 2524.381 415.712 L 2520.967 419.104 L 2512.924 422.591 L 2510.657 425.882 L 2502.833 429.502 L 2499.01 432.588 L 2495.063 435.851 L 2487.205 439.39 L 2483.357 442.395 L 2476.769 445.839 L 2473.282 448.976 L 2467.618 451.967 L 2460.993 455.336 L 2457.479 458.396 L 2451.791 461.316 L 2445.127 464.614 L 2441.207 467.422 L 2437.164 470.405 L 2428.937 473.504 L 2426.507 476.376 L 2421.143 479.339 L 2412.883 482.377 L 2410.416 485.182 L 2404.653 487.908 L 2397.871 491.011 L 2393.864 493.628 L 2389.732 496.416 L 2381.403 499.338 L 2378.865 502.018 L 2373.049 504.629 L 2366.184 507.616 L 2362.117 510.118 L 2357.921 512.79 L 2352.072 515.331 L 2344.944 518.078 L 2342.316 520.624 L 2336.439 523.113 L 2332.186 525.695 L 2323.74 528.433 L 2321.054 530.907 L 2315.144 533.332 L 2310.497 535.687 L 2303.466 538.469 L 2299.274 540.77 L 2294.595 543.077 L 2290.248 545.527 L 2281.717 548.145 L 2278.578 550.331 L 2274.194 552.736 L 2268.206 555.028 L 2263.467 557.248 L 2256.309 559.896 L 2252.018 562.065 L 2247.247 564.243 L 2242.466 566.408 L 2237.992 568.71 L 2229.363 571.196 L 2226.093 573.241 L 2221.27 575.353 L 2216.744 577.602 L 2210.662 579.751 L 2203.217 582.113 L 2199.881 584.094 L 2195.004 586.144 L 2190.412 588.329 L 2184.285 590.417 L 2179.377 592.432 L 2174.459 594.435 L 2166.935 596.715 L 2163.504 598.613 L 2158.828 600.725 L 2152.648 602.746 L 2147.675 604.693 L 2142.692 606.629 L 2137.699 608.554 L 2132.695 610.468 L 2125.08 612.664 L 2121.537 614.473 L 2116.498 616.356 L 2111.449 618.228 L 2106.389 620.091 L 2101.319 621.944 L 2096.238 623.787 L 2091.147 625.62 L 2086.045 627.443 L 2080.932 629.257 L 2073.203 631.354 L 2069.52 633.063 L 2064.371 634.849 L 2059.212 636.625 L 2054.041 638.392 L 2048.86 640.15 L 2043.668 641.899 L 2038.465 643.64 L 2033.25 645.371 L 2028.025 647.094 L 2022.788 648.809 L 2017.541 650.515 L 2012.282 652.212 L 2007.012 653.901 L 2001.73 655.582 L 1996.437 657.255 L 1990.712 658.812 L 1986.799 660.379 L 1981.473 662.027 L 1976.136 663.668 L 1970.788 665.301 L 1965.428 666.926 L 1957.32 668.718 L 1954.433 670.164 L 1949.037 671.766 L 1943.629 673.361 L 1938.21 674.949 L 1932.407 676.422 L 1928.335 677.906 L 1926.878 679.098 L 1918.656 680.825 L 1913.183 682.377 L 1907.362 683.819 L 1903.207 685.266 L 1897.7 686.797 L 1892.18 688.321 L 1886.335 689.737 L 1882.119 691.156 L 1876.566 692.66 L 1870.701 694.057 L 1866.441 695.457 L 1860.853 696.941 L 1854.969 698.318 L 1850.665 699.699 L 1845.042 701.165 L 1839.138 702.523 L 1834.789 703.886 L 1829.132 705.333 L 1823.208 706.673 L 1818.814 708.018 L 1813.121 709.447 L 1807.178 710.768 L 1806.631 711.719 L 1798.099 713.204 L 1793.624 714.518 L 1787.876 715.918 L 1781.912 717.214 L 1777.391 718.512 L 1771.412 719.796 L 1766.863 721.084 L 1760.869 722.356 L 1756.293 723.633 L 1750.462 724.995 L 1748.001 725.887 L 1741.169 727.307 L 1735.156 728.556 L 1730.494 729.805 L 1724.466 731.042 L 1719.776 732.282 L 1713.733 733.509 L 1709.014 734.739 L 1702.957 735.955 L 1701.996 736.8 L 1693.512 738.18 L 1688.726 739.39 L 1682.653 740.588 L 1677.838 741.789 L 1671.751 742.977 L 1666.824 744.07 L 1665.723 744.884 L 1657.252 746.229 L 1652.359 747.407 L 1646.247 748.572 L 1641.324 749.741 L 1635.197 750.897 L 1630.203 751.958 L 1628.956 752.743 L 1620.502 754.055 L 1615.481 755.104 L 1610.47 756.249 L 1604.307 757.377 L 1599.265 758.514 L 1596.512 759.275 L 1589.451 760.459 L 1584.358 761.583 L 1578.171 762.691 L 1573.074 763.707 L 1571.591 764.448 L 1563.17 765.712 L 1558.045 766.716 L 1552.861 767.817 L 1546.64 768.9 L 1541.486 769.892 L 1539.877 770.612 L 1531.469 771.851 L 1526.287 772.833 L 1521.097 773.81 L 1519.402 774.516 L 1511.007 775.739 L 1505.789 776.705 L 1500.561 777.668 L 1495.212 778.729 L 1492.255 779.416 L 1485.146 780.52 L 1479.882 781.468 L 1474.47 782.515 L 1468.162 783.541 L 1466.182 784.129 L 1459.054 785.212 L 1453.578 786.246 L 1447.25 787.258 L 1445.209 787.832 L 1438.077 788.902 L 1432.728 789.82 L 1427.177 790.838 L 1424.085 791.483 L 1416.949 792.539 L 1411.563 793.443 L 1406.167 794.345 L 1404.026 794.898 L 1396.629 796.041 L 1390.245 797.016 L 1384.812 797.905 L 1382.606 798.445 L 1375.442 799.472 L 1369.983 800.352 L 1364.514 801.228 L 1362.191 801.851 L 1353.863 802.958 L 1348.366 803.826 L 1346.056 804.348 L 1338.882 805.352 L 1333.358 806.211 L 1327.824 807.067 L 1325.474 807.58 L 1318.277 808.57 L 1312.716 809.417 L 1310.175 810.016 L 1301.879 811.089 L 1296.29 811.928 L 1290.691 812.765 L 1288.232 813.26 L 1281.027 814.229 L 1275.401 815.056 L 1272.903 815.545 L 1265.689 816.504 L 1260.037 817.324 L 1257.498 817.806 L 1250.277 818.756 L 1244.598 819.568 L 1242.018 820.043 L 1234.789 820.984 L 1229.083 821.788 L 1226.463 822.257 L 1219.226 823.189 L 1213.493 823.985 L 1210.831 824.448 L 1203.587 825.371 L 1197.827 826.16 L 1195.122 826.616 L 1187.872 827.531 L 1182.084 828.313 L 1179.337 828.763 L 1172.08 829.669 L 1166.265 830.444 L 1163.474 830.888 L 1156.211 831.786 L 1150.369 832.553 L 1147.533 832.991 L 1140.266 833.881 L 1134.395 834.642 L 1131.515 835.074 L 1124.242 835.956 L 1118.675 836.614 L 1116.78 836.95 L 1109.477 837.823 L 1103.554 838.569 L 1100.613 838.992 L 1093.305 839.857 L 1090.324 840.276 L 1083.024 841.136 L 1077.055 841.872 L 1074.027 842.285 L 1067.129 843.038 L 1062.087 843.678 L 1059.043 844.088 L 1051.71 844.932 L 1048.623 845.337 L 1041.299 846.177 L 1035.259 846.895 L 1032.124 847.295 L 1025.257 848.025 L 1023.031 848.336 L 1015.686 849.163 L 1009.603 849.871 L 1006.408 850.264 L 999.06 851.084 L 992.949 851.786 L 989.88 852.099 L 983.759 852.797 L 980.503 853.182 L 973.136 853.989 L 969.835 854.371 L 963.027 855.067 L 957.723 855.673 L 954.404 856.051 L 947.019 856.846 L 943.655 857.221 L 936.861 857.903 L 931.495 858.5 L 928.112 858.872 L 920.71 859.655 L 917.281 860.023 L 910.503 860.691 L 907.893 860.977 L 900.485 861.752 L 894.207 862.418 L 890.711 862.779 L 883.951 863.433 L 881.256 863.715 L 873.832 864.478 L 870.277 864.834 L 863.545 865.478 L 857.997 866.055 L 854.422 866.407 L 846.982 867.16 L 843.789 867.419 L 837.419 868.065 L 833.782 868.413 L 827.061 869.037 L 824.182 869.309 L 816.723 870.048 L 810.304 870.686 L 807.079 870.933 L 800.648 871.567 L 796.927 871.906 L 790.218 872.512 L 787.234 872.778 L 779.745 873.502 L 775.959 873.836 L 769.284 874.433 L 766.212 874.695 L 758.722 875.411 L 755.453 875.64 L 748.935 876.258 L 745.07 876.586 L 738.421 877.167 L 732.575 877.712 L 728.687 878.037 L 722.02 878.611 L 718.822 878.866 L 711.288 879.563 L 707.979 879.778 L 701.382 880.381 L 697.412 880.7 L 690.774 881.259 L 687.468 881.509 L 679.918 882.195 L 676.583 882.4 L 669.934 882.994 L 665.879 883.306 L 659.272 883.851 L 655.855 884.097 L 649.239 884.637 L 645.806 884.882 L 638.227 885.552 L 634.856 885.744 L 628.138 886.326 L 623.981 886.63 L 617.4 887.156 L 613.852 887.397 L 607.263 887.918 L 603.697 888.157 L 596.09 888.812 L 592.685 888.992 L 585.896 889.563 L 582.482 889.74 L 575.677 890.308 L 571.398 890.602 L 564.84 891.104 L 561.137 891.339 L 556.914 891.585 L 550.066 892.147 L 545.706 892.437 L 539.194 892.927 L 535.379 893.159 L 528.861 893.645 L 525.028 893.876 L 518.503 894.357 L 514.651 894.587 L 508.12 895.064 L 504.248 895.292 L 496.572 895.913 L 493.083 896.064 L 486.13 896.609 L 482.632 896.757 L 478.12 897.035 L 471.634 897.496 L 467.626 897.721 L 461.134 898.178 L 457.106 898.402 L 450.609 898.854 L 446.56 899.076 L 438.843 899.677 L 435.305 899.813 L 428.257 900.343 L 424.711 900.476 L 420.056 900.745 L 413.609 901.182 L 409.417 901.401 L 402.966 901.834 L 398.752 902.052 L 392.296 902.48 L 388.061 902.697 L 383.855 902.881 L 376.722 903.399 L 373.133 903.518 L 365.982 904.033 L 362.384 904.149 L 355.216 904.662 L 351.61 904.775 L 346.778 905.033 L 340.373 905.44 L 335.957 905.652 L 329.549 906.055 L 325.109 906.266 L 318.699 906.665 L 315.496 906.726 L 310.594 906.978 L 304.182 907.37 L 299.685 907.579 L 293.27 907.968 L 288.748 908.175 L 284.54 908.325 L 277.244 908.82 L 273.572 908.913 L 266.259 909.405 L 262.579 909.495 L 255.247 909.985 L 251.558 910.073 L 247.868 910.159 L 240.513 910.645 L 236.811 910.729 L 229.439 911.213 L 225.728 911.294 L 220.607 911.534 L 214.251 911.891 L 210.898 911.932 L 203.483 912.409 L 199.751 912.484 L 194.577 912.72 L 188.221 913.068 L 183.38 913.266 L 179.175 913.382 L 173.275 913.678 L 168.398 913.875 L 162.042 914.213 L 157.137 914.409 L 152.925 914.517 L 147.011 914.805 L 142.068 914.999 L 135.714 915.328 L 130.743 915.521 L 126.524 915.621 L 120.598 915.901 L 115.588 916.092 L 111.366 916.188 L 103.788 916.644 L 99.973 916.694 L 94.034 916.967 L 88.956 917.156 L 84.727 917.243 L 77.106 917.694 L 73.27 917.738 L 69.432 917.781 L 61.786 918.228 L 57.937 918.269 L 54.087 918.308 L 46.416 918.751 L 42.554 918.788 L 34.864 919.23 L 30.993 919.264 L 27.12 919.297 L 19.406 919.736 L 15.522 919.766 L 11.637 919.796 L 3.897 920.231 L 0 920.258 L 28.428 1197.577 L 32.314 1197.491 L 40.044 1197 L 43.922 1196.913 L 47.797 1196.825 L 55.507 1196.333 L 59.374 1196.243 L 63.238 1196.153 L 70.926 1195.659 L 74.783 1195.568 L 82.455 1195.073 L 86.303 1194.98 L 90.149 1194.886 L 97.8 1194.39 L 101.637 1194.295 L 105.472 1194.199 L 113.102 1193.7 L 116.929 1193.603 L 121.667 1193.406 L 128.363 1193.005 L 132.179 1192.906 L 139.772 1192.405 L 143.581 1192.304 L 148.286 1192.104 L 154.959 1191.7 L 158.757 1191.596 L 163.444 1191.395 L 170.104 1190.988 L 174.778 1190.785 L 181.428 1190.377 L 185.208 1190.27 L 189.863 1190.066 L 196.5 1189.656 L 201.142 1189.45 L 207.769 1189.039 L 211.531 1188.928 L 216.155 1188.721 L 222.769 1188.307 L 227.38 1188.098 L 231.126 1187.984 L 238.582 1187.473 L 242.321 1187.358 L 248.912 1186.94 L 253.492 1186.729 L 257.22 1186.611 L 264.64 1186.098 L 268.361 1185.978 L 275.766 1185.464 L 279.479 1185.343 L 283.189 1185.221 L 290.574 1184.704 L 294.276 1184.581 L 301.646 1184.064 L 305.341 1183.939 L 312.695 1183.42 L 316.383 1183.294 L 320.883 1183.074 L 327.402 1182.646 L 331.889 1182.425 L 338.399 1181.995 L 342.874 1181.774 L 346.539 1181.643 L 353.036 1181.21 L 357.493 1180.986 L 363.98 1180.552 L 368.425 1180.327 L 374.901 1179.891 L 379.335 1179.666 L 382.975 1179.529 L 390.222 1179.001 L 393.855 1178.863 L 401.086 1178.334 L 404.712 1178.194 L 411.929 1177.663 L 415.547 1177.522 L 419.932 1177.291 L 426.36 1176.847 L 430.733 1176.614 L 437.15 1176.169 L 441.512 1175.935 L 447.919 1175.488 L 452.268 1175.253 L 455.857 1175.105 L 463.003 1174.568 L 466.585 1174.418 L 473.715 1173.88 L 478.034 1173.641 L 484.406 1173.189 L 488.713 1172.949 L 495.075 1172.495 L 499.371 1172.254 L 505.722 1171.797 L 510.006 1171.555 L 513.554 1171.398 L 520.619 1170.853 L 524.16 1170.694 L 531.211 1170.148 L 535.465 1169.902 L 541.781 1169.44 L 546.024 1169.192 L 552.33 1168.729 L 556.561 1168.48 L 562.857 1168.014 L 567.077 1167.764 L 573.362 1167.296 L 577.571 1167.045 L 584.547 1166.492 L 588.043 1166.322 L 592.234 1166.068 L 598.494 1165.596 L 602.674 1165.34 L 609.614 1164.784 L 613.092 1164.61 L 620.018 1164.052 L 623.489 1163.876 L 630.401 1163.316 L 634.545 1163.055 L 640.762 1162.577 L 644.896 1162.315 L 651.102 1161.834 L 655.225 1161.571 L 662.092 1161.006 L 665.533 1160.823 L 672.386 1160.257 L 676.484 1159.99 L 682.658 1159.504 L 686.746 1159.236 L 692.91 1158.748 L 696.987 1158.478 L 703.796 1157.907 L 707.207 1157.716 L 714.001 1157.144 L 718.055 1156.87 L 724.186 1156.376 L 728.229 1156.102 L 734.993 1155.526 L 738.382 1155.329 L 745.132 1154.752 L 749.152 1154.473 L 755.25 1153.973 L 759.26 1153.693 L 765.98 1153.112 L 772.061 1152.609 L 776.053 1152.327 L 782.751 1151.743 L 786.105 1151.538 L 792.789 1150.952 L 796.758 1150.666 L 802.806 1150.157 L 806.766 1149.869 L 813.419 1149.28 L 817.367 1148.99 L 823.392 1148.477 L 827.329 1148.185 L 833.954 1147.593 L 837.271 1147.377 L 843.881 1146.782 L 850.483 1146.186 L 854.391 1145.89 L 860.376 1145.369 L 864.275 1145.071 L 870.847 1144.472 L 874.137 1144.248 L 880.696 1143.647 L 884.573 1143.344 L 891.115 1142.741 L 897.06 1142.213 L 900.921 1141.908 L 907.44 1141.301 L 911.289 1140.994 L 917.212 1140.461 L 921.051 1140.152 L 927.542 1139.542 L 934.023 1138.93 L 937.845 1138.618 L 943.737 1138.079 L 947.549 1137.765 L 954.002 1137.149 L 957.802 1136.833 L 964.239 1136.215 L 970.102 1135.671 L 973.886 1135.351 L 980.301 1134.73 L 984.075 1134.408 L 990.475 1133.785 L 996.307 1133.234 L 1000.065 1132.91 L 1006.442 1132.283 L 1010.188 1131.956 L 1016.551 1131.326 L 1019.735 1131.071 L 1026.084 1130.44 L 1032.423 1129.807 L 1036.143 1129.474 L 1042.468 1128.839 L 1048.784 1128.203 L 1052.487 1127.867 L 1058.248 1127.301 L 1061.941 1126.963 L 1068.229 1126.322 L 1074.507 1125.68 L 1078.184 1125.338 L 1084.448 1124.693 L 1088.114 1124.349 L 1094.363 1123.702 L 1100.074 1123.126 L 1103.725 1122.778 L 1109.952 1122.127 L 1116.17 1121.475 L 1119.804 1121.123 L 1126.007 1120.468 L 1129.632 1120.114 L 1135.82 1119.457 L 1141.999 1118.798 L 1145.607 1118.44 L 1151.256 1117.85 L 1157.414 1117.188 L 1161.007 1116.826 L 1167.149 1116.16 L 1173.283 1115.493 L 1176.86 1115.128 L 1182.979 1114.458 L 1189.089 1113.787 L 1192.65 1113.417 L 1198.746 1112.743 L 1204.832 1112.068 L 1208.378 1111.694 L 1214.45 1111.016 L 1220.513 1110.337 L 1224.043 1109.959 L 1230.092 1109.276 L 1236.132 1108.593 L 1239.646 1108.21 L 1245.671 1107.523 L 1251.688 1106.835 L 1255.187 1106.448 L 1261.189 1105.757 L 1267.183 1105.064 L 1270.666 1104.673 L 1276.645 1103.977 L 1282.615 1103.28 L 1286.083 1102.884 L 1292.039 1102.184 L 1297.986 1101.481 L 1301.439 1101.081 L 1307.372 1100.376 L 1313.296 1099.669 L 1316.733 1099.264 L 1322.643 1098.554 L 1328.544 1097.842 L 1334.437 1097.128 L 1338.325 1096.646 L 1344.203 1095.93 L 1350.071 1095.211 L 1353.472 1094.795 L 1359.326 1094.074 L 1365.171 1093.35 L 1371.008 1092.625 L 1374.388 1092.202 L 1380.211 1091.473 L 1386.025 1090.743 L 1389.852 1090.244 L 1395.65 1089.51 L 1401.44 1088.775 L 1407.222 1088.037 L 1410.566 1087.602 L 1416.333 1086.861 L 1422.092 1086.118 L 1428.295 1085.302 L 1431.618 1084.86 L 1437.353 1084.112 L 1443.079 1083.361 L 1448.797 1082.609 L 1452.101 1082.16 L 1458.251 1081.332 L 1463.945 1080.574 L 1469.63 1079.814 L 1472.913 1079.358 L 1478.585 1078.594 L 1484.689 1077.756 L 1490.342 1076.988 L 1493.605 1076.524 L 1499.244 1075.752 L 1505.312 1074.907 L 1510.933 1074.13 L 1516.546 1073.352 L 1519.783 1072.878 L 1525.816 1072.024 L 1531.405 1071.239 L 1536.985 1070.453 L 1542.556 1069.663 L 1546.201 1069.108 L 1551.757 1068.315 L 1557.306 1067.519 L 1562.845 1066.721 L 1566.466 1066.157 L 1571.991 1065.355 L 1577.508 1064.551 L 1583.44 1063.673 L 1588.938 1062.864 L 1594.428 1062.052 L 1598.013 1061.475 L 1603.488 1060.659 L 1608.955 1059.841 L 1614.833 1058.948 L 1620.281 1058.125 L 1623.418 1057.609 L 1629.27 1056.709 L 1634.695 1055.879 L 1640.528 1054.973 L 1645.935 1054.139 L 1651.334 1053.301 L 1654.855 1052.697 L 1660.24 1051.855 L 1665.616 1051.01 L 1671.394 1050.089 L 1676.752 1049.239 L 1682.511 1048.313 L 1687.852 1047.458 L 1691.332 1046.836 L 1696.658 1045.976 L 1701.975 1045.113 L 1707.69 1044.173 L 1712.989 1043.304 L 1718.685 1042.359 L 1723.967 1041.485 L 1727.407 1040.845 L 1732.675 1039.965 L 1738.335 1039.008 L 1743.585 1038.123 L 1749.226 1037.16 L 1754.458 1036.27 L 1760.081 1035.3 L 1765.295 1034.404 L 1770.898 1033.428 L 1773.889 1032.839 L 1779.477 1031.858 L 1785.055 1030.873 L 1790.228 1029.962 L 1795.787 1028.971 L 1800.943 1028.054 L 1806.483 1027.056 L 1811.621 1026.133 L 1817.143 1025.129 L 1822.654 1024.121 L 1827.765 1023.188 L 1831.093 1022.488 L 1836.19 1021.549 L 1841.668 1020.529 L 1847.136 1019.505 L 1852.207 1018.556 L 1857.657 1017.524 L 1863.096 1016.49 L 1868.14 1015.531 L 1873.561 1014.489 L 1878.973 1013.443 L 1883.99 1012.474 L 1889.383 1011.421 L 1894.767 1010.364 L 1899.758 1009.384 L 1905.123 1008.32 L 1910.478 1007.252 L 1915.442 1006.261 L 1920.779 1005.185 L 1926.107 1004.105 L 1931.425 1003.022 L 1936.354 1002.016 L 1941.654 1000.924 L 1946.944 999.829 L 1950.146 999.048 L 1955.421 997.945 L 1960.31 996.921 L 1965.567 995.81 L 1970.814 994.694 L 1976.053 993.574 L 1981.282 992.45 L 1988.182 991.085 L 1993.389 989.952 L 1998.587 988.815 L 2003.776 987.673 L 2008.955 986.527 L 2014.125 985.376 L 2018.913 984.307 L 2024.065 983.147 L 2029.208 981.982 L 2034.342 980.813 L 2039.467 979.64 L 2044.582 978.462 L 2049.688 977.279 L 2054.786 976.091 L 2059.874 974.898 L 2064.953 973.701 L 2070.023 972.499 L 2075.084 971.292 L 2080.136 970.08 L 2085.179 968.863 L 2090.213 967.641 L 2095.237 966.413 L 2102.22 964.855 L 2107.223 963.617 L 2112.217 962.374 L 2117.202 961.125 L 2122.178 959.872 L 2127.146 958.613 L 2132.104 957.348 L 2137.054 956.079 L 2141.995 954.804 L 2146.927 953.523 L 2153.774 951.907 L 2158.685 950.615 L 2163.586 949.317 L 2168.479 948.013 L 2173.363 946.704 L 2178.238 945.389 L 2183.471 943.971 L 2188.329 942.644 L 2195.068 940.98 L 2199.905 939.641 L 2204.732 938.295 L 2209.551 936.944 L 2214.727 935.487 L 2219.529 934.124 L 2224.322 932.754 L 2230.967 931.044 L 2235.739 929.661 L 2240.868 928.17 L 2245.623 926.775 L 2250.369 925.372 L 2256.945 923.628 L 2262.036 922.108 L 2266.753 920.686 L 2271.461 919.257 L 2276.161 917.821 L 2283.032 915.935 L 2287.711 914.485 L 2292.382 913.028 L 2297.411 911.457 L 2302.065 909.985 L 2308.504 908.168 L 2313.504 906.573 L 2318.129 905.08 L 2322.747 903.579 L 2329.495 901.621 L 2334.092 900.105 L 2338.68 898.581 L 2343.628 896.939 L 2349.956 895.057 L 2354.884 893.398 L 2359.436 891.843 L 2364.348 890.167 L 2370.622 888.253 L 2375.147 886.674 L 2380.031 884.972 L 2384.54 883.377 L 2391.126 881.312 L 2395.615 879.699 L 2400.465 877.962 L 2406.643 875.986 L 2411.473 874.229 L 2415.928 872.583 L 2422.431 870.46 L 2426.866 868.796 L 2431.663 867.002 L 2437.758 864.97 L 2442.537 863.156 L 2447.309 861.333 L 2453.363 859.273 L 2458.117 857.429 L 2462.491 855.701 L 2468.874 853.486 L 2473.229 851.737 L 2477.951 849.854 L 2484.296 847.606 L 2488.625 845.829 L 2493.323 843.913 L 2499.628 841.633 L 2503.932 839.825 L 2510.21 837.521 L 2514.874 835.562 L 2519.152 833.723 L 2525.392 831.385 L 2530.033 829.392 L 2535.868 827.163 L 2540.492 825.147 L 2546.678 822.76 L 2550.903 820.856 L 2555.505 818.805 L 2561.654 816.382 L 2565.856 814.444 L 2571.978 811.995 L 2576.548 809.896 L 2582.645 807.421 L 2586.812 805.437 L 2592.883 802.936 L 2597.423 800.786 L 2603.468 798.257 L 2607.993 796.081 L 2613.625 793.67 L 2618.136 791.468 L 2624.131 788.885 L 2628.627 786.656 L 2634.598 784.045 L 2638.685 781.936 L 2644.631 779.296 L 2649.1 777.012 L 2655.022 774.343 L 2659.478 772.031 L 2665.377 769.332 L 2669.418 767.143 L 2675.293 764.415 L 2681.153 761.67 L 2685.575 759.284 L 2691.413 756.508 L 2695.823 754.092 L 2701.639 751.285 L 2705.627 748.996 L 2711.42 746.157 L 2717.198 743.301 L 2721.577 740.806 L 2727.335 737.917 L 2733.079 735.01 L 2737.44 732.467 L 2743.164 729.527 L 2747.515 726.95 L 2753.218 723.975 L 2758.487 721.148 L 2762.821 718.52 L 2768.489 715.492 L 2774.145 712.445 L 2778.464 709.765 L 2784.101 706.682 L 2789.725 703.579 L 2795.337 700.457 L 2799.636 697.704 L 2805.23 694.544 L 2810.812 691.364 L 2815.098 688.554 L 2820.663 685.336 L 2826.215 682.097 L 2831.757 678.838 L 2836.026 675.949 L 2841.101 672.829 L 2846.613 669.509 L 2852.113 666.166 L 2857.603 662.803 L 2861.852 659.812 L 2867.326 656.406 L 2872.79 652.978 L 2878.244 649.527 L 2883.687 646.053 L 2887.92 642.955 L 2893.35 639.437 L 2893.171 634.378 L 2892.994 629.294 L 2892.819 624.184 L 2892.646 619.047 L 2892.474 613.884 L 2892.305 608.695 L 2892.137 603.48 L 2891.971 598.238 L 2891.806 592.971 L 2891.644 587.676 L 2891.483 582.356 L 2891.324 577.008 L 2891.167 571.635 L 2891.09 569.01 L 2909.739 570.954 L 2908.536 526.456 L 2890.019 529.405 L 2871.494 532.303 L 2870.631 496.736 L 2889.274 498.731 L 2907.912 500.78 L 2906.854 451.404 L 2888.321 454.249 L 2869.781 457.046 L 2869.032 417.271 L 2887.664 419.368 L 2906.292 421.506 L 2905.599 379.772 L 2887.053 382.527 L 2868.5 385.243 L 2867.869 341.54 L 2886.492 343.719 L 2905.11 345.936 L 2904.546 300.257 L 2885.988 302.934 L 2867.426 305.58 L 2867.06 271.432 L 2885.674 273.68 L 2904.285 275.96 L 2903.842 226.637 L 2885.275 229.251 L 2866.704 231.836 L 2866.428 194.641 L 2885.035 196.95 L 2903.64 199.284 L 2903.404 160.697 L 2884.829 163.259 L 2866.252 165.796 L 2866.058 125.815 L 2884.659 128.172 L 2903.257 130.558 L 2903.071 74.214 L 2884.489 76.722 L 2884.47 68.858 L 2884.454 61.32 L 2884.44 53.753 L 2884.427 46.158 L 2884.416 38.536 L 2884.407 30.885 L 2884.399 23.206 L 2884.394 15.499 L 2884.389 7.763 L 2884.387 0 Z" vector-effect="non-scaling-stroke"/><g id="captions"><text alignment-baseline="middle" text-anchor="middle" transform="rotate(0,1451.011,934.738)" x="1451.011" y="934.738">LEE, 2, 1</text></g></g></svg>