<svg width="690.035" height="275.041" viewBox="0 0 690.035 275.041" xmlns="http://www.w3.org/2000/svg"><g id="svgGroup" stroke-linecap="round" fill-rule="evenodd" font-size="9pt" stroke="#000" stroke-width="0.25mm" fill="none" style="stroke:#000;stroke-width:0.25mm;fill:none"><path d="M 684.933 0 L 683.863 0.404 L 682.793 0.808 L 681.724 1.213 L 680.654 1.619 L 679.585 2.026 L 678.516 2.433 L 677.447 2.841 L 676.377 3.251 L 675.309 3.66 L 674.24 4.071 L 673.171 4.482 L 672.102 4.894 L 671.034 5.307 L 669.965 5.721 L 668.897 6.136 L 667.828 6.551 L 666.76 6.967 L 665.692 7.384 L 664.624 7.802 L 663.556 8.221 L 662.488 8.64 L 661.42 9.06 L 660.353 9.481 L 659.285 9.903 L 658.218 10.326 L 657.15 10.749 L 656.083 11.174 L 655.016 11.599 L 653.949 12.024 L 652.882 12.451 L 651.815 12.879 L 650.748 13.307 L 649.681 13.736 L 648.614 14.166 L 647.548 14.597 L 646.481 15.028 L 645.415 15.46 L 644.349 15.893 L 643.282 16.327 L 642.216 16.762 L 641.15 17.197 L 640.084 17.633 L 639.018 18.07 L 637.953 18.508 L 636.887 18.946 L 635.821 19.386 L 634.756 19.826 L 633.69 20.266 L 632.625 20.708 L 631.56 21.15 L 630.494 21.593 L 629.429 22.037 L 628.364 22.481 L 627.299 22.926 L 626.234 23.372 L 625.169 23.819 L 624.105 24.266 L 623.04 24.714 L 621.975 25.162 L 620.911 25.612 L 619.846 26.062 L 618.782 26.512 L 617.717 26.964 L 616.653 27.416 L 615.589 27.868 L 614.525 28.322 L 613.461 28.776 L 612.397 29.23 L 611.333 29.685 L 610.269 30.141 L 609.205 30.598 L 608.141 31.054 L 607.077 31.512 L 606.013 31.97 L 604.95 32.429 L 603.886 32.888 L 602.822 33.348 L 601.759 33.808 L 600.695 34.269 L 599.632 34.731 L 598.568 35.193 L 597.505 35.655 L 596.441 36.118 L 595.378 36.581 L 594.314 37.045 L 593.251 37.51 L 592.188 37.975 L 591.124 38.44 L 590.061 38.906 L 588.998 39.372 L 587.935 39.838 L 586.871 40.305 L 585.808 40.773 L 584.745 41.241 L 583.682 41.709 L 582.619 42.177 L 581.555 42.646 L 580.492 43.115 L 579.429 43.585 L 578.366 44.055 L 577.302 44.525 L 576.239 44.995 L 575.176 45.466 L 574.113 45.937 L 573.05 46.409 L 571.986 46.88 L 570.923 47.352 L 569.86 47.824 L 568.796 48.296 L 567.733 48.769 L 566.67 49.242 L 565.606 49.715 L 564.543 50.188 L 563.479 50.661 L 562.416 51.135 L 561.353 51.608 L 560.289 52.082 L 559.226 52.556 L 558.162 53.03 L 557.098 53.504 L 556.035 53.978 L 554.971 54.452 L 553.907 54.927 L 552.844 55.401 L 551.78 55.876 L 550.716 56.35 L 549.652 56.825 L 548.589 57.299 L 547.525 57.774 L 546.461 58.249 L 545.397 58.723 L 544.333 59.198 L 543.269 59.672 L 542.205 60.147 L 541.141 60.621 L 540.077 61.096 L 539.013 61.57 L 537.948 62.044 L 536.884 62.519 L 535.82 62.993 L 534.756 63.467 L 533.691 63.941 L 532.627 64.414 L 531.563 64.888 L 530.498 65.361 L 529.434 65.835 L 528.37 66.308 L 527.305 66.781 L 526.241 67.254 L 525.176 67.726 L 524.112 68.199 L 523.047 68.671 L 521.983 69.143 L 520.918 69.615 L 519.854 70.087 L 518.789 70.558 L 517.725 71.029 L 516.66 71.5 L 515.596 71.971 L 514.531 72.441 L 513.467 72.911 L 512.402 73.381 L 511.338 73.85 L 510.273 74.32 L 509.209 74.788 L 508.144 75.257 L 507.08 75.725 L 506.015 76.193 L 504.951 76.661 L 503.886 77.128 L 502.822 77.595 L 501.758 78.062 L 500.693 78.528 L 499.629 78.994 L 498.565 79.46 L 497.501 79.925 L 496.437 80.39 L 495.373 80.854 L 494.309 81.318 L 493.245 81.782 L 492.181 82.245 L 491.117 82.708 L 490.053 83.17 L 488.989 83.632 L 487.926 84.094 L 486.862 84.555 L 485.799 85.016 L 484.735 85.476 L 483.672 85.936 L 482.608 86.396 L 481.545 86.855 L 480.482 87.314 L 479.419 87.772 L 478.356 88.23 L 477.294 88.687 L 476.231 89.144 L 475.168 89.6 L 474.106 90.056 L 473.043 90.511 L 471.981 90.966 L 470.919 91.421 L 469.857 91.875 L 468.795 92.328 L 467.733 92.781 L 466.672 93.234 L 465.61 93.686 L 464.549 94.137 L 463.488 94.588 L 462.426 95.039 L 461.365 95.489 L 460.305 95.939 L 459.244 96.388 L 458.183 96.836 L 457.123 97.284 L 456.063 97.732 L 455.003 98.179 L 453.943 98.625 L 452.883 99.071 L 451.824 99.517 L 450.764 99.962 L 449.705 100.406 L 448.646 100.85 L 447.587 101.293 L 446.528 101.736 L 445.47 102.179 L 444.412 102.62 L 443.353 103.062 L 442.295 103.502 L 441.238 103.943 L 440.18 104.382 L 439.122 104.821 L 438.065 105.26 L 437.008 105.698 L 435.951 106.136 L 434.895 106.573 L 433.838 107.009 L 432.782 107.445 L 431.726 107.881 L 430.67 108.315 L 429.614 108.75 L 428.559 109.183 L 427.504 109.617 L 426.449 110.049 L 425.394 110.482 L 424.339 110.913 L 423.285 111.344 L 422.231 111.775 L 421.177 112.205 L 420.123 112.634 L 419.069 113.063 L 418.016 113.491 L 416.963 113.919 L 415.91 114.346 L 414.857 114.773 L 413.805 115.199 L 412.753 115.625 L 411.701 116.05 L 410.649 116.474 L 409.597 116.898 L 408.546 117.322 L 407.495 117.745 L 406.444 118.167 L 405.393 118.589 L 404.343 119.01 L 403.292 119.431 L 402.242 119.851 L 401.193 120.271 L 400.143 120.69 L 399.094 121.108 L 398.045 121.526 L 396.996 121.944 L 395.947 122.361 L 394.899 122.777 L 393.85 123.193 L 392.803 123.608 L 391.755 124.023 L 390.707 124.437 L 389.66 124.851 L 388.613 125.264 L 387.566 125.676 L 386.519 126.088 L 385.473 126.5 L 384.427 126.911 L 383.381 127.321 L 382.335 127.731 L 381.29 128.14 L 380.244 128.549 L 379.199 128.958 L 378.155 129.365 L 377.11 129.772 L 376.066 130.179 L 375.021 130.585 L 373.977 130.991 L 372.934 131.396 L 371.89 131.801 L 370.847 132.205 L 369.804 132.608 L 368.761 133.011 L 367.718 133.414 L 366.676 133.815 L 365.634 134.217 L 364.592 134.618 L 363.55 135.018 L 362.509 135.418 L 361.467 135.817 L 360.426 136.216 L 359.385 136.614 L 358.345 137.012 L 357.304 137.409 L 356.264 137.806 L 355.224 138.202 L 354.184 138.598 L 353.144 138.993 L 352.105 139.387 L 351.066 139.781 L 350.026 140.175 L 348.988 140.568 L 347.949 140.961 L 346.911 141.353 L 345.872 141.744 L 344.834 142.135 L 343.796 142.526 L 342.759 142.916 L 341.721 143.305 L 340.684 143.694 L 339.647 144.083 L 338.61 144.471 L 337.574 144.858 L 336.537 145.245 L 335.501 145.632 L 334.465 146.018 L 333.429 146.403 L 332.393 146.788 L 331.358 147.173 L 330.322 147.557 L 329.287 147.94 L 328.252 148.323 L 327.217 148.705 L 326.183 149.087 L 325.148 149.469 L 324.114 149.85 L 323.08 150.23 L 322.046 150.61 L 321.012 150.99 L 319.979 151.369 L 318.945 151.748 L 317.912 152.126 L 316.879 152.503 L 315.846 152.88 L 314.813 153.257 L 313.781 153.633 L 312.748 154.009 L 311.716 154.384 L 310.684 154.758 L 309.652 155.133 L 308.62 155.506 L 307.589 155.879 L 306.557 156.252 L 305.526 156.624 L 304.495 156.996 L 303.464 157.368 L 302.433 157.738 L 301.403 158.109 L 300.372 158.479 L 299.342 158.848 L 298.311 159.217 L 297.281 159.586 L 296.251 159.954 L 295.222 160.321 L 294.192 160.688 L 293.162 161.055 L 292.133 161.421 L 291.104 161.787 L 290.075 162.152 L 289.046 162.517 L 288.017 162.881 L 286.988 163.245 L 285.96 163.608 L 284.931 163.971 L 283.903 164.333 L 282.875 164.695 L 281.847 165.057 L 280.819 165.418 L 279.791 165.779 L 278.764 166.139 L 277.736 166.499 L 276.709 166.858 L 275.681 167.217 L 274.654 167.575 L 273.627 167.933 L 272.6 168.29 L 271.573 168.648 L 270.547 169.004 L 269.52 169.36 L 268.494 169.716 L 267.467 170.071 L 266.441 170.426 L 265.415 170.78 L 264.389 171.134 L 263.363 171.488 L 262.337 171.841 L 261.311 172.193 L 260.286 172.546 L 259.26 172.897 L 258.235 173.249 L 257.21 173.599 L 256.184 173.95 L 255.159 174.3 L 254.134 174.649 L 253.109 174.999 L 252.085 175.347 L 251.06 175.695 L 250.035 176.043 L 249.011 176.391 L 247.986 176.738 L 246.962 177.084 L 245.938 177.43 L 244.914 177.776 L 243.889 178.121 L 242.865 178.466 L 241.842 178.811 L 240.818 179.155 L 239.794 179.498 L 238.77 179.842 L 237.747 180.184 L 236.723 180.527 L 235.7 180.869 L 234.676 181.21 L 233.653 181.551 L 232.63 181.892 L 231.607 182.232 L 230.584 182.572 L 229.561 182.911 L 228.538 183.251 L 227.515 183.589 L 226.492 183.927 L 225.47 184.265 L 224.447 184.603 L 223.424 184.94 L 222.402 185.276 L 221.38 185.612 L 220.357 185.948 L 219.335 186.284 L 218.313 186.619 L 217.29 186.953 L 216.268 187.287 L 215.246 187.621 L 214.224 187.955 L 213.202 188.288 L 212.18 188.62 L 211.159 188.952 L 210.137 189.284 L 209.115 189.616 L 208.094 189.947 L 207.072 190.277 L 206.05 190.608 L 205.029 190.937 L 204.007 191.267 L 202.986 191.596 L 201.965 191.925 L 200.943 192.253 L 199.922 192.581 L 198.901 192.908 L 197.88 193.236 L 196.859 193.562 L 195.838 193.889 L 194.817 194.215 L 193.796 194.54 L 192.775 194.866 L 191.754 195.19 L 190.733 195.515 L 189.712 195.839 L 188.691 196.163 L 187.671 196.486 L 186.65 196.809 L 185.629 197.132 L 184.609 197.454 L 183.588 197.776 L 182.568 198.097 L 181.547 198.418 L 180.527 198.739 L 179.506 199.06 L 178.486 199.38 L 177.465 199.699 L 176.445 200.019 L 175.425 200.338 L 174.404 200.656 L 173.384 200.974 L 172.364 201.292 L 171.344 201.61 L 170.323 201.927 L 169.303 202.243 L 168.283 202.56 L 167.263 202.876 L 166.243 203.192 L 165.223 203.507 L 164.203 203.822 L 163.183 204.136 L 162.163 204.451 L 161.143 204.765 L 160.123 205.078 L 159.103 205.391 L 158.083 205.704 L 157.063 206.017 L 156.043 206.329 L 155.024 206.641 L 154.004 206.952 L 152.984 207.263 L 151.964 207.574 L 150.944 207.884 L 149.925 208.195 L 148.905 208.504 L 147.885 208.814 L 146.865 209.123 L 145.846 209.431 L 144.826 209.74 L 143.806 210.048 L 142.787 210.356 L 141.767 210.663 L 140.747 210.97 L 139.728 211.277 L 138.708 211.583 L 137.689 211.889 L 136.669 212.195 L 135.649 212.5 L 134.63 212.805 L 133.61 213.11 L 132.591 213.414 L 131.571 213.718 L 130.552 214.022 L 129.532 214.325 L 128.513 214.629 L 127.493 214.931 L 126.474 215.234 L 125.454 215.536 L 124.434 215.838 L 123.415 216.139 L 122.395 216.44 L 121.376 216.741 L 120.356 217.042 L 119.337 217.342 L 118.318 217.642 L 117.298 217.941 L 116.279 218.24 L 115.259 218.539 L 114.24 218.838 L 113.22 219.136 L 112.201 219.434 L 111.181 219.732 L 110.162 220.029 L 109.142 220.326 L 108.123 220.623 L 107.103 220.919 L 106.084 221.216 L 105.064 221.511 L 104.045 221.807 L 103.025 222.102 L 102.006 222.397 L 100.986 222.692 L 99.967 222.986 L 98.947 223.28 L 97.928 223.574 L 96.908 223.867 L 95.889 224.16 L 94.869 224.453 L 93.849 224.746 L 92.83 225.038 L 91.81 225.33 L 90.791 225.621 L 89.771 225.913 L 88.752 226.204 L 87.732 226.495 L 86.712 226.785 L 85.693 227.075 L 84.673 227.365 L 83.654 227.655 L 82.634 227.944 L 81.614 228.233 L 80.595 228.522 L 79.575 228.81 L 78.555 229.099 L 77.536 229.386 L 76.516 229.674 L 75.496 229.961 L 74.477 230.249 L 73.457 230.535 L 72.437 230.822 L 71.418 231.108 L 70.398 231.394 L 69.378 231.68 L 68.358 231.965 L 67.339 232.25 L 66.319 232.535 L 65.299 232.82 L 64.279 233.104 L 63.259 233.388 L 62.24 233.672 L 61.22 233.955 L 60.2 234.239 L 59.18 234.522 L 58.16 234.804 L 57.14 235.087 L 56.12 235.369 L 55.1 235.651 L 54.08 235.933 L 53.06 236.214 L 52.04 236.495 L 51.02 236.776 L 50 237.057 L 48.98 237.337 L 47.96 237.617 L 46.94 237.897 L 45.92 238.176 L 44.9 238.456 L 43.88 238.735 L 42.86 239.014 L 41.84 239.292 L 40.82 239.571 L 39.8 239.849 L 38.779 240.127 L 37.759 240.404 L 36.739 240.682 L 35.719 240.959 L 34.699 241.235 L 33.678 241.512 L 32.658 241.788 L 31.638 242.065 L 30.617 242.34 L 29.597 242.616 L 28.577 242.892 L 27.556 243.167 L 26.536 243.442 L 25.516 243.716 L 24.495 243.991 L 23.475 244.265 L 22.454 244.539 L 21.434 244.813 L 20.413 245.086 L 19.393 245.36 L 18.372 245.633 L 17.352 245.905 L 16.331 246.178 L 15.311 246.45 L 14.29 246.723 L 13.27 246.994 L 12.249 247.266 L 11.228 247.538 L 10.208 247.809 L 9.187 248.08 L 8.166 248.351 L 7.146 248.621 L 6.125 248.892 L 5.104 249.162 L 4.083 249.432 L 3.062 249.702 L 2.042 249.971 L 1.021 250.24 L 0 250.509 L 3.185 275.041 L 4.22 274.887 L 5.256 274.737 L 6.293 274.589 L 7.329 274.445 L 8.366 274.304 L 9.404 274.165 L 10.441 274.03 L 11.479 273.896 L 12.518 273.766 L 13.557 273.637 L 14.595 273.511 L 15.635 273.387 L 16.674 273.265 L 17.714 273.144 L 18.754 273.026 L 19.794 272.909 L 20.835 272.795 L 21.876 272.681 L 22.916 272.57 L 23.958 272.459 L 24.999 272.351 L 26.04 272.243 L 27.082 272.137 L 28.124 272.032 L 29.166 271.929 L 30.208 271.826 L 31.25 271.725 L 32.293 271.625 L 33.335 271.526 L 34.378 271.428 L 35.421 271.331 L 36.464 271.235 L 37.507 271.14 L 38.55 271.046 L 39.593 270.952 L 40.637 270.86 L 41.68 270.768 L 42.724 270.677 L 43.768 270.587 L 44.812 270.497 L 45.855 270.408 L 46.9 270.32 L 47.944 270.233 L 48.988 270.146 L 50.032 270.06 L 51.076 269.974 L 52.121 269.889 L 53.165 269.804 L 54.21 269.72 L 55.255 269.637 L 56.299 269.554 L 57.344 269.471 L 58.389 269.389 L 59.434 269.307 L 60.479 269.226 L 61.524 269.145 L 62.569 269.065 L 63.614 268.985 L 64.659 268.905 L 65.704 268.826 L 66.749 268.747 L 67.795 268.669 L 68.84 268.59 L 69.886 268.513 L 70.931 268.435 L 71.976 268.358 L 73.022 268.28 L 74.067 268.204 L 75.113 268.127 L 76.159 268.051 L 77.204 267.975 L 78.25 267.899 L 79.296 267.823 L 80.341 267.748 L 81.387 267.672 L 82.433 267.597 L 83.479 267.523 L 84.525 267.448 L 85.571 267.373 L 86.616 267.299 L 87.662 267.225 L 88.708 267.151 L 89.754 267.077 L 90.8 267.003 L 91.846 266.929 L 92.892 266.856 L 93.938 266.782 L 94.984 266.709 L 96.03 266.635 L 97.076 266.562 L 98.123 266.489 L 99.169 266.416 L 100.215 266.343 L 101.261 266.27 L 102.307 266.197 L 103.353 266.124 L 104.399 266.051 L 105.445 265.979 L 106.492 265.906 L 107.538 265.833 L 108.584 265.761 L 109.63 265.688 L 110.676 265.615 L 111.722 265.543 L 112.769 265.47 L 113.815 265.397 L 114.861 265.325 L 115.907 265.252 L 116.953 265.179 L 118 265.107 L 119.046 265.034 L 120.092 264.961 L 121.138 264.888 L 122.184 264.815 L 123.231 264.742 L 124.277 264.669 L 125.323 264.596 L 126.369 264.523 L 127.415 264.45 L 128.461 264.377 L 129.508 264.304 L 130.554 264.231 L 131.6 264.157 L 132.646 264.084 L 133.692 264.01 L 134.738 263.936 L 135.784 263.863 L 136.831 263.789 L 137.877 263.715 L 138.923 263.641 L 139.969 263.567 L 141.015 263.493 L 142.061 263.418 L 143.107 263.344 L 144.153 263.269 L 145.199 263.194 L 146.245 263.12 L 147.291 263.045 L 148.337 262.97 L 149.383 262.894 L 150.429 262.819 L 151.475 262.743 L 152.521 262.668 L 153.567 262.592 L 154.613 262.516 L 155.659 262.44 L 156.705 262.364 L 157.75 262.287 L 158.796 262.211 L 159.842 262.134 L 160.888 262.057 L 161.934 261.98 L 162.979 261.903 L 164.025 261.826 L 165.071 261.748 L 166.117 261.67 L 167.162 261.593 L 168.208 261.514 L 169.254 261.436 L 170.299 261.358 L 171.345 261.279 L 172.391 261.2 L 173.436 261.121 L 174.482 261.042 L 175.527 260.963 L 176.573 260.883 L 177.618 260.803 L 178.664 260.723 L 179.709 260.643 L 180.755 260.562 L 181.8 260.482 L 182.846 260.401 L 183.891 260.32 L 184.936 260.238 L 185.982 260.157 L 187.027 260.075 L 188.072 259.993 L 189.117 259.911 L 190.163 259.828 L 191.208 259.745 L 192.253 259.662 L 193.298 259.579 L 194.343 259.496 L 195.388 259.412 L 196.433 259.328 L 197.478 259.244 L 198.523 259.16 L 199.568 259.075 L 200.613 258.99 L 201.658 258.905 L 202.703 258.819 L 203.748 258.734 L 204.793 258.648 L 205.838 258.561 L 206.883 258.475 L 207.927 258.388 L 208.972 258.301 L 210.017 258.214 L 211.062 258.126 L 212.106 258.038 L 213.151 257.95 L 214.195 257.862 L 215.24 257.773 L 216.285 257.684 L 217.329 257.595 L 218.374 257.505 L 219.418 257.415 L 220.462 257.325 L 221.507 257.234 L 222.551 257.144 L 223.595 257.053 L 224.64 256.961 L 225.684 256.87 L 226.728 256.778 L 227.772 256.685 L 228.817 256.593 L 229.861 256.5 L 230.905 256.406 L 231.949 256.313 L 232.993 256.219 L 234.037 256.125 L 235.081 256.03 L 236.125 255.935 L 237.169 255.84 L 238.212 255.744 L 239.256 255.649 L 240.3 255.552 L 241.344 255.456 L 242.387 255.359 L 243.431 255.262 L 244.475 255.164 L 245.518 255.066 L 246.562 254.968 L 247.606 254.869 L 248.649 254.77 L 249.692 254.671 L 250.736 254.571 L 251.779 254.471 L 252.823 254.371 L 253.866 254.27 L 254.909 254.169 L 255.952 254.067 L 256.996 253.965 L 258.039 253.863 L 259.082 253.761 L 260.125 253.658 L 261.168 253.554 L 262.211 253.45 L 263.254 253.346 L 264.297 253.242 L 265.34 253.137 L 266.383 253.031 L 267.425 252.926 L 268.468 252.819 L 269.511 252.713 L 270.554 252.606 L 271.596 252.499 L 272.639 252.391 L 273.681 252.283 L 274.724 252.174 L 275.766 252.065 L 276.809 251.956 L 277.851 251.846 L 278.894 251.736 L 279.936 251.625 L 280.978 251.514 L 282.02 251.403 L 283.063 251.291 L 284.105 251.178 L 285.147 251.065 L 286.189 250.952 L 287.231 250.838 L 288.273 250.724 L 289.315 250.61 L 290.357 250.495 L 291.399 250.379 L 292.44 250.263 L 293.482 250.147 L 294.524 250.03 L 295.565 249.913 L 296.607 249.795 L 297.649 249.677 L 298.69 249.558 L 299.732 249.439 L 300.773 249.319 L 301.814 249.199 L 302.856 249.078 L 303.897 248.957 L 304.938 248.836 L 305.98 248.713 L 307.021 248.591 L 308.062 248.468 L 309.103 248.344 L 310.144 248.22 L 311.185 248.095 L 312.226 247.97 L 313.267 247.845 L 314.308 247.719 L 315.348 247.592 L 316.389 247.465 L 317.43 247.337 L 318.47 247.209 L 319.511 247.08 L 320.551 246.951 L 321.592 246.821 L 322.632 246.691 L 323.673 246.56 L 324.713 246.428 L 325.753 246.296 L 326.794 246.164 L 327.834 246.031 L 328.874 245.897 L 329.914 245.763 L 330.954 245.628 L 331.994 245.493 L 333.034 245.357 L 334.074 245.22 L 335.114 245.083 L 336.154 244.946 L 337.193 244.807 L 338.233 244.668 L 339.273 244.529 L 340.312 244.389 L 341.352 244.248 L 342.391 244.107 L 343.431 243.965 L 344.47 243.823 L 345.509 243.68 L 346.549 243.536 L 347.588 243.392 L 348.627 243.247 L 349.666 243.101 L 350.705 242.955 L 351.744 242.808 L 352.783 242.661 L 353.822 242.512 L 354.861 242.364 L 355.9 242.214 L 356.938 242.064 L 357.977 241.913 L 359.016 241.762 L 360.054 241.61 L 361.093 241.457 L 362.131 241.303 L 363.17 241.149 L 364.208 240.994 L 365.246 240.839 L 366.285 240.683 L 367.323 240.526 L 368.361 240.368 L 369.399 240.21 L 370.437 240.05 L 371.475 239.891 L 372.513 239.73 L 373.551 239.569 L 374.589 239.407 L 375.627 239.244 L 376.664 239.08 L 377.702 238.916 L 378.739 238.751 L 379.777 238.585 L 380.814 238.419 L 381.852 238.251 L 382.889 238.083 L 383.927 237.914 L 384.964 237.745 L 386.001 237.574 L 387.038 237.403 L 388.075 237.231 L 389.112 237.058 L 390.149 236.884 L 391.186 236.71 L 392.223 236.534 L 393.26 236.358 L 394.297 236.181 L 395.333 236.003 L 396.37 235.824 L 397.407 235.645 L 398.443 235.464 L 399.48 235.283 L 400.516 235.101 L 401.552 234.917 L 402.589 234.733 L 403.625 234.549 L 404.661 234.363 L 405.697 234.176 L 406.733 233.988 L 407.769 233.8 L 408.805 233.61 L 409.841 233.42 L 410.877 233.229 L 411.913 233.036 L 412.949 232.843 L 413.984 232.649 L 415.02 232.454 L 416.056 232.258 L 417.091 232.06 L 418.127 231.862 L 419.162 231.663 L 420.197 231.463 L 421.233 231.262 L 422.268 231.06 L 423.303 230.856 L 424.338 230.652 L 425.373 230.447 L 426.408 230.24 L 427.443 230.033 L 428.478 229.824 L 429.513 229.615 L 430.548 229.404 L 431.583 229.192 L 432.617 228.98 L 433.652 228.766 L 434.687 228.55 L 435.721 228.334 L 436.756 228.117 L 437.79 227.898 L 438.824 227.679 L 439.859 227.458 L 440.893 227.236 L 441.927 227.013 L 442.961 226.788 L 443.995 226.563 L 445.029 226.336 L 446.063 226.108 L 447.097 225.878 L 448.131 225.648 L 449.165 225.416 L 450.199 225.183 L 451.233 224.949 L 452.266 224.713 L 453.3 224.476 L 454.334 224.238 L 455.367 223.998 L 456.401 223.758 L 457.434 223.515 L 458.468 223.272 L 459.501 223.027 L 460.534 222.781 L 461.567 222.533 L 462.601 222.284 L 463.634 222.033 L 464.667 221.782 L 465.7 221.528 L 466.733 221.273 L 467.766 221.017 L 468.799 220.76 L 469.832 220.5 L 470.865 220.24 L 471.897 219.978 L 472.93 219.714 L 473.963 219.449 L 474.996 219.182 L 476.028 218.914 L 477.061 218.644 L 478.093 218.372 L 479.126 218.099 L 480.158 217.825 L 481.191 217.548 L 482.223 217.27 L 483.255 216.991 L 484.288 216.71 L 485.32 216.427 L 486.352 216.142 L 487.384 215.856 L 488.416 215.568 L 489.449 215.278 L 490.481 214.986 L 491.513 214.693 L 492.545 214.398 L 493.577 214.101 L 494.608 213.802 L 495.64 213.502 L 496.672 213.199 L 497.704 212.895 L 498.736 212.589 L 499.768 212.281 L 500.799 211.971 L 501.831 211.659 L 502.863 211.345 L 503.894 211.029 L 504.926 210.712 L 505.958 210.392 L 506.989 210.07 L 508.021 209.746 L 509.052 209.42 L 510.084 209.092 L 511.115 208.762 L 512.146 208.43 L 513.178 208.096 L 514.209 207.759 L 515.241 207.421 L 516.272 207.08 L 517.303 206.737 L 518.334 206.392 L 519.366 206.044 L 520.397 205.695 L 521.428 205.343 L 522.459 204.988 L 523.491 204.632 L 524.522 204.273 L 525.553 203.912 L 526.584 203.548 L 527.615 203.182 L 528.646 202.813 L 529.677 202.442 L 530.708 202.069 L 531.739 201.693 L 532.771 201.314 L 533.802 200.933 L 534.833 200.55 L 535.864 200.164 L 536.895 199.775 L 537.926 199.384 L 538.957 198.99 L 539.988 198.593 L 541.019 198.193 L 542.05 197.791 L 543.081 197.386 L 544.112 196.979 L 545.143 196.568 L 546.174 196.155 L 547.205 195.739 L 548.235 195.32 L 549.266 194.898 L 550.297 194.473 L 551.328 194.046 L 552.359 193.615 L 553.39 193.181 L 554.421 192.745 L 555.452 192.305 L 556.483 191.862 L 557.514 191.416 L 558.545 190.967 L 559.576 190.515 L 560.607 190.059 L 561.638 189.6 L 562.669 189.139 L 563.7 188.673 L 564.731 188.205 L 565.763 187.733 L 566.794 187.258 L 567.825 186.779 L 568.856 186.297 L 569.887 185.812 L 570.918 185.323 L 571.949 184.83 L 572.98 184.334 L 574.012 183.835 L 575.043 183.332 L 576.074 182.825 L 577.105 182.314 L 578.136 181.8 L 579.168 181.282 L 580.199 180.76 L 581.23 180.235 L 582.262 179.705 L 583.293 179.172 L 584.325 178.635 L 585.356 178.094 L 586.387 177.549 L 587.419 177 L 588.45 176.446 L 589.482 175.889 L 590.514 175.328 L 591.545 174.762 L 592.577 174.193 L 593.608 173.619 L 594.64 173.04 L 595.672 172.458 L 596.704 171.871 L 597.735 171.28 L 598.767 170.684 L 599.799 170.084 L 600.831 169.479 L 601.863 168.87 L 602.895 168.256 L 603.927 167.637 L 604.959 167.014 L 605.991 166.386 L 607.023 165.754 L 608.056 165.116 L 609.088 164.474 L 610.12 163.827 L 611.152 163.174 L 612.185 162.517 L 613.217 161.855 L 614.25 161.188 L 615.282 160.515 L 616.315 159.838 L 617.347 159.155 L 618.38 158.467 L 619.413 157.774 L 620.446 157.075 L 621.478 156.371 L 622.511 155.661 L 623.544 154.946 L 624.577 154.225 L 625.61 153.499 L 626.643 152.767 L 627.677 152.029 L 628.71 151.285 L 629.743 150.536 L 630.776 149.78 L 631.81 149.019 L 632.843 148.252 L 633.877 147.478 L 634.911 146.699 L 635.944 145.913 L 636.978 145.121 L 638.012 144.322 L 639.046 143.517 L 640.08 142.706 L 641.114 141.888 L 642.148 141.064 L 643.182 140.233 L 644.216 139.395 L 645.251 138.551 L 646.285 137.699 L 647.32 136.841 L 648.354 135.976 L 649.389 135.103 L 650.424 134.224 L 651.458 133.337 L 652.493 132.443 L 653.528 131.541 L 654.563 130.632 L 655.599 129.715 L 656.634 128.791 L 657.669 127.859 L 658.705 126.92 L 659.74 125.972 L 660.776 125.017 L 661.812 124.053 L 662.847 123.081 L 663.883 122.101 L 664.919 121.113 L 665.956 120.116 L 666.992 119.11 L 668.028 118.096 L 669.065 117.074 L 670.101 116.042 L 671.138 115.001 L 672.175 113.952 L 673.212 112.893 L 674.249 111.824 L 675.286 110.747 L 676.323 109.66 L 677.36 108.563 L 678.398 107.456 L 679.436 106.34 L 680.473 105.213 L 681.511 104.076 L 682.549 102.929 L 683.587 101.771 L 684.626 100.603 L 685.664 99.424 L 686.703 98.233 L 686.7 98.148 L 686.698 98.062 L 686.696 97.976 L 686.694 97.891 L 686.691 97.805 L 686.689 97.719 L 686.687 97.633 L 686.685 97.547 L 686.683 97.462 L 686.68 97.376 L 686.678 97.29 L 686.676 97.204 L 686.674 97.118 L 686.671 97.032 L 686.669 96.946 L 686.667 96.86 L 686.665 96.774 L 686.662 96.688 L 686.66 96.601 L 686.658 96.515 L 686.656 96.429 L 686.654 96.343 L 686.651 96.257 L 686.649 96.17 L 686.647 96.084 L 686.645 95.998 L 686.642 95.911 L 686.64 95.825 L 686.638 95.739 L 686.636 95.652 L 686.634 95.566 L 686.631 95.479 L 686.629 95.393 L 686.627 95.306 L 686.625 95.22 L 686.623 95.133 L 686.62 95.047 L 686.618 94.96 L 686.616 94.874 L 686.614 94.787 L 686.612 94.7 L 686.609 94.614 L 686.607 94.527 L 686.605 94.44 L 686.603 94.353 L 686.601 94.266 L 686.598 94.18 L 686.596 94.093 L 686.594 94.006 L 686.592 93.919 L 686.59 93.832 L 686.587 93.745 L 686.585 93.658 L 686.583 93.571 L 686.581 93.484 L 686.579 93.397 L 686.576 93.31 L 686.574 93.223 L 686.572 93.136 L 686.57 93.049 L 686.568 92.961 L 686.565 92.874 L 686.563 92.787 L 686.561 92.7 L 686.559 92.612 L 686.557 92.525 L 686.554 92.438 L 686.552 92.35 L 686.55 92.263 L 686.548 92.176 L 686.546 92.088 L 686.544 92.001 L 686.541 91.913 L 686.539 91.826 L 686.537 91.738 L 686.535 91.651 L 686.533 91.563 L 686.531 91.475 L 686.528 91.388 L 686.526 91.3 L 686.524 91.212 L 686.522 91.125 L 686.52 91.037 L 686.518 90.949 L 686.515 90.861 L 686.513 90.773 L 686.511 90.686 L 686.509 90.598 L 686.507 90.51 L 686.505 90.422 L 686.502 90.334 L 686.5 90.246 L 686.498 90.158 L 686.496 90.07 L 686.494 89.982 L 686.492 89.894 L 686.489 89.806 L 686.487 89.718 L 686.485 89.63 L 686.483 89.541 L 686.481 89.453 L 686.479 89.365 L 686.477 89.277 L 686.474 89.188 L 686.472 89.1 L 686.47 89.012 L 686.468 88.924 L 686.466 88.835 L 686.464 88.747 L 686.461 88.658 L 686.459 88.57 L 686.457 88.481 L 686.455 88.393 L 686.453 88.304 L 686.451 88.216 L 686.449 88.127 L 686.447 88.039 L 686.444 87.95 L 686.442 87.861 L 686.44 87.773 L 686.438 87.684 L 686.436 87.595 L 686.434 87.507 L 686.432 87.418 L 686.429 87.329 L 686.427 87.24 L 686.425 87.151 L 686.423 87.062 L 686.421 86.973 L 686.419 86.885 L 686.417 86.796 L 686.415 86.707 L 686.412 86.618 L 686.41 86.529 L 686.408 86.44 L 686.406 86.35 L 686.404 86.261 L 686.402 86.172 L 686.4 86.083 L 686.398 85.994 L 686.395 85.905 L 686.393 85.815 L 686.391 85.726 L 686.389 85.637 L 686.387 85.548 L 686.385 85.458 L 686.383 85.369 L 686.381 85.28 L 686.379 85.19 L 686.376 85.101 L 686.374 85.011 L 686.372 84.922 L 686.37 84.832 L 686.368 84.743 L 686.366 84.653 L 686.364 84.564 L 686.362 84.474 L 686.36 84.384 L 686.358 84.295 L 686.355 84.205 L 686.353 84.115 L 686.351 84.026 L 686.349 83.936 L 686.347 83.846 L 686.345 83.756 L 686.343 83.666 L 686.341 83.576 L 686.339 83.487 L 686.337 83.397 L 686.335 83.307 L 686.332 83.217 L 686.33 83.127 L 686.328 83.037 L 686.328 83.03 L 690.035 83.598 L 689.834 74.671 L 686.157 75.405 L 682.478 76.134 L 682.294 67.424 L 686 67.996 L 689.705 68.574 L 689.529 59.731 L 685.85 60.455 L 682.17 61.176 L 682.005 52.408 L 685.71 52.99 L 689.414 53.576 L 689.257 44.707 L 685.576 45.423 L 681.895 46.135 L 681.75 37.38 L 685.453 37.97 L 689.156 38.564 L 689.018 29.737 L 685.336 30.445 L 681.653 31.15 L 681.526 22.474 L 685.228 23.071 L 688.93 23.672 L 688.808 14.738 L 685.124 15.44 L 685.122 15.299 L 685.121 15.192 L 685.119 15.084 L 685.118 14.977 L 685.116 14.869 L 685.115 14.762 L 685.114 14.654 L 685.112 14.546 L 685.111 14.439 L 685.109 14.331 L 685.108 14.223 L 685.107 14.115 L 685.105 14.008 L 685.104 13.9 L 685.102 13.792 L 685.101 13.684 L 685.1 13.576 L 685.098 13.468 L 685.097 13.36 L 685.095 13.252 L 685.094 13.144 L 685.093 13.036 L 685.091 12.928 L 685.09 12.82 L 685.088 12.712 L 685.087 12.604 L 685.086 12.496 L 685.084 12.388 L 685.083 12.28 L 685.081 12.171 L 685.08 12.063 L 685.079 11.955 L 685.077 11.847 L 685.076 11.738 L 685.074 11.63 L 685.073 11.522 L 685.072 11.413 L 685.07 11.305 L 685.069 11.196 L 685.068 11.088 L 685.066 10.979 L 685.065 10.871 L 685.063 10.762 L 685.062 10.654 L 685.061 10.545 L 685.059 10.436 L 685.058 10.328 L 685.057 10.219 L 685.055 10.11 L 685.054 10.002 L 685.052 9.893 L 685.051 9.784 L 685.05 9.675 L 685.048 9.566 L 685.047 9.458 L 685.046 9.349 L 685.044 9.24 L 685.043 9.131 L 685.041 9.022 L 685.04 8.913 L 685.039 8.804 L 685.037 8.695 L 685.036 8.586 L 685.035 8.477 L 685.033 8.368 L 685.032 8.258 L 685.031 8.149 L 685.029 8.04 L 685.028 7.931 L 685.027 7.822 L 685.025 7.712 L 685.024 7.603 L 685.023 7.494 L 685.021 7.384 L 685.02 7.275 L 685.019 7.166 L 685.017 7.056 L 685.016 6.947 L 685.015 6.837 L 685.013 6.728 L 685.012 6.618 L 685.01 6.509 L 685.009 6.399 L 685.008 6.29 L 685.006 6.18 L 685.005 6.07 L 685.004 5.961 L 685.002 5.851 L 685.001 5.741 L 685 5.631 L 684.999 5.522 L 684.997 5.412 L 684.996 5.302 L 684.995 5.192 L 684.993 5.082 L 684.992 4.972 L 684.991 4.862 L 684.989 4.752 L 684.988 4.643 L 684.987 4.532 L 684.985 4.422 L 684.984 4.312 L 684.983 4.202 L 684.981 4.092 L 684.98 3.982 L 684.979 3.872 L 684.977 3.762 L 684.976 3.651 L 684.975 3.541 L 684.973 3.431 L 684.972 3.321 L 684.971 3.21 L 684.97 3.1 L 684.968 2.99 L 684.967 2.879 L 684.966 2.769 L 684.964 2.658 L 684.963 2.548 L 684.962 2.437 L 684.96 2.327 L 684.959 2.216 L 684.958 2.106 L 684.957 1.995 L 684.955 1.885 L 684.954 1.774 L 684.953 1.663 L 684.951 1.553 L 684.95 1.442 L 684.949 1.331 L 684.948 1.22 L 684.946 1.109 L 684.945 0.999 L 684.944 0.888 L 684.942 0.777 L 684.941 0.666 L 684.94 0.555 L 684.939 0.444 L 684.937 0.333 L 684.936 0.222 L 684.935 0.111 L 684.933 0 Z" vector-effect="non-scaling-stroke"/><path d="M 510.273 74.32 L 510.278 74.496 L 510.284 74.673 L 510.289 74.849 L 510.294 75.025 L 510.3 75.202 L 510.305 75.378 L 510.31 75.554 L 510.316 75.73 L 510.321 75.906 L 510.326 76.082 L 510.332 76.257 L 510.337 76.433 L 510.342 76.608 L 510.348 76.784 L 510.353 76.959 L 510.359 77.134 L 510.364 77.31 L 510.369 77.485 L 510.375 77.66 L 510.38 77.834 L 510.385 78.009 L 510.391 78.184 L 510.396 78.358 L 510.402 78.533 L 510.407 78.707 L 510.412 78.882 L 510.418 79.056 L 510.423 79.23 L 510.429 79.404 L 510.434 79.578 L 510.439 79.752 L 510.445 79.926 L 510.45 80.099 L 510.456 80.273 L 510.461 80.446 L 510.466 80.62 L 510.472 80.793 L 510.477 80.966 L 510.483 81.139 L 510.488 81.312 L 510.494 81.485 L 510.499 81.658 L 510.504 81.831 L 510.51 82.003 L 510.515 82.176 L 510.521 82.349 L 510.526 82.521 L 510.532 82.693 L 510.537 82.865 L 510.543 83.037 L 510.548 83.209 L 510.553 83.381 L 510.559 83.553 L 510.564 83.725 L 510.57 83.897 L 510.575 84.068 L 510.581 84.24 L 510.586 84.411 L 510.592 84.582 L 510.597 84.753 L 510.603 84.924 L 510.608 85.095 L 510.614 85.266 L 510.619 85.437 L 510.625 85.608 L 510.63 85.779 L 510.636 85.949 L 510.641 86.119 L 510.647 86.29 L 510.652 86.46 L 510.658 86.63 L 510.663 86.8 L 510.669 86.97 L 510.674 87.14 L 510.68 87.31 L 510.685 87.48 L 510.691 87.649 L 510.697 87.819 L 510.702 87.988 L 510.708 88.158 L 510.713 88.327 L 510.719 88.496 L 510.724 88.665 L 510.73 88.834 L 510.735 89.003 L 510.741 89.172 L 510.747 89.34 L 510.752 89.509 L 510.758 89.678 L 510.763 89.846 L 510.769 90.014 L 510.774 90.182 L 510.78 90.351 L 510.786 90.519 L 510.791 90.687 L 510.797 90.855 L 510.802 91.022 L 510.808 91.19 L 510.814 91.358 L 510.819 91.525 L 510.825 91.692 L 510.83 91.86 L 510.836 92.027 L 510.842 92.194 L 510.847 92.361 L 510.853 92.528 L 510.859 92.695 L 510.864 92.862 L 510.87 93.028 L 510.875 93.195 L 510.881 93.362 L 510.887 93.528 L 510.892 93.694 L 510.898 93.86 L 510.904 94.027 L 510.909 94.193 L 510.915 94.359 L 510.921 94.524 L 510.926 94.69 L 510.932 94.856 L 510.938 95.021 L 510.943 95.187 L 510.949 95.352 L 510.955 95.518 L 510.96 95.683 L 510.966 95.848 L 510.972 96.013 L 510.977 96.178 L 510.983 96.343 L 510.989 96.508 L 510.994 96.672 L 511 96.837 L 511.006 97.001 L 511.012 97.166 L 511.017 97.33 L 511.023 97.494 L 511.029 97.658 L 511.034 97.822 L 511.04 97.986 L 511.046 98.15 L 511.052 98.314 L 511.057 98.477 L 511.063 98.641 L 511.069 98.804 L 511.075 98.968 L 511.08 99.131 L 511.086 99.294 L 511.092 99.457 L 511.098 99.621 L 511.103 99.783 L 511.109 99.946 L 511.115 100.109 L 511.121 100.272 L 511.126 100.434 L 511.132 100.597 L 511.138 100.759 L 511.144 100.921 L 511.149 101.084 L 511.155 101.246 L 511.161 101.408 L 511.167 101.57 L 511.173 101.731 L 511.178 101.893 L 511.184 102.055 L 511.19 102.216 L 511.196 102.378 L 511.202 102.539 L 511.207 102.701 L 511.213 102.862 L 511.219 103.023 L 511.225 103.184 L 511.231 103.345 L 511.237 103.506 L 511.242 103.666 L 511.248 103.827 L 511.254 103.988 L 511.26 104.148 L 511.266 104.308 L 511.272 104.469 L 511.277 104.629 L 511.283 104.789 L 511.289 104.949 L 511.295 105.109 L 511.301 105.269 L 511.307 105.429 L 511.313 105.588 L 511.318 105.748 L 511.324 105.907 L 511.33 106.067 L 511.336 106.226 L 511.342 106.385 L 511.348 106.544 L 511.354 106.703 L 511.36 106.862 L 511.366 107.021 L 511.371 107.18 L 511.377 107.338 L 511.383 107.497 L 511.389 107.655 L 511.395 107.814 L 511.401 107.972 L 511.407 108.13 L 511.413 108.288 L 511.419 108.446 L 511.425 108.604 L 511.431 108.762 L 511.437 108.92 L 511.443 109.077 L 511.448 109.235 L 511.454 109.393 L 511.46 109.55 L 511.466 109.707 L 511.472 109.864 L 511.478 110.022 L 511.484 110.179 L 511.49 110.335 L 511.496 110.492 L 511.502 110.649 L 511.508 110.806 L 511.514 110.962 L 511.52 111.119 L 511.526 111.275 L 511.532 111.431 L 511.538 111.588 L 511.544 111.744 L 511.55 111.9 L 511.556 112.056 L 511.562 112.212 L 511.568 112.367 L 511.574 112.523 L 511.58 112.679 L 511.586 112.834 L 511.592 112.989 L 511.598 113.145 L 511.604 113.3 L 511.61 113.455 L 511.616 113.61 L 511.622 113.765 L 511.628 113.92 L 511.634 114.075 L 511.64 114.229 L 511.646 114.384 L 511.652 114.538 L 511.658 114.693 L 511.665 114.847 L 511.671 115.001 L 511.677 115.155 L 511.683 115.309 L 511.689 115.463 L 511.695 115.617 L 511.701 115.771 L 511.707 115.925 L 511.713 116.078 L 511.719 116.232 L 511.725 116.385 L 511.731 116.538 L 511.738 116.692 L 511.744 116.845 L 511.75 116.998 L 511.756 117.151 L 511.762 117.304 L 511.768 117.456 L 511.774 117.609 L 511.78 117.762 L 511.786 117.914 L 511.793 118.067 L 511.799 118.219 L 511.805 118.371 L 511.811 118.523 L 511.817 118.675 L 511.823 118.827 L 511.829 118.979 L 511.836 119.131 L 511.842 119.283 L 511.848 119.434 L 511.854 119.586 L 511.86 119.737 L 511.866 119.889 L 511.873 120.04 L 511.879 120.191 L 511.885 120.342 L 511.891 120.493 L 511.897 120.644 L 511.903 120.795 L 511.91 120.945 L 511.916 121.096 L 511.922 121.247 L 511.928 121.397 L 511.934 121.547 L 511.941 121.698 L 511.947 121.848 L 511.953 121.998 L 511.959 122.148 L 511.966 122.298 L 511.972 122.448 L 511.978 122.597 L 511.984 122.747 L 511.99 122.896 L 511.997 123.046 L 512.003 123.195 L 512.009 123.345 L 512.015 123.494 L 512.022 123.643 L 512.028 123.792 L 512.034 123.941 L 512.04 124.09 L 512.047 124.238 L 512.053 124.387 L 512.059 124.536 L 512.066 124.684 L 512.072 124.832 L 512.078 124.981 L 512.084 125.129 L 512.091 125.277 L 512.097 125.425 L 512.103 125.573 L 512.11 125.721 L 512.116 125.869 L 512.122 126.016 L 512.129 126.164 L 512.135 126.311 L 512.141 126.459 L 512.147 126.606 L 512.154 126.753 L 512.16 126.9 L 512.166 127.047 L 512.173 127.194 L 512.179 127.341 L 512.185 127.488 L 512.192 127.635 L 512.198 127.781 L 512.205 127.928 L 512.211 128.074 L 512.217 128.22 L 512.224 128.367 L 512.23 128.513 L 512.236 128.659 L 512.243 128.805 L 512.249 128.951 L 512.255 129.097 L 512.262 129.242 L 512.268 129.388 L 512.275 129.533 L 512.281 129.679 L 512.287 129.824 L 512.294 129.969 L 512.3 130.115 L 512.307 130.26 L 512.313 130.405 L 512.319 130.55 L 512.326 130.694 L 512.332 130.839 L 512.339 130.984 L 512.345 131.128 L 512.352 131.273 L 512.358 131.417 L 512.364 131.561 L 512.371 131.706 L 512.377 131.85 L 512.384 131.994 L 512.39 132.138 L 512.397 132.281 L 512.403 132.425 L 512.41 132.569 L 512.416 132.712 L 512.423 132.856 L 512.429 132.999 L 512.436 133.143 L 512.442 133.286 L 512.449 133.429 L 512.455 133.572 L 512.462 133.715 L 512.468 133.858 L 512.475 134 L 512.481 134.143 L 512.488 134.286 L 512.494 134.428 L 512.501 134.571 L 512.507 134.713 L 512.514 134.855 L 512.52 134.997 L 512.527 135.139 L 512.533 135.281 L 512.54 135.423 L 512.546 135.565 L 512.553 135.707 L 512.559 135.848 L 512.566 135.99 L 512.572 136.131 L 512.579 136.273 L 512.586 136.414 L 512.592 136.555 L 512.599 136.696 L 512.605 136.837 L 512.612 136.978 L 512.618 137.119 L 512.625 137.26 L 512.632 137.4 L 512.638 137.541 L 512.645 137.681 L 512.651 137.822 L 512.658 137.962 L 512.665 138.102 L 512.671 138.242 L 512.678 138.383 L 512.684 138.522 L 512.691 138.662 L 512.698 138.802 L 512.704 138.942 L 512.711 139.081 L 512.718 139.221 L 512.724 139.36 L 512.731 139.5 L 512.737 139.639 L 512.744 139.778 L 512.751 139.917 L 512.757 140.056 L 512.764 140.195 L 512.771 140.334 L 512.777 140.472 L 512.784 140.611 L 512.791 140.75 L 512.797 140.888 L 512.804 141.026 L 512.811 141.165 L 512.817 141.303 L 512.824 141.441 L 512.831 141.579 L 512.838 141.717 L 512.844 141.855 L 512.851 141.992 L 512.858 142.13 L 512.864 142.268 L 512.871 142.405 L 512.878 142.543 L 512.885 142.68 L 512.891 142.817 L 512.898 142.954 L 512.905 143.091 L 512.911 143.228 L 512.918 143.365 L 512.925 143.502 L 512.932 143.639 L 512.938 143.775 L 512.945 143.912 L 512.952 144.048 L 512.959 144.185 L 512.966 144.321 L 512.972 144.457 L 512.979 144.593 L 512.986 144.729 L 512.993 144.865 L 512.999 145.001 L 513.006 145.136 L 513.013 145.272 L 513.02 145.408 L 513.027 145.543 L 513.033 145.679 L 513.04 145.814 L 513.047 145.949 L 513.054 146.084 L 513.061 146.219 L 513.067 146.354 L 513.074 146.489 L 513.081 146.624 L 513.088 146.759 L 513.095 146.893 L 513.102 147.028 L 513.109 147.162 L 513.115 147.296 L 513.122 147.431 L 513.129 147.565 L 513.136 147.699 L 513.143 147.833 L 513.15 147.967 L 513.157 148.101 L 513.163 148.234 L 513.17 148.368 L 513.177 148.502 L 513.184 148.635 L 513.191 148.768 L 513.198 148.902 L 513.205 149.035 L 513.212 149.168 L 513.219 149.301 L 513.225 149.434 L 513.232 149.567 L 513.239 149.7 L 513.246 149.832 L 513.253 149.965 L 513.26 150.097 L 513.267 150.23 L 513.274 150.362 L 513.281 150.494 L 513.288 150.627 L 513.295 150.759 L 513.302 150.891 L 513.309 151.023 L 513.316 151.154 L 513.323 151.286 L 513.33 151.418 L 513.337 151.549 L 513.343 151.681 L 513.35 151.812 L 513.357 151.944 L 513.364 152.075 L 513.371 152.206 L 513.378 152.337 L 513.385 152.468 L 513.392 152.599 L 513.399 152.73 L 513.406 152.86 L 513.413 152.991 L 513.42 153.121 L 513.427 153.252 L 513.435 153.382 L 513.442 153.512 L 513.449 153.643 L 513.456 153.773 L 513.463 153.903 L 513.47 154.033 L 513.477 154.163 L 513.484 154.292 L 513.491 154.422 L 513.498 154.552 L 513.505 154.681 L 513.512 154.81 L 513.519 154.94 L 513.526 155.069 L 513.533 155.198 L 513.54 155.327 L 513.547 155.456 L 513.554 155.585 L 513.562 155.714 L 513.569 155.843 L 513.576 155.971 L 513.583 156.1 L 513.59 156.228 L 513.597 156.357 L 513.604 156.485 L 513.611 156.613 L 513.618 156.741 L 513.626 156.869 L 513.633 156.997 L 513.64 157.125 L 513.647 157.253 L 513.654 157.381 L 513.661 157.508 L 513.668 157.636 L 513.676 157.763 L 513.683 157.89 L 513.69 158.018 L 513.697 158.145 L 513.704 158.272 L 513.711 158.399 L 513.719 158.526 L 513.726 158.653 L 513.733 158.78 L 513.74 158.906 L 513.747 159.033 L 513.755 159.159 L 513.762 159.286 L 513.769 159.412 L 513.776 159.538 L 513.783 159.664 L 513.791 159.79 L 513.798 159.916 L 513.805 160.042 L 513.812 160.168 L 513.819 160.294 L 513.827 160.42 L 513.834 160.545 L 513.841 160.671 L 513.848 160.796 L 513.856 160.921 L 513.863 161.046 L 513.87 161.172 L 513.877 161.297 L 513.885 161.422 L 513.892 161.546 L 513.899 161.671 L 513.907 161.796 L 513.914 161.921 L 513.921 162.045 L 513.928 162.17 L 513.936 162.294 L 513.943 162.418 L 513.95 162.542 L 513.958 162.667 L 513.965 162.791 L 513.972 162.915 L 513.98 163.038 L 513.987 163.162 L 513.994 163.286 L 514.002 163.409 L 514.009 163.533 L 514.016 163.656 L 514.024 163.78 L 514.031 163.903 L 514.038 164.026 L 514.046 164.149 L 514.053 164.272 L 514.06 164.395 L 514.068 164.518 L 514.075 164.641 L 514.082 164.764 L 514.09 164.886 L 514.097 165.009 L 514.105 165.131 L 514.112 165.253 L 514.119 165.376 L 514.127 165.498 L 514.134 165.62 L 514.142 165.742 L 514.149 165.864 L 514.156 165.986 L 514.164 166.107 L 514.171 166.229 L 514.179 166.351 L 514.186 166.472 L 514.193 166.594 L 514.201 166.715 L 514.208 166.836 L 514.216 166.957 L 514.223 167.078 L 514.231 167.199 L 514.238 167.32 L 514.246 167.441 L 514.253 167.562 L 514.261 167.683 L 514.268 167.803 L 514.276 167.924 L 514.283 168.044 L 514.29 168.164 L 514.298 168.285 L 514.305 168.405 L 514.313 168.525 L 514.32 168.645 L 514.328 168.765 L 514.335 168.885 L 514.343 169.004 L 514.35 169.124 L 514.358 169.244 L 514.366 169.363 L 514.373 169.483 L 514.381 169.602 L 514.388 169.721 L 514.396 169.84 L 514.403 169.959 L 514.411 170.078 L 514.418 170.197 L 514.426 170.316 L 514.433 170.435 L 514.441 170.553 L 514.449 170.672 L 514.456 170.79 L 514.464 170.909 L 514.471 171.027 L 514.479 171.145 L 514.486 171.264 L 514.494 171.382 L 514.502 171.5 L 514.509 171.618 L 514.517 171.735 L 514.525 171.853 L 514.532 171.971 L 514.54 172.088 L 514.547 172.206 L 514.555 172.323 L 514.563 172.441 L 514.57 172.558 L 514.578 172.675 L 514.586 172.792 L 514.593 172.909 L 514.601 173.026 L 514.608 173.143 L 514.616 173.26 L 514.624 173.376 L 514.631 173.493 L 514.639 173.609 L 514.647 173.726 L 514.654 173.842 L 514.662 173.958 L 514.67 174.075 L 514.678 174.191 L 514.685 174.307 L 514.693 174.423 L 514.701 174.538 L 514.708 174.654 L 514.716 174.77 L 514.724 174.886 L 514.732 175.001 L 514.739 175.116 L 514.747 175.232 L 514.755 175.347 L 514.762 175.462 L 514.77 175.577 L 514.778 175.692 L 514.786 175.807 L 514.793 175.922 L 514.801 176.037 L 514.809 176.152 L 514.817 176.266 L 514.824 176.381 L 514.832 176.495 L 514.84 176.61 L 514.848 176.724 L 514.856 176.838 L 514.863 176.952 L 514.871 177.066 L 514.879 177.18 L 514.887 177.294 L 514.895 177.408 L 514.902 177.522 L 514.91 177.635 L 514.918 177.749 L 514.926 177.862 L 514.934 177.976 L 514.942 178.089 L 514.949 178.202 L 514.957 178.315 L 514.965 178.428 L 514.973 178.541 L 514.981 178.654 L 514.989 178.767 L 514.996 178.88 L 515.004 178.993 L 515.012 179.105 L 515.02 179.218 L 515.028 179.33 L 515.036 179.442 L 515.044 179.555 L 515.052 179.667 L 515.06 179.779 L 515.067 179.891 L 515.075 180.003 L 515.083 180.115 L 515.091 180.226 L 515.099 180.338 L 515.107 180.45 L 515.115 180.561 L 515.123 180.673 L 515.131 180.784 L 515.139 180.895 L 515.147 181.006 L 515.155 181.118 L 515.163 181.229 L 515.17 181.34 L 515.178 181.45 L 515.186 181.561 L 515.194 181.672 L 515.202 181.783 L 515.21 181.893 L 515.218 182.004 L 515.226 182.114 L 515.234 182.224 L 515.242 182.335 L 515.25 182.445 L 515.258 182.555 L 515.266 182.665 L 515.274 182.775 L 515.282 182.885 L 515.29 182.994 L 515.298 183.104 L 515.306 183.214 L 515.314 183.323 L 515.322 183.433 L 515.33 183.542 L 515.338 183.651 L 515.346 183.76 L 515.355 183.869 L 515.363 183.979 L 515.371 184.087 L 515.379 184.196 L 515.387 184.305 L 515.395 184.414 L 515.403 184.522 L 515.411 184.631 L 515.419 184.74 L 515.427 184.848 L 515.435 184.956 L 515.443 185.064 L 515.451 185.173 L 515.46 185.281 L 515.468 185.389 L 515.476 185.497 L 515.484 185.604 L 515.492 185.712 L 515.5 185.82 L 515.508 185.928 L 515.516 186.035 L 515.525 186.142 L 515.533 186.25 L 515.541 186.357 L 515.549 186.464 L 515.557 186.571 L 515.565 186.679 L 515.573 186.786 L 515.582 186.892 L 515.59 186.999 L 515.598 187.106 L 515.606 187.213 L 515.614 187.319 L 515.623 187.426 L 515.631 187.532 L 515.639 187.638 L 515.647 187.745 L 515.655 187.851 L 515.664 187.957 L 515.672 188.063 L 515.68 188.169 L 515.688 188.275 L 515.696 188.381 L 515.705 188.486 L 515.713 188.592 L 515.721 188.698 L 515.729 188.803 L 515.738 188.908 L 515.746 189.014 L 515.754 189.119 L 515.762 189.224 L 515.771 189.329 L 515.779 189.434 L 515.787 189.539 L 515.796 189.644 L 515.804 189.749 L 515.812 189.853 L 515.82 189.958 L 515.829 190.063 L 515.837 190.167 L 515.845 190.271 L 515.854 190.376 L 515.862 190.48 L 515.87 190.584 L 515.879 190.688 L 515.887 190.792 L 515.895 190.896 L 515.904 191 L 515.912 191.104 L 515.92 191.207 L 515.929 191.311 L 515.937 191.415 L 515.945 191.518 L 515.954 191.621 L 515.962 191.725 L 515.97 191.828 L 515.979 191.931 L 515.987 192.034 L 515.996 192.137 L 516.004 192.24 L 516.012 192.343 L 516.021 192.446 L 516.029 192.548 L 516.038 192.651 L 516.046 192.754 L 516.054 192.856 L 516.063 192.958 L 516.071 193.061 L 516.08 193.163 L 516.088 193.265 L 516.097 193.367 L 516.105 193.469 L 516.113 193.571 L 516.122 193.673 L 516.13 193.775 L 516.139 193.876 L 516.147 193.978 L 516.156 194.079 L 516.164 194.181 L 516.173 194.282 L 516.181 194.384 L 516.19 194.485 L 516.198 194.586 L 516.207 194.687 L 516.215 194.788 L 516.224 194.889 L 516.232 194.99 L 516.241 195.091 L 516.249 195.191 L 516.258 195.292 L 516.266 195.392 L 516.275 195.493 L 516.283 195.593 L 516.292 195.694 L 516.3 195.794 L 516.309 195.894 L 516.317 195.994 L 516.326 196.094 L 516.335 196.194 L 516.343 196.294 L 516.352 196.394 L 516.36 196.493 L 516.369 196.593 L 516.377 196.693 L 516.386 196.792 L 516.395 196.892 L 516.403 196.991 L 516.412 197.09 L 516.42 197.189 L 516.429 197.288 L 516.438 197.388 L 516.446 197.486 L 516.455 197.585 L 516.463 197.684 L 516.472 197.783 L 516.481 197.882 L 516.489 197.98 L 516.498 198.079 L 516.507 198.177 L 516.515 198.276 L 516.524 198.374 L 516.533 198.472 L 516.541 198.57 L 516.55 198.668 L 516.559 198.766 L 516.567 198.864 L 516.576 198.962 L 516.585 199.06 L 516.593 199.157 L 516.602 199.255 L 516.611 199.353 L 516.619 199.45 L 516.628 199.548 L 516.637 199.645 L 516.646 199.742 L 516.654 199.839 L 516.663 199.936 L 516.672 200.033 L 516.68 200.13 L 516.689 200.227 L 516.698 200.324 L 516.707 200.421 L 516.715 200.517 L 516.724 200.614 L 516.733 200.711 L 516.742 200.807 L 516.751 200.903 L 516.759 201 L 516.768 201.096 L 516.777 201.192 L 516.786 201.288 L 516.794 201.384 L 516.803 201.48 L 516.812 201.576 L 516.821 201.672 L 516.83 201.767 L 516.838 201.863 L 516.847 201.959 L 516.856 202.054 L 516.865 202.15 L 516.874 202.245 L 516.883 202.34 L 516.891 202.435 L 516.9 202.53 L 516.909 202.626 L 516.918 202.721 L 516.927 202.815 L 516.936 202.91 L 516.945 203.005 L 516.954 203.1 L 516.962 203.194 L 516.971 203.289 L 516.98 203.383 L 516.989 203.478 L 516.998 203.572 L 517.007 203.666 L 517.016 203.761 L 517.025 203.855 L 517.034 203.949 L 517.043 204.043 L 517.051 204.137 L 517.06 204.23 L 517.069 204.324 L 517.078 204.418 L 517.087 204.512 L 517.096 204.605 L 517.105 204.699 L 517.114 204.792 L 517.123 204.885 L 517.132 204.979 L 517.141 205.072 L 517.15 205.165 L 517.159 205.258 L 517.168 205.351 L 517.177 205.444 L 517.186 205.537 L 517.195 205.629 L 517.204 205.722 L 517.213 205.815 L 517.222 205.907 L 517.231 206 L 517.24 206.092 L 517.249 206.185 L 517.258 206.277 L 517.267 206.369 L 517.276 206.461 L 517.285 206.553 L 517.294 206.645 L 517.303 206.737 M 252.085 175.347 L 252.096 175.45 L 252.107 175.554 L 252.118 175.657 L 252.129 175.76 L 252.14 175.863 L 252.151 175.966 L 252.162 176.069 L 252.172 176.172 L 252.183 176.274 L 252.194 176.377 L 252.205 176.48 L 252.216 176.582 L 252.227 176.685 L 252.238 176.787 L 252.249 176.89 L 252.26 176.992 L 252.271 177.095 L 252.282 177.197 L 252.293 177.299 L 252.304 177.401 L 252.315 177.503 L 252.325 177.605 L 252.336 177.707 L 252.347 177.809 L 252.358 177.911 L 252.369 178.013 L 252.38 178.115 L 252.391 178.217 L 252.402 178.318 L 252.412 178.42 L 252.423 178.521 L 252.434 178.623 L 252.445 178.724 L 252.456 178.826 L 252.467 178.927 L 252.478 179.028 L 252.488 179.13 L 252.499 179.231 L 252.51 179.332 L 252.521 179.433 L 252.532 179.534 L 252.542 179.635 L 252.553 179.736 L 252.564 179.837 L 252.575 179.937 L 252.586 180.038 L 252.596 180.139 L 252.607 180.239 L 252.618 180.34 L 252.629 180.44 L 252.639 180.541 L 252.65 180.641 L 252.661 180.742 L 252.672 180.842 L 252.682 180.942 L 252.693 181.042 L 252.704 181.142 L 252.715 181.242 L 252.725 181.342 L 252.736 181.442 L 252.747 181.542 L 252.757 181.642 L 252.768 181.742 L 252.779 181.842 L 252.79 181.941 L 252.8 182.041 L 252.811 182.14 L 252.822 182.24 L 252.832 182.339 L 252.843 182.439 L 252.854 182.538 L 252.864 182.637 L 252.875 182.737 L 252.886 182.836 L 252.896 182.935 L 252.907 183.034 L 252.918 183.133 L 252.928 183.232 L 252.939 183.331 L 252.95 183.43 L 252.96 183.528 L 252.971 183.627 L 252.981 183.726 L 252.992 183.824 L 253.003 183.923 L 253.013 184.021 L 253.024 184.12 L 253.034 184.218 L 253.045 184.317 L 253.056 184.415 L 253.066 184.513 L 253.077 184.611 L 253.087 184.709 L 253.098 184.807 L 253.108 184.905 L 253.119 185.003 L 253.13 185.101 L 253.14 185.199 L 253.151 185.297 L 253.161 185.395 L 253.172 185.492 L 253.182 185.59 L 253.193 185.688 L 253.203 185.785 L 253.214 185.883 L 253.224 185.98 L 253.235 186.077 L 253.245 186.175 L 253.256 186.272 L 253.266 186.369 L 253.277 186.466 L 253.287 186.563 L 253.298 186.66 L 253.308 186.757 L 253.319 186.854 L 253.329 186.951 L 253.34 187.048 L 253.35 187.144 L 253.361 187.241 L 253.371 187.338 L 253.381 187.434 L 253.392 187.531 L 253.402 187.627 L 253.413 187.724 L 253.423 187.82 L 253.434 187.916 L 253.444 188.013 L 253.454 188.109 L 253.465 188.205 L 253.475 188.301 L 253.486 188.397 L 253.496 188.493 L 253.506 188.589 L 253.517 188.685 L 253.527 188.781 L 253.538 188.877 L 253.548 188.972 L 253.558 189.068 L 253.569 189.164 L 253.579 189.259 L 253.589 189.355 L 253.6 189.45 L 253.61 189.545 L 253.62 189.641 L 253.631 189.736 L 253.641 189.831 L 253.651 189.926 L 253.662 190.022 L 253.672 190.117 L 253.682 190.212 L 253.693 190.307 L 253.703 190.401 L 253.713 190.496 L 253.724 190.591 L 253.734 190.686 L 253.744 190.78 L 253.754 190.875 L 253.765 190.97 L 253.775 191.064 L 253.785 191.159 L 253.796 191.253 L 253.806 191.347 L 253.816 191.442 L 253.826 191.536 L 253.837 191.63 L 253.847 191.724 L 253.857 191.818 L 253.867 191.912 L 253.878 192.006 L 253.888 192.1 L 253.898 192.194 L 253.908 192.288 L 253.918 192.382 L 253.929 192.475 L 253.939 192.569 L 253.949 192.663 L 253.959 192.756 L 253.969 192.85 L 253.98 192.943 L 253.99 193.036 L 254 193.13 L 254.01 193.223 L 254.02 193.316 L 254.03 193.409 L 254.041 193.503 L 254.051 193.596 L 254.061 193.689 L 254.071 193.782 L 254.081 193.875 L 254.091 193.967 L 254.102 194.06 L 254.112 194.153 L 254.122 194.246 L 254.132 194.338 L 254.142 194.431 L 254.152 194.523 L 254.162 194.616 L 254.172 194.708 L 254.182 194.801 L 254.193 194.893 L 254.203 194.985 L 254.213 195.077 L 254.223 195.169 L 254.233 195.262 L 254.243 195.354 L 254.253 195.446 L 254.263 195.538 L 254.273 195.629 L 254.283 195.721 L 254.293 195.813 L 254.303 195.905 L 254.313 195.996 L 254.323 196.088 L 254.334 196.18 L 254.344 196.271 L 254.354 196.363 L 254.364 196.454 L 254.374 196.545 L 254.384 196.637 L 254.394 196.728 L 254.404 196.819 L 254.414 196.91 L 254.424 197.001 L 254.434 197.092 L 254.444 197.183 L 254.454 197.274 L 254.464 197.365 L 254.474 197.456 L 254.484 197.547 L 254.494 197.637 L 254.504 197.728 L 254.514 197.819 L 254.523 197.909 L 254.533 198 L 254.543 198.09 L 254.553 198.18 L 254.563 198.271 L 254.573 198.361 L 254.583 198.451 L 254.593 198.542 L 254.603 198.632 L 254.613 198.722 L 254.623 198.812 L 254.633 198.902 L 254.643 198.992 L 254.653 199.081 L 254.662 199.171 L 254.672 199.261 L 254.682 199.351 L 254.692 199.44 L 254.702 199.53 L 254.712 199.62 L 254.722 199.709 L 254.732 199.799 L 254.742 199.888 L 254.751 199.977 L 254.761 200.067 L 254.771 200.156 L 254.781 200.245 L 254.791 200.334 L 254.801 200.423 L 254.81 200.512 L 254.82 200.601 L 254.83 200.69 L 254.84 200.779 L 254.85 200.868 L 254.86 200.956 L 254.869 201.045 L 254.879 201.134 L 254.889 201.222 L 254.899 201.311 L 254.909 201.4 L 254.918 201.488 L 254.928 201.576 L 254.938 201.665 L 254.948 201.753 L 254.958 201.841 L 254.967 201.929 L 254.977 202.018 L 254.987 202.106 L 254.997 202.194 L 255.006 202.282 L 255.016 202.37 L 255.026 202.457 L 255.036 202.545 L 255.045 202.633 L 255.055 202.721 L 255.065 202.808 L 255.075 202.896 L 255.084 202.984 L 255.094 203.071 L 255.104 203.159 L 255.113 203.246 L 255.123 203.333 L 255.133 203.421 L 255.143 203.508 L 255.152 203.595 L 255.162 203.682 L 255.172 203.769 L 255.181 203.856 L 255.191 203.943 L 255.201 204.03 L 255.21 204.117 L 255.22 204.204 L 255.23 204.291 L 255.239 204.377 L 255.249 204.464 L 255.259 204.551 L 255.268 204.637 L 255.278 204.724 L 255.288 204.81 L 255.297 204.897 L 255.307 204.983 L 255.316 205.069 L 255.326 205.156 L 255.336 205.242 L 255.345 205.328 L 255.355 205.414 L 255.365 205.5 L 255.374 205.586 L 255.384 205.672 L 255.393 205.758 L 255.403 205.844 L 255.412 205.93 L 255.422 206.016 L 255.432 206.101 L 255.441 206.187 L 255.451 206.273 L 255.46 206.358 L 255.47 206.444 L 255.48 206.529 L 255.489 206.614 L 255.499 206.7 L 255.508 206.785 L 255.518 206.87 L 255.527 206.956 L 255.537 207.041 L 255.546 207.126 L 255.556 207.211 L 255.565 207.296 L 255.575 207.381 L 255.584 207.466 L 255.594 207.55 L 255.603 207.635 L 255.613 207.72 L 255.622 207.805 L 255.632 207.889 L 255.641 207.974 L 255.651 208.058 L 255.66 208.143 L 255.67 208.227 L 255.679 208.312 L 255.689 208.396 L 255.698 208.48 L 255.708 208.564 L 255.717 208.649 L 255.727 208.733 L 255.736 208.817 L 255.746 208.901 L 255.755 208.985 L 255.764 209.069 L 255.774 209.153 L 255.783 209.236 L 255.793 209.32 L 255.802 209.404 L 255.812 209.488 L 255.821 209.571 L 255.83 209.655 L 255.84 209.738 L 255.849 209.822 L 255.859 209.905 L 255.868 209.989 L 255.878 210.072 L 255.887 210.155 L 255.896 210.238 L 255.906 210.321 L 255.915 210.405 L 255.924 210.488 L 255.934 210.571 L 255.943 210.654 L 255.953 210.737 L 255.962 210.819 L 255.971 210.902 L 255.981 210.985 L 255.99 211.068 L 255.999 211.15 L 256.009 211.233 L 256.018 211.316 L 256.027 211.398 L 256.037 211.481 L 256.046 211.563 L 256.055 211.645 L 256.065 211.728 L 256.074 211.81 L 256.083 211.892 L 256.093 211.974 L 256.102 212.056 L 256.111 212.138 L 256.121 212.22 L 256.13 212.302 L 256.139 212.384 L 256.148 212.466 L 256.158 212.548 L 256.167 212.63 L 256.176 212.711 L 256.186 212.793 L 256.195 212.875 L 256.204 212.956 L 256.213 213.038 L 256.223 213.119 L 256.232 213.201 L 256.241 213.282 L 256.25 213.363 L 256.26 213.445 L 256.269 213.526 L 256.278 213.607 L 256.287 213.688 L 256.297 213.769 L 256.306 213.85 L 256.315 213.931 L 256.324 214.012 L 256.333 214.093 L 256.343 214.174 L 256.352 214.255 L 256.361 214.335 L 256.37 214.416 L 256.379 214.497 L 256.389 214.577 L 256.398 214.658 L 256.407 214.738 L 256.416 214.819 L 256.425 214.899 L 256.435 214.979 L 256.444 215.06 L 256.453 215.14 L 256.462 215.22 L 256.471 215.3 L 256.48 215.38 L 256.489 215.46 L 256.499 215.54 L 256.508 215.62 L 256.517 215.7 L 256.526 215.78 L 256.535 215.86 L 256.544 215.94 L 256.553 216.019 L 256.563 216.099 L 256.572 216.179 L 256.581 216.258 L 256.59 216.338 L 256.599 216.417 L 256.608 216.497 L 256.617 216.576 L 256.626 216.655 L 256.635 216.735 L 256.645 216.814 L 256.654 216.893 L 256.663 216.972 L 256.672 217.051 L 256.681 217.13 L 256.69 217.209 L 256.699 217.288 L 256.708 217.367 L 256.717 217.446 L 256.726 217.525 L 256.735 217.603 L 256.744 217.682 L 256.753 217.761 L 256.762 217.839 L 256.771 217.918 L 256.78 217.996 L 256.79 218.075 L 256.799 218.153 L 256.808 218.231 L 256.817 218.31 L 256.826 218.388 L 256.835 218.466 L 256.844 218.544 L 256.853 218.622 L 256.862 218.701 L 256.871 218.779 L 256.88 218.857 L 256.889 218.934 L 256.898 219.012 L 256.907 219.09 L 256.916 219.168 L 256.925 219.246 L 256.934 219.323 L 256.943 219.401 L 256.952 219.479 L 256.961 219.556 L 256.969 219.634 L 256.978 219.711 L 256.987 219.788 L 256.996 219.866 L 257.005 219.943 L 257.014 220.02 L 257.023 220.098 L 257.032 220.175 L 257.041 220.252 L 257.05 220.329 L 257.059 220.406 L 257.068 220.483 L 257.077 220.56 L 257.086 220.637 L 257.095 220.714 L 257.104 220.79 L 257.112 220.867 L 257.121 220.944 L 257.13 221.02 L 257.139 221.097 L 257.148 221.173 L 257.157 221.25 L 257.166 221.326 L 257.175 221.403 L 257.184 221.479 L 257.193 221.556 L 257.201 221.632 L 257.21 221.708 L 257.219 221.784 L 257.228 221.86 L 257.237 221.936 L 257.246 222.012 L 257.255 222.088 L 257.263 222.164 L 257.272 222.24 L 257.281 222.316 L 257.29 222.392 L 257.299 222.468 L 257.308 222.543 L 257.317 222.619 L 257.325 222.695 L 257.334 222.77 L 257.343 222.846 L 257.352 222.921 L 257.361 222.997 L 257.369 223.072 L 257.378 223.147 L 257.387 223.223 L 257.396 223.298 L 257.405 223.373 L 257.414 223.448 L 257.422 223.523 L 257.431 223.598 L 257.44 223.673 L 257.449 223.748 L 257.457 223.823 L 257.466 223.898 L 257.475 223.973 L 257.484 224.048 L 257.493 224.123 L 257.501 224.197 L 257.51 224.272 L 257.519 224.347 L 257.528 224.421 L 257.536 224.496 L 257.545 224.57 L 257.554 224.644 L 257.563 224.719 L 257.571 224.793 L 257.58 224.867 L 257.589 224.942 L 257.598 225.016 L 257.606 225.09 L 257.615 225.164 L 257.624 225.238 L 257.632 225.312 L 257.641 225.386 L 257.65 225.46 L 257.659 225.534 L 257.667 225.608 L 257.676 225.682 L 257.685 225.755 L 257.693 225.829 L 257.702 225.903 L 257.711 225.976 L 257.719 226.05 L 257.728 226.123 L 257.737 226.197 L 257.746 226.27 L 257.754 226.344 L 257.763 226.417 L 257.772 226.49 L 257.78 226.564 L 257.789 226.637 L 257.798 226.71 L 257.806 226.783 L 257.815 226.856 L 257.824 226.929 L 257.832 227.002 L 257.841 227.075 L 257.849 227.148 L 257.858 227.221 L 257.867 227.294 L 257.875 227.366 L 257.884 227.439 L 257.893 227.512 L 257.901 227.584 L 257.91 227.657 L 257.918 227.729 L 257.927 227.802 L 257.936 227.874 L 257.944 227.947 L 257.953 228.019 L 257.962 228.091 L 257.97 228.164 L 257.979 228.236 L 257.987 228.308 L 257.996 228.38 L 258.004 228.452 L 258.013 228.524 L 258.022 228.596 L 258.03 228.668 L 258.039 228.74 L 258.047 228.812 L 258.056 228.884 L 258.065 228.956 L 258.073 229.027 L 258.082 229.099 L 258.09 229.171 L 258.099 229.242 L 258.107 229.314 L 258.116 229.385 L 258.124 229.457 L 258.133 229.528 L 258.141 229.6 L 258.15 229.671 L 258.159 229.742 L 258.167 229.814 L 258.176 229.885 L 258.184 229.956 L 258.193 230.027 L 258.201 230.098 L 258.21 230.169 L 258.218 230.24 L 258.227 230.311 L 258.235 230.382 L 258.244 230.453 L 258.252 230.524 L 258.261 230.595 L 258.269 230.666 L 258.278 230.736 L 258.286 230.807 L 258.295 230.877 L 258.303 230.948 L 258.312 231.019 L 258.32 231.089 L 258.329 231.16 L 258.337 231.23 L 258.346 231.3 L 258.354 231.371 L 258.363 231.441 L 258.371 231.511 L 258.379 231.581 L 258.388 231.651 L 258.396 231.722 L 258.405 231.792 L 258.413 231.862 L 258.422 231.932 L 258.43 232.002 L 258.439 232.071 L 258.447 232.141 L 258.456 232.211 L 258.464 232.281 L 258.472 232.351 L 258.481 232.42 L 258.489 232.49 L 258.498 232.56 L 258.506 232.629 L 258.515 232.699 L 258.523 232.768 L 258.531 232.838 L 258.54 232.907 L 258.548 232.976 L 258.557 233.046 L 258.565 233.115 L 258.573 233.184 L 258.582 233.253 L 258.59 233.322 L 258.599 233.392 L 258.607 233.461 L 258.615 233.53 L 258.624 233.599 L 258.632 233.668 L 258.64 233.736 L 258.649 233.805 L 258.657 233.874 L 258.666 233.943 L 258.674 234.012 L 258.682 234.08 L 258.691 234.149 L 258.699 234.218 L 258.707 234.286 L 258.716 234.355 L 258.724 234.423 L 258.732 234.492 L 258.741 234.56 L 258.749 234.628 L 258.757 234.697 L 258.766 234.765 L 258.774 234.833 L 258.782 234.901 L 258.791 234.969 L 258.799 235.038 L 258.807 235.106 L 258.816 235.174 L 258.824 235.242 L 258.832 235.31 L 258.841 235.378 L 258.849 235.445 L 258.857 235.513 L 258.866 235.581 L 258.874 235.649 L 258.882 235.717 L 258.891 235.784 L 258.899 235.852 L 258.907 235.919 L 258.915 235.987 L 258.924 236.055 L 258.932 236.122 L 258.94 236.189 L 258.949 236.257 L 258.957 236.324 L 258.965 236.391 L 258.973 236.459 L 258.982 236.526 L 258.99 236.593 L 258.998 236.66 L 259.007 236.727 L 259.015 236.795 L 259.023 236.862 L 259.031 236.929 L 259.04 236.996 L 259.048 237.062 L 259.056 237.129 L 259.064 237.196 L 259.073 237.263 L 259.081 237.33 L 259.089 237.396 L 259.097 237.463 L 259.106 237.53 L 259.114 237.596 L 259.122 237.663 L 259.13 237.729 L 259.138 237.796 L 259.147 237.862 L 259.155 237.929 L 259.163 237.995 L 259.171 238.062 L 259.18 238.128 L 259.188 238.194 L 259.196 238.26 L 259.204 238.326 L 259.212 238.393 L 259.221 238.459 L 259.229 238.525 L 259.237 238.591 L 259.245 238.657 L 259.253 238.723 L 259.262 238.789 L 259.27 238.855 L 259.278 238.92 L 259.286 238.986 L 259.294 239.052 L 259.303 239.118 L 259.311 239.183 L 259.319 239.249 L 259.327 239.315 L 259.335 239.38 L 259.343 239.446 L 259.352 239.511 L 259.36 239.577 L 259.368 239.642 L 259.376 239.707 L 259.384 239.773 L 259.392 239.838 L 259.401 239.903 L 259.409 239.969 L 259.417 240.034 L 259.425 240.099 L 259.433 240.164 L 259.441 240.229 L 259.449 240.294 L 259.458 240.359 L 259.466 240.424 L 259.474 240.489 L 259.482 240.554 L 259.49 240.619 L 259.498 240.684 L 259.506 240.748 L 259.515 240.813 L 259.523 240.878 L 259.531 240.942 L 259.539 241.007 L 259.547 241.072 L 259.555 241.136 L 259.563 241.201 L 259.571 241.265 L 259.579 241.33 L 259.588 241.394 L 259.596 241.459 L 259.604 241.523 L 259.612 241.587 L 259.62 241.651 L 259.628 241.716 L 259.636 241.78 L 259.644 241.844 L 259.652 241.908 L 259.66 241.972 L 259.669 242.036 L 259.677 242.1 L 259.685 242.164 L 259.693 242.228 L 259.701 242.292 L 259.709 242.356 L 259.717 242.42 L 259.725 242.484 L 259.733 242.547 L 259.741 242.611 L 259.749 242.675 L 259.757 242.739 L 259.765 242.802 L 259.773 242.866 L 259.782 242.929 L 259.79 242.993 L 259.798 243.056 L 259.806 243.12 L 259.814 243.183 L 259.822 243.247 L 259.83 243.31 L 259.838 243.373 L 259.846 243.436 L 259.854 243.5 L 259.862 243.563 L 259.87 243.626 L 259.878 243.689 L 259.886 243.752 L 259.894 243.815 L 259.902 243.878 L 259.91 243.941 L 259.918 244.004 L 259.926 244.067 L 259.934 244.13 L 259.942 244.193 L 259.95 244.256 L 259.958 244.319 L 259.966 244.381 L 259.974 244.444 L 259.982 244.507 L 259.99 244.569 L 259.998 244.632 L 260.006 244.695 L 260.014 244.757 L 260.022 244.82 L 260.03 244.882 L 260.038 244.945 L 260.046 245.007 L 260.054 245.069 L 260.062 245.132 L 260.07 245.194 L 260.078 245.256 L 260.086 245.319 L 260.094 245.381 L 260.102 245.443 L 260.11 245.505 L 260.118 245.567 L 260.126 245.629 L 260.134 245.691 L 260.142 245.753 L 260.15 245.815 L 260.158 245.877 L 260.166 245.939 L 260.174 246.001 L 260.182 246.063 L 260.19 246.125 L 260.198 246.187 L 260.206 246.248 L 260.214 246.31 L 260.222 246.372 L 260.23 246.433 L 260.238 246.495 L 260.246 246.557 L 260.254 246.618 L 260.262 246.68 L 260.27 246.741 L 260.278 246.803 L 260.286 246.864 L 260.294 246.926 L 260.302 246.987 L 260.31 247.048 L 260.318 247.11 L 260.325 247.171 L 260.333 247.232 L 260.341 247.293 L 260.349 247.354 L 260.357 247.416 L 260.365 247.477 L 260.373 247.538 L 260.381 247.599 L 260.389 247.66 L 260.397 247.721 L 260.405 247.782 L 260.413 247.843 L 260.421 247.904 L 260.429 247.964 L 260.437 248.025 L 260.444 248.086 L 260.452 248.147 L 260.46 248.208 L 260.468 248.268 L 260.476 248.329 L 260.484 248.39 L 260.492 248.45 L 260.5 248.511 L 260.508 248.571 L 260.516 248.632 L 260.524 248.692 L 260.531 248.753 L 260.539 248.813 L 260.547 248.874 L 260.555 248.934 L 260.563 248.994 L 260.571 249.055 L 260.579 249.115 L 260.587 249.175 L 260.595 249.235 L 260.603 249.296 L 260.61 249.356 L 260.618 249.416 L 260.626 249.476 L 260.634 249.536 L 260.642 249.596 L 260.65 249.656 L 260.658 249.716 L 260.666 249.776 L 260.674 249.836 L 260.681 249.896 L 260.689 249.956 L 260.697 250.015 L 260.705 250.075 L 260.713 250.135 L 260.721 250.195 L 260.729 250.255 L 260.737 250.314 L 260.744 250.374 L 260.752 250.433 L 260.76 250.493 L 260.768 250.553 L 260.776 250.612 L 260.784 250.672 L 260.792 250.731 L 260.8 250.791 L 260.807 250.85 L 260.815 250.909 L 260.823 250.969 L 260.831 251.028 L 260.839 251.088 L 260.847 251.147 L 260.855 251.206 L 260.862 251.265 L 260.87 251.325 L 260.878 251.384 L 260.886 251.443 L 260.894 251.502 L 260.902 251.561 L 260.91 251.62 L 260.917 251.679 L 260.925 251.738 L 260.933 251.797 L 260.941 251.856 L 260.949 251.915 L 260.957 251.974 L 260.964 252.033 L 260.972 252.092 L 260.98 252.15 L 260.988 252.209 L 260.996 252.268 L 261.004 252.327 L 261.011 252.385 L 261.019 252.444 L 261.027 252.503 L 261.035 252.561 L 261.043 252.62 L 261.051 252.679 L 261.058 252.737 L 261.066 252.796 L 261.074 252.854 L 261.082 252.913 L 261.09 252.971 L 261.098 253.03 L 261.105 253.088 L 261.113 253.146 L 261.121 253.205 L 261.129 253.263 L 261.137 253.321 L 261.145 253.379 L 261.152 253.438 L 261.16 253.496 L 261.168 253.554 M 0 250.509 L 0.004 250.537 L 0.007 250.564 L 0.011 250.591 L 0.014 250.619 L 0.018 250.646 L 0.021 250.673 L 0.025 250.701 L 0.028 250.728 L 0.032 250.755 L 0.035 250.783 L 0.039 250.81 L 0.042 250.837 L 0.046 250.864 L 0.049 250.892 L 0.053 250.919 L 0.056 250.946 L 0.06 250.973 L 0.063 251.001 L 0.067 251.028 L 0.07 251.055 L 0.074 251.082 L 0.077 251.11 L 0.081 251.137 L 0.084 251.164 L 0.088 251.191 L 0.091 251.218 L 0.095 251.245 L 0.098 251.273 L 0.102 251.3 L 0.105 251.327 L 0.109 251.354 L 0.112 251.381 L 0.116 251.408 L 0.119 251.436 L 0.123 251.463 L 0.126 251.49 L 0.13 251.517 L 0.133 251.544 L 0.137 251.571 L 0.14 251.598 L 0.144 251.625 L 0.147 251.652 L 0.151 251.68 L 0.154 251.707 L 0.158 251.734 L 0.161 251.761 L 0.165 251.788 L 0.168 251.815 L 0.172 251.842 L 0.175 251.869 L 0.179 251.896 L 0.182 251.923 L 0.186 251.95 L 0.189 251.977 L 0.193 252.004 L 0.196 252.031 L 0.2 252.058 L 0.203 252.085 L 0.207 252.112 L 0.21 252.139 L 0.214 252.166 L 0.217 252.193 L 0.22 252.22 L 0.224 252.247 L 0.227 252.274 L 0.231 252.301 L 0.234 252.328 L 0.238 252.355 L 0.241 252.382 L 0.245 252.409 L 0.248 252.436 L 0.252 252.462 L 0.255 252.489 L 0.259 252.516 L 0.262 252.543 L 0.266 252.57 L 0.269 252.597 L 0.273 252.624 L 0.276 252.651 L 0.279 252.677 L 0.283 252.704 L 0.286 252.731 L 0.29 252.758 L 0.293 252.785 L 0.297 252.812 L 0.3 252.839 L 0.304 252.865 L 0.307 252.892 L 0.311 252.919 L 0.314 252.946 L 0.318 252.973 L 0.321 252.999 L 0.324 253.026 L 0.328 253.053 L 0.331 253.08 L 0.335 253.106 L 0.338 253.133 L 0.342 253.16 L 0.345 253.187 L 0.349 253.213 L 0.352 253.24 L 0.356 253.267 L 0.359 253.294 L 0.362 253.32 L 0.366 253.347 L 0.369 253.374 L 0.373 253.401 L 0.376 253.427 L 0.38 253.454 L 0.383 253.481 L 0.387 253.507 L 0.39 253.534 L 0.393 253.561 L 0.397 253.587 L 0.4 253.614 L 0.404 253.641 L 0.407 253.667 L 0.411 253.694 L 0.414 253.72 L 0.417 253.747 L 0.421 253.774 L 0.424 253.8 L 0.428 253.827 L 0.431 253.854 L 0.435 253.88 L 0.438 253.907 L 0.442 253.933 L 0.445 253.96 L 0.448 253.986 L 0.452 254.013 L 0.455 254.04 L 0.459 254.066 L 0.462 254.093 L 0.466 254.119 L 0.469 254.146 L 0.472 254.172 L 0.476 254.199 L 0.479 254.225 L 0.483 254.252 L 0.486 254.278 L 0.489 254.305 L 0.493 254.331 L 0.496 254.358 L 0.5 254.384 L 0.503 254.411 L 0.507 254.437 L 0.51 254.464 L 0.513 254.49 L 0.517 254.517 L 0.52 254.543 L 0.524 254.57 L 0.527 254.596 L 0.53 254.622 L 0.534 254.649 L 0.537 254.675 L 0.541 254.702 L 0.544 254.728 L 0.548 254.754 L 0.551 254.781 L 0.554 254.807 L 0.558 254.834 L 0.561 254.86 L 0.565 254.886 L 0.568 254.913 L 0.571 254.939 L 0.575 254.965 L 0.578 254.992 L 0.582 255.018 L 0.585 255.044 L 0.588 255.071 L 0.592 255.097 L 0.595 255.123 L 0.599 255.15 L 0.602 255.176 L 0.605 255.202 L 0.609 255.229 L 0.612 255.255 L 0.616 255.281 L 0.619 255.308 L 0.622 255.334 L 0.626 255.36 L 0.629 255.386 L 0.633 255.413 L 0.636 255.439 L 0.639 255.465 L 0.643 255.491 L 0.646 255.518 L 0.649 255.544 L 0.653 255.57 L 0.656 255.596 L 0.66 255.622 L 0.663 255.649 L 0.666 255.675 L 0.67 255.701 L 0.673 255.727 L 0.677 255.753 L 0.68 255.78 L 0.683 255.806 L 0.687 255.832 L 0.69 255.858 L 0.693 255.884 L 0.697 255.91 L 0.7 255.936 L 0.704 255.963 L 0.707 255.989 L 0.71 256.015 L 0.714 256.041 L 0.717 256.067 L 0.72 256.093 L 0.724 256.119 L 0.727 256.145 L 0.731 256.171 L 0.734 256.197 L 0.737 256.224 L 0.741 256.25 L 0.744 256.276 L 0.747 256.302 L 0.751 256.328 L 0.754 256.354 L 0.758 256.38 L 0.761 256.406 L 0.764 256.432 L 0.768 256.458 L 0.771 256.484 L 0.774 256.51 L 0.778 256.536 L 0.781 256.562 L 0.784 256.588 L 0.788 256.614 L 0.791 256.64 L 0.795 256.666 L 0.798 256.692 L 0.801 256.718 L 0.805 256.744 L 0.808 256.77 L 0.811 256.796 L 0.815 256.822 L 0.818 256.848 L 0.821 256.874 L 0.825 256.899 L 0.828 256.925 L 0.831 256.951 L 0.835 256.977 L 0.838 257.003 L 0.841 257.029 L 0.845 257.055 L 0.848 257.081 L 0.852 257.107 L 0.855 257.132 L 0.858 257.158 L 0.862 257.184 L 0.865 257.21 L 0.868 257.236 L 0.872 257.262 L 0.875 257.288 L 0.878 257.313 L 0.882 257.339 L 0.885 257.365 L 0.888 257.391 L 0.892 257.417 L 0.895 257.443 L 0.898 257.468 L 0.902 257.494 L 0.905 257.52 L 0.908 257.546 L 0.912 257.571 L 0.915 257.597 L 0.918 257.623 L 0.922 257.649 L 0.925 257.674 L 0.928 257.7 L 0.932 257.726 L 0.935 257.752 L 0.938 257.777 L 0.942 257.803 L 0.945 257.829 L 0.948 257.855 L 0.952 257.88 L 0.955 257.906 L 0.958 257.932 L 0.962 257.957 L 0.965 257.983 L 0.968 258.009 L 0.972 258.034 L 0.975 258.06 L 0.978 258.086 L 0.981 258.111 L 0.985 258.137 L 0.988 258.163 L 0.991 258.188 L 0.995 258.214 L 0.998 258.24 L 1.001 258.265 L 1.005 258.291 L 1.008 258.316 L 1.011 258.342 L 1.015 258.368 L 1.018 258.393 L 1.021 258.419 L 1.025 258.444 L 1.028 258.47 L 1.031 258.496 L 1.034 258.521 L 1.038 258.547 L 1.041 258.572 L 1.044 258.598 L 1.048 258.623 L 1.051 258.649 L 1.054 258.674 L 1.058 258.7 L 1.061 258.725 L 1.064 258.751 L 1.068 258.776 L 1.071 258.802 L 1.074 258.827 L 1.077 258.853 L 1.081 258.878 L 1.084 258.904 L 1.087 258.929 L 1.091 258.955 L 1.094 258.98 L 1.097 259.006 L 1.101 259.031 L 1.104 259.057 L 1.107 259.082 L 1.11 259.107 L 1.114 259.133 L 1.117 259.158 L 1.12 259.184 L 1.124 259.209 L 1.127 259.235 L 1.13 259.26 L 1.133 259.285 L 1.137 259.311 L 1.14 259.336 L 1.143 259.362 L 1.147 259.387 L 1.15 259.412 L 1.153 259.438 L 1.156 259.463 L 1.16 259.488 L 1.163 259.514 L 1.166 259.539 L 1.17 259.564 L 1.173 259.59 L 1.176 259.615 L 1.179 259.64 L 1.183 259.666 L 1.186 259.691 L 1.189 259.716 L 1.193 259.742 L 1.196 259.767 L 1.199 259.792 L 1.202 259.817 L 1.206 259.843 L 1.209 259.868 L 1.212 259.893 L 1.215 259.918 L 1.219 259.944 L 1.222 259.969 L 1.225 259.994 L 1.229 260.019 L 1.232 260.045 L 1.235 260.07 L 1.238 260.095 L 1.242 260.12 L 1.245 260.145 L 1.248 260.171 L 1.251 260.196 L 1.255 260.221 L 1.258 260.246 L 1.261 260.271 L 1.264 260.297 L 1.268 260.322 L 1.271 260.347 L 1.274 260.372 L 1.277 260.397 L 1.281 260.422 L 1.284 260.448 L 1.287 260.473 L 1.29 260.498 L 1.294 260.523 L 1.297 260.548 L 1.3 260.573 L 1.304 260.598 L 1.307 260.623 L 1.31 260.648 L 1.313 260.674 L 1.317 260.699 L 1.32 260.724 L 1.323 260.749 L 1.326 260.774 L 1.33 260.799 L 1.333 260.824 L 1.336 260.849 L 1.339 260.874 L 1.343 260.899 L 1.346 260.924 L 1.349 260.949 L 1.352 260.974 L 1.355 260.999 L 1.359 261.024 L 1.362 261.049 L 1.365 261.074 L 1.368 261.099 L 1.372 261.124 L 1.375 261.149 L 1.378 261.174 L 1.381 261.199 L 1.385 261.224 L 1.388 261.249 L 1.391 261.274 L 1.394 261.299 L 1.398 261.324 L 1.401 261.349 L 1.404 261.374 L 1.407 261.399 L 1.411 261.424 L 1.414 261.449 L 1.417 261.473 L 1.42 261.498 L 1.423 261.523 L 1.427 261.548 L 1.43 261.573 L 1.433 261.598 L 1.436 261.623 L 1.44 261.648 L 1.443 261.673 L 1.446 261.697 L 1.449 261.722 L 1.452 261.747 L 1.456 261.772 L 1.459 261.797 L 1.462 261.822 L 1.465 261.847 L 1.469 261.871 L 1.472 261.896 L 1.475 261.921 L 1.478 261.946 L 1.481 261.971 L 1.485 261.995 L 1.488 262.02 L 1.491 262.045 L 1.494 262.07 L 1.498 262.095 L 1.501 262.119 L 1.504 262.144 L 1.507 262.169 L 1.51 262.194 L 1.514 262.218 L 1.517 262.243 L 1.52 262.268 L 1.523 262.293 L 1.526 262.317 L 1.53 262.342 L 1.533 262.367 L 1.536 262.391 L 1.539 262.416 L 1.542 262.441 L 1.546 262.466 L 1.549 262.49 L 1.552 262.515 L 1.555 262.54 L 1.558 262.564 L 1.562 262.589 L 1.565 262.614 L 1.568 262.638 L 1.571 262.663 L 1.574 262.688 L 1.578 262.712 L 1.581 262.737 L 1.584 262.761 L 1.587 262.786 L 1.59 262.811 L 1.594 262.835 L 1.597 262.86 L 1.6 262.885 L 1.603 262.909 L 1.606 262.934 L 1.61 262.958 L 1.613 262.983 L 1.616 263.008 L 1.619 263.032 L 1.622 263.057 L 1.626 263.081 L 1.629 263.106 L 1.632 263.13 L 1.635 263.155 L 1.638 263.179 L 1.641 263.204 L 1.645 263.228 L 1.648 263.253 L 1.651 263.278 L 1.654 263.302 L 1.657 263.327 L 1.661 263.351 L 1.664 263.376 L 1.667 263.4 L 1.67 263.425 L 1.673 263.449 L 1.676 263.473 L 1.68 263.498 L 1.683 263.522 L 1.686 263.547 L 1.689 263.571 L 1.692 263.596 L 1.696 263.62 L 1.699 263.645 L 1.702 263.669 L 1.705 263.694 L 1.708 263.718 L 1.711 263.742 L 1.715 263.767 L 1.718 263.791 L 1.721 263.816 L 1.724 263.84 L 1.727 263.864 L 1.73 263.889 L 1.734 263.913 L 1.737 263.938 L 1.74 263.962 L 1.743 263.986 L 1.746 264.011 L 1.749 264.035 L 1.753 264.059 L 1.756 264.084 L 1.759 264.108 L 1.762 264.132 L 1.765 264.157 L 1.768 264.181 L 1.772 264.205 L 1.775 264.23 L 1.778 264.254 L 1.781 264.278 L 1.784 264.303 L 1.787 264.327 L 1.79 264.351 L 1.794 264.375 L 1.797 264.4 L 1.8 264.424 L 1.803 264.448 L 1.806 264.472 L 1.809 264.497 L 1.813 264.521 L 1.816 264.545 L 1.819 264.569 L 1.822 264.594 L 1.825 264.618 L 1.828 264.642 L 1.831 264.666 L 1.835 264.691 L 1.838 264.715 L 1.841 264.739 L 1.844 264.763 L 1.847 264.787 L 1.85 264.812 L 1.853 264.836 L 1.857 264.86 L 1.86 264.884 L 1.863 264.908 L 1.866 264.932 L 1.869 264.957 L 1.872 264.981 L 1.875 265.005 L 1.879 265.029 L 1.882 265.053 L 1.885 265.077 L 1.888 265.101 L 1.891 265.125 L 1.894 265.15 L 1.897 265.174 L 1.901 265.198 L 1.904 265.222 L 1.907 265.246 L 1.91 265.27 L 1.913 265.294 L 1.916 265.318 L 1.919 265.342 L 1.922 265.366 L 1.926 265.39 L 1.929 265.414 L 1.932 265.439 L 1.935 265.463 L 1.938 265.487 L 1.941 265.511 L 1.944 265.535 L 1.947 265.559 L 1.951 265.583 L 1.954 265.607 L 1.957 265.631 L 1.96 265.655 L 1.963 265.679 L 1.966 265.703 L 1.969 265.727 L 1.972 265.751 L 1.976 265.775 L 1.979 265.799 L 1.982 265.823 L 1.985 265.847 L 1.988 265.871 L 1.991 265.895 L 1.994 265.918 L 1.997 265.942 L 2 265.966 L 2.004 265.99 L 2.007 266.014 L 2.01 266.038 L 2.013 266.062 L 2.016 266.086 L 2.019 266.11 L 2.022 266.134 L 2.025 266.158 L 2.028 266.182 L 2.032 266.205 L 2.035 266.229 L 2.038 266.253 L 2.041 266.277 L 2.044 266.301 L 2.047 266.325 L 2.05 266.349 L 2.053 266.373 L 2.056 266.396 L 2.06 266.42 L 2.063 266.444 L 2.066 266.468 L 2.069 266.492 L 2.072 266.516 L 2.075 266.539 L 2.078 266.563 L 2.081 266.587 L 2.084 266.611 L 2.087 266.635 L 2.091 266.658 L 2.094 266.682 L 2.097 266.706 L 2.1 266.73 L 2.103 266.753 L 2.106 266.777 L 2.109 266.801 L 2.112 266.825 L 2.115 266.848 L 2.118 266.872 L 2.121 266.896 L 2.125 266.92 L 2.128 266.943 L 2.131 266.967 L 2.134 266.991 L 2.137 267.015 L 2.14 267.038 L 2.143 267.062 L 2.146 267.086 L 2.149 267.109 L 2.152 267.133 L 2.155 267.157 L 2.158 267.18 L 2.162 267.204 L 2.165 267.228 L 2.168 267.251 L 2.171 267.275 L 2.174 267.299 L 2.177 267.322 L 2.18 267.346 L 2.183 267.37 L 2.186 267.393 L 2.189 267.417 L 2.192 267.441 L 2.195 267.464 L 2.199 267.488 L 2.202 267.511 L 2.205 267.535 L 2.208 267.559 L 2.211 267.582 L 2.214 267.606 L 2.217 267.629 L 2.22 267.653 L 2.223 267.677 L 2.226 267.7 L 2.229 267.724 L 2.232 267.747 L 2.235 267.771 L 2.238 267.794 L 2.241 267.818 L 2.245 267.841 L 2.248 267.865 L 2.251 267.888 L 2.254 267.912 L 2.257 267.936 L 2.26 267.959 L 2.263 267.983 L 2.266 268.006 L 2.269 268.03 L 2.272 268.053 L 2.275 268.077 L 2.278 268.1 L 2.281 268.123 L 2.284 268.147 L 2.287 268.17 L 2.29 268.194 L 2.294 268.217 L 2.297 268.241 L 2.3 268.264 L 2.303 268.288 L 2.306 268.311 L 2.309 268.335 L 2.312 268.358 L 2.315 268.381 L 2.318 268.405 L 2.321 268.428 L 2.324 268.452 L 2.327 268.475 L 2.33 268.498 L 2.333 268.522 L 2.336 268.545 L 2.339 268.569 L 2.342 268.592 L 2.345 268.615 L 2.348 268.639 L 2.352 268.662 L 2.355 268.685 L 2.358 268.709 L 2.361 268.732 L 2.364 268.756 L 2.367 268.779 L 2.37 268.802 L 2.373 268.826 L 2.376 268.849 L 2.379 268.872 L 2.382 268.896 L 2.385 268.919 L 2.388 268.942 L 2.391 268.965 L 2.394 268.989 L 2.397 269.012 L 2.4 269.035 L 2.403 269.059 L 2.406 269.082 L 2.409 269.105 L 2.412 269.128 L 2.415 269.152 L 2.418 269.175 L 2.421 269.198 L 2.424 269.221 L 2.427 269.245 L 2.43 269.268 L 2.434 269.291 L 2.437 269.314 L 2.44 269.338 L 2.443 269.361 L 2.446 269.384 L 2.449 269.407 L 2.452 269.43 L 2.455 269.454 L 2.458 269.477 L 2.461 269.5 L 2.464 269.523 L 2.467 269.546 L 2.47 269.57 L 2.473 269.593 L 2.476 269.616 L 2.479 269.639 L 2.482 269.662 L 2.485 269.685 L 2.488 269.709 L 2.491 269.732 L 2.494 269.755 L 2.497 269.778 L 2.5 269.801 L 2.503 269.824 L 2.506 269.847 L 2.509 269.87 L 2.512 269.894 L 2.515 269.917 L 2.518 269.94 L 2.521 269.963 L 2.524 269.986 L 2.527 270.009 L 2.53 270.032 L 2.533 270.055 L 2.536 270.078 L 2.539 270.101 L 2.542 270.124 L 2.545 270.147 L 2.548 270.17 L 2.551 270.194 L 2.554 270.217 L 2.557 270.24 L 2.56 270.263 L 2.563 270.286 L 2.566 270.309 L 2.569 270.332 L 2.572 270.355 L 2.575 270.378 L 2.578 270.401 L 2.581 270.424 L 2.584 270.447 L 2.587 270.47 L 2.59 270.493 L 2.593 270.516 L 2.596 270.539 L 2.599 270.562 L 2.602 270.585 L 2.605 270.608 L 2.608 270.63 L 2.611 270.653 L 2.614 270.676 L 2.617 270.699 L 2.62 270.722 L 2.623 270.745 L 2.626 270.768 L 2.629 270.791 L 2.632 270.814 L 2.635 270.837 L 2.638 270.86 L 2.641 270.883 L 2.644 270.906 L 2.647 270.928 L 2.65 270.951 L 2.653 270.974 L 2.656 270.997 L 2.659 271.02 L 2.662 271.043 L 2.665 271.066 L 2.668 271.089 L 2.671 271.111 L 2.674 271.134 L 2.677 271.157 L 2.68 271.18 L 2.683 271.203 L 2.686 271.226 L 2.689 271.249 L 2.692 271.271 L 2.695 271.294 L 2.698 271.317 L 2.701 271.34 L 2.704 271.363 L 2.707 271.385 L 2.71 271.408 L 2.713 271.431 L 2.716 271.454 L 2.719 271.477 L 2.722 271.499 L 2.725 271.522 L 2.728 271.545 L 2.731 271.568 L 2.734 271.59 L 2.737 271.613 L 2.74 271.636 L 2.743 271.659 L 2.746 271.681 L 2.748 271.704 L 2.751 271.727 L 2.754 271.75 L 2.757 271.772 L 2.76 271.795 L 2.763 271.818 L 2.766 271.84 L 2.769 271.863 L 2.772 271.886 L 2.775 271.909 L 2.778 271.931 L 2.781 271.954 L 2.784 271.977 L 2.787 271.999 L 2.79 272.022 L 2.793 272.045 L 2.796 272.067 L 2.799 272.09 L 2.802 272.113 L 2.805 272.135 L 2.808 272.158 L 2.811 272.181 L 2.814 272.203 L 2.817 272.226 L 2.82 272.248 L 2.823 272.271 L 2.826 272.294 L 2.828 272.316 L 2.831 272.339 L 2.834 272.361 L 2.837 272.384 L 2.84 272.407 L 2.843 272.429 L 2.846 272.452 L 2.849 272.474 L 2.852 272.497 L 2.855 272.52 L 2.858 272.542 L 2.861 272.565 L 2.864 272.587 L 2.867 272.61 L 2.87 272.632 L 2.873 272.655 L 2.876 272.677 L 2.879 272.7 L 2.882 272.723 L 2.885 272.745 L 2.887 272.768 L 2.89 272.79 L 2.893 272.813 L 2.896 272.835 L 2.899 272.858 L 2.902 272.88 L 2.905 272.903 L 2.908 272.925 L 2.911 272.948 L 2.914 272.97 L 2.917 272.993 L 2.92 273.015 L 2.923 273.037 L 2.926 273.06 L 2.929 273.082 L 2.932 273.105 L 2.935 273.127 L 2.937 273.15 L 2.94 273.172 L 2.943 273.195 L 2.946 273.217 L 2.949 273.239 L 2.952 273.262 L 2.955 273.284 L 2.958 273.307 L 2.961 273.329 L 2.964 273.352 L 2.967 273.374 L 2.97 273.396 L 2.973 273.419 L 2.976 273.441 L 2.979 273.463 L 2.981 273.486 L 2.984 273.508 L 2.987 273.531 L 2.99 273.553 L 2.993 273.575 L 2.996 273.598 L 2.999 273.62 L 3.002 273.642 L 3.005 273.665 L 3.008 273.687 L 3.011 273.709 L 3.014 273.732 L 3.017 273.754 L 3.019 273.776 L 3.022 273.799 L 3.025 273.821 L 3.028 273.843 L 3.031 273.866 L 3.034 273.888 L 3.037 273.91 L 3.04 273.933 L 3.043 273.955 L 3.046 273.977 L 3.049 273.999 L 3.052 274.022 L 3.054 274.044 L 3.057 274.066 L 3.06 274.088 L 3.063 274.111 L 3.066 274.133 L 3.069 274.155 L 3.072 274.177 L 3.075 274.2 L 3.078 274.222 L 3.081 274.244 L 3.084 274.266 L 3.087 274.289 L 3.089 274.311 L 3.092 274.333 L 3.095 274.355 L 3.098 274.377 L 3.101 274.4 L 3.104 274.422 L 3.107 274.444 L 3.11 274.466 L 3.113 274.488 L 3.116 274.511 L 3.119 274.533 L 3.121 274.555 L 3.124 274.577 L 3.127 274.599 L 3.13 274.621 L 3.133 274.643 L 3.136 274.666 L 3.139 274.688 L 3.142 274.71 L 3.145 274.732 L 3.148 274.754 L 3.15 274.776 L 3.153 274.798 L 3.156 274.821 L 3.159 274.843 L 3.162 274.865 L 3.165 274.887 L 3.168 274.909 L 3.171 274.931 L 3.174 274.953 L 3.176 274.975 L 3.179 274.997 L 3.182 275.019 L 3.185 275.041" id="blue" stroke="blue" style="stroke:blue" vector-effect="non-scaling-stroke"/><g id="captions"><text alignment-baseline="middle" text-anchor="middle" transform="rotate(0,341.543,194.391)" x="341.543" y="194.391">LEE, 2, 1</text></g></g></svg>