<svg width="412.098" height="138.324" viewBox="0 0 412.098 138.324" xmlns="http://www.w3.org/2000/svg"><g id="svgGroup" stroke-linecap="round" fill-rule="evenodd" font-size="9pt" stroke="#000" stroke-width="0.25mm" fill="none" style="stroke:#000;stroke-width:0.25mm;fill:none"><path d="M 408.595 0 L 407.526 0.131 L 406.448 0.261 L 405.367 0.391 L 404.283 0.521 L 403.196 0.651 L 402.107 0.78 L 401.014 0.91 L 400.099 1 L 399.148 1.129 L 398.048 1.258 L 396.945 1.386 L 395.839 1.514 L 394.73 1.642 L 393.592 1.737 L 392.776 1.866 L 391.659 1.993 L 390.539 2.12 L 389.416 2.247 L 388.478 2.335 L 387.498 2.462 L 386.639 2.582 L 385.293 2.708 L 384.156 2.833 L 383.209 2.921 L 382.213 3.046 L 381.068 3.171 L 379.919 3.296 L 378.965 3.383 L 377.957 3.507 L 376.8 3.631 L 375.84 3.718 L 374.824 3.841 L 373.658 3.965 L 372.692 4.05 L 371.667 4.173 L 370.493 4.296 L 369.521 4.381 L 368.487 4.503 L 367.304 4.625 L 366.326 4.71 L 365.284 4.832 L 364.092 4.953 L 363.108 5.037 L 362.328 5.152 L 361.133 5.236 L 360.074 5.356 L 358.867 5.476 L 357.875 5.559 L 356.807 5.678 L 355.811 5.761 L 354.737 5.88 L 353.737 5.963 L 352.657 6.081 L 351.43 6.199 L 350.722 6.276 L 349.398 6.394 L 348.39 6.475 L 347.293 6.592 L 346.281 6.674 L 345.178 6.79 L 344.162 6.871 L 343.052 6.988 L 342.033 7.068 L 341.184 7.178 L 339.96 7.259 L 338.836 7.374 L 337.81 7.454 L 336.68 7.568 L 335.651 7.648 L 334.757 7.727 L 333.884 7.836 L 332.65 7.915 L 331.503 8.028 L 330.465 8.106 L 329.312 8.219 L 328.27 8.297 L 327.363 8.375 L 326.463 8.482 L 325.22 8.56 L 324.306 8.637 L 323.134 8.748 L 322.082 8.825 L 320.903 8.936 L 320.132 9.008 L 318.99 9.084 L 317.8 9.194 L 316.74 9.27 L 315.809 9.346 L 314.867 9.45 L 313.612 9.526 L 312.675 9.601 L 311.465 9.709 L 310.394 9.784 L 309.451 9.859 L 308.485 9.961 L 307.224 10.036 L 306.275 10.11 L 305.323 10.184 L 304.342 10.285 L 303.076 10.36 L 302.119 10.433 L 301.159 10.506 L 299.912 10.611 L 299.096 10.679 L 297.926 10.752 L 296.958 10.825 L 295.697 10.929 L 294.601 11.001 L 293.898 11.068 L 292.72 11.14 L 291.444 11.243 L 290.342 11.314 L 289.628 11.381 L 288.445 11.452 L 287.459 11.523 L 286.166 11.624 L 285.319 11.69 L 284.132 11.761 L 283.137 11.83 L 282.14 11.9 L 281.405 11.965 L 279.897 12.065 L 278.777 12.135 L 277.772 12.203 L 277.024 12.268 L 275.826 12.337 L 274.814 12.405 L 273.8 12.473 L 272.697 12.566 L 271.401 12.635 L 270.381 12.702 L 269.613 12.765 L 268.406 12.833 L 267.38 12.9 L 266.351 12.966 L 265.574 13.029 L 264.36 13.096 L 263.326 13.162 L 262.18 13.252 L 260.876 13.319 L 259.835 13.384 L 258.791 13.45 L 257.993 13.511 L 256.771 13.576 L 255.721 13.641 L 254.915 13.701 L 253.689 13.766 L 252.633 13.83 L 251.818 13.89 L 250.589 13.954 L 249.527 14.018 L 248.704 14.077 L 247.47 14.141 L 246.402 14.204 L 245.57 14.262 L 244.333 14.326 L 243.259 14.388 L 242.418 14.446 L 241.177 14.509 L 240.097 14.57 L 239.248 14.628 L 238.003 14.69 L 236.916 14.751 L 236.058 14.808 L 234.81 14.87 L 233.716 14.93 L 232.85 14.986 L 231.598 15.047 L 230.498 15.107 L 229.622 15.163 L 228.367 15.223 L 227.26 15.282 L 226.376 15.338 L 225.116 15.397 L 224.325 15.43 L 223.595 15.485 L 222.33 15.544 L 221.211 15.602 L 220.313 15.656 L 219.044 15.714 L 218.138 15.768 L 216.868 15.826 L 215.738 15.883 L 214.823 15.936 L 213.89 15.969 L 212.905 16.025 L 211.985 16.078 L 210.705 16.135 L 209.777 16.187 L 208.496 16.243 L 207.35 16.299 L 206.413 16.351 L 205.483 16.382 L 204.686 16.433 L 203.398 16.488 L 202.242 16.543 L 201.292 16.594 L 200 16.649 L 198.837 16.702 L 198.254 16.729 L 197.088 16.783 L 196.125 16.833 L 194.827 16.886 L 193.855 16.936 L 192.932 16.966 L 191.889 17.018 L 190.912 17.067 L 189.607 17.12 L 188.622 17.168 L 187.7 17.198 L 186.643 17.249 L 185.653 17.297 L 184.34 17.349 L 183.342 17.397 L 182.422 17.426 L 181.546 17.473 L 180.229 17.523 L 179.027 17.573 L 178.015 17.62 L 177.097 17.649 L 176.203 17.695 L 174.88 17.744 L 173.855 17.79 L 172.941 17.819 L 171.843 17.866 L 170.813 17.912 L 169.482 17.961 L 168.87 17.985 L 167.646 18.033 L 166.604 18.077 L 165.689 18.105 L 164.759 18.148 L 163.42 18.196 L 162.185 18.243 L 161.565 18.266 L 160.326 18.313 L 159.267 18.356 L 158.352 18.382 L 157.4 18.425 L 156.05 18.471 L 154.978 18.514 L 154.068 18.54 L 153.098 18.582 L 151.745 18.627 L 151.115 18.649 L 149.856 18.694 L 148.768 18.735 L 147.86 18.761 L 146.695 18.804 L 145.601 18.845 L 144.69 18.87 L 143.693 18.91 L 142.326 18.953 L 141.687 18.975 L 140.409 19.017 L 139.298 19.057 L 138.389 19.081 L 137.372 19.12 L 135.996 19.163 L 135.351 19.184 L 134.061 19.225 L 132.933 19.264 L 132.027 19.287 L 130.988 19.325 L 130.081 19.348 L 129.037 19.386 L 127.65 19.427 L 126.997 19.447 L 125.69 19.486 L 124.542 19.524 L 123.637 19.546 L 122.572 19.583 L 121.666 19.605 L 120.596 19.641 L 119.198 19.68 L 118.536 19.699 L 117.213 19.737 L 116.549 19.756 L 115.222 19.794 L 114.048 19.83 L 113.144 19.851 L 112.048 19.885 L 111.306 19.904 L 109.968 19.941 L 108.78 19.976 L 107.88 19.996 L 106.764 20.03 L 105.862 20.051 L 104.741 20.084 L 103.839 20.104 L 102.713 20.137 L 101.809 20.157 L 100.68 20.19 L 99.253 20.225 L 98.572 20.242 L 97.209 20.277 L 96.526 20.294 L 95.307 20.326 L 94.406 20.345 L 93.251 20.376 L 92.349 20.395 L 91.19 20.426 L 90.286 20.445 L 89.122 20.476 L 87.679 20.509 L 86.987 20.525 L 85.602 20.557 L 84.907 20.573 L 83.66 20.603 L 82.76 20.621 L 81.57 20.65 L 80.668 20.668 L 79.474 20.696 L 78.571 20.714 L 77.373 20.743 L 76.615 20.758 L 75.21 20.788 L 74.506 20.803 L 73.096 20.833 L 72.39 20.848 L 70.976 20.877 L 70.268 20.892 L 68.986 20.919 L 68.085 20.936 L 66.854 20.962 L 65.951 20.978 L 64.715 21.005 L 63.811 21.021 L 63.151 21.034 L 61.854 21.06 L 60.949 21.076 L 59.701 21.101 L 58.794 21.117 L 57.542 21.142 L 56.773 21.155 L 55.33 21.182 L 54.606 21.195 L 53.158 21.221 L 52.433 21.234 L 50.981 21.259 L 50.253 21.272 L 49.525 21.285 L 48.068 21.31 L 47.337 21.322 L 45.875 21.347 L 45.143 21.359 L 43.804 21.382 L 42.898 21.396 L 42.207 21.407 L 40.735 21.431 L 39.998 21.443 L 38.649 21.464 L 37.739 21.478 L 36.429 21.499 L 35.649 21.51 L 34.776 21.523 L 33.458 21.544 L 32.546 21.556 L 31.223 21.577 L 30.44 21.588 L 29.563 21.6 L 28.233 21.62 L 27.319 21.632 L 25.983 21.651 L 25.197 21.662 L 24.316 21.673 L 22.973 21.692 L 22.184 21.702 L 20.674 21.722 L 19.918 21.732 L 19.033 21.743 L 17.678 21.761 L 16.885 21.771 L 15.365 21.79 L 14.604 21.799 L 13.842 21.808 L 12.316 21.827 L 11.551 21.836 L 10.786 21.845 L 9.254 21.862 L 8.487 21.871 L 6.951 21.889 L 6.181 21.897 L 5.411 21.906 L 3.869 21.922 L 3.096 21.931 L 2.323 21.939 L 0.775 21.955 L 0 21.963 L 0.903 133.896 L 1.678 133.962 L 3.226 134.017 L 4 134.082 L 4.772 134.147 L 6.316 134.2 L 7.087 134.264 L 7.857 134.328 L 9.395 134.38 L 10.164 134.443 L 11.698 134.494 L 12.465 134.557 L 13.231 134.619 L 14.761 134.669 L 15.525 134.73 L 16.288 134.791 L 17.813 134.84 L 18.575 134.9 L 19.734 134.951 L 20.856 135.007 L 21.615 135.066 L 23.132 135.113 L 23.889 135.171 L 25.04 135.22 L 26.157 135.274 L 26.912 135.332 L 28.058 135.379 L 29.173 135.433 L 30.316 135.479 L 31.429 135.532 L 32.18 135.587 L 33.318 135.633 L 34.428 135.684 L 35.563 135.729 L 36.671 135.779 L 37.418 135.833 L 38.548 135.877 L 39.654 135.926 L 40.781 135.969 L 41.524 136.021 L 43.008 136.059 L 43.749 136.11 L 44.85 136.158 L 45.969 136.198 L 46.708 136.249 L 48.184 136.285 L 48.921 136.334 L 50.393 136.369 L 51.129 136.418 L 51.864 136.467 L 53.331 136.5 L 54.064 136.548 L 55.528 136.581 L 56.26 136.628 L 57.72 136.659 L 58.45 136.706 L 59.548 136.74 L 60.635 136.782 L 61.73 136.816 L 62.814 136.857 L 63.906 136.889 L 64.631 136.933 L 65.713 136.973 L 66.8 137.005 L 67.88 137.044 L 68.964 137.074 L 70.043 137.112 L 71.123 137.142 L 71.842 137.183 L 73.277 137.208 L 73.994 137.249 L 75.426 137.273 L 76.142 137.312 L 77.57 137.335 L 78.284 137.374 L 79.352 137.4 L 80.42 137.434 L 81.486 137.459 L 82.552 137.493 L 83.614 137.517 L 84.679 137.549 L 85.738 137.573 L 86.445 137.608 L 87.856 137.626 L 88.562 137.662 L 89.97 137.679 L 91.021 137.699 L 92.078 137.729 L 93.126 137.749 L 94.182 137.778 L 95.227 137.797 L 96.28 137.825 L 97.322 137.843 L 98.019 137.874 L 99.412 137.887 L 100.108 137.917 L 101.497 137.929 L 102.531 137.944 L 103.578 137.97 L 104.609 137.984 L 105.653 138.008 L 106.681 138.022 L 107.723 138.045 L 108.748 138.058 L 109.788 138.08 L 110.811 138.092 L 112.183 138.098 L 112.868 138.124 L 113.886 138.134 L 114.921 138.155 L 115.935 138.164 L 117.299 138.168 L 117.98 138.191 L 119.34 138.194 L 120.02 138.217 L 121.377 138.219 L 122.382 138.225 L 123.408 138.242 L 124.411 138.247 L 125.435 138.263 L 126.435 138.267 L 127.781 138.266 L 128.454 138.285 L 129.797 138.283 L 130.79 138.285 L 131.808 138.298 L 132.798 138.299 L 133.814 138.311 L 134.801 138.311 L 136.134 138.306 L 136.8 138.322 L 138.129 138.315 L 139.11 138.313 L 140.12 138.322 L 141.098 138.319 L 142.42 138.311 L 143.081 138.324 L 144.4 138.314 L 145.372 138.309 L 146.375 138.315 L 147.344 138.309 L 148.656 138.297 L 149.656 138.302 L 150.621 138.294 L 151.927 138.28 L 152.58 138.289 L 153.884 138.274 L 154.842 138.264 L 155.835 138.266 L 156.791 138.255 L 158.088 138.238 L 159.04 138.226 L 160.029 138.226 L 160.979 138.213 L 162.268 138.193 L 162.913 138.198 L 164.199 138.177 L 165.483 138.155 L 166.426 138.139 L 167.406 138.136 L 168.346 138.119 L 169.623 138.095 L 170.261 138.096 L 171.536 138.071 L 172.469 138.052 L 173.74 138.026 L 174.713 138.018 L 175.642 137.998 L 176.907 137.97 L 177.833 137.948 L 178.802 137.938 L 179.725 137.915 L 180.984 137.885 L 182.24 137.854 L 183.159 137.829 L 184.121 137.816 L 185.037 137.79 L 186.287 137.757 L 187.2 137.729 L 188.446 137.695 L 189.402 137.68 L 190.311 137.651 L 191.552 137.614 L 192.457 137.584 L 193.695 137.546 L 194.645 137.528 L 195.547 137.496 L 196.779 137.456 L 197.677 137.423 L 198.906 137.381 L 199.519 137.368 L 200.745 137.326 L 201.968 137.282 L 202.859 137.246 L 204.079 137.202 L 205.297 137.156 L 206.183 137.118 L 207.12 137.093 L 208.004 137.054 L 209.215 137.006 L 210.424 136.957 L 211.304 136.916 L 212.509 136.866 L 213.386 136.823 L 214.588 136.772 L 215.515 136.742 L 216.387 136.698 L 217.584 136.645 L 218.779 136.59 L 219.647 136.544 L 220.839 136.489 L 221.703 136.441 L 222.891 136.384 L 224.077 136.326 L 224.938 136.276 L 225.853 136.24 L 227.034 136.18 L 227.89 136.129 L 229.068 136.067 L 230.244 136.006 L 231.096 135.952 L 232.268 135.888 L 233.438 135.824 L 234.286 135.768 L 235.452 135.703 L 236.617 135.636 L 237.46 135.578 L 238.622 135.51 L 239.781 135.441 L 240.62 135.381 L 241.776 135.311 L 242.93 135.24 L 243.764 135.178 L 244.915 135.105 L 246.063 135.032 L 246.894 134.968 L 248.039 134.893 L 249.182 134.817 L 250.008 134.75 L 251.148 134.673 L 252.286 134.595 L 253.108 134.526 L 254.242 134.447 L 255.374 134.366 L 256.192 134.295 L 257.321 134.213 L 258.448 134.13 L 259.262 134.057 L 260.386 133.972 L 261.508 133.887 L 262.628 133.801 L 263.684 133.699 L 264.801 133.611 L 265.915 133.522 L 266.718 133.443 L 267.829 133.353 L 268.938 133.261 L 270.045 133.169 L 270.843 133.087 L 271.947 132.994 L 273.049 132.899 L 274.086 132.788 L 275.185 132.691 L 276.281 132.594 L 277.375 132.496 L 278.163 132.408 L 279.254 132.308 L 280.343 132.207 L 281.671 132.078 L 282.453 131.987 L 283.537 131.883 L 284.618 131.778 L 285.698 131.673 L 286.475 131.578 L 287.789 131.443 L 288.863 131.335 L 289.935 131.226 L 290.707 131.128 L 291.776 131.017 L 293.078 130.876 L 294.143 130.763 L 294.908 130.662 L 295.97 130.547 L 297.263 130.402 L 298.321 130.285 L 299.376 130.167 L 300.135 130.061 L 301.419 129.913 L 302.469 129.792 L 303.517 129.669 L 304.564 129.546 L 305.545 129.407 L 306.588 129.282 L 307.629 129.155 L 308.669 129.028 L 309.643 128.884 L 310.678 128.755 L 311.712 128.625 L 312.97 128.464 L 314 128.332 L 315.028 128.198 L 315.991 128.048 L 317.016 127.912 L 318.038 127.776 L 319.283 127.608 L 320.301 127.469 L 321.032 127.343 L 322.27 127.172 L 323.283 127.029 L 324.516 126.856 L 325.525 126.711 L 326.533 126.565 L 327.476 126.403 L 328.48 126.255 L 329.482 126.106 L 330.701 125.925 L 331.699 125.773 L 332.913 125.589 L 333.908 125.435 L 334.838 125.265 L 335.829 125.108 L 336.818 124.951 L 338.021 124.761 L 339.006 124.601 L 340.204 124.408 L 341.185 124.246 L 342.103 124.066 L 343.081 123.902 L 344.27 123.704 L 345.244 123.536 L 346.429 123.336 L 347.399 123.166 L 348.579 122.962 L 349.545 122.79 L 350.72 122.583 L 351.411 122.425 L 352.582 122.216 L 353.751 122.005 L 354.708 121.826 L 355.871 121.613 L 356.824 121.431 L 357.983 121.214 L 358.933 121.03 L 360.087 120.811 L 361.239 120.59 L 362.182 120.401 L 363.066 120.195 L 364.006 120.003 L 365.149 119.777 L 366.29 119.548 L 367.224 119.353 L 368.361 119.121 L 369.495 118.888 L 370.423 118.688 L 371.553 118.452 L 372.68 118.214 L 373.602 118.009 L 374.725 117.768 L 375.845 117.525 L 376.762 117.316 L 377.878 117.07 L 378.991 116.823 L 379.902 116.609 L 381.011 116.358 L 382.118 116.105 L 383.222 115.851 L 384.126 115.63 L 385.226 115.373 L 386.323 115.113 L 387.168 114.872 L 388.261 114.609 L 389.156 114.38 L 390.245 114.114 L 391.332 113.845 L 392.416 113.575 L 393.499 113.303 L 394.63 113.046 L 395.708 112.77 L 396.783 112.493 L 397.856 112.213 L 398.926 111.932 L 399.994 111.648 L 400.867 111.4 L 401.931 111.113 L 402.993 110.824 L 404.053 110.533 L 405.11 110.24 L 406.165 109.945 L 407.218 109.648 L 408.269 109.349 L 408.264 108.46 L 408.259 107.568 L 408.254 106.671 L 408.249 105.77 L 408.244 104.866 L 408.24 103.957 L 408.235 103.044 L 408.231 102.127 L 408.228 101.207 L 408.224 100.282 L 408.22 99.353 L 408.217 98.42 L 408.214 97.483 L 408.211 96.542 L 408.208 95.597 L 408.206 94.648 L 408.204 93.695 L 408.203 93.302 L 411.897 93.948 L 411.883 84.536 L 408.191 85.192 L 404.498 85.844 L 404.498 77.951 L 408.191 78.602 L 411.883 79.257 L 411.892 70.958 L 408.198 71.605 L 404.504 72.248 L 404.523 63.54 L 408.215 64.199 L 411.906 64.862 L 411.935 55.742 L 408.24 56.382 L 404.544 57.017 L 404.584 47.483 L 408.274 48.15 L 411.964 48.819 L 412.001 41.201 L 408.305 41.834 L 404.608 42.464 L 404.667 32.155 L 408.356 32.827 L 412.045 33.502 L 412.098 25.217 L 408.401 25.844 L 404.703 26.47 L 404.762 17.875 L 408.451 18.551 L 408.465 16.615 L 408.474 15.363 L 408.483 14.107 L 408.493 12.846 L 408.503 11.581 L 408.512 10.311 L 408.522 9.038 L 408.532 7.76 L 408.542 6.477 L 408.553 5.19 L 408.563 3.899 L 408.573 2.604 L 408.584 1.304 L 408.595 0 Z" vector-effect="non-scaling-stroke"/><path d="M 258.791 13.45 L 258.794 14.951 L 258.796 16.447 L 258.798 17.936 L 258.801 19.42 L 258.803 20.897 L 258.805 22.368 L 258.808 23.833 L 258.81 25.292 L 258.813 26.744 L 258.816 28.191 L 258.818 29.631 L 258.821 31.065 L 258.823 32.494 L 258.826 33.916 L 258.829 35.332 L 258.832 36.742 L 258.835 38.145 L 258.837 39.543 L 258.84 40.935 L 258.843 42.32 L 258.846 43.7 L 258.849 45.073 L 258.852 46.441 L 258.855 47.802 L 258.858 49.157 L 258.862 50.506 L 258.865 51.85 L 258.868 53.187 L 258.871 54.518 L 258.875 55.843 L 258.878 57.162 L 258.882 58.475 L 258.885 59.782 L 258.889 61.083 L 258.892 62.378 L 258.896 63.667 L 258.9 64.95 L 258.903 66.227 L 258.907 67.499 L 258.911 68.764 L 258.915 70.023 L 258.919 71.276 L 258.923 72.523 L 258.927 73.765 L 258.931 75 L 258.935 76.23 L 258.939 77.453 L 258.944 78.671 L 258.948 79.883 L 258.953 81.089 L 258.957 82.289 L 258.962 83.483 L 258.966 84.671 L 258.971 85.853 L 258.975 87.03 L 258.98 88.2 L 258.985 89.365 L 258.99 90.524 L 258.995 91.677 L 259 92.825 L 259.005 93.966 L 259.01 95.102 L 259.015 96.232 L 259.021 97.356 L 259.026 98.474 L 259.031 99.587 L 259.037 100.693 L 259.043 101.794 L 259.048 102.89 L 259.054 103.979 L 259.06 105.063 L 259.066 106.141 L 259.071 107.214 L 259.077 108.28 L 259.084 109.341 L 259.09 110.397 L 259.096 111.447 L 259.102 112.491 L 259.109 113.529 L 259.115 114.562 L 259.122 115.589 L 259.128 116.611 L 259.135 117.627 L 259.142 118.637 L 259.149 119.642 L 259.156 120.642 L 259.163 121.635 L 259.17 122.624 L 259.177 123.606 L 259.184 124.584 L 259.192 125.555 L 259.199 126.522 L 259.207 127.483 L 259.214 128.438 L 259.222 129.388 L 259.23 130.333 L 259.238 131.272 L 259.246 132.205 L 259.254 133.134 L 259.262 134.057 M 0 21.963 L 0.01 23.343 L 0.021 24.719 L 0.031 26.088 L 0.042 27.452 L 0.052 28.811 L 0.062 30.164 L 0.073 31.512 L 0.083 32.855 L 0.093 34.192 L 0.103 35.524 L 0.113 36.85 L 0.123 38.171 L 0.134 39.486 L 0.144 40.797 L 0.154 42.101 L 0.164 43.401 L 0.173 44.695 L 0.183 45.984 L 0.193 47.267 L 0.203 48.545 L 0.213 49.817 L 0.223 51.085 L 0.232 52.346 L 0.242 53.603 L 0.252 54.854 L 0.261 56.1 L 0.271 57.341 L 0.281 58.576 L 0.29 59.806 L 0.3 61.03 L 0.309 62.25 L 0.319 63.463 L 0.328 64.672 L 0.338 65.875 L 0.347 67.074 L 0.356 68.266 L 0.366 69.454 L 0.375 70.636 L 0.384 71.813 L 0.393 72.985 L 0.403 74.151 L 0.412 75.312 L 0.421 76.468 L 0.43 77.619 L 0.439 78.764 L 0.448 79.904 L 0.457 81.039 L 0.466 82.169 L 0.475 83.293 L 0.484 84.413 L 0.493 85.527 L 0.502 86.636 L 0.511 87.739 L 0.52 88.838 L 0.529 89.931 L 0.538 91.019 L 0.546 92.102 L 0.555 93.18 L 0.564 94.253 L 0.572 95.32 L 0.581 96.383 L 0.59 97.44 L 0.598 98.492 L 0.607 99.539 L 0.616 100.581 L 0.624 101.618 L 0.633 102.65 L 0.641 103.676 L 0.65 104.698 L 0.658 105.714 L 0.667 106.726 L 0.675 107.732 L 0.683 108.733 L 0.692 109.73 L 0.7 110.721 L 0.709 111.707 L 0.717 112.688 L 0.725 113.665 L 0.733 114.636 L 0.742 115.602 L 0.75 116.563 L 0.758 117.52 L 0.766 118.471 L 0.775 119.417 L 0.783 120.359 L 0.791 121.295 L 0.799 122.227 L 0.807 123.154 L 0.815 124.076 L 0.823 124.993 L 0.831 125.905 L 0.839 126.812 L 0.847 127.714 L 0.855 128.612 L 0.863 129.505 L 0.871 130.392 L 0.879 131.276 L 0.887 132.154 L 0.895 133.027 L 0.903 133.896" id="blue" stroke="blue" style="stroke:blue" vector-effect="non-scaling-stroke"/><g id="captions"><text alignment-baseline="middle" text-anchor="middle" transform="rotate(0,203.739,76.845)" x="203.739" y="76.845">LEE, 3, 1</text></g></g></svg>