<svg width="411.471" height="63.051" viewBox="0 0 411.471 63.051" xmlns="http://www.w3.org/2000/svg"><g id="svgGroup" stroke-linecap="round" fill-rule="evenodd" font-size="9pt" stroke="#000" stroke-width="0.25mm" fill="none" style="stroke:#000;stroke-width:0.25mm;fill:none"><path d="M 407.922 0 L 406.847 0.107 L 405.77 0.215 L 404.689 0.322 L 403.606 0.429 L 402.519 0.535 L 401.43 0.641 L 400.337 0.748 L 399.607 0.818 L 398.51 0.924 L 397.409 1.03 L 396.305 1.135 L 395.198 1.24 L 394.088 1.345 L 393.346 1.414 L 392.231 1.519 L 391.112 1.623 L 389.991 1.727 L 388.866 1.831 L 388.114 1.9 L 386.984 2.003 L 385.85 2.106 L 384.713 2.209 L 383.573 2.311 L 382.811 2.379 L 381.665 2.481 L 380.516 2.583 L 379.364 2.684 L 378.594 2.752 L 377.436 2.853 L 376.275 2.954 L 375.499 3.021 L 374.332 3.121 L 373.161 3.221 L 372.379 3.287 L 371.203 3.387 L 370.024 3.486 L 369.235 3.552 L 368.05 3.651 L 366.861 3.749 L 366.066 3.814 L 364.871 3.912 L 363.673 4.01 L 362.872 4.075 L 361.668 4.172 L 360.863 4.236 L 359.652 4.333 L 358.438 4.429 L 357.627 4.493 L 356.407 4.589 L 355.592 4.652 L 354.365 4.747 L 353.546 4.811 L 352.313 4.905 L 351.077 4.999 L 350.251 5.062 L 349.009 5.156 L 348.179 5.218 L 346.93 5.311 L 346.095 5.373 L 344.841 5.466 L 344.002 5.527 L 342.741 5.619 L 341.897 5.68 L 340.63 5.772 L 339.782 5.832 L 338.508 5.923 L 337.657 5.983 L 336.376 6.074 L 335.52 6.133 L 334.662 6.193 L 333.372 6.283 L 332.51 6.342 L 331.214 6.431 L 330.347 6.489 L 329.044 6.578 L 328.173 6.636 L 327.3 6.694 L 325.988 6.782 L 325.111 6.839 L 324.231 6.897 L 322.909 6.983 L 322.026 7.041 L 320.697 7.126 L 319.809 7.183 L 318.919 7.24 L 317.58 7.325 L 316.686 7.381 L 315.789 7.437 L 314.441 7.521 L 313.54 7.576 L 312.637 7.632 L 311.279 7.714 L 310.371 7.769 L 309.462 7.824 L 308.094 7.906 L 307.18 7.96 L 306.263 8.014 L 305.345 8.068 L 303.965 8.149 L 303.042 8.202 L 302.117 8.256 L 301.19 8.309 L 299.796 8.388 L 298.865 8.441 L 297.931 8.493 L 296.996 8.545 L 295.589 8.623 L 294.649 8.675 L 293.706 8.726 L 292.762 8.778 L 291.342 8.854 L 290.393 8.905 L 289.442 8.956 L 288.488 9.006 L 287.533 9.056 L 286.097 9.131 L 285.136 9.181 L 284.174 9.231 L 283.21 9.28 L 282.244 9.329 L 281.276 9.378 L 279.819 9.451 L 278.846 9.499 L 277.871 9.547 L 276.893 9.595 L 275.914 9.643 L 274.932 9.691 L 273.948 9.738 L 272.469 9.809 L 271.48 9.855 L 270.49 9.902 L 269.497 9.948 L 268.502 9.994 L 267.504 10.04 L 266.505 10.086 L 265.504 10.132 L 264.5 10.177 L 263.495 10.222 L 261.983 10.289 L 260.972 10.334 L 259.959 10.378 L 258.944 10.422 L 257.927 10.466 L 256.907 10.509 L 255.886 10.553 L 254.862 10.596 L 253.836 10.639 L 252.808 10.681 L 251.778 10.724 L 250.746 10.766 L 249.711 10.808 L 248.675 10.85 L 247.636 10.891 L 246.595 10.933 L 245.552 10.974 L 244.506 11.015 L 243.458 11.055 L 242.409 11.096 L 241.357 11.136 L 240.302 11.176 L 239.246 11.215 L 238.187 11.255 L 237.126 11.294 L 236.063 11.333 L 234.998 11.372 L 233.93 11.41 L 232.86 11.448 L 231.788 11.486 L 230.713 11.524 L 229.637 11.561 L 228.558 11.599 L 227.477 11.636 L 226.393 11.672 L 225.307 11.709 L 224.763 11.727 L 223.674 11.763 L 222.583 11.799 L 221.489 11.835 L 220.393 11.87 L 219.294 11.905 L 218.194 11.94 L 217.091 11.975 L 215.985 12.009 L 214.877 12.043 L 214.323 12.06 L 213.212 12.094 L 212.098 12.128 L 210.982 12.161 L 209.864 12.194 L 208.743 12.227 L 207.62 12.259 L 206.495 12.291 L 205.931 12.307 L 204.803 12.339 L 203.671 12.371 L 202.538 12.402 L 201.402 12.433 L 200.263 12.464 L 199.123 12.494 L 198.551 12.509 L 197.407 12.539 L 196.26 12.569 L 195.111 12.599 L 193.959 12.628 L 193.383 12.643 L 192.227 12.672 L 191.07 12.7 L 189.91 12.729 L 188.747 12.757 L 188.165 12.771 L 186.999 12.798 L 185.83 12.826 L 184.659 12.853 L 183.485 12.88 L 182.898 12.893 L 181.72 12.92 L 180.541 12.946 L 179.359 12.972 L 178.174 12.997 L 177.581 13.01 L 176.392 13.035 L 175.201 13.06 L 174.008 13.085 L 173.41 13.097 L 172.213 13.121 L 171.014 13.145 L 169.812 13.169 L 169.21 13.181 L 168.004 13.204 L 166.795 13.227 L 166.19 13.238 L 164.978 13.261 L 163.763 13.283 L 162.546 13.305 L 161.936 13.316 L 160.715 13.337 L 159.491 13.358 L 158.879 13.369 L 157.651 13.39 L 156.421 13.41 L 155.188 13.431 L 154.571 13.441 L 153.335 13.46 L 152.096 13.48 L 151.475 13.489 L 150.232 13.509 L 148.987 13.527 L 148.363 13.537 L 147.113 13.555 L 145.861 13.573 L 145.234 13.582 L 143.978 13.599 L 142.72 13.617 L 142.09 13.625 L 140.827 13.642 L 139.562 13.659 L 138.928 13.667 L 137.659 13.683 L 136.388 13.699 L 135.751 13.706 L 134.475 13.722 L 133.197 13.737 L 132.557 13.744 L 131.274 13.759 L 130.632 13.766 L 129.346 13.78 L 128.057 13.794 L 127.411 13.801 L 126.118 13.814 L 124.823 13.827 L 124.174 13.833 L 122.874 13.846 L 122.223 13.852 L 120.92 13.864 L 119.613 13.876 L 118.959 13.882 L 117.649 13.893 L 116.992 13.899 L 115.678 13.909 L 114.361 13.92 L 113.701 13.925 L 112.38 13.935 L 111.718 13.94 L 110.392 13.95 L 109.064 13.959 L 108.399 13.964 L 107.067 13.972 L 106.4 13.977 L 105.063 13.985 L 104.394 13.989 L 103.053 13.997 L 102.382 14.001 L 101.037 14.008 L 99.69 14.015 L 99.015 14.019 L 97.664 14.025 L 96.987 14.028 L 95.631 14.034 L 94.952 14.037 L 93.592 14.043 L 92.911 14.046 L 91.547 14.051 L 90.864 14.053 L 89.495 14.058 L 88.124 14.062 L 87.437 14.064 L 86.062 14.068 L 85.373 14.07 L 83.993 14.073 L 83.303 14.074 L 81.919 14.077 L 81.226 14.079 L 79.838 14.081 L 79.142 14.082 L 77.75 14.084 L 77.053 14.084 L 75.656 14.086 L 74.957 14.086 L 73.556 14.087 L 72.854 14.087 L 71.449 14.088 L 70.745 14.088 L 69.335 14.087 L 68.63 14.087 L 67.216 14.087 L 66.508 14.086 L 65.089 14.085 L 64.379 14.084 L 63.668 14.083 L 62.244 14.081 L 61.531 14.08 L 60.103 14.078 L 59.388 14.077 L 57.955 14.074 L 57.237 14.072 L 55.8 14.069 L 55.081 14.067 L 53.639 14.063 L 52.917 14.061 L 51.471 14.056 L 50.747 14.054 L 50.023 14.051 L 48.571 14.046 L 47.844 14.043 L 46.388 14.038 L 45.658 14.035 L 44.198 14.029 L 43.466 14.025 L 42.734 14.022 L 41.268 14.015 L 40.533 14.012 L 39.062 14.004 L 38.326 14 L 36.85 13.992 L 36.111 13.988 L 35.372 13.984 L 33.89 13.975 L 33.149 13.971 L 31.663 13.962 L 30.918 13.957 L 30.174 13.952 L 28.682 13.942 L 27.935 13.937 L 26.438 13.926 L 25.689 13.921 L 24.939 13.916 L 23.436 13.904 L 22.684 13.899 L 21.177 13.887 L 20.422 13.881 L 19.667 13.875 L 18.154 13.862 L 17.396 13.856 L 15.878 13.843 L 15.118 13.836 L 14.358 13.83 L 12.834 13.816 L 12.071 13.809 L 11.307 13.802 L 9.777 13.787 L 9.011 13.78 L 7.477 13.765 L 6.708 13.757 L 5.939 13.75 L 4.398 13.734 L 3.627 13.726 L 2.855 13.718 L 1.308 13.701 L 0.533 13.693 L 0 62.831 L 0.775 62.837 L 2.322 62.85 L 3.094 62.856 L 3.866 62.861 L 5.407 62.873 L 6.176 62.879 L 6.945 62.884 L 8.48 62.895 L 9.247 62.9 L 10.778 62.911 L 11.542 62.915 L 12.306 62.92 L 13.831 62.93 L 14.592 62.935 L 15.353 62.939 L 16.872 62.948 L 17.631 62.952 L 19.056 62.959 L 19.902 62.964 L 20.658 62.968 L 22.167 62.976 L 22.921 62.979 L 24.336 62.985 L 25.177 62.99 L 25.928 62.993 L 27.338 62.998 L 28.175 63.002 L 29.581 63.007 L 30.416 63.011 L 31.162 63.013 L 32.562 63.018 L 33.395 63.021 L 34.791 63.024 L 35.621 63.027 L 36.361 63.029 L 37.752 63.032 L 38.579 63.035 L 39.966 63.037 L 40.702 63.039 L 42.173 63.042 L 42.907 63.043 L 43.729 63.045 L 45.106 63.046 L 45.838 63.047 L 47.298 63.048 L 48.028 63.049 L 49.485 63.05 L 50.212 63.05 L 50.938 63.05 L 52.39 63.051 L 53.114 63.051 L 54.561 63.05 L 55.283 63.05 L 56.726 63.049 L 57.446 63.049 L 58.798 63.046 L 59.603 63.046 L 60.951 63.044 L 61.754 63.043 L 63.097 63.04 L 63.811 63.039 L 64.611 63.038 L 65.95 63.034 L 66.747 63.034 L 68.082 63.029 L 68.877 63.028 L 70.208 63.023 L 70.915 63.021 L 72.327 63.016 L 73.033 63.014 L 74.441 63.009 L 75.144 63.006 L 76.548 63 L 77.25 62.997 L 78.564 62.99 L 79.349 62.988 L 80.66 62.98 L 81.442 62.978 L 82.749 62.97 L 83.529 62.967 L 84.832 62.958 L 85.525 62.954 L 86.909 62.946 L 87.6 62.942 L 88.98 62.933 L 90.273 62.923 L 91.045 62.919 L 92.334 62.909 L 93.104 62.905 L 94.389 62.894 L 95.157 62.889 L 96.438 62.878 L 97.12 62.873 L 98.482 62.861 L 99.161 62.856 L 100.519 62.844 L 101.79 62.831 L 102.55 62.826 L 103.817 62.813 L 104.575 62.807 L 105.839 62.794 L 106.595 62.788 L 107.854 62.774 L 108.608 62.767 L 109.864 62.753 L 111.2 62.738 L 111.868 62.731 L 113.117 62.716 L 113.866 62.709 L 115.112 62.693 L 116.438 62.677 L 117.1 62.669 L 118.422 62.653 L 119.082 62.645 L 120.401 62.628 L 121.634 62.611 L 122.374 62.603 L 123.603 62.585 L 124.341 62.577 L 125.566 62.558 L 126.872 62.54 L 127.524 62.531 L 128.826 62.512 L 130.043 62.492 L 130.774 62.483 L 131.987 62.463 L 132.716 62.454 L 133.926 62.433 L 135.215 62.413 L 135.859 62.403 L 137.144 62.382 L 138.345 62.36 L 139.067 62.35 L 140.265 62.328 L 141.542 62.306 L 142.179 62.295 L 143.452 62.272 L 144.642 62.249 L 145.357 62.238 L 146.543 62.215 L 147.807 62.191 L 148.519 62.179 L 149.699 62.155 L 150.957 62.131 L 151.585 62.118 L 152.839 62.094 L 154.01 62.068 L 154.716 62.056 L 155.884 62.03 L 157.13 62.004 L 158.293 61.977 L 158.994 61.964 L 160.154 61.937 L 161.391 61.91 L 162.008 61.897 L 163.242 61.869 L 164.473 61.842 L 165.622 61.813 L 166.315 61.799 L 167.461 61.77 L 168.684 61.742 L 169.294 61.727 L 170.514 61.698 L 171.651 61.668 L 172.865 61.638 L 173.551 61.623 L 174.683 61.592 L 175.891 61.562 L 177.018 61.53 L 177.699 61.515 L 178.823 61.483 L 180.023 61.452 L 181.221 61.419 L 182.338 61.387 L 183.013 61.371 L 184.127 61.338 L 185.317 61.305 L 186.426 61.271 L 187.611 61.237 L 188.28 61.22 L 189.384 61.186 L 190.563 61.152 L 191.662 61.117 L 192.836 61.082 L 193.501 61.064 L 194.594 61.028 L 195.763 60.993 L 196.852 60.957 L 198.016 60.92 L 198.597 60.902 L 199.758 60.865 L 200.917 60.828 L 201.996 60.79 L 203.15 60.753 L 204.301 60.714 L 205.374 60.676 L 206.024 60.657 L 207.094 60.618 L 208.237 60.579 L 209.379 60.54 L 210.442 60.5 L 211.579 60.46 L 212.638 60.42 L 213.77 60.38 L 214.411 60.359 L 215.465 60.318 L 216.591 60.277 L 217.716 60.235 L 218.763 60.194 L 219.884 60.152 L 220.926 60.11 L 222.042 60.067 L 223.156 60.024 L 224.192 59.981 L 224.822 59.959 L 225.93 59.915 L 226.961 59.872 L 228.065 59.827 L 229.167 59.783 L 230.192 59.739 L 231.289 59.693 L 232.385 59.648 L 233.403 59.603 L 234.494 59.557 L 235.583 59.511 L 236.595 59.465 L 237.68 59.418 L 238.762 59.371 L 239.768 59.324 L 240.846 59.277 L 241.923 59.229 L 242.923 59.181 L 243.994 59.133 L 245.064 59.084 L 246.058 59.036 L 247.124 58.986 L 248.187 58.937 L 249.175 58.888 L 250.234 58.838 L 251.292 58.787 L 252.274 58.738 L 253.327 58.687 L 254.378 58.635 L 255.354 58.585 L 256.401 58.533 L 257.446 58.481 L 258.416 58.43 L 259.456 58.377 L 260.495 58.325 L 261.532 58.272 L 262.939 58.194 L 263.97 58.14 L 265 58.086 L 265.955 58.033 L 266.981 57.978 L 268.004 57.924 L 269.026 57.868 L 269.974 57.814 L 270.991 57.759 L 272.007 57.703 L 273.384 57.621 L 274.394 57.565 L 275.403 57.508 L 276.41 57.451 L 277.343 57.395 L 278.346 57.338 L 279.347 57.28 L 280.774 57.194 L 281.699 57.137 L 282.693 57.079 L 283.685 57.02 L 284.675 56.961 L 285.593 56.903 L 287.001 56.815 L 287.984 56.755 L 288.966 56.694 L 289.876 56.635 L 290.853 56.575 L 292.246 56.485 L 293.22 56.423 L 294.121 56.363 L 295.09 56.301 L 296.471 56.21 L 297.435 56.147 L 298.398 56.084 L 299.29 56.023 L 300.658 55.93 L 301.614 55.866 L 302.568 55.803 L 303.521 55.739 L 304.808 55.646 L 305.756 55.581 L 306.702 55.516 L 307.647 55.451 L 308.922 55.356 L 309.862 55.291 L 310.8 55.225 L 312.134 55.127 L 313.068 55.061 L 314 54.994 L 315.257 54.897 L 316.184 54.83 L 317.11 54.763 L 318.427 54.663 L 319.348 54.595 L 320.2 54.528 L 321.507 54.427 L 322.422 54.358 L 323.723 54.257 L 324.634 54.187 L 325.543 54.117 L 326.768 54.017 L 327.672 53.947 L 328.575 53.876 L 329.859 53.772 L 330.758 53.701 L 332.035 53.596 L 332.93 53.524 L 334.134 53.421 L 335.024 53.349 L 335.913 53.277 L 337.175 53.17 L 338.059 53.097 L 339.316 52.99 L 340.197 52.916 L 341.381 52.811 L 342.257 52.737 L 343.501 52.628 L 344.373 52.553 L 345.612 52.443 L 346.48 52.368 L 347.712 52.258 L 348.576 52.182 L 349.803 52.071 L 350.598 51.998 L 351.819 51.886 L 353.036 51.774 L 353.89 51.697 L 355.101 51.584 L 355.951 51.506 L 357.156 51.392 L 358.002 51.314 L 359.202 51.2 L 360.399 51.085 L 361.239 51.006 L 362.366 50.894 L 363.201 50.814 L 364.387 50.698 L 365.569 50.581 L 366.399 50.501 L 367.576 50.384 L 368.749 50.266 L 369.573 50.185 L 370.741 50.067 L 371.905 49.948 L 372.723 49.866 L 373.883 49.747 L 375.038 49.627 L 375.85 49.544 L 377.001 49.424 L 378.148 49.303 L 378.954 49.219 L 380.097 49.098 L 381.236 48.976 L 382.372 48.853 L 383.17 48.769 L 384.301 48.646 L 385.43 48.523 L 386.493 48.403 L 387.614 48.279 L 388.402 48.193 L 389.519 48.068 L 390.633 47.943 L 391.744 47.818 L 392.85 47.692 L 393.691 47.601 L 394.794 47.474 L 395.894 47.348 L 396.991 47.22 L 398.085 47.093 L 399.176 46.965 L 399.943 46.877 L 401.029 46.748 L 402.113 46.619 L 403.194 46.49 L 404.271 46.361 L 405.347 46.231 L 406.419 46.101 L 407.488 45.97 L 407.492 45.534 L 407.495 45.098 L 407.499 44.662 L 407.503 44.224 L 407.507 43.787 L 407.51 43.349 L 407.514 42.91 L 407.518 42.471 L 407.522 42.032 L 407.525 41.592 L 407.529 41.151 L 407.533 40.71 L 407.537 40.269 L 407.541 39.827 L 407.545 39.384 L 407.549 38.941 L 407.552 38.498 L 407.556 38.054 L 407.564 37.235 L 411.251 37.919 L 411.324 29.765 L 407.625 30.382 L 403.927 30.999 L 404.014 21.675 L 407.7 22.361 L 411.387 23.047 L 411.471 14.379 L 407.772 14.995 L 404.072 15.61 L 404.161 6.692 L 407.847 7.38 L 407.849 7.206 L 407.854 6.729 L 407.858 6.252 L 407.863 5.774 L 407.868 5.295 L 407.873 4.816 L 407.878 4.337 L 407.883 3.857 L 407.887 3.377 L 407.892 2.896 L 407.897 2.414 L 407.902 1.932 L 407.907 1.45 L 407.912 0.967 L 407.917 0.484 L 407.922 0 Z" vector-effect="non-scaling-stroke"/><path d="M 0 62.831 L 0.005 62.37 L 0.01 61.908 L 0.015 61.445 L 0.02 60.982 L 0.025 60.518 L 0.03 60.054 L 0.035 59.589 L 0.04 59.123 L 0.045 58.657 L 0.05 58.191 L 0.055 57.723 L 0.06 57.255 L 0.065 56.787 L 0.07 56.317 L 0.076 55.848 L 0.081 55.377 L 0.086 54.906 L 0.091 54.435 L 0.096 53.962 L 0.101 53.49 L 0.106 53.016 L 0.111 52.542 L 0.116 52.067 L 0.122 51.592 L 0.127 51.116 L 0.132 50.64 L 0.137 50.163 L 0.142 49.685 L 0.147 49.207 L 0.153 48.728 L 0.158 48.248 L 0.163 47.768 L 0.168 47.288 L 0.174 46.806 L 0.179 46.324 L 0.184 45.842 L 0.189 45.359 L 0.194 44.875 L 0.2 44.391 L 0.205 43.906 L 0.21 43.42 L 0.216 42.934 L 0.221 42.447 L 0.226 41.96 L 0.231 41.472 L 0.237 40.983 L 0.242 40.494 L 0.247 40.004 L 0.253 39.514 L 0.258 39.023 L 0.263 38.531 L 0.269 38.039 L 0.274 37.546 L 0.279 37.053 L 0.285 36.558 L 0.29 36.064 L 0.296 35.568 L 0.301 35.073 L 0.306 34.576 L 0.312 34.079 L 0.317 33.581 L 0.323 33.083 L 0.328 32.584 L 0.333 32.084 L 0.339 31.584 L 0.344 31.083 L 0.35 30.582 L 0.355 30.08 L 0.361 29.577 L 0.366 29.074 L 0.372 28.57 L 0.377 28.066 L 0.383 27.561 L 0.388 27.055 L 0.394 26.549 L 0.399 26.042 L 0.405 25.534 L 0.41 25.026 L 0.416 24.518 L 0.421 24.008 L 0.427 23.498 L 0.432 22.988 L 0.438 22.477 L 0.443 21.965 L 0.449 21.452 L 0.454 20.939 L 0.46 20.426 L 0.466 19.912 L 0.471 19.397 L 0.477 18.881 L 0.482 18.365 L 0.488 17.848 L 0.494 17.331 L 0.499 16.813 L 0.505 16.295 L 0.511 15.776 L 0.516 15.256 L 0.522 14.736 L 0.528 14.215 L 0.533 13.693 M 258.416 58.43 L 258.421 57.978 L 258.425 57.525 L 258.43 57.071 L 258.435 56.617 L 258.44 56.162 L 258.445 55.707 L 258.45 55.251 L 258.455 54.795 L 258.46 54.338 L 258.465 53.881 L 258.47 53.423 L 258.475 52.964 L 258.48 52.505 L 258.485 52.045 L 258.489 51.585 L 258.494 51.124 L 258.499 50.663 L 258.504 50.201 L 258.51 49.739 L 258.515 49.276 L 258.52 48.812 L 258.525 48.348 L 258.53 47.884 L 258.535 47.418 L 258.54 46.952 L 258.545 46.486 L 258.55 46.019 L 258.555 45.552 L 258.56 45.084 L 258.565 44.615 L 258.57 44.146 L 258.576 43.676 L 258.581 43.206 L 258.586 42.735 L 258.591 42.264 L 258.596 41.792 L 258.601 41.32 L 258.606 40.846 L 258.612 40.373 L 258.617 39.899 L 258.622 39.424 L 258.627 38.949 L 258.633 38.473 L 258.638 37.996 L 258.643 37.519 L 258.648 37.042 L 258.653 36.564 L 258.659 36.085 L 258.664 35.606 L 258.669 35.126 L 258.675 34.646 L 258.68 34.165 L 258.685 33.684 L 258.691 33.202 L 258.696 32.719 L 258.701 32.236 L 258.707 31.752 L 258.712 31.268 L 258.717 30.783 L 258.723 30.298 L 258.728 29.812 L 258.733 29.325 L 258.739 28.838 L 258.744 28.351 L 258.75 27.862 L 258.755 27.374 L 258.76 26.884 L 258.766 26.395 L 258.771 25.904 L 258.777 25.413 L 258.782 24.922 L 258.788 24.429 L 258.793 23.937 L 258.799 23.444 L 258.804 22.95 L 258.81 22.455 L 258.815 21.96 L 258.821 21.465 L 258.826 20.969 L 258.832 20.472 L 258.837 19.975 L 258.843 19.477 L 258.848 18.979 L 258.854 18.48 L 258.859 17.981 L 258.865 17.481 L 258.871 16.98 L 258.876 16.479 L 258.882 15.978 L 258.887 15.475 L 258.893 14.972 L 258.899 14.469 L 258.904 13.965 L 258.91 13.461 L 258.915 12.956 L 258.921 12.45 L 258.927 11.944 L 258.932 11.437 L 258.938 10.93 L 258.944 10.422" id="blue" stroke="blue" style="stroke:blue" vector-effect="non-scaling-stroke"/><g id="captions"><text alignment-baseline="middle" text-anchor="middle" transform="rotate(0,203.411,36.562)" x="203.411" y="36.562">LEE, 3, 0</text></g></g></svg>