<svg width="894.108" height="883.66" viewBox="0 0 894.108 883.66" xmlns="http://www.w3.org/2000/svg"><g id="svgGroup" stroke-linecap="round" fill-rule="evenodd" font-size="9pt" stroke="#000" stroke-width="0.25mm" fill="none" style="stroke:#000;stroke-width:0.25mm;fill:none"><path d="M 875.955 0 L 870.573 0.667 L 865.192 1.337 L 859.812 2.009 L 854.434 2.683 L 849.056 3.36 L 843.678 4.04 L 838.302 4.722 L 832.925 5.406 L 827.549 6.092 L 822.172 6.781 L 818.139 7.299 L 812.762 7.992 L 807.384 8.687 L 802.005 9.384 L 796.625 10.083 L 791.244 10.785 L 785.861 11.488 L 780.477 12.194 L 775.091 12.901 L 769.703 13.611 L 764.313 14.323 L 758.92 15.036 L 753.525 15.752 L 748.127 16.469 L 742.725 17.188 L 737.321 17.909 L 733.266 18.451 L 727.855 19.175 L 722.441 19.901 L 717.023 20.628 L 711.601 21.358 L 706.175 22.088 L 700.744 22.821 L 695.308 23.555 L 689.868 24.29 L 684.422 25.027 L 680.335 25.581 L 674.88 26.321 L 669.419 27.062 L 663.953 27.804 L 658.481 28.548 L 653.002 29.294 L 647.517 30.04 L 643.399 30.601 L 637.903 31.35 L 632.399 32.099 L 626.889 32.851 L 621.371 33.603 L 615.846 34.356 L 611.696 34.922 L 606.157 35.678 L 600.61 36.434 L 595.055 37.191 L 589.492 37.95 L 585.313 38.519 L 579.734 39.279 L 574.146 40.04 L 568.549 40.802 L 562.943 41.565 L 558.732 42.137 L 553.109 42.901 L 547.476 43.666 L 541.833 44.432 L 537.594 45.006 L 531.932 45.773 L 526.261 46.54 L 522 47.116 L 516.309 47.885 L 510.607 48.654 L 506.323 49.231 L 500.601 50 L 494.867 50.771 L 490.559 51.349 L 484.804 52.12 L 479.038 52.891 L 474.704 53.47 L 468.916 54.242 L 463.114 55.014 L 458.755 55.594 L 452.931 56.367 L 447.093 57.14 L 442.706 57.719 L 436.845 58.493 L 432.44 59.073 L 426.555 59.846 L 422.132 60.426 L 416.221 61.2 L 410.297 61.973 L 405.843 62.554 L 399.893 63.327 L 395.42 63.907 L 389.443 64.681 L 384.95 65.26 L 378.946 66.034 L 374.433 66.613 L 368.401 67.386 L 363.867 67.966 L 357.807 68.738 L 353.251 69.317 L 347.163 70.089 L 342.585 70.668 L 337.998 71.246 L 331.867 72.017 L 327.258 72.595 L 321.097 73.365 L 316.465 73.943 L 310.273 74.712 L 305.617 75.289 L 300.952 75.865 L 294.715 76.633 L 290.025 77.208 L 285.325 77.784 L 279.042 78.55 L 274.317 79.124 L 269.582 79.698 L 263.251 80.463 L 258.49 81.036 L 253.719 81.609 L 247.34 82.371 L 242.542 82.943 L 237.734 83.514 L 232.914 84.084 L 226.469 84.844 L 221.623 85.413 L 216.764 85.982 L 211.895 86.55 L 205.383 87.307 L 200.486 87.874 L 195.576 88.44 L 190.655 89.006 L 185.722 89.571 L 179.125 90.323 L 174.163 90.886 L 169.189 91.449 L 164.202 92.011 L 159.203 92.573 L 154.191 93.134 L 147.489 93.88 L 142.447 94.439 L 137.393 94.997 L 132.326 95.555 L 127.245 96.112 L 122.152 96.668 L 117.045 97.223 L 111.925 97.777 L 106.792 98.331 L 101.645 98.884 L 96.485 99.435 L 91.311 99.986 L 86.123 100.536 L 80.922 101.086 L 75.707 101.634 L 70.478 102.181 L 65.235 102.728 L 59.978 103.273 L 54.706 103.818 L 49.421 104.361 L 44.121 104.904 L 38.807 105.446 L 33.478 105.986 L 28.135 106.526 L 22.777 107.064 L 22.752 109.484 L 22.727 111.9 L 22.703 114.315 L 22.678 116.726 L 22.654 119.136 L 22.63 121.543 L 22.605 123.947 L 22.581 126.349 L 22.557 128.749 L 22.533 131.146 L 22.509 133.541 L 22.485 135.933 L 22.461 138.323 L 22.437 140.71 L 22.413 143.095 L 22.404 143.962 L 3.84 141.332 L 3.416 184.304 L 22.029 182.039 L 40.641 179.77 L 40.242 221.493 L 21.676 218.868 L 3.11 216.248 L 2.692 261.252 L 21.304 258.977 L 39.915 256.696 L 39.564 295.852 L 20.997 293.239 L 20.961 297.334 L 20.942 299.554 L 20.922 301.771 L 20.903 303.985 L 20.884 306.198 L 20.865 308.407 L 20.846 310.615 L 20.827 312.82 L 20.808 315.022 L 20.789 317.222 L 20.77 319.42 L 20.751 321.615 L 20.733 323.808 L 20.714 325.999 L 20.696 328.187 L 20.677 330.372 L 20.659 332.556 L 20.641 334.736 L 20.622 336.915 L 20.611 336.914 L 20.557 343.435 L 20.503 349.934 L 20.451 356.411 L 20.399 362.867 L 20.347 369.3 L 20.297 375.713 L 20.247 382.103 L 20.197 388.472 L 20.149 394.819 L 20.101 401.144 L 20.053 407.448 L 20.007 413.73 L 19.961 419.991 L 19.89 429.672 L 1.318 427.096 L 1.033 468.455 L 19.639 466.136 L 38.243 463.806 L 37.991 503.616 L 19.417 501.05 L 0.842 498.498 L 0.558 548.426 L 19.161 546.085 L 37.763 543.729 L 37.583 580.202 L 19.006 577.664 L 0.426 575.139 L 0.235 621.193 L 18.834 618.823 L 37.432 616.435 L 37.29 660.418 L 18.709 657.911 L 0.125 655.423 L 0.033 697.348 L 18.628 694.941 L 37.22 692.514 L 37.177 732.392 L 18.59 729.924 L 0 727.478 L 0.002 765.324 L 18.591 762.876 L 37.177 760.402 L 37.242 805.845 L 18.649 803.424 L 18.654 805.39 L 18.666 810.156 L 18.678 814.901 L 18.692 819.626 L 18.706 824.331 L 18.722 829.015 L 18.738 833.68 L 18.755 838.324 L 18.774 842.948 L 18.793 847.551 L 18.813 852.135 L 18.834 856.699 L 18.857 861.242 L 18.88 865.766 L 18.904 870.269 L 18.929 874.753 L 18.955 879.216 L 18.982 883.66 L 24.254 882.154 L 29.514 880.638 L 34.764 879.11 L 40.002 877.571 L 45.23 876.022 L 50.446 874.461 L 55.652 872.889 L 60.466 871.305 L 67.194 869.61 L 72.363 868.003 L 77.522 866.385 L 82.671 864.754 L 87.808 863.112 L 92.935 861.459 L 98.051 859.793 L 103.156 858.115 L 108.251 856.425 L 112.954 854.723 L 119.538 852.902 L 124.598 851.175 L 129.647 849.435 L 134.686 847.682 L 139.715 845.917 L 144.965 844.138 L 150.672 842.135 L 155.287 840.33 L 161.755 838.401 L 166.728 836.57 L 171.69 834.725 L 176.873 832.865 L 182.509 830.778 L 187.441 828.891 L 191.982 826.991 L 198.346 824.961 L 203.473 823.031 L 209.051 820.87 L 213.928 818.911 L 218.418 816.939 L 224.934 814.832 L 230.467 812.609 L 235.3 810.591 L 240.124 808.557 L 244.841 806.509 L 251.69 804.1 L 256.48 802.019 L 261.485 799.922 L 266.943 797.585 L 271.334 795.457 L 277.692 793.187 L 283.117 790.799 L 287.846 788.619 L 292.471 786.424 L 299.18 783.856 L 303.877 781.625 L 308.782 779.376 L 313.786 776.881 L 320.013 774.468 L 325.357 771.935 L 330.218 769.613 L 335.188 767.042 L 341.137 764.553 L 345.963 762.174 L 351.26 759.544 L 355.768 757.127 L 362.295 754.324 L 367.078 751.866 L 371.994 749.154 L 378.035 746.521 L 383.276 743.766 L 387.727 741.226 L 394.163 738.292 L 398.879 735.707 L 403.754 732.863 L 409.69 730.098 L 415.074 727.207 L 419.93 724.293 L 425.814 721.458 L 430.978 718.495 L 435.348 715.75 L 441.651 712.6 L 446.268 709.804 L 451.324 706.741 L 457.584 703.513 L 462.169 700.64 L 467.205 697.497 L 473.423 694.187 L 477.724 691.234 L 484.086 687.866 L 489.17 684.611 L 493.448 681.574 L 499.764 678.117 L 504.544 674.773 L 510.137 671.503 L 515.118 668.097 L 521.207 664.515 L 525.665 661.292 L 530.632 657.789 L 536.681 654.107 L 540.888 650.785 L 547.061 647.032 L 552.009 643.389 L 558.003 639.565 L 562.181 636.099 L 568.291 632.198 L 573.222 628.403 L 579.302 624.423 L 584.052 620.548 L 589.361 616.738 L 594.279 612.779 L 600.298 608.629 L 605.21 604.58 L 611.075 600.34 L 615.186 596.453 L 621.145 592.117 L 626.049 587.877 L 631.98 583.44 L 636.881 579.097 L 642.674 574.554 L 646.75 570.357 L 652.472 565.702 L 658.33 560.987 L 663.223 556.357 L 669.055 551.519 L 673.949 546.761 L 679.661 541.792 L 683.701 537.153 L 689.352 532.044 L 695.115 526.859 L 700.009 521.74 L 705.63 516.399 L 711.354 510.975 L 716.251 505.604 L 721.952 500.003 L 726.855 494.446 L 732.342 488.652 L 737.119 483.01 L 742.027 477.141 L 747.578 471.021 L 753.204 464.782 L 758.122 458.551 L 763.65 452.053 L 769.169 445.414 L 774.75 438.625 L 779.684 431.808 L 785.183 424.69 L 790.735 417.392 L 795.688 410.024 L 801.17 402.321 L 806.643 394.391 L 812.158 386.215 L 817.096 377.889 L 821.544 369.397 L 826.992 360.331 L 832.432 350.904 L 837.898 341.074 L 842.921 330.895 L 848.354 320.085 L 853.782 308.673 L 859.205 296.555 L 864.642 283.593 L 869.738 269.69 L 875.163 254.389 L 875.163 251.979 L 875.163 249.567 L 875.164 247.152 L 875.164 244.734 L 875.165 242.313 L 875.166 239.89 L 875.167 237.464 L 875.168 235.035 L 875.169 232.604 L 875.17 230.17 L 875.172 227.733 L 875.174 225.293 L 875.176 222.851 L 875.178 220.406 L 875.18 217.959 L 875.183 215.509 L 875.185 213.056 L 875.188 210.6 L 875.191 208.141 L 875.194 205.68 L 875.197 203.216 L 875.203 199.306 L 893.787 201.789 L 893.868 159.749 L 875.274 162.16 L 856.677 164.555 L 856.8 121.295 L 875.383 123.795 L 893.963 126.31 L 894.108 87.005 L 875.509 89.384 L 856.909 91.748 L 857.114 46.124 L 875.692 48.655 L 875.696 47.795 L 875.71 45.163 L 875.723 42.528 L 875.736 39.891 L 875.75 37.25 L 875.763 34.607 L 875.777 31.962 L 875.791 29.313 L 875.805 26.662 L 875.82 24.008 L 875.834 21.351 L 875.849 18.692 L 875.863 16.03 L 875.878 13.365 L 875.893 10.697 L 875.909 8.027 L 875.924 5.354 L 875.939 2.678 L 875.955 0 Z" vector-effect="non-scaling-stroke"/><g id="captions"><text alignment-baseline="middle" text-anchor="middle" transform="rotate(0,446.681,383.472)" x="446.681" y="383.472">LEE, 2, 0</text></g></g></svg>