<svg width="178.772" height="176.732" viewBox="0 0 178.772 176.732" xmlns="http://www.w3.org/2000/svg"><g id="svgGroup" stroke-linecap="round" fill-rule="evenodd" font-size="9pt" stroke="#000" stroke-width="0.25mm" fill="none" style="stroke:#000;stroke-width:0.25mm;fill:none"><path d="M 175.166 0 L 174.09 0.133 L 173.013 0.267 L 171.938 0.402 L 170.862 0.537 L 169.786 0.672 L 168.711 0.808 L 167.635 0.944 L 166.56 1.081 L 165.485 1.218 L 164.41 1.356 L 163.603 1.46 L 162.528 1.598 L 161.452 1.737 L 160.376 1.877 L 159.3 2.017 L 158.224 2.157 L 157.147 2.298 L 156.071 2.439 L 154.993 2.58 L 153.916 2.722 L 152.838 2.865 L 151.759 3.007 L 150.68 3.15 L 149.6 3.294 L 148.52 3.438 L 147.439 3.582 L 146.628 3.69 L 145.546 3.835 L 144.463 3.98 L 143.38 4.126 L 142.295 4.272 L 141.21 4.418 L 140.124 4.564 L 139.037 4.711 L 137.949 4.858 L 136.86 5.005 L 136.042 5.116 L 134.951 5.264 L 133.859 5.412 L 132.766 5.561 L 131.671 5.71 L 130.576 5.859 L 129.479 6.008 L 128.655 6.12 L 127.556 6.27 L 126.455 6.42 L 125.353 6.57 L 124.249 6.721 L 123.144 6.871 L 122.314 6.984 L 121.207 7.136 L 120.097 7.287 L 118.986 7.438 L 117.873 7.59 L 117.038 7.704 L 115.922 7.856 L 114.804 8.008 L 113.685 8.16 L 112.564 8.313 L 111.722 8.427 L 110.597 8.58 L 109.47 8.733 L 108.342 8.886 L 107.494 9.001 L 106.362 9.155 L 105.227 9.308 L 104.375 9.423 L 103.237 9.577 L 102.096 9.731 L 101.24 9.846 L 100.095 10 L 98.949 10.154 L 98.087 10.27 L 96.936 10.424 L 95.783 10.578 L 94.916 10.694 L 93.758 10.848 L 92.598 11.003 L 91.726 11.119 L 90.561 11.273 L 89.394 11.428 L 88.516 11.544 L 87.344 11.699 L 86.463 11.815 L 85.286 11.969 L 84.401 12.085 L 83.219 12.24 L 82.034 12.395 L 81.144 12.511 L 79.954 12.665 L 79.059 12.781 L 77.864 12.936 L 76.965 13.052 L 75.764 13.207 L 74.862 13.323 L 73.655 13.477 L 72.748 13.593 L 71.536 13.748 L 70.625 13.863 L 69.408 14.018 L 68.492 14.134 L 67.575 14.249 L 66.349 14.403 L 65.427 14.519 L 64.195 14.673 L 63.268 14.789 L 62.03 14.942 L 61.099 15.058 L 60.165 15.173 L 58.918 15.327 L 57.98 15.442 L 57.04 15.557 L 55.783 15.71 L 54.839 15.825 L 53.891 15.94 L 52.625 16.093 L 51.673 16.207 L 50.719 16.322 L 49.443 16.474 L 48.484 16.589 L 47.522 16.703 L 46.558 16.817 L 45.269 16.969 L 44.3 17.083 L 43.328 17.196 L 42.354 17.31 L 41.052 17.461 L 40.072 17.575 L 39.09 17.688 L 38.106 17.801 L 37.119 17.914 L 35.8 18.065 L 34.808 18.177 L 33.813 18.29 L 32.816 18.402 L 31.816 18.515 L 30.813 18.627 L 29.473 18.776 L 28.465 18.888 L 27.454 18.999 L 26.44 19.111 L 25.424 19.222 L 24.405 19.334 L 23.384 19.445 L 22.36 19.555 L 21.333 19.666 L 20.304 19.777 L 19.272 19.887 L 18.237 19.997 L 17.2 20.107 L 16.16 20.217 L 15.117 20.327 L 14.071 20.436 L 13.022 20.546 L 11.971 20.655 L 10.916 20.764 L 9.859 20.872 L 8.799 20.981 L 7.736 21.089 L 6.671 21.197 L 5.602 21.305 L 4.53 21.413 L 4.526 21.897 L 4.521 22.38 L 4.516 22.863 L 4.511 23.345 L 4.506 23.827 L 4.501 24.309 L 4.496 24.789 L 4.491 25.27 L 4.486 25.75 L 4.482 26.229 L 4.477 26.708 L 4.472 27.187 L 4.467 27.665 L 4.462 28.142 L 4.458 28.619 L 4.456 28.792 L 0.77 28.105 L 0.682 37.023 L 4.381 36.408 L 8.08 35.792 L 7.997 44.46 L 4.31 43.774 L 0.624 43.088 L 0.537 52.412 L 4.236 51.795 L 7.935 51.177 L 7.862 59.332 L 4.175 58.648 L 4.167 59.467 L 4.163 59.911 L 4.16 60.354 L 4.156 60.797 L 4.152 61.24 L 4.148 61.681 L 4.144 62.123 L 4.14 62.564 L 4.137 63.004 L 4.133 63.444 L 4.129 63.884 L 4.125 64.323 L 4.122 64.762 L 4.118 65.2 L 4.114 65.637 L 4.111 66.074 L 4.107 66.511 L 4.103 66.947 L 4.1 67.383 L 4.097 67.383 L 4.086 68.687 L 4.076 69.987 L 4.065 71.282 L 4.055 72.573 L 4.045 73.86 L 4.034 75.143 L 4.024 76.421 L 4.015 77.694 L 4.005 78.964 L 3.995 80.229 L 3.986 81.49 L 3.976 82.746 L 3.967 83.998 L 3.953 85.934 L 0.265 85.258 L 0.205 93.853 L 3.903 93.227 L 7.6 92.599 L 7.547 100.885 L 3.859 100.21 L 0.169 99.538 L 0.111 109.847 L 3.807 109.217 L 7.504 108.584 L 7.466 116.202 L 3.776 115.533 L 0.086 114.866 L 0.046 124.4 L 3.742 123.765 L 7.437 123.125 L 7.408 132.245 L 3.717 131.582 L 0.025 130.923 L 0.006 139.631 L 3.701 138.988 L 7.394 138.341 L 7.385 146.64 L 3.693 145.985 L 0 145.334 L 0 153.227 L 3.693 152.575 L 7.385 151.919 L 7.399 161.331 L 3.705 160.685 L 3.706 161.078 L 3.708 162.031 L 3.711 162.98 L 3.713 163.925 L 3.716 164.866 L 3.719 165.803 L 3.723 166.736 L 3.726 167.665 L 3.73 168.59 L 3.734 169.51 L 3.738 170.427 L 3.742 171.34 L 3.746 172.248 L 3.751 173.153 L 3.756 174.054 L 3.761 174.951 L 3.766 175.843 L 3.772 176.732 L 4.826 176.431 L 5.878 176.128 L 6.928 175.822 L 7.976 175.514 L 9.021 175.204 L 10.064 174.892 L 11.105 174.578 L 12.068 174.261 L 13.414 173.922 L 14.448 173.601 L 15.48 173.277 L 16.509 172.951 L 17.537 172.622 L 18.562 172.292 L 19.585 171.959 L 20.606 171.623 L 21.625 171.285 L 22.566 170.945 L 23.883 170.58 L 24.895 170.235 L 25.905 169.887 L 26.912 169.536 L 27.918 169.183 L 28.968 168.828 L 30.11 168.427 L 31.033 168.066 L 32.326 167.68 L 33.321 167.314 L 34.313 166.945 L 35.35 166.573 L 36.477 166.156 L 37.463 165.778 L 38.372 165.398 L 39.644 164.992 L 40.67 164.606 L 41.785 164.174 L 42.761 163.782 L 43.659 163.388 L 44.962 162.966 L 46.068 162.522 L 47.035 162.118 L 48 161.711 L 48.943 161.302 L 50.313 160.82 L 51.271 160.404 L 52.272 159.984 L 53.364 159.517 L 54.242 159.091 L 55.514 158.637 L 56.599 158.16 L 57.544 157.724 L 58.469 157.285 L 59.811 156.771 L 60.751 156.325 L 61.732 155.875 L 62.732 155.376 L 63.978 154.894 L 65.047 154.387 L 66.019 153.923 L 67.013 153.408 L 68.202 152.911 L 69.168 152.435 L 70.227 151.909 L 71.129 151.425 L 72.434 150.865 L 73.391 150.373 L 74.374 149.831 L 75.582 149.304 L 76.63 148.753 L 77.521 148.245 L 78.808 147.658 L 79.751 147.141 L 80.726 146.573 L 81.913 146.02 L 82.99 145.441 L 83.961 144.859 L 85.138 144.292 L 86.171 143.699 L 87.045 143.15 L 88.305 142.52 L 89.229 141.961 L 90.24 141.348 L 91.492 140.703 L 92.409 140.128 L 93.416 139.499 L 94.66 138.837 L 95.52 138.247 L 96.792 137.573 L 97.809 136.922 L 98.665 136.315 L 99.928 135.623 L 100.884 134.955 L 102.003 134.301 L 102.999 133.619 L 104.217 132.903 L 105.108 132.258 L 106.101 131.558 L 107.311 130.821 L 108.153 130.157 L 109.387 129.406 L 110.377 128.678 L 111.576 127.913 L 112.411 127.22 L 113.633 126.44 L 114.62 125.681 L 115.836 124.885 L 116.785 124.11 L 117.847 123.348 L 118.831 122.556 L 120.035 121.726 L 121.017 120.916 L 122.19 120.068 L 123.012 119.291 L 124.204 118.423 L 125.185 117.575 L 126.371 116.688 L 127.351 115.819 L 128.51 114.911 L 129.325 114.071 L 130.47 113.14 L 131.641 112.197 L 132.62 111.271 L 133.786 110.304 L 134.765 109.352 L 135.907 108.358 L 136.715 107.431 L 137.845 106.409 L 138.998 105.372 L 139.977 104.348 L 141.101 103.28 L 142.246 102.195 L 143.225 101.121 L 144.365 100.001 L 145.346 98.889 L 146.443 97.73 L 147.399 96.602 L 148.38 95.428 L 149.491 94.204 L 150.616 92.956 L 151.6 91.71 L 152.705 90.411 L 153.809 89.083 L 154.925 87.725 L 155.912 86.362 L 157.012 84.938 L 158.122 83.478 L 159.113 82.005 L 160.209 80.464 L 161.304 78.878 L 162.407 77.243 L 163.394 75.578 L 164.284 73.879 L 165.373 72.066 L 166.462 70.181 L 167.555 68.215 L 168.559 66.179 L 169.646 64.017 L 170.732 61.735 L 171.816 59.311 L 172.904 56.719 L 173.923 53.938 L 175.008 50.878 L 175.008 50.396 L 175.008 49.913 L 175.008 49.43 L 175.008 48.947 L 175.008 48.463 L 175.008 47.978 L 175.008 47.493 L 175.009 47.007 L 175.009 46.521 L 175.009 46.034 L 175.01 45.547 L 175.01 45.059 L 175.01 44.57 L 175.011 44.081 L 175.011 43.592 L 175.012 43.102 L 175.012 42.611 L 175.013 42.12 L 175.013 41.628 L 175.014 41.136 L 175.015 40.643 L 175.016 39.861 L 178.707 40.52 L 178.724 31.788 L 175.03 32.432 L 171.335 33.073 L 171.361 24.097 L 175.052 24.759 L 178.742 25.424 L 178.772 17.239 L 175.077 17.877 L 171.381 18.511 L 171.423 9.063 L 175.114 9.731 L 175.114 9.559 L 175.117 9.033 L 175.12 8.506 L 175.122 7.978 L 175.125 7.45 L 175.128 6.921 L 175.131 6.392 L 175.133 5.863 L 175.136 5.332 L 175.139 4.802 L 175.142 4.27 L 175.145 3.738 L 175.148 3.206 L 175.151 2.673 L 175.154 2.139 L 175.157 1.605 L 175.16 1.071 L 175.163 0.536 L 175.166 0 Z" vector-effect="non-scaling-stroke"/><path d="M 114.62 125.681 L 114.612 124.679 L 114.604 123.675 L 114.597 122.667 L 114.59 121.655 L 114.583 120.64 L 114.576 119.621 L 114.57 118.599 L 114.564 117.573 L 114.557 116.544 L 114.552 115.511 L 114.546 114.475 L 114.54 113.435 L 114.535 112.392 L 114.53 111.345 L 114.525 110.295 L 114.521 109.241 L 114.516 108.184 L 114.512 107.123 L 114.508 106.059 L 114.504 104.991 L 114.5 103.92 L 114.497 102.845 L 114.493 101.767 L 114.49 100.685 L 114.488 99.599 L 114.485 98.51 L 114.482 97.418 L 114.48 96.322 L 114.478 95.222 L 114.476 94.119 L 114.474 93.012 L 114.473 91.902 L 114.472 90.788 L 114.47 89.671 L 114.47 88.55 L 114.469 87.426 L 114.468 86.298 L 114.468 85.166 L 114.468 84.031 L 114.468 82.893 L 114.468 81.75 L 114.468 80.605 L 114.469 79.455 L 114.47 78.302 L 114.471 77.146 L 114.472 75.986 L 114.473 74.822 L 114.475 73.655 L 114.477 72.484 L 114.479 71.31 L 114.481 70.132 L 114.483 68.951 L 114.486 67.766 L 114.488 66.577 L 114.491 65.385 L 114.494 64.189 L 114.497 62.99 L 114.501 61.787 L 114.504 60.58 L 114.508 59.37 L 114.512 58.156 L 114.516 56.939 L 114.521 55.718 L 114.525 54.494 L 114.53 53.266 L 114.535 52.034 L 114.54 50.799 L 114.545 49.56 L 114.55 48.317 L 114.556 47.071 L 114.562 45.821 L 114.568 44.568 L 114.574 43.311 L 114.58 42.051 L 114.587 40.787 L 114.593 39.519 L 114.6 38.248 L 114.607 36.973 L 114.614 35.694 L 114.622 34.412 L 114.629 33.126 L 114.637 31.837 L 114.645 30.544 L 114.653 29.247 L 114.661 27.947 L 114.669 26.643 L 114.678 25.335 L 114.687 24.024 L 114.696 22.71 L 114.705 21.391 L 114.714 20.069 L 114.723 18.744 L 114.733 17.414 L 114.743 16.082 L 114.752 14.745 L 114.763 13.405 L 114.773 12.061 L 114.783 10.714 L 114.794 9.363 L 114.804 8.008" id="blue" stroke="blue" style="stroke:blue" vector-effect="non-scaling-stroke"/><g id="captions"><text alignment-baseline="middle" text-anchor="middle" transform="rotate(0,89.311,76.694)" x="89.311" y="76.694">LEE, 2, 0</text></g></g></svg>