<svg width="580.839" height="225.362" viewBox="0 0 580.839 225.362" xmlns="http://www.w3.org/2000/svg"><g id="svgGroup" stroke-linecap="round" fill-rule="evenodd" font-size="9pt" stroke="#000" stroke-width="0.25mm" fill="none" style="stroke:#000;stroke-width:0.25mm;fill:none"><path d="M 576.732 0 L 575.647 0.828 L 574.711 1.633 L 573.525 2.456 L 572.436 3.275 L 571.346 4.091 L 570.256 4.904 L 569.328 5.693 L 568.135 6.501 L 567.044 7.306 L 565.952 8.108 L 565.003 8.861 L 564.163 9.635 L 562.962 10.428 L 561.867 11.218 L 560.771 12.005 L 559.853 12.768 L 558.645 13.551 L 557.547 14.329 L 556.631 15.083 L 555.418 15.858 L 554.318 16.628 L 553.216 17.396 L 552.303 18.139 L 551.082 18.903 L 549.977 19.662 L 549.066 20.396 L 547.967 21.105 L 546.95 21.856 L 546.04 22.582 L 544.806 23.33 L 543.897 24.05 L 542.66 24.792 L 541.545 25.531 L 540.636 26.243 L 539.392 26.978 L 538.272 27.709 L 537.491 28.366 L 536.33 29.092 L 535.422 29.791 L 534.166 30.513 L 533.258 31.207 L 531.998 31.924 L 530.867 32.637 L 530.08 33.275 L 528.906 33.984 L 527.997 34.665 L 526.724 35.37 L 525.814 36.045 L 524.536 36.745 L 523.743 37.368 L 522.558 38.062 L 521.646 38.727 L 520.358 39.418 L 519.445 40.078 L 518.263 40.717 L 517.452 41.371 L 516.154 42.052 L 515.238 42.702 L 513.934 43.379 L 513.13 43.977 L 511.922 44.647 L 511.003 45.288 L 509.688 45.955 L 508.879 46.544 L 507.662 47.205 L 506.739 47.836 L 505.778 48.42 L 504.554 49.074 L 503.628 49.698 L 502.4 50.303 L 501.58 50.92 L 500.239 51.567 L 499.417 52.135 L 498.442 52.748 L 497.093 53.389 L 496.266 53.95 L 495.019 54.584 L 494.082 55.187 L 493.097 55.744 L 491.842 56.372 L 490.901 56.968 L 489.911 57.519 L 488.648 58.14 L 487.808 58.683 L 486.817 59.272 L 485.539 59.842 L 484.701 60.424 L 483.593 61.008 L 482.307 61.572 L 481.463 62.147 L 480.455 62.679 L 479.167 63.281 L 478.311 63.805 L 477.304 64.374 L 475.999 64.926 L 475.146 65.488 L 474.124 66.008 L 472.819 66.597 L 471.952 67.11 L 470.934 67.667 L 469.903 68.178 L 468.691 68.714 L 467.826 69.261 L 466.789 69.767 L 465.761 70.314 L 464.422 70.845 L 463.55 71.384 L 462.504 71.882 L 461.572 72.375 L 460.231 72.941 L 459.341 73.43 L 458.402 73.918 L 457.357 74.448 L 455.994 74.964 L 455.21 75.443 L 454.158 75.968 L 453.092 76.449 L 452.141 76.926 L 450.773 77.474 L 449.864 77.946 L 448.906 78.417 L 447.946 78.887 L 446.879 79.399 L 445.486 79.897 L 444.681 80.357 L 443.712 80.819 L 442.635 81.323 L 441.545 81.785 L 440.254 82.272 L 439.438 82.722 L 438.459 83.176 L 437.369 83.671 L 436.268 84.124 L 435.282 84.573 L 434.294 85.019 L 432.982 85.494 L 432.151 85.933 L 431.047 86.417 L 429.931 86.86 L 428.932 87.299 L 427.93 87.735 L 426.926 88.17 L 425.92 88.604 L 424.585 89.065 L 423.735 89.49 L 422.722 89.919 L 421.707 90.346 L 420.689 90.771 L 419.669 91.195 L 418.647 91.617 L 417.622 92.037 L 416.596 92.456 L 415.567 92.874 L 414.203 93.319 L 413.329 93.728 L 412.293 94.141 L 411.254 94.552 L 410.213 94.962 L 409.17 95.37 L 408.124 95.777 L 407.076 96.182 L 406.026 96.585 L 404.974 96.987 L 403.919 97.388 L 402.861 97.787 L 401.802 98.185 L 400.74 98.581 L 399.675 98.976 L 398.608 99.369 L 397.617 99.722 L 396.705 100.107 L 395.631 100.496 L 394.555 100.884 L 393.477 101.27 L 392.396 101.654 L 391.064 102.029 L 390.279 102.401 L 389.19 102.781 L 388.099 103.16 L 387.006 103.538 L 385.992 103.876 L 385.053 104.246 L 384.417 104.586 L 383.04 104.967 L 381.935 105.338 L 380.914 105.671 L 379.961 106.033 L 378.849 106.4 L 377.734 106.766 L 376.706 107.093 L 375.742 107.45 L 374.62 107.812 L 373.586 108.136 L 372.615 108.489 L 371.486 108.847 L 370.446 109.167 L 369.467 109.516 L 368.331 109.87 L 367.285 110.187 L 366.298 110.532 L 365.155 110.882 L 364.103 111.195 L 363.109 111.537 L 361.957 111.884 L 360.9 112.193 L 360.371 112.497 L 359.042 112.814 L 358.035 113.15 L 356.872 113.49 L 355.806 113.794 L 354.79 114.126 L 353.721 114.428 L 352.7 114.758 L 351.626 115.057 L 350.6 115.384 L 349.42 115.717 L 348.814 115.978 L 347.519 116.312 L 346.437 116.607 L 345.397 116.928 L 344.312 117.22 L 343.267 117.539 L 342.177 117.829 L 341.127 118.146 L 340.033 118.433 L 339.457 118.714 L 338.099 119.01 L 337.037 119.322 L 335.938 119.606 L 334.871 119.916 L 333.767 120.198 L 332.808 120.472 L 332.216 120.745 L 330.848 121.034 L 329.767 121.339 L 328.655 121.615 L 327.57 121.918 L 326.454 122.193 L 325.48 122.46 L 324.871 122.725 L 323.493 123.008 L 322.514 123.272 L 321.413 123.569 L 320.286 123.838 L 319.179 124.132 L 318.527 124.364 L 317.29 124.635 L 316.175 124.926 L 315.04 125.191 L 314.045 125.448 L 313.407 125.701 L 312.015 125.974 L 311.014 126.228 L 309.883 126.513 L 308.737 126.772 L 307.73 127.024 L 307.077 127.272 L 305.677 127.539 L 304.663 127.788 L 303.648 128.035 L 302.985 128.279 L 301.58 128.543 L 300.559 128.789 L 299.536 129.033 L 298.375 129.308 L 297.69 129.522 L 296.424 129.775 L 295.393 130.016 L 294.221 130.288 L 293.05 130.533 L 292.494 130.737 L 291.219 130.986 L 290.036 131.254 L 288.858 131.496 L 288.294 131.697 L 287.014 131.942 L 285.965 132.176 L 284.769 132.439 L 284.062 132.643 L 282.777 132.885 L 281.72 133.116 L 280.661 133.345 L 280.083 133.539 L 278.639 133.809 L 277.444 134.042 L 276.377 134.269 L 275.789 134.46 L 274.491 134.696 L 273.419 134.92 L 272.344 135.143 L 271.602 135.361 L 270.161 135.6 L 269.08 135.821 L 268.478 136.007 L 267.171 136.238 L 266.085 136.457 L 264.996 136.675 L 264.389 136.858 L 263.074 137.085 L 261.98 137.301 L 261.21 137.511 L 259.759 137.743 L 258.659 137.957 L 257.556 138.17 L 256.933 138.348 L 255.61 138.57 L 254.502 138.781 L 253.873 138.957 L 252.546 139.177 L 251.432 139.386 L 250.798 139.56 L 249.467 139.778 L 248.347 139.985 L 247.707 140.157 L 246.371 140.373 L 245.246 140.578 L 244.6 140.748 L 243.26 140.962 L 242.129 141.164 L 241.477 141.332 L 240.133 141.544 L 238.997 141.745 L 238.338 141.911 L 236.991 142.121 L 235.848 142.32 L 235.183 142.484 L 233.832 142.692 L 232.684 142.889 L 232.013 143.051 L 230.658 143.257 L 229.504 143.452 L 228.826 143.613 L 227.468 143.817 L 226.308 144.01 L 225.623 144.168 L 224.261 144.371 L 223.241 144.536 L 222.713 144.685 L 221.344 144.885 L 220.173 145.074 L 219.48 145.23 L 218.107 145.428 L 217.408 145.582 L 216.035 145.779 L 214.854 145.966 L 214.147 146.118 L 212.928 146.288 L 211.894 146.464 L 211.185 146.615 L 209.802 146.809 L 209.087 146.958 L 207.703 147.151 L 206.507 147.332 L 205.784 147.48 L 204.562 147.646 L 203.986 147.784 L 202.596 147.974 L 201.39 148.153 L 200.659 148.298 L 199.265 148.486 L 198.054 148.663 L 197.449 148.783 L 196.235 148.96 L 195.494 149.102 L 194.093 149.287 L 193.346 149.428 L 192.121 149.588 L 191.04 149.753 L 190.289 149.893 L 188.882 150.075 L 188.125 150.214 L 186.898 150.371 L 185.805 150.533 L 185.045 150.671 L 183.63 150.85 L 182.863 150.987 L 181.635 151.141 L 181.003 151.268 L 179.585 151.446 L 178.339 151.613 L 177.562 151.747 L 176.332 151.898 L 175.688 152.023 L 174.263 152.198 L 173.477 152.33 L 172.248 152.48 L 171.121 152.636 L 170.331 152.766 L 168.901 152.939 L 168.269 153.046 L 167.004 153.208 L 166.205 153.336 L 164.972 153.482 L 164.3 153.603 L 162.863 153.772 L 161.587 153.931 L 160.949 154.035 L 159.67 154.194 L 158.858 154.319 L 157.621 154.462 L 156.934 154.579 L 155.487 154.745 L 154.665 154.869 L 153.43 155.01 L 152.73 155.125 L 151.28 155.289 L 150.632 155.389 L 149.336 155.543 L 148.502 155.664 L 147.266 155.802 L 146.084 155.948 L 145.246 156.068 L 144.005 156.204 L 143.286 156.317 L 141.823 156.476 L 141.168 156.572 L 139.855 156.722 L 139.004 156.84 L 137.763 156.974 L 137.028 157.084 L 135.558 157.241 L 134.897 157.334 L 133.573 157.482 L 132.709 157.597 L 131.47 157.728 L 130.717 157.835 L 129.474 157.966 L 128.719 158.073 L 127.24 158.226 L 126.572 158.317 L 125.234 158.461 L 124.353 158.573 L 123.112 158.701 L 122.339 158.805 L 121.095 158.932 L 120.32 159.036 L 118.831 159.186 L 118.156 159.274 L 116.803 159.415 L 116.126 159.501 L 114.77 159.642 L 113.87 159.75 L 112.626 159.873 L 111.829 159.975 L 111.015 160.068 L 109.65 160.206 L 108.737 160.312 L 107.498 160.434 L 106.682 160.533 L 105.441 160.654 L 104.623 160.753 L 103.378 160.873 L 102.558 160.971 L 101.311 161.09 L 100.487 161.188 L 98.977 161.33 L 98.285 161.411 L 96.898 161.545 L 96.204 161.625 L 95.267 161.726 L 94.024 161.843 L 93.178 161.938 L 91.932 162.054 L 91.084 162.149 L 89.836 162.263 L 88.984 162.358 L 87.462 162.495 L 86.76 162.572 L 85.354 162.702 L 84.65 162.779 L 83.689 162.877 L 82.446 162.989 L 81.571 163.081 L 80.325 163.192 L 79.447 163.284 L 78.2 163.394 L 77.318 163.485 L 76.496 163.566 L 75.073 163.692 L 74.36 163.765 L 72.933 163.891 L 72.219 163.964 L 70.788 164.089 L 70.072 164.161 L 69.083 164.254 L 67.839 164.361 L 66.928 164.449 L 65.682 164.555 L 64.767 164.643 L 63.519 164.748 L 62.878 164.813 L 61.878 164.905 L 60.628 165.009 L 59.704 165.095 L 58.453 165.199 L 57.525 165.285 L 56.698 165.359 L 55.241 165.479 L 54.512 165.546 L 53.052 165.666 L 52.321 165.732 L 50.858 165.851 L 50.125 165.917 L 49.392 165.983 L 47.923 166.101 L 47.188 166.166 L 45.716 166.284 L 44.979 166.348 L 43.942 166.435 L 42.694 166.533 L 42.025 166.593 L 40.545 166.709 L 39.803 166.772 L 38.758 166.857 L 37.507 166.954 L 36.527 167.034 L 35.695 167.102 L 34.53 167.192 L 33.543 167.272 L 32.29 167.367 L 31.299 167.446 L 30.466 167.512 L 29.296 167.601 L 28.298 167.679 L 27.043 167.773 L 26.041 167.851 L 25.206 167.915 L 24.031 168.002 L 23.023 168.08 L 22.186 168.143 L 20.673 168.254 L 19.915 168.312 L 18.737 168.397 L 17.718 168.474 L 16.879 168.536 L 15.357 168.645 L 14.595 168.701 L 13.833 168.757 L 12.306 168.865 L 11.541 168.921 L 10.776 168.976 L 9.245 169.084 L 8.477 169.138 L 6.942 169.245 L 6.173 169.3 L 5.403 169.353 L 3.863 169.46 L 3.091 169.513 L 2.32 169.566 L 0.774 169.671 L 0 169.724 L 3.602 225.362 L 4.375 225.31 L 5.919 225.206 L 6.69 225.153 L 7.461 225.101 L 9.001 224.996 L 9.771 224.943 L 10.539 224.89 L 12.075 224.785 L 12.842 224.731 L 14.375 224.626 L 15.14 224.572 L 15.905 224.518 L 17.434 224.412 L 18.197 224.358 L 18.96 224.303 L 20.484 224.197 L 21.246 224.142 L 22.195 224.074 L 23.526 223.98 L 24.285 223.925 L 25.802 223.818 L 26.56 223.762 L 27.504 223.693 L 28.829 223.599 L 29.585 223.543 L 30.526 223.473 L 31.848 223.379 L 32.787 223.308 L 34.106 223.214 L 34.858 223.157 L 35.795 223.086 L 37.11 222.991 L 38.045 222.919 L 39.357 222.824 L 40.105 222.766 L 41.037 222.694 L 42.346 222.598 L 43.276 222.526 L 44.021 222.468 L 45.511 222.357 L 46.254 222.298 L 47.557 222.201 L 48.482 222.129 L 49.224 222.069 L 50.705 221.958 L 51.445 221.898 L 52.924 221.787 L 53.662 221.726 L 54.4 221.666 L 55.874 221.554 L 56.611 221.493 L 58.082 221.381 L 58.817 221.319 L 60.285 221.207 L 61.018 221.145 L 61.93 221.069 L 63.215 220.97 L 64.125 220.894 L 65.407 220.794 L 66.315 220.718 L 67.044 220.655 L 68.322 220.555 L 69.227 220.478 L 70.503 220.377 L 71.406 220.299 L 72.679 220.198 L 73.581 220.12 L 74.304 220.056 L 75.75 219.941 L 76.472 219.876 L 77.915 219.76 L 78.636 219.695 L 80.076 219.578 L 80.794 219.513 L 81.688 219.433 L 82.948 219.33 L 83.841 219.25 L 85.098 219.147 L 85.988 219.066 L 87.243 218.963 L 88.131 218.881 L 88.844 218.814 L 90.269 218.696 L 90.98 218.628 L 92.403 218.509 L 93.286 218.427 L 94.532 218.322 L 95.413 218.239 L 96.656 218.133 L 97.535 218.05 L 98.775 217.944 L 99.653 217.86 L 100.357 217.791 L 101.766 217.67 L 102.469 217.6 L 103.874 217.478 L 104.747 217.393 L 105.978 217.286 L 106.849 217.2 L 108.077 217.093 L 108.946 217.007 L 110.172 216.898 L 111.039 216.812 L 112.262 216.703 L 113.127 216.616 L 114.517 216.492 L 115.21 216.419 L 116.073 216.331 L 117.289 216.222 L 118.149 216.133 L 119.532 216.008 L 120.222 215.934 L 121.601 215.809 L 122.289 215.734 L 123.666 215.608 L 124.52 215.518 L 125.726 215.406 L 126.578 215.316 L 127.781 215.204 L 128.632 215.112 L 129.999 214.985 L 130.681 214.908 L 132.045 214.78 L 132.891 214.688 L 134.086 214.574 L 134.931 214.481 L 136.123 214.367 L 136.966 214.274 L 138.32 214.144 L 138.996 214.065 L 140.348 213.935 L 141.187 213.84 L 142.37 213.725 L 143.207 213.629 L 144.553 213.498 L 145.223 213.418 L 146.566 213.285 L 147.399 213.189 L 148.574 213.072 L 149.406 212.975 L 150.742 212.841 L 151.912 212.723 L 152.741 212.626 L 154.071 212.491 L 154.735 212.409 L 156.063 212.274 L 156.887 212.174 L 158.05 212.055 L 158.873 211.955 L 160.194 211.819 L 161.015 211.718 L 162.172 211.598 L 162.99 211.496 L 164.306 211.359 L 164.961 211.273 L 166.274 211.135 L 167.584 210.997 L 168.398 210.894 L 169.544 210.771 L 170.356 210.668 L 171.66 210.528 L 172.31 210.44 L 173.611 210.3 L 174.419 210.195 L 175.717 210.054 L 176.854 209.929 L 177.659 209.823 L 178.952 209.681 L 179.755 209.575 L 180.886 209.449 L 181.687 209.341 L 182.974 209.198 L 184.258 209.054 L 185.056 208.945 L 186.18 208.818 L 186.976 208.709 L 188.255 208.563 L 189.049 208.453 L 190.324 208.307 L 191.44 208.178 L 192.232 208.067 L 193.502 207.92 L 194.291 207.808 L 195.558 207.66 L 196.667 207.529 L 197.453 207.416 L 198.715 207.267 L 199.5 207.154 L 200.759 207.004 L 201.386 206.907 L 202.641 206.756 L 203.895 206.605 L 204.675 206.49 L 205.925 206.338 L 207.174 206.186 L 207.951 206.069 L 209.041 205.933 L 209.816 205.816 L 211.059 205.662 L 212.299 205.508 L 213.071 205.389 L 214.308 205.234 L 215.078 205.114 L 216.312 204.958 L 217.391 204.82 L 218.158 204.699 L 219.387 204.542 L 220.614 204.384 L 221.378 204.262 L 222.602 204.103 L 223.364 203.98 L 224.584 203.821 L 225.803 203.661 L 226.562 203.536 L 227.626 203.394 L 228.84 203.233 L 229.596 203.107 L 230.806 202.945 L 232.015 202.782 L 232.768 202.655 L 233.973 202.492 L 235.177 202.328 L 235.927 202.199 L 237.127 202.034 L 238.326 201.869 L 239.073 201.739 L 240.268 201.572 L 241.461 201.406 L 242.205 201.274 L 243.395 201.106 L 244.583 200.938 L 245.324 200.805 L 246.509 200.636 L 247.692 200.466 L 248.43 200.332 L 249.61 200.161 L 250.788 199.989 L 251.523 199.854 L 252.698 199.681 L 253.871 199.508 L 254.603 199.371 L 255.773 199.197 L 256.94 199.023 L 257.669 198.884 L 258.834 198.708 L 259.996 198.532 L 260.723 198.392 L 261.882 198.215 L 263.04 198.037 L 264.195 197.859 L 265.065 197.696 L 266.217 197.517 L 267.367 197.337 L 268.086 197.192 L 269.233 197.011 L 270.378 196.83 L 271.522 196.648 L 272.237 196.501 L 273.377 196.318 L 274.515 196.134 L 275.373 195.965 L 276.508 195.78 L 277.641 195.594 L 278.772 195.408 L 279.48 195.258 L 280.608 195.07 L 281.734 194.882 L 283.003 194.672 L 283.706 194.519 L 284.827 194.33 L 285.946 194.139 L 287.063 193.948 L 287.762 193.793 L 289.02 193.579 L 290.132 193.386 L 291.242 193.192 L 291.937 193.034 L 293.044 192.84 L 294.292 192.622 L 295.395 192.426 L 296.086 192.266 L 297.186 192.068 L 298.426 191.847 L 299.522 191.649 L 300.615 191.449 L 301.302 191.286 L 302.535 191.062 L 303.623 190.861 L 304.709 190.658 L 305.794 190.455 L 306.618 190.266 L 307.699 190.062 L 308.778 189.857 L 309.855 189.651 L 310.675 189.459 L 311.749 189.251 L 312.821 189.044 L 314.033 188.812 L 315.101 188.602 L 316.167 188.392 L 316.979 188.195 L 318.042 187.984 L 319.103 187.772 L 320.303 187.535 L 321.36 187.321 L 322.026 187.144 L 323.221 186.905 L 324.273 186.689 L 325.463 186.448 L 326.511 186.23 L 327.557 186.012 L 328.357 185.806 L 329.4 185.586 L 330.441 185.366 L 331.619 185.12 L 332.656 184.897 L 333.831 184.649 L 334.864 184.426 L 335.655 184.214 L 336.685 183.989 L 337.713 183.762 L 338.878 183.51 L 339.902 183.282 L 341.063 183.028 L 342.083 182.798 L 342.866 182.581 L 343.883 182.349 L 345.036 182.091 L 346.049 181.859 L 347.198 181.599 L 348.207 181.364 L 349.352 181.102 L 350.357 180.866 L 351.498 180.602 L 352.133 180.403 L 353.271 180.137 L 354.406 179.871 L 355.402 179.63 L 356.533 179.362 L 357.525 179.119 L 358.652 178.848 L 359.641 178.604 L 360.763 178.331 L 361.884 178.058 L 362.867 177.81 L 363.627 177.574 L 364.606 177.325 L 365.72 177.047 L 366.831 176.769 L 367.804 176.517 L 368.912 176.236 L 370.017 175.954 L 370.984 175.699 L 372.086 175.415 L 373.184 175.13 L 374.146 174.872 L 375.241 174.585 L 376.334 174.297 L 377.29 174.036 L 378.379 173.745 L 379.466 173.453 L 380.416 173.189 L 381.498 172.896 L 382.579 172.6 L 383.658 172.304 L 384.6 172.036 L 385.675 171.738 L 386.747 171.438 L 387.481 171.177 L 388.55 170.875 L 389.484 170.602 L 390.549 170.298 L 391.612 169.993 L 392.674 169.686 L 393.733 169.378 L 394.989 169.059 L 396.043 168.748 L 397.095 168.437 L 398.146 168.124 L 399.194 167.81 L 400.241 167.495 L 401.152 167.209 L 402.195 166.892 L 403.235 166.573 L 404.274 166.252 L 405.31 165.931 L 406.345 165.608 L 407.377 165.284 L 408.408 164.959 L 409.436 164.632 L 410.463 164.304 L 411.488 163.975 L 412.51 163.645 L 413.531 163.313 L 414.55 162.98 L 415.567 162.645 L 416.582 162.309 L 417.907 161.93 L 418.917 161.592 L 419.925 161.252 L 420.932 160.911 L 421.936 160.568 L 422.938 160.224 L 423.939 159.879 L 424.938 159.532 L 425.934 159.184 L 426.929 158.834 L 428.225 158.441 L 429.216 158.088 L 430.204 157.734 L 431.19 157.379 L 432.175 157.023 L 433.158 156.665 L 434.269 156.27 L 435.248 155.909 L 436.521 155.504 L 437.496 155.14 L 438.468 154.774 L 439.439 154.407 L 440.538 154.004 L 441.505 153.634 L 442.47 153.262 L 443.723 152.846 L 444.684 152.471 L 445.773 152.06 L 446.73 151.682 L 447.685 151.303 L 448.924 150.878 L 450.005 150.46 L 450.954 150.076 L 451.901 149.691 L 452.847 149.304 L 454.2 148.834 L 455.142 148.444 L 456.081 148.052 L 457.148 147.622 L 458.084 147.227 L 459.294 146.786 L 460.356 146.35 L 461.286 145.95 L 462.214 145.549 L 463.542 145.063 L 464.466 144.658 L 465.388 144.252 L 466.438 143.805 L 467.626 143.35 L 468.672 142.9 L 469.587 142.487 L 470.63 142.034 L 471.806 141.571 L 472.715 141.153 L 473.752 140.694 L 474.658 140.272 L 475.952 139.764 L 476.854 139.338 L 477.884 138.872 L 479.041 138.397 L 480.067 137.927 L 480.962 137.494 L 482.24 136.974 L 483.13 136.538 L 484.149 136.06 L 485.29 135.574 L 486.305 135.092 L 487.319 134.608 L 488.451 134.116 L 489.461 133.629 L 490.34 133.18 L 491.594 132.641 L 492.469 132.189 L 493.473 131.694 L 494.719 131.149 L 495.588 130.691 L 496.588 130.189 L 497.826 129.638 L 498.691 129.175 L 499.924 128.619 L 500.916 128.11 L 501.776 127.64 L 503.002 127.079 L 503.99 126.563 L 505.079 126.04 L 506.064 125.52 L 507.279 124.95 L 508.129 124.469 L 509.109 123.942 L 510.317 123.366 L 511.162 122.879 L 512.366 122.298 L 513.34 121.763 L 514.539 121.178 L 515.377 120.683 L 516.571 120.093 L 517.54 119.55 L 518.729 118.956 L 519.695 118.409 L 520.746 117.854 L 521.709 117.303 L 522.889 116.7 L 523.85 116.144 L 525.025 115.536 L 525.849 115.021 L 527.02 114.408 L 527.976 113.844 L 529.143 113.227 L 530.096 112.658 L 531.259 112.037 L 532.075 111.509 L 533.233 110.883 L 534.389 110.255 L 535.337 109.675 L 536.488 109.042 L 537.434 108.457 L 538.582 107.82 L 539.389 107.277 L 540.534 106.635 L 541.675 105.991 L 542.616 105.395 L 543.754 104.746 L 544.89 104.095 L 545.829 103.492 L 546.961 102.836 L 547.898 102.229 L 549.027 101.569 L 550.015 100.953 L 550.949 100.339 L 552.073 99.671 L 553.195 99.001 L 554.127 98.381 L 555.246 97.706 L 556.363 97.028 L 557.477 96.349 L 558.407 95.719 L 559.519 95.035 L 560.629 94.348 L 561.557 93.711 L 562.665 93.02 L 563.771 92.326 L 564.876 91.629 L 565.802 90.983 L 566.759 90.331 L 567.859 89.628 L 568.958 88.922 L 570.055 88.214 L 570.979 87.557 L 572.074 86.844 L 573.168 86.128 L 574.26 85.411 L 575.351 84.691 L 576.274 84.022 L 577.363 83.297 L 577.35 82.562 L 577.338 81.826 L 577.325 81.087 L 577.313 80.347 L 577.301 79.604 L 577.289 78.86 L 577.277 78.114 L 577.265 77.365 L 577.254 76.615 L 577.242 75.863 L 577.231 75.108 L 577.219 74.352 L 577.208 73.594 L 577.197 72.834 L 577.186 72.072 L 577.176 71.308 L 577.165 70.541 L 577.154 69.773 L 577.144 69.003 L 577.138 68.564 L 580.839 69.17 L 580.724 59.709 L 577.039 60.405 L 573.353 61.095 L 573.268 52.86 L 576.967 53.473 L 580.666 54.092 L 580.591 45.534 L 576.904 46.218 L 573.215 46.896 L 573.152 38.014 L 576.849 38.639 L 580.546 39.269 L 580.494 30.063 L 576.804 30.736 L 573.114 31.403 L 573.08 23.635 L 576.776 24.27 L 580.471 24.91 L 580.441 15.089 L 576.75 15.751 L 576.748 14.676 L 576.746 13.774 L 576.744 12.87 L 576.742 11.963 L 576.741 11.055 L 576.739 10.145 L 576.738 9.233 L 576.737 8.319 L 576.736 7.403 L 576.735 6.484 L 576.734 5.564 L 576.733 4.642 L 576.733 3.717 L 576.733 2.791 L 576.732 1.863 L 576.732 0.932 L 576.732 0 Z" vector-effect="non-scaling-stroke"/><path d="M 516.154 42.052 L 516.162 42.937 L 516.17 43.82 L 516.179 44.701 L 516.187 45.579 L 516.196 46.455 L 516.205 47.329 L 516.214 48.201 L 516.223 49.07 L 516.232 49.938 L 516.241 50.802 L 516.25 51.665 L 516.26 52.525 L 516.269 53.384 L 516.279 54.239 L 516.289 55.093 L 516.299 55.944 L 516.309 56.794 L 516.319 57.641 L 516.329 58.485 L 516.339 59.328 L 516.35 60.168 L 516.36 61.006 L 516.371 61.841 L 516.382 62.675 L 516.393 63.506 L 516.404 64.335 L 516.415 65.161 L 516.426 65.986 L 516.437 66.808 L 516.449 67.628 L 516.46 68.446 L 516.472 69.261 L 516.484 70.075 L 516.496 70.886 L 516.508 71.695 L 516.52 72.501 L 516.532 73.306 L 516.544 74.108 L 516.557 74.908 L 516.569 75.705 L 516.582 76.501 L 516.595 77.294 L 516.608 78.085 L 516.621 78.874 L 516.634 79.66 L 516.647 80.445 L 516.661 81.227 L 516.674 82.007 L 516.688 82.785 L 516.701 83.56 L 516.715 84.334 L 516.729 85.105 L 516.743 85.874 L 516.757 86.64 L 516.772 87.405 L 516.786 88.167 L 516.801 88.927 L 516.815 89.685 L 516.83 90.441 L 516.845 91.194 L 516.86 91.945 L 516.875 92.695 L 516.891 93.441 L 516.906 94.186 L 516.921 94.929 L 516.937 95.669 L 516.953 96.407 L 516.969 97.143 L 516.985 97.877 L 517.001 98.609 L 517.017 99.338 L 517.033 100.065 L 517.05 100.79 L 517.066 101.513 L 517.083 102.234 L 517.1 102.952 L 517.117 103.669 L 517.134 104.383 L 517.151 105.095 L 517.168 105.805 L 517.186 106.513 L 517.203 107.218 L 517.221 107.921 L 517.238 108.623 L 517.256 109.322 L 517.274 110.019 L 517.293 110.713 L 517.311 111.406 L 517.329 112.097 L 517.348 112.785 L 517.366 113.471 L 517.385 114.155 L 517.404 114.837 L 517.423 115.517 L 517.442 116.194 L 517.461 116.87 L 517.481 117.543 L 517.5 118.214 L 517.52 118.883 L 517.54 119.55 M 257.556 138.17 L 257.591 138.904 L 257.626 139.636 L 257.66 140.365 L 257.694 141.091 L 257.729 141.814 L 257.763 142.534 L 257.797 143.251 L 257.831 143.966 L 257.865 144.677 L 257.899 145.386 L 257.933 146.092 L 257.967 146.795 L 258 147.496 L 258.034 148.193 L 258.068 148.888 L 258.101 149.58 L 258.135 150.269 L 258.168 150.956 L 258.201 151.639 L 258.235 152.32 L 258.268 152.998 L 258.301 153.673 L 258.334 154.346 L 258.367 155.015 L 258.4 155.682 L 258.433 156.346 L 258.465 157.008 L 258.498 157.667 L 258.531 158.323 L 258.563 158.976 L 258.596 159.626 L 258.628 160.274 L 258.661 160.919 L 258.693 161.562 L 258.725 162.202 L 258.758 162.839 L 258.79 163.473 L 258.822 164.105 L 258.854 164.734 L 258.886 165.36 L 258.918 165.984 L 258.95 166.605 L 258.981 167.223 L 259.013 167.839 L 259.045 168.452 L 259.077 169.063 L 259.108 169.671 L 259.14 170.276 L 259.171 170.879 L 259.203 171.479 L 259.234 172.076 L 259.265 172.671 L 259.297 173.264 L 259.328 173.854 L 259.359 174.441 L 259.39 175.026 L 259.421 175.608 L 259.452 176.188 L 259.483 176.765 L 259.514 177.34 L 259.545 177.912 L 259.576 178.482 L 259.607 179.049 L 259.638 179.614 L 259.668 180.176 L 259.699 180.736 L 259.73 181.293 L 259.76 181.848 L 259.791 182.401 L 259.821 182.951 L 259.852 183.499 L 259.882 184.044 L 259.913 184.587 L 259.943 185.128 L 259.973 185.666 L 260.004 186.202 L 260.034 186.736 L 260.064 187.267 L 260.094 187.796 L 260.125 188.323 L 260.155 188.847 L 260.185 189.369 L 260.215 189.889 L 260.245 190.407 L 260.275 190.922 L 260.305 191.435 L 260.335 191.946 L 260.365 192.455 L 260.395 192.961 L 260.425 193.465 L 260.455 193.968 L 260.485 194.468 L 260.514 194.966 L 260.544 195.461 L 260.574 195.955 L 260.604 196.446 L 260.634 196.936 L 260.663 197.423 L 260.693 197.909 L 260.723 198.392 M 0 169.724 L 0.044 170.414 L 0.087 171.102 L 0.13 171.786 L 0.173 172.467 L 0.216 173.145 L 0.259 173.82 L 0.301 174.493 L 0.344 175.162 L 0.386 175.828 L 0.428 176.491 L 0.47 177.152 L 0.512 177.809 L 0.553 178.463 L 0.595 179.115 L 0.636 179.763 L 0.677 180.409 L 0.718 181.052 L 0.758 181.691 L 0.799 182.328 L 0.839 182.962 L 0.879 183.593 L 0.92 184.222 L 0.959 184.847 L 0.999 185.47 L 1.039 186.089 L 1.078 186.706 L 1.117 187.32 L 1.156 187.931 L 1.195 188.54 L 1.234 189.145 L 1.273 189.748 L 1.311 190.348 L 1.349 190.945 L 1.387 191.54 L 1.425 192.132 L 1.463 192.721 L 1.501 193.307 L 1.538 193.891 L 1.576 194.472 L 1.613 195.05 L 1.65 195.625 L 1.687 196.198 L 1.724 196.768 L 1.76 197.336 L 1.797 197.901 L 1.833 198.463 L 1.869 199.023 L 1.905 199.58 L 1.941 200.135 L 1.977 200.687 L 2.012 201.236 L 2.048 201.783 L 2.083 202.327 L 2.118 202.869 L 2.153 203.409 L 2.188 203.945 L 2.223 204.48 L 2.258 205.012 L 2.292 205.541 L 2.326 206.068 L 2.361 206.593 L 2.395 207.115 L 2.429 207.635 L 2.462 208.153 L 2.496 208.668 L 2.53 209.181 L 2.563 209.691 L 2.596 210.2 L 2.63 210.705 L 2.663 211.209 L 2.695 211.711 L 2.728 212.21 L 2.761 212.707 L 2.794 213.202 L 2.826 213.694 L 2.858 214.185 L 2.89 214.673 L 2.923 215.159 L 2.955 215.643 L 2.986 216.125 L 3.018 216.605 L 3.05 217.083 L 3.081 217.559 L 3.113 218.033 L 3.144 218.505 L 3.175 218.975 L 3.206 219.443 L 3.237 219.909 L 3.268 220.374 L 3.299 220.836 L 3.33 221.297 L 3.36 221.755 L 3.391 222.212 L 3.421 222.667 L 3.451 223.121 L 3.482 223.572 L 3.512 224.022 L 3.542 224.471 L 3.572 224.917 L 3.602 225.362" id="blue" stroke="blue" style="stroke:blue" vector-effect="non-scaling-stroke"/><g id="captions"><text alignment-baseline="middle" text-anchor="middle" transform="rotate(0,288.573,162.664)" x="288.573" y="162.664">LEE, 2, 1</text></g></g></svg>