<svg width="117.624" height="188.279" viewBox="0 0 117.624 188.279" xmlns="http://www.w3.org/2000/svg"><g id="svgGroup" stroke-linecap="round" fill-rule="evenodd" font-size="9pt" stroke="#000" stroke-width="0.25mm" fill="none" style="stroke:#000;stroke-width:0.25mm;fill:none"><path d="M 113.97 0 L 113.01 0.043 L 112.052 0.086 L 110.778 0.145 L 109.825 0.19 L 108.874 0.235 L 107.61 0.297 L 106.664 0.344 L 105.406 0.407 L 104.465 0.455 L 103.214 0.521 L 102.277 0.57 L 101.343 0.62 L 100.101 0.688 L 99.171 0.739 L 97.935 0.809 L 97.01 0.862 L 95.78 0.933 L 94.859 0.987 L 93.635 1.06 L 92.719 1.115 L 91.501 1.19 L 90.589 1.246 L 89.376 1.323 L 88.167 1.4 L 87.262 1.459 L 86.058 1.538 L 85.157 1.598 L 83.958 1.678 L 83.061 1.739 L 81.868 1.822 L 80.677 1.905 L 79.786 1.968 L 78.601 2.053 L 77.419 2.138 L 76.534 2.203 L 75.357 2.29 L 74.475 2.357 L 73.303 2.445 L 72.133 2.535 L 71.257 2.603 L 70.092 2.694 L 68.929 2.786 L 67.769 2.879 L 66.9 2.95 L 65.745 3.044 L 64.591 3.14 L 63.728 3.212 L 62.579 3.308 L 61.432 3.406 L 60.288 3.505 L 59.431 3.579 L 58.291 3.679 L 57.152 3.779 L 56.016 3.881 L 55.166 3.958 L 54.033 4.061 L 52.903 4.164 L 51.775 4.269 L 50.648 4.374 L 49.805 4.453 L 48.682 4.56 L 47.561 4.667 L 46.442 4.775 L 45.325 4.884 L 44.209 4.994 L 43.373 5.076 L 42.261 5.187 L 41.15 5.299 L 40.041 5.411 L 38.933 5.524 L 37.827 5.638 L 36.998 5.723 L 35.895 5.838 L 34.793 5.954 L 33.692 6.07 L 32.593 6.187 L 31.495 6.305 L 30.398 6.423 L 29.303 6.542 L 28.209 6.662 L 27.389 6.752 L 26.297 6.873 L 25.206 6.994 L 24.116 7.116 L 23.027 7.239 L 21.94 7.362 L 20.853 7.486 L 19.767 7.611 L 18.682 7.736 L 17.597 7.862 L 16.514 7.988 L 15.431 8.115 L 14.349 8.242 L 13.268 8.37 L 12.458 8.467 L 11.378 8.596 L 10.298 8.725 L 9.219 8.856 L 8.141 8.986 L 7.063 9.117 L 5.985 9.249 L 4.908 9.381 L 3.831 9.514 L 3.828 10.05 L 3.825 10.585 L 3.822 11.12 L 3.819 11.654 L 3.816 12.187 L 3.813 12.72 L 3.81 13.253 L 3.807 13.785 L 3.804 14.316 L 3.801 14.847 L 3.798 15.377 L 3.796 15.907 L 3.793 16.436 L 3.79 16.964 L 3.787 17.492 L 3.785 18.02 L 3.782 18.547 L 3.779 19.073 L 3.779 19.245 L 0.088 18.577 L 0.046 28.026 L 3.742 27.391 L 7.437 26.754 L 7.407 34.938 L 3.717 34.273 L 0.025 33.612 L 0 42.587 L 3.695 41.946 L 7.389 41.302 L 7.372 50.034 L 3.681 49.376 L 3.68 50.158 L 3.679 50.65 L 3.678 51.143 L 3.678 51.634 L 3.677 52.125 L 3.677 52.616 L 3.676 53.106 L 3.676 53.596 L 3.675 54.085 L 3.675 54.573 L 3.674 55.061 L 3.674 55.548 L 3.674 56.035 L 3.674 56.521 L 3.673 57.007 L 3.673 57.492 L 3.673 57.977 L 3.673 58.461 L 3.673 58.945 L 3.673 59.428 L 3.673 59.91 L 3.673 60.392 L 3.657 60.392 L 3.657 61.945 L 3.658 63.492 L 3.659 65.033 L 3.661 66.569 L 3.663 68.099 L 3.665 69.624 L 3.668 71.143 L 3.67 72.656 L 3.674 74.164 L 3.677 75.737 L 7.368 75.073 L 7.407 86.665 L 3.711 86.027 L 0.015 85.393 L 0.056 93.713 L 3.745 93.044 L 7.434 92.37 L 7.484 100.411 L 3.787 99.782 L 0.089 99.158 L 0.146 106.921 L 3.835 106.242 L 7.522 105.558 L 7.613 115.746 L 3.914 115.128 L 0.215 114.517 L 0.291 121.67 L 3.977 120.979 L 7.662 120.282 L 7.779 129.741 L 4.078 129.136 L 0.376 128.538 L 0.507 137.602 L 4.19 136.898 L 7.872 136.185 L 8.016 144.855 L 4.312 144.266 L 0.608 143.684 L 0.764 151.963 L 4.444 151.242 L 8.122 150.512 L 8.341 160.71 L 4.634 160.138 L 0.927 159.577 L 1.107 167.014 L 4.783 166.273 L 8.457 165.522 L 8.707 174.745 L 4.998 174.194 L 5.013 174.719 L 5.044 175.794 L 5.076 176.863 L 5.108 177.927 L 5.141 178.986 L 5.174 180.04 L 5.207 181.088 L 5.24 182.131 L 5.274 183.169 L 5.309 184.202 L 5.343 185.229 L 5.378 186.251 L 5.414 187.268 L 5.45 188.279 L 6.545 187.571 L 7.638 186.857 L 8.728 186.139 L 9.817 185.416 L 10.903 184.687 L 12.189 183.949 L 12.838 183.292 L 13.761 182.551 L 14.899 181.842 L 15.976 181.088 L 17.051 180.329 L 18.124 179.565 L 19.196 178.795 L 20.265 178.019 L 21.333 177.238 L 22.4 176.451 L 23.464 175.659 L 24.527 174.861 L 25.588 174.057 L 26.648 173.247 L 27.706 172.432 L 28.637 171.612 L 29.71 170.827 L 30.763 169.993 L 31.815 169.153 L 32.866 168.307 L 33.916 167.454 L 34.964 166.595 L 36.011 165.729 L 37.057 164.856 L 37.88 163.98 L 39.23 163.056 L 40.271 162.163 L 41.312 161.263 L 42.351 160.356 L 43.39 159.441 L 44.232 158.522 L 45.536 157.555 L 46.57 156.618 L 47.605 155.674 L 48.638 154.721 L 49.589 153.762 L 50.807 152.711 L 51.794 151.781 L 52.824 150.795 L 53.78 149.802 L 55.062 148.716 L 56.02 147.705 L 56.99 146.732 L 57.951 145.703 L 59.217 144.58 L 60.181 143.531 L 61.077 142.521 L 62.332 141.369 L 63.301 140.29 L 64.493 139.117 L 65.437 138.064 L 66.411 136.953 L 67.598 135.747 L 68.485 134.661 L 69.716 133.431 L 70.697 132.272 L 71.878 131.017 L 72.761 129.881 L 73.981 128.6 L 74.923 127.387 L 76.034 126.128 L 76.983 124.886 L 78.082 123.596 L 79.079 122.322 L 80.252 120.951 L 81.128 119.693 L 82.3 118.287 L 83.47 116.863 L 84.345 115.549 L 85.484 114.085 L 86.543 112.651 L 87.531 111.222 L 88.559 109.742 L 89.748 108.187 L 90.749 106.684 L 91.768 105.126 L 92.915 103.488 L 93.927 101.87 L 95.095 100.168 L 95.97 98.556 L 97.124 96.78 L 98.125 95.012 L 99.282 93.15 L 100.277 91.287 L 101.438 89.321 L 102.416 87.344 L 103.411 85.3 L 104.476 83.199 L 105.461 80.991 L 106.636 78.637 L 107.612 76.215 L 108.882 73.548 L 109.853 70.824 L 110.826 67.893 L 112.018 64.649 L 112.987 61.087 L 113.954 56.989 L 113.952 56.452 L 113.951 55.914 L 113.949 55.375 L 113.948 54.836 L 113.947 54.296 L 113.945 53.755 L 113.944 53.214 L 113.943 52.672 L 113.941 52.129 L 113.94 51.586 L 113.939 51.042 L 113.938 50.497 L 113.937 49.952 L 113.935 49.406 L 113.934 48.859 L 113.933 48.312 L 113.932 47.764 L 113.931 47.187 L 110.239 47.842 L 110.228 38.543 L 113.921 39.189 L 117.615 39.839 L 117.611 31.416 L 113.918 32.069 L 110.225 32.719 L 110.228 24.074 L 113.921 24.726 L 117.614 25.382 L 117.624 16.515 L 113.93 17.162 L 110.236 17.806 L 110.253 8.717 L 113.945 9.375 L 113.946 8.967 L 113.947 8.374 L 113.949 7.78 L 113.95 7.186 L 113.951 6.591 L 113.953 5.995 L 113.955 5.398 L 113.956 4.801 L 113.958 4.203 L 113.96 3.605 L 113.961 3.006 L 113.963 2.406 L 113.965 1.805 L 113.967 1.204 L 113.968 0.602 L 113.97 0 Z" vector-effect="non-scaling-stroke"/><g id="captions"><text alignment-baseline="middle" text-anchor="middle" transform="rotate(0,58.754,74.129)" x="58.754" y="74.129">LEE, 1, 0</text></g></g></svg>