<svg width="106.937" height="190.303" viewBox="0 0 106.937 190.303" xmlns="http://www.w3.org/2000/svg"><g id="svgGroup" stroke-linecap="round" fill-rule="evenodd" font-size="9pt" stroke="#000" stroke-width="0.25mm" fill="none" style="stroke:#000;stroke-width:0.25mm;fill:none"><path d="M 106.931 0.405 L 105.278 0.372 L 104.043 0.348 L 103.221 0.332 L 101.992 0.31 L 100.767 0.288 L 99.952 0.274 L 98.732 0.253 L 97.516 0.233 L 96.707 0.221 L 95.498 0.202 L 94.291 0.185 L 93.489 0.174 L 92.288 0.157 L 91.091 0.142 L 90.295 0.132 L 89.104 0.118 L 87.917 0.105 L 86.732 0.093 L 85.945 0.085 L 84.766 0.074 L 83.591 0.063 L 82.42 0.054 L 81.641 0.048 L 80.475 0.04 L 79.312 0.032 L 78.153 0.026 L 76.997 0.02 L 76.228 0.016 L 75.078 0.012 L 73.931 0.008 L 72.787 0.005 L 71.646 0.002 L 70.509 0.001 L 69.752 0 L 68.62 0 L 67.492 0 L 66.366 0.002 L 65.244 0.004 L 64.124 0.006 L 63.008 0.01 L 61.895 0.014 L 61.155 0.017 L 60.047 0.023 L 58.942 0.029 L 57.841 0.036 L 56.742 0.044 L 55.646 0.052 L 54.554 0.061 L 53.464 0.071 L 52.378 0.081 L 51.294 0.093 L 50.213 0.105 L 49.136 0.117 L 48.061 0.131 L 46.989 0.145 L 45.92 0.16 L 44.854 0.175 L 43.79 0.192 L 42.73 0.209 L 41.672 0.226 L 40.618 0.245 L 39.566 0.264 L 38.516 0.283 L 37.122 0.311 L 36.079 0.332 L 35.039 0.354 L 34.002 0.377 L 32.967 0.4 L 31.935 0.424 L 30.906 0.449 L 29.879 0.474 L 28.514 0.509 L 27.494 0.536 L 26.476 0.564 L 25.461 0.592 L 24.448 0.621 L 23.101 0.66 L 22.095 0.691 L 21.09 0.722 L 20.089 0.754 L 19.089 0.786 L 17.761 0.83 L 16.767 0.864 L 15.776 0.899 L 14.787 0.934 L 13.472 0.982 L 12.489 1.018 L 11.508 1.055 L 10.204 1.106 L 9.229 1.145 L 8.256 1.184 L 6.962 1.238 L 5.994 1.278 L 5.029 1.32 L 3.745 1.376 L 3.743 1.978 L 3.741 2.58 L 3.74 3.181 L 3.738 3.781 L 3.736 4.381 L 3.734 4.98 L 3.733 5.579 L 3.731 6.177 L 3.729 6.774 L 3.728 7.37 L 3.726 7.966 L 3.725 8.561 L 3.723 9.156 L 3.722 9.75 L 3.721 10.343 L 3.72 10.751 L 0.028 10.093 L 0.01 19.182 L 3.705 18.538 L 7.398 17.891 L 7.388 26.757 L 3.696 26.102 L 0.003 25.45 L 0 34.094 L 3.693 33.445 L 7.386 32.792 L 7.389 41.215 L 3.696 40.565 L 0.002 39.918 L 0.014 49.218 L 3.706 48.562 L 3.707 49.14 L 3.708 49.688 L 3.709 50.235 L 3.71 50.782 L 3.711 51.328 L 3.712 51.873 L 3.713 52.417 L 3.715 52.961 L 3.716 53.505 L 3.717 54.047 L 3.718 54.589 L 3.72 55.131 L 3.721 55.671 L 3.723 56.211 L 3.724 56.751 L 3.725 57.29 L 3.727 57.828 L 3.728 58.365 L 3.596 58.366 L 3.604 59.975 L 3.612 61.577 L 3.621 63.174 L 3.629 64.764 L 3.639 66.349 L 3.648 67.928 L 3.658 69.501 L 3.668 71.068 L 3.678 72.629 L 3.688 74.185 L 3.7 75.873 L 7.388 75.193 L 7.458 84.314 L 3.76 83.691 L 0.061 83.072 L 0.139 91.9 L 3.826 91.216 L 7.512 90.528 L 7.597 99.062 L 3.898 98.448 L 0.197 97.838 L 0.322 108.932 L 4.007 108.239 L 7.692 107.541 L 7.792 115.432 L 4.091 114.827 L 0.389 114.227 L 0.494 121.826 L 4.178 121.124 L 7.861 120.416 L 8.012 130.39 L 4.31 129.795 L 0.606 129.206 L 0.768 138.761 L 4.449 138.047 L 8.13 137.328 L 8.252 143.938 L 4.547 143.355 L 0.842 142.778 L 1.017 151.567 L 4.696 150.843 L 8.374 150.111 L 8.61 160.873 L 4.903 160.303 L 1.196 159.741 L 1.386 167.632 L 5.062 166.892 L 8.737 166.144 L 8.992 175.862 L 5.283 175.307 L 5.314 176.416 L 5.345 177.519 L 5.376 178.615 L 5.407 179.706 L 5.439 180.791 L 5.471 181.871 L 5.503 182.945 L 5.535 184.013 L 5.568 185.076 L 5.6 186.132 L 5.633 187.184 L 5.667 188.229 L 5.7 189.269 L 5.734 190.303 L 6.603 189.498 L 7.498 188.689 L 8.965 187.668 L 9.827 186.848 L 10.809 186.023 L 11.812 185.194 L 12.999 184.151 L 13.964 183.312 L 14.95 182.468 L 16.119 181.407 L 17.068 180.553 L 17.932 179.696 L 19.286 178.615 L 20.044 177.747 L 21.281 176.655 L 22.13 175.777 L 23.351 174.672 L 24.283 173.782 L 25.328 172.664 L 26.522 171.538 L 27.352 170.632 L 28.466 169.494 L 29.71 168.346 L 30.453 167.424 L 31.546 166.265 L 32.632 165.098 L 33.71 163.923 L 34.781 162.741 L 35.845 161.551 L 36.901 160.354 L 38.012 159.148 L 38.992 157.934 L 40.026 156.713 L 41.053 155.485 L 42.073 154.248 L 43.086 153.004 L 44.057 151.752 L 45.288 150.239 L 46.277 148.969 L 47.229 147.692 L 48.429 146.148 L 49.367 144.853 L 50.546 143.288 L 51.47 141.975 L 52.628 140.388 L 53.539 139.057 L 54.653 137.449 L 55.78 135.829 L 56.669 134.469 L 57.755 132.827 L 58.83 131.173 L 59.895 129.507 L 60.909 127.829 L 61.995 126.139 L 63.031 124.436 L 64.042 122.72 L 65.239 120.704 L 66.243 118.962 L 67.225 117.207 L 68.384 115.144 L 69.318 113.362 L 70.469 111.268 L 71.588 109.156 L 72.52 107.332 L 73.605 105.187 L 74.677 103.025 L 75.715 100.846 L 76.775 98.649 L 77.96 96.116 L 78.977 93.88 L 79.977 91.627 L 81.095 89.029 L 82.23 86.409 L 83.188 84.096 L 84.273 81.43 L 85.327 78.74 L 86.522 75.685 L 87.554 72.944 L 88.568 70.179 L 89.684 67.038 L 90.794 63.866 L 91.876 60.663 L 92.933 57.428 L 93.978 54.162 L 95.11 50.496 L 96.214 46.79 L 97.3 43.044 L 98.463 38.877 L 99.49 35.047 L 100.597 30.787 L 101.769 26.084 L 102.811 21.72 L 103.916 16.904 L 105.072 11.618 L 106.937 2.512 L 106.937 2.493 L 106.937 2.474 L 106.937 2.455 L 106.937 2.435 L 106.937 2.416 L 106.937 2.397 L 106.936 2.377 L 106.936 2.358 L 106.936 2.339 L 106.936 2.319 L 106.936 2.3 L 106.936 2.28 L 106.936 2.261 L 106.936 2.241 L 106.936 2.221 L 106.935 2.202 L 106.935 2.182 L 106.935 2.162 L 106.935 2.142 L 106.935 2.123 L 106.935 2.103 L 106.935 2.083 L 106.935 2.063 L 106.935 2.043 L 106.935 2.023 L 106.934 2.003 L 106.934 1.982 L 106.934 1.962 L 106.934 1.942 L 106.934 1.922 L 106.934 1.902 L 106.934 1.881 L 106.934 1.861 L 106.934 1.84 L 106.934 1.82 L 106.934 1.799 L 106.933 1.779 L 106.933 1.758 L 106.933 1.738 L 106.933 1.717 L 106.933 1.696 L 106.933 1.676 L 106.933 1.655 L 106.933 1.634 L 106.933 1.613 L 106.933 1.592 L 106.933 1.571 L 106.933 1.551 L 106.933 1.53 L 106.933 1.508 L 106.932 1.487 L 106.932 1.466 L 106.932 1.445 L 106.932 1.424 L 106.932 1.403 L 106.932 1.381 L 106.932 1.36 L 106.932 1.339 L 106.932 1.317 L 106.932 1.296 L 106.932 1.274 L 106.932 1.253 L 106.932 1.231 L 106.932 1.21 L 106.932 1.188 L 106.932 1.166 L 106.932 1.145 L 106.932 1.123 L 106.932 1.101 L 106.931 1.079 L 106.931 1.057 L 106.931 1.035 L 106.931 1.013 L 106.931 0.991 L 106.931 0.969 L 106.931 0.947 L 106.931 0.925 L 106.931 0.903 L 106.931 0.881 L 106.931 0.859 L 106.931 0.836 L 106.931 0.814 L 106.931 0.792 L 106.931 0.769 L 106.931 0.747 L 106.931 0.724 L 106.931 0.702 L 106.931 0.679 L 106.931 0.657 L 106.931 0.634 L 106.931 0.611 L 106.931 0.589 L 106.931 0.566 L 106.931 0.543 L 106.931 0.52 L 106.931 0.497 L 106.931 0.474 L 106.931 0.451 L 106.931 0.428 L 106.931 0.405 Z" vector-effect="non-scaling-stroke"/><g id="captions"><text alignment-baseline="middle" text-anchor="middle" transform="rotate(0,54.604,68.755)" x="54.604" y="68.755">LEE, 0, 0</text></g></g></svg>