<svg width="117.625" height="143.689" viewBox="0 0 117.625 143.689" xmlns="http://www.w3.org/2000/svg"><g id="svgGroup" stroke-linecap="round" fill-rule="evenodd" font-size="9pt" stroke="#000" stroke-width="0.25mm" fill="none" style="stroke:#000;stroke-width:0.25mm;fill:none"><path d="M 113.972 0 L 113.011 0.043 L 112.053 0.086 L 110.779 0.145 L 109.826 0.19 L 108.876 0.235 L 107.611 0.297 L 106.665 0.344 L 105.407 0.407 L 104.466 0.455 L 103.215 0.521 L 102.279 0.57 L 101.345 0.62 L 100.102 0.688 L 99.173 0.739 L 97.936 0.809 L 97.012 0.862 L 95.781 0.933 L 94.861 0.987 L 93.637 1.06 L 92.721 1.115 L 91.502 1.19 L 90.59 1.246 L 89.378 1.323 L 88.168 1.4 L 87.263 1.459 L 86.059 1.538 L 85.158 1.598 L 83.959 1.678 L 83.062 1.739 L 81.869 1.822 L 80.679 1.905 L 79.788 1.968 L 78.603 2.053 L 77.42 2.138 L 76.535 2.203 L 75.358 2.29 L 74.477 2.357 L 73.304 2.445 L 72.134 2.535 L 71.258 2.603 L 70.093 2.694 L 68.93 2.786 L 67.77 2.879 L 66.902 2.95 L 65.746 3.044 L 64.593 3.14 L 63.729 3.212 L 62.58 3.308 L 61.434 3.406 L 60.289 3.504 L 59.432 3.579 L 58.292 3.679 L 57.154 3.779 L 56.018 3.881 L 55.167 3.958 L 54.035 4.06 L 52.904 4.164 L 51.776 4.269 L 50.65 4.374 L 49.806 4.453 L 48.683 4.56 L 47.562 4.667 L 46.443 4.775 L 45.326 4.884 L 44.21 4.994 L 43.375 5.076 L 42.262 5.187 L 41.151 5.299 L 40.042 5.411 L 38.934 5.524 L 37.828 5.638 L 37 5.723 L 35.896 5.838 L 34.794 5.954 L 33.694 6.07 L 32.594 6.187 L 31.496 6.305 L 30.4 6.423 L 29.305 6.542 L 28.21 6.662 L 27.391 6.752 L 26.298 6.873 L 25.208 6.994 L 24.118 7.116 L 23.029 7.239 L 21.941 7.362 L 20.854 7.486 L 19.768 7.611 L 18.683 7.736 L 17.599 7.861 L 16.515 7.988 L 15.433 8.115 L 14.351 8.242 L 13.269 8.37 L 12.459 8.467 L 11.379 8.596 L 10.299 8.725 L 9.22 8.855 L 8.142 8.986 L 7.064 9.117 L 5.986 9.249 L 4.909 9.381 L 3.832 9.514 L 3.829 10.05 L 3.826 10.585 L 3.823 11.119 L 3.82 11.654 L 3.817 12.187 L 3.814 12.72 L 3.811 13.252 L 3.808 13.784 L 3.805 14.316 L 3.802 14.846 L 3.799 15.377 L 3.797 15.906 L 3.794 16.435 L 3.791 16.964 L 3.788 17.492 L 3.786 18.02 L 3.783 18.547 L 3.78 19.073 L 3.779 19.245 L 0.089 18.577 L 0.047 28.025 L 3.743 27.391 L 7.438 26.753 L 7.408 34.938 L 3.717 34.273 L 0.026 33.611 L 0 42.587 L 3.695 41.946 L 7.389 41.302 L 7.372 50.034 L 3.68 49.375 L 3.679 50.157 L 3.679 50.65 L 3.678 51.142 L 3.677 51.634 L 3.677 52.125 L 3.676 52.616 L 3.676 53.106 L 3.675 53.595 L 3.675 54.084 L 3.674 54.573 L 3.674 55.061 L 3.674 55.548 L 3.673 56.035 L 3.673 56.521 L 3.673 57.007 L 3.673 57.492 L 3.672 57.977 L 3.672 58.461 L 3.672 58.944 L 3.672 59.427 L 3.672 59.91 L 3.672 60.392 L 3.671 60.392 L 3.671 61.324 L 3.671 62.255 L 3.671 63.183 L 3.672 64.109 L 3.672 65.034 L 3.673 65.956 L 3.674 66.876 L 3.675 67.794 L 3.676 68.711 L 3.677 69.625 L 3.678 70.537 L 3.68 71.447 L 3.681 72.355 L 3.683 73.261 L 3.685 74.165 L 3.687 75.067 L 3.689 76.143 L 7.38 75.48 L 7.41 85.302 L 3.715 84.662 L 0.019 84.027 L 0.053 91.795 L 3.743 91.127 L 7.433 90.455 L 7.485 99.661 L 3.788 99.031 L 0.09 98.406 L 0.154 107.287 L 3.843 106.61 L 7.53 105.926 L 7.605 114.483 L 3.906 113.865 L 0.206 113.252 L 0.292 121.486 L 3.978 120.797 L 7.663 120.101 L 7.778 129.562 L 4.077 128.956 L 4.083 129.395 L 4.093 130.165 L 4.104 130.933 L 4.115 131.699 L 4.125 132.463 L 4.136 133.226 L 4.147 133.986 L 4.158 134.744 L 4.17 135.5 L 4.181 136.254 L 4.192 137.007 L 4.204 137.757 L 4.216 138.505 L 4.228 139.252 L 4.24 139.996 L 4.252 140.739 L 4.264 141.479 L 4.277 142.218 L 4.289 142.954 L 4.302 143.689 L 5.396 142.962 L 6.488 142.232 L 7.579 141.5 L 8.668 140.765 L 9.756 140.028 L 10.909 139.288 L 11.77 138.598 L 12.8 137.854 L 13.785 137.158 L 14.868 136.409 L 15.95 135.657 L 17.031 134.903 L 18.111 134.147 L 19.19 133.388 L 20.268 132.626 L 21.346 131.862 L 22.422 131.096 L 23.498 130.327 L 24.573 129.556 L 25.648 128.783 L 26.722 128.007 L 27.753 127.23 L 28.706 126.501 L 29.777 125.718 L 30.849 124.933 L 31.92 124.145 L 32.99 123.356 L 34.061 122.563 L 35.131 121.769 L 36.201 120.973 L 37.196 120.174 L 38.306 119.37 L 39.374 118.567 L 40.442 117.761 L 41.51 116.953 L 42.578 116.143 L 43.582 115.331 L 44.67 114.514 L 45.737 113.697 L 46.805 112.878 L 47.873 112.058 L 48.915 111.235 L 50.107 110.355 L 51.024 109.579 L 52.092 108.75 L 53.138 107.918 L 54.349 107.03 L 55.396 106.194 L 56.307 105.408 L 57.357 104.569 L 58.563 103.672 L 59.615 102.829 L 60.503 102.034 L 61.706 101.132 L 62.761 100.283 L 63.945 99.377 L 64.848 98.574 L 65.907 97.72 L 67.09 96.808 L 67.976 96 L 69.173 95.085 L 70.237 94.223 L 71.42 93.304 L 72.306 92.489 L 73.501 91.567 L 74.556 90.698 L 75.567 89.823 L 76.626 88.951 L 77.634 88.072 L 78.71 87.197 L 79.894 86.266 L 80.781 85.437 L 81.965 84.503 L 83.15 83.568 L 84.038 82.734 L 85.213 81.796 L 86.209 80.905 L 87.29 80.018 L 88.276 79.125 L 89.471 78.182 L 90.56 77.292 L 91.544 76.395 L 92.727 75.449 L 93.709 74.549 L 94.901 73.602 L 95.796 72.753 L 96.984 71.803 L 97.964 70.899 L 99.155 69.949 L 100.134 69.043 L 101.328 68.091 L 102.301 67.184 L 103.283 66.276 L 104.406 65.373 L 105.385 64.464 L 106.587 63.509 L 107.563 62.599 L 108.84 61.593 L 109.814 60.681 L 110.792 59.77 L 112.003 58.814 L 112.979 57.902 L 113.955 56.989 L 113.954 56.452 L 113.952 55.914 L 113.951 55.375 L 113.949 54.836 L 113.948 54.296 L 113.946 53.755 L 113.945 53.214 L 113.944 52.672 L 113.943 52.129 L 113.941 51.586 L 113.94 51.042 L 113.939 50.497 L 113.938 49.952 L 113.937 49.406 L 113.936 48.859 L 113.935 48.312 L 113.934 47.764 L 113.933 47.187 L 110.24 47.842 L 110.229 38.543 L 113.923 39.189 L 117.616 39.839 L 117.613 31.416 L 113.92 32.069 L 110.227 32.719 L 110.23 24.074 L 113.923 24.726 L 117.615 25.382 L 117.625 16.515 L 113.931 17.162 L 110.237 17.806 L 110.254 8.717 L 113.946 9.375 L 113.947 8.967 L 113.949 8.374 L 113.95 7.78 L 113.951 7.186 L 113.953 6.591 L 113.954 5.995 L 113.956 5.398 L 113.958 4.801 L 113.959 4.203 L 113.961 3.605 L 113.963 3.006 L 113.964 2.406 L 113.966 1.805 L 113.968 1.204 L 113.97 0.602 L 113.972 0 Z" vector-effect="non-scaling-stroke"/><g id="captions"><text alignment-baseline="middle" text-anchor="middle" transform="rotate(0,58.428,53.675)" x="58.428" y="53.675">LEE, 1, 0</text></g></g></svg>