<svg width="581.927" height="239.515" viewBox="0 0 581.927 239.515" xmlns="http://www.w3.org/2000/svg"><g id="svgGroup" stroke-linecap="round" fill-rule="evenodd" font-size="9pt" stroke="#000" stroke-width="0.25mm" fill="none" style="stroke:#000;stroke-width:0.25mm;fill:none"><path d="M 576.877 0 L 575.793 3.06 L 575.155 5.833 L 573.666 8.43 L 572.576 10.854 L 571.485 13.137 L 570.394 15.3 L 569.752 17.327 L 568.28 19.3 L 567.188 21.187 L 566.095 23.002 L 564.955 24.71 L 564.571 26.363 L 563.104 28.005 L 562.007 29.594 L 560.908 31.137 L 560.263 32.603 L 558.797 34.071 L 557.696 35.499 L 557.05 36.854 L 555.584 38.222 L 554.48 39.554 L 553.373 40.858 L 552.728 42.096 L 551.258 43.355 L 550.148 44.585 L 549.502 45.751 L 547.984 46.9 L 547.114 48.06 L 546.466 49.164 L 544.989 50.298 L 544.341 51.364 L 542.862 52.464 L 541.74 53.539 L 541.091 54.556 L 539.607 55.608 L 538.479 56.639 L 537.765 57.569 L 536.534 58.574 L 535.882 59.518 L 534.389 60.504 L 533.736 61.423 L 532.24 62.384 L 531.099 63.326 L 530.377 64.169 L 529.133 65.091 L 528.477 65.954 L 526.97 66.861 L 526.312 67.703 L 524.801 68.592 L 524.072 69.374 L 522.815 70.238 L 522.154 71.042 L 520.634 71.896 L 519.971 72.682 L 518.398 73.48 L 517.967 74.243 L 516.439 75.064 L 515.771 75.818 L 514.238 76.625 L 513.494 77.324 L 512.216 78.109 L 511.543 78.834 L 510 79.612 L 509.251 80.284 L 507.962 81.042 L 507.284 81.74 L 506.171 82.403 L 504.876 83.142 L 504.193 83.821 L 502.585 84.518 L 502.131 85.176 L 500.567 85.9 L 499.802 86.518 L 499.013 87.17 L 497.441 87.878 L 496.671 88.479 L 495.354 89.168 L 494.656 89.795 L 493.524 90.393 L 492.199 91.067 L 491.496 91.679 L 490.358 92.263 L 489.025 92.923 L 488.241 93.484 L 487.433 94.081 L 485.787 94.701 L 485.301 95.275 L 484.229 95.868 L 482.577 96.475 L 482.083 97.036 L 480.931 97.582 L 479.574 98.202 L 478.773 98.726 L 477.946 99.283 L 476.281 99.868 L 475.773 100.404 L 474.61 100.926 L 473.237 101.523 L 472.423 102.024 L 471.584 102.558 L 470.414 103.066 L 468.989 103.616 L 468.463 104.125 L 467.288 104.623 L 466.437 105.139 L 464.748 105.687 L 464.211 106.181 L 463.029 106.666 L 462.099 107.137 L 460.693 107.694 L 459.855 108.154 L 458.919 108.615 L 458.05 109.105 L 456.343 109.629 L 455.716 110.066 L 454.839 110.547 L 453.641 111.006 L 452.693 111.45 L 451.262 111.979 L 450.404 112.413 L 449.449 112.849 L 448.493 113.282 L 447.598 113.742 L 445.873 114.239 L 445.219 114.648 L 444.254 115.071 L 443.349 115.52 L 442.132 115.95 L 440.643 116.423 L 439.976 116.819 L 439.001 117.229 L 438.082 117.666 L 436.857 118.083 L 435.875 118.486 L 434.892 118.887 L 433.387 119.343 L 432.701 119.723 L 431.766 120.145 L 430.53 120.549 L 429.535 120.939 L 428.538 121.326 L 427.54 121.711 L 426.539 122.094 L 425.016 122.533 L 424.307 122.895 L 423.3 123.271 L 422.29 123.646 L 421.278 124.018 L 420.264 124.389 L 419.248 124.757 L 418.229 125.124 L 417.209 125.489 L 416.186 125.851 L 414.641 126.271 L 413.904 126.613 L 412.874 126.97 L 411.842 127.325 L 410.808 127.678 L 409.772 128.03 L 408.734 128.38 L 407.693 128.728 L 406.65 129.074 L 405.605 129.419 L 404.558 129.762 L 403.508 130.103 L 402.456 130.442 L 401.402 130.78 L 400.346 131.116 L 399.287 131.451 L 398.142 131.762 L 397.36 132.076 L 396.295 132.405 L 395.227 132.734 L 394.158 133.06 L 393.086 133.385 L 391.464 133.744 L 390.887 134.033 L 389.807 134.353 L 388.726 134.672 L 387.642 134.99 L 386.481 135.284 L 385.667 135.581 L 385.376 135.82 L 383.731 136.165 L 382.637 136.475 L 381.472 136.764 L 380.641 137.053 L 379.54 137.359 L 378.436 137.664 L 377.267 137.947 L 376.424 138.231 L 375.313 138.532 L 374.14 138.811 L 373.288 139.091 L 372.171 139.388 L 370.994 139.664 L 370.133 139.94 L 369.008 140.233 L 367.828 140.505 L 366.958 140.777 L 365.826 141.067 L 364.642 141.335 L 363.763 141.604 L 362.624 141.889 L 361.436 142.154 L 361.326 142.344 L 359.62 142.641 L 358.725 142.904 L 357.575 143.184 L 356.382 143.443 L 355.478 143.702 L 354.282 143.959 L 353.373 144.217 L 352.174 144.471 L 351.259 144.727 L 350.092 144.999 L 349.6 145.177 L 348.234 145.461 L 347.031 145.711 L 346.099 145.961 L 344.893 146.208 L 343.955 146.456 L 342.747 146.702 L 341.803 146.948 L 340.591 147.191 L 340.399 147.36 L 338.702 147.636 L 337.745 147.878 L 336.531 148.118 L 335.568 148.358 L 334.35 148.595 L 333.365 148.814 L 333.145 148.977 L 331.45 149.246 L 330.472 149.481 L 329.249 149.714 L 328.265 149.948 L 327.039 150.179 L 326.041 150.392 L 325.791 150.549 L 324.1 150.811 L 323.096 151.021 L 322.094 151.25 L 320.861 151.475 L 319.853 151.703 L 319.302 151.855 L 317.89 152.092 L 316.872 152.317 L 315.634 152.538 L 314.615 152.741 L 314.318 152.89 L 312.634 153.142 L 311.609 153.343 L 310.572 153.563 L 309.328 153.78 L 308.297 153.978 L 307.975 154.122 L 306.294 154.37 L 305.257 154.567 L 304.219 154.762 L 303.88 154.903 L 302.201 155.148 L 301.158 155.341 L 300.112 155.534 L 299.042 155.746 L 298.451 155.883 L 297.029 156.104 L 295.976 156.294 L 294.894 156.503 L 293.632 156.708 L 293.236 156.826 L 291.811 157.042 L 290.716 157.249 L 289.45 157.452 L 289.042 157.566 L 287.615 157.78 L 286.546 157.964 L 285.435 158.168 L 284.817 158.297 L 283.39 158.508 L 282.313 158.689 L 281.233 158.869 L 280.805 158.98 L 279.326 159.208 L 278.049 159.403 L 276.962 159.581 L 276.521 159.689 L 275.088 159.894 L 273.997 160.07 L 272.903 160.246 L 272.438 160.37 L 270.773 160.592 L 269.673 160.765 L 269.211 160.87 L 267.776 161.07 L 266.672 161.242 L 265.565 161.413 L 265.095 161.516 L 263.655 161.714 L 262.543 161.883 L 262.035 162.003 L 260.376 162.218 L 259.258 162.386 L 258.138 162.553 L 257.646 162.652 L 256.205 162.846 L 255.08 163.011 L 254.581 163.109 L 253.138 163.301 L 252.007 163.465 L 251.5 163.561 L 250.055 163.751 L 248.92 163.914 L 248.404 164.009 L 246.958 164.197 L 245.817 164.358 L 245.293 164.451 L 243.845 164.638 L 242.699 164.797 L 242.166 164.89 L 240.717 165.074 L 239.565 165.232 L 239.024 165.323 L 237.574 165.506 L 236.417 165.663 L 235.867 165.753 L 234.416 165.934 L 233.253 166.089 L 232.695 166.178 L 231.242 166.357 L 230.074 166.511 L 229.507 166.598 L 228.053 166.776 L 226.879 166.928 L 226.303 167.015 L 224.848 167.191 L 223.735 167.323 L 223.356 167.39 L 221.895 167.565 L 220.711 167.714 L 220.123 167.798 L 218.661 167.971 L 218.065 168.055 L 216.605 168.227 L 215.411 168.374 L 214.805 168.457 L 213.426 168.608 L 212.417 168.736 L 211.809 168.818 L 210.342 168.986 L 209.725 169.067 L 208.26 169.235 L 207.052 169.379 L 206.425 169.459 L 205.051 169.605 L 204.606 169.667 L 203.137 169.833 L 201.921 169.974 L 201.282 170.053 L 199.812 170.217 L 198.59 170.357 L 197.976 170.42 L 196.752 170.559 L 196.101 170.636 L 194.627 170.798 L 193.967 170.874 L 192.605 171.013 L 191.545 171.135 L 190.881 171.21 L 189.404 171.369 L 188.731 171.444 L 187.372 171.581 L 186.299 171.7 L 185.622 171.774 L 184.142 171.931 L 183.456 172.005 L 182.101 172.138 L 181.579 172.195 L 180.097 172.35 L 178.841 172.484 L 178.142 172.556 L 176.79 172.687 L 176.251 172.743 L 174.766 172.896 L 174.055 172.967 L 172.709 173.096 L 171.599 173.211 L 170.884 173.281 L 169.396 173.432 L 168.758 173.484 L 167.484 173.613 L 166.756 173.683 L 165.412 173.807 L 164.836 173.862 L 163.345 174.01 L 162.061 174.137 L 161.416 174.187 L 160.13 174.313 L 159.385 174.381 L 158.044 174.502 L 157.447 174.556 L 155.949 174.7 L 155.192 174.767 L 153.857 174.887 L 153.242 174.939 L 151.744 175.082 L 151.091 175.128 L 149.787 175.252 L 149.014 175.317 L 147.684 175.433 L 146.515 175.542 L 145.737 175.607 L 144.404 175.722 L 143.764 175.773 L 142.258 175.913 L 141.596 175.956 L 140.276 176.076 L 139.482 176.14 L 138.155 176.252 L 137.494 176.302 L 135.984 176.439 L 135.317 176.48 L 133.987 176.599 L 133.176 176.661 L 131.854 176.77 L 131.171 176.819 L 129.848 176.927 L 129.161 176.976 L 127.645 177.11 L 126.971 177.149 L 125.628 177.265 L 124.796 177.326 L 123.48 177.431 L 122.77 177.479 L 121.453 177.584 L 120.739 177.631 L 119.218 177.762 L 118.537 177.798 L 117.179 177.913 L 116.496 177.948 L 115.135 178.062 L 114.28 178.12 L 112.968 178.221 L 112.227 178.268 L 111.383 178.317 L 110.013 178.429 L 109.141 178.487 L 107.839 178.585 L 107.076 178.632 L 105.772 178.729 L 105.006 178.775 L 103.701 178.871 L 102.93 178.917 L 101.624 179.013 L 100.85 179.058 L 99.314 179.183 L 98.617 179.213 L 97.226 179.322 L 96.526 179.351 L 95.624 179.407 L 94.327 179.499 L 93.525 179.544 L 92.227 179.636 L 91.421 179.68 L 90.122 179.771 L 89.312 179.815 L 87.769 179.935 L 87.061 179.963 L 85.651 180.069 L 84.942 180.095 L 84.011 180.149 L 82.722 180.236 L 81.883 180.28 L 80.593 180.367 L 79.75 180.41 L 78.459 180.496 L 77.612 180.539 L 76.771 180.576 L 75.344 180.68 L 74.627 180.704 L 73.196 180.807 L 72.477 180.83 L 71.043 180.932 L 70.322 180.955 L 69.356 181.007 L 68.075 181.088 L 67.191 181.13 L 65.91 181.211 L 65.022 181.253 L 63.74 181.333 L 63.099 181.345 L 62.119 181.396 L 60.836 181.474 L 59.937 181.516 L 58.654 181.594 L 57.75 181.635 L 56.908 181.665 L 55.449 181.764 L 54.714 181.783 L 53.252 181.881 L 52.516 181.899 L 51.049 181.997 L 50.312 182.015 L 49.574 182.032 L 48.103 182.129 L 47.362 182.146 L 45.888 182.243 L 45.146 182.259 L 44.121 182.307 L 42.85 182.378 L 42.18 182.386 L 40.697 182.482 L 39.95 182.497 L 38.915 182.544 L 37.644 182.614 L 36.676 182.653 L 35.835 182.676 L 34.655 182.736 L 33.68 182.775 L 32.408 182.843 L 31.427 182.882 L 30.585 182.903 L 29.402 182.961 L 28.414 183 L 27.143 183.066 L 26.149 183.104 L 25.305 183.124 L 24.12 183.18 L 23.118 183.218 L 22.273 183.238 L 20.758 183.329 L 19.995 183.339 L 18.807 183.393 L 17.791 183.431 L 16.945 183.449 L 15.421 183.539 L 14.654 183.548 L 13.886 183.556 L 12.357 183.646 L 11.587 183.654 L 10.817 183.662 L 9.283 183.75 L 8.511 183.758 L 6.973 183.846 L 6.199 183.853 L 5.424 183.859 L 3.881 183.947 L 3.104 183.953 L 2.327 183.959 L 0.779 184.046 L 0 184.052 L 5.686 239.515 L 6.463 239.498 L 8.009 239.4 L 8.784 239.383 L 9.559 239.365 L 11.101 239.267 L 11.875 239.249 L 12.648 239.231 L 14.185 239.132 L 14.957 239.114 L 16.491 239.015 L 17.261 238.996 L 18.03 238.977 L 19.56 238.878 L 20.327 238.859 L 21.094 238.84 L 22.62 238.74 L 23.386 238.721 L 24.333 238.681 L 25.673 238.601 L 26.436 238.581 L 27.954 238.481 L 28.716 238.461 L 29.657 238.421 L 30.992 238.34 L 31.751 238.319 L 32.689 238.279 L 34.021 238.198 L 34.956 238.157 L 36.286 238.075 L 37.042 238.054 L 37.973 238.013 L 39.3 237.931 L 40.228 237.89 L 41.554 237.808 L 42.306 237.786 L 43.231 237.744 L 44.554 237.661 L 45.476 237.62 L 46.225 237.597 L 47.716 237.495 L 48.464 237.472 L 49.782 237.388 L 50.698 237.346 L 51.444 237.322 L 52.928 237.22 L 53.672 237.196 L 55.153 237.093 L 55.896 237.069 L 56.638 237.044 L 58.115 236.941 L 58.855 236.916 L 60.329 236.813 L 61.068 236.788 L 62.539 236.684 L 63.277 236.659 L 64.177 236.615 L 65.48 236.529 L 66.378 236.485 L 67.68 236.399 L 68.575 236.355 L 69.308 236.329 L 70.607 236.242 L 71.499 236.197 L 72.796 236.11 L 73.685 236.065 L 74.98 235.978 L 75.867 235.933 L 76.595 235.906 L 78.044 235.8 L 78.771 235.773 L 80.217 235.667 L 80.942 235.639 L 82.386 235.533 L 83.109 235.504 L 83.986 235.458 L 85.272 235.369 L 86.147 235.323 L 87.43 235.234 L 88.302 235.187 L 89.584 235.098 L 90.454 235.051 L 91.171 235.021 L 92.601 234.914 L 93.317 234.884 L 94.743 234.776 L 95.607 234.728 L 96.881 234.638 L 97.743 234.59 L 99.015 234.499 L 99.874 234.451 L 101.144 234.359 L 102.001 234.311 L 102.711 234.28 L 104.124 234.171 L 104.832 234.139 L 106.242 234.03 L 107.093 233.98 L 108.356 233.888 L 109.205 233.838 L 110.466 233.746 L 111.312 233.696 L 112.571 233.603 L 113.415 233.553 L 114.672 233.459 L 115.514 233.409 L 116.909 233.298 L 117.609 233.264 L 118.447 233.214 L 119.699 233.119 L 120.535 233.068 L 121.923 232.957 L 122.618 232.922 L 124.004 232.81 L 124.698 232.775 L 126.08 232.663 L 126.909 232.611 L 128.152 232.515 L 128.979 232.463 L 130.22 232.367 L 131.045 232.314 L 132.418 232.201 L 133.107 232.165 L 134.477 232.051 L 135.297 231.998 L 136.532 231.901 L 137.349 231.847 L 138.582 231.75 L 139.397 231.696 L 140.759 231.581 L 141.441 231.543 L 142.8 231.429 L 143.611 231.374 L 144.837 231.275 L 145.646 231.22 L 146.999 231.105 L 147.676 231.066 L 149.026 230.95 L 149.83 230.895 L 151.05 230.795 L 151.852 230.739 L 153.196 230.622 L 154.412 230.522 L 155.211 230.465 L 156.55 230.349 L 157.221 230.308 L 158.558 230.19 L 159.352 230.133 L 160.561 230.031 L 161.353 229.974 L 162.684 229.856 L 163.473 229.798 L 164.678 229.695 L 165.466 229.637 L 166.791 229.519 L 167.454 229.475 L 168.776 229.356 L 170.097 229.237 L 170.878 229.178 L 172.075 229.074 L 172.855 229.014 L 174.169 228.894 L 174.827 228.85 L 176.139 228.729 L 176.915 228.669 L 178.223 228.548 L 179.412 228.443 L 180.184 228.382 L 181.488 228.26 L 182.258 228.199 L 183.442 228.092 L 184.21 228.03 L 185.508 227.908 L 186.805 227.786 L 187.569 227.724 L 188.747 227.616 L 189.51 227.553 L 190.8 227.43 L 191.56 227.367 L 192.848 227.243 L 194.02 227.134 L 194.777 227.07 L 196.06 226.946 L 196.815 226.882 L 198.095 226.757 L 199.261 226.647 L 200.013 226.582 L 201.288 226.457 L 202.038 226.391 L 203.31 226.265 L 203.947 226.214 L 205.217 226.088 L 206.485 225.961 L 207.229 225.895 L 208.494 225.768 L 209.757 225.641 L 210.497 225.573 L 211.65 225.46 L 212.388 225.393 L 213.646 225.264 L 214.901 225.136 L 215.637 225.068 L 216.89 224.939 L 217.623 224.87 L 218.873 224.74 L 220.015 224.625 L 220.745 224.556 L 221.99 224.425 L 223.234 224.295 L 223.961 224.225 L 225.201 224.094 L 225.926 224.023 L 227.164 223.891 L 228.4 223.76 L 229.121 223.688 L 230.251 223.57 L 231.483 223.438 L 232.201 223.365 L 233.43 223.232 L 234.657 223.099 L 235.372 223.026 L 236.596 222.892 L 237.818 222.757 L 238.53 222.683 L 239.749 222.549 L 240.966 222.414 L 241.676 222.339 L 242.89 222.203 L 244.103 222.067 L 244.809 221.992 L 246.018 221.855 L 247.226 221.719 L 247.929 221.642 L 249.134 221.505 L 250.338 221.367 L 251.037 221.29 L 252.238 221.151 L 253.437 221.013 L 254.133 220.935 L 255.329 220.795 L 256.523 220.656 L 257.217 220.577 L 258.408 220.437 L 259.597 220.296 L 260.288 220.216 L 261.474 220.075 L 262.659 219.934 L 263.347 219.853 L 264.529 219.711 L 265.709 219.568 L 266.887 219.426 L 267.665 219.329 L 268.841 219.186 L 270.014 219.042 L 270.694 218.959 L 271.865 218.815 L 273.034 218.67 L 274.202 218.525 L 274.878 218.44 L 276.042 218.295 L 277.205 218.149 L 277.97 218.049 L 279.13 217.902 L 280.288 217.755 L 281.444 217.607 L 282.113 217.52 L 283.267 217.372 L 284.418 217.224 L 285.659 217.06 L 286.324 216.972 L 287.471 216.822 L 288.616 216.672 L 289.759 216.522 L 290.42 216.432 L 291.65 216.266 L 292.789 216.115 L 293.926 215.963 L 294.583 215.872 L 295.717 215.719 L 296.938 215.551 L 298.068 215.398 L 298.721 215.305 L 299.849 215.15 L 301.062 214.981 L 302.187 214.826 L 303.309 214.67 L 303.957 214.576 L 305.163 214.405 L 306.281 214.248 L 307.397 214.091 L 308.511 213.933 L 309.24 213.822 L 310.351 213.663 L 311.461 213.504 L 312.569 213.344 L 313.293 213.231 L 314.398 213.071 L 315.502 212.91 L 316.688 212.735 L 317.788 212.573 L 318.886 212.41 L 319.603 212.295 L 320.698 212.132 L 321.791 211.968 L 322.967 211.79 L 324.056 211.625 L 324.684 211.522 L 325.854 211.342 L 326.939 211.176 L 328.106 210.995 L 329.187 210.828 L 330.267 210.66 L 330.971 210.539 L 332.048 210.371 L 333.123 210.202 L 334.279 210.018 L 335.35 209.848 L 336.502 209.663 L 337.57 209.492 L 338.266 209.367 L 339.332 209.195 L 340.395 209.023 L 341.538 208.835 L 342.598 208.661 L 343.737 208.472 L 344.793 208.297 L 345.481 208.169 L 346.535 207.993 L 347.667 207.802 L 348.717 207.625 L 349.845 207.432 L 350.892 207.254 L 352.016 207.06 L 353.059 206.881 L 354.18 206.686 L 354.778 206.568 L 355.895 206.372 L 357.011 206.175 L 358.046 205.992 L 359.157 205.794 L 360.189 205.611 L 361.297 205.411 L 362.324 205.227 L 363.429 205.026 L 364.531 204.824 L 365.553 204.638 L 366.219 204.498 L 367.238 204.31 L 368.334 204.106 L 369.427 203.901 L 370.441 203.711 L 371.531 203.505 L 372.619 203.298 L 373.628 203.106 L 374.712 202.898 L 375.795 202.689 L 376.798 202.495 L 377.877 202.284 L 378.953 202.073 L 379.952 201.877 L 381.025 201.664 L 382.096 201.45 L 383.088 201.252 L 384.156 201.037 L 385.221 200.821 L 386.285 200.604 L 387.271 200.403 L 388.331 200.185 L 389.389 199.966 L 390.029 199.81 L 391.084 199.589 L 392.062 199.384 L 393.113 199.162 L 394.163 198.939 L 395.211 198.715 L 396.256 198.49 L 397.636 198.217 L 398.678 197.99 L 399.717 197.763 L 400.755 197.535 L 401.791 197.305 L 402.825 197.075 L 403.783 196.861 L 404.813 196.629 L 405.842 196.396 L 406.868 196.163 L 407.893 195.928 L 408.916 195.692 L 409.938 195.456 L 410.957 195.218 L 411.975 194.98 L 412.991 194.74 L 414.005 194.5 L 415.017 194.258 L 416.027 194.016 L 417.036 193.773 L 418.043 193.528 L 419.047 193.283 L 420.444 192.971 L 421.445 192.723 L 422.443 192.475 L 423.44 192.225 L 424.436 191.974 L 425.429 191.723 L 426.421 191.47 L 427.411 191.216 L 428.399 190.961 L 429.385 190.705 L 430.755 190.381 L 431.737 190.123 L 432.717 189.863 L 433.696 189.603 L 434.673 189.341 L 435.648 189.078 L 436.694 188.794 L 437.666 188.529 L 439.014 188.196 L 439.981 187.928 L 440.946 187.659 L 441.91 187.389 L 442.945 187.097 L 443.906 186.825 L 444.864 186.551 L 446.193 186.209 L 447.148 185.932 L 448.174 185.634 L 449.125 185.355 L 450.074 185.074 L 451.389 184.726 L 452.407 184.422 L 453.351 184.137 L 454.292 183.851 L 455.232 183.564 L 456.606 183.187 L 457.542 182.897 L 458.476 182.606 L 459.482 182.291 L 460.413 181.997 L 461.701 181.634 L 462.701 181.315 L 463.626 181.016 L 464.549 180.716 L 465.899 180.324 L 466.818 180.021 L 467.736 179.716 L 468.726 179.388 L 469.991 179.011 L 470.977 178.68 L 471.887 178.369 L 472.87 178.033 L 474.124 177.651 L 475.029 177.335 L 476.006 176.994 L 476.908 176.675 L 478.225 176.262 L 479.123 175.94 L 480.093 175.592 L 481.329 175.197 L 482.295 174.846 L 483.186 174.517 L 484.486 174.092 L 485.373 173.759 L 486.333 173.4 L 487.552 172.994 L 488.507 172.631 L 489.462 172.267 L 490.673 171.855 L 491.623 171.486 L 492.498 171.14 L 493.775 170.697 L 494.646 170.347 L 495.59 169.971 L 496.859 169.521 L 497.725 169.166 L 498.665 168.783 L 499.926 168.327 L 500.786 167.965 L 502.042 167.504 L 502.975 167.112 L 503.83 166.745 L 505.078 166.277 L 506.007 165.878 L 507.174 165.433 L 508.098 165.029 L 509.336 164.552 L 510.181 164.171 L 511.101 163.761 L 512.331 163.276 L 513.171 162.889 L 514.396 162.399 L 515.31 161.979 L 516.529 161.484 L 517.362 161.087 L 518.577 160.587 L 519.485 160.157 L 520.694 159.651 L 521.599 159.216 L 522.725 158.734 L 523.627 158.294 L 524.826 157.777 L 525.725 157.331 L 526.92 156.809 L 527.737 156.387 L 528.926 155.859 L 529.82 155.402 L 531.004 154.869 L 531.896 154.406 L 533.075 153.866 L 533.884 153.429 L 535.059 152.883 L 536.231 152.334 L 537.115 151.857 L 538.283 151.302 L 539.165 150.818 L 540.328 150.257 L 541.125 149.799 L 542.284 149.231 L 543.44 148.66 L 544.315 148.161 L 545.467 147.583 L 546.616 147.002 L 547.488 146.493 L 548.633 145.905 L 549.503 145.39 L 550.644 144.795 L 551.697 144.23 L 552.564 143.704 L 553.698 143.098 L 554.829 142.489 L 555.693 141.953 L 556.82 141.336 L 557.945 140.716 L 559.067 140.091 L 559.927 139.541 L 561.046 138.909 L 562.162 138.273 L 563.02 137.711 L 564.133 137.067 L 565.243 136.419 L 566.351 135.768 L 567.205 135.19 L 568.22 134.566 L 569.323 133.902 L 570.423 133.233 L 571.521 132.561 L 572.37 131.962 L 573.465 131.281 L 574.558 130.596 L 575.649 129.905 L 576.737 129.211 L 577.584 128.591 L 578.67 127.887 L 578.634 126.876 L 578.599 125.859 L 578.564 124.837 L 578.529 123.809 L 578.495 122.777 L 578.461 121.739 L 578.427 120.696 L 578.394 119.648 L 578.361 118.594 L 578.329 117.535 L 578.297 116.471 L 578.265 115.402 L 578.233 114.327 L 578.218 113.802 L 581.927 114.353 L 581.678 105.13 L 578.004 105.881 L 574.328 106.622 L 574.147 99.185 L 577.855 99.746 L 581.561 100.318 L 581.342 90.12 L 577.664 90.85 L 573.984 91.57 L 573.828 83.292 L 577.533 83.874 L 581.236 84.463 L 581.092 75.793 L 577.411 76.505 L 573.727 77.21 L 573.596 68.146 L 577.298 68.744 L 580.999 69.349 L 580.882 59.89 L 577.198 60.587 L 573.512 61.277 L 573.435 54.124 L 577.135 54.736 L 580.834 55.354 L 580.742 45.166 L 577.055 45.85 L 573.367 46.529 L 573.309 38.766 L 577.007 39.39 L 580.704 40.019 L 580.655 31.978 L 576.966 32.652 L 573.276 33.321 L 573.236 25.001 L 576.932 25.634 L 580.627 26.273 L 580.589 14.681 L 576.898 15.344 L 576.894 13.772 L 576.891 12.264 L 576.888 10.751 L 576.885 9.232 L 576.883 7.707 L 576.881 6.177 L 576.88 4.641 L 576.879 3.1 L 576.878 1.553 L 576.877 0 Z" vector-effect="non-scaling-stroke"/><path d="M 516.439 75.064 L 516.46 76.092 L 516.481 77.116 L 516.503 78.137 L 516.525 79.154 L 516.547 80.168 L 516.569 81.177 L 516.592 82.183 L 516.614 83.186 L 516.637 84.184 L 516.66 85.179 L 516.683 86.17 L 516.706 87.158 L 516.729 88.142 L 516.753 89.122 L 516.777 90.099 L 516.801 91.072 L 516.825 92.041 L 516.849 93.007 L 516.874 93.969 L 516.898 94.927 L 516.923 95.882 L 516.948 96.833 L 516.973 97.78 L 516.999 98.724 L 517.024 99.664 L 517.05 100.601 L 517.076 101.534 L 517.102 102.463 L 517.128 103.389 L 517.155 104.311 L 517.181 105.23 L 517.208 106.144 L 517.235 107.056 L 517.263 107.963 L 517.29 108.868 L 517.318 109.768 L 517.345 110.665 L 517.373 111.558 L 517.401 112.448 L 517.43 113.334 L 517.458 114.217 L 517.487 115.096 L 517.516 115.971 L 517.545 116.843 L 517.574 117.712 L 517.604 118.577 L 517.633 119.438 L 517.663 120.296 L 517.693 121.15 L 517.723 122.001 L 517.754 122.848 L 517.784 123.692 L 517.815 124.532 L 517.846 125.368 L 517.877 126.201 L 517.909 127.031 L 517.94 127.857 L 517.972 128.68 L 518.004 129.499 L 518.036 130.315 L 518.068 131.127 L 518.101 131.936 L 518.134 132.741 L 518.167 133.543 L 518.2 134.341 L 518.233 135.136 L 518.267 135.927 L 518.3 136.715 L 518.334 137.5 L 518.368 138.281 L 518.403 139.059 L 518.437 139.833 L 518.472 140.604 L 518.507 141.372 L 518.542 142.136 L 518.577 142.897 L 518.613 143.654 L 518.648 144.408 L 518.684 145.159 L 518.72 145.906 L 518.756 146.65 L 518.793 147.391 L 518.83 148.128 L 518.867 148.862 L 518.904 149.592 L 518.941 150.32 L 518.978 151.044 L 519.016 151.764 L 519.054 152.482 L 519.092 153.196 L 519.13 153.906 L 519.169 154.614 L 519.208 155.318 L 519.247 156.019 L 519.286 156.717 L 519.325 157.411 L 519.365 158.103 L 519.404 158.791 L 519.444 159.475 L 519.485 160.157 M 258.138 162.553 L 258.197 163.268 L 258.256 163.98 L 258.315 164.688 L 258.374 165.393 L 258.432 166.095 L 258.49 166.794 L 258.548 167.49 L 258.606 168.182 L 258.664 168.871 L 258.721 169.557 L 258.779 170.24 L 258.836 170.92 L 258.893 171.596 L 258.95 172.27 L 259.006 172.94 L 259.063 173.607 L 259.119 174.271 L 259.175 174.932 L 259.231 175.59 L 259.287 176.245 L 259.343 176.896 L 259.398 177.545 L 259.453 178.191 L 259.509 178.833 L 259.564 179.473 L 259.619 180.109 L 259.673 180.743 L 259.728 181.373 L 259.782 182 L 259.837 182.625 L 259.891 183.246 L 259.945 183.865 L 259.998 184.481 L 260.052 185.093 L 260.106 185.703 L 260.159 186.31 L 260.212 186.914 L 260.265 187.515 L 260.318 188.114 L 260.371 188.709 L 260.424 189.302 L 260.476 189.891 L 260.529 190.478 L 260.581 191.062 L 260.633 191.644 L 260.685 192.222 L 260.737 192.798 L 260.789 193.371 L 260.84 193.942 L 260.892 194.509 L 260.943 195.074 L 260.994 195.637 L 261.045 196.196 L 261.096 196.753 L 261.147 197.308 L 261.198 197.859 L 261.249 198.409 L 261.299 198.955 L 261.35 199.499 L 261.4 200.041 L 261.45 200.58 L 261.5 201.116 L 261.55 201.65 L 261.6 202.182 L 261.65 202.711 L 261.7 203.237 L 261.75 203.762 L 261.799 204.284 L 261.849 204.803 L 261.898 205.32 L 261.947 205.835 L 261.996 206.347 L 262.045 206.858 L 262.094 207.365 L 262.143 207.871 L 262.192 208.375 L 262.241 208.876 L 262.29 209.375 L 262.338 209.872 L 262.387 210.367 L 262.435 210.859 L 262.484 211.35 L 262.532 211.838 L 262.58 212.325 L 262.629 212.809 L 262.677 213.292 L 262.725 213.772 L 262.773 214.251 L 262.821 214.728 L 262.869 215.202 L 262.917 215.675 L 262.965 216.147 L 263.013 216.616 L 263.06 217.083 L 263.108 217.549 L 263.156 218.013 L 263.204 218.476 L 263.251 218.936 L 263.299 219.395 L 263.347 219.853 M 0 184.052 L 0.069 184.74 L 0.139 185.425 L 0.207 186.107 L 0.276 186.786 L 0.344 187.462 L 0.412 188.135 L 0.48 188.805 L 0.548 189.472 L 0.615 190.137 L 0.682 190.798 L 0.748 191.456 L 0.815 192.111 L 0.881 192.764 L 0.946 193.413 L 1.012 194.06 L 1.077 194.703 L 1.142 195.344 L 1.207 195.982 L 1.271 196.617 L 1.335 197.249 L 1.399 197.878 L 1.463 198.504 L 1.526 199.128 L 1.589 199.748 L 1.652 200.366 L 1.714 200.981 L 1.776 201.593 L 1.838 202.203 L 1.9 202.809 L 1.961 203.413 L 2.023 204.014 L 2.084 204.612 L 2.144 205.207 L 2.205 205.8 L 2.265 206.39 L 2.325 206.977 L 2.384 207.562 L 2.444 208.143 L 2.503 208.723 L 2.562 209.299 L 2.62 209.873 L 2.679 210.444 L 2.737 211.012 L 2.794 211.578 L 2.852 212.141 L 2.909 212.702 L 2.967 213.26 L 3.023 213.815 L 3.08 214.368 L 3.137 214.918 L 3.193 215.466 L 3.249 216.011 L 3.304 216.554 L 3.36 217.094 L 3.415 217.632 L 3.47 218.167 L 3.525 218.699 L 3.579 219.23 L 3.634 219.758 L 3.688 220.283 L 3.742 220.806 L 3.795 221.327 L 3.849 221.845 L 3.902 222.361 L 3.955 222.874 L 4.007 223.386 L 4.06 223.894 L 4.112 224.401 L 4.164 224.905 L 4.216 225.408 L 4.268 225.907 L 4.32 226.405 L 4.371 226.9 L 4.422 227.394 L 4.473 227.885 L 4.524 228.374 L 4.574 228.86 L 4.624 229.345 L 4.674 229.828 L 4.724 230.308 L 4.774 230.787 L 4.824 231.263 L 4.873 231.738 L 4.922 232.21 L 4.971 232.68 L 5.02 233.149 L 5.068 233.615 L 5.117 234.08 L 5.165 234.543 L 5.213 235.004 L 5.261 235.463 L 5.309 235.92 L 5.357 236.375 L 5.404 236.829 L 5.451 237.281 L 5.499 237.731 L 5.545 238.18 L 5.592 238.627 L 5.639 239.072 L 5.686 239.515" id="blue" stroke="blue" style="stroke:blue" vector-effect="non-scaling-stroke"/><g id="captions"><text alignment-baseline="middle" text-anchor="middle" transform="rotate(0,290.202,186.948)" x="290.202" y="186.948">LEE, 2, 1</text></g></g></svg>