<svg width="684.261" height="300.153" viewBox="0 0 684.261 300.153" xmlns="http://www.w3.org/2000/svg"><g id="svgGroup" stroke-linecap="round" fill-rule="evenodd" font-size="9pt" stroke="#000" stroke-width="0.25mm" fill="none" style="stroke:#000;stroke-width:0.25mm;fill:none"><path d="M 678.856 0 L 677.898 4.099 L 676.938 7.663 L 675.866 10.906 L 674.79 13.84 L 673.825 16.566 L 672.584 19.235 L 671.59 21.659 L 670.52 24.012 L 669.443 26.222 L 668.588 28.318 L 667.397 30.367 L 666.422 32.346 L 665.355 34.31 L 664.277 36.176 L 663.21 38.037 L 662.129 39.808 L 661.061 41.582 L 660.19 43.195 L 659.027 44.896 L 657.941 46.518 L 656.873 48.153 L 655.783 49.715 L 654.947 51.212 L 653.676 52.768 L 652.583 54.253 L 651.75 55.674 L 650.547 57.115 L 649.474 58.577 L 648.601 59.89 L 647.435 61.314 L 646.267 62.72 L 645.393 63.977 L 644.224 65.348 L 643.305 66.616 L 642.088 67.912 L 641.259 69.147 L 640.039 70.413 L 639.209 71.618 L 637.93 72.901 L 637.05 74.037 L 635.872 75.291 L 634.955 76.445 L 633.671 77.677 L 632.787 78.763 L 631.603 79.969 L 630.685 81.074 L 629.695 82.129 L 628.507 83.302 L 627.588 84.375 L 626.294 85.529 L 625.401 86.54 L 624.481 87.583 L 623.182 88.708 L 622.26 89.731 L 621.261 90.707 L 620.338 91.712 L 619.033 92.8 L 618.108 93.787 L 617.083 94.769 L 616.078 95.702 L 614.865 96.754 L 613.936 97.708 L 612.908 98.656 L 611.88 99.597 L 610.851 100.53 L 609.562 101.507 L 608.709 102.42 L 607.677 103.33 L 606.643 104.234 L 605.609 105.13 L 604.574 106.02 L 603.27 106.955 L 602.407 107.825 L 601.367 108.694 L 600.327 109.557 L 599.285 110.413 L 598.243 111.262 L 597.199 112.106 L 596.154 112.943 L 595.108 113.774 L 594.07 114.564 L 593.115 115.379 L 592.065 116.192 L 591.013 116.999 L 589.96 117.801 L 588.905 118.597 L 587.849 119.387 L 586.791 120.172 L 585.732 120.951 L 584.671 121.724 L 583.609 122.493 L 582.544 123.256 L 581.479 124.014 L 580.411 124.766 L 579.347 125.482 L 578.366 126.221 L 577.687 126.866 L 576.454 127.606 L 575.378 128.334 L 574.3 129.057 L 573.22 129.775 L 572.138 130.489 L 571.055 131.198 L 569.969 131.902 L 569.282 132.51 L 568.038 133.213 L 566.947 133.904 L 565.854 134.59 L 564.759 135.272 L 564.065 135.858 L 562.814 136.539 L 561.713 137.208 L 560.61 137.873 L 559.508 138.507 L 558.893 139.068 L 557.633 139.728 L 556.522 140.377 L 555.408 141.022 L 554.702 141.572 L 553.437 142.217 L 552.317 142.85 L 551.606 143.388 L 550.336 144.022 L 549.21 144.645 L 548.082 145.263 L 547.365 145.786 L 546.088 146.406 L 544.953 147.013 L 544.231 147.526 L 542.953 148.111 L 541.889 148.703 L 541.162 149.206 L 539.875 149.805 L 539.144 150.301 L 537.854 150.893 L 536.701 151.473 L 535.965 151.959 L 534.67 152.542 L 533.509 153.113 L 532.747 153.569 L 531.547 154.136 L 530.801 154.606 L 529.497 155.174 L 528.747 155.638 L 527.44 156.199 L 526.263 156.749 L 525.489 157.185 L 524.273 157.731 L 523.514 158.182 L 522.197 158.728 L 521.434 159.173 L 520.114 159.714 L 519.329 160.135 L 518.1 160.664 L 517.328 161.098 L 516.001 161.629 L 515.225 162.057 L 513.903 162.564 L 513.19 162.982 L 511.856 163.502 L 511.071 163.921 L 509.733 164.436 L 508.93 164.833 L 507.678 165.336 L 506.884 165.745 L 505.539 166.251 L 504.728 166.639 L 503.466 167.133 L 502.664 167.532 L 501.731 167.923 L 500.463 168.41 L 499.654 168.803 L 498.307 169.275 L 497.556 169.659 L 496.193 170.144 L 495.365 170.513 L 494.516 170.898 L 493.148 171.377 L 492.315 171.74 L 491.024 172.208 L 490.195 172.582 L 489.247 172.949 L 487.949 173.41 L 487.113 173.779 L 486.162 174.14 L 484.857 174.596 L 484.009 174.945 L 483.137 175.308 L 481.763 175.75 L 480.969 176.101 L 480.014 176.466 L 478.635 176.902 L 477.834 177.249 L 476.871 177.595 L 475.544 178.034 L 474.678 178.368 L 473.787 178.715 L 472.398 179.142 L 471.58 179.478 L 470.609 179.815 L 469.267 180.244 L 468.39 180.569 L 467.485 180.906 L 466.509 181.237 L 465.178 181.646 L 464.342 181.972 L 463.361 182.298 L 462.446 182.628 L 461.038 183.038 L 460.19 183.358 L 459.205 183.679 L 458.286 183.991 L 456.914 184.402 L 456.013 184.71 L 455.088 185.019 L 454.155 185.337 L 452.732 185.737 L 451.871 186.035 L 450.931 186.349 L 449.934 186.659 L 448.998 186.96 L 447.603 187.359 L 446.685 187.655 L 445.744 187.953 L 444.802 188.25 L 443.847 188.556 L 442.405 188.943 L 441.522 189.229 L 440.572 189.521 L 439.608 189.822 L 438.595 190.119 L 437.203 190.494 L 436.309 190.774 L 435.349 191.061 L 434.374 191.357 L 433.354 191.648 L 432.389 191.932 L 431.423 192.214 L 430.016 192.582 L 429.106 192.856 L 428.118 193.145 L 427.088 193.43 L 426.113 193.708 L 425.136 193.985 L 424.157 194.261 L 423.177 194.536 L 421.751 194.896 L 420.824 195.163 L 419.837 195.435 L 418.849 195.707 L 417.859 195.978 L 416.868 196.248 L 415.874 196.517 L 414.879 196.785 L 413.882 197.052 L 412.884 197.319 L 411.436 197.67 L 410.486 197.929 L 409.482 198.193 L 408.475 198.456 L 407.467 198.719 L 406.457 198.981 L 405.446 199.242 L 404.432 199.502 L 403.417 199.762 L 402.4 200.02 L 401.381 200.279 L 400.36 200.536 L 399.338 200.793 L 398.313 201.049 L 397.287 201.304 L 396.26 201.559 L 395.255 201.805 L 394.273 202.052 L 393.24 202.305 L 392.205 202.557 L 391.168 202.808 L 390.129 203.059 L 388.672 203.385 L 387.71 203.625 L 386.665 203.874 L 385.618 204.122 L 384.57 204.37 L 383.549 204.609 L 382.543 204.85 L 382.025 205 L 380.851 205.261 L 379.794 205.506 L 378.766 205.742 L 377.751 205.98 L 376.688 206.223 L 375.624 206.466 L 374.591 206.7 L 373.567 206.936 L 372.497 207.177 L 371.459 207.41 L 370.429 207.644 L 369.354 207.884 L 368.311 208.115 L 367.275 208.348 L 366.194 208.587 L 365.147 208.817 L 364.104 209.048 L 363.018 209.285 L 361.966 209.514 L 360.918 209.744 L 359.826 209.98 L 358.77 210.207 L 358.253 210.34 L 357.089 210.581 L 356.031 210.809 L 354.93 211.043 L 353.867 211.267 L 352.803 211.495 L 351.736 211.719 L 350.667 211.945 L 349.598 212.169 L 348.525 212.394 L 347.412 212.625 L 346.851 212.755 L 345.7 212.99 L 344.623 213.211 L 343.541 213.435 L 342.461 213.656 L 341.375 213.879 L 340.292 214.099 L 339.201 214.322 L 338.115 214.541 L 337.562 214.667 L 336.379 214.899 L 335.28 215.121 L 334.189 215.339 L 333.086 215.56 L 331.991 215.777 L 330.931 215.989 L 330.366 216.112 L 329.175 216.342 L 328.063 216.561 L 326.961 216.777 L 325.845 216.996 L 324.74 217.211 L 323.667 217.421 L 323.091 217.543 L 321.892 217.77 L 320.815 217.979 L 319.687 218.196 L 318.573 218.41 L 317.442 218.627 L 316.848 218.746 L 315.699 218.964 L 314.562 219.18 L 313.44 219.392 L 312.35 219.599 L 311.755 219.718 L 310.544 219.942 L 309.449 220.148 L 308.3 220.363 L 307.17 220.574 L 306.07 220.779 L 305.465 220.896 L 304.247 221.119 L 303.142 221.324 L 302.036 221.528 L 301.424 221.645 L 300.202 221.866 L 299.091 222.07 L 297.978 222.274 L 296.809 222.487 L 296.192 222.601 L 295.016 222.813 L 293.897 223.016 L 292.72 223.229 L 291.567 223.436 L 290.976 223.544 L 289.792 223.756 L 288.607 223.967 L 287.448 224.174 L 286.852 224.281 L 285.663 224.492 L 284.53 224.693 L 283.336 224.904 L 282.705 225.015 L 281.511 225.225 L 280.371 225.426 L 279.23 225.626 L 278.624 225.732 L 277.363 225.951 L 276.188 226.156 L 275.04 226.356 L 274.429 226.461 L 273.224 226.669 L 272.071 226.869 L 270.917 227.068 L 270.259 227.179 L 268.999 227.394 L 267.84 227.594 L 267.221 227.697 L 266.006 227.904 L 264.843 228.103 L 263.678 228.302 L 263.055 228.404 L 261.833 228.611 L 260.664 228.809 L 259.989 228.919 L 258.718 229.133 L 257.544 229.331 L 256.368 229.528 L 255.736 229.63 L 254.505 229.836 L 253.324 230.033 L 252.689 230.134 L 251.454 230.34 L 250.269 230.537 L 249.63 230.638 L 248.39 230.843 L 247.201 231.04 L 246.559 231.14 L 245.315 231.345 L 244.121 231.541 L 243.475 231.641 L 242.227 231.845 L 241.029 232.042 L 240.379 232.141 L 239.127 232.345 L 237.924 232.541 L 237.271 232.64 L 236.015 232.844 L 234.807 233.04 L 234.151 233.138 L 232.891 233.342 L 231.678 233.537 L 231.018 233.636 L 229.753 233.839 L 228.536 234.034 L 227.873 234.132 L 226.604 234.335 L 225.382 234.53 L 224.715 234.628 L 223.442 234.831 L 222.291 235.014 L 221.648 235.107 L 220.371 235.309 L 219.14 235.504 L 218.466 235.601 L 217.184 235.804 L 216.508 235.9 L 215.224 236.102 L 213.985 236.297 L 213.305 236.393 L 212.096 236.583 L 210.879 236.773 L 210.197 236.869 L 208.904 237.071 L 208.218 237.167 L 206.923 237.369 L 205.672 237.563 L 204.983 237.658 L 203.765 237.847 L 203.1 237.938 L 201.798 238.14 L 200.539 238.334 L 199.845 238.429 L 198.538 238.631 L 197.275 238.824 L 196.641 238.91 L 195.376 239.103 L 194.675 239.198 L 193.361 239.399 L 192.658 239.494 L 191.427 239.681 L 190.18 239.871 L 189.475 239.965 L 188.153 240.166 L 187.444 240.26 L 186.208 240.448 L 184.953 240.637 L 184.242 240.731 L 182.913 240.932 L 182.199 241.026 L 180.957 241.213 L 180.266 241.302 L 178.932 241.503 L 177.641 241.696 L 176.921 241.79 L 175.674 241.976 L 174.977 242.065 L 173.636 242.266 L 172.911 242.359 L 171.66 242.545 L 170.384 242.735 L 169.656 242.828 L 168.308 243.028 L 167.652 243.11 L 166.345 243.303 L 165.612 243.396 L 164.354 243.581 L 163.644 243.67 L 162.288 243.871 L 160.973 244.064 L 160.312 244.144 L 158.995 244.338 L 158.254 244.43 L 156.988 244.615 L 156.27 244.703 L 154.904 244.904 L 154.157 244.996 L 152.888 245.181 L 152.165 245.269 L 150.793 245.47 L 150.124 245.549 L 148.793 245.742 L 148.04 245.834 L 146.764 246.019 L 145.452 246.208 L 144.696 246.3 L 143.416 246.484 L 142.683 246.572 L 141.298 246.772 L 140.623 246.851 L 139.278 247.044 L 138.514 247.136 L 137.229 247.32 L 136.488 247.407 L 135.095 247.608 L 134.415 247.686 L 133.061 247.879 L 132.291 247.971 L 131 248.154 L 130.251 248.242 L 128.958 248.425 L 128.207 248.513 L 126.803 248.713 L 126.117 248.79 L 124.752 248.984 L 123.972 249.075 L 122.673 249.258 L 121.914 249.345 L 120.614 249.528 L 119.853 249.615 L 118.437 249.816 L 117.746 249.892 L 116.369 250.086 L 115.675 250.162 L 114.296 250.356 L 113.503 250.447 L 112.195 250.629 L 111.424 250.717 L 110.687 250.799 L 109.3 250.993 L 108.501 251.084 L 107.189 251.266 L 106.41 251.353 L 105.097 251.535 L 104.316 251.623 L 103 251.804 L 102.217 251.892 L 100.899 252.073 L 100.114 252.16 L 98.672 252.361 L 97.967 252.436 L 96.562 252.63 L 95.855 252.704 L 95.04 252.795 L 93.716 252.977 L 92.922 253.064 L 91.596 253.245 L 90.799 253.332 L 89.471 253.513 L 88.672 253.6 L 87.215 253.801 L 86.501 253.875 L 85.08 254.07 L 84.365 254.143 L 83.536 254.234 L 82.203 254.415 L 81.393 254.502 L 80.058 254.683 L 79.246 254.77 L 77.909 254.95 L 77.095 255.038 L 76.336 255.117 L 74.901 255.312 L 74.179 255.384 L 72.741 255.579 L 72.017 255.652 L 70.576 255.847 L 69.85 255.919 L 69.003 256.01 L 67.658 256.19 L 66.83 256.278 L 65.483 256.457 L 64.652 256.545 L 63.303 256.724 L 62.594 256.792 L 61.738 256.883 L 60.387 257.063 L 59.55 257.15 L 58.197 257.329 L 57.357 257.417 L 56.586 257.495 L 55.124 257.69 L 54.387 257.761 L 52.922 257.957 L 52.184 258.028 L 50.716 258.223 L 49.976 258.294 L 49.236 258.365 L 47.764 258.561 L 47.022 258.631 L 45.547 258.827 L 44.804 258.897 L 43.925 258.989 L 42.561 259.167 L 41.835 259.234 L 40.353 259.43 L 39.606 259.5 L 38.721 259.592 L 37.353 259.769 L 36.485 259.858 L 35.701 259.933 L 34.364 260.105 L 33.492 260.193 L 32.12 260.371 L 31.245 260.459 L 30.458 260.534 L 29.116 260.705 L 28.238 260.794 L 26.861 260.971 L 25.979 261.06 L 25.189 261.134 L 23.843 261.305 L 22.958 261.394 L 22.166 261.469 L 20.656 261.665 L 19.895 261.734 L 18.545 261.905 L 17.652 261.994 L 16.857 262.068 L 15.34 262.265 L 14.575 262.333 L 13.81 262.401 L 12.289 262.598 L 11.522 262.666 L 10.755 262.734 L 9.23 262.931 L 8.461 262.999 L 6.932 263.196 L 6.162 263.263 L 5.391 263.331 L 3.858 263.528 L 3.085 263.596 L 2.312 263.663 L 0.775 263.86 L 0 263.927 L 6.244 300.153 L 7.008 300.021 L 8.533 299.757 L 9.295 299.624 L 10.057 299.492 L 11.579 299.228 L 12.339 299.097 L 13.099 298.965 L 14.617 298.702 L 15.376 298.57 L 16.892 298.307 L 17.649 298.176 L 18.406 298.045 L 19.918 297.783 L 20.673 297.652 L 21.428 297.521 L 22.937 297.259 L 23.691 297.128 L 24.444 296.998 L 25.949 296.737 L 26.701 296.606 L 28.204 296.346 L 28.955 296.216 L 29.705 296.086 L 31.204 295.826 L 31.953 295.696 L 32.701 295.566 L 34.197 295.307 L 34.944 295.177 L 36.437 294.918 L 37.183 294.789 L 37.928 294.66 L 39.418 294.401 L 40.162 294.272 L 41.649 294.014 L 42.392 293.886 L 43.134 293.757 L 44.617 293.5 L 45.358 293.371 L 46.099 293.243 L 47.579 292.986 L 48.318 292.858 L 49.796 292.602 L 50.534 292.474 L 51.271 292.346 L 52.745 292.09 L 53.481 291.963 L 54.952 291.707 L 55.687 291.58 L 56.422 291.453 L 57.89 291.198 L 58.623 291.071 L 60.088 290.817 L 60.82 290.69 L 62.282 290.436 L 63.013 290.31 L 63.743 290.183 L 65.202 289.93 L 65.931 289.803 L 67.388 289.551 L 68.115 289.425 L 68.842 289.299 L 70.296 289.047 L 71.021 288.921 L 72.472 288.669 L 73.196 288.543 L 74.644 288.292 L 75.367 288.167 L 76.09 288.041 L 77.535 287.791 L 78.256 287.666 L 79.698 287.416 L 80.418 287.291 L 81.857 287.041 L 82.576 286.916 L 83.295 286.792 L 84.731 286.543 L 85.448 286.418 L 86.881 286.17 L 87.597 286.045 L 89.028 285.797 L 89.742 285.673 L 90.456 285.549 L 91.884 285.302 L 92.597 285.178 L 94.021 284.931 L 94.733 284.807 L 96.155 284.561 L 96.865 284.437 L 98.285 284.191 L 98.994 284.068 L 100.41 283.822 L 101.118 283.699 L 101.826 283.577 L 103.239 283.331 L 103.945 283.209 L 105.356 282.964 L 106.061 282.842 L 107.469 282.597 L 108.173 282.475 L 109.578 282.231 L 110.28 282.109 L 111.684 281.866 L 112.385 281.744 L 113.785 281.501 L 114.485 281.38 L 115.883 281.137 L 116.581 281.016 L 117.279 280.895 L 118.674 280.653 L 119.37 280.532 L 120.763 280.29 L 121.458 280.169 L 122.847 279.928 L 123.542 279.807 L 124.929 279.567 L 125.621 279.446 L 127.006 279.206 L 127.697 279.086 L 129.079 278.846 L 129.77 278.726 L 131.149 278.486 L 131.838 278.367 L 133.215 278.128 L 133.902 278.008 L 135.277 277.769 L 135.963 277.65 L 137.335 277.412 L 138.02 277.293 L 139.389 277.055 L 140.073 276.936 L 141.44 276.699 L 142.122 276.58 L 143.486 276.343 L 144.168 276.225 L 145.529 275.988 L 146.21 275.87 L 147.568 275.634 L 148.247 275.516 L 149.604 275.28 L 150.281 275.162 L 151.635 274.927 L 152.988 274.692 L 153.663 274.574 L 155.013 274.34 L 155.687 274.223 L 157.034 273.988 L 157.707 273.871 L 159.052 273.637 L 159.724 273.521 L 161.066 273.287 L 161.736 273.171 L 163.076 272.938 L 163.745 272.821 L 165.082 272.589 L 165.75 272.472 L 167.085 272.24 L 168.417 272.008 L 169.083 271.892 L 170.414 271.661 L 171.078 271.545 L 172.406 271.314 L 173.069 271.199 L 174.395 270.968 L 175.057 270.853 L 176.38 270.622 L 177.701 270.392 L 178.361 270.277 L 179.68 270.048 L 180.338 269.933 L 181.654 269.704 L 182.312 269.589 L 183.626 269.361 L 184.938 269.132 L 185.593 269.018 L 186.902 268.79 L 187.557 268.676 L 188.864 268.448 L 189.516 268.334 L 190.821 268.107 L 192.124 267.88 L 192.775 267.766 L 194.075 267.539 L 194.724 267.426 L 196.022 267.2 L 197.318 266.974 L 197.966 266.861 L 199.26 266.635 L 199.906 266.522 L 201.197 266.297 L 201.842 266.184 L 203.131 265.959 L 204.418 265.735 L 205.061 265.623 L 206.345 265.398 L 207.628 265.174 L 208.269 265.062 L 209.55 264.839 L 210.189 264.727 L 211.467 264.504 L 212.743 264.281 L 213.381 264.169 L 214.655 263.947 L 215.291 263.835 L 216.562 263.613 L 217.832 263.391 L 218.466 263.28 L 219.734 263.059 L 220.999 262.837 L 221.631 262.727 L 222.894 262.506 L 223.525 262.395 L 224.786 262.175 L 226.045 261.954 L 226.674 261.844 L 227.93 261.624 L 229.185 261.404 L 229.812 261.294 L 231.065 261.075 L 232.315 260.856 L 232.94 260.746 L 234.189 260.527 L 235.435 260.309 L 236.058 260.2 L 237.302 259.981 L 238.545 259.763 L 239.165 259.655 L 240.406 259.437 L 241.644 259.219 L 242.263 259.111 L 243.499 258.894 L 244.733 258.677 L 245.35 258.569 L 246.582 258.352 L 247.812 258.136 L 248.427 258.028 L 249.655 257.812 L 250.881 257.596 L 251.493 257.489 L 252.717 257.273 L 253.94 257.058 L 254.55 256.951 L 255.77 256.736 L 256.988 256.522 L 257.596 256.414 L 258.812 256.2 L 260.026 255.986 L 260.633 255.879 L 261.844 255.666 L 263.054 255.452 L 264.263 255.239 L 264.866 255.133 L 266.072 254.92 L 267.277 254.707 L 267.878 254.601 L 269.08 254.388 L 270.28 254.176 L 271.479 253.964 L 272.078 253.859 L 273.274 253.647 L 274.469 253.436 L 275.065 253.33 L 276.258 253.119 L 277.448 252.908 L 278.637 252.698 L 279.231 252.592 L 280.418 252.382 L 281.603 252.172 L 282.786 251.962 L 283.377 251.857 L 284.558 251.647 L 285.738 251.438 L 286.915 251.229 L 287.504 251.124 L 288.679 250.915 L 289.853 250.707 L 291.025 250.498 L 291.61 250.394 L 292.78 250.186 L 293.948 249.978 L 295.115 249.77 L 295.697 249.666 L 296.862 249.459 L 298.024 249.251 L 299.185 249.044 L 300.344 248.837 L 300.923 248.734 L 302.08 248.527 L 303.236 248.321 L 304.389 248.114 L 305.542 247.908 L 306.117 247.805 L 307.267 247.599 L 308.415 247.393 L 309.562 247.188 L 310.134 247.085 L 311.279 246.88 L 312.421 246.675 L 313.562 246.47 L 314.702 246.265 L 315.839 246.061 L 316.408 245.959 L 317.543 245.754 L 318.677 245.55 L 319.809 245.346 L 320.94 245.142 L 321.505 245.04 L 322.633 244.837 L 323.76 244.633 L 324.885 244.43 L 326.009 244.227 L 327.131 244.024 L 327.691 243.923 L 328.811 243.72 L 329.929 243.518 L 331.045 243.315 L 332.16 243.113 L 333.274 242.911 L 334.386 242.709 L 334.941 242.608 L 336.05 242.406 L 337.158 242.205 L 338.264 242.003 L 339.369 241.802 L 340.472 241.601 L 341.574 241.4 L 342.124 241.299 L 343.223 241.098 L 344.321 240.898 L 345.417 240.697 L 346.511 240.497 L 347.604 240.297 L 348.696 240.096 L 349.786 239.896 L 350.874 239.696 L 351.417 239.596 L 352.503 239.397 L 353.588 239.197 L 354.671 238.998 L 355.752 238.798 L 356.832 238.599 L 357.91 238.4 L 358.986 238.201 L 360.061 238.002 L 361.135 237.803 L 362.207 237.604 L 362.742 237.505 L 363.812 237.306 L 364.88 237.108 L 365.946 236.91 L 367.011 236.711 L 368.075 236.513 L 369.136 236.315 L 370.197 236.117 L 371.255 235.919 L 372.313 235.721 L 373.368 235.524 L 374.422 235.326 L 375.475 235.128 L 376.526 234.931 L 377.575 234.734 L 378.623 234.536 L 379.67 234.339 L 380.715 234.142 L 381.758 233.945 L 382.8 233.748 L 383.84 233.551 L 384.879 233.354 L 385.916 233.157 L 386.434 233.059 L 387.469 232.862 L 388.502 232.665 L 389.534 232.469 L 390.564 232.272 L 391.593 232.075 L 392.62 231.879 L 394.158 231.584 L 395.182 231.388 L 396.204 231.192 L 397.224 230.995 L 398.243 230.799 L 399.26 230.603 L 400.276 230.407 L 401.29 230.21 L 402.303 230.014 L 403.314 229.818 L 404.324 229.622 L 405.332 229.426 L 406.339 229.23 L 407.344 229.034 L 408.347 228.838 L 409.35 228.642 L 410.35 228.446 L 411.349 228.25 L 412.347 228.054 L 413.343 227.858 L 414.337 227.662 L 415.33 227.466 L 416.817 227.172 L 417.806 226.976 L 418.794 226.78 L 419.78 226.584 L 420.765 226.388 L 421.748 226.192 L 422.73 225.996 L 423.71 225.8 L 424.689 225.603 L 425.666 225.407 L 427.129 225.113 L 428.103 224.917 L 429.075 224.72 L 430.045 224.524 L 431.014 224.327 L 431.982 224.131 L 432.947 223.935 L 433.912 223.738 L 435.356 223.443 L 436.317 223.246 L 437.276 223.05 L 438.234 222.853 L 439.19 222.656 L 440.145 222.459 L 441.098 222.262 L 442.525 221.966 L 443.475 221.769 L 444.423 221.572 L 445.369 221.374 L 446.315 221.177 L 447.729 220.88 L 448.671 220.683 L 449.611 220.485 L 450.549 220.287 L 451.486 220.089 L 452.889 219.791 L 453.822 219.593 L 454.754 219.395 L 455.684 219.196 L 456.613 218.997 L 458.004 218.699 L 458.929 218.5 L 459.852 218.301 L 460.775 218.102 L 462.155 217.803 L 463.074 217.603 L 463.991 217.403 L 464.906 217.203 L 466.277 216.903 L 467.189 216.703 L 468.1 216.502 L 469.009 216.302 L 470.369 216.001 L 471.275 215.8 L 472.179 215.598 L 473.081 215.397 L 474.432 215.094 L 475.331 214.893 L 476.228 214.691 L 477.571 214.387 L 478.465 214.185 L 479.357 213.982 L 480.693 213.677 L 481.581 213.474 L 482.469 213.271 L 483.797 212.965 L 484.68 212.761 L 485.562 212.557 L 486.883 212.25 L 487.761 212.045 L 488.638 211.84 L 489.951 211.532 L 490.824 211.326 L 491.696 211.12 L 493.002 210.811 L 493.87 210.604 L 494.737 210.398 L 496.035 210.087 L 496.898 209.879 L 498.19 209.568 L 499.05 209.359 L 499.908 209.151 L 501.193 208.838 L 502.048 208.629 L 503.327 208.314 L 504.178 208.104 L 505.452 207.789 L 506.3 207.578 L 507.146 207.367 L 508.412 207.05 L 509.255 206.838 L 510.516 206.52 L 511.355 206.307 L 512.611 205.988 L 513.446 205.774 L 514.697 205.454 L 515.529 205.239 L 516.774 204.917 L 517.602 204.702 L 518.842 204.379 L 519.667 204.162 L 520.902 203.838 L 521.723 203.621 L 522.952 203.294 L 523.77 203.076 L 524.994 202.749 L 525.808 202.53 L 527.027 202.201 L 527.837 201.981 L 529.051 201.65 L 529.858 201.429 L 531.066 201.097 L 532.271 200.764 L 533.073 200.541 L 534.272 200.206 L 535.07 199.983 L 536.265 199.646 L 537.059 199.422 L 538.248 199.084 L 539.435 198.744 L 540.223 198.518 L 541.404 198.177 L 542.582 197.835 L 543.365 197.607 L 544.538 197.263 L 545.318 197.034 L 546.485 196.688 L 547.649 196.342 L 548.424 196.11 L 549.582 195.762 L 550.738 195.412 L 551.507 195.179 L 552.658 194.827 L 553.805 194.475 L 554.95 194.121 L 555.711 193.885 L 556.85 193.529 L 557.986 193.172 L 558.742 192.933 L 559.873 192.574 L 561.001 192.214 L 562.125 191.853 L 562.874 191.611 L 563.993 191.248 L 565.11 190.883 L 566.223 190.517 L 567.334 190.149 L 568.072 189.904 L 569.177 189.534 L 570.28 189.163 L 571.379 188.791 L 572.475 188.417 L 573.204 188.167 L 574.295 187.791 L 575.383 187.414 L 576.467 187.035 L 577.549 186.655 L 578.628 186.274 L 579.703 185.891 L 580.776 185.506 L 581.489 185.249 L 582.557 184.863 L 583.622 184.474 L 584.683 184.084 L 585.741 183.693 L 586.797 183.3 L 587.849 182.906 L 588.898 182.51 L 589.945 182.113 L 590.988 181.714 L 592.028 181.314 L 593.066 180.912 L 594.1 180.508 L 595.131 180.103 L 596.159 179.696 L 597.184 179.287 L 598.207 178.877 L 599.226 178.466 L 600.242 178.052 L 601.255 177.638 L 602.265 177.221 L 603.273 176.803 L 604.277 176.383 L 605.278 175.961 L 606.276 175.538 L 607.603 174.97 L 608.594 174.543 L 609.582 174.114 L 610.568 173.683 L 611.55 173.25 L 612.53 172.816 L 613.831 172.234 L 614.803 171.795 L 615.773 171.355 L 616.74 170.913 L 617.703 170.469 L 618.983 169.874 L 619.94 169.426 L 620.894 168.976 L 621.845 168.524 L 623.108 167.918 L 624.052 167.462 L 624.993 167.004 L 625.931 166.544 L 627.178 165.927 L 628.109 165.462 L 629.037 164.996 L 630.271 164.371 L 631.192 163.9 L 632.417 163.269 L 633.331 162.793 L 634.243 162.315 L 635.455 161.675 L 636.36 161.193 L 637.562 160.547 L 638.46 160.06 L 639.654 159.407 L 640.545 158.915 L 641.73 158.256 L 642.615 157.76 L 643.79 157.094 L 644.668 156.593 L 645.835 155.921 L 646.706 155.415 L 647.864 154.736 L 648.728 154.225 L 649.877 153.54 L 651.021 152.851 L 651.875 152.332 L 653.009 151.636 L 654.139 150.937 L 654.983 150.41 L 656.104 149.704 L 657.219 148.993 L 658.053 148.458 L 659.16 147.741 L 660.262 147.02 L 661.358 146.295 L 662.45 145.566 L 663.266 145.016 L 664.349 144.28 L 665.427 143.54 L 666.5 142.796 L 667.568 142.047 L 668.631 141.295 L 669.689 140.538 L 670.743 139.777 L 671.529 139.204 L 672.574 138.436 L 673.613 137.664 L 674.648 136.887 L 675.934 135.91 L 676.958 135.124 L 677.976 134.334 L 678.99 133.539 L 679.999 132.74 L 681.003 131.937 L 680.969 130.902 L 680.936 129.863 L 680.902 128.817 L 680.869 127.766 L 680.837 126.709 L 680.804 125.647 L 680.772 124.578 L 680.74 123.505 L 680.708 122.425 L 680.676 121.34 L 680.645 120.249 L 680.614 119.152 L 680.583 118.05 L 680.552 116.942 L 684.261 117.495 L 684.006 107.778 L 680.331 108.526 L 676.655 109.266 L 676.465 101.375 L 680.172 101.937 L 683.879 102.507 L 683.642 91.745 L 679.965 92.477 L 676.285 93.201 L 676.11 84.411 L 679.816 84.989 L 683.52 85.572 L 683.398 78.961 L 679.717 79.681 L 676.036 80.394 L 675.874 70.84 L 679.577 71.428 L 683.28 72.023 L 683.128 62.05 L 679.445 62.757 L 675.761 63.46 L 675.656 55.861 L 679.358 56.461 L 683.059 57.065 L 682.958 49.175 L 679.274 49.873 L 675.588 50.566 L 675.463 39.472 L 679.163 40.081 L 682.862 40.696 L 682.777 32.162 L 679.091 32.85 L 675.403 33.534 L 675.325 24.706 L 679.024 25.325 L 682.722 25.947 L 682.651 16.827 L 678.963 17.506 L 678.951 15.818 L 678.94 14.263 L 678.93 12.702 L 678.92 11.134 L 678.91 9.562 L 678.9 7.983 L 678.891 6.398 L 678.882 4.807 L 678.873 3.211 L 678.865 1.608 L 678.856 0 Z" vector-effect="non-scaling-stroke"/><path d="M 511.856 163.502 L 511.887 163.996 L 511.919 164.487 L 511.95 164.977 L 511.982 165.465 L 512.014 165.952 L 512.046 166.437 L 512.078 166.92 L 512.11 167.402 L 512.142 167.882 L 512.175 168.36 L 512.207 168.836 L 512.239 169.311 L 512.272 169.785 L 512.305 170.256 L 512.338 170.726 L 512.371 171.195 L 512.404 171.662 L 512.437 172.127 L 512.47 172.59 L 512.504 173.052 L 512.537 173.512 L 512.571 173.971 L 512.604 174.428 L 512.638 174.884 L 512.672 175.338 L 512.706 175.79 L 512.74 176.241 L 512.774 176.69 L 512.809 177.137 L 512.843 177.583 L 512.878 178.028 L 512.912 178.47 L 512.947 178.912 L 512.982 179.352 L 513.017 179.79 L 513.052 180.226 L 513.087 180.662 L 513.122 181.095 L 513.158 181.527 L 513.193 181.958 L 513.229 182.387 L 513.265 182.814 L 513.301 183.24 L 513.336 183.665 L 513.373 184.088 L 513.409 184.509 L 513.445 184.929 L 513.481 185.348 L 513.518 185.765 L 513.554 186.181 L 513.591 186.595 L 513.628 187.008 L 513.665 187.419 L 513.702 187.829 L 513.739 188.237 L 513.776 188.644 L 513.814 189.05 L 513.851 189.454 L 513.889 189.856 L 513.926 190.258 L 513.964 190.658 L 514.002 191.056 L 514.04 191.453 L 514.078 191.849 L 514.117 192.243 L 514.155 192.636 L 514.194 193.028 L 514.232 193.418 L 514.271 193.807 L 514.31 194.195 L 514.349 194.581 L 514.388 194.966 L 514.427 195.35 L 514.466 195.732 L 514.506 196.113 L 514.545 196.493 L 514.585 196.871 L 514.624 197.248 L 514.664 197.624 L 514.704 197.999 L 514.744 198.372 L 514.785 198.744 L 514.825 199.115 L 514.865 199.485 L 514.906 199.853 L 514.947 200.221 L 514.987 200.587 L 515.028 200.951 L 515.069 201.315 L 515.111 201.678 L 515.152 202.039 L 515.193 202.399 L 515.235 202.758 L 515.276 203.116 L 515.318 203.473 L 515.36 203.828 L 515.402 204.183 L 515.444 204.536 L 515.486 204.888 L 515.529 205.239 M 0 263.927 L 0.066 264.317 L 0.133 264.705 L 0.199 265.092 L 0.265 265.478 L 0.33 265.862 L 0.396 266.246 L 0.461 266.628 L 0.526 267.009 L 0.591 267.389 L 0.656 267.768 L 0.72 268.146 L 0.785 268.523 L 0.849 268.899 L 0.913 269.274 L 0.977 269.648 L 1.041 270.02 L 1.105 270.392 L 1.168 270.763 L 1.232 271.133 L 1.295 271.502 L 1.358 271.871 L 1.421 272.238 L 1.484 272.605 L 1.547 272.97 L 1.61 273.335 L 1.672 273.7 L 1.735 274.063 L 1.797 274.426 L 1.859 274.788 L 1.921 275.149 L 1.983 275.51 L 2.045 275.87 L 2.107 276.23 L 2.169 276.589 L 2.23 276.947 L 2.292 277.305 L 2.353 277.662 L 2.415 278.019 L 2.476 278.375 L 2.538 278.731 L 2.599 279.087 L 2.66 279.442 L 2.721 279.796 L 2.782 280.151 L 2.843 280.505 L 2.904 280.858 L 2.965 281.212 L 3.026 281.565 L 3.087 281.918 L 3.148 282.27 L 3.209 282.623 L 3.269 282.975 L 3.33 283.327 L 3.391 283.679 L 3.452 284.031 L 3.513 284.383 L 3.574 284.735 L 3.634 285.087 L 3.695 285.438 L 3.756 285.79 L 3.817 286.142 L 3.878 286.494 L 3.939 286.846 L 3.999 287.198 L 4.06 287.551 L 4.121 287.903 L 4.182 288.256 L 4.244 288.609 L 4.305 288.962 L 4.366 289.315 L 4.427 289.669 L 4.488 290.023 L 4.55 290.377 L 4.611 290.732 L 4.673 291.087 L 4.734 291.442 L 4.796 291.798 L 4.858 292.154 L 4.919 292.511 L 4.981 292.869 L 5.043 293.226 L 5.105 293.585 L 5.168 293.944 L 5.23 294.303 L 5.292 294.663 L 5.355 295.024 L 5.418 295.385 L 5.48 295.748 L 5.543 296.11 L 5.606 296.474 L 5.669 296.838 L 5.733 297.203 L 5.796 297.569 L 5.86 297.936 L 5.923 298.303 L 5.987 298.671 L 6.051 299.04 L 6.115 299.411 L 6.18 299.781 L 6.244 300.153 M 256.368 229.528 L 256.41 229.808 L 256.453 230.088 L 256.495 230.367 L 256.538 230.645 L 256.58 230.923 L 256.623 231.2 L 256.665 231.477 L 256.708 231.753 L 256.75 232.028 L 256.792 232.303 L 256.835 232.578 L 256.877 232.851 L 256.919 233.125 L 256.962 233.398 L 257.004 233.67 L 257.046 233.942 L 257.088 234.213 L 257.13 234.484 L 257.173 234.755 L 257.215 235.025 L 257.257 235.295 L 257.299 235.564 L 257.341 235.832 L 257.383 236.101 L 257.425 236.368 L 257.467 236.636 L 257.509 236.903 L 257.551 237.17 L 257.594 237.436 L 257.636 237.702 L 257.678 237.967 L 257.72 238.232 L 257.762 238.497 L 257.804 238.761 L 257.846 239.026 L 257.888 239.289 L 257.93 239.553 L 257.972 239.816 L 258.014 240.079 L 258.056 240.341 L 258.098 240.603 L 258.14 240.865 L 258.182 241.127 L 258.224 241.388 L 258.266 241.65 L 258.308 241.911 L 258.35 242.171 L 258.393 242.432 L 258.435 242.692 L 258.477 242.952 L 258.519 243.212 L 258.561 243.471 L 258.603 243.731 L 258.646 243.99 L 258.688 244.249 L 258.73 244.508 L 258.772 244.767 L 258.815 245.026 L 258.857 245.284 L 258.9 245.542 L 258.942 245.801 L 258.984 246.059 L 259.027 246.317 L 259.069 246.575 L 259.112 246.833 L 259.155 247.091 L 259.197 247.348 L 259.24 247.606 L 259.283 247.864 L 259.325 248.122 L 259.368 248.379 L 259.411 248.637 L 259.454 248.894 L 259.497 249.152 L 259.54 249.41 L 259.583 249.667 L 259.626 249.925 L 259.669 250.183 L 259.712 250.44 L 259.755 250.698 L 259.799 250.956 L 259.842 251.214 L 259.885 251.472 L 259.929 251.73 L 259.972 251.988 L 260.016 252.247 L 260.059 252.505 L 260.103 252.764 L 260.147 253.022 L 260.191 253.281 L 260.235 253.54 L 260.278 253.799 L 260.323 254.059 L 260.367 254.318 L 260.411 254.578 L 260.455 254.838 L 260.499 255.098 L 260.544 255.358 L 260.588 255.619 L 260.633 255.879" id="blue" stroke="blue" style="stroke:blue" vector-effect="non-scaling-stroke"/><g id="captions"><text alignment-baseline="middle" text-anchor="middle" transform="rotate(0,341.212,227.71)" x="341.212" y="227.71">LEE, 1, 1</text></g></g></svg>