<svg width="178.726" height="145.431" viewBox="0 0 178.726 145.431" xmlns="http://www.w3.org/2000/svg"><g id="svgGroup" stroke-linecap="round" fill-rule="evenodd" font-size="9pt" stroke="#000" stroke-width="0.25mm" fill="none" style="stroke:#000;stroke-width:0.25mm;fill:none"><path d="M 175.121 0 L 174.044 0.133 L 172.968 0.267 L 171.892 0.402 L 170.816 0.536 L 169.741 0.672 L 168.665 0.808 L 167.59 0.944 L 166.515 1.081 L 165.439 1.218 L 164.364 1.356 L 163.558 1.459 L 162.482 1.598 L 161.406 1.737 L 160.331 1.876 L 159.255 2.016 L 158.178 2.156 L 157.102 2.297 L 156.025 2.438 L 154.948 2.579 L 153.87 2.721 L 152.792 2.864 L 151.714 3.006 L 150.635 3.149 L 149.555 3.293 L 148.475 3.436 L 147.394 3.581 L 146.583 3.689 L 145.501 3.834 L 144.418 3.979 L 143.334 4.124 L 142.25 4.27 L 141.165 4.416 L 140.078 4.563 L 138.991 4.709 L 137.903 4.857 L 136.814 5.004 L 135.996 5.115 L 134.905 5.262 L 133.813 5.411 L 132.72 5.559 L 131.626 5.708 L 130.53 5.857 L 129.433 6.006 L 128.609 6.118 L 127.51 6.268 L 126.409 6.418 L 125.307 6.568 L 124.204 6.718 L 123.099 6.869 L 122.269 6.982 L 121.161 7.133 L 120.052 7.284 L 118.94 7.436 L 117.828 7.587 L 116.992 7.701 L 115.876 7.853 L 114.759 8.005 L 113.639 8.158 L 112.518 8.31 L 111.676 8.425 L 110.551 8.577 L 109.425 8.73 L 108.296 8.883 L 107.448 8.998 L 106.316 9.152 L 105.181 9.305 L 104.329 9.42 L 103.191 9.574 L 102.051 9.728 L 101.194 9.843 L 100.049 9.997 L 98.903 10.151 L 98.041 10.266 L 96.89 10.421 L 95.737 10.575 L 94.87 10.69 L 93.712 10.845 L 92.552 10.999 L 91.68 11.115 L 90.515 11.27 L 89.348 11.424 L 88.471 11.54 L 87.298 11.695 L 86.417 11.811 L 85.24 11.965 L 84.356 12.081 L 83.173 12.236 L 81.989 12.39 L 81.098 12.506 L 79.908 12.661 L 79.013 12.777 L 77.818 12.932 L 76.919 13.048 L 75.718 13.202 L 74.816 13.318 L 73.609 13.473 L 72.702 13.588 L 71.49 13.743 L 70.579 13.859 L 69.362 14.013 L 68.446 14.129 L 67.529 14.244 L 66.303 14.398 L 65.381 14.514 L 64.148 14.668 L 63.222 14.783 L 61.984 14.937 L 61.053 15.052 L 60.119 15.168 L 58.872 15.321 L 57.934 15.436 L 56.994 15.551 L 55.737 15.704 L 54.792 15.819 L 53.845 15.934 L 52.579 16.087 L 51.627 16.201 L 50.673 16.316 L 49.397 16.468 L 48.437 16.583 L 47.476 16.697 L 46.512 16.811 L 45.223 16.963 L 44.253 17.077 L 43.282 17.19 L 42.308 17.304 L 41.006 17.455 L 40.026 17.568 L 39.044 17.682 L 38.06 17.795 L 37.073 17.908 L 35.754 18.058 L 34.762 18.171 L 33.767 18.283 L 32.769 18.395 L 31.769 18.508 L 30.767 18.62 L 29.427 18.769 L 28.418 18.881 L 27.407 18.992 L 26.394 19.104 L 25.378 19.215 L 24.359 19.326 L 23.338 19.437 L 22.314 19.548 L 21.287 19.659 L 20.258 19.769 L 19.226 19.88 L 18.191 19.99 L 17.153 20.1 L 16.113 20.209 L 15.07 20.319 L 14.024 20.428 L 12.976 20.538 L 11.924 20.647 L 10.87 20.756 L 9.813 20.864 L 8.753 20.973 L 7.69 21.081 L 6.624 21.189 L 5.556 21.297 L 4.484 21.405 L 4.479 21.888 L 4.474 22.372 L 4.469 22.855 L 4.464 23.337 L 4.459 23.819 L 4.454 24.3 L 4.45 24.781 L 4.445 25.261 L 4.44 25.741 L 4.435 26.221 L 4.43 26.7 L 4.425 27.178 L 4.42 27.656 L 4.416 28.134 L 4.411 28.611 L 4.409 28.784 L 0.723 28.096 L 0.634 37.014 L 4.334 36.4 L 8.033 35.784 L 7.949 44.452 L 4.263 43.765 L 0.576 43.08 L 0.489 52.404 L 4.188 51.787 L 7.886 51.169 L 7.813 59.324 L 4.126 58.639 L 4.118 59.458 L 4.115 59.902 L 4.111 60.346 L 4.107 60.789 L 4.103 61.231 L 4.099 61.673 L 4.095 62.115 L 4.091 62.556 L 4.088 62.996 L 4.084 63.436 L 4.08 63.876 L 4.076 64.315 L 4.072 64.753 L 4.069 65.191 L 4.065 65.629 L 4.061 66.066 L 4.058 66.503 L 4.054 66.939 L 4.05 67.375 L 4.042 68.251 L 4.035 69.125 L 4.028 69.998 L 4.021 70.868 L 4.014 71.737 L 4.007 72.603 L 4 73.468 L 3.993 74.331 L 3.986 75.192 L 3.979 76.05 L 3.972 76.907 L 3.966 77.762 L 3.959 78.615 L 3.952 79.466 L 3.946 80.315 L 3.94 81.162 L 3.933 82.007 L 3.927 82.85 L 3.921 83.691 L 3.91 85.158 L 0.221 84.481 L 0.16 93.215 L 3.857 92.59 L 7.555 91.963 L 7.5 100.382 L 3.811 99.707 L 0.122 99.034 L 0.074 107.14 L 3.771 106.511 L 7.468 105.879 L 7.419 115.208 L 3.729 114.538 L 0.039 113.871 L 0 122.817 L 3.696 122.182 L 7.391 121.543 L 7.361 130.108 L 3.67 129.443 L 3.669 129.9 L 3.667 130.626 L 3.665 131.35 L 3.663 132.072 L 3.661 132.792 L 3.659 133.51 L 3.657 134.226 L 3.655 134.941 L 3.654 135.653 L 3.652 136.364 L 3.651 137.073 L 3.649 137.779 L 3.648 138.484 L 3.647 139.187 L 3.646 139.889 L 3.645 140.588 L 3.644 141.285 L 3.643 141.981 L 3.642 142.675 L 3.641 143.366 L 3.64 144.056 L 3.64 144.744 L 3.639 145.431 L 4.698 145.055 L 5.754 144.678 L 6.808 144.299 L 7.86 143.918 L 8.909 143.535 L 9.956 143.151 L 11.001 142.765 L 12.013 142.377 L 13.257 141.973 L 14.294 141.581 L 15.329 141.188 L 16.362 140.792 L 17.392 140.395 L 18.42 139.997 L 19.446 139.596 L 20.469 139.193 L 21.491 138.789 L 22.48 138.382 L 23.694 137.959 L 24.708 137.549 L 25.719 137.137 L 26.729 136.723 L 27.736 136.308 L 28.759 135.89 L 29.97 135.426 L 30.941 135.004 L 32.13 134.565 L 33.126 134.14 L 34.119 133.712 L 35.128 133.283 L 36.324 132.807 L 37.31 132.374 L 38.267 131.938 L 39.435 131.485 L 40.431 131.046 L 41.614 130.559 L 42.59 130.116 L 43.536 129.671 L 44.704 129.207 L 45.878 128.712 L 46.845 128.261 L 47.809 127.808 L 48.765 127.352 L 50.102 126.831 L 51.059 126.372 L 52.031 125.911 L 53.188 125.4 L 54.113 124.935 L 55.251 124.45 L 56.401 123.933 L 57.346 123.461 L 58.282 122.987 L 59.591 122.446 L 60.529 121.968 L 61.481 121.488 L 62.592 120.958 L 63.705 120.455 L 64.838 119.921 L 65.78 119.432 L 66.884 118.893 L 67.97 118.381 L 68.906 117.886 L 70.028 117.34 L 70.94 116.84 L 72.213 116.272 L 73.14 115.767 L 74.23 115.212 L 75.31 114.685 L 76.419 114.126 L 77.319 113.612 L 78.574 113.029 L 79.489 112.512 L 80.568 111.943 L 81.629 111.402 L 82.74 110.828 L 83.813 110.252 L 84.866 109.704 L 85.958 109.123 L 86.841 108.589 L 88.07 107.985 L 88.967 107.446 L 90.047 106.856 L 91.268 106.244 L 92.159 105.698 L 93.234 105.101 L 94.447 104.482 L 95.317 103.929 L 96.535 103.305 L 97.608 102.697 L 98.473 102.137 L 99.683 101.506 L 100.732 100.891 L 101.739 100.304 L 102.799 99.684 L 103.989 99.043 L 104.858 98.468 L 105.914 97.841 L 107.097 97.191 L 107.947 96.609 L 109.134 95.955 L 110.185 95.317 L 111.358 94.658 L 112.202 94.065 L 113.379 93.401 L 114.424 92.753 L 115.597 92.083 L 116.628 91.43 L 117.594 90.805 L 118.635 90.147 L 119.798 89.467 L 120.836 88.804 L 121.987 88.118 L 122.818 87.5 L 123.972 86.809 L 125.007 86.135 L 126.157 85.439 L 127.189 84.76 L 128.328 84.058 L 129.152 83.424 L 130.285 82.717 L 131.424 82.007 L 132.452 81.314 L 133.588 80.599 L 134.615 79.901 L 135.742 79.181 L 136.558 78.527 L 137.679 77.801 L 138.805 77.072 L 139.829 76.36 L 140.945 75.626 L 142.066 74.889 L 143.089 74.169 L 144.207 73.426 L 145.229 72.7 L 146.331 71.952 L 147.234 71.25 L 148.255 70.515 L 149.359 69.758 L 150.469 68.999 L 151.489 68.255 L 152.59 67.49 L 153.69 66.722 L 154.794 65.951 L 155.814 65.196 L 156.911 64.419 L 158.012 63.64 L 159.032 62.875 L 160.126 62.09 L 161.22 61.301 L 162.316 60.51 L 163.333 59.734 L 164.205 58.984 L 165.295 58.183 L 166.384 57.38 L 167.476 56.574 L 168.499 55.782 L 169.587 54.969 L 170.674 54.154 L 171.76 53.335 L 172.85 52.513 L 173.875 51.706 L 174.96 50.878 L 174.96 50.396 L 174.96 49.913 L 174.96 49.43 L 174.961 48.947 L 174.961 48.463 L 174.961 47.978 L 174.961 47.493 L 174.961 47.007 L 174.962 46.521 L 174.962 46.034 L 174.962 45.547 L 174.963 45.059 L 174.963 44.57 L 174.963 44.081 L 174.964 43.592 L 174.964 43.102 L 174.965 42.611 L 174.966 42.12 L 174.966 41.628 L 174.967 41.136 L 174.967 40.643 L 174.969 39.861 L 178.66 40.52 L 178.677 31.788 L 174.983 32.432 L 171.288 33.073 L 171.314 24.097 L 175.005 24.759 L 178.696 25.424 L 178.726 17.239 L 175.031 17.877 L 171.335 18.511 L 171.378 9.063 L 175.068 9.731 L 175.069 9.559 L 175.071 9.033 L 175.074 8.506 L 175.077 7.978 L 175.079 7.45 L 175.082 6.921 L 175.085 6.392 L 175.088 5.863 L 175.091 5.332 L 175.093 4.802 L 175.096 4.27 L 175.099 3.738 L 175.102 3.206 L 175.105 2.673 L 175.108 2.139 L 175.111 1.605 L 175.114 1.071 L 175.118 0.536 L 175.121 0 Z" vector-effect="non-scaling-stroke"/><path d="M 114.424 92.753 L 114.423 91.989 L 114.423 91.224 L 114.422 90.457 L 114.421 89.688 L 114.42 88.918 L 114.42 88.146 L 114.419 87.372 L 114.419 86.597 L 114.419 85.82 L 114.419 85.041 L 114.419 84.26 L 114.419 83.478 L 114.419 82.694 L 114.419 81.909 L 114.419 81.122 L 114.42 80.333 L 114.42 79.542 L 114.421 78.75 L 114.421 77.956 L 114.422 77.16 L 114.423 76.363 L 114.424 75.564 L 114.425 74.763 L 114.426 73.961 L 114.427 73.157 L 114.428 72.351 L 114.43 71.544 L 114.431 70.735 L 114.433 69.924 L 114.434 69.111 L 114.436 68.297 L 114.438 67.481 L 114.44 66.664 L 114.442 65.844 L 114.444 65.023 L 114.446 64.201 L 114.448 63.376 L 114.45 62.55 L 114.453 61.722 L 114.455 60.893 L 114.458 60.062 L 114.461 59.229 L 114.463 58.394 L 114.466 57.558 L 114.469 56.72 L 114.472 55.881 L 114.475 55.039 L 114.478 54.196 L 114.482 53.351 L 114.485 52.505 L 114.489 51.657 L 114.492 50.807 L 114.496 49.955 L 114.499 49.102 L 114.503 48.247 L 114.507 47.39 L 114.511 46.532 L 114.515 45.672 L 114.519 44.81 L 114.523 43.947 L 114.528 43.082 L 114.532 42.215 L 114.537 41.346 L 114.541 40.476 L 114.546 39.604 L 114.55 38.73 L 114.555 37.855 L 114.56 36.978 L 114.565 36.099 L 114.57 35.218 L 114.575 34.336 L 114.58 33.452 L 114.586 32.566 L 114.591 31.679 L 114.596 30.79 L 114.602 29.899 L 114.608 29.006 L 114.613 28.112 L 114.619 27.216 L 114.625 26.319 L 114.631 25.419 L 114.637 24.518 L 114.643 23.615 L 114.649 22.711 L 114.655 21.805 L 114.662 20.897 L 114.668 19.987 L 114.675 19.076 L 114.681 18.163 L 114.688 17.248 L 114.695 16.331 L 114.701 15.413 L 114.708 14.493 L 114.715 13.571 L 114.722 12.648 L 114.729 11.723 L 114.737 10.796 L 114.744 9.868 L 114.751 8.937 L 114.759 8.005" id="blue" stroke="blue" style="stroke:blue" vector-effect="non-scaling-stroke"/><g id="captions"><text alignment-baseline="middle" text-anchor="middle" transform="rotate(0,89.158,59.435)" x="89.158" y="59.435">LEE, 2, 0</text></g></g></svg>