<svg width="3955.254" height="1789.776" viewBox="0 0 3955.254 1789.776" xmlns="http://www.w3.org/2000/svg"><g id="svgGroup" stroke-linecap="round" fill-rule="evenodd" font-size="9pt" stroke="#000" stroke-width="0.25mm" fill="none" style="stroke:#000;stroke-width:0.25mm;fill:none"><path d="M 3955.064 1.709 L 3950.948 1.632 L 3944.79 1.519 L 3938.65 1.411 L 3932.528 1.307 L 3926.424 1.207 L 3920.339 1.111 L 3916.292 1.049 L 3910.236 0.96 L 3904.198 0.874 L 3898.178 0.793 L 3892.175 0.716 L 3886.191 0.643 L 3880.223 0.574 L 3874.274 0.509 L 3868.341 0.448 L 3864.396 0.409 L 3858.492 0.355 L 3852.605 0.304 L 3846.736 0.257 L 3840.884 0.215 L 3835.048 0.176 L 3829.229 0.141 L 3823.427 0.11 L 3817.642 0.083 L 3811.874 0.059 L 3806.121 0.04 L 3800.386 0.024 L 3794.667 0.013 L 3788.964 0.005 L 3783.277 0 L 3777.606 0 L 3771.952 0.003 L 3764.437 0.014 L 3758.82 0.026 L 3753.218 0.042 L 3747.632 0.061 L 3742.062 0.085 L 3736.508 0.112 L 3730.968 0.142 L 3725.445 0.177 L 3719.936 0.215 L 3712.615 0.271 L 3707.142 0.318 L 3701.684 0.368 L 3696.242 0.421 L 3690.814 0.479 L 3683.599 0.561 L 3678.206 0.627 L 3672.827 0.696 L 3667.463 0.769 L 3662.113 0.845 L 3655.002 0.952 L 3649.686 1.037 L 3644.384 1.125 L 3639.096 1.216 L 3632.067 1.343 L 3626.812 1.443 L 3621.57 1.546 L 3614.603 1.689 L 3609.394 1.8 L 3604.199 1.914 L 3597.292 2.072 L 3592.128 2.194 L 3586.977 2.32 L 3580.13 2.492 L 3575.01 2.626 L 3568.204 2.809 L 3563.115 2.95 L 3558.038 3.095 L 3551.289 3.292 L 3546.243 3.444 L 3539.533 3.652 L 3534.516 3.812 L 3527.846 4.03 L 3522.857 4.197 L 3517.881 4.367 L 3511.266 4.599 L 3506.318 4.777 L 3499.74 5.019 L 3493.183 5.266 L 3488.279 5.456 L 3481.758 5.713 L 3476.882 5.91 L 3470.397 6.177 L 3465.547 6.381 L 3459.099 6.658 L 3454.275 6.869 L 3447.861 7.155 L 3441.467 7.447 L 3436.684 7.669 L 3430.324 7.97 L 3425.567 8.199 L 3419.24 8.51 L 3412.932 8.825 L 3408.213 9.065 L 3401.938 9.389 L 3395.681 9.719 L 3391 9.969 L 3384.775 10.308 L 3378.567 10.652 L 3372.378 11 L 3367.747 11.265 L 3361.587 11.622 L 3355.445 11.985 L 3349.319 12.352 L 3344.736 12.631 L 3338.64 13.006 L 3332.56 13.387 L 3326.497 13.773 L 3320.449 14.163 L 3315.924 14.459 L 3309.904 14.857 L 3303.9 15.261 L 3297.911 15.669 L 3291.937 16.082 L 3285.978 16.499 L 3281.518 16.815 L 3275.585 17.24 L 3269.666 17.67 L 3263.762 18.105 L 3257.872 18.544 L 3251.995 18.987 L 3246.132 19.435 L 3240.283 19.887 L 3234.447 20.344 L 3228.624 20.805 L 3222.814 21.27 L 3217.017 21.74 L 3211.232 22.214 L 3205.46 22.692 L 3199.7 23.174 L 3193.952 23.661 L 3188.215 24.151 L 3182.491 24.646 L 3176.778 25.145 L 3171.076 25.648 L 3165.385 26.155 L 3159.705 26.666 L 3154.035 27.181 L 3148.376 27.7 L 3142.728 28.222 L 3137.089 28.749 L 3131.46 29.28 L 3125.841 29.814 L 3120.232 30.352 L 3114.632 30.894 L 3109.041 31.44 L 3103.459 31.989 L 3096.494 32.681 L 3090.932 33.239 L 3085.378 33.8 L 3079.832 34.365 L 3074.294 34.933 L 3068.764 35.505 L 3063.241 36.081 L 3057.726 36.66 L 3050.842 37.388 L 3045.343 37.975 L 3039.85 38.565 L 3034.364 39.158 L 3028.885 39.755 L 3023.411 40.355 L 3016.578 41.109 L 3011.118 41.717 L 3005.664 42.327 L 3000.214 42.941 L 2994.771 43.557 L 2987.973 44.333 L 2982.54 44.956 L 2977.111 45.583 L 2971.688 46.213 L 2966.268 46.845 L 2959.499 47.641 L 2954.088 48.281 L 2948.68 48.923 L 2943.276 49.569 L 2936.526 50.379 L 2931.129 51.031 L 2925.734 51.686 L 2920.342 52.343 L 2914.953 53.003 L 2908.219 53.831 L 2902.834 54.497 L 2897.451 55.165 L 2892.07 55.836 L 2885.345 56.679 L 2879.966 57.355 L 2874.588 58.034 L 2869.211 58.716 L 2862.49 59.571 L 2857.114 60.258 L 2851.738 60.947 L 2846.362 61.639 L 2840.986 62.333 L 2834.264 63.203 L 2828.887 63.902 L 2823.508 64.603 L 2818.128 65.306 L 2811.402 66.188 L 2806.019 66.896 L 2800.634 67.606 L 2795.247 68.318 L 2789.859 69.032 L 2783.119 69.927 L 2777.725 70.645 L 2772.328 71.365 L 2766.928 72.087 L 2760.174 72.992 L 2754.767 73.718 L 2749.356 74.446 L 2743.941 75.176 L 2738.523 75.907 L 2733.1 76.64 L 2726.316 77.558 L 2720.883 78.295 L 2715.445 79.033 L 2710.003 79.773 L 2704.555 80.514 L 2699.102 81.257 L 2692.278 82.187 L 2686.812 82.933 L 2681.34 83.68 L 2675.862 84.429 L 2670.378 85.178 L 2664.887 85.93 L 2659.389 86.682 L 2652.507 87.624 L 2646.993 88.379 L 2641.472 89.136 L 2635.943 89.893 L 2630.407 90.652 L 2624.862 91.411 L 2619.309 92.172 L 2613.748 92.933 L 2608.179 93.696 L 2602.6 94.459 L 2597.013 95.224 L 2591.416 95.989 L 2585.811 96.755 L 2580.195 97.522 L 2574.57 98.29 L 2568.935 99.058 L 2563.29 99.828 L 2557.634 100.597 L 2551.968 101.368 L 2546.291 102.139 L 2540.604 102.911 L 2534.905 103.683 L 2529.195 104.456 L 2523.473 105.229 L 2517.74 106.003 L 2511.995 106.778 L 2506.238 107.552 L 2500.469 108.327 L 2494.687 109.103 L 2488.892 109.879 L 2483.085 110.655 L 2478.721 111.237 L 2472.891 112.013 L 2467.047 112.79 L 2461.19 113.567 L 2455.319 114.344 L 2449.434 115.121 L 2445.011 115.704 L 2439.101 116.481 L 2433.177 117.258 L 2427.238 118.035 L 2421.284 118.813 L 2416.808 119.395 L 2410.828 120.173 L 2404.832 120.949 L 2398.821 121.726 L 2394.302 122.309 L 2388.263 123.085 L 2382.207 123.861 L 2376.136 124.637 L 2371.571 125.219 L 2365.471 125.994 L 2359.353 126.769 L 2354.754 127.35 L 2348.606 128.125 L 2342.441 128.899 L 2337.806 129.479 L 2331.61 130.252 L 2325.397 131.024 L 2320.724 131.603 L 2314.479 132.375 L 2309.783 132.953 L 2303.505 133.724 L 2297.208 134.493 L 2292.473 135.07 L 2286.143 135.839 L 2281.382 136.415 L 2275.018 137.182 L 2270.232 137.757 L 2263.834 138.523 L 2259.022 139.097 L 2252.588 139.861 L 2247.749 140.433 L 2241.28 141.196 L 2236.414 141.768 L 2229.909 142.529 L 2225.016 143.099 L 2218.473 143.858 L 2213.552 144.427 L 2208.619 144.995 L 2202.023 145.752 L 2197.061 146.318 L 2190.427 147.073 L 2185.436 147.638 L 2180.433 148.202 L 2173.743 148.954 L 2168.71 149.517 L 2163.665 150.079 L 2156.917 150.827 L 2151.842 151.387 L 2146.753 151.947 L 2139.947 152.692 L 2134.828 153.249 L 2129.695 153.806 L 2122.83 154.547 L 2117.666 155.102 L 2112.488 155.656 L 2107.296 156.209 L 2100.352 156.946 L 2095.128 157.497 L 2089.89 158.047 L 2084.638 158.596 L 2079.372 159.144 L 2072.328 159.874 L 2067.028 160.42 L 2061.714 160.965 L 2056.386 161.509 L 2051.043 162.052 L 2045.685 162.594 L 2038.519 163.315 L 2033.127 163.854 L 2027.72 164.393 L 2022.298 164.93 L 2016.861 165.466 L 2011.408 166.002 L 2005.941 166.536 L 2000.458 167.069 L 1994.96 167.6 L 1989.446 168.131 L 1983.917 168.661 L 1978.372 169.189 L 1972.811 169.716 L 1967.235 170.242 L 1961.642 170.766 L 1956.034 171.29 L 1950.41 171.812 L 1944.769 172.333 L 1939.113 172.852 L 1933.44 173.371 L 1927.75 173.888 L 1922.045 174.404 L 1916.322 174.918 L 1910.583 175.431 L 1904.828 175.943 L 1899.056 176.453 L 1893.266 176.962 L 1887.46 177.47 L 1881.637 177.976 L 1875.797 178.481 L 1869.94 178.984 L 1866.025 179.319 L 1860.139 179.82 L 1854.235 180.319 L 1848.314 180.817 L 1842.376 181.314 L 1836.42 181.809 L 1832.439 182.138 L 1826.453 182.63 L 1820.45 183.121 L 1814.428 183.611 L 1808.389 184.098 L 1804.352 184.423 L 1798.283 184.908 L 1792.195 185.392 L 1786.089 185.874 L 1782.008 186.194 L 1775.871 186.673 L 1769.716 187.151 L 1763.542 187.627 L 1759.415 187.944 L 1753.21 188.417 L 1746.987 188.888 L 1742.827 189.202 L 1736.571 189.671 L 1730.297 190.138 L 1724.004 190.603 L 1719.797 190.912 L 1713.472 191.374 L 1707.127 191.835 L 1702.887 192.141 L 1696.509 192.599 L 1692.247 192.903 L 1685.837 193.357 L 1679.408 193.81 L 1675.111 194.111 L 1668.649 194.561 L 1662.167 195.009 L 1657.834 195.306 L 1651.319 195.751 L 1646.964 196.047 L 1640.415 196.488 L 1636.038 196.782 L 1629.455 197.22 L 1622.852 197.656 L 1618.439 197.946 L 1611.802 198.38 L 1607.366 198.667 L 1600.694 199.097 L 1596.235 199.383 L 1589.529 199.81 L 1585.047 200.093 L 1578.306 200.516 L 1573.801 200.797 L 1567.025 201.217 L 1562.497 201.496 L 1555.686 201.913 L 1551.134 202.189 L 1544.287 202.602 L 1539.711 202.877 L 1535.126 203.15 L 1528.23 203.558 L 1523.62 203.829 L 1516.688 204.234 L 1512.055 204.502 L 1505.086 204.903 L 1500.429 205.17 L 1495.761 205.435 L 1488.742 205.831 L 1484.05 206.094 L 1476.994 206.486 L 1472.278 206.746 L 1467.552 207.006 L 1460.444 207.393 L 1455.693 207.65 L 1450.933 207.906 L 1443.773 208.288 L 1438.987 208.541 L 1434.191 208.793 L 1426.979 209.17 L 1422.158 209.42 L 1417.327 209.669 L 1410.061 210.04 L 1405.205 210.286 L 1400.338 210.532 L 1393.019 210.897 L 1388.127 211.14 L 1383.224 211.382 L 1375.851 211.742 L 1370.923 211.981 L 1365.985 212.219 L 1361.036 212.455 L 1353.593 212.809 L 1348.618 213.043 L 1343.632 213.276 L 1338.636 213.508 L 1331.123 213.853 L 1326.1 214.083 L 1321.068 214.311 L 1316.024 214.538 L 1310.97 214.764 L 1303.369 215.101 L 1298.289 215.324 L 1293.197 215.546 L 1288.095 215.767 L 1282.982 215.986 L 1275.293 216.314 L 1270.153 216.531 L 1265.003 216.747 L 1259.841 216.962 L 1254.669 217.175 L 1246.89 217.493 L 1241.691 217.704 L 1236.48 217.913 L 1231.259 218.122 L 1226.026 218.329 L 1220.783 218.535 L 1215.528 218.74 L 1207.625 219.045 L 1202.343 219.247 L 1197.05 219.448 L 1191.745 219.647 L 1186.429 219.846 L 1181.102 220.043 L 1175.764 220.239 L 1170.415 220.433 L 1165.054 220.627 L 1156.992 220.915 L 1151.603 221.106 L 1146.203 221.295 L 1140.791 221.483 L 1135.368 221.67 L 1129.933 221.856 L 1124.487 222.04 L 1119.03 222.223 L 1113.561 222.405 L 1108.08 222.586 L 1102.588 222.765 L 1097.085 222.944 L 1091.57 223.121 L 1086.043 223.296 L 1080.504 223.471 L 1074.954 223.644 L 1069.392 223.816 L 1063.819 223.986 L 1058.234 224.156 L 1052.637 224.324 L 1047.028 224.491 L 1041.408 224.656 L 1035.775 224.82 L 1030.131 224.983 L 1024.475 225.145 L 1018.807 225.305 L 1013.127 225.464 L 1007.435 225.622 L 1001.731 225.778 L 996.016 225.933 L 990.288 226.087 L 984.548 226.24 L 978.796 226.391 L 973.032 226.541 L 967.256 226.689 L 961.468 226.836 L 955.667 226.982 L 949.855 227.126 L 944.03 227.269 L 938.193 227.411 L 935.27 227.482 L 929.415 227.621 L 923.547 227.76 L 917.667 227.897 L 911.775 228.032 L 905.87 228.166 L 899.953 228.299 L 894.024 228.431 L 888.082 228.561 L 882.128 228.69 L 879.146 228.753 L 873.173 228.88 L 867.187 229.005 L 861.189 229.129 L 855.179 229.252 L 849.155 229.373 L 843.12 229.492 L 840.097 229.552 L 834.042 229.669 L 827.975 229.785 L 821.895 229.9 L 815.802 230.013 L 809.696 230.125 L 803.578 230.235 L 800.514 230.29 L 794.377 230.398 L 788.227 230.505 L 782.064 230.61 L 775.888 230.714 L 772.795 230.766 L 766.599 230.867 L 760.391 230.968 L 754.17 231.066 L 747.936 231.164 L 744.814 231.212 L 738.56 231.307 L 732.294 231.401 L 726.014 231.493 L 719.721 231.584 L 716.57 231.628 L 710.258 231.717 L 703.932 231.804 L 697.594 231.889 L 691.242 231.973 L 688.061 232.015 L 681.689 232.097 L 675.304 232.177 L 668.906 232.256 L 665.702 232.294 L 659.284 232.371 L 652.852 232.446 L 646.408 232.519 L 643.18 232.555 L 636.715 232.627 L 630.237 232.696 L 626.993 232.73 L 620.495 232.798 L 613.983 232.863 L 607.458 232.928 L 604.19 232.959 L 597.644 233.021 L 591.085 233.081 L 587.801 233.111 L 581.221 233.169 L 574.628 233.226 L 568.021 233.28 L 564.713 233.307 L 558.086 233.36 L 551.445 233.411 L 548.119 233.436 L 541.458 233.484 L 534.783 233.531 L 531.44 233.554 L 524.744 233.599 L 518.034 233.642 L 514.674 233.663 L 507.944 233.703 L 501.2 233.743 L 497.822 233.761 L 491.057 233.798 L 484.278 233.833 L 480.884 233.85 L 474.084 233.883 L 467.27 233.914 L 463.858 233.929 L 457.023 233.957 L 450.174 233.984 L 446.744 233.997 L 439.874 234.021 L 436.434 234.033 L 429.542 234.055 L 422.637 234.076 L 419.179 234.085 L 412.253 234.103 L 405.312 234.119 L 401.836 234.127 L 394.874 234.141 L 391.388 234.147 L 384.404 234.158 L 377.406 234.168 L 373.902 234.172 L 366.883 234.179 L 363.368 234.182 L 356.327 234.187 L 349.272 234.19 L 345.739 234.191 L 338.663 234.191 L 335.119 234.191 L 328.02 234.189 L 324.466 234.187 L 317.346 234.182 L 310.211 234.176 L 306.638 234.172 L 299.482 234.163 L 295.898 234.158 L 288.72 234.147 L 285.125 234.14 L 277.925 234.126 L 270.71 234.111 L 267.098 234.102 L 259.861 234.084 L 256.237 234.074 L 248.978 234.053 L 245.343 234.042 L 238.062 234.019 L 234.416 234.006 L 227.113 233.98 L 223.456 233.966 L 216.131 233.938 L 208.79 233.907 L 205.115 233.891 L 197.752 233.858 L 194.065 233.841 L 186.681 233.805 L 182.983 233.787 L 175.575 233.748 L 171.866 233.729 L 164.437 233.688 L 160.716 233.666 L 153.264 233.623 L 149.532 233.6 L 142.058 233.554 L 138.315 233.53 L 130.817 233.481 L 127.063 233.456 L 119.543 233.404 L 115.777 233.378 L 108.234 233.323 L 104.457 233.295 L 96.892 233.238 L 93.103 233.209 L 85.515 233.149 L 81.715 233.119 L 77.911 233.088 L 70.293 233.024 L 66.477 232.992 L 58.836 232.926 L 55.009 232.892 L 47.344 232.823 L 43.506 232.788 L 35.818 232.716 L 31.968 232.68 L 24.258 232.605 L 20.396 232.568 L 12.662 232.491 L 8.789 232.451 L 6.291 478.143 L 10.164 478.172 L 17.899 478.228 L 21.761 478.256 L 29.474 478.309 L 33.325 478.335 L 41.016 478.385 L 44.856 478.41 L 52.526 478.458 L 56.355 478.481 L 64.002 478.526 L 67.821 478.548 L 74.996 478.585 L 79.253 478.611 L 83.057 478.631 L 90.653 478.67 L 94.446 478.689 L 102.021 478.725 L 105.803 478.742 L 113.356 478.776 L 117.127 478.792 L 124.659 478.822 L 128.419 478.837 L 135.929 478.865 L 139.679 478.878 L 147.167 478.904 L 150.906 478.916 L 158.373 478.938 L 162.101 478.949 L 169.103 478.965 L 173.264 478.978 L 180.246 478.991 L 184.395 479.004 L 191.356 479.014 L 195.494 479.025 L 202.435 479.033 L 206.561 479.042 L 213.482 479.048 L 220.828 479.055 L 224.496 479.058 L 231.822 479.063 L 235.479 479.065 L 242.784 479.067 L 246.431 479.068 L 253.714 479.068 L 257.351 479.067 L 264.613 479.064 L 268.239 479.062 L 275.481 479.056 L 282.272 479.044 L 286.317 479.045 L 293.088 479.03 L 297.121 479.029 L 303.873 479.012 L 307.895 479.01 L 314.627 478.99 L 321.778 478.974 L 325.781 478.968 L 332.48 478.945 L 336.472 478.939 L 343.15 478.913 L 347.131 478.905 L 353.79 478.877 L 360.866 478.85 L 364.399 478.836 L 371.455 478.807 L 374.977 478.792 L 382.012 478.761 L 388.605 478.724 L 392.539 478.71 L 399.112 478.671 L 403.036 478.656 L 409.59 478.614 L 416.557 478.574 L 420.462 478.557 L 426.983 478.511 L 433.917 478.467 L 437.379 478.444 L 444.292 478.397 L 447.744 478.373 L 454.638 478.324 L 461.094 478.269 L 464.952 478.246 L 471.813 478.193 L 478.237 478.134 L 482.078 478.109 L 488.483 478.048 L 495.297 477.989 L 498.699 477.959 L 505.493 477.897 L 511.854 477.83 L 515.659 477.801 L 522.42 477.734 L 528.749 477.664 L 532.536 477.632 L 538.847 477.559 L 545.562 477.487 L 548.915 477.45 L 555.61 477.376 L 562.293 477.3 L 565.629 477.261 L 572.292 477.183 L 578.528 477.1 L 585.164 477.018 L 588.893 476.979 L 595.097 476.892 L 601.701 476.806 L 604.999 476.763 L 611.585 476.675 L 618.158 476.584 L 624.305 476.49 L 627.992 476.446 L 634.122 476.35 L 640.649 476.254 L 644.319 476.208 L 650.418 476.108 L 656.915 476.008 L 662.988 475.904 L 666.634 475.855 L 673.099 475.751 L 679.143 475.644 L 685.583 475.537 L 688.797 475.483 L 695.218 475.374 L 701.626 475.263 L 707.616 475.148 L 713.998 475.034 L 717.59 474.978 L 723.55 474.86 L 729.902 474.742 L 735.837 474.62 L 742.163 474.499 L 745.726 474.439 L 751.632 474.314 L 757.928 474.189 L 764.212 474.062 L 770.081 473.932 L 773.614 473.869 L 779.466 473.737 L 785.707 473.605 L 791.936 473.471 L 797.752 473.334 L 801.255 473.267 L 807.454 473.129 L 813.241 472.989 L 819.415 472.848 L 825.577 472.705 L 831.33 472.56 L 837.466 472.415 L 840.928 472.342 L 846.651 472.194 L 852.758 472.045 L 858.855 471.894 L 864.543 471.741 L 870.615 471.587 L 876.675 471.431 L 879.7 471.353 L 885.741 471.195 L 891.772 471.036 L 897.398 470.875 L 903.404 470.712 L 909.399 470.548 L 914.991 470.383 L 920.962 470.216 L 926.922 470.048 L 932.478 469.878 L 935.838 469.792 L 941.768 469.62 L 947.687 469.446 L 953.205 469.272 L 959.1 469.095 L 964.984 468.917 L 970.469 468.738 L 976.329 468.557 L 982.179 468.374 L 987.631 468.19 L 993.457 468.005 L 999.271 467.818 L 1005.075 467.63 L 1010.483 467.44 L 1016.263 467.249 L 1022.032 467.056 L 1027.79 466.862 L 1033.154 466.667 L 1038.889 466.47 L 1044.614 466.271 L 1049.945 466.072 L 1055.646 465.871 L 1061.336 465.668 L 1067.016 465.463 L 1072.304 465.259 L 1077.96 465.052 L 1083.605 464.843 L 1089.24 464.633 L 1094.485 464.423 L 1100.097 464.21 L 1105.698 463.995 L 1111.289 463.779 L 1116.492 463.564 L 1122.06 463.345 L 1127.617 463.125 L 1133.164 462.903 L 1138.324 462.683 L 1143.848 462.458 L 1149.361 462.232 L 1154.866 462.005 L 1162.354 461.667 L 1167.83 461.437 L 1173.295 461.205 L 1178.749 460.971 L 1184.193 460.736 L 1189.255 460.503 L 1194.677 460.265 L 1200.088 460.026 L 1205.491 459.785 L 1212.834 459.429 L 1218.208 459.186 L 1223.572 458.941 L 1228.925 458.694 L 1234.269 458.446 L 1239.234 458.201 L 1244.557 457.95 L 1252.154 457.575 L 1257.449 457.321 L 1262.736 457.066 L 1267.645 456.814 L 1272.911 456.556 L 1280.425 456.17 L 1285.664 455.909 L 1290.892 455.646 L 1296.112 455.382 L 1300.958 455.122 L 1308.389 454.726 L 1313.572 454.457 L 1318.744 454.187 L 1323.908 453.916 L 1328.701 453.649 L 1336.051 453.243 L 1341.178 452.967 L 1346.295 452.69 L 1351.403 452.411 L 1358.686 451.997 L 1363.771 451.715 L 1368.485 451.438 L 1373.549 451.153 L 1380.767 450.731 L 1385.804 450.443 L 1390.833 450.154 L 1398.001 449.725 L 1403.007 449.433 L 1407.647 449.147 L 1414.765 448.711 L 1419.735 448.415 L 1424.696 448.117 L 1431.764 447.675 L 1436.7 447.374 L 1441.627 447.072 L 1448.649 446.624 L 1453.2 446.327 L 1458.094 446.02 L 1465.065 445.566 L 1469.933 445.257 L 1474.794 444.946 L 1481.717 444.486 L 1486.554 444.172 L 1493.442 443.707 L 1498.257 443.39 L 1502.715 443.081 L 1509.555 442.61 L 1514.337 442.289 L 1521.144 441.814 L 1525.903 441.49 L 1532.677 441.011 L 1537.41 440.684 L 1542.137 440.356 L 1548.863 439.871 L 1553.567 439.539 L 1560.26 439.05 L 1564.942 438.716 L 1571.602 438.222 L 1576.264 437.885 L 1582.551 437.398 L 1587.188 437.058 L 1593.783 436.556 L 1598.398 436.213 L 1604.961 435.708 L 1609.554 435.362 L 1616.085 434.852 L 1620.656 434.504 L 1627.158 433.99 L 1633.638 433.474 L 1638.174 433.121 L 1644.622 432.601 L 1649.137 432.245 L 1655.554 431.721 L 1660.047 431.362 L 1666.436 430.834 L 1672.803 430.303 L 1677.263 429.94 L 1683.602 429.406 L 1689.92 428.87 L 1694.346 428.502 L 1700.634 427.962 L 1705.039 427.592 L 1711.299 427.048 L 1717.538 426.501 L 1721.91 426.127 L 1728.122 425.576 L 1734.316 425.024 L 1740.49 424.469 L 1744.817 424.089 L 1750.965 423.531 L 1757.091 422.971 L 1761.386 422.586 L 1767.487 422.022 L 1773.57 421.456 L 1779.632 420.887 L 1783.884 420.497 L 1789.921 419.925 L 1795.941 419.351 L 1801.94 418.775 L 1806.146 418.379 L 1812.442 417.784 L 1818.399 417.202 L 1824.34 416.618 L 1830.26 416.032 L 1834.415 415.629 L 1840.311 415.04 L 1846.191 414.448 L 1852.054 413.855 L 1857.901 413.259 L 1863.728 412.662 L 1867.82 412.251 L 1873.623 411.65 L 1879.407 411.047 L 1885.495 410.425 L 1891.25 409.818 L 1896.989 409.209 L 1902.713 408.598 L 1908.421 407.986 L 1914.113 407.371 L 1919.79 406.755 L 1925.448 406.137 L 1931.406 405.498 L 1937.036 404.875 L 1942.651 404.251 L 1948.251 403.626 L 1953.836 402.998 L 1959.406 402.369 L 1964.96 401.737 L 1970.496 401.104 L 1976.33 400.449 L 1981.84 399.812 L 1987.335 399.174 L 1992.816 398.534 L 1998.282 397.892 L 2003.729 397.248 L 2009.472 396.581 L 2014.894 395.934 L 2020.303 395.285 L 2025.697 394.634 L 2031.072 393.982 L 2036.744 393.305 L 2043.675 392.445 L 2049.008 391.787 L 2054.328 391.128 L 2059.628 390.467 L 2065.222 389.78 L 2070.503 389.116 L 2077.32 388.243 L 2082.567 387.575 L 2087.795 386.905 L 2093.315 386.209 L 2098.525 385.536 L 2105.249 384.653 L 2110.42 383.977 L 2115.881 383.274 L 2121.034 382.594 L 2127.685 381.702 L 2132.8 381.019 L 2138.207 380.309 L 2144.802 379.411 L 2149.875 378.723 L 2155.239 378.007 L 2161.779 377.103 L 2166.817 376.411 L 2171.841 375.717 L 2178.62 374.78 L 2183.617 374.082 L 2188.601 373.384 L 2195.326 372.44 L 2200.287 371.738 L 2206.687 370.819 L 2211.612 370.114 L 2216.824 369.379 L 2223.174 368.455 L 2223.68 368.456 L 2217.328 369.372 L 2210.756 370.118 L 2206.608 370.826 L 2200.699 371.74 L 2195.173 372.444 L 2188.185 373.396 L 2183.395 374.099 L 2178.368 374.801 L 2171.325 375.75 L 2166.497 376.45 L 2161.429 377.15 L 2155.385 378.054 L 2148.637 378.791 L 2144.353 379.488 L 2138.257 380.39 L 2131.461 381.123 L 2127.137 381.818 L 2120.987 382.715 L 2115.259 383.407 L 2108.949 384.136 L 2104.572 384.826 L 2098.35 385.719 L 2092.563 386.407 L 2086.194 387.132 L 2081.76 387.818 L 2076.483 388.503 L 2070.169 389.389 L 2064.311 390.072 L 2057.868 390.792 L 2053.361 391.472 L 2048.011 392.152 L 2042.648 392.831 L 2036.219 393.709 L 2029.154 394.424 L 2024.57 395.099 L 2019.146 395.773 L 2013.707 396.446 L 2008.255 397.119 L 2001.665 397.827 L 1997.009 398.496 L 1991.513 399.165 L 1986.002 399.833 L 1980.477 400.5 L 1974.937 401.166 L 1968.259 401.866 L 1963.512 402.529 L 1957.927 403.192 L 1952.327 403.853 L 1946.713 404.513 L 1941.083 405.172 L 1935.438 405.83 L 1929.777 406.487 L 1922.985 407.178 L 1918.106 407.831 L 1912.4 408.484 L 1906.677 409.136 L 1900.94 409.787 L 1895.186 410.437 L 1889.417 411.086 L 1883.632 411.733 L 1876.724 412.414 L 1871.706 413.057 L 1865.873 413.7 L 1860.967 414.153 L 1855.909 414.792 L 1850.032 415.432 L 1844.14 416.071 L 1838.231 416.709 L 1832.305 417.345 L 1827.35 417.793 L 1822.185 418.424 L 1816.215 419.057 L 1810.228 419.689 L 1803.136 420.353 L 1798.906 420.793 L 1793.657 421.419 L 1787.608 422.045 L 1781.542 422.67 L 1776.504 423.109 L 1771.184 423.73 L 1765.072 424.352 L 1758.943 424.972 L 1753.871 425.408 L 1748.476 426.023 L 1742.301 426.639 L 1737.203 427.072 L 1731.756 427.683 L 1725.533 428.296 L 1719.292 428.907 L 1714.162 429.337 L 1708.637 429.943 L 1702.348 430.55 L 1697.193 430.977 L 1691.612 431.579 L 1686.439 432.004 L 1680.825 432.603 L 1674.457 433.204 L 1669.258 433.626 L 1663.587 434.221 L 1657.171 434.818 L 1651.947 435.238 L 1646.217 435.829 L 1640.976 436.246 L 1635.211 436.835 L 1629.951 437.25 L 1624.152 437.836 L 1617.623 438.424 L 1612.338 438.837 L 1606.479 439.418 L 1601.176 439.829 L 1595.281 440.408 L 1589.96 440.816 L 1584.028 441.393 L 1578.69 441.799 L 1574.046 442.341 L 1567.708 442.753 L 1561.694 443.323 L 1556.33 443.727 L 1550.278 444.294 L 1544.896 444.696 L 1538.806 445.261 L 1533.406 445.66 L 1528.656 446.054 L 1522.517 446.616 L 1517.088 447.012 L 1510.91 447.571 L 1505.464 447.965 L 1499.247 448.52 L 1495.181 448.882 L 1489.304 449.276 L 1483.027 449.828 L 1477.544 450.218 L 1471.227 450.766 L 1465.726 451.154 L 1460.842 451.536 L 1454.472 452.081 L 1448.942 452.465 L 1445.39 452.815 L 1437.947 453.362 L 1432.398 453.744 L 1427.448 454.12 L 1420.962 454.657 L 1415.385 455.035 L 1410.401 455.408 L 1403.861 455.941 L 1399.58 456.287 L 1393.594 456.665 L 1386.99 457.192 L 1381.365 457.566 L 1376.313 457.933 L 1369.653 458.456 L 1364 458.826 L 1360.208 459.162 L 1354.177 459.533 L 1347.437 460.05 L 1341.755 460.416 L 1336.624 460.776 L 1331.482 461.136 L 1324.672 461.648 L 1320.211 461.982 L 1314.137 462.346 L 1308.95 462.701 L 1303.754 463.055 L 1296.848 463.561 L 1292.324 463.889 L 1286.218 464.248 L 1280.976 464.599 L 1275.724 464.948 L 1268.721 465.446 L 1262.916 465.798 L 1258.846 466.117 L 1252.698 466.47 L 1247.389 466.814 L 1240.287 467.305 L 1234.441 467.651 L 1230.29 467.966 L 1224.111 468.313 L 1218.745 468.652 L 1213.369 468.99 L 1207.982 469.327 L 1201.822 469.784 L 1195.214 470.13 L 1189.79 470.464 L 1184.356 470.796 L 1180.067 471.103 L 1173.829 471.441 L 1168.363 471.771 L 1162.886 472.1 L 1157.398 472.428 L 1151.03 472.872 L 1144.385 473.209 L 1138.86 473.533 L 1133.323 473.857 L 1128.892 474.155 L 1122.597 474.484 L 1117.028 474.805 L 1111.448 475.124 L 1106.961 475.419 L 1100.636 475.744 L 1095.024 476.06 L 1089.4 476.376 L 1084.856 476.667 L 1078.501 476.988 L 1072.845 477.3 L 1067.177 477.612 L 1062.575 477.9 L 1056.191 478.216 L 1050.49 478.524 L 1044.778 478.831 L 1040.117 479.116 L 1033.705 479.428 L 1027.959 479.732 L 1023.248 480.013 L 1016.819 480.322 L 1011.04 480.624 L 1005.249 480.924 L 1000.478 481.202 L 994.02 481.506 L 988.195 481.803 L 982.359 482.1 L 977.528 482.374 L 971.041 482.674 L 965.17 482.967 L 960.288 483.238 L 953.785 483.535 L 947.88 483.825 L 942.945 484.092 L 936.427 484.387 L 930.487 484.674 L 926.477 484.836 L 922.148 485.096 L 915.586 485.386 L 909.605 485.668 L 904.581 485.93 L 898.003 486.217 L 891.987 486.497 L 886.909 486.755 L 880.316 487.039 L 874.264 487.315 L 871.231 487.453 L 865.165 487.728 L 859.084 488.002 L 853.925 488.255 L 847.284 488.532 L 841.168 488.803 L 835.954 489.053 L 831.407 489.212 L 825.823 489.474 L 820.581 489.722 L 813.894 489.993 L 807.711 490.257 L 802.414 490.502 L 795.711 490.77 L 791.658 490.918 L 786.874 491.155 L 780.141 491.42 L 773.892 491.678 L 768.509 491.917 L 763.974 492.068 L 759.094 492.301 L 752.327 492.56 L 746.022 492.813 L 740.565 493.048 L 736.044 493.196 L 730.206 493.441 L 724.719 493.673 L 717.906 493.926 L 712.373 494.155 L 707.867 494.301 L 701.951 494.541 L 696.387 494.768 L 689.54 495.016 L 683.112 495.257 L 679.89 495.378 L 673.445 495.618 L 667.805 495.84 L 660.924 496.082 L 656.821 496.217 L 651.6 496.432 L 644.688 496.671 L 638.97 496.888 L 634.482 497.026 L 628.372 497.253 L 622.622 497.467 L 618.119 497.602 L 612.775 497.811 L 605.812 498.043 L 599.218 498.27 L 595.914 498.382 L 589.305 498.607 L 583.455 498.815 L 578.963 498.946 L 572.717 499.163 L 566.835 499.368 L 559.807 499.592 L 556.464 499.701 L 549.777 499.918 L 543.074 500.135 L 539.715 500.242 L 532.995 500.457 L 527.013 500.655 L 522.517 500.78 L 516.884 500.973 L 509.785 501.187 L 505.606 501.305 L 499.938 501.496 L 492.808 501.707 L 489.4 501.81 L 482.582 502.015 L 476.476 502.205 L 471.985 502.325 L 466.2 502.509 L 459.03 502.714 L 454.828 502.827 L 449.005 503.01 L 441.805 503.211 L 438.347 503.31 L 431.429 503.505 L 427.962 503.603 L 421.024 503.797 L 414.772 503.977 L 410.28 504.089 L 403.614 504.277 L 397.327 504.454 L 392.822 504.564 L 386.819 504.736 L 382.307 504.845 L 376.281 505.015 L 368.972 505.203 L 365.444 505.295 L 358.384 505.478 L 354.846 505.569 L 347.766 505.75 L 341.343 505.917 L 336.846 506.022 L 330.672 506.184 L 326.168 506.288 L 319.97 506.448 L 315.459 506.551 L 308.568 506.721 L 302.065 506.882 L 297.542 506.983 L 291.28 507.139 L 286.751 507.238 L 280.464 507.393 L 275.928 507.49 L 269.617 507.643 L 262.143 507.811 L 258.513 507.894 L 251.246 508.057 L 247.605 508.139 L 240.317 508.3 L 236.666 508.38 L 229.357 508.54 L 225.695 508.619 L 218.365 508.777 L 214.693 508.855 L 207.342 509.011 L 200.608 509.154 L 196.069 509.244 L 189.53 509.383 L 184.985 509.472 L 178.42 509.61 L 173.869 509.697 L 167.278 509.833 L 162.721 509.919 L 156.104 510.053 L 152.191 510.128 L 144.72 510.272 L 140.976 510.344 L 133.484 510.487 L 129.73 510.557 L 122.216 510.698 L 118.451 510.767 L 110.916 510.906 L 107.141 510.975 L 99.584 511.111 L 95.797 511.179 L 88.219 511.313 L 84.421 511.38 L 76.821 511.512 L 73.013 511.578 L 68.57 511.652 L 61.731 511.771 L 57.751 511.837 L 50.1 511.965 L 46.267 512.028 L 38.594 512.153 L 34.749 512.216 L 27.054 512.339 L 23.199 512.4 L 15.482 512.522 L 11.616 512.582 L 3.877 512.701 L 0 512.761 L 7.293 1072.397 L 11.171 1072.689 L 18.913 1072.907 L 22.781 1073.196 L 30.504 1073.409 L 34.364 1073.695 L 42.068 1073.905 L 45.918 1074.187 L 53.604 1074.393 L 57.445 1074.672 L 65.113 1074.874 L 68.944 1075.15 L 74.782 1075.371 L 80.416 1075.62 L 84.235 1075.891 L 91.859 1076.083 L 95.67 1076.351 L 103.276 1076.538 L 107.077 1076.803 L 114.665 1076.986 L 118.456 1077.248 L 126.026 1077.427 L 129.809 1077.685 L 137.36 1077.86 L 141.134 1078.115 L 148.667 1078.286 L 152.432 1078.538 L 159.947 1078.705 L 163.703 1078.953 L 169.397 1079.142 L 174.946 1079.361 L 180.624 1079.545 L 186.163 1079.761 L 191.824 1079.942 L 197.353 1080.154 L 202.997 1080.331 L 208.516 1080.539 L 214.143 1080.712 L 221.557 1080.856 L 225.262 1081.086 L 232.659 1081.226 L 236.355 1081.452 L 243.734 1081.588 L 247.421 1081.811 L 254.783 1081.942 L 258.461 1082.162 L 265.805 1082.289 L 269.474 1082.506 L 276.8 1082.629 L 282.324 1082.775 L 287.769 1082.96 L 293.277 1083.103 L 298.712 1083.284 L 304.203 1083.423 L 309.629 1083.6 L 315.104 1083.735 L 322.355 1083.841 L 327.764 1084.012 L 333.212 1084.141 L 338.611 1084.309 L 344.043 1084.433 L 349.432 1084.597 L 354.849 1084.718 L 362.036 1084.808 L 365.628 1084.995 L 372.798 1085.081 L 376.381 1085.264 L 383.534 1085.346 L 388.899 1085.452 L 394.244 1085.602 L 399.594 1085.705 L 404.929 1085.851 L 410.263 1085.95 L 417.36 1086.018 L 422.679 1086.158 L 427.987 1086.25 L 435.056 1086.311 L 438.588 1086.475 L 445.64 1086.531 L 449.163 1086.691 L 456.198 1086.743 L 461.456 1086.822 L 466.732 1086.947 L 473.738 1086.992 L 478.971 1087.064 L 484.23 1087.183 L 489.447 1087.252 L 496.416 1087.287 L 499.898 1087.431 L 506.85 1087.462 L 512.033 1087.52 L 517.259 1087.628 L 524.183 1087.652 L 529.342 1087.704 L 534.551 1087.806 L 539.694 1087.853 L 546.581 1087.868 L 550.022 1087.994 L 556.892 1088.004 L 563.752 1088.012 L 567.179 1088.132 L 574.022 1088.135 L 579.107 1088.166 L 585.929 1088.164 L 591.082 1088.245 L 596.143 1088.27 L 602.938 1088.261 L 606.333 1088.368 L 613.111 1088.354 L 619.879 1088.337 L 624.898 1088.349 L 630.012 1088.416 L 635.016 1088.424 L 641.747 1088.398 L 646.844 1088.457 L 651.825 1088.459 L 658.529 1088.425 L 663.491 1088.421 L 668.566 1088.473 L 675.243 1088.431 L 680.182 1088.421 L 686.839 1088.374 L 690.165 1088.451 L 696.806 1088.399 L 703.436 1088.345 L 708.334 1088.322 L 714.944 1088.262 L 719.966 1088.294 L 724.842 1088.265 L 731.425 1088.197 L 736.283 1088.162 L 742.847 1088.089 L 747.84 1088.11 L 752.674 1088.068 L 759.212 1087.987 L 765.739 1087.904 L 770.547 1087.854 L 775.511 1087.863 L 780.306 1087.809 L 786.797 1087.715 L 793.279 1087.618 L 798.047 1087.555 L 802.982 1087.553 L 809.437 1087.449 L 814.184 1087.379 L 820.619 1087.269 L 827.045 1087.156 L 831.765 1087.078 L 838.171 1086.959 L 843.064 1086.94 L 847.763 1086.855 L 854.143 1086.729 L 860.513 1086.599 L 865.186 1086.506 L 871.537 1086.37 L 877.877 1086.232 L 881.045 1086.236 L 887.37 1086.093 L 893.685 1085.946 L 898.311 1085.837 L 904.607 1085.685 L 910.893 1085.53 L 915.494 1085.412 L 921.761 1085.251 L 928.018 1085.087 L 932.595 1084.961 L 937.385 1084.901 L 943.617 1084.728 L 949.838 1084.552 L 954.385 1084.417 L 960.588 1084.236 L 966.78 1084.051 L 971.303 1083.907 L 977.477 1083.716 L 983.641 1083.522 L 988.14 1083.37 L 994.286 1083.17 L 1000.421 1082.967 L 1006.547 1082.761 L 1011.013 1082.597 L 1017.121 1082.385 L 1023.218 1082.17 L 1029.305 1081.952 L 1033.74 1081.776 L 1039.809 1081.552 L 1045.868 1081.324 L 1050.279 1081.139 L 1056.32 1080.906 L 1062.352 1080.669 L 1068.373 1080.428 L 1072.753 1080.232 L 1078.756 1079.986 L 1084.749 1079.736 L 1090.733 1079.482 L 1095.082 1079.274 L 1101.048 1079.015 L 1107.003 1078.752 L 1112.95 1078.485 L 1117.268 1078.266 L 1123.196 1077.993 L 1129.115 1077.717 L 1135.023 1077.437 L 1139.311 1077.206 L 1145.202 1076.92 L 1151.083 1076.63 L 1156.955 1076.337 L 1162.536 1075.969 L 1168.387 1075.669 L 1174.228 1075.366 L 1180.06 1075.059 L 1185.883 1074.748 L 1190.099 1074.488 L 1195.904 1074.171 L 1201.699 1073.85 L 1207.485 1073.526 L 1212.968 1073.126 L 1218.734 1072.795 L 1224.49 1072.46 L 1230.236 1072.121 L 1235.972 1071.779 L 1240.12 1071.49 L 1245.839 1071.141 L 1252.825 1070.658 L 1258.523 1070.301 L 1264.211 1069.941 L 1268.319 1069.634 L 1273.99 1069.267 L 1280.913 1068.764 L 1286.562 1068.388 L 1292.202 1068.009 L 1297.833 1067.626 L 1301.895 1067.3 L 1308.755 1066.775 L 1314.357 1066.381 L 1319.949 1065.983 L 1325.532 1065.581 L 1329.556 1065.237 L 1336.354 1064.692 L 1341.909 1064.278 L 1347.453 1063.861 L 1352.989 1063.439 L 1359.736 1062.877 L 1365.25 1062.447 L 1369.22 1062.078 L 1374.717 1061.641 L 1381.416 1061.06 L 1386.892 1060.615 L 1392.36 1060.165 L 1399.019 1059.571 L 1404.465 1059.113 L 1408.381 1058.718 L 1415.004 1058.11 L 1420.422 1057.64 L 1425.832 1057.165 L 1432.416 1056.544 L 1437.804 1056.061 L 1443.184 1055.573 L 1449.73 1054.938 L 1453.584 1054.511 L 1458.935 1054.012 L 1465.446 1053.362 L 1470.777 1052.853 L 1476.099 1052.34 L 1482.572 1051.676 L 1487.873 1051.154 L 1494.319 1050.48 L 1499.6 1049.949 L 1503.387 1049.486 L 1509.799 1048.798 L 1515.052 1048.254 L 1521.438 1047.555 L 1526.671 1047.002 L 1533.032 1046.293 L 1538.245 1045.73 L 1543.448 1045.162 L 1549.772 1044.439 L 1554.956 1043.862 L 1561.254 1043.128 L 1566.417 1042.541 L 1572.69 1041.796 L 1577.834 1041.2 L 1582.629 1040.523 L 1587.755 1039.918 L 1593.98 1039.152 L 1599.086 1038.537 L 1605.286 1037.761 L 1610.372 1037.135 L 1616.547 1036.348 L 1621.613 1035.713 L 1627.763 1034.915 L 1633.9 1034.111 L 1638.936 1033.46 L 1645.047 1032.646 L 1650.064 1031.984 L 1656.151 1031.158 L 1661.148 1030.486 L 1667.211 1029.649 L 1673.26 1028.806 L 1678.226 1028.118 L 1684.252 1027.264 L 1690.263 1026.403 L 1695.2 1025.699 L 1701.188 1024.827 L 1706.104 1024.112 L 1712.068 1023.228 L 1718.019 1022.338 L 1722.906 1021.606 L 1728.833 1020.704 L 1734.747 1019.796 L 1740.648 1018.881 L 1745.495 1018.127 L 1751.372 1017.2 L 1757.236 1016.267 L 1762.053 1015.495 L 1767.894 1014.55 L 1773.722 1013.598 L 1779.537 1012.64 L 1784.315 1011.844 L 1790.107 1010.873 L 1795.887 1009.896 L 1801.653 1008.912 L 1806.392 1008.092 L 1813.486 1006.998 L 1819.214 1005.994 L 1824.93 1004.983 L 1830.634 1003.965 L 1835.321 1003.113 L 1841.001 1002.082 L 1846.67 1001.044 L 1852.326 999.999 L 1857.969 998.947 L 1863.601 997.888 L 1868.229 996.999 L 1873.838 995.926 L 1879.435 994.846 L 1886.335 993.655 L 1891.904 992.56 L 1897.462 991.458 L 1903.008 990.349 L 1908.542 989.232 L 1914.064 988.108 L 1919.574 986.976 L 1925.072 985.837 L 1931.85 984.583 L 1937.321 983.428 L 1942.781 982.266 L 1948.229 981.096 L 1953.666 979.918 L 1959.09 978.732 L 1964.504 977.539 L 1969.905 976.337 L 1976.563 975.017 L 1981.939 973.799 L 1987.304 972.573 L 1992.657 971.339 L 1997.998 970.097 L 2003.328 968.847 L 2009.897 967.474 L 2015.202 966.207 L 2020.495 964.931 L 2025.778 963.647 L 2031.049 962.354 L 2037.543 960.936 L 2043.719 959.435 L 2048.952 958.116 L 2054.175 956.788 L 2059.386 955.451 L 2065.805 953.985 L 2070.992 952.63 L 2077.086 951.072 L 2082.25 949.698 L 2087.403 948.316 L 2093.747 946.801 L 2098.876 945.399 L 2104.903 943.792 L 2110.009 942.371 L 2116.294 940.816 L 2121.376 939.375 L 2127.35 937.728 L 2132.409 936.267 L 2138.635 934.67 L 2144.569 932.99 L 2149.593 931.5 L 2155.773 929.87 L 2161.667 928.158 L 2166.656 926.636 L 2171.635 925.103 L 2178.644 923.227 L 2183.598 921.673 L 2188.543 920.108 L 2195.503 918.196 L 2200.423 916.609 L 2206.216 914.807 L 2211.115 913.197 L 2217.134 911.442 L 2222.888 909.604 L 2227.671 907.96 L 2234.678 905.964 L 2239.823 904.294 L 2244.85 902.398 L 2251.531 900.576 L 2256.977 898.652 L 2261.691 896.933 L 2268.602 894.852 L 2273.293 893.106 L 2280.17 890.997 L 2285.224 889.222 L 2290.152 887.217 L 2296.712 885.282 L 2302.331 883.246 L 2307.222 881.196 L 2313.739 879.218 L 2318.608 877.14 L 2325.091 875.131 L 2330.65 873.02 L 2335.485 870.896 L 2341.924 868.841 L 2347.064 866.686 L 2353.735 864.373 L 2358.262 862.413 L 2365.167 860.065 L 2370.376 857.845 L 2374.874 855.837 L 2381.731 853.438 L 2386.796 851.168 L 2393.357 848.735 L 2397.813 846.662 L 2404.604 844.191 L 2409.628 841.852 L 2416.126 839.346 L 2420.541 837.203 L 2427.267 834.658 L 2432.252 832.246 L 2438.944 829.662 L 2443.597 827.212 L 2449.724 824.825 L 2454.673 822.336 L 2461.301 819.672 L 2466.232 817.143 L 2472.827 814.437 L 2477.435 811.868 L 2483.46 809.358 L 2488.358 806.747 L 2494.541 803.957 L 2501.053 801.141 L 2505.926 798.464 L 2512.406 795.603 L 2517.265 792.88 L 2523.714 789.971 L 2528.558 787.201 L 2534.642 784.247 L 2541.041 781.264 L 2545.864 778.421 L 2552.232 775.388 L 2557.043 772.494 L 2563.06 769.41 L 2569.378 766.297 L 2574.171 763.323 L 2580.147 760.156 L 2586.417 756.959 L 2591.192 753.901 L 2597.129 750.646 L 2603.351 747.36 L 2608.112 744.213 L 2614.01 740.866 L 2620.184 737.485 L 2624.931 734.243 L 2630.792 730.798 L 2636.919 727.316 L 2641.655 723.973 L 2647.48 720.423 L 2653.451 716.835 L 2660.208 712.956 L 2664.931 709.465 L 2670.708 705.762 L 2676.472 702.02 L 2682.474 698.233 L 2687.186 694.58 L 2693.062 690.709 L 2699.498 686.537 L 2705.441 682.574 L 2710.148 678.738 L 2715.836 674.679 L 2721.512 670.569 L 2727.308 666.406 L 2733.918 661.932 L 2738.621 657.834 L 2744.258 653.504 L 2749.884 649.114 L 2755.498 644.661 L 2761.217 640.143 L 2767.77 635.299 L 2772.477 630.818 L 2778.056 626.09 L 2783.731 621.285 L 2790.08 616.142 L 2795.632 611.175 L 2801.173 606.119 L 2806.704 600.972 L 2812.318 595.726 L 2818.65 590.12 L 2824.156 584.665 L 2829.794 579.094 L 2834.612 573.572 L 2840.944 567.49 L 2846.426 561.528 L 2851.899 555.417 L 2857.364 549.145 L 2862.889 542.699 L 2869.221 535.808 L 2874.668 528.969 L 2880.107 521.904 L 2885.595 514.591 L 2891.936 506.745 L 2897.283 498.847 L 2903.283 490.442 L 2908.729 481.796 L 2915.077 472.433 L 2920.472 462.781 L 2925.861 452.478 L 2931.243 441.374 L 2936.648 429.255 L 2943.035 415.543 L 2948.409 400.178 L 2953.746 381.82 L 2959.5 357.531 L 2965.876 300.015 L 2966.754 300.005 L 2960.25 357.504 L 2952.497 381.845 L 2948.29 400.188 L 2942.907 415.556 L 2937.329 429.242 L 2931.072 441.379 L 2925.683 452.488 L 2920.288 462.798 L 2914.887 472.457 L 2909.295 481.796 L 2903.064 490.467 L 2896.147 498.926 L 2891.733 506.817 L 2886.128 514.643 L 2879.884 521.984 L 2874.448 529.062 L 2869.005 535.916 L 2863.397 542.791 L 2857.139 549.27 L 2851.681 555.56 L 2846.216 561.691 L 2840.743 567.673 L 2835.124 573.743 L 2830.883 579.242 L 2823.94 584.869 L 2818.448 590.35 L 2812.822 595.946 L 2806.512 601.239 L 2800.997 606.416 L 2795.473 611.502 L 2789.94 616.501 L 2784.293 621.641 L 2777.936 626.5 L 2772.378 631.264 L 2768.952 635.709 L 2761.811 640.589 L 2755.421 645.169 L 2749.831 649.664 L 2744.231 654.098 L 2738.62 658.473 L 2735.194 662.538 L 2728.003 667.059 L 2721.55 671.295 L 2715.903 675.456 L 2710.245 679.568 L 2706.815 683.373 L 2699.63 687.435 L 2693.893 691.622 L 2687.37 695.577 L 2683.933 699.202 L 2676.697 703.097 L 2670.969 706.905 L 2665.228 710.674 L 2661.781 714.139 L 2654.457 718.09 L 2647.85 721.778 L 2642.066 725.402 L 2638.606 728.723 L 2631.257 732.332 L 2625.438 735.857 L 2621.967 739.078 L 2614.575 742.594 L 2608.721 746.027 L 2605.236 749.156 L 2597.801 752.585 L 2591.911 755.931 L 2588.412 758.974 L 2580.932 762.322 L 2575.004 765.586 L 2571.489 768.548 L 2563.964 771.819 L 2557.998 775.007 L 2554.464 777.892 L 2546.894 781.092 L 2543.347 783.927 L 2535.749 787.082 L 2529.718 790.152 L 2526.151 792.918 L 2518.506 796.007 L 2514.924 798.727 L 2507.251 801.775 L 2503.653 804.452 L 2495.951 807.461 L 2489.825 810.384 L 2486.203 812.999 L 2478.29 815.771 L 2475.666 818.302 L 2467.885 821.215 L 2464.23 823.752 L 2456.42 826.63 L 2452.746 829.129 L 2444.745 831.799 L 2442.067 834.216 L 2434.197 837.026 L 2430.485 839.454 L 2422.586 842.232 L 2418.548 844.46 L 2411.785 847.153 L 2408.033 849.515 L 2400.073 852.23 L 2395.994 854.395 L 2389.171 857.026 L 2385.377 859.324 L 2377.355 861.981 L 2373.235 864.087 L 2368.968 866.361 L 2360.904 868.976 L 2356.753 871.04 L 2349.825 873.571 L 2345.951 875.765 L 2337.681 878.165 L 2334.791 880.28 L 2329.274 882.512 L 2320.968 884.878 L 2318.037 886.95 L 2309.701 889.29 L 2306.746 891.338 L 2301.17 893.507 L 2292.799 895.814 L 2289.8 897.822 L 2283.908 899.806 L 2276.782 902.174 L 2272.466 904.051 L 2265.308 906.395 L 2260.968 908.251 L 2256.456 910.265 L 2247.982 912.486 L 2244.87 914.399 L 2238.894 916.297 L 2231.643 918.576 L 2227.233 920.367 L 2222.64 922.315 L 2214.095 924.478 L 2210.634 926.181 L 2206 928.099 L 2199.956 929.929 L 2192.596 932.137 L 2188.103 933.859 L 2183.172 935.597 L 2175.765 937.775 L 2171.236 939.469 L 2166.27 941.179 L 2161.521 943.017 L 2152.852 945.083 L 2149.242 946.681 L 2144.449 948.491 L 2135.744 950.532 L 2132.093 952.103 L 2127.255 953.887 L 2121.07 955.597 L 2113.445 957.536 L 2109.738 959.074 L 2104.84 960.824 L 2098.615 962.502 L 2090.939 964.41 L 2087.175 965.915 L 2082.033 967.501 L 2077.059 969.209 L 2070.785 970.85 L 2063.049 972.721 L 2059.211 974.187 L 2054.011 975.736 L 2048.799 977.277 L 2043.729 978.938 L 2034.838 980.845 L 2030.924 982.275 L 2025.664 983.788 L 2020.391 985.294 L 2015.108 986.793 L 2007.247 988.593 L 2003.264 989.989 L 1997.944 991.468 L 1992.612 992.94 L 1987.269 994.407 L 1981.914 995.866 L 1973.978 997.626 L 1969.908 998.983 L 1964.516 1000.424 L 1959.112 1001.859 L 1953.696 1003.287 L 1948.269 1004.709 L 1942.829 1006.126 L 1937.378 1007.536 L 1929.349 1009.248 L 1925.155 1010.556 L 1919.666 1011.948 L 1914.164 1013.335 L 1908.65 1014.717 L 1903.125 1016.092 L 1897.587 1017.463 L 1892.037 1018.827 L 1883.915 1020.495 L 1879.592 1021.756 L 1874.003 1023.104 L 1868.147 1024.347 L 1863.79 1025.593 L 1858.166 1026.925 L 1852.53 1028.252 L 1846.881 1029.575 L 1841.22 1030.892 L 1835.329 1032.106 L 1830.875 1033.319 L 1825.178 1034.622 L 1819.469 1035.919 L 1811.197 1037.519 L 1806.474 1038.614 L 1801.946 1039.805 L 1796.186 1041.083 L 1790.413 1042.356 L 1784.456 1043.526 L 1779.864 1044.698 L 1774.055 1045.958 L 1768.233 1047.213 L 1762.252 1048.365 L 1757.595 1049.519 L 1751.736 1050.76 L 1745.737 1051.899 L 1741.032 1053.04 L 1735.137 1054.269 L 1729.228 1055.493 L 1723.205 1056.616 L 1718.433 1057.74 L 1712.487 1058.952 L 1706.446 1060.062 L 1701.625 1061.174 L 1695.568 1062.275 L 1690.718 1063.379 L 1684.711 1064.571 L 1678.637 1065.661 L 1673.737 1066.753 L 1667.691 1067.933 L 1661.599 1069.012 L 1656.649 1070.093 L 1650.542 1071.163 L 1645.561 1072.237 L 1639.44 1073.299 L 1634.43 1074.366 L 1628.297 1075.52 L 1622.158 1076.571 L 1617.096 1077.628 L 1610.943 1078.671 L 1605.85 1079.721 L 1599.682 1080.757 L 1594.558 1081.8 L 1588.377 1082.829 L 1586.838 1083.481 L 1578.478 1084.679 L 1573.282 1085.708 L 1567.087 1086.725 L 1561.859 1087.747 L 1555.65 1088.757 L 1550.39 1089.774 L 1544.168 1090.776 L 1538.975 1091.686 L 1533.673 1092.695 L 1527.426 1093.686 L 1522.092 1094.689 L 1515.831 1095.674 L 1510.464 1096.671 L 1507.495 1097.284 L 1500.414 1098.329 L 1494.994 1099.316 L 1488.711 1100.286 L 1483.257 1101.268 L 1476.96 1102.232 L 1471.648 1103.105 L 1466.151 1104.08 L 1459.83 1105.033 L 1457.759 1105.538 L 1450.442 1106.655 L 1444.112 1107.601 L 1438.742 1108.458 L 1433.146 1109.416 L 1426.792 1110.352 L 1421.392 1111.2 L 1415.752 1112.152 L 1412.598 1112.721 L 1405.467 1113.711 L 1399.77 1114.654 L 1393.384 1115.574 L 1387.925 1116.406 L 1382.182 1117.342 L 1375.772 1118.253 L 1373.475 1118.722 L 1366.323 1119.692 L 1360.512 1120.619 L 1354.084 1121.519 L 1348.557 1122.333 L 1343.02 1123.145 L 1337.151 1124.064 L 1333.844 1124.6 L 1326.674 1125.55 L 1321.099 1126.352 L 1315.514 1127.152 L 1309.565 1128.06 L 1306.203 1128.585 L 1299.02 1129.521 L 1293.397 1130.312 L 1287.765 1131.1 L 1281.733 1131.998 L 1275.213 1132.86 L 1272.657 1133.295 L 1265.449 1134.214 L 1259.768 1134.991 L 1253.653 1135.879 L 1247.105 1136.729 L 1244.47 1137.155 L 1237.253 1138.062 L 1231.523 1138.827 L 1225.784 1139.591 L 1220.035 1140.352 L 1217.037 1140.872 L 1208.804 1141.856 L 1203.025 1142.611 L 1197.237 1143.364 L 1194.474 1143.775 L 1187.229 1144.659 L 1181.413 1145.405 L 1175.588 1146.15 L 1169.753 1146.893 L 1166.553 1147.402 L 1158.338 1148.361 L 1152.473 1149.098 L 1146.597 1149.833 L 1143.7 1150.23 L 1136.431 1151.092 L 1130.528 1151.821 L 1124.615 1152.548 L 1121.668 1152.94 L 1114.381 1153.792 L 1108.44 1154.513 L 1102.49 1155.233 L 1099.49 1155.62 L 1092.187 1156.462 L 1086.209 1157.176 L 1080.221 1157.888 L 1077.168 1158.27 L 1069.848 1159.103 L 1063.832 1159.809 L 1057.806 1160.514 L 1054.699 1160.891 L 1047.364 1161.715 L 1041.309 1162.414 L 1038.153 1162.787 L 1030.815 1163.604 L 1024.733 1164.299 L 1018.64 1164.991 L 1015.427 1165.36 L 1008.075 1166.168 L 1001.954 1166.855 L 995.823 1167.541 L 992.553 1167.905 L 985.187 1168.705 L 979.027 1169.385 L 975.705 1169.746 L 968.338 1170.539 L 962.149 1171.215 L 958.775 1171.572 L 951.407 1172.359 L 945.19 1173.03 L 939.552 1173.586 L 937.003 1173.856 L 929.594 1174.634 L 923.341 1175.299 L 919.887 1175.649 L 912.479 1176.421 L 906.196 1177.081 L 902.687 1177.428 L 895.28 1178.195 L 888.968 1178.85 L 885.797 1179.104 L 879.474 1179.756 L 873.136 1180.407 L 869.552 1180.748 L 862.117 1181.502 L 855.75 1182.149 L 852.108 1182.487 L 845.401 1183.114 L 839.779 1183.679 L 836.116 1184.015 L 828.656 1184.757 L 822.233 1185.395 L 818.511 1185.728 L 811.054 1186.465 L 805.37 1186.973 L 802.378 1187.229 L 794.893 1187.96 L 788.414 1188.589 L 784.611 1188.917 L 777.939 1189.514 L 774.849 1189.768 L 767.352 1190.489 L 760.827 1191.112 L 756.949 1191.436 L 750.306 1192.021 L 744.458 1192.569 L 740.556 1192.89 L 733.037 1193.601 L 729.083 1193.921 L 722.471 1194.494 L 716.551 1195.037 L 712.572 1195.355 L 705.042 1196.057 L 698.413 1196.665 L 695.08 1196.868 L 688.439 1197.473 L 684.381 1197.787 L 676.842 1198.48 L 671.115 1198.944 L 667.685 1199.19 L 660.12 1199.877 L 655.981 1200.188 L 649.424 1200.731 L 643.329 1201.263 L 639.165 1201.571 L 632.594 1202.108 L 629.038 1202.351 L 621.449 1203.027 L 614.682 1203.617 L 611.279 1203.799 L 604.498 1204.386 L 600.234 1204.69 L 593.695 1205.211 L 587.478 1205.734 L 583.186 1206.035 L 575.566 1206.697 L 572.13 1206.87 L 565.285 1207.449 L 558.425 1208.027 L 554.975 1208.196 L 548.102 1208.772 L 543.706 1209.069 L 537.192 1209.569 L 533.34 1209.807 L 525.686 1210.454 L 519.9 1210.872 L 516.016 1211.11 L 508.338 1211.752 L 504.846 1211.91 L 497.89 1212.475 L 493.369 1212.767 L 486.891 1213.248 L 482.878 1213.484 L 475.191 1214.117 L 469.391 1214.52 L 465.344 1214.756 L 457.634 1215.384 L 454.1 1215.531 L 447.06 1216.086 L 443.518 1216.23 L 436.461 1216.783 L 431.791 1217.069 L 425.351 1217.526 L 418.747 1218.027 L 414.045 1218.311 L 407.597 1218.762 L 403.357 1218.995 L 396.906 1219.443 L 392.643 1219.676 L 384.877 1220.284 L 381.283 1220.415 L 374.123 1220.957 L 370.52 1221.086 L 363.343 1221.625 L 358.497 1221.904 L 352.1 1222.335 L 347.671 1222.567 L 341.27 1222.994 L 336.818 1223.225 L 330.415 1223.649 L 323.603 1224.137 L 318.681 1224.411 L 312.274 1224.829 L 307.757 1225.059 L 301.348 1225.473 L 296.807 1225.702 L 290.396 1226.113 L 285.83 1226.341 L 277.973 1226.922 L 274.291 1227.031 L 266.957 1227.554 L 263.265 1227.661 L 255.913 1228.182 L 252.213 1228.286 L 244.843 1228.805 L 241.134 1228.908 L 233.746 1229.425 L 230.027 1229.525 L 222.621 1230.04 L 217.458 1230.305 L 211.108 1230.689 L 206.284 1230.915 L 199.933 1231.295 L 195.082 1231.521 L 188.732 1231.897 L 183.854 1232.123 L 177.504 1232.496 L 172.598 1232.721 L 168.387 1232.855 L 160.879 1233.36 L 157.1 1233.446 L 149.574 1233.949 L 145.786 1234.033 L 138.242 1234.534 L 134.444 1234.615 L 126.881 1235.114 L 123.074 1235.194 L 115.494 1235.691 L 111.677 1235.769 L 104.078 1236.264 L 100.252 1236.339 L 92.634 1236.833 L 88.799 1236.906 L 82.853 1237.208 L 77.706 1237.428 L 73.474 1237.539 L 65.812 1238.028 L 61.955 1238.096 L 54.275 1238.583 L 50.409 1238.649 L 42.71 1239.134 L 38.835 1239.198 L 31.117 1239.682 L 27.232 1239.743 L 19.496 1240.225 L 15.601 1240.285 L 45.084 1517.493 L 48.97 1517.395 L 56.699 1516.876 L 60.577 1516.775 L 68.289 1516.256 L 72.159 1516.154 L 79.856 1515.633 L 83.718 1515.531 L 91.399 1515.009 L 95.252 1514.905 L 102.917 1514.382 L 106.763 1514.277 L 111.534 1514.066 L 118.25 1513.646 L 122.085 1513.539 L 129.713 1513.014 L 133.54 1512.905 L 141.152 1512.379 L 144.971 1512.268 L 152.568 1511.742 L 156.379 1511.63 L 163.96 1511.102 L 167.763 1510.989 L 175.329 1510.461 L 179.124 1510.346 L 186.674 1509.817 L 190.461 1509.7 L 197.996 1509.17 L 201.775 1509.052 L 206.433 1508.833 L 213.066 1508.402 L 217.71 1508.182 L 224.333 1507.749 L 228.964 1507.528 L 235.578 1507.094 L 240.196 1506.872 L 246.799 1506.436 L 251.403 1506.213 L 258.852 1505.678 L 262.588 1505.552 L 270.022 1505.016 L 273.75 1504.889 L 281.168 1504.351 L 284.889 1504.222 L 292.292 1503.684 L 296.005 1503.554 L 303.393 1503.014 L 307.098 1502.882 L 314.471 1502.342 L 318.995 1502.112 L 325.526 1501.667 L 330.038 1501.436 L 336.559 1500.989 L 341.058 1500.757 L 347.569 1500.309 L 352.055 1500.076 L 359.365 1499.531 L 365.858 1499.081 L 370.325 1498.846 L 376.808 1498.394 L 381.262 1498.159 L 387.736 1497.705 L 392.177 1497.468 L 399.432 1496.92 L 403.07 1496.775 L 410.31 1496.225 L 413.94 1496.079 L 421.165 1495.528 L 425.567 1495.287 L 431.998 1494.828 L 436.388 1494.586 L 442.809 1494.125 L 447.187 1493.882 L 454.365 1493.328 L 460.769 1492.865 L 465.127 1492.62 L 472.28 1492.064 L 475.867 1491.909 L 483.005 1491.352 L 486.584 1491.195 L 493.708 1490.636 L 498.028 1490.387 L 504.39 1489.918 L 511.49 1489.358 L 515.79 1489.107 L 522.135 1488.635 L 526.424 1488.383 L 533.492 1487.82 L 537.035 1487.657 L 544.088 1487.092 L 548.352 1486.837 L 554.664 1486.361 L 561.693 1485.795 L 565.938 1485.538 L 572.232 1485.059 L 576.465 1484.801 L 583.463 1484.232 L 586.971 1484.061 L 593.955 1483.491 L 600.929 1482.92 L 604.425 1482.746 L 611.385 1482.173 L 615.574 1481.91 L 622.517 1481.337 L 628.755 1480.849 L 632.926 1480.584 L 639.846 1480.009 L 643.314 1479.828 L 650.219 1479.251 L 657.115 1478.673 L 661.254 1478.405 L 667.452 1477.911 L 671.581 1477.641 L 678.446 1477.06 L 684.627 1476.564 L 688.737 1476.291 L 695.579 1475.708 L 699.676 1475.434 L 705.835 1474.934 L 712.653 1474.349 L 716.733 1474.073 L 723.534 1473.486 L 726.943 1473.292 L 733.73 1472.703 L 740.509 1472.114 L 744.557 1471.834 L 751.32 1471.243 L 757.425 1470.735 L 761.456 1470.452 L 768.195 1469.859 L 772.214 1469.574 L 778.937 1468.98 L 785.013 1468.467 L 789.014 1468.18 L 795.714 1467.582 L 802.404 1466.984 L 806.387 1466.695 L 812.433 1466.177 L 816.405 1465.886 L 823.066 1465.284 L 829.717 1464.682 L 833.67 1464.388 L 839.688 1463.865 L 846.316 1463.26 L 850.252 1462.963 L 856.865 1462.356 L 863.469 1461.749 L 867.386 1461.449 L 873.974 1460.84 L 879.947 1460.31 L 883.848 1460.008 L 890.413 1459.395 L 896.969 1458.782 L 900.851 1458.477 L 907.392 1457.862 L 913.923 1457.246 L 917.194 1457.018 L 923.712 1456.4 L 930.22 1455.781 L 934.068 1455.47 L 940.561 1454.849 L 947.045 1454.227 L 950.875 1453.914 L 957.343 1453.29 L 963.803 1452.665 L 967.615 1452.349 L 973.484 1451.8 L 979.921 1451.171 L 986.349 1450.542 L 990.139 1450.222 L 996.551 1449.591 L 1002.955 1448.958 L 1006.727 1448.635 L 1013.115 1448 L 1019.495 1447.365 L 1023.249 1447.038 L 1029.614 1446.4 L 1035.969 1445.761 L 1042.316 1445.121 L 1046.047 1444.791 L 1052.378 1444.148 L 1058.701 1443.505 L 1065.014 1442.86 L 1068.722 1442.525 L 1075.021 1441.878 L 1081.31 1441.23 L 1085.001 1440.892 L 1091.276 1440.241 L 1097.541 1439.59 L 1103.798 1438.937 L 1107.466 1438.594 L 1113.708 1437.939 L 1119.941 1437.282 L 1126.166 1436.625 L 1129.811 1436.277 L 1136.02 1435.617 L 1142.221 1434.956 L 1148.413 1434.293 L 1152.035 1433.94 L 1158.213 1433.275 L 1164.381 1432.608 L 1170.54 1431.941 L 1174.14 1431.583 L 1180.285 1430.913 L 1186.421 1430.241 L 1192.548 1429.568 L 1196.639 1429.13 L 1202.75 1428.455 L 1208.852 1427.778 L 1214.946 1427.1 L 1221.03 1426.42 L 1224.579 1426.05 L 1230.65 1425.368 L 1236.711 1424.684 L 1242.764 1423.998 L 1246.79 1423.55 L 1252.827 1422.862 L 1258.856 1422.172 L 1264.875 1421.481 L 1270.886 1420.788 L 1274.384 1420.407 L 1280.381 1419.711 L 1286.857 1418.941 L 1292.835 1418.243 L 1298.803 1417.543 L 1302.274 1417.154 L 1308.228 1416.451 L 1314.656 1415.673 L 1320.592 1414.967 L 1326.519 1414.259 L 1332.438 1413.55 L 1335.875 1413.152 L 1342.255 1412.367 L 1348.149 1411.653 L 1354.035 1410.937 L 1359.912 1410.22 L 1363.321 1409.814 L 1369.654 1409.021 L 1375.507 1408.299 L 1381.351 1407.575 L 1387.186 1406.849 L 1393.478 1406.049 L 1399.295 1405.32 L 1402.665 1404.903 L 1408.469 1404.171 L 1414.723 1403.364 L 1420.507 1402.628 L 1426.283 1401.89 L 1432.507 1401.078 L 1438.265 1400.337 L 1441.596 1399.908 L 1447.792 1399.091 L 1453.527 1398.344 L 1459.252 1397.595 L 1465.418 1396.772 L 1471.125 1396.02 L 1476.824 1395.266 L 1482.959 1394.437 L 1486.246 1393.994 L 1491.922 1393.234 L 1498.03 1392.4 L 1503.687 1391.636 L 1509.336 1390.87 L 1515.414 1390.029 L 1521.045 1389.26 L 1527.103 1388.415 L 1532.715 1387.641 L 1535.953 1387.181 L 1541.985 1386.331 L 1547.574 1385.551 L 1553.586 1384.696 L 1559.157 1383.912 L 1565.148 1383.052 L 1570.701 1382.264 L 1576.245 1381.473 L 1582.207 1380.607 L 1587.734 1379.812 L 1593.676 1378.942 L 1599.184 1378.142 L 1605.106 1377.267 L 1610.596 1376.463 L 1614.179 1375.902 L 1619.655 1375.094 L 1625.541 1374.21 L 1630.999 1373.397 L 1636.865 1372.508 L 1642.305 1371.69 L 1648.151 1370.797 L 1653.574 1369.974 L 1659.4 1369.076 L 1665.216 1368.175 L 1670.612 1367.345 L 1676.408 1366.439 L 1681.786 1365.604 L 1687.562 1364.693 L 1692.922 1363.853 L 1698.68 1362.937 L 1704.427 1362.018 L 1709.76 1361.17 L 1715.487 1360.246 L 1721.205 1359.318 L 1726.511 1358.463 L 1732.209 1357.531 L 1737.498 1356.67 L 1743.177 1355.732 L 1748.845 1354.791 L 1754.107 1353.922 L 1759.757 1352.975 L 1765.396 1352.026 L 1771.026 1351.073 L 1776.252 1350.193 L 1781.862 1349.235 L 1787.462 1348.273 L 1792.662 1347.385 L 1798.243 1346.417 L 1803.815 1345.447 L 1809.376 1344.473 L 1814.54 1343.573 L 1820.082 1342.593 L 1825.615 1341.61 L 1831.138 1340.624 L 1836.266 1339.712 L 1843.948 1338.395 L 1849.439 1337.398 L 1854.92 1336.399 L 1860.391 1335.396 L 1865.471 1334.468 L 1870.924 1333.458 L 1876.367 1332.445 L 1881.8 1331.429 L 1887.223 1330.409 L 1892.637 1329.386 L 1897.664 1328.438 L 1903.059 1327.408 L 1908.445 1326.374 L 1915.95 1325.009 L 1921.313 1323.967 L 1926.666 1322.922 L 1932.01 1321.873 L 1937.344 1320.821 L 1942.669 1319.765 L 1947.984 1318.705 L 1953.29 1317.641 L 1960.684 1316.244 L 1965.967 1315.172 L 1971.241 1314.096 L 1976.505 1313.016 L 1981.76 1311.932 L 1987.006 1310.845 L 1992.242 1309.753 L 1997.469 1308.657 L 2004.753 1307.226 L 2009.958 1306.121 L 2015.153 1305.013 L 2020.339 1303.9 L 2025.516 1302.783 L 2030.683 1301.662 L 2037.884 1300.203 L 2043.029 1299.072 L 2048.165 1297.937 L 2053.292 1296.798 L 2058.41 1295.655 L 2065.54 1294.171 L 2070.996 1292.932 L 2076.082 1291.774 L 2081.16 1290.612 L 2086.228 1289.445 L 2093.287 1287.937 L 2098.333 1286.76 L 2103.729 1285.49 L 2108.756 1284.304 L 2113.775 1283.113 L 2120.765 1281.579 L 2125.762 1280.377 L 2131.106 1279.081 L 2136.085 1277.87 L 2143.017 1276.314 L 2147.974 1275.092 L 2153.277 1273.773 L 2158.216 1272.541 L 2165.092 1270.962 L 2170.364 1269.627 L 2175.272 1268.378 L 2182.104 1266.782 L 2187.344 1265.429 L 2192.222 1264.163 L 2197.092 1262.892 L 2204.218 1261.178 L 2209.066 1259.896 L 2213.905 1258.607 L 2220.987 1256.873 L 2225.804 1255.573 L 2230.964 1254.17 L 2235.764 1252.858 L 2242.441 1251.194 L 2247.57 1249.772 L 2252.341 1248.441 L 2259.322 1246.66 L 2264.071 1245.316 L 2269.161 1243.868 L 2275.751 1242.163 L 2280.82 1240.701 L 2285.532 1239.332 L 2292.426 1237.507 L 2297.117 1236.124 L 2303.98 1234.283 L 2308.65 1232.886 L 2313.66 1231.381 L 2320.134 1229.62 L 2325.123 1228.099 L 2330.104 1226.572 L 2336.535 1224.788 L 2341.496 1223.245 L 2347.897 1221.446 L 2352.837 1219.887 L 2357.769 1218.321 L 2364.129 1216.498 L 2369.041 1214.916 L 2375.716 1212.97 L 2380.26 1211.479 L 2386.906 1209.515 L 2391.778 1207.9 L 2396.294 1206.386 L 2402.898 1204.396 L 2407.743 1202.755 L 2414.318 1200.746 L 2418.794 1199.2 L 2425.34 1197.172 L 2430.146 1195.496 L 2436.663 1193.45 L 2441.101 1191.87 L 2447.589 1189.804 L 2452.357 1188.091 L 2458.817 1186.005 L 2463.566 1184.274 L 2469.649 1182.285 L 2474.38 1180.534 L 2480.783 1178.408 L 2485.496 1176.638 L 2491.871 1174.492 L 2496.566 1172.702 L 2502.563 1170.654 L 2507.24 1168.844 L 2513.559 1166.655 L 2519.862 1164.454 L 2524.51 1162.612 L 2530.786 1160.389 L 2535.417 1158.527 L 2541.666 1156.281 L 2546.281 1154.397 L 2552.502 1152.128 L 2558.708 1149.847 L 2563.295 1147.93 L 2569.474 1145.625 L 2574.046 1143.685 L 2580.199 1141.357 L 2586.335 1139.016 L 2590.881 1137.04 L 2596.992 1134.674 L 2603.087 1132.295 L 2607.608 1130.284 L 2613.677 1127.879 L 2619.732 1125.462 L 2624.227 1123.413 L 2630.256 1120.969 L 2636.27 1118.512 L 2640.742 1116.425 L 2646.731 1113.941 L 2652.705 1111.442 L 2657.153 1109.316 L 2663.103 1106.79 L 2669.037 1104.25 L 2675.327 1101.553 L 2679.744 1099.372 L 2685.642 1096.788 L 2691.524 1094.189 L 2697.393 1091.575 L 2701.779 1089.338 L 2707.625 1086.694 L 2713.832 1083.887 L 2719.65 1081.212 L 2724.009 1078.916 L 2729.804 1076.209 L 2735.586 1073.487 L 2741.353 1070.748 L 2747.49 1067.841 L 2751.815 1065.468 L 2757.549 1062.68 L 2763.269 1059.875 L 2768.975 1057.053 L 2774.669 1054.213 L 2780.74 1051.2 L 2785.026 1048.729 L 2790.687 1045.837 L 2796.336 1042.928 L 2802.368 1039.841 L 2807.992 1036.895 L 2813.604 1033.93 L 2819.203 1030.947 L 2824.789 1027.944 L 2830.768 1024.759 L 2836.332 1021.718 L 2841.883 1018.657 L 2846.106 1015.991 L 2852.051 1012.725 L 2857.575 1009.606 L 2863.088 1006.467 L 2868.589 1003.308 L 2874.078 1000.128 L 2879.977 996.755 L 2885.446 993.533 L 2890.905 990.289 L 2896.352 987.024 L 2902.217 983.562 L 2907.646 980.253 L 2914.312 976.498 L 2919.714 973.143 L 2925.542 969.586 L 2930.926 966.185 L 2936.3 962.761 L 2941.664 959.313 L 2947.018 955.842 L 2952.812 952.163 L 2958.151 948.643 L 2963.481 945.099 L 2969.987 941.098 L 2975.751 937.315 L 2981.1 933.692 L 2986.439 930.043 L 2991.769 926.368 L 2996.921 922.669 L 3004.029 918.311 L 3009.327 914.552 L 3014.617 910.765 L 3019.898 906.949 L 3025.016 903.109 L 3032.044 898.598 L 3037.298 894.694 L 3041.844 890.774 L 3048.877 886.37 L 3054.102 882.375 L 3059.789 878.339 L 3064.392 874.087 L 3071.318 869.554 L 3076.513 865.431 L 3081.089 861.286 L 3087.933 856.652 L 3092.516 852.439 L 3099.304 847.734 L 3104.855 843.433 L 3109.596 838.9 L 3116.31 834.086 L 3120.921 829.693 L 3127.582 824.803 L 3132.203 820.334 L 3138.812 815.366 L 3143.444 810.819 L 3150.004 805.77 L 3154.647 801.141 L 3161.159 796.009 L 3165.815 791.296 L 3172.281 786.077 L 3176.949 781.276 L 3183.371 775.967 L 3188.053 771.074 L 3194.05 765.678 L 3200.404 760.226 L 3205.107 755.189 L 3211.07 749.643 L 3217.36 744.039 L 3222.086 738.846 L 3228.018 733.14 L 3234.25 727.373 L 3239.002 722.012 L 3244.908 716.133 L 3250.804 710.194 L 3256.962 704.188 L 3261.75 698.58 L 3267.625 692.447 L 3273.491 686.246 L 3279.349 679.973 L 3284.936 673.631 L 3290.559 667.449 L 3295.404 661.406 L 3301.235 654.824 L 3307.062 648.157 L 3312.883 641.401 L 3318.49 634.555 L 3323.765 627.856 L 3329.567 620.809 L 3335.367 613.656 L 3341.165 606.39 L 3346.794 599.006 L 3351.97 591.744 L 3357.758 584.1 L 3363.549 576.313 L 3369.08 568.375 L 3374.943 560.086 L 3380.723 551.81 L 3386.509 543.343 L 3392.19 534.668 L 3397.228 526.017 L 3402.951 516.864 L 3409.31 507.015 L 3414.299 497.527 L 3420.047 487.436 L 3426.39 476.54 L 3431.336 465.836 L 3437.05 454.336 L 3442.523 442.039 L 3448.33 429.08 L 3454.656 414.727 L 3459.507 399.631 L 3465.825 382.015 L 3470.653 361.952 L 3476.964 335.449 L 3481.694 281.483 L 3481.431 281.485 L 3476.736 335.452 L 3470.599 361.953 L 3465.699 382.019 L 3459.486 399.633 L 3454.563 414.732 L 3448.33 429.083 L 3442.808 442.028 L 3436.793 454.344 L 3431.618 465.826 L 3426.368 476.537 L 3420.098 487.432 L 3414.592 497.508 L 3409.329 507.004 L 3403.032 516.852 L 3397.529 525.99 L 3392.243 534.649 L 3386.817 543.308 L 3381.045 551.764 L 3375.277 560.029 L 3369.08 568.341 L 3363.872 576.26 L 3358.094 584.035 L 3352.317 591.668 L 3346.964 598.939 L 3341.515 606.306 L 3335.729 613.561 L 3329.94 620.703 L 3324.149 627.738 L 3318.742 634.447 L 3313.267 641.277 L 3307.457 648.022 L 3301.642 654.677 L 3295.82 661.248 L 3291.166 667.258 L 3285.307 673.458 L 3279.792 679.785 L 3273.945 686.046 L 3268.09 692.237 L 3262.226 698.359 L 3257.572 703.934 L 3251.317 709.935 L 3245.432 715.864 L 3239.538 721.733 L 3234.881 727.061 L 3228.593 732.823 L 3222.672 738.52 L 3218.01 743.679 L 3211.696 749.279 L 3205.746 754.817 L 3201.076 759.821 L 3194.732 765.269 L 3188.749 770.658 L 3184.067 775.518 L 3177.69 780.824 L 3172.999 785.592 L 3166.602 790.81 L 3161.902 795.49 L 3155.483 800.621 L 3150.773 805.218 L 3144.33 810.266 L 3139.609 814.782 L 3133.142 819.751 L 3128.408 824.189 L 3121.916 829.08 L 3117.168 833.443 L 3110.65 838.259 L 3105.704 842.732 L 3100.243 847.009 L 3093.69 851.718 L 3088.91 855.902 L 3082.329 860.542 L 3077.531 864.659 L 3072.365 868.757 L 3065.744 873.297 L 3060.763 877.491 L 3055.247 881.504 L 3050.054 885.475 L 3043.381 889.889 L 3038.527 893.786 L 3033.308 897.667 L 3026.391 902.159 L 3021.24 905.978 L 3015.996 909.772 L 3010.744 913.539 L 3005.485 917.278 L 2998.508 921.621 L 2993.314 925.301 L 2988.026 928.958 L 2982.73 932.59 L 2977.425 936.196 L 2971.99 939.93 L 2964.794 943.964 L 2959.805 947.477 L 2954.46 950.982 L 2948.991 954.612 L 2943.309 958.082 L 2937.937 961.514 L 2932.555 964.923 L 2927.163 968.308 L 2921.653 971.815 L 2915.926 975.17 L 2908.898 978.946 L 2903.797 982.224 L 2898.247 985.637 L 2892.476 988.902 L 2887.007 992.131 L 2881.527 995.339 L 2875.938 998.662 L 2870.127 1001.844 L 2864.614 1004.989 L 2859.09 1008.114 L 2853.554 1011.219 L 2847.913 1014.435 L 2843.983 1017.05 L 2837.825 1020.13 L 2832.248 1023.157 L 2826.567 1026.292 L 2820.664 1029.298 L 2815.051 1032.269 L 2809.425 1035.221 L 2803.787 1038.155 L 2798.047 1041.193 L 2792.087 1044.108 L 2786.411 1046.989 L 2782.7 1049.391 L 2776.344 1052.389 L 2770.342 1055.236 L 2764.619 1058.048 L 2758.884 1060.843 L 2753.135 1063.622 L 2749.372 1065.926 L 2742.954 1068.82 L 2736.883 1071.569 L 2731.085 1074.284 L 2725.274 1076.983 L 2721.466 1079.21 L 2715.082 1081.916 L 2709.146 1084.676 L 2703.004 1087.333 L 2699.159 1089.501 L 2692.733 1092.148 L 2686.833 1094.743 L 2680.92 1097.324 L 2677.035 1099.437 L 2670.475 1102.127 L 2664.251 1104.685 L 2658.285 1107.21 L 2654.359 1109.268 L 2647.846 1111.805 L 2641.84 1114.289 L 2637.884 1116.31 L 2631.337 1118.808 L 2625.292 1121.254 L 2621.304 1123.237 L 2614.724 1125.697 L 2608.638 1128.106 L 2604.619 1130.054 L 2598.006 1132.477 L 2591.879 1134.85 L 2587.827 1136.763 L 2581.18 1139.151 L 2575.011 1141.489 L 2570.926 1143.368 L 2564.244 1145.722 L 2560.138 1147.579 L 2553.434 1149.912 L 2547.198 1152.193 L 2543.058 1154.019 L 2536.319 1156.319 L 2532.156 1158.123 L 2525.396 1160.403 L 2521.211 1162.187 L 2514.428 1164.446 L 2508.095 1166.655 L 2503.875 1168.41 L 2497.154 1170.562 L 2493.16 1172.277 L 2486.318 1174.487 L 2482.053 1176.204 L 2475.188 1178.396 L 2470.9 1180.095 L 2464.118 1182.195 L 2460.047 1183.855 L 2453.135 1186.01 L 2448.801 1187.675 L 2441.867 1189.812 L 2437.532 1191.397 L 2430.895 1193.488 L 2426.514 1195.119 L 2419.532 1197.223 L 2415.156 1198.778 L 2408.465 1200.835 L 2404.036 1202.435 L 2397.006 1204.507 L 2392.589 1206.032 L 2388.023 1207.619 L 2380.959 1209.668 L 2376.513 1211.172 L 2369.727 1213.176 L 2365.215 1214.723 L 2358.231 1216.678 L 2353.911 1218.19 L 2348.969 1219.756 L 2341.954 1221.691 L 2337.594 1223.182 L 2330.556 1225.104 L 2326.171 1226.582 L 2321.18 1228.115 L 2314.111 1230.018 L 2309.686 1231.477 L 2304.731 1232.938 L 2297.768 1234.854 L 2293.17 1236.264 L 2286.178 1238.167 L 2281.558 1239.566 L 2276.764 1241.02 L 2269.607 1242.876 L 2265.077 1244.288 L 2260.057 1245.704 L 2252.983 1247.572 L 2248.301 1248.939 L 2243.439 1250.359 L 2236.218 1252.183 L 2231.695 1253.513 L 2226.798 1254.918 L 2221.722 1256.298 L 2214.552 1258.129 L 2209.8 1259.46 L 2204.954 1260.797 L 2197.742 1262.613 L 2192.959 1263.931 L 2188.083 1265.254 L 2183.095 1266.618 L 2175.755 1268.389 L 2171.109 1269.669 L 2166.087 1271.02 L 2158.712 1272.777 L 2154.032 1274.044 L 2148.974 1275.382 L 2143.781 1276.698 L 2136.6 1278.411 L 2131.875 1279.661 L 2126.772 1280.982 L 2121.545 1282.283 L 2114.314 1283.979 L 2109.544 1285.215 L 2104.521 1286.475 L 2099.361 1287.776 L 2094.092 1289.058 L 2086.8 1290.736 L 2081.975 1291.953 L 2076.904 1293.196 L 2071.824 1294.435 L 2066.595 1295.713 L 2059.021 1297.402 L 2054.14 1298.602 L 2049.02 1299.828 L 2043.891 1301.05 L 2038.753 1302.269 L 2031.335 1303.914 L 2026.4 1305.099 L 2021.231 1306.308 L 2016.053 1307.515 L 2010.866 1308.718 L 2005.67 1309.919 L 1998.177 1311.546 L 1993.178 1312.713 L 1987.95 1313.905 L 1982.714 1315.094 L 1977.468 1316.28 L 1972.213 1317.463 L 1966.949 1318.644 L 1961.676 1319.822 L 1954.085 1321.428 L 1948.998 1322.573 L 1943.693 1323.743 L 1938.379 1324.911 L 1933.056 1326.076 L 1927.723 1327.238 L 1922.381 1328.399 L 1917.029 1329.556 L 1909.338 1331.143 L 1904.164 1332.27 L 1898.781 1333.42 L 1893.564 1334.528 L 1888.364 1335.648 L 1882.953 1336.792 L 1877.532 1337.933 L 1872.102 1339.073 L 1866.662 1340.21 L 1861.399 1341.305 L 1856.136 1342.412 L 1850.669 1343.543 L 1845.191 1344.672 L 1837.34 1346.234 L 1832.221 1347.292 L 1826.904 1348.39 L 1821.386 1349.511 L 1815.857 1350.631 L 1810.52 1351.708 L 1805.161 1352.798 L 1799.604 1353.912 L 1794.038 1355.025 L 1788.669 1356.095 L 1783.268 1357.178 L 1777.673 1358.285 L 1772.281 1359.35 L 1766.849 1360.428 L 1761.225 1361.531 L 1755.592 1362.632 L 1750.168 1363.689 L 1744.694 1364.762 L 1739.031 1365.858 L 1733.583 1366.911 L 1728.078 1367.979 L 1722.613 1369.029 L 1717.088 1370.094 L 1711.378 1371.184 L 1705.889 1372.229 L 1700.332 1373.29 L 1694.593 1374.375 L 1689.08 1375.417 L 1683.492 1376.474 L 1677.962 1377.513 L 1672.354 1378.568 L 1666.808 1379.604 L 1661.179 1380.657 L 1655.372 1381.733 L 1649.802 1382.765 L 1644.141 1383.815 L 1638.554 1384.844 L 1632.873 1385.892 L 1627.27 1386.919 L 1621.569 1387.965 L 1615.949 1388.989 L 1612.965 1389.551 L 1606.91 1390.635 L 1601.169 1391.677 L 1595.521 1392.697 L 1589.759 1393.737 L 1584.094 1394.754 L 1578.312 1395.793 L 1572.63 1396.808 L 1567.098 1397.799 L 1561.286 1398.835 L 1555.579 1399.847 L 1549.745 1400.882 L 1544.022 1401.892 L 1538.168 1402.925 L 1535.082 1403.465 L 1529.197 1404.494 L 1523.314 1405.524 L 1517.553 1406.53 L 1511.649 1407.559 L 1505.871 1408.564 L 1500.236 1409.544 L 1494.302 1410.571 L 1488.498 1411.573 L 1485.511 1412.08 L 1479.261 1413.149 L 1473.437 1414.148 L 1467.752 1415.124 L 1461.759 1416.147 L 1455.909 1417.144 L 1450.197 1418.118 L 1444.173 1419.14 L 1440.987 1419.662 L 1434.974 1420.677 L 1428.92 1421.697 L 1423.023 1422.69 L 1417.262 1423.659 L 1411.177 1424.679 L 1405.255 1425.67 L 1402.171 1426.163 L 1396.105 1427.172 L 1389.981 1428.19 L 1384.028 1429.178 L 1378.208 1430.144 L 1372.38 1431.109 L 1366.216 1432.126 L 1362.946 1432.635 L 1356.827 1433.64 L 1350.966 1434.603 L 1345.097 1435.565 L 1338.884 1436.58 L 1335.585 1437.086 L 1329.428 1438.088 L 1323.526 1439.049 L 1317.616 1440.009 L 1311.353 1441.022 L 1305.287 1442.003 L 1302.092 1442.483 L 1295.888 1443.482 L 1289.936 1444.44 L 1283.624 1445.453 L 1277.518 1446.432 L 1274.291 1446.908 L 1268.05 1447.905 L 1262.057 1448.861 L 1256.055 1449.817 L 1250.045 1450.772 L 1246.514 1451.288 L 1240.01 1452.319 L 1233.976 1453.273 L 1227.933 1454.227 L 1224.65 1454.698 L 1218.341 1455.691 L 1212.275 1456.644 L 1206.2 1457.597 L 1200.117 1458.55 L 1196.511 1459.063 L 1189.945 1460.09 L 1183.837 1461.042 L 1177.72 1461.994 L 1174.38 1462.46 L 1168.003 1463.451 L 1161.863 1464.402 L 1155.714 1465.352 L 1152.351 1465.816 L 1145.943 1466.806 L 1139.771 1467.756 L 1133.59 1468.706 L 1130.204 1469.168 L 1123.764 1470.157 L 1117.56 1471.106 L 1111.347 1472.055 L 1107.937 1472.515 L 1101.466 1473.503 L 1095.23 1474.452 L 1088.985 1475.401 L 1085.55 1475.859 L 1079.049 1476.846 L 1072.78 1477.794 L 1069.326 1478.252 L 1062.803 1479.238 L 1056.511 1480.186 L 1050.21 1481.134 L 1046.731 1481.59 L 1040.177 1482.576 L 1033.852 1483.524 L 1027.518 1484.471 L 1024.014 1484.926 L 1017.43 1485.912 L 1011.072 1486.859 L 1007.548 1487.313 L 1000.942 1488.298 L 994.56 1489.245 L 991.015 1489.698 L 984.389 1490.683 L 977.983 1491.631 L 972.009 1492.509 L 968.579 1492.939 L 961.917 1493.924 L 955.48 1494.871 L 951.896 1495.322 L 945.213 1496.306 L 938.752 1497.253 L 935.146 1497.703 L 928.443 1498.688 L 921.957 1499.635 L 918.696 1500.029 L 912.199 1500.976 L 905.691 1501.923 L 902.05 1502.372 L 895.3 1503.356 L 888.768 1504.303 L 885.104 1504.752 L 878.81 1505.662 L 872.383 1506.588 L 868.706 1507.035 L 861.91 1508.02 L 855.33 1508.968 L 851.63 1509.415 L 844.814 1510.399 L 838.699 1511.27 L 835.113 1511.696 L 828.271 1512.681 L 821.644 1513.629 L 817.906 1514.075 L 811.545 1514.981 L 807.925 1515.406 L 801.048 1516.391 L 794.382 1517.34 L 790.611 1517.785 L 784.226 1518.69 L 777.662 1519.618 L 773.876 1520.063 L 766.953 1521.049 L 763.15 1521.494 L 756.74 1522.397 L 750.135 1523.326 L 746.317 1523.771 L 739.358 1524.756 L 732.605 1525.707 L 729.207 1526.083 L 722.442 1527.033 L 718.588 1527.477 L 711.595 1528.463 L 705.344 1529.329 L 701.598 1529.752 L 694.579 1530.739 L 690.69 1531.183 L 684.215 1532.083 L 677.505 1533.014 L 673.6 1533.458 L 667.105 1534.357 L 663.312 1534.781 L 656.242 1535.768 L 649.372 1536.721 L 645.915 1537.09 L 639.033 1538.043 L 635.081 1538.487 L 628.553 1539.384 L 621.764 1540.317 L 617.797 1540.761 L 610.667 1541.749 L 607.182 1542.116 L 600.245 1543.07 L 593.298 1544.024 L 589.8 1544.389 L 582.84 1545.344 L 578.824 1545.788 L 572.244 1546.683 L 568.334 1547.107 L 561.14 1548.097 L 554.742 1548.957 L 550.817 1549.381 L 543.597 1550.371 L 540.064 1550.733 L 533.034 1551.689 L 528.957 1552.134 L 522.335 1553.026 L 518.362 1553.451 L 511.103 1554.442 L 504.659 1555.3 L 500.669 1555.726 L 493.384 1556.718 L 489.816 1557.076 L 482.716 1558.034 L 479.14 1558.392 L 472.025 1559.351 L 467.873 1559.796 L 461.202 1560.685 L 454.173 1561.626 L 450.002 1562.072 L 443.312 1562.961 L 439.242 1563.387 L 432.541 1564.276 L 428.459 1564.703 L 421.08 1565.697 L 417.461 1566.05 L 410.261 1567.012 L 406.633 1567.364 L 399.418 1568.326 L 395.175 1568.773 L 388.447 1569.659 L 384.298 1570.088 L 377.56 1570.973 L 373.399 1571.402 L 366.65 1572.286 L 359.487 1573.232 L 355.199 1573.68 L 348.433 1574.564 L 344.24 1574.994 L 337.464 1575.877 L 333.259 1576.307 L 326.472 1577.19 L 322.255 1577.621 L 314.739 1578.618 L 311.044 1578.965 L 303.697 1579.932 L 299.994 1580.277 L 292.632 1581.245 L 288.922 1581.59 L 281.545 1582.558 L 277.827 1582.902 L 270.434 1583.87 L 266.709 1584.214 L 259.301 1585.183 L 254.881 1585.634 L 248.045 1586.512 L 243.712 1586.946 L 236.866 1587.824 L 232.519 1588.259 L 225.664 1589.136 L 221.303 1589.571 L 214.439 1590.447 L 210.064 1590.883 L 206.128 1591.251 L 198.636 1592.223 L 194.859 1592.562 L 187.351 1593.535 L 183.566 1593.873 L 176.042 1594.847 L 172.25 1595.184 L 164.71 1596.158 L 160.91 1596.495 L 153.355 1597.469 L 149.547 1597.806 L 141.976 1598.78 L 138.16 1599.116 L 130.574 1600.091 L 126.75 1600.427 L 119.976 1601.27 L 115.475 1601.71 L 111.482 1602.071 L 103.859 1603.047 L 100.016 1603.38 L 92.377 1604.357 L 88.526 1604.69 L 80.872 1605.667 L 77.013 1605.999 L 69.343 1606.978 L 65.476 1607.309 L 57.79 1608.288 L 53.914 1608.618 L 84.973 1789.776 L 88.791 1789.117 L 96.419 1787.802 L 100.23 1787.145 L 107.845 1785.831 L 111.65 1785.175 L 119.252 1783.864 L 123.049 1783.209 L 130.638 1781.9 L 134.429 1781.246 L 142.005 1779.94 L 145.789 1779.287 L 149.572 1778.635 L 157.13 1777.331 L 160.906 1776.68 L 168.451 1775.379 L 172.22 1774.729 L 179.752 1773.43 L 183.514 1772.781 L 191.033 1771.484 L 194.789 1770.836 L 202.294 1769.542 L 206.044 1768.895 L 213.536 1767.603 L 217.279 1766.957 L 224.758 1765.667 L 228.495 1765.023 L 235.961 1763.735 L 239.691 1763.092 L 243.418 1762.449 L 250.867 1761.164 L 254.588 1760.522 L 262.024 1759.24 L 265.738 1758.599 L 273.161 1757.319 L 276.869 1756.679 L 284.278 1755.401 L 287.98 1754.763 L 295.376 1753.487 L 299.071 1752.849 L 306.454 1751.576 L 310.143 1750.94 L 317.513 1749.668 L 321.195 1749.033 L 328.552 1747.764 L 332.228 1747.13 L 339.572 1745.863 L 343.241 1745.231 L 350.572 1743.966 L 354.234 1743.334 L 361.552 1742.072 L 365.208 1741.441 L 372.513 1740.181 L 376.163 1739.551 L 383.455 1738.293 L 387.098 1737.665 L 394.377 1736.409 L 401.647 1735.155 L 405.279 1734.528 L 412.537 1733.276 L 416.163 1732.651 L 423.407 1731.401 L 427.026 1730.776 L 434.258 1729.529 L 437.87 1728.906 L 445.089 1727.66 L 448.695 1727.038 L 455.901 1725.795 L 459.501 1725.174 L 466.693 1723.932 L 470.286 1723.312 L 477.466 1722.074 L 481.053 1721.455 L 488.22 1720.218 L 495.378 1718.983 L 498.954 1718.366 L 506.1 1717.133 L 509.669 1716.517 L 516.802 1715.286 L 520.365 1714.671 L 527.485 1713.442 L 531.041 1712.828 L 538.148 1711.602 L 545.246 1710.377 L 548.792 1709.765 L 555.877 1708.542 L 559.417 1707.931 L 566.489 1706.71 L 570.022 1706.1 L 577.082 1704.882 L 580.609 1704.273 L 587.656 1703.057 L 594.694 1701.842 L 598.21 1701.235 L 605.235 1700.022 L 608.745 1699.416 L 615.757 1698.205 L 619.26 1697.6 L 626.26 1696.392 L 633.252 1695.185 L 636.744 1694.582 L 643.722 1693.377 L 647.208 1692.775 L 654.174 1691.572 L 661.131 1690.37 L 664.607 1689.77 L 671.551 1688.571 L 675.02 1687.972 L 681.952 1686.774 L 688.875 1685.579 L 692.333 1684.981 L 699.244 1683.788 L 702.696 1683.191 L 709.593 1682 L 716.483 1680.81 L 719.924 1680.215 L 726.8 1679.027 L 730.235 1678.434 L 737.099 1677.248 L 743.954 1676.063 L 747.379 1675.471 L 754.221 1674.289 L 757.64 1673.698 L 764.469 1672.518 L 771.291 1671.339 L 774.698 1670.75 L 781.507 1669.573 L 788.307 1668.397 L 791.704 1667.81 L 798.492 1666.637 L 801.882 1666.051 L 808.657 1664.879 L 815.424 1663.709 L 818.804 1663.125 L 825.558 1661.957 L 832.303 1660.79 L 835.673 1660.208 L 842.406 1659.043 L 845.769 1658.461 L 852.489 1657.299 L 859.201 1656.138 L 862.554 1655.558 L 869.253 1654.399 L 875.943 1653.241 L 879.286 1652.663 L 885.964 1651.507 L 892.634 1650.353 L 895.965 1649.776 L 902.622 1648.624 L 909.271 1647.473 L 912.593 1646.898 L 919.229 1645.749 L 925.857 1644.601 L 929.167 1644.028 L 935.783 1642.882 L 942.39 1641.738 L 945.69 1641.166 L 952.284 1640.024 L 958.87 1638.883 L 962.16 1638.313 L 968.734 1637.174 L 975.299 1636.037 L 978.579 1635.468 L 985.131 1634.333 L 991.676 1633.198 L 994.945 1632.631 L 1001.476 1631.499 L 1008 1630.368 L 1014.515 1629.238 L 1017.77 1628.674 L 1024.272 1627.546 L 1030.767 1626.419 L 1034.011 1625.857 L 1040.493 1624.732 L 1046.966 1623.609 L 1050.2 1623.047 L 1056.661 1621.926 L 1063.114 1620.806 L 1069.559 1619.687 L 1072.778 1619.128 L 1079.21 1618.011 L 1085.634 1616.896 L 1092.05 1615.781 L 1095.254 1615.225 L 1101.657 1614.112 L 1108.052 1613.001 L 1111.247 1612.446 L 1117.629 1611.336 L 1124.004 1610.228 L 1130.37 1609.121 L 1133.55 1608.568 L 1139.903 1607.463 L 1146.249 1606.36 L 1152.586 1605.257 L 1155.751 1604.706 L 1162.076 1603.606 L 1168.393 1602.506 L 1174.701 1601.408 L 1177.852 1600.859 L 1184.148 1599.763 L 1190.436 1598.668 L 1196.715 1597.574 L 1199.852 1597.027 L 1206.119 1595.935 L 1212.378 1594.844 L 1218.629 1593.754 L 1221.752 1593.21 L 1227.99 1592.122 L 1234.22 1591.035 L 1240.443 1589.95 L 1246.657 1588.865 L 1249.76 1588.324 L 1255.962 1587.241 L 1262.156 1586.159 L 1268.341 1585.079 L 1271.431 1584.539 L 1277.604 1583.461 L 1283.769 1582.383 L 1289.926 1581.307 L 1296.074 1580.232 L 1299.145 1579.695 L 1305.282 1578.622 L 1311.41 1577.549 L 1317.53 1576.478 L 1323.642 1575.408 L 1326.695 1574.874 L 1332.795 1573.805 L 1338.887 1572.738 L 1344.97 1571.672 L 1351.046 1570.607 L 1357.113 1569.543 L 1360.143 1569.012 L 1366.199 1567.95 L 1372.246 1566.889 L 1378.284 1565.829 L 1384.315 1564.77 L 1387.328 1564.241 L 1393.346 1563.183 L 1399.357 1562.127 L 1405.359 1561.072 L 1411.354 1560.018 L 1417.34 1558.965 L 1423.318 1557.913 L 1426.305 1557.387 L 1432.271 1556.337 L 1438.229 1555.287 L 1444.179 1554.239 L 1450.121 1553.192 L 1456.055 1552.145 L 1461.981 1551.1 L 1464.94 1550.578 L 1470.854 1549.534 L 1476.76 1548.491 L 1482.658 1547.45 L 1488.547 1546.409 L 1494.429 1545.369 L 1500.303 1544.33 L 1506.168 1543.293 L 1509.098 1542.774 L 1514.952 1541.738 L 1520.797 1540.702 L 1526.635 1539.668 L 1532.465 1538.634 L 1538.286 1537.602 L 1544.1 1536.57 L 1549.905 1535.54 L 1555.703 1534.51 L 1558.599 1533.996 L 1564.384 1532.967 L 1570.162 1531.94 L 1575.932 1530.913 L 1581.693 1529.888 L 1587.447 1528.863 L 1593.193 1527.839 L 1598.931 1526.817 L 1604.661 1525.794 L 1610.383 1524.773 L 1616.096 1523.753 L 1621.803 1522.734 L 1627.501 1521.715 L 1633.191 1520.697 L 1636.033 1520.189 L 1641.711 1519.172 L 1647.381 1518.157 L 1653.044 1517.142 L 1658.698 1516.128 L 1664.345 1515.115 L 1669.984 1514.102 L 1675.614 1513.091 L 1681.237 1512.08 L 1686.852 1511.07 L 1692.459 1510.061 L 1698.059 1509.052 L 1703.65 1508.044 L 1709.233 1507.038 L 1714.809 1506.031 L 1720.376 1505.026 L 1725.936 1504.021 L 1731.488 1503.017 L 1737.032 1502.014 L 1742.569 1501.011 L 1748.097 1500.009 L 1753.617 1499.008 L 1759.13 1498.008 L 1764.635 1497.008 L 1770.132 1496.008 L 1775.621 1495.01 L 1781.102 1494.012 L 1786.576 1493.015 L 1792.042 1492.018 L 1797.499 1491.022 L 1802.949 1490.027 L 1808.392 1489.032 L 1813.826 1488.038 L 1819.253 1487.045 L 1824.672 1486.052 L 1830.083 1485.059 L 1835.486 1484.068 L 1840.881 1483.076 L 1846.269 1482.086 L 1851.649 1481.096 L 1857.021 1480.106 L 1865.065 1478.623 L 1870.418 1477.634 L 1875.762 1476.646 L 1881.1 1475.659 L 1886.429 1474.672 L 1891.751 1473.686 L 1897.065 1472.7 L 1902.371 1471.715 L 1907.67 1470.73 L 1912.96 1469.745 L 1918.243 1468.761 L 1923.519 1467.777 L 1928.786 1466.794 L 1936.673 1465.32 L 1941.922 1464.338 L 1947.162 1463.356 L 1952.395 1462.374 L 1957.62 1461.393 L 1962.838 1460.412 L 1968.048 1459.432 L 1973.25 1458.452 L 1981.039 1456.982 L 1986.222 1456.002 L 1991.397 1455.023 L 1996.565 1454.045 L 2001.725 1453.066 L 2006.877 1452.088 L 2012.022 1451.11 L 2017.159 1450.132 L 2024.85 1448.665 L 2029.968 1447.688 L 2035.078 1446.711 L 2040.181 1445.734 L 2045.276 1444.757 L 2050.363 1443.781 L 2057.98 1442.316 L 2063.048 1441.34 L 2068.109 1440.364 L 2073.162 1439.388 L 2078.208 1438.412 L 2085.762 1436.948 L 2090.788 1435.972 L 2095.807 1434.997 L 2100.819 1434.021 L 2105.823 1433.046 L 2113.314 1431.582 L 2118.299 1430.607 L 2123.277 1429.631 L 2128.246 1428.656 L 2133.209 1427.68 L 2140.638 1426.217 L 2145.581 1425.241 L 2150.517 1424.265 L 2155.445 1423.289 L 2162.824 1421.825 L 2167.733 1420.849 L 2172.635 1419.873 L 2177.53 1418.897 L 2184.857 1417.432 L 2189.733 1416.455 L 2194.601 1415.478 L 2201.889 1414.012 L 2206.739 1413.034 L 2211.581 1412.056 L 2216.415 1411.078 L 2223.653 1409.611 L 2228.469 1408.632 L 2233.277 1407.653 L 2240.476 1406.184 L 2245.265 1405.204 L 2250.048 1404.224 L 2254.822 1403.243 L 2261.971 1401.772 L 2266.727 1400.79 L 2271.475 1399.808 L 2278.585 1398.335 L 2283.315 1397.352 L 2288.038 1396.368 L 2295.108 1394.892 L 2299.812 1393.907 L 2304.509 1392.922 L 2311.54 1391.443 L 2316.219 1390.457 L 2323.222 1388.976 L 2327.882 1387.988 L 2332.535 1386.999 L 2339.499 1385.515 L 2344.134 1384.525 L 2348.76 1383.534 L 2355.686 1382.047 L 2360.295 1381.054 L 2367.193 1379.564 L 2371.783 1378.569 L 2376.366 1377.574 L 2383.226 1376.08 L 2387.79 1375.083 L 2394.623 1373.586 L 2399.169 1372.587 L 2405.974 1371.087 L 2410.502 1370.086 L 2415.022 1369.084 L 2421.789 1367.579 L 2426.291 1366.574 L 2433.031 1365.066 L 2437.515 1364.059 L 2444.227 1362.547 L 2448.693 1361.538 L 2455.378 1360.022 L 2459.825 1359.01 L 2466.483 1357.491 L 2470.912 1356.476 L 2477.543 1354.952 L 2481.954 1353.935 L 2488.558 1352.407 L 2492.951 1351.387 L 2499.527 1349.854 L 2503.902 1348.831 L 2510.451 1347.294 L 2514.809 1346.267 L 2521.331 1344.725 L 2525.67 1343.696 L 2532.165 1342.149 L 2538.644 1340.599 L 2542.954 1339.564 L 2549.406 1338.009 L 2553.699 1336.971 L 2560.124 1335.41 L 2564.399 1334.368 L 2570.797 1332.802 L 2577.179 1331.233 L 2581.425 1330.185 L 2587.78 1328.61 L 2592.008 1327.558 L 2598.337 1325.977 L 2604.65 1324.393 L 2608.849 1323.334 L 2615.135 1321.743 L 2621.405 1320.149 L 2625.576 1319.084 L 2631.819 1317.483 L 2638.047 1315.878 L 2642.19 1314.805 L 2648.39 1313.194 L 2654.575 1311.578 L 2658.689 1310.498 L 2664.848 1308.875 L 2670.99 1307.248 L 2675.076 1306.161 L 2681.192 1304.527 L 2687.292 1302.888 L 2693.377 1301.245 L 2697.424 1300.147 L 2703.482 1298.496 L 2709.524 1296.84 L 2715.55 1295.18 L 2719.559 1294.07 L 2725.559 1292.402 L 2731.543 1290.729 L 2737.512 1289.051 L 2741.482 1287.929 L 2747.424 1286.243 L 2753.351 1284.551 L 2759.262 1282.854 L 2765.157 1281.152 L 2769.079 1280.015 L 2774.948 1278.304 L 2780.801 1276.587 L 2786.639 1274.866 L 2792.461 1273.139 L 2798.268 1271.406 L 2802.13 1270.248 L 2807.911 1268.505 L 2813.676 1266.757 L 2819.425 1265.004 L 2825.159 1263.244 L 2830.878 1261.479 L 2836.581 1259.708 L 2842.268 1257.93 L 2847.94 1256.147 L 2853.596 1254.357 L 2859.237 1252.561 L 2862.989 1251.361 L 2868.605 1249.554 L 2874.204 1247.742 L 2879.789 1245.923 L 2885.358 1244.097 L 2890.911 1242.265 L 2896.449 1240.427 L 2901.972 1238.581 L 2907.48 1236.729 L 2912.972 1234.871 L 2918.449 1233.005 L 2923.91 1231.133 L 2931.168 1228.625 L 2936.594 1226.737 L 2942.005 1224.841 L 2947.4 1222.938 L 2952.78 1221.028 L 2958.145 1219.111 L 2963.494 1217.187 L 2968.829 1215.255 L 2974.148 1213.316 L 2979.452 1211.369 L 2986.5 1208.762 L 2991.769 1206.798 L 2997.022 1204.826 L 3002.261 1202.846 L 3007.484 1200.859 L 3012.692 1198.864 L 3019.613 1196.192 L 3024.786 1194.179 L 3029.944 1192.157 L 3035.087 1190.128 L 3040.214 1188.09 L 3047.028 1185.361 L 3052.121 1183.305 L 3057.199 1181.24 L 3063.946 1178.474 L 3068.989 1176.39 L 3074.017 1174.298 L 3079.03 1172.197 L 3085.691 1169.382 L 3090.669 1167.261 L 3095.633 1165.131 L 3102.228 1162.279 L 3107.156 1160.129 L 3113.705 1157.248 L 3118.599 1155.078 L 3123.478 1152.898 L 3129.961 1149.979 L 3134.806 1147.778 L 3141.243 1144.83 L 3146.053 1142.609 L 3152.444 1139.632 L 3157.22 1137.389 L 3163.565 1134.384 L 3168.307 1132.119 L 3174.606 1129.084 L 3179.314 1126.797 L 3185.568 1123.733 L 3190.241 1121.424 L 3196.45 1118.33 L 3201.089 1115.998 L 3207.252 1112.874 L 3213.389 1109.733 L 3217.975 1107.365 L 3224.067 1104.193 L 3230.133 1101.003 L 3234.666 1098.599 L 3240.687 1095.378 L 3246.682 1092.139 L 3251.161 1089.698 L 3257.112 1086.427 L 3263.037 1083.138 L 3268.936 1079.83 L 3273.343 1077.337 L 3279.198 1073.997 L 3285.027 1070.639 L 3290.83 1067.261 L 3296.608 1063.865 L 3302.36 1060.45 L 3306.658 1057.876 L 3312.366 1054.428 L 3318.049 1050.96 L 3323.707 1047.473 L 3329.339 1043.966 L 3334.946 1040.44 L 3340.528 1036.894 L 3346.084 1033.329 L 3351.616 1029.743 L 3357.122 1026.138 L 3362.603 1022.513 L 3368.059 1018.868 L 3373.491 1015.202 L 3378.897 1011.516 L 3385.62 1006.88 L 3390.97 1003.148 L 3396.295 999.396 L 3401.595 995.623 L 3406.871 991.829 L 3412.122 988.014 L 3418.651 983.216 L 3423.846 979.354 L 3429.016 975.47 L 3435.445 970.586 L 3440.56 966.655 L 3445.651 962.702 L 3451.979 957.731 L 3457.015 953.729 L 3463.274 948.697 L 3468.255 944.646 L 3474.446 939.552 L 3479.372 935.452 L 3485.494 930.296 L 3490.365 926.146 L 3496.297 920.929 L 3501.25 916.729 L 3507.243 911.446 L 3512.654 906.137 L 3519.51 900.778 L 3523.304 896.477 L 3529.164 891.068 L 3535.478 885.616 L 3540.773 880.133 L 3547.332 874.603 L 3551.094 870.161 L 3557.214 864.572 L 3562.417 858.949 L 3568.02 853.291 L 3573.991 847.591 L 3579.118 841.856 L 3584.751 836.085 L 3591.151 829.11 L 3596.561 823.257 L 3602.282 817.361 L 3607.053 811.431 L 3613.626 804.267 L 3619.197 798.25 L 3623.904 792.196 L 3630.316 784.883 L 3635.561 778.744 L 3641.574 771.325 L 3646.459 765.101 L 3652.655 757.581 L 3657.727 751.269 L 3663.408 743.641 L 3669.289 735.96 L 3675.263 728.219 L 3679.938 721.723 L 3685.884 713.875 L 3691.36 705.966 L 3696.993 698.001 L 3702.575 689.977 L 3708.007 681.894 L 3714.664 672.388 L 3719.917 664.172 L 3725.289 655.898 L 3730.528 647.564 L 3736.753 637.765 L 3741.891 629.298 L 3747.912 619.344 L 3753.933 609.306 L 3758.916 600.633 L 3764.856 590.438 L 3770.507 580.154 L 3776.201 569.788 L 3781.828 559.336 L 3787.389 548.797 L 3792.843 538.172 L 3799.081 525.922 L 3804.399 515.109 L 3810.47 502.644 L 3815.652 491.642 L 3821.531 478.959 L 3827.324 466.16 L 3833.033 453.244 L 3838.657 440.209 L 3844.178 427.055 L 3850.329 412.116 L 3855.675 398.709 L 3861.558 383.482 L 3867.437 368.103 L 3873.16 352.569 L 3878.77 336.88 L 3884.893 319.265 L 3890.896 301.457 L 3896.169 285.262 L 3902.497 265.255 L 3908.107 246.859 L 3914.123 226.395 L 3920.019 205.691 L 3925.749 184.744 L 3931.327 163.552 L 3937.242 140.154 L 3943.453 114.474 L 3949.454 88.446 L 3955.254 62.069 L 3955.064 1.709 Z" vector-effect="non-scaling-stroke"/></g></svg>