<svg width="2057.454" height="315.367" viewBox="0 0 2057.454 315.367" xmlns="http://www.w3.org/2000/svg"><g id="svgGroup" stroke-linecap="round" fill-rule="evenodd" font-size="9pt" stroke="#000" stroke-width="0.25mm" fill="none" style="stroke:#000;stroke-width:0.25mm;fill:none"><path d="M 2039.59 0 L 2034.217 0.538 L 2028.829 1.074 L 2023.427 1.61 L 2018.01 2.144 L 2012.577 2.677 L 2007.13 3.21 L 2001.667 3.741 L 1998.017 4.094 L 1992.528 4.623 L 1987.025 5.151 L 1981.505 5.678 L 1975.971 6.204 L 1970.42 6.728 L 1966.711 7.077 L 1961.134 7.599 L 1955.542 8.121 L 1949.933 8.64 L 1944.308 9.159 L 1940.55 9.504 L 1934.898 10.021 L 1929.23 10.536 L 1923.546 11.05 L 1917.846 11.563 L 1914.036 11.904 L 1908.308 12.414 L 1902.563 12.923 L 1896.802 13.431 L 1892.951 13.768 L 1887.162 14.274 L 1881.355 14.778 L 1877.475 15.113 L 1871.64 15.615 L 1865.788 16.115 L 1861.877 16.447 L 1855.997 16.945 L 1850.099 17.442 L 1846.157 17.772 L 1840.23 18.265 L 1834.285 18.758 L 1830.312 19.085 L 1824.338 19.575 L 1818.346 20.063 L 1814.341 20.388 L 1808.32 20.874 L 1804.295 21.196 L 1798.243 21.679 L 1792.173 22.161 L 1788.117 22.481 L 1782.016 22.96 L 1777.939 23.278 L 1771.808 23.754 L 1767.711 24.071 L 1761.549 24.544 L 1755.368 25.016 L 1751.238 25.329 L 1745.026 25.798 L 1740.875 26.11 L 1734.632 26.576 L 1730.459 26.885 L 1724.184 27.348 L 1719.991 27.656 L 1713.684 28.116 L 1709.469 28.422 L 1703.131 28.879 L 1698.894 29.183 L 1692.523 29.638 L 1688.265 29.939 L 1681.862 30.391 L 1677.582 30.691 L 1673.293 30.99 L 1666.844 31.437 L 1662.533 31.733 L 1656.051 32.177 L 1651.718 32.472 L 1645.203 32.913 L 1640.848 33.206 L 1636.484 33.498 L 1629.921 33.934 L 1625.535 34.224 L 1621.139 34.513 L 1614.529 34.944 L 1610.111 35.231 L 1603.467 35.66 L 1599.026 35.944 L 1594.576 36.228 L 1587.884 36.652 L 1583.411 36.933 L 1578.928 37.214 L 1572.187 37.633 L 1567.682 37.911 L 1563.167 38.189 L 1556.377 38.603 L 1551.839 38.878 L 1547.291 39.152 L 1540.451 39.562 L 1535.88 39.834 L 1531.299 40.105 L 1526.709 40.375 L 1519.805 40.778 L 1515.191 41.045 L 1510.567 41.312 L 1505.933 41.578 L 1498.965 41.975 L 1494.307 42.238 L 1489.639 42.5 L 1484.962 42.762 L 1477.928 43.152 L 1473.226 43.411 L 1468.515 43.669 L 1463.793 43.926 L 1456.693 44.309 L 1451.947 44.564 L 1447.191 44.817 L 1442.425 45.07 L 1437.649 45.321 L 1430.466 45.696 L 1425.665 45.945 L 1420.854 46.193 L 1416.033 46.44 L 1411.202 46.686 L 1406.361 46.931 L 1399.08 47.296 L 1394.213 47.538 L 1389.336 47.779 L 1384.449 48.019 L 1379.551 48.258 L 1374.643 48.496 L 1369.725 48.733 L 1362.329 49.086 L 1357.385 49.321 L 1352.431 49.554 L 1347.466 49.786 L 1342.491 50.017 L 1337.505 50.247 L 1332.509 50.476 L 1327.503 50.704 L 1322.486 50.93 L 1317.458 51.156 L 1309.897 51.492 L 1304.842 51.715 L 1299.778 51.936 L 1294.702 52.157 L 1289.616 52.376 L 1284.519 52.595 L 1279.412 52.812 L 1274.293 53.028 L 1269.164 53.243 L 1264.024 53.457 L 1258.874 53.669 L 1253.712 53.881 L 1248.54 54.091 L 1243.356 54.3 L 1238.162 54.508 L 1232.957 54.715 L 1227.741 54.921 L 1222.514 55.126 L 1217.276 55.329 L 1212.026 55.531 L 1206.766 55.732 L 1201.495 55.932 L 1196.212 56.131 L 1190.919 56.328 L 1185.614 56.524 L 1180.298 56.719 L 1174.971 56.913 L 1169.633 57.106 L 1164.283 57.297 L 1158.923 57.488 L 1153.55 57.677 L 1148.167 57.865 L 1142.772 58.051 L 1137.366 58.236 L 1131.949 58.421 L 1126.52 58.604 L 1123.801 58.695 L 1118.355 58.876 L 1112.897 59.055 L 1107.428 59.234 L 1101.948 59.411 L 1096.455 59.587 L 1090.952 59.762 L 1085.437 59.936 L 1079.91 60.108 L 1074.371 60.279 L 1071.597 60.364 L 1066.041 60.533 L 1060.474 60.701 L 1054.894 60.867 L 1049.303 61.033 L 1043.7 61.197 L 1038.085 61.359 L 1032.459 61.521 L 1029.641 61.601 L 1023.997 61.76 L 1018.341 61.918 L 1012.673 62.075 L 1006.993 62.231 L 1001.301 62.385 L 995.597 62.538 L 992.74 62.614 L 987.018 62.765 L 981.285 62.914 L 975.539 63.062 L 969.781 63.209 L 966.897 63.282 L 961.121 63.427 L 955.332 63.571 L 949.532 63.713 L 943.719 63.854 L 940.808 63.924 L 934.978 64.062 L 929.134 64.2 L 923.279 64.336 L 917.411 64.471 L 914.473 64.537 L 908.586 64.67 L 902.688 64.801 L 896.777 64.931 L 890.854 65.06 L 887.887 65.123 L 881.945 65.25 L 875.991 65.375 L 870.024 65.499 L 867.036 65.56 L 861.051 65.681 L 855.052 65.802 L 849.042 65.92 L 846.032 65.979 L 840.002 66.096 L 833.96 66.211 L 830.934 66.268 L 824.873 66.381 L 818.799 66.493 L 812.713 66.603 L 809.665 66.657 L 803.559 66.765 L 797.441 66.872 L 794.377 66.925 L 788.239 67.029 L 782.089 67.132 L 775.926 67.234 L 772.84 67.284 L 766.657 67.383 L 760.462 67.481 L 757.359 67.53 L 751.144 67.625 L 744.917 67.719 L 741.798 67.766 L 735.551 67.858 L 729.291 67.949 L 726.156 67.993 L 719.876 68.082 L 713.583 68.168 L 710.432 68.211 L 704.12 68.296 L 697.794 68.379 L 694.626 68.42 L 688.281 68.501 L 681.922 68.58 L 678.738 68.619 L 672.36 68.696 L 665.968 68.772 L 662.767 68.809 L 656.356 68.882 L 653.145 68.918 L 646.714 68.989 L 640.269 69.059 L 637.042 69.093 L 630.577 69.16 L 624.098 69.225 L 620.854 69.258 L 614.356 69.321 L 611.102 69.352 L 604.583 69.413 L 598.051 69.472 L 594.78 69.501 L 588.227 69.559 L 584.946 69.586 L 578.373 69.641 L 571.787 69.694 L 568.489 69.72 L 561.882 69.771 L 558.574 69.796 L 551.946 69.844 L 545.305 69.891 L 541.98 69.914 L 535.318 69.959 L 531.983 69.98 L 525.3 70.022 L 521.954 70.043 L 515.251 70.082 L 511.895 70.102 L 505.171 70.139 L 498.434 70.175 L 495.06 70.192 L 488.302 70.225 L 484.918 70.241 L 478.139 70.272 L 474.744 70.287 L 467.944 70.315 L 464.539 70.329 L 457.718 70.355 L 454.302 70.367 L 447.46 70.391 L 440.604 70.413 L 437.171 70.423 L 430.294 70.442 L 426.85 70.451 L 419.952 70.468 L 416.497 70.476 L 409.578 70.491 L 406.113 70.497 L 399.172 70.509 L 395.696 70.515 L 388.734 70.524 L 385.248 70.528 L 378.264 70.535 L 374.767 70.538 L 367.763 70.543 L 364.255 70.544 L 357.228 70.546 L 353.71 70.547 L 346.662 70.546 L 343.132 70.545 L 336.063 70.542 L 332.523 70.54 L 325.432 70.534 L 321.881 70.531 L 318.326 70.527 L 311.206 70.518 L 307.641 70.513 L 300.499 70.501 L 296.922 70.495 L 289.759 70.48 L 286.171 70.473 L 278.986 70.456 L 275.387 70.447 L 268.18 70.428 L 264.571 70.417 L 257.341 70.395 L 253.721 70.384 L 250.097 70.372 L 242.838 70.346 L 239.203 70.333 L 231.922 70.305 L 228.276 70.29 L 220.973 70.26 L 217.316 70.244 L 213.656 70.227 L 206.323 70.193 L 202.651 70.175 L 195.296 70.139 L 191.613 70.12 L 184.235 70.08 L 180.541 70.06 L 176.843 70.039 L 169.436 69.996 L 165.727 69.974 L 158.297 69.928 L 154.577 69.905 L 150.853 69.881 L 143.393 69.832 L 139.657 69.806 L 132.175 69.755 L 128.428 69.728 L 124.678 69.701 L 117.166 69.645 L 113.404 69.617 L 105.869 69.559 L 102.095 69.529 L 98.318 69.499 L 90.753 69.437 L 86.964 69.406 L 79.376 69.341 L 75.576 69.308 L 71.772 69.275 L 64.154 69.207 L 60.339 69.172 L 56.52 69.137 L 48.87 69.065 L 45.04 69.028 L 37.367 68.954 L 33.525 68.916 L 29.679 68.877 L 21.976 68.799 L 18.119 68.759 L 14.258 68.719 L 6.524 68.637 L 2.651 68.596 L 0 314.286 L 3.873 314.317 L 11.608 314.378 L 15.47 314.408 L 19.329 314.437 L 27.034 314.494 L 30.882 314.522 L 34.725 314.55 L 42.402 314.603 L 46.235 314.629 L 53.889 314.68 L 57.711 314.705 L 61.529 314.729 L 69.155 314.776 L 72.962 314.799 L 76.766 314.821 L 84.362 314.865 L 88.155 314.886 L 95.282 314.921 L 99.512 314.946 L 103.29 314.966 L 110.836 315.003 L 114.604 315.021 L 121.682 315.05 L 125.885 315.072 L 129.638 315.088 L 136.688 315.114 L 140.876 315.134 L 147.906 315.157 L 152.082 315.175 L 155.81 315.188 L 162.812 315.208 L 166.973 315.224 L 173.954 315.242 L 178.104 315.257 L 181.807 315.267 L 188.761 315.28 L 192.895 315.293 L 199.829 315.305 L 203.511 315.312 L 210.865 315.325 L 214.537 315.331 L 218.644 315.34 L 225.53 315.346 L 229.188 315.35 L 236.492 315.357 L 240.139 315.359 L 247.423 315.364 L 251.059 315.365 L 254.692 315.366 L 261.948 315.367 L 265.57 315.366 L 272.805 315.365 L 276.417 315.363 L 283.63 315.358 L 287.232 315.355 L 293.99 315.344 L 298.016 315.344 L 304.754 315.33 L 308.768 315.328 L 315.487 315.312 L 319.057 315.305 L 323.057 315.302 L 329.748 315.282 L 333.737 315.277 L 340.409 315.255 L 344.386 315.249 L 351.039 315.224 L 354.575 315.213 L 361.637 315.189 L 365.163 315.176 L 372.205 315.15 L 375.721 315.136 L 382.742 315.107 L 386.248 315.092 L 392.821 315.057 L 396.744 315.044 L 403.298 315.007 L 407.21 314.993 L 413.744 314.952 L 417.646 314.937 L 424.161 314.894 L 427.626 314.874 L 434.546 314.833 L 438.001 314.811 L 444.902 314.767 L 451.364 314.717 L 455.227 314.697 L 461.67 314.645 L 465.522 314.624 L 471.946 314.569 L 475.787 314.547 L 482.192 314.49 L 485.601 314.462 L 492.408 314.406 L 495.807 314.378 L 502.594 314.319 L 508.948 314.255 L 512.751 314.228 L 519.086 314.162 L 522.877 314.133 L 529.193 314.065 L 532.974 314.035 L 539.271 313.964 L 543.041 313.932 L 549.32 313.859 L 556.002 313.787 L 559.339 313.751 L 565.586 313.673 L 569.329 313.638 L 575.558 313.558 L 582.188 313.48 L 585.499 313.44 L 592.11 313.359 L 595.411 313.318 L 602.004 313.235 L 608.17 313.146 L 611.868 313.106 L 618.015 313.016 L 621.702 312.974 L 627.832 312.882 L 634.36 312.79 L 637.62 312.744 L 644.129 312.65 L 650.215 312.551 L 653.869 312.505 L 659.936 312.405 L 663.579 312.357 L 669.629 312.255 L 676.075 312.152 L 679.293 312.101 L 685.721 311.996 L 691.727 311.888 L 695.337 311.836 L 701.327 311.725 L 707.71 311.615 L 710.896 311.56 L 717.261 311.447 L 723.208 311.331 L 726.784 311.275 L 732.714 311.156 L 739.034 311.038 L 742.593 310.98 L 748.493 310.858 L 754.783 310.736 L 757.923 310.674 L 764.195 310.55 L 770.052 310.422 L 773.579 310.36 L 779.419 310.23 L 785.648 310.1 L 791.464 309.967 L 794.968 309.902 L 800.767 309.767 L 806.953 309.631 L 810.042 309.563 L 816.209 309.425 L 822.366 309.286 L 828.111 309.144 L 831.576 309.074 L 837.306 308.929 L 843.419 308.785 L 846.471 308.712 L 852.567 308.564 L 858.256 308.415 L 864.326 308.265 L 867.753 308.189 L 873.413 308.037 L 879.456 307.883 L 885.091 307.726 L 888.496 307.648 L 894.116 307.49 L 900.116 307.331 L 906.106 307.17 L 911.69 307.007 L 915.066 306.925 L 920.635 306.761 L 926.584 306.594 L 932.13 306.427 L 938.053 306.257 L 941.401 306.172 L 946.919 306.001 L 952.816 305.828 L 958.312 305.653 L 964.182 305.478 L 967.502 305.388 L 972.97 305.211 L 978.814 305.031 L 984.26 304.85 L 990.081 304.668 L 992.987 304.576 L 998.79 304.391 L 1004.582 304.204 L 1009.979 304.017 L 1015.748 303.828 L 1021.506 303.637 L 1026.868 303.446 L 1030.121 303.348 L 1035.468 303.155 L 1041.186 302.959 L 1046.894 302.762 L 1052.209 302.564 L 1057.895 302.364 L 1063.188 302.163 L 1068.848 301.96 L 1072.056 301.857 L 1077.322 301.653 L 1082.956 301.446 L 1088.581 301.238 L 1093.815 301.03 L 1099.418 300.819 L 1104.631 300.608 L 1110.21 300.395 L 1115.78 300.179 L 1120.958 299.964 L 1124.109 299.853 L 1129.651 299.634 L 1134.806 299.417 L 1140.325 299.195 L 1145.834 298.971 L 1150.958 298.75 L 1156.444 298.524 L 1161.922 298.296 L 1167.014 298.07 L 1172.468 297.84 L 1177.913 297.608 L 1182.975 297.379 L 1188.397 297.144 L 1193.81 296.908 L 1198.841 296.675 L 1204.231 296.436 L 1209.612 296.196 L 1214.612 295.959 L 1219.971 295.716 L 1225.32 295.472 L 1230.29 295.23 L 1235.617 294.984 L 1240.936 294.735 L 1245.875 294.49 L 1251.171 294.239 L 1256.458 293.987 L 1261.368 293.738 L 1266.632 293.483 L 1271.888 293.227 L 1276.768 292.974 L 1282.002 292.715 L 1287.227 292.455 L 1292.077 292.198 L 1297.28 291.935 L 1302.473 291.671 L 1307.658 291.405 L 1314.691 291.014 L 1319.849 290.746 L 1324.998 290.475 L 1329.775 290.209 L 1334.902 289.937 L 1340.019 289.662 L 1345.129 289.387 L 1349.867 289.116 L 1354.954 288.838 L 1360.034 288.559 L 1366.918 288.149 L 1371.97 287.867 L 1377.013 287.583 L 1382.048 287.298 L 1386.715 287.018 L 1391.728 286.73 L 1396.733 286.441 L 1403.868 286.012 L 1408.493 285.726 L 1413.462 285.433 L 1418.421 285.138 L 1423.374 284.842 L 1427.963 284.552 L 1435.004 284.111 L 1439.92 283.811 L 1444.83 283.51 L 1449.376 283.214 L 1454.265 282.91 L 1461.23 282.46 L 1466.096 282.153 L 1470.601 281.852 L 1475.449 281.542 L 1482.351 281.084 L 1487.173 280.771 L 1491.988 280.457 L 1496.445 280.151 L 1503.286 279.684 L 1508.066 279.366 L 1512.837 279.047 L 1517.602 278.726 L 1524.038 278.261 L 1528.777 277.937 L 1533.506 277.613 L 1538.23 277.287 L 1544.608 276.814 L 1549.305 276.485 L 1553.996 276.155 L 1560.67 275.668 L 1565.336 275.335 L 1569.997 275 L 1576.285 274.517 L 1580.92 274.18 L 1585.548 273.842 L 1592.131 273.343 L 1596.738 273.001 L 1600.995 272.67 L 1607.533 272.165 L 1612.109 271.82 L 1618.615 271.311 L 1623.166 270.963 L 1627.713 270.613 L 1633.839 270.11 L 1638.36 269.758 L 1642.875 269.405 L 1649.292 268.885 L 1653.785 268.529 L 1660.171 268.005 L 1664.647 267.646 L 1670.669 267.13 L 1675.117 266.769 L 1679.56 266.407 L 1685.872 265.873 L 1690.294 265.508 L 1696.576 264.971 L 1700.98 264.603 L 1706.901 264.075 L 1711.282 263.704 L 1717.503 263.159 L 1721.864 262.786 L 1728.055 262.237 L 1732.395 261.861 L 1738.557 261.309 L 1742.876 260.93 L 1749.013 260.374 L 1752.984 260.007 L 1759.091 259.448 L 1765.177 258.886 L 1769.445 258.501 L 1775.502 257.935 L 1779.75 257.547 L 1785.778 256.978 L 1790.006 256.588 L 1796.009 256.015 L 1801.991 255.44 L 1806.192 255.046 L 1811.824 254.483 L 1816.003 254.086 L 1821.933 253.504 L 1827.842 252.921 L 1831.99 252.52 L 1837.876 251.933 L 1843.741 251.343 L 1847.859 250.938 L 1853.701 250.346 L 1859.522 249.751 L 1863.61 249.342 L 1869.409 248.744 L 1875.187 248.144 L 1879.245 247.732 L 1885.001 247.128 L 1890.737 246.523 L 1894.766 246.106 L 1900.479 245.498 L 1906.177 244.888 L 1911.855 244.275 L 1915.845 243.853 L 1921.501 243.238 L 1927.146 242.621 L 1932.459 242.02 L 1938.065 241.399 L 1942.006 240.971 L 1947.591 240.347 L 1953.162 239.721 L 1958.717 239.093 L 1964.246 238.464 L 1968.45 238.009 L 1973.965 237.377 L 1979.465 236.742 L 1984.95 236.106 L 1990.421 235.468 L 1995.873 234.828 L 1999.709 234.386 L 2005.141 233.743 L 2010.559 233.098 L 2015.963 232.452 L 2021.352 231.804 L 2026.728 231.155 L 2032.089 230.503 L 2037.435 229.85 L 2037.453 227.672 L 2037.472 225.491 L 2037.49 223.308 L 2037.509 221.122 L 2037.527 218.934 L 2037.546 216.744 L 2037.564 214.551 L 2037.583 212.356 L 2037.602 210.158 L 2037.621 207.958 L 2037.64 205.755 L 2037.659 203.55 L 2037.678 201.343 L 2037.697 199.133 L 2037.716 196.921 L 2037.735 194.706 L 2037.755 192.489 L 2037.774 190.27 L 2037.81 186.174 L 2056.377 188.788 L 2056.728 149.632 L 2038.117 151.912 L 2019.505 154.187 L 2019.923 109.184 L 2038.489 111.804 L 2057.054 114.429 L 2057.454 72.706 L 2038.842 74.975 L 2020.229 77.239 L 2020.653 34.268 L 2039.217 36.898 L 2039.226 36.031 L 2039.25 33.646 L 2039.274 31.258 L 2039.298 28.868 L 2039.322 26.476 L 2039.346 24.082 L 2039.37 21.684 L 2039.394 19.285 L 2039.418 16.883 L 2039.443 14.478 L 2039.467 12.071 L 2039.491 9.662 L 2039.516 7.25 L 2039.54 4.836 L 2039.565 2.419 L 2039.59 0 Z" vector-effect="non-scaling-stroke"/><g id="captions"><text alignment-baseline="middle" text-anchor="middle" transform="rotate(0,1017.044,182.873)" x="1017.044" y="182.873">LEE, 3, 0</text></g></g></svg>