<svg width="684.287" height="299.915" viewBox="0 0 684.287 299.915" xmlns="http://www.w3.org/2000/svg"><g id="svgGroup" stroke-linecap="round" fill-rule="evenodd" font-size="9pt" stroke="#000" stroke-width="0.25mm" fill="none" style="stroke:#000;stroke-width:0.25mm;fill:none"><path d="M 678.891 0 L 677.917 0.915 L 676.943 1.829 L 675.864 2.782 L 674.762 3.698 L 673.788 4.611 L 672.542 5.618 L 671.538 6.531 L 670.475 7.484 L 669.364 8.397 L 668.538 9.293 L 667.269 10.207 L 666.295 11.116 L 665.246 12.066 L 664.126 12.976 L 663.083 13.924 L 661.959 14.832 L 660.921 15.779 L 660.031 16.628 L 658.844 17.575 L 657.712 18.479 L 656.684 19.422 L 655.547 20.324 L 654.795 21.206 L 653.43 22.151 L 652.287 23.049 L 651.55 23.927 L 650.215 24.826 L 649.202 25.761 L 648.316 26.594 L 647.136 27.529 L 645.955 28.463 L 645.07 29.292 L 643.89 30.222 L 643.014 31.09 L 641.645 31.979 L 640.955 32.84 L 639.577 33.726 L 638.895 34.584 L 637.505 35.509 L 636.62 36.324 L 635.44 37.243 L 634.585 38.097 L 633.187 39.016 L 632.301 39.824 L 631.12 40.735 L 630.276 41.582 L 629.165 42.388 L 627.982 43.295 L 627.144 44.135 L 625.731 45.042 L 624.842 45.837 L 624.011 46.672 L 622.591 47.574 L 621.763 48.404 L 620.635 49.196 L 619.811 50.022 L 618.382 50.917 L 617.561 51.739 L 616.499 52.564 L 615.36 53.346 L 614.168 54.227 L 613.353 55.041 L 612.291 55.858 L 611.229 56.672 L 610.167 57.485 L 608.662 58.321 L 608.073 59.118 L 607.01 59.924 L 605.947 60.728 L 604.883 61.53 L 603.82 62.33 L 602.29 63.154 L 601.711 63.938 L 600.646 64.731 L 599.58 65.522 L 598.514 66.311 L 597.448 67.097 L 596.381 67.881 L 595.314 68.663 L 594.246 69.443 L 593.059 70.183 L 592.264 70.951 L 591.194 71.724 L 590.123 72.495 L 589.051 73.263 L 587.979 74.03 L 586.906 74.794 L 585.832 75.556 L 584.757 76.315 L 583.682 77.073 L 582.605 77.828 L 581.527 78.58 L 580.449 79.331 L 579.369 80.079 L 578.149 80.789 L 577.353 81.524 L 576.923 82.19 L 575.353 82.943 L 574.268 83.68 L 573.182 84.415 L 572.094 85.147 L 571.005 85.877 L 569.914 86.605 L 568.822 87.33 L 568.401 87.976 L 566.81 88.713 L 565.715 89.431 L 564.618 90.148 L 563.519 90.862 L 563.101 91.495 L 561.499 92.221 L 560.396 92.929 L 559.292 93.634 L 558.03 94.305 L 557.908 94.916 L 556.294 95.631 L 555.183 96.327 L 554.071 97.021 L 553.653 97.633 L 552.03 98.341 L 550.913 99.028 L 550.495 99.632 L 548.866 100.334 L 547.743 101.015 L 546.619 101.693 L 546.199 102.288 L 544.561 102.981 L 543.431 103.653 L 543.01 104.24 L 541.204 104.9 L 540.365 105.552 L 539.94 106.133 L 538.291 106.815 L 537.864 107.391 L 536.211 108.068 L 535.066 108.723 L 534.636 109.292 L 532.977 109.964 L 531.826 110.612 L 531.15 111.15 L 529.86 111.8 L 529.423 112.358 L 527.756 113.02 L 527.315 113.573 L 525.645 114.231 L 524.479 114.865 L 523.793 115.389 L 522.489 116.025 L 522.04 116.567 L 520.362 117.216 L 519.908 117.753 L 518.227 118.399 L 517.531 118.911 L 516.216 119.536 L 515.753 120.064 L 514.067 120.703 L 513.6 121.226 L 511.756 121.84 L 511.569 122.344 L 509.877 122.975 L 509.401 123.491 L 507.707 124.119 L 506.992 124.612 L 505.657 125.217 L 505.17 125.725 L 503.471 126.346 L 502.749 126.832 L 501.405 127.43 L 500.907 127.929 L 499.697 128.437 L 498.348 129.03 L 497.841 129.523 L 495.989 130.113 L 495.749 130.586 L 494.04 131.191 L 493.3 131.662 L 492.654 132.153 L 490.942 132.754 L 490.196 133.219 L 488.828 133.796 L 488.293 134.272 L 487.076 134.761 L 485.701 135.333 L 485.156 135.804 L 483.938 136.288 L 482.557 136.855 L 481.793 137.307 L 481.117 137.778 L 479.266 138.345 L 478.958 138.788 L 477.939 139.275 L 476.089 139.838 L 475.767 140.275 L 474.544 140.746 L 473.144 141.298 L 472.361 141.737 L 471.657 142.193 L 469.808 142.748 L 469.457 143.174 L 468.232 143.637 L 466.819 144.18 L 466.022 144.609 L 465.299 145.056 L 464.072 145.513 L 462.539 146.036 L 462.155 146.452 L 460.927 146.904 L 460.187 147.343 L 458.344 147.884 L 457.939 148.293 L 456.71 148.74 L 455.784 149.164 L 454.344 149.69 L 453.519 150.103 L 452.587 150.522 L 451.821 150.949 L 449.981 151.48 L 449.371 151.869 L 448.595 152.292 L 447.363 152.728 L 446.42 153.14 L 444.961 153.654 L 444.114 154.055 L 443.166 154.463 L 442.216 154.87 L 441.416 155.284 L 439.581 155.803 L 438.935 156.179 L 437.977 156.581 L 437.163 156.99 L 435.928 157.413 L 434.368 157.902 L 433.704 158.273 L 432.737 158.67 L 431.906 159.072 L 430.668 159.489 L 429.695 159.882 L 428.721 160.274 L 427.154 160.756 L 426.465 161.119 L 425.613 161.514 L 424.373 161.925 L 423.388 162.311 L 422.403 162.696 L 421.415 163.081 L 420.425 163.464 L 418.85 163.938 L 418.132 164.293 L 417.137 164.673 L 416.139 165.052 L 415.14 165.43 L 414.139 165.807 L 413.136 166.183 L 412.131 166.558 L 411.124 166.933 L 410.116 167.306 L 408.529 167.77 L 407.776 168.115 L 406.761 168.486 L 405.745 168.855 L 404.726 169.224 L 403.706 169.591 L 402.683 169.958 L 401.659 170.324 L 400.633 170.689 L 399.605 171.053 L 398.576 171.416 L 397.544 171.778 L 396.51 172.139 L 395.475 172.5 L 394.437 172.859 L 393.398 173.218 L 392.253 173.574 L 391.446 173.905 L 390.401 174.262 L 389.354 174.617 L 388.305 174.972 L 387.254 175.326 L 385.608 175.761 L 384.945 176.071 L 383.888 176.422 L 382.829 176.773 L 381.768 177.123 L 380.617 177.469 L 379.773 177.793 L 379.575 178.018 L 377.978 178.42 L 376.908 178.766 L 375.758 179.109 L 374.896 179.43 L 373.82 179.774 L 372.743 180.117 L 371.591 180.457 L 370.715 180.774 L 369.632 181.116 L 368.479 181.453 L 367.593 181.769 L 366.504 182.108 L 365.349 182.444 L 364.454 182.758 L 363.359 183.095 L 362.202 183.428 L 361.298 183.741 L 360.197 184.076 L 359.038 184.407 L 358.124 184.719 L 357.017 185.052 L 355.856 185.381 L 355.743 185.569 L 354.131 185.949 L 353.2 186.258 L 352.084 186.588 L 350.922 186.913 L 349.982 187.221 L 348.819 187.545 L 347.872 187.851 L 346.707 188.174 L 345.755 188.479 L 344.625 188.806 L 344.149 189.017 L 342.864 189.361 L 341.697 189.681 L 340.728 189.984 L 339.56 190.302 L 338.586 190.604 L 337.415 190.922 L 336.435 191.223 L 335.263 191.54 L 335.044 191.721 L 333.478 192.085 L 332.485 192.384 L 331.312 192.698 L 330.313 192.997 L 329.137 193.31 L 328.116 193.603 L 327.863 193.782 L 326.311 194.14 L 325.298 194.437 L 324.119 194.748 L 323.1 195.044 L 321.919 195.353 L 320.885 195.642 L 320.599 195.82 L 319.06 196.174 L 318.021 196.462 L 316.984 196.756 L 315.799 197.062 L 314.757 197.356 L 314.222 197.553 L 312.912 197.874 L 311.861 198.167 L 310.672 198.471 L 309.618 198.756 L 309.282 198.931 L 307.761 199.277 L 306.703 199.561 L 305.635 199.851 L 304.441 200.152 L 303.377 200.435 L 303.015 200.61 L 301.502 200.952 L 300.433 201.233 L 299.362 201.514 L 298.983 201.688 L 297.477 202.028 L 296.401 202.308 L 295.323 202.588 L 294.225 202.876 L 293.654 203.066 L 292.343 203.377 L 291.258 203.655 L 290.149 203.942 L 288.942 204.237 L 288.482 204.409 L 287.169 204.718 L 286.049 205.004 L 284.838 205.297 L 284.367 205.468 L 283.054 205.775 L 281.954 206.05 L 280.82 206.335 L 280.227 206.522 L 278.914 206.827 L 277.807 207.101 L 276.697 207.376 L 276.208 207.545 L 274.855 207.858 L 273.634 208.147 L 272.518 208.421 L 272.018 208.59 L 270.701 208.891 L 269.58 209.164 L 268.457 209.436 L 267.963 209.607 L 266.485 209.929 L 265.357 210.201 L 264.84 210.368 L 263.522 210.667 L 262.389 210.938 L 261.254 211.209 L 260.729 211.376 L 259.408 211.673 L 258.268 211.943 L 257.738 212.113 L 256.268 212.43 L 255.123 212.7 L 253.976 212.969 L 253.434 213.135 L 252.11 213.429 L 250.959 213.698 L 250.411 213.863 L 249.085 214.157 L 247.929 214.425 L 247.374 214.589 L 246.047 214.882 L 244.885 215.149 L 244.325 215.314 L 242.996 215.605 L 241.83 215.872 L 241.262 216.036 L 239.932 216.327 L 238.761 216.593 L 238.187 216.756 L 236.855 217.046 L 235.679 217.312 L 235.099 217.475 L 233.766 217.764 L 232.584 218.029 L 231.998 218.192 L 230.663 218.48 L 229.476 218.744 L 228.884 218.907 L 227.547 219.194 L 226.355 219.458 L 225.757 219.62 L 224.418 219.906 L 223.221 220.17 L 222.616 220.332 L 221.276 220.617 L 220.142 220.868 L 219.617 221.017 L 218.272 221.301 L 217.065 221.565 L 216.451 221.726 L 215.104 222.009 L 214.485 222.17 L 213.138 222.454 L 211.923 222.716 L 211.298 222.877 L 210.024 223.146 L 208.882 223.396 L 208.252 223.556 L 206.9 223.838 L 206.266 223.998 L 204.913 224.28 L 203.685 224.541 L 203.044 224.701 L 201.77 224.968 L 201.2 225.116 L 199.843 225.396 L 198.607 225.657 L 197.959 225.816 L 196.6 226.096 L 195.359 226.357 L 194.74 226.509 L 193.497 226.77 L 192.84 226.928 L 191.476 227.207 L 190.814 227.366 L 189.538 227.629 L 188.353 227.879 L 187.687 228.037 L 186.319 228.315 L 185.649 228.473 L 184.371 228.735 L 183.176 228.985 L 182.502 229.143 L 181.129 229.42 L 180.45 229.578 L 179.171 229.839 L 178.553 229.986 L 177.178 230.263 L 175.906 230.522 L 175.219 230.679 L 173.938 230.939 L 173.309 231.087 L 171.929 231.362 L 171.234 231.52 L 169.953 231.778 L 168.73 232.027 L 168.032 232.185 L 166.647 232.459 L 166.006 232.606 L 164.718 232.865 L 164.013 233.022 L 162.727 233.279 L 162.077 233.426 L 160.687 233.7 L 159.39 233.959 L 158.743 234.104 L 157.444 234.362 L 156.728 234.519 L 155.439 234.775 L 154.776 234.922 L 153.378 235.195 L 152.655 235.352 L 151.366 235.607 L 150.693 235.754 L 149.293 236.027 L 148.638 236.171 L 147.324 236.429 L 146.591 236.585 L 145.299 236.838 L 144.03 237.088 L 143.294 237.244 L 141.998 237.497 L 141.31 237.645 L 139.9 237.916 L 139.238 238.059 L 137.909 238.317 L 137.164 238.473 L 135.866 238.724 L 135.167 238.873 L 133.751 239.143 L 133.084 239.285 L 131.746 239.543 L 130.991 239.698 L 129.691 239.949 L 128.98 240.097 L 127.677 240.348 L 126.964 240.496 L 125.54 240.766 L 124.867 240.907 L 123.516 241.164 L 122.75 241.32 L 121.445 241.569 L 120.72 241.718 L 119.413 241.967 L 118.685 242.115 L 117.253 242.384 L 116.574 242.524 L 115.211 242.782 L 114.53 242.921 L 113.165 243.178 L 112.384 243.334 L 111.073 243.582 L 110.331 243.731 L 109.578 243.881 L 108.205 244.138 L 107.416 244.294 L 106.104 244.541 L 105.351 244.69 L 104.038 244.936 L 103.283 245.085 L 101.967 245.332 L 101.209 245.481 L 99.891 245.727 L 99.131 245.876 L 97.679 246.144 L 96.985 246.282 L 95.593 246.539 L 94.898 246.677 L 94.091 246.832 L 92.771 247.077 L 91.998 247.226 L 90.675 247.472 L 89.899 247.621 L 88.575 247.866 L 87.796 248.015 L 86.332 248.282 L 85.63 248.419 L 84.222 248.676 L 83.518 248.813 L 82.696 248.968 L 81.369 249.212 L 80.577 249.362 L 79.248 249.606 L 78.453 249.755 L 77.122 249.999 L 76.325 250.149 L 75.562 250.294 L 74.139 250.551 L 73.428 250.687 L 72.002 250.944 L 71.289 251.079 L 69.86 251.337 L 69.146 251.472 L 68.304 251.627 L 66.969 251.87 L 66.154 252.02 L 64.817 252.262 L 63.999 252.413 L 62.66 252.655 L 61.969 252.785 L 61.119 252.94 L 59.777 253.182 L 58.953 253.332 L 57.609 253.574 L 56.783 253.724 L 56.012 253.866 L 54.561 254.124 L 53.835 254.258 L 52.382 254.516 L 51.654 254.65 L 50.197 254.908 L 49.469 255.041 L 48.739 255.175 L 47.278 255.433 L 46.547 255.566 L 45.083 255.825 L 44.351 255.958 L 43.478 256.113 L 42.125 256.353 L 41.415 256.482 L 39.944 256.741 L 39.207 256.873 L 38.328 257.029 L 36.972 257.268 L 36.113 257.42 L 35.335 257.559 L 34.015 257.792 L 33.153 257.943 L 31.792 258.183 L 30.927 258.335 L 30.147 258.473 L 28.821 258.706 L 27.952 258.858 L 26.587 259.097 L 25.715 259.249 L 24.932 259.387 L 23.601 259.619 L 22.725 259.771 L 21.941 259.909 L 20.442 260.168 L 19.692 260.299 L 18.356 260.532 L 17.473 260.684 L 16.686 260.821 L 15.179 261.08 L 14.425 261.212 L 13.671 261.343 L 12.161 261.602 L 11.404 261.733 L 10.648 261.864 L 9.133 262.123 L 8.375 262.254 L 6.857 262.514 L 6.097 262.644 L 5.337 262.775 L 3.815 263.035 L 3.053 263.165 L 2.291 263.295 L 0.764 263.555 L 0 263.685 L 6.225 299.915 L 6.989 299.783 L 8.514 299.519 L 9.277 299.387 L 10.038 299.256 L 11.56 298.992 L 12.321 298.861 L 13.081 298.73 L 14.599 298.467 L 15.358 298.336 L 16.874 298.074 L 17.631 297.943 L 18.388 297.812 L 19.9 297.551 L 20.656 297.42 L 21.411 297.29 L 22.92 297.029 L 23.674 296.899 L 24.427 296.768 L 25.932 296.508 L 26.684 296.378 L 28.187 296.118 L 28.938 295.989 L 29.688 295.859 L 31.187 295.6 L 31.936 295.47 L 32.685 295.341 L 34.181 295.082 L 34.928 294.953 L 36.421 294.695 L 37.167 294.566 L 37.912 294.437 L 39.402 294.18 L 40.146 294.051 L 41.633 293.794 L 42.376 293.666 L 43.118 293.537 L 44.602 293.281 L 45.343 293.153 L 46.084 293.025 L 47.564 292.769 L 48.303 292.641 L 49.781 292.386 L 50.519 292.258 L 51.256 292.13 L 52.73 291.876 L 53.467 291.748 L 54.938 291.494 L 55.673 291.367 L 56.408 291.24 L 57.876 290.986 L 58.609 290.859 L 60.074 290.606 L 60.806 290.479 L 62.269 290.227 L 62.999 290.1 L 63.73 289.974 L 65.189 289.722 L 65.918 289.596 L 67.374 289.344 L 68.102 289.218 L 68.829 289.092 L 70.282 288.841 L 71.008 288.716 L 72.459 288.465 L 73.184 288.339 L 74.632 288.089 L 75.355 287.964 L 76.078 287.839 L 77.522 287.589 L 78.244 287.464 L 79.686 287.215 L 80.406 287.09 L 81.845 286.842 L 82.564 286.717 L 83.283 286.593 L 84.719 286.345 L 85.436 286.221 L 86.87 285.973 L 87.586 285.849 L 89.016 285.601 L 89.731 285.478 L 90.445 285.354 L 91.873 285.107 L 92.586 284.984 L 94.01 284.738 L 94.722 284.615 L 96.144 284.369 L 96.854 284.246 L 98.274 284 L 98.983 283.877 L 100.4 283.632 L 101.108 283.51 L 101.815 283.388 L 103.229 283.143 L 103.935 283.021 L 105.346 282.777 L 106.051 282.655 L 107.459 282.411 L 108.163 282.289 L 109.569 282.046 L 110.271 281.925 L 111.674 281.682 L 112.375 281.561 L 113.776 281.318 L 114.476 281.197 L 115.874 280.955 L 116.572 280.834 L 117.27 280.713 L 118.665 280.472 L 119.362 280.351 L 120.754 280.11 L 121.45 279.99 L 122.839 279.75 L 123.533 279.629 L 124.92 279.389 L 125.613 279.269 L 126.998 279.03 L 127.69 278.91 L 129.072 278.671 L 129.762 278.551 L 131.141 278.312 L 131.83 278.193 L 133.207 277.955 L 133.895 277.836 L 135.269 277.598 L 135.956 277.479 L 137.328 277.241 L 138.013 277.122 L 139.382 276.885 L 140.066 276.767 L 141.433 276.53 L 142.116 276.412 L 143.48 276.175 L 144.161 276.057 L 145.523 275.822 L 146.203 275.704 L 147.562 275.468 L 148.241 275.351 L 149.598 275.116 L 150.276 274.998 L 151.63 274.763 L 152.982 274.529 L 153.658 274.412 L 155.007 274.178 L 155.682 274.061 L 157.029 273.828 L 157.702 273.711 L 159.047 273.478 L 159.719 273.361 L 161.061 273.129 L 161.731 273.012 L 163.071 272.78 L 163.74 272.664 L 165.078 272.432 L 165.746 272.316 L 167.08 272.085 L 168.413 271.853 L 169.079 271.738 L 170.41 271.507 L 171.074 271.392 L 172.402 271.161 L 173.066 271.046 L 174.391 270.816 L 175.053 270.701 L 176.376 270.472 L 177.697 270.242 L 178.358 270.128 L 179.676 269.899 L 180.335 269.784 L 181.651 269.556 L 182.309 269.442 L 183.623 269.213 L 184.935 268.986 L 185.59 268.872 L 186.9 268.644 L 187.554 268.531 L 188.861 268.303 L 189.514 268.19 L 190.819 267.963 L 192.122 267.737 L 192.772 267.624 L 194.073 267.398 L 194.723 267.285 L 196.02 267.059 L 197.317 266.834 L 197.964 266.721 L 199.258 266.496 L 199.904 266.383 L 201.196 266.159 L 201.841 266.047 L 203.13 265.822 L 204.417 265.598 L 205.06 265.486 L 206.344 265.263 L 207.627 265.039 L 208.268 264.928 L 209.549 264.705 L 210.189 264.593 L 211.467 264.371 L 212.743 264.148 L 213.381 264.037 L 214.655 263.815 L 215.291 263.704 L 216.562 263.483 L 217.832 263.261 L 218.467 263.151 L 219.734 262.93 L 221 262.709 L 221.632 262.599 L 222.895 262.378 L 223.526 262.268 L 224.787 262.048 L 226.046 261.829 L 226.675 261.719 L 227.931 261.499 L 229.186 261.28 L 229.813 261.171 L 231.066 260.952 L 232.317 260.733 L 232.942 260.624 L 234.19 260.406 L 235.437 260.188 L 236.06 260.079 L 237.304 259.862 L 238.547 259.644 L 239.168 259.536 L 240.408 259.319 L 241.646 259.102 L 242.265 258.993 L 243.501 258.777 L 244.736 258.561 L 245.352 258.453 L 246.585 258.237 L 247.815 258.021 L 248.43 257.914 L 249.658 257.698 L 250.884 257.483 L 251.497 257.376 L 252.721 257.161 L 253.943 256.947 L 254.553 256.839 L 255.773 256.625 L 256.991 256.411 L 257.6 256.305 L 258.816 256.091 L 260.03 255.878 L 260.636 255.771 L 261.848 255.558 L 263.058 255.345 L 264.267 255.133 L 264.871 255.026 L 266.077 254.814 L 267.281 254.602 L 267.883 254.496 L 269.085 254.284 L 270.285 254.073 L 271.484 253.861 L 272.083 253.756 L 273.279 253.545 L 274.474 253.334 L 275.071 253.229 L 276.263 253.018 L 277.454 252.808 L 278.643 252.598 L 279.237 252.493 L 280.423 252.283 L 281.609 252.074 L 282.792 251.864 L 283.383 251.76 L 284.564 251.551 L 285.744 251.342 L 286.922 251.133 L 287.51 251.029 L 288.685 250.821 L 289.859 250.613 L 291.031 250.405 L 291.617 250.301 L 292.787 250.093 L 293.955 249.886 L 295.122 249.678 L 295.704 249.575 L 296.869 249.368 L 298.031 249.161 L 299.192 248.954 L 300.352 248.748 L 300.931 248.645 L 302.088 248.439 L 303.243 248.233 L 304.397 248.027 L 305.549 247.821 L 306.125 247.719 L 307.275 247.513 L 308.423 247.308 L 309.57 247.103 L 310.142 247.001 L 311.287 246.796 L 312.429 246.592 L 313.571 246.387 L 314.71 246.183 L 315.848 245.979 L 316.416 245.877 L 317.552 245.673 L 318.686 245.47 L 319.818 245.266 L 320.949 245.063 L 321.514 244.961 L 322.642 244.758 L 323.769 244.555 L 324.895 244.353 L 326.018 244.15 L 327.14 243.948 L 327.701 243.846 L 328.821 243.644 L 329.939 243.442 L 331.055 243.24 L 332.17 243.039 L 333.284 242.837 L 334.396 242.636 L 334.951 242.535 L 336.061 242.334 L 337.168 242.133 L 338.275 241.932 L 339.38 241.731 L 340.483 241.53 L 341.585 241.33 L 342.135 241.229 L 343.234 241.029 L 344.332 240.829 L 345.428 240.629 L 346.523 240.429 L 347.616 240.229 L 348.707 240.029 L 349.797 239.83 L 350.885 239.63 L 351.429 239.531 L 352.515 239.332 L 353.599 239.132 L 354.682 238.933 L 355.764 238.734 L 356.843 238.536 L 357.922 238.337 L 358.998 238.138 L 360.074 237.94 L 361.147 237.742 L 362.219 237.543 L 362.754 237.444 L 363.824 237.246 L 364.892 237.048 L 365.959 236.85 L 367.024 236.652 L 368.087 236.455 L 369.149 236.257 L 370.21 236.059 L 371.269 235.862 L 372.326 235.665 L 373.382 235.467 L 374.436 235.27 L 375.488 235.073 L 376.54 234.876 L 377.589 234.679 L 378.637 234.482 L 379.684 234.285 L 380.729 234.089 L 381.772 233.892 L 382.814 233.695 L 383.854 233.499 L 384.893 233.302 L 385.93 233.106 L 386.448 233.008 L 387.483 232.811 L 388.517 232.615 L 389.549 232.419 L 390.579 232.223 L 391.608 232.027 L 392.635 231.831 L 394.173 231.536 L 395.197 231.34 L 396.219 231.145 L 397.239 230.949 L 398.258 230.753 L 399.275 230.557 L 400.291 230.361 L 401.306 230.165 L 402.318 229.97 L 403.33 229.774 L 404.339 229.578 L 405.348 229.383 L 406.354 229.187 L 407.36 228.991 L 408.363 228.796 L 409.366 228.6 L 410.366 228.404 L 411.365 228.209 L 412.363 228.013 L 413.359 227.817 L 414.354 227.622 L 415.347 227.426 L 416.834 227.133 L 417.823 226.937 L 418.811 226.741 L 419.797 226.546 L 420.782 226.35 L 421.765 226.154 L 422.747 225.959 L 423.727 225.763 L 424.706 225.567 L 425.683 225.371 L 427.146 225.077 L 428.12 224.881 L 429.092 224.685 L 430.063 224.489 L 431.032 224.293 L 431.999 224.097 L 432.965 223.901 L 433.93 223.705 L 435.374 223.41 L 436.335 223.214 L 437.294 223.017 L 438.252 222.821 L 439.208 222.624 L 440.163 222.428 L 441.116 222.231 L 442.543 221.936 L 443.493 221.739 L 444.441 221.542 L 445.388 221.345 L 446.333 221.148 L 447.748 220.852 L 448.69 220.654 L 449.63 220.457 L 450.568 220.259 L 451.505 220.061 L 452.908 219.764 L 453.841 219.566 L 454.773 219.368 L 455.703 219.17 L 456.632 218.972 L 458.023 218.674 L 458.948 218.475 L 459.872 218.276 L 460.794 218.077 L 462.175 217.778 L 463.093 217.579 L 464.011 217.38 L 464.926 217.18 L 466.297 216.88 L 467.209 216.68 L 468.12 216.48 L 469.029 216.279 L 470.389 215.979 L 471.295 215.778 L 472.199 215.577 L 473.101 215.376 L 474.452 215.074 L 475.351 214.872 L 476.249 214.67 L 477.592 214.367 L 478.486 214.165 L 479.378 213.962 L 480.714 213.658 L 481.602 213.455 L 482.489 213.252 L 483.818 212.946 L 484.701 212.743 L 485.583 212.539 L 486.904 212.232 L 487.782 212.028 L 488.659 211.823 L 489.972 211.515 L 490.846 211.309 L 491.718 211.104 L 493.023 210.795 L 493.891 210.588 L 494.758 210.382 L 496.056 210.071 L 496.919 209.864 L 498.212 209.553 L 499.072 209.345 L 499.93 209.136 L 501.215 208.823 L 502.07 208.614 L 503.349 208.3 L 504.2 208.091 L 505.474 207.775 L 506.322 207.565 L 507.168 207.354 L 508.435 207.037 L 509.277 206.826 L 510.538 206.508 L 511.378 206.295 L 512.633 205.976 L 513.469 205.763 L 514.719 205.442 L 515.551 205.228 L 516.797 204.906 L 517.625 204.691 L 518.865 204.368 L 519.69 204.152 L 520.924 203.827 L 521.746 203.61 L 522.975 203.284 L 523.793 203.067 L 525.017 202.739 L 525.831 202.52 L 527.05 202.191 L 527.861 201.972 L 529.074 201.641 L 529.881 201.42 L 531.089 201.088 L 532.294 200.755 L 533.096 200.533 L 534.296 200.198 L 535.094 199.975 L 536.288 199.639 L 537.083 199.414 L 538.272 199.076 L 539.458 198.737 L 540.247 198.511 L 541.428 198.17 L 542.606 197.828 L 543.389 197.6 L 544.562 197.257 L 545.342 197.027 L 546.509 196.682 L 547.673 196.336 L 548.448 196.104 L 549.607 195.756 L 550.762 195.407 L 551.531 195.173 L 552.682 194.822 L 553.829 194.469 L 554.974 194.116 L 555.735 193.879 L 556.874 193.524 L 558.011 193.167 L 558.766 192.929 L 559.897 192.57 L 561.025 192.21 L 562.15 191.848 L 562.898 191.607 L 564.018 191.243 L 565.134 190.879 L 566.248 190.513 L 567.358 190.145 L 568.097 189.9 L 569.202 189.53 L 570.304 189.159 L 571.404 188.787 L 572.5 188.414 L 573.229 188.164 L 574.32 187.788 L 575.408 187.411 L 576.492 187.032 L 577.574 186.652 L 578.653 186.271 L 579.729 185.888 L 580.801 185.504 L 581.515 185.247 L 582.582 184.86 L 583.647 184.472 L 584.708 184.082 L 585.767 183.691 L 586.822 183.298 L 587.875 182.904 L 588.924 182.508 L 589.97 182.111 L 591.014 181.712 L 592.054 181.312 L 593.091 180.91 L 594.125 180.506 L 595.157 180.101 L 596.185 179.694 L 597.21 179.286 L 598.232 178.876 L 599.252 178.464 L 600.268 178.051 L 601.281 177.636 L 602.291 177.22 L 603.298 176.801 L 604.303 176.381 L 605.304 175.96 L 606.302 175.536 L 607.629 174.969 L 608.62 174.542 L 609.608 174.113 L 610.594 173.682 L 611.576 173.249 L 612.555 172.815 L 613.857 172.233 L 614.829 171.795 L 615.799 171.354 L 616.766 170.912 L 617.729 170.468 L 619.009 169.873 L 619.966 169.425 L 620.92 168.975 L 621.871 168.523 L 623.134 167.918 L 624.078 167.461 L 625.019 167.003 L 625.958 166.543 L 627.204 165.927 L 628.135 165.462 L 629.064 164.995 L 630.297 164.37 L 631.219 163.899 L 632.443 163.268 L 633.358 162.793 L 634.27 162.315 L 635.481 161.675 L 636.386 161.193 L 637.588 160.546 L 638.487 160.059 L 639.68 159.407 L 640.572 158.915 L 641.756 158.256 L 642.641 157.76 L 643.816 157.094 L 644.695 156.593 L 645.861 155.921 L 646.732 155.415 L 647.89 154.736 L 648.755 154.225 L 649.903 153.54 L 651.047 152.851 L 651.901 152.332 L 653.036 151.636 L 654.165 150.937 L 655.009 150.41 L 656.13 149.704 L 657.246 148.993 L 658.079 148.458 L 659.186 147.741 L 660.288 147.02 L 661.385 146.295 L 662.477 145.566 L 663.292 145.016 L 664.375 144.28 L 665.453 143.54 L 666.526 142.796 L 667.595 142.047 L 668.658 141.295 L 669.716 140.538 L 670.769 139.777 L 671.556 139.204 L 672.6 138.436 L 673.64 137.664 L 674.674 136.887 L 675.961 135.91 L 676.984 135.124 L 678.003 134.334 L 679.016 133.539 L 680.025 132.74 L 681.029 131.937 L 680.995 130.902 L 680.962 129.863 L 680.929 128.817 L 680.896 127.766 L 680.863 126.709 L 680.831 125.647 L 680.798 124.578 L 680.766 123.505 L 680.734 122.425 L 680.703 121.34 L 680.671 120.249 L 680.64 119.152 L 680.609 118.05 L 680.579 116.942 L 684.287 117.495 L 684.032 107.778 L 680.358 108.526 L 676.681 109.266 L 676.491 101.375 L 680.199 101.937 L 683.905 102.507 L 683.669 91.745 L 679.992 92.477 L 676.312 93.201 L 676.138 84.411 L 679.843 84.989 L 683.547 85.572 L 683.425 78.962 L 679.745 79.681 L 676.063 80.394 L 675.902 70.84 L 679.605 71.428 L 683.308 72.023 L 683.156 62.05 L 679.473 62.757 L 675.79 63.459 L 675.685 55.861 L 679.386 56.461 L 683.087 57.065 L 682.987 49.175 L 679.303 49.873 L 675.617 50.565 L 675.493 39.472 L 679.193 40.081 L 682.892 40.696 L 682.808 32.162 L 679.122 32.85 L 675.434 33.533 L 675.357 24.706 L 679.056 25.325 L 682.753 25.948 L 682.684 16.827 L 678.996 17.506 L 678.984 15.818 L 678.973 14.263 L 678.963 12.702 L 678.953 11.134 L 678.943 9.562 L 678.934 7.983 L 678.925 6.398 L 678.916 4.807 L 678.908 3.211 L 678.899 1.608 L 678.891 0 Z" vector-effect="non-scaling-stroke"/><path d="M 509.877 122.975 L 509.919 124.05 L 509.962 125.118 L 510.004 126.182 L 510.047 127.239 L 510.09 128.291 L 510.133 129.338 L 510.176 130.379 L 510.22 131.415 L 510.264 132.445 L 510.309 133.47 L 510.353 134.489 L 510.398 135.503 L 510.444 136.511 L 510.489 137.514 L 510.535 138.511 L 510.581 139.503 L 510.628 140.49 L 510.674 141.471 L 510.721 142.447 L 510.768 143.417 L 510.816 144.382 L 510.864 145.342 L 510.912 146.296 L 510.96 147.246 L 511.009 148.189 L 511.058 149.128 L 511.107 150.061 L 511.157 150.989 L 511.207 151.912 L 511.257 152.829 L 511.308 153.741 L 511.358 154.648 L 511.409 155.55 L 511.461 156.447 L 511.512 157.338 L 511.564 158.224 L 511.617 159.106 L 511.669 159.982 L 511.722 160.853 L 511.775 161.718 L 511.829 162.579 L 511.883 163.435 L 511.937 164.286 L 511.991 165.131 L 512.046 165.972 L 512.101 166.808 L 512.156 167.639 L 512.212 168.464 L 512.268 169.285 L 512.324 170.101 L 512.381 170.913 L 512.438 171.719 L 512.495 172.52 L 512.552 173.317 L 512.61 174.109 L 512.668 174.896 L 512.727 175.678 L 512.785 176.456 L 512.845 177.229 L 512.904 177.997 L 512.964 178.76 L 513.024 179.519 L 513.084 180.274 L 513.145 181.023 L 513.206 181.769 L 513.267 182.509 L 513.329 183.245 L 513.391 183.977 L 513.453 184.704 L 513.516 185.427 L 513.579 186.146 L 513.642 186.86 L 513.705 187.57 L 513.769 188.275 L 513.834 188.976 L 513.898 189.673 L 513.963 190.366 L 514.029 191.055 L 514.094 191.739 L 514.16 192.42 L 514.226 193.096 L 514.293 193.769 L 514.36 194.437 L 514.427 195.101 L 514.495 195.762 L 514.563 196.419 L 514.631 197.071 L 514.7 197.72 L 514.769 198.366 L 514.838 199.007 L 514.908 199.645 L 514.978 200.279 L 515.048 200.91 L 515.119 201.537 L 515.19 202.161 L 515.262 202.781 L 515.334 203.398 L 515.406 204.011 L 515.478 204.621 L 515.551 205.228 M 253.976 212.969 L 254.047 213.467 L 254.117 213.963 L 254.188 214.457 L 254.258 214.949 L 254.328 215.439 L 254.398 215.926 L 254.467 216.412 L 254.537 216.895 L 254.606 217.377 L 254.675 217.856 L 254.744 218.333 L 254.813 218.808 L 254.881 219.282 L 254.95 219.753 L 255.018 220.223 L 255.086 220.69 L 255.154 221.156 L 255.222 221.62 L 255.29 222.081 L 255.358 222.542 L 255.425 223 L 255.492 223.456 L 255.56 223.911 L 255.627 224.364 L 255.694 224.815 L 255.761 225.265 L 255.827 225.713 L 255.894 226.159 L 255.96 226.604 L 256.027 227.047 L 256.093 227.488 L 256.159 227.928 L 256.225 228.366 L 256.291 228.803 L 256.357 229.239 L 256.423 229.673 L 256.489 230.105 L 256.554 230.536 L 256.62 230.966 L 256.686 231.395 L 256.751 231.822 L 256.816 232.248 L 256.882 232.672 L 256.947 233.095 L 257.012 233.518 L 257.077 233.939 L 257.142 234.358 L 257.207 234.777 L 257.272 235.195 L 257.337 235.611 L 257.402 236.027 L 257.467 236.441 L 257.532 236.855 L 257.597 237.267 L 257.662 237.679 L 257.727 238.089 L 257.792 238.499 L 257.857 238.908 L 257.922 239.317 L 257.986 239.724 L 258.051 240.131 L 258.116 240.537 L 258.181 240.943 L 258.246 241.347 L 258.311 241.751 L 258.376 242.155 L 258.441 242.558 L 258.506 242.961 L 258.571 243.363 L 258.636 243.764 L 258.702 244.166 L 258.767 244.567 L 258.832 244.967 L 258.898 245.367 L 258.963 245.767 L 259.029 246.167 L 259.094 246.566 L 259.16 246.966 L 259.226 247.365 L 259.292 247.764 L 259.358 248.163 L 259.424 248.562 L 259.49 248.96 L 259.557 249.359 L 259.623 249.758 L 259.69 250.157 L 259.756 250.556 L 259.823 250.956 L 259.89 251.355 L 259.957 251.755 L 260.024 252.155 L 260.092 252.555 L 260.159 252.956 L 260.227 253.356 L 260.295 253.758 L 260.363 254.159 L 260.431 254.562 L 260.499 254.964 L 260.568 255.367 L 260.636 255.771 M 0 263.685 L 0.066 264.075 L 0.132 264.463 L 0.198 264.85 L 0.264 265.236 L 0.329 265.621 L 0.394 266.004 L 0.46 266.386 L 0.524 266.768 L 0.589 267.148 L 0.654 267.527 L 0.718 267.905 L 0.783 268.282 L 0.847 268.657 L 0.911 269.032 L 0.974 269.406 L 1.038 269.779 L 1.102 270.151 L 1.165 270.522 L 1.228 270.892 L 1.291 271.261 L 1.354 271.629 L 1.417 271.997 L 1.48 272.364 L 1.542 272.729 L 1.605 273.094 L 1.667 273.459 L 1.729 273.822 L 1.791 274.185 L 1.853 274.547 L 1.915 274.909 L 1.977 275.269 L 2.039 275.629 L 2.101 275.989 L 2.162 276.348 L 2.224 276.706 L 2.285 277.064 L 2.346 277.421 L 2.408 277.778 L 2.469 278.135 L 2.53 278.491 L 2.591 278.846 L 2.652 279.201 L 2.713 279.556 L 2.774 279.91 L 2.835 280.264 L 2.895 280.618 L 2.956 280.971 L 3.017 281.324 L 3.078 281.677 L 3.138 282.03 L 3.199 282.382 L 3.26 282.735 L 3.32 283.087 L 3.381 283.439 L 3.441 283.791 L 3.502 284.143 L 3.563 284.495 L 3.623 284.847 L 3.684 285.198 L 3.745 285.55 L 3.805 285.902 L 3.866 286.254 L 3.927 286.606 L 3.987 286.958 L 4.048 287.311 L 4.109 287.663 L 4.17 288.016 L 4.231 288.369 L 4.292 288.722 L 4.353 289.075 L 4.414 289.429 L 4.475 289.783 L 4.536 290.137 L 4.597 290.492 L 4.659 290.847 L 4.72 291.203 L 4.781 291.559 L 4.843 291.915 L 4.905 292.272 L 4.966 292.629 L 5.028 292.987 L 5.09 293.345 L 5.152 293.704 L 5.214 294.064 L 5.276 294.424 L 5.339 294.785 L 5.401 295.146 L 5.464 295.508 L 5.526 295.871 L 5.589 296.235 L 5.652 296.599 L 5.715 296.964 L 5.779 297.33 L 5.842 297.697 L 5.906 298.064 L 5.969 298.432 L 6.033 298.802 L 6.097 299.172 L 6.161 299.543 L 6.225 299.915" id="blue" stroke="blue" style="stroke:blue" vector-effect="non-scaling-stroke"/><g id="captions"><text alignment-baseline="middle" text-anchor="middle" transform="rotate(0,339.834,216.126)" x="339.834" y="216.126">LEE, 1, 1</text></g></g></svg>