<svg width="562.262" height="169.731" viewBox="0 0 562.262 169.731" xmlns="http://www.w3.org/2000/svg"><g id="svgGroup" stroke-linecap="round" fill-rule="evenodd" font-size="9pt" stroke="#000" stroke-width="0.25mm" fill="none" style="stroke:#000;stroke-width:0.25mm;fill:none"><path d="M 557.752 0 L 556.704 1.473 L 555.654 2.928 L 554.604 4.365 L 553.554 5.784 L 552.504 7.186 L 551.454 8.57 L 550.404 9.937 L 549.355 11.287 L 548.306 12.621 L 547.257 13.938 L 546.208 15.239 L 545.159 16.524 L 544.11 17.793 L 543.062 19.047 L 542.013 20.285 L 540.965 21.509 L 539.917 22.717 L 538.869 23.91 L 537.821 25.089 L 536.774 26.254 L 535.726 27.404 L 534.678 28.54 L 533.631 29.663 L 532.584 30.772 L 531.536 31.867 L 530.489 32.949 L 529.442 34.019 L 528.395 35.075 L 527.349 36.118 L 526.302 37.149 L 525.255 38.167 L 524.209 39.173 L 523.162 40.167 L 522.116 41.149 L 521.07 42.119 L 520.023 43.077 L 518.977 44.024 L 517.931 44.96 L 516.885 45.884 L 515.839 46.797 L 514.794 47.699 L 513.748 48.591 L 512.702 49.471 L 511.656 50.342 L 510.611 51.201 L 509.565 52.051 L 508.52 52.89 L 507.474 53.72 L 506.429 54.539 L 505.383 55.349 L 504.338 56.149 L 503.293 56.939 L 502.248 57.72 L 501.203 58.492 L 500.157 59.255 L 499.112 60.008 L 498.067 60.753 L 497.022 61.489 L 495.977 62.216 L 494.932 62.934 L 493.887 63.644 L 492.843 64.345 L 491.798 65.038 L 490.753 65.723 L 489.708 66.4 L 488.663 67.069 L 487.619 67.73 L 486.574 68.383 L 485.529 69.028 L 484.485 69.665 L 483.44 70.296 L 482.395 70.918 L 481.351 71.533 L 480.306 72.141 L 479.262 72.742 L 478.217 73.336 L 477.172 73.922 L 476.128 74.502 L 475.083 75.075 L 474.039 75.641 L 472.994 76.2 L 471.95 76.753 L 470.905 77.299 L 469.861 77.839 L 468.816 78.372 L 467.772 78.9 L 466.727 79.42 L 465.683 79.935 L 464.638 80.444 L 463.594 80.946 L 462.549 81.443 L 461.505 81.934 L 460.461 82.418 L 459.416 82.898 L 458.372 83.371 L 457.327 83.839 L 456.283 84.301 L 455.238 84.758 L 454.194 85.21 L 453.149 85.656 L 452.105 86.097 L 451.06 86.532 L 450.016 86.963 L 448.971 87.388 L 447.927 87.808 L 446.882 88.223 L 445.838 88.634 L 444.793 89.039 L 443.748 89.44 L 442.704 89.836 L 441.659 90.227 L 440.615 90.613 L 439.57 90.995 L 438.525 91.372 L 437.481 91.745 L 436.436 92.113 L 435.392 92.477 L 434.347 92.837 L 433.302 93.192 L 432.257 93.543 L 431.213 93.89 L 430.168 94.232 L 429.123 94.571 L 428.079 94.905 L 427.034 95.236 L 425.989 95.562 L 424.944 95.885 L 423.899 96.203 L 422.854 96.518 L 421.81 96.829 L 420.765 97.136 L 419.72 97.44 L 418.675 97.74 L 417.63 98.036 L 416.585 98.328 L 415.54 98.618 L 414.495 98.903 L 413.45 99.185 L 412.405 99.464 L 411.36 99.739 L 410.315 100.011 L 409.27 100.279 L 408.225 100.544 L 407.18 100.806 L 406.135 101.065 L 405.089 101.321 L 404.044 101.573 L 402.999 101.823 L 401.954 102.069 L 400.909 102.312 L 399.863 102.552 L 398.818 102.79 L 397.773 103.024 L 396.728 103.255 L 395.682 103.484 L 394.637 103.709 L 393.591 103.932 L 392.546 104.152 L 391.501 104.37 L 390.455 104.584 L 389.41 104.796 L 388.364 105.005 L 387.319 105.212 L 386.273 105.416 L 385.228 105.618 L 384.182 105.816 L 383.137 106.013 L 382.091 106.207 L 381.045 106.398 L 380 106.587 L 378.954 106.774 L 377.908 106.958 L 376.863 107.14 L 375.817 107.319 L 374.771 107.496 L 373.725 107.671 L 372.68 107.844 L 371.634 108.014 L 370.588 108.183 L 369.542 108.349 L 368.496 108.513 L 367.45 108.674 L 366.405 108.834 L 365.359 108.992 L 364.313 109.147 L 363.267 109.301 L 362.221 109.452 L 361.175 109.602 L 360.129 109.749 L 359.083 109.895 L 358.037 110.038 L 356.991 110.18 L 355.944 110.32 L 354.898 110.458 L 353.852 110.594 L 352.806 110.728 L 351.76 110.86 L 350.714 110.991 L 349.667 111.12 L 348.621 111.247 L 347.575 111.373 L 346.529 111.497 L 345.482 111.619 L 344.436 111.739 L 343.39 111.858 L 342.343 111.975 L 341.297 112.09 L 340.251 112.204 L 339.204 112.317 L 338.158 112.428 L 337.112 112.537 L 336.065 112.645 L 335.019 112.751 L 333.972 112.856 L 332.926 112.959 L 331.879 113.061 L 330.833 113.161 L 329.786 113.26 L 328.74 113.358 L 327.693 113.454 L 326.646 113.549 L 325.6 113.642 L 324.553 113.734 L 323.507 113.825 L 322.46 113.915 L 321.413 114.003 L 320.367 114.09 L 319.32 114.175 L 318.273 114.26 L 317.226 114.343 L 316.18 114.425 L 315.133 114.506 L 314.086 114.585 L 313.039 114.664 L 311.993 114.741 L 310.946 114.817 L 309.899 114.892 L 308.852 114.966 L 307.805 115.039 L 306.758 115.11 L 305.712 115.181 L 304.665 115.25 L 303.618 115.319 L 302.571 115.386 L 301.524 115.453 L 300.477 115.518 L 299.43 115.582 L 298.383 115.646 L 297.336 115.708 L 296.289 115.77 L 295.242 115.83 L 294.195 115.89 L 293.148 115.948 L 292.101 116.006 L 291.054 116.063 L 290.007 116.119 L 288.96 116.174 L 287.913 116.228 L 286.866 116.281 L 285.819 116.334 L 284.771 116.385 L 283.724 116.436 L 282.677 116.486 L 281.63 116.535 L 280.583 116.584 L 279.536 116.631 L 278.489 116.678 L 277.441 116.724 L 276.394 116.77 L 275.347 116.814 L 274.3 116.858 L 273.253 116.901 L 272.205 116.944 L 271.158 116.985 L 270.111 117.026 L 269.064 117.067 L 268.017 117.106 L 266.969 117.145 L 265.922 117.184 L 264.875 117.222 L 263.827 117.259 L 262.78 117.295 L 261.733 117.331 L 260.686 117.366 L 259.638 117.401 L 258.591 117.435 L 257.544 117.469 L 256.496 117.502 L 255.449 117.534 L 254.402 117.566 L 253.354 117.597 L 252.307 117.628 L 251.26 117.658 L 250.212 117.688 L 249.165 117.717 L 248.118 117.746 L 247.07 117.774 L 246.023 117.802 L 244.975 117.829 L 243.928 117.856 L 242.881 117.882 L 241.833 117.908 L 240.786 117.934 L 239.738 117.959 L 238.691 117.983 L 237.644 118.007 L 236.596 118.031 L 235.549 118.055 L 234.501 118.078 L 233.454 118.1 L 232.406 118.122 L 231.359 118.144 L 230.312 118.166 L 229.264 118.187 L 228.217 118.207 L 227.169 118.228 L 226.122 118.248 L 225.074 118.268 L 224.027 118.287 L 222.979 118.306 L 221.932 118.325 L 220.885 118.343 L 219.837 118.362 L 218.79 118.379 L 217.742 118.397 L 216.695 118.414 L 215.647 118.431 L 214.6 118.448 L 213.552 118.465 L 212.505 118.481 L 211.457 118.497 L 210.41 118.513 L 209.362 118.528 L 208.315 118.544 L 207.268 118.559 L 206.22 118.574 L 205.173 118.588 L 204.125 118.603 L 203.078 118.617 L 202.03 118.631 L 200.983 118.645 L 199.935 118.659 L 198.888 118.673 L 197.84 118.686 L 196.793 118.699 L 195.745 118.712 L 194.698 118.725 L 193.651 118.738 L 192.603 118.751 L 191.556 118.763 L 190.508 118.776 L 189.461 118.788 L 188.413 118.8 L 187.366 118.812 L 186.318 118.824 L 185.271 118.836 L 184.224 118.847 L 183.176 118.859 L 182.129 118.871 L 181.081 118.882 L 180.034 118.894 L 178.986 118.905 L 177.939 118.916 L 176.892 118.927 L 175.844 118.938 L 174.797 118.95 L 173.749 118.961 L 172.702 118.972 L 171.655 118.983 L 170.607 118.993 L 169.56 119.004 L 168.512 119.015 L 167.465 119.026 L 166.418 119.037 L 165.37 119.048 L 164.323 119.059 L 163.276 119.069 L 162.228 119.08 L 161.181 119.091 L 160.133 119.102 L 159.086 119.113 L 158.039 119.124 L 156.991 119.135 L 155.944 119.146 L 154.897 119.157 L 153.849 119.168 L 152.802 119.179 L 151.755 119.19 L 150.708 119.201 L 149.66 119.212 L 148.613 119.223 L 147.566 119.235 L 146.518 119.246 L 145.471 119.258 L 144.424 119.269 L 143.377 119.281 L 142.329 119.293 L 141.282 119.304 L 140.235 119.316 L 139.188 119.328 L 138.141 119.34 L 137.093 119.352 L 136.046 119.365 L 134.999 119.377 L 133.952 119.39 L 132.905 119.402 L 131.857 119.415 L 130.81 119.428 L 129.763 119.441 L 128.716 119.454 L 127.669 119.467 L 126.622 119.481 L 125.574 119.494 L 124.527 119.508 L 123.48 119.522 L 122.433 119.536 L 121.386 119.55 L 120.339 119.564 L 119.292 119.579 L 118.245 119.593 L 117.198 119.608 L 116.151 119.623 L 115.104 119.638 L 114.057 119.653 L 113.01 119.669 L 111.963 119.684 L 110.916 119.7 L 109.869 119.716 L 108.822 119.733 L 107.775 119.749 L 106.728 119.766 L 105.681 119.782 L 104.634 119.799 L 103.587 119.817 L 102.54 119.834 L 101.493 119.852 L 100.446 119.87 L 99.399 119.888 L 98.352 119.906 L 97.305 119.925 L 96.259 119.943 L 95.212 119.962 L 94.165 119.982 L 93.118 120.001 L 92.071 120.021 L 91.024 120.041 L 89.978 120.061 L 88.931 120.081 L 87.884 120.102 L 86.837 120.123 L 85.791 120.144 L 84.744 120.165 L 83.697 120.187 L 82.65 120.209 L 81.604 120.231 L 80.557 120.254 L 79.51 120.276 L 78.464 120.299 L 77.417 120.323 L 76.37 120.346 L 75.324 120.37 L 74.277 120.394 L 73.23 120.419 L 72.184 120.443 L 71.137 120.468 L 70.091 120.493 L 69.044 120.519 L 67.997 120.545 L 66.951 120.571 L 65.904 120.597 L 64.858 120.624 L 63.811 120.651 L 62.765 120.679 L 61.718 120.706 L 60.672 120.734 L 59.625 120.762 L 58.579 120.791 L 57.533 120.82 L 56.486 120.849 L 55.44 120.879 L 54.393 120.908 L 53.347 120.939 L 52.301 120.969 L 51.254 121 L 50.208 121.031 L 49.162 121.063 L 48.115 121.094 L 47.069 121.127 L 46.023 121.159 L 44.976 121.192 L 43.93 121.225 L 42.884 121.258 L 41.838 121.292 L 40.791 121.327 L 39.745 121.361 L 38.699 121.396 L 37.653 121.431 L 36.607 121.467 L 35.561 121.503 L 34.514 121.539 L 33.468 121.576 L 32.422 121.613 L 31.376 121.65 L 30.33 121.688 L 29.284 121.726 L 28.238 121.764 L 27.192 121.803 L 26.146 121.842 L 25.1 121.882 L 24.054 121.922 L 23.008 121.962 L 21.962 122.003 L 20.916 122.044 L 19.87 122.085 L 18.824 122.127 L 17.778 122.169 L 16.732 122.212 L 15.686 122.255 L 14.64 122.298 L 13.595 122.342 L 12.549 122.386 L 11.503 122.431 L 10.457 122.475 L 9.411 122.521 L 8.366 122.566 L 7.32 122.613 L 6.274 122.659 L 5.228 122.706 L 4.183 122.753 L 3.137 122.801 L 2.091 122.849 L 1.046 122.897 L 0 122.946 L 1.7 169.731 L 2.745 169.667 L 3.79 169.604 L 4.835 169.541 L 5.88 169.48 L 6.925 169.419 L 7.97 169.359 L 9.015 169.3 L 10.06 169.242 L 11.105 169.185 L 12.151 169.128 L 13.196 169.073 L 14.241 169.018 L 15.287 168.964 L 16.332 168.91 L 17.377 168.858 L 18.423 168.806 L 19.468 168.756 L 20.514 168.706 L 21.559 168.656 L 22.605 168.608 L 23.65 168.56 L 24.696 168.513 L 25.741 168.467 L 26.787 168.422 L 27.833 168.378 L 28.878 168.334 L 29.924 168.291 L 30.97 168.248 L 32.016 168.207 L 33.061 168.166 L 34.107 168.126 L 35.153 168.087 L 36.199 168.048 L 37.245 168.01 L 38.291 167.973 L 39.337 167.936 L 40.383 167.901 L 41.429 167.866 L 42.475 167.831 L 43.521 167.798 L 44.567 167.765 L 45.613 167.732 L 46.659 167.701 L 47.706 167.67 L 48.752 167.64 L 49.798 167.61 L 50.844 167.581 L 51.891 167.553 L 52.937 167.525 L 53.983 167.498 L 55.03 167.472 L 56.076 167.446 L 57.122 167.421 L 58.169 167.397 L 59.215 167.373 L 60.262 167.35 L 61.308 167.327 L 62.355 167.305 L 63.401 167.283 L 64.448 167.263 L 65.494 167.242 L 66.541 167.223 L 67.588 167.204 L 68.634 167.185 L 69.681 167.167 L 70.728 167.15 L 71.774 167.133 L 72.821 167.117 L 73.868 167.101 L 74.915 167.086 L 75.962 167.071 L 77.008 167.057 L 78.055 167.044 L 79.102 167.031 L 80.149 167.018 L 81.196 167.006 L 82.243 166.994 L 83.29 166.983 L 84.337 166.973 L 85.384 166.963 L 86.431 166.953 L 87.478 166.944 L 88.525 166.936 L 89.572 166.927 L 90.619 166.92 L 91.666 166.912 L 92.713 166.906 L 93.76 166.899 L 94.807 166.893 L 95.855 166.888 L 96.902 166.883 L 97.949 166.878 L 98.996 166.874 L 100.043 166.87 L 101.091 166.867 L 102.138 166.864 L 103.185 166.861 L 104.233 166.859 L 105.28 166.857 L 106.327 166.856 L 107.375 166.855 L 108.422 166.854 L 109.469 166.853 L 110.517 166.853 L 111.564 166.854 L 112.612 166.854 L 113.659 166.855 L 114.706 166.857 L 115.754 166.858 L 116.801 166.86 L 117.849 166.863 L 118.896 166.865 L 119.944 166.868 L 120.991 166.871 L 122.039 166.875 L 123.087 166.878 L 124.134 166.882 L 125.182 166.887 L 126.229 166.891 L 127.277 166.896 L 128.324 166.901 L 129.372 166.906 L 130.42 166.912 L 131.467 166.918 L 132.515 166.924 L 133.563 166.93 L 134.61 166.936 L 135.658 166.943 L 136.706 166.95 L 137.754 166.957 L 138.801 166.964 L 139.849 166.971 L 140.897 166.979 L 141.944 166.987 L 142.992 166.995 L 144.04 167.003 L 145.088 167.011 L 146.136 167.019 L 147.183 167.028 L 148.231 167.037 L 149.279 167.045 L 150.327 167.054 L 151.375 167.063 L 152.422 167.072 L 153.47 167.082 L 154.518 167.091 L 155.566 167.1 L 156.614 167.11 L 157.662 167.119 L 158.709 167.129 L 159.757 167.139 L 160.805 167.149 L 161.853 167.158 L 162.901 167.168 L 163.949 167.178 L 164.997 167.188 L 166.045 167.198 L 167.093 167.208 L 168.141 167.218 L 169.188 167.228 L 170.236 167.238 L 171.284 167.248 L 172.332 167.258 L 173.38 167.268 L 174.428 167.278 L 175.476 167.288 L 176.524 167.298 L 177.572 167.307 L 178.62 167.317 L 179.668 167.327 L 180.716 167.336 L 181.764 167.346 L 182.812 167.355 L 183.86 167.365 L 184.908 167.374 L 185.955 167.383 L 187.003 167.392 L 188.051 167.401 L 189.099 167.41 L 190.147 167.419 L 191.195 167.427 L 192.243 167.436 L 193.291 167.444 L 194.339 167.452 L 195.387 167.46 L 196.435 167.468 L 197.483 167.475 L 198.531 167.483 L 199.579 167.49 L 200.627 167.497 L 201.675 167.504 L 202.723 167.511 L 203.771 167.517 L 204.818 167.523 L 205.866 167.529 L 206.914 167.535 L 207.962 167.54 L 209.01 167.545 L 210.058 167.55 L 211.106 167.555 L 212.154 167.559 L 213.202 167.563 L 214.25 167.567 L 215.298 167.57 L 216.345 167.574 L 217.393 167.576 L 218.441 167.579 L 219.489 167.581 L 220.537 167.583 L 221.585 167.584 L 222.633 167.586 L 223.681 167.586 L 224.728 167.587 L 225.776 167.587 L 226.824 167.587 L 227.872 167.586 L 228.92 167.585 L 229.967 167.583 L 231.015 167.581 L 232.063 167.579 L 233.111 167.576 L 234.159 167.573 L 235.206 167.569 L 236.254 167.565 L 237.302 167.56 L 238.35 167.555 L 239.397 167.55 L 240.445 167.544 L 241.493 167.537 L 242.54 167.53 L 243.588 167.523 L 244.636 167.515 L 245.683 167.506 L 246.731 167.497 L 247.779 167.488 L 248.826 167.477 L 249.874 167.467 L 250.921 167.455 L 251.969 167.443 L 253.017 167.431 L 254.064 167.418 L 255.112 167.404 L 256.159 167.39 L 257.207 167.375 L 258.254 167.36 L 259.302 167.344 L 260.349 167.327 L 261.397 167.309 L 262.444 167.291 L 263.492 167.273 L 264.539 167.253 L 265.587 167.233 L 266.634 167.212 L 267.681 167.191 L 268.729 167.168 L 269.776 167.146 L 270.823 167.122 L 271.871 167.097 L 272.918 167.072 L 273.965 167.046 L 275.012 167.02 L 276.06 166.992 L 277.107 166.964 L 278.154 166.935 L 279.201 166.905 L 280.249 166.875 L 281.296 166.843 L 282.343 166.811 L 283.39 166.778 L 284.437 166.744 L 285.484 166.709 L 286.531 166.673 L 287.578 166.637 L 288.625 166.599 L 289.672 166.561 L 290.719 166.522 L 291.766 166.482 L 292.813 166.441 L 293.86 166.399 L 294.907 166.356 L 295.954 166.312 L 297.001 166.267 L 298.048 166.221 L 299.094 166.174 L 300.141 166.126 L 301.188 166.077 L 302.235 166.027 L 303.281 165.977 L 304.328 165.925 L 305.375 165.872 L 306.422 165.818 L 307.468 165.762 L 308.515 165.706 L 309.561 165.649 L 310.608 165.59 L 311.654 165.531 L 312.701 165.47 L 313.747 165.409 L 314.794 165.346 L 315.84 165.282 L 316.887 165.216 L 317.933 165.15 L 318.979 165.082 L 320.026 165.013 L 321.072 164.943 L 322.118 164.872 L 323.165 164.8 L 324.211 164.726 L 325.257 164.651 L 326.303 164.575 L 327.349 164.497 L 328.395 164.418 L 329.442 164.338 L 330.488 164.257 L 331.534 164.174 L 332.58 164.09 L 333.626 164.004 L 334.672 163.917 L 335.717 163.829 L 336.763 163.739 L 337.809 163.648 L 338.855 163.556 L 339.901 163.462 L 340.947 163.366 L 341.992 163.269 L 343.038 163.171 L 344.084 163.071 L 345.129 162.97 L 346.175 162.867 L 347.22 162.763 L 348.266 162.657 L 349.311 162.549 L 350.357 162.44 L 351.402 162.329 L 352.448 162.217 L 353.493 162.103 L 354.539 161.988 L 355.584 161.871 L 356.629 161.752 L 357.674 161.632 L 358.72 161.509 L 359.765 161.386 L 360.81 161.26 L 361.855 161.133 L 362.9 161.004 L 363.945 160.873 L 364.99 160.74 L 366.035 160.606 L 367.08 160.47 L 368.125 160.332 L 369.17 160.192 L 370.215 160.05 L 371.259 159.907 L 372.304 159.761 L 373.349 159.614 L 374.394 159.465 L 375.438 159.313 L 376.483 159.16 L 377.527 159.005 L 378.572 158.848 L 379.616 158.689 L 380.661 158.528 L 381.705 158.364 L 382.75 158.199 L 383.794 158.032 L 384.838 157.862 L 385.883 157.691 L 386.927 157.517 L 387.971 157.341 L 389.015 157.163 L 390.059 156.983 L 391.103 156.8 L 392.147 156.616 L 393.191 156.429 L 394.235 156.239 L 395.279 156.048 L 396.323 155.854 L 397.367 155.658 L 398.411 155.459 L 399.455 155.259 L 400.498 155.055 L 401.542 154.85 L 402.586 154.642 L 403.629 154.431 L 404.673 154.218 L 405.716 154.003 L 406.76 153.785 L 407.803 153.564 L 408.847 153.341 L 409.89 153.115 L 410.933 152.887 L 411.977 152.656 L 413.02 152.422 L 414.063 152.186 L 415.106 151.947 L 416.15 151.706 L 417.193 151.461 L 418.236 151.214 L 419.279 150.964 L 420.322 150.711 L 421.365 150.455 L 422.408 150.197 L 423.45 149.936 L 424.493 149.671 L 425.536 149.404 L 426.579 149.134 L 427.622 148.86 L 428.664 148.584 L 429.707 148.305 L 430.75 148.023 L 431.792 147.737 L 432.835 147.448 L 433.877 147.157 L 434.92 146.862 L 435.962 146.564 L 437.004 146.262 L 438.047 145.957 L 439.089 145.649 L 440.131 145.338 L 441.174 145.023 L 442.216 144.705 L 443.258 144.384 L 444.3 144.059 L 445.342 143.731 L 446.384 143.399 L 447.426 143.063 L 448.468 142.724 L 449.51 142.382 L 450.552 142.035 L 451.594 141.686 L 452.636 141.332 L 453.678 140.975 L 454.72 140.613 L 455.761 140.249 L 456.803 139.88 L 457.845 139.507 L 458.887 139.131 L 459.928 138.75 L 460.97 138.366 L 462.012 137.977 L 463.053 137.585 L 464.095 137.188 L 465.136 136.788 L 466.178 136.383 L 467.219 135.974 L 468.261 135.561 L 469.302 135.143 L 470.344 134.721 L 471.385 134.295 L 472.426 133.865 L 473.468 133.43 L 474.509 132.99 L 475.55 132.547 L 476.592 132.098 L 477.633 131.645 L 478.674 131.187 L 479.715 130.725 L 480.757 130.258 L 481.798 129.786 L 482.839 129.31 L 483.88 128.828 L 484.921 128.342 L 485.963 127.851 L 487.004 127.355 L 488.045 126.854 L 489.086 126.347 L 490.127 125.836 L 491.168 125.32 L 492.209 124.798 L 493.251 124.271 L 494.292 123.739 L 495.333 123.201 L 496.374 122.658 L 497.415 122.11 L 498.456 121.556 L 499.497 120.997 L 500.538 120.432 L 501.579 119.861 L 502.621 119.285 L 503.662 118.703 L 504.703 118.115 L 505.744 117.521 L 506.785 116.922 L 507.826 116.316 L 508.868 115.704 L 509.909 115.087 L 510.95 114.463 L 511.991 113.833 L 513.032 113.197 L 514.074 112.554 L 515.115 111.906 L 516.156 111.25 L 517.198 110.589 L 518.239 109.92 L 519.28 109.246 L 520.322 108.564 L 521.363 107.876 L 522.405 107.181 L 523.446 106.479 L 524.488 105.77 L 525.529 105.055 L 526.571 104.332 L 527.613 103.602 L 528.654 102.865 L 529.696 102.121 L 530.738 101.369 L 531.78 100.611 L 532.821 99.844 L 533.863 99.07 L 534.905 98.289 L 535.947 97.5 L 536.989 96.703 L 538.031 95.898 L 539.074 95.086 L 540.116 94.265 L 541.158 93.437 L 542.201 92.6 L 543.243 91.756 L 544.285 90.903 L 545.328 90.041 L 546.371 89.171 L 547.413 88.293 L 548.456 87.406 L 549.499 86.511 L 550.542 85.606 L 551.585 84.693 L 552.628 83.771 L 553.671 82.84 L 554.714 81.899 L 555.757 80.95 L 556.801 79.991 L 557.844 79.023 L 558.888 78.045 L 558.886 77.975 L 558.885 77.905 L 558.883 77.835 L 558.882 77.764 L 558.88 77.694 L 558.879 77.624 L 558.877 77.554 L 558.875 77.483 L 558.874 77.413 L 558.872 77.343 L 558.871 77.272 L 558.869 77.202 L 558.868 77.131 L 558.866 77.061 L 558.865 76.991 L 558.863 76.92 L 558.862 76.85 L 558.86 76.779 L 558.859 76.709 L 558.857 76.638 L 558.856 76.568 L 558.854 76.497 L 558.853 76.427 L 558.851 76.356 L 558.85 76.286 L 558.848 76.215 L 558.847 76.144 L 558.845 76.074 L 558.843 76.003 L 558.842 75.932 L 558.84 75.862 L 558.839 75.791 L 558.837 75.72 L 558.836 75.65 L 558.834 75.579 L 558.833 75.508 L 558.831 75.437 L 558.83 75.367 L 558.828 75.296 L 558.827 75.225 L 558.825 75.154 L 558.824 75.083 L 558.822 75.013 L 558.821 74.942 L 558.819 74.871 L 558.818 74.8 L 558.816 74.729 L 558.815 74.658 L 558.813 74.587 L 558.812 74.516 L 558.81 74.445 L 558.809 74.374 L 558.807 74.303 L 558.806 74.232 L 558.804 74.161 L 558.803 74.09 L 558.801 74.019 L 558.8 73.948 L 558.798 73.877 L 558.797 73.806 L 558.795 73.734 L 558.794 73.663 L 558.792 73.592 L 558.791 73.521 L 558.79 73.45 L 558.788 73.378 L 558.787 73.307 L 558.785 73.236 L 558.784 73.165 L 558.782 73.093 L 558.781 73.022 L 558.779 72.951 L 558.778 72.879 L 558.776 72.808 L 558.775 72.737 L 558.773 72.665 L 558.772 72.594 L 558.77 72.523 L 558.769 72.451 L 558.767 72.38 L 558.766 72.308 L 558.764 72.237 L 558.763 72.165 L 558.761 72.094 L 558.76 72.022 L 558.759 71.951 L 558.757 71.879 L 558.756 71.808 L 558.754 71.736 L 558.753 71.664 L 558.751 71.593 L 558.75 71.521 L 558.748 71.449 L 558.747 71.378 L 558.745 71.306 L 558.744 71.234 L 558.742 71.163 L 558.741 71.091 L 558.74 71.019 L 558.738 70.948 L 558.737 70.876 L 558.735 70.804 L 558.734 70.732 L 558.732 70.66 L 558.731 70.588 L 558.729 70.517 L 558.728 70.445 L 558.726 70.373 L 558.725 70.301 L 558.724 70.229 L 558.722 70.157 L 558.721 70.085 L 558.719 70.013 L 558.718 69.941 L 558.716 69.869 L 558.715 69.797 L 558.713 69.725 L 558.712 69.653 L 558.711 69.581 L 558.709 69.509 L 558.708 69.437 L 558.706 69.365 L 558.705 69.293 L 558.703 69.221 L 558.702 69.148 L 558.701 69.076 L 558.699 69.004 L 558.698 68.932 L 558.696 68.86 L 558.695 68.787 L 558.693 68.715 L 558.692 68.643 L 558.691 68.571 L 558.689 68.498 L 558.688 68.426 L 558.686 68.354 L 558.685 68.281 L 558.683 68.209 L 558.682 68.137 L 558.681 68.064 L 558.679 67.992 L 558.678 67.919 L 558.676 67.847 L 558.675 67.775 L 558.673 67.702 L 558.672 67.63 L 558.671 67.557 L 558.669 67.485 L 558.668 67.412 L 558.666 67.34 L 558.665 67.267 L 558.664 67.194 L 558.662 67.122 L 558.661 67.049 L 558.659 66.977 L 558.658 66.904 L 558.656 66.831 L 558.655 66.759 L 558.654 66.686 L 558.652 66.613 L 558.651 66.54 L 558.649 66.468 L 558.648 66.395 L 558.647 66.322 L 558.645 66.249 L 558.644 66.177 L 558.642 66.104 L 558.641 66.031 L 558.64 65.958 L 558.638 65.885 L 558.637 65.812 L 558.635 65.74 L 558.634 65.667 L 558.633 65.594 L 558.631 65.521 L 558.63 65.448 L 558.629 65.375 L 558.627 65.302 L 558.626 65.229 L 558.624 65.156 L 558.623 65.083 L 558.622 65.01 L 558.62 64.937 L 558.619 64.864 L 558.617 64.79 L 558.616 64.717 L 558.615 64.644 L 558.613 64.571 L 558.612 64.498 L 558.61 64.425 L 558.609 64.352 L 558.608 64.278 L 558.606 64.205 L 558.605 64.132 L 558.604 64.059 L 558.602 63.985 L 558.601 63.912 L 558.599 63.839 L 558.598 63.765 L 558.597 63.692 L 558.595 63.619 L 558.594 63.545 L 558.593 63.472 L 558.591 63.399 L 558.59 63.325 L 558.589 63.252 L 558.587 63.178 L 558.586 63.105 L 558.584 63.031 L 558.583 62.958 L 558.582 62.884 L 558.58 62.811 L 558.579 62.737 L 558.578 62.664 L 558.576 62.59 L 558.575 62.517 L 558.574 62.443 L 558.572 62.369 L 558.571 62.296 L 558.569 62.222 L 558.568 62.148 L 558.567 62.075 L 558.565 62.001 L 558.564 61.927 L 558.563 61.853 L 558.561 61.78 L 558.56 61.706 L 558.559 61.632 L 558.558 61.595 L 562.262 62.182 L 562.106 53.308 L 558.425 54.024 L 554.743 54.734 L 554.602 45.999 L 558.305 46.59 L 562.008 47.187 L 561.879 38.459 L 558.196 39.165 L 554.512 39.867 L 554.391 31.005 L 558.093 31.606 L 561.794 32.211 L 561.684 23.387 L 557.999 24.084 L 554.314 24.777 L 554.215 16.007 L 557.915 16.616 L 557.913 16.488 L 557.912 16.405 L 557.912 16.322 L 557.911 16.239 L 557.91 16.156 L 557.909 16.073 L 557.908 15.99 L 557.907 15.907 L 557.906 15.824 L 557.905 15.741 L 557.904 15.657 L 557.904 15.574 L 557.903 15.491 L 557.902 15.408 L 557.901 15.325 L 557.9 15.242 L 557.899 15.158 L 557.898 15.075 L 557.897 14.992 L 557.896 14.908 L 557.896 14.825 L 557.895 14.742 L 557.894 14.659 L 557.893 14.575 L 557.892 14.492 L 557.891 14.408 L 557.89 14.325 L 557.889 14.242 L 557.889 14.158 L 557.888 14.075 L 557.887 13.991 L 557.886 13.908 L 557.885 13.824 L 557.884 13.741 L 557.883 13.657 L 557.882 13.574 L 557.882 13.49 L 557.881 13.407 L 557.88 13.323 L 557.879 13.239 L 557.878 13.156 L 557.877 13.072 L 557.876 12.989 L 557.875 12.905 L 557.875 12.821 L 557.874 12.737 L 557.873 12.654 L 557.872 12.57 L 557.871 12.486 L 557.87 12.403 L 557.869 12.319 L 557.869 12.235 L 557.868 12.151 L 557.867 12.067 L 557.866 11.983 L 557.865 11.9 L 557.864 11.816 L 557.863 11.732 L 557.863 11.648 L 557.862 11.564 L 557.861 11.48 L 557.86 11.396 L 557.859 11.312 L 557.858 11.228 L 557.857 11.144 L 557.857 11.06 L 557.856 10.976 L 557.855 10.892 L 557.854 10.808 L 557.853 10.724 L 557.852 10.64 L 557.852 10.556 L 557.851 10.471 L 557.85 10.387 L 557.849 10.303 L 557.848 10.219 L 557.847 10.135 L 557.846 10.051 L 557.846 9.966 L 557.845 9.882 L 557.844 9.798 L 557.843 9.714 L 557.842 9.629 L 557.841 9.545 L 557.841 9.461 L 557.84 9.376 L 557.839 9.292 L 557.838 9.208 L 557.837 9.123 L 557.836 9.039 L 557.836 8.954 L 557.835 8.87 L 557.834 8.785 L 557.833 8.701 L 557.832 8.616 L 557.831 8.532 L 557.831 8.447 L 557.83 8.363 L 557.829 8.278 L 557.828 8.194 L 557.827 8.109 L 557.827 8.025 L 557.826 7.94 L 557.825 7.855 L 557.824 7.771 L 557.823 7.686 L 557.822 7.601 L 557.822 7.517 L 557.821 7.432 L 557.82 7.347 L 557.819 7.262 L 557.818 7.178 L 557.818 7.093 L 557.817 7.008 L 557.816 6.923 L 557.815 6.838 L 557.814 6.754 L 557.813 6.669 L 557.813 6.584 L 557.812 6.499 L 557.811 6.414 L 557.81 6.329 L 557.809 6.244 L 557.809 6.159 L 557.808 6.074 L 557.807 5.989 L 557.806 5.904 L 557.805 5.819 L 557.805 5.734 L 557.804 5.649 L 557.803 5.564 L 557.802 5.479 L 557.801 5.394 L 557.801 5.309 L 557.8 5.224 L 557.799 5.139 L 557.798 5.053 L 557.797 4.968 L 557.797 4.883 L 557.796 4.798 L 557.795 4.713 L 557.794 4.627 L 557.793 4.542 L 557.793 4.457 L 557.792 4.371 L 557.791 4.286 L 557.79 4.201 L 557.789 4.115 L 557.789 4.03 L 557.788 3.945 L 557.787 3.859 L 557.786 3.774 L 557.786 3.688 L 557.785 3.603 L 557.784 3.518 L 557.783 3.432 L 557.782 3.347 L 557.782 3.261 L 557.781 3.176 L 557.78 3.09 L 557.779 3.005 L 557.778 2.919 L 557.778 2.833 L 557.777 2.748 L 557.776 2.662 L 557.775 2.577 L 557.775 2.491 L 557.774 2.405 L 557.773 2.32 L 557.772 2.234 L 557.771 2.148 L 557.771 2.062 L 557.77 1.977 L 557.769 1.891 L 557.768 1.805 L 557.768 1.719 L 557.767 1.633 L 557.766 1.548 L 557.765 1.462 L 557.765 1.376 L 557.764 1.29 L 557.763 1.204 L 557.762 1.118 L 557.762 1.032 L 557.761 0.946 L 557.76 0.86 L 557.759 0.774 L 557.758 0.688 L 557.758 0.602 L 557.757 0.516 L 557.756 0.43 L 557.755 0.344 L 557.755 0.258 L 557.754 0.172 L 557.753 0.086 L 557.752 0 Z" vector-effect="non-scaling-stroke"/><path d="M 516.885 45.884 L 516.886 45.955 L 516.887 46.025 L 516.889 46.096 L 516.89 46.167 L 516.891 46.237 L 516.892 46.308 L 516.893 46.379 L 516.894 46.449 L 516.895 46.52 L 516.896 46.591 L 516.897 46.661 L 516.898 46.732 L 516.899 46.803 L 516.9 46.873 L 516.901 46.944 L 516.903 47.014 L 516.904 47.085 L 516.905 47.155 L 516.906 47.226 L 516.907 47.296 L 516.908 47.367 L 516.909 47.437 L 516.91 47.508 L 516.911 47.578 L 516.912 47.649 L 516.913 47.719 L 516.914 47.789 L 516.916 47.86 L 516.917 47.93 L 516.918 48.001 L 516.919 48.071 L 516.92 48.141 L 516.921 48.212 L 516.922 48.282 L 516.923 48.352 L 516.924 48.422 L 516.925 48.493 L 516.926 48.563 L 516.928 48.633 L 516.929 48.703 L 516.93 48.774 L 516.931 48.844 L 516.932 48.914 L 516.933 48.984 L 516.934 49.054 L 516.935 49.125 L 516.936 49.195 L 516.937 49.265 L 516.938 49.335 L 516.94 49.405 L 516.941 49.475 L 516.942 49.545 L 516.943 49.615 L 516.944 49.685 L 516.945 49.755 L 516.946 49.825 L 516.947 49.895 L 516.948 49.965 L 516.949 50.035 L 516.951 50.105 L 516.952 50.175 L 516.953 50.245 L 516.954 50.315 L 516.955 50.385 L 516.956 50.455 L 516.957 50.525 L 516.958 50.594 L 516.959 50.664 L 516.961 50.734 L 516.962 50.804 L 516.963 50.874 L 516.964 50.944 L 516.965 51.013 L 516.966 51.083 L 516.967 51.153 L 516.968 51.223 L 516.969 51.292 L 516.971 51.362 L 516.972 51.432 L 516.973 51.501 L 516.974 51.571 L 516.975 51.641 L 516.976 51.71 L 516.977 51.78 L 516.978 51.85 L 516.979 51.919 L 516.981 51.989 L 516.982 52.058 L 516.983 52.128 L 516.984 52.198 L 516.985 52.267 L 516.986 52.337 L 516.987 52.406 L 516.988 52.476 L 516.99 52.545 L 516.991 52.615 L 516.992 52.684 L 516.993 52.754 L 516.994 52.823 L 516.995 52.892 L 516.996 52.962 L 516.997 53.031 L 516.999 53.101 L 517 53.17 L 517.001 53.239 L 517.002 53.309 L 517.003 53.378 L 517.004 53.447 L 517.005 53.517 L 517.006 53.586 L 517.008 53.655 L 517.009 53.724 L 517.01 53.794 L 517.011 53.863 L 517.012 53.932 L 517.013 54.001 L 517.014 54.07 L 517.016 54.14 L 517.017 54.209 L 517.018 54.278 L 517.019 54.347 L 517.02 54.416 L 517.021 54.485 L 517.022 54.554 L 517.023 54.624 L 517.025 54.693 L 517.026 54.762 L 517.027 54.831 L 517.028 54.9 L 517.029 54.969 L 517.03 55.038 L 517.031 55.107 L 517.033 55.176 L 517.034 55.245 L 517.035 55.314 L 517.036 55.383 L 517.037 55.452 L 517.038 55.52 L 517.039 55.589 L 517.041 55.658 L 517.042 55.727 L 517.043 55.796 L 517.044 55.865 L 517.045 55.934 L 517.046 56.002 L 517.048 56.071 L 517.049 56.14 L 517.05 56.209 L 517.051 56.278 L 517.052 56.346 L 517.053 56.415 L 517.054 56.484 L 517.056 56.552 L 517.057 56.621 L 517.058 56.69 L 517.059 56.758 L 517.06 56.827 L 517.061 56.896 L 517.063 56.964 L 517.064 57.033 L 517.065 57.102 L 517.066 57.17 L 517.067 57.239 L 517.068 57.307 L 517.069 57.376 L 517.071 57.444 L 517.072 57.513 L 517.073 57.581 L 517.074 57.65 L 517.075 57.718 L 517.076 57.787 L 517.078 57.855 L 517.079 57.924 L 517.08 57.992 L 517.081 58.061 L 517.082 58.129 L 517.083 58.197 L 517.085 58.266 L 517.086 58.334 L 517.087 58.403 L 517.088 58.471 L 517.089 58.539 L 517.09 58.607 L 517.092 58.676 L 517.093 58.744 L 517.094 58.812 L 517.095 58.881 L 517.096 58.949 L 517.098 59.017 L 517.099 59.085 L 517.1 59.153 L 517.101 59.222 L 517.102 59.29 L 517.103 59.358 L 517.105 59.426 L 517.106 59.494 L 517.107 59.562 L 517.108 59.63 L 517.109 59.699 L 517.11 59.767 L 517.112 59.835 L 517.113 59.903 L 517.114 59.971 L 517.115 60.039 L 517.116 60.107 L 517.118 60.175 L 517.119 60.243 L 517.12 60.311 L 517.121 60.379 L 517.122 60.447 L 517.123 60.515 L 517.125 60.583 L 517.126 60.65 L 517.127 60.718 L 517.128 60.786 L 517.129 60.854 L 517.131 60.922 L 517.132 60.99 L 517.133 61.058 L 517.134 61.125 L 517.135 61.193 L 517.137 61.261 L 517.138 61.329 L 517.139 61.397 L 517.14 61.464 L 517.141 61.532 L 517.143 61.6 L 517.144 61.667 L 517.145 61.735 L 517.146 61.803 L 517.147 61.87 L 517.149 61.938 L 517.15 62.006 L 517.151 62.073 L 517.152 62.141 L 517.153 62.209 L 517.155 62.276 L 517.156 62.344 L 517.157 62.411 L 517.158 62.479 L 517.159 62.546 L 517.161 62.614 L 517.162 62.681 L 517.163 62.749 L 517.164 62.816 L 517.165 62.884 L 517.167 62.951 L 517.168 63.019 L 517.169 63.086 L 517.17 63.153 L 517.171 63.221 L 517.173 63.288 L 517.174 63.356 L 517.175 63.423 L 517.176 63.49 L 517.177 63.558 L 517.179 63.625 L 517.18 63.692 L 517.181 63.76 L 517.182 63.827 L 517.183 63.894 L 517.185 63.961 L 517.186 64.029 L 517.187 64.096 L 517.188 64.163 L 517.19 64.23 L 517.191 64.297 L 517.192 64.365 L 517.193 64.432 L 517.194 64.499 L 517.196 64.566 L 517.197 64.633 L 517.198 64.7 L 517.199 64.767 L 517.201 64.834 L 517.202 64.901 L 517.203 64.969 L 517.204 65.036 L 517.205 65.103 L 517.207 65.17 L 517.208 65.237 L 517.209 65.304 L 517.21 65.371 L 517.212 65.437 L 517.213 65.504 L 517.214 65.571 L 517.215 65.638 L 517.216 65.705 L 517.218 65.772 L 517.219 65.839 L 517.22 65.906 L 517.221 65.973 L 517.223 66.039 L 517.224 66.106 L 517.225 66.173 L 517.226 66.24 L 517.228 66.307 L 517.229 66.373 L 517.23 66.44 L 517.231 66.507 L 517.232 66.574 L 517.234 66.64 L 517.235 66.707 L 517.236 66.774 L 517.237 66.84 L 517.239 66.907 L 517.24 66.974 L 517.241 67.04 L 517.242 67.107 L 517.244 67.174 L 517.245 67.24 L 517.246 67.307 L 517.247 67.373 L 517.249 67.44 L 517.25 67.506 L 517.251 67.573 L 517.252 67.639 L 517.254 67.706 L 517.255 67.772 L 517.256 67.839 L 517.257 67.905 L 517.259 67.972 L 517.26 68.038 L 517.261 68.105 L 517.262 68.171 L 517.264 68.238 L 517.265 68.304 L 517.266 68.37 L 517.267 68.437 L 517.269 68.503 L 517.27 68.569 L 517.271 68.636 L 517.272 68.702 L 517.274 68.768 L 517.275 68.834 L 517.276 68.901 L 517.277 68.967 L 517.279 69.033 L 517.28 69.099 L 517.281 69.166 L 517.282 69.232 L 517.284 69.298 L 517.285 69.364 L 517.286 69.43 L 517.287 69.496 L 517.289 69.563 L 517.29 69.629 L 517.291 69.695 L 517.292 69.761 L 517.294 69.827 L 517.295 69.893 L 517.296 69.959 L 517.298 70.025 L 517.299 70.091 L 517.3 70.157 L 517.301 70.223 L 517.303 70.289 L 517.304 70.355 L 517.305 70.421 L 517.306 70.487 L 517.308 70.553 L 517.309 70.619 L 517.31 70.685 L 517.311 70.751 L 517.313 70.817 L 517.314 70.882 L 517.315 70.948 L 517.317 71.014 L 517.318 71.08 L 517.319 71.146 L 517.32 71.211 L 517.322 71.277 L 517.323 71.343 L 517.324 71.409 L 517.326 71.475 L 517.327 71.54 L 517.328 71.606 L 517.329 71.672 L 517.331 71.737 L 517.332 71.803 L 517.333 71.869 L 517.334 71.934 L 517.336 72 L 517.337 72.066 L 517.338 72.131 L 517.34 72.197 L 517.341 72.262 L 517.342 72.328 L 517.343 72.394 L 517.345 72.459 L 517.346 72.525 L 517.347 72.59 L 517.349 72.656 L 517.35 72.721 L 517.351 72.787 L 517.352 72.852 L 517.354 72.917 L 517.355 72.983 L 517.356 73.048 L 517.358 73.114 L 517.359 73.179 L 517.36 73.245 L 517.362 73.31 L 517.363 73.375 L 517.364 73.441 L 517.365 73.506 L 517.367 73.571 L 517.368 73.637 L 517.369 73.702 L 517.371 73.767 L 517.372 73.832 L 517.373 73.898 L 517.375 73.963 L 517.376 74.028 L 517.377 74.093 L 517.378 74.158 L 517.38 74.224 L 517.381 74.289 L 517.382 74.354 L 517.384 74.419 L 517.385 74.484 L 517.386 74.549 L 517.388 74.614 L 517.389 74.68 L 517.39 74.745 L 517.391 74.81 L 517.393 74.875 L 517.394 74.94 L 517.395 75.005 L 517.397 75.07 L 517.398 75.135 L 517.399 75.2 L 517.401 75.265 L 517.402 75.33 L 517.403 75.395 L 517.405 75.46 L 517.406 75.524 L 517.407 75.589 L 517.409 75.654 L 517.41 75.719 L 517.411 75.784 L 517.412 75.849 L 517.414 75.914 L 517.415 75.979 L 517.416 76.043 L 517.418 76.108 L 517.419 76.173 L 517.42 76.238 L 517.422 76.302 L 517.423 76.367 L 517.424 76.432 L 517.426 76.497 L 517.427 76.561 L 517.428 76.626 L 517.43 76.691 L 517.431 76.755 L 517.432 76.82 L 517.434 76.885 L 517.435 76.949 L 517.436 77.014 L 517.438 77.079 L 517.439 77.143 L 517.44 77.208 L 517.442 77.272 L 517.443 77.337 L 517.444 77.401 L 517.446 77.466 L 517.447 77.53 L 517.448 77.595 L 517.45 77.659 L 517.451 77.724 L 517.452 77.788 L 517.454 77.853 L 517.455 77.917 L 517.456 77.981 L 517.458 78.046 L 517.459 78.11 L 517.46 78.175 L 517.462 78.239 L 517.463 78.303 L 517.464 78.368 L 517.466 78.432 L 517.467 78.496 L 517.468 78.561 L 517.47 78.625 L 517.471 78.689 L 517.472 78.753 L 517.474 78.818 L 517.475 78.882 L 517.476 78.946 L 517.478 79.01 L 517.479 79.074 L 517.48 79.139 L 517.482 79.203 L 517.483 79.267 L 517.484 79.331 L 517.486 79.395 L 517.487 79.459 L 517.488 79.523 L 517.49 79.587 L 517.491 79.652 L 517.493 79.716 L 517.494 79.78 L 517.495 79.844 L 517.497 79.908 L 517.498 79.972 L 517.499 80.036 L 517.501 80.1 L 517.502 80.164 L 517.503 80.228 L 517.505 80.291 L 517.506 80.355 L 517.507 80.419 L 517.509 80.483 L 517.51 80.547 L 517.511 80.611 L 517.513 80.675 L 517.514 80.739 L 517.516 80.802 L 517.517 80.866 L 517.518 80.93 L 517.52 80.994 L 517.521 81.058 L 517.522 81.121 L 517.524 81.185 L 517.525 81.249 L 517.526 81.313 L 517.528 81.376 L 517.529 81.44 L 517.531 81.504 L 517.532 81.567 L 517.533 81.631 L 517.535 81.695 L 517.536 81.758 L 517.537 81.822 L 517.539 81.886 L 517.54 81.949 L 517.542 82.013 L 517.543 82.076 L 517.544 82.14 L 517.546 82.203 L 517.547 82.267 L 517.548 82.33 L 517.55 82.394 L 517.551 82.457 L 517.553 82.521 L 517.554 82.584 L 517.555 82.648 L 517.557 82.711 L 517.558 82.775 L 517.559 82.838 L 517.561 82.901 L 517.562 82.965 L 517.564 83.028 L 517.565 83.091 L 517.566 83.155 L 517.568 83.218 L 517.569 83.281 L 517.571 83.345 L 517.572 83.408 L 517.573 83.471 L 517.575 83.535 L 517.576 83.598 L 517.577 83.661 L 517.579 83.724 L 517.58 83.787 L 517.582 83.851 L 517.583 83.914 L 517.584 83.977 L 517.586 84.04 L 517.587 84.103 L 517.589 84.166 L 517.59 84.23 L 517.591 84.293 L 517.593 84.356 L 517.594 84.419 L 517.596 84.482 L 517.597 84.545 L 517.598 84.608 L 517.6 84.671 L 517.601 84.734 L 517.603 84.797 L 517.604 84.86 L 517.605 84.923 L 517.607 84.986 L 517.608 85.049 L 517.61 85.112 L 517.611 85.175 L 517.612 85.238 L 517.614 85.3 L 517.615 85.363 L 517.617 85.426 L 517.618 85.489 L 517.619 85.552 L 517.621 85.615 L 517.622 85.678 L 517.624 85.74 L 517.625 85.803 L 517.626 85.866 L 517.628 85.929 L 517.629 85.991 L 517.631 86.054 L 517.632 86.117 L 517.633 86.18 L 517.635 86.242 L 517.636 86.305 L 517.638 86.368 L 517.639 86.43 L 517.641 86.493 L 517.642 86.555 L 517.643 86.618 L 517.645 86.681 L 517.646 86.743 L 517.648 86.806 L 517.649 86.868 L 517.65 86.931 L 517.652 86.993 L 517.653 87.056 L 517.655 87.118 L 517.656 87.181 L 517.658 87.243 L 517.659 87.306 L 517.66 87.368 L 517.662 87.431 L 517.663 87.493 L 517.665 87.556 L 517.666 87.618 L 517.668 87.68 L 517.669 87.743 L 517.67 87.805 L 517.672 87.868 L 517.673 87.93 L 517.675 87.992 L 517.676 88.054 L 517.678 88.117 L 517.679 88.179 L 517.68 88.241 L 517.682 88.304 L 517.683 88.366 L 517.685 88.428 L 517.686 88.49 L 517.688 88.552 L 517.689 88.615 L 517.69 88.677 L 517.692 88.739 L 517.693 88.801 L 517.695 88.863 L 517.696 88.925 L 517.698 88.988 L 517.699 89.05 L 517.7 89.112 L 517.702 89.174 L 517.703 89.236 L 517.705 89.298 L 517.706 89.36 L 517.708 89.422 L 517.709 89.484 L 517.711 89.546 L 517.712 89.608 L 517.713 89.67 L 517.715 89.732 L 517.716 89.794 L 517.718 89.856 L 517.719 89.918 L 517.721 89.979 L 517.722 90.041 L 517.724 90.103 L 517.725 90.165 L 517.727 90.227 L 517.728 90.289 L 517.729 90.351 L 517.731 90.412 L 517.732 90.474 L 517.734 90.536 L 517.735 90.598 L 517.737 90.66 L 517.738 90.721 L 517.74 90.783 L 517.741 90.845 L 517.743 90.906 L 517.744 90.968 L 517.745 91.03 L 517.747 91.091 L 517.748 91.153 L 517.75 91.215 L 517.751 91.276 L 517.753 91.338 L 517.754 91.4 L 517.756 91.461 L 517.757 91.523 L 517.759 91.584 L 517.76 91.646 L 517.762 91.707 L 517.763 91.769 L 517.764 91.83 L 517.766 91.892 L 517.767 91.953 L 517.769 92.015 L 517.77 92.076 L 517.772 92.138 L 517.773 92.199 L 517.775 92.261 L 517.776 92.322 L 517.778 92.383 L 517.779 92.445 L 517.781 92.506 L 517.782 92.567 L 517.784 92.629 L 517.785 92.69 L 517.787 92.751 L 517.788 92.813 L 517.789 92.874 L 517.791 92.935 L 517.792 92.996 L 517.794 93.058 L 517.795 93.119 L 517.797 93.18 L 517.798 93.241 L 517.8 93.303 L 517.801 93.364 L 517.803 93.425 L 517.804 93.486 L 517.806 93.547 L 517.807 93.608 L 517.809 93.669 L 517.81 93.73 L 517.812 93.792 L 517.813 93.853 L 517.815 93.914 L 517.816 93.975 L 517.818 94.036 L 517.819 94.097 L 517.821 94.158 L 517.822 94.219 L 517.824 94.28 L 517.825 94.341 L 517.827 94.402 L 517.828 94.463 L 517.83 94.524 L 517.831 94.584 L 517.833 94.645 L 517.834 94.706 L 517.836 94.767 L 517.837 94.828 L 517.839 94.889 L 517.84 94.95 L 517.842 95.01 L 517.843 95.071 L 517.845 95.132 L 517.846 95.193 L 517.848 95.254 L 517.849 95.314 L 517.851 95.375 L 517.852 95.436 L 517.854 95.497 L 517.855 95.557 L 517.857 95.618 L 517.858 95.679 L 517.86 95.739 L 517.861 95.8 L 517.863 95.861 L 517.864 95.921 L 517.866 95.982 L 517.867 96.042 L 517.869 96.103 L 517.87 96.164 L 517.872 96.224 L 517.873 96.285 L 517.875 96.345 L 517.876 96.406 L 517.878 96.466 L 517.879 96.527 L 517.881 96.587 L 517.882 96.648 L 517.884 96.708 L 517.885 96.769 L 517.887 96.829 L 517.888 96.889 L 517.89 96.95 L 517.891 97.01 L 517.893 97.071 L 517.894 97.131 L 517.896 97.191 L 517.897 97.252 L 517.899 97.312 L 517.9 97.372 L 517.902 97.433 L 517.904 97.493 L 517.905 97.553 L 517.907 97.613 L 517.908 97.674 L 517.91 97.734 L 517.911 97.794 L 517.913 97.854 L 517.914 97.914 L 517.916 97.975 L 517.917 98.035 L 517.919 98.095 L 517.92 98.155 L 517.922 98.215 L 517.923 98.275 L 517.925 98.335 L 517.926 98.395 L 517.928 98.456 L 517.93 98.516 L 517.931 98.576 L 517.933 98.636 L 517.934 98.696 L 517.936 98.756 L 517.937 98.816 L 517.939 98.876 L 517.94 98.936 L 517.942 98.996 L 517.943 99.056 L 517.945 99.115 L 517.946 99.175 L 517.948 99.235 L 517.95 99.295 L 517.951 99.355 L 517.953 99.415 L 517.954 99.475 L 517.956 99.535 L 517.957 99.594 L 517.959 99.654 L 517.96 99.714 L 517.962 99.774 L 517.963 99.834 L 517.965 99.893 L 517.967 99.953 L 517.968 100.013 L 517.97 100.073 L 517.971 100.132 L 517.973 100.192 L 517.974 100.252 L 517.976 100.311 L 517.977 100.371 L 517.979 100.431 L 517.98 100.49 L 517.982 100.55 L 517.984 100.609 L 517.985 100.669 L 517.987 100.729 L 517.988 100.788 L 517.99 100.848 L 517.991 100.907 L 517.993 100.967 L 517.995 101.026 L 517.996 101.086 L 517.998 101.145 L 517.999 101.205 L 518.001 101.264 L 518.002 101.324 L 518.004 101.383 L 518.005 101.443 L 518.007 101.502 L 518.009 101.561 L 518.01 101.621 L 518.012 101.68 L 518.013 101.739 L 518.015 101.799 L 518.016 101.858 L 518.018 101.917 L 518.02 101.977 L 518.021 102.036 L 518.023 102.095 L 518.024 102.155 L 518.026 102.214 L 518.027 102.273 L 518.029 102.332 L 518.031 102.391 L 518.032 102.451 L 518.034 102.51 L 518.035 102.569 L 518.037 102.628 L 518.038 102.687 L 518.04 102.746 L 518.042 102.806 L 518.043 102.865 L 518.045 102.924 L 518.046 102.983 L 518.048 103.042 L 518.05 103.101 L 518.051 103.16 L 518.053 103.219 L 518.054 103.278 L 518.056 103.337 L 518.057 103.396 L 518.059 103.455 L 518.061 103.514 L 518.062 103.573 L 518.064 103.632 L 518.065 103.691 L 518.067 103.75 L 518.069 103.809 L 518.07 103.867 L 518.072 103.926 L 518.073 103.985 L 518.075 104.044 L 518.077 104.103 L 518.078 104.162 L 518.08 104.221 L 518.081 104.279 L 518.083 104.338 L 518.084 104.397 L 518.086 104.456 L 518.088 104.514 L 518.089 104.573 L 518.091 104.632 L 518.092 104.69 L 518.094 104.749 L 518.096 104.808 L 518.097 104.867 L 518.099 104.925 L 518.1 104.984 L 518.102 105.042 L 518.104 105.101 L 518.105 105.16 L 518.107 105.218 L 518.108 105.277 L 518.11 105.335 L 518.112 105.394 L 518.113 105.452 L 518.115 105.511 L 518.117 105.569 L 518.118 105.628 L 518.12 105.686 L 518.121 105.745 L 518.123 105.803 L 518.125 105.862 L 518.126 105.92 L 518.128 105.979 L 518.129 106.037 L 518.131 106.095 L 518.133 106.154 L 518.134 106.212 L 518.136 106.271 L 518.138 106.329 L 518.139 106.387 L 518.141 106.445 L 518.142 106.504 L 518.144 106.562 L 518.146 106.62 L 518.147 106.679 L 518.149 106.737 L 518.15 106.795 L 518.152 106.853 L 518.154 106.912 L 518.155 106.97 L 518.157 107.028 L 518.159 107.086 L 518.16 107.144 L 518.162 107.202 L 518.163 107.26 L 518.165 107.319 L 518.167 107.377 L 518.168 107.435 L 518.17 107.493 L 518.172 107.551 L 518.173 107.609 L 518.175 107.667 L 518.177 107.725 L 518.178 107.783 L 518.18 107.841 L 518.181 107.899 L 518.183 107.957 L 518.185 108.015 L 518.186 108.073 L 518.188 108.131 L 518.19 108.189 L 518.191 108.247 L 518.193 108.305 L 518.195 108.362 L 518.196 108.42 L 518.198 108.478 L 518.199 108.536 L 518.201 108.594 L 518.203 108.652 L 518.204 108.709 L 518.206 108.767 L 518.208 108.825 L 518.209 108.883 L 518.211 108.941 L 518.213 108.998 L 518.214 109.056 L 518.216 109.114 L 518.218 109.171 L 518.219 109.229 L 518.221 109.287 L 518.222 109.344 L 518.224 109.402 L 518.226 109.46 L 518.227 109.517 L 518.229 109.575 L 518.231 109.633 L 518.232 109.69 L 518.234 109.748 L 518.236 109.805 L 518.237 109.863 L 518.239 109.92 M 258.591 117.435 L 258.593 117.491 L 258.595 117.547 L 258.597 117.603 L 258.598 117.659 L 258.6 117.715 L 258.602 117.771 L 258.604 117.827 L 258.606 117.883 L 258.608 117.939 L 258.61 117.994 L 258.611 118.05 L 258.613 118.106 L 258.615 118.162 L 258.617 118.218 L 258.619 118.274 L 258.621 118.329 L 258.623 118.385 L 258.624 118.441 L 258.626 118.497 L 258.628 118.552 L 258.63 118.608 L 258.632 118.664 L 258.634 118.72 L 258.636 118.775 L 258.637 118.831 L 258.639 118.887 L 258.641 118.942 L 258.643 118.998 L 258.645 119.054 L 258.647 119.109 L 258.649 119.165 L 258.65 119.22 L 258.652 119.276 L 258.654 119.332 L 258.656 119.387 L 258.658 119.443 L 258.66 119.498 L 258.661 119.554 L 258.663 119.609 L 258.665 119.665 L 258.667 119.72 L 258.669 119.776 L 258.671 119.831 L 258.673 119.887 L 258.674 119.942 L 258.676 119.998 L 258.678 120.053 L 258.68 120.108 L 258.682 120.164 L 258.684 120.219 L 258.686 120.274 L 258.687 120.33 L 258.689 120.385 L 258.691 120.44 L 258.693 120.496 L 258.695 120.551 L 258.697 120.606 L 258.698 120.662 L 258.7 120.717 L 258.702 120.772 L 258.704 120.827 L 258.706 120.883 L 258.708 120.938 L 258.71 120.993 L 258.711 121.048 L 258.713 121.103 L 258.715 121.159 L 258.717 121.214 L 258.719 121.269 L 258.721 121.324 L 258.722 121.379 L 258.724 121.434 L 258.726 121.489 L 258.728 121.544 L 258.73 121.599 L 258.732 121.655 L 258.733 121.71 L 258.735 121.765 L 258.737 121.82 L 258.739 121.875 L 258.741 121.93 L 258.743 121.985 L 258.745 122.04 L 258.746 122.095 L 258.748 122.15 L 258.75 122.204 L 258.752 122.259 L 258.754 122.314 L 258.756 122.369 L 258.757 122.424 L 258.759 122.479 L 258.761 122.534 L 258.763 122.589 L 258.765 122.643 L 258.767 122.698 L 258.768 122.753 L 258.77 122.808 L 258.772 122.863 L 258.774 122.917 L 258.776 122.972 L 258.778 123.027 L 258.779 123.082 L 258.781 123.136 L 258.783 123.191 L 258.785 123.246 L 258.787 123.301 L 258.789 123.355 L 258.791 123.41 L 258.792 123.465 L 258.794 123.519 L 258.796 123.574 L 258.798 123.628 L 258.8 123.683 L 258.802 123.738 L 258.803 123.792 L 258.805 123.847 L 258.807 123.901 L 258.809 123.956 L 258.811 124.01 L 258.813 124.065 L 258.814 124.119 L 258.816 124.174 L 258.818 124.228 L 258.82 124.283 L 258.822 124.337 L 258.824 124.392 L 258.825 124.446 L 258.827 124.501 L 258.829 124.555 L 258.831 124.609 L 258.833 124.664 L 258.834 124.718 L 258.836 124.772 L 258.838 124.827 L 258.84 124.881 L 258.842 124.935 L 258.844 124.99 L 258.845 125.044 L 258.847 125.098 L 258.849 125.153 L 258.851 125.207 L 258.853 125.261 L 258.855 125.315 L 258.856 125.37 L 258.858 125.424 L 258.86 125.478 L 258.862 125.532 L 258.864 125.586 L 258.866 125.64 L 258.867 125.695 L 258.869 125.749 L 258.871 125.803 L 258.873 125.857 L 258.875 125.911 L 258.877 125.965 L 258.878 126.019 L 258.88 126.073 L 258.882 126.127 L 258.884 126.181 L 258.886 126.235 L 258.887 126.289 L 258.889 126.343 L 258.891 126.397 L 258.893 126.451 L 258.895 126.505 L 258.897 126.559 L 258.898 126.613 L 258.9 126.667 L 258.902 126.721 L 258.904 126.775 L 258.906 126.829 L 258.908 126.883 L 258.909 126.937 L 258.911 126.99 L 258.913 127.044 L 258.915 127.098 L 258.917 127.152 L 258.918 127.206 L 258.92 127.26 L 258.922 127.313 L 258.924 127.367 L 258.926 127.421 L 258.928 127.475 L 258.929 127.528 L 258.931 127.582 L 258.933 127.636 L 258.935 127.689 L 258.937 127.743 L 258.938 127.797 L 258.94 127.85 L 258.942 127.904 L 258.944 127.958 L 258.946 128.011 L 258.948 128.065 L 258.949 128.119 L 258.951 128.172 L 258.953 128.226 L 258.955 128.279 L 258.957 128.333 L 258.958 128.386 L 258.96 128.44 L 258.962 128.493 L 258.964 128.547 L 258.966 128.6 L 258.968 128.654 L 258.969 128.707 L 258.971 128.761 L 258.973 128.814 L 258.975 128.868 L 258.977 128.921 L 258.978 128.974 L 258.98 129.028 L 258.982 129.081 L 258.984 129.135 L 258.986 129.188 L 258.987 129.241 L 258.989 129.295 L 258.991 129.348 L 258.993 129.401 L 258.995 129.454 L 258.997 129.508 L 258.998 129.561 L 259 129.614 L 259.002 129.667 L 259.004 129.721 L 259.006 129.774 L 259.007 129.827 L 259.009 129.88 L 259.011 129.933 L 259.013 129.987 L 259.015 130.04 L 259.016 130.093 L 259.018 130.146 L 259.02 130.199 L 259.022 130.252 L 259.024 130.305 L 259.025 130.358 L 259.027 130.412 L 259.029 130.465 L 259.031 130.518 L 259.033 130.571 L 259.034 130.624 L 259.036 130.677 L 259.038 130.73 L 259.04 130.783 L 259.042 130.836 L 259.044 130.889 L 259.045 130.942 L 259.047 130.995 L 259.049 131.047 L 259.051 131.1 L 259.053 131.153 L 259.054 131.206 L 259.056 131.259 L 259.058 131.312 L 259.06 131.365 L 259.062 131.418 L 259.063 131.47 L 259.065 131.523 L 259.067 131.576 L 259.069 131.629 L 259.071 131.682 L 259.072 131.734 L 259.074 131.787 L 259.076 131.84 L 259.078 131.893 L 259.08 131.945 L 259.081 131.998 L 259.083 132.051 L 259.085 132.103 L 259.087 132.156 L 259.089 132.209 L 259.09 132.261 L 259.092 132.314 L 259.094 132.367 L 259.096 132.419 L 259.098 132.472 L 259.099 132.524 L 259.101 132.577 L 259.103 132.63 L 259.105 132.682 L 259.107 132.735 L 259.108 132.787 L 259.11 132.84 L 259.112 132.892 L 259.114 132.945 L 259.116 132.997 L 259.117 133.05 L 259.119 133.102 L 259.121 133.154 L 259.123 133.207 L 259.125 133.259 L 259.126 133.312 L 259.128 133.364 L 259.13 133.416 L 259.132 133.469 L 259.134 133.521 L 259.135 133.573 L 259.137 133.626 L 259.139 133.678 L 259.141 133.73 L 259.143 133.783 L 259.144 133.835 L 259.146 133.887 L 259.148 133.94 L 259.15 133.992 L 259.151 134.044 L 259.153 134.096 L 259.155 134.148 L 259.157 134.201 L 259.159 134.253 L 259.16 134.305 L 259.162 134.357 L 259.164 134.409 L 259.166 134.461 L 259.168 134.514 L 259.169 134.566 L 259.171 134.618 L 259.173 134.67 L 259.175 134.722 L 259.177 134.774 L 259.178 134.826 L 259.18 134.878 L 259.182 134.93 L 259.184 134.982 L 259.186 135.034 L 259.187 135.086 L 259.189 135.138 L 259.191 135.19 L 259.193 135.242 L 259.194 135.294 L 259.196 135.346 L 259.198 135.398 L 259.2 135.45 L 259.202 135.502 L 259.203 135.553 L 259.205 135.605 L 259.207 135.657 L 259.209 135.709 L 259.211 135.761 L 259.212 135.813 L 259.214 135.864 L 259.216 135.916 L 259.218 135.968 L 259.219 136.02 L 259.221 136.072 L 259.223 136.123 L 259.225 136.175 L 259.227 136.227 L 259.228 136.278 L 259.23 136.33 L 259.232 136.382 L 259.234 136.433 L 259.236 136.485 L 259.237 136.537 L 259.239 136.588 L 259.241 136.64 L 259.243 136.692 L 259.244 136.743 L 259.246 136.795 L 259.248 136.846 L 259.25 136.898 L 259.252 136.95 L 259.253 137.001 L 259.255 137.053 L 259.257 137.104 L 259.259 137.156 L 259.26 137.207 L 259.262 137.259 L 259.264 137.31 L 259.266 137.362 L 259.268 137.413 L 259.269 137.464 L 259.271 137.516 L 259.273 137.567 L 259.275 137.619 L 259.277 137.67 L 259.278 137.721 L 259.28 137.773 L 259.282 137.824 L 259.284 137.875 L 259.285 137.927 L 259.287 137.978 L 259.289 138.029 L 259.291 138.081 L 259.293 138.132 L 259.294 138.183 L 259.296 138.234 L 259.298 138.286 L 259.3 138.337 L 259.301 138.388 L 259.303 138.439 L 259.305 138.49 L 259.307 138.542 L 259.308 138.593 L 259.31 138.644 L 259.312 138.695 L 259.314 138.746 L 259.316 138.797 L 259.317 138.848 L 259.319 138.9 L 259.321 138.951 L 259.323 139.002 L 259.324 139.053 L 259.326 139.104 L 259.328 139.155 L 259.33 139.206 L 259.332 139.257 L 259.333 139.308 L 259.335 139.359 L 259.337 139.41 L 259.339 139.461 L 259.34 139.512 L 259.342 139.563 L 259.344 139.614 L 259.346 139.664 L 259.348 139.715 L 259.349 139.766 L 259.351 139.817 L 259.353 139.868 L 259.355 139.919 L 259.356 139.97 L 259.358 140.021 L 259.36 140.071 L 259.362 140.122 L 259.363 140.173 L 259.365 140.224 L 259.367 140.274 L 259.369 140.325 L 259.371 140.376 L 259.372 140.427 L 259.374 140.477 L 259.376 140.528 L 259.378 140.579 L 259.379 140.63 L 259.381 140.68 L 259.383 140.731 L 259.385 140.782 L 259.386 140.832 L 259.388 140.883 L 259.39 140.933 L 259.392 140.984 L 259.394 141.035 L 259.395 141.085 L 259.397 141.136 L 259.399 141.186 L 259.401 141.237 L 259.402 141.287 L 259.404 141.338 L 259.406 141.388 L 259.408 141.439 L 259.409 141.489 L 259.411 141.54 L 259.413 141.59 L 259.415 141.641 L 259.416 141.691 L 259.418 141.742 L 259.42 141.792 L 259.422 141.842 L 259.424 141.893 L 259.425 141.943 L 259.427 141.993 L 259.429 142.044 L 259.431 142.094 L 259.432 142.144 L 259.434 142.195 L 259.436 142.245 L 259.438 142.295 L 259.439 142.346 L 259.441 142.396 L 259.443 142.446 L 259.445 142.496 L 259.446 142.547 L 259.448 142.597 L 259.45 142.647 L 259.452 142.697 L 259.453 142.747 L 259.455 142.798 L 259.457 142.848 L 259.459 142.898 L 259.46 142.948 L 259.462 142.998 L 259.464 143.048 L 259.466 143.098 L 259.468 143.148 L 259.469 143.198 L 259.471 143.248 L 259.473 143.299 L 259.475 143.349 L 259.476 143.399 L 259.478 143.449 L 259.48 143.499 L 259.482 143.549 L 259.483 143.599 L 259.485 143.649 L 259.487 143.698 L 259.489 143.748 L 259.49 143.798 L 259.492 143.848 L 259.494 143.898 L 259.496 143.948 L 259.497 143.998 L 259.499 144.048 L 259.501 144.098 L 259.503 144.147 L 259.504 144.197 L 259.506 144.247 L 259.508 144.297 L 259.51 144.347 L 259.511 144.397 L 259.513 144.446 L 259.515 144.496 L 259.517 144.546 L 259.518 144.596 L 259.52 144.645 L 259.522 144.695 L 259.524 144.745 L 259.525 144.794 L 259.527 144.844 L 259.529 144.894 L 259.531 144.943 L 259.532 144.993 L 259.534 145.043 L 259.536 145.092 L 259.538 145.142 L 259.539 145.191 L 259.541 145.241 L 259.543 145.291 L 259.545 145.34 L 259.546 145.39 L 259.548 145.439 L 259.55 145.489 L 259.552 145.538 L 259.553 145.588 L 259.555 145.637 L 259.557 145.687 L 259.559 145.736 L 259.56 145.786 L 259.562 145.835 L 259.564 145.884 L 259.566 145.934 L 259.567 145.983 L 259.569 146.033 L 259.571 146.082 L 259.573 146.131 L 259.574 146.181 L 259.576 146.23 L 259.578 146.279 L 259.58 146.329 L 259.581 146.378 L 259.583 146.427 L 259.585 146.477 L 259.587 146.526 L 259.588 146.575 L 259.59 146.624 L 259.592 146.674 L 259.594 146.723 L 259.595 146.772 L 259.597 146.821 L 259.599 146.87 L 259.601 146.92 L 259.602 146.969 L 259.604 147.018 L 259.606 147.067 L 259.608 147.116 L 259.609 147.165 L 259.611 147.214 L 259.613 147.263 L 259.615 147.313 L 259.616 147.362 L 259.618 147.411 L 259.62 147.46 L 259.622 147.509 L 259.623 147.558 L 259.625 147.607 L 259.627 147.656 L 259.629 147.705 L 259.63 147.754 L 259.632 147.803 L 259.634 147.852 L 259.636 147.901 L 259.637 147.949 L 259.639 147.998 L 259.641 148.047 L 259.642 148.096 L 259.644 148.145 L 259.646 148.194 L 259.648 148.243 L 259.649 148.292 L 259.651 148.34 L 259.653 148.389 L 259.655 148.438 L 259.656 148.487 L 259.658 148.536 L 259.66 148.584 L 259.662 148.633 L 259.663 148.682 L 259.665 148.731 L 259.667 148.779 L 259.669 148.828 L 259.67 148.877 L 259.672 148.925 L 259.674 148.974 L 259.676 149.023 L 259.677 149.071 L 259.679 149.12 L 259.681 149.169 L 259.682 149.217 L 259.684 149.266 L 259.686 149.315 L 259.688 149.363 L 259.689 149.412 L 259.691 149.46 L 259.693 149.509 L 259.695 149.557 L 259.696 149.606 L 259.698 149.654 L 259.7 149.703 L 259.702 149.751 L 259.703 149.8 L 259.705 149.848 L 259.707 149.897 L 259.708 149.945 L 259.71 149.994 L 259.712 150.042 L 259.714 150.09 L 259.715 150.139 L 259.717 150.187 L 259.719 150.236 L 259.721 150.284 L 259.722 150.332 L 259.724 150.381 L 259.726 150.429 L 259.728 150.477 L 259.729 150.525 L 259.731 150.574 L 259.733 150.622 L 259.734 150.67 L 259.736 150.719 L 259.738 150.767 L 259.74 150.815 L 259.741 150.863 L 259.743 150.911 L 259.745 150.96 L 259.747 151.008 L 259.748 151.056 L 259.75 151.104 L 259.752 151.152 L 259.754 151.2 L 259.755 151.248 L 259.757 151.297 L 259.759 151.345 L 259.76 151.393 L 259.762 151.441 L 259.764 151.489 L 259.766 151.537 L 259.767 151.585 L 259.769 151.633 L 259.771 151.681 L 259.773 151.729 L 259.774 151.777 L 259.776 151.825 L 259.778 151.873 L 259.779 151.921 L 259.781 151.969 L 259.783 152.017 L 259.785 152.065 L 259.786 152.113 L 259.788 152.16 L 259.79 152.208 L 259.792 152.256 L 259.793 152.304 L 259.795 152.352 L 259.797 152.4 L 259.798 152.448 L 259.8 152.495 L 259.802 152.543 L 259.804 152.591 L 259.805 152.639 L 259.807 152.686 L 259.809 152.734 L 259.81 152.782 L 259.812 152.83 L 259.814 152.877 L 259.816 152.925 L 259.817 152.973 L 259.819 153.02 L 259.821 153.068 L 259.823 153.116 L 259.824 153.163 L 259.826 153.211 L 259.828 153.259 L 259.829 153.306 L 259.831 153.354 L 259.833 153.401 L 259.835 153.449 L 259.836 153.497 L 259.838 153.544 L 259.84 153.592 L 259.842 153.639 L 259.843 153.687 L 259.845 153.734 L 259.847 153.782 L 259.848 153.829 L 259.85 153.877 L 259.852 153.924 L 259.854 153.972 L 259.855 154.019 L 259.857 154.066 L 259.859 154.114 L 259.86 154.161 L 259.862 154.209 L 259.864 154.256 L 259.866 154.303 L 259.867 154.351 L 259.869 154.398 L 259.871 154.445 L 259.872 154.493 L 259.874 154.54 L 259.876 154.587 L 259.878 154.635 L 259.879 154.682 L 259.881 154.729 L 259.883 154.776 L 259.884 154.824 L 259.886 154.871 L 259.888 154.918 L 259.89 154.965 L 259.891 155.012 L 259.893 155.06 L 259.895 155.107 L 259.896 155.154 L 259.898 155.201 L 259.9 155.248 L 259.902 155.295 L 259.903 155.342 L 259.905 155.389 L 259.907 155.437 L 259.909 155.484 L 259.91 155.531 L 259.912 155.578 L 259.914 155.625 L 259.915 155.672 L 259.917 155.719 L 259.919 155.766 L 259.921 155.813 L 259.922 155.86 L 259.924 155.907 L 259.926 155.954 L 259.927 156.001 L 259.929 156.048 L 259.931 156.094 L 259.932 156.141 L 259.934 156.188 L 259.936 156.235 L 259.938 156.282 L 259.939 156.329 L 259.941 156.376 L 259.943 156.423 L 259.944 156.469 L 259.946 156.516 L 259.948 156.563 L 259.95 156.61 L 259.951 156.657 L 259.953 156.703 L 259.955 156.75 L 259.956 156.797 L 259.958 156.843 L 259.96 156.89 L 259.962 156.937 L 259.963 156.984 L 259.965 157.03 L 259.967 157.077 L 259.968 157.124 L 259.97 157.17 L 259.972 157.217 L 259.974 157.264 L 259.975 157.31 L 259.977 157.357 L 259.979 157.403 L 259.98 157.45 L 259.982 157.496 L 259.984 157.543 L 259.986 157.59 L 259.987 157.636 L 259.989 157.683 L 259.991 157.729 L 259.992 157.776 L 259.994 157.822 L 259.996 157.869 L 259.997 157.915 L 259.999 157.961 L 260.001 158.008 L 260.003 158.054 L 260.004 158.101 L 260.006 158.147 L 260.008 158.194 L 260.009 158.24 L 260.011 158.286 L 260.013 158.333 L 260.015 158.379 L 260.016 158.425 L 260.018 158.472 L 260.02 158.518 L 260.021 158.564 L 260.023 158.611 L 260.025 158.657 L 260.026 158.703 L 260.028 158.749 L 260.03 158.796 L 260.032 158.842 L 260.033 158.888 L 260.035 158.934 L 260.037 158.98 L 260.038 159.027 L 260.04 159.073 L 260.042 159.119 L 260.043 159.165 L 260.045 159.211 L 260.047 159.257 L 260.049 159.303 L 260.05 159.349 L 260.052 159.396 L 260.054 159.442 L 260.055 159.488 L 260.057 159.534 L 260.059 159.58 L 260.061 159.626 L 260.062 159.672 L 260.064 159.718 L 260.066 159.764 L 260.067 159.81 L 260.069 159.856 L 260.071 159.902 L 260.072 159.948 L 260.074 159.994 L 260.076 160.04 L 260.078 160.085 L 260.079 160.131 L 260.081 160.177 L 260.083 160.223 L 260.084 160.269 L 260.086 160.315 L 260.088 160.361 L 260.089 160.407 L 260.091 160.452 L 260.093 160.498 L 260.094 160.544 L 260.096 160.59 L 260.098 160.636 L 260.1 160.681 L 260.101 160.727 L 260.103 160.773 L 260.105 160.819 L 260.106 160.864 L 260.108 160.91 L 260.11 160.956 L 260.111 161.001 L 260.113 161.047 L 260.115 161.093 L 260.117 161.138 L 260.118 161.184 L 260.12 161.23 L 260.122 161.275 L 260.123 161.321 L 260.125 161.366 L 260.127 161.412 L 260.128 161.457 L 260.13 161.503 L 260.132 161.549 L 260.134 161.594 L 260.135 161.64 L 260.137 161.685 L 260.139 161.731 L 260.14 161.776 L 260.142 161.822 L 260.144 161.867 L 260.145 161.912 L 260.147 161.958 L 260.149 162.003 L 260.15 162.049 L 260.152 162.094 L 260.154 162.14 L 260.156 162.185 L 260.157 162.23 L 260.159 162.276 L 260.161 162.321 L 260.162 162.366 L 260.164 162.412 L 260.166 162.457 L 260.167 162.502 L 260.169 162.548 L 260.171 162.593 L 260.172 162.638 L 260.174 162.683 L 260.176 162.729 L 260.178 162.774 L 260.179 162.819 L 260.181 162.864 L 260.183 162.909 L 260.184 162.955 L 260.186 163 L 260.188 163.045 L 260.189 163.09 L 260.191 163.135 L 260.193 163.18 L 260.194 163.225 L 260.196 163.271 L 260.198 163.316 L 260.2 163.361 L 260.201 163.406 L 260.203 163.451 L 260.205 163.496 L 260.206 163.541 L 260.208 163.586 L 260.21 163.631 L 260.211 163.676 L 260.213 163.721 L 260.215 163.766 L 260.216 163.811 L 260.218 163.856 L 260.22 163.901 L 260.221 163.946 L 260.223 163.991 L 260.225 164.036 L 260.227 164.08 L 260.228 164.125 L 260.23 164.17 L 260.232 164.215 L 260.233 164.26 L 260.235 164.305 L 260.237 164.35 L 260.238 164.394 L 260.24 164.439 L 260.242 164.484 L 260.243 164.529 L 260.245 164.574 L 260.247 164.618 L 260.248 164.663 L 260.25 164.708 L 260.252 164.752 L 260.253 164.797 L 260.255 164.842 L 260.257 164.887 L 260.259 164.931 L 260.26 164.976 L 260.262 165.021 L 260.264 165.065 L 260.265 165.11 L 260.267 165.154 L 260.269 165.199 L 260.27 165.244 L 260.272 165.288 L 260.274 165.333 L 260.275 165.377 L 260.277 165.422 L 260.279 165.466 L 260.28 165.511 L 260.282 165.556 L 260.284 165.6 L 260.285 165.645 L 260.287 165.689 L 260.289 165.733 L 260.291 165.778 L 260.292 165.822 L 260.294 165.867 L 260.296 165.911 L 260.297 165.956 L 260.299 166 L 260.301 166.044 L 260.302 166.089 L 260.304 166.133 L 260.306 166.178 L 260.307 166.222 L 260.309 166.266 L 260.311 166.311 L 260.312 166.355 L 260.314 166.399 L 260.316 166.443 L 260.317 166.488 L 260.319 166.532 L 260.321 166.576 L 260.322 166.62 L 260.324 166.665 L 260.326 166.709 L 260.328 166.753 L 260.329 166.797 L 260.331 166.841 L 260.333 166.886 L 260.334 166.93 L 260.336 166.974 L 260.338 167.018 L 260.339 167.062 L 260.341 167.106 L 260.343 167.15 L 260.344 167.195 L 260.346 167.239 L 260.348 167.283 L 260.349 167.327 M 0 122.946 L 0.002 122.998 L 0.004 123.05 L 0.006 123.102 L 0.007 123.154 L 0.009 123.206 L 0.011 123.258 L 0.013 123.31 L 0.015 123.362 L 0.017 123.414 L 0.019 123.466 L 0.021 123.517 L 0.022 123.569 L 0.024 123.621 L 0.026 123.673 L 0.028 123.725 L 0.03 123.777 L 0.032 123.829 L 0.034 123.88 L 0.036 123.932 L 0.037 123.984 L 0.039 124.036 L 0.041 124.088 L 0.043 124.139 L 0.045 124.191 L 0.047 124.243 L 0.049 124.294 L 0.05 124.346 L 0.052 124.398 L 0.054 124.45 L 0.056 124.501 L 0.058 124.553 L 0.06 124.605 L 0.062 124.656 L 0.063 124.708 L 0.065 124.76 L 0.067 124.811 L 0.069 124.863 L 0.071 124.914 L 0.073 124.966 L 0.075 125.018 L 0.076 125.069 L 0.078 125.121 L 0.08 125.172 L 0.082 125.224 L 0.084 125.275 L 0.086 125.327 L 0.088 125.378 L 0.089 125.43 L 0.091 125.481 L 0.093 125.533 L 0.095 125.584 L 0.097 125.636 L 0.099 125.687 L 0.101 125.739 L 0.102 125.79 L 0.104 125.841 L 0.106 125.893 L 0.108 125.944 L 0.11 125.996 L 0.112 126.047 L 0.114 126.098 L 0.115 126.15 L 0.117 126.201 L 0.119 126.252 L 0.121 126.304 L 0.123 126.355 L 0.125 126.406 L 0.126 126.458 L 0.128 126.509 L 0.13 126.56 L 0.132 126.611 L 0.134 126.663 L 0.136 126.714 L 0.138 126.765 L 0.139 126.816 L 0.141 126.867 L 0.143 126.919 L 0.145 126.97 L 0.147 127.021 L 0.149 127.072 L 0.15 127.123 L 0.152 127.174 L 0.154 127.226 L 0.156 127.277 L 0.158 127.328 L 0.16 127.379 L 0.162 127.43 L 0.163 127.481 L 0.165 127.532 L 0.167 127.583 L 0.169 127.634 L 0.171 127.685 L 0.173 127.736 L 0.174 127.787 L 0.176 127.838 L 0.178 127.889 L 0.18 127.94 L 0.182 127.991 L 0.184 128.042 L 0.185 128.093 L 0.187 128.144 L 0.189 128.195 L 0.191 128.246 L 0.193 128.297 L 0.195 128.348 L 0.196 128.399 L 0.198 128.449 L 0.2 128.5 L 0.202 128.551 L 0.204 128.602 L 0.206 128.653 L 0.207 128.704 L 0.209 128.754 L 0.211 128.805 L 0.213 128.856 L 0.215 128.907 L 0.217 128.958 L 0.218 129.008 L 0.22 129.059 L 0.222 129.11 L 0.224 129.161 L 0.226 129.211 L 0.228 129.262 L 0.229 129.313 L 0.231 129.363 L 0.233 129.414 L 0.235 129.465 L 0.237 129.515 L 0.239 129.566 L 0.24 129.617 L 0.242 129.667 L 0.244 129.718 L 0.246 129.769 L 0.248 129.819 L 0.25 129.87 L 0.251 129.92 L 0.253 129.971 L 0.255 130.021 L 0.257 130.072 L 0.259 130.122 L 0.26 130.173 L 0.262 130.224 L 0.264 130.274 L 0.266 130.325 L 0.268 130.375 L 0.27 130.425 L 0.271 130.476 L 0.273 130.526 L 0.275 130.577 L 0.277 130.627 L 0.279 130.678 L 0.28 130.728 L 0.282 130.778 L 0.284 130.829 L 0.286 130.879 L 0.288 130.93 L 0.29 130.98 L 0.291 131.03 L 0.293 131.081 L 0.295 131.131 L 0.297 131.181 L 0.299 131.232 L 0.3 131.282 L 0.302 131.332 L 0.304 131.382 L 0.306 131.433 L 0.308 131.483 L 0.31 131.533 L 0.311 131.583 L 0.313 131.634 L 0.315 131.684 L 0.317 131.734 L 0.319 131.784 L 0.32 131.834 L 0.322 131.884 L 0.324 131.935 L 0.326 131.985 L 0.328 132.035 L 0.329 132.085 L 0.331 132.135 L 0.333 132.185 L 0.335 132.235 L 0.337 132.285 L 0.339 132.335 L 0.34 132.386 L 0.342 132.436 L 0.344 132.486 L 0.346 132.536 L 0.348 132.586 L 0.349 132.636 L 0.351 132.686 L 0.353 132.736 L 0.355 132.786 L 0.357 132.836 L 0.358 132.886 L 0.36 132.936 L 0.362 132.985 L 0.364 133.035 L 0.366 133.085 L 0.367 133.135 L 0.369 133.185 L 0.371 133.235 L 0.373 133.285 L 0.375 133.335 L 0.376 133.385 L 0.378 133.434 L 0.38 133.484 L 0.382 133.534 L 0.384 133.584 L 0.385 133.634 L 0.387 133.683 L 0.389 133.733 L 0.391 133.783 L 0.393 133.833 L 0.394 133.883 L 0.396 133.932 L 0.398 133.982 L 0.4 134.032 L 0.402 134.081 L 0.403 134.131 L 0.405 134.181 L 0.407 134.23 L 0.409 134.28 L 0.411 134.33 L 0.412 134.379 L 0.414 134.429 L 0.416 134.479 L 0.418 134.528 L 0.42 134.578 L 0.421 134.627 L 0.423 134.677 L 0.425 134.727 L 0.427 134.776 L 0.428 134.826 L 0.43 134.875 L 0.432 134.925 L 0.434 134.974 L 0.436 135.024 L 0.437 135.073 L 0.439 135.123 L 0.441 135.172 L 0.443 135.222 L 0.445 135.271 L 0.446 135.321 L 0.448 135.37 L 0.45 135.42 L 0.452 135.469 L 0.453 135.518 L 0.455 135.568 L 0.457 135.617 L 0.459 135.667 L 0.461 135.716 L 0.462 135.765 L 0.464 135.815 L 0.466 135.864 L 0.468 135.913 L 0.47 135.963 L 0.471 136.012 L 0.473 136.061 L 0.475 136.11 L 0.477 136.16 L 0.478 136.209 L 0.48 136.258 L 0.482 136.307 L 0.484 136.357 L 0.486 136.406 L 0.487 136.455 L 0.489 136.504 L 0.491 136.553 L 0.493 136.603 L 0.494 136.652 L 0.496 136.701 L 0.498 136.75 L 0.5 136.799 L 0.502 136.848 L 0.503 136.897 L 0.505 136.947 L 0.507 136.996 L 0.509 137.045 L 0.51 137.094 L 0.512 137.143 L 0.514 137.192 L 0.516 137.241 L 0.518 137.29 L 0.519 137.339 L 0.521 137.388 L 0.523 137.437 L 0.525 137.486 L 0.526 137.535 L 0.528 137.584 L 0.53 137.633 L 0.532 137.682 L 0.533 137.731 L 0.535 137.78 L 0.537 137.829 L 0.539 137.878 L 0.541 137.926 L 0.542 137.975 L 0.544 138.024 L 0.546 138.073 L 0.548 138.122 L 0.549 138.171 L 0.551 138.22 L 0.553 138.268 L 0.555 138.317 L 0.556 138.366 L 0.558 138.415 L 0.56 138.464 L 0.562 138.512 L 0.564 138.561 L 0.565 138.61 L 0.567 138.659 L 0.569 138.707 L 0.571 138.756 L 0.572 138.805 L 0.574 138.854 L 0.576 138.902 L 0.578 138.951 L 0.579 139 L 0.581 139.048 L 0.583 139.097 L 0.585 139.145 L 0.586 139.194 L 0.588 139.243 L 0.59 139.291 L 0.592 139.34 L 0.593 139.389 L 0.595 139.437 L 0.597 139.486 L 0.599 139.534 L 0.601 139.583 L 0.602 139.631 L 0.604 139.68 L 0.606 139.728 L 0.608 139.777 L 0.609 139.825 L 0.611 139.874 L 0.613 139.922 L 0.615 139.971 L 0.616 140.019 L 0.618 140.068 L 0.62 140.116 L 0.622 140.164 L 0.623 140.213 L 0.625 140.261 L 0.627 140.31 L 0.629 140.358 L 0.63 140.406 L 0.632 140.455 L 0.634 140.503 L 0.636 140.551 L 0.637 140.6 L 0.639 140.648 L 0.641 140.696 L 0.643 140.745 L 0.644 140.793 L 0.646 140.841 L 0.648 140.89 L 0.65 140.938 L 0.651 140.986 L 0.653 141.034 L 0.655 141.082 L 0.657 141.131 L 0.658 141.179 L 0.66 141.227 L 0.662 141.275 L 0.664 141.323 L 0.665 141.372 L 0.667 141.42 L 0.669 141.468 L 0.671 141.516 L 0.672 141.564 L 0.674 141.612 L 0.676 141.66 L 0.677 141.708 L 0.679 141.757 L 0.681 141.805 L 0.683 141.853 L 0.684 141.901 L 0.686 141.949 L 0.688 141.997 L 0.69 142.045 L 0.691 142.093 L 0.693 142.141 L 0.695 142.189 L 0.697 142.237 L 0.698 142.285 L 0.7 142.333 L 0.702 142.381 L 0.704 142.429 L 0.705 142.476 L 0.707 142.524 L 0.709 142.572 L 0.711 142.62 L 0.712 142.668 L 0.714 142.716 L 0.716 142.764 L 0.717 142.812 L 0.719 142.859 L 0.721 142.907 L 0.723 142.955 L 0.724 143.003 L 0.726 143.051 L 0.728 143.099 L 0.73 143.146 L 0.731 143.194 L 0.733 143.242 L 0.735 143.29 L 0.737 143.337 L 0.738 143.385 L 0.74 143.433 L 0.742 143.48 L 0.743 143.528 L 0.745 143.576 L 0.747 143.624 L 0.749 143.671 L 0.75 143.719 L 0.752 143.767 L 0.754 143.814 L 0.756 143.862 L 0.757 143.909 L 0.759 143.957 L 0.761 144.005 L 0.762 144.052 L 0.764 144.1 L 0.766 144.147 L 0.768 144.195 L 0.769 144.242 L 0.771 144.29 L 0.773 144.337 L 0.775 144.385 L 0.776 144.432 L 0.778 144.48 L 0.78 144.527 L 0.781 144.575 L 0.783 144.622 L 0.785 144.67 L 0.787 144.717 L 0.788 144.765 L 0.79 144.812 L 0.792 144.86 L 0.793 144.907 L 0.795 144.954 L 0.797 145.002 L 0.799 145.049 L 0.8 145.096 L 0.802 145.144 L 0.804 145.191 L 0.805 145.238 L 0.807 145.286 L 0.809 145.333 L 0.811 145.38 L 0.812 145.428 L 0.814 145.475 L 0.816 145.522 L 0.818 145.569 L 0.819 145.617 L 0.821 145.664 L 0.823 145.711 L 0.824 145.758 L 0.826 145.806 L 0.828 145.853 L 0.829 145.9 L 0.831 145.947 L 0.833 145.994 L 0.835 146.041 L 0.836 146.089 L 0.838 146.136 L 0.84 146.183 L 0.841 146.23 L 0.843 146.277 L 0.845 146.324 L 0.847 146.371 L 0.848 146.418 L 0.85 146.465 L 0.852 146.512 L 0.853 146.559 L 0.855 146.606 L 0.857 146.653 L 0.859 146.7 L 0.86 146.747 L 0.862 146.794 L 0.864 146.841 L 0.865 146.888 L 0.867 146.935 L 0.869 146.982 L 0.87 147.029 L 0.872 147.076 L 0.874 147.123 L 0.876 147.17 L 0.877 147.217 L 0.879 147.264 L 0.881 147.311 L 0.882 147.357 L 0.884 147.404 L 0.886 147.451 L 0.888 147.498 L 0.889 147.545 L 0.891 147.592 L 0.893 147.638 L 0.894 147.685 L 0.896 147.732 L 0.898 147.779 L 0.899 147.826 L 0.901 147.872 L 0.903 147.919 L 0.905 147.966 L 0.906 148.013 L 0.908 148.059 L 0.91 148.106 L 0.911 148.153 L 0.913 148.199 L 0.915 148.246 L 0.916 148.293 L 0.918 148.339 L 0.92 148.386 L 0.921 148.433 L 0.923 148.479 L 0.925 148.526 L 0.927 148.572 L 0.928 148.619 L 0.93 148.666 L 0.932 148.712 L 0.933 148.759 L 0.935 148.805 L 0.937 148.852 L 0.938 148.898 L 0.94 148.945 L 0.942 148.991 L 0.943 149.038 L 0.945 149.084 L 0.947 149.131 L 0.949 149.177 L 0.95 149.224 L 0.952 149.27 L 0.954 149.317 L 0.955 149.363 L 0.957 149.409 L 0.959 149.456 L 0.96 149.502 L 0.962 149.549 L 0.964 149.595 L 0.965 149.641 L 0.967 149.688 L 0.969 149.734 L 0.97 149.78 L 0.972 149.827 L 0.974 149.873 L 0.976 149.919 L 0.977 149.966 L 0.979 150.012 L 0.981 150.058 L 0.982 150.104 L 0.984 150.151 L 0.986 150.197 L 0.987 150.243 L 0.989 150.289 L 0.991 150.336 L 0.992 150.382 L 0.994 150.428 L 0.996 150.474 L 0.997 150.52 L 0.999 150.566 L 1.001 150.613 L 1.002 150.659 L 1.004 150.705 L 1.006 150.751 L 1.007 150.797 L 1.009 150.843 L 1.011 150.889 L 1.012 150.935 L 1.014 150.981 L 1.016 151.027 L 1.018 151.074 L 1.019 151.12 L 1.021 151.166 L 1.023 151.212 L 1.024 151.258 L 1.026 151.304 L 1.028 151.35 L 1.029 151.396 L 1.031 151.442 L 1.033 151.488 L 1.034 151.533 L 1.036 151.579 L 1.038 151.625 L 1.039 151.671 L 1.041 151.717 L 1.043 151.763 L 1.044 151.809 L 1.046 151.855 L 1.048 151.901 L 1.049 151.947 L 1.051 151.992 L 1.053 152.038 L 1.054 152.084 L 1.056 152.13 L 1.058 152.176 L 1.059 152.221 L 1.061 152.267 L 1.063 152.313 L 1.064 152.359 L 1.066 152.404 L 1.068 152.45 L 1.069 152.496 L 1.071 152.542 L 1.073 152.587 L 1.074 152.633 L 1.076 152.679 L 1.078 152.724 L 1.079 152.77 L 1.081 152.816 L 1.083 152.861 L 1.084 152.907 L 1.086 152.953 L 1.088 152.998 L 1.089 153.044 L 1.091 153.09 L 1.093 153.135 L 1.094 153.181 L 1.096 153.226 L 1.098 153.272 L 1.099 153.317 L 1.101 153.363 L 1.103 153.408 L 1.104 153.454 L 1.106 153.499 L 1.107 153.545 L 1.109 153.59 L 1.111 153.636 L 1.112 153.681 L 1.114 153.727 L 1.116 153.772 L 1.117 153.818 L 1.119 153.863 L 1.121 153.909 L 1.122 153.954 L 1.124 153.999 L 1.126 154.045 L 1.127 154.09 L 1.129 154.136 L 1.131 154.181 L 1.132 154.226 L 1.134 154.272 L 1.136 154.317 L 1.137 154.362 L 1.139 154.408 L 1.141 154.453 L 1.142 154.498 L 1.144 154.543 L 1.146 154.589 L 1.147 154.634 L 1.149 154.679 L 1.15 154.724 L 1.152 154.77 L 1.154 154.815 L 1.155 154.86 L 1.157 154.905 L 1.159 154.95 L 1.16 154.996 L 1.162 155.041 L 1.164 155.086 L 1.165 155.131 L 1.167 155.176 L 1.169 155.221 L 1.17 155.266 L 1.172 155.312 L 1.174 155.357 L 1.175 155.402 L 1.177 155.447 L 1.178 155.492 L 1.18 155.537 L 1.182 155.582 L 1.183 155.627 L 1.185 155.672 L 1.187 155.717 L 1.188 155.762 L 1.19 155.807 L 1.192 155.852 L 1.193 155.897 L 1.195 155.942 L 1.196 155.987 L 1.198 156.032 L 1.2 156.077 L 1.201 156.122 L 1.203 156.167 L 1.205 156.211 L 1.206 156.256 L 1.208 156.301 L 1.21 156.346 L 1.211 156.391 L 1.213 156.436 L 1.215 156.481 L 1.216 156.525 L 1.218 156.57 L 1.219 156.615 L 1.221 156.66 L 1.223 156.705 L 1.224 156.749 L 1.226 156.794 L 1.228 156.839 L 1.229 156.884 L 1.231 156.928 L 1.232 156.973 L 1.234 157.018 L 1.236 157.063 L 1.237 157.107 L 1.239 157.152 L 1.241 157.197 L 1.242 157.241 L 1.244 157.286 L 1.246 157.331 L 1.247 157.375 L 1.249 157.42 L 1.25 157.465 L 1.252 157.509 L 1.254 157.554 L 1.255 157.598 L 1.257 157.643 L 1.259 157.687 L 1.26 157.732 L 1.262 157.777 L 1.263 157.821 L 1.265 157.866 L 1.267 157.91 L 1.268 157.955 L 1.27 157.999 L 1.272 158.044 L 1.273 158.088 L 1.275 158.133 L 1.276 158.177 L 1.278 158.222 L 1.28 158.266 L 1.281 158.31 L 1.283 158.355 L 1.285 158.399 L 1.286 158.444 L 1.288 158.488 L 1.289 158.532 L 1.291 158.577 L 1.293 158.621 L 1.294 158.665 L 1.296 158.71 L 1.298 158.754 L 1.299 158.798 L 1.301 158.843 L 1.302 158.887 L 1.304 158.931 L 1.306 158.976 L 1.307 159.02 L 1.309 159.064 L 1.31 159.108 L 1.312 159.153 L 1.314 159.197 L 1.315 159.241 L 1.317 159.285 L 1.319 159.329 L 1.32 159.374 L 1.322 159.418 L 1.323 159.462 L 1.325 159.506 L 1.327 159.55 L 1.328 159.594 L 1.33 159.638 L 1.331 159.683 L 1.333 159.727 L 1.335 159.771 L 1.336 159.815 L 1.338 159.859 L 1.34 159.903 L 1.341 159.947 L 1.343 159.991 L 1.344 160.035 L 1.346 160.079 L 1.348 160.123 L 1.349 160.167 L 1.351 160.211 L 1.352 160.255 L 1.354 160.299 L 1.356 160.343 L 1.357 160.387 L 1.359 160.431 L 1.36 160.475 L 1.362 160.519 L 1.364 160.563 L 1.365 160.607 L 1.367 160.651 L 1.368 160.694 L 1.37 160.738 L 1.372 160.782 L 1.373 160.826 L 1.375 160.87 L 1.376 160.914 L 1.378 160.958 L 1.38 161.001 L 1.381 161.045 L 1.383 161.089 L 1.384 161.133 L 1.386 161.176 L 1.388 161.22 L 1.389 161.264 L 1.391 161.308 L 1.392 161.351 L 1.394 161.395 L 1.396 161.439 L 1.397 161.483 L 1.399 161.526 L 1.4 161.57 L 1.402 161.614 L 1.404 161.657 L 1.405 161.701 L 1.407 161.745 L 1.408 161.788 L 1.41 161.832 L 1.412 161.876 L 1.413 161.919 L 1.415 161.963 L 1.416 162.006 L 1.418 162.05 L 1.42 162.093 L 1.421 162.137 L 1.423 162.181 L 1.424 162.224 L 1.426 162.268 L 1.428 162.311 L 1.429 162.355 L 1.431 162.398 L 1.432 162.442 L 1.434 162.485 L 1.436 162.529 L 1.437 162.572 L 1.439 162.615 L 1.44 162.659 L 1.442 162.702 L 1.444 162.746 L 1.445 162.789 L 1.447 162.832 L 1.448 162.876 L 1.45 162.919 L 1.451 162.963 L 1.453 163.006 L 1.455 163.049 L 1.456 163.093 L 1.458 163.136 L 1.459 163.179 L 1.461 163.223 L 1.463 163.266 L 1.464 163.309 L 1.466 163.352 L 1.467 163.396 L 1.469 163.439 L 1.471 163.482 L 1.472 163.525 L 1.474 163.569 L 1.475 163.612 L 1.477 163.655 L 1.478 163.698 L 1.48 163.741 L 1.482 163.785 L 1.483 163.828 L 1.485 163.871 L 1.486 163.914 L 1.488 163.957 L 1.489 164 L 1.491 164.043 L 1.493 164.087 L 1.494 164.13 L 1.496 164.173 L 1.497 164.216 L 1.499 164.259 L 1.501 164.302 L 1.502 164.345 L 1.504 164.388 L 1.505 164.431 L 1.507 164.474 L 1.508 164.517 L 1.51 164.56 L 1.512 164.603 L 1.513 164.646 L 1.515 164.689 L 1.516 164.732 L 1.518 164.775 L 1.519 164.818 L 1.521 164.861 L 1.523 164.904 L 1.524 164.947 L 1.526 164.989 L 1.527 165.032 L 1.529 165.075 L 1.53 165.118 L 1.532 165.161 L 1.534 165.204 L 1.535 165.247 L 1.537 165.289 L 1.538 165.332 L 1.54 165.375 L 1.541 165.418 L 1.543 165.461 L 1.545 165.503 L 1.546 165.546 L 1.548 165.589 L 1.549 165.632 L 1.551 165.674 L 1.552 165.717 L 1.554 165.76 L 1.556 165.803 L 1.557 165.845 L 1.559 165.888 L 1.56 165.931 L 1.562 165.973 L 1.563 166.016 L 1.565 166.059 L 1.567 166.101 L 1.568 166.144 L 1.57 166.186 L 1.571 166.229 L 1.573 166.272 L 1.574 166.314 L 1.576 166.357 L 1.577 166.399 L 1.579 166.442 L 1.581 166.484 L 1.582 166.527 L 1.584 166.57 L 1.585 166.612 L 1.587 166.655 L 1.588 166.697 L 1.59 166.74 L 1.592 166.782 L 1.593 166.824 L 1.595 166.867 L 1.596 166.909 L 1.598 166.952 L 1.599 166.994 L 1.601 167.037 L 1.602 167.079 L 1.604 167.121 L 1.606 167.164 L 1.607 167.206 L 1.609 167.249 L 1.61 167.291 L 1.612 167.333 L 1.613 167.376 L 1.615 167.418 L 1.616 167.46 L 1.618 167.503 L 1.62 167.545 L 1.621 167.587 L 1.623 167.629 L 1.624 167.672 L 1.626 167.714 L 1.627 167.756 L 1.629 167.798 L 1.63 167.841 L 1.632 167.883 L 1.634 167.925 L 1.635 167.967 L 1.637 168.01 L 1.638 168.052 L 1.64 168.094 L 1.641 168.136 L 1.643 168.178 L 1.644 168.22 L 1.646 168.262 L 1.647 168.305 L 1.649 168.347 L 1.651 168.389 L 1.652 168.431 L 1.654 168.473 L 1.655 168.515 L 1.657 168.557 L 1.658 168.599 L 1.66 168.641 L 1.661 168.683 L 1.663 168.725 L 1.664 168.767 L 1.666 168.809 L 1.668 168.851 L 1.669 168.893 L 1.671 168.935 L 1.672 168.977 L 1.674 169.019 L 1.675 169.061 L 1.677 169.103 L 1.678 169.145 L 1.68 169.187 L 1.681 169.229 L 1.683 169.271 L 1.685 169.313 L 1.686 169.354 L 1.688 169.396 L 1.689 169.438 L 1.691 169.48 L 1.692 169.522 L 1.694 169.564 L 1.695 169.605 L 1.697 169.647 L 1.698 169.689 L 1.7 169.731" id="blue" stroke="blue" style="stroke:blue" vector-effect="non-scaling-stroke"/><g id="captions"><text alignment-baseline="middle" text-anchor="middle" transform="rotate(0,279.369,141.776)" x="279.369" y="141.776">LEE, 4, 1</text></g></g></svg>