<svg width="742.97" height="330.048" viewBox="0 0 742.97 330.048" xmlns="http://www.w3.org/2000/svg"><g id="svgGroup" stroke-linecap="round" fill-rule="evenodd" font-size="9pt" stroke="#000" stroke-width="0.25mm" fill="none" style="stroke:#000;stroke-width:0.25mm;fill:none"><path d="M 738.471 0 L 737.474 9.218 L 736.441 13.535 L 735.4 17.007 L 734.357 20.052 L 733.313 22.829 L 732.267 25.419 L 731.222 27.867 L 730.175 30.203 L 729.129 32.449 L 728.083 34.618 L 727.036 36.721 L 725.99 38.767 L 724.944 40.762 L 723.897 42.711 L 722.851 44.619 L 721.805 46.489 L 720.76 48.324 L 719.714 50.127 L 718.669 51.899 L 717.624 53.642 L 716.579 55.359 L 715.534 57.05 L 714.489 58.717 L 713.445 60.36 L 712.4 61.982 L 711.356 63.582 L 710.312 65.161 L 709.269 66.721 L 708.225 68.262 L 707.182 69.784 L 706.138 71.288 L 705.095 72.774 L 704.053 74.244 L 703.01 75.698 L 701.968 77.135 L 700.925 78.556 L 699.883 79.963 L 698.841 81.354 L 697.799 82.731 L 696.758 84.093 L 695.716 85.442 L 694.675 86.776 L 693.634 88.098 L 692.592 89.406 L 691.552 90.701 L 690.511 91.983 L 689.47 93.253 L 688.43 94.51 L 687.389 95.756 L 686.349 96.989 L 685.309 98.211 L 684.269 99.422 L 683.229 100.621 L 682.19 101.809 L 681.15 102.985 L 680.111 104.151 L 679.071 105.307 L 678.032 106.451 L 676.993 107.586 L 675.954 108.71 L 674.915 109.824 L 673.876 110.928 L 672.838 112.022 L 671.799 113.107 L 670.761 114.182 L 669.722 115.247 L 668.684 116.303 L 667.646 117.35 L 666.608 118.388 L 665.57 119.417 L 664.532 120.436 L 663.494 121.447 L 662.457 122.45 L 661.419 123.444 L 660.382 124.429 L 659.344 125.406 L 658.307 126.374 L 657.27 127.335 L 656.232 128.287 L 655.195 129.231 L 654.158 130.167 L 653.121 131.096 L 652.084 132.016 L 651.048 132.929 L 650.011 133.835 L 648.974 134.733 L 647.938 135.623 L 646.901 136.506 L 645.865 137.382 L 644.828 138.251 L 643.792 139.112 L 642.756 139.967 L 641.719 140.814 L 640.683 141.654 L 639.647 142.488 L 638.611 143.315 L 637.575 144.135 L 636.539 144.949 L 635.503 145.756 L 634.468 146.556 L 633.432 147.35 L 632.396 148.138 L 631.36 148.919 L 630.325 149.694 L 629.289 150.463 L 628.254 151.226 L 627.218 151.982 L 626.183 152.733 L 625.147 153.478 L 624.112 154.216 L 623.077 154.949 L 622.042 155.676 L 621.006 156.398 L 619.971 157.113 L 618.936 157.823 L 617.901 158.528 L 616.866 159.227 L 615.831 159.92 L 614.796 160.608 L 613.761 161.291 L 612.726 161.968 L 611.691 162.64 L 610.656 163.307 L 609.622 163.969 L 608.587 164.625 L 607.552 165.277 L 606.517 165.923 L 605.483 166.565 L 604.448 167.201 L 603.413 167.833 L 602.379 168.459 L 601.344 169.081 L 600.31 169.698 L 599.275 170.311 L 598.241 170.918 L 597.206 171.521 L 596.172 172.12 L 595.137 172.714 L 594.103 173.303 L 593.069 173.888 L 592.034 174.469 L 591 175.045 L 589.966 175.616 L 588.931 176.184 L 587.897 176.747 L 586.863 177.306 L 585.829 177.861 L 584.794 178.411 L 583.76 178.958 L 582.726 179.5 L 581.692 180.038 L 580.658 180.572 L 579.624 181.103 L 578.59 181.629 L 577.555 182.151 L 576.521 182.67 L 575.487 183.185 L 574.453 183.696 L 573.419 184.203 L 572.385 184.706 L 571.351 185.206 L 570.317 185.702 L 569.283 186.194 L 568.249 186.683 L 567.215 187.168 L 566.181 187.65 L 565.147 188.128 L 564.114 188.603 L 563.08 189.074 L 562.046 189.542 L 561.012 190.006 L 559.978 190.468 L 558.944 190.925 L 557.91 191.38 L 556.876 191.831 L 555.842 192.279 L 554.809 192.724 L 553.775 193.166 L 552.741 193.604 L 551.707 194.039 L 550.673 194.472 L 549.639 194.901 L 548.606 195.327 L 547.572 195.751 L 546.538 196.171 L 545.504 196.588 L 544.47 197.003 L 543.436 197.414 L 542.403 197.823 L 541.369 198.229 L 540.335 198.632 L 539.301 199.032 L 538.267 199.429 L 537.234 199.824 L 536.2 200.216 L 535.166 200.605 L 534.132 200.992 L 533.098 201.376 L 532.065 201.758 L 531.031 202.137 L 529.997 202.513 L 528.963 202.887 L 527.929 203.258 L 526.896 203.627 L 525.862 203.993 L 524.828 204.357 L 523.794 204.719 L 522.76 205.078 L 521.726 205.435 L 520.693 205.789 L 519.659 206.141 L 518.625 206.491 L 517.591 206.839 L 516.557 207.184 L 515.523 207.527 L 514.489 207.868 L 513.455 208.206 L 512.422 208.543 L 511.388 208.877 L 510.354 209.209 L 509.32 209.54 L 508.286 209.868 L 507.252 210.194 L 506.218 210.517 L 505.184 210.839 L 504.15 211.159 L 503.116 211.477 L 502.082 211.793 L 501.048 212.107 L 500.014 212.419 L 498.98 212.729 L 497.946 213.038 L 496.912 213.344 L 495.878 213.649 L 494.844 213.951 L 493.81 214.252 L 492.776 214.551 L 491.742 214.849 L 490.707 215.144 L 489.673 215.438 L 488.639 215.73 L 487.605 216.021 L 486.571 216.309 L 485.536 216.597 L 484.502 216.882 L 483.468 217.166 L 482.434 217.448 L 481.399 217.728 L 480.365 218.007 L 479.331 218.285 L 478.296 218.56 L 477.262 218.835 L 476.228 219.107 L 475.193 219.378 L 474.159 219.648 L 473.124 219.916 L 472.09 220.183 L 471.055 220.448 L 470.021 220.712 L 468.986 220.975 L 467.952 221.236 L 466.917 221.495 L 465.883 221.753 L 464.848 222.01 L 463.814 222.266 L 462.779 222.52 L 461.744 222.773 L 460.709 223.024 L 459.675 223.274 L 458.64 223.523 L 457.605 223.771 L 456.57 224.017 L 455.536 224.262 L 454.501 224.506 L 453.466 224.749 L 452.431 224.99 L 451.396 225.23 L 450.361 225.469 L 449.326 225.707 L 448.291 225.944 L 447.256 226.179 L 446.221 226.413 L 445.186 226.647 L 444.151 226.879 L 443.115 227.11 L 442.08 227.339 L 441.045 227.568 L 440.01 227.796 L 438.975 228.022 L 437.939 228.248 L 436.904 228.472 L 435.869 228.696 L 434.833 228.918 L 433.798 229.14 L 432.762 229.36 L 431.727 229.579 L 430.691 229.798 L 429.656 230.015 L 428.62 230.232 L 427.585 230.447 L 426.549 230.662 L 425.513 230.875 L 424.478 231.088 L 423.442 231.3 L 422.406 231.51 L 421.37 231.72 L 420.334 231.929 L 419.299 232.137 L 418.263 232.344 L 417.227 232.551 L 416.191 232.756 L 415.155 232.961 L 414.119 233.165 L 413.083 233.367 L 412.046 233.57 L 411.01 233.771 L 409.974 233.971 L 408.938 234.171 L 407.902 234.369 L 406.865 234.567 L 405.829 234.765 L 404.793 234.961 L 403.756 235.157 L 402.72 235.352 L 401.683 235.546 L 400.647 235.739 L 399.61 235.932 L 398.574 236.123 L 397.537 236.315 L 396.501 236.505 L 395.464 236.695 L 394.427 236.884 L 393.391 237.072 L 392.354 237.259 L 391.317 237.446 L 390.28 237.632 L 389.243 237.818 L 388.206 238.002 L 387.169 238.187 L 386.132 238.37 L 385.095 238.553 L 384.058 238.735 L 383.021 238.916 L 381.984 239.097 L 380.947 239.277 L 379.909 239.457 L 378.872 239.636 L 377.835 239.814 L 376.797 239.992 L 375.76 240.169 L 374.723 240.345 L 373.685 240.521 L 372.648 240.697 L 371.61 240.871 L 370.573 241.045 L 369.535 241.219 L 368.497 241.392 L 367.46 241.564 L 366.422 241.736 L 365.384 241.907 L 364.346 242.078 L 363.308 242.248 L 362.271 242.418 L 361.233 242.587 L 360.195 242.755 L 359.157 242.923 L 358.119 243.091 L 357.081 243.258 L 356.043 243.424 L 355.004 243.59 L 353.966 243.755 L 352.928 243.92 L 351.89 244.084 L 350.851 244.248 L 349.813 244.412 L 348.775 244.575 L 347.736 244.737 L 346.698 244.899 L 345.659 245.06 L 344.621 245.221 L 343.582 245.382 L 342.544 245.542 L 341.505 245.701 L 340.466 245.86 L 339.428 246.019 L 338.389 246.177 L 337.35 246.335 L 336.311 246.492 L 335.272 246.649 L 334.233 246.805 L 333.194 246.961 L 332.155 247.117 L 331.116 247.272 L 330.077 247.427 L 329.038 247.581 L 327.999 247.735 L 326.96 247.888 L 325.921 248.041 L 324.881 248.194 L 323.842 248.346 L 322.803 248.498 L 321.763 248.649 L 320.724 248.8 L 319.685 248.951 L 318.645 249.101 L 317.606 249.251 L 316.566 249.4 L 315.526 249.549 L 314.487 249.698 L 313.447 249.846 L 312.407 249.994 L 311.368 250.142 L 310.328 250.289 L 309.288 250.436 L 308.248 250.582 L 307.208 250.729 L 306.168 250.874 L 305.129 251.02 L 304.089 251.165 L 303.048 251.31 L 302.008 251.454 L 300.968 251.598 L 299.928 251.742 L 298.888 251.885 L 297.848 252.028 L 296.808 252.171 L 295.767 252.313 L 294.727 252.455 L 293.687 252.597 L 292.646 252.738 L 291.606 252.879 L 290.565 253.02 L 289.525 253.16 L 288.484 253.301 L 287.444 253.44 L 286.403 253.58 L 285.363 253.719 L 284.322 253.858 L 283.281 253.997 L 282.24 254.135 L 281.2 254.273 L 280.159 254.411 L 279.118 254.548 L 278.077 254.685 L 277.036 254.822 L 275.995 254.959 L 274.954 255.095 L 273.913 255.231 L 272.872 255.366 L 271.831 255.502 L 270.79 255.637 L 269.749 255.772 L 268.708 255.907 L 267.667 256.041 L 266.625 256.175 L 265.584 256.309 L 264.543 256.442 L 263.502 256.576 L 262.46 256.709 L 261.419 256.842 L 260.377 256.974 L 259.336 257.106 L 258.294 257.238 L 257.253 257.37 L 256.211 257.502 L 255.17 257.633 L 254.128 257.764 L 253.087 257.895 L 252.045 258.026 L 251.003 258.156 L 249.961 258.286 L 248.92 258.416 L 247.878 258.545 L 246.836 258.675 L 245.794 258.804 L 244.752 258.933 L 243.71 259.062 L 242.669 259.19 L 241.627 259.319 L 240.585 259.447 L 239.543 259.575 L 238.5 259.702 L 237.458 259.83 L 236.416 259.957 L 235.374 260.084 L 234.332 260.211 L 233.29 260.337 L 232.248 260.464 L 231.205 260.59 L 230.163 260.716 L 229.121 260.842 L 228.078 260.967 L 227.036 261.093 L 225.994 261.218 L 224.951 261.343 L 223.909 261.468 L 222.866 261.593 L 221.824 261.717 L 220.781 261.841 L 219.739 261.965 L 218.696 262.089 L 217.654 262.213 L 216.611 262.337 L 215.568 262.46 L 214.526 262.583 L 213.483 262.706 L 212.44 262.829 L 211.398 262.952 L 210.355 263.074 L 209.312 263.197 L 208.269 263.319 L 207.227 263.441 L 206.184 263.563 L 205.141 263.685 L 204.098 263.806 L 203.055 263.928 L 202.012 264.049 L 200.969 264.17 L 199.926 264.291 L 198.883 264.412 L 197.84 264.533 L 196.797 264.653 L 195.754 264.774 L 194.711 264.894 L 193.668 265.014 L 192.625 265.134 L 191.582 265.254 L 190.538 265.373 L 189.495 265.493 L 188.452 265.612 L 187.409 265.732 L 186.366 265.851 L 185.322 265.97 L 184.279 266.089 L 183.236 266.208 L 182.193 266.326 L 181.149 266.445 L 180.106 266.564 L 179.063 266.682 L 178.019 266.8 L 176.976 266.918 L 175.932 267.036 L 174.889 267.154 L 173.846 267.272 L 172.802 267.39 L 171.759 267.507 L 170.715 267.625 L 169.672 267.742 L 168.628 267.86 L 167.585 267.977 L 166.541 268.094 L 165.498 268.211 L 164.454 268.328 L 163.411 268.445 L 162.367 268.562 L 161.323 268.679 L 160.28 268.795 L 159.236 268.912 L 158.193 269.029 L 157.149 269.145 L 156.105 269.261 L 155.062 269.378 L 154.018 269.494 L 152.975 269.61 L 151.931 269.726 L 150.887 269.842 L 149.844 269.958 L 148.8 270.074 L 147.756 270.19 L 146.712 270.306 L 145.669 270.422 L 144.625 270.538 L 143.581 270.654 L 142.538 270.769 L 141.494 270.885 L 140.45 271.001 L 139.407 271.116 L 138.363 271.232 L 137.319 271.348 L 136.275 271.463 L 135.232 271.579 L 134.188 271.694 L 133.144 271.81 L 132.1 271.925 L 131.057 272.041 L 130.013 272.156 L 128.969 272.272 L 127.926 272.387 L 126.882 272.503 L 125.838 272.618 L 124.795 272.734 L 123.751 272.85 L 122.707 272.965 L 121.664 273.081 L 120.62 273.196 L 119.576 273.312 L 118.533 273.428 L 117.489 273.544 L 116.445 273.659 L 115.402 273.775 L 114.358 273.891 L 113.314 274.007 L 112.271 274.123 L 111.227 274.239 L 110.184 274.355 L 109.14 274.471 L 108.097 274.588 L 107.053 274.704 L 106.01 274.82 L 104.966 274.937 L 103.923 275.054 L 102.879 275.17 L 101.836 275.287 L 100.793 275.404 L 99.749 275.521 L 98.706 275.638 L 97.663 275.755 L 96.619 275.873 L 95.576 275.99 L 94.533 276.108 L 93.49 276.226 L 92.446 276.344 L 91.403 276.462 L 90.36 276.58 L 89.317 276.699 L 88.274 276.817 L 87.231 276.936 L 86.188 277.055 L 85.145 277.174 L 84.102 277.294 L 83.059 277.413 L 82.017 277.533 L 80.974 277.653 L 79.931 277.773 L 78.888 277.894 L 77.846 278.015 L 76.803 278.136 L 75.761 278.257 L 74.718 278.378 L 73.676 278.5 L 72.633 278.622 L 71.591 278.745 L 70.549 278.867 L 69.507 278.99 L 68.464 279.114 L 67.422 279.238 L 66.38 279.362 L 65.338 279.486 L 64.297 279.611 L 63.255 279.736 L 62.213 279.861 L 61.171 279.987 L 60.13 280.114 L 59.088 280.24 L 58.047 280.368 L 57.006 280.495 L 55.964 280.624 L 54.923 280.752 L 53.882 280.881 L 52.841 281.011 L 51.8 281.141 L 50.76 281.272 L 49.719 281.403 L 48.679 281.535 L 47.638 281.668 L 46.598 281.801 L 45.558 281.934 L 44.518 282.069 L 43.478 282.204 L 42.438 282.34 L 41.398 282.476 L 40.359 282.613 L 39.319 282.751 L 38.28 282.89 L 37.241 283.03 L 36.202 283.17 L 35.163 283.311 L 34.125 283.454 L 33.086 283.597 L 32.048 283.741 L 31.01 283.886 L 29.972 284.032 L 28.934 284.179 L 27.897 284.328 L 26.86 284.477 L 25.823 284.628 L 24.786 284.779 L 23.749 284.933 L 22.713 285.087 L 21.677 285.243 L 20.641 285.4 L 19.605 285.559 L 18.57 285.719 L 17.535 285.881 L 16.501 286.044 L 15.466 286.209 L 14.432 286.376 L 13.398 286.545 L 12.365 286.716 L 11.332 286.889 L 10.3 287.064 L 9.267 287.241 L 8.236 287.42 L 7.204 287.602 L 6.174 287.787 L 5.143 287.974 L 4.113 288.164 L 3.084 288.357 L 2.056 288.553 L 1.027 288.753 L 0 288.956 L 7.464 330.048 L 8.493 329.86 L 9.523 329.672 L 10.552 329.483 L 11.582 329.295 L 12.611 329.107 L 13.641 328.918 L 14.67 328.73 L 15.7 328.542 L 16.729 328.354 L 17.758 328.165 L 18.788 327.977 L 19.817 327.789 L 20.847 327.6 L 21.876 327.412 L 22.906 327.224 L 23.935 327.035 L 24.965 326.847 L 25.994 326.659 L 27.024 326.47 L 28.053 326.282 L 29.083 326.094 L 30.112 325.905 L 31.142 325.717 L 32.171 325.529 L 33.201 325.341 L 34.23 325.152 L 35.26 324.964 L 36.289 324.776 L 37.319 324.587 L 38.348 324.399 L 39.377 324.211 L 40.407 324.022 L 41.436 323.834 L 42.466 323.646 L 43.495 323.457 L 44.525 323.269 L 45.554 323.081 L 46.584 322.892 L 47.613 322.704 L 48.643 322.516 L 49.672 322.327 L 50.702 322.139 L 51.731 321.951 L 52.761 321.762 L 53.79 321.574 L 54.82 321.386 L 55.849 321.197 L 56.879 321.009 L 57.908 320.821 L 58.937 320.632 L 59.967 320.444 L 60.996 320.256 L 62.026 320.067 L 63.055 319.879 L 64.085 319.691 L 65.114 319.502 L 66.144 319.314 L 67.173 319.126 L 68.203 318.937 L 69.232 318.749 L 70.262 318.561 L 71.291 318.372 L 72.321 318.184 L 73.35 317.996 L 74.38 317.807 L 75.409 317.619 L 76.438 317.43 L 77.468 317.242 L 78.497 317.054 L 79.527 316.865 L 80.556 316.677 L 81.586 316.489 L 82.615 316.3 L 83.645 316.112 L 84.674 315.923 L 85.704 315.735 L 86.733 315.547 L 87.763 315.358 L 88.792 315.17 L 89.822 314.981 L 90.851 314.793 L 91.88 314.605 L 92.91 314.416 L 93.939 314.228 L 94.969 314.039 L 95.998 313.851 L 97.028 313.663 L 98.057 313.474 L 99.087 313.286 L 100.116 313.097 L 101.146 312.909 L 102.175 312.72 L 103.204 312.532 L 104.234 312.344 L 105.263 312.155 L 106.293 311.967 L 107.322 311.778 L 108.352 311.59 L 109.381 311.401 L 110.411 311.213 L 111.44 311.024 L 112.47 310.836 L 113.499 310.647 L 114.528 310.459 L 115.558 310.27 L 116.587 310.082 L 117.617 309.893 L 118.646 309.705 L 119.676 309.516 L 120.705 309.328 L 121.735 309.139 L 122.764 308.951 L 123.793 308.762 L 124.823 308.574 L 125.852 308.385 L 126.882 308.197 L 127.911 308.008 L 128.941 307.82 L 129.97 307.631 L 131 307.442 L 132.029 307.254 L 133.058 307.065 L 134.088 306.877 L 135.117 306.688 L 136.147 306.499 L 137.176 306.311 L 138.206 306.122 L 139.235 305.934 L 140.264 305.745 L 141.294 305.556 L 142.323 305.368 L 143.353 305.179 L 144.382 304.99 L 145.412 304.802 L 146.441 304.613 L 147.47 304.424 L 148.5 304.236 L 149.529 304.047 L 150.559 303.858 L 151.588 303.669 L 152.618 303.481 L 153.647 303.292 L 154.676 303.103 L 155.706 302.915 L 156.735 302.726 L 157.765 302.537 L 158.794 302.348 L 159.824 302.159 L 160.853 301.971 L 161.882 301.782 L 162.912 301.593 L 163.941 301.404 L 164.971 301.215 L 166 301.026 L 167.029 300.837 L 168.059 300.649 L 169.088 300.46 L 170.118 300.271 L 171.147 300.082 L 172.176 299.893 L 173.206 299.704 L 174.235 299.515 L 175.265 299.326 L 176.294 299.137 L 177.323 298.948 L 178.353 298.759 L 179.382 298.57 L 180.412 298.381 L 181.441 298.192 L 182.47 298.003 L 183.5 297.814 L 184.529 297.625 L 185.558 297.436 L 186.588 297.246 L 187.617 297.057 L 188.647 296.868 L 189.676 296.679 L 190.705 296.49 L 191.735 296.301 L 192.764 296.111 L 193.793 295.922 L 194.823 295.733 L 195.852 295.544 L 196.882 295.354 L 197.911 295.165 L 198.94 294.976 L 199.97 294.786 L 200.999 294.597 L 202.028 294.407 L 203.058 294.218 L 204.087 294.029 L 205.116 293.839 L 206.146 293.65 L 207.175 293.46 L 208.204 293.271 L 209.234 293.081 L 210.263 292.892 L 211.293 292.702 L 212.322 292.512 L 213.351 292.323 L 214.381 292.133 L 215.41 291.943 L 216.439 291.754 L 217.469 291.564 L 218.498 291.374 L 219.527 291.185 L 220.557 290.995 L 221.586 290.805 L 222.615 290.615 L 223.644 290.425 L 224.674 290.235 L 225.703 290.045 L 226.732 289.855 L 227.762 289.665 L 228.791 289.475 L 229.82 289.285 L 230.85 289.095 L 231.879 288.905 L 232.908 288.715 L 233.938 288.525 L 234.967 288.335 L 235.996 288.144 L 237.026 287.954 L 238.055 287.764 L 239.084 287.574 L 240.113 287.383 L 241.143 287.193 L 242.172 287.002 L 243.201 286.812 L 244.231 286.621 L 245.26 286.431 L 246.289 286.24 L 247.318 286.05 L 248.348 285.859 L 249.377 285.668 L 250.406 285.478 L 251.435 285.287 L 252.465 285.096 L 253.494 284.905 L 254.523 284.714 L 255.552 284.523 L 256.582 284.332 L 257.611 284.141 L 258.64 283.95 L 259.67 283.759 L 260.699 283.568 L 261.728 283.377 L 262.757 283.186 L 263.786 282.994 L 264.816 282.803 L 265.845 282.612 L 266.874 282.42 L 267.903 282.229 L 268.933 282.037 L 269.962 281.846 L 270.991 281.654 L 272.02 281.463 L 273.05 281.271 L 274.079 281.079 L 275.108 280.887 L 276.137 280.695 L 277.166 280.503 L 278.196 280.311 L 279.225 280.119 L 280.254 279.927 L 281.283 279.735 L 282.312 279.543 L 283.342 279.351 L 284.371 279.158 L 285.4 278.966 L 286.429 278.773 L 287.458 278.581 L 288.488 278.388 L 289.517 278.195 L 290.546 278.003 L 291.575 277.81 L 292.604 277.617 L 293.633 277.424 L 294.663 277.231 L 295.692 277.038 L 296.721 276.845 L 297.75 276.652 L 298.779 276.458 L 299.808 276.265 L 300.838 276.072 L 301.867 275.878 L 302.896 275.684 L 303.925 275.491 L 304.954 275.297 L 305.983 275.103 L 307.012 274.909 L 308.042 274.715 L 309.071 274.521 L 310.1 274.327 L 311.129 274.133 L 312.158 273.938 L 313.187 273.744 L 314.216 273.549 L 315.245 273.355 L 316.274 273.16 L 317.304 272.965 L 318.333 272.77 L 319.362 272.575 L 320.391 272.38 L 321.42 272.185 L 322.449 271.99 L 323.478 271.794 L 324.507 271.599 L 325.536 271.403 L 326.565 271.208 L 327.595 271.012 L 328.624 270.816 L 329.653 270.62 L 330.682 270.424 L 331.711 270.227 L 332.74 270.031 L 333.769 269.835 L 334.798 269.638 L 335.827 269.441 L 336.856 269.244 L 337.885 269.047 L 338.914 268.85 L 339.943 268.653 L 340.972 268.456 L 342.001 268.258 L 343.03 268.061 L 344.06 267.863 L 345.089 267.665 L 346.118 267.467 L 347.147 267.269 L 348.176 267.071 L 349.205 266.872 L 350.234 266.674 L 351.263 266.475 L 352.292 266.276 L 353.321 266.077 L 354.35 265.878 L 355.379 265.679 L 356.408 265.479 L 357.437 265.28 L 358.466 265.08 L 359.495 264.88 L 360.524 264.68 L 361.553 264.48 L 362.582 264.279 L 363.611 264.079 L 364.64 263.878 L 365.669 263.677 L 366.698 263.476 L 367.727 263.275 L 368.756 263.073 L 369.785 262.872 L 370.814 262.67 L 371.843 262.468 L 372.872 262.266 L 373.901 262.063 L 374.93 261.861 L 375.959 261.658 L 376.988 261.455 L 378.017 261.252 L 379.046 261.048 L 380.075 260.845 L 381.104 260.641 L 382.132 260.437 L 383.161 260.233 L 384.19 260.028 L 385.219 259.824 L 386.248 259.619 L 387.277 259.414 L 388.306 259.208 L 389.335 259.003 L 390.364 258.797 L 391.393 258.591 L 392.422 258.384 L 393.451 258.178 L 394.48 257.971 L 395.509 257.764 L 396.538 257.557 L 397.567 257.349 L 398.596 257.141 L 399.625 256.933 L 400.654 256.725 L 401.683 256.516 L 402.711 256.308 L 403.74 256.098 L 404.769 255.889 L 405.798 255.679 L 406.827 255.469 L 407.856 255.259 L 408.885 255.048 L 409.914 254.837 L 410.943 254.626 L 411.972 254.415 L 413.001 254.203 L 414.03 253.991 L 415.059 253.778 L 416.088 253.565 L 417.116 253.352 L 418.145 253.139 L 419.174 252.925 L 420.203 252.711 L 421.232 252.496 L 422.261 252.281 L 423.29 252.066 L 424.319 251.851 L 425.348 251.635 L 426.377 251.419 L 427.406 251.202 L 428.435 250.985 L 429.464 250.768 L 430.493 250.55 L 431.521 250.332 L 432.55 250.113 L 433.579 249.894 L 434.608 249.675 L 435.637 249.455 L 436.666 249.235 L 437.695 249.014 L 438.724 248.793 L 439.753 248.571 L 440.782 248.349 L 441.811 248.127 L 442.84 247.904 L 443.869 247.681 L 444.898 247.457 L 445.927 247.233 L 446.956 247.008 L 447.984 246.783 L 449.013 246.557 L 450.042 246.331 L 451.071 246.104 L 452.1 245.877 L 453.129 245.65 L 454.158 245.421 L 455.187 245.193 L 456.216 244.963 L 457.245 244.734 L 458.274 244.503 L 459.303 244.272 L 460.332 244.041 L 461.361 243.809 L 462.39 243.576 L 463.419 243.343 L 464.448 243.11 L 465.477 242.875 L 466.506 242.64 L 467.535 242.405 L 468.564 242.169 L 469.593 241.932 L 470.622 241.694 L 471.651 241.456 L 472.68 241.217 L 473.709 240.978 L 474.738 240.738 L 475.767 240.497 L 476.796 240.256 L 477.825 240.014 L 478.854 239.771 L 479.883 239.528 L 480.912 239.283 L 481.941 239.038 L 482.97 238.793 L 483.999 238.546 L 485.028 238.299 L 486.057 238.051 L 487.087 237.802 L 488.116 237.553 L 489.145 237.303 L 490.174 237.052 L 491.203 236.8 L 492.232 236.547 L 493.261 236.293 L 494.29 236.039 L 495.319 235.784 L 496.348 235.528 L 497.377 235.271 L 498.407 235.013 L 499.436 234.754 L 500.465 234.494 L 501.494 234.234 L 502.523 233.972 L 503.552 233.71 L 504.581 233.446 L 505.611 233.182 L 506.64 232.916 L 507.669 232.65 L 508.698 232.383 L 509.727 232.114 L 510.757 231.845 L 511.786 231.574 L 512.815 231.303 L 513.844 231.03 L 514.873 230.756 L 515.903 230.482 L 516.932 230.206 L 517.961 229.929 L 518.99 229.651 L 520.02 229.372 L 521.049 229.091 L 522.078 228.809 L 523.107 228.527 L 524.137 228.243 L 525.166 227.957 L 526.195 227.671 L 527.225 227.383 L 528.254 227.094 L 529.283 226.804 L 530.313 226.513 L 531.342 226.22 L 532.371 225.926 L 533.401 225.63 L 534.43 225.333 L 535.459 225.035 L 536.489 224.735 L 537.518 224.434 L 538.548 224.132 L 539.577 223.828 L 540.606 223.522 L 541.636 223.215 L 542.665 222.907 L 543.695 222.597 L 544.724 222.286 L 545.754 221.973 L 546.783 221.658 L 547.813 221.342 L 548.842 221.024 L 549.872 220.705 L 550.901 220.384 L 551.931 220.061 L 552.96 219.737 L 553.99 219.41 L 555.019 219.082 L 556.049 218.753 L 557.078 218.421 L 558.108 218.088 L 559.137 217.753 L 560.167 217.416 L 561.196 217.078 L 562.226 216.737 L 563.256 216.395 L 564.285 216.05 L 565.315 215.704 L 566.344 215.355 L 567.374 215.005 L 568.404 214.652 L 569.433 214.298 L 570.463 213.941 L 571.493 213.583 L 572.522 213.222 L 573.552 212.859 L 574.582 212.494 L 575.612 212.127 L 576.641 211.757 L 577.671 211.385 L 578.701 211.011 L 579.73 210.635 L 580.76 210.256 L 581.79 209.875 L 582.82 209.491 L 583.849 209.105 L 584.879 208.717 L 585.909 208.326 L 586.939 207.933 L 587.969 207.537 L 588.998 207.138 L 590.028 206.737 L 591.058 206.333 L 592.088 205.927 L 593.118 205.517 L 594.148 205.105 L 595.178 204.691 L 596.208 204.273 L 597.237 203.853 L 598.267 203.429 L 599.297 203.003 L 600.327 202.574 L 601.357 202.142 L 602.387 201.706 L 603.417 201.268 L 604.447 200.827 L 605.477 200.382 L 606.507 199.934 L 607.537 199.483 L 608.567 199.029 L 609.597 198.572 L 610.627 198.111 L 611.657 197.646 L 612.687 197.179 L 613.717 196.708 L 614.747 196.233 L 615.777 195.755 L 616.807 195.273 L 617.837 194.787 L 618.867 194.298 L 619.897 193.805 L 620.928 193.308 L 621.958 192.807 L 622.988 192.302 L 624.018 191.794 L 625.048 191.281 L 626.078 190.765 L 627.108 190.244 L 628.139 189.719 L 629.169 189.19 L 630.199 188.656 L 631.229 188.119 L 632.259 187.576 L 633.29 187.03 L 634.32 186.479 L 635.35 185.923 L 636.38 185.363 L 637.411 184.797 L 638.441 184.228 L 639.471 183.653 L 640.502 183.073 L 641.532 182.489 L 642.562 181.899 L 643.593 181.305 L 644.623 180.705 L 645.653 180.1 L 646.684 179.489 L 647.714 178.873 L 648.745 178.252 L 649.775 177.625 L 650.805 176.993 L 651.836 176.354 L 652.866 175.71 L 653.897 175.06 L 654.927 174.404 L 655.958 173.743 L 656.988 173.074 L 658.019 172.4 L 659.049 171.719 L 660.08 171.032 L 661.111 170.339 L 662.141 169.638 L 663.172 168.931 L 664.203 168.218 L 665.233 167.497 L 666.264 166.769 L 667.295 166.034 L 668.325 165.292 L 669.356 164.542 L 670.387 163.785 L 671.418 163.02 L 672.448 162.248 L 673.479 161.467 L 674.51 160.679 L 675.541 159.882 L 676.572 159.078 L 677.603 158.265 L 678.634 157.443 L 679.664 156.612 L 680.695 155.773 L 681.726 154.925 L 682.757 154.068 L 683.789 153.201 L 684.82 152.325 L 685.851 151.439 L 686.882 150.543 L 687.913 149.638 L 688.944 148.722 L 689.976 147.796 L 691.007 146.859 L 692.038 145.912 L 693.069 144.954 L 694.101 143.984 L 695.132 143.003 L 696.164 142.011 L 697.195 141.007 L 698.227 139.991 L 699.258 138.962 L 700.29 137.921 L 701.322 136.867 L 702.353 135.801 L 703.385 134.721 L 704.417 133.627 L 705.449 132.52 L 706.481 131.398 L 707.513 130.262 L 708.545 129.111 L 709.577 127.945 L 710.609 126.764 L 711.641 125.567 L 712.674 124.354 L 713.706 123.125 L 714.738 121.878 L 715.771 120.615 L 716.803 119.333 L 717.836 118.034 L 718.869 116.716 L 719.902 115.38 L 720.935 114.023 L 721.968 112.647 L 723.001 111.251 L 724.034 109.833 L 725.067 108.394 L 726.101 106.933 L 727.134 105.45 L 728.168 103.943 L 729.202 102.412 L 730.235 100.856 L 731.27 99.276 L 732.304 97.669 L 733.338 96.035 L 734.372 94.374 L 735.407 92.685 L 736.442 90.966 L 737.477 89.217 L 738.512 87.436 L 739.547 85.624 L 739.546 85.549 L 739.545 85.475 L 739.543 85.401 L 739.542 85.326 L 739.54 85.252 L 739.539 85.177 L 739.538 85.103 L 739.536 85.028 L 739.535 84.953 L 739.534 84.879 L 739.532 84.804 L 739.531 84.73 L 739.53 84.655 L 739.528 84.58 L 739.527 84.506 L 739.526 84.431 L 739.524 84.356 L 739.523 84.281 L 739.521 84.206 L 739.52 84.132 L 739.519 84.057 L 739.517 83.982 L 739.516 83.907 L 739.515 83.832 L 739.513 83.757 L 739.512 83.682 L 739.511 83.607 L 739.509 83.532 L 739.508 83.457 L 739.507 83.382 L 739.505 83.307 L 739.504 83.232 L 739.503 83.157 L 739.501 83.082 L 739.5 83.007 L 739.499 82.931 L 739.497 82.856 L 739.496 82.781 L 739.495 82.706 L 739.493 82.63 L 739.492 82.555 L 739.491 82.48 L 739.489 82.404 L 739.488 82.329 L 739.487 82.254 L 739.485 82.178 L 739.484 82.103 L 739.483 82.027 L 739.481 81.952 L 739.48 81.876 L 739.479 81.801 L 739.477 81.725 L 739.476 81.65 L 739.475 81.574 L 739.473 81.499 L 739.472 81.423 L 739.471 81.347 L 739.469 81.272 L 739.468 81.196 L 739.467 81.12 L 739.465 81.044 L 739.464 80.969 L 739.463 80.893 L 739.461 80.817 L 739.46 80.741 L 739.459 80.665 L 739.457 80.589 L 739.456 80.513 L 739.455 80.438 L 739.453 80.362 L 739.452 80.286 L 739.451 80.21 L 739.449 80.134 L 739.448 80.058 L 739.447 79.981 L 739.445 79.905 L 739.444 79.829 L 739.443 79.753 L 739.441 79.677 L 739.44 79.601 L 739.439 79.525 L 739.437 79.448 L 739.436 79.372 L 739.435 79.296 L 739.434 79.22 L 739.432 79.143 L 739.431 79.067 L 739.43 78.991 L 739.428 78.914 L 739.427 78.838 L 739.426 78.761 L 739.424 78.685 L 739.423 78.608 L 739.422 78.532 L 739.42 78.455 L 739.419 78.379 L 739.418 78.302 L 739.416 78.226 L 739.415 78.149 L 739.414 78.072 L 739.413 77.996 L 739.411 77.919 L 739.41 77.842 L 739.409 77.766 L 739.407 77.689 L 739.406 77.612 L 739.405 77.535 L 739.403 77.459 L 739.402 77.382 L 739.401 77.305 L 739.4 77.228 L 739.398 77.151 L 739.397 77.074 L 739.396 76.997 L 739.394 76.92 L 739.393 76.843 L 739.392 76.766 L 739.39 76.689 L 739.389 76.612 L 739.388 76.535 L 739.387 76.458 L 739.385 76.381 L 739.384 76.304 L 739.383 76.226 L 739.381 76.149 L 739.38 76.072 L 739.379 75.995 L 739.378 75.917 L 739.376 75.84 L 739.375 75.763 L 739.374 75.686 L 739.372 75.608 L 739.371 75.531 L 739.37 75.453 L 739.368 75.376 L 739.367 75.299 L 739.366 75.221 L 739.365 75.144 L 739.363 75.066 L 739.362 74.989 L 739.361 74.911 L 739.359 74.833 L 739.358 74.756 L 739.357 74.678 L 739.356 74.6 L 739.354 74.523 L 739.353 74.445 L 739.352 74.367 L 739.351 74.29 L 739.349 74.212 L 739.348 74.134 L 739.347 74.056 L 739.345 73.978 L 739.344 73.901 L 739.343 73.823 L 739.342 73.745 L 739.34 73.667 L 739.339 73.589 L 739.338 73.511 L 739.336 73.433 L 739.335 73.355 L 739.334 73.277 L 739.333 73.199 L 739.331 73.121 L 739.33 73.043 L 739.329 72.965 L 739.328 72.886 L 739.326 72.808 L 739.325 72.73 L 739.324 72.652 L 739.322 72.574 L 739.321 72.495 L 739.32 72.417 L 739.319 72.339 L 739.317 72.26 L 739.316 72.182 L 739.315 72.104 L 739.314 72.025 L 739.312 71.947 L 739.311 71.868 L 739.31 71.79 L 739.309 71.711 L 739.307 71.633 L 739.306 71.554 L 739.305 71.476 L 739.304 71.397 L 739.302 71.319 L 739.301 71.24 L 739.3 71.161 L 739.298 71.083 L 739.297 71.004 L 739.296 70.925 L 739.295 70.847 L 739.293 70.768 L 739.292 70.689 L 739.291 70.61 L 739.29 70.531 L 739.288 70.453 L 739.287 70.374 L 739.286 70.295 L 739.285 70.216 L 739.283 70.137 L 739.282 70.058 L 739.281 69.979 L 739.28 69.9 L 739.278 69.821 L 739.277 69.742 L 739.276 69.663 L 739.275 69.584 L 739.273 69.505 L 739.272 69.425 L 739.271 69.346 L 739.27 69.267 L 739.268 69.188 L 739.268 69.156 L 742.97 69.751 L 742.838 61.012 L 739.155 61.719 L 735.472 62.423 L 735.347 53.625 L 739.049 54.224 L 742.75 54.826 L 742.634 45.995 L 738.95 46.695 L 735.265 47.391 L 735.156 38.55 L 738.857 39.156 L 742.557 39.764 L 742.456 30.937 L 738.771 31.63 L 735.085 32.32 L 734.991 23.529 L 738.691 24.141 L 742.39 24.756 L 742.304 16.023 L 738.617 16.711 L 738.616 16.545 L 738.615 16.452 L 738.614 16.359 L 738.613 16.265 L 738.612 16.172 L 738.611 16.079 L 738.611 15.986 L 738.61 15.892 L 738.609 15.799 L 738.608 15.706 L 738.607 15.613 L 738.606 15.519 L 738.605 15.426 L 738.604 15.332 L 738.604 15.239 L 738.603 15.146 L 738.602 15.052 L 738.601 14.959 L 738.6 14.865 L 738.599 14.772 L 738.598 14.678 L 738.597 14.585 L 738.597 14.491 L 738.596 14.397 L 738.595 14.304 L 738.594 14.21 L 738.593 14.116 L 738.592 14.023 L 738.591 13.929 L 738.59 13.835 L 738.59 13.741 L 738.589 13.648 L 738.588 13.554 L 738.587 13.46 L 738.586 13.366 L 738.585 13.272 L 738.584 13.178 L 738.584 13.084 L 738.583 12.99 L 738.582 12.896 L 738.581 12.802 L 738.58 12.708 L 738.579 12.614 L 738.578 12.52 L 738.578 12.426 L 738.577 12.332 L 738.576 12.238 L 738.575 12.144 L 738.574 12.05 L 738.573 11.955 L 738.572 11.861 L 738.572 11.767 L 738.571 11.673 L 738.57 11.578 L 738.569 11.484 L 738.568 11.39 L 738.567 11.295 L 738.566 11.201 L 738.566 11.106 L 738.565 11.012 L 738.564 10.918 L 738.563 10.823 L 738.562 10.729 L 738.561 10.634 L 738.56 10.54 L 738.56 10.445 L 738.559 10.35 L 738.558 10.256 L 738.557 10.161 L 738.556 10.066 L 738.555 9.972 L 738.555 9.877 L 738.554 9.782 L 738.553 9.688 L 738.552 9.593 L 738.551 9.498 L 738.55 9.403 L 738.55 9.308 L 738.549 9.213 L 738.548 9.119 L 738.547 9.024 L 738.546 8.929 L 738.545 8.834 L 738.545 8.739 L 738.544 8.644 L 738.543 8.549 L 738.542 8.454 L 738.541 8.359 L 738.54 8.263 L 738.54 8.168 L 738.539 8.073 L 738.538 7.978 L 738.537 7.883 L 738.536 7.788 L 738.535 7.692 L 738.535 7.597 L 738.534 7.502 L 738.533 7.407 L 738.532 7.311 L 738.531 7.216 L 738.53 7.121 L 738.53 7.025 L 738.529 6.93 L 738.528 6.834 L 738.527 6.739 L 738.526 6.643 L 738.525 6.548 L 738.525 6.452 L 738.524 6.357 L 738.523 6.261 L 738.522 6.166 L 738.521 6.07 L 738.521 5.974 L 738.52 5.879 L 738.519 5.783 L 738.518 5.687 L 738.517 5.592 L 738.517 5.496 L 738.516 5.4 L 738.515 5.304 L 738.514 5.208 L 738.513 5.113 L 738.512 5.017 L 738.512 4.921 L 738.511 4.825 L 738.51 4.729 L 738.509 4.633 L 738.508 4.537 L 738.508 4.441 L 738.507 4.345 L 738.506 4.249 L 738.505 4.153 L 738.504 4.057 L 738.504 3.961 L 738.503 3.864 L 738.502 3.768 L 738.501 3.672 L 738.5 3.576 L 738.5 3.48 L 738.499 3.383 L 738.498 3.287 L 738.497 3.191 L 738.496 3.094 L 738.496 2.998 L 738.495 2.902 L 738.494 2.805 L 738.493 2.709 L 738.492 2.612 L 738.492 2.516 L 738.491 2.42 L 738.49 2.323 L 738.489 2.227 L 738.488 2.13 L 738.488 2.033 L 738.487 1.937 L 738.486 1.84 L 738.485 1.744 L 738.485 1.647 L 738.484 1.55 L 738.483 1.453 L 738.482 1.357 L 738.481 1.26 L 738.481 1.163 L 738.48 1.066 L 738.479 0.97 L 738.478 0.873 L 738.477 0.776 L 738.477 0.679 L 738.476 0.582 L 738.475 0.485 L 738.474 0.388 L 738.474 0.291 L 738.473 0.194 L 738.472 0.097 L 738.471 0 Z" vector-effect="non-scaling-stroke"/><path d="M 0 288.956 L 0.008 289.001 L 0.016 289.047 L 0.025 289.093 L 0.033 289.138 L 0.041 289.184 L 0.049 289.229 L 0.057 289.275 L 0.066 289.321 L 0.074 289.366 L 0.082 289.412 L 0.09 289.457 L 0.098 289.503 L 0.106 289.548 L 0.115 289.594 L 0.123 289.639 L 0.131 289.685 L 0.139 289.73 L 0.147 289.775 L 0.155 289.821 L 0.163 289.866 L 0.172 289.911 L 0.18 289.957 L 0.188 290.002 L 0.196 290.047 L 0.204 290.093 L 0.212 290.138 L 0.22 290.183 L 0.228 290.228 L 0.237 290.273 L 0.245 290.319 L 0.253 290.364 L 0.261 290.409 L 0.269 290.454 L 0.277 290.499 L 0.285 290.544 L 0.293 290.589 L 0.301 290.634 L 0.309 290.679 L 0.318 290.724 L 0.326 290.769 L 0.334 290.814 L 0.342 290.859 L 0.35 290.904 L 0.358 290.949 L 0.366 290.994 L 0.374 291.039 L 0.382 291.084 L 0.39 291.129 L 0.398 291.173 L 0.406 291.218 L 0.414 291.263 L 0.422 291.308 L 0.43 291.353 L 0.438 291.397 L 0.447 291.442 L 0.455 291.487 L 0.463 291.532 L 0.471 291.576 L 0.479 291.621 L 0.487 291.666 L 0.495 291.71 L 0.503 291.755 L 0.511 291.799 L 0.519 291.844 L 0.527 291.889 L 0.535 291.933 L 0.543 291.978 L 0.551 292.022 L 0.559 292.067 L 0.567 292.111 L 0.575 292.156 L 0.583 292.2 L 0.591 292.244 L 0.599 292.289 L 0.607 292.333 L 0.615 292.378 L 0.623 292.422 L 0.631 292.466 L 0.639 292.511 L 0.647 292.555 L 0.655 292.599 L 0.663 292.643 L 0.671 292.688 L 0.678 292.732 L 0.686 292.776 L 0.694 292.82 L 0.702 292.865 L 0.71 292.909 L 0.718 292.953 L 0.726 292.997 L 0.734 293.041 L 0.742 293.085 L 0.75 293.129 L 0.758 293.174 L 0.766 293.218 L 0.774 293.262 L 0.782 293.306 L 0.79 293.35 L 0.798 293.394 L 0.805 293.438 L 0.813 293.482 L 0.821 293.526 L 0.829 293.57 L 0.837 293.613 L 0.845 293.657 L 0.853 293.701 L 0.861 293.745 L 0.869 293.789 L 0.877 293.833 L 0.884 293.877 L 0.892 293.92 L 0.9 293.964 L 0.908 294.008 L 0.916 294.052 L 0.924 294.095 L 0.932 294.139 L 0.94 294.183 L 0.947 294.227 L 0.955 294.27 L 0.963 294.314 L 0.971 294.358 L 0.979 294.401 L 0.987 294.445 L 0.995 294.488 L 1.002 294.532 L 1.01 294.576 L 1.018 294.619 L 1.026 294.663 L 1.034 294.706 L 1.042 294.75 L 1.05 294.793 L 1.057 294.837 L 1.065 294.88 L 1.073 294.924 L 1.081 294.967 L 1.089 295.01 L 1.096 295.054 L 1.104 295.097 L 1.112 295.141 L 1.12 295.184 L 1.128 295.227 L 1.136 295.271 L 1.143 295.314 L 1.151 295.357 L 1.159 295.401 L 1.167 295.444 L 1.175 295.487 L 1.182 295.53 L 1.19 295.574 L 1.198 295.617 L 1.206 295.66 L 1.213 295.703 L 1.221 295.746 L 1.229 295.789 L 1.237 295.833 L 1.245 295.876 L 1.252 295.919 L 1.26 295.962 L 1.268 296.005 L 1.276 296.048 L 1.283 296.091 L 1.291 296.134 L 1.299 296.177 L 1.307 296.22 L 1.314 296.263 L 1.322 296.306 L 1.33 296.349 L 1.338 296.392 L 1.345 296.435 L 1.353 296.478 L 1.361 296.521 L 1.369 296.564 L 1.376 296.606 L 1.384 296.649 L 1.392 296.692 L 1.4 296.735 L 1.407 296.778 L 1.415 296.821 L 1.423 296.863 L 1.43 296.906 L 1.438 296.949 L 1.446 296.992 L 1.454 297.034 L 1.461 297.077 L 1.469 297.12 L 1.477 297.163 L 1.484 297.205 L 1.492 297.248 L 1.5 297.291 L 1.507 297.333 L 1.515 297.376 L 1.523 297.418 L 1.53 297.461 L 1.538 297.504 L 1.546 297.546 L 1.554 297.589 L 1.561 297.631 L 1.569 297.674 L 1.577 297.716 L 1.584 297.759 L 1.592 297.801 L 1.6 297.844 L 1.607 297.886 L 1.615 297.929 L 1.623 297.971 L 1.63 298.013 L 1.638 298.056 L 1.646 298.098 L 1.653 298.141 L 1.661 298.183 L 1.668 298.225 L 1.676 298.268 L 1.684 298.31 L 1.691 298.352 L 1.699 298.395 L 1.707 298.437 L 1.714 298.479 L 1.722 298.521 L 1.73 298.564 L 1.737 298.606 L 1.745 298.648 L 1.752 298.69 L 1.76 298.733 L 1.768 298.775 L 1.775 298.817 L 1.783 298.859 L 1.791 298.901 L 1.798 298.943 L 1.806 298.985 L 1.813 299.028 L 1.821 299.07 L 1.829 299.112 L 1.836 299.154 L 1.844 299.196 L 1.851 299.238 L 1.859 299.28 L 1.867 299.322 L 1.874 299.364 L 1.882 299.406 L 1.889 299.448 L 1.897 299.49 L 1.904 299.532 L 1.912 299.574 L 1.92 299.616 L 1.927 299.658 L 1.935 299.699 L 1.942 299.741 L 1.95 299.783 L 1.957 299.825 L 1.965 299.867 L 1.973 299.909 L 1.98 299.951 L 1.988 299.992 L 1.995 300.034 L 2.003 300.076 L 2.01 300.118 L 2.018 300.16 L 2.026 300.201 L 2.033 300.243 L 2.041 300.285 L 2.048 300.327 L 2.056 300.368 L 2.063 300.41 L 2.071 300.452 L 2.078 300.493 L 2.086 300.535 L 2.093 300.577 L 2.101 300.618 L 2.108 300.66 L 2.116 300.702 L 2.123 300.743 L 2.131 300.785 L 2.139 300.826 L 2.146 300.868 L 2.154 300.909 L 2.161 300.951 L 2.169 300.993 L 2.176 301.034 L 2.184 301.076 L 2.191 301.117 L 2.199 301.159 L 2.206 301.2 L 2.214 301.242 L 2.221 301.283 L 2.229 301.324 L 2.236 301.366 L 2.244 301.407 L 2.251 301.449 L 2.259 301.49 L 2.266 301.532 L 2.274 301.573 L 2.281 301.614 L 2.289 301.656 L 2.296 301.697 L 2.304 301.738 L 2.311 301.78 L 2.319 301.821 L 2.326 301.862 L 2.333 301.904 L 2.341 301.945 L 2.348 301.986 L 2.356 302.027 L 2.363 302.069 L 2.371 302.11 L 2.378 302.151 L 2.386 302.192 L 2.393 302.234 L 2.401 302.275 L 2.408 302.316 L 2.416 302.357 L 2.423 302.398 L 2.43 302.44 L 2.438 302.481 L 2.445 302.522 L 2.453 302.563 L 2.46 302.604 L 2.468 302.645 L 2.475 302.686 L 2.483 302.727 L 2.49 302.768 L 2.497 302.81 L 2.505 302.851 L 2.512 302.892 L 2.52 302.933 L 2.527 302.974 L 2.535 303.015 L 2.542 303.056 L 2.55 303.097 L 2.557 303.138 L 2.564 303.179 L 2.572 303.22 L 2.579 303.261 L 2.587 303.302 L 2.594 303.343 L 2.601 303.383 L 2.609 303.424 L 2.616 303.465 L 2.624 303.506 L 2.631 303.547 L 2.639 303.588 L 2.646 303.629 L 2.653 303.67 L 2.661 303.711 L 2.668 303.751 L 2.676 303.792 L 2.683 303.833 L 2.69 303.874 L 2.698 303.915 L 2.705 303.956 L 2.713 303.996 L 2.72 304.037 L 2.727 304.078 L 2.735 304.119 L 2.742 304.159 L 2.749 304.2 L 2.757 304.241 L 2.764 304.282 L 2.772 304.322 L 2.779 304.363 L 2.786 304.404 L 2.794 304.444 L 2.801 304.485 L 2.809 304.526 L 2.816 304.566 L 2.823 304.607 L 2.831 304.648 L 2.838 304.688 L 2.845 304.729 L 2.853 304.77 L 2.86 304.81 L 2.867 304.851 L 2.875 304.891 L 2.882 304.932 L 2.89 304.973 L 2.897 305.013 L 2.904 305.054 L 2.912 305.094 L 2.919 305.135 L 2.926 305.175 L 2.934 305.216 L 2.941 305.257 L 2.948 305.297 L 2.956 305.338 L 2.963 305.378 L 2.97 305.419 L 2.978 305.459 L 2.985 305.499 L 2.992 305.54 L 3 305.58 L 3.007 305.621 L 3.014 305.661 L 3.022 305.702 L 3.029 305.742 L 3.037 305.783 L 3.044 305.823 L 3.051 305.863 L 3.059 305.904 L 3.066 305.944 L 3.073 305.985 L 3.08 306.025 L 3.088 306.065 L 3.095 306.106 L 3.102 306.146 L 3.11 306.186 L 3.117 306.227 L 3.124 306.267 L 3.132 306.307 L 3.139 306.348 L 3.146 306.388 L 3.154 306.428 L 3.161 306.469 L 3.168 306.509 L 3.176 306.549 L 3.183 306.589 L 3.19 306.63 L 3.198 306.67 L 3.205 306.71 L 3.212 306.75 L 3.22 306.791 L 3.227 306.831 L 3.234 306.871 L 3.241 306.911 L 3.249 306.952 L 3.256 306.992 L 3.263 307.032 L 3.271 307.072 L 3.278 307.112 L 3.285 307.152 L 3.293 307.193 L 3.3 307.233 L 3.307 307.273 L 3.314 307.313 L 3.322 307.353 L 3.329 307.393 L 3.336 307.434 L 3.344 307.474 L 3.351 307.514 L 3.358 307.554 L 3.365 307.594 L 3.373 307.634 L 3.38 307.674 L 3.387 307.714 L 3.395 307.754 L 3.402 307.794 L 3.409 307.834 L 3.416 307.875 L 3.424 307.915 L 3.431 307.955 L 3.438 307.995 L 3.446 308.035 L 3.453 308.075 L 3.46 308.115 L 3.467 308.155 L 3.475 308.195 L 3.482 308.235 L 3.489 308.275 L 3.496 308.315 L 3.504 308.355 L 3.511 308.395 L 3.518 308.435 L 3.525 308.475 L 3.533 308.515 L 3.54 308.555 L 3.547 308.595 L 3.555 308.635 L 3.562 308.675 L 3.569 308.714 L 3.576 308.754 L 3.584 308.794 L 3.591 308.834 L 3.598 308.874 L 3.605 308.914 L 3.613 308.954 L 3.62 308.994 L 3.627 309.034 L 3.634 309.074 L 3.642 309.114 L 3.649 309.153 L 3.656 309.193 L 3.663 309.233 L 3.671 309.273 L 3.678 309.313 L 3.685 309.353 L 3.692 309.393 L 3.7 309.433 L 3.707 309.472 L 3.714 309.512 L 3.721 309.552 L 3.729 309.592 L 3.736 309.632 L 3.743 309.672 L 3.75 309.711 L 3.758 309.751 L 3.765 309.791 L 3.772 309.831 L 3.779 309.871 L 3.787 309.91 L 3.794 309.95 L 3.801 309.99 L 3.808 310.03 L 3.816 310.07 L 3.823 310.109 L 3.83 310.149 L 3.837 310.189 L 3.844 310.229 L 3.852 310.268 L 3.859 310.308 L 3.866 310.348 L 3.873 310.388 L 3.881 310.427 L 3.888 310.467 L 3.895 310.507 L 3.902 310.547 L 3.91 310.586 L 3.917 310.626 L 3.924 310.666 L 3.931 310.705 L 3.938 310.745 L 3.946 310.785 L 3.953 310.825 L 3.96 310.864 L 3.967 310.904 L 3.975 310.944 L 3.982 310.983 L 3.989 311.023 L 3.996 311.063 L 4.003 311.102 L 4.011 311.142 L 4.018 311.182 L 4.025 311.221 L 4.032 311.261 L 4.04 311.301 L 4.047 311.34 L 4.054 311.38 L 4.061 311.42 L 4.068 311.459 L 4.076 311.499 L 4.083 311.539 L 4.09 311.578 L 4.097 311.618 L 4.105 311.658 L 4.112 311.697 L 4.119 311.737 L 4.126 311.776 L 4.133 311.816 L 4.141 311.856 L 4.148 311.895 L 4.155 311.935 L 4.162 311.975 L 4.169 312.014 L 4.177 312.054 L 4.184 312.093 L 4.191 312.133 L 4.198 312.173 L 4.206 312.212 L 4.213 312.252 L 4.22 312.291 L 4.227 312.331 L 4.234 312.371 L 4.242 312.41 L 4.249 312.45 L 4.256 312.489 L 4.263 312.529 L 4.27 312.568 L 4.278 312.608 L 4.285 312.648 L 4.292 312.687 L 4.299 312.727 L 4.307 312.766 L 4.314 312.806 L 4.321 312.845 L 4.328 312.885 L 4.335 312.925 L 4.343 312.964 L 4.35 313.004 L 4.357 313.043 L 4.364 313.083 L 4.371 313.122 L 4.379 313.162 L 4.386 313.201 L 4.393 313.241 L 4.4 313.28 L 4.407 313.32 L 4.415 313.36 L 4.422 313.399 L 4.429 313.439 L 4.436 313.478 L 4.443 313.518 L 4.451 313.557 L 4.458 313.597 L 4.465 313.636 L 4.472 313.676 L 4.479 313.715 L 4.487 313.755 L 4.494 313.794 L 4.501 313.834 L 4.508 313.874 L 4.515 313.913 L 4.523 313.953 L 4.53 313.992 L 4.537 314.032 L 4.544 314.071 L 4.552 314.111 L 4.559 314.15 L 4.566 314.19 L 4.573 314.229 L 4.58 314.269 L 4.588 314.308 L 4.595 314.348 L 4.602 314.387 L 4.609 314.427 L 4.616 314.466 L 4.624 314.506 L 4.631 314.545 L 4.638 314.585 L 4.645 314.624 L 4.652 314.664 L 4.66 314.703 L 4.667 314.743 L 4.674 314.782 L 4.681 314.822 L 4.688 314.861 L 4.696 314.901 L 4.703 314.94 L 4.71 314.98 L 4.717 315.019 L 4.724 315.059 L 4.732 315.098 L 4.739 315.138 L 4.746 315.178 L 4.753 315.217 L 4.76 315.257 L 4.768 315.296 L 4.775 315.336 L 4.782 315.375 L 4.789 315.415 L 4.797 315.454 L 4.804 315.494 L 4.811 315.533 L 4.818 315.573 L 4.825 315.612 L 4.833 315.652 L 4.84 315.691 L 4.847 315.731 L 4.854 315.77 L 4.861 315.81 L 4.869 315.849 L 4.876 315.889 L 4.883 315.928 L 4.89 315.968 L 4.897 316.007 L 4.905 316.047 L 4.912 316.086 L 4.919 316.126 L 4.926 316.165 L 4.933 316.205 L 4.941 316.245 L 4.948 316.284 L 4.955 316.324 L 4.962 316.363 L 4.97 316.403 L 4.977 316.442 L 4.984 316.482 L 4.991 316.521 L 4.998 316.561 L 5.006 316.6 L 5.013 316.64 L 5.02 316.679 L 5.027 316.719 L 5.035 316.758 L 5.042 316.798 L 5.049 316.838 L 5.056 316.877 L 5.063 316.917 L 5.071 316.956 L 5.078 316.996 L 5.085 317.035 L 5.092 317.075 L 5.099 317.114 L 5.107 317.154 L 5.114 317.194 L 5.121 317.233 L 5.128 317.273 L 5.136 317.312 L 5.143 317.352 L 5.15 317.391 L 5.157 317.431 L 5.164 317.471 L 5.172 317.51 L 5.179 317.55 L 5.186 317.589 L 5.193 317.629 L 5.201 317.669 L 5.208 317.708 L 5.215 317.748 L 5.222 317.787 L 5.23 317.827 L 5.237 317.866 L 5.244 317.906 L 5.251 317.946 L 5.258 317.985 L 5.266 318.025 L 5.273 318.065 L 5.28 318.104 L 5.287 318.144 L 5.295 318.183 L 5.302 318.223 L 5.309 318.263 L 5.316 318.302 L 5.324 318.342 L 5.331 318.382 L 5.338 318.421 L 5.345 318.461 L 5.353 318.5 L 5.36 318.54 L 5.367 318.58 L 5.374 318.619 L 5.381 318.659 L 5.389 318.699 L 5.396 318.738 L 5.403 318.778 L 5.41 318.818 L 5.418 318.857 L 5.425 318.897 L 5.432 318.937 L 5.439 318.976 L 5.447 319.016 L 5.454 319.056 L 5.461 319.095 L 5.468 319.135 L 5.476 319.175 L 5.483 319.215 L 5.49 319.254 L 5.497 319.294 L 5.505 319.334 L 5.512 319.373 L 5.519 319.413 L 5.526 319.453 L 5.534 319.493 L 5.541 319.532 L 5.548 319.572 L 5.555 319.612 L 5.563 319.652 L 5.57 319.691 L 5.577 319.731 L 5.585 319.771 L 5.592 319.811 L 5.599 319.85 L 5.606 319.89 L 5.614 319.93 L 5.621 319.97 L 5.628 320.009 L 5.635 320.049 L 5.643 320.089 L 5.65 320.129 L 5.657 320.169 L 5.664 320.208 L 5.672 320.248 L 5.679 320.288 L 5.686 320.328 L 5.694 320.368 L 5.701 320.407 L 5.708 320.447 L 5.715 320.487 L 5.723 320.527 L 5.73 320.567 L 5.737 320.607 L 5.745 320.647 L 5.752 320.686 L 5.759 320.726 L 5.766 320.766 L 5.774 320.806 L 5.781 320.846 L 5.788 320.886 L 5.796 320.926 L 5.803 320.966 L 5.81 321.005 L 5.817 321.045 L 5.825 321.085 L 5.832 321.125 L 5.839 321.165 L 5.847 321.205 L 5.854 321.245 L 5.861 321.285 L 5.868 321.325 L 5.876 321.365 L 5.883 321.405 L 5.89 321.445 L 5.898 321.485 L 5.905 321.525 L 5.912 321.565 L 5.92 321.605 L 5.927 321.645 L 5.934 321.685 L 5.942 321.725 L 5.949 321.765 L 5.956 321.805 L 5.963 321.845 L 5.971 321.885 L 5.978 321.925 L 5.985 321.965 L 5.993 322.005 L 6 322.045 L 6.007 322.085 L 6.015 322.125 L 6.022 322.165 L 6.029 322.205 L 6.037 322.245 L 6.044 322.285 L 6.051 322.325 L 6.059 322.365 L 6.066 322.405 L 6.073 322.445 L 6.081 322.486 L 6.088 322.526 L 6.095 322.566 L 6.103 322.606 L 6.11 322.646 L 6.117 322.686 L 6.125 322.726 L 6.132 322.767 L 6.139 322.807 L 6.147 322.847 L 6.154 322.887 L 6.161 322.927 L 6.169 322.967 L 6.176 323.008 L 6.183 323.048 L 6.191 323.088 L 6.198 323.128 L 6.205 323.168 L 6.213 323.209 L 6.22 323.249 L 6.228 323.289 L 6.235 323.329 L 6.242 323.37 L 6.25 323.41 L 6.257 323.45 L 6.264 323.49 L 6.272 323.531 L 6.279 323.571 L 6.286 323.611 L 6.294 323.652 L 6.301 323.692 L 6.309 323.732 L 6.316 323.773 L 6.323 323.813 L 6.331 323.853 L 6.338 323.894 L 6.345 323.934 L 6.353 323.974 L 6.36 324.015 L 6.368 324.055 L 6.375 324.095 L 6.382 324.136 L 6.39 324.176 L 6.397 324.217 L 6.405 324.257 L 6.412 324.298 L 6.419 324.338 L 6.427 324.378 L 6.434 324.419 L 6.441 324.459 L 6.449 324.5 L 6.456 324.54 L 6.464 324.581 L 6.471 324.621 L 6.479 324.662 L 6.486 324.702 L 6.493 324.743 L 6.501 324.783 L 6.508 324.824 L 6.516 324.864 L 6.523 324.905 L 6.53 324.945 L 6.538 324.986 L 6.545 325.027 L 6.553 325.067 L 6.56 325.108 L 6.567 325.148 L 6.575 325.189 L 6.582 325.23 L 6.59 325.27 L 6.597 325.311 L 6.605 325.351 L 6.612 325.392 L 6.619 325.433 L 6.627 325.473 L 6.634 325.514 L 6.642 325.555 L 6.649 325.595 L 6.657 325.636 L 6.664 325.677 L 6.672 325.718 L 6.679 325.758 L 6.686 325.799 L 6.694 325.84 L 6.701 325.881 L 6.709 325.921 L 6.716 325.962 L 6.724 326.003 L 6.731 326.044 L 6.739 326.084 L 6.746 326.125 L 6.754 326.166 L 6.761 326.207 L 6.769 326.248 L 6.776 326.289 L 6.783 326.329 L 6.791 326.37 L 6.798 326.411 L 6.806 326.452 L 6.813 326.493 L 6.821 326.534 L 6.828 326.575 L 6.836 326.616 L 6.843 326.657 L 6.851 326.698 L 6.858 326.739 L 6.866 326.779 L 6.873 326.82 L 6.881 326.861 L 6.888 326.902 L 6.896 326.943 L 6.903 326.984 L 6.911 327.025 L 6.918 327.066 L 6.926 327.108 L 6.933 327.149 L 6.941 327.19 L 6.948 327.231 L 6.956 327.272 L 6.963 327.313 L 6.971 327.354 L 6.978 327.395 L 6.986 327.436 L 6.993 327.477 L 7.001 327.518 L 7.008 327.56 L 7.016 327.601 L 7.024 327.642 L 7.031 327.683 L 7.039 327.724 L 7.046 327.765 L 7.054 327.807 L 7.061 327.848 L 7.069 327.889 L 7.076 327.93 L 7.084 327.972 L 7.091 328.013 L 7.099 328.054 L 7.106 328.095 L 7.114 328.137 L 7.122 328.178 L 7.129 328.219 L 7.137 328.261 L 7.144 328.302 L 7.152 328.343 L 7.159 328.385 L 7.167 328.426 L 7.175 328.467 L 7.182 328.509 L 7.19 328.55 L 7.197 328.592 L 7.205 328.633 L 7.212 328.675 L 7.22 328.716 L 7.228 328.757 L 7.235 328.799 L 7.243 328.84 L 7.25 328.882 L 7.258 328.923 L 7.266 328.965 L 7.273 329.006 L 7.281 329.048 L 7.288 329.09 L 7.296 329.131 L 7.304 329.173 L 7.311 329.214 L 7.319 329.256 L 7.326 329.297 L 7.334 329.339 L 7.342 329.381 L 7.349 329.422 L 7.357 329.464 L 7.364 329.506 L 7.372 329.547 L 7.38 329.589 L 7.387 329.631 L 7.395 329.672 L 7.403 329.714 L 7.41 329.756 L 7.418 329.798 L 7.425 329.839 L 7.433 329.881 L 7.441 329.923 L 7.448 329.965 L 7.456 330.007 L 7.464 330.048 M 257.253 257.37 L 257.257 257.398 L 257.262 257.426 L 257.266 257.453 L 257.271 257.481 L 257.275 257.508 L 257.28 257.536 L 257.284 257.564 L 257.289 257.591 L 257.293 257.619 L 257.298 257.647 L 257.302 257.674 L 257.307 257.702 L 257.311 257.729 L 257.315 257.757 L 257.32 257.784 L 257.324 257.812 L 257.329 257.84 L 257.333 257.867 L 257.338 257.895 L 257.342 257.922 L 257.347 257.95 L 257.351 257.977 L 257.356 258.005 L 257.36 258.032 L 257.365 258.06 L 257.369 258.087 L 257.373 258.115 L 257.378 258.142 L 257.382 258.17 L 257.387 258.197 L 257.391 258.225 L 257.396 258.252 L 257.4 258.28 L 257.405 258.307 L 257.409 258.335 L 257.414 258.362 L 257.418 258.39 L 257.423 258.417 L 257.427 258.445 L 257.431 258.472 L 257.436 258.499 L 257.44 258.527 L 257.445 258.554 L 257.449 258.582 L 257.454 258.609 L 257.458 258.636 L 257.463 258.664 L 257.467 258.691 L 257.472 258.719 L 257.476 258.746 L 257.48 258.773 L 257.485 258.801 L 257.489 258.828 L 257.494 258.856 L 257.498 258.883 L 257.503 258.91 L 257.507 258.938 L 257.512 258.965 L 257.516 258.992 L 257.521 259.02 L 257.525 259.047 L 257.529 259.074 L 257.534 259.101 L 257.538 259.129 L 257.543 259.156 L 257.547 259.183 L 257.552 259.211 L 257.556 259.238 L 257.561 259.265 L 257.565 259.292 L 257.569 259.32 L 257.574 259.347 L 257.578 259.374 L 257.583 259.402 L 257.587 259.429 L 257.592 259.456 L 257.596 259.483 L 257.601 259.51 L 257.605 259.538 L 257.609 259.565 L 257.614 259.592 L 257.618 259.619 L 257.623 259.647 L 257.627 259.674 L 257.632 259.701 L 257.636 259.728 L 257.641 259.755 L 257.645 259.782 L 257.649 259.81 L 257.654 259.837 L 257.658 259.864 L 257.663 259.891 L 257.667 259.918 L 257.672 259.945 L 257.676 259.973 L 257.681 260 L 257.685 260.027 L 257.689 260.054 L 257.694 260.081 L 257.698 260.108 L 257.703 260.135 L 257.707 260.162 L 257.712 260.189 L 257.716 260.217 L 257.721 260.244 L 257.725 260.271 L 257.729 260.298 L 257.734 260.325 L 257.738 260.352 L 257.743 260.379 L 257.747 260.406 L 257.752 260.433 L 257.756 260.46 L 257.76 260.487 L 257.765 260.514 L 257.769 260.541 L 257.774 260.568 L 257.778 260.595 L 257.783 260.622 L 257.787 260.649 L 257.792 260.676 L 257.796 260.703 L 257.8 260.73 L 257.805 260.757 L 257.809 260.784 L 257.814 260.811 L 257.818 260.838 L 257.823 260.865 L 257.827 260.892 L 257.831 260.919 L 257.836 260.946 L 257.84 260.973 L 257.845 261 L 257.849 261.027 L 257.854 261.054 L 257.858 261.081 L 257.862 261.108 L 257.867 261.135 L 257.871 261.162 L 257.876 261.189 L 257.88 261.216 L 257.885 261.242 L 257.889 261.269 L 257.894 261.296 L 257.898 261.323 L 257.902 261.35 L 257.907 261.377 L 257.911 261.404 L 257.916 261.431 L 257.92 261.458 L 257.925 261.484 L 257.929 261.511 L 257.933 261.538 L 257.938 261.565 L 257.942 261.592 L 257.947 261.619 L 257.951 261.645 L 257.956 261.672 L 257.96 261.699 L 257.964 261.726 L 257.969 261.753 L 257.973 261.78 L 257.978 261.806 L 257.982 261.833 L 257.987 261.86 L 257.991 261.887 L 257.995 261.914 L 258 261.94 L 258.004 261.967 L 258.009 261.994 L 258.013 262.021 L 258.018 262.047 L 258.022 262.074 L 258.026 262.101 L 258.031 262.128 L 258.035 262.154 L 258.04 262.181 L 258.044 262.208 L 258.048 262.235 L 258.053 262.261 L 258.057 262.288 L 258.062 262.315 L 258.066 262.342 L 258.071 262.368 L 258.075 262.395 L 258.079 262.422 L 258.084 262.448 L 258.088 262.475 L 258.093 262.502 L 258.097 262.528 L 258.102 262.555 L 258.106 262.582 L 258.11 262.608 L 258.115 262.635 L 258.119 262.662 L 258.124 262.688 L 258.128 262.715 L 258.133 262.742 L 258.137 262.768 L 258.141 262.795 L 258.146 262.822 L 258.15 262.848 L 258.155 262.875 L 258.159 262.902 L 258.164 262.928 L 258.168 262.955 L 258.172 262.981 L 258.177 263.008 L 258.181 263.035 L 258.186 263.061 L 258.19 263.088 L 258.194 263.114 L 258.199 263.141 L 258.203 263.168 L 258.208 263.194 L 258.212 263.221 L 258.217 263.247 L 258.221 263.274 L 258.225 263.3 L 258.23 263.327 L 258.234 263.353 L 258.239 263.38 L 258.243 263.407 L 258.247 263.433 L 258.252 263.46 L 258.256 263.486 L 258.261 263.513 L 258.265 263.539 L 258.27 263.566 L 258.274 263.592 L 258.278 263.619 L 258.283 263.645 L 258.287 263.672 L 258.292 263.698 L 258.296 263.725 L 258.301 263.751 L 258.305 263.778 L 258.309 263.804 L 258.314 263.831 L 258.318 263.857 L 258.323 263.884 L 258.327 263.91 L 258.331 263.936 L 258.336 263.963 L 258.34 263.989 L 258.345 264.016 L 258.349 264.042 L 258.354 264.069 L 258.358 264.095 L 258.362 264.122 L 258.367 264.148 L 258.371 264.174 L 258.376 264.201 L 258.38 264.227 L 258.384 264.254 L 258.389 264.28 L 258.393 264.306 L 258.398 264.333 L 258.402 264.359 L 258.407 264.386 L 258.411 264.412 L 258.415 264.438 L 258.42 264.465 L 258.424 264.491 L 258.429 264.518 L 258.433 264.544 L 258.437 264.57 L 258.442 264.597 L 258.446 264.623 L 258.451 264.649 L 258.455 264.676 L 258.46 264.702 L 258.464 264.728 L 258.468 264.755 L 258.473 264.781 L 258.477 264.807 L 258.482 264.834 L 258.486 264.86 L 258.49 264.886 L 258.495 264.913 L 258.499 264.939 L 258.504 264.965 L 258.508 264.992 L 258.513 265.018 L 258.517 265.044 L 258.521 265.07 L 258.526 265.097 L 258.53 265.123 L 258.535 265.149 L 258.539 265.176 L 258.543 265.202 L 258.548 265.228 L 258.552 265.254 L 258.557 265.281 L 258.561 265.307 L 258.565 265.333 L 258.57 265.359 L 258.574 265.386 L 258.579 265.412 L 258.583 265.438 L 258.588 265.464 L 258.592 265.491 L 258.596 265.517 L 258.601 265.543 L 258.605 265.569 L 258.61 265.596 L 258.614 265.622 L 258.618 265.648 L 258.623 265.674 L 258.627 265.7 L 258.632 265.727 L 258.636 265.753 L 258.641 265.779 L 258.645 265.805 L 258.649 265.831 L 258.654 265.858 L 258.658 265.884 L 258.663 265.91 L 258.667 265.936 L 258.671 265.962 L 258.676 265.988 L 258.68 266.015 L 258.685 266.041 L 258.689 266.067 L 258.694 266.093 L 258.698 266.119 L 258.702 266.145 L 258.707 266.171 L 258.711 266.198 L 258.716 266.224 L 258.72 266.25 L 258.724 266.276 L 258.729 266.302 L 258.733 266.328 L 258.738 266.354 L 258.742 266.381 L 258.746 266.407 L 258.751 266.433 L 258.755 266.459 L 258.76 266.485 L 258.764 266.511 L 258.769 266.537 L 258.773 266.563 L 258.777 266.589 L 258.782 266.615 L 258.786 266.642 L 258.791 266.668 L 258.795 266.694 L 258.799 266.72 L 258.804 266.746 L 258.808 266.772 L 258.813 266.798 L 258.817 266.824 L 258.822 266.85 L 258.826 266.876 L 258.83 266.902 L 258.835 266.928 L 258.839 266.954 L 258.844 266.98 L 258.848 267.006 L 258.852 267.032 L 258.857 267.058 L 258.861 267.084 L 258.866 267.11 L 258.87 267.136 L 258.875 267.163 L 258.879 267.189 L 258.883 267.215 L 258.888 267.241 L 258.892 267.267 L 258.897 267.293 L 258.901 267.319 L 258.905 267.345 L 258.91 267.371 L 258.914 267.397 L 258.919 267.423 L 258.923 267.449 L 258.927 267.475 L 258.932 267.501 L 258.936 267.526 L 258.941 267.552 L 258.945 267.578 L 258.95 267.604 L 258.954 267.63 L 258.958 267.656 L 258.963 267.682 L 258.967 267.708 L 258.972 267.734 L 258.976 267.76 L 258.98 267.786 L 258.985 267.812 L 258.989 267.838 L 258.994 267.864 L 258.998 267.89 L 259.003 267.916 L 259.007 267.942 L 259.011 267.968 L 259.016 267.994 L 259.02 268.02 L 259.025 268.045 L 259.029 268.071 L 259.034 268.097 L 259.038 268.123 L 259.042 268.149 L 259.047 268.175 L 259.051 268.201 L 259.056 268.227 L 259.06 268.253 L 259.064 268.279 L 259.069 268.305 L 259.073 268.33 L 259.078 268.356 L 259.082 268.382 L 259.087 268.408 L 259.091 268.434 L 259.095 268.46 L 259.1 268.486 L 259.104 268.512 L 259.109 268.537 L 259.113 268.563 L 259.117 268.589 L 259.122 268.615 L 259.126 268.641 L 259.131 268.667 L 259.135 268.693 L 259.14 268.718 L 259.144 268.744 L 259.148 268.77 L 259.153 268.796 L 259.157 268.822 L 259.162 268.848 L 259.166 268.874 L 259.171 268.899 L 259.175 268.925 L 259.179 268.951 L 259.184 268.977 L 259.188 269.003 L 259.193 269.028 L 259.197 269.054 L 259.201 269.08 L 259.206 269.106 L 259.21 269.132 L 259.215 269.158 L 259.219 269.183 L 259.224 269.209 L 259.228 269.235 L 259.232 269.261 L 259.237 269.287 L 259.241 269.312 L 259.246 269.338 L 259.25 269.364 L 259.255 269.39 L 259.259 269.415 L 259.263 269.441 L 259.268 269.467 L 259.272 269.493 L 259.277 269.519 L 259.281 269.544 L 259.286 269.57 L 259.29 269.596 L 259.294 269.622 L 259.299 269.647 L 259.303 269.673 L 259.308 269.699 L 259.312 269.725 L 259.316 269.75 L 259.321 269.776 L 259.325 269.802 L 259.33 269.828 L 259.334 269.853 L 259.339 269.879 L 259.343 269.905 L 259.347 269.931 L 259.352 269.956 L 259.356 269.982 L 259.361 270.008 L 259.365 270.034 L 259.37 270.059 L 259.374 270.085 L 259.378 270.111 L 259.383 270.137 L 259.387 270.162 L 259.392 270.188 L 259.396 270.214 L 259.401 270.239 L 259.405 270.265 L 259.409 270.291 L 259.414 270.317 L 259.418 270.342 L 259.423 270.368 L 259.427 270.394 L 259.432 270.419 L 259.436 270.445 L 259.44 270.471 L 259.445 270.496 L 259.449 270.522 L 259.454 270.548 L 259.458 270.574 L 259.463 270.599 L 259.467 270.625 L 259.471 270.651 L 259.476 270.676 L 259.48 270.702 L 259.485 270.728 L 259.489 270.753 L 259.494 270.779 L 259.498 270.805 L 259.503 270.83 L 259.507 270.856 L 259.511 270.882 L 259.516 270.907 L 259.52 270.933 L 259.525 270.959 L 259.529 270.984 L 259.534 271.01 L 259.538 271.036 L 259.542 271.061 L 259.547 271.087 L 259.551 271.113 L 259.556 271.138 L 259.56 271.164 L 259.565 271.189 L 259.569 271.215 L 259.573 271.241 L 259.578 271.266 L 259.582 271.292 L 259.587 271.318 L 259.591 271.343 L 259.596 271.369 L 259.6 271.395 L 259.605 271.42 L 259.609 271.446 L 259.613 271.471 L 259.618 271.497 L 259.622 271.523 L 259.627 271.548 L 259.631 271.574 L 259.636 271.6 L 259.64 271.625 L 259.645 271.651 L 259.649 271.676 L 259.653 271.702 L 259.658 271.728 L 259.662 271.753 L 259.667 271.779 L 259.671 271.804 L 259.676 271.83 L 259.68 271.856 L 259.685 271.881 L 259.689 271.907 L 259.693 271.932 L 259.698 271.958 L 259.702 271.984 L 259.707 272.009 L 259.711 272.035 L 259.716 272.06 L 259.72 272.086 L 259.725 272.112 L 259.729 272.137 L 259.733 272.163 L 259.738 272.188 L 259.742 272.214 L 259.747 272.239 L 259.751 272.265 L 259.756 272.291 L 259.76 272.316 L 259.765 272.342 L 259.769 272.367 L 259.773 272.393 L 259.778 272.418 L 259.782 272.444 L 259.787 272.47 L 259.791 272.495 L 259.796 272.521 L 259.8 272.546 L 259.805 272.572 L 259.809 272.597 L 259.813 272.623 L 259.818 272.649 L 259.822 272.674 L 259.827 272.7 L 259.831 272.725 L 259.836 272.751 L 259.84 272.776 L 259.845 272.802 L 259.849 272.827 L 259.854 272.853 L 259.858 272.878 L 259.862 272.904 L 259.867 272.93 L 259.871 272.955 L 259.876 272.981 L 259.88 273.006 L 259.885 273.032 L 259.889 273.057 L 259.894 273.083 L 259.898 273.108 L 259.903 273.134 L 259.907 273.159 L 259.911 273.185 L 259.916 273.21 L 259.92 273.236 L 259.925 273.262 L 259.929 273.287 L 259.934 273.313 L 259.938 273.338 L 259.943 273.364 L 259.947 273.389 L 259.952 273.415 L 259.956 273.44 L 259.961 273.466 L 259.965 273.491 L 259.969 273.517 L 259.974 273.542 L 259.978 273.568 L 259.983 273.593 L 259.987 273.619 L 259.992 273.644 L 259.996 273.67 L 260.001 273.695 L 260.005 273.721 L 260.01 273.746 L 260.014 273.772 L 260.019 273.797 L 260.023 273.823 L 260.028 273.848 L 260.032 273.874 L 260.036 273.899 L 260.041 273.925 L 260.045 273.95 L 260.05 273.976 L 260.054 274.001 L 260.059 274.027 L 260.063 274.052 L 260.068 274.078 L 260.072 274.103 L 260.077 274.129 L 260.081 274.154 L 260.086 274.18 L 260.09 274.205 L 260.095 274.231 L 260.099 274.256 L 260.103 274.282 L 260.108 274.307 L 260.112 274.333 L 260.117 274.358 L 260.121 274.384 L 260.126 274.409 L 260.13 274.435 L 260.135 274.46 L 260.139 274.486 L 260.144 274.511 L 260.148 274.537 L 260.153 274.562 L 260.157 274.588 L 260.162 274.613 L 260.166 274.639 L 260.171 274.664 L 260.175 274.69 L 260.18 274.715 L 260.184 274.741 L 260.189 274.766 L 260.193 274.792 L 260.198 274.817 L 260.202 274.843 L 260.206 274.868 L 260.211 274.894 L 260.215 274.919 L 260.22 274.944 L 260.224 274.97 L 260.229 274.995 L 260.233 275.021 L 260.238 275.046 L 260.242 275.072 L 260.247 275.097 L 260.251 275.123 L 260.256 275.148 L 260.26 275.174 L 260.265 275.199 L 260.269 275.225 L 260.274 275.25 L 260.278 275.276 L 260.283 275.301 L 260.287 275.327 L 260.292 275.352 L 260.296 275.378 L 260.301 275.403 L 260.305 275.428 L 260.31 275.454 L 260.314 275.479 L 260.319 275.505 L 260.323 275.53 L 260.328 275.556 L 260.332 275.581 L 260.337 275.607 L 260.341 275.632 L 260.346 275.658 L 260.35 275.683 L 260.355 275.709 L 260.359 275.734 L 260.364 275.76 L 260.368 275.785 L 260.373 275.81 L 260.377 275.836 L 260.382 275.861 L 260.386 275.887 L 260.391 275.912 L 260.395 275.938 L 260.4 275.963 L 260.404 275.989 L 260.409 276.014 L 260.413 276.04 L 260.418 276.065 L 260.422 276.091 L 260.427 276.116 L 260.431 276.142 L 260.436 276.167 L 260.44 276.192 L 260.445 276.218 L 260.449 276.243 L 260.454 276.269 L 260.458 276.294 L 260.463 276.32 L 260.467 276.345 L 260.472 276.371 L 260.476 276.396 L 260.481 276.422 L 260.485 276.447 L 260.49 276.473 L 260.494 276.498 L 260.499 276.523 L 260.503 276.549 L 260.508 276.574 L 260.512 276.6 L 260.517 276.625 L 260.521 276.651 L 260.526 276.676 L 260.53 276.702 L 260.535 276.727 L 260.539 276.753 L 260.544 276.778 L 260.548 276.804 L 260.553 276.829 L 260.557 276.854 L 260.562 276.88 L 260.566 276.905 L 260.571 276.931 L 260.575 276.956 L 260.58 276.982 L 260.584 277.007 L 260.589 277.033 L 260.593 277.058 L 260.598 277.084 L 260.603 277.109 L 260.607 277.135 L 260.612 277.16 L 260.616 277.186 L 260.621 277.211 L 260.625 277.236 L 260.63 277.262 L 260.634 277.287 L 260.639 277.313 L 260.643 277.338 L 260.648 277.364 L 260.652 277.389 L 260.657 277.415 L 260.661 277.44 L 260.666 277.466 L 260.67 277.491 L 260.675 277.517 L 260.679 277.542 L 260.684 277.568 L 260.689 277.593 L 260.693 277.619 L 260.698 277.644 L 260.702 277.669 L 260.707 277.695 L 260.711 277.72 L 260.716 277.746 L 260.72 277.771 L 260.725 277.797 L 260.729 277.822 L 260.734 277.848 L 260.738 277.873 L 260.743 277.899 L 260.747 277.924 L 260.752 277.95 L 260.757 277.975 L 260.761 278.001 L 260.766 278.026 L 260.77 278.052 L 260.775 278.077 L 260.779 278.103 L 260.784 278.128 L 260.788 278.154 L 260.793 278.179 L 260.797 278.205 L 260.802 278.23 L 260.807 278.256 L 260.811 278.281 L 260.816 278.306 L 260.82 278.332 L 260.825 278.357 L 260.829 278.383 L 260.834 278.408 L 260.838 278.434 L 260.843 278.459 L 260.847 278.485 L 260.852 278.51 L 260.857 278.536 L 260.861 278.561 L 260.866 278.587 L 260.87 278.612 L 260.875 278.638 L 260.879 278.663 L 260.884 278.689 L 260.888 278.714 L 260.893 278.74 L 260.898 278.765 L 260.902 278.791 L 260.907 278.816 L 260.911 278.842 L 260.916 278.867 L 260.92 278.893 L 260.925 278.918 L 260.929 278.944 L 260.934 278.969 L 260.939 278.995 L 260.943 279.02 L 260.948 279.046 L 260.952 279.071 L 260.957 279.097 L 260.961 279.122 L 260.966 279.148 L 260.97 279.174 L 260.975 279.199 L 260.98 279.225 L 260.984 279.25 L 260.989 279.276 L 260.993 279.301 L 260.998 279.327 L 261.002 279.352 L 261.007 279.378 L 261.012 279.403 L 261.016 279.429 L 261.021 279.454 L 261.025 279.48 L 261.03 279.505 L 261.034 279.531 L 261.039 279.556 L 261.044 279.582 L 261.048 279.607 L 261.053 279.633 L 261.057 279.658 L 261.062 279.684 L 261.066 279.71 L 261.071 279.735 L 261.076 279.761 L 261.08 279.786 L 261.085 279.812 L 261.089 279.837 L 261.094 279.863 L 261.099 279.888 L 261.103 279.914 L 261.108 279.939 L 261.112 279.965 L 261.117 279.991 L 261.121 280.016 L 261.126 280.042 L 261.131 280.067 L 261.135 280.093 L 261.14 280.118 L 261.144 280.144 L 261.149 280.169 L 261.154 280.195 L 261.158 280.221 L 261.163 280.246 L 261.167 280.272 L 261.172 280.297 L 261.177 280.323 L 261.181 280.348 L 261.186 280.374 L 261.19 280.399 L 261.195 280.425 L 261.2 280.451 L 261.204 280.476 L 261.209 280.502 L 261.213 280.527 L 261.218 280.553 L 261.222 280.579 L 261.227 280.604 L 261.232 280.63 L 261.236 280.655 L 261.241 280.681 L 261.246 280.706 L 261.25 280.732 L 261.255 280.758 L 261.259 280.783 L 261.264 280.809 L 261.269 280.834 L 261.273 280.86 L 261.278 280.886 L 261.282 280.911 L 261.287 280.937 L 261.292 280.962 L 261.296 280.988 L 261.301 281.014 L 261.305 281.039 L 261.31 281.065 L 261.315 281.09 L 261.319 281.116 L 261.324 281.142 L 261.328 281.167 L 261.333 281.193 L 261.338 281.218 L 261.342 281.244 L 261.347 281.27 L 261.352 281.295 L 261.356 281.321 L 261.361 281.347 L 261.365 281.372 L 261.37 281.398 L 261.375 281.423 L 261.379 281.449 L 261.384 281.475 L 261.389 281.5 L 261.393 281.526 L 261.398 281.552 L 261.402 281.577 L 261.407 281.603 L 261.412 281.629 L 261.416 281.654 L 261.421 281.68 L 261.426 281.706 L 261.43 281.731 L 261.435 281.757 L 261.439 281.782 L 261.444 281.808 L 261.449 281.834 L 261.453 281.859 L 261.458 281.885 L 261.463 281.911 L 261.467 281.936 L 261.472 281.962 L 261.476 281.988 L 261.481 282.013 L 261.486 282.039 L 261.49 282.065 L 261.495 282.09 L 261.5 282.116 L 261.504 282.142 L 261.509 282.168 L 261.514 282.193 L 261.518 282.219 L 261.523 282.245 L 261.528 282.27 L 261.532 282.296 L 261.537 282.322 L 261.541 282.347 L 261.546 282.373 L 261.551 282.399 L 261.555 282.424 L 261.56 282.45 L 261.565 282.476 L 261.569 282.502 L 261.574 282.527 L 261.579 282.553 L 261.583 282.579 L 261.588 282.604 L 261.593 282.63 L 261.597 282.656 L 261.602 282.682 L 261.607 282.707 L 261.611 282.733 L 261.616 282.759 L 261.621 282.785 L 261.625 282.81 L 261.63 282.836 L 261.635 282.862 L 261.639 282.887 L 261.644 282.913 L 261.649 282.939 L 261.653 282.965 L 261.658 282.99 L 261.663 283.016 L 261.667 283.042 L 261.672 283.068 L 261.677 283.094 L 261.681 283.119 L 261.686 283.145 L 261.691 283.171 L 261.695 283.197 L 261.7 283.222 L 261.705 283.248 L 261.709 283.274 L 261.714 283.3 L 261.719 283.325 L 261.723 283.351 L 261.728 283.377 M 513.455 208.206 L 513.458 208.231 L 513.46 208.256 L 513.462 208.28 L 513.465 208.305 L 513.467 208.329 L 513.469 208.354 L 513.471 208.379 L 513.474 208.403 L 513.476 208.428 L 513.478 208.452 L 513.48 208.477 L 513.483 208.501 L 513.485 208.526 L 513.487 208.55 L 513.49 208.575 L 513.492 208.599 L 513.494 208.624 L 513.496 208.648 L 513.499 208.673 L 513.501 208.697 L 513.503 208.722 L 513.505 208.746 L 513.508 208.771 L 513.51 208.795 L 513.512 208.82 L 513.515 208.844 L 513.517 208.869 L 513.519 208.893 L 513.521 208.918 L 513.524 208.942 L 513.526 208.967 L 513.528 208.991 L 513.531 209.016 L 513.533 209.04 L 513.535 209.064 L 513.537 209.089 L 513.54 209.113 L 513.542 209.138 L 513.544 209.162 L 513.547 209.187 L 513.549 209.211 L 513.551 209.235 L 513.553 209.26 L 513.556 209.284 L 513.558 209.309 L 513.56 209.333 L 513.562 209.357 L 513.565 209.382 L 513.567 209.406 L 513.569 209.43 L 513.572 209.455 L 513.574 209.479 L 513.576 209.503 L 513.578 209.528 L 513.581 209.552 L 513.583 209.576 L 513.585 209.601 L 513.588 209.625 L 513.59 209.649 L 513.592 209.674 L 513.595 209.698 L 513.597 209.722 L 513.599 209.747 L 513.601 209.771 L 513.604 209.795 L 513.606 209.819 L 513.608 209.844 L 513.611 209.868 L 513.613 209.892 L 513.615 209.916 L 513.617 209.941 L 513.62 209.965 L 513.622 209.989 L 513.624 210.013 L 513.627 210.038 L 513.629 210.062 L 513.631 210.086 L 513.634 210.11 L 513.636 210.135 L 513.638 210.159 L 513.64 210.183 L 513.643 210.207 L 513.645 210.231 L 513.647 210.256 L 513.65 210.28 L 513.652 210.304 L 513.654 210.328 L 513.656 210.352 L 513.659 210.376 L 513.661 210.401 L 513.663 210.425 L 513.666 210.449 L 513.668 210.473 L 513.67 210.497 L 513.673 210.521 L 513.675 210.545 L 513.677 210.57 L 513.679 210.594 L 513.682 210.618 L 513.684 210.642 L 513.686 210.666 L 513.689 210.69 L 513.691 210.714 L 513.693 210.738 L 513.696 210.762 L 513.698 210.786 L 513.7 210.81 L 513.703 210.835 L 513.705 210.859 L 513.707 210.883 L 513.709 210.907 L 513.712 210.931 L 513.714 210.955 L 513.716 210.979 L 513.719 211.003 L 513.721 211.027 L 513.723 211.051 L 513.726 211.075 L 513.728 211.099 L 513.73 211.123 L 513.733 211.147 L 513.735 211.171 L 513.737 211.195 L 513.74 211.219 L 513.742 211.243 L 513.744 211.267 L 513.746 211.291 L 513.749 211.315 L 513.751 211.339 L 513.753 211.363 L 513.756 211.387 L 513.758 211.411 L 513.76 211.435 L 513.763 211.459 L 513.765 211.483 L 513.767 211.507 L 513.77 211.53 L 513.772 211.554 L 513.774 211.578 L 513.777 211.602 L 513.779 211.626 L 513.781 211.65 L 513.784 211.674 L 513.786 211.698 L 513.788 211.722 L 513.79 211.746 L 513.793 211.769 L 513.795 211.793 L 513.797 211.817 L 513.8 211.841 L 513.802 211.865 L 513.804 211.889 L 513.807 211.913 L 513.809 211.936 L 513.811 211.96 L 513.814 211.984 L 513.816 212.008 L 513.818 212.032 L 513.821 212.056 L 513.823 212.079 L 513.825 212.103 L 513.828 212.127 L 513.83 212.151 L 513.832 212.175 L 513.835 212.198 L 513.837 212.222 L 513.839 212.246 L 513.842 212.27 L 513.844 212.294 L 513.846 212.317 L 513.849 212.341 L 513.851 212.365 L 513.853 212.389 L 513.856 212.412 L 513.858 212.436 L 513.86 212.46 L 513.863 212.484 L 513.865 212.507 L 513.867 212.531 L 513.87 212.555 L 513.872 212.578 L 513.874 212.602 L 513.877 212.626 L 513.879 212.65 L 513.881 212.673 L 513.884 212.697 L 513.886 212.721 L 513.888 212.744 L 513.891 212.768 L 513.893 212.792 L 513.895 212.815 L 513.898 212.839 L 513.9 212.863 L 513.902 212.886 L 513.905 212.91 L 513.907 212.934 L 513.909 212.957 L 513.912 212.981 L 513.914 213.005 L 513.916 213.028 L 513.919 213.052 L 513.921 213.075 L 513.923 213.099 L 513.926 213.123 L 513.928 213.146 L 513.93 213.17 L 513.933 213.193 L 513.935 213.217 L 513.937 213.241 L 513.94 213.264 L 513.942 213.288 L 513.944 213.311 L 513.947 213.335 L 513.949 213.358 L 513.951 213.382 L 513.954 213.405 L 513.956 213.429 L 513.958 213.453 L 513.961 213.476 L 513.963 213.5 L 513.966 213.523 L 513.968 213.547 L 513.97 213.57 L 513.973 213.594 L 513.975 213.617 L 513.977 213.641 L 513.98 213.664 L 513.982 213.688 L 513.984 213.711 L 513.987 213.735 L 513.989 213.758 L 513.991 213.782 L 513.994 213.805 L 513.996 213.828 L 513.998 213.852 L 514.001 213.875 L 514.003 213.899 L 514.005 213.922 L 514.008 213.946 L 514.01 213.969 L 514.013 213.993 L 514.015 214.016 L 514.017 214.039 L 514.02 214.063 L 514.022 214.086 L 514.024 214.11 L 514.027 214.133 L 514.029 214.156 L 514.031 214.18 L 514.034 214.203 L 514.036 214.227 L 514.038 214.25 L 514.041 214.273 L 514.043 214.297 L 514.046 214.32 L 514.048 214.343 L 514.05 214.367 L 514.053 214.39 L 514.055 214.413 L 514.057 214.437 L 514.06 214.46 L 514.062 214.483 L 514.064 214.507 L 514.067 214.53 L 514.069 214.553 L 514.072 214.577 L 514.074 214.6 L 514.076 214.623 L 514.079 214.647 L 514.081 214.67 L 514.083 214.693 L 514.086 214.716 L 514.088 214.74 L 514.09 214.763 L 514.093 214.786 L 514.095 214.81 L 514.098 214.833 L 514.1 214.856 L 514.102 214.879 L 514.105 214.903 L 514.107 214.926 L 514.109 214.949 L 514.112 214.972 L 514.114 214.995 L 514.117 215.019 L 514.119 215.042 L 514.121 215.065 L 514.124 215.088 L 514.126 215.112 L 514.128 215.135 L 514.131 215.158 L 514.133 215.181 L 514.135 215.204 L 514.138 215.227 L 514.14 215.251 L 514.143 215.274 L 514.145 215.297 L 514.147 215.32 L 514.15 215.343 L 514.152 215.366 L 514.154 215.39 L 514.157 215.413 L 514.159 215.436 L 514.162 215.459 L 514.164 215.482 L 514.166 215.505 L 514.169 215.528 L 514.171 215.551 L 514.174 215.575 L 514.176 215.598 L 514.178 215.621 L 514.181 215.644 L 514.183 215.667 L 514.185 215.69 L 514.188 215.713 L 514.19 215.736 L 514.193 215.759 L 514.195 215.782 L 514.197 215.805 L 514.2 215.828 L 514.202 215.851 L 514.204 215.875 L 514.207 215.898 L 514.209 215.921 L 514.212 215.944 L 514.214 215.967 L 514.216 215.99 L 514.219 216.013 L 514.221 216.036 L 514.224 216.059 L 514.226 216.082 L 514.228 216.105 L 514.231 216.128 L 514.233 216.151 L 514.236 216.174 L 514.238 216.197 L 514.24 216.22 L 514.243 216.243 L 514.245 216.266 L 514.247 216.289 L 514.25 216.312 L 514.252 216.334 L 514.255 216.357 L 514.257 216.38 L 514.259 216.403 L 514.262 216.426 L 514.264 216.449 L 514.267 216.472 L 514.269 216.495 L 514.271 216.518 L 514.274 216.541 L 514.276 216.564 L 514.279 216.587 L 514.281 216.61 L 514.283 216.632 L 514.286 216.655 L 514.288 216.678 L 514.291 216.701 L 514.293 216.724 L 514.295 216.747 L 514.298 216.77 L 514.3 216.793 L 514.303 216.815 L 514.305 216.838 L 514.307 216.861 L 514.31 216.884 L 514.312 216.907 L 514.315 216.93 L 514.317 216.952 L 514.319 216.975 L 514.322 216.998 L 514.324 217.021 L 514.327 217.044 L 514.329 217.067 L 514.331 217.089 L 514.334 217.112 L 514.336 217.135 L 514.339 217.158 L 514.341 217.18 L 514.343 217.203 L 514.346 217.226 L 514.348 217.249 L 514.351 217.272 L 514.353 217.294 L 514.355 217.317 L 514.358 217.34 L 514.36 217.363 L 514.363 217.385 L 514.365 217.408 L 514.367 217.431 L 514.37 217.454 L 514.372 217.476 L 514.375 217.499 L 514.377 217.522 L 514.379 217.544 L 514.382 217.567 L 514.384 217.59 L 514.387 217.613 L 514.389 217.635 L 514.392 217.658 L 514.394 217.681 L 514.396 217.703 L 514.399 217.726 L 514.401 217.749 L 514.404 217.771 L 514.406 217.794 L 514.408 217.817 L 514.411 217.839 L 514.413 217.862 L 514.416 217.885 L 514.418 217.907 L 514.421 217.93 L 514.423 217.952 L 514.425 217.975 L 514.428 217.998 L 514.43 218.02 L 514.433 218.043 L 514.435 218.065 L 514.437 218.088 L 514.44 218.111 L 514.442 218.133 L 514.445 218.156 L 514.447 218.178 L 514.45 218.201 L 514.452 218.224 L 514.454 218.246 L 514.457 218.269 L 514.459 218.291 L 514.462 218.314 L 514.464 218.336 L 514.467 218.359 L 514.469 218.381 L 514.471 218.404 L 514.474 218.427 L 514.476 218.449 L 514.479 218.472 L 514.481 218.494 L 514.483 218.517 L 514.486 218.539 L 514.488 218.562 L 514.491 218.584 L 514.493 218.607 L 514.496 218.629 L 514.498 218.652 L 514.5 218.674 L 514.503 218.697 L 514.505 218.719 L 514.508 218.742 L 514.51 218.764 L 514.513 218.786 L 514.515 218.809 L 514.517 218.831 L 514.52 218.854 L 514.522 218.876 L 514.525 218.899 L 514.527 218.921 L 514.53 218.944 L 514.532 218.966 L 514.535 218.988 L 514.537 219.011 L 514.539 219.033 L 514.542 219.056 L 514.544 219.078 L 514.547 219.1 L 514.549 219.123 L 514.552 219.145 L 514.554 219.168 L 514.556 219.19 L 514.559 219.212 L 514.561 219.235 L 514.564 219.257 L 514.566 219.279 L 514.569 219.302 L 514.571 219.324 L 514.574 219.347 L 514.576 219.369 L 514.578 219.391 L 514.581 219.414 L 514.583 219.436 L 514.586 219.458 L 514.588 219.481 L 514.591 219.503 L 514.593 219.525 L 514.595 219.548 L 514.598 219.57 L 514.6 219.592 L 514.603 219.614 L 514.605 219.637 L 514.608 219.659 L 514.61 219.681 L 514.613 219.704 L 514.615 219.726 L 514.617 219.748 L 514.62 219.77 L 514.622 219.793 L 514.625 219.815 L 514.627 219.837 L 514.63 219.859 L 514.632 219.882 L 514.635 219.904 L 514.637 219.926 L 514.64 219.948 L 514.642 219.971 L 514.644 219.993 L 514.647 220.015 L 514.649 220.037 L 514.652 220.059 L 514.654 220.082 L 514.657 220.104 L 514.659 220.126 L 514.662 220.148 L 514.664 220.17 L 514.667 220.193 L 514.669 220.215 L 514.671 220.237 L 514.674 220.259 L 514.676 220.281 L 514.679 220.303 L 514.681 220.326 L 514.684 220.348 L 514.686 220.37 L 514.689 220.392 L 514.691 220.414 L 514.694 220.436 L 514.696 220.458 L 514.698 220.481 L 514.701 220.503 L 514.703 220.525 L 514.706 220.547 L 514.708 220.569 L 514.711 220.591 L 514.713 220.613 L 514.716 220.635 L 514.718 220.657 L 514.721 220.679 L 514.723 220.702 L 514.726 220.724 L 514.728 220.746 L 514.73 220.768 L 514.733 220.79 L 514.735 220.812 L 514.738 220.834 L 514.74 220.856 L 514.743 220.878 L 514.745 220.9 L 514.748 220.922 L 514.75 220.944 L 514.753 220.966 L 514.755 220.988 L 514.758 221.01 L 514.76 221.032 L 514.762 221.054 L 514.765 221.076 L 514.767 221.098 L 514.77 221.12 L 514.772 221.142 L 514.775 221.164 L 514.777 221.186 L 514.78 221.208 L 514.782 221.23 L 514.785 221.252 L 514.787 221.274 L 514.79 221.296 L 514.792 221.318 L 514.795 221.34 L 514.797 221.362 L 514.8 221.384 L 514.802 221.406 L 514.804 221.428 L 514.807 221.45 L 514.809 221.472 L 514.812 221.494 L 514.814 221.515 L 514.817 221.537 L 514.819 221.559 L 514.822 221.581 L 514.824 221.603 L 514.827 221.625 L 514.829 221.647 L 514.832 221.669 L 514.834 221.691 L 514.837 221.713 L 514.839 221.734 L 514.842 221.756 L 514.844 221.778 L 514.847 221.8 L 514.849 221.822 L 514.852 221.844 L 514.854 221.866 L 514.857 221.887 L 514.859 221.909 L 514.862 221.931 L 514.864 221.953 L 514.866 221.975 L 514.869 221.997 L 514.871 222.018 L 514.874 222.04 L 514.876 222.062 L 514.879 222.084 L 514.881 222.106 L 514.884 222.127 L 514.886 222.149 L 514.889 222.171 L 514.891 222.193 L 514.894 222.215 L 514.896 222.236 L 514.899 222.258 L 514.901 222.28 L 514.904 222.302 L 514.906 222.323 L 514.909 222.345 L 514.911 222.367 L 514.914 222.389 L 514.916 222.41 L 514.919 222.432 L 514.921 222.454 L 514.924 222.476 L 514.926 222.497 L 514.929 222.519 L 514.931 222.541 L 514.934 222.563 L 514.936 222.584 L 514.939 222.606 L 514.941 222.628 L 514.944 222.649 L 514.946 222.671 L 514.949 222.693 L 514.951 222.714 L 514.954 222.736 L 514.956 222.758 L 514.959 222.78 L 514.961 222.801 L 514.964 222.823 L 514.966 222.844 L 514.969 222.866 L 514.971 222.888 L 514.974 222.909 L 514.976 222.931 L 514.979 222.953 L 514.981 222.974 L 514.984 222.996 L 514.986 223.018 L 514.989 223.039 L 514.991 223.061 L 514.994 223.082 L 514.996 223.104 L 514.999 223.126 L 515.001 223.147 L 515.004 223.169 L 515.006 223.19 L 515.009 223.212 L 515.011 223.234 L 515.014 223.255 L 515.016 223.277 L 515.019 223.298 L 515.021 223.32 L 515.024 223.342 L 515.026 223.363 L 515.029 223.385 L 515.031 223.406 L 515.034 223.428 L 515.036 223.449 L 515.039 223.471 L 515.041 223.492 L 515.044 223.514 L 515.046 223.535 L 515.049 223.557 L 515.051 223.578 L 515.054 223.6 L 515.056 223.621 L 515.059 223.643 L 515.061 223.664 L 515.064 223.686 L 515.066 223.707 L 515.069 223.729 L 515.071 223.75 L 515.074 223.772 L 515.076 223.793 L 515.079 223.815 L 515.081 223.836 L 515.084 223.858 L 515.086 223.879 L 515.089 223.901 L 515.091 223.922 L 515.094 223.944 L 515.097 223.965 L 515.099 223.986 L 515.102 224.008 L 515.104 224.029 L 515.107 224.051 L 515.109 224.072 L 515.112 224.094 L 515.114 224.115 L 515.117 224.136 L 515.119 224.158 L 515.122 224.179 L 515.124 224.201 L 515.127 224.222 L 515.129 224.243 L 515.132 224.265 L 515.134 224.286 L 515.137 224.308 L 515.139 224.329 L 515.142 224.35 L 515.144 224.372 L 515.147 224.393 L 515.149 224.414 L 515.152 224.436 L 515.155 224.457 L 515.157 224.478 L 515.16 224.5 L 515.162 224.521 L 515.165 224.542 L 515.167 224.564 L 515.17 224.585 L 515.172 224.606 L 515.175 224.628 L 515.177 224.649 L 515.18 224.67 L 515.182 224.692 L 515.185 224.713 L 515.187 224.734 L 515.19 224.756 L 515.192 224.777 L 515.195 224.798 L 515.198 224.819 L 515.2 224.841 L 515.203 224.862 L 515.205 224.883 L 515.208 224.904 L 515.21 224.926 L 515.213 224.947 L 515.215 224.968 L 515.218 224.989 L 515.22 225.011 L 515.223 225.032 L 515.225 225.053 L 515.228 225.074 L 515.23 225.096 L 515.233 225.117 L 515.236 225.138 L 515.238 225.159 L 515.241 225.18 L 515.243 225.202 L 515.246 225.223 L 515.248 225.244 L 515.251 225.265 L 515.253 225.286 L 515.256 225.308 L 515.258 225.329 L 515.261 225.35 L 515.263 225.371 L 515.266 225.392 L 515.269 225.414 L 515.271 225.435 L 515.274 225.456 L 515.276 225.477 L 515.279 225.498 L 515.281 225.519 L 515.284 225.54 L 515.286 225.562 L 515.289 225.583 L 515.291 225.604 L 515.294 225.625 L 515.297 225.646 L 515.299 225.667 L 515.302 225.688 L 515.304 225.709 L 515.307 225.731 L 515.309 225.752 L 515.312 225.773 L 515.314 225.794 L 515.317 225.815 L 515.319 225.836 L 515.322 225.857 L 515.325 225.878 L 515.327 225.899 L 515.33 225.92 L 515.332 225.941 L 515.335 225.962 L 515.337 225.983 L 515.34 226.005 L 515.342 226.026 L 515.345 226.047 L 515.348 226.068 L 515.35 226.089 L 515.353 226.11 L 515.355 226.131 L 515.358 226.152 L 515.36 226.173 L 515.363 226.194 L 515.365 226.215 L 515.368 226.236 L 515.371 226.257 L 515.373 226.278 L 515.376 226.299 L 515.378 226.32 L 515.381 226.341 L 515.383 226.362 L 515.386 226.383 L 515.388 226.404 L 515.391 226.425 L 515.394 226.446 L 515.396 226.467 L 515.399 226.488 L 515.401 226.509 L 515.404 226.53 L 515.406 226.551 L 515.409 226.571 L 515.412 226.592 L 515.414 226.613 L 515.417 226.634 L 515.419 226.655 L 515.422 226.676 L 515.424 226.697 L 515.427 226.718 L 515.429 226.739 L 515.432 226.76 L 515.435 226.781 L 515.437 226.802 L 515.44 226.823 L 515.442 226.843 L 515.445 226.864 L 515.447 226.885 L 515.45 226.906 L 515.453 226.927 L 515.455 226.948 L 515.458 226.969 L 515.46 226.99 L 515.463 227.01 L 515.465 227.031 L 515.468 227.052 L 515.471 227.073 L 515.473 227.094 L 515.476 227.115 L 515.478 227.136 L 515.481 227.156 L 515.483 227.177 L 515.486 227.198 L 515.489 227.219 L 515.491 227.24 L 515.494 227.26 L 515.496 227.281 L 515.499 227.302 L 515.501 227.323 L 515.504 227.344 L 515.507 227.365 L 515.509 227.385 L 515.512 227.406 L 515.514 227.427 L 515.517 227.448 L 515.52 227.468 L 515.522 227.489 L 515.525 227.51 L 515.527 227.531 L 515.53 227.552 L 515.532 227.572 L 515.535 227.593 L 515.538 227.614 L 515.54 227.635 L 515.543 227.655 L 515.545 227.676 L 515.548 227.697 L 515.55 227.717 L 515.553 227.738 L 515.556 227.759 L 515.558 227.78 L 515.561 227.8 L 515.563 227.821 L 515.566 227.842 L 515.569 227.862 L 515.571 227.883 L 515.574 227.904 L 515.576 227.925 L 515.579 227.945 L 515.582 227.966 L 515.584 227.987 L 515.587 228.007 L 515.589 228.028 L 515.592 228.049 L 515.594 228.069 L 515.597 228.09 L 515.6 228.111 L 515.602 228.131 L 515.605 228.152 L 515.607 228.173 L 515.61 228.193 L 515.613 228.214 L 515.615 228.235 L 515.618 228.255 L 515.62 228.276 L 515.623 228.296 L 515.626 228.317 L 515.628 228.338 L 515.631 228.358 L 515.633 228.379 L 515.636 228.399 L 515.639 228.42 L 515.641 228.441 L 515.644 228.461 L 515.646 228.482 L 515.649 228.502 L 515.652 228.523 L 515.654 228.544 L 515.657 228.564 L 515.659 228.585 L 515.662 228.605 L 515.665 228.626 L 515.667 228.646 L 515.67 228.667 L 515.672 228.688 L 515.675 228.708 L 515.678 228.729 L 515.68 228.749 L 515.683 228.77 L 515.685 228.79 L 515.688 228.811 L 515.691 228.831 L 515.693 228.852 L 515.696 228.872 L 515.698 228.893 L 515.701 228.913 L 515.704 228.934 L 515.706 228.954 L 515.709 228.975 L 515.711 228.995 L 515.714 229.016 L 515.717 229.036 L 515.719 229.057 L 515.722 229.077 L 515.724 229.098 L 515.727 229.118 L 515.73 229.139 L 515.732 229.159 L 515.735 229.18 L 515.737 229.2 L 515.74 229.221 L 515.743 229.241 L 515.745 229.262 L 515.748 229.282 L 515.751 229.302 L 515.753 229.323 L 515.756 229.343 L 515.758 229.364 L 515.761 229.384 L 515.764 229.405 L 515.766 229.425 L 515.769 229.445 L 515.771 229.466 L 515.774 229.486 L 515.777 229.507 L 515.779 229.527 L 515.782 229.547 L 515.785 229.568 L 515.787 229.588 L 515.79 229.609 L 515.792 229.629 L 515.795 229.649 L 515.798 229.67 L 515.8 229.69 L 515.803 229.71 L 515.805 229.731 L 515.808 229.751 L 515.811 229.772 L 515.813 229.792 L 515.816 229.812 L 515.819 229.833 L 515.821 229.853 L 515.824 229.873 L 515.826 229.894 L 515.829 229.914 L 515.832 229.934 L 515.834 229.955 L 515.837 229.975 L 515.84 229.995 L 515.842 230.016 L 515.845 230.036 L 515.847 230.056 L 515.85 230.076 L 515.853 230.097 L 515.855 230.117 L 515.858 230.137 L 515.861 230.158 L 515.863 230.178 L 515.866 230.198 L 515.868 230.218 L 515.871 230.239 L 515.874 230.259 L 515.876 230.279 L 515.879 230.3 L 515.882 230.32 L 515.884 230.34 L 515.887 230.36 L 515.89 230.381 L 515.892 230.401 L 515.895 230.421 L 515.897 230.441 L 515.9 230.461 L 515.903 230.482" id="blue" stroke="blue" style="stroke:blue" vector-effect="non-scaling-stroke"/><g id="captions"><text alignment-baseline="middle" text-anchor="middle" transform="rotate(0,371.203,251.742)" x="371.203" y="251.742">LEE, 1, 1</text></g></g></svg>