<svg width="3965.036" height="1790.203" viewBox="0 0 3965.036 1790.203" xmlns="http://www.w3.org/2000/svg"><g id="svgGroup" stroke-linecap="round" fill-rule="evenodd" font-size="9pt" stroke="#000" stroke-width="0.25mm" fill="none" style="stroke:#000;stroke-width:0.25mm;fill:none"><path d="M 1296.576 458.609 L 1296.591 466.116 L 1296.606 473.591 L 1296.621 481.036 L 1296.636 488.451 L 1296.652 495.834 L 1296.667 503.187 L 1296.683 510.51 L 1296.699 517.801 L 1296.715 525.062 L 1296.731 532.293 L 1296.748 539.493 L 1296.764 546.662 L 1296.781 553.801 L 1296.798 560.91 L 1296.815 567.988 L 1296.832 575.035 L 1296.85 582.052 L 1296.867 589.039 L 1296.885 595.995 L 1296.903 602.921 L 1296.921 609.817 L 1296.94 616.682 L 1296.958 623.518 L 1296.977 630.322 L 1296.996 637.097 L 1297.015 643.841 L 1297.035 650.556 L 1297.054 657.24 L 1297.074 663.894 L 1297.094 670.517 L 1297.115 677.111 L 1297.135 683.675 L 1297.156 690.209 L 1297.177 696.712 L 1297.198 703.186 L 1297.22 709.63 L 1297.241 716.044 L 1297.263 722.428 L 1297.286 728.782 L 1297.308 735.107 L 1297.331 741.401 L 1297.354 747.666 L 1297.377 753.901 L 1297.401 760.107 L 1297.425 766.283 L 1297.449 772.429 L 1297.473 778.546 L 1297.498 784.633 L 1297.523 790.69 L 1297.548 796.718 L 1297.574 802.717 L 1297.599 808.686 L 1297.626 814.626 L 1297.652 820.537 L 1297.679 826.418 L 1297.706 832.27 L 1297.733 838.093 L 1297.761 843.887 L 1297.789 849.652 L 1297.817 855.387 L 1297.846 861.094 L 1297.875 866.771 L 1297.904 872.42 L 1297.934 878.039 L 1297.964 883.63 L 1297.994 889.192 L 1298.025 894.725 L 1298.056 900.229 L 1298.088 905.705 L 1298.119 911.152 L 1298.151 916.571 L 1298.184 921.961 L 1298.217 927.322 L 1298.25 932.655 L 1298.284 937.96 L 1298.318 943.236 L 1298.352 948.484 L 1298.387 953.704 L 1298.422 958.896 L 1298.457 964.059 L 1298.493 969.195 L 1298.529 974.303 L 1298.566 979.382 L 1298.603 984.434 L 1298.641 989.458 L 1298.679 994.454 L 1298.717 999.423 L 1298.756 1004.364 L 1298.795 1009.277 L 1298.835 1014.163 L 1298.875 1019.021 L 1298.915 1023.852 L 1298.956 1028.656 L 1298.998 1033.433 L 1299.039 1038.182 L 1299.082 1042.905 L 1299.124 1047.6 L 1299.167 1052.269 L 1299.211 1056.911 L 1299.255 1061.526 M 2587.206 684.91 L 2587.167 679.899 L 2587.129 674.87 L 2587.092 669.824 L 2587.056 664.761 L 2587.021 659.679 L 2586.987 654.581 L 2586.954 649.464 L 2586.923 644.331 L 2586.892 639.179 L 2586.862 634.01 L 2586.833 628.823 L 2586.806 623.619 L 2586.779 618.397 L 2586.754 613.158 L 2586.729 607.901 L 2586.706 602.626 L 2586.683 597.333 L 2586.662 592.023 L 2586.641 586.695 L 2586.622 581.35 L 2586.604 575.987 L 2586.586 570.606 L 2586.57 565.207 L 2586.555 559.791 L 2586.54 554.356 L 2586.527 548.905 L 2586.515 543.435 L 2586.503 537.947 L 2586.493 532.442 L 2586.484 526.919 L 2586.476 521.378 L 2586.468 515.82 L 2586.462 510.243 L 2586.457 504.649 L 2586.452 499.037 L 2586.449 493.407 L 2586.447 487.759 L 2586.445 482.093 L 2586.445 476.41 L 2586.445 470.708 L 2586.447 464.989 L 2586.449 459.252 L 2586.453 453.497 L 2586.457 447.724 L 2586.463 441.933 L 2586.469 436.124 L 2586.476 430.297 L 2586.485 424.453 L 2586.494 418.59 L 2586.504 412.709 L 2586.515 406.811 L 2586.527 400.894 L 2586.54 394.959 L 2586.554 389.007 L 2586.569 383.036 L 2586.585 377.048 L 2586.602 371.041 L 2586.62 365.017 L 2586.638 358.974 L 2586.658 352.914 L 2586.678 346.835 L 2586.7 340.738 L 2586.722 334.623 L 2586.745 328.491 L 2586.769 322.34 L 2586.795 316.171 L 2586.821 309.984 L 2586.847 303.779 L 2586.875 297.556 L 2586.904 291.314 L 2586.934 285.055 L 2586.964 278.777 L 2586.995 272.482 L 2587.028 266.168 L 2587.061 259.836 L 2587.095 253.486 L 2587.13 247.118 L 2587.166 240.732 L 2587.202 234.327 L 2587.24 227.905 L 2587.278 221.464 L 2587.318 215.005 L 2587.358 208.528 L 2587.399 202.033 L 2587.441 195.519 L 2587.483 188.988 L 2587.527 182.438 L 2587.572 175.87 L 2587.617 169.284 L 2587.663 162.679 L 2587.71 156.056 L 2587.758 149.416 L 2587.807 142.756 L 2587.856 136.079 L 2587.907 129.384 L 2587.958 122.67 L 2588.01 115.938 L 2588.063 109.187 L 2588.116 102.419 L 2588.171 95.632 M 0 501.667 L 0.054 508.569 L 0.108 515.444 L 0.162 522.292 L 0.216 529.113 L 0.269 535.907 L 0.322 542.674 L 0.375 549.413 L 0.428 556.126 L 0.481 562.811 L 0.534 569.47 L 0.586 576.102 L 0.638 582.706 L 0.69 589.284 L 0.742 595.835 L 0.794 602.359 L 0.845 608.856 L 0.897 615.326 L 0.948 621.769 L 0.999 628.186 L 1.05 634.575 L 1.101 640.938 L 1.151 647.274 L 1.201 653.584 L 1.252 659.867 L 1.302 666.123 L 1.351 672.352 L 1.401 678.555 L 1.451 684.731 L 1.5 690.88 L 1.549 697.003 L 1.598 703.099 L 1.647 709.169 L 1.696 715.212 L 1.745 721.229 L 1.793 727.219 L 1.841 733.183 L 1.89 739.12 L 1.938 745.031 L 1.985 750.916 L 2.033 756.774 L 2.081 762.606 L 2.128 768.412 L 2.175 774.192 L 2.222 779.945 L 2.269 785.672 L 2.316 791.373 L 2.363 797.047 L 2.409 802.696 L 2.456 808.318 L 2.502 813.915 L 2.548 819.485 L 2.594 825.03 L 2.64 830.548 L 2.686 836.041 L 2.731 841.508 L 2.777 846.948 L 2.822 852.363 L 2.867 857.752 L 2.912 863.116 L 2.957 868.453 L 3.002 873.765 L 3.047 879.052 L 3.091 884.312 L 3.136 889.548 L 3.18 894.757 L 3.224 899.941 L 3.268 905.1 L 3.312 910.233 L 3.356 915.341 L 3.4 920.423 L 3.443 925.48 L 3.487 930.512 L 3.53 935.518 L 3.573 940.5 L 3.616 945.456 L 3.659 950.387 L 3.702 955.293 L 3.745 960.174 L 3.787 965.031 L 3.83 969.862 L 3.872 974.668 L 3.915 979.45 L 3.957 984.206 L 3.999 988.938 L 4.041 993.646 L 4.083 998.328 L 4.125 1002.986 L 4.166 1007.62 L 4.208 1012.229 L 4.249 1016.814 L 4.291 1021.374 L 4.332 1025.911 L 4.373 1030.422 L 4.414 1034.91 L 4.455 1039.374 L 4.496 1043.813 L 4.537 1048.229 L 4.578 1052.62 L 4.618 1056.988 L 4.659 1061.332 M 2587.238 686.014 L 2587.334 691.166 L 2587.432 696.3 L 2587.53 701.415 L 2587.629 706.511 L 2587.729 711.589 L 2587.83 716.649 L 2587.932 721.689 L 2588.035 726.712 L 2588.139 731.715 L 2588.244 736.701 L 2588.35 741.667 L 2588.457 746.616 L 2588.564 751.545 L 2588.673 756.457 L 2588.783 761.35 L 2588.893 766.224 L 2589.005 771.08 L 2589.118 775.918 L 2589.231 780.737 L 2589.346 785.538 L 2589.461 790.321 L 2589.578 795.085 L 2589.695 799.831 L 2589.813 804.559 L 2589.933 809.268 L 2590.053 813.959 L 2590.175 818.632 L 2590.297 823.287 L 2590.42 827.924 L 2590.545 832.542 L 2590.67 837.142 L 2590.796 841.724 L 2590.924 846.288 L 2591.052 850.834 L 2591.181 855.362 L 2591.312 859.872 L 2591.443 864.363 L 2591.576 868.837 L 2591.709 873.293 L 2591.843 877.73 L 2591.979 882.15 L 2592.115 886.552 L 2592.253 890.936 L 2592.391 895.302 L 2592.531 899.65 L 2592.671 903.98 L 2592.813 908.292 L 2592.955 912.587 L 2593.099 916.864 L 2593.244 921.123 L 2593.389 925.364 L 2593.536 929.587 L 2593.684 933.793 L 2593.833 937.982 L 2593.983 942.152 L 2594.133 946.305 L 2594.285 950.44 L 2594.438 954.558 L 2594.593 958.659 L 2594.748 962.741 L 2594.904 966.807 L 2595.061 970.854 L 2595.219 974.885 L 2595.379 978.898 L 2595.539 982.893 L 2595.7 986.872 L 2595.863 990.833 L 2596.027 994.776 L 2596.191 998.703 L 2596.357 1002.612 L 2596.524 1006.504 L 2596.692 1010.379 L 2596.861 1014.236 L 2597.031 1018.077 L 2597.202 1021.9 L 2597.374 1025.707 L 2597.547 1029.496 L 2597.721 1033.269 L 2597.897 1037.024 L 2598.073 1040.763 L 2598.251 1044.485 L 2598.43 1048.19 L 2598.609 1051.878 L 2598.79 1055.549 L 2598.972 1059.204 L 2599.155 1062.842 L 2599.339 1066.463 L 2599.525 1070.068 L 2599.711 1073.656 L 2599.898 1077.228 L 2600.087 1080.783 L 2600.277 1084.322 L 2600.467 1087.844 L 2600.659 1091.35 L 2600.852 1094.839 L 2601.046 1098.313 L 2601.241 1101.77 L 2601.438 1105.21 L 2601.635 1108.635 L 2601.834 1112.044 M 1306.423 1119.174 L 1306.714 1122.751 L 1307.005 1126.312 L 1307.295 1129.857 L 1307.583 1133.386 L 1307.871 1136.898 L 1308.159 1140.395 L 1308.445 1143.875 L 1308.73 1147.34 L 1309.015 1150.788 L 1309.298 1154.221 L 1309.581 1157.638 L 1309.863 1161.039 L 1310.145 1164.424 L 1310.425 1167.793 L 1310.705 1171.147 L 1310.983 1174.485 L 1311.261 1177.808 L 1311.538 1181.115 L 1311.815 1184.407 L 1312.09 1187.683 L 1312.365 1190.944 L 1312.639 1194.189 L 1312.912 1197.419 L 1313.185 1200.634 L 1313.457 1203.834 L 1313.728 1207.018 L 1313.998 1210.188 L 1314.267 1213.342 L 1314.536 1216.482 L 1314.804 1219.607 L 1315.071 1222.717 L 1315.338 1225.812 L 1315.604 1228.892 L 1315.869 1231.958 L 1316.133 1235.009 L 1316.397 1238.046 L 1316.66 1241.068 L 1316.922 1244.076 L 1317.184 1247.069 L 1317.445 1250.048 L 1317.705 1253.013 L 1317.965 1255.964 L 1318.224 1258.901 L 1318.483 1261.823 L 1318.74 1264.732 L 1318.998 1267.627 L 1319.254 1270.508 L 1319.51 1273.376 L 1319.765 1276.23 L 1320.02 1279.07 L 1320.274 1281.897 L 1320.528 1284.71 L 1320.781 1287.511 L 1321.033 1290.298 L 1321.285 1293.071 L 1321.536 1295.832 L 1321.787 1298.58 L 1322.037 1301.315 L 1322.287 1304.037 L 1322.536 1306.746 L 1322.785 1309.443 L 1323.033 1312.127 L 1323.281 1314.798 L 1323.528 1317.458 L 1323.774 1320.105 L 1324.021 1322.74 L 1324.266 1325.363 L 1324.512 1327.973 L 1324.757 1330.572 L 1325.001 1333.16 L 1325.245 1335.735 L 1325.489 1338.299 L 1325.732 1340.852 L 1325.975 1343.393 L 1326.217 1345.923 L 1326.46 1348.442 L 1326.701 1350.95 L 1326.943 1353.446 L 1327.184 1355.933 L 1327.424 1358.408 L 1327.665 1360.873 L 1327.905 1363.327 L 1328.145 1365.772 L 1328.384 1368.205 L 1328.624 1370.629 L 1328.863 1373.043 L 1329.101 1375.447 L 1329.34 1377.842 L 1329.578 1380.227 L 1329.816 1382.602 L 1330.054 1384.968 L 1330.292 1387.325 L 1330.529 1389.673 L 1330.766 1392.012 L 1331.004 1394.342 L 1331.241 1396.664 L 1331.477 1398.977 L 1331.714 1401.282 L 1331.951 1403.578 L 1332.187 1405.867 M 12.78 1225.235 L 13.122 1228.676 L 13.463 1232.102 L 13.802 1235.513 L 14.14 1238.909 L 14.476 1242.29 L 14.811 1245.657 L 15.145 1249.008 L 15.477 1252.344 L 15.808 1255.665 L 16.138 1258.972 L 16.466 1262.264 L 16.793 1265.541 L 17.118 1268.803 L 17.442 1272.051 L 17.765 1275.284 L 18.086 1278.503 L 18.406 1281.707 L 18.724 1284.896 L 19.041 1288.071 L 19.357 1291.232 L 19.672 1294.378 L 19.985 1297.51 L 20.297 1300.628 L 20.607 1303.731 L 20.917 1306.821 L 21.225 1309.896 L 21.531 1312.957 L 21.836 1316.004 L 22.14 1319.037 L 22.443 1322.056 L 22.745 1325.061 L 23.045 1328.052 L 23.344 1331.03 L 23.641 1333.994 L 23.937 1336.944 L 24.232 1339.88 L 24.526 1342.803 L 24.819 1345.713 L 25.11 1348.609 L 25.4 1351.491 L 25.689 1354.36 L 25.976 1357.216 L 26.263 1360.059 L 26.548 1362.888 L 26.832 1365.705 L 27.114 1368.508 L 27.396 1371.298 L 27.676 1374.076 L 27.955 1376.84 L 28.233 1379.592 L 28.51 1382.331 L 28.786 1385.057 L 29.06 1387.771 L 29.333 1390.472 L 29.606 1393.161 L 29.877 1395.837 L 30.146 1398.501 L 30.415 1401.153 L 30.683 1403.792 L 30.949 1406.42 L 31.215 1409.035 L 31.479 1411.639 L 31.742 1414.23 L 32.004 1416.81 L 32.265 1419.378 L 32.525 1421.935 L 32.784 1424.48 L 33.042 1427.013 L 33.299 1429.536 L 33.555 1432.046 L 33.81 1434.546 L 34.064 1437.035 L 34.316 1439.512 L 34.568 1441.979 L 34.819 1444.434 L 35.069 1446.879 L 35.318 1449.314 L 35.566 1451.737 L 35.812 1454.151 L 36.058 1456.553 L 36.304 1458.946 L 36.548 1461.329 L 36.791 1463.701 L 37.033 1466.063 L 37.275 1468.416 L 37.515 1470.759 L 37.755 1473.092 L 37.994 1475.416 L 38.232 1477.73 L 38.469 1480.035 L 38.705 1482.33 L 38.941 1484.617 L 39.175 1486.894 L 39.409 1489.163 L 39.643 1491.423 L 39.875 1493.674 L 40.106 1495.917 L 40.337 1498.152 L 40.567 1500.378 L 40.797 1502.596 M 5.611 475.803 L 5.636 473.496 L 5.661 471.186 L 5.686 468.873 L 5.71 466.558 L 5.735 464.239 L 5.76 461.917 L 5.785 459.592 L 5.81 457.264 L 5.835 454.934 L 5.86 452.6 L 5.886 450.263 L 5.911 447.923 L 5.936 445.58 L 5.961 443.234 L 5.987 440.885 L 6.012 438.533 L 6.037 436.178 L 6.063 433.82 L 6.088 431.459 L 6.113 429.095 L 6.139 426.728 L 6.164 424.357 L 6.19 421.984 L 6.216 419.608 L 6.241 417.229 L 6.267 414.847 L 6.293 412.461 L 6.318 410.073 L 6.344 407.681 L 6.37 405.287 L 6.396 402.89 L 6.422 400.489 L 6.447 398.086 L 6.473 395.679 L 6.499 393.269 L 6.525 390.857 L 6.551 388.441 L 6.578 386.023 L 6.604 383.601 L 6.63 381.176 L 6.656 378.748 L 6.682 376.317 L 6.708 373.883 L 6.735 371.447 L 6.761 369.007 L 6.787 366.564 L 6.814 364.118 L 6.84 361.668 L 6.867 359.216 L 6.893 356.761 L 6.92 354.303 L 6.946 351.842 L 6.973 349.377 L 7 346.91 L 7.026 344.44 L 7.053 341.966 L 7.08 339.49 L 7.106 337.01 L 7.133 334.527 L 7.16 332.042 L 7.187 329.553 L 7.214 327.061 L 7.241 324.567 L 7.268 322.069 L 7.295 319.568 L 7.322 317.064 L 7.349 314.557 L 7.376 312.047 L 7.403 309.534 L 7.43 307.018 L 7.458 304.499 L 7.485 301.976 L 7.512 299.451 L 7.539 296.923 L 7.567 294.391 L 7.594 291.857 L 7.622 289.319 L 7.649 286.779 L 7.676 284.235 L 7.704 281.688 L 7.732 279.139 L 7.759 276.586 L 7.787 274.03 L 7.814 271.471 L 7.842 268.909 L 7.87 266.344 L 7.898 263.776 L 7.925 261.205 L 7.953 258.631 L 7.981 256.053 L 8.009 253.473 L 8.037 250.889 L 8.065 248.303 L 8.093 245.713 L 8.121 243.121 L 8.149 240.525 L 8.177 237.926 L 8.205 235.325 L 8.233 232.72 L 8.261 230.112 M 1300.291 453.581 L 1300.315 451.319 L 1300.338 449.054 L 1300.362 446.787 L 1300.386 444.516 L 1300.409 442.243 L 1300.433 439.967 L 1300.457 437.689 L 1300.48 435.407 L 1300.504 433.123 L 1300.528 430.836 L 1300.552 428.547 L 1300.576 426.254 L 1300.6 423.959 L 1300.624 421.661 L 1300.648 419.36 L 1300.672 417.056 L 1300.697 414.75 L 1300.721 412.44 L 1300.745 410.128 L 1300.769 407.814 L 1300.794 405.496 L 1300.818 403.176 L 1300.843 400.853 L 1300.867 398.527 L 1300.892 396.198 L 1300.916 393.866 L 1300.941 391.532 L 1300.966 389.195 L 1300.99 386.855 L 1301.015 384.512 L 1301.04 382.167 L 1301.065 379.819 L 1301.09 377.467 L 1301.115 375.114 L 1301.14 372.757 L 1301.165 370.397 L 1301.19 368.035 L 1301.215 365.67 L 1301.24 363.302 L 1301.265 360.932 L 1301.29 358.558 L 1301.316 356.182 L 1301.341 353.803 L 1301.366 351.421 L 1301.392 349.037 L 1301.417 346.649 L 1301.443 344.259 L 1301.468 341.866 L 1301.494 339.47 L 1301.519 337.072 L 1301.545 334.67 L 1301.571 332.266 L 1301.597 329.859 L 1301.622 327.449 L 1301.648 325.036 L 1301.674 322.621 L 1301.7 320.203 L 1301.726 317.782 L 1301.752 315.358 L 1301.778 312.931 L 1301.804 310.502 L 1301.83 308.07 L 1301.856 305.634 L 1301.882 303.197 L 1301.909 300.756 L 1301.935 298.312 L 1301.961 295.866 L 1301.988 293.417 L 1302.014 290.965 L 1302.041 288.51 L 1302.067 286.053 L 1302.094 283.593 L 1302.12 281.129 L 1302.147 278.663 L 1302.173 276.195 L 1302.2 273.723 L 1302.227 271.249 L 1302.253 268.772 L 1302.28 266.292 L 1302.307 263.809 L 1302.334 261.323 L 1302.361 258.835 L 1302.388 256.343 L 1302.415 253.849 L 1302.442 251.352 L 1302.469 248.853 L 1302.496 246.35 L 1302.523 243.845 L 1302.55 241.337 L 1302.578 238.826 L 1302.605 236.312 L 1302.632 233.795 L 1302.659 231.276 L 1302.687 228.754 L 1302.714 226.229 L 1302.742 223.701 L 1302.769 221.17 L 1302.797 218.637 L 1302.824 216.1 L 1302.852 213.561 M 2604.626 1111.445 L 2604.78 1113.905 L 2604.934 1116.356 L 2605.088 1118.8 L 2605.243 1121.234 L 2605.399 1123.661 L 2605.555 1126.079 L 2605.712 1128.489 L 2605.869 1130.89 L 2606.027 1133.284 L 2606.186 1135.669 L 2606.345 1138.045 L 2606.504 1140.414 L 2606.665 1142.774 L 2606.825 1145.126 L 2606.987 1147.47 L 2607.148 1149.805 L 2607.311 1152.133 L 2607.474 1154.452 L 2607.637 1156.764 L 2607.801 1159.067 L 2607.966 1161.362 L 2608.131 1163.65 L 2608.297 1165.929 L 2608.464 1168.2 L 2608.63 1170.463 L 2608.798 1172.719 L 2608.966 1174.966 L 2609.135 1177.206 L 2609.304 1179.437 L 2609.474 1181.661 L 2609.644 1183.877 L 2609.815 1186.086 L 2609.987 1188.286 L 2610.159 1190.479 L 2610.331 1192.664 L 2610.505 1194.841 L 2610.678 1197.011 L 2610.853 1199.173 L 2611.028 1201.327 L 2611.203 1203.474 L 2611.379 1205.613 L 2611.556 1207.745 L 2611.733 1209.869 L 2611.911 1211.986 L 2612.09 1214.095 L 2612.269 1216.197 L 2612.448 1218.291 L 2612.629 1220.378 L 2612.809 1222.458 L 2612.991 1224.53 L 2613.173 1226.595 L 2613.355 1228.653 L 2613.538 1230.704 L 2613.722 1232.747 L 2613.906 1234.784 L 2614.091 1236.813 L 2614.276 1238.835 L 2614.463 1240.85 L 2614.649 1242.858 L 2614.836 1244.859 L 2615.024 1246.853 L 2615.213 1248.84 L 2615.402 1250.82 L 2615.591 1252.793 L 2615.781 1254.76 L 2615.972 1256.72 L 2616.163 1258.672 L 2616.355 1260.619 L 2616.548 1262.558 L 2616.741 1264.491 L 2616.935 1266.417 L 2617.129 1268.337 L 2617.324 1270.25 L 2617.519 1272.157 L 2617.716 1274.057 L 2617.912 1275.95 L 2618.11 1277.838 L 2618.307 1279.719 L 2618.506 1281.593 L 2618.705 1283.462 L 2618.905 1285.324 L 2619.105 1287.18 L 2619.306 1289.03 L 2619.508 1290.873 L 2619.71 1292.711 L 2619.912 1294.543 L 2620.116 1296.368 L 2620.32 1298.188 L 2620.524 1300.002 L 2620.729 1301.81 L 2620.935 1303.612 L 2621.142 1305.408 L 2621.349 1307.199 L 2621.556 1308.984 L 2621.764 1310.763 L 2621.973 1312.537 L 2622.183 1314.305 L 2622.393 1316.068 L 2622.603 1317.825 L 2622.815 1319.577 M 53.292 1609.051 L 53.623 1610.998 L 53.952 1612.94 L 54.281 1614.875 L 54.609 1616.804 L 54.936 1618.727 L 55.262 1620.645 L 55.587 1622.557 L 55.911 1624.463 L 56.235 1626.363 L 56.557 1628.258 L 56.879 1630.148 L 57.2 1632.032 L 57.52 1633.912 L 57.839 1635.786 L 58.158 1637.655 L 58.476 1639.52 L 58.793 1641.379 L 59.109 1643.234 L 59.425 1645.085 L 59.74 1646.931 L 60.054 1648.772 L 60.368 1650.609 L 60.681 1652.443 L 60.994 1654.272 L 61.306 1656.097 L 61.617 1657.919 L 61.928 1659.736 L 62.238 1661.55 L 62.548 1663.361 L 62.857 1665.168 L 63.166 1666.972 L 63.474 1668.773 L 63.782 1670.571 L 64.089 1672.366 L 64.396 1674.158 L 64.703 1675.947 L 65.009 1677.733 L 65.315 1679.518 L 65.621 1681.299 L 65.926 1683.079 L 66.231 1684.857 L 66.535 1686.632 L 66.84 1688.405 L 67.144 1690.177 L 67.448 1691.947 L 67.752 1693.716 L 68.055 1695.483 L 68.358 1697.249 L 68.662 1699.013 L 68.965 1700.777 L 69.268 1702.539 L 69.571 1704.301 L 69.873 1706.062 L 70.176 1707.822 L 70.479 1709.582 L 70.782 1711.342 L 71.084 1713.101 L 71.387 1714.86 L 71.69 1716.619 L 71.993 1718.379 L 72.296 1720.138 L 72.599 1721.898 L 72.902 1723.659 L 73.205 1725.42 L 73.509 1727.181 L 73.813 1728.944 L 74.117 1730.707 L 74.421 1732.472 L 74.725 1734.238 L 75.03 1736.005 L 75.335 1737.774 L 75.64 1739.544 L 75.945 1741.315 L 76.251 1743.089 L 76.557 1744.864 L 76.864 1746.642 L 77.171 1748.422 L 77.478 1750.203 L 77.786 1751.988 L 78.094 1753.774 L 78.403 1755.564 L 78.712 1757.356 L 79.022 1759.151 L 79.332 1760.948 L 79.643 1762.749 L 79.955 1764.553 L 80.267 1766.361 L 80.579 1768.171 L 80.892 1769.986 L 81.206 1771.803 L 81.52 1773.625 L 81.836 1775.45 L 82.151 1777.279 L 82.468 1779.113 L 82.785 1780.95 L 83.103 1782.792 L 83.422 1784.638 L 83.741 1786.488 L 84.062 1788.343 L 84.383 1790.203 M 1338.202 1437.494 L 1338.415 1438.894 L 1338.628 1440.291 L 1338.84 1441.685 L 1339.053 1443.076 L 1339.265 1444.464 L 1339.477 1445.849 L 1339.689 1447.232 L 1339.901 1448.612 L 1340.112 1449.989 L 1340.324 1451.364 L 1340.535 1452.736 L 1340.746 1454.105 L 1340.958 1455.471 L 1341.169 1456.836 L 1341.38 1458.197 L 1341.59 1459.557 L 1341.801 1460.913 L 1342.012 1462.268 L 1342.222 1463.62 L 1342.433 1464.97 L 1342.643 1466.317 L 1342.854 1467.663 L 1343.064 1469.006 L 1343.274 1470.347 L 1343.484 1471.686 L 1343.694 1473.022 L 1343.905 1474.357 L 1344.115 1475.69 L 1344.325 1477.021 L 1344.535 1478.35 L 1344.745 1479.677 L 1344.955 1481.002 L 1345.164 1482.326 L 1345.374 1483.648 L 1345.584 1484.968 L 1345.794 1486.286 L 1346.004 1487.603 L 1346.214 1488.918 L 1346.424 1490.232 L 1346.634 1491.544 L 1346.844 1492.855 L 1347.055 1494.164 L 1347.265 1495.472 L 1347.475 1496.779 L 1347.685 1498.084 L 1347.896 1499.388 L 1348.106 1500.691 L 1348.316 1501.993 L 1348.527 1503.294 L 1348.738 1504.594 L 1348.948 1505.892 L 1349.159 1507.19 L 1349.37 1508.487 L 1349.581 1509.783 L 1349.793 1511.078 L 1350.004 1512.372 L 1350.215 1513.666 L 1350.427 1514.958 L 1350.639 1516.25 L 1350.85 1517.542 L 1351.062 1518.833 L 1351.275 1520.123 L 1351.487 1521.413 L 1351.699 1522.703 L 1351.912 1523.992 L 1352.125 1525.281 L 1352.338 1526.569 L 1352.551 1527.857 L 1352.765 1529.145 L 1352.978 1530.433 L 1353.192 1531.72 L 1353.406 1533.008 L 1353.621 1534.295 L 1353.835 1535.583 L 1354.05 1536.87 L 1354.265 1538.158 L 1354.48 1539.446 L 1354.696 1540.734 L 1354.911 1542.022 L 1355.127 1543.31 L 1355.344 1544.599 L 1355.56 1545.888 L 1355.777 1547.178 L 1355.994 1548.468 L 1356.212 1549.758 L 1356.429 1551.049 L 1356.647 1552.341 L 1356.866 1553.633 L 1357.084 1554.926 L 1357.303 1556.22 L 1357.523 1557.514 L 1357.742 1558.809 L 1357.962 1560.105 L 1358.183 1561.402 L 1358.404 1562.7 L 1358.625 1563.999 L 1358.846 1565.299 L 1359.068 1566.6 L 1359.29 1567.902 L 1359.512 1569.205" id="blue" stroke="blue" style="stroke:blue" vector-effect="non-scaling-stroke"/><path d="M 3965.003 2.025 L 3952.62 1.778 L 3940.309 1.546 L 3926.039 1.298 L 3913.886 1.102 L 3899.798 0.895 L 3885.806 0.709 L 3871.91 0.546 L 3860.074 0.423 L 3846.352 0.299 L 3832.722 0.197 L 3819.184 0.116 L 3805.737 0.057 L 3792.38 0.018 L 3779.111 0 L 3764.053 0.005 L 3750.97 0.031 L 3737.973 0.077 L 3725.06 0.144 L 3710.405 0.244 L 3697.67 0.353 L 3683.215 0.502 L 3670.653 0.653 L 3656.393 0.849 L 3643.999 1.041 L 3629.929 1.284 L 3615.958 1.552 L 3603.813 1.806 L 3590.024 2.119 L 3576.33 2.456 L 3562.729 2.817 L 3549.219 3.201 L 3535.801 3.608 L 3522.471 4.039 L 3509.228 4.492 L 3496.071 4.967 L 3481.371 5.529 L 3468.391 6.052 L 3455.493 6.597 L 3441.078 7.235 L 3428.348 7.827 L 3414.118 8.517 L 3401.548 9.153 L 3387.495 9.894 L 3375.079 10.573 L 3361.196 11.362 L 3347.399 12.176 L 3333.686 13.014 L 3320.056 13.877 L 3308.008 14.665 L 3294.528 15.573 L 3281.124 16.506 L 3266.317 17.569 L 3253.067 18.549 L 3239.886 19.553 L 3226.773 20.578 L 3213.725 21.626 L 3199.301 22.815 L 3186.384 23.907 L 3173.525 25.021 L 3159.304 26.282 L 3146.562 27.438 L 3132.465 28.746 L 3119.829 29.944 L 3105.846 31.298 L 3093.308 32.535 L 3079.427 33.932 L 3065.595 35.351 L 3053.187 36.647 L 3039.442 38.108 L 3025.739 39.589 L 3013.438 40.939 L 2999.804 42.459 L 2986.203 43.998 L 2972.631 45.557 L 2959.085 47.134 L 2945.563 48.729 L 2933.411 50.18 L 2919.926 51.808 L 2906.455 53.454 L 2892.996 55.115 L 2879.546 56.794 L 2866.102 58.488 L 2852.66 60.197 L 2840.563 61.747 L 2827.118 63.483 L 2813.667 65.233 L 2800.208 66.996 L 2786.736 68.771 L 2773.249 70.558 L 2759.744 72.357 L 2747.572 73.986 L 2734.024 75.806 L 2720.45 77.636 L 2706.846 79.476 L 2694.574 81.14 L 2680.904 82.997 L 2667.196 84.862 L 2654.823 86.548 L 2641.033 88.428 L 2628.581 90.126 L 2614.698 92.019 L 2602.158 93.728 L 2588.171 95.632 L 2575.532 97.35 L 2562.844 99.072 L 2548.684 100.989 L 2535.883 102.718 L 2523.024 104.449 L 2510.107 106.183 L 2497.128 107.919 L 2482.632 109.849 L 2469.517 111.588 L 2456.333 113.328 L 2444.555 114.875 L 2431.236 116.615 L 2417.843 118.356 L 2404.373 120.096 L 2390.824 121.835 L 2378.713 123.38 L 2365.009 125.116 L 2351.219 126.851 L 2338.888 128.391 L 2324.931 130.121 L 2312.448 131.657 L 2299.891 133.19 L 2285.675 134.912 L 2272.955 136.439 L 2260.157 137.962 L 2247.278 139.482 L 2234.318 140.999 L 2221.274 142.511 L 2208.145 144.019 L 2194.93 145.523 L 2181.626 147.021 L 2168.233 148.515 L 2154.749 150.004 L 2141.172 151.487 L 2129.215 152.78 L 2115.461 154.252 L 2103.346 155.534 L 2089.408 156.995 L 2077.13 158.267 L 2063.003 159.714 L 2050.558 160.975 L 2036.237 162.408 L 2023.62 163.657 L 2010.921 164.9 L 1998.139 166.136 L 1985.273 167.366 L 1972.322 168.59 L 1959.284 169.807 L 1946.16 171.017 L 1932.948 172.221 L 1919.647 173.417 L 1906.255 174.606 L 1892.772 175.787 L 1879.198 176.961 L 1867.488 177.961 L 1853.739 179.12 L 1839.896 180.271 L 1827.953 181.251 L 1813.93 182.387 L 1801.833 183.354 L 1787.627 184.473 L 1775.371 185.426 L 1760.979 186.529 L 1748.562 187.467 L 1736.07 188.399 L 1723.501 189.323 L 1708.741 190.393 L 1696.006 191.302 L 1683.192 192.204 L 1670.3 193.099 L 1657.329 193.986 L 1644.277 194.866 L 1631.145 195.737 L 1617.932 196.602 L 1604.637 197.458 L 1591.259 198.306 L 1577.798 199.147 L 1566.517 199.841 L 1552.901 200.666 L 1539.201 201.483 L 1525.416 202.292 L 1513.862 202.959 L 1499.917 203.752 L 1485.886 204.536 L 1474.125 205.183 L 1459.932 205.951 L 1448.035 206.584 L 1433.678 207.335 L 1421.644 207.954 L 1409.547 208.567 L 1394.946 209.293 L 1382.709 209.891 L 1367.94 210.601 L 1355.56 211.184 L 1343.116 211.761 L 1330.606 212.331 L 1315.507 213.006 L 1302.852 213.561 L 1290.13 214.109 L 1277.341 214.65 L 1264.484 215.184 L 1251.56 215.71 L 1238.568 216.23 L 1225.507 216.742 L 1212.377 217.247 L 1199.178 217.744 L 1185.909 218.234 L 1172.57 218.716 L 1159.161 219.191 L 1145.681 219.658 L 1132.13 220.118 L 1121.238 220.48 L 1107.558 220.926 L 1093.806 221.364 L 1079.982 221.794 L 1068.87 222.132 L 1054.914 222.547 L 1040.884 222.955 L 1029.608 223.275 L 1015.445 223.668 L 1001.207 224.053 L 989.764 224.354 L 975.391 224.724 L 963.839 225.014 L 949.33 225.368 L 937.668 225.646 L 923.022 225.985 L 911.249 226.251 L 896.464 226.575 L 884.581 226.828 L 872.647 227.075 L 857.659 227.376 L 845.613 227.611 L 833.516 227.84 L 818.323 228.118 L 806.112 228.334 L 793.85 228.544 L 781.537 228.749 L 766.072 228.996 L 753.643 229.188 L 741.162 229.373 L 728.628 229.553 L 716.043 229.726 L 700.237 229.935 L 687.533 230.095 L 674.776 230.249 L 661.967 230.397 L 649.104 230.539 L 636.187 230.675 L 623.217 230.805 L 610.194 230.928 L 597.116 231.046 L 583.984 231.157 L 570.798 231.261 L 557.557 231.36 L 544.262 231.452 L 530.911 231.538 L 517.506 231.617 L 504.045 231.69 L 493.913 231.741 L 480.355 231.802 L 466.741 231.858 L 453.071 231.906 L 439.345 231.949 L 425.563 231.984 L 415.189 232.006 L 401.307 232.03 L 387.369 232.048 L 373.373 232.058 L 362.839 232.062 L 348.743 232.061 L 334.59 232.053 L 323.937 232.043 L 309.682 232.023 L 295.369 231.996 L 284.596 231.972 L 270.181 231.933 L 255.708 231.888 L 244.814 231.849 L 230.237 231.791 L 219.266 231.743 L 204.586 231.673 L 189.846 231.596 L 178.752 231.534 L 163.908 231.444 L 152.735 231.373 L 137.786 231.271 L 126.534 231.19 L 111.479 231.075 L 100.148 230.984 L 84.987 230.857 L 73.576 230.757 L 62.13 230.653 L 46.816 230.508 L 35.29 230.394 L 19.868 230.235 L 8.261 230.112 L 5.611 475.803 L 17.219 475.894 L 32.645 476.011 L 44.177 476.093 L 59.5 476.196 L 70.955 476.269 L 82.377 476.338 L 97.555 476.423 L 108.901 476.482 L 123.979 476.555 L 135.249 476.604 L 150.226 476.664 L 161.421 476.704 L 175.855 476.747 L 187.418 476.783 L 201.755 476.813 L 216.476 476.841 L 227.481 476.857 L 242.103 476.873 L 253.034 476.88 L 267.559 476.883 L 281.592 476.874 L 292.843 476.871 L 306.781 476.851 L 321.098 476.828 L 332.231 476.81 L 346.02 476.771 L 360.186 476.728 L 370.774 476.692 L 384.844 476.638 L 398.433 476.573 L 412.395 476.505 L 423.256 476.453 L 436.699 476.369 L 450.513 476.283 L 463.85 476.185 L 477.558 476.085 L 491.212 475.978 L 501.418 475.893 L 514.979 475.774 L 528.488 475.649 L 541.527 475.513 L 554.931 475.375 L 568.283 475.229 L 581.169 475.074 L 594.418 474.915 L 607.614 474.75 L 620.76 474.578 L 633.443 474.397 L 646.487 474.212 L 659.479 474.021 L 672.421 473.823 L 684.904 473.616 L 697.745 473.405 L 713.321 473.131 L 726.05 472.905 L 738.325 472.672 L 750.954 472.434 L 763.534 472.19 L 778.789 471.874 L 791.259 471.615 L 803.679 471.35 L 815.653 471.078 L 830.653 470.729 L 842.917 470.444 L 855.132 470.153 L 869.939 469.78 L 882.047 469.475 L 894.107 469.163 L 908.723 468.765 L 920.677 468.44 L 935.163 468.026 L 947.012 467.687 L 961.369 467.256 L 973.113 466.903 L 986.957 466.456 L 998.598 466.091 L 1012.701 465.626 L 1027.116 465.152 L 1038.597 464.766 L 1052.504 464.276 L 1066.342 463.778 L 1077.666 463.371 L 1091.381 462.857 L 1105.028 462.334 L 1118.607 461.802 L 1129.721 461.368 L 1143.179 460.82 L 1156.57 460.264 L 1169.894 459.699 L 1183.523 459.123 L 1196.716 458.541 L 1209.843 457.951 L 1222.905 457.352 L 1235.902 456.745 L 1248.835 456.129 L 1262.068 455.501 L 1274.873 454.869 L 1287.614 454.229 L 1300.291 453.581 L 1313.268 452.919 L 1328.036 452.125 L 1340.515 451.451 L 1352.931 450.769 L 1365.644 450.073 L 1380.105 449.239 L 1392.327 448.532 L 1406.985 447.672 L 1419.073 446.947 L 1431.456 446.208 L 1445.533 445.325 L 1457.433 444.577 L 1471.706 443.666 L 1483.478 442.901 L 1497.598 441.971 L 1511.289 441.039 L 1523.212 440.24 L 1536.756 439.289 L 1550.22 438.328 L 1563.945 437.348 L 1575.606 436.514 L 1588.846 435.525 L 1602.348 434.515 L 1615.434 433.506 L 1628.78 432.476 L 1641.713 431.448 L 1654.905 430.399 L 1668.022 429.339 L 1680.73 428.283 L 1693.696 427.204 L 1706.589 426.116 L 1720.935 424.859 L 1733.668 423.751 L 1746.33 422.633 L 1758.596 421.521 L 1772.923 420.207 L 1785.361 419.061 L 1799.513 417.725 L 1811.801 416.559 L 1825.462 415.217 L 1837.601 414.033 L 1851.414 412.654 L 1865.136 411.265 L 1877.054 410.052 L 1890.612 408.642 L 1904.084 407.22 L 1917.47 405.789 L 1930.773 404.346 L 1943.681 402.912 L 1956.816 401.45 L 1969.866 399.977 L 1983.143 398.474 L 1996.033 396.981 L 2008.843 395.478 L 2021.574 393.965 L 2034.224 392.443 L 2033.945 392.442 L 2021.296 393.974 L 2008.499 395.5 L 1995.623 397.019 L 1982.667 398.532 L 1969.005 400.07 L 1956.212 401.57 L 1943.011 403.062 L 1930.411 404.517 L 1916.663 405.994 L 1903.211 407.466 L 1889.672 408.931 L 1876.047 410.388 L 1863.8 411.652 L 1850.289 413.096 L 1836.41 414.532 L 1823.941 415.776 L 1810.859 417.169 L 1797.871 418.402 L 1783.927 419.808 L 1771.164 421.027 L 1757.043 422.419 L 1744.831 423.597 L 1731.737 424.797 L 1718.951 425.99 L 1705.167 427.324 L 1691.596 428.504 L 1678.578 429.677 L 1666.184 430.816 L 1652.647 431.976 L 1639.404 433.128 L 1626.781 434.248 L 1613.021 435.387 L 1600.24 436.493 L 1586.332 437.619 L 1573.39 438.711 L 1561.04 439.658 L 1547.564 440.762 L 1534.395 441.835 L 1520.794 442.901 L 1508.204 443.824 L 1495.088 444.876 L 1480.584 445.946 L 1468.829 446.826 L 1454.452 447.881 L 1442.567 448.75 L 1428.705 449.768 L 1415.695 450.649 L 1403.893 451.5 L 1389.135 452.519 L 1376.928 453.359 L 1362.671 454.342 L 1349.359 455.191 L 1337.215 456.012 L 1324.699 456.829 L 1310.125 457.784 L 1296.576 458.609 L 1284.157 459.406 L 1271.379 460.198 L 1258.538 460.984 L 1244.984 461.783 L 1232.301 462.557 L 1219.268 463.325 L 1206.17 464.087 L 1193.008 464.844 L 1179.78 465.594 L 1165.853 466.355 L 1152.759 467.092 L 1139.333 467.824 L 1125.841 468.549 L 1114.446 469.139 L 1101.089 469.852 L 1087.408 470.56 L 1073.66 471.261 L 1062.072 471.831 L 1048.441 472.519 L 1034.501 473.203 L 1022.766 473.757 L 1008.324 474.443 L 994.416 475.106 L 982.526 475.645 L 969.136 476.282 L 956.893 476.813 L 942.717 477.453 L 930.64 477.972 L 916.329 478.6 L 904.152 479.109 L 889.706 479.724 L 877.43 480.223 L 865.3 480.716 L 850.658 481.313 L 838.233 481.797 L 825.948 482.275 L 811.108 482.854 L 799.155 483.311 L 786.494 483.775 L 774.004 484.233 L 758.896 484.788 L 746.128 485.237 L 733.479 485.679 L 721.39 486.106 L 708.44 486.54 L 692.997 487.064 L 679.984 487.488 L 667.668 487.894 L 654.525 488.308 L 641.515 488.716 L 628.453 489.119 L 615.927 489.506 L 602.592 489.901 L 589.378 490.288 L 576.111 490.671 L 563.372 491.039 L 549.843 491.413 L 536.422 491.781 L 523.518 492.134 L 509.844 492.493 L 496.267 492.846 L 486.046 493.107 L 472.378 493.45 L 458.655 493.788 L 445.439 494.113 L 431.475 494.442 L 418.143 494.756 L 407.014 495.004 L 393.168 495.317 L 379.687 495.617 L 365.482 495.921 L 354.881 496.145 L 340.703 496.438 L 327.008 496.719 L 315.643 496.94 L 301.425 497.218 L 287.578 497.484 L 276.103 497.694 L 262.267 497.95 L 247.628 498.21 L 236.686 498.4 L 222.052 498.649 L 211.036 498.832 L 196.303 499.071 L 182.038 499.298 L 170.292 499.477 L 156.016 499.694 L 144.729 499.86 L 129.742 500.074 L 118.46 500.231 L 103.372 500.436 L 92.015 500.585 L 76.826 500.78 L 65.394 500.922 L 53.93 501.061 L 38.596 501.241 L 27.055 501.373 L 11.618 501.543 L 0 501.667 L 4.659 1061.332 L 16.278 1062.126 L 31.724 1062.854 L 43.278 1063.625 L 58.638 1064.327 L 70.127 1065.075 L 81.589 1065.812 L 96.826 1066.476 L 108.224 1067.189 L 123.376 1067.828 L 134.71 1068.518 L 149.777 1069.131 L 161.048 1069.797 L 174.225 1070.402 L 187.239 1071.026 L 200.334 1071.606 L 215.187 1072.154 L 226.298 1072.76 L 241.069 1073.282 L 252.117 1073.863 L 266.805 1074.359 L 279.65 1074.859 L 292.399 1075.385 L 305.165 1075.859 L 319.68 1076.301 L 332.328 1076.789 L 344.972 1077.224 L 359.36 1077.625 L 370.122 1078.094 L 384.431 1078.468 L 396.91 1078.848 L 411.129 1079.193 L 423.545 1079.591 L 435.905 1079.93 L 450 1080.234 L 462.276 1080.544 L 476.283 1080.819 L 490.245 1081.079 L 500.69 1081.419 L 514.574 1081.651 L 528.414 1081.868 L 540.449 1082.093 L 554.204 1082.281 L 567.914 1082.454 L 579.826 1082.634 L 593.452 1082.777 L 607.034 1082.905 L 620.572 1083.017 L 632.322 1083.138 L 645.777 1083.22 L 659.188 1083.286 L 672.556 1083.336 L 684.148 1083.397 L 697.433 1083.416 L 712.25 1083.333 L 725.443 1083.319 L 736.87 1083.316 L 749.98 1083.271 L 763.049 1083.208 L 777.61 1083.039 L 790.587 1082.943 L 803.522 1082.83 L 814.71 1082.731 L 829.07 1082.49 L 841.876 1082.327 L 854.64 1082.146 L 868.845 1081.851 L 881.52 1081.635 L 894.154 1081.4 L 908.206 1081.05 L 920.751 1080.779 L 934.7 1080.39 L 947.157 1080.083 L 961.003 1079.655 L 973.371 1079.31 L 985.455 1078.88 L 997.74 1078.499 L 1011.386 1077.991 L 1026.628 1077.426 L 1038.776 1076.985 L 1052.264 1076.416 L 1065.699 1075.826 L 1077.715 1075.325 L 1091.051 1074.693 L 1104.334 1074.04 L 1117.564 1073.364 L 1129.404 1072.781 L 1142.537 1072.063 L 1155.618 1071.321 L 1168.646 1070.557 L 1183.223 1069.724 L 1196.145 1068.914 L 1209.016 1068.08 L 1221.835 1067.223 L 1234.604 1066.343 L 1247.323 1065.438 L 1261.563 1064.46 L 1274.177 1063.506 L 1286.741 1062.528 L 1299.255 1061.526 L 1313.273 1060.444 L 1326.922 1059.261 L 1339.278 1058.181 L 1351.585 1057.075 L 1365.376 1055.887 L 1378.795 1054.594 L 1390.946 1053.408 L 1405.767 1052 L 1417.811 1050.757 L 1431.314 1049.427 L 1444.442 1047.99 L 1456.334 1046.662 L 1470.84 1045.103 L 1482.627 1043.716 L 1497.006 1042.093 L 1509.844 1040.502 L 1522.943 1038.958 L 1535.667 1037.304 L 1548.334 1035.617 L 1562.394 1033.828 L 1575.26 1032.152 L 1587.754 1030.365 L 1601.623 1028.471 L 1614 1026.613 L 1627.741 1024.647 L 1640.004 1022.718 L 1653.618 1020.677 L 1667.166 1018.598 L 1679.255 1016.558 L 1692.678 1014.402 L 1706.035 1012.206 L 1719.022 1009.889 L 1732.251 1007.612 L 1745.415 1005.292 L 1757.162 1003.015 L 1771.252 1000.447 L 1784.225 997.999 L 1798.172 995.34 L 1811.013 992.803 L 1823.503 990.14 L 1836.221 987.511 L 1849.895 984.664 L 1863.498 981.766 L 1876.02 978.993 L 1889.485 975.995 L 1902.881 972.945 L 1916.206 969.842 L 1929.462 966.685 L 1941.399 963.572 L 1954.526 960.307 L 1967.584 956.984 L 1981.801 953.502 L 1994.716 950.063 L 2007.565 946.563 L 2020.347 943.003 L 2033.064 939.382 L 2046.631 935.506 L 2059.399 931.76 L 2072.823 927.744 L 2085.302 923.859 L 2099.898 919.596 L 2112.392 915.564 L 2125.531 911.25 L 2137.74 907.068 L 2152.138 902.49 L 2165.183 897.937 L 2178.004 893.301 L 2192.164 888.468 L 2204.844 883.659 L 2218.843 878.647 L 2231.54 873.657 L 2244.018 868.574 L 2257.786 863.278 L 2270.131 858.002 L 2283.838 852.504 L 2296.87 846.799 L 2310.178 841.089 L 2323.646 835.268 L 2336.481 829.231 L 2349.661 823.18 L 2363.7 816.776 L 2376.345 810.377 L 2389.299 803.955 L 2402.982 797.164 L 2416.715 790.235 L 2429.214 783.298 L 2442.593 776.081 L 2455.179 768.953 L 2468.503 761.427 L 2481.828 753.736 L 2495.843 745.63 L 2508.961 737.59 L 2522.011 729.366 L 2534.997 720.95 L 2547.981 712.331 L 2561.687 703.25 L 2574.488 694.197 L 2587.206 684.91 L 2601.571 674.98 L 2614.24 665.184 L 2627.675 654.857 L 2640.169 644.489 L 2654.268 633.407 L 2666.655 622.387 L 2680.665 610.604 L 2693.876 598.571 L 2706.129 586.369 L 2719.922 573.303 L 2733.7 559.728 L 2746.74 545.727 L 2759.471 531.213 L 2772.497 515.869 L 2786.064 499.584 L 2799.591 482.37 L 2813.081 464.069 L 2826.56 444.469 L 2839.544 423.4 L 2851.923 400.455 L 2865.334 374.634 L 2878.743 345.142 L 2892.157 310.012 L 2892.691 310.006 L 2879.233 345.117 L 2865.706 374.597 L 2852.193 400.411 L 2839.271 423.378 L 2827.355 444.409 L 2813.12 464.029 L 2799.575 482.347 L 2786.004 499.585 L 2772.401 515.901 L 2759.971 531.239 L 2746.152 545.838 L 2734.152 559.836 L 2719.725 573.486 L 2705.935 586.62 L 2693.879 598.877 L 2681.089 610.945 L 2666.475 622.84 L 2654.3 633.937 L 2640.047 645.137 L 2627.773 655.598 L 2614.779 666 L 2601.731 675.924 L 2587.238 686.014 L 2574.757 695.428 L 2562.015 704.624 L 2548.764 713.824 L 2535.437 722.62 L 2522.523 731.209 L 2509.549 739.615 L 2496.512 747.847 L 2482.965 756.123 L 2469.328 764.046 L 2456.096 771.799 L 2443.202 779.198 L 2430.34 786.644 L 2418.595 793.743 L 2404.288 800.974 L 2390.714 808.049 L 2377.479 814.803 L 2365.99 821.384 L 2351.403 828.142 L 2337.957 834.561 L 2326.269 840.812 L 2311.891 847.062 L 2298.72 853.156 L 2286.825 859.109 L 2272.23 865.076 L 2260.604 870.655 L 2246.384 876.424 L 2234.621 881.833 L 2222.046 887.196 L 2207.61 892.722 L 2195.637 897.892 L 2181.051 903.267 L 2168.932 908.289 L 2156.015 913.277 L 2141.204 918.441 L 2129.278 923.08 L 2116.689 927.838 L 2103.919 932.389 L 2089.34 937.266 L 2077.141 941.656 L 2064.259 946.169 L 2051.229 950.484 L 2038.198 954.883 L 2025.04 959.09 L 2012.33 963.213 L 1999.553 967.285 L 1986.709 971.307 L 1971.942 975.523 L 1959.586 979.408 L 1946.53 983.285 L 1935.47 986.861 L 1921.46 990.7 L 1908.203 994.444 L 1894.875 998.145 L 1881.476 1001.803 L 1868.514 1005.265 L 1855.491 1008.808 L 1841.882 1012.346 L 1828.732 1015.69 L 1817.567 1018.862 L 1803.533 1022.187 L 1790.143 1025.542 L 1776.751 1028.743 L 1763.212 1032.029 L 1751.737 1034.909 L 1737.949 1038.025 L 1724.789 1041.058 L 1713.045 1043.958 L 1698.569 1047.018 L 1685.213 1049.959 L 1673.843 1052.619 L 1659.7 1055.552 L 1646.151 1058.406 L 1634.592 1060.981 L 1620.27 1063.829 L 1608.581 1066.351 L 1594.143 1069.146 L 1582.324 1071.615 L 1568.437 1074.211 L 1554.902 1076.843 L 1542.897 1079.24 L 1530.216 1081.66 L 1516.132 1084.158 L 1504.383 1086.448 L 1489.474 1089.047 L 1477.834 1091.184 L 1463.291 1093.699 L 1451.544 1095.794 L 1438.93 1098.019 L 1424.505 1100.361 L 1413.02 1102.358 L 1398.163 1104.769 L 1386.149 1106.762 L 1373.221 1108.888 L 1358.549 1111.128 L 1346.775 1113.031 L 1334.464 1114.955 L 1321.284 1117.009 L 1306.423 1119.174 L 1294.418 1121.005 L 1281.896 1122.859 L 1269.323 1124.697 L 1254.679 1126.754 L 1242.452 1128.519 L 1229.722 1130.307 L 1216.941 1132.078 L 1204.108 1133.834 L 1191.223 1135.575 L 1176.268 1137.535 L 1163.698 1139.208 L 1150.652 1140.903 L 1137.554 1142.584 L 1125.337 1144.101 L 1112.55 1145.717 L 1099.3 1147.355 L 1085.996 1148.979 L 1073.62 1150.439 L 1060.606 1152.001 L 1047.147 1153.584 L 1034.652 1155.003 L 1019.452 1156.756 L 1006.206 1158.268 L 993.577 1159.646 L 982.389 1160.889 L 969.183 1162.29 L 955.717 1163.752 L 942.938 1165.08 L 929.359 1166.52 L 916.498 1167.823 L 902.807 1169.24 L 889.865 1170.519 L 877.21 1171.755 L 863.356 1173.139 L 850.289 1174.383 L 837.502 1175.585 L 823.484 1176.938 L 812.39 1177.916 L 799.08 1179.123 L 786.119 1180.281 L 771.877 1181.593 L 758.529 1182.759 L 745.433 1183.886 L 734.384 1184.775 L 720.838 1185.916 L 706.317 1187.18 L 692.77 1188.293 L 681.526 1189.143 L 667.83 1190.244 L 654.429 1191.301 L 640.984 1192.348 L 629.562 1193.162 L 615.709 1194.222 L 602.135 1195.241 L 588.517 1196.251 L 576.914 1197.029 L 562.903 1198.051 L 549.154 1199.033 L 537.409 1199.785 L 523.284 1200.778 L 509.403 1201.734 L 498.945 1202.29 L 484.988 1203.227 L 470.982 1204.156 L 458.97 1204.859 L 444.609 1205.797 L 432.492 1206.483 L 419.594 1207.224 L 405.597 1208.089 L 393.354 1208.751 L 378.799 1209.645 L 368.016 1210.113 L 353.626 1210.966 L 341.194 1211.598 L 328.111 1212.273 L 313.789 1213.082 L 301.226 1213.691 L 288.053 1214.339 L 275.598 1214.914 L 260.691 1215.732 L 249.615 1216.125 L 234.838 1216.906 L 223.699 1217.283 L 208.837 1218.048 L 195.903 1218.598 L 182.526 1219.175 L 169.666 1219.694 L 158.189 1220.048 L 143.11 1220.775 L 131.742 1221.097 L 116.577 1221.809 L 105.145 1222.114 L 89.893 1222.811 L 78.395 1223.101 L 66.871 1223.383 L 51.495 1224.057 L 39.903 1224.324 L 24.439 1224.984 L 12.78 1225.235 L 40.797 1502.596 L 52.431 1502.197 L 67.878 1501.395 L 79.456 1500.987 L 94.828 1500.178 L 106.35 1499.761 L 117.847 1499.34 L 133.114 1498.519 L 144.556 1498.089 L 159.749 1497.261 L 171.136 1496.822 L 186.257 1495.985 L 197.589 1495.538 L 209.772 1494.991 L 223.914 1494.237 L 236.03 1493.681 L 250.967 1492.825 L 262.162 1492.355 L 277.028 1491.49 L 288.169 1491.01 L 302.963 1490.137 L 314.874 1489.557 L 328.775 1488.767 L 340.62 1488.178 L 355.268 1487.288 L 369.077 1486.483 L 380.822 1485.882 L 395.359 1484.979 L 406.253 1484.457 L 420.721 1483.545 L 432.333 1482.925 L 446.726 1482.004 L 460.322 1481.165 L 471.836 1480.532 L 486.121 1479.597 L 497.566 1478.954 L 511.778 1478.01 L 525.951 1477.062 L 536.57 1476.489 L 550.675 1475.531 L 564.742 1474.567 L 575.991 1473.895 L 589.985 1472.922 L 603.941 1471.943 L 615.09 1471.256 L 628.974 1470.268 L 642.82 1469.274 L 656.629 1468.275 L 667.647 1467.567 L 681.384 1466.557 L 695.083 1465.542 L 708.745 1464.521 L 719.633 1463.791 L 733.225 1462.759 L 747.423 1461.643 L 760.935 1460.6 L 771.692 1459.847 L 785.134 1458.792 L 798.54 1457.732 L 812.53 1456.587 L 825.857 1455.515 L 839.148 1454.436 L 849.711 1453.647 L 863.536 1452.479 L 876.718 1451.382 L 889.862 1450.278 L 903.561 1449.092 L 916.629 1447.974 L 929.66 1446.85 L 943.234 1445.645 L 956.189 1444.507 L 969.678 1443.289 L 982.556 1442.137 L 995.961 1440.905 L 1008.764 1439.739 L 1019.462 1438.79 L 1032.195 1437.61 L 1045.439 1436.349 L 1061.248 1434.784 L 1073.861 1433.581 L 1086.974 1432.298 L 1100.045 1431.007 L 1112.544 1429.78 L 1125.533 1428.474 L 1138.48 1427.159 L 1151.385 1425.837 L 1163.732 1424.577 L 1176.556 1423.238 L 1189.339 1421.89 L 1202.079 1420.533 L 1217.315 1418.87 L 1229.967 1417.496 L 1242.578 1416.113 L 1255.147 1414.72 L 1267.676 1413.319 L 1280.164 1411.908 L 1295.109 1410.188 L 1307.509 1408.757 L 1319.868 1407.317 L 1332.187 1405.867 L 1346.937 1404.106 L 1359.639 1402.565 L 1371.829 1401.084 L 1383.979 1399.592 L 1398.532 1397.788 L 1411.054 1396.204 L 1423.076 1394.679 L 1437.933 1392.771 L 1449.867 1391.223 L 1464.169 1389.361 L 1476.463 1387.719 L 1488.27 1386.135 L 1502.864 1384.166 L 1514.584 1382.557 L 1529.072 1380.562 L 1541.139 1378.856 L 1555.087 1376.905 L 1567.064 1375.172 L 1578.998 1373.427 L 1593.222 1371.363 L 1606.965 1369.355 L 1618.76 1367.566 L 1632.821 1365.457 L 1644.525 1363.638 L 1658.479 1361.499 L 1670.093 1359.649 L 1683.941 1357.477 L 1697.732 1355.289 L 1709.208 1353.391 L 1722.893 1351.168 L 1736.521 1348.928 L 1748.263 1346.904 L 1761.784 1344.629 L 1775.249 1342.335 L 1786.451 1340.331 L 1800.207 1337.924 L 1813.51 1335.572 L 1827.149 1333.124 L 1840.337 1330.732 L 1851.698 1328.553 L 1864.782 1326.12 L 1878.197 1323.587 L 1891.553 1321.031 L 1904.467 1318.532 L 1917.708 1315.93 L 1930.891 1313.304 L 1944.016 1310.654 L 1957.083 1307.979 L 1968.016 1305.595 L 1980.977 1302.87 L 1993.882 1300.119 L 2008.778 1297.023 L 2021.559 1294.217 L 2034.283 1291.383 L 2046.951 1288.52 L 2059.563 1285.629 L 2072.489 1282.62 L 2084.988 1279.669 L 2097.801 1276.598 L 2110.188 1273.585 L 2124.845 1270.124 L 2137.11 1267.045 L 2149.689 1263.84 L 2161.844 1260.694 L 2176.226 1257.091 L 2188.629 1253.778 L 2200.976 1250.427 L 2215.152 1246.709 L 2227.38 1243.28 L 2241.416 1239.481 L 2253.527 1235.971 L 2265.584 1232.42 L 2279.417 1228.493 L 2291.359 1224.855 L 2305.054 1220.838 L 2317.248 1217.004 L 2330.807 1212.893 L 2344.293 1208.732 L 2356.314 1204.75 L 2369.665 1200.49 L 2383.311 1196.063 L 2395.164 1191.924 L 2408.313 1187.504 L 2421.758 1182.91 L 2435.134 1178.258 L 2446.767 1173.893 L 2460.018 1169.121 L 2472.828 1164.411 L 2485.943 1159.513 L 2498.991 1154.549 L 2512.35 1149.391 L 2525.268 1144.292 L 2538.121 1139.123 L 2550.911 1133.883 L 2563.637 1128.571 L 2576.686 1123.047 L 2589.29 1117.584 L 2601.834 1112.044 L 2616.218 1105.918 L 2628.632 1100.213 L 2641.383 1094.28 L 2653.683 1088.408 L 2667.785 1081.93 L 2679.964 1075.88 L 2693.924 1069.213 L 2706.395 1062.82 L 2718.407 1056.487 L 2732.173 1049.522 L 2745.868 1042.45 L 2758.134 1035.649 L 2771.282 1028.526 L 2783.454 1021.507 L 2796.907 1013.992 L 2810.298 1006.359 L 2823.628 998.603 L 2836.899 990.722 L 2848.855 983.104 L 2861.572 975.149 L 2874.688 966.88 L 2887.753 958.473 L 2900.77 949.925 L 2915.44 940.824 L 2928.463 931.95 L 2941.152 922.926 L 2953.514 913.95 L 2967.851 904.202 L 2980.668 894.675 L 2993.146 884.978 L 3007.265 874.697 L 3019.455 864.636 L 3032.858 854.199 L 3046.763 843.337 L 3058.91 832.678 L 3072.102 821.625 L 3085.616 810.124 L 3098.918 798.394 L 3111.915 786.654 L 3125.156 774.433 L 3138.04 762.186 L 3151.238 749.431 L 3164.028 736.627 L 3177.07 723.284 L 3190.641 709.454 L 3203.197 695.697 L 3217.25 680.927 L 3229.679 666.428 L 3242.952 651.11 L 3256.182 635.349 L 3269.442 619.103 L 3283.337 602.076 L 3296.499 584.714 L 3309.591 566.696 L 3321.933 548.188 L 3335.023 528.573 L 3348.773 507.593 L 3361.896 485.801 L 3375.577 462.203 L 3388.335 437.031 L 3401.55 409.516 L 3414.244 378.462 L 3428.411 341.448 L 3441.061 294.369 L 3440.733 294.372 L 3428.127 341.46 L 3414.064 378.481 L 3401.372 409.546 L 3388.585 437.042 L 3375.503 462.231 L 3362.028 485.824 L 3349.104 507.598 L 3335.237 528.579 L 3322.323 548.175 L 3309.856 566.689 L 3296.935 584.689 L 3283.805 602.037 L 3270.076 619.028 L 3256.733 635.263 L 3243.531 651.012 L 3230.288 666.319 L 3217.997 680.785 L 3203.975 695.526 L 3191.468 709.254 L 3177.859 723.083 L 3164.999 736.37 L 3152.191 749.153 L 3139.098 761.857 L 3126.22 774.086 L 3113.067 786.258 L 3100.102 797.985 L 3086.872 809.671 L 3073.426 821.133 L 3060.309 832.182 L 3048.217 842.767 L 3034.402 853.603 L 3021.121 864.047 L 3008.92 874.043 L 2994.949 884.308 L 2982.501 893.947 L 2969.787 903.423 L 2955.658 913.169 L 2943.378 922.137 L 2930.705 931.121 L 2917.809 939.96 L 2903.432 949.084 L 2890.643 957.619 L 2877.586 966.024 L 2864.475 974.292 L 2851.58 982.276 L 2840.079 989.844 L 2826.54 997.741 L 2813.207 1005.502 L 2799.811 1013.142 L 2786.352 1020.666 L 2774.443 1027.648 L 2760.865 1034.829 L 2749.01 1041.587 L 2735.056 1048.692 L 2721.278 1055.678 L 2709.33 1062.017 L 2697.027 1068.39 L 2682.815 1075.103 L 2670.696 1081.168 L 2656.511 1087.688 L 2644.268 1093.582 L 2631.671 1099.511 L 2619.091 1105.259 L 2604.626 1111.445 L 2592.137 1117.022 L 2579.523 1122.531 L 2566.618 1128.071 L 2553.737 1133.448 L 2540.938 1138.747 L 2528.077 1143.979 L 2515.151 1149.147 L 2501.927 1154.345 L 2488.737 1159.399 L 2475.616 1164.381 L 2462.662 1169.216 L 2449.542 1174.073 L 2438.139 1178.471 L 2424.539 1183.252 L 2411.092 1187.959 L 2397.816 1192.533 L 2386.306 1196.715 L 2372.453 1201.295 L 2358.983 1205.729 L 2347.291 1209.771 L 2333.495 1214.138 L 2319.941 1218.431 L 2308.065 1222.347 L 2294.077 1226.591 L 2282.317 1230.355 L 2268.328 1234.511 L 2256.45 1238.202 L 2244.355 1241.876 L 2230.175 1245.926 L 2218.121 1249.515 L 2203.809 1253.5 L 2191.634 1257.026 L 2179.252 1260.538 L 2164.745 1264.431 L 2152.646 1267.803 L 2140.202 1271.216 L 2127.854 1274.551 L 2113.192 1278.323 L 2100.865 1281.591 L 2088.184 1284.901 L 2075.614 1288.137 L 2062.818 1291.399 L 2050.14 1294.589 L 2037.506 1297.746 L 2024.815 1300.882 L 2012.069 1303.997 L 1997.106 1307.506 L 1984.345 1310.57 L 1971.422 1313.629 L 1960.675 1316.248 L 1947.5 1319.29 L 1934.417 1322.295 L 1921.277 1325.284 L 1908.079 1328.257 L 1895.126 1331.157 L 1881.899 1334.088 L 1868.531 1337.016 L 1855.413 1339.873 L 1844.307 1342.337 L 1830.958 1345.185 L 1817.448 1348.048 L 1804.119 1350.852 L 1790.492 1353.692 L 1779.369 1356.047 L 1765.85 1358.821 L 1752.384 1361.569 L 1740.882 1363.934 L 1727.121 1366.689 L 1713.493 1369.406 L 1702.168 1371.685 L 1688.336 1374.397 L 1674.547 1377.087 L 1663.083 1379.337 L 1649.093 1382.023 L 1637.537 1384.255 L 1623.444 1386.925 L 1611.795 1389.14 L 1597.957 1391.736 L 1583.864 1394.361 L 1572.077 1396.553 L 1560.154 1398.751 L 1546.12 1401.318 L 1534.261 1403.479 L 1519.754 1406.095 L 1508.103 1408.193 L 1493.566 1410.786 L 1481.829 1412.872 L 1469.665 1415.013 L 1455.291 1417.539 L 1443.487 1419.598 L 1428.691 1422.166 L 1416.741 1424.223 L 1404.349 1426.337 L 1389.731 1428.84 L 1377.711 1430.873 L 1365.582 1432.911 L 1353.011 1435.007 L 1338.202 1437.494 L 1326.012 1439.508 L 1313.715 1441.528 L 1301.377 1443.544 L 1286.445 1446.006 L 1274.086 1448.004 L 1261.622 1450.008 L 1249.116 1452.009 L 1236.57 1454.006 L 1223.982 1455.999 L 1208.764 1458.445 L 1196.152 1460.423 L 1183.436 1462.407 L 1170.677 1464.389 L 1158.33 1466.298 L 1145.556 1468.263 L 1132.676 1470.237 L 1119.754 1472.208 L 1107.258 1474.103 L 1094.317 1476.059 L 1081.271 1478.023 L 1068.663 1479.91 L 1052.943 1482.324 L 1039.828 1484.273 L 1027.1 1486.153 L 1016.609 1487.626 L 1003.719 1489.516 L 990.444 1491.457 L 977.573 1493.327 L 964.214 1495.265 L 951.269 1497.132 L 937.825 1499.067 L 924.804 1500.93 L 911.805 1502.781 L 898.237 1504.713 L 885.102 1506.57 L 871.991 1508.416 L 858.297 1510.346 L 847.8 1511.72 L 834.505 1513.573 L 821.247 1515.412 L 807.389 1517.339 L 793.997 1519.185 L 780.625 1521.021 L 769.992 1522.373 L 756.477 1524.218 L 742.41 1526.143 L 728.835 1527.983 L 718.068 1529.329 L 704.407 1531.169 L 690.779 1532.997 L 677.114 1534.824 L 666.218 1536.163 L 652.412 1537.999 L 638.638 1539.823 L 624.827 1541.646 L 613.799 1542.98 L 599.846 1544.813 L 585.926 1546.634 L 574.797 1547.964 L 560.735 1549.795 L 546.704 1551.614 L 536.13 1552.836 L 522.033 1554.653 L 507.896 1556.47 L 496.57 1557.793 L 482.291 1559.62 L 470.894 1560.942 L 457.25 1562.656 L 442.985 1564.461 L 431.491 1565.779 L 417.032 1567.604 L 406.184 1568.807 L 391.724 1570.619 L 380.094 1571.934 L 366.241 1573.637 L 351.722 1575.44 L 339.992 1576.753 L 326.047 1578.452 L 314.304 1579.754 L 299.522 1581.575 L 288.427 1582.762 L 273.639 1584.571 L 262.49 1585.754 L 247.631 1587.563 L 235.626 1588.871 L 221.449 1590.558 L 209.425 1591.857 L 198.08 1593.041 L 183.039 1594.848 L 171.697 1596.02 L 156.583 1597.826 L 145.187 1598.994 L 130 1600.8 L 118.548 1601.965 L 107.073 1603.127 L 91.78 1604.932 L 80.248 1606.091 L 64.88 1607.895 L 53.292 1609.051 L 84.383 1790.203 L 95.828 1788.227 L 111.058 1785.597 L 122.458 1783.629 L 137.626 1781.01 L 148.979 1779.05 L 160.313 1777.093 L 175.394 1774.489 L 186.681 1772.54 L 201.7 1769.947 L 212.942 1768.006 L 227.9 1765.423 L 239.096 1763.49 L 250.271 1761.561 L 265.142 1758.993 L 276.272 1757.071 L 291.082 1754.514 L 302.167 1752.6 L 316.915 1750.053 L 327.954 1748.147 L 342.642 1745.61 L 353.635 1743.712 L 368.262 1741.186 L 379.21 1739.295 L 393.777 1736.779 L 408.309 1734.27 L 419.185 1732.391 L 433.656 1729.892 L 444.487 1728.021 L 458.898 1725.532 L 469.684 1723.669 L 484.035 1721.19 L 498.351 1718.717 L 509.065 1716.866 L 523.322 1714.403 L 533.991 1712.559 L 548.187 1710.107 L 562.349 1707.66 L 572.947 1705.828 L 587.049 1703.391 L 601.117 1700.96 L 611.645 1699.14 L 625.653 1696.719 L 639.626 1694.304 L 650.084 1692.496 L 663.998 1690.091 L 677.878 1687.691 L 691.724 1685.297 L 702.086 1683.505 L 715.872 1681.121 L 729.625 1678.742 L 743.343 1676.369 L 753.61 1674.593 L 767.269 1672.23 L 780.895 1669.872 L 794.486 1667.52 L 804.658 1665.759 L 818.19 1663.417 L 831.689 1661.08 L 845.154 1658.748 L 858.586 1656.422 L 871.984 1654.102 L 882.01 1652.365 L 895.349 1650.054 L 908.655 1647.748 L 921.927 1645.448 L 935.165 1643.153 L 948.37 1640.863 L 961.542 1638.579 L 974.68 1636.3 L 987.785 1634.026 L 1000.857 1631.758 L 1013.895 1629.494 L 1026.9 1627.236 L 1039.872 1624.983 L 1049.579 1623.297 L 1062.493 1621.053 L 1075.373 1618.814 L 1091.427 1616.023 L 1104.233 1613.796 L 1117.006 1611.574 L 1129.746 1609.356 L 1142.453 1607.144 L 1155.127 1604.937 L 1167.768 1602.734 L 1180.376 1600.537 L 1192.951 1598.344 L 1205.493 1596.156 L 1218.003 1593.973 L 1230.479 1591.795 L 1246.029 1589.079 L 1258.432 1586.911 L 1270.803 1584.749 L 1283.14 1582.59 L 1295.445 1580.437 L 1307.718 1578.288 L 1323.012 1575.608 L 1335.212 1573.469 L 1347.378 1571.335 L 1359.512 1569.205 L 1374.635 1566.549 L 1386.696 1564.429 L 1398.725 1562.313 L 1410.721 1560.201 L 1425.671 1557.568 L 1437.595 1555.466 L 1449.487 1553.368 L 1464.306 1550.752 L 1476.125 1548.663 L 1490.854 1546.058 L 1502.601 1543.978 L 1514.316 1541.903 L 1528.914 1539.313 L 1540.557 1537.246 L 1555.066 1534.668 L 1566.637 1532.609 L 1581.055 1530.041 L 1592.554 1527.99 L 1604.022 1525.943 L 1618.311 1523.389 L 1632.551 1520.841 L 1643.907 1518.806 L 1658.058 1516.267 L 1669.343 1514.239 L 1683.404 1511.709 L 1694.618 1509.688 L 1708.591 1507.167 L 1722.515 1504.65 L 1733.618 1502.64 L 1747.453 1500.132 L 1761.24 1497.628 L 1772.233 1495.627 L 1785.931 1493.13 L 1799.58 1490.638 L 1810.464 1488.646 L 1824.026 1486.16 L 1837.538 1483.678 L 1851.002 1481.199 L 1864.417 1478.724 L 1875.115 1476.746 L 1888.443 1474.276 L 1901.722 1471.809 L 1914.954 1469.345 L 1928.137 1466.884 L 1941.272 1464.425 L 1954.358 1461.969 L 1967.397 1459.515 L 1980.387 1457.062 L 1990.745 1455.102 L 2003.65 1452.653 L 2016.506 1450.206 L 2031.871 1447.271 L 2044.622 1444.826 L 2057.326 1442.383 L 2069.982 1439.94 L 2082.591 1437.498 L 2095.152 1435.056 L 2107.666 1432.615 L 2120.133 1430.174 L 2132.552 1427.733 L 2147.393 1424.804 L 2159.709 1422.362 L 2171.977 1419.919 L 2184.199 1417.475 L 2198.803 1414.542 L 2210.921 1412.095 L 2222.993 1409.647 L 2237.418 1406.708 L 2249.387 1404.256 L 2263.688 1401.31 L 2275.555 1398.853 L 2287.375 1396.393 L 2301.499 1393.437 L 2313.217 1390.97 L 2327.218 1388.005 L 2338.835 1385.53 L 2352.715 1382.555 L 2366.528 1379.574 L 2377.989 1377.084 L 2391.681 1374.09 L 2405.307 1371.089 L 2416.612 1368.582 L 2430.118 1365.567 L 2443.558 1362.542 L 2456.933 1359.509 L 2468.029 1356.974 L 2481.284 1353.923 L 2494.474 1350.861 L 2507.599 1347.789 L 2520.659 1344.706 L 2533.654 1341.611 L 2546.584 1338.503 L 2559.45 1335.383 L 2572.252 1332.25 L 2584.989 1329.104 L 2597.661 1325.943 L 2610.27 1322.768 L 2622.815 1319.577 L 2637.369 1315.836 L 2649.775 1312.611 L 2662.118 1309.37 L 2674.397 1306.112 L 2688.642 1302.289 L 2700.784 1298.993 L 2714.869 1295.123 L 2726.873 1291.786 L 2738.815 1288.429 L 2752.667 1284.487 L 2766.434 1280.517 L 2778.167 1277.092 L 2791.775 1273.067 L 2803.372 1269.594 L 2816.823 1265.513 L 2830.19 1261.4 L 2843.472 1257.255 L 2856.669 1253.077 L 2867.914 1249.469 L 2880.956 1245.227 L 2893.913 1240.949 L 2906.787 1236.636 L 2919.577 1232.286 L 2934.092 1227.268 L 2946.704 1222.837 L 2959.233 1218.367 L 2971.679 1213.857 L 2985.802 1208.653 L 2998.071 1204.056 L 3010.257 1199.416 L 3024.084 1194.062 L 3036.095 1189.331 L 3049.722 1183.87 L 3063.242 1178.35 L 3074.984 1173.472 L 3088.305 1167.84 L 3101.52 1162.147 L 3114.629 1156.391 L 3127.633 1150.573 L 3140.532 1144.691 L 3153.325 1138.743 L 3166.014 1132.73 L 3178.599 1126.65 L 3191.08 1120.503 L 3204.996 1113.505 L 3217.256 1107.21 L 3230.925 1100.045 L 3242.966 1093.6 L 3256.389 1086.264 L 3269.682 1078.834 L 3282.845 1071.312 L 3295.88 1063.694 L 3308.786 1055.98 L 3321.563 1048.17 L 3334.213 1040.261 L 3346.735 1032.252 L 3360.499 1023.236 L 3372.752 1015.014 L 3386.219 1005.759 L 3399.531 996.375 L 3411.378 987.818 L 3424.395 978.186 L 3438.535 967.438 L 3451.229 957.527 L 3463.302 947.488 L 3477.168 936.294 L 3489.461 925.967 L 3502.523 914.449 L 3515.64 902.765 L 3528.573 890.909 L 3541.181 878.88 L 3555.022 865.559 L 3567.267 853.159 L 3580.563 839.43 L 3593.645 825.485 L 3606.261 811.324 L 3620.216 795.739 L 3632.565 781.114 L 3645.676 765.019 L 3658.729 748.661 L 3672.407 730.74 L 3684.948 713.818 L 3698.047 695.283 L 3711.004 676.429 L 3724.462 655.865 L 3737.687 634.924 L 3750.57 613.6 L 3764.057 590.429 L 3777.068 566.809 L 3790.59 541.224 L 3803.707 515.125 L 3817.191 486.924 L 3830.233 458.133 L 3843.54 427.096 L 3857.019 393.699 L 3870.657 357.821 L 3884.316 319.33 L 3897.937 278.088 L 3911.431 233.947 L 3925.251 184.834 L 3939.191 130.417 L 3953.068 70.33 L 3965.036 12.558 L 3965.003 2.025 Z" vector-effect="non-scaling-stroke"/></g></svg>