<svg width="588.364" height="941.397" viewBox="0 0 588.364 941.397" xmlns="http://www.w3.org/2000/svg"><g id="svgGroup" stroke-linecap="round" fill-rule="evenodd" font-size="9pt" stroke="#000" stroke-width="0.25mm" fill="none" style="stroke:#000;stroke-width:0.25mm;fill:none"><path d="M 569.974 0 L 565.172 0.214 L 560.382 0.432 L 554.012 0.726 L 549.247 0.95 L 544.493 1.177 L 538.171 1.485 L 533.442 1.719 L 527.152 2.036 L 522.447 2.277 L 516.19 2.603 L 511.509 2.85 L 506.838 3.101 L 500.626 3.439 L 495.979 3.696 L 489.797 4.044 L 485.173 4.308 L 479.022 4.664 L 474.419 4.934 L 468.298 5.299 L 463.718 5.576 L 457.626 5.949 L 453.067 6.232 L 447.003 6.614 L 440.956 7.001 L 436.43 7.294 L 430.41 7.689 L 425.905 7.988 L 419.912 8.391 L 415.427 8.697 L 409.461 9.108 L 403.509 9.524 L 399.055 9.839 L 393.128 10.263 L 387.217 10.692 L 382.792 11.016 L 376.905 11.452 L 372.498 11.783 L 366.635 12.227 L 360.786 12.676 L 356.407 13.015 L 350.581 13.471 L 344.767 13.932 L 338.967 14.397 L 334.625 14.749 L 328.846 15.221 L 323.079 15.698 L 318.762 16.058 L 313.017 16.542 L 307.283 17.03 L 301.561 17.523 L 297.277 17.894 L 291.575 18.394 L 285.884 18.897 L 280.203 19.405 L 275.95 19.788 L 270.288 20.303 L 264.637 20.821 L 258.995 21.343 L 253.364 21.869 L 249.147 22.266 L 243.532 22.799 L 237.927 23.336 L 232.331 23.876 L 226.745 24.42 L 221.167 24.968 L 216.989 25.382 L 211.427 25.936 L 205.872 26.494 L 200.326 27.055 L 194.787 27.62 L 189.257 28.189 L 185.114 28.617 L 179.597 29.192 L 174.086 29.77 L 168.583 30.352 L 163.087 30.937 L 157.598 31.525 L 152.115 32.117 L 146.638 32.712 L 141.167 33.31 L 137.068 33.761 L 131.608 34.365 L 126.153 34.972 L 120.703 35.582 L 115.259 36.195 L 109.82 36.812 L 104.385 37.431 L 98.955 38.054 L 93.53 38.68 L 88.109 39.308 L 82.692 39.94 L 77.278 40.574 L 71.869 41.212 L 66.463 41.852 L 62.41 42.334 L 57.01 42.979 L 51.612 43.627 L 46.217 44.278 L 40.825 44.931 L 35.435 45.587 L 30.047 46.246 L 24.662 46.907 L 19.278 47.571 L 19.262 50.25 L 19.246 52.926 L 19.231 55.599 L 19.216 58.269 L 19.201 60.936 L 19.186 63.601 L 19.171 66.263 L 19.157 68.923 L 19.142 71.579 L 19.128 74.233 L 19.114 76.885 L 19.1 79.533 L 19.086 82.179 L 19.072 84.822 L 19.059 87.462 L 19.045 90.1 L 19.032 92.735 L 19.019 95.367 L 19.015 96.226 L 0.436 93.695 L 0.231 139.32 L 18.832 136.956 L 37.43 134.577 L 37.286 173.882 L 18.705 171.366 L 0.123 168.866 L 0 212.126 L 18.596 209.732 L 37.191 207.32 L 37.11 249.361 L 18.525 246.878 L 18.52 250.788 L 18.517 253.252 L 18.513 255.713 L 18.511 258.171 L 18.508 260.627 L 18.505 263.08 L 18.503 265.53 L 18.5 267.978 L 18.498 270.423 L 18.496 272.865 L 18.495 275.304 L 18.493 277.741 L 18.492 280.175 L 18.49 282.607 L 18.489 285.035 L 18.488 287.461 L 18.487 289.885 L 18.487 292.305 L 18.486 294.723 L 18.486 297.138 L 18.486 299.551 L 18.486 301.96 L 18.407 301.96 L 18.409 309.724 L 18.413 317.459 L 18.419 325.166 L 18.427 332.845 L 18.436 340.496 L 18.447 348.119 L 18.46 355.714 L 18.474 363.28 L 18.49 370.819 L 18.509 378.683 L 37.09 376.174 L 37.277 432.518 L 18.679 430.133 L 0.078 427.775 L 0.272 467.756 L 18.849 465.219 L 37.423 462.658 L 37.66 501.244 L 19.055 498.911 L 0.448 496.601 L 0.724 533.797 L 19.295 531.211 L 37.862 528.597 L 38.305 577.921 L 19.694 575.641 L 1.08 573.393 L 1.445 607.541 L 20.008 604.894 L 38.566 602.217 L 39.13 647.897 L 20.512 645.68 L 1.889 643.501 L 2.52 687.204 L 21.073 684.488 L 39.619 681.732 L 40.312 723.467 L 21.684 721.328 L 3.052 719.231 L 3.8 759.007 L 22.341 756.21 L 40.874 753.365 L 41.932 802.74 L 23.294 800.692 L 4.651 798.696 L 5.514 834.264 L 24.039 831.366 L 42.556 828.417 L 43.759 872.914 L 25.11 870.97 L 25.187 873.595 L 25.344 878.969 L 25.503 884.316 L 25.664 889.637 L 25.826 894.931 L 25.99 900.199 L 26.157 905.44 L 26.325 910.656 L 26.494 915.845 L 26.666 921.008 L 26.839 926.144 L 27.014 931.255 L 27.191 936.339 L 27.37 941.397 L 32.845 937.854 L 38.31 934.287 L 43.763 930.695 L 49.206 927.078 L 54.638 923.436 L 61.068 919.746 L 64.313 916.459 L 68.927 912.756 L 74.615 909.211 L 80.001 905.442 L 85.377 901.646 L 90.743 897.823 L 96.101 893.973 L 101.449 890.096 L 106.789 886.191 L 112.12 882.257 L 117.443 878.296 L 122.758 874.305 L 128.064 870.286 L 133.363 866.237 L 138.654 862.158 L 143.307 858.061 L 148.671 854.135 L 153.938 849.965 L 159.199 845.765 L 164.453 841.533 L 169.7 837.269 L 174.942 832.973 L 180.179 828.644 L 185.409 824.281 L 189.522 819.901 L 196.272 815.281 L 201.478 810.816 L 206.68 806.315 L 211.878 801.779 L 217.072 797.206 L 221.281 792.61 L 227.8 787.777 L 232.974 783.092 L 238.145 778.369 L 243.314 773.606 L 248.069 768.808 L 254.157 763.556 L 259.092 758.903 L 264.244 753.976 L 269.023 749.011 L 275.431 743.581 L 280.221 738.527 L 285.071 733.659 L 289.877 728.513 L 296.209 722.9 L 301.029 717.657 L 305.508 712.604 L 311.784 706.843 L 316.627 701.448 L 322.588 695.586 L 327.308 690.322 L 332.176 684.763 L 338.114 678.735 L 342.546 673.305 L 348.703 667.155 L 353.606 661.358 L 359.514 655.085 L 363.925 649.406 L 370.025 642.999 L 374.737 636.936 L 380.29 630.638 L 385.036 624.429 L 390.534 617.982 L 395.515 611.612 L 401.38 604.756 L 405.762 598.467 L 411.62 591.437 L 417.474 584.315 L 421.849 577.746 L 427.544 570.427 L 432.838 563.254 L 437.778 556.112 L 442.915 548.712 L 448.862 540.936 L 453.869 533.419 L 458.962 525.628 L 464.699 517.441 L 469.756 509.35 L 475.599 500.842 L 479.972 492.779 L 485.741 483.899 L 490.745 475.061 L 496.53 465.748 L 501.506 456.437 L 507.31 446.606 L 512.2 436.722 L 517.177 426.5 L 522.503 415.993 L 527.427 404.957 L 533.304 393.186 L 538.183 381.077 L 544.534 367.739 L 549.385 354.121 L 554.252 339.465 L 560.215 323.246 L 565.058 305.433 L 569.891 284.947 L 569.884 282.259 L 569.876 279.569 L 569.869 276.875 L 569.862 274.179 L 569.855 271.478 L 569.848 268.775 L 569.841 266.068 L 569.835 263.358 L 569.828 260.645 L 569.822 257.928 L 569.816 255.208 L 569.81 252.485 L 569.805 249.759 L 569.799 247.029 L 569.794 244.296 L 569.789 241.56 L 569.784 238.821 L 569.779 235.933 L 551.192 238.403 L 551.136 193.522 L 569.729 195.947 L 588.319 198.387 L 588.303 157.889 L 569.715 160.344 L 551.124 162.784 L 551.14 121.177 L 569.728 123.632 L 588.315 126.1 L 588.364 83.383 L 569.772 85.809 L 551.177 88.221 L 551.261 44.393 L 569.846 46.875 L 569.851 44.837 L 569.858 41.87 L 569.865 38.901 L 569.872 35.928 L 569.88 32.953 L 569.887 29.973 L 569.895 26.991 L 569.903 24.005 L 569.911 21.016 L 569.92 18.023 L 569.928 15.028 L 569.937 12.029 L 569.946 9.027 L 569.955 6.021 L 569.964 3.012 L 569.974 0 Z" vector-effect="non-scaling-stroke"/><g id="captions"><text alignment-baseline="middle" text-anchor="middle" transform="rotate(0,293.892,370.647)" x="293.892" y="370.647">LEE, 1, 0</text></g></g></svg>