<svg width="3421.406" height="1500.767" viewBox="0 0 3421.406 1500.767" xmlns="http://www.w3.org/2000/svg"><g id="svgGroup" stroke-linecap="round" fill-rule="evenodd" font-size="9pt" stroke="#000" stroke-width="0.25mm" fill="none" style="stroke:#000;stroke-width:0.25mm;fill:none"><path d="M 3394.282 0 L 3389.492 20.496 L 3384.69 38.317 L 3379.329 54.529 L 3373.95 69.201 L 3369.126 82.829 L 3362.918 96.175 L 3357.95 108.295 L 3352.599 120.058 L 3347.214 131.111 L 3342.939 141.589 L 3336.986 151.836 L 3332.112 161.731 L 3326.777 171.552 L 3321.384 180.881 L 3316.049 190.185 L 3310.643 199.041 L 3305.305 207.911 L 3300.95 215.973 L 3295.133 224.478 L 3289.706 232.589 L 3284.364 240.766 L 3278.917 248.576 L 3274.737 256.06 L 3268.379 263.842 L 3262.913 271.263 L 3258.751 278.37 L 3252.734 285.575 L 3247.368 292.883 L 3243.006 299.45 L 3237.174 306.57 L 3231.336 313.598 L 3226.966 319.885 L 3221.122 326.739 L 3216.526 333.079 L 3210.441 339.561 L 3206.297 345.733 L 3200.193 352.067 L 3196.046 358.091 L 3189.65 364.506 L 3185.251 370.186 L 3179.362 376.457 L 3174.773 382.224 L 3168.355 388.383 L 3163.935 393.813 L 3158.017 399.843 L 3153.426 405.371 L 3148.477 410.645 L 3142.536 416.508 L 3137.939 421.873 L 3131.471 427.646 L 3127.005 432.7 L 3122.403 437.913 L 3115.911 443.539 L 3111.3 448.654 L 3106.305 453.535 L 3101.691 458.559 L 3095.166 464.002 L 3090.541 468.937 L 3085.417 473.844 L 3080.392 478.511 L 3074.327 483.771 L 3069.682 488.539 L 3064.542 493.282 L 3059.4 497.986 L 3054.255 502.651 L 3047.812 507.537 L 3043.547 512.098 L 3038.383 516.652 L 3033.216 521.17 L 3028.046 525.652 L 3022.871 530.099 L 3016.348 534.776 L 3012.034 539.125 L 3006.837 543.471 L 3001.635 547.784 L 2996.427 552.064 L 2991.214 556.312 L 2985.996 560.529 L 2980.771 564.714 L 2975.541 568.868 L 2970.351 572.819 L 2965.577 576.896 L 2960.325 580.961 L 2955.065 584.997 L 2949.799 589.005 L 2944.526 592.984 L 2939.245 596.935 L 2933.956 600.858 L 2928.66 604.753 L 2923.355 608.622 L 2918.043 612.464 L 2912.722 616.279 L 2907.393 620.068 L 2902.055 623.831 L 2896.735 627.411 L 2891.829 631.104 L 2888.435 634.331 L 2882.269 638.03 L 2876.889 641.67 L 2871.5 645.285 L 2866.101 648.877 L 2860.692 652.445 L 2855.273 655.99 L 2849.844 659.512 L 2846.409 662.549 L 2840.188 666.063 L 2834.733 669.518 L 2829.268 672.95 L 2823.793 676.36 L 2820.327 679.288 L 2814.07 682.694 L 2808.567 686.041 L 2803.052 689.366 L 2797.542 692.534 L 2794.463 695.338 L 2788.166 698.642 L 2782.609 701.887 L 2777.041 705.112 L 2773.511 707.859 L 2767.183 711.085 L 2761.584 714.252 L 2758.032 716.942 L 2751.681 720.112 L 2746.051 723.223 L 2740.408 726.314 L 2736.823 728.931 L 2730.439 732.028 L 2724.763 735.066 L 2721.153 737.629 L 2714.764 740.554 L 2709.446 743.516 L 2705.809 746.029 L 2699.375 749.023 L 2695.721 751.503 L 2689.272 754.465 L 2683.506 757.367 L 2679.824 759.797 L 2673.349 762.711 L 2667.547 765.564 L 2663.733 767.844 L 2657.733 770.678 L 2654.004 773.032 L 2647.485 775.868 L 2643.737 778.191 L 2637.202 780.997 L 2631.317 783.744 L 2627.443 785.926 L 2621.366 788.656 L 2617.568 790.908 L 2610.986 793.642 L 2607.168 795.865 L 2600.569 798.572 L 2596.643 800.676 L 2590.499 803.322 L 2586.639 805.492 L 2580.004 808.144 L 2576.124 810.287 L 2569.513 812.818 L 2565.951 814.911 L 2559.279 817.512 L 2555.356 819.605 L 2548.665 822.181 L 2544.65 824.165 L 2538.389 826.682 L 2534.422 828.727 L 2527.693 831.254 L 2523.64 833.194 L 2517.331 835.663 L 2513.32 837.662 L 2508.656 839.616 L 2502.313 842.051 L 2498.269 844.015 L 2491.534 846.377 L 2487.779 848.295 L 2480.963 850.72 L 2476.826 852.566 L 2472.582 854.49 L 2465.739 856.883 L 2461.574 858.701 L 2455.121 861.038 L 2450.973 862.909 L 2446.236 864.745 L 2439.746 867.052 L 2435.565 868.893 L 2430.809 870.702 L 2424.284 872.98 L 2420.043 874.724 L 2415.683 876.539 L 2408.815 878.748 L 2404.847 880.507 L 2400.07 882.329 L 2393.177 884.512 L 2389.169 886.244 L 2384.355 887.976 L 2377.719 890.172 L 2373.391 891.841 L 2368.934 893.576 L 2361.988 895.71 L 2357.899 897.392 L 2353.046 899.076 L 2346.334 901.221 L 2341.948 902.844 L 2337.424 904.531 L 2332.545 906.185 L 2325.89 908.23 L 2321.708 909.858 L 2316.807 911.491 L 2312.23 913.14 L 2305.188 915.191 L 2300.952 916.788 L 2296.024 918.393 L 2291.429 919.957 L 2284.568 922.011 L 2280.065 923.551 L 2275.442 925.095 L 2270.776 926.687 L 2263.662 928.684 L 2259.356 930.174 L 2254.657 931.746 L 2249.668 933.293 L 2244.992 934.8 L 2238.016 936.793 L 2233.426 938.277 L 2228.722 939.766 L 2224.009 941.249 L 2219.233 942.778 L 2212.027 944.714 L 2207.609 946.145 L 2202.859 947.605 L 2198.039 949.111 L 2192.973 950.593 L 2186.016 952.468 L 2181.543 953.872 L 2176.747 955.306 L 2171.871 956.784 L 2166.768 958.24 L 2161.946 959.658 L 2157.117 961.072 L 2150.081 962.91 L 2145.531 964.28 L 2140.588 965.727 L 2135.441 967.152 L 2130.564 968.541 L 2125.679 969.926 L 2120.785 971.306 L 2115.883 972.681 L 2108.757 974.482 L 2104.119 975.815 L 2099.187 977.177 L 2094.246 978.535 L 2089.297 979.889 L 2084.339 981.238 L 2079.372 982.583 L 2074.396 983.923 L 2069.412 985.26 L 2064.419 986.593 L 2057.179 988.351 L 2052.432 989.643 L 2047.409 990.964 L 2042.377 992.281 L 2037.336 993.594 L 2032.286 994.903 L 2027.228 996.208 L 2022.16 997.51 L 2017.084 998.808 L 2011.998 1000.102 L 2006.904 1001.393 L 2001.801 1002.68 L 1996.689 1003.964 L 1991.567 1005.244 L 1986.437 1006.521 L 1981.298 1007.794 L 1976.276 1009.024 L 1971.365 1010.259 L 1966.199 1011.523 L 1961.024 1012.783 L 1955.84 1014.04 L 1950.647 1015.294 L 1943.361 1016.927 L 1938.548 1018.123 L 1933.325 1019.368 L 1928.092 1020.611 L 1922.85 1021.85 L 1917.743 1023.045 L 1912.715 1024.248 L 1910.127 1024.998 L 1904.253 1026.303 L 1898.969 1027.528 L 1893.831 1028.71 L 1888.753 1029.899 L 1883.442 1031.116 L 1878.121 1032.33 L 1872.953 1033.501 L 1867.833 1034.68 L 1862.485 1035.886 L 1857.295 1037.05 L 1852.144 1038.222 L 1846.769 1039.421 L 1841.555 1040.577 L 1836.374 1041.742 L 1830.971 1042.934 L 1825.735 1044.083 L 1820.522 1045.242 L 1815.091 1046.427 L 1809.832 1047.568 L 1804.589 1048.721 L 1799.13 1049.899 L 1793.848 1051.034 L 1791.267 1051.7 L 1785.446 1052.903 L 1780.154 1054.045 L 1774.652 1055.213 L 1769.336 1056.337 L 1764.013 1057.473 L 1758.681 1058.594 L 1753.337 1059.727 L 1747.989 1060.843 L 1742.626 1061.972 L 1737.059 1063.127 L 1734.256 1063.774 L 1728.499 1064.949 L 1723.117 1066.057 L 1717.704 1067.177 L 1712.306 1068.28 L 1706.873 1069.397 L 1701.458 1070.497 L 1696.005 1071.611 L 1690.575 1072.707 L 1687.812 1073.336 L 1681.893 1074.497 L 1676.401 1075.604 L 1670.943 1076.694 L 1665.431 1077.798 L 1659.957 1078.885 L 1654.653 1079.944 L 1651.83 1080.562 L 1645.874 1081.71 L 1640.314 1082.807 L 1634.804 1083.886 L 1629.224 1084.981 L 1623.698 1086.057 L 1618.336 1087.106 L 1615.453 1087.713 L 1609.459 1088.85 L 1604.075 1089.895 L 1598.437 1090.982 L 1592.866 1092.049 L 1587.208 1093.135 L 1584.239 1093.732 L 1578.495 1094.818 L 1572.809 1095.899 L 1567.201 1096.96 L 1561.75 1097.994 L 1558.774 1098.588 L 1552.72 1099.708 L 1547.246 1100.739 L 1541.502 1101.814 L 1535.849 1102.868 L 1530.349 1103.895 L 1527.324 1104.482 L 1521.234 1105.594 L 1515.711 1106.619 L 1510.18 1107.642 L 1507.122 1108.224 L 1501.009 1109.331 L 1495.455 1110.351 L 1489.892 1111.371 L 1484.043 1112.436 L 1480.962 1113.006 L 1475.081 1114.067 L 1469.486 1115.082 L 1463.599 1116.144 L 1457.834 1117.181 L 1454.879 1117.722 L 1448.961 1118.778 L 1443.037 1119.837 L 1437.242 1120.87 L 1434.261 1121.406 L 1428.317 1122.458 L 1422.651 1123.466 L 1416.679 1124.521 L 1413.525 1125.076 L 1407.553 1126.124 L 1401.855 1127.129 L 1396.148 1128.132 L 1393.121 1128.66 L 1386.813 1129.755 L 1380.939 1130.778 L 1375.2 1131.779 L 1372.147 1132.303 L 1366.119 1133.344 L 1360.357 1134.343 L 1354.587 1135.34 L 1351.293 1135.896 L 1344.996 1136.972 L 1339.202 1137.968 L 1336.107 1138.485 L 1330.031 1139.521 L 1324.215 1140.515 L 1318.39 1141.508 L 1315.274 1142.022 L 1309.167 1143.055 L 1303.32 1144.046 L 1299.947 1144.596 L 1293.589 1145.664 L 1287.718 1146.653 L 1281.838 1147.642 L 1278.678 1148.15 L 1272.523 1149.179 L 1266.621 1150.167 L 1263.444 1150.672 L 1257.268 1151.7 L 1251.343 1152.685 L 1248.149 1153.189 L 1241.952 1154.214 L 1236.004 1155.198 L 1232.793 1155.699 L 1226.575 1156.723 L 1220.604 1157.706 L 1217.376 1158.205 L 1211.137 1159.227 L 1205.143 1160.208 L 1201.897 1160.705 L 1195.637 1161.726 L 1189.62 1162.706 L 1186.356 1163.201 L 1180.076 1164.22 L 1174.036 1165.199 L 1170.754 1165.692 L 1164.453 1166.71 L 1158.389 1167.687 L 1155.09 1168.178 L 1148.767 1169.195 L 1142.681 1170.172 L 1139.363 1170.661 L 1133.019 1171.677 L 1126.91 1172.652 L 1123.574 1173.14 L 1117.209 1174.154 L 1111.453 1175.07 L 1108.242 1175.534 L 1101.853 1176.547 L 1095.698 1177.521 L 1092.331 1178.005 L 1085.921 1179.018 L 1082.541 1179.501 L 1076.119 1180.512 L 1069.926 1181.485 L 1066.527 1181.966 L 1060.478 1182.915 L 1054.397 1183.866 L 1050.985 1184.346 L 1044.518 1185.355 L 1041.092 1185.835 L 1034.614 1186.844 L 1028.36 1187.815 L 1024.915 1188.292 L 1018.823 1189.237 L 1015.502 1189.692 L 1008.988 1190.7 L 1002.697 1191.67 L 999.225 1192.146 L 992.689 1193.153 L 986.375 1194.122 L 983.203 1194.548 L 976.878 1195.516 L 973.377 1195.99 L 966.806 1196.996 L 963.291 1197.469 L 957.137 1198.407 L 950.901 1199.354 L 947.373 1199.826 L 940.765 1200.831 L 937.222 1201.302 L 931.04 1202.239 L 924.766 1203.185 L 921.209 1203.655 L 914.566 1204.659 L 910.993 1205.129 L 904.785 1206.063 L 901.332 1206.51 L 894.662 1207.514 L 888.207 1208.481 L 884.605 1208.949 L 878.37 1209.881 L 874.887 1210.327 L 868.181 1211.33 L 864.555 1211.797 L 858.302 1212.727 L 851.92 1213.673 L 848.28 1214.139 L 841.539 1215.142 L 838.261 1215.549 L 831.727 1216.515 L 828.062 1216.979 L 821.77 1217.907 L 818.221 1218.35 L 811.439 1219.353 L 804.865 1220.319 L 801.56 1220.722 L 794.975 1221.688 L 791.271 1222.151 L 784.939 1223.076 L 781.351 1223.517 L 774.518 1224.52 L 770.787 1224.981 L 764.44 1225.905 L 760.823 1226.346 L 753.964 1227.348 L 750.622 1227.746 L 743.963 1228.711 L 740.198 1229.172 L 733.821 1230.094 L 727.26 1231.04 L 723.479 1231.5 L 717.082 1232.421 L 713.415 1232.86 L 706.489 1233.862 L 703.113 1234.255 L 696.388 1235.221 L 692.572 1235.68 L 686.146 1236.599 L 682.441 1237.037 L 675.475 1238.039 L 672.076 1238.429 L 665.307 1239.396 L 661.453 1239.854 L 655 1240.771 L 651.256 1241.209 L 644.79 1242.125 L 641.037 1242.563 L 634.015 1243.565 L 630.586 1243.95 L 623.76 1244.918 L 619.858 1245.375 L 613.366 1246.289 L 609.572 1246.727 L 603.068 1247.64 L 599.265 1248.077 L 592.187 1249.08 L 588.728 1249.462 L 581.843 1250.43 L 578.377 1250.811 L 571.478 1251.779 L 567.516 1252.235 L 560.975 1253.147 L 557.12 1253.583 L 553.434 1253.996 L 546.499 1254.965 L 542.503 1255.421 L 535.946 1256.33 L 532.052 1256.767 L 525.483 1257.676 L 521.58 1258.113 L 514.999 1259.021 L 511.086 1259.458 L 504.493 1260.366 L 500.571 1260.802 L 493.362 1261.806 L 489.833 1262.179 L 482.81 1263.15 L 479.274 1263.522 L 475.2 1263.977 L 468.582 1264.883 L 464.608 1265.32 L 457.978 1266.225 L 453.995 1266.661 L 447.353 1267.566 L 443.359 1268.002 L 436.075 1269.007 L 432.505 1269.376 L 425.402 1270.348 L 421.825 1270.716 L 417.681 1271.171 L 411.015 1272.074 L 406.967 1272.511 L 400.291 1273.413 L 396.232 1273.85 L 389.544 1274.751 L 385.474 1275.188 L 381.68 1275.585 L 374.506 1276.559 L 370.893 1276.922 L 363.704 1277.896 L 360.083 1278.259 L 352.879 1279.233 L 349.251 1279.595 L 345.015 1280.051 L 338.292 1280.949 L 334.149 1281.388 L 327.416 1282.285 L 323.26 1282.723 L 316.516 1283.62 L 312.968 1283.961 L 308.692 1284.417 L 301.934 1285.313 L 297.751 1285.752 L 290.983 1286.647 L 286.787 1287.086 L 282.931 1287.473 L 275.621 1288.45 L 271.937 1288.806 L 264.611 1289.784 L 260.921 1290.139 L 253.58 1291.117 L 249.881 1291.471 L 246.181 1291.825 L 238.82 1292.803 L 235.111 1293.156 L 227.735 1294.135 L 224.018 1294.487 L 219.624 1294.946 L 212.805 1295.835 L 209.177 1296.169 L 201.765 1297.149 L 198.031 1297.499 L 193.605 1297.958 L 186.764 1298.846 L 182.423 1299.289 L 178.507 1299.666 L 171.82 1300.524 L 167.46 1300.967 L 160.598 1301.853 L 156.223 1302.296 L 152.291 1302.671 L 145.582 1303.527 L 141.188 1303.971 L 134.305 1304.855 L 129.897 1305.299 L 125.947 1305.672 L 119.216 1306.527 L 114.788 1306.972 L 110.829 1307.343 L 103.281 1308.327 L 99.476 1308.67 L 92.724 1309.523 L 88.26 1309.969 L 84.285 1310.338 L 76.7 1311.323 L 72.876 1311.664 L 69.051 1312.004 L 61.445 1312.989 L 57.611 1313.329 L 53.775 1313.669 L 46.148 1314.654 L 42.303 1314.993 L 34.661 1315.979 L 30.808 1316.317 L 26.953 1316.654 L 19.289 1317.641 L 15.425 1317.978 L 11.56 1318.314 L 3.875 1319.301 L 0 1319.637 L 31.221 1500.767 L 35.038 1500.105 L 42.665 1498.783 L 46.475 1498.122 L 50.283 1497.462 L 57.893 1496.142 L 61.695 1495.483 L 65.494 1494.824 L 73.086 1493.508 L 76.879 1492.85 L 84.458 1491.536 L 88.244 1490.88 L 92.028 1490.224 L 99.589 1488.913 L 103.366 1488.258 L 107.142 1487.603 L 114.685 1486.295 L 118.454 1485.641 L 122.22 1484.988 L 129.747 1483.683 L 133.506 1483.032 L 141.02 1481.729 L 144.773 1481.078 L 148.524 1480.428 L 156.02 1479.128 L 159.764 1478.479 L 163.506 1477.83 L 170.985 1476.533 L 174.72 1475.885 L 182.185 1474.591 L 185.915 1473.944 L 189.642 1473.298 L 197.089 1472.006 L 200.81 1471.361 L 208.244 1470.072 L 211.958 1469.428 L 215.67 1468.785 L 223.087 1467.498 L 226.792 1466.856 L 230.495 1466.214 L 237.895 1464.931 L 241.591 1464.29 L 248.978 1463.009 L 252.668 1462.369 L 256.356 1461.729 L 263.725 1460.451 L 267.406 1459.813 L 274.762 1458.537 L 278.437 1457.9 L 282.11 1457.263 L 289.448 1455.99 L 293.114 1455.355 L 300.44 1454.084 L 304.1 1453.45 L 311.412 1452.181 L 315.066 1451.548 L 318.717 1450.915 L 326.012 1449.649 L 329.656 1449.017 L 336.939 1447.754 L 340.577 1447.123 L 344.212 1446.493 L 351.478 1445.233 L 355.107 1444.603 L 362.359 1443.345 L 365.982 1442.717 L 373.221 1441.461 L 376.837 1440.834 L 380.451 1440.207 L 387.673 1438.955 L 391.281 1438.329 L 398.49 1437.078 L 402.091 1436.454 L 409.287 1435.206 L 412.882 1434.582 L 416.475 1433.959 L 423.653 1432.713 L 427.239 1432.091 L 434.405 1430.848 L 437.985 1430.227 L 445.138 1428.986 L 448.711 1428.366 L 452.282 1427.747 L 459.418 1426.509 L 462.983 1425.89 L 470.106 1424.655 L 473.664 1424.037 L 480.774 1422.804 L 484.326 1422.187 L 491.423 1420.956 L 494.968 1420.341 L 502.052 1419.111 L 505.591 1418.497 L 509.128 1417.884 L 516.195 1416.657 L 519.725 1416.045 L 526.78 1414.821 L 530.304 1414.209 L 537.345 1412.987 L 540.863 1412.376 L 547.891 1411.157 L 551.402 1410.547 L 558.418 1409.33 L 561.923 1408.721 L 568.926 1407.506 L 572.424 1406.898 L 579.414 1405.685 L 582.906 1405.079 L 586.396 1404.473 L 593.369 1403.263 L 596.852 1402.658 L 603.813 1401.449 L 607.29 1400.846 L 614.237 1399.64 L 617.708 1399.037 L 624.643 1397.833 L 628.107 1397.231 L 635.029 1396.029 L 638.487 1395.429 L 645.396 1394.229 L 648.848 1393.63 L 655.744 1392.432 L 659.19 1391.834 L 666.073 1390.638 L 669.512 1390.041 L 676.383 1388.847 L 679.816 1388.251 L 686.674 1387.06 L 690.1 1386.464 L 696.946 1385.275 L 700.366 1384.681 L 707.199 1383.494 L 710.612 1382.901 L 717.432 1381.716 L 720.839 1381.124 L 727.647 1379.941 L 731.048 1379.35 L 737.842 1378.169 L 741.237 1377.579 L 748.019 1376.4 L 751.407 1375.811 L 758.177 1374.635 L 764.938 1373.459 L 768.315 1372.872 L 775.064 1371.699 L 778.435 1371.113 L 785.171 1369.941 L 788.536 1369.356 L 795.259 1368.187 L 798.618 1367.603 L 805.329 1366.436 L 808.681 1365.853 L 815.379 1364.688 L 818.725 1364.106 L 825.41 1362.943 L 828.75 1362.362 L 835.423 1361.201 L 842.087 1360.041 L 845.416 1359.462 L 852.068 1358.304 L 855.391 1357.726 L 862.031 1356.571 L 865.347 1355.993 L 871.974 1354.84 L 875.284 1354.264 L 881.899 1353.112 L 888.505 1351.962 L 891.804 1351.387 L 898.398 1350.239 L 901.691 1349.665 L 908.272 1348.519 L 911.559 1347.947 L 918.128 1346.803 L 924.688 1345.66 L 927.965 1345.089 L 934.512 1343.948 L 937.783 1343.378 L 944.318 1342.239 L 947.582 1341.67 L 954.105 1340.533 L 960.619 1339.398 L 963.873 1338.83 L 970.374 1337.697 L 973.622 1337.13 L 980.111 1335.998 L 986.592 1334.868 L 989.83 1334.303 L 996.298 1333.175 L 999.529 1332.611 L 1005.985 1331.485 L 1009.21 1330.922 L 1015.654 1329.797 L 1022.089 1328.674 L 1025.304 1328.113 L 1031.727 1326.991 L 1038.141 1325.871 L 1041.345 1325.312 L 1047.748 1324.193 L 1050.946 1323.635 L 1057.335 1322.518 L 1063.717 1321.403 L 1066.905 1320.846 L 1073.274 1319.733 L 1076.455 1319.177 L 1082.812 1318.066 L 1089.161 1316.956 L 1092.332 1316.401 L 1098.668 1315.293 L 1104.996 1314.186 L 1108.157 1313.633 L 1114.472 1312.528 L 1117.627 1311.976 L 1123.93 1310.873 L 1130.225 1309.771 L 1133.37 1309.22 L 1139.652 1308.12 L 1145.927 1307.021 L 1149.061 1306.472 L 1155.323 1305.375 L 1161.577 1304.279 L 1164.701 1303.731 L 1170.943 1302.637 L 1177.176 1301.544 L 1180.29 1300.998 L 1186.511 1299.907 L 1192.724 1298.817 L 1195.827 1298.273 L 1202.028 1297.184 L 1208.221 1296.097 L 1211.314 1295.554 L 1217.494 1294.469 L 1223.666 1293.385 L 1226.749 1292.843 L 1232.909 1291.761 L 1239.061 1290.68 L 1242.134 1290.14 L 1248.273 1289.06 L 1254.405 1287.982 L 1257.467 1287.443 L 1263.587 1286.367 L 1269.698 1285.291 L 1272.75 1284.754 L 1278.849 1283.68 L 1284.94 1282.608 L 1287.982 1282.072 L 1294.06 1281.001 L 1300.131 1279.931 L 1303.163 1279.396 L 1309.221 1278.328 L 1315.271 1277.261 L 1321.313 1276.195 L 1324.331 1275.663 L 1330.361 1274.598 L 1336.383 1273.535 L 1339.391 1273.004 L 1345.4 1271.942 L 1351.402 1270.882 L 1357.395 1269.822 L 1360.389 1269.293 L 1366.37 1268.235 L 1372.344 1267.178 L 1375.327 1266.65 L 1381.289 1265.595 L 1387.242 1264.541 L 1393.187 1263.488 L 1396.156 1262.962 L 1402.089 1261.91 L 1408.014 1260.859 L 1413.931 1259.81 L 1416.887 1259.285 L 1422.791 1258.237 L 1428.688 1257.19 L 1434.577 1256.144 L 1437.518 1255.622 L 1443.395 1254.577 L 1449.264 1253.534 L 1455.124 1252.491 L 1458.052 1251.97 L 1463.9 1250.929 L 1469.741 1249.889 L 1475.574 1248.85 L 1478.487 1248.331 L 1484.308 1247.293 L 1490.12 1246.256 L 1495.925 1245.221 L 1501.722 1244.186 L 1504.617 1243.669 L 1510.402 1242.635 L 1516.178 1241.603 L 1521.947 1240.571 L 1527.708 1239.54 L 1530.585 1239.025 L 1536.334 1237.996 L 1542.075 1236.967 L 1547.808 1235.94 L 1550.672 1235.426 L 1556.393 1234.4 L 1562.106 1233.375 L 1567.811 1232.35 L 1573.508 1231.326 L 1579.197 1230.304 L 1582.039 1229.793 L 1587.716 1228.771 L 1593.386 1227.75 L 1599.047 1226.73 L 1604.701 1225.711 L 1607.524 1225.202 L 1613.166 1224.184 L 1618.8 1223.167 L 1624.426 1222.151 L 1630.044 1221.136 L 1635.654 1220.121 L 1638.456 1219.614 L 1644.054 1218.6 L 1649.645 1217.588 L 1655.227 1216.576 L 1660.802 1215.565 L 1666.369 1214.554 L 1671.928 1213.544 L 1674.704 1213.04 L 1680.251 1212.031 L 1685.791 1211.023 L 1691.322 1210.016 L 1696.845 1209.01 L 1702.361 1208.004 L 1707.869 1206.999 L 1710.62 1206.496 L 1716.116 1205.492 L 1721.604 1204.489 L 1727.085 1203.486 L 1732.557 1202.484 L 1738.022 1201.483 L 1743.479 1200.482 L 1748.928 1199.482 L 1754.37 1198.482 L 1757.087 1197.982 L 1762.517 1196.984 L 1767.939 1195.986 L 1773.353 1194.988 L 1778.759 1193.991 L 1784.158 1192.995 L 1789.548 1191.999 L 1794.931 1191.004 L 1800.306 1190.009 L 1805.674 1189.015 L 1811.033 1188.022 L 1813.71 1187.525 L 1819.058 1186.532 L 1824.398 1185.54 L 1829.731 1184.548 L 1835.056 1183.557 L 1840.373 1182.566 L 1845.682 1181.575 L 1850.983 1180.585 L 1856.277 1179.596 L 1861.563 1178.607 L 1866.841 1177.618 L 1872.112 1176.63 L 1877.375 1175.642 L 1882.63 1174.655 L 1887.877 1173.668 L 1893.117 1172.681 L 1898.349 1171.695 L 1903.574 1170.709 L 1908.79 1169.724 L 1913.999 1168.739 L 1919.2 1167.754 L 1924.394 1166.769 L 1929.58 1165.785 L 1932.17 1165.293 L 1937.345 1164.309 L 1942.511 1163.326 L 1947.67 1162.343 L 1952.822 1161.36 L 1957.966 1160.377 L 1963.102 1159.395 L 1970.792 1157.922 L 1975.909 1156.94 L 1981.018 1155.958 L 1986.12 1154.977 L 1991.214 1153.995 L 1996.301 1153.014 L 2001.379 1152.033 L 2006.451 1151.052 L 2011.514 1150.072 L 2016.571 1149.091 L 2021.619 1148.111 L 2026.66 1147.13 L 2031.693 1146.15 L 2036.719 1145.17 L 2041.737 1144.19 L 2046.748 1143.21 L 2051.751 1142.23 L 2056.746 1141.25 L 2061.734 1140.27 L 2066.714 1139.29 L 2071.687 1138.31 L 2076.652 1137.33 L 2084.086 1135.86 L 2089.032 1134.88 L 2093.971 1133.9 L 2098.902 1132.919 L 2103.825 1131.939 L 2108.742 1130.959 L 2113.65 1129.978 L 2118.551 1128.998 L 2123.445 1128.017 L 2128.331 1127.036 L 2135.646 1125.564 L 2140.513 1124.583 L 2145.373 1123.601 L 2150.225 1122.619 L 2155.07 1121.637 L 2159.908 1120.655 L 2164.737 1119.673 L 2169.56 1118.69 L 2176.779 1117.215 L 2181.583 1116.232 L 2186.379 1115.248 L 2191.168 1114.264 L 2195.95 1113.279 L 2200.724 1112.294 L 2205.49 1111.309 L 2212.626 1109.831 L 2217.374 1108.845 L 2222.114 1107.858 L 2226.847 1106.871 L 2231.573 1105.883 L 2238.647 1104.401 L 2243.354 1103.413 L 2248.054 1102.424 L 2252.746 1101.434 L 2257.431 1100.444 L 2264.444 1098.957 L 2269.111 1097.966 L 2273.77 1096.974 L 2278.421 1095.981 L 2283.065 1094.987 L 2290.018 1093.496 L 2294.644 1092.501 L 2299.262 1091.506 L 2303.873 1090.509 L 2310.776 1089.013 L 2315.369 1088.015 L 2319.954 1087.017 L 2324.532 1086.017 L 2331.386 1084.516 L 2335.945 1083.515 L 2340.498 1082.512 L 2345.043 1081.509 L 2351.847 1080.003 L 2356.373 1078.998 L 2360.893 1077.992 L 2365.405 1076.985 L 2372.16 1075.472 L 2376.654 1074.463 L 2381.14 1073.453 L 2387.857 1071.935 L 2392.325 1070.923 L 2396.786 1069.909 L 2403.464 1068.386 L 2407.907 1067.37 L 2412.343 1066.353 L 2418.983 1064.824 L 2423.401 1063.804 L 2427.811 1062.783 L 2434.413 1061.249 L 2438.806 1060.225 L 2443.191 1059.2 L 2449.755 1057.659 L 2454.122 1056.631 L 2458.482 1055.601 L 2465.008 1054.055 L 2469.35 1053.022 L 2473.684 1051.988 L 2480.173 1050.434 L 2484.489 1049.397 L 2490.951 1047.838 L 2495.249 1046.797 L 2499.541 1045.755 L 2505.965 1044.189 L 2510.238 1043.143 L 2516.635 1041.571 L 2520.891 1040.521 L 2527.261 1038.944 L 2531.499 1037.891 L 2535.729 1036.836 L 2542.062 1035.25 L 2546.275 1034.191 L 2552.58 1032.6 L 2556.775 1031.537 L 2563.055 1029.939 L 2567.232 1028.872 L 2573.484 1027.268 L 2577.644 1026.197 L 2583.87 1024.586 L 2588.011 1023.51 L 2594.211 1021.893 L 2598.335 1020.812 L 2604.508 1019.188 L 2608.614 1018.103 L 2614.76 1016.472 L 2618.849 1015.382 L 2624.969 1013.744 L 2629.04 1012.649 L 2635.133 1011.003 L 2639.187 1009.904 L 2645.253 1008.251 L 2649.289 1007.146 L 2655.33 1005.485 L 2661.355 1003.819 L 2665.363 1002.706 L 2671.361 1001.032 L 2675.351 999.914 L 2681.324 998.232 L 2685.296 997.108 L 2691.242 995.418 L 2697.173 993.722 L 2701.117 992.589 L 2707.022 990.886 L 2712.91 989.177 L 2716.827 988.034 L 2722.689 986.316 L 2726.589 985.168 L 2732.425 983.441 L 2738.246 981.709 L 2742.118 980.551 L 2747.912 978.809 L 2753.691 977.062 L 2757.535 975.894 L 2763.288 974.137 L 2769.026 972.374 L 2774.748 970.605 L 2778.554 969.423 L 2784.25 967.645 L 2789.931 965.86 L 2793.709 964.667 L 2799.364 962.872 L 2805.003 961.071 L 2810.627 959.264 L 2814.368 958.056 L 2819.966 956.238 L 2825.549 954.414 L 2831.116 952.584 L 2836.668 950.747 L 2840.361 949.518 L 2845.887 947.67 L 2851.398 945.816 L 2856.893 943.954 L 2862.374 942.086 L 2866.019 940.837 L 2871.473 938.957 L 2876.913 937.071 L 2882.337 935.177 L 2887.746 933.277 L 2893.139 931.369 L 2898.517 929.454 L 2903.881 927.532 L 2907.447 926.247 L 2912.785 924.313 L 2918.108 922.371 L 2923.415 920.422 L 2928.707 918.466 L 2933.984 916.502 L 2939.246 914.53 L 2944.492 912.551 L 2949.724 910.565 L 2954.94 908.57 L 2960.142 906.568 L 2965.328 904.558 L 2970.499 902.539 L 2975.655 900.513 L 2980.796 898.479 L 2985.922 896.437 L 2991.033 894.387 L 2996.129 892.329 L 3001.21 890.262 L 3006.276 888.188 L 3011.327 886.104 L 3016.363 884.013 L 3021.385 881.913 L 3026.391 879.805 L 3031.382 877.688 L 3038.014 874.852 L 3042.97 872.715 L 3047.912 870.569 L 3052.839 868.415 L 3057.751 866.252 L 3062.648 864.08 L 3069.154 861.17 L 3074.017 858.977 L 3078.865 856.776 L 3083.698 854.565 L 3088.516 852.345 L 3094.917 849.371 L 3099.701 847.129 L 3104.47 844.879 L 3109.224 842.619 L 3115.541 839.591 L 3120.261 837.309 L 3124.966 835.018 L 3129.657 832.718 L 3135.888 829.635 L 3140.545 827.312 L 3145.187 824.979 L 3151.354 821.854 L 3155.962 819.498 L 3162.083 816.343 L 3166.657 813.964 L 3171.217 811.576 L 3177.273 808.376 L 3181.799 805.964 L 3187.811 802.733 L 3192.302 800.298 L 3198.269 797.035 L 3202.727 794.576 L 3208.649 791.282 L 3213.073 788.799 L 3218.95 785.472 L 3223.341 782.965 L 3229.173 779.606 L 3233.531 777.074 L 3239.318 773.682 L 3243.642 771.125 L 3249.385 767.7 L 3255.103 764.256 L 3259.374 761.66 L 3265.047 758.182 L 3270.695 754.685 L 3274.915 752.049 L 3280.519 748.518 L 3286.097 744.967 L 3290.264 742.291 L 3295.799 738.705 L 3301.308 735.1 L 3306.792 731.475 L 3312.251 727.829 L 3316.329 725.082 L 3321.745 721.401 L 3327.135 717.7 L 3332.5 713.979 L 3337.841 710.237 L 3343.156 706.474 L 3348.447 702.691 L 3353.713 698.887 L 3357.646 696.02 L 3362.869 692.18 L 3368.066 688.318 L 3373.239 684.435 L 3379.671 679.552 L 3384.789 675.621 L 3389.882 671.669 L 3394.95 667.695 L 3399.994 663.7 L 3405.013 659.683 L 3404.845 654.512 L 3404.678 649.313 L 3404.512 644.085 L 3404.347 638.829 L 3404.184 633.545 L 3404.021 628.233 L 3403.86 622.892 L 3403.699 617.523 L 3403.54 612.125 L 3403.382 606.699 L 3403.225 601.244 L 3403.069 595.761 L 3402.914 590.249 L 3402.761 584.709 L 3402.759 584.705 L 3421.406 586.664 L 3420.174 539.695 L 3401.655 542.629 L 3383.13 545.523 L 3382.218 507.685 L 3400.861 509.684 L 3419.5 511.723 L 3418.355 459.528 L 3399.823 462.383 L 3381.286 465.199 L 3380.444 422.867 L 3399.078 424.944 L 3417.71 427.047 L 3417.128 395.613 L 3398.587 398.403 L 3380.042 401.166 L 3379.259 355.01 L 3397.887 357.141 L 3416.512 359.304 L 3415.775 311.055 L 3397.225 313.786 L 3378.671 316.492 L 3378.166 280.115 L 3396.788 282.304 L 3415.407 284.515 L 3414.925 246.68 L 3396.368 249.364 L 3377.807 252.021 L 3377.198 198.169 L 3395.814 200.406 L 3414.427 202.668 L 3414.017 161.615 L 3395.453 164.248 L 3376.886 166.86 L 3376.508 124.342 L 3395.119 126.624 L 3413.727 128.927 L 3413.385 84.94 L 3394.815 87.532 L 3394.755 79.091 L 3394.701 71.314 L 3394.649 63.508 L 3394.598 55.672 L 3394.549 47.808 L 3394.501 39.913 L 3394.454 31.989 L 3394.409 24.036 L 3394.366 16.054 L 3394.323 8.042 L 3394.282 0 Z" vector-effect="non-scaling-stroke"/><g id="captions"><text alignment-baseline="middle" text-anchor="middle" transform="rotate(0,1706.061,1138.552)" x="1706.061" y="1138.552">LEE, 1, 1</text></g></g></svg>