<svg width="97.81" height="182.159" viewBox="0 0 97.81 182.159" xmlns="http://www.w3.org/2000/svg"><g id="svgGroup" stroke-linecap="round" fill-rule="evenodd" font-size="9pt" stroke="#000" stroke-width="0.25mm" fill="none" style="stroke:#000;stroke-width:0.25mm;fill:none"><path d="M 97.801 0.728 L 96.111 0.682 L 94.849 0.649 L 94.009 0.627 L 92.753 0.596 L 91.5 0.565 L 90.667 0.545 L 89.421 0.515 L 88.178 0.487 L 87.351 0.468 L 86.115 0.441 L 84.882 0.415 L 84.062 0.398 L 82.835 0.373 L 81.611 0.349 L 80.798 0.333 L 79.58 0.31 L 78.367 0.288 L 77.156 0.267 L 76.351 0.254 L 75.147 0.234 L 73.946 0.215 L 72.748 0.197 L 71.952 0.185 L 70.76 0.169 L 69.572 0.153 L 68.387 0.138 L 67.206 0.123 L 66.42 0.114 L 65.244 0.101 L 64.072 0.089 L 62.903 0.078 L 61.737 0.067 L 60.575 0.057 L 59.802 0.051 L 58.645 0.043 L 57.491 0.035 L 56.341 0.028 L 55.194 0.022 L 54.05 0.016 L 52.91 0.012 L 51.772 0.008 L 51.016 0.006 L 49.884 0.003 L 48.755 0.001 L 47.629 0 L 46.506 0 L 45.387 0 L 44.27 0.002 L 43.157 0.004 L 42.047 0.006 L 40.939 0.01 L 39.835 0.014 L 38.734 0.019 L 37.636 0.025 L 36.541 0.031 L 35.449 0.038 L 34.359 0.046 L 33.273 0.055 L 32.19 0.064 L 31.109 0.074 L 30.032 0.085 L 28.957 0.096 L 27.885 0.109 L 26.46 0.126 L 25.395 0.14 L 24.333 0.154 L 23.273 0.17 L 22.216 0.186 L 21.162 0.202 L 20.111 0.22 L 19.063 0.238 L 17.669 0.263 L 16.627 0.283 L 15.587 0.303 L 14.55 0.324 L 13.516 0.346 L 12.141 0.376 L 11.113 0.4 L 10.088 0.424 L 9.065 0.448 L 8.044 0.474 L 6.688 0.509 L 5.673 0.536 L 4.662 0.563 L 3.652 0.592 L 3.654 1.748 L 3.656 2.903 L 3.658 4.055 L 3.661 5.204 L 3.663 6.351 L 3.666 7.496 L 3.669 8.638 L 3.673 9.778 L 3.676 10.916 L 3.68 12.051 L 3.683 13.184 L 3.687 14.314 L 3.692 15.442 L 3.696 16.567 L 3.696 16.623 L 0 15.989 L 0.044 25.38 L 3.734 24.712 L 7.423 24.038 L 7.478 33.194 L 3.781 32.565 L 0.084 31.942 L 0.15 40.863 L 3.838 40.184 L 7.525 39.501 L 7.601 48.188 L 3.903 47.569 L 0.203 46.955 L 0.289 55.408 L 3.975 54.719 L 7.661 54.024 L 7.782 64.283 L 4.082 63.676 L 0.38 63.074 L 0.487 71.026 L 4.171 70.325 L 7.854 69.618 L 8.001 79.306 L 4.298 78.711 L 0.595 78.122 L 0.72 85.574 L 4.402 84.861 L 4.431 86.523 L 4.449 87.486 L 4.466 88.447 L 4.484 89.405 L 4.502 90.361 L 4.52 91.315 L 4.539 92.266 L 4.557 93.215 L 4.576 94.161 L 4.595 95.106 L 4.614 96.047 L 4.633 96.987 L 4.653 97.924 L 4.673 98.859 L 4.692 99.791 L 4.712 100.721 L 4.733 101.648 L 4.753 102.574 L 4.774 103.497 L 4.794 104.417 L 4.802 104.416 L 4.822 105.301 L 4.841 106.183 L 4.861 107.063 L 4.881 107.941 L 4.901 108.817 L 4.922 109.691 L 4.942 110.562 L 4.963 111.431 L 4.984 112.298 L 5.005 113.163 L 5.026 114.026 L 5.047 114.886 L 5.069 115.745 L 5.091 116.601 L 5.113 117.455 L 5.135 118.307 L 5.157 119.156 L 5.179 120.004 L 5.203 120.889 L 1.493 120.342 L 1.74 129.165 L 5.413 128.411 L 9.085 127.646 L 9.394 137.726 L 5.683 137.189 L 1.97 136.661 L 2.24 144.745 L 5.91 143.97 L 9.577 143.186 L 9.912 152.447 L 6.198 151.93 L 2.482 151.424 L 2.829 160.257 L 6.494 159.461 L 10.156 158.654 L 10.513 167.061 L 6.796 166.567 L 6.81 166.892 L 6.842 167.608 L 6.874 168.322 L 6.906 169.034 L 6.938 169.744 L 6.97 170.451 L 7.003 171.157 L 7.035 171.86 L 7.068 172.562 L 7.101 173.261 L 7.134 173.958 L 7.167 174.653 L 7.201 175.346 L 7.234 176.036 L 7.268 176.725 L 7.301 177.412 L 7.335 178.096 L 7.369 178.778 L 7.403 179.459 L 7.437 180.137 L 7.472 180.813 L 7.506 181.487 L 7.541 182.159 L 8.48 181.293 L 9.279 180.428 L 10.741 179.326 L 11.371 178.453 L 12.649 177.345 L 13.438 176.459 L 14.696 175.339 L 15.632 174.438 L 16.606 173.31 L 17.833 172.171 L 18.61 171.258 L 19.714 170.109 L 21.038 168.945 L 21.682 168.018 L 22.765 166.848 L 23.84 165.671 L 24.908 164.486 L 25.968 163.295 L 27.021 162.095 L 28.067 160.889 L 29.21 159.672 L 30.139 158.451 L 31.163 157.221 L 32.18 155.984 L 33.19 154.74 L 34.193 153.488 L 35.132 152.229 L 36.374 150.707 L 37.354 149.43 L 38.276 148.146 L 39.486 146.594 L 40.396 145.292 L 41.583 143.719 L 42.481 142.401 L 43.647 140.807 L 44.533 139.47 L 45.638 137.855 L 46.77 136.229 L 47.637 134.864 L 48.714 133.217 L 49.78 131.557 L 50.837 129.885 L 51.814 128.203 L 52.921 126.507 L 53.948 124.8 L 54.943 123.08 L 56.14 121.058 L 57.137 119.312 L 58.104 117.554 L 59.263 115.486 L 60.163 113.702 L 61.327 111.604 L 62.446 109.488 L 63.365 107.661 L 64.444 105.513 L 65.51 103.348 L 66.529 101.166 L 67.593 98.967 L 68.777 96.431 L 69.79 94.194 L 70.782 91.938 L 71.886 89.339 L 73.029 86.717 L 73.982 84.402 L 75.063 81.735 L 76.105 79.044 L 77.307 75.989 L 78.338 73.247 L 79.349 70.481 L 80.459 67.34 L 81.574 64.168 L 82.656 60.965 L 83.71 57.731 L 84.759 54.465 L 85.894 50.799 L 86.999 47.094 L 88.09 43.349 L 89.258 39.184 L 90.29 35.355 L 91.405 31.097 L 92.585 26.396 L 93.635 22.034 L 94.751 17.22 L 95.921 11.937 L 97.81 2.836 L 97.81 2.817 L 97.81 2.798 L 97.809 2.779 L 97.809 2.759 L 97.809 2.74 L 97.809 2.721 L 97.809 2.701 L 97.808 2.682 L 97.808 2.663 L 97.808 2.643 L 97.808 2.624 L 97.808 2.604 L 97.808 2.584 L 97.807 2.565 L 97.807 2.545 L 97.807 2.525 L 97.807 2.506 L 97.807 2.486 L 97.807 2.466 L 97.807 2.446 L 97.806 2.426 L 97.806 2.406 L 97.806 2.386 L 97.806 2.366 L 97.806 2.346 L 97.806 2.326 L 97.805 2.306 L 97.805 2.286 L 97.805 2.266 L 97.805 2.245 L 97.805 2.225 L 97.805 2.205 L 97.805 2.184 L 97.805 2.164 L 97.804 2.143 L 97.804 2.123 L 97.804 2.102 L 97.804 2.082 L 97.804 2.061 L 97.804 2.04 L 97.804 2.02 L 97.804 1.999 L 97.804 1.978 L 97.803 1.957 L 97.803 1.936 L 97.803 1.916 L 97.803 1.895 L 97.803 1.874 L 97.803 1.853 L 97.803 1.832 L 97.803 1.81 L 97.803 1.789 L 97.803 1.768 L 97.802 1.747 L 97.802 1.726 L 97.802 1.704 L 97.802 1.683 L 97.802 1.662 L 97.802 1.64 L 97.802 1.619 L 97.802 1.597 L 97.802 1.576 L 97.802 1.554 L 97.802 1.532 L 97.802 1.511 L 97.802 1.489 L 97.802 1.467 L 97.801 1.446 L 97.801 1.424 L 97.801 1.402 L 97.801 1.38 L 97.801 1.358 L 97.801 1.336 L 97.801 1.314 L 97.801 1.292 L 97.801 1.27 L 97.801 1.248 L 97.801 1.226 L 97.801 1.203 L 97.801 1.181 L 97.801 1.159 L 97.801 1.136 L 97.801 1.114 L 97.801 1.092 L 97.801 1.069 L 97.801 1.047 L 97.801 1.024 L 97.801 1.002 L 97.801 0.979 L 97.801 0.956 L 97.801 0.934 L 97.801 0.911 L 97.801 0.888 L 97.801 0.865 L 97.801 0.842 L 97.801 0.82 L 97.801 0.797 L 97.801 0.774 L 97.801 0.751 L 97.801 0.728 Z" vector-effect="non-scaling-stroke"/><g id="captions"><text alignment-baseline="middle" text-anchor="middle" transform="rotate(0,50.36,64.944)" x="50.36" y="64.944">WIND, 0, 0</text></g></g></svg>