<svg width="597.715" height="154.622" viewBox="0 0 597.715 154.622" xmlns="http://www.w3.org/2000/svg"><g id="svgGroup" stroke-linecap="round" fill-rule="evenodd" font-size="9pt" stroke="#000" stroke-width="0.25mm" fill="none" style="stroke:#000;stroke-width:0.25mm;fill:none"><path d="M 593.868 0 L 592.771 0.122 L 591.675 0.245 L 590.58 0.368 L 589.486 0.492 L 588.666 0.585 L 587.573 0.71 L 586.481 0.836 L 585.389 0.962 L 584.299 1.089 L 583.208 1.216 L 582.119 1.344 L 581.03 1.472 L 579.941 1.602 L 578.853 1.731 L 577.766 1.861 L 576.678 1.992 L 575.591 2.123 L 574.505 2.255 L 573.418 2.388 L 572.332 2.52 L 571.246 2.654 L 570.16 2.788 L 569.074 2.922 L 568.26 3.023 L 567.174 3.159 L 566.089 3.294 L 565.003 3.431 L 563.917 3.567 L 562.831 3.705 L 561.745 3.842 L 560.659 3.98 L 559.572 4.119 L 558.485 4.258 L 557.398 4.397 L 556.311 4.537 L 555.223 4.678 L 554.134 4.818 L 553.046 4.96 L 551.956 5.101 L 551.139 5.208 L 550.048 5.35 L 548.957 5.493 L 547.866 5.636 L 546.773 5.779 L 545.68 5.923 L 544.586 6.067 L 543.491 6.211 L 542.396 6.356 L 541.299 6.501 L 540.476 6.611 L 539.378 6.756 L 538.279 6.902 L 537.178 7.049 L 536.077 7.196 L 534.975 7.343 L 533.871 7.49 L 533.042 7.601 L 531.936 7.749 L 530.829 7.897 L 529.721 8.045 L 528.611 8.194 L 527.5 8.343 L 526.665 8.455 L 525.552 8.604 L 524.436 8.754 L 523.319 8.904 L 522.201 9.054 L 521.361 9.167 L 520.24 9.317 L 519.117 9.468 L 517.992 9.619 L 516.865 9.77 L 516.019 9.884 L 514.889 10.035 L 513.758 10.187 L 512.624 10.339 L 511.773 10.453 L 510.636 10.605 L 509.497 10.757 L 508.641 10.871 L 507.498 11.024 L 506.353 11.177 L 505.493 11.291 L 504.344 11.444 L 503.193 11.598 L 502.328 11.712 L 501.173 11.866 L 500.016 12.019 L 499.146 12.134 L 497.984 12.288 L 496.82 12.441 L 495.946 12.557 L 494.777 12.711 L 493.606 12.864 L 492.726 12.98 L 491.55 13.134 L 490.666 13.249 L 489.486 13.404 L 488.598 13.519 L 487.413 13.673 L 486.225 13.827 L 485.332 13.943 L 484.138 14.097 L 483.241 14.213 L 482.043 14.367 L 481.142 14.483 L 479.938 14.637 L 479.033 14.753 L 477.824 14.907 L 476.915 15.023 L 475.7 15.177 L 474.787 15.292 L 473.567 15.447 L 472.649 15.562 L 471.73 15.678 L 470.501 15.832 L 469.578 15.947 L 468.343 16.101 L 467.415 16.216 L 466.174 16.37 L 465.241 16.485 L 464.306 16.601 L 463.057 16.754 L 462.117 16.869 L 461.175 16.984 L 459.917 17.138 L 458.97 17.252 L 458.022 17.367 L 456.753 17.52 L 455.8 17.635 L 454.844 17.749 L 453.566 17.902 L 452.605 18.016 L 451.642 18.131 L 450.677 18.245 L 449.386 18.397 L 448.416 18.511 L 447.443 18.625 L 446.468 18.739 L 445.164 18.89 L 444.183 19.004 L 443.2 19.117 L 442.215 19.231 L 441.227 19.344 L 439.906 19.495 L 438.912 19.608 L 437.916 19.72 L 436.918 19.833 L 435.917 19.946 L 434.914 20.058 L 433.572 20.208 L 432.563 20.32 L 431.551 20.432 L 430.536 20.544 L 429.519 20.655 L 428.5 20.767 L 427.478 20.878 L 426.453 20.989 L 425.425 21.1 L 424.395 21.211 L 423.362 21.322 L 422.327 21.433 L 421.288 21.543 L 420.247 21.653 L 419.203 21.763 L 418.157 21.873 L 417.108 21.983 L 416.055 22.092 L 415 22.202 L 413.943 22.311 L 412.882 22.42 L 411.818 22.529 L 410.752 22.637 L 409.683 22.746 L 408.611 22.854 L 407.535 22.962 L 406.457 23.07 L 405.376 23.177 L 404.292 23.284 L 403.205 23.392 L 402.115 23.498 L 401.022 23.605 L 400.292 23.676 L 399.193 23.783 L 398.092 23.889 L 396.988 23.994 L 395.88 24.1 L 394.77 24.206 L 394.028 24.276 L 392.912 24.381 L 391.793 24.485 L 390.671 24.59 L 389.545 24.694 L 388.793 24.764 L 387.663 24.868 L 386.529 24.971 L 385.391 25.074 L 384.251 25.178 L 383.489 25.246 L 382.343 25.349 L 381.193 25.451 L 380.041 25.553 L 379.27 25.621 L 378.112 25.723 L 376.951 25.824 L 376.174 25.892 L 375.007 25.993 L 373.836 26.093 L 373.054 26.16 L 371.878 26.26 L 370.698 26.36 L 369.909 26.427 L 368.723 26.526 L 367.534 26.625 L 366.739 26.691 L 365.544 26.79 L 364.346 26.888 L 363.545 26.953 L 362.34 27.051 L 361.535 27.116 L 360.324 27.213 L 359.11 27.31 L 358.299 27.375 L 357.078 27.471 L 356.263 27.535 L 355.036 27.631 L 354.217 27.695 L 352.984 27.79 L 351.748 27.885 L 350.922 27.948 L 349.679 28.043 L 348.849 28.106 L 347.6 28.199 L 346.765 28.262 L 345.51 28.355 L 344.671 28.417 L 343.41 28.51 L 342.567 28.571 L 341.299 28.664 L 340.451 28.725 L 339.177 28.816 L 338.325 28.877 L 337.045 28.968 L 336.189 29.029 L 335.331 29.089 L 334.041 29.179 L 333.179 29.239 L 331.882 29.328 L 331.015 29.388 L 329.712 29.477 L 328.841 29.536 L 327.968 29.594 L 326.656 29.682 L 325.778 29.741 L 324.899 29.799 L 323.577 29.886 L 322.693 29.944 L 321.364 30.03 L 320.476 30.088 L 319.586 30.145 L 318.248 30.23 L 317.353 30.287 L 316.456 30.344 L 315.108 30.428 L 314.207 30.484 L 313.304 30.54 L 311.946 30.624 L 311.038 30.679 L 310.128 30.735 L 308.761 30.817 L 307.846 30.872 L 306.93 30.927 L 306.012 30.981 L 304.631 31.063 L 303.708 31.117 L 302.783 31.171 L 301.857 31.224 L 300.463 31.304 L 299.531 31.357 L 298.598 31.41 L 297.662 31.463 L 296.255 31.542 L 295.315 31.594 L 294.373 31.646 L 293.428 31.698 L 292.008 31.776 L 291.059 31.827 L 290.108 31.878 L 289.155 31.929 L 288.199 31.98 L 286.763 32.056 L 285.803 32.106 L 284.84 32.156 L 283.876 32.206 L 282.91 32.255 L 281.942 32.305 L 280.485 32.379 L 279.512 32.428 L 278.537 32.476 L 277.559 32.525 L 276.58 32.573 L 275.598 32.621 L 274.614 32.669 L 273.135 32.74 L 272.146 32.788 L 271.155 32.835 L 270.162 32.882 L 269.167 32.929 L 268.17 32.975 L 267.171 33.021 L 266.17 33.067 L 265.166 33.113 L 264.161 33.159 L 262.648 33.227 L 261.638 33.272 L 260.625 33.317 L 259.61 33.361 L 258.592 33.405 L 257.573 33.45 L 256.551 33.494 L 255.528 33.537 L 254.502 33.581 L 253.474 33.624 L 252.444 33.667 L 251.412 33.71 L 250.377 33.752 L 249.34 33.795 L 248.302 33.837 L 247.261 33.879 L 246.217 33.92 L 245.172 33.962 L 244.124 34.003 L 243.074 34.044 L 242.022 34.084 L 240.968 34.125 L 239.912 34.165 L 238.853 34.205 L 237.792 34.245 L 236.729 34.284 L 235.663 34.324 L 234.596 34.363 L 233.526 34.401 L 232.454 34.44 L 231.379 34.478 L 230.303 34.516 L 229.224 34.554 L 228.142 34.592 L 227.059 34.629 L 225.973 34.666 L 225.429 34.684 L 224.34 34.721 L 223.249 34.757 L 222.155 34.794 L 221.059 34.83 L 219.96 34.865 L 218.86 34.901 L 217.757 34.936 L 216.651 34.971 L 215.543 35.006 L 214.989 35.023 L 213.878 35.057 L 212.764 35.091 L 211.648 35.125 L 210.53 35.158 L 209.409 35.192 L 208.286 35.225 L 207.161 35.257 L 206.597 35.274 L 205.469 35.306 L 204.337 35.338 L 203.204 35.37 L 202.068 35.402 L 200.929 35.433 L 199.789 35.464 L 199.217 35.479 L 198.073 35.51 L 196.926 35.54 L 195.777 35.571 L 194.625 35.6 L 194.049 35.615 L 192.893 35.645 L 191.736 35.674 L 190.576 35.703 L 189.413 35.731 L 188.831 35.746 L 187.665 35.774 L 186.496 35.802 L 185.325 35.83 L 184.152 35.857 L 183.564 35.871 L 182.387 35.898 L 181.207 35.924 L 180.025 35.951 L 178.84 35.977 L 178.247 35.99 L 177.059 36.016 L 175.868 36.041 L 174.674 36.066 L 174.077 36.079 L 172.88 36.104 L 171.68 36.128 L 170.478 36.152 L 169.876 36.164 L 168.67 36.188 L 167.461 36.212 L 166.856 36.223 L 165.644 36.246 L 164.429 36.269 L 163.212 36.292 L 162.602 36.303 L 161.381 36.325 L 160.158 36.347 L 159.545 36.358 L 158.317 36.379 L 157.087 36.4 L 155.855 36.421 L 155.237 36.431 L 154.001 36.451 L 152.762 36.471 L 152.141 36.481 L 150.898 36.501 L 149.653 36.52 L 149.029 36.53 L 147.78 36.549 L 146.528 36.567 L 145.901 36.576 L 144.645 36.595 L 143.386 36.612 L 142.756 36.621 L 141.493 36.639 L 140.228 36.656 L 139.595 36.664 L 138.326 36.681 L 137.054 36.697 L 136.417 36.705 L 135.142 36.721 L 133.863 36.737 L 133.223 36.744 L 131.941 36.759 L 131.299 36.767 L 130.012 36.782 L 128.723 36.796 L 128.078 36.803 L 126.785 36.817 L 125.489 36.831 L 124.84 36.837 L 123.541 36.85 L 122.89 36.857 L 121.586 36.869 L 120.28 36.882 L 119.626 36.888 L 118.315 36.9 L 117.659 36.906 L 116.344 36.917 L 115.027 36.928 L 114.367 36.934 L 113.046 36.944 L 112.384 36.949 L 111.059 36.96 L 109.731 36.969 L 109.066 36.974 L 107.733 36.984 L 107.066 36.988 L 105.73 36.997 L 105.061 37.001 L 103.72 37.01 L 103.049 37.014 L 101.704 37.022 L 100.357 37.029 L 99.682 37.033 L 98.33 37.04 L 97.653 37.044 L 96.297 37.05 L 95.619 37.054 L 94.259 37.06 L 93.577 37.063 L 92.213 37.068 L 91.53 37.071 L 90.162 37.076 L 88.791 37.081 L 88.104 37.083 L 86.729 37.088 L 86.04 37.09 L 84.66 37.094 L 83.969 37.096 L 82.585 37.099 L 81.892 37.101 L 80.504 37.103 L 79.809 37.105 L 78.417 37.107 L 77.719 37.108 L 76.323 37.11 L 75.623 37.111 L 74.222 37.112 L 73.521 37.113 L 72.115 37.114 L 71.412 37.114 L 70.002 37.114 L 69.296 37.115 L 67.882 37.114 L 67.174 37.114 L 65.756 37.114 L 65.046 37.113 L 64.335 37.113 L 62.911 37.111 L 62.198 37.11 L 60.769 37.109 L 60.054 37.108 L 58.621 37.105 L 57.904 37.104 L 56.467 37.101 L 55.747 37.1 L 54.306 37.096 L 53.584 37.094 L 52.138 37.091 L 51.414 37.088 L 50.689 37.086 L 49.237 37.082 L 48.51 37.079 L 47.054 37.074 L 46.325 37.072 L 44.864 37.066 L 44.133 37.063 L 43.401 37.06 L 41.934 37.054 L 41.2 37.05 L 39.729 37.044 L 38.992 37.04 L 37.517 37.033 L 36.778 37.029 L 36.038 37.025 L 34.557 37.017 L 33.815 37.013 L 32.329 37.004 L 31.585 37 L 30.84 36.995 L 29.348 36.986 L 28.601 36.981 L 27.105 36.971 L 26.355 36.966 L 25.605 36.961 L 24.103 36.95 L 23.35 36.945 L 21.843 36.934 L 21.089 36.928 L 20.333 36.922 L 18.82 36.91 L 18.063 36.904 L 16.545 36.892 L 15.785 36.886 L 15.024 36.879 L 13.5 36.866 L 12.737 36.859 L 11.974 36.853 L 10.444 36.839 L 9.678 36.832 L 8.143 36.817 L 7.375 36.81 L 6.606 36.803 L 5.065 36.788 L 4.293 36.78 L 3.521 36.772 L 1.974 36.756 L 1.2 36.748 L 0 154.566 L 0.775 154.57 L 2.322 154.577 L 3.095 154.58 L 3.867 154.584 L 5.409 154.59 L 6.18 154.593 L 6.949 154.595 L 8.486 154.601 L 9.253 154.603 L 10.786 154.608 L 11.552 154.609 L 12.317 154.611 L 13.844 154.614 L 14.607 154.615 L 15.369 154.616 L 16.891 154.619 L 17.655 154.619 L 18.926 154.619 L 19.928 154.621 L 20.686 154.621 L 22.198 154.622 L 22.958 154.621 L 24.22 154.619 L 25.217 154.62 L 25.973 154.619 L 27.231 154.616 L 28.228 154.616 L 29.482 154.613 L 30.473 154.613 L 31.225 154.61 L 32.475 154.605 L 33.467 154.605 L 34.712 154.599 L 35.698 154.598 L 36.446 154.595 L 37.687 154.588 L 38.673 154.586 L 39.916 154.579 L 40.656 154.575 L 42.134 154.569 L 42.867 154.564 L 43.848 154.561 L 45.083 154.552 L 45.818 154.546 L 47.287 154.539 L 48.021 154.533 L 49.486 154.525 L 50.218 154.518 L 50.949 154.511 L 52.409 154.502 L 53.138 154.495 L 54.594 154.485 L 55.321 154.477 L 56.774 154.467 L 57.504 154.458 L 58.71 154.445 L 59.676 154.438 L 60.878 154.424 L 61.842 154.417 L 63.048 154.402 L 63.761 154.392 L 64.721 154.384 L 65.916 154.369 L 66.874 154.36 L 68.066 154.344 L 69.021 154.335 L 70.216 154.318 L 70.93 154.306 L 72.354 154.29 L 73.066 154.278 L 74.487 154.261 L 75.197 154.249 L 76.614 154.231 L 77.327 154.218 L 78.5 154.198 L 79.446 154.187 L 80.616 154.166 L 81.56 154.154 L 82.727 154.132 L 83.668 154.119 L 84.839 154.097 L 85.54 154.082 L 86.939 154.061 L 87.637 154.046 L 89.038 154.024 L 90.192 153.999 L 91.126 153.985 L 92.277 153.96 L 93.209 153.945 L 94.356 153.919 L 95.286 153.904 L 96.438 153.877 L 97.128 153.859 L 98.506 153.834 L 99.195 153.816 L 100.575 153.789 L 101.71 153.761 L 102.633 153.743 L 103.764 153.714 L 104.684 153.696 L 105.812 153.666 L 106.73 153.648 L 107.855 153.617 L 108.771 153.598 L 109.902 153.567 L 111.257 153.537 L 111.941 153.515 L 113.056 153.482 L 113.968 153.462 L 115.09 153.429 L 116.435 153.396 L 117.108 153.374 L 118.45 153.34 L 119.12 153.317 L 120.466 153.283 L 121.566 153.247 L 122.47 153.225 L 123.567 153.188 L 124.468 153.165 L 125.573 153.128 L 126.9 153.091 L 127.563 153.066 L 128.894 153.028 L 129.98 152.989 L 130.875 152.964 L 131.957 152.925 L 132.85 152.899 L 133.941 152.859 L 135.253 152.819 L 135.909 152.791 L 137.225 152.751 L 138.296 152.708 L 139.183 152.681 L 140.264 152.638 L 141.564 152.596 L 142.214 152.566 L 143.519 152.523 L 144.579 152.479 L 145.46 152.449 L 146.53 152.404 L 147.807 152.359 L 148.684 152.328 L 149.749 152.282 L 151.032 152.236 L 151.673 152.204 L 152.962 152.157 L 154.006 152.109 L 154.877 152.076 L 155.932 152.027 L 157.213 151.979 L 158.249 151.929 L 159.117 151.895 L 160.164 151.845 L 161.429 151.794 L 162.06 151.759 L 163.321 151.708 L 164.589 151.656 L 165.613 151.603 L 166.472 151.567 L 167.508 151.513 L 168.759 151.46 L 169.383 151.422 L 170.641 151.368 L 171.669 151.313 L 172.897 151.257 L 173.749 151.219 L 174.773 151.162 L 176.021 151.106 L 177.025 151.048 L 177.873 151.008 L 178.89 150.95 L 180.12 150.892 L 181.358 150.833 L 182.352 150.773 L 183.195 150.731 L 184.203 150.671 L 185.435 150.61 L 186.438 150.549 L 187.637 150.487 L 188.475 150.443 L 189.474 150.381 L 190.696 150.318 L 191.691 150.254 L 192.88 150.19 L 193.712 150.144 L 194.703 150.08 L 195.915 150.014 L 196.902 149.948 L 198.098 149.882 L 198.696 149.835 L 199.889 149.768 L 201.093 149.7 L 202.07 149.632 L 203.257 149.562 L 204.455 149.493 L 205.407 149.423 L 206.228 149.374 L 207.197 149.304 L 208.375 149.232 L 209.563 149.16 L 210.527 149.088 L 211.711 149.015 L 212.671 148.943 L 213.817 148.868 L 214.63 148.816 L 215.585 148.742 L 216.747 148.666 L 217.921 148.59 L 218.87 148.515 L 220.04 148.438 L 220.985 148.362 L 222.137 148.284 L 223.302 148.205 L 224.219 148.127 L 225.008 148.07 L 226.167 147.99 L 227.102 147.911 L 228.242 147.83 L 229.396 147.748 L 230.325 147.668 L 231.46 147.585 L 232.607 147.502 L 233.531 147.42 L 234.66 147.335 L 235.802 147.251 L 236.72 147.167 L 237.843 147.081 L 238.979 146.995 L 239.892 146.91 L 241.009 146.822 L 242.14 146.734 L 243.047 146.647 L 244.158 146.558 L 245.283 146.469 L 246.186 146.381 L 247.29 146.29 L 248.41 146.199 L 249.307 146.109 L 250.406 146.017 L 251.52 145.924 L 252.412 145.833 L 253.505 145.739 L 254.613 145.644 L 255.5 145.551 L 256.587 145.456 L 257.69 145.36 L 258.571 145.265 L 259.653 145.168 L 260.732 145.07 L 261.835 144.972 L 263.055 144.848 L 264.129 144.749 L 265.219 144.648 L 266.086 144.551 L 267.154 144.449 L 268.219 144.347 L 269.302 144.245 L 270.163 144.145 L 271.223 144.041 L 272.308 143.937 L 273.502 143.807 L 274.556 143.702 L 275.607 143.596 L 276.677 143.489 L 277.525 143.386 L 278.571 143.278 L 279.628 143.17 L 281.019 143.032 L 281.86 142.926 L 282.897 142.816 L 283.933 142.705 L 284.988 142.594 L 285.836 142.486 L 287.189 142.343 L 288.217 142.23 L 289.264 142.116 L 290.091 142.006 L 291.127 141.891 L 292.467 141.745 L 293.507 141.629 L 294.326 141.516 L 295.355 141.399 L 296.684 141.25 L 297.693 141.131 L 298.724 141.012 L 299.549 140.897 L 300.867 140.745 L 301.869 140.624 L 302.869 140.502 L 303.899 140.38 L 305.017 140.23 L 306.011 140.106 L 307.003 139.982 L 308.027 139.857 L 309.134 139.704 L 310.12 139.578 L 311.121 139.451 L 312.408 139.291 L 313.388 139.162 L 314.401 139.034 L 315.493 138.877 L 316.467 138.746 L 317.456 138.616 L 318.727 138.451 L 319.72 138.319 L 320.511 138.192 L 321.773 138.025 L 322.753 137.891 L 324.01 137.722 L 324.968 137.586 L 325.961 137.45 L 327.025 137.285 L 327.977 137.148 L 328.945 137.01 L 330.186 136.836 L 331.15 136.697 L 332.385 136.522 L 333.365 136.381 L 334.412 136.211 L 335.35 136.068 L 336.305 135.926 L 337.526 135.747 L 338.477 135.602 L 339.693 135.422 L 340.661 135.276 L 341.69 135.1 L 342.633 134.953 L 343.838 134.769 L 344.778 134.621 L 345.977 134.435 L 346.913 134.285 L 348.107 134.098 L 349.039 133.947 L 350.257 133.758 L 350.998 133.612 L 352.2 133.422 L 353.38 133.23 L 354.303 133.075 L 355.478 132.882 L 356.396 132.726 L 357.566 132.531 L 358.481 132.373 L 359.665 132.176 L 360.826 131.979 L 361.758 131.819 L 362.737 131.627 L 363.643 131.466 L 364.814 131.265 L 365.961 131.063 L 366.862 130.899 L 368.025 130.696 L 369.164 130.491 L 370.059 130.325 L 371.214 130.119 L 372.345 129.912 L 373.234 129.743 L 374.382 129.535 L 375.505 129.325 L 376.388 129.154 L 377.528 128.942 L 378.643 128.73 L 379.521 128.556 L 380.653 128.342 L 381.783 128.127 L 382.887 127.911 L 383.757 127.735 L 384.879 127.517 L 386.024 127.298 L 386.969 127.088 L 388.06 126.867 L 388.922 126.687 L 390.031 126.464 L 391.138 126.241 L 392.242 126.017 L 393.291 125.791 L 394.315 125.596 L 395.412 125.369 L 396.506 125.141 L 397.597 124.912 L 398.686 124.682 L 399.748 124.451 L 400.588 124.261 L 401.67 124.028 L 402.749 123.795 L 403.825 123.56 L 404.899 123.324 L 405.97 123.087 L 407.039 122.85 L 408.105 122.611 L 409.169 122.371 L 410.23 122.13 L 411.289 121.889 L 412.345 121.646 L 413.399 121.402 L 414.45 121.158 L 415.499 120.912 L 416.521 120.665 L 417.725 120.406 L 418.767 120.157 L 419.806 119.907 L 420.842 119.656 L 421.876 119.404 L 422.908 119.152 L 423.938 118.898 L 424.965 118.643 L 425.99 118.387 L 426.987 118.13 L 428.164 117.859 L 429.182 117.6 L 430.197 117.34 L 431.21 117.078 L 432.221 116.816 L 433.244 116.553 L 434.484 116.244 L 435.462 115.978 L 436.618 115.698 L 437.616 115.43 L 438.613 115.161 L 439.622 114.892 L 440.845 114.575 L 441.835 114.303 L 442.796 114.03 L 443.933 113.742 L 444.931 113.466 L 446.14 113.144 L 447.118 112.866 L 448.068 112.587 L 449.207 112.293 L 450.405 111.966 L 451.374 111.683 L 452.341 111.4 L 453.3 111.115 L 454.631 110.768 L 455.591 110.481 L 456.564 110.193 L 457.743 109.857 L 458.671 109.566 L 459.784 109.26 L 460.956 108.92 L 461.903 108.625 L 462.842 108.33 L 464.146 107.971 L 465.087 107.673 L 466.04 107.374 L 467.171 107.026 L 468.263 106.709 L 469.415 106.359 L 470.36 106.054 L 471.481 105.702 L 472.548 105.379 L 473.488 105.071 L 474.627 104.714 L 475.542 104.403 L 476.811 104.027 L 477.742 103.713 L 478.846 103.351 L 479.911 103.019 L 481.037 102.653 L 481.939 102.334 L 483.192 101.95 L 484.111 101.628 L 485.202 101.257 L 486.253 100.916 L 487.379 100.542 L 488.464 100.166 L 489.507 99.82 L 490.613 99.442 L 491.499 99.11 L 492.728 98.712 L 493.63 98.377 L 494.722 97.992 L 495.943 97.589 L 496.839 97.249 L 497.925 96.86 L 499.139 96.452 L 500.011 96.108 L 501.234 95.696 L 502.318 95.301 L 503.185 94.952 L 504.4 94.535 L 505.455 94.134 L 506.461 93.762 L 507.53 93.358 L 508.723 92.935 L 509.599 92.576 L 510.664 92.166 L 511.849 91.737 L 512.703 91.373 L 513.897 90.94 L 514.955 90.523 L 516.132 90.086 L 516.979 89.715 L 518.164 89.274 L 519.217 88.85 L 520.398 88.405 L 521.431 87.977 L 522.404 87.577 L 523.451 87.145 L 524.623 86.691 L 525.668 86.255 L 526.825 85.798 L 527.659 85.406 L 528.823 84.944 L 529.863 84.5 L 531.024 84.033 L 532.061 83.584 L 533.207 83.113 L 534.035 82.708 L 535.173 82.232 L 536.324 81.753 L 537.357 81.292 L 538.505 80.808 L 539.536 80.342 L 540.67 79.853 L 541.49 79.43 L 542.618 78.936 L 543.757 78.439 L 544.784 77.959 L 545.907 77.456 L 547.042 76.95 L 548.067 76.461 L 549.199 75.949 L 550.223 75.453 L 551.328 74.935 L 552.248 74.461 L 553.271 73.955 L 554.384 73.426 L 555.507 72.893 L 556.529 72.377 L 557.639 71.837 L 558.748 71.292 L 559.866 70.744 L 560.887 70.212 L 561.993 69.654 L 563.108 69.093 L 564.129 68.547 L 565.232 67.976 L 566.335 67.4 L 567.446 66.818 L 568.458 66.252 L 569.344 65.706 L 570.444 65.108 L 571.543 64.504 L 572.649 63.893 L 573.67 63.296 L 574.768 62.671 L 575.865 62.039 L 576.961 61.4 L 578.064 60.752 L 579.087 60.116 L 580.183 59.45 L 581.278 58.775 L 582.373 58.089 L 583.467 57.393 L 584.561 56.685 L 585.655 55.964 L 586.754 55.23 L 587.783 54.501 L 588.872 53.736 L 589.739 52.998 L 590.832 52.197 L 591.925 51.374 L 593.018 50.528 L 594.11 49.657 L 594.106 49.185 L 594.101 48.712 L 594.096 48.24 L 594.091 47.766 L 594.087 47.292 L 594.082 46.818 L 594.078 46.343 L 594.073 45.868 L 594.069 45.392 L 594.064 44.916 L 594.06 44.439 L 594.055 43.962 L 594.051 43.484 L 594.047 43.005 L 594.043 42.527 L 594.039 42.047 L 594.035 41.568 L 594.031 41.087 L 594.027 40.606 L 594.023 40.125 L 594.017 39.458 L 597.715 40.083 L 597.649 30.728 L 593.961 31.405 L 590.271 32.076 L 590.225 23.46 L 593.922 24.091 L 597.617 24.728 L 597.583 15.887 L 593.893 16.552 L 590.201 17.212 L 590.182 9.17 L 593.877 9.812 L 593.876 9.308 L 593.875 8.795 L 593.874 8.282 L 593.873 7.768 L 593.873 7.254 L 593.872 6.739 L 593.871 6.224 L 593.871 5.708 L 593.87 5.191 L 593.87 4.674 L 593.869 4.157 L 593.869 3.639 L 593.869 3.121 L 593.868 2.602 L 593.868 2.083 L 593.868 1.563 L 593.868 1.042 L 593.868 0.521 L 593.868 0 Z" vector-effect="non-scaling-stroke"/><path d="M 0 154.566 L 0.009 153.592 L 0.019 152.615 L 0.028 151.633 L 0.037 150.648 L 0.047 149.658 L 0.056 148.665 L 0.066 147.667 L 0.075 146.666 L 0.085 145.661 L 0.095 144.651 L 0.105 143.638 L 0.115 142.621 L 0.125 141.599 L 0.135 140.574 L 0.145 139.545 L 0.155 138.511 L 0.165 137.474 L 0.175 136.432 L 0.185 135.387 L 0.196 134.337 L 0.206 133.284 L 0.217 132.226 L 0.227 131.164 L 0.238 130.098 L 0.248 129.028 L 0.259 127.954 L 0.27 126.876 L 0.281 125.794 L 0.291 124.707 L 0.302 123.617 L 0.313 122.522 L 0.324 121.423 L 0.335 120.32 L 0.347 119.213 L 0.358 118.102 L 0.369 116.987 L 0.38 115.867 L 0.392 114.743 L 0.403 113.615 L 0.415 112.483 L 0.426 111.347 L 0.438 110.207 L 0.449 109.062 L 0.461 107.913 L 0.473 106.76 L 0.485 105.603 L 0.496 104.442 L 0.508 103.276 L 0.52 102.106 L 0.532 100.932 L 0.544 99.754 L 0.557 98.571 L 0.569 97.384 L 0.581 96.193 L 0.593 94.998 L 0.606 93.798 L 0.618 92.594 L 0.631 91.386 L 0.643 90.174 L 0.656 88.957 L 0.668 87.737 L 0.681 86.511 L 0.694 85.282 L 0.706 84.048 L 0.719 82.81 L 0.732 81.568 L 0.745 80.321 L 0.758 79.07 L 0.771 77.815 L 0.784 76.556 L 0.797 75.292 L 0.81 74.024 L 0.824 72.751 L 0.837 71.474 L 0.85 70.193 L 0.864 68.908 L 0.877 67.618 L 0.891 66.324 L 0.904 65.025 L 0.918 63.722 L 0.931 62.415 L 0.945 61.104 L 0.959 59.788 L 0.973 58.468 L 0.986 57.143 L 1 55.814 L 1.014 54.481 L 1.028 53.143 L 1.042 51.801 L 1.056 50.454 L 1.071 49.104 L 1.085 47.748 L 1.099 46.389 L 1.113 45.025 L 1.127 43.656 L 1.142 42.283 L 1.156 40.906 L 1.171 39.525 L 1.185 38.139 L 1.2 36.748 M 258.571 145.265 L 258.577 144.32 L 258.583 143.371 L 258.589 142.418 L 258.596 141.463 L 258.602 140.503 L 258.609 139.541 L 258.615 138.575 L 258.622 137.606 L 258.629 136.633 L 258.636 135.657 L 258.643 134.677 L 258.65 133.694 L 258.658 132.708 L 258.665 131.718 L 258.672 130.725 L 258.68 129.729 L 258.688 128.728 L 258.695 127.725 L 258.703 126.718 L 258.711 125.708 L 258.719 124.694 L 258.727 123.676 L 258.735 122.656 L 258.744 121.631 L 258.752 120.604 L 258.761 119.572 L 258.769 118.538 L 258.778 117.5 L 258.787 116.458 L 258.796 115.413 L 258.804 114.364 L 258.814 113.312 L 258.823 112.256 L 258.832 111.197 L 258.841 110.135 L 258.851 109.068 L 258.86 107.999 L 258.87 106.925 L 258.879 105.849 L 258.889 104.768 L 258.899 103.684 L 258.909 102.597 L 258.919 101.506 L 258.929 100.412 L 258.939 99.314 L 258.949 98.212 L 258.959 97.107 L 258.97 95.998 L 258.98 94.886 L 258.991 93.77 L 259.001 92.651 L 259.012 91.528 L 259.023 90.401 L 259.034 89.271 L 259.045 88.137 L 259.056 87 L 259.067 85.859 L 259.078 84.714 L 259.089 83.566 L 259.101 82.415 L 259.112 81.259 L 259.123 80.1 L 259.135 78.938 L 259.147 77.772 L 259.158 76.602 L 259.17 75.429 L 259.182 74.252 L 259.194 73.071 L 259.206 71.887 L 259.218 70.699 L 259.23 69.507 L 259.242 68.312 L 259.254 67.113 L 259.267 65.911 L 259.279 64.705 L 259.292 63.495 L 259.304 62.282 L 259.317 61.065 L 259.329 59.844 L 259.342 58.62 L 259.355 57.392 L 259.368 56.16 L 259.381 54.925 L 259.394 53.686 L 259.407 52.443 L 259.42 51.197 L 259.433 49.947 L 259.446 48.693 L 259.459 47.436 L 259.473 46.175 L 259.486 44.91 L 259.5 43.641 L 259.513 42.369 L 259.527 41.094 L 259.541 39.814 L 259.554 38.531 L 259.568 37.244 L 259.582 35.953 L 259.596 34.659 L 259.61 33.361 M 519.217 88.85 L 519.21 88.127 L 519.203 87.402 L 519.197 86.676 L 519.19 85.949 L 519.184 85.22 L 519.178 84.49 L 519.171 83.759 L 519.165 83.026 L 519.16 82.291 L 519.154 81.556 L 519.148 80.818 L 519.143 80.08 L 519.137 79.34 L 519.132 78.598 L 519.127 77.856 L 519.122 77.111 L 519.117 76.366 L 519.112 75.619 L 519.107 74.87 L 519.103 74.12 L 519.099 73.369 L 519.094 72.616 L 519.09 71.862 L 519.086 71.106 L 519.082 70.349 L 519.078 69.591 L 519.075 68.831 L 519.071 68.069 L 519.068 67.307 L 519.064 66.542 L 519.061 65.777 L 519.058 65.01 L 519.055 64.241 L 519.052 63.471 L 519.049 62.7 L 519.047 61.927 L 519.044 61.153 L 519.042 60.377 L 519.04 59.6 L 519.038 58.822 L 519.036 58.042 L 519.034 57.261 L 519.032 56.478 L 519.03 55.694 L 519.029 54.908 L 519.027 54.121 L 519.026 53.332 L 519.025 52.542 L 519.024 51.751 L 519.023 50.958 L 519.022 50.164 L 519.021 49.368 L 519.02 48.571 L 519.02 47.772 L 519.019 46.972 L 519.019 46.171 L 519.019 45.368 L 519.019 44.563 L 519.019 43.757 L 519.019 42.95 L 519.019 42.141 L 519.02 41.331 L 519.02 40.52 L 519.021 39.706 L 519.022 38.892 L 519.023 38.076 L 519.024 37.259 L 519.025 36.44 L 519.026 35.619 L 519.027 34.798 L 519.029 33.974 L 519.03 33.15 L 519.032 32.324 L 519.033 31.496 L 519.035 30.667 L 519.037 29.837 L 519.039 29.005 L 519.041 28.171 L 519.044 27.336 L 519.046 26.5 L 519.049 25.662 L 519.051 24.823 L 519.054 23.983 L 519.057 23.14 L 519.06 22.297 L 519.063 21.452 L 519.066 20.605 L 519.069 19.757 L 519.073 18.908 L 519.076 18.057 L 519.08 17.205 L 519.083 16.351 L 519.087 15.496 L 519.091 14.639 L 519.095 13.781 L 519.099 12.921 L 519.103 12.06 L 519.108 11.197 L 519.112 10.333 L 519.117 9.468" id="blue" stroke="blue" style="stroke:blue" vector-effect="non-scaling-stroke"/><g id="captions"><text alignment-baseline="middle" text-anchor="middle" transform="rotate(0,295.805,86.471)" x="295.805" y="86.471">WIND, 2, 0</text></g></g></svg>