<svg width="597.937" height="157.572" viewBox="0 0 597.937 157.572" xmlns="http://www.w3.org/2000/svg"><g id="svgGroup" stroke-linecap="round" fill-rule="evenodd" font-size="9pt" stroke="#000" stroke-width="0.25mm" fill="none" style="stroke:#000;stroke-width:0.25mm;fill:none"><path d="M 593.866 0 L 592.769 0.122 L 591.673 0.245 L 590.578 0.368 L 589.484 0.492 L 588.664 0.585 L 587.571 0.71 L 586.479 0.836 L 585.387 0.962 L 584.297 1.089 L 583.206 1.216 L 582.117 1.344 L 581.028 1.472 L 579.939 1.601 L 578.851 1.731 L 577.764 1.861 L 576.676 1.992 L 575.589 2.123 L 574.503 2.255 L 573.416 2.387 L 572.33 2.52 L 571.244 2.654 L 570.158 2.788 L 569.072 2.922 L 568.258 3.023 L 567.172 3.158 L 566.087 3.294 L 565.001 3.43 L 563.915 3.567 L 562.829 3.704 L 561.743 3.842 L 560.657 3.98 L 559.57 4.119 L 558.483 4.258 L 557.396 4.397 L 556.309 4.537 L 555.221 4.677 L 554.132 4.818 L 553.044 4.959 L 551.954 5.101 L 551.137 5.207 L 550.046 5.349 L 548.955 5.492 L 547.864 5.635 L 546.771 5.779 L 545.678 5.922 L 544.584 6.066 L 543.489 6.211 L 542.394 6.356 L 541.297 6.501 L 540.474 6.61 L 539.376 6.756 L 538.277 6.902 L 537.176 7.048 L 536.075 7.195 L 534.973 7.342 L 533.869 7.49 L 533.04 7.6 L 531.934 7.748 L 530.827 7.896 L 529.719 8.045 L 528.609 8.193 L 527.498 8.342 L 526.663 8.454 L 525.55 8.604 L 524.434 8.753 L 523.317 8.903 L 522.199 9.053 L 521.359 9.166 L 520.238 9.317 L 519.115 9.467 L 517.99 9.618 L 516.863 9.77 L 516.017 9.883 L 514.888 10.035 L 513.756 10.186 L 512.622 10.338 L 511.771 10.452 L 510.634 10.604 L 509.495 10.757 L 508.639 10.871 L 507.496 11.024 L 506.351 11.176 L 505.491 11.291 L 504.342 11.444 L 503.191 11.597 L 502.326 11.712 L 501.171 11.865 L 500.014 12.019 L 499.144 12.134 L 497.983 12.287 L 496.818 12.441 L 495.944 12.556 L 494.775 12.71 L 493.604 12.864 L 492.724 12.979 L 491.548 13.133 L 490.664 13.249 L 489.484 13.403 L 488.596 13.519 L 487.411 13.673 L 486.223 13.827 L 485.33 13.943 L 484.136 14.097 L 483.239 14.213 L 482.041 14.367 L 481.14 14.482 L 479.936 14.637 L 479.031 14.752 L 477.822 14.907 L 476.913 15.022 L 475.699 15.176 L 474.785 15.292 L 473.565 15.446 L 472.647 15.562 L 471.728 15.677 L 470.499 15.831 L 469.576 15.947 L 468.341 16.101 L 467.413 16.216 L 466.172 16.37 L 465.239 16.485 L 464.304 16.6 L 463.055 16.754 L 462.115 16.869 L 461.174 16.984 L 459.915 17.137 L 458.968 17.252 L 458.02 17.367 L 456.752 17.52 L 455.798 17.635 L 454.842 17.749 L 453.564 17.902 L 452.604 18.016 L 451.64 18.13 L 450.675 18.245 L 449.384 18.397 L 448.414 18.511 L 447.441 18.625 L 446.466 18.739 L 445.162 18.89 L 444.181 19.004 L 443.198 19.117 L 442.213 19.23 L 441.225 19.344 L 439.904 19.494 L 438.91 19.607 L 437.915 19.72 L 436.916 19.833 L 435.915 19.945 L 434.912 20.058 L 433.57 20.208 L 432.561 20.32 L 431.549 20.432 L 430.535 20.543 L 429.518 20.655 L 428.498 20.767 L 427.476 20.878 L 426.451 20.989 L 425.423 21.1 L 424.393 21.211 L 423.36 21.322 L 422.325 21.433 L 421.286 21.543 L 420.245 21.653 L 419.202 21.763 L 418.155 21.873 L 417.106 21.983 L 416.054 22.092 L 414.999 22.202 L 413.941 22.311 L 412.88 22.42 L 411.817 22.529 L 410.75 22.637 L 409.681 22.746 L 408.609 22.854 L 407.534 22.962 L 406.455 23.07 L 405.374 23.177 L 404.29 23.285 L 403.203 23.392 L 402.113 23.499 L 401.02 23.605 L 400.29 23.676 L 399.192 23.783 L 398.09 23.889 L 396.986 23.995 L 395.878 24.1 L 394.768 24.206 L 394.026 24.276 L 392.91 24.381 L 391.791 24.486 L 390.669 24.59 L 389.543 24.695 L 388.791 24.764 L 387.661 24.868 L 386.527 24.971 L 385.39 25.075 L 384.249 25.178 L 383.487 25.246 L 382.341 25.349 L 381.192 25.452 L 380.039 25.554 L 379.269 25.622 L 378.11 25.723 L 376.949 25.825 L 376.172 25.892 L 375.005 25.993 L 373.834 26.094 L 373.052 26.161 L 371.876 26.261 L 370.696 26.361 L 369.907 26.427 L 368.722 26.527 L 367.532 26.626 L 366.738 26.692 L 365.542 26.79 L 364.344 26.889 L 363.543 26.954 L 362.338 27.052 L 361.533 27.117 L 360.322 27.214 L 359.108 27.311 L 358.297 27.375 L 357.076 27.472 L 356.261 27.536 L 355.034 27.632 L 354.215 27.696 L 352.982 27.791 L 351.746 27.886 L 350.92 27.949 L 349.677 28.044 L 348.847 28.106 L 347.598 28.2 L 346.763 28.263 L 345.508 28.356 L 344.669 28.418 L 343.408 28.511 L 342.565 28.572 L 341.297 28.664 L 340.45 28.726 L 339.175 28.817 L 338.324 28.878 L 337.043 28.969 L 336.187 29.029 L 335.329 29.09 L 334.039 29.18 L 333.177 29.24 L 331.88 29.329 L 331.014 29.389 L 329.71 29.478 L 328.839 29.537 L 327.966 29.595 L 326.654 29.683 L 325.776 29.742 L 324.897 29.8 L 323.575 29.887 L 322.691 29.945 L 321.363 30.031 L 320.474 30.089 L 319.584 30.146 L 318.246 30.232 L 317.351 30.288 L 316.454 30.345 L 315.106 30.43 L 314.205 30.486 L 313.302 30.542 L 311.944 30.625 L 311.036 30.681 L 310.127 30.736 L 308.759 30.819 L 307.844 30.874 L 306.928 30.928 L 306.01 30.983 L 304.629 31.064 L 303.706 31.118 L 302.782 31.172 L 301.855 31.226 L 300.461 31.306 L 299.529 31.359 L 298.596 31.412 L 297.66 31.465 L 296.254 31.543 L 295.313 31.596 L 294.371 31.648 L 293.427 31.7 L 292.006 31.777 L 291.057 31.828 L 290.106 31.88 L 289.153 31.931 L 288.198 31.981 L 286.761 32.057 L 285.801 32.108 L 284.839 32.158 L 283.874 32.207 L 282.908 32.257 L 281.94 32.307 L 280.484 32.38 L 279.51 32.429 L 278.535 32.478 L 277.557 32.527 L 276.578 32.575 L 275.596 32.623 L 274.613 32.671 L 273.133 32.742 L 272.144 32.79 L 271.154 32.837 L 270.161 32.884 L 269.166 32.93 L 268.169 32.977 L 267.169 33.023 L 266.168 33.069 L 265.165 33.115 L 264.159 33.161 L 262.647 33.229 L 261.636 33.274 L 260.623 33.318 L 259.608 33.363 L 258.591 33.407 L 257.571 33.452 L 256.55 33.496 L 255.526 33.539 L 254.5 33.583 L 253.472 33.626 L 252.442 33.669 L 251.41 33.712 L 250.375 33.754 L 249.339 33.797 L 248.3 33.839 L 247.259 33.881 L 246.216 33.922 L 245.17 33.964 L 244.122 34.005 L 243.073 34.046 L 242.021 34.087 L 240.966 34.127 L 239.91 34.167 L 238.851 34.207 L 237.79 34.247 L 236.727 34.287 L 235.662 34.326 L 234.594 34.365 L 233.524 34.404 L 232.452 34.442 L 231.377 34.48 L 230.301 34.519 L 229.222 34.556 L 228.141 34.594 L 227.057 34.631 L 225.971 34.668 L 225.428 34.687 L 224.338 34.723 L 223.247 34.76 L 222.153 34.796 L 221.057 34.832 L 219.959 34.868 L 218.858 34.903 L 217.755 34.938 L 216.649 34.973 L 215.542 35.008 L 214.987 35.025 L 213.876 35.06 L 212.762 35.094 L 211.646 35.128 L 210.528 35.161 L 209.408 35.194 L 208.285 35.227 L 207.159 35.26 L 206.596 35.276 L 205.467 35.309 L 204.336 35.341 L 203.202 35.373 L 202.066 35.404 L 200.928 35.436 L 199.787 35.467 L 199.216 35.482 L 198.071 35.513 L 196.924 35.543 L 195.775 35.573 L 194.624 35.603 L 194.047 35.618 L 192.892 35.648 L 191.734 35.677 L 190.574 35.706 L 189.411 35.734 L 188.829 35.749 L 187.663 35.777 L 186.494 35.805 L 185.323 35.833 L 184.15 35.86 L 183.562 35.874 L 182.385 35.901 L 181.205 35.927 L 180.023 35.954 L 178.838 35.98 L 178.245 35.993 L 177.057 36.019 L 175.866 36.044 L 174.673 36.07 L 174.075 36.082 L 172.878 36.107 L 171.678 36.131 L 170.476 36.156 L 169.874 36.168 L 168.668 36.191 L 167.46 36.215 L 166.855 36.227 L 165.642 36.25 L 164.428 36.273 L 163.21 36.295 L 162.601 36.306 L 161.38 36.328 L 160.156 36.35 L 159.543 36.361 L 158.316 36.382 L 157.086 36.403 L 155.853 36.424 L 155.236 36.435 L 153.999 36.455 L 152.76 36.475 L 152.14 36.485 L 150.897 36.505 L 149.651 36.524 L 149.027 36.533 L 147.778 36.552 L 146.526 36.571 L 145.899 36.58 L 144.643 36.598 L 143.385 36.616 L 142.754 36.625 L 141.492 36.642 L 140.227 36.659 L 139.593 36.668 L 138.324 36.685 L 137.052 36.701 L 136.416 36.709 L 135.14 36.725 L 133.862 36.74 L 133.221 36.748 L 131.939 36.763 L 131.297 36.771 L 130.011 36.785 L 128.722 36.8 L 128.076 36.807 L 126.783 36.821 L 125.488 36.834 L 124.839 36.841 L 123.539 36.854 L 122.888 36.861 L 121.585 36.873 L 120.278 36.886 L 119.624 36.892 L 118.313 36.904 L 117.657 36.91 L 116.343 36.921 L 115.025 36.932 L 114.366 36.938 L 113.044 36.948 L 112.383 36.953 L 111.057 36.964 L 109.729 36.974 L 109.064 36.978 L 107.732 36.988 L 107.064 36.992 L 105.728 37.001 L 105.059 37.006 L 103.718 37.014 L 103.047 37.018 L 101.702 37.026 L 100.355 37.034 L 99.68 37.037 L 98.328 37.045 L 97.652 37.048 L 96.296 37.055 L 95.617 37.058 L 94.257 37.064 L 93.576 37.067 L 92.212 37.073 L 91.528 37.076 L 90.16 37.081 L 88.789 37.086 L 88.102 37.088 L 86.727 37.092 L 86.038 37.094 L 84.658 37.098 L 83.968 37.1 L 82.584 37.104 L 81.891 37.105 L 80.502 37.108 L 79.807 37.109 L 78.415 37.112 L 77.718 37.113 L 76.321 37.115 L 75.622 37.116 L 74.221 37.117 L 73.519 37.118 L 72.114 37.118 L 71.41 37.119 L 70 37.119 L 69.295 37.119 L 67.881 37.119 L 67.173 37.119 L 65.754 37.118 L 65.044 37.118 L 64.333 37.117 L 62.909 37.116 L 62.196 37.115 L 60.768 37.114 L 60.052 37.113 L 58.62 37.11 L 57.902 37.109 L 56.465 37.106 L 55.746 37.105 L 54.304 37.101 L 53.582 37.099 L 52.136 37.096 L 51.412 37.093 L 50.687 37.091 L 49.236 37.087 L 48.509 37.084 L 47.053 37.079 L 46.323 37.077 L 44.863 37.071 L 44.131 37.068 L 43.399 37.065 L 41.933 37.059 L 41.198 37.055 L 39.727 37.049 L 38.991 37.045 L 37.515 37.038 L 36.776 37.034 L 36.037 37.03 L 34.555 37.022 L 33.813 37.018 L 32.327 37.009 L 31.583 37.005 L 30.838 37 L 29.347 36.991 L 28.599 36.986 L 27.103 36.976 L 26.354 36.971 L 25.604 36.966 L 24.101 36.956 L 23.349 36.95 L 21.842 36.939 L 21.087 36.933 L 20.332 36.928 L 18.818 36.916 L 18.061 36.91 L 16.543 36.898 L 15.783 36.891 L 15.022 36.885 L 13.499 36.872 L 12.736 36.865 L 11.972 36.858 L 10.442 36.844 L 9.676 36.837 L 8.141 36.823 L 7.373 36.816 L 6.604 36.808 L 5.063 36.793 L 4.292 36.786 L 3.519 36.778 L 1.973 36.762 L 1.198 36.754 L 0 154.572 L 0.775 154.61 L 2.322 154.652 L 3.094 154.69 L 3.866 154.728 L 5.408 154.769 L 6.178 154.806 L 6.947 154.844 L 8.483 154.884 L 9.25 154.921 L 10.783 154.96 L 11.548 154.997 L 12.313 155.033 L 13.84 155.072 L 14.602 155.108 L 15.364 155.144 L 16.886 155.181 L 17.65 155.217 L 18.918 155.251 L 19.922 155.289 L 20.679 155.324 L 22.192 155.36 L 22.951 155.394 L 24.211 155.427 L 25.209 155.464 L 25.966 155.498 L 27.221 155.53 L 28.22 155.566 L 29.471 155.597 L 30.465 155.632 L 31.217 155.665 L 32.463 155.696 L 33.458 155.731 L 34.7 155.761 L 35.688 155.795 L 36.436 155.827 L 37.673 155.856 L 38.663 155.89 L 39.903 155.918 L 40.642 155.949 L 42.12 155.98 L 42.852 156.01 L 43.837 156.043 L 45.068 156.07 L 45.803 156.1 L 47.272 156.129 L 48.006 156.158 L 49.471 156.186 L 50.202 156.215 L 50.933 156.244 L 52.393 156.271 L 53.122 156.3 L 54.578 156.326 L 55.305 156.354 L 56.758 156.38 L 57.488 156.408 L 58.688 156.43 L 59.66 156.46 L 60.857 156.482 L 61.826 156.511 L 63.027 156.533 L 63.739 156.559 L 64.705 156.588 L 65.894 156.608 L 66.858 156.636 L 68.043 156.656 L 69.005 156.684 L 70.195 156.703 L 70.908 156.728 L 72.333 156.749 L 73.044 156.774 L 74.466 156.794 L 75.175 156.818 L 76.593 156.837 L 77.306 156.861 L 78.472 156.878 L 79.426 156.903 L 80.589 156.919 L 81.54 156.944 L 82.699 156.959 L 83.649 156.984 L 84.813 156.999 L 85.514 157.021 L 86.913 157.037 L 87.612 157.059 L 89.014 157.074 L 90.159 157.087 L 91.102 157.11 L 92.244 157.122 L 93.185 157.144 L 94.324 157.156 L 95.263 157.178 L 96.408 157.189 L 97.098 157.209 L 98.477 157.221 L 99.165 157.24 L 100.548 157.252 L 101.672 157.261 L 102.606 157.281 L 103.727 157.29 L 104.659 157.309 L 105.777 157.317 L 106.706 157.337 L 107.821 157.344 L 108.748 157.363 L 109.87 157.37 L 111.226 157.378 L 111.911 157.394 L 113.015 157.4 L 113.939 157.417 L 115.052 157.422 L 116.399 157.428 L 117.071 157.444 L 118.415 157.449 L 119.085 157.464 L 120.434 157.469 L 121.522 157.471 L 122.439 157.487 L 123.524 157.489 L 124.439 157.505 L 125.534 157.506 L 126.862 157.508 L 127.526 157.522 L 128.859 157.523 L 129.933 157.523 L 130.842 157.537 L 131.912 157.536 L 132.82 157.549 L 133.9 157.548 L 135.214 157.548 L 135.87 157.559 L 137.189 157.558 L 138.247 157.555 L 139.15 157.566 L 140.22 157.563 L 141.521 157.56 L 142.172 157.57 L 143.481 157.567 L 144.527 157.561 L 145.424 157.572 L 146.483 157.566 L 147.759 157.561 L 148.652 157.57 L 149.706 157.563 L 150.991 157.557 L 151.633 157.565 L 152.926 157.558 L 153.955 157.55 L 154.844 157.557 L 155.887 157.549 L 157.173 157.54 L 158.194 157.53 L 159.08 157.537 L 160.115 157.527 L 161.381 157.517 L 162.014 157.522 L 163.277 157.511 L 164.55 157.5 L 165.557 157.487 L 166.437 157.492 L 167.46 157.479 L 168.713 157.466 L 169.339 157.47 L 170.602 157.456 L 171.617 157.442 L 172.844 157.427 L 173.717 157.43 L 174.727 157.414 L 175.981 157.399 L 176.967 157.382 L 177.837 157.384 L 178.84 157.367 L 180.073 157.35 L 181.318 157.332 L 182.293 157.314 L 183.16 157.314 L 184.153 157.295 L 185.391 157.276 L 186.38 157.256 L 187.578 157.236 L 188.44 157.234 L 189.424 157.214 L 190.653 157.193 L 191.633 157.171 L 192.821 157.149 L 193.678 157.146 L 194.654 157.123 L 195.874 157.1 L 196.845 157.076 L 198.045 157.052 L 198.645 157.048 L 199.842 157.023 L 201.053 156.997 L 202.015 156.972 L 203.206 156.945 L 204.412 156.919 L 205.343 156.892 L 206.191 156.885 L 207.145 156.858 L 208.326 156.829 L 209.523 156.8 L 210.47 156.772 L 211.664 156.742 L 212.607 156.713 L 213.752 156.682 L 214.594 156.673 L 215.533 156.642 L 216.699 156.61 L 217.882 156.578 L 218.815 156.546 L 219.994 156.513 L 220.923 156.48 L 222.079 156.446 L 223.254 156.411 L 224.147 156.377 L 224.962 156.365 L 226.132 156.329 L 227.049 156.294 L 228.195 156.257 L 229.359 156.22 L 230.271 156.184 L 231.411 156.145 L 232.569 156.107 L 233.476 156.069 L 234.61 156.03 L 235.763 155.99 L 236.663 155.951 L 237.792 155.91 L 238.94 155.868 L 239.834 155.829 L 240.957 155.786 L 242.1 155.743 L 242.989 155.702 L 244.105 155.658 L 245.243 155.614 L 246.127 155.572 L 247.238 155.526 L 248.37 155.481 L 249.248 155.437 L 250.353 155.39 L 251.481 155.343 L 252.353 155.299 L 253.452 155.25 L 254.575 155.202 L 255.441 155.156 L 256.535 155.106 L 257.653 155.056 L 258.514 155.009 L 259.602 154.958 L 260.689 154.907 L 261.81 154.855 L 262.99 154.779 L 264.071 154.726 L 265.176 154.672 L 266.023 154.622 L 267.098 154.567 L 268.171 154.513 L 269.269 154.457 L 270.109 154.405 L 271.176 154.349 L 272.281 154.292 L 273.435 154.21 L 274.496 154.152 L 275.555 154.094 L 276.642 154.035 L 277.468 153.98 L 278.522 153.92 L 279.593 153.86 L 280.98 153.77 L 281.798 153.713 L 282.844 153.651 L 283.888 153.588 L 284.961 153.525 L 285.793 153.467 L 287.132 153.373 L 288.168 153.308 L 289.235 153.244 L 290.038 153.183 L 291.09 153.117 L 292.415 153.02 L 293.475 152.953 L 294.27 152.89 L 295.316 152.822 L 296.629 152.723 L 297.648 152.654 L 298.7 152.584 L 299.508 152.519 L 300.811 152.417 L 301.822 152.346 L 302.832 152.274 L 303.889 152.201 L 304.96 152.102 L 305.964 152.029 L 306.966 151.955 L 308.017 151.881 L 309.077 151.779 L 310.073 151.704 L 311.092 151.628 L 312.364 151.518 L 313.355 151.441 L 314.397 151.363 L 315.44 151.258 L 316.424 151.179 L 317.433 151.1 L 318.688 150.987 L 319.706 150.906 L 320.48 150.832 L 321.726 150.717 L 322.726 150.634 L 323.967 150.518 L 324.936 150.434 L 325.962 150.35 L 326.974 150.239 L 327.938 150.154 L 328.928 150.068 L 330.152 149.947 L 331.138 149.861 L 332.357 149.738 L 333.372 149.651 L 334.365 149.535 L 335.315 149.445 L 336.293 149.356 L 337.498 149.23 L 338.472 149.139 L 339.671 149.012 L 340.676 148.92 L 341.65 148.8 L 342.617 148.707 L 343.805 148.577 L 344.769 148.483 L 345.951 148.352 L 346.912 148.256 L 348.089 148.123 L 349.045 148.026 L 350.265 147.893 L 350.988 147.803 L 352.185 147.668 L 353.348 147.532 L 354.297 147.432 L 355.454 147.294 L 356.399 147.193 L 357.551 147.054 L 358.493 146.951 L 359.672 146.811 L 360.816 146.67 L 361.792 146.565 L 362.71 146.432 L 363.644 146.327 L 364.811 146.183 L 365.941 146.038 L 366.869 145.93 L 368.029 145.784 L 369.15 145.636 L 370.074 145.527 L 371.225 145.378 L 372.338 145.229 L 373.257 145.118 L 374.401 144.967 L 375.506 144.815 L 376.419 144.701 L 377.556 144.548 L 378.653 144.394 L 379.561 144.279 L 380.691 144.123 L 381.817 143.967 L 382.903 143.81 L 383.805 143.692 L 384.924 143.533 L 386.086 143.374 L 386.981 143.225 L 388.053 143.064 L 388.947 142.943 L 390.054 142.781 L 391.159 142.617 L 392.261 142.453 L 393.269 142.288 L 394.377 142.151 L 395.471 141.985 L 396.563 141.817 L 397.652 141.649 L 398.739 141.48 L 399.781 141.311 L 400.658 141.181 L 401.738 141.01 L 402.815 140.838 L 403.89 140.665 L 404.962 140.491 L 406.032 140.317 L 407.1 140.141 L 408.165 139.965 L 409.228 139.788 L 410.288 139.61 L 411.346 139.431 L 412.401 139.252 L 413.454 139.071 L 414.505 138.89 L 415.553 138.708 L 416.554 138.525 L 417.807 138.327 L 418.848 138.142 L 419.887 137.957 L 420.923 137.77 L 421.957 137.583 L 422.989 137.395 L 424.018 137.206 L 425.046 137.016 L 426.071 136.826 L 427.046 136.634 L 428.275 136.426 L 429.293 136.233 L 430.309 136.039 L 431.322 135.844 L 432.334 135.648 L 433.371 135.451 L 434.579 135.209 L 435.534 135.011 L 436.744 134.795 L 437.744 134.594 L 438.741 134.393 L 439.766 134.191 L 440.956 133.943 L 441.947 133.739 L 442.885 133.534 L 444.079 133.311 L 445.092 133.104 L 446.268 132.852 L 447.248 132.643 L 448.175 132.434 L 449.386 132.205 L 450.551 131.948 L 451.522 131.736 L 452.491 131.523 L 453.445 131.309 L 454.795 131.029 L 455.758 130.813 L 456.749 130.596 L 457.895 130.332 L 458.798 130.113 L 459.987 129.874 L 461.125 129.607 L 462.075 129.385 L 463.01 129.162 L 464.334 128.872 L 465.278 128.647 L 466.251 128.421 L 467.32 128.148 L 468.491 127.9 L 469.609 127.624 L 470.574 127.394 L 471.632 127.116 L 472.763 126.864 L 473.722 126.631 L 474.827 126.35 L 475.738 126.115 L 477.029 125.811 L 477.981 125.573 L 479.021 125.288 L 480.169 125.027 L 481.26 124.74 L 482.158 124.498 L 483.433 124.187 L 484.374 123.943 L 485.4 123.651 L 486.535 123.383 L 487.644 123.088 L 488.663 122.793 L 489.792 122.521 L 490.862 122.223 L 491.744 121.972 L 492.996 121.649 L 493.921 121.395 L 494.969 121.092 L 496.214 120.765 L 497.133 120.508 L 498.175 120.202 L 499.413 119.871 L 500.281 119.61 L 501.546 119.276 L 502.594 118.965 L 503.457 118.701 L 504.715 118.363 L 505.702 118.048 L 506.796 117.756 L 507.821 117.439 L 509.038 117.095 L 509.937 116.823 L 510.957 116.502 L 512.167 116.154 L 513.015 115.879 L 514.253 115.528 L 515.266 115.202 L 516.468 114.848 L 517.31 114.568 L 518.539 114.211 L 519.546 113.879 L 520.77 113.519 L 521.733 113.184 L 522.796 112.87 L 523.797 112.533 L 525.013 112.167 L 526.011 111.826 L 527.192 111.457 L 528.021 111.163 L 529.228 110.79 L 530.221 110.444 L 531.425 110.068 L 532.415 109.719 L 533.585 109.34 L 534.407 109.037 L 535.56 108.655 L 536.754 108.27 L 537.739 107.913 L 538.929 107.525 L 539.912 107.164 L 541.07 106.773 L 541.884 106.458 L 543.026 106.064 L 544.207 105.666 L 545.185 105.297 L 546.322 104.897 L 547.498 104.493 L 548.474 104.119 L 549.646 103.712 L 550.621 103.333 L 551.715 102.923 L 552.722 102.559 L 553.695 102.175 L 554.821 101.758 L 555.984 101.338 L 556.955 100.947 L 558.077 100.523 L 559.198 100.097 L 560.354 99.668 L 561.324 99.268 L 562.441 98.835 L 563.593 98.398 L 564.562 97.991 L 565.676 97.55 L 566.789 97.106 L 567.935 96.658 L 568.873 96.241 L 569.817 95.838 L 570.926 95.382 L 572.034 94.924 L 573.174 94.461 L 574.142 94.029 L 575.248 93.56 L 576.353 93.088 L 577.457 92.613 L 578.59 92.133 L 579.559 91.683 L 580.661 91.196 L 581.763 90.705 L 582.864 90.209 L 583.964 89.709 L 585.063 89.205 L 586.162 88.695 L 587.287 88.181 L 588.26 87.695 L 589.333 87.17 L 590.252 86.688 L 591.349 86.15 L 592.445 85.607 L 593.541 85.056 L 594.633 84.498 L 594.618 83.73 L 594.602 82.96 L 594.587 82.189 L 594.572 81.416 L 594.557 80.641 L 594.543 79.865 L 594.528 79.088 L 594.514 78.309 L 594.5 77.528 L 594.486 76.746 L 594.472 75.962 L 594.458 75.177 L 594.445 74.39 L 594.431 73.602 L 594.418 72.812 L 594.405 72.021 L 594.392 71.228 L 594.379 70.434 L 594.367 69.638 L 594.354 68.84 L 594.335 67.583 L 590.651 68.286 L 590.534 59.961 L 594.236 60.56 L 597.937 61.166 L 597.832 52.591 L 594.147 53.287 L 590.461 53.977 L 590.37 45.15 L 594.07 45.763 L 597.768 46.383 L 597.691 37.304 L 594.004 37.987 L 590.315 38.662 L 590.253 29.331 L 593.95 29.957 L 597.646 30.59 L 597.606 22.771 L 593.917 23.441 L 590.226 24.105 L 590.191 14.294 L 593.886 14.932 L 593.885 14.57 L 593.883 13.671 L 593.881 12.771 L 593.879 11.869 L 593.877 10.965 L 593.875 10.06 L 593.873 9.153 L 593.872 8.245 L 593.871 7.335 L 593.869 6.424 L 593.868 5.511 L 593.868 4.596 L 593.867 3.68 L 593.866 2.763 L 593.866 1.843 L 593.866 0.922 L 593.866 0 Z" vector-effect="non-scaling-stroke"/><path d="M 258.514 155.009 L 258.519 154.002 L 258.525 152.992 L 258.53 151.977 L 258.536 150.958 L 258.542 149.936 L 258.548 148.909 L 258.555 147.878 L 258.561 146.843 L 258.567 145.804 L 258.574 144.76 L 258.581 143.713 L 258.588 142.662 L 258.595 141.606 L 258.602 140.547 L 258.609 139.483 L 258.616 138.415 L 258.624 137.343 L 258.631 136.267 L 258.639 135.186 L 258.647 134.102 L 258.655 133.013 L 258.663 131.92 L 258.671 130.823 L 258.68 129.722 L 258.688 128.616 L 258.697 127.507 L 258.705 126.393 L 258.714 125.275 L 258.723 124.153 L 258.732 123.026 L 258.741 121.895 L 258.75 120.76 L 258.76 119.621 L 258.769 118.478 L 258.779 117.33 L 258.788 116.178 L 258.798 115.021 L 258.808 113.861 L 258.818 112.696 L 258.828 111.527 L 258.839 110.353 L 258.849 109.176 L 258.859 107.994 L 258.87 106.807 L 258.881 105.617 L 258.891 104.422 L 258.902 103.222 L 258.913 102.019 L 258.924 100.811 L 258.935 99.599 L 258.947 98.382 L 258.958 97.161 L 258.969 95.936 L 258.981 94.706 L 258.993 93.472 L 259.004 92.234 L 259.016 90.991 L 259.028 89.744 L 259.04 88.492 L 259.052 87.236 L 259.065 85.976 L 259.077 84.711 L 259.089 83.442 L 259.102 82.169 L 259.114 80.891 L 259.127 79.609 L 259.14 78.322 L 259.153 77.031 L 259.166 75.736 L 259.179 74.436 L 259.192 73.131 L 259.205 71.822 L 259.219 70.509 L 259.232 69.192 L 259.245 67.869 L 259.259 66.543 L 259.273 65.212 L 259.286 63.876 L 259.3 62.537 L 259.314 61.192 L 259.328 59.843 L 259.342 58.49 L 259.356 57.132 L 259.37 55.77 L 259.385 54.403 L 259.399 53.032 L 259.413 51.656 L 259.428 50.276 L 259.443 48.892 L 259.457 47.502 L 259.472 46.109 L 259.487 44.711 L 259.502 43.308 L 259.517 41.901 L 259.532 40.489 L 259.547 39.073 L 259.562 37.652 L 259.577 36.227 L 259.592 34.797 L 259.608 33.363 M 0 154.572 L 0.009 153.598 L 0.018 152.62 L 0.028 151.639 L 0.037 150.653 L 0.047 149.664 L 0.056 148.67 L 0.066 147.673 L 0.075 146.672 L 0.085 145.666 L 0.095 144.657 L 0.105 143.644 L 0.114 142.627 L 0.124 141.605 L 0.134 140.58 L 0.144 139.551 L 0.154 138.517 L 0.165 137.48 L 0.175 136.438 L 0.185 135.393 L 0.195 134.343 L 0.206 133.289 L 0.216 132.232 L 0.227 131.17 L 0.237 130.104 L 0.248 129.034 L 0.259 127.96 L 0.269 126.882 L 0.28 125.799 L 0.291 124.713 L 0.302 123.622 L 0.313 122.528 L 0.324 121.429 L 0.335 120.326 L 0.346 119.219 L 0.357 118.108 L 0.368 116.992 L 0.38 115.873 L 0.391 114.749 L 0.403 113.621 L 0.414 112.489 L 0.425 111.353 L 0.437 110.212 L 0.449 109.068 L 0.46 107.919 L 0.472 106.766 L 0.484 105.609 L 0.496 104.447 L 0.508 103.282 L 0.52 102.112 L 0.532 100.938 L 0.544 99.759 L 0.556 98.577 L 0.568 97.39 L 0.58 96.199 L 0.593 95.004 L 0.605 93.804 L 0.617 92.6 L 0.63 91.392 L 0.642 90.18 L 0.655 88.963 L 0.667 87.742 L 0.68 86.517 L 0.693 85.288 L 0.705 84.054 L 0.718 82.816 L 0.731 81.574 L 0.744 80.327 L 0.757 79.076 L 0.77 77.821 L 0.783 76.561 L 0.796 75.298 L 0.809 74.029 L 0.823 72.757 L 0.836 71.48 L 0.849 70.199 L 0.862 68.913 L 0.876 67.624 L 0.889 66.329 L 0.903 65.031 L 0.916 63.728 L 0.93 62.421 L 0.944 61.109 L 0.957 59.794 L 0.971 58.473 L 0.985 57.149 L 0.999 55.82 L 1.013 54.486 L 1.027 53.149 L 1.041 51.807 L 1.055 50.46 L 1.069 49.109 L 1.083 47.754 L 1.097 46.394 L 1.112 45.03 L 1.126 43.662 L 1.14 42.289 L 1.155 40.912 L 1.169 39.53 L 1.183 38.144 L 1.198 36.754 M 519.546 113.879 L 519.53 112.964 L 519.515 112.046 L 519.5 111.126 L 519.485 110.204 L 519.47 109.278 L 519.456 108.351 L 519.442 107.42 L 519.428 106.487 L 519.414 105.552 L 519.401 104.614 L 519.388 103.673 L 519.375 102.73 L 519.362 101.785 L 519.35 100.836 L 519.338 99.886 L 519.326 98.932 L 519.314 97.976 L 519.302 97.018 L 519.291 96.056 L 519.28 95.093 L 519.269 94.126 L 519.259 93.157 L 519.248 92.186 L 519.238 91.212 L 519.228 90.235 L 519.219 89.256 L 519.209 88.274 L 519.2 87.289 L 519.191 86.302 L 519.183 85.313 L 519.174 84.32 L 519.166 83.325 L 519.158 82.328 L 519.15 81.328 L 519.142 80.325 L 519.135 79.32 L 519.128 78.312 L 519.121 77.301 L 519.114 76.288 L 519.108 75.272 L 519.102 74.254 L 519.096 73.233 L 519.09 72.209 L 519.084 71.182 L 519.079 70.154 L 519.074 69.122 L 519.069 68.088 L 519.064 67.051 L 519.06 66.011 L 519.056 64.969 L 519.052 63.924 L 519.048 62.877 L 519.044 61.827 L 519.041 60.774 L 519.038 59.719 L 519.035 58.661 L 519.032 57.6 L 519.03 56.537 L 519.028 55.471 L 519.026 54.402 L 519.024 53.331 L 519.022 52.257 L 519.021 51.181 L 519.02 50.102 L 519.019 49.02 L 519.018 47.935 L 519.017 46.848 L 519.017 45.758 L 519.017 44.666 L 519.017 43.57 L 519.017 42.472 L 519.018 41.372 L 519.019 40.269 L 519.019 39.163 L 519.021 38.054 L 519.022 36.943 L 519.023 35.829 L 519.025 34.712 L 519.027 33.593 L 519.029 32.471 L 519.032 31.347 L 519.034 30.219 L 519.037 29.089 L 519.04 27.957 L 519.043 26.821 L 519.047 25.683 L 519.05 24.542 L 519.054 23.399 L 519.058 22.253 L 519.062 21.104 L 519.066 19.953 L 519.071 18.798 L 519.076 17.641 L 519.081 16.482 L 519.086 15.32 L 519.091 14.155 L 519.097 12.987 L 519.103 11.816 L 519.109 10.643 L 519.115 9.467" id="blue" stroke="blue" style="stroke:blue" vector-effect="non-scaling-stroke"/><g id="captions"><text alignment-baseline="middle" text-anchor="middle" transform="rotate(0,295.785,92.183)" x="295.785" y="92.183">WIND, 2, 0</text></g></g></svg>