<svg width="3986.515" height="1954.118" viewBox="0 0 3986.515 1954.118" xmlns="http://www.w3.org/2000/svg"><g id="svgGroup" stroke-linecap="round" fill-rule="evenodd" font-size="9pt" stroke="#000" stroke-width="0.25mm" fill="none" style="stroke:#000;stroke-width:0.25mm;fill:none"><path d="M 1295.296 816.264 L 1295.321 811.231 L 1295.347 806.178 L 1295.373 801.104 L 1295.401 796.011 L 1295.429 790.897 L 1295.457 785.763 L 1295.486 780.608 L 1295.516 775.433 L 1295.547 770.238 L 1295.578 765.022 L 1295.609 759.786 L 1295.642 754.529 L 1295.675 749.251 L 1295.708 743.953 L 1295.743 738.635 L 1295.777 733.295 L 1295.813 727.935 L 1295.849 722.554 L 1295.886 717.153 L 1295.923 711.73 L 1295.961 706.287 L 1295.999 700.823 L 1296.038 695.338 L 1296.078 689.832 L 1296.118 684.305 L 1296.159 678.757 L 1296.2 673.187 L 1296.242 667.597 L 1296.285 661.986 L 1296.328 656.354 L 1296.372 650.7 L 1296.416 645.025 L 1296.461 639.329 L 1296.507 633.612 L 1296.552 627.873 L 1296.599 622.113 L 1296.646 616.332 L 1296.694 610.53 L 1296.742 604.706 L 1296.791 598.86 L 1296.84 592.994 L 1296.89 587.105 L 1296.94 581.195 L 1296.991 575.264 L 1297.042 569.311 L 1297.094 563.337 L 1297.146 557.341 L 1297.199 551.323 L 1297.253 545.284 L 1297.307 539.223 L 1297.361 533.14 L 1297.416 527.036 L 1297.471 520.909 L 1297.527 514.761 L 1297.584 508.592 L 1297.641 502.4 L 1297.698 496.187 L 1297.756 489.952 L 1297.814 483.695 L 1297.873 477.416 L 1297.932 471.115 L 1297.992 464.792 L 1298.052 458.447 L 1298.113 452.08 L 1298.174 445.691 L 1298.236 439.28 L 1298.298 432.847 L 1298.36 426.392 L 1298.423 419.915 L 1298.487 413.416 L 1298.551 406.895 L 1298.615 400.351 L 1298.68 393.786 L 1298.745 387.198 L 1298.81 380.588 L 1298.876 373.956 L 1298.943 367.301 L 1299.009 360.625 L 1299.077 353.926 L 1299.144 347.205 L 1299.212 340.461 L 1299.281 333.695 L 1299.349 326.907 L 1299.419 320.096 L 1299.488 313.263 L 1299.558 306.408 L 1299.629 299.53 L 1299.699 292.63 L 1299.771 285.707 L 1299.842 278.762 L 1299.914 271.794 L 1299.986 264.804 L 1300.059 257.792 L 1300.132 250.757 L 1300.205 243.699 L 1300.279 236.619 L 1300.353 229.516 L 1300.427 222.391 L 1300.502 215.243 L 1300.577 208.072 M 0 814.227 L 0.046 809.359 L 0.092 804.471 L 0.139 799.564 L 0.186 794.636 L 0.233 789.689 L 0.281 784.722 L 0.328 779.735 L 0.376 774.729 L 0.425 769.702 L 0.473 764.656 L 0.522 759.589 L 0.572 754.503 L 0.621 749.396 L 0.671 744.269 L 0.721 739.123 L 0.772 733.956 L 0.823 728.768 L 0.874 723.561 L 0.925 718.333 L 0.977 713.085 L 1.028 707.817 L 1.081 702.528 L 1.133 697.219 L 1.186 691.89 L 1.239 686.54 L 1.292 681.169 L 1.346 675.778 L 1.4 670.367 L 1.454 664.935 L 1.509 659.482 L 1.563 654.009 L 1.618 648.515 L 1.674 643 L 1.729 637.465 L 1.785 631.908 L 1.841 626.332 L 1.898 620.734 L 1.955 615.115 L 2.012 609.476 L 2.069 603.815 L 2.127 598.134 L 2.184 592.432 L 2.243 586.709 L 2.301 580.965 L 2.36 575.2 L 2.419 569.414 L 2.478 563.606 L 2.537 557.778 L 2.597 551.929 L 2.657 546.058 L 2.718 540.166 L 2.778 534.254 L 2.839 528.32 L 2.9 522.364 L 2.962 516.388 L 3.023 510.39 L 3.085 504.371 L 3.147 498.331 L 3.21 492.269 L 3.273 486.186 L 3.336 480.081 L 3.399 473.956 L 3.462 467.808 L 3.526 461.64 L 3.59 455.45 L 3.654 449.238 L 3.719 443.005 L 3.784 436.75 L 3.849 430.474 L 3.914 424.177 L 3.98 417.857 L 4.046 411.517 L 4.112 405.154 L 4.178 398.77 L 4.245 392.364 L 4.311 385.937 L 4.378 379.488 L 4.446 373.017 L 4.513 366.525 L 4.581 360.011 L 4.649 353.475 L 4.718 346.917 L 4.786 340.338 L 4.855 333.736 L 4.924 327.113 L 4.993 320.469 L 5.063 313.802 L 5.133 307.113 L 5.203 300.403 L 5.273 293.67 L 5.344 286.916 L 5.414 280.14 L 5.485 273.342 L 5.556 266.522 L 5.628 259.68 L 5.7 252.816 L 5.772 245.93 L 5.844 239.022 L 5.916 232.092 L 5.989 225.14 M 2589.257 613.582 L 2589.178 608.996 L 2589.1 604.397 L 2589.024 599.785 L 2588.949 595.16 L 2588.875 590.522 L 2588.803 585.871 L 2588.732 581.207 L 2588.661 576.531 L 2588.593 571.842 L 2588.525 567.139 L 2588.459 562.424 L 2588.393 557.696 L 2588.329 552.955 L 2588.267 548.2 L 2588.205 543.433 L 2588.145 538.653 L 2588.086 533.86 L 2588.028 529.054 L 2587.971 524.235 L 2587.916 519.403 L 2587.861 514.558 L 2587.808 509.699 L 2587.756 504.828 L 2587.706 499.944 L 2587.656 495.046 L 2587.608 490.136 L 2587.561 485.212 L 2587.515 480.275 L 2587.47 475.325 L 2587.426 470.362 L 2587.384 465.386 L 2587.343 460.397 L 2587.303 455.394 L 2587.264 450.379 L 2587.226 445.35 L 2587.189 440.308 L 2587.154 435.253 L 2587.12 430.185 L 2587.086 425.103 L 2587.054 420.008 L 2587.024 414.9 L 2586.994 409.779 L 2586.965 404.644 L 2586.938 399.497 L 2586.912 394.336 L 2586.887 389.161 L 2586.863 383.974 L 2586.84 378.773 L 2586.818 373.559 L 2586.797 368.331 L 2586.778 363.091 L 2586.759 357.837 L 2586.742 352.569 L 2586.726 347.289 L 2586.711 341.994 L 2586.697 336.687 L 2586.684 331.366 L 2586.672 326.032 L 2586.662 320.685 L 2586.652 315.324 L 2586.644 309.949 L 2586.636 304.562 L 2586.63 299.161 L 2586.625 293.746 L 2586.621 288.318 L 2586.618 282.877 L 2586.616 277.422 L 2586.615 271.954 L 2586.615 266.472 L 2586.616 260.977 L 2586.618 255.469 L 2586.622 249.947 L 2586.626 244.411 L 2586.631 238.862 L 2586.638 233.3 L 2586.646 227.724 L 2586.654 222.134 L 2586.664 216.531 L 2586.674 210.915 L 2586.686 205.285 L 2586.699 199.641 L 2586.713 193.984 L 2586.727 188.314 L 2586.743 182.63 L 2586.76 176.932 L 2586.778 171.221 L 2586.797 165.496 L 2586.817 159.757 L 2586.838 154.005 L 2586.859 148.24 L 2586.882 142.461 L 2586.906 136.668 L 2586.931 130.862 L 2586.957 125.042 L 2586.984 119.208 L 2587.012 113.361 L 2587.041 107.5 L 2587.07 101.626 L 2587.101 95.738 L 2587.133 89.836 M 2589.213 617.06 L 2589.403 622.047 L 2589.594 627.019 L 2589.787 631.975 L 2589.981 636.917 L 2590.175 641.843 L 2590.371 646.754 L 2590.569 651.65 L 2590.767 656.53 L 2590.967 661.396 L 2591.168 666.246 L 2591.37 671.081 L 2591.573 675.901 L 2591.778 680.706 L 2591.983 685.496 L 2592.19 690.271 L 2592.398 695.03 L 2592.608 699.775 L 2592.818 704.505 L 2593.03 709.219 L 2593.243 713.919 L 2593.457 718.604 L 2593.673 723.274 L 2593.89 727.928 L 2594.108 732.568 L 2594.327 737.194 L 2594.548 741.804 L 2594.769 746.399 L 2594.993 750.98 L 2595.217 755.546 L 2595.442 760.097 L 2595.669 764.633 L 2595.897 769.154 L 2596.127 773.661 L 2596.357 778.153 L 2596.589 782.631 L 2596.823 787.093 L 2597.057 791.541 L 2597.293 795.975 L 2597.53 800.394 L 2597.768 804.798 L 2598.008 809.188 L 2598.249 813.563 L 2598.491 817.924 L 2598.735 822.27 L 2598.98 826.602 L 2599.226 830.919 L 2599.474 835.222 L 2599.723 839.511 L 2599.973 843.785 L 2600.224 848.045 L 2600.477 852.291 L 2600.731 856.522 L 2600.987 860.739 L 2601.244 864.942 L 2601.502 869.13 L 2601.761 873.304 L 2602.022 877.465 L 2602.284 881.611 L 2602.548 885.743 L 2602.813 889.861 L 2603.079 893.965 L 2603.347 898.054 L 2603.615 902.13 L 2603.886 906.192 L 2604.157 910.24 L 2604.431 914.274 L 2604.705 918.294 L 2604.981 922.3 L 2605.258 926.293 L 2605.536 930.271 L 2605.816 934.236 L 2606.098 938.187 L 2606.38 942.125 L 2606.664 946.049 L 2606.95 949.959 L 2607.237 953.855 L 2607.525 957.738 L 2607.814 961.608 L 2608.105 965.463 L 2608.398 969.306 L 2608.692 973.135 L 2608.987 976.95 L 2609.284 980.753 L 2609.582 984.541 L 2609.881 988.317 L 2610.182 992.079 L 2610.484 995.828 L 2610.788 999.564 L 2611.093 1003.287 L 2611.4 1006.996 L 2611.707 1010.693 L 2612.017 1014.376 L 2612.328 1018.046 L 2612.64 1021.704 L 2612.954 1025.348 L 2613.269 1028.98 L 2613.585 1032.599 L 2613.903 1036.204 L 2614.223 1039.798 L 2614.544 1043.378 M 1299.599 903.577 L 1300.088 908.642 L 1300.576 913.686 L 1301.063 918.71 L 1301.549 923.712 L 1302.033 928.695 L 1302.515 933.657 L 1302.997 938.598 L 1303.476 943.52 L 1303.955 948.421 L 1304.432 953.301 L 1304.908 958.162 L 1305.383 963.002 L 1305.856 967.822 L 1306.328 972.622 L 1306.798 977.402 L 1307.268 982.162 L 1307.736 986.902 L 1308.203 991.622 L 1308.668 996.323 L 1309.132 1001.004 L 1309.595 1005.665 L 1310.057 1010.306 L 1310.517 1014.928 L 1310.977 1019.53 L 1311.435 1024.113 L 1311.892 1028.676 L 1312.347 1033.22 L 1312.802 1037.745 L 1313.255 1042.25 L 1313.707 1046.737 L 1314.158 1051.204 L 1314.608 1055.652 L 1315.056 1060.081 L 1315.504 1064.491 L 1315.95 1068.883 L 1316.396 1073.255 L 1316.84 1077.609 L 1317.283 1081.945 L 1317.725 1086.261 L 1318.166 1090.56 L 1318.606 1094.839 L 1319.044 1099.101 L 1319.482 1103.344 L 1319.919 1107.569 L 1320.355 1111.775 L 1320.789 1115.964 L 1321.223 1120.135 L 1321.656 1124.288 L 1322.087 1128.423 L 1322.518 1132.54 L 1322.948 1136.639 L 1323.377 1140.721 L 1323.805 1144.786 L 1324.232 1148.833 L 1324.658 1152.862 L 1325.083 1156.875 L 1325.507 1160.87 L 1325.93 1164.848 L 1326.353 1168.81 L 1326.774 1172.754 L 1327.195 1176.682 L 1327.615 1180.592 L 1328.034 1184.487 L 1328.453 1188.364 L 1328.87 1192.226 L 1329.287 1196.071 L 1329.703 1199.899 L 1330.118 1203.712 L 1330.533 1207.509 L 1330.946 1211.289 L 1331.36 1215.054 L 1331.772 1218.803 L 1332.183 1222.537 L 1332.594 1226.255 L 1333.005 1229.958 L 1333.414 1233.645 L 1333.823 1237.318 L 1334.232 1240.975 L 1334.639 1244.617 L 1335.047 1248.245 L 1335.453 1251.858 L 1335.859 1255.456 L 1336.265 1259.04 L 1336.67 1262.609 L 1337.074 1266.164 L 1337.478 1269.706 L 1337.881 1273.233 L 1338.284 1276.746 L 1338.687 1280.246 L 1339.088 1283.732 L 1339.49 1287.205 L 1339.891 1290.665 L 1340.292 1294.111 L 1340.692 1297.544 L 1341.092 1300.965 L 1341.492 1304.372 L 1341.891 1307.768 L 1342.29 1311.15 L 1342.689 1314.521 L 1343.087 1317.879 M 8.536 1048.955 L 9.084 1053.773 L 9.63 1058.571 L 10.174 1063.35 L 10.716 1068.11 L 11.256 1072.85 L 11.794 1077.571 L 12.33 1082.273 L 12.864 1086.955 L 13.395 1091.618 L 13.925 1096.263 L 14.453 1100.888 L 14.978 1105.494 L 15.502 1110.081 L 16.023 1114.65 L 16.543 1119.199 L 17.06 1123.73 L 17.576 1128.241 L 18.089 1132.735 L 18.6 1137.209 L 19.11 1141.665 L 19.617 1146.102 L 20.123 1150.521 L 20.626 1154.921 L 21.128 1159.303 L 21.627 1163.666 L 22.125 1168.011 L 22.621 1172.338 L 23.115 1176.647 L 23.607 1180.937 L 24.096 1185.21 L 24.584 1189.464 L 25.071 1193.701 L 25.555 1197.919 L 26.037 1202.12 L 26.518 1206.303 L 26.996 1210.468 L 27.473 1214.616 L 27.948 1218.746 L 28.421 1222.859 L 28.892 1226.954 L 29.361 1231.031 L 29.829 1235.091 L 30.294 1239.135 L 30.758 1243.16 L 31.22 1247.169 L 31.681 1251.161 L 32.139 1255.136 L 32.596 1259.093 L 33.051 1263.034 L 33.504 1266.959 L 33.955 1270.866 L 34.405 1274.757 L 34.853 1278.631 L 35.299 1282.489 L 35.744 1286.331 L 36.187 1290.156 L 36.628 1293.965 L 37.067 1297.758 L 37.505 1301.535 L 37.941 1305.296 L 38.376 1309.042 L 38.809 1312.771 L 39.24 1316.485 L 39.67 1320.183 L 40.098 1323.865 L 40.524 1327.532 L 40.949 1331.184 L 41.372 1334.821 L 41.794 1338.442 L 42.214 1342.048 L 42.632 1345.64 L 43.049 1349.216 L 43.465 1352.778 L 43.879 1356.325 L 44.292 1359.858 L 44.703 1363.376 L 45.112 1366.88 L 45.52 1370.369 L 45.927 1373.845 L 46.332 1377.306 L 46.736 1380.754 L 47.139 1384.188 L 47.54 1387.608 L 47.939 1391.014 L 48.337 1394.407 L 48.734 1397.787 L 49.13 1401.153 L 49.524 1404.507 L 49.917 1407.847 L 50.309 1411.175 L 50.699 1414.49 L 51.088 1417.792 L 51.476 1421.082 L 51.863 1424.359 L 52.248 1427.624 L 52.632 1430.877 L 53.015 1434.118 L 53.397 1437.348 L 53.778 1440.565 L 54.157 1443.771 M 67.574 1608.4 L 68.426 1612.164 L 69.274 1615.912 L 70.12 1619.644 L 70.962 1623.361 L 71.801 1627.062 L 72.638 1630.749 L 73.471 1634.421 L 74.301 1638.078 L 75.128 1641.721 L 75.952 1645.35 L 76.774 1648.966 L 77.593 1652.568 L 78.409 1656.158 L 79.223 1659.734 L 80.034 1663.298 L 80.842 1666.849 L 81.648 1670.388 L 82.452 1673.916 L 83.254 1677.433 L 84.053 1680.938 L 84.85 1684.432 L 85.645 1687.916 L 86.438 1691.389 L 87.229 1694.853 L 88.018 1698.307 L 88.805 1701.752 L 89.591 1705.187 L 90.375 1708.614 L 91.157 1712.033 L 91.937 1715.443 L 92.716 1718.846 L 93.494 1722.241 L 94.27 1725.629 L 95.045 1729.011 L 95.819 1732.385 L 96.592 1735.754 L 97.364 1739.117 L 98.134 1742.475 L 98.904 1745.827 L 99.673 1749.175 L 100.441 1752.518 L 101.208 1755.857 L 101.975 1759.192 L 102.742 1762.524 L 103.507 1765.853 L 104.273 1769.179 L 105.038 1772.502 L 105.803 1775.824 L 106.567 1779.144 L 107.332 1782.462 L 108.096 1785.78 L 108.861 1789.096 L 109.626 1792.413 L 110.391 1795.729 L 111.156 1799.046 L 111.921 1802.364 L 112.687 1805.682 L 113.454 1809.002 L 114.221 1812.324 L 114.989 1815.648 L 115.757 1818.974 L 116.527 1822.303 L 117.297 1825.636 L 118.068 1828.971 L 118.84 1832.311 L 119.613 1835.655 L 120.388 1839.003 L 121.164 1842.356 L 121.941 1845.714 L 122.719 1849.078 L 123.499 1852.447 L 124.281 1855.823 L 125.064 1859.205 L 125.848 1862.594 L 126.635 1865.99 L 127.423 1869.394 L 128.214 1872.805 L 129.006 1876.225 L 129.8 1879.652 L 130.597 1883.089 L 131.395 1886.535 L 132.196 1889.99 L 132.999 1893.455 L 133.805 1896.929 L 134.613 1900.414 L 135.423 1903.91 L 136.236 1907.416 L 137.052 1910.934 L 137.87 1914.463 L 138.691 1918.004 L 139.515 1921.556 L 140.342 1925.121 L 141.172 1928.699 L 142.004 1932.29 L 142.84 1935.893 L 143.679 1939.51 L 144.521 1943.141 L 145.367 1946.786 L 146.215 1950.445 L 147.067 1954.118 M 2615.845 1039.103 L 2616.173 1042.728 L 2616.503 1046.34 L 2616.835 1049.939 L 2617.168 1053.525 L 2617.503 1057.098 L 2617.839 1060.658 L 2618.177 1064.206 L 2618.516 1067.74 L 2618.856 1071.262 L 2619.199 1074.771 L 2619.542 1078.268 L 2619.887 1081.752 L 2620.234 1085.223 L 2620.582 1088.682 L 2620.932 1092.128 L 2621.283 1095.562 L 2621.636 1098.984 L 2621.99 1102.393 L 2622.346 1105.79 L 2622.703 1109.175 L 2623.062 1112.548 L 2623.423 1115.909 L 2623.785 1119.258 L 2624.148 1122.594 L 2624.513 1125.919 L 2624.88 1129.232 L 2625.248 1132.533 L 2625.617 1135.823 L 2625.989 1139.1 L 2626.361 1142.366 L 2626.736 1145.621 L 2627.111 1148.864 L 2627.489 1152.096 L 2627.868 1155.316 L 2628.248 1158.525 L 2628.63 1161.723 L 2629.014 1164.909 L 2629.399 1168.084 L 2629.786 1171.249 L 2630.174 1174.402 L 2630.564 1177.544 L 2630.955 1180.676 L 2631.348 1183.797 L 2631.743 1186.907 L 2632.139 1190.006 L 2632.536 1193.095 L 2632.936 1196.173 L 2633.336 1199.241 L 2633.739 1202.298 L 2634.143 1205.345 L 2634.548 1208.382 L 2634.955 1211.409 L 2635.364 1214.426 L 2635.774 1217.433 L 2636.186 1220.429 L 2636.6 1223.416 L 2637.015 1226.394 L 2637.432 1229.361 L 2637.85 1232.319 L 2638.27 1235.267 L 2638.691 1238.206 L 2639.114 1241.136 L 2639.539 1244.056 L 2639.965 1246.967 L 2640.393 1249.869 L 2640.822 1252.762 L 2641.254 1255.646 L 2641.686 1258.522 L 2642.121 1261.388 L 2642.556 1264.246 L 2642.994 1267.095 L 2643.433 1269.936 L 2643.874 1272.768 L 2644.316 1275.592 L 2644.76 1278.408 L 2645.206 1281.215 L 2645.653 1284.015 L 2646.102 1286.807 L 2646.552 1289.591 L 2647.004 1292.367 L 2647.458 1295.135 L 2647.913 1297.896 L 2648.37 1300.65 L 2648.829 1303.396 L 2649.289 1306.135 L 2649.751 1308.866 L 2650.214 1311.591 L 2650.68 1314.309 L 2651.146 1317.02 L 2651.615 1319.724 L 2652.085 1322.421 L 2652.557 1325.112 L 2653.03 1327.797 L 2653.505 1330.475 L 2653.982 1333.148 L 2654.46 1335.814 L 2654.94 1338.474 L 2655.422 1341.128 L 2655.905 1343.776 L 2656.39 1346.419 M 1343.474 1362.731 L 1344.119 1366.001 L 1344.763 1369.259 L 1345.405 1372.506 L 1346.047 1375.741 L 1346.687 1378.965 L 1347.327 1382.179 L 1347.965 1385.382 L 1348.602 1388.574 L 1349.239 1391.755 L 1349.875 1394.926 L 1350.509 1398.087 L 1351.143 1401.238 L 1351.776 1404.379 L 1352.409 1407.511 L 1353.04 1410.632 L 1353.671 1413.745 L 1354.301 1416.848 L 1354.93 1419.943 L 1355.559 1423.028 L 1356.188 1426.105 L 1356.815 1429.173 L 1357.442 1432.233 L 1358.069 1435.284 L 1358.695 1438.328 L 1359.321 1441.364 L 1359.946 1444.392 L 1360.571 1447.413 L 1361.196 1450.426 L 1361.82 1453.432 L 1362.444 1456.432 L 1363.068 1459.425 L 1363.691 1462.411 L 1364.315 1465.391 L 1364.938 1468.364 L 1365.561 1471.332 L 1366.184 1474.294 L 1366.807 1477.25 L 1367.43 1480.201 L 1368.054 1483.147 L 1368.677 1486.088 L 1369.3 1489.024 L 1369.924 1491.955 L 1370.547 1494.882 L 1371.171 1497.805 L 1371.795 1500.723 L 1372.42 1503.638 L 1373.045 1506.549 L 1373.67 1509.457 L 1374.295 1512.362 L 1374.921 1515.264 L 1375.548 1518.163 L 1376.175 1521.059 L 1376.802 1523.953 L 1377.43 1526.845 L 1378.059 1529.734 L 1378.688 1532.622 L 1379.318 1535.509 L 1379.949 1538.394 L 1380.581 1541.278 L 1381.213 1544.161 L 1381.847 1547.043 L 1382.481 1549.925 L 1383.116 1552.806 L 1383.752 1555.688 L 1384.389 1558.569 L 1385.027 1561.451 L 1385.666 1564.333 L 1386.306 1567.216 L 1386.947 1570.1 L 1387.59 1572.985 L 1388.234 1575.872 L 1388.879 1578.76 L 1389.525 1581.65 L 1390.173 1584.541 L 1390.822 1587.435 L 1391.472 1590.332 L 1392.124 1593.231 L 1392.777 1596.132 L 1393.432 1599.037 L 1394.088 1601.945 L 1394.746 1604.856 L 1395.406 1607.771 L 1396.067 1610.69 L 1396.73 1613.613 L 1397.394 1616.54 L 1398.061 1619.471 L 1398.729 1622.407 L 1399.399 1625.347 L 1400.071 1628.293 L 1400.744 1631.244 L 1401.42 1634.2 L 1402.098 1637.162 L 1402.777 1640.13 L 1403.459 1643.103 L 1404.143 1646.083 L 1404.828 1649.069 L 1405.516 1652.061 L 1406.206 1655.061 L 1406.899 1658.067 L 1407.593 1661.08" id="blue" stroke="blue" style="stroke:blue" vector-effect="non-scaling-stroke"/><path d="M 3986.468 3.637 L 3973.811 3.299 L 3961.229 2.978 L 3946.644 2.625 L 3934.222 2.34 L 3919.823 2.03 L 3905.522 1.742 L 3891.319 1.477 L 3879.222 1.268 L 3865.197 1.044 L 3851.267 0.843 L 3837.431 0.663 L 3823.688 0.505 L 3810.036 0.369 L 3796.475 0.255 L 3781.086 0.15 L 3767.717 0.081 L 3754.434 0.033 L 3741.239 0.006 L 3726.263 0 L 3713.25 0.017 L 3698.48 0.061 L 3685.645 0.122 L 3671.075 0.216 L 3658.413 0.319 L 3644.039 0.461 L 3629.767 0.629 L 3617.362 0.796 L 3603.278 1.011 L 3589.291 1.251 L 3575.401 1.515 L 3561.605 1.804 L 3547.903 2.118 L 3534.293 2.455 L 3520.773 2.816 L 3507.342 3.2 L 3492.337 3.662 L 3479.09 4.097 L 3465.928 4.554 L 3451.219 5.096 L 3438.23 5.601 L 3423.713 6.196 L 3410.892 6.749 L 3396.56 7.396 L 3383.9 7.993 L 3369.744 8.691 L 3355.68 9.416 L 3341.703 10.166 L 3327.813 10.942 L 3315.538 11.654 L 3301.805 12.478 L 3288.152 13.327 L 3273.074 14.299 L 3259.584 15.199 L 3246.167 16.124 L 3232.822 17.071 L 3219.545 18.043 L 3204.873 19.148 L 3191.735 20.167 L 3178.661 21.208 L 3164.204 22.391 L 3151.254 23.478 L 3136.93 24.71 L 3124.095 25.841 L 3109.894 27.122 L 3097.165 28.296 L 3083.076 29.623 L 3069.041 30.974 L 3056.454 32.211 L 3042.514 33.606 L 3028.62 35.024 L 3016.153 36.319 L 3002.337 37.778 L 2988.559 39.259 L 2974.815 40.76 L 2961.102 42.282 L 2947.417 43.825 L 2935.122 45.23 L 2921.481 46.808 L 2907.86 48.406 L 2894.254 50.021 L 2880.662 51.653 L 2867.08 53.303 L 2853.504 54.968 L 2841.289 56.481 L 2827.718 58.177 L 2814.145 59.887 L 2800.566 61.613 L 2786.98 63.352 L 2773.382 65.104 L 2759.769 66.87 L 2747.503 68.47 L 2733.855 70.259 L 2720.183 72.059 L 2706.485 73.871 L 2694.131 75.511 L 2680.374 77.342 L 2666.581 79.183 L 2654.135 80.848 L 2640.266 82.706 L 2627.746 84.385 L 2613.791 86.258 L 2601.187 87.95 L 2587.133 89.836 L 2574.436 91.539 L 2561.691 93.247 L 2547.471 95.149 L 2534.618 96.866 L 2521.71 98.586 L 2508.744 100.309 L 2495.72 102.035 L 2481.175 103.956 L 2468.017 105.686 L 2454.793 107.419 L 2442.98 108.96 L 2429.625 110.694 L 2416.196 112.429 L 2402.691 114.164 L 2389.11 115.899 L 2376.97 117.441 L 2363.236 119.175 L 2349.418 120.908 L 2337.062 122.446 L 2323.079 124.176 L 2310.574 125.711 L 2297.996 127.244 L 2283.756 128.966 L 2271.017 130.494 L 2258.2 132.019 L 2245.304 133.541 L 2232.327 135.059 L 2219.267 136.574 L 2206.122 138.085 L 2192.892 139.591 L 2179.575 141.094 L 2166.168 142.591 L 2152.671 144.084 L 2139.082 145.571 L 2127.115 146.868 L 2113.35 148.345 L 2101.225 149.633 L 2087.277 151.099 L 2074.991 152.376 L 2060.856 153.829 L 2048.403 155.095 L 2034.074 156.535 L 2021.45 157.79 L 2008.744 159.038 L 1995.956 160.28 L 1983.084 161.517 L 1970.127 162.746 L 1957.085 163.97 L 1943.956 165.187 L 1930.739 166.397 L 1917.433 167.6 L 1904.037 168.795 L 1890.55 169.984 L 1876.972 171.165 L 1865.259 172.171 L 1851.507 173.337 L 1837.66 174.496 L 1825.715 175.482 L 1811.689 176.626 L 1799.589 177.599 L 1785.381 178.726 L 1773.123 179.686 L 1758.729 180.797 L 1746.31 181.742 L 1733.816 182.68 L 1721.246 183.612 L 1706.484 184.69 L 1693.747 185.606 L 1680.932 186.515 L 1668.039 187.416 L 1655.066 188.311 L 1642.014 189.198 L 1628.881 190.077 L 1615.666 190.948 L 1602.37 191.812 L 1588.992 192.667 L 1575.53 193.515 L 1564.248 194.215 L 1550.632 195.048 L 1536.931 195.872 L 1523.145 196.688 L 1511.591 197.362 L 1497.646 198.162 L 1483.614 198.954 L 1471.853 199.606 L 1457.659 200.382 L 1445.762 201.021 L 1431.404 201.78 L 1419.37 202.405 L 1407.273 203.024 L 1392.672 203.758 L 1380.435 204.362 L 1365.665 205.079 L 1353.286 205.669 L 1340.841 206.252 L 1328.331 206.828 L 1313.232 207.511 L 1300.577 208.072 L 1287.855 208.626 L 1275.066 209.173 L 1262.209 209.713 L 1249.285 210.246 L 1236.293 210.772 L 1223.232 211.29 L 1210.102 211.801 L 1196.903 212.305 L 1183.634 212.801 L 1170.295 213.29 L 1156.886 213.771 L 1143.406 214.244 L 1129.855 214.71 L 1118.963 215.077 L 1105.283 215.529 L 1091.531 215.973 L 1077.707 216.409 L 1066.595 216.752 L 1052.639 217.174 L 1038.61 217.587 L 1027.333 217.913 L 1013.17 218.312 L 998.933 218.702 L 987.489 219.009 L 973.117 219.385 L 961.565 219.68 L 947.056 220.041 L 935.394 220.323 L 920.748 220.669 L 908.976 220.939 L 894.191 221.269 L 882.307 221.527 L 870.373 221.779 L 855.386 222.086 L 843.339 222.326 L 831.243 222.56 L 816.05 222.844 L 803.839 223.065 L 791.577 223.28 L 779.264 223.49 L 763.799 223.744 L 751.37 223.94 L 738.889 224.13 L 726.355 224.315 L 713.77 224.493 L 697.964 224.708 L 685.26 224.873 L 672.504 225.032 L 659.694 225.185 L 646.831 225.332 L 633.915 225.473 L 620.945 225.608 L 607.921 225.736 L 594.844 225.858 L 581.712 225.974 L 568.526 226.084 L 555.285 226.187 L 541.989 226.285 L 528.639 226.375 L 515.233 226.46 L 501.773 226.538 L 491.641 226.592 L 478.083 226.659 L 464.469 226.719 L 450.799 226.773 L 437.073 226.82 L 423.291 226.861 L 412.917 226.887 L 399.035 226.916 L 385.097 226.938 L 371.101 226.954 L 360.567 226.962 L 346.471 226.966 L 332.318 226.963 L 321.665 226.956 L 307.41 226.942 L 293.097 226.92 L 282.324 226.9 L 267.91 226.866 L 253.436 226.826 L 242.542 226.791 L 227.965 226.739 L 216.994 226.695 L 202.314 226.63 L 187.574 226.558 L 176.48 226.5 L 161.636 226.416 L 150.463 226.348 L 135.514 226.252 L 124.262 226.175 L 109.207 226.066 L 97.876 225.979 L 82.714 225.857 L 71.303 225.761 L 59.858 225.661 L 44.544 225.521 L 33.018 225.412 L 17.596 225.259 L 5.989 225.14 L 0 814.227 L 11.608 814.715 L 27.039 815.213 L 38.577 815.686 L 53.915 816.168 L 65.383 816.628 L 76.822 817.082 L 92.027 817.539 L 103.397 817.98 L 118.51 818.421 L 129.811 818.847 L 144.833 819.272 L 156.074 819.685 L 169.792 820.08 L 182.17 820.491 L 195.811 820.871 L 210.602 821.252 L 221.661 821.63 L 236.362 821.995 L 247.354 822.359 L 261.978 822.708 L 275.332 823.034 L 287.426 823.389 L 300.709 823.699 L 315.12 824.012 L 327.105 824.343 L 340.255 824.629 L 354.541 824.915 L 365.223 825.214 L 379.436 825.484 L 392.406 825.733 L 406.492 825.984 L 418.229 826.262 L 431.069 826.487 L 445.052 826.711 L 457.797 826.915 L 471.669 827.12 L 485.492 827.316 L 495.828 827.54 L 509.567 827.718 L 523.275 827.886 L 535.754 828.037 L 549.351 828.186 L 562.919 828.326 L 575.261 828.448 L 588.718 828.569 L 602.128 828.68 L 615.51 828.781 L 627.671 828.866 L 640.942 828.948 L 654.167 829.019 L 667.366 829.081 L 679.35 829.129 L 692.456 829.171 L 707.61 829.135 L 720.62 829.156 L 732.417 829.164 L 745.315 829.166 L 758.188 829.157 L 773.055 829.063 L 785.808 829.033 L 798.542 828.993 L 810.094 828.942 L 824.734 828.799 L 837.301 828.728 L 849.847 828.647 L 864.316 828.469 L 876.741 828.366 L 889.148 828.252 L 903.446 828.038 L 915.758 827.902 L 929.94 827.663 L 942.157 827.505 L 956.224 827.241 L 968.38 827.061 L 981.222 826.775 L 993.257 826.574 L 1007.098 826.259 L 1021.978 825.927 L 1033.868 825.69 L 1047.566 825.337 L 1061.169 824.97 L 1072.919 824.699 L 1086.447 824.307 L 1099.916 823.901 L 1113.288 823.481 L 1124.852 823.162 L 1138.154 822.717 L 1151.398 822.258 L 1164.544 821.785 L 1178.752 821.288 L 1191.82 820.787 L 1204.831 820.272 L 1217.784 819.744 L 1230.681 819.201 L 1243.477 818.644 L 1257.332 818.06 L 1270.058 817.476 L 1282.728 816.877 L 1295.296 816.264 L 1308.955 815.62 L 1323.106 814.843 L 1335.545 814.186 L 1347.878 813.514 L 1361.306 812.809 L 1375.188 811.967 L 1387.394 811.251 L 1402.186 810.355 L 1414.225 809.607 L 1427.36 808.823 L 1440.906 807.898 L 1452.827 807.106 L 1467.277 806.123 L 1479.084 805.299 L 1493.446 804.28 L 1506.591 803.269 L 1519.319 802.37 L 1532.45 801.325 L 1545.451 800.262 L 1559.348 799.151 L 1571.846 798.184 L 1584.65 797.069 L 1598.47 795.902 L 1611.138 794.75 L 1624.822 793.546 L 1637.357 792.357 L 1650.836 791.114 L 1664.318 789.852 L 1676.654 788.607 L 1689.931 787.306 L 1703.264 785.985 L 1716.771 784.507 L 1729.84 783.145 L 1742.922 781.764 L 1754.925 780.406 L 1769.12 778.801 L 1781.983 777.358 L 1796.021 775.709 L 1808.827 774.224 L 1821.735 772.578 L 1834.334 771.052 L 1848.135 769.313 L 1861.79 767.551 L 1874.19 765.96 L 1887.766 764.152 L 1901.266 762.32 L 1914.69 760.465 L 1928.128 758.586 L 1940.448 756.742 L 1953.652 754.816 L 1966.695 752.866 L 1980.695 750.83 L 1993.678 748.831 L 2006.591 746.807 L 2019.432 744.759 L 2032.27 742.686 L 2046.12 740.379 L 2058.815 738.255 L 2072.505 735.894 L 2084.97 733.72 L 2099.415 731.232 L 2111.83 729.005 L 2125.209 726.536 L 2137.396 724.257 L 2151.597 721.654 L 2164.821 719.101 L 2177.872 716.52 L 2191.837 713.827 L 2204.736 711.188 L 2218.546 708.434 L 2231.399 705.736 L 2244.079 703.01 L 2257.667 700.164 L 2270.207 697.379 L 2283.715 694.47 L 2297.138 691.394 L 2310.328 688.421 L 2323.62 685.415 L 2336.82 682.242 L 2349.874 679.171 L 2363.942 675.83 L 2376.925 672.558 L 2389.772 669.385 L 2403.52 665.939 L 2417.297 662.456 L 2430.087 659.048 L 2443.546 655.494 L 2456.065 652.143 L 2469.469 648.515 L 2482.872 644.847 L 2497.094 640.899 L 2510.3 637.153 L 2523.444 633.368 L 2536.527 629.543 L 2549.617 625.677 L 2563.518 621.524 L 2576.427 617.574 L 2589.257 613.582 L 2603.721 609.168 L 2616.528 605.085 L 2630.147 600.71 L 2642.768 596.535 L 2657 591.927 L 2669.525 587.655 L 2683.708 582.942 L 2697.088 578.317 L 2709.484 573.888 L 2723.441 569.009 L 2737.429 564.069 L 2750.569 559.217 L 2763.554 554.401 L 2776.691 549.421 L 2790.444 544.221 L 2804.161 538.947 L 2817.843 533.597 L 2831.561 528.163 L 2844.52 522.805 L 2857.185 517.445 L 2870.759 511.738 L 2884.31 505.925 L 2897.785 499.998 L 2911.866 493.78 L 2925.359 487.588 L 2938.798 481.243 L 2951.252 474.971 L 2965.156 468.088 L 2964.738 468.102 L 2950.852 475.019 L 2938.473 481.321 L 2925.358 487.67 L 2911.842 493.888 L 2897.298 500.193 L 2884.269 506.143 L 2870.702 512.006 L 2857.114 517.773 L 2844.061 523.239 L 2832.049 528.592 L 2817.734 534.137 L 2804.046 539.585 L 2790.326 544.967 L 2776.572 550.286 L 2764.044 555.319 L 2750.01 560.348 L 2737.934 565.25 L 2723.302 570.387 L 2709.354 575.444 L 2697.171 580.017 L 2684.25 584.766 L 2669.4 589.731 L 2657.1 594.182 L 2642.672 599.045 L 2630.283 603.422 L 2617.155 607.981 L 2603.873 612.331 L 2589.213 617.06 L 2576.629 621.305 L 2563.743 625.534 L 2550.36 629.938 L 2536.784 634.142 L 2523.728 638.288 L 2510.614 642.409 L 2497.438 646.504 L 2483.756 650.777 L 2469.861 654.859 L 2456.492 658.885 L 2443.442 662.691 L 2430.602 666.632 L 2418.743 670.344 L 2404.085 674.347 L 2390.377 678.268 L 2377 681.974 L 2365.546 685.566 L 2350.596 689.496 L 2337.013 693.149 L 2325.347 696.686 L 2310.602 700.373 L 2297.472 703.931 L 2285.587 707.418 L 2270.629 711.058 L 2259.034 714.319 L 2244.607 717.885 L 2232.871 721.116 L 2220.059 724.403 L 2205.417 727.928 L 2193.458 731.118 L 2178.667 734.617 L 2166.554 737.781 L 2153.374 741.005 L 2138.359 744.467 L 2126.457 747.406 L 2113.78 750.541 L 2100.774 753.529 L 2086.177 756.892 L 2073.996 759.785 L 2061 762.877 L 2047.726 765.823 L 2034.564 768.895 L 2021.156 771.822 L 2008.378 774.684 L 1995.529 777.537 L 1982.61 780.38 L 1967.885 783.459 L 1955.712 786.212 L 1942.573 789.028 L 1931.309 791.574 L 1916.927 794.464 L 1903.569 797.256 L 1890.136 800.04 L 1876.626 802.817 L 1863.642 805.397 L 1850.709 808.096 L 1836.975 810.85 L 1823.804 813.406 L 1812.534 815.829 L 1798.224 818.459 L 1784.885 821.125 L 1771.471 823.652 L 1757.968 826.305 L 1746.29 828.566 L 1732.402 831.098 L 1719.406 833.538 L 1707.441 835.918 L 1692.705 838.491 L 1679.502 840.912 L 1668.067 843.08 L 1653.822 845.574 L 1640.417 847.978 L 1628.764 850.132 L 1614.337 852.607 L 1602.534 854.751 L 1587.989 857.216 L 1576.032 859.351 L 1562.21 861.608 L 1548.999 863.911 L 1536.831 866.035 L 1523.752 868.233 L 1509.75 870.465 L 1498.002 872.515 L 1482.973 874.937 L 1471.351 876.841 L 1456.852 879.19 L 1445.113 881.086 L 1432.213 883.193 L 1417.895 885.385 L 1406.584 887.209 L 1391.749 889.537 L 1379.719 891.413 L 1366.455 893.505 L 1351.904 895.67 L 1340.267 897.478 L 1327.886 899.35 L 1314.328 901.432 L 1299.599 903.577 L 1287.697 905.373 L 1275.085 907.232 L 1262.416 909.087 L 1248.042 911.157 L 1235.891 912.942 L 1223.051 914.788 L 1210.154 916.63 L 1197.2 918.47 L 1184.189 920.306 L 1169.501 922.353 L 1156.958 924.123 L 1143.77 925.951 L 1130.524 927.777 L 1118.482 929.381 L 1105.693 931.142 L 1092.28 932.959 L 1078.806 934.773 L 1066.606 936.363 L 1053.556 938.116 L 1039.912 939.923 L 1027.591 941.502 L 1012.78 943.453 L 999.469 945.2 L 987.009 946.769 L 975.286 948.294 L 962.122 949.924 L 948.557 951.664 L 935.947 953.22 L 922.256 954.957 L 909.562 956.507 L 895.744 958.241 L 882.966 959.784 L 870.586 961.277 L 856.586 963.007 L 843.678 964.542 L 831.157 966.028 L 816.972 967.754 L 805.558 969.076 L 792.38 970.612 L 779.672 972.089 L 765.234 973.811 L 752.036 975.327 L 739.183 976.798 L 727.882 978.068 L 714.46 979.587 L 699.708 981.304 L 686.303 982.807 L 674.778 984.073 L 661.204 985.582 L 648.022 987.04 L 634.792 988.496 L 623.068 989.757 L 609.33 991.256 L 595.962 992.707 L 582.546 994.156 L 570.618 995.414 L 556.716 996.904 L 543.159 998.348 L 531.071 999.604 L 517.05 1001.087 L 503.351 1002.526 L 493.031 1003.522 L 479.252 1004.958 L 465.419 1006.393 L 453.034 1007.643 L 438.765 1009.114 L 426.263 1010.363 L 413.955 1011.564 L 400.197 1012.957 L 387.558 1014.204 L 373.086 1015.665 L 362.418 1016.643 L 348.172 1018.065 L 335.324 1019.31 L 322.832 1020.491 L 308.717 1021.879 L 295.727 1023.121 L 283.141 1024.295 L 270.324 1025.506 L 255.48 1026.951 L 244.5 1027.915 L 229.837 1029.327 L 218.789 1030.288 L 204.036 1031.698 L 190.642 1032.935 L 177.854 1034.088 L 164.588 1035.3 L 153.143 1036.28 L 138.157 1037.684 L 126.866 1038.636 L 111.788 1040.038 L 100.427 1040.987 L 85.257 1042.388 L 73.826 1043.334 L 62.369 1044.279 L 47.065 1045.676 L 35.535 1046.619 L 20.137 1048.015 L 8.536 1048.955 L 54.157 1443.771 L 65.76 1443.004 L 81.167 1441.778 L 92.709 1441.007 L 108.036 1439.78 L 119.519 1439.006 L 130.976 1438.231 L 146.189 1437.001 L 157.587 1436.222 L 172.721 1434.99 L 184.059 1434.208 L 199.115 1432.974 L 210.394 1432.189 L 223.001 1431.234 L 236.593 1430.164 L 249.127 1429.206 L 263.986 1427.966 L 275.118 1427.173 L 289.9 1425.93 L 300.974 1425.133 L 315.679 1423.888 L 327.992 1422.92 L 341.324 1421.839 L 353.568 1420.868 L 368.113 1419.617 L 381.346 1418.53 L 393.48 1417.555 L 407.907 1416.3 L 418.715 1415.486 L 433.067 1414.227 L 445.056 1413.245 L 459.327 1411.983 L 472.331 1410.882 L 484.214 1409.895 L 498.368 1408.627 L 510.176 1407.636 L 524.25 1406.365 L 538.282 1405.092 L 548.793 1404.257 L 562.752 1402.98 L 576.669 1401.701 L 588.262 1400.698 L 602.1 1399.415 L 615.897 1398.129 L 627.38 1397.12 L 641.099 1395.83 L 654.777 1394.539 L 668.413 1393.244 L 679.752 1392.226 L 693.311 1390.927 L 706.83 1389.626 L 720.308 1388.322 L 731.503 1387.293 L 744.905 1385.984 L 759.354 1384.517 L 772.669 1383.203 L 783.718 1382.164 L 796.958 1380.844 L 810.158 1379.522 L 824.376 1378.042 L 837.491 1376.714 L 850.567 1375.383 L 861.4 1374.327 L 875.435 1372.836 L 888.392 1371.496 L 901.31 1370.153 L 915.205 1368.653 L 928.04 1367.303 L 940.835 1365.95 L 954.592 1364.441 L 967.305 1363.081 L 980.967 1361.566 L 993.599 1360.199 L 1007.168 1358.677 L 1019.717 1357.302 L 1031.047 1356.053 L 1043.52 1354.671 L 1056.909 1353.135 L 1072.383 1351.316 L 1084.728 1349.922 L 1097.973 1348.375 L 1111.17 1346.824 L 1123.393 1345.417 L 1136.5 1343.858 L 1149.559 1342.295 L 1162.57 1340.727 L 1174.63 1339.303 L 1187.553 1337.727 L 1200.429 1336.147 L 1213.258 1334.562 L 1228.118 1332.69 L 1240.85 1331.095 L 1253.535 1329.496 L 1266.175 1327.893 L 1278.768 1326.284 L 1291.316 1324.67 L 1305.865 1322.767 L 1318.318 1321.143 L 1330.725 1319.514 L 1343.087 1317.879 L 1357.43 1315.953 L 1370.526 1314.163 L 1382.744 1312.511 L 1394.919 1310.854 L 1409.054 1308.905 L 1421.943 1307.092 L 1433.976 1305.417 L 1448.751 1303.304 L 1460.687 1301.617 L 1474.557 1299.634 L 1487.186 1297.791 L 1498.984 1296.084 L 1513.473 1293.938 L 1525.176 1292.217 L 1539.55 1290.056 L 1551.919 1288.179 L 1565.419 1286.146 L 1577.685 1284.255 L 1589.901 1282.356 L 1603.987 1280.158 L 1617.274 1278.093 L 1629.335 1276.172 L 1643.247 1273.948 L 1655.203 1272.011 L 1668.999 1269.771 L 1680.853 1267.817 L 1694.535 1265.559 L 1708.157 1263.292 L 1719.855 1261.313 L 1733.364 1259.027 L 1746.814 1256.731 L 1759.048 1254.583 L 1772.383 1252.268 L 1785.658 1249.942 L 1797.049 1247.907 L 1810.886 1245.42 L 1823.99 1243.064 L 1837.7 1240.555 L 1850.684 1238.175 L 1862.475 1235.948 L 1875.348 1233.547 L 1888.813 1230.993 L 1902.214 1228.427 L 1914.911 1225.99 L 1928.188 1223.399 L 1941.403 1220.795 L 1954.554 1218.178 L 1967.644 1215.549 L 1978.94 1213.217 L 1991.912 1210.562 L 2004.824 1207.893 L 2019.387 1204.898 L 2032.171 1202.2 L 2044.894 1199.487 L 2057.558 1196.76 L 2070.162 1194.018 L 2083.302 1191.117 L 2095.785 1188.345 L 2108.798 1185.413 L 2121.163 1182.609 L 2135.698 1179.324 L 2147.938 1176.486 L 2160.697 1173.487 L 2172.822 1170.615 L 2187.076 1167.256 L 2199.646 1164.203 L 2212.155 1161.132 L 2226.199 1157.714 L 2238.582 1154.604 L 2252.484 1151.146 L 2264.742 1147.996 L 2276.943 1144.826 L 2290.642 1141.304 L 2302.723 1138.093 L 2316.286 1134.525 L 2328.789 1131.121 L 2342.217 1127.507 L 2355.574 1123.869 L 2367.892 1120.394 L 2381.118 1116.707 L 2394.805 1112.842 L 2406.94 1109.294 L 2419.969 1105.53 L 2433.454 1101.585 L 2446.87 1097.612 L 2458.772 1093.958 L 2472.061 1089.93 L 2484.766 1086.028 L 2497.924 1081.939 L 2511.017 1077.82 L 2524.561 1073.511 L 2537.525 1069.329 L 2550.428 1065.114 L 2563.268 1060.867 L 2576.049 1056.587 L 2589.279 1052.11 L 2601.94 1047.762 L 2614.544 1043.378 L 2628.933 1038.427 L 2641.414 1033.969 L 2654.349 1029.308 L 2666.721 1024.775 L 2680.847 1019.663 L 2693.106 1015.051 L 2707.101 1009.853 L 2719.76 1004.989 L 2731.861 1000.254 L 2745.676 994.923 L 2759.427 989.543 L 2771.884 984.503 L 2785.01 979.203 L 2797.373 974.07 L 2810.9 968.497 L 2824.37 962.873 L 2837.785 957.195 L 2851.146 951.464 L 2863.289 946.08 L 2876.033 940.424 L 2889.248 934.529 L 2902.415 928.577 L 2915.535 922.566 L 2929.729 916.082 L 2942.751 909.948 L 2955.732 903.752 L 2968.133 897.682 L 2982.11 890.935 L 2995.138 884.534 L 3007.636 878.081 L 3022.115 871.112 L 3034.16 864.522 L 3047.873 857.614 L 3062.137 850.403 L 3074.129 843.574 L 3087.636 836.419 L 3101.319 828.97 L 3114.638 821.445 L 3127.946 814.026 L 3141.194 806.318 L 3154.379 798.717 L 3167.566 790.819 L 3180.638 783.028 L 3193.488 774.942 L 3207.404 766.492 L 3220.066 758.405 L 3234.249 749.517 L 3246.622 741.219 L 3260.06 732.326 L 3273.447 723.311 L 3286.969 714.164 L 3300.752 704.67 L 3314.008 695.264 L 3327.042 685.725 L 3339.704 676.263 L 3352.7 666.428 L 3366.702 655.922 L 3379.649 645.761 L 3393.292 634.912 L 3406.532 624.095 L 3419.294 613.375 L 3432.225 602.147 L 3446.508 589.925 L 3459.407 578.204 L 3472.802 565.972 L 3486.234 553.123 L 3498.931 540.451 L 3513.015 526.596 L 3513.1 526.591 L 3498.998 540.428 L 3486.325 553.084 L 3472.882 565.933 L 3459.583 578.126 L 3446.677 589.834 L 3432.421 602.035 L 3419.506 613.249 L 3406.839 623.91 L 3393.582 634.719 L 3379.975 645.53 L 3367.093 655.631 L 3353.114 666.104 L 3340.17 675.879 L 3327.537 685.317 L 3314.538 694.798 L 3301.33 704.148 L 3287.613 713.552 L 3274.149 722.647 L 3260.809 731.611 L 3247.419 740.454 L 3235.088 748.67 L 3220.976 757.475 L 3208.387 765.485 L 3194.573 773.899 L 3181.736 781.865 L 3168.775 789.59 L 3155.648 797.374 L 3142.593 804.914 L 3129.395 812.513 L 3116.238 819.879 L 3102.961 827.302 L 3089.397 834.655 L 3076.075 841.773 L 3064.068 848.453 L 3050.008 855.59 L 3036.516 862.48 L 3024.418 868.934 L 3010.186 875.849 L 2997.747 882.179 L 2984.891 888.469 L 2970.483 895.179 L 2958.124 901.179 L 2945.443 907.252 L 2932.401 913.289 L 2917.741 919.748 L 2905.001 925.632 L 2891.801 931.492 L 2878.549 937.297 L 2865.403 942.934 L 2854.135 948.114 L 2840.181 953.81 L 2826.713 959.408 L 2813.186 964.957 L 2799.599 970.458 L 2787.77 975.423 L 2773.641 980.787 L 2762.075 985.63 L 2747.683 991.011 L 2733.792 996.294 L 2721.805 1000.958 L 2709.504 1005.689 L 2694.849 1010.916 L 2682.698 1015.472 L 2668.312 1020.586 L 2656.045 1025.075 L 2643.463 1029.628 L 2630.5 1034.118 L 2615.845 1039.103 L 2603.341 1043.469 L 2590.605 1047.828 L 2577.722 1052.23 L 2564.453 1056.583 L 2551.535 1060.864 L 2538.555 1065.12 L 2525.513 1069.353 L 2512.311 1073.629 L 2498.73 1077.868 L 2485.493 1082.036 L 2472.279 1086.123 L 2459.336 1090.199 L 2448.097 1093.789 L 2433.892 1097.974 L 2420.331 1102.049 L 2406.805 1106.052 L 2395.738 1109.518 L 2381.277 1113.642 L 2367.561 1117.602 L 2356.3 1121.023 L 2341.768 1125.054 L 2328.268 1128.919 L 2316.81 1132.301 L 2302.092 1136.299 L 2290.588 1139.612 L 2276.202 1143.526 L 2264.575 1146.819 L 2252.269 1150.192 L 2237.697 1154.081 L 2225.88 1157.348 L 2211.178 1161.222 L 2199.232 1164.474 L 2186.623 1167.81 L 2171.728 1171.668 L 2159.71 1174.857 L 2147.364 1178.107 L 2134.65 1181.377 L 2119.939 1185.146 L 2107.686 1188.316 L 2095.083 1191.549 L 2082.145 1194.803 L 2069.412 1198.03 L 2056.364 1201.277 L 2043.684 1204.452 L 2030.946 1207.624 L 2018.15 1210.794 L 2003.081 1214.489 L 1990.654 1217.574 L 1977.677 1220.741 L 1967.066 1223.345 L 1953.293 1226.626 L 1940.143 1229.791 L 1926.932 1232.956 L 1913.661 1236.122 L 1900.566 1239.235 L 1887.582 1242.331 L 1874.13 1245.499 L 1860.874 1248.613 L 1850.134 1251.148 L 1836.143 1254.377 L 1822.846 1257.482 L 1809.381 1260.599 L 1795.956 1263.709 L 1784.762 1266.273 L 1770.97 1269.427 L 1757.67 1272.482 L 1746.439 1275.035 L 1732.063 1278.276 L 1718.596 1281.338 L 1707.462 1283.844 L 1693.362 1287.011 L 1679.728 1290.083 L 1668.434 1292.597 L 1654.177 1295.774 L 1642.774 1298.294 L 1628.415 1301.477 L 1616.902 1304.005 L 1602.821 1307.119 L 1589.158 1310.148 L 1577.487 1312.687 L 1565.271 1315.325 L 1551.013 1318.45 L 1539.527 1320.933 L 1524.755 1324.148 L 1513.185 1326.635 L 1498.705 1329.781 L 1487.043 1332.274 L 1474.869 1334.863 L 1460.299 1338.01 L 1448.831 1340.448 L 1434.077 1343.619 L 1422.187 1346.131 L 1409.747 1348.745 L 1394.95 1351.912 L 1383.238 1354.371 L 1371.098 1356.911 L 1358.446 1359.548 L 1343.474 1362.731 L 1331.568 1365.208 L 1319.246 1367.766 L 1306.88 1370.327 L 1292.077 1373.455 L 1279.983 1375.951 L 1267.481 1378.526 L 1254.934 1381.106 L 1242.343 1383.691 L 1229.707 1386.28 L 1214.623 1389.439 L 1202.239 1391.966 L 1189.463 1394.571 L 1176.642 1397.181 L 1164.338 1399.683 L 1151.774 1402.23 L 1138.82 1404.855 L 1125.821 1407.485 L 1113.372 1410.001 L 1100.616 1412.571 L 1087.482 1415.217 L 1074.923 1417.743 L 1059.598 1420.899 L 1046.642 1423.495 L 1033.961 1426.034 L 1023.511 1428.035 L 1010.296 1430.682 L 997.156 1433.3 L 984.338 1435.853 L 971.104 1438.483 L 958.21 1441.045 L 944.88 1443.688 L 931.912 1446.258 L 919.2 1448.767 L 905.732 1451.429 L 892.649 1454.011 L 879.818 1456.534 L 866.211 1459.215 L 855.554 1461.217 L 842.246 1463.833 L 829.261 1466.375 L 815.464 1469.082 L 802.123 1471.694 L 789.018 1474.25 L 778.425 1476.216 L 764.898 1478.858 L 750.863 1481.598 L 737.34 1484.232 L 726.583 1486.218 L 712.918 1488.877 L 699.543 1491.466 L 686.128 1494.061 L 675.222 1496.066 L 661.412 1498.742 L 647.883 1501.351 L 634.313 1503.966 L 623.255 1505.99 L 609.3 1508.684 L 595.615 1511.313 L 584.438 1513.353 L 570.378 1516.06 L 556.575 1518.704 L 546.166 1520.574 L 532.296 1523.227 L 518.381 1525.886 L 506.98 1527.955 L 492.703 1530.688 L 481.214 1532.77 L 467.865 1535.3 L 453.983 1537.934 L 442.388 1540.029 L 427.935 1542.785 L 417.237 1544.683 L 402.982 1547.387 L 391.226 1549.504 L 377.692 1552.051 L 363.525 1554.725 L 351.659 1556.856 L 338.035 1559.413 L 326.303 1561.507 L 311.531 1564.303 L 300.572 1566.229 L 285.971 1568.979 L 274.956 1570.911 L 260.279 1573.671 L 248.099 1575.846 L 234.276 1578.419 L 222.2 1580.563 L 210.829 1582.559 L 195.961 1585.345 L 184.744 1587.298 L 169.798 1590.094 L 158.523 1592.053 L 143.501 1594.86 L 132.168 1596.825 L 120.812 1598.793 L 105.678 1601.614 L 94.261 1603.588 L 79.05 1606.42 L 67.574 1608.4 L 147.067 1954.118 L 158.382 1951.493 L 173.438 1948.001 L 184.706 1945.387 L 199.701 1941.909 L 210.925 1939.306 L 222.128 1936.707 L 237.036 1933.249 L 248.194 1930.661 L 263.042 1927.217 L 274.155 1924.639 L 288.941 1921.209 L 300.009 1918.642 L 311.057 1916.079 L 325.757 1912.669 L 336.76 1910.117 L 351.4 1906.721 L 362.358 1904.179 L 376.938 1900.797 L 387.85 1898.265 L 402.37 1894.897 L 413.237 1892.376 L 427.697 1889.022 L 438.519 1886.511 L 452.919 1883.17 L 467.285 1879.838 L 478.036 1877.343 L 492.342 1874.024 L 503.049 1871.54 L 517.295 1868.235 L 527.957 1865.761 L 542.143 1862.47 L 556.296 1859.186 L 566.888 1856.728 L 580.981 1853.458 L 591.528 1851.011 L 605.561 1847.754 L 619.561 1844.505 L 630.038 1842.074 L 643.978 1838.839 L 657.885 1835.611 L 668.293 1833.196 L 682.14 1829.982 L 695.953 1826.775 L 706.292 1824.376 L 720.046 1821.183 L 733.767 1817.997 L 747.454 1814.82 L 757.698 1812.442 L 771.326 1809.277 L 784.921 1806.121 L 798.483 1802.971 L 808.632 1800.615 L 822.135 1797.479 L 835.604 1794.35 L 849.04 1791.23 L 859.095 1788.894 L 872.473 1785.786 L 885.817 1782.686 L 899.128 1779.593 L 912.406 1776.508 L 925.65 1773.43 L 935.562 1771.127 L 948.748 1768.062 L 961.901 1765.004 L 975.021 1761.954 L 988.108 1758.911 L 1001.162 1755.876 L 1014.183 1752.848 L 1027.17 1749.827 L 1040.125 1746.813 L 1053.047 1743.807 L 1065.936 1740.808 L 1078.792 1737.816 L 1091.615 1734.831 L 1101.211 1732.597 L 1113.977 1729.625 L 1126.71 1726.66 L 1142.58 1722.964 L 1155.239 1720.015 L 1167.866 1717.073 L 1180.46 1714.138 L 1193.021 1711.21 L 1205.55 1708.289 L 1218.046 1705.375 L 1230.509 1702.468 L 1242.941 1699.568 L 1255.339 1696.675 L 1267.705 1693.788 L 1280.039 1690.909 L 1295.411 1687.319 L 1307.672 1684.455 L 1319.9 1681.597 L 1332.096 1678.746 L 1344.26 1675.902 L 1356.392 1673.065 L 1371.512 1669.528 L 1383.571 1666.705 L 1395.598 1663.889 L 1407.593 1661.08 L 1422.542 1657.577 L 1434.465 1654.783 L 1446.356 1651.994 L 1458.215 1649.212 L 1472.994 1645.744 L 1484.781 1642.976 L 1496.536 1640.215 L 1511.186 1636.772 L 1522.869 1634.025 L 1537.429 1630.6 L 1549.041 1627.866 L 1560.622 1625.139 L 1575.053 1621.738 L 1586.562 1619.025 L 1600.904 1615.641 L 1612.342 1612.94 L 1626.596 1609.573 L 1637.963 1606.886 L 1649.299 1604.205 L 1663.424 1600.861 L 1677.501 1597.526 L 1688.727 1594.865 L 1702.715 1591.546 L 1713.87 1588.897 L 1727.771 1585.594 L 1738.856 1582.957 L 1752.668 1579.669 L 1766.432 1576.389 L 1777.408 1573.771 L 1791.085 1570.505 L 1804.713 1567.248 L 1815.58 1564.648 L 1829.121 1561.405 L 1842.613 1558.17 L 1853.372 1555.587 L 1866.778 1552.366 L 1880.135 1549.151 L 1893.445 1545.945 L 1906.706 1542.745 L 1917.28 1540.19 L 1930.455 1537.003 L 1943.582 1533.823 L 1956.662 1530.65 L 1969.693 1527.483 L 1982.677 1524.323 L 1995.613 1521.169 L 2008.502 1518.022 L 2021.344 1514.88 L 2031.582 1512.371 L 2044.338 1509.24 L 2057.047 1506.115 L 2072.235 1502.372 L 2084.84 1499.259 L 2097.398 1496.151 L 2109.909 1493.048 L 2122.372 1489.95 L 2134.789 1486.857 L 2147.159 1483.768 L 2159.483 1480.684 L 2171.759 1477.604 L 2186.429 1473.914 L 2198.603 1470.843 L 2210.731 1467.775 L 2222.812 1464.712 L 2237.248 1461.04 L 2249.227 1457.983 L 2261.16 1454.929 L 2275.419 1451.269 L 2287.25 1448.221 L 2301.387 1444.567 L 2313.117 1441.524 L 2324.802 1438.483 L 2338.763 1434.836 L 2350.346 1431.799 L 2364.187 1428.156 L 2375.67 1425.121 L 2389.39 1421.48 L 2403.044 1417.84 L 2414.373 1414.807 L 2427.908 1411.167 L 2441.378 1407.527 L 2452.553 1404.493 L 2465.904 1400.851 L 2479.189 1397.208 L 2492.411 1393.563 L 2503.379 1390.523 L 2516.482 1386.874 L 2529.52 1383.221 L 2542.494 1379.564 L 2555.405 1375.903 L 2568.251 1372.238 L 2581.033 1368.568 L 2593.751 1364.893 L 2606.406 1361.212 L 2618.997 1357.524 L 2631.525 1353.83 L 2643.989 1350.129 L 2656.39 1346.419 L 2670.778 1342.081 L 2683.042 1338.353 L 2695.244 1334.616 L 2707.382 1330.869 L 2721.465 1326.485 L 2733.468 1322.715 L 2747.392 1318.302 L 2759.26 1314.507 L 2771.066 1310.699 L 2784.761 1306.24 L 2798.371 1301.762 L 2809.97 1297.909 L 2823.424 1293.395 L 2834.889 1289.509 L 2848.188 1284.956 L 2861.403 1280.38 L 2874.534 1275.78 L 2887.582 1271.157 L 2898.7 1267.174 L 2911.594 1262.503 L 2924.406 1257.807 L 2937.134 1253.082 L 2949.781 1248.33 L 2964.133 1242.863 L 2976.603 1238.047 L 2988.991 1233.201 L 3001.298 1228.323 L 3015.262 1222.709 L 3027.394 1217.761 L 3039.445 1212.779 L 3053.118 1207.043 L 3064.995 1201.985 L 3078.47 1196.16 L 3091.84 1190.286 L 3103.452 1185.106 L 3116.626 1179.137 L 3129.694 1173.116 L 3142.659 1167.042 L 3155.52 1160.914 L 3168.276 1154.73 L 3180.93 1148.49 L 3193.48 1142.192 L 3205.927 1135.835 L 3218.272 1129.418 L 3232.037 1122.127 L 3244.163 1115.58 L 3257.684 1108.139 L 3269.595 1101.457 L 3282.873 1093.861 L 3296.023 1086.182 L 3309.046 1078.417 L 3321.941 1070.566 L 3334.709 1062.627 L 3347.351 1054.598 L 3359.867 1046.479 L 3372.257 1038.268 L 3385.876 1029.035 L 3398.001 1020.625 L 3411.328 1011.168 L 3424.501 1001.591 L 3436.226 992.868 L 3449.109 983.058 L 3463.105 972.122 L 3475.669 962.048 L 3488.083 951.844 L 3501.565 940.471 L 3513.664 929.993 L 3526.8 918.313 L 3539.782 906.467 L 3552.581 894.457 L 3564.959 882.286 L 3578.753 868.81 L 3590.783 856.282 L 3603.944 842.419 L 3616.893 828.347 L 3629.208 814.074 L 3643.194 798.366 L 3655.365 783.637 L 3668.262 767.44 L 3681.232 750.986 L 3694.751 732.97 L 3707.211 715.964 L 3720.132 697.349 L 3733.008 678.421 L 3746.305 657.784 L 3759.428 636.78 L 3772.196 615.399 L 3785.625 592.173 L 3798.501 568.505 L 3811.942 542.877 L 3824.975 516.74 L 3838.392 488.507 L 3851.371 459.691 L 3864.626 428.633 L 3878.051 395.221 L 3891.676 359.335 L 3905.327 320.84 L 3918.958 279.601 L 3932.477 235.468 L 3946.36 186.372 L 3960.389 131.977 L 3974.397 71.92 L 3986.515 14.179 L 3986.468 3.637 Z" vector-effect="non-scaling-stroke"/></g></svg>