<svg width="2995.729" height="977.444" viewBox="0 0 2995.729 977.444" xmlns="http://www.w3.org/2000/svg"><g id="svgGroup" stroke-linecap="round" fill-rule="evenodd" font-size="9pt" stroke="#000" stroke-width="0.25mm" fill="none" style="stroke:#000;stroke-width:0.25mm;fill:none"><path d="M 2965.198 0 L 2959.736 2.789 L 2954.244 5.543 L 2948.751 8.264 L 2943.257 10.954 L 2937.729 13.427 L 2933.287 16.023 L 2929.745 18.381 L 2922.753 21.01 L 2917.249 23.566 L 2911.742 26.1 L 2906.233 28.612 L 2900.72 31.102 L 2895.204 33.573 L 2889.686 36.024 L 2886.246 38.203 L 2879.131 40.675 L 2873.604 43.073 L 2868.074 45.455 L 2862.539 47.821 L 2859.156 49.913 L 2851.963 52.311 L 2846.417 54.633 L 2840.867 56.941 L 2835.108 59.055 L 2832.984 61.027 L 2825.708 63.36 L 2820.139 65.616 L 2814.565 67.86 L 2811.273 69.828 L 2803.93 72.117 L 2798.341 74.328 L 2795.075 76.26 L 2787.683 78.521 L 2782.078 80.7 L 2776.467 82.87 L 2773.233 84.758 L 2765.772 86.984 L 2760.143 89.125 L 2756.93 90.983 L 2749.094 93.015 L 2744.764 95.07 L 2741.57 96.901 L 2734.006 99.079 L 2730.823 100.891 L 2723.227 103.056 L 2717.545 105.13 L 2714.377 106.916 L 2706.729 109.062 L 2701.025 111.114 L 2697.459 112.707 L 2691.172 114.77 L 2688.025 116.517 L 2680.292 118.631 L 2677.149 120.363 L 2669.384 122.466 L 2663.624 124.471 L 2660.036 126.016 L 2653.676 128.035 L 2650.546 129.732 L 2642.694 131.807 L 2639.566 133.49 L 2631.682 135.557 L 2628.07 137.065 L 2621.645 139.051 L 2618.519 140.708 L 2610.568 142.756 L 2607.441 144.399 L 2598.995 146.285 L 2597.334 147.84 L 2589.317 149.87 L 2586.186 151.49 L 2578.137 153.514 L 2574.476 154.967 L 2567.936 156.903 L 2564.797 158.501 L 2556.682 160.508 L 2552.998 161.942 L 2546.409 163.861 L 2543.258 165.438 L 2537.366 166.971 L 2530.742 168.878 L 2527.579 170.439 L 2518.856 172.273 L 2517.202 173.739 L 2508.943 175.712 L 2505.201 177.105 L 2501.382 178.678 L 2493.079 180.642 L 2489.315 182.022 L 2482.578 183.893 L 2479.368 185.412 L 2473.341 186.904 L 2466.566 188.764 L 2463.334 190.27 L 2457.276 191.753 L 2450.463 193.603 L 2446.637 194.952 L 2442.733 196.478 L 2433.761 198.27 L 2432.029 199.656 L 2426.474 201.262 L 2417.464 203.049 L 2415.704 204.42 L 2409.551 205.877 L 2402.621 207.698 L 2398.717 209.015 L 2394.727 210.507 L 2385.635 212.279 L 2383.822 213.627 L 2377.606 215.067 L 2370.595 216.87 L 2366.636 218.167 L 2362.58 219.64 L 2356.325 221.071 L 2348.779 222.727 L 2346.89 224.048 L 2340.604 225.471 L 2336.489 226.927 L 2327.269 228.677 L 2325.325 229.982 L 2319.001 231.396 L 2314.298 232.706 L 2307.125 234.476 L 2303.044 235.738 L 2298.311 237.04 L 2294.095 238.472 L 2284.791 240.206 L 2282.213 241.351 L 2277.958 242.775 L 2271.547 244.17 L 2266.752 245.456 L 2259.453 247.205 L 2255.274 248.443 L 2250.447 249.723 L 2245.61 251 L 2241.253 252.405 L 2231.858 254.121 L 2229.154 255.238 L 2224.273 256.506 L 2219.858 257.902 L 2213.347 259.275 L 2205.514 260.871 L 2202.744 261.975 L 2197.809 263.232 L 2193.318 264.618 L 2186.759 265.98 L 2181.79 267.231 L 2176.811 268.479 L 2168.909 270.061 L 2166.042 271.15 L 2161.456 272.523 L 2154.843 273.874 L 2149.806 275.112 L 2144.758 276.349 L 2139.699 277.584 L 2134.629 278.817 L 2126.652 280.383 L 2123.665 281.454 L 2118.561 282.681 L 2113.445 283.906 L 2108.318 285.129 L 2103.179 286.351 L 2098.03 287.571 L 2092.868 288.789 L 2087.696 290.005 L 2082.512 291.219 L 2074.44 292.766 L 2071.302 293.819 L 2066.081 295.028 L 2060.849 296.236 L 2055.605 297.441 L 2050.349 298.646 L 2045.081 299.848 L 2039.802 301.049 L 2034.51 302.249 L 2029.206 303.447 L 2023.89 304.643 L 2018.562 305.838 L 2013.221 307.031 L 2007.869 308.223 L 2002.504 309.414 L 1997.126 310.602 L 1990.987 311.707 L 1987.584 312.73 L 1982.173 313.915 L 1976.748 315.098 L 1971.311 316.279 L 1965.861 317.46 L 1957.101 318.874 L 1955.347 319.742 L 1949.861 320.918 L 1944.362 322.092 L 1938.849 323.265 L 1932.653 324.348 L 1929.07 325.36 L 1927.753 326.096 L 1918.807 327.525 L 1913.234 328.692 L 1907.034 329.771 L 1903.348 330.774 L 1897.738 331.937 L 1892.115 333.098 L 1885.899 334.171 L 1882.141 335.169 L 1876.481 336.327 L 1870.251 337.395 L 1866.443 338.39 L 1860.745 339.544 L 1854.501 340.607 L 1850.641 341.6 L 1844.905 342.75 L 1838.648 343.808 L 1834.734 344.798 L 1828.961 345.945 L 1822.691 346.998 L 1818.723 347.986 L 1812.911 349.13 L 1806.628 350.178 L 1806.627 350.738 L 1797.205 352.042 L 1793.138 353.025 L 1787.263 354.164 L 1780.972 355.206 L 1776.848 356.186 L 1770.545 357.225 L 1766.389 358.204 L 1760.075 359.239 L 1755.886 360.218 L 1749.921 361.349 L 1747.494 361.952 L 1740.246 363.19 L 1733.926 364.22 L 1729.63 365.193 L 1723.299 366.22 L 1718.97 367.193 L 1712.628 368.216 L 1708.264 369.187 L 1701.911 370.207 L 1701.337 370.763 L 1692.072 372.032 L 1687.623 373.001 L 1681.266 374.017 L 1676.782 374.984 L 1670.415 375.997 L 1665.688 376.857 L 1664.92 377.414 L 1655.703 378.67 L 1651.124 379.635 L 1644.742 380.641 L 1640.126 381.605 L 1633.733 382.608 L 1628.939 383.462 L 1627.968 384.02 L 1618.807 385.263 L 1613.985 386.113 L 1609.262 387.075 L 1602.844 388.07 L 1598.083 389.032 L 1595.283 389.615 L 1587.738 390.709 L 1582.913 391.669 L 1576.484 392.658 L 1571.585 393.501 L 1570.29 394.062 L 1561.219 395.285 L 1556.292 396.126 L 1551.354 397.083 L 1544.901 398.065 L 1539.945 398.903 L 1538.478 399.466 L 1529.45 400.678 L 1524.465 401.514 L 1519.471 402.348 L 1517.886 402.913 L 1508.892 404.118 L 1503.869 404.951 L 1498.838 405.782 L 1493.697 406.737 L 1490.638 407.311 L 1483.114 408.375 L 1478.045 409.203 L 1472.825 410.157 L 1466.314 411.12 L 1464.618 411.558 L 1457.089 412.614 L 1451.789 413.567 L 1445.267 414.525 L 1443.488 414.963 L 1435.969 416.013 L 1430.813 416.834 L 1425.422 417.787 L 1422.191 418.357 L 1414.683 419.402 L 1409.488 420.22 L 1404.283 421.038 L 1402.371 421.477 L 1394.552 422.65 L 1387.995 423.597 L 1382.751 424.411 L 1380.75 424.85 L 1373.237 425.883 L 1367.966 426.696 L 1362.685 427.508 L 1360.249 428.093 L 1351.458 429.242 L 1346.147 430.053 L 1344.008 430.492 L 1336.506 431.516 L 1331.168 432.324 L 1325.819 433.132 L 1323.627 433.573 L 1316.109 434.59 L 1310.733 435.395 L 1308.004 435.988 L 1299.289 437.12 L 1293.882 437.924 L 1288.465 438.727 L 1286.127 439.169 L 1278.625 440.178 L 1273.18 440.979 L 1270.79 441.422 L 1263.287 442.426 L 1257.814 443.226 L 1255.371 443.67 L 1247.868 444.67 L 1242.367 445.468 L 1239.87 445.913 L 1232.367 446.909 L 1226.837 447.705 L 1224.286 448.151 L 1216.783 449.143 L 1211.225 449.937 L 1208.619 450.384 L 1201.117 451.372 L 1195.53 452.165 L 1192.868 452.613 L 1185.368 453.597 L 1179.752 454.388 L 1177.033 454.837 L 1169.534 455.818 L 1163.89 456.607 L 1161.114 457.057 L 1153.617 458.034 L 1147.943 458.822 L 1145.109 459.273 L 1137.615 460.245 L 1131.911 461.032 L 1129.019 461.484 L 1121.527 462.453 L 1116.06 463.125 L 1114.695 463.416 L 1107.171 464.381 L 1101.413 465.165 L 1098.444 465.619 L 1090.924 466.581 L 1087.901 467.035 L 1080.398 467.994 L 1074.59 468.776 L 1071.505 469.232 L 1064.393 470.065 L 1060.02 470.69 L 1056.918 471.148 L 1049.388 472.099 L 1046.23 472.557 L 1038.718 473.507 L 1032.834 474.285 L 1029.613 474.744 L 1022.578 475.561 L 1020.751 475.871 L 1013.226 476.815 L 1007.295 477.59 L 1003.998 478.052 L 996.479 478.992 L 990.518 479.766 L 987.523 480.112 L 981.553 480.885 L 978.178 481.349 L 970.648 482.283 L 967.214 482.748 L 960.311 483.54 L 955.603 484.17 L 952.149 484.636 L 944.608 485.564 L 941.095 486.031 L 934.23 486.814 L 929.445 487.445 L 925.911 487.913 L 918.359 488.836 L 914.765 489.305 L 907.941 490.078 L 905.588 490.412 L 898.039 491.33 L 891.9 492.098 L 888.222 492.569 L 881.442 493.332 L 878.973 493.672 L 871.416 494.585 L 867.663 495.059 L 860.937 495.814 L 855.92 496.45 L 852.144 496.924 L 844.579 497.831 L 841.45 498.164 L 835.214 498.927 L 831.361 499.403 L 824.671 500.146 L 821.957 500.498 L 814.379 501.399 L 808.088 502.161 L 804.927 502.491 L 798.625 503.251 L 794.669 503.731 L 788.017 504.461 L 785.165 504.82 L 777.564 505.714 L 773.528 506.196 L 766.938 506.918 L 763.966 507.282 L 756.372 508.172 L 753.164 508.498 L 746.768 509.255 L 742.634 509.74 L 736.097 510.451 L 730.708 511.094 L 726.548 511.58 L 719.993 512.287 L 716.859 512.66 L 709.228 513.541 L 705.977 513.863 L 699.497 514.618 L 695.237 515.107 L 688.738 515.803 L 685.462 516.183 L 677.824 517.058 L 674.545 517.378 L 668.007 518.131 L 663.645 518.623 L 657.206 519.308 L 653.785 519.695 L 647.337 520.378 L 643.898 520.766 L 636.237 521.634 L 632.92 521.951 L 626.308 522.702 L 621.823 523.198 L 615.439 523.87 L 611.85 524.265 L 605.458 524.935 L 601.851 525.331 L 594.168 526.192 L 590.814 526.505 L 584.126 527.255 L 580.763 527.568 L 574.057 528.317 L 569.428 528.817 L 563.096 529.473 L 559.314 529.878 L 554.977 530.294 L 548.224 531.042 L 543.498 531.545 L 537.241 532.191 L 533.313 532.604 L 527.05 533.248 L 523.1 533.661 L 516.832 534.303 L 512.861 534.718 L 506.587 535.357 L 502.595 535.773 L 494.855 536.617 L 491.412 536.925 L 484.546 537.67 L 481.094 537.977 L 476.193 538.484 L 469.994 539.112 L 465.827 539.536 L 459.624 540.161 L 455.434 540.587 L 449.226 541.21 L 445.013 541.636 L 437.238 542.472 L 433.744 542.775 L 426.775 543.519 L 423.271 543.822 L 418.205 544.335 L 412.077 544.945 L 407.684 545.381 L 401.553 545.989 L 397.134 546.426 L 391 547.032 L 386.557 547.47 L 382.268 547.855 L 375.208 548.597 L 371.658 548.897 L 364.579 549.638 L 361.02 549.938 L 353.921 550.679 L 350.353 550.978 L 345.085 551.497 L 339.035 552.087 L 334.368 552.536 L 328.316 553.124 L 323.623 553.575 L 317.569 554.161 L 314.589 554.388 L 309.246 554.909 L 303.19 555.492 L 298.434 555.946 L 292.377 556.527 L 287.593 556.981 L 283.313 557.35 L 276.076 558.089 L 272.439 558.383 L 265.184 559.122 L 261.537 559.416 L 254.263 560.154 L 250.607 560.447 L 246.951 560.74 L 239.651 561.478 L 235.982 561.77 L 228.663 562.508 L 224.984 562.8 L 219.394 563.329 L 213.433 563.888 L 210.269 564.12 L 202.905 564.857 L 199.203 565.147 L 193.556 565.677 L 187.598 566.232 L 182.436 566.705 L 178.171 567.056 L 172.761 567.546 L 167.558 568.021 L 161.604 568.57 L 156.37 569.046 L 152.098 569.394 L 146.677 569.881 L 141.4 570.359 L 135.451 570.903 L 130.143 571.382 L 125.865 571.728 L 120.432 572.211 L 115.081 572.692 L 110.8 573.035 L 103.26 573.77 L 99.471 574.056 L 94.027 574.536 L 88.6 575.02 L 84.313 575.36 L 76.727 576.095 L 72.914 576.379 L 69.102 576.663 L 61.489 577.397 L 57.663 577.681 L 53.837 577.964 L 46.198 578.698 L 42.359 578.981 L 34.699 579.714 L 30.85 579.997 L 27.001 580.279 L 19.315 581.012 L 15.452 581.294 L 11.589 581.575 L 3.876 582.308 L 0 582.589 L 45.285 977.444 L 49.161 977.231 L 56.875 976.565 L 60.741 976.351 L 64.605 976.138 L 72.296 975.471 L 76.152 975.257 L 80.004 975.042 L 87.672 974.375 L 91.516 974.16 L 99.167 973.493 L 103.002 973.277 L 106.835 973.061 L 114.463 972.394 L 118.287 972.177 L 122.108 971.961 L 129.714 971.293 L 133.526 971.076 L 138.728 970.688 L 144.919 970.19 L 148.72 969.972 L 156.286 969.304 L 160.079 969.085 L 165.247 968.697 L 171.413 968.197 L 175.194 967.978 L 180.343 967.589 L 186.494 967.089 L 191.629 966.7 L 197.769 966.199 L 201.531 965.978 L 206.646 965.589 L 212.773 965.087 L 217.874 964.697 L 223.989 964.196 L 227.731 963.973 L 232.813 963.583 L 238.914 963.08 L 243.982 962.689 L 247.708 962.465 L 255.126 961.795 L 258.844 961.571 L 264.92 961.066 L 269.955 960.675 L 273.662 960.45 L 281.042 959.779 L 284.74 959.553 L 292.103 958.882 L 295.793 958.655 L 299.481 958.427 L 306.822 957.756 L 310.501 957.528 L 317.826 956.856 L 321.497 956.628 L 328.806 955.956 L 332.469 955.727 L 337.417 955.332 L 343.416 954.824 L 348.351 954.429 L 354.339 953.921 L 359.26 953.526 L 362.899 953.295 L 368.873 952.785 L 373.776 952.389 L 379.739 951.879 L 384.629 951.483 L 390.581 950.972 L 395.457 950.576 L 399.069 950.342 L 406.261 949.667 L 409.865 949.433 L 417.041 948.758 L 420.637 948.523 L 427.797 947.847 L 431.385 947.611 L 436.208 947.212 L 442.109 946.699 L 446.919 946.3 L 452.809 945.785 L 457.606 945.385 L 463.486 944.87 L 468.27 944.47 L 471.826 944.231 L 478.909 943.554 L 482.458 943.314 L 489.524 942.636 L 494.274 942.234 L 500.116 941.717 L 504.853 941.315 L 510.684 940.797 L 515.409 940.394 L 521.229 939.875 L 525.941 939.472 L 529.453 939.229 L 536.448 938.549 L 539.953 938.304 L 546.933 937.624 L 551.611 937.219 L 557.394 936.698 L 562.06 936.292 L 567.832 935.77 L 572.485 935.364 L 578.247 934.841 L 582.887 934.435 L 588.638 933.911 L 593.266 933.504 L 600.164 932.821 L 603.621 932.571 L 608.228 932.163 L 613.953 931.637 L 618.548 931.229 L 625.408 930.544 L 628.845 930.293 L 635.689 929.607 L 639.118 929.355 L 645.947 928.669 L 650.502 928.258 L 656.182 927.729 L 660.725 927.318 L 666.394 926.788 L 670.925 926.376 L 677.705 925.688 L 681.101 925.432 L 687.866 924.743 L 692.369 924.33 L 698.005 923.797 L 702.496 923.383 L 708.122 922.849 L 712.6 922.434 L 719.317 921.744 L 722.681 921.484 L 729.383 920.793 L 733.834 920.376 L 739.427 919.84 L 743.866 919.423 L 750.535 918.73 L 753.875 918.467 L 760.528 917.774 L 764.941 917.355 L 770.5 916.815 L 774.901 916.396 L 781.522 915.701 L 787.063 915.159 L 791.445 914.739 L 798.04 914.043 L 801.344 913.776 L 807.925 913.078 L 812.28 912.656 L 817.788 912.111 L 822.132 911.689 L 828.68 910.99 L 833.009 910.566 L 838.495 910.019 L 842.812 909.595 L 849.329 908.894 L 852.592 908.622 L 859.094 907.92 L 865.586 907.217 L 869.87 906.791 L 875.315 906.24 L 879.588 905.813 L 886.047 905.108 L 889.283 904.832 L 895.728 904.127 L 899.975 903.698 L 906.403 902.992 L 911.808 902.436 L 916.036 902.006 L 922.44 901.298 L 926.655 900.866 L 932.037 900.309 L 936.24 899.877 L 942.612 899.167 L 948.975 898.457 L 953.157 898.022 L 958.51 897.462 L 962.681 897.027 L 969.012 896.315 L 973.169 895.878 L 979.484 895.165 L 984.807 894.601 L 988.946 894.164 L 995.236 893.448 L 999.362 893.01 L 1005.635 892.293 L 1010.929 891.726 L 1015.037 891.286 L 1021.286 890.568 L 1025.38 890.127 L 1031.613 889.407 L 1034.734 889.114 L 1040.953 888.394 L 1047.162 887.673 L 1051.225 887.229 L 1057.418 886.506 L 1063.601 885.783 L 1067.643 885.337 L 1072.867 884.762 L 1076.899 884.315 L 1083.051 883.589 L 1089.195 882.863 L 1093.206 882.415 L 1099.333 881.687 L 1103.332 881.237 L 1109.443 880.508 L 1114.618 879.927 L 1118.599 879.475 L 1124.686 878.744 L 1130.764 878.012 L 1134.726 877.559 L 1140.787 876.826 L 1144.736 876.371 L 1150.782 875.637 L 1156.818 874.902 L 1160.747 874.445 L 1165.863 873.856 L 1171.876 873.118 L 1175.788 872.66 L 1181.785 871.921 L 1187.773 871.181 L 1191.666 870.721 L 1197.637 869.98 L 1203.6 869.238 L 1207.473 868.775 L 1213.42 868.032 L 1219.358 867.287 L 1223.212 866.823 L 1229.134 866.077 L 1235.046 865.33 L 1238.882 864.864 L 1244.779 864.116 L 1250.666 863.366 L 1254.483 862.898 L 1260.355 862.147 L 1266.218 861.395 L 1270.016 860.925 L 1275.863 860.171 L 1281.701 859.417 L 1285.48 858.944 L 1291.303 858.188 L 1297.116 857.431 L 1300.877 856.956 L 1306.675 856.198 L 1312.464 855.438 L 1316.206 854.96 L 1321.98 854.199 L 1327.744 853.437 L 1331.468 852.957 L 1337.217 852.193 L 1342.957 851.428 L 1348.688 850.662 L 1353.22 850.035 L 1358.934 849.267 L 1364.639 848.499 L 1368.319 848.013 L 1374.008 847.242 L 1379.689 846.471 L 1385.361 845.698 L 1389.016 845.209 L 1394.673 844.434 L 1400.321 843.659 L 1404.771 843.023 L 1410.402 842.246 L 1416.024 841.467 L 1421.637 840.688 L 1425.249 840.192 L 1430.847 839.411 L 1436.437 838.628 L 1442.815 837.701 L 1446.401 837.202 L 1451.965 836.416 L 1457.52 835.629 L 1463.067 834.841 L 1466.629 834.338 L 1472.946 833.406 L 1478.468 832.614 L 1483.98 831.821 L 1487.518 831.315 L 1493.015 830.52 L 1499.28 829.582 L 1504.759 828.785 L 1508.271 828.274 L 1513.735 827.475 L 1519.959 826.532 L 1525.404 825.731 L 1530.84 824.927 L 1534.322 824.412 L 1540.504 823.465 L 1545.916 822.658 L 1551.319 821.85 L 1556.713 821.041 L 1560.92 820.379 L 1566.298 819.567 L 1571.668 818.754 L 1577.029 817.94 L 1581.204 817.273 L 1586.549 816.457 L 1591.886 815.639 L 1597.954 814.678 L 1603.272 813.858 L 1608.581 813.035 L 1612.709 812.362 L 1618.003 811.538 L 1623.288 810.712 L 1629.294 809.744 L 1634.561 808.915 L 1637.92 808.378 L 1643.897 807.405 L 1649.139 806.573 L 1655.094 805.598 L 1660.318 804.762 L 1665.534 803.925 L 1669.575 803.239 L 1674.775 802.4 L 1679.967 801.558 L 1685.861 800.575 L 1691.035 799.731 L 1696.907 798.744 L 1702.062 797.897 L 1706.048 797.202 L 1711.188 796.352 L 1716.32 795.501 L 1722.142 794.507 L 1727.256 793.652 L 1733.056 792.655 L 1738.152 791.797 L 1742.085 791.094 L 1747.166 790.233 L 1752.926 789.23 L 1757.989 788.366 L 1763.728 787.359 L 1768.773 786.492 L 1774.492 785.482 L 1779.519 784.611 L 1785.216 783.598 L 1788.4 783.024 L 1794.079 782.007 L 1799.746 780.99 L 1804.732 780.111 L 1810.378 779.089 L 1815.346 778.207 L 1820.972 777.182 L 1825.923 776.296 L 1831.528 775.268 L 1837.122 774.237 L 1842.046 773.346 L 1845.825 772.614 L 1850.734 771.72 L 1856.29 770.683 L 1861.835 769.643 L 1866.718 768.743 L 1872.243 767.701 L 1877.756 766.656 L 1882.613 765.75 L 1888.106 764.701 L 1893.589 763.651 L 1898.419 762.739 L 1903.882 761.685 L 1909.333 760.629 L 1914.137 759.711 L 1919.569 758.651 L 1924.991 757.588 L 1929.768 756.665 L 1935.17 755.598 L 1940.561 754.529 L 1945.941 753.459 L 1950.684 752.527 L 1956.045 751.452 L 1961.395 750.375 L 1965.003 749.605 L 1970.335 748.524 L 1975.037 747.583 L 1980.35 746.497 L 1985.652 745.41 L 1990.944 744.321 L 1996.225 743.229 L 2002.604 741.965 L 2007.863 740.868 L 2013.113 739.769 L 2018.352 738.668 L 2023.581 737.565 L 2028.8 736.459 L 2033.405 735.493 L 2038.605 734.382 L 2043.795 733.269 L 2048.975 732.154 L 2054.144 731.036 L 2059.304 729.916 L 2064.454 728.794 L 2069.594 727.669 L 2074.724 726.542 L 2079.844 725.412 L 2084.954 724.28 L 2090.054 723.145 L 2095.145 722.008 L 2100.226 720.868 L 2105.297 719.726 L 2110.358 718.581 L 2117.064 717.115 L 2122.103 715.964 L 2127.133 714.811 L 2132.153 713.655 L 2137.163 712.496 L 2142.164 711.335 L 2147.155 710.171 L 2152.137 709.005 L 2157.11 707.836 L 2162.073 706.664 L 2168.651 705.166 L 2173.592 703.988 L 2178.525 702.807 L 2183.447 701.623 L 2188.361 700.437 L 2193.266 699.247 L 2198.726 697.909 L 2203.611 696.714 L 2210.087 695.19 L 2214.951 693.989 L 2219.805 692.784 L 2224.651 691.577 L 2230.046 690.22 L 2234.873 689.006 L 2239.691 687.79 L 2246.078 686.242 L 2250.875 685.019 L 2256.217 683.645 L 2260.995 682.416 L 2265.765 681.183 L 2272.089 679.617 L 2277.387 678.229 L 2282.127 676.987 L 2286.858 675.741 L 2291.58 674.492 L 2298.383 672.759 L 2303.084 671.502 L 2307.777 670.243 L 2313.004 668.831 L 2317.679 667.565 L 2323.877 665.96 L 2329.072 664.537 L 2333.718 663.26 L 2338.356 661.98 L 2345.038 660.209 L 2349.656 658.921 L 2354.265 657.63 L 2359.401 656.184 L 2365.499 654.546 L 2370.613 653.093 L 2375.185 651.786 L 2380.281 650.325 L 2386.329 648.67 L 2390.874 647.353 L 2395.94 645.879 L 2400.468 644.554 L 2406.992 642.729 L 2411.501 641.396 L 2416.528 639.905 L 2422.491 638.22 L 2427.497 636.721 L 2431.971 635.371 L 2438.417 633.518 L 2442.871 632.16 L 2447.841 630.644 L 2453.73 628.93 L 2458.68 627.405 L 2463.621 625.875 L 2469.474 624.147 L 2474.396 622.607 L 2478.79 621.22 L 2485.121 619.321 L 2489.498 617.925 L 2494.385 616.367 L 2500.678 614.453 L 2505.03 613.043 L 2509.889 611.471 L 2516.146 609.541 L 2520.473 608.117 L 2526.704 606.176 L 2531.527 604.584 L 2535.829 603.146 L 2542.025 601.188 L 2546.822 599.581 L 2552.485 597.771 L 2557.265 596.153 L 2563.411 594.172 L 2567.662 592.705 L 2572.418 591.072 L 2578.529 589.073 L 2582.757 587.591 L 2588.844 585.58 L 2593.566 583.926 L 2599.63 581.902 L 2603.825 580.399 L 2609.866 578.364 L 2614.555 576.687 L 2620.572 574.638 L 2625.245 572.95 L 2630.735 571.053 L 2635.393 569.353 L 2641.364 567.279 L 2646.006 565.567 L 2651.955 563.48 L 2656.073 561.923 L 2662 559.822 L 2666.613 558.087 L 2672.518 555.973 L 2677.116 554.225 L 2682.999 552.098 L 2687.074 550.506 L 2692.936 548.364 L 2698.786 546.215 L 2703.348 544.436 L 2709.177 542.273 L 2713.725 540.481 L 2719.534 538.303 L 2723.559 536.669 L 2729.347 534.477 L 2735.124 532.277 L 2739.639 530.452 L 2745.396 528.238 L 2751.141 526.015 L 2755.636 524.169 L 2761.362 521.931 L 2765.846 520.072 L 2771.553 517.819 L 2776.741 515.731 L 2781.206 513.85 L 2786.884 511.574 L 2792.55 509.288 L 2796.998 507.385 L 2802.647 505.084 L 2808.285 502.774 L 2813.912 500.455 L 2818.337 498.523 L 2823.947 496.188 L 2829.547 493.844 L 2833.956 491.888 L 2839.54 489.528 L 2845.114 487.158 L 2850.678 484.779 L 2855.066 482.792 L 2860.097 480.576 L 2865.634 478.171 L 2871.162 475.756 L 2876.681 473.332 L 2881.045 471.304 L 2886.549 468.862 L 2892.043 466.41 L 2897.529 463.949 L 2903.006 461.478 L 2907.347 459.408 L 2912.81 456.918 L 2918.265 454.419 L 2923.711 451.91 L 2929.148 449.391 L 2934.577 446.861 L 2939.997 444.321 L 2945.41 441.771 L 2949.72 439.628 L 2955.121 437.059 L 2959.977 434.667 L 2965.361 432.076 L 2970.737 429.475 L 2976.106 426.863 L 2981.467 424.24 L 2981.24 420.569 L 2981.014 416.888 L 2980.789 413.195 L 2980.566 409.491 L 2980.343 405.775 L 2980.123 402.049 L 2979.903 398.311 L 2979.685 394.562 L 2979.468 390.802 L 2979.252 387.03 L 2979.038 383.247 L 2978.825 379.453 L 2978.613 375.648 L 2978.403 371.831 L 2978.193 368.003 L 2977.986 364.164 L 2977.779 360.313 L 2977.574 356.451 L 2977.37 352.577 L 2977.167 348.692 L 2977.041 346.263 L 2995.729 347.787 L 2993.815 309.187 L 2975.37 312.552 L 2956.909 315.833 L 2954.716 267.139 L 2973.397 268.748 L 2992.071 270.437 L 2990.339 227.885 L 2971.864 231.087 L 2953.379 234.226 L 2952.042 198.431 L 2970.71 200.183 L 2989.372 201.998 L 2987.806 155.852 L 2969.31 158.928 L 2950.804 161.945 L 2949.607 122.934 L 2968.262 124.809 L 2986.913 126.738 L 2985.783 86.199 L 2967.269 89.163 L 2967.043 80.467 L 2966.924 75.83 L 2966.807 71.181 L 2966.69 66.52 L 2966.575 61.847 L 2966.461 57.162 L 2966.349 52.465 L 2966.238 47.756 L 2966.128 43.035 L 2966.02 38.302 L 2965.912 33.557 L 2965.806 28.799 L 2965.702 24.03 L 2965.598 19.248 L 2965.496 14.454 L 2965.395 9.648 L 2965.296 4.83 L 2965.198 0 Z" vector-effect="non-scaling-stroke"/><g id="captions"><text alignment-baseline="middle" text-anchor="middle" transform="rotate(0,1493.28,618.816)" x="1493.28" y="618.816">WIND, 2, 1</text></g></g></svg>