<svg width="644.621" height="215.019" viewBox="0 0 644.621 215.019" xmlns="http://www.w3.org/2000/svg"><g id="svgGroup" stroke-linecap="round" fill-rule="evenodd" font-size="9pt" stroke="#000" stroke-width="0.25mm" fill="none" style="stroke:#000;stroke-width:0.25mm;fill:none"><path d="M 640.492 0 L 639.404 0.308 L 638.316 0.617 L 637.229 0.925 L 636.141 1.234 L 635.054 1.544 L 633.967 1.854 L 632.879 2.164 L 631.793 2.475 L 630.706 2.786 L 629.619 3.097 L 628.533 3.409 L 627.446 3.721 L 626.36 4.034 L 625.274 4.347 L 624.188 4.661 L 623.103 4.974 L 622.017 5.289 L 620.932 5.603 L 619.847 5.918 L 618.762 6.234 L 617.677 6.55 L 616.593 6.866 L 615.508 7.183 L 614.424 7.5 L 613.34 7.818 L 612.256 8.136 L 611.172 8.454 L 610.089 8.773 L 609.006 9.092 L 607.923 9.412 L 606.84 9.732 L 605.757 10.053 L 604.675 10.374 L 603.593 10.695 L 602.51 11.017 L 601.429 11.339 L 600.347 11.662 L 599.266 11.985 L 598.185 12.308 L 597.104 12.632 L 596.023 12.956 L 594.942 13.281 L 593.862 13.606 L 592.782 13.931 L 591.702 14.257 L 590.623 14.583 L 589.543 14.909 L 588.464 15.236 L 587.385 15.563 L 586.307 15.891 L 585.228 16.219 L 584.15 16.547 L 583.072 16.876 L 581.994 17.205 L 580.917 17.534 L 579.84 17.863 L 578.763 18.193 L 577.686 18.524 L 576.61 18.854 L 575.533 19.185 L 574.457 19.516 L 573.382 19.847 L 572.306 20.179 L 571.231 20.511 L 570.156 20.843 L 569.081 21.176 L 568.007 21.508 L 566.933 21.841 L 565.859 22.175 L 564.785 22.508 L 563.712 22.842 L 562.639 23.175 L 561.566 23.51 L 560.493 23.844 L 559.421 24.178 L 558.349 24.513 L 557.277 24.847 L 556.206 25.182 L 555.134 25.517 L 554.063 25.853 L 552.993 26.188 L 551.922 26.523 L 550.852 26.859 L 549.782 27.195 L 548.713 27.53 L 547.643 27.866 L 546.574 28.202 L 545.505 28.538 L 544.437 28.874 L 543.368 29.21 L 542.3 29.546 L 541.233 29.882 L 540.165 30.218 L 539.098 30.555 L 538.031 30.891 L 536.964 31.227 L 535.898 31.563 L 534.832 31.899 L 533.766 32.235 L 532.7 32.571 L 531.635 32.907 L 530.57 33.243 L 529.505 33.579 L 528.44 33.915 L 527.376 34.25 L 526.312 34.586 L 525.248 34.921 L 524.185 35.257 L 523.121 35.592 L 522.058 35.927 L 520.995 36.262 L 519.933 36.596 L 518.871 36.931 L 517.809 37.265 L 516.747 37.599 L 515.685 37.933 L 514.624 38.267 L 513.563 38.601 L 512.502 38.934 L 511.442 39.267 L 510.381 39.6 L 509.321 39.932 L 508.262 40.265 L 507.202 40.597 L 506.143 40.929 L 505.083 41.26 L 504.025 41.591 L 502.966 41.922 L 501.907 42.253 L 500.849 42.583 L 499.791 42.913 L 498.734 43.243 L 497.676 43.572 L 496.619 43.901 L 495.562 44.23 L 494.505 44.558 L 493.448 44.886 L 492.392 45.213 L 491.335 45.54 L 490.279 45.867 L 489.224 46.193 L 488.168 46.519 L 487.113 46.845 L 486.057 47.17 L 485.002 47.495 L 483.948 47.819 L 482.893 48.143 L 481.839 48.466 L 480.784 48.789 L 479.73 49.112 L 478.677 49.434 L 477.623 49.755 L 476.569 50.076 L 475.516 50.397 L 474.463 50.717 L 473.41 51.037 L 472.357 51.356 L 471.305 51.675 L 470.253 51.993 L 469.2 52.311 L 468.148 52.628 L 467.096 52.945 L 466.045 53.261 L 464.993 53.577 L 463.942 53.892 L 462.891 54.206 L 461.84 54.521 L 460.789 54.834 L 459.738 55.147 L 458.687 55.46 L 457.637 55.772 L 456.587 56.083 L 455.536 56.394 L 454.486 56.704 L 453.437 57.014 L 452.387 57.323 L 451.337 57.631 L 450.288 57.94 L 449.239 58.247 L 448.189 58.554 L 447.14 58.86 L 446.092 59.166 L 445.043 59.471 L 443.994 59.776 L 442.946 60.08 L 441.897 60.383 L 440.849 60.686 L 439.801 60.988 L 438.753 61.29 L 437.705 61.591 L 436.657 61.891 L 435.61 62.191 L 434.562 62.49 L 433.515 62.789 L 432.467 63.087 L 431.42 63.385 L 430.373 63.681 L 429.326 63.978 L 428.279 64.273 L 427.232 64.568 L 426.186 64.863 L 425.139 65.157 L 424.093 65.45 L 423.046 65.743 L 422 66.035 L 420.954 66.326 L 419.908 66.617 L 418.862 66.907 L 417.816 67.196 L 416.77 67.485 L 415.724 67.774 L 414.679 68.062 L 413.633 68.349 L 412.587 68.635 L 411.542 68.921 L 410.497 69.206 L 409.452 69.491 L 408.406 69.775 L 407.361 70.058 L 406.316 70.341 L 405.271 70.624 L 404.227 70.905 L 403.182 71.186 L 402.137 71.467 L 401.093 71.746 L 400.048 72.025 L 399.004 72.304 L 397.959 72.582 L 396.915 72.859 L 395.87 73.136 L 394.826 73.412 L 393.782 73.688 L 392.738 73.963 L 391.694 74.237 L 390.65 74.511 L 389.606 74.784 L 388.562 75.056 L 387.519 75.328 L 386.475 75.599 L 385.431 75.87 L 384.388 76.14 L 383.344 76.41 L 382.3 76.679 L 381.257 76.947 L 380.214 77.215 L 379.17 77.482 L 378.127 77.748 L 377.084 78.014 L 376.041 78.28 L 374.997 78.544 L 373.954 78.809 L 372.911 79.072 L 371.868 79.335 L 370.825 79.598 L 369.782 79.859 L 368.74 80.121 L 367.697 80.381 L 366.654 80.641 L 365.611 80.901 L 364.568 81.16 L 363.526 81.418 L 362.483 81.676 L 361.441 81.933 L 360.398 82.19 L 359.356 82.446 L 358.313 82.702 L 357.271 82.957 L 356.228 83.211 L 355.186 83.465 L 354.144 83.718 L 353.101 83.971 L 352.059 84.223 L 351.017 84.475 L 349.975 84.726 L 348.932 84.976 L 347.89 85.226 L 346.848 85.476 L 345.806 85.725 L 344.764 85.973 L 343.722 86.221 L 342.68 86.468 L 341.638 86.715 L 340.596 86.961 L 339.554 87.206 L 338.512 87.451 L 337.47 87.696 L 336.429 87.94 L 335.387 88.183 L 334.345 88.426 L 333.303 88.669 L 332.262 88.911 L 331.22 89.152 L 330.178 89.393 L 329.136 89.633 L 328.095 89.873 L 327.053 90.112 L 326.012 90.351 L 324.97 90.59 L 323.928 90.827 L 322.887 91.065 L 321.845 91.301 L 320.804 91.538 L 319.762 91.773 L 318.721 92.009 L 317.679 92.243 L 316.638 92.477 L 315.597 92.711 L 314.555 92.944 L 313.514 93.177 L 312.473 93.409 L 311.431 93.641 L 310.39 93.873 L 309.349 94.103 L 308.307 94.334 L 307.266 94.563 L 306.225 94.793 L 305.183 95.022 L 304.142 95.25 L 303.101 95.478 L 302.06 95.705 L 301.018 95.932 L 299.977 96.159 L 298.936 96.385 L 297.895 96.61 L 296.854 96.835 L 295.813 97.06 L 294.772 97.284 L 293.73 97.508 L 292.689 97.731 L 291.648 97.954 L 290.607 98.176 L 289.566 98.398 L 288.525 98.62 L 287.484 98.841 L 286.443 99.061 L 285.402 99.281 L 284.361 99.501 L 283.32 99.72 L 282.279 99.939 L 281.238 100.157 L 280.197 100.375 L 279.156 100.592 L 278.115 100.809 L 277.074 101.026 L 276.033 101.242 L 274.992 101.458 L 273.951 101.673 L 272.91 101.888 L 271.869 102.102 L 270.828 102.316 L 269.787 102.53 L 268.746 102.743 L 267.705 102.956 L 266.664 103.168 L 265.623 103.38 L 264.582 103.591 L 263.542 103.802 L 262.501 104.013 L 261.46 104.223 L 260.419 104.433 L 259.378 104.642 L 258.337 104.852 L 257.296 105.06 L 256.255 105.268 L 255.214 105.476 L 254.174 105.684 L 253.133 105.891 L 252.092 106.097 L 251.051 106.304 L 250.01 106.509 L 248.969 106.715 L 247.928 106.92 L 246.888 107.125 L 245.847 107.329 L 244.806 107.533 L 243.765 107.736 L 242.724 107.94 L 241.683 108.142 L 240.643 108.345 L 239.602 108.547 L 238.561 108.748 L 237.52 108.95 L 236.479 109.151 L 235.439 109.351 L 234.398 109.551 L 233.357 109.751 L 232.316 109.95 L 231.275 110.15 L 230.234 110.348 L 229.194 110.547 L 228.153 110.745 L 227.112 110.942 L 226.071 111.139 L 225.03 111.336 L 223.99 111.533 L 222.949 111.729 L 221.908 111.925 L 220.867 112.12 L 219.826 112.316 L 218.785 112.51 L 217.745 112.705 L 216.704 112.899 L 215.663 113.093 L 214.622 113.286 L 213.581 113.479 L 212.541 113.672 L 211.5 113.864 L 210.459 114.056 L 209.418 114.248 L 208.377 114.44 L 207.337 114.631 L 206.296 114.821 L 205.255 115.012 L 204.214 115.202 L 203.173 115.392 L 202.132 115.581 L 201.092 115.77 L 200.051 115.959 L 199.01 116.147 L 197.969 116.336 L 196.928 116.523 L 195.887 116.711 L 194.847 116.898 L 193.806 117.085 L 192.765 117.272 L 191.724 117.458 L 190.683 117.644 L 189.642 117.829 L 188.602 118.015 L 187.561 118.2 L 186.52 118.384 L 185.479 118.569 L 184.438 118.753 L 183.397 118.937 L 182.356 119.12 L 181.316 119.303 L 180.275 119.486 L 179.234 119.669 L 178.193 119.851 L 177.152 120.033 L 176.111 120.215 L 175.07 120.396 L 174.029 120.577 L 172.989 120.758 L 171.948 120.939 L 170.907 121.119 L 169.866 121.299 L 168.825 121.479 L 167.784 121.658 L 166.743 121.837 L 165.702 122.016 L 164.661 122.195 L 163.621 122.373 L 162.58 122.551 L 161.539 122.729 L 160.498 122.906 L 159.457 123.083 L 158.416 123.26 L 157.375 123.437 L 156.334 123.613 L 155.293 123.789 L 154.252 123.965 L 153.211 124.14 L 152.17 124.316 L 151.129 124.491 L 150.088 124.665 L 149.048 124.84 L 148.007 125.014 L 146.966 125.188 L 145.925 125.362 L 144.884 125.535 L 143.843 125.708 L 142.802 125.881 L 141.761 126.054 L 140.72 126.226 L 139.679 126.398 L 138.638 126.57 L 137.597 126.742 L 136.556 126.913 L 135.515 127.084 L 134.474 127.255 L 133.433 127.426 L 132.392 127.596 L 131.351 127.766 L 130.31 127.936 L 129.269 128.106 L 128.228 128.275 L 127.187 128.444 L 126.146 128.613 L 125.105 128.782 L 124.064 128.95 L 123.023 129.119 L 121.981 129.287 L 120.94 129.454 L 119.899 129.622 L 118.858 129.789 L 117.817 129.956 L 116.776 130.123 L 115.735 130.289 L 114.694 130.456 L 113.653 130.622 L 112.612 130.788 L 111.571 130.953 L 110.53 131.119 L 109.489 131.284 L 108.448 131.449 L 107.406 131.614 L 106.365 131.778 L 105.324 131.942 L 104.283 132.107 L 103.242 132.27 L 102.201 132.434 L 101.16 132.597 L 100.119 132.761 L 99.077 132.924 L 98.036 133.086 L 96.995 133.249 L 95.954 133.411 L 94.913 133.573 L 93.872 133.735 L 92.831 133.897 L 91.789 134.058 L 90.748 134.22 L 89.707 134.381 L 88.666 134.542 L 87.625 134.702 L 86.584 134.863 L 85.542 135.023 L 84.501 135.183 L 83.46 135.343 L 82.419 135.502 L 81.378 135.662 L 80.336 135.821 L 79.295 135.98 L 78.254 136.139 L 77.213 136.298 L 76.172 136.456 L 75.13 136.614 L 74.089 136.772 L 73.048 136.93 L 72.007 137.088 L 70.965 137.245 L 69.924 137.402 L 68.883 137.56 L 67.842 137.716 L 66.8 137.873 L 65.759 138.03 L 64.718 138.186 L 63.677 138.342 L 62.635 138.498 L 61.594 138.654 L 60.553 138.809 L 59.512 138.965 L 58.47 139.12 L 57.429 139.275 L 56.388 139.43 L 55.346 139.584 L 54.305 139.739 L 53.264 139.893 L 52.222 140.047 L 51.181 140.201 L 50.14 140.355 L 49.098 140.508 L 48.057 140.662 L 47.016 140.815 L 45.974 140.968 L 44.933 141.121 L 43.892 141.274 L 42.85 141.426 L 41.809 141.579 L 40.768 141.731 L 39.726 141.883 L 38.685 142.035 L 37.644 142.186 L 36.602 142.338 L 35.561 142.489 L 34.52 142.64 L 33.478 142.791 L 32.437 142.942 L 31.395 143.093 L 30.354 143.243 L 29.313 143.394 L 28.271 143.544 L 27.23 143.694 L 26.188 143.844 L 25.147 143.994 L 24.106 144.143 L 23.064 144.292 L 22.023 144.442 L 20.981 144.591 L 19.94 144.74 L 18.899 144.888 L 17.857 145.037 L 16.816 145.185 L 15.774 145.334 L 14.733 145.482 L 13.691 145.63 L 12.65 145.778 L 11.608 145.925 L 10.567 146.073 L 9.525 146.22 L 8.484 146.368 L 7.443 146.515 L 6.401 146.662 L 5.36 146.808 L 4.318 146.955 L 3.277 147.102 L 3.28 147.163 L 3.283 147.224 L 3.287 147.286 L 3.29 147.347 L 3.293 147.408 L 3.297 147.469 L 3.3 147.531 L 3.303 147.592 L 3.307 147.653 L 3.31 147.714 L 3.313 147.776 L 3.317 147.837 L 3.32 147.898 L 3.323 147.959 L 3.327 148.02 L 3.33 148.081 L 3.333 148.142 L 3.337 148.203 L 3.34 148.264 L 3.343 148.326 L 3.347 148.387 L 3.35 148.448 L 3.353 148.509 L 3.357 148.57 L 3.36 148.631 L 3.363 148.691 L 3.366 148.752 L 3.37 148.813 L 3.373 148.874 L 3.376 148.935 L 3.38 148.996 L 3.383 149.057 L 3.386 149.118 L 3.39 149.179 L 3.393 149.239 L 3.396 149.3 L 3.4 149.361 L 3.403 149.422 L 3.406 149.482 L 3.409 149.543 L 3.413 149.604 L 3.416 149.665 L 3.419 149.725 L 3.423 149.786 L 3.426 149.847 L 3.429 149.907 L 3.433 149.968 L 3.436 150.028 L 3.439 150.089 L 3.443 150.15 L 3.446 150.21 L 3.449 150.271 L 3.452 150.331 L 3.456 150.392 L 3.459 150.452 L 3.462 150.513 L 3.466 150.573 L 3.469 150.634 L 3.472 150.694 L 3.475 150.755 L 3.479 150.815 L 3.482 150.875 L 3.485 150.936 L 3.489 150.996 L 3.492 151.056 L 3.495 151.117 L 3.498 151.177 L 3.502 151.237 L 3.505 151.298 L 3.508 151.358 L 3.512 151.418 L 3.515 151.478 L 3.518 151.539 L 3.521 151.599 L 3.525 151.659 L 3.528 151.719 L 3.531 151.779 L 3.535 151.839 L 3.538 151.9 L 3.541 151.96 L 3.544 152.02 L 3.548 152.08 L 3.551 152.14 L 3.554 152.2 L 3.558 152.26 L 3.561 152.32 L 3.564 152.38 L 3.567 152.44 L 3.571 152.5 L 3.574 152.56 L 3.577 152.62 L 3.58 152.68 L 3.584 152.74 L 3.587 152.8 L 3.59 152.859 L 3.593 152.919 L 3.597 152.979 L 3.6 153.039 L 3.603 153.099 L 3.607 153.159 L 3.61 153.218 L 3.613 153.278 L 3.616 153.338 L 3.62 153.398 L 3.623 153.457 L 3.626 153.517 L 3.629 153.577 L 3.633 153.636 L 3.636 153.696 L 3.639 153.756 L 3.642 153.815 L 3.646 153.875 L 3.649 153.934 L 3.652 153.994 L 3.655 154.054 L 3.659 154.113 L 3.662 154.173 L 3.665 154.232 L 3.668 154.292 L 3.672 154.351 L 3.675 154.411 L 3.678 154.47 L 3.681 154.53 L 3.685 154.589 L 3.688 154.648 L 3.691 154.708 L 3.694 154.767 L 3.698 154.827 L 3.701 154.886 L 3.704 154.945 L 3.707 155.005 L 3.711 155.064 L 3.714 155.123 L 3.717 155.182 L 3.72 155.242 L 3.723 155.294 L 0 154.846 L 0.478 163.568 L 4.13 162.716 L 7.781 161.863 L 8.264 170.642 L 4.541 170.194 L 0.818 169.748 L 1.305 178.537 L 4.956 177.683 L 8.607 176.827 L 9.101 185.684 L 5.378 185.24 L 1.654 184.797 L 2.147 193.571 L 5.798 192.714 L 5.802 192.781 L 5.805 192.83 L 5.807 192.88 L 5.81 192.929 L 5.813 192.978 L 5.816 193.027 L 5.819 193.076 L 5.821 193.125 L 5.824 193.174 L 5.827 193.223 L 5.83 193.273 L 5.832 193.322 L 5.835 193.371 L 5.838 193.42 L 5.841 193.469 L 5.843 193.518 L 5.846 193.567 L 5.849 193.616 L 5.852 193.665 L 5.855 193.714 L 5.857 193.762 L 5.86 193.811 L 5.863 193.86 L 5.866 193.909 L 5.868 193.958 L 5.871 194.007 L 5.874 194.056 L 5.877 194.105 L 5.879 194.153 L 5.882 194.202 L 5.885 194.251 L 5.888 194.3 L 5.89 194.349 L 5.893 194.397 L 5.896 194.446 L 5.899 194.495 L 5.902 194.544 L 5.904 194.592 L 5.907 194.641 L 5.91 194.69 L 5.913 194.738 L 5.915 194.787 L 5.918 194.836 L 5.921 194.884 L 5.924 194.933 L 5.926 194.982 L 5.929 195.03 L 5.932 195.079 L 5.935 195.127 L 5.937 195.176 L 5.94 195.224 L 5.943 195.273 L 5.946 195.321 L 5.948 195.37 L 5.951 195.418 L 5.954 195.467 L 5.957 195.515 L 5.959 195.564 L 5.962 195.612 L 5.965 195.661 L 5.968 195.709 L 5.97 195.757 L 5.973 195.806 L 5.976 195.854 L 5.979 195.903 L 5.981 195.951 L 5.984 195.999 L 5.987 196.048 L 5.99 196.096 L 5.992 196.144 L 5.995 196.192 L 5.998 196.241 L 6 196.289 L 6.003 196.337 L 6.006 196.385 L 6.009 196.434 L 6.011 196.482 L 6.014 196.53 L 6.017 196.578 L 6.02 196.626 L 6.022 196.674 L 6.025 196.723 L 6.028 196.771 L 6.031 196.819 L 6.033 196.867 L 6.036 196.915 L 6.039 196.963 L 6.041 197.011 L 6.044 197.059 L 6.047 197.107 L 6.05 197.155 L 6.052 197.203 L 6.055 197.251 L 6.058 197.299 L 6.061 197.347 L 6.063 197.395 L 6.066 197.443 L 6.069 197.491 L 6.071 197.539 L 6.074 197.587 L 6.077 197.635 L 6.08 197.683 L 6.082 197.73 L 6.085 197.778 L 6.088 197.826 L 6.091 197.874 L 6.093 197.922 L 6.096 197.97 L 6.099 198.017 L 6.101 198.065 L 6.104 198.113 L 6.107 198.161 L 6.11 198.208 L 6.112 198.256 L 6.115 198.304 L 6.118 198.352 L 6.12 198.399 L 6.123 198.447 L 6.126 198.495 L 6.129 198.542 L 6.131 198.59 L 6.134 198.637 L 6.137 198.685 L 6.139 198.733 L 6.142 198.78 L 6.145 198.828 L 6.148 198.875 L 6.15 198.923 L 6.153 198.97 L 6.156 199.018 L 6.158 199.065 L 6.161 199.113 L 6.164 199.16 L 6.166 199.208 L 6.169 199.255 L 6.172 199.303 L 6.175 199.35 L 6.177 199.398 L 6.18 199.445 L 6.183 199.492 L 6.185 199.54 L 6.188 199.587 L 6.191 199.635 L 6.194 199.682 L 6.196 199.729 L 6.199 199.777 L 6.202 199.824 L 6.204 199.871 L 6.207 199.918 L 6.21 199.966 L 6.212 200.013 L 6.215 200.06 L 6.218 200.107 L 6.22 200.155 L 6.223 200.202 L 6.226 200.249 L 6.229 200.296 L 6.231 200.343 L 6.234 200.391 L 6.237 200.438 L 6.239 200.485 L 6.242 200.532 L 6.245 200.579 L 6.247 200.626 L 6.25 200.673 L 6.253 200.72 L 6.255 200.767 L 6.258 200.814 L 6.261 200.861 L 6.264 200.908 L 6.266 200.955 L 6.266 200.951 L 6.267 200.966 L 6.268 200.98 L 6.269 200.995 L 6.27 201.01 L 6.271 201.024 L 6.271 201.039 L 6.272 201.054 L 6.273 201.068 L 6.274 201.083 L 6.275 201.098 L 6.276 201.112 L 6.276 201.127 L 6.277 201.141 L 6.278 201.156 L 6.279 201.171 L 6.28 201.185 L 6.281 201.2 L 6.281 201.215 L 6.282 201.229 L 6.283 201.244 L 6.284 201.259 L 6.285 201.273 L 6.286 201.288 L 6.286 201.303 L 6.287 201.317 L 6.288 201.332 L 6.289 201.346 L 6.29 201.361 L 6.291 201.376 L 6.291 201.39 L 6.292 201.405 L 6.293 201.42 L 6.294 201.434 L 6.295 201.449 L 6.296 201.463 L 6.296 201.478 L 6.297 201.493 L 6.298 201.507 L 6.299 201.522 L 6.3 201.537 L 6.301 201.551 L 6.302 201.566 L 6.302 201.58 L 6.303 201.595 L 6.304 201.61 L 6.305 201.624 L 6.306 201.639 L 6.307 201.653 L 6.307 201.668 L 6.308 201.683 L 6.309 201.697 L 6.31 201.712 L 6.311 201.727 L 6.312 201.741 L 6.312 201.756 L 6.313 201.77 L 6.314 201.785 L 6.315 201.8 L 6.316 201.814 L 6.317 201.829 L 6.317 201.843 L 6.318 201.858 L 6.319 201.872 L 6.32 201.887 L 6.321 201.902 L 6.322 201.916 L 6.322 201.931 L 6.323 201.945 L 6.324 201.96 L 6.325 201.975 L 6.326 201.989 L 6.327 202.004 L 6.327 202.018 L 6.328 202.033 L 6.329 202.047 L 6.33 202.062 L 6.331 202.077 L 6.332 202.091 L 6.332 202.106 L 6.333 202.12 L 6.334 202.135 L 6.335 202.149 L 6.336 202.164 L 6.337 202.179 L 6.337 202.193 L 6.338 202.208 L 6.339 202.222 L 6.34 202.237 L 6.341 202.251 L 6.342 202.266 L 6.342 202.281 L 6.343 202.295 L 6.344 202.31 L 6.345 202.324 L 6.346 202.339 L 6.347 202.353 L 6.347 202.368 L 6.348 202.382 L 6.349 202.397 L 6.35 202.411 L 6.351 202.426 L 6.352 202.441 L 6.352 202.455 L 6.353 202.47 L 6.354 202.484 L 6.355 202.499 L 6.356 202.513 L 6.357 202.528 L 6.357 202.542 L 6.358 202.557 L 6.359 202.571 L 6.36 202.586 L 6.361 202.6 L 6.362 202.615 L 6.362 202.63 L 6.363 202.644 L 6.364 202.659 L 6.365 202.673 L 6.366 202.688 L 6.367 202.702 L 6.367 202.717 L 6.368 202.731 L 6.369 202.746 L 6.37 202.76 L 6.371 202.775 L 6.372 202.789 L 6.372 202.804 L 6.373 202.818 L 6.374 202.833 L 6.375 202.847 L 6.376 202.862 L 6.377 202.876 L 6.377 202.891 L 6.378 202.905 L 6.379 202.92 L 6.38 202.934 L 6.381 202.949 L 6.382 202.963 L 6.382 202.978 L 6.383 202.992 L 6.384 203.007 L 6.385 203.021 L 6.386 203.036 L 6.387 203.05 L 6.387 203.065 L 6.388 203.079 L 6.389 203.094 L 6.39 203.108 L 6.391 203.123 L 6.392 203.137 L 6.392 203.152 L 6.393 203.166 L 6.394 203.181 L 6.395 203.195 L 6.396 203.21 L 6.396 203.224 L 6.397 203.239 L 6.398 203.253 L 6.399 203.268 L 6.4 203.282 L 6.401 203.296 L 6.401 203.311 L 6.402 203.325 L 6.403 203.34 L 6.404 203.354 L 6.405 203.369 L 6.406 203.383 L 6.406 203.398 L 6.407 203.412 L 6.408 203.427 L 6.409 203.441 L 6.41 203.456 L 6.411 203.47 L 6.411 203.485 L 6.412 203.499 L 6.413 203.513 L 6.414 203.528 L 6.415 203.542 L 6.416 203.557 L 6.416 203.571 L 6.417 203.586 L 6.418 203.6 L 6.419 203.615 L 6.42 203.629 L 6.421 203.643 L 6.421 203.658 L 6.422 203.672 L 6.423 203.687 L 6.424 203.701 L 6.425 203.716 L 6.426 203.73 L 6.426 203.745 L 6.427 203.759 L 6.428 203.773 L 6.429 203.788 L 6.43 203.802 L 6.43 203.817 L 6.431 203.831 L 6.432 203.846 L 6.433 203.86 L 6.434 203.874 L 6.435 203.889 L 6.435 203.903 L 6.436 203.918 L 6.437 203.932 L 6.438 203.946 L 6.439 203.961 L 6.44 203.975 L 6.44 203.99 L 6.441 204.004 L 6.442 204.019 L 6.443 204.033 L 6.444 204.047 L 6.445 204.062 L 6.445 204.076 L 6.446 204.091 L 6.447 204.105 L 6.448 204.119 L 6.449 204.134 L 6.45 204.148 L 6.45 204.163 L 6.451 204.177 L 6.452 204.191 L 6.453 204.206 L 6.454 204.22 L 6.454 204.235 L 6.455 204.249 L 6.456 204.263 L 6.457 204.278 L 6.458 204.292 L 6.459 204.307 L 6.459 204.321 L 6.46 204.335 L 6.461 204.35 L 6.462 204.364 L 6.463 204.378 L 6.464 204.393 L 6.464 204.407 L 6.465 204.422 L 6.466 204.436 L 6.467 204.45 L 6.468 204.465 L 6.469 204.479 L 6.469 204.494 L 6.47 204.508 L 6.471 204.522 L 6.472 204.537 L 6.473 204.551 L 6.473 204.565 L 6.474 204.58 L 6.475 204.594 L 6.476 204.608 L 6.477 204.623 L 6.478 204.637 L 6.478 204.652 L 6.479 204.666 L 6.48 204.68 L 6.481 204.695 L 6.482 204.709 L 6.483 204.723 L 6.483 204.738 L 6.484 204.752 L 6.485 204.766 L 6.486 204.781 L 6.487 204.795 L 6.488 204.809 L 6.488 204.824 L 6.489 204.838 L 6.49 204.852 L 6.491 204.867 L 6.492 204.881 L 6.492 204.895 L 6.493 204.91 L 6.494 204.924 L 6.495 204.939 L 6.496 204.953 L 6.497 204.967 L 6.497 204.982 L 6.498 204.996 L 6.499 205.01 L 6.5 205.025 L 6.501 205.039 L 6.502 205.053 L 6.502 205.067 L 6.503 205.082 L 6.504 205.096 L 6.505 205.11 L 6.506 205.125 L 6.506 205.139 L 6.507 205.153 L 6.508 205.168 L 6.509 205.182 L 6.51 205.196 L 6.511 205.211 L 6.511 205.225 L 6.512 205.239 L 6.513 205.254 L 6.514 205.268 L 6.515 205.282 L 6.516 205.297 L 6.516 205.311 L 6.517 205.325 L 6.518 205.339 L 6.519 205.354 L 6.52 205.368 L 6.52 205.382 L 6.521 205.397 L 6.522 205.411 L 6.523 205.425 L 6.524 205.44 L 6.525 205.454 L 6.525 205.468 L 6.526 205.482 L 6.527 205.497 L 6.528 205.511 L 6.529 205.525 L 6.53 205.54 L 6.53 205.554 L 6.531 205.568 L 6.532 205.582 L 6.533 205.597 L 6.534 205.611 L 6.534 205.625 L 6.535 205.64 L 6.536 205.654 L 6.537 205.668 L 6.538 205.682 L 6.539 205.697 L 6.539 205.711 L 6.54 205.725 L 6.541 205.739 L 6.542 205.754 L 6.543 205.768 L 6.543 205.782 L 6.544 205.797 L 6.545 205.811 L 6.546 205.825 L 6.547 205.839 L 6.548 205.854 L 6.548 205.868 L 6.549 205.882 L 6.55 205.896 L 6.551 205.911 L 6.552 205.925 L 6.553 205.939 L 6.553 205.953 L 6.554 205.968 L 6.555 205.982 L 6.556 205.996 L 6.557 206.01 L 6.557 206.025 L 6.558 206.039 L 6.559 206.053 L 6.56 206.067 L 6.561 206.082 L 6.562 206.096 L 6.562 206.11 L 6.563 206.124 L 6.564 206.139 L 6.565 206.153 L 6.566 206.167 L 6.566 206.181 L 6.567 206.196 L 6.568 206.21 L 6.569 206.224 L 6.57 206.238 L 6.571 206.252 L 6.571 206.267 L 6.572 206.281 L 6.573 206.295 L 6.574 206.309 L 6.575 206.324 L 6.575 206.338 L 6.576 206.352 L 6.577 206.366 L 6.578 206.38 L 6.579 206.395 L 6.58 206.409 L 6.58 206.423 L 6.581 206.437 L 6.582 206.452 L 6.583 206.466 L 6.584 206.48 L 6.585 206.494 L 6.585 206.508 L 6.586 206.523 L 6.587 206.537 L 6.588 206.551 L 6.589 206.565 L 6.589 206.579 L 6.59 206.594 L 6.591 206.608 L 6.592 206.622 L 6.593 206.636 L 6.594 206.65 L 6.594 206.665 L 6.595 206.679 L 6.596 206.693 L 6.597 206.707 L 6.598 206.721 L 6.598 206.736 L 6.599 206.75 L 6.6 206.764 L 6.601 206.778 L 6.602 206.792 L 6.603 206.807 L 6.603 206.821 L 6.604 206.835 L 6.605 206.849 L 6.606 206.863 L 6.607 206.877 L 6.607 206.892 L 6.608 206.906 L 6.609 206.92 L 6.61 206.934 L 6.611 206.948 L 6.612 206.962 L 6.612 206.977 L 6.613 206.991 L 6.614 207.005 L 6.615 207.019 L 6.616 207.033 L 6.616 207.047 L 6.617 207.062 L 6.618 207.076 L 6.619 207.09 L 6.62 207.104 L 6.62 207.118 L 6.621 207.132 L 6.622 207.147 L 6.623 207.161 L 6.624 207.175 L 6.625 207.189 L 6.625 207.203 L 6.626 207.217 L 6.627 207.231 L 6.628 207.246 L 6.629 207.26 L 6.629 207.274 L 6.63 207.288 L 6.631 207.302 L 6.632 207.316 L 6.633 207.33 L 6.634 207.345 L 6.634 207.359 L 6.635 207.373 L 6.636 207.387 L 6.637 207.401 L 6.638 207.415 L 6.638 207.429 L 6.639 207.444 L 6.64 207.458 L 6.641 207.472 L 6.642 207.486 L 6.643 207.5 L 6.643 207.514 L 6.644 207.528 L 6.645 207.542 L 6.646 207.557 L 6.647 207.571 L 6.647 207.585 L 6.648 207.599 L 6.649 207.613 L 6.65 207.627 L 6.651 207.641 L 6.651 207.655 L 6.652 207.67 L 6.653 207.684 L 6.654 207.698 L 6.655 207.712 L 6.656 207.726 L 6.656 207.74 L 6.657 207.754 L 6.658 207.768 L 6.659 207.782 L 6.66 207.796 L 6.66 207.811 L 6.661 207.825 L 6.662 207.839 L 6.663 207.853 L 6.664 207.867 L 6.665 207.881 L 6.665 207.895 L 6.666 207.909 L 6.667 207.923 L 6.668 207.937 L 6.669 207.952 L 6.669 207.966 L 6.67 207.98 L 6.671 207.994 L 6.672 208.008 L 6.673 208.022 L 6.673 208.036 L 6.674 208.05 L 6.675 208.064 L 6.676 208.078 L 6.677 208.092 L 6.678 208.106 L 6.678 208.121 L 6.679 208.135 L 6.68 208.149 L 6.681 208.163 L 6.682 208.177 L 6.682 208.191 L 6.683 208.205 L 6.684 208.219 L 6.685 208.233 L 6.686 208.247 L 6.687 208.261 L 6.687 208.275 L 6.688 208.289 L 6.689 208.303 L 6.69 208.318 L 6.691 208.332 L 6.691 208.346 L 6.692 208.36 L 6.693 208.374 L 6.694 208.388 L 6.695 208.402 L 6.695 208.416 L 6.696 208.43 L 6.697 208.444 L 6.698 208.458 L 6.699 208.472 L 6.7 208.486 L 6.7 208.5 L 6.701 208.514 L 6.702 208.528 L 6.703 208.542 L 6.704 208.556 L 6.704 208.57 L 6.705 208.584 L 6.706 208.598 L 6.707 208.613 L 6.708 208.627 L 6.708 208.641 L 6.709 208.655 L 6.71 208.669 L 6.711 208.683 L 6.712 208.697 L 6.712 208.711 L 6.713 208.725 L 6.714 208.739 L 6.715 208.753 L 6.716 208.767 L 6.717 208.781 L 6.717 208.795 L 6.718 208.809 L 6.719 208.823 L 6.72 208.837 L 6.721 208.851 L 6.721 208.865 L 6.722 208.879 L 6.723 208.893 L 6.724 208.907 L 6.725 208.921 L 6.725 208.935 L 6.726 208.949 L 6.727 208.963 L 6.728 208.977 L 6.729 208.991 L 6.73 209.005 L 6.73 209.019 L 6.731 209.033 L 6.732 209.047 L 6.733 209.061 L 6.734 209.075 L 6.734 209.089 L 6.735 209.103 L 6.736 209.117 L 6.737 209.131 L 6.738 209.145 L 6.738 209.159 L 6.739 209.173 L 6.74 209.187 L 6.741 209.201 L 6.742 209.215 L 6.742 209.229 L 6.743 209.243 L 6.744 209.257 L 6.745 209.271 L 6.746 209.285 L 6.747 209.299 L 6.747 209.313 L 6.748 209.327 L 6.749 209.341 L 6.75 209.355 L 6.751 209.369 L 6.751 209.383 L 6.752 209.397 L 6.753 209.411 L 6.754 209.425 L 6.755 209.439 L 6.755 209.453 L 6.756 209.467 L 6.757 209.481 L 6.758 209.495 L 6.759 209.509 L 6.759 209.522 L 6.76 209.536 L 6.761 209.55 L 6.762 209.564 L 6.763 209.578 L 6.764 209.592 L 6.764 209.606 L 6.765 209.62 L 6.766 209.634 L 6.767 209.648 L 6.768 209.662 L 6.768 209.676 L 6.769 209.69 L 6.77 209.704 L 6.771 209.718 L 6.772 209.732 L 6.772 209.746 L 6.773 209.76 L 6.774 209.774 L 6.775 209.788 L 6.776 209.801 L 6.776 209.815 L 6.777 209.829 L 6.778 209.843 L 6.779 209.857 L 6.78 209.871 L 6.78 209.885 L 6.781 209.899 L 6.782 209.913 L 6.783 209.927 L 6.784 209.941 L 6.785 209.955 L 6.785 209.969 L 6.786 209.983 L 6.787 209.997 L 6.788 210.01 L 6.789 210.024 L 6.789 210.038 L 6.79 210.052 L 6.791 210.066 L 6.792 210.08 L 6.793 210.094 L 6.793 210.108 L 6.794 210.122 L 6.795 210.136 L 6.796 210.15 L 6.797 210.164 L 6.797 210.177 L 6.798 210.191 L 6.799 210.205 L 6.8 210.219 L 6.801 210.233 L 6.801 210.247 L 6.802 210.261 L 6.803 210.275 L 6.804 210.289 L 6.805 210.303 L 6.806 210.317 L 6.806 210.33 L 6.807 210.344 L 6.808 210.358 L 6.809 210.372 L 6.81 210.386 L 6.81 210.4 L 6.811 210.414 L 6.812 210.428 L 6.813 210.442 L 6.814 210.455 L 6.814 210.469 L 6.815 210.483 L 6.816 210.497 L 6.817 210.511 L 6.818 210.525 L 6.818 210.539 L 6.819 210.553 L 6.82 210.567 L 6.821 210.58 L 6.822 210.594 L 6.822 210.608 L 6.823 210.622 L 6.824 210.636 L 6.825 210.65 L 6.826 210.664 L 6.826 210.677 L 6.827 210.691 L 6.828 210.705 L 6.829 210.719 L 6.83 210.733 L 6.83 210.747 L 6.831 210.761 L 6.832 210.775 L 6.833 210.788 L 6.834 210.802 L 6.834 210.816 L 6.835 210.83 L 6.836 210.844 L 6.837 210.858 L 6.838 210.872 L 6.839 210.885 L 6.839 210.899 L 6.84 210.913 L 6.841 210.927 L 6.842 210.941 L 6.843 210.955 L 6.843 210.969 L 6.844 210.982 L 6.845 210.996 L 6.846 211.01 L 6.847 211.024 L 6.847 211.038 L 6.848 211.052 L 6.849 211.065 L 6.85 211.079 L 6.851 211.093 L 6.851 211.107 L 6.852 211.121 L 6.853 211.135 L 6.854 211.148 L 6.855 211.162 L 6.855 211.176 L 6.856 211.19 L 6.857 211.204 L 6.858 211.218 L 6.859 211.231 L 6.859 211.245 L 6.86 211.259 L 6.861 211.273 L 6.862 211.287 L 6.863 211.301 L 6.863 211.314 L 6.864 211.328 L 6.865 211.342 L 6.866 211.356 L 6.867 211.37 L 6.867 211.383 L 6.868 211.397 L 6.869 211.411 L 6.87 211.425 L 6.871 211.439 L 6.871 211.452 L 6.872 211.466 L 6.873 211.48 L 6.874 211.494 L 6.875 211.508 L 6.875 211.521 L 6.876 211.535 L 6.877 211.549 L 6.878 211.563 L 6.879 211.577 L 6.879 211.59 L 6.88 211.604 L 6.881 211.618 L 6.882 211.632 L 6.883 211.646 L 6.883 211.659 L 6.884 211.673 L 6.885 211.687 L 6.886 211.701 L 6.887 211.715 L 6.887 211.728 L 6.888 211.742 L 6.889 211.756 L 6.89 211.77 L 6.891 211.784 L 6.891 211.797 L 6.892 211.811 L 6.893 211.825 L 6.894 211.839 L 6.895 211.852 L 6.896 211.866 L 6.896 211.88 L 6.897 211.894 L 6.898 211.907 L 6.899 211.921 L 6.9 211.935 L 6.9 211.949 L 6.901 211.963 L 6.902 211.976 L 6.903 211.99 L 6.904 212.004 L 6.904 212.018 L 6.905 212.031 L 6.906 212.045 L 6.907 212.059 L 6.908 212.073 L 6.908 212.086 L 6.909 212.1 L 6.91 212.114 L 6.911 212.128 L 6.912 212.141 L 6.912 212.155 L 6.913 212.169 L 6.914 212.183 L 6.915 212.196 L 6.916 212.21 L 6.916 212.224 L 6.917 212.238 L 6.918 212.251 L 6.919 212.265 L 6.92 212.279 L 6.92 212.293 L 6.921 212.306 L 6.922 212.32 L 6.923 212.334 L 6.924 212.348 L 6.924 212.361 L 6.925 212.375 L 6.926 212.389 L 6.927 212.403 L 6.928 212.416 L 6.928 212.43 L 6.929 212.444 L 6.93 212.457 L 6.931 212.471 L 6.932 212.485 L 6.932 212.499 L 6.933 212.512 L 6.934 212.526 L 6.935 212.54 L 6.936 212.554 L 6.936 212.567 L 6.937 212.581 L 6.938 212.595 L 6.939 212.608 L 6.939 212.622 L 6.94 212.636 L 6.941 212.65 L 6.942 212.663 L 6.943 212.677 L 6.943 212.691 L 6.944 212.704 L 6.945 212.718 L 6.946 212.732 L 6.947 212.746 L 6.947 212.759 L 6.948 212.773 L 6.949 212.787 L 6.95 212.8 L 6.951 212.814 L 6.951 212.828 L 6.952 212.841 L 6.953 212.855 L 6.954 212.869 L 6.955 212.882 L 6.955 212.896 L 6.956 212.91 L 6.957 212.924 L 6.958 212.937 L 6.959 212.951 L 6.959 212.965 L 6.96 212.978 L 6.961 212.992 L 6.962 213.006 L 6.963 213.019 L 6.963 213.033 L 6.964 213.047 L 6.965 213.06 L 6.966 213.074 L 6.967 213.088 L 6.967 213.101 L 6.968 213.115 L 6.969 213.129 L 6.97 213.142 L 6.971 213.156 L 6.971 213.17 L 6.972 213.183 L 6.973 213.197 L 6.974 213.211 L 6.975 213.225 L 6.975 213.238 L 6.976 213.252 L 6.977 213.265 L 6.978 213.279 L 6.979 213.293 L 6.979 213.306 L 6.98 213.32 L 6.981 213.334 L 6.982 213.347 L 6.983 213.361 L 6.983 213.375 L 6.984 213.388 L 6.985 213.402 L 6.986 213.416 L 6.987 213.429 L 6.987 213.443 L 6.988 213.457 L 6.989 213.47 L 6.99 213.484 L 6.991 213.498 L 6.991 213.511 L 6.992 213.525 L 6.993 213.539 L 6.994 213.552 L 6.994 213.566 L 6.995 213.579 L 6.996 213.593 L 6.997 213.607 L 6.998 213.62 L 6.998 213.634 L 6.999 213.648 L 7 213.661 L 7.001 213.675 L 7.002 213.689 L 7.002 213.702 L 7.003 213.716 L 7.004 213.729 L 7.005 213.743 L 7.006 213.757 L 7.006 213.77 L 7.007 213.784 L 7.008 213.798 L 7.009 213.811 L 7.01 213.825 L 7.01 213.838 L 7.011 213.852 L 7.012 213.866 L 7.013 213.879 L 7.014 213.893 L 7.014 213.906 L 7.015 213.92 L 7.016 213.934 L 7.017 213.947 L 7.018 213.961 L 7.018 213.975 L 7.019 213.988 L 7.02 214.002 L 7.021 214.015 L 7.022 214.029 L 7.022 214.043 L 7.023 214.056 L 7.024 214.07 L 7.025 214.083 L 7.025 214.097 L 7.026 214.111 L 7.027 214.124 L 7.028 214.138 L 7.029 214.151 L 7.029 214.165 L 7.03 214.179 L 7.031 214.192 L 7.032 214.206 L 7.033 214.219 L 7.033 214.233 L 7.034 214.246 L 7.035 214.26 L 7.036 214.274 L 7.037 214.287 L 7.037 214.301 L 7.038 214.314 L 7.039 214.328 L 7.04 214.342 L 7.041 214.355 L 7.041 214.369 L 7.042 214.382 L 7.043 214.396 L 7.044 214.409 L 7.045 214.423 L 7.045 214.437 L 7.046 214.45 L 7.047 214.464 L 7.048 214.477 L 7.048 214.491 L 7.049 214.504 L 7.05 214.518 L 7.051 214.532 L 7.052 214.545 L 7.052 214.559 L 7.053 214.572 L 7.054 214.586 L 7.055 214.599 L 7.056 214.613 L 7.056 214.626 L 7.057 214.64 L 7.058 214.654 L 7.059 214.667 L 7.06 214.681 L 7.06 214.694 L 7.061 214.708 L 7.062 214.721 L 7.063 214.735 L 7.064 214.748 L 7.064 214.762 L 7.065 214.776 L 7.066 214.789 L 7.067 214.803 L 7.068 214.816 L 7.068 214.83 L 7.069 214.843 L 7.07 214.857 L 7.071 214.87 L 7.071 214.884 L 7.072 214.897 L 7.073 214.911 L 7.074 214.924 L 7.075 214.938 L 7.075 214.952 L 7.076 214.965 L 7.077 214.979 L 7.078 214.992 L 7.079 215.006 L 7.079 215.019 L 8.116 214.825 L 9.153 214.63 L 10.191 214.436 L 11.228 214.241 L 12.265 214.046 L 13.302 213.852 L 14.339 213.657 L 15.376 213.462 L 16.413 213.267 L 17.45 213.072 L 18.487 212.877 L 19.524 212.682 L 20.561 212.487 L 21.598 212.291 L 22.635 212.096 L 23.672 211.901 L 24.709 211.705 L 25.746 211.509 L 26.783 211.314 L 27.82 211.118 L 28.857 210.922 L 29.894 210.726 L 30.932 210.53 L 31.969 210.334 L 33.006 210.138 L 34.043 209.941 L 35.08 209.745 L 36.117 209.549 L 37.154 209.352 L 38.191 209.155 L 39.228 208.958 L 40.265 208.761 L 41.302 208.564 L 42.339 208.367 L 43.376 208.17 L 44.413 207.972 L 45.45 207.775 L 46.487 207.577 L 47.524 207.38 L 48.561 207.182 L 49.598 206.984 L 50.635 206.786 L 51.672 206.587 L 52.709 206.389 L 53.746 206.191 L 54.783 205.992 L 55.82 205.793 L 56.857 205.594 L 57.894 205.395 L 58.931 205.196 L 59.968 204.997 L 61.005 204.797 L 62.042 204.598 L 63.079 204.398 L 64.116 204.198 L 65.153 203.998 L 66.19 203.798 L 67.226 203.598 L 68.263 203.397 L 69.3 203.197 L 70.337 202.996 L 71.374 202.795 L 72.411 202.594 L 73.448 202.393 L 74.485 202.191 L 75.522 201.99 L 76.559 201.788 L 77.596 201.586 L 78.633 201.384 L 79.67 201.182 L 80.707 200.979 L 81.743 200.777 L 82.78 200.574 L 83.817 200.371 L 84.854 200.168 L 85.891 199.965 L 86.928 199.761 L 87.965 199.558 L 89.002 199.354 L 90.038 199.15 L 91.075 198.946 L 92.112 198.741 L 93.149 198.537 L 94.186 198.332 L 95.223 198.127 L 96.26 197.922 L 97.296 197.717 L 98.333 197.511 L 99.37 197.305 L 100.407 197.1 L 101.444 196.893 L 102.48 196.687 L 103.517 196.481 L 104.554 196.274 L 105.591 196.067 L 106.628 195.86 L 107.664 195.652 L 108.701 195.445 L 109.738 195.237 L 110.775 195.029 L 111.811 194.821 L 112.848 194.612 L 113.885 194.404 L 114.922 194.195 L 115.958 193.986 L 116.995 193.776 L 118.032 193.567 L 119.069 193.357 L 120.105 193.147 L 121.142 192.937 L 122.179 192.726 L 123.215 192.516 L 124.252 192.305 L 125.289 192.093 L 126.326 191.882 L 127.362 191.67 L 128.399 191.458 L 129.436 191.246 L 130.472 191.034 L 131.509 190.821 L 132.546 190.608 L 133.582 190.395 L 134.619 190.182 L 135.655 189.968 L 136.692 189.754 L 137.729 189.54 L 138.765 189.326 L 139.802 189.111 L 140.839 188.896 L 141.875 188.681 L 142.912 188.466 L 143.948 188.25 L 144.985 188.034 L 146.022 187.818 L 147.058 187.601 L 148.095 187.384 L 149.131 187.167 L 150.168 186.95 L 151.204 186.732 L 152.241 186.514 L 153.277 186.296 L 154.314 186.078 L 155.351 185.859 L 156.387 185.64 L 157.424 185.421 L 158.46 185.201 L 159.497 184.981 L 160.533 184.761 L 161.57 184.541 L 162.606 184.32 L 163.643 184.099 L 164.679 183.877 L 165.715 183.656 L 166.752 183.434 L 167.788 183.212 L 168.825 182.989 L 169.861 182.766 L 170.898 182.543 L 171.934 182.319 L 172.971 182.096 L 174.007 181.871 L 175.043 181.647 L 176.08 181.422 L 177.116 181.197 L 178.153 180.972 L 179.189 180.746 L 180.225 180.52 L 181.262 180.294 L 182.298 180.067 L 183.335 179.84 L 184.371 179.613 L 185.407 179.385 L 186.444 179.157 L 187.48 178.929 L 188.516 178.7 L 189.553 178.471 L 190.589 178.241 L 191.625 178.012 L 192.662 177.782 L 193.698 177.551 L 194.734 177.32 L 195.771 177.089 L 196.807 176.858 L 197.843 176.626 L 198.879 176.394 L 199.916 176.161 L 200.952 175.929 L 201.988 175.695 L 203.025 175.462 L 204.061 175.228 L 205.097 174.993 L 206.133 174.759 L 207.17 174.524 L 208.206 174.288 L 209.242 174.052 L 210.278 173.816 L 211.315 173.579 L 212.351 173.343 L 213.387 173.105 L 214.423 172.867 L 215.459 172.629 L 216.496 172.391 L 217.532 172.152 L 218.568 171.913 L 219.604 171.673 L 220.64 171.433 L 221.677 171.193 L 222.713 170.952 L 223.749 170.71 L 224.785 170.469 L 225.821 170.227 L 226.857 169.984 L 227.894 169.741 L 228.93 169.498 L 229.966 169.254 L 231.002 169.01 L 232.038 168.766 L 233.074 168.521 L 234.11 168.275 L 235.146 168.03 L 236.183 167.783 L 237.219 167.537 L 238.255 167.29 L 239.291 167.042 L 240.327 166.794 L 241.363 166.546 L 242.399 166.297 L 243.435 166.048 L 244.471 165.798 L 245.508 165.548 L 246.544 165.297 L 247.58 165.046 L 248.616 164.795 L 249.652 164.543 L 250.688 164.291 L 251.724 164.038 L 252.76 163.785 L 253.796 163.531 L 254.832 163.277 L 255.868 163.022 L 256.904 162.767 L 257.941 162.511 L 258.977 162.255 L 260.013 161.999 L 261.049 161.742 L 262.085 161.484 L 263.121 161.226 L 264.157 160.968 L 265.193 160.709 L 266.229 160.449 L 267.265 160.19 L 268.301 159.929 L 269.337 159.668 L 270.373 159.407 L 271.409 159.145 L 272.445 158.883 L 273.482 158.62 L 274.518 158.356 L 275.554 158.093 L 276.59 157.828 L 277.626 157.563 L 278.662 157.298 L 279.698 157.032 L 280.734 156.766 L 281.77 156.499 L 282.806 156.231 L 283.842 155.963 L 284.878 155.695 L 285.914 155.426 L 286.95 155.156 L 287.987 154.886 L 289.023 154.615 L 290.059 154.344 L 291.095 154.072 L 292.131 153.8 L 293.167 153.527 L 294.203 153.254 L 295.239 152.98 L 296.275 152.706 L 297.312 152.431 L 298.348 152.155 L 299.384 151.879 L 300.42 151.602 L 301.456 151.325 L 302.492 151.047 L 303.528 150.769 L 304.565 150.49 L 305.601 150.21 L 306.637 149.93 L 307.673 149.65 L 308.709 149.368 L 309.746 149.086 L 310.782 148.804 L 311.818 148.521 L 312.854 148.237 L 313.891 147.953 L 314.927 147.668 L 315.963 147.383 L 316.999 147.097 L 318.036 146.811 L 319.072 146.523 L 320.108 146.236 L 321.145 145.947 L 322.181 145.658 L 323.217 145.368 L 324.254 145.078 L 325.29 144.787 L 326.326 144.496 L 327.363 144.204 L 328.399 143.911 L 329.436 143.618 L 330.472 143.324 L 331.509 143.029 L 332.545 142.734 L 333.581 142.438 L 334.618 142.141 L 335.655 141.844 L 336.691 141.546 L 337.728 141.248 L 338.764 140.949 L 339.801 140.649 L 340.837 140.348 L 341.874 140.047 L 342.911 139.745 L 343.947 139.443 L 344.984 139.14 L 346.021 138.836 L 347.058 138.532 L 348.094 138.226 L 349.131 137.921 L 350.168 137.614 L 351.205 137.307 L 352.242 136.999 L 353.279 136.691 L 354.316 136.381 L 355.353 136.071 L 356.39 135.761 L 357.427 135.45 L 358.464 135.138 L 359.501 134.825 L 360.538 134.511 L 361.575 134.197 L 362.612 133.882 L 363.649 133.567 L 364.686 133.251 L 365.724 132.934 L 366.761 132.616 L 367.798 132.297 L 368.836 131.978 L 369.873 131.658 L 370.911 131.338 L 371.948 131.016 L 372.986 130.694 L 374.023 130.372 L 375.061 130.048 L 376.098 129.724 L 377.136 129.399 L 378.174 129.073 L 379.211 128.746 L 380.249 128.419 L 381.287 128.091 L 382.325 127.762 L 383.363 127.433 L 384.401 127.102 L 385.439 126.771 L 386.477 126.44 L 387.515 126.107 L 388.553 125.774 L 389.592 125.44 L 390.63 125.105 L 391.668 124.769 L 392.707 124.432 L 393.745 124.095 L 394.784 123.757 L 395.822 123.418 L 396.861 123.079 L 397.9 122.739 L 398.938 122.397 L 399.977 122.055 L 401.016 121.713 L 402.055 121.369 L 403.094 121.025 L 404.133 120.68 L 405.172 120.334 L 406.212 119.987 L 407.251 119.64 L 408.29 119.291 L 409.33 118.942 L 410.369 118.592 L 411.409 118.241 L 412.448 117.89 L 413.488 117.538 L 414.528 117.184 L 415.568 116.83 L 416.608 116.476 L 417.648 116.12 L 418.688 115.764 L 419.728 115.406 L 420.769 115.048 L 421.809 114.689 L 422.85 114.33 L 423.89 113.969 L 424.931 113.608 L 425.972 113.245 L 427.013 112.882 L 428.054 112.519 L 429.095 112.154 L 430.136 111.788 L 431.177 111.422 L 432.218 111.055 L 433.26 110.687 L 434.302 110.318 L 435.343 109.949 L 436.385 109.578 L 437.427 109.207 L 438.469 108.835 L 439.511 108.462 L 440.553 108.088 L 441.596 107.713 L 442.638 107.338 L 443.681 106.962 L 444.724 106.584 L 445.767 106.207 L 446.81 105.828 L 447.853 105.448 L 448.896 105.068 L 449.939 104.686 L 450.983 104.304 L 452.027 103.922 L 453.07 103.538 L 454.114 103.153 L 455.158 102.768 L 456.203 102.382 L 457.247 101.995 L 458.291 101.607 L 459.336 101.218 L 460.381 100.829 L 461.426 100.439 L 462.471 100.048 L 463.516 99.656 L 464.562 99.263 L 465.607 98.87 L 466.653 98.475 L 467.699 98.08 L 468.745 97.684 L 469.791 97.288 L 470.838 96.89 L 471.884 96.492 L 472.931 96.093 L 473.978 95.693 L 475.025 95.292 L 476.072 94.891 L 477.12 94.489 L 478.167 94.086 L 479.215 93.682 L 480.263 93.278 L 481.312 92.873 L 482.36 92.467 L 483.409 92.06 L 484.457 91.652 L 485.506 91.244 L 486.555 90.835 L 487.605 90.426 L 488.654 90.015 L 489.704 89.604 L 490.754 89.192 L 491.804 88.78 L 492.855 88.366 L 493.905 87.952 L 494.956 87.538 L 496.007 87.122 L 497.059 86.706 L 498.11 86.289 L 499.162 85.872 L 500.214 85.454 L 501.266 85.035 L 502.318 84.616 L 503.371 84.196 L 504.423 83.775 L 505.477 83.353 L 506.53 82.931 L 507.583 82.509 L 508.637 82.086 L 509.691 81.662 L 510.745 81.237 L 511.8 80.812 L 512.854 80.386 L 513.909 79.96 L 514.964 79.533 L 516.02 79.106 L 517.076 78.678 L 518.131 78.249 L 519.188 77.82 L 520.244 77.391 L 521.301 76.96 L 522.357 76.53 L 523.415 76.099 L 524.472 75.667 L 525.53 75.235 L 526.588 74.802 L 527.646 74.369 L 528.704 73.935 L 529.763 73.501 L 530.822 73.066 L 531.881 72.631 L 532.94 72.196 L 534 71.76 L 535.06 71.323 L 536.12 70.886 L 537.181 70.449 L 538.241 70.012 L 539.302 69.574 L 540.364 69.135 L 541.425 68.696 L 542.487 68.257 L 543.549 67.818 L 544.611 67.378 L 545.674 66.938 L 546.737 66.497 L 547.8 66.056 L 548.863 65.615 L 549.927 65.174 L 550.991 64.732 L 552.055 64.29 L 553.119 63.847 L 554.184 63.405 L 555.249 62.962 L 556.314 62.519 L 557.38 62.075 L 558.445 61.631 L 559.511 61.188 L 560.577 60.743 L 561.644 60.299 L 562.711 59.855 L 563.778 59.41 L 564.845 58.965 L 565.912 58.52 L 566.98 58.074 L 568.048 57.629 L 569.116 57.183 L 570.185 56.737 L 571.254 56.291 L 572.323 55.845 L 573.392 55.399 L 574.461 54.953 L 575.531 54.506 L 576.601 54.06 L 577.671 53.613 L 578.742 53.166 L 579.812 52.719 L 580.883 52.272 L 581.954 51.825 L 583.026 51.378 L 584.098 50.93 L 585.169 50.483 L 586.241 50.036 L 587.314 49.588 L 588.386 49.141 L 589.459 48.693 L 590.532 48.245 L 591.605 47.798 L 592.679 47.35 L 593.752 46.902 L 594.826 46.455 L 595.9 46.007 L 596.975 45.559 L 598.049 45.111 L 599.124 44.663 L 600.199 44.215 L 601.274 43.767 L 602.349 43.319 L 603.425 42.871 L 604.501 42.423 L 605.577 41.975 L 606.653 41.527 L 607.729 41.079 L 608.806 40.631 L 609.882 40.183 L 610.959 39.735 L 612.036 39.287 L 613.114 38.839 L 614.191 38.391 L 615.269 37.943 L 616.346 37.495 L 617.424 37.047 L 618.503 36.599 L 619.581 36.15 L 620.659 35.702 L 621.738 35.254 L 622.817 34.806 L 623.896 34.357 L 624.975 33.909 L 626.054 33.461 L 627.134 33.012 L 628.214 32.564 L 629.293 32.115 L 630.373 31.667 L 631.453 31.218 L 632.534 30.769 L 633.614 30.32 L 634.695 29.871 L 635.775 29.422 L 636.856 28.973 L 637.937 28.524 L 639.018 28.075 L 640.099 27.625 L 641.181 27.175 L 641.18 27.149 L 641.179 27.123 L 641.179 27.096 L 641.178 27.07 L 641.177 27.043 L 641.176 27.017 L 641.176 26.991 L 641.175 26.964 L 641.174 26.938 L 641.173 26.911 L 641.173 26.885 L 641.172 26.859 L 641.171 26.832 L 641.17 26.806 L 641.169 26.779 L 641.169 26.753 L 641.168 26.727 L 641.167 26.7 L 641.166 26.674 L 641.166 26.647 L 641.165 26.621 L 641.164 26.594 L 641.163 26.568 L 641.163 26.542 L 641.162 26.515 L 641.161 26.489 L 641.16 26.462 L 641.16 26.436 L 641.159 26.409 L 641.158 26.383 L 641.157 26.357 L 641.157 26.33 L 641.156 26.304 L 641.155 26.277 L 641.154 26.251 L 641.154 26.224 L 641.153 26.198 L 641.152 26.171 L 641.151 26.145 L 641.151 26.119 L 641.15 26.092 L 641.149 26.066 L 641.148 26.039 L 641.148 26.013 L 641.147 25.986 L 641.146 25.96 L 641.145 25.933 L 641.145 25.907 L 641.144 25.88 L 641.143 25.854 L 641.142 25.827 L 641.142 25.801 L 641.141 25.774 L 641.14 25.748 L 641.139 25.722 L 641.139 25.695 L 641.138 25.669 L 641.137 25.642 L 641.136 25.616 L 641.136 25.589 L 641.135 25.563 L 641.134 25.536 L 641.134 25.51 L 641.133 25.483 L 641.132 25.457 L 641.131 25.43 L 641.131 25.404 L 641.13 25.377 L 641.129 25.351 L 641.128 25.324 L 641.128 25.298 L 641.127 25.271 L 641.126 25.245 L 641.125 25.218 L 641.125 25.192 L 641.124 25.165 L 641.123 25.139 L 641.122 25.112 L 641.122 25.086 L 641.121 25.059 L 641.12 25.033 L 641.119 25.006 L 641.119 24.979 L 641.118 24.953 L 641.117 24.926 L 641.116 24.9 L 641.116 24.873 L 641.115 24.847 L 641.114 24.82 L 641.113 24.794 L 641.113 24.767 L 641.112 24.741 L 641.111 24.714 L 641.11 24.688 L 641.11 24.661 L 641.109 24.635 L 641.108 24.608 L 641.107 24.581 L 641.107 24.555 L 641.106 24.528 L 641.105 24.502 L 641.104 24.475 L 641.104 24.449 L 641.103 24.422 L 641.102 24.396 L 641.102 24.369 L 641.101 24.342 L 641.1 24.316 L 641.099 24.289 L 641.099 24.263 L 641.098 24.236 L 641.097 24.21 L 641.096 24.183 L 641.096 24.156 L 641.095 24.13 L 641.094 24.103 L 641.093 24.077 L 641.093 24.05 L 641.092 24.024 L 641.091 23.997 L 641.09 23.97 L 641.09 23.944 L 641.089 23.917 L 641.088 23.891 L 641.087 23.864 L 641.087 23.837 L 641.086 23.811 L 641.085 23.784 L 641.085 23.758 L 641.084 23.731 L 641.083 23.704 L 641.082 23.678 L 641.082 23.651 L 641.081 23.625 L 641.08 23.598 L 641.079 23.571 L 641.079 23.545 L 641.078 23.518 L 641.077 23.492 L 641.076 23.465 L 641.076 23.438 L 641.075 23.412 L 641.074 23.385 L 641.073 23.358 L 641.073 23.332 L 641.072 23.305 L 641.071 23.279 L 641.071 23.252 L 641.07 23.225 L 641.069 23.199 L 641.068 23.172 L 641.068 23.145 L 641.067 23.119 L 641.066 23.092 L 641.065 23.065 L 641.065 23.039 L 641.064 23.012 L 641.063 22.986 L 641.062 22.959 L 641.062 22.932 L 641.061 22.906 L 641.06 22.879 L 641.06 22.852 L 641.059 22.826 L 641.058 22.799 L 641.057 22.772 L 641.057 22.746 L 641.056 22.719 L 641.055 22.692 L 641.054 22.666 L 641.054 22.639 L 641.053 22.612 L 641.052 22.586 L 641.051 22.559 L 641.051 22.532 L 641.05 22.506 L 641.049 22.479 L 641.049 22.452 L 641.048 22.426 L 641.047 22.399 L 641.046 22.372 L 641.046 22.346 L 641.045 22.319 L 641.044 22.292 L 641.043 22.265 L 641.043 22.239 L 641.042 22.212 L 641.041 22.185 L 641.04 22.159 L 641.04 22.132 L 641.039 22.105 L 641.038 22.079 L 641.038 22.052 L 641.037 22.025 L 641.036 21.998 L 641.035 21.972 L 641.035 21.945 L 641.034 21.918 L 641.033 21.892 L 641.032 21.865 L 641.032 21.838 L 641.031 21.811 L 641.03 21.785 L 641.03 21.758 L 641.029 21.731 L 641.028 21.705 L 641.027 21.678 L 641.027 21.651 L 641.026 21.624 L 641.025 21.598 L 641.024 21.571 L 641.024 21.544 L 641.023 21.517 L 641.022 21.491 L 641.022 21.464 L 641.021 21.437 L 641.02 21.411 L 641.019 21.384 L 641.019 21.357 L 641.018 21.33 L 641.017 21.304 L 641.016 21.277 L 641.016 21.25 L 641.015 21.223 L 641.014 21.197 L 641.014 21.17 L 641.013 21.143 L 641.012 21.116 L 641.011 21.09 L 641.011 21.063 L 641.01 21.036 L 641.009 21.009 L 641.009 20.982 L 641.008 20.956 L 641.007 20.929 L 641.006 20.902 L 641.006 20.875 L 641.005 20.849 L 641.004 20.822 L 641.003 20.795 L 641.003 20.768 L 641.002 20.741 L 641.001 20.715 L 641.001 20.688 L 641 20.661 L 640.999 20.634 L 640.998 20.608 L 640.998 20.581 L 640.997 20.554 L 640.996 20.527 L 640.995 20.5 L 640.995 20.474 L 640.994 20.447 L 640.993 20.42 L 640.993 20.393 L 640.992 20.366 L 640.991 20.34 L 640.99 20.313 L 640.99 20.286 L 640.989 20.259 L 640.988 20.232 L 640.988 20.205 L 640.987 20.179 L 640.986 20.152 L 640.985 20.125 L 640.985 20.098 L 640.984 20.071 L 640.983 20.045 L 640.983 20.018 L 640.982 19.991 L 640.981 19.964 L 640.98 19.937 L 640.98 19.91 L 640.979 19.884 L 640.978 19.857 L 640.977 19.83 L 640.977 19.803 L 640.976 19.776 L 640.975 19.749 L 640.975 19.723 L 640.974 19.696 L 640.973 19.669 L 640.972 19.642 L 640.972 19.615 L 640.971 19.588 L 640.97 19.561 L 640.97 19.535 L 640.969 19.508 L 640.968 19.481 L 640.967 19.454 L 640.967 19.427 L 640.966 19.4 L 640.965 19.373 L 640.965 19.347 L 640.964 19.32 L 640.963 19.293 L 640.962 19.266 L 640.962 19.239 L 640.961 19.212 L 640.96 19.185 L 640.96 19.158 L 640.959 19.132 L 640.958 19.105 L 640.957 19.078 L 640.957 19.051 L 640.956 19.024 L 640.955 18.997 L 640.955 18.97 L 640.954 18.943 L 640.953 18.916 L 640.952 18.89 L 640.952 18.863 L 640.951 18.836 L 640.95 18.809 L 640.95 18.782 L 640.949 18.755 L 640.948 18.728 L 640.947 18.701 L 640.947 18.674 L 640.946 18.647 L 640.945 18.621 L 640.945 18.594 L 640.944 18.567 L 640.943 18.54 L 640.942 18.513 L 640.942 18.486 L 640.941 18.459 L 640.94 18.432 L 640.94 18.405 L 640.939 18.378 L 640.938 18.351 L 640.937 18.324 L 640.937 18.297 L 640.936 18.271 L 640.935 18.244 L 640.935 18.217 L 640.934 18.19 L 640.933 18.163 L 640.932 18.136 L 640.932 18.109 L 640.931 18.082 L 640.93 18.055 L 640.93 18.028 L 640.929 18.001 L 640.928 17.974 L 640.927 17.947 L 640.927 17.92 L 640.926 17.893 L 640.925 17.866 L 640.925 17.839 L 640.924 17.812 L 640.923 17.785 L 640.923 17.758 L 640.922 17.732 L 640.921 17.705 L 640.92 17.678 L 640.92 17.651 L 640.919 17.624 L 640.918 17.597 L 640.918 17.57 L 640.917 17.543 L 640.916 17.516 L 640.915 17.489 L 640.915 17.462 L 640.914 17.435 L 640.913 17.408 L 640.913 17.381 L 640.912 17.371 L 644.621 17.928 L 644.397 9.102 L 640.722 9.847 L 640.721 9.816 L 640.721 9.788 L 640.72 9.761 L 640.719 9.733 L 640.719 9.706 L 640.718 9.678 L 640.717 9.651 L 640.717 9.624 L 640.716 9.596 L 640.715 9.569 L 640.715 9.541 L 640.714 9.514 L 640.713 9.486 L 640.713 9.459 L 640.712 9.431 L 640.711 9.404 L 640.711 9.376 L 640.71 9.349 L 640.709 9.322 L 640.709 9.294 L 640.708 9.267 L 640.707 9.239 L 640.707 9.212 L 640.706 9.184 L 640.705 9.157 L 640.705 9.129 L 640.704 9.102 L 640.703 9.074 L 640.703 9.047 L 640.702 9.019 L 640.701 8.992 L 640.701 8.964 L 640.7 8.937 L 640.699 8.909 L 640.699 8.882 L 640.698 8.854 L 640.697 8.827 L 640.697 8.799 L 640.696 8.772 L 640.695 8.744 L 640.695 8.717 L 640.694 8.689 L 640.693 8.662 L 640.693 8.634 L 640.692 8.607 L 640.691 8.579 L 640.691 8.552 L 640.69 8.524 L 640.689 8.497 L 640.689 8.469 L 640.688 8.442 L 640.687 8.414 L 640.687 8.387 L 640.686 8.359 L 640.685 8.332 L 640.685 8.304 L 640.684 8.277 L 640.683 8.249 L 640.683 8.221 L 640.682 8.194 L 640.681 8.166 L 640.681 8.139 L 640.68 8.111 L 640.679 8.084 L 640.679 8.056 L 640.678 8.029 L 640.677 8.001 L 640.677 7.974 L 640.676 7.946 L 640.675 7.919 L 640.675 7.891 L 640.674 7.863 L 640.673 7.836 L 640.673 7.808 L 640.672 7.781 L 640.671 7.753 L 640.671 7.726 L 640.67 7.698 L 640.669 7.67 L 640.669 7.643 L 640.668 7.615 L 640.667 7.588 L 640.667 7.56 L 640.666 7.533 L 640.665 7.505 L 640.665 7.477 L 640.664 7.45 L 640.663 7.422 L 640.663 7.395 L 640.662 7.367 L 640.661 7.34 L 640.661 7.312 L 640.66 7.284 L 640.659 7.257 L 640.659 7.229 L 640.658 7.202 L 640.657 7.174 L 640.657 7.146 L 640.656 7.119 L 640.656 7.091 L 640.655 7.064 L 640.654 7.036 L 640.654 7.008 L 640.653 6.981 L 640.652 6.953 L 640.652 6.926 L 640.651 6.898 L 640.65 6.87 L 640.65 6.843 L 640.649 6.815 L 640.648 6.788 L 640.648 6.76 L 640.647 6.732 L 640.646 6.705 L 640.646 6.677 L 640.645 6.649 L 640.644 6.622 L 640.644 6.594 L 640.643 6.567 L 640.642 6.539 L 640.642 6.511 L 640.641 6.484 L 640.64 6.456 L 640.64 6.428 L 640.639 6.401 L 640.638 6.373 L 640.638 6.345 L 640.637 6.318 L 640.637 6.29 L 640.636 6.262 L 640.635 6.235 L 640.635 6.207 L 640.634 6.18 L 640.633 6.152 L 640.633 6.124 L 640.632 6.097 L 640.631 6.069 L 640.631 6.041 L 640.63 6.014 L 640.629 5.986 L 640.629 5.958 L 640.628 5.931 L 640.627 5.903 L 640.627 5.875 L 640.626 5.848 L 640.625 5.82 L 640.625 5.792 L 640.624 5.765 L 640.623 5.737 L 640.623 5.709 L 640.622 5.681 L 640.622 5.654 L 640.621 5.626 L 640.62 5.598 L 640.62 5.571 L 640.619 5.543 L 640.618 5.515 L 640.618 5.488 L 640.617 5.46 L 640.616 5.432 L 640.616 5.405 L 640.615 5.377 L 640.614 5.349 L 640.614 5.321 L 640.613 5.294 L 640.612 5.266 L 640.612 5.238 L 640.611 5.211 L 640.61 5.183 L 640.61 5.155 L 640.609 5.127 L 640.609 5.1 L 640.608 5.072 L 640.607 5.044 L 640.607 5.017 L 640.606 4.989 L 640.605 4.961 L 640.605 4.933 L 640.604 4.906 L 640.603 4.878 L 640.603 4.85 L 640.602 4.822 L 640.601 4.795 L 640.601 4.767 L 640.6 4.739 L 640.599 4.712 L 640.599 4.684 L 640.598 4.656 L 640.598 4.628 L 640.597 4.601 L 640.596 4.573 L 640.596 4.545 L 640.595 4.517 L 640.594 4.49 L 640.594 4.462 L 640.593 4.434 L 640.592 4.406 L 640.592 4.379 L 640.591 4.351 L 640.59 4.323 L 640.59 4.295 L 640.589 4.267 L 640.589 4.24 L 640.588 4.212 L 640.587 4.184 L 640.587 4.156 L 640.586 4.129 L 640.585 4.101 L 640.585 4.073 L 640.584 4.045 L 640.583 4.017 L 640.583 3.99 L 640.582 3.962 L 640.581 3.934 L 640.581 3.906 L 640.58 3.879 L 640.58 3.851 L 640.579 3.823 L 640.578 3.795 L 640.578 3.767 L 640.577 3.74 L 640.576 3.712 L 640.576 3.684 L 640.575 3.656 L 640.574 3.628 L 640.574 3.601 L 640.573 3.573 L 640.572 3.545 L 640.572 3.517 L 640.571 3.489 L 640.571 3.462 L 640.57 3.434 L 640.569 3.406 L 640.569 3.378 L 640.568 3.35 L 640.567 3.322 L 640.567 3.295 L 640.566 3.267 L 640.565 3.239 L 640.565 3.211 L 640.564 3.183 L 640.563 3.155 L 640.563 3.128 L 640.562 3.1 L 640.562 3.072 L 640.561 3.044 L 640.56 3.016 L 640.56 2.988 L 640.559 2.961 L 640.558 2.933 L 640.558 2.905 L 640.557 2.877 L 640.556 2.849 L 640.556 2.821 L 640.555 2.794 L 640.555 2.766 L 640.554 2.738 L 640.553 2.71 L 640.553 2.682 L 640.552 2.654 L 640.551 2.626 L 640.551 2.599 L 640.55 2.571 L 640.549 2.543 L 640.549 2.515 L 640.548 2.487 L 640.548 2.459 L 640.547 2.431 L 640.546 2.403 L 640.546 2.376 L 640.545 2.348 L 640.544 2.32 L 640.544 2.292 L 640.543 2.264 L 640.542 2.236 L 640.542 2.208 L 640.541 2.18 L 640.541 2.152 L 640.54 2.125 L 640.539 2.097 L 640.539 2.069 L 640.538 2.041 L 640.537 2.013 L 640.537 1.985 L 640.536 1.957 L 640.536 1.929 L 640.535 1.901 L 640.534 1.873 L 640.534 1.846 L 640.533 1.818 L 640.532 1.79 L 640.532 1.762 L 640.531 1.734 L 640.53 1.706 L 640.53 1.678 L 640.529 1.65 L 640.529 1.622 L 640.528 1.594 L 640.527 1.566 L 640.527 1.538 L 640.526 1.511 L 640.525 1.483 L 640.525 1.455 L 640.524 1.427 L 640.524 1.399 L 640.523 1.371 L 640.522 1.343 L 640.522 1.315 L 640.521 1.287 L 640.52 1.259 L 640.52 1.231 L 640.519 1.203 L 640.518 1.175 L 640.518 1.147 L 640.517 1.119 L 640.517 1.091 L 640.516 1.063 L 640.515 1.036 L 640.515 1.008 L 640.514 0.98 L 640.513 0.952 L 640.513 0.924 L 640.512 0.896 L 640.512 0.868 L 640.511 0.84 L 640.51 0.812 L 640.51 0.784 L 640.509 0.756 L 640.508 0.728 L 640.508 0.7 L 640.507 0.672 L 640.507 0.644 L 640.506 0.616 L 640.505 0.588 L 640.505 0.56 L 640.504 0.532 L 640.503 0.504 L 640.503 0.476 L 640.502 0.448 L 640.502 0.42 L 640.501 0.392 L 640.5 0.364 L 640.5 0.336 L 640.499 0.308 L 640.498 0.28 L 640.498 0.252 L 640.497 0.224 L 640.497 0.196 L 640.496 0.168 L 640.495 0.14 L 640.495 0.112 L 640.494 0.084 L 640.493 0.056 L 640.493 0.028 L 640.492 0 Z" vector-effect="non-scaling-stroke"/><path d="M 239.602 108.547 L 239.605 108.612 L 239.608 108.676 L 239.611 108.741 L 239.614 108.806 L 239.616 108.871 L 239.619 108.936 L 239.622 109.001 L 239.625 109.065 L 239.628 109.13 L 239.631 109.195 L 239.634 109.26 L 239.637 109.324 L 239.64 109.389 L 239.643 109.454 L 239.646 109.518 L 239.649 109.583 L 239.652 109.648 L 239.654 109.712 L 239.657 109.777 L 239.66 109.842 L 239.663 109.906 L 239.666 109.971 L 239.669 110.035 L 239.672 110.1 L 239.675 110.164 L 239.678 110.229 L 239.681 110.293 L 239.684 110.358 L 239.687 110.422 L 239.689 110.487 L 239.692 110.551 L 239.695 110.616 L 239.698 110.68 L 239.701 110.744 L 239.704 110.809 L 239.707 110.873 L 239.71 110.937 L 239.713 111.002 L 239.716 111.066 L 239.719 111.13 L 239.722 111.195 L 239.724 111.259 L 239.727 111.323 L 239.73 111.387 L 239.733 111.452 L 239.736 111.516 L 239.739 111.58 L 239.742 111.644 L 239.745 111.708 L 239.748 111.773 L 239.751 111.837 L 239.754 111.901 L 239.756 111.965 L 239.759 112.029 L 239.762 112.093 L 239.765 112.157 L 239.768 112.221 L 239.771 112.285 L 239.774 112.349 L 239.777 112.413 L 239.78 112.477 L 239.783 112.541 L 239.786 112.605 L 239.788 112.669 L 239.791 112.733 L 239.794 112.797 L 239.797 112.861 L 239.8 112.925 L 239.803 112.989 L 239.806 113.053 L 239.809 113.117 L 239.812 113.18 L 239.815 113.244 L 239.818 113.308 L 239.82 113.372 L 239.823 113.436 L 239.826 113.499 L 239.829 113.563 L 239.832 113.627 L 239.835 113.691 L 239.838 113.754 L 239.841 113.818 L 239.844 113.882 L 239.847 113.945 L 239.849 114.009 L 239.852 114.073 L 239.855 114.136 L 239.858 114.2 L 239.861 114.263 L 239.864 114.327 L 239.867 114.391 L 239.87 114.454 L 239.873 114.518 L 239.876 114.581 L 239.878 114.645 L 239.881 114.708 L 239.884 114.772 L 239.887 114.835 L 239.89 114.899 L 239.893 114.962 L 239.896 115.025 L 239.899 115.089 L 239.902 115.152 L 239.904 115.216 L 239.907 115.279 L 239.91 115.342 L 239.913 115.406 L 239.916 115.469 L 239.919 115.532 L 239.922 115.595 L 239.925 115.659 L 239.928 115.722 L 239.93 115.785 L 239.933 115.848 L 239.936 115.912 L 239.939 115.975 L 239.942 116.038 L 239.945 116.101 L 239.948 116.164 L 239.951 116.227 L 239.954 116.291 L 239.956 116.354 L 239.959 116.417 L 239.962 116.48 L 239.965 116.543 L 239.968 116.606 L 239.971 116.669 L 239.974 116.732 L 239.977 116.795 L 239.98 116.858 L 239.982 116.921 L 239.985 116.984 L 239.988 117.047 L 239.991 117.11 L 239.994 117.173 L 239.997 117.236 L 240 117.299 L 240.003 117.361 L 240.006 117.424 L 240.008 117.487 L 240.011 117.55 L 240.014 117.613 L 240.017 117.676 L 240.02 117.738 L 240.023 117.801 L 240.026 117.864 L 240.029 117.927 L 240.031 117.989 L 240.034 118.052 L 240.037 118.115 L 240.04 118.178 L 240.043 118.24 L 240.046 118.303 L 240.049 118.366 L 240.052 118.428 L 240.055 118.491 L 240.057 118.553 L 240.06 118.616 L 240.063 118.679 L 240.066 118.741 L 240.069 118.804 L 240.072 118.866 L 240.075 118.929 L 240.078 118.991 L 240.08 119.054 L 240.083 119.116 L 240.086 119.179 L 240.089 119.241 L 240.092 119.303 L 240.095 119.366 L 240.098 119.428 L 240.101 119.491 L 240.103 119.553 L 240.106 119.615 L 240.109 119.678 L 240.112 119.74 L 240.115 119.802 L 240.118 119.865 L 240.121 119.927 L 240.124 119.989 L 240.126 120.051 L 240.129 120.114 L 240.132 120.176 L 240.135 120.238 L 240.138 120.3 L 240.141 120.363 L 240.144 120.425 L 240.146 120.487 L 240.149 120.549 L 240.152 120.611 L 240.155 120.673 L 240.158 120.735 L 240.161 120.797 L 240.164 120.859 L 240.167 120.922 L 240.169 120.984 L 240.172 121.046 L 240.175 121.108 L 240.178 121.17 L 240.181 121.232 L 240.184 121.294 L 240.187 121.355 L 240.189 121.417 L 240.192 121.479 L 240.195 121.541 L 240.198 121.603 L 240.201 121.665 L 240.204 121.727 L 240.207 121.789 L 240.21 121.851 L 240.212 121.912 L 240.215 121.974 L 240.218 122.036 L 240.221 122.098 L 240.224 122.16 L 240.227 122.221 L 240.23 122.283 L 240.232 122.345 L 240.235 122.406 L 240.238 122.468 L 240.241 122.53 L 240.244 122.591 L 240.247 122.653 L 240.25 122.715 L 240.252 122.776 L 240.255 122.838 L 240.258 122.9 L 240.261 122.961 L 240.264 123.023 L 240.267 123.084 L 240.27 123.146 L 240.272 123.207 L 240.275 123.269 L 240.278 123.33 L 240.281 123.392 L 240.284 123.453 L 240.287 123.515 L 240.29 123.576 L 240.292 123.638 L 240.295 123.699 L 240.298 123.76 L 240.301 123.822 L 240.304 123.883 L 240.307 123.944 L 240.31 124.006 L 240.312 124.067 L 240.315 124.128 L 240.318 124.19 L 240.321 124.251 L 240.324 124.312 L 240.327 124.373 L 240.329 124.435 L 240.332 124.496 L 240.335 124.557 L 240.338 124.618 L 240.341 124.679 L 240.344 124.741 L 240.347 124.802 L 240.349 124.863 L 240.352 124.924 L 240.355 124.985 L 240.358 125.046 L 240.361 125.107 L 240.364 125.168 L 240.367 125.229 L 240.369 125.29 L 240.372 125.351 L 240.375 125.412 L 240.378 125.473 L 240.381 125.534 L 240.384 125.595 L 240.386 125.656 L 240.389 125.717 L 240.392 125.778 L 240.395 125.839 L 240.398 125.9 L 240.401 125.961 L 240.403 126.022 L 240.406 126.083 L 240.409 126.143 L 240.412 126.204 L 240.415 126.265 L 240.418 126.326 L 240.421 126.387 L 240.423 126.447 L 240.426 126.508 L 240.429 126.569 L 240.432 126.629 L 240.435 126.69 L 240.438 126.751 L 240.44 126.812 L 240.443 126.872 L 240.446 126.933 L 240.449 126.993 L 240.452 127.054 L 240.455 127.115 L 240.457 127.175 L 240.46 127.236 L 240.463 127.296 L 240.466 127.357 L 240.469 127.418 L 240.472 127.478 L 240.474 127.539 L 240.477 127.599 L 240.48 127.66 L 240.483 127.72 L 240.486 127.78 L 240.489 127.841 L 240.492 127.901 L 240.494 127.962 L 240.497 128.022 L 240.5 128.082 L 240.503 128.143 L 240.506 128.203 L 240.509 128.263 L 240.511 128.324 L 240.514 128.384 L 240.517 128.444 L 240.52 128.505 L 240.523 128.565 L 240.526 128.625 L 240.528 128.685 L 240.531 128.746 L 240.534 128.806 L 240.537 128.866 L 240.54 128.926 L 240.543 128.986 L 240.545 129.046 L 240.548 129.107 L 240.551 129.167 L 240.554 129.227 L 240.557 129.287 L 240.559 129.347 L 240.562 129.407 L 240.565 129.467 L 240.568 129.527 L 240.571 129.587 L 240.574 129.647 L 240.576 129.707 L 240.579 129.767 L 240.582 129.827 L 240.585 129.887 L 240.588 129.947 L 240.591 130.007 L 240.593 130.067 L 240.596 130.127 L 240.599 130.187 L 240.602 130.246 L 240.605 130.306 L 240.608 130.366 L 240.61 130.426 L 240.613 130.486 L 240.616 130.546 L 240.619 130.605 L 240.622 130.665 L 240.624 130.725 L 240.627 130.785 L 240.63 130.844 L 240.633 130.904 L 240.636 130.964 L 240.639 131.023 L 240.641 131.083 L 240.644 131.143 L 240.647 131.202 L 240.65 131.262 L 240.653 131.322 L 240.656 131.381 L 240.658 131.441 L 240.661 131.5 L 240.664 131.56 L 240.667 131.619 L 240.67 131.679 L 240.672 131.738 L 240.675 131.798 L 240.678 131.857 L 240.681 131.917 L 240.684 131.976 L 240.687 132.036 L 240.689 132.095 L 240.692 132.155 L 240.695 132.214 L 240.698 132.273 L 240.701 132.333 L 240.703 132.392 L 240.706 132.451 L 240.709 132.511 L 240.712 132.57 L 240.715 132.629 L 240.718 132.689 L 240.72 132.748 L 240.723 132.807 L 240.726 132.866 L 240.729 132.926 L 240.732 132.985 L 240.734 133.044 L 240.737 133.103 L 240.74 133.162 L 240.743 133.222 L 240.746 133.281 L 240.748 133.34 L 240.751 133.399 L 240.754 133.458 L 240.757 133.517 L 240.76 133.576 L 240.763 133.635 L 240.765 133.694 L 240.768 133.753 L 240.771 133.812 L 240.774 133.871 L 240.777 133.93 L 240.779 133.989 L 240.782 134.048 L 240.785 134.107 L 240.788 134.166 L 240.791 134.225 L 240.793 134.284 L 240.796 134.343 L 240.799 134.402 L 240.802 134.461 L 240.805 134.519 L 240.807 134.578 L 240.81 134.637 L 240.813 134.696 L 240.816 134.755 L 240.819 134.814 L 240.822 134.872 L 240.824 134.931 L 240.827 134.99 L 240.83 135.048 L 240.833 135.107 L 240.836 135.166 L 240.838 135.225 L 240.841 135.283 L 240.844 135.342 L 240.847 135.401 L 240.85 135.459 L 240.852 135.518 L 240.855 135.576 L 240.858 135.635 L 240.861 135.693 L 240.864 135.752 L 240.866 135.811 L 240.869 135.869 L 240.872 135.928 L 240.875 135.986 L 240.878 136.045 L 240.88 136.103 L 240.883 136.162 L 240.886 136.22 L 240.889 136.278 L 240.892 136.337 L 240.894 136.395 L 240.897 136.454 L 240.9 136.512 L 240.903 136.57 L 240.906 136.629 L 240.908 136.687 L 240.911 136.745 L 240.914 136.804 L 240.917 136.862 L 240.92 136.92 L 240.922 136.978 L 240.925 137.037 L 240.928 137.095 L 240.931 137.153 L 240.934 137.211 L 240.936 137.269 L 240.939 137.328 L 240.942 137.386 L 240.945 137.444 L 240.948 137.502 L 240.95 137.56 L 240.953 137.618 L 240.956 137.676 L 240.959 137.734 L 240.962 137.793 L 240.964 137.851 L 240.967 137.909 L 240.97 137.967 L 240.973 138.025 L 240.976 138.083 L 240.978 138.141 L 240.981 138.199 L 240.984 138.257 L 240.987 138.314 L 240.99 138.372 L 240.992 138.43 L 240.995 138.488 L 240.998 138.546 L 241.001 138.604 L 241.003 138.662 L 241.006 138.72 L 241.009 138.777 L 241.012 138.835 L 241.015 138.893 L 241.017 138.951 L 241.02 139.009 L 241.023 139.066 L 241.026 139.124 L 241.029 139.182 L 241.031 139.24 L 241.034 139.297 L 241.037 139.355 L 241.04 139.413 L 241.043 139.47 L 241.045 139.528 L 241.048 139.586 L 241.051 139.643 L 241.054 139.701 L 241.056 139.758 L 241.059 139.816 L 241.062 139.874 L 241.065 139.931 L 241.068 139.989 L 241.07 140.046 L 241.073 140.104 L 241.076 140.161 L 241.079 140.219 L 241.082 140.276 L 241.084 140.334 L 241.087 140.391 L 241.09 140.448 L 241.093 140.506 L 241.095 140.563 L 241.098 140.621 L 241.101 140.678 L 241.104 140.735 L 241.107 140.793 L 241.109 140.85 L 241.112 140.907 L 241.115 140.965 L 241.118 141.022 L 241.121 141.079 L 241.123 141.136 L 241.126 141.194 L 241.129 141.251 L 241.132 141.308 L 241.134 141.365 L 241.137 141.422 L 241.14 141.48 L 241.143 141.537 L 241.146 141.594 L 241.148 141.651 L 241.151 141.708 L 241.154 141.765 L 241.157 141.822 L 241.159 141.879 L 241.162 141.937 L 241.165 141.994 L 241.168 142.051 L 241.171 142.108 L 241.173 142.165 L 241.176 142.222 L 241.179 142.279 L 241.182 142.336 L 241.184 142.393 L 241.187 142.45 L 241.19 142.506 L 241.193 142.563 L 241.196 142.62 L 241.198 142.677 L 241.201 142.734 L 241.204 142.791 L 241.207 142.848 L 241.209 142.905 L 241.212 142.961 L 241.215 143.018 L 241.218 143.075 L 241.221 143.132 L 241.223 143.188 L 241.226 143.245 L 241.229 143.302 L 241.232 143.359 L 241.234 143.415 L 241.237 143.472 L 241.24 143.529 L 241.243 143.585 L 241.246 143.642 L 241.248 143.699 L 241.251 143.755 L 241.254 143.812 L 241.257 143.869 L 241.259 143.925 L 241.262 143.982 L 241.265 144.038 L 241.268 144.095 L 241.271 144.151 L 241.273 144.208 L 241.276 144.264 L 241.279 144.321 L 241.282 144.377 L 241.284 144.434 L 241.287 144.49 L 241.29 144.547 L 241.293 144.603 L 241.295 144.659 L 241.298 144.716 L 241.301 144.772 L 241.304 144.829 L 241.307 144.885 L 241.309 144.941 L 241.312 144.998 L 241.315 145.054 L 241.318 145.11 L 241.32 145.166 L 241.323 145.223 L 241.326 145.279 L 241.329 145.335 L 241.331 145.391 L 241.334 145.448 L 241.337 145.504 L 241.34 145.56 L 241.343 145.616 L 241.345 145.672 L 241.348 145.728 L 241.351 145.785 L 241.354 145.841 L 241.356 145.897 L 241.359 145.953 L 241.362 146.009 L 241.365 146.065 L 241.367 146.121 L 241.37 146.177 L 241.373 146.233 L 241.376 146.289 L 241.378 146.345 L 241.381 146.401 L 241.384 146.457 L 241.387 146.513 L 241.39 146.569 L 241.392 146.625 L 241.395 146.681 L 241.398 146.737 L 241.401 146.793 L 241.403 146.848 L 241.406 146.904 L 241.409 146.96 L 241.412 147.016 L 241.414 147.072 L 241.417 147.128 L 241.42 147.183 L 241.423 147.239 L 241.425 147.295 L 241.428 147.351 L 241.431 147.406 L 241.434 147.462 L 241.437 147.518 L 241.439 147.573 L 241.442 147.629 L 241.445 147.685 L 241.448 147.74 L 241.45 147.796 L 241.453 147.852 L 241.456 147.907 L 241.459 147.963 L 241.461 148.019 L 241.464 148.074 L 241.467 148.13 L 241.47 148.185 L 241.472 148.241 L 241.475 148.296 L 241.478 148.352 L 241.481 148.407 L 241.483 148.463 L 241.486 148.518 L 241.489 148.574 L 241.492 148.629 L 241.494 148.684 L 241.497 148.74 L 241.5 148.795 L 241.503 148.851 L 241.505 148.906 L 241.508 148.961 L 241.511 149.017 L 241.514 149.072 L 241.517 149.127 L 241.519 149.183 L 241.522 149.238 L 241.525 149.293 L 241.528 149.348 L 241.53 149.404 L 241.533 149.459 L 241.536 149.514 L 241.539 149.569 L 241.541 149.625 L 241.544 149.68 L 241.547 149.735 L 241.55 149.79 L 241.552 149.845 L 241.555 149.9 L 241.558 149.955 L 241.561 150.011 L 241.563 150.066 L 241.566 150.121 L 241.569 150.176 L 241.572 150.231 L 241.574 150.286 L 241.577 150.341 L 241.58 150.396 L 241.583 150.451 L 241.585 150.506 L 241.588 150.561 L 241.591 150.616 L 241.594 150.671 L 241.596 150.726 L 241.599 150.78 L 241.602 150.835 L 241.605 150.89 L 241.607 150.945 L 241.61 151 L 241.613 151.055 L 241.616 151.11 L 241.618 151.164 L 241.621 151.219 L 241.624 151.274 L 241.627 151.329 L 241.629 151.384 L 241.632 151.438 L 241.635 151.493 L 241.638 151.548 L 241.64 151.602 L 241.643 151.657 L 241.646 151.712 L 241.649 151.766 L 241.651 151.821 L 241.654 151.876 L 241.657 151.93 L 241.66 151.985 L 241.662 152.04 L 241.665 152.094 L 241.668 152.149 L 241.671 152.203 L 241.673 152.258 L 241.676 152.312 L 241.679 152.367 L 241.682 152.421 L 241.684 152.476 L 241.687 152.53 L 241.69 152.585 L 241.693 152.639 L 241.695 152.694 L 241.698 152.748 L 241.701 152.803 L 241.704 152.857 L 241.706 152.911 L 241.709 152.966 L 241.712 153.02 L 241.715 153.074 L 241.717 153.129 L 241.72 153.183 L 241.723 153.237 L 241.725 153.292 L 241.728 153.346 L 241.731 153.4 L 241.734 153.454 L 241.736 153.509 L 241.739 153.563 L 241.742 153.617 L 241.745 153.671 L 241.747 153.725 L 241.75 153.78 L 241.753 153.834 L 241.756 153.888 L 241.758 153.942 L 241.761 153.996 L 241.764 154.05 L 241.767 154.104 L 241.769 154.158 L 241.772 154.212 L 241.775 154.267 L 241.778 154.321 L 241.78 154.375 L 241.783 154.429 L 241.786 154.483 L 241.789 154.537 L 241.791 154.591 L 241.794 154.644 L 241.797 154.698 L 241.8 154.752 L 241.802 154.806 L 241.805 154.86 L 241.808 154.914 L 241.81 154.968 L 241.813 155.022 L 241.816 155.076 L 241.819 155.129 L 241.821 155.183 L 241.824 155.237 L 241.827 155.291 L 241.83 155.345 L 241.832 155.398 L 241.835 155.452 L 241.838 155.506 L 241.841 155.56 L 241.843 155.613 L 241.846 155.667 L 241.849 155.721 L 241.852 155.774 L 241.854 155.828 L 241.857 155.882 L 241.86 155.935 L 241.862 155.989 L 241.865 156.043 L 241.868 156.096 L 241.871 156.15 L 241.873 156.203 L 241.876 156.257 L 241.879 156.31 L 241.882 156.364 L 241.884 156.418 L 241.887 156.471 L 241.89 156.525 L 241.893 156.578 L 241.895 156.631 L 241.898 156.685 L 241.901 156.738 L 241.904 156.792 L 241.906 156.845 L 241.909 156.899 L 241.912 156.952 L 241.914 157.005 L 241.917 157.059 L 241.92 157.112 L 241.923 157.165 L 241.925 157.219 L 241.928 157.272 L 241.931 157.325 L 241.934 157.379 L 241.936 157.432 L 241.939 157.485 L 241.942 157.538 L 241.945 157.592 L 241.947 157.645 L 241.95 157.698 L 241.953 157.751 L 241.955 157.804 L 241.958 157.857 L 241.961 157.911 L 241.964 157.964 L 241.966 158.017 L 241.969 158.07 L 241.972 158.123 L 241.975 158.176 L 241.977 158.229 L 241.98 158.282 L 241.983 158.335 L 241.986 158.388 L 241.988 158.441 L 241.991 158.494 L 241.994 158.547 L 241.996 158.6 L 241.999 158.653 L 242.002 158.706 L 242.005 158.759 L 242.007 158.812 L 242.01 158.865 L 242.013 158.918 L 242.016 158.971 L 242.018 159.024 L 242.021 159.077 L 242.024 159.129 L 242.026 159.182 L 242.029 159.235 L 242.032 159.288 L 242.035 159.341 L 242.037 159.393 L 242.04 159.446 L 242.043 159.499 L 242.046 159.552 L 242.048 159.604 L 242.051 159.657 L 242.054 159.71 L 242.056 159.762 L 242.059 159.815 L 242.062 159.868 L 242.065 159.92 L 242.067 159.973 L 242.07 160.026 L 242.073 160.078 L 242.076 160.131 L 242.078 160.183 L 242.081 160.236 L 242.084 160.289 L 242.086 160.341 L 242.089 160.394 L 242.092 160.446 L 242.095 160.499 L 242.097 160.551 L 242.1 160.604 L 242.103 160.656 L 242.106 160.709 L 242.108 160.761 L 242.111 160.813 L 242.114 160.866 L 242.116 160.918 L 242.119 160.971 L 242.122 161.023 L 242.125 161.075 L 242.127 161.128 L 242.13 161.18 L 242.133 161.232 L 242.136 161.285 L 242.138 161.337 L 242.141 161.389 L 242.144 161.442 L 242.146 161.494 L 242.149 161.546 L 242.152 161.598 L 242.155 161.65 L 242.157 161.703 L 242.16 161.755 L 242.163 161.807 L 242.165 161.859 L 242.168 161.911 L 242.171 161.964 L 242.174 162.016 L 242.176 162.068 L 242.179 162.12 L 242.182 162.172 L 242.185 162.224 L 242.187 162.276 L 242.19 162.328 L 242.193 162.38 L 242.195 162.432 L 242.198 162.484 L 242.201 162.536 L 242.204 162.588 L 242.206 162.64 L 242.209 162.692 L 242.212 162.744 L 242.214 162.796 L 242.217 162.848 L 242.22 162.9 L 242.223 162.952 L 242.225 163.004 L 242.228 163.055 L 242.231 163.107 L 242.234 163.159 L 242.236 163.211 L 242.239 163.263 L 242.242 163.315 L 242.244 163.366 L 242.247 163.418 L 242.25 163.47 L 242.253 163.522 L 242.255 163.573 L 242.258 163.625 L 242.261 163.677 L 242.263 163.729 L 242.266 163.78 L 242.269 163.832 L 242.272 163.884 L 242.274 163.935 L 242.277 163.987 L 242.28 164.038 L 242.282 164.09 L 242.285 164.142 L 242.288 164.193 L 242.291 164.245 L 242.293 164.296 L 242.296 164.348 L 242.299 164.399 L 242.301 164.451 L 242.304 164.502 L 242.307 164.554 L 242.31 164.605 L 242.312 164.657 L 242.315 164.708 L 242.318 164.76 L 242.321 164.811 L 242.323 164.863 L 242.326 164.914 L 242.329 164.965 L 242.331 165.017 L 242.334 165.068 L 242.337 165.12 L 242.34 165.171 L 242.342 165.222 L 242.345 165.274 L 242.348 165.325 L 242.35 165.376 L 242.353 165.427 L 242.356 165.479 L 242.359 165.53 L 242.361 165.581 L 242.364 165.632 L 242.367 165.684 L 242.369 165.735 L 242.372 165.786 L 242.375 165.837 L 242.378 165.888 L 242.38 165.939 L 242.383 165.991 L 242.386 166.042 L 242.388 166.093 L 242.391 166.144 L 242.394 166.195 L 242.397 166.246 L 242.399 166.297 M 497.676 43.572 L 497.677 43.617 L 497.679 43.662 L 497.68 43.707 L 497.681 43.752 L 497.683 43.796 L 497.684 43.841 L 497.685 43.886 L 497.687 43.931 L 497.688 43.976 L 497.689 44.021 L 497.69 44.065 L 497.692 44.11 L 497.693 44.155 L 497.694 44.2 L 497.696 44.245 L 497.697 44.29 L 497.698 44.334 L 497.7 44.379 L 497.701 44.424 L 497.702 44.469 L 497.704 44.514 L 497.705 44.558 L 497.706 44.603 L 497.708 44.648 L 497.709 44.693 L 497.71 44.737 L 497.712 44.782 L 497.713 44.827 L 497.714 44.872 L 497.715 44.916 L 497.717 44.961 L 497.718 45.006 L 497.719 45.051 L 497.721 45.095 L 497.722 45.14 L 497.723 45.185 L 497.725 45.229 L 497.726 45.274 L 497.727 45.319 L 497.729 45.364 L 497.73 45.408 L 497.731 45.453 L 497.733 45.498 L 497.734 45.542 L 497.735 45.587 L 497.737 45.632 L 497.738 45.676 L 497.739 45.721 L 497.741 45.765 L 497.742 45.81 L 497.743 45.855 L 497.745 45.899 L 497.746 45.944 L 497.747 45.989 L 497.749 46.033 L 497.75 46.078 L 497.751 46.122 L 497.753 46.167 L 497.754 46.212 L 497.755 46.256 L 497.757 46.301 L 497.758 46.345 L 497.759 46.39 L 497.761 46.434 L 497.762 46.479 L 497.763 46.524 L 497.764 46.568 L 497.766 46.613 L 497.767 46.657 L 497.768 46.702 L 497.77 46.746 L 497.771 46.791 L 497.772 46.835 L 497.774 46.88 L 497.775 46.924 L 497.776 46.969 L 497.778 47.013 L 497.779 47.058 L 497.781 47.102 L 497.782 47.147 L 497.783 47.191 L 497.785 47.236 L 497.786 47.28 L 497.787 47.325 L 497.789 47.369 L 497.79 47.414 L 497.791 47.458 L 497.793 47.502 L 497.794 47.547 L 497.795 47.591 L 497.797 47.636 L 497.798 47.68 L 497.799 47.725 L 497.801 47.769 L 497.802 47.813 L 497.803 47.858 L 497.805 47.902 L 497.806 47.947 L 497.807 47.991 L 497.809 48.035 L 497.81 48.08 L 497.811 48.124 L 497.813 48.168 L 497.814 48.213 L 497.815 48.257 L 497.817 48.301 L 497.818 48.346 L 497.819 48.39 L 497.821 48.435 L 497.822 48.479 L 497.823 48.523 L 497.825 48.567 L 497.826 48.612 L 497.827 48.656 L 497.829 48.7 L 497.83 48.745 L 497.832 48.789 L 497.833 48.833 L 497.834 48.878 L 497.836 48.922 L 497.837 48.966 L 497.838 49.01 L 497.84 49.055 L 497.841 49.099 L 497.842 49.143 L 497.844 49.187 L 497.845 49.232 L 497.846 49.276 L 497.848 49.32 L 497.849 49.364 L 497.85 49.409 L 497.852 49.453 L 497.853 49.497 L 497.854 49.541 L 497.856 49.585 L 497.857 49.63 L 497.859 49.674 L 497.86 49.718 L 497.861 49.762 L 497.863 49.806 L 497.864 49.85 L 497.865 49.895 L 497.867 49.939 L 497.868 49.983 L 497.869 50.027 L 497.871 50.071 L 497.872 50.115 L 497.873 50.159 L 497.875 50.204 L 497.876 50.248 L 497.878 50.292 L 497.879 50.336 L 497.88 50.38 L 497.882 50.424 L 497.883 50.468 L 497.884 50.512 L 497.886 50.556 L 497.887 50.601 L 497.888 50.645 L 497.89 50.689 L 497.891 50.733 L 497.893 50.777 L 497.894 50.821 L 497.895 50.865 L 497.897 50.909 L 497.898 50.953 L 497.899 50.997 L 497.901 51.041 L 497.902 51.085 L 497.903 51.129 L 497.905 51.173 L 497.906 51.217 L 497.908 51.261 L 497.909 51.305 L 497.91 51.349 L 497.912 51.393 L 497.913 51.437 L 497.914 51.481 L 497.916 51.525 L 497.917 51.569 L 497.919 51.613 L 497.92 51.657 L 497.921 51.701 L 497.923 51.745 L 497.924 51.789 L 497.925 51.833 L 497.927 51.877 L 497.928 51.921 L 497.93 51.964 L 497.931 52.008 L 497.932 52.052 L 497.934 52.096 L 497.935 52.14 L 497.936 52.184 L 497.938 52.228 L 497.939 52.272 L 497.941 52.316 L 497.942 52.36 L 497.943 52.403 L 497.945 52.447 L 497.946 52.491 L 497.947 52.535 L 497.949 52.579 L 497.95 52.623 L 497.952 52.667 L 497.953 52.71 L 497.954 52.754 L 497.956 52.798 L 497.957 52.842 L 497.958 52.886 L 497.96 52.929 L 497.961 52.973 L 497.963 53.017 L 497.964 53.061 L 497.965 53.105 L 497.967 53.148 L 497.968 53.192 L 497.97 53.236 L 497.971 53.28 L 497.972 53.323 L 497.974 53.367 L 497.975 53.411 L 497.976 53.455 L 497.978 53.498 L 497.979 53.542 L 497.981 53.586 L 497.982 53.63 L 497.983 53.673 L 497.985 53.717 L 497.986 53.761 L 497.988 53.805 L 497.989 53.848 L 497.99 53.892 L 497.992 53.936 L 497.993 53.979 L 497.994 54.023 L 497.996 54.067 L 497.997 54.11 L 497.999 54.154 L 498 54.198 L 498.001 54.241 L 498.003 54.285 L 498.004 54.329 L 498.006 54.372 L 498.007 54.416 L 498.008 54.46 L 498.01 54.503 L 498.011 54.547 L 498.013 54.59 L 498.014 54.634 L 498.015 54.678 L 498.017 54.721 L 498.018 54.765 L 498.02 54.808 L 498.021 54.852 L 498.022 54.896 L 498.024 54.939 L 498.025 54.983 L 498.027 55.026 L 498.028 55.07 L 498.029 55.113 L 498.031 55.157 L 498.032 55.2 L 498.034 55.244 L 498.035 55.288 L 498.036 55.331 L 498.038 55.375 L 498.039 55.418 L 498.041 55.462 L 498.042 55.505 L 498.043 55.549 L 498.045 55.592 L 498.046 55.636 L 498.048 55.679 L 498.049 55.723 L 498.05 55.766 L 498.052 55.81 L 498.053 55.853 L 498.055 55.896 L 498.056 55.94 L 498.057 55.983 L 498.059 56.027 L 498.06 56.07 L 498.062 56.114 L 498.063 56.157 L 498.064 56.201 L 498.066 56.244 L 498.067 56.287 L 498.069 56.331 L 498.07 56.374 L 498.071 56.418 L 498.073 56.461 L 498.074 56.504 L 498.076 56.548 L 498.077 56.591 L 498.079 56.634 L 498.08 56.678 L 498.081 56.721 L 498.083 56.765 L 498.084 56.808 L 498.086 56.851 L 498.087 56.895 L 498.088 56.938 L 498.09 56.981 L 498.091 57.025 L 498.093 57.068 L 498.094 57.111 L 498.095 57.155 L 498.097 57.198 L 498.098 57.241 L 498.1 57.284 L 498.101 57.328 L 498.103 57.371 L 498.104 57.414 L 498.105 57.458 L 498.107 57.501 L 498.108 57.544 L 498.11 57.587 L 498.111 57.631 L 498.113 57.674 L 498.114 57.717 L 498.115 57.76 L 498.117 57.804 L 498.118 57.847 L 498.12 57.89 L 498.121 57.933 L 498.122 57.977 L 498.124 58.02 L 498.125 58.063 L 498.127 58.106 L 498.128 58.149 L 498.13 58.193 L 498.131 58.236 L 498.132 58.279 L 498.134 58.322 L 498.135 58.365 L 498.137 58.408 L 498.138 58.452 L 498.14 58.495 L 498.141 58.538 L 498.142 58.581 L 498.144 58.624 L 498.145 58.667 L 498.147 58.71 L 498.148 58.754 L 498.15 58.797 L 498.151 58.84 L 498.152 58.883 L 498.154 58.926 L 498.155 58.969 L 498.157 59.012 L 498.158 59.055 L 498.16 59.098 L 498.161 59.141 L 498.162 59.185 L 498.164 59.228 L 498.165 59.271 L 498.167 59.314 L 498.168 59.357 L 498.17 59.4 L 498.171 59.443 L 498.172 59.486 L 498.174 59.529 L 498.175 59.572 L 498.177 59.615 L 498.178 59.658 L 498.18 59.701 L 498.181 59.744 L 498.183 59.787 L 498.184 59.83 L 498.185 59.873 L 498.187 59.916 L 498.188 59.959 L 498.19 60.002 L 498.191 60.045 L 498.193 60.088 L 498.194 60.131 L 498.195 60.174 L 498.197 60.217 L 498.198 60.26 L 498.2 60.303 L 498.201 60.346 L 498.203 60.388 L 498.204 60.431 L 498.206 60.474 L 498.207 60.517 L 498.208 60.56 L 498.21 60.603 L 498.211 60.646 L 498.213 60.689 L 498.214 60.732 L 498.216 60.775 L 498.217 60.818 L 498.219 60.86 L 498.22 60.903 L 498.221 60.946 L 498.223 60.989 L 498.224 61.032 L 498.226 61.075 L 498.227 61.118 L 498.229 61.16 L 498.23 61.203 L 498.232 61.246 L 498.233 61.289 L 498.235 61.332 L 498.236 61.374 L 498.237 61.417 L 498.239 61.46 L 498.24 61.503 L 498.242 61.546 L 498.243 61.588 L 498.245 61.631 L 498.246 61.674 L 498.248 61.717 L 498.249 61.76 L 498.25 61.802 L 498.252 61.845 L 498.253 61.888 L 498.255 61.931 L 498.256 61.973 L 498.258 62.016 L 498.259 62.059 L 498.261 62.102 L 498.262 62.144 L 498.264 62.187 L 498.265 62.23 L 498.267 62.272 L 498.268 62.315 L 498.269 62.358 L 498.271 62.4 L 498.272 62.443 L 498.274 62.486 L 498.275 62.528 L 498.277 62.571 L 498.278 62.614 L 498.28 62.656 L 498.281 62.699 L 498.283 62.742 L 498.284 62.784 L 498.286 62.827 L 498.287 62.87 L 498.288 62.912 L 498.29 62.955 L 498.291 62.998 L 498.293 63.04 L 498.294 63.083 L 498.296 63.125 L 498.297 63.168 L 498.299 63.211 L 498.3 63.253 L 498.302 63.296 L 498.303 63.338 L 498.305 63.381 L 498.306 63.424 L 498.308 63.466 L 498.309 63.509 L 498.31 63.551 L 498.312 63.594 L 498.313 63.636 L 498.315 63.679 L 498.316 63.721 L 498.318 63.764 L 498.319 63.806 L 498.321 63.849 L 498.322 63.891 L 498.324 63.934 L 498.325 63.976 L 498.327 64.019 L 498.328 64.061 L 498.33 64.104 L 498.331 64.146 L 498.333 64.189 L 498.334 64.231 L 498.335 64.274 L 498.337 64.316 L 498.338 64.359 L 498.34 64.401 L 498.341 64.444 L 498.343 64.486 L 498.344 64.529 L 498.346 64.571 L 498.347 64.613 L 498.349 64.656 L 498.35 64.698 L 498.352 64.741 L 498.353 64.783 L 498.355 64.825 L 498.356 64.868 L 498.358 64.91 L 498.359 64.953 L 498.361 64.995 L 498.362 65.037 L 498.364 65.08 L 498.365 65.122 L 498.367 65.164 L 498.368 65.207 L 498.37 65.249 L 498.371 65.291 L 498.372 65.334 L 498.374 65.376 L 498.375 65.419 L 498.377 65.461 L 498.378 65.503 L 498.38 65.545 L 498.381 65.588 L 498.383 65.63 L 498.384 65.672 L 498.386 65.715 L 498.387 65.757 L 498.389 65.799 L 498.39 65.842 L 498.392 65.884 L 498.393 65.926 L 498.395 65.968 L 498.396 66.011 L 498.398 66.053 L 498.399 66.095 L 498.401 66.137 L 498.402 66.18 L 498.404 66.222 L 498.405 66.264 L 498.407 66.306 L 498.408 66.348 L 498.41 66.391 L 498.411 66.433 L 498.413 66.475 L 498.414 66.517 L 498.416 66.559 L 498.417 66.602 L 498.419 66.644 L 498.42 66.686 L 498.422 66.728 L 498.423 66.77 L 498.425 66.813 L 498.426 66.855 L 498.428 66.897 L 498.429 66.939 L 498.431 66.981 L 498.432 67.023 L 498.434 67.065 L 498.435 67.108 L 498.437 67.15 L 498.438 67.192 L 498.44 67.234 L 498.441 67.276 L 498.443 67.318 L 498.444 67.36 L 498.446 67.402 L 498.447 67.444 L 498.449 67.486 L 498.45 67.529 L 498.452 67.571 L 498.453 67.613 L 498.455 67.655 L 498.456 67.697 L 498.458 67.739 L 498.459 67.781 L 498.461 67.823 L 498.462 67.865 L 498.464 67.907 L 498.465 67.949 L 498.467 67.991 L 498.468 68.033 L 498.47 68.075 L 498.471 68.117 L 498.473 68.159 L 498.474 68.201 L 498.476 68.243 L 498.477 68.285 L 498.479 68.327 L 498.48 68.369 L 498.482 68.411 L 498.483 68.453 L 498.485 68.495 L 498.486 68.537 L 498.488 68.579 L 498.489 68.621 L 498.491 68.663 L 498.492 68.705 L 498.494 68.747 L 498.495 68.788 L 498.497 68.83 L 498.499 68.872 L 498.5 68.914 L 498.502 68.956 L 498.503 68.998 L 498.505 69.04 L 498.506 69.082 L 498.508 69.124 L 498.509 69.166 L 498.511 69.207 L 498.512 69.249 L 498.514 69.291 L 498.515 69.333 L 498.517 69.375 L 498.518 69.417 L 498.52 69.459 L 498.521 69.5 L 498.523 69.542 L 498.524 69.584 L 498.526 69.626 L 498.527 69.668 L 498.529 69.71 L 498.53 69.751 L 498.532 69.793 L 498.533 69.835 L 498.535 69.877 L 498.537 69.919 L 498.538 69.96 L 498.54 70.002 L 498.541 70.044 L 498.543 70.086 L 498.544 70.127 L 498.546 70.169 L 498.547 70.211 L 498.549 70.253 L 498.55 70.294 L 498.552 70.336 L 498.553 70.378 L 498.555 70.42 L 498.556 70.461 L 498.558 70.503 L 498.559 70.545 L 498.561 70.586 L 498.562 70.628 L 498.564 70.67 L 498.566 70.712 L 498.567 70.753 L 498.569 70.795 L 498.57 70.837 L 498.572 70.878 L 498.573 70.92 L 498.575 70.962 L 498.576 71.003 L 498.578 71.045 L 498.579 71.087 L 498.581 71.128 L 498.582 71.17 L 498.584 71.211 L 498.586 71.253 L 498.587 71.295 L 498.589 71.336 L 498.59 71.378 L 498.592 71.42 L 498.593 71.461 L 498.595 71.503 L 498.596 71.544 L 498.598 71.586 L 498.599 71.627 L 498.601 71.669 L 498.602 71.711 L 498.604 71.752 L 498.606 71.794 L 498.607 71.835 L 498.609 71.877 L 498.61 71.918 L 498.612 71.96 L 498.613 72.001 L 498.615 72.043 L 498.616 72.085 L 498.618 72.126 L 498.619 72.168 L 498.621 72.209 L 498.623 72.251 L 498.624 72.292 L 498.626 72.334 L 498.627 72.375 L 498.629 72.417 L 498.63 72.458 L 498.632 72.499 L 498.633 72.541 L 498.635 72.582 L 498.636 72.624 L 498.638 72.665 L 498.64 72.707 L 498.641 72.748 L 498.643 72.79 L 498.644 72.831 L 498.646 72.873 L 498.647 72.914 L 498.649 72.955 L 498.65 72.997 L 498.652 73.038 L 498.653 73.08 L 498.655 73.121 L 498.657 73.162 L 498.658 73.204 L 498.66 73.245 L 498.661 73.287 L 498.663 73.328 L 498.664 73.369 L 498.666 73.411 L 498.667 73.452 L 498.669 73.493 L 498.671 73.535 L 498.672 73.576 L 498.674 73.617 L 498.675 73.659 L 498.677 73.7 L 498.678 73.741 L 498.68 73.783 L 498.682 73.824 L 498.683 73.865 L 498.685 73.907 L 498.686 73.948 L 498.688 73.989 L 498.689 74.031 L 498.691 74.072 L 498.692 74.113 L 498.694 74.154 L 498.696 74.196 L 498.697 74.237 L 498.699 74.278 L 498.7 74.319 L 498.702 74.361 L 498.703 74.402 L 498.705 74.443 L 498.707 74.484 L 498.708 74.526 L 498.71 74.567 L 498.711 74.608 L 498.713 74.649 L 498.714 74.69 L 498.716 74.732 L 498.717 74.773 L 498.719 74.814 L 498.721 74.855 L 498.722 74.896 L 498.724 74.938 L 498.725 74.979 L 498.727 75.02 L 498.728 75.061 L 498.73 75.102 L 498.732 75.143 L 498.733 75.185 L 498.735 75.226 L 498.736 75.267 L 498.738 75.308 L 498.74 75.349 L 498.741 75.39 L 498.743 75.431 L 498.744 75.472 L 498.746 75.514 L 498.747 75.555 L 498.749 75.596 L 498.751 75.637 L 498.752 75.678 L 498.754 75.719 L 498.755 75.76 L 498.757 75.801 L 498.758 75.842 L 498.76 75.883 L 498.762 75.924 L 498.763 75.965 L 498.765 76.006 L 498.766 76.047 L 498.768 76.088 L 498.769 76.13 L 498.771 76.171 L 498.773 76.212 L 498.774 76.253 L 498.776 76.294 L 498.777 76.335 L 498.779 76.376 L 498.781 76.417 L 498.782 76.458 L 498.784 76.499 L 498.785 76.54 L 498.787 76.581 L 498.788 76.622 L 498.79 76.662 L 498.792 76.703 L 498.793 76.744 L 498.795 76.785 L 498.796 76.826 L 498.798 76.867 L 498.8 76.908 L 498.801 76.949 L 498.803 76.99 L 498.804 77.031 L 498.806 77.072 L 498.808 77.113 L 498.809 77.154 L 498.811 77.195 L 498.812 77.235 L 498.814 77.276 L 498.815 77.317 L 498.817 77.358 L 498.819 77.399 L 498.82 77.44 L 498.822 77.481 L 498.823 77.522 L 498.825 77.562 L 498.827 77.603 L 498.828 77.644 L 498.83 77.685 L 498.831 77.726 L 498.833 77.767 L 498.835 77.807 L 498.836 77.848 L 498.838 77.889 L 498.839 77.93 L 498.841 77.971 L 498.843 78.012 L 498.844 78.052 L 498.846 78.093 L 498.847 78.134 L 498.849 78.175 L 498.851 78.215 L 498.852 78.256 L 498.854 78.297 L 498.855 78.338 L 498.857 78.379 L 498.859 78.419 L 498.86 78.46 L 498.862 78.501 L 498.863 78.541 L 498.865 78.582 L 498.867 78.623 L 498.868 78.664 L 498.87 78.704 L 498.871 78.745 L 498.873 78.786 L 498.875 78.826 L 498.876 78.867 L 498.878 78.908 L 498.879 78.949 L 498.881 78.989 L 498.883 79.03 L 498.884 79.071 L 498.886 79.111 L 498.888 79.152 L 498.889 79.193 L 498.891 79.233 L 498.892 79.274 L 498.894 79.315 L 498.896 79.355 L 498.897 79.396 L 498.899 79.436 L 498.9 79.477 L 498.902 79.518 L 498.904 79.558 L 498.905 79.599 L 498.907 79.639 L 498.908 79.68 L 498.91 79.721 L 498.912 79.761 L 498.913 79.802 L 498.915 79.842 L 498.917 79.883 L 498.918 79.924 L 498.92 79.964 L 498.921 80.005 L 498.923 80.045 L 498.925 80.086 L 498.926 80.126 L 498.928 80.167 L 498.93 80.207 L 498.931 80.248 L 498.933 80.288 L 498.934 80.329 L 498.936 80.369 L 498.938 80.41 L 498.939 80.45 L 498.941 80.491 L 498.942 80.531 L 498.944 80.572 L 498.946 80.612 L 498.947 80.653 L 498.949 80.693 L 498.951 80.734 L 498.952 80.774 L 498.954 80.815 L 498.955 80.855 L 498.957 80.896 L 498.959 80.936 L 498.96 80.976 L 498.962 81.017 L 498.964 81.057 L 498.965 81.098 L 498.967 81.138 L 498.968 81.179 L 498.97 81.219 L 498.972 81.259 L 498.973 81.3 L 498.975 81.34 L 498.977 81.38 L 498.978 81.421 L 498.98 81.461 L 498.982 81.502 L 498.983 81.542 L 498.985 81.582 L 498.986 81.623 L 498.988 81.663 L 498.99 81.703 L 498.991 81.744 L 498.993 81.784 L 498.995 81.824 L 498.996 81.865 L 498.998 81.905 L 499 81.945 L 499.001 81.986 L 499.003 82.026 L 499.004 82.066 L 499.006 82.107 L 499.008 82.147 L 499.009 82.187 L 499.011 82.227 L 499.013 82.268 L 499.014 82.308 L 499.016 82.348 L 499.018 82.388 L 499.019 82.429 L 499.021 82.469 L 499.022 82.509 L 499.024 82.549 L 499.026 82.59 L 499.027 82.63 L 499.029 82.67 L 499.031 82.71 L 499.032 82.751 L 499.034 82.791 L 499.036 82.831 L 499.037 82.871 L 499.039 82.911 L 499.041 82.952 L 499.042 82.992 L 499.044 83.032 L 499.045 83.072 L 499.047 83.112 L 499.049 83.152 L 499.05 83.193 L 499.052 83.233 L 499.054 83.273 L 499.055 83.313 L 499.057 83.353 L 499.059 83.393 L 499.06 83.433 L 499.062 83.474 L 499.064 83.514 L 499.065 83.554 L 499.067 83.594 L 499.069 83.634 L 499.07 83.674 L 499.072 83.714 L 499.074 83.754 L 499.075 83.794 L 499.077 83.834 L 499.078 83.875 L 499.08 83.915 L 499.082 83.955 L 499.083 83.995 L 499.085 84.035 L 499.087 84.075 L 499.088 84.115 L 499.09 84.155 L 499.092 84.195 L 499.093 84.235 L 499.095 84.275 L 499.097 84.315 L 499.098 84.355 L 499.1 84.395 L 499.102 84.435 L 499.103 84.475 L 499.105 84.515 L 499.107 84.555 L 499.108 84.595 L 499.11 84.635 L 499.112 84.675 L 499.113 84.715 L 499.115 84.755 L 499.117 84.795 L 499.118 84.835 L 499.12 84.875 L 499.122 84.915 L 499.123 84.955 L 499.125 84.995 L 499.127 85.035 L 499.128 85.074 L 499.13 85.114 L 499.132 85.154 L 499.133 85.194 L 499.135 85.234 L 499.137 85.274 L 499.138 85.314 L 499.14 85.354 L 499.142 85.394 L 499.143 85.434 L 499.145 85.473 L 499.147 85.513 L 499.148 85.553 L 499.15 85.593 L 499.152 85.633 L 499.153 85.673 L 499.155 85.713 L 499.157 85.752 L 499.158 85.792 L 499.16 85.832 L 499.162 85.872" id="blue" stroke="blue" style="stroke:blue" vector-effect="non-scaling-stroke"/><g id="captions"><text alignment-baseline="middle" text-anchor="middle" transform="rotate(0,319.933,118.978)" x="319.933" y="118.978">WIND, 2, 1</text></g></g></svg>