<svg width="696.491" height="336.304" viewBox="0 0 696.491 336.304" xmlns="http://www.w3.org/2000/svg"><g id="svgGroup" stroke-linecap="round" fill-rule="evenodd" font-size="9pt" stroke="#000" stroke-width="0.25mm" fill="none" style="stroke:#000;stroke-width:0.25mm;fill:none"><path d="M 689.938 0 L 688.632 1.18 L 687.608 2.255 L 686.62 3.315 L 685.361 4.456 L 684.337 5.493 L 683.35 6.518 L 682.305 7.566 L 680.944 8.636 L 680.084 9.629 L 679.05 10.648 L 677.881 11.63 L 676.896 12.599 L 675.874 13.594 L 674.698 14.553 L 673.713 15.499 L 672.466 16.538 L 671.436 17.472 L 670.432 18.433 L 669.243 19.358 L 668.562 20.238 L 667.139 21.158 L 666.152 22.06 L 665.165 22.991 L 663.962 23.888 L 662.982 24.808 L 661.774 25.696 L 660.799 26.606 L 659.905 27.413 L 658.711 28.32 L 657.491 29.189 L 656.529 30.08 L 655.302 30.94 L 654.711 31.749 L 653.253 32.642 L 652.017 33.49 L 651.446 34.286 L 649.929 35.135 L 648.986 35.996 L 648.094 36.755 L 646.904 37.616 L 645.713 38.474 L 644.821 39.221 L 643.631 40.072 L 642.849 40.843 L 641.282 41.665 L 640.773 42.419 L 639.194 43.235 L 638.697 43.982 L 637.196 44.823 L 636.303 45.542 L 635.111 46.366 L 634.357 47.108 L 632.843 47.937 L 631.949 48.644 L 630.755 49.455 L 630.015 50.183 L 628.787 50.894 L 627.592 51.696 L 626.86 52.415 L 625.323 53.224 L 624.425 53.91 L 623.703 54.62 L 622.155 55.421 L 621.438 56.125 L 620.184 56.814 L 619.474 57.511 L 617.912 58.302 L 617.206 58.994 L 616.138 59.697 L 614.867 60.375 L 613.662 61.14 L 612.965 61.82 L 611.896 62.513 L 610.828 63.204 L 609.759 63.892 L 607.998 64.639 L 607.644 65.288 L 606.574 65.969 L 605.504 66.647 L 604.433 67.323 L 603.362 67.996 L 601.564 68.731 L 601.233 69.363 L 600.16 70.029 L 599.087 70.693 L 598.013 71.354 L 596.939 72.013 L 595.864 72.67 L 594.788 73.325 L 593.712 73.977 L 592.371 74.61 L 591.713 75.236 L 590.635 75.881 L 589.556 76.525 L 588.476 77.166 L 587.395 77.805 L 586.313 78.442 L 585.23 79.077 L 584.147 79.709 L 583.062 80.34 L 581.976 80.968 L 580.89 81.595 L 579.802 82.219 L 578.713 82.841 L 577.327 83.45 L 576.682 84.042 L 576.509 84.55 L 574.665 85.205 L 573.571 85.817 L 572.475 86.428 L 571.379 87.037 L 570.28 87.643 L 569.181 88.248 L 568.08 88.851 L 567.927 89.339 L 566.05 89.983 L 564.945 90.581 L 563.839 91.176 L 562.732 91.77 L 562.588 92.246 L 560.691 92.884 L 559.58 93.472 L 558.467 94.059 L 557.025 94.639 L 557.36 95.073 L 555.445 95.704 L 554.326 96.284 L 553.205 96.862 L 553.073 97.319 L 551.144 97.945 L 550.018 98.518 L 549.888 98.968 L 547.951 99.591 L 546.82 100.16 L 545.687 100.727 L 545.559 101.168 L 543.608 101.787 L 542.471 102.349 L 542.343 102.784 L 540.043 103.402 L 539.382 103.923 L 539.255 104.352 L 537.287 104.964 L 537.158 105.389 L 535.186 106 L 534.033 106.551 L 533.903 106.97 L 531.923 107.578 L 530.764 108.124 L 530.167 108.548 L 528.785 109.109 L 528.652 109.519 L 526.659 110.123 L 526.523 110.528 L 524.526 111.131 L 523.354 111.667 L 522.747 112.081 L 521.351 112.634 L 521.209 113.031 L 519.202 113.629 L 519.056 114.022 L 517.045 114.619 L 516.429 115.025 L 515.022 115.57 L 514.869 115.957 L 512.851 116.551 L 512.694 116.934 L 510.333 117.537 L 510.652 117.874 L 508.628 118.464 L 508.462 118.841 L 506.435 119.43 L 505.802 119.824 L 504.374 120.359 L 504.199 120.73 L 502.166 121.316 L 501.526 121.705 L 500.09 122.237 L 499.904 122.603 L 498.446 123.062 L 497.004 123.591 L 496.808 123.952 L 494.44 124.549 L 494.708 124.861 L 492.665 125.44 L 492.007 125.82 L 491.585 126.196 L 489.539 126.774 L 488.875 127.15 L 487.416 127.671 L 487.192 128.021 L 485.727 128.472 L 484.261 128.991 L 484.026 129.337 L 482.56 129.786 L 481.089 130.303 L 480.408 130.671 L 479.951 131.034 L 477.589 131.624 L 477.784 131.914 L 476.744 132.332 L 474.385 132.922 L 474.564 133.208 L 473.096 133.651 L 471.607 134.161 L 470.905 134.522 L 470.418 134.876 L 468.065 135.463 L 468.212 135.743 L 466.742 136.183 L 465.242 136.688 L 464.525 137.045 L 464.017 137.394 L 462.547 137.831 L 460.753 138.355 L 460.861 138.628 L 459.39 139.064 L 458.862 139.408 L 456.525 139.991 L 456.608 140.26 L 455.137 140.694 L 454.205 141.066 L 452.682 141.565 L 451.935 141.913 L 450.998 142.283 L 450.44 142.622 L 448.114 143.201 L 447.771 143.495 L 447.202 143.832 L 445.731 144.261 L 444.783 144.628 L 443.241 145.123 L 442.472 145.465 L 441.518 145.83 L 440.562 146.195 L 439.964 146.527 L 437.656 147.103 L 437.271 147.391 L 436.307 147.753 L 435.693 148.084 L 434.224 148.508 L 432.423 149.019 L 432.017 149.304 L 431.044 149.664 L 430.41 149.992 L 428.941 150.414 L 427.962 150.773 L 426.981 151.131 L 425.179 151.639 L 424.744 151.921 L 424.085 152.247 L 422.616 152.666 L 421.626 153.022 L 420.633 153.378 L 419.639 153.733 L 418.643 154.088 L 416.839 154.593 L 416.37 154.872 L 415.368 155.226 L 414.364 155.579 L 413.358 155.932 L 412.35 156.285 L 411.34 156.637 L 410.329 156.989 L 409.315 157.34 L 408.3 157.692 L 406.493 158.192 L 405.981 158.47 L 404.96 158.82 L 403.936 159.17 L 402.911 159.519 L 401.883 159.869 L 400.854 160.218 L 399.822 160.567 L 398.789 160.915 L 397.753 161.263 L 396.716 161.611 L 395.677 161.959 L 394.635 162.306 L 393.592 162.653 L 392.547 163 L 391.5 163.347 L 390.137 163.733 L 389.56 164.006 L 388.507 164.352 L 387.452 164.698 L 386.395 165.043 L 385.335 165.388 L 383.336 165.906 L 383.079 166.123 L 382.013 166.468 L 380.946 166.812 L 379.876 167.157 L 378.515 167.538 L 377.895 167.811 L 378.156 167.922 L 376.04 168.419 L 374.961 168.763 L 373.606 169.143 L 372.961 169.415 L 371.876 169.758 L 370.789 170.1 L 369.436 170.479 L 368.775 170.752 L 367.681 171.094 L 366.329 171.471 L 365.655 171.744 L 364.556 172.085 L 363.204 172.462 L 362.519 172.734 L 361.414 173.076 L 360.062 173.451 L 359.365 173.724 L 358.253 174.065 L 356.902 174.439 L 356.193 174.712 L 355.076 175.053 L 353.725 175.426 L 354.24 175.472 L 351.967 175.992 L 351.237 176.265 L 350.109 176.606 L 348.762 176.978 L 348.02 177.251 L 346.672 177.622 L 345.922 177.896 L 344.574 178.267 L 343.817 178.541 L 342.675 178.881 L 342.346 179.049 L 340.876 179.444 L 339.531 179.813 L 338.753 180.087 L 337.407 180.456 L 336.622 180.731 L 335.275 181.099 L 334.483 181.374 L 333.136 181.742 L 333.492 181.795 L 331.315 182.302 L 330.505 182.578 L 329.16 182.944 L 328.343 183.221 L 326.999 183.587 L 326.002 183.889 L 326.307 183.947 L 324.159 184.449 L 323.322 184.726 L 321.978 185.09 L 321.135 185.368 L 319.79 185.732 L 318.782 186.034 L 319.035 186.095 L 316.916 186.593 L 315.902 186.895 L 315.038 187.174 L 313.692 187.536 L 312.82 187.816 L 312.41 187.985 L 310.788 188.396 L 309.904 188.676 L 308.559 189.037 L 307.531 189.339 L 307.705 189.407 L 305.63 189.897 L 304.598 190.199 L 303.692 190.48 L 302.346 190.84 L 301.308 191.142 L 301.441 191.213 L 299.387 191.699 L 298.345 192.001 L 297.3 192.302 L 297.406 192.376 L 295.367 192.859 L 294.317 193.161 L 293.266 193.463 L 292.322 193.748 L 291.861 193.918 L 290.264 194.321 L 289.206 194.623 L 288.247 194.909 L 286.898 195.266 L 286.713 195.382 L 285.12 195.783 L 284.146 196.07 L 282.797 196.426 L 282.595 196.543 L 281.006 196.944 L 279.933 197.246 L 278.943 197.534 L 278.449 197.706 L 276.867 198.105 L 275.786 198.407 L 274.704 198.709 L 274.475 198.829 L 272.964 199.215 L 271.613 199.569 L 270.524 199.871 L 270.277 199.992 L 268.699 200.388 L 267.605 200.691 L 266.51 200.993 L 266.427 201.085 L 264.48 201.551 L 263.379 201.854 L 263.104 201.977 L 261.534 202.371 L 260.428 202.674 L 259.321 202.977 L 259.036 203.101 L 257.464 203.494 L 256.352 203.797 L 256.208 203.896 L 254.29 204.356 L 253.172 204.659 L 252.053 204.962 L 251.74 205.089 L 250.176 205.48 L 249.052 205.784 L 248.729 205.912 L 247.166 206.302 L 246.037 206.606 L 245.704 206.734 L 244.143 207.124 L 243.009 207.428 L 242.666 207.558 L 241.106 207.946 L 239.967 208.25 L 239.614 208.381 L 238.056 208.769 L 236.912 209.073 L 236.549 209.205 L 234.993 209.592 L 233.843 209.897 L 233.469 210.03 L 231.915 210.416 L 230.761 210.721 L 230.377 210.855 L 228.824 211.241 L 227.665 211.546 L 227.27 211.681 L 225.72 212.066 L 224.555 212.371 L 224.15 212.507 L 222.601 212.891 L 221.432 213.197 L 221.016 213.335 L 219.469 213.718 L 218.266 214.03 L 218.084 214.118 L 216.532 214.501 L 215.352 214.808 L 214.923 214.947 L 213.373 215.329 L 212.934 215.469 L 211.388 215.851 L 210.2 216.158 L 209.75 216.299 L 208.195 216.682 L 207.225 216.942 L 206.773 217.084 L 205.224 217.465 L 204.761 217.608 L 203.216 217.988 L 202.015 218.296 L 201.541 218.44 L 199.998 218.819 L 199.737 218.918 L 198.191 219.297 L 196.982 219.606 L 196.495 219.752 L 194.952 220.13 L 193.737 220.439 L 193.13 220.609 L 191.915 220.918 L 191.415 221.065 L 189.871 221.443 L 189.36 221.591 L 187.839 221.965 L 186.813 222.232 L 186.3 222.381 L 184.755 222.758 L 184.231 222.908 L 182.715 223.279 L 181.677 223.548 L 181.15 223.699 L 179.605 224.075 L 179.067 224.227 L 177.557 224.596 L 177.209 224.707 L 175.665 225.083 L 174.42 225.394 L 173.868 225.548 L 172.365 225.915 L 171.997 226.029 L 170.453 226.404 L 169.888 226.559 L 168.394 226.924 L 167.318 227.198 L 166.75 227.354 L 165.206 227.728 L 164.576 227.897 L 163.315 228.21 L 162.734 228.367 L 161.243 228.73 L 160.836 228.85 L 159.291 229.223 L 158.02 229.537 L 157.384 229.706 L 156.111 230.02 L 155.513 230.18 L 154.028 230.54 L 153.598 230.663 L 152.051 231.036 L 151.439 231.197 L 149.963 231.556 L 149.514 231.681 L 147.969 232.053 L 147.325 232.222 L 146.037 232.538 L 145.409 232.701 L 143.941 233.057 L 142.804 233.339 L 142.173 233.503 L 140.701 233.859 L 140.226 233.989 L 138.676 234.36 L 138.025 234.529 L 136.721 234.846 L 136.074 235.012 L 134.61 235.366 L 134.112 235.499 L 132.562 235.869 L 131.906 236.038 L 130.593 236.356 L 129.929 236.525 L 128.473 236.876 L 127.953 237.013 L 126.495 237.363 L 125.972 237.501 L 124.419 237.87 L 123.757 238.039 L 122.431 238.359 L 121.747 238.53 L 120.298 238.878 L 119.751 239.02 L 118.301 239.367 L 117.751 239.509 L 116.196 239.878 L 115.527 240.047 L 114.189 240.368 L 113.519 240.536 L 112.177 240.858 L 111.469 241.033 L 110.027 241.378 L 109.45 241.524 L 108.569 241.738 L 107.219 242.061 L 106.495 242.238 L 105.064 242.58 L 104.464 242.73 L 103.032 243.072 L 102.428 243.222 L 100.994 243.564 L 100.387 243.715 L 98.952 244.057 L 98.342 244.208 L 96.78 244.576 L 96.097 244.745 L 94.728 245.069 L 94.042 245.238 L 93.291 245.42 L 91.867 245.758 L 91.229 245.914 L 89.803 246.253 L 89.162 246.409 L 87.735 246.747 L 87.091 246.904 L 85.525 247.271 L 84.833 247.44 L 83.447 247.767 L 82.752 247.936 L 81.974 248.122 L 80.559 248.457 L 79.886 248.619 L 78.47 248.954 L 77.793 249.116 L 76.376 249.451 L 75.695 249.614 L 74.828 249.82 L 73.426 250.149 L 72.724 250.318 L 71.319 250.647 L 70.616 250.817 L 69.208 251.146 L 68.503 251.316 L 67.692 251.506 L 66.287 251.837 L 65.571 252.006 L 64.165 252.337 L 63.444 252.506 L 62.038 252.837 L 61.425 252.985 L 60.602 253.177 L 59.195 253.507 L 58.465 253.678 L 57.057 254.008 L 56.322 254.18 L 55.46 254.383 L 54.029 254.715 L 53.312 254.885 L 51.877 255.218 L 51.159 255.388 L 49.721 255.721 L 49.001 255.891 L 48.282 256.061 L 46.84 256.395 L 46.117 256.565 L 44.672 256.899 L 43.948 257.069 L 43.086 257.267 L 41.692 257.592 L 41.049 257.744 L 39.596 258.079 L 38.868 258.249 L 37.997 258.449 L 36.603 258.773 L 35.807 258.956 L 34.952 259.154 L 33.683 259.45 L 32.881 259.633 L 31.487 259.957 L 30.68 260.141 L 29.824 260.339 L 28.551 260.635 L 27.738 260.82 L 26.344 261.143 L 25.525 261.329 L 24.669 261.526 L 23.393 261.822 L 22.567 262.009 L 21.711 262.206 L 20.229 262.545 L 19.487 262.716 L 18.207 263.012 L 17.369 263.201 L 16.514 263.398 L 15.024 263.738 L 14.278 263.909 L 13.531 264.08 L 12.037 264.42 L 11.289 264.592 L 10.54 264.763 L 9.042 265.104 L 8.291 265.275 L 6.789 265.617 L 6.036 265.788 L 5.284 265.96 L 3.777 266.302 L 3.023 266.474 L 2.268 266.645 L 0.757 266.988 L 0 267.16 L 15.893 336.304 L 16.648 336.129 L 18.156 335.78 L 18.91 335.605 L 19.663 335.43 L 21.167 335.082 L 21.919 334.907 L 22.67 334.733 L 24.171 334.385 L 24.921 334.211 L 26.42 333.864 L 27.169 333.69 L 27.917 333.517 L 29.412 333.17 L 30.159 332.997 L 30.906 332.824 L 32.397 332.478 L 33.143 332.305 L 33.887 332.132 L 35.376 331.787 L 36.119 331.615 L 37.605 331.27 L 38.347 331.098 L 39.089 330.926 L 40.571 330.583 L 41.311 330.411 L 42.051 330.239 L 43.53 329.897 L 44.269 329.725 L 45.745 329.383 L 46.482 329.212 L 47.219 329.041 L 48.692 328.7 L 49.427 328.529 L 50.897 328.188 L 51.632 328.018 L 52.366 327.848 L 53.832 327.508 L 54.565 327.338 L 55.297 327.168 L 56.761 326.829 L 57.492 326.659 L 58.952 326.321 L 59.682 326.152 L 60.411 325.982 L 61.868 325.645 L 62.596 325.476 L 64.051 325.138 L 64.777 324.97 L 65.504 324.802 L 66.955 324.465 L 67.68 324.297 L 69.128 323.961 L 69.852 323.793 L 71.298 323.458 L 72.02 323.291 L 72.742 323.123 L 74.185 322.789 L 74.905 322.621 L 76.345 322.288 L 77.065 322.121 L 77.784 321.954 L 79.22 321.621 L 79.938 321.454 L 81.372 321.122 L 82.088 320.956 L 83.52 320.624 L 84.235 320.458 L 84.95 320.292 L 86.378 319.961 L 87.091 319.796 L 88.516 319.465 L 89.229 319.3 L 90.651 318.97 L 91.362 318.805 L 92.073 318.64 L 93.492 318.311 L 94.201 318.147 L 95.618 317.818 L 96.326 317.654 L 97.741 317.326 L 98.447 317.162 L 99.153 316.998 L 100.564 316.671 L 101.269 316.507 L 102.678 316.181 L 103.381 316.018 L 104.787 315.691 L 105.489 315.528 L 106.893 315.203 L 107.594 315.04 L 108.995 314.715 L 109.695 314.553 L 110.394 314.391 L 111.791 314.067 L 112.489 313.905 L 113.884 313.581 L 114.581 313.42 L 115.973 313.097 L 116.669 312.935 L 118.059 312.613 L 118.753 312.452 L 120.14 312.13 L 120.833 311.969 L 122.218 311.648 L 122.91 311.487 L 124.292 311.167 L 124.983 311.006 L 125.673 310.846 L 127.052 310.526 L 127.74 310.367 L 129.117 310.047 L 129.804 309.888 L 131.178 309.569 L 131.864 309.41 L 133.236 309.091 L 133.921 308.933 L 135.289 308.615 L 135.973 308.456 L 137.339 308.139 L 138.022 307.981 L 139.386 307.664 L 140.067 307.506 L 141.428 307.19 L 142.108 307.032 L 143.467 306.717 L 144.145 306.56 L 145.502 306.245 L 146.179 306.088 L 147.533 305.773 L 148.209 305.616 L 149.56 305.303 L 150.235 305.146 L 151.584 304.833 L 152.257 304.677 L 153.603 304.364 L 154.276 304.208 L 155.62 303.896 L 156.291 303.74 L 157.632 303.429 L 158.302 303.273 L 159.64 302.962 L 160.977 302.652 L 161.645 302.497 L 162.98 302.187 L 163.646 302.032 L 164.978 301.723 L 165.644 301.568 L 166.973 301.259 L 167.637 301.105 L 168.964 300.797 L 169.627 300.643 L 170.951 300.335 L 171.613 300.182 L 172.935 299.875 L 173.595 299.721 L 174.915 299.415 L 176.233 299.108 L 176.891 298.955 L 178.206 298.65 L 178.863 298.497 L 180.176 298.192 L 180.832 298.04 L 182.142 297.735 L 182.797 297.583 L 184.105 297.279 L 185.411 296.975 L 186.064 296.824 L 187.367 296.521 L 188.019 296.369 L 189.32 296.067 L 189.97 295.916 L 191.269 295.614 L 192.566 295.312 L 193.214 295.161 L 194.509 294.86 L 195.155 294.71 L 196.448 294.409 L 197.093 294.259 L 198.383 293.959 L 199.671 293.66 L 200.314 293.51 L 201.6 293.211 L 202.242 293.062 L 203.525 292.763 L 204.807 292.465 L 205.447 292.316 L 206.726 292.018 L 207.365 291.87 L 208.642 291.572 L 209.279 291.424 L 210.553 291.128 L 211.826 290.831 L 212.462 290.683 L 213.732 290.388 L 215 290.092 L 215.634 289.945 L 216.899 289.65 L 217.532 289.503 L 218.795 289.208 L 220.057 288.915 L 220.688 288.768 L 221.947 288.474 L 222.576 288.328 L 223.833 288.035 L 225.088 287.742 L 225.715 287.596 L 226.968 287.304 L 228.22 287.013 L 228.845 286.867 L 230.093 286.576 L 230.717 286.43 L 231.964 286.14 L 233.208 285.85 L 233.83 285.705 L 235.072 285.415 L 236.313 285.126 L 236.933 284.981 L 238.171 284.692 L 239.408 284.404 L 240.026 284.259 L 241.26 283.971 L 242.492 283.684 L 243.108 283.54 L 244.338 283.253 L 245.567 282.966 L 246.18 282.823 L 247.406 282.536 L 248.631 282.25 L 249.243 282.108 L 250.465 281.822 L 251.685 281.537 L 252.295 281.395 L 253.513 281.11 L 254.729 280.826 L 255.337 280.684 L 256.551 280.4 L 257.763 280.116 L 258.369 279.975 L 259.579 279.692 L 260.787 279.409 L 261.391 279.268 L 262.597 278.986 L 263.801 278.704 L 264.403 278.563 L 265.605 278.282 L 266.805 278.001 L 267.405 277.86 L 268.602 277.58 L 269.799 277.3 L 270.994 277.02 L 271.59 276.88 L 272.783 276.601 L 273.973 276.322 L 274.568 276.182 L 275.756 275.904 L 276.943 275.625 L 278.128 275.347 L 278.72 275.209 L 279.903 274.931 L 281.084 274.654 L 281.674 274.516 L 282.853 274.239 L 284.03 273.963 L 285.205 273.686 L 285.793 273.549 L 286.966 273.273 L 288.137 272.998 L 289.307 272.723 L 289.892 272.585 L 291.059 272.311 L 292.225 272.037 L 293.39 271.763 L 293.971 271.626 L 295.133 271.353 L 296.294 271.08 L 297.453 270.807 L 298.032 270.671 L 299.188 270.398 L 300.343 270.126 L 301.496 269.854 L 302.072 269.719 L 303.223 269.447 L 304.373 269.176 L 305.52 268.906 L 306.667 268.635 L 307.239 268.5 L 308.383 268.23 L 309.525 267.961 L 310.666 267.691 L 311.805 267.422 L 312.374 267.288 L 313.511 267.019 L 314.646 266.751 L 315.779 266.483 L 316.346 266.349 L 317.477 266.081 L 318.607 265.814 L 319.735 265.547 L 320.861 265.28 L 321.986 265.013 L 322.548 264.88 L 323.671 264.614 L 324.792 264.348 L 325.911 264.083 L 327.029 263.818 L 327.587 263.685 L 328.703 263.42 L 329.817 263.156 L 330.929 262.892 L 332.04 262.628 L 333.15 262.364 L 333.704 262.232 L 334.811 261.969 L 335.916 261.706 L 337.02 261.443 L 338.122 261.18 L 339.223 260.918 L 340.322 260.656 L 340.871 260.525 L 341.968 260.264 L 343.063 260.002 L 344.157 259.741 L 345.249 259.48 L 346.34 259.22 L 347.429 258.959 L 347.973 258.829 L 349.06 258.569 L 350.145 258.31 L 351.228 258.05 L 352.311 257.791 L 353.391 257.532 L 354.47 257.273 L 355.548 257.015 L 356.624 256.757 L 357.161 256.628 L 358.235 256.37 L 359.307 256.112 L 360.377 255.855 L 361.446 255.598 L 362.514 255.341 L 363.58 255.084 L 364.644 254.828 L 365.707 254.572 L 366.768 254.316 L 367.828 254.06 L 368.357 253.932 L 369.415 253.677 L 370.471 253.422 L 371.525 253.167 L 372.578 252.912 L 373.629 252.657 L 374.679 252.403 L 375.727 252.149 L 376.774 251.895 L 377.819 251.641 L 378.863 251.388 L 379.905 251.135 L 380.946 250.882 L 381.985 250.629 L 383.022 250.376 L 384.058 250.124 L 385.093 249.872 L 386.126 249.62 L 387.157 249.368 L 388.187 249.116 L 389.216 248.865 L 390.243 248.613 L 391.268 248.362 L 391.78 248.237 L 392.803 247.986 L 393.825 247.736 L 394.845 247.485 L 395.864 247.235 L 396.881 246.985 L 397.896 246.735 L 399.417 246.361 L 400.429 246.111 L 401.439 245.862 L 402.448 245.613 L 403.455 245.364 L 404.461 245.115 L 405.465 244.867 L 406.468 244.618 L 407.469 244.37 L 408.469 244.122 L 409.467 243.874 L 410.464 243.626 L 411.459 243.379 L 412.453 243.131 L 413.445 242.884 L 414.436 242.637 L 415.425 242.39 L 416.413 242.143 L 417.399 241.896 L 418.384 241.649 L 419.367 241.403 L 420.349 241.157 L 421.818 240.787 L 422.796 240.541 L 423.773 240.296 L 424.748 240.05 L 425.722 239.804 L 426.694 239.559 L 427.664 239.313 L 428.633 239.068 L 429.601 238.823 L 430.567 238.578 L 432.013 238.21 L 432.976 237.965 L 433.937 237.721 L 434.896 237.476 L 435.854 237.232 L 436.811 236.987 L 437.766 236.743 L 438.719 236.499 L 440.147 236.133 L 441.097 235.889 L 442.045 235.645 L 442.992 235.401 L 443.937 235.157 L 444.881 234.913 L 445.824 234.67 L 447.234 234.304 L 448.173 234.061 L 449.111 233.818 L 450.046 233.574 L 450.981 233.331 L 452.38 232.966 L 453.31 232.723 L 454.24 232.48 L 455.167 232.237 L 456.094 231.994 L 457.481 231.63 L 458.403 231.387 L 459.324 231.144 L 460.244 230.901 L 461.162 230.658 L 462.537 230.294 L 463.452 230.051 L 464.365 229.809 L 465.277 229.566 L 466.642 229.202 L 467.55 228.959 L 468.456 228.716 L 469.362 228.474 L 470.717 228.11 L 471.618 227.867 L 472.519 227.624 L 473.417 227.382 L 474.763 227.018 L 475.658 226.775 L 476.551 226.532 L 477.443 226.289 L 478.779 225.925 L 479.668 225.682 L 480.555 225.439 L 481.883 225.075 L 482.766 224.832 L 483.648 224.589 L 484.969 224.224 L 485.847 223.981 L 486.725 223.738 L 488.038 223.373 L 488.911 223.13 L 489.783 222.886 L 491.089 222.521 L 491.957 222.277 L 492.824 222.034 L 494.122 221.668 L 494.986 221.424 L 495.848 221.18 L 497.138 220.814 L 497.997 220.57 L 498.854 220.325 L 500.137 219.959 L 500.99 219.714 L 502.268 219.347 L 503.118 219.102 L 503.967 218.857 L 505.237 218.489 L 506.082 218.244 L 507.347 217.876 L 508.188 217.63 L 509.448 217.261 L 510.286 217.015 L 511.122 216.769 L 512.375 216.399 L 513.208 216.153 L 514.455 215.782 L 515.284 215.535 L 516.526 215.165 L 517.352 214.917 L 518.588 214.546 L 519.411 214.298 L 520.642 213.925 L 521.461 213.677 L 522.687 213.304 L 523.502 213.055 L 524.723 212.681 L 525.535 212.432 L 526.75 212.057 L 527.559 211.807 L 528.769 211.432 L 529.574 211.181 L 530.779 210.805 L 531.58 210.554 L 532.78 210.177 L 533.578 209.925 L 534.773 209.547 L 535.964 209.168 L 536.757 208.915 L 537.943 208.535 L 538.732 208.282 L 539.913 207.901 L 540.699 207.647 L 541.874 207.265 L 543.047 206.882 L 543.827 206.627 L 544.995 206.243 L 546.159 205.858 L 546.934 205.602 L 548.093 205.216 L 548.864 204.959 L 550.019 204.572 L 551.17 204.184 L 551.935 203.925 L 553.081 203.536 L 554.224 203.147 L 554.984 202.887 L 556.122 202.496 L 557.257 202.104 L 558.388 201.711 L 559.141 201.449 L 560.268 201.055 L 561.391 200.66 L 562.138 200.396 L 563.257 199.999 L 564.372 199.602 L 565.484 199.203 L 566.224 198.937 L 567.331 198.538 L 568.435 198.137 L 569.536 197.735 L 570.634 197.332 L 571.365 197.063 L 572.458 196.658 L 573.548 196.253 L 574.635 195.846 L 575.718 195.439 L 576.439 195.167 L 577.518 194.757 L 578.594 194.347 L 579.667 193.935 L 580.737 193.523 L 581.803 193.109 L 582.867 192.694 L 583.928 192.278 L 584.633 192 L 585.689 191.582 L 586.742 191.163 L 587.792 190.743 L 588.838 190.321 L 589.882 189.899 L 590.923 189.475 L 591.961 189.05 L 592.996 188.623 L 594.027 188.195 L 595.056 187.767 L 596.082 187.336 L 597.105 186.905 L 598.125 186.472 L 599.142 186.038 L 600.156 185.602 L 601.167 185.165 L 602.175 184.727 L 603.18 184.287 L 604.182 183.846 L 605.181 183.404 L 606.178 182.96 L 607.171 182.515 L 608.161 182.068 L 609.149 181.62 L 610.461 181.02 L 611.441 180.569 L 612.419 180.116 L 613.393 179.661 L 614.365 179.205 L 615.334 178.747 L 616.621 178.135 L 617.583 177.674 L 618.542 177.211 L 619.498 176.747 L 620.451 176.281 L 621.718 175.657 L 622.664 175.188 L 623.608 174.716 L 624.549 174.243 L 625.798 173.61 L 626.732 173.134 L 627.663 172.655 L 628.591 172.175 L 629.824 171.532 L 630.746 171.048 L 631.664 170.562 L 632.884 169.912 L 633.796 169.422 L 635.007 168.766 L 635.912 168.272 L 636.814 167.777 L 638.013 167.113 L 638.908 166.613 L 640.098 165.943 L 640.987 165.439 L 642.168 164.764 L 643.05 164.256 L 644.222 163.575 L 645.097 163.062 L 646.26 162.375 L 647.129 161.858 L 648.283 161.165 L 649.146 160.643 L 650.291 159.945 L 651.147 159.418 L 652.283 158.714 L 653.415 158.005 L 654.26 157.472 L 655.383 156.757 L 656.501 156.039 L 657.336 155.499 L 658.445 154.774 L 659.55 154.046 L 660.374 153.498 L 661.47 152.763 L 662.56 152.025 L 663.646 151.284 L 664.727 150.538 L 665.534 149.976 L 666.606 149.224 L 667.673 148.468 L 668.735 147.708 L 669.792 146.945 L 670.845 146.177 L 671.892 145.406 L 672.935 144.631 L 673.713 144.047 L 674.747 143.264 L 675.777 142.478 L 676.801 141.688 L 678.074 140.695 L 679.088 139.895 L 680.096 139.092 L 681.1 138.285 L 682.099 137.473 L 683.093 136.658 L 684.082 135.838 L 685.066 135.014 L 686.29 133.978 L 687.264 133.145 L 688.232 132.308 L 689.196 131.466 L 690.395 130.408 L 691.348 129.556 L 692.297 128.7 L 693.475 127.625 L 693.423 126.597 L 693.37 125.564 L 693.317 124.526 L 693.265 123.484 L 693.214 122.437 L 693.162 121.384 L 693.111 120.327 L 693.06 119.265 L 693.01 118.198 L 692.96 117.126 L 692.91 116.049 L 692.86 114.967 L 692.811 113.88 L 692.773 113.025 L 696.491 113.516 L 696.182 106.397 L 692.521 107.208 L 688.857 108.007 L 688.464 98.217 L 692.18 98.72 L 695.894 99.233 L 695.601 91.337 L 691.935 92.125 L 688.266 92.901 L 687.902 82.2 L 691.615 82.725 L 695.326 83.261 L 695.057 74.58 L 691.386 75.346 L 687.713 76.102 L 687.454 67.057 L 691.165 67.602 L 694.874 68.155 L 694.694 61.371 L 691.019 62.12 L 687.343 62.86 L 687.107 53.144 L 690.814 53.705 L 694.521 54.274 L 694.357 46.929 L 690.679 47.662 L 687 48.388 L 686.791 37.997 L 690.496 38.573 L 694.2 39.157 L 694.056 31.248 L 690.376 31.967 L 686.694 32.679 L 686.558 24.513 L 690.262 25.103 L 693.964 25.699 L 693.838 17.276 L 690.156 17.983 L 690.116 15.059 L 690.096 13.576 L 690.077 12.088 L 690.058 10.595 L 690.039 9.097 L 690.021 7.594 L 690.004 6.086 L 689.987 4.572 L 689.97 3.053 L 689.953 1.529 L 689.938 0 Z" vector-effect="non-scaling-stroke"/><path d="M 508.628 118.464 L 508.707 119.679 L 508.787 120.889 L 508.867 122.092 L 508.948 123.29 L 509.03 124.481 L 509.112 125.667 L 509.194 126.847 L 509.277 128.021 L 509.361 129.189 L 509.445 130.351 L 509.53 131.507 L 509.615 132.657 L 509.701 133.802 L 509.787 134.941 L 509.874 136.073 L 509.962 137.201 L 510.05 138.322 L 510.138 139.438 L 510.227 140.548 L 510.317 141.653 L 510.407 142.751 L 510.498 143.844 L 510.589 144.932 L 510.681 146.014 L 510.774 147.09 L 510.867 148.161 L 510.96 149.227 L 511.054 150.286 L 511.149 151.341 L 511.244 152.39 L 511.34 153.433 L 511.437 154.472 L 511.534 155.504 L 511.631 156.532 L 511.729 157.554 L 511.828 158.571 L 511.927 159.582 L 512.027 160.589 L 512.128 161.59 L 512.229 162.586 L 512.33 163.577 L 512.432 164.563 L 512.535 165.543 L 512.639 166.519 L 512.743 167.49 L 512.847 168.455 L 512.952 169.416 L 513.058 170.372 L 513.164 171.323 L 513.271 172.269 L 513.379 173.21 L 513.487 174.146 L 513.596 175.078 L 513.705 176.005 L 513.815 176.927 L 513.926 177.845 L 514.037 178.758 L 514.149 179.666 L 514.261 180.57 L 514.374 181.47 L 514.487 182.365 L 514.602 183.256 L 514.716 184.142 L 514.832 185.024 L 514.948 185.901 L 515.065 186.775 L 515.182 187.644 L 515.3 188.509 L 515.418 189.37 L 515.538 190.227 L 515.657 191.08 L 515.778 191.929 L 515.899 192.774 L 516.02 193.615 L 516.143 194.452 L 516.266 195.286 L 516.389 196.115 L 516.513 196.941 L 516.638 197.764 L 516.764 198.583 L 516.89 199.398 L 517.017 200.21 L 517.144 201.019 L 517.272 201.824 L 517.401 202.626 L 517.53 203.424 L 517.66 204.22 L 517.791 205.012 L 517.922 205.801 L 518.054 206.588 L 518.187 207.371 L 518.32 208.151 L 518.454 208.929 L 518.589 209.704 L 518.724 210.476 L 518.86 211.245 L 518.997 212.012 L 519.134 212.776 L 519.272 213.538 L 519.411 214.298 M 252.053 204.962 L 252.213 205.803 L 252.373 206.64 L 252.532 207.473 L 252.691 208.302 L 252.85 209.127 L 253.008 209.948 L 253.166 210.766 L 253.323 211.579 L 253.48 212.389 L 253.636 213.195 L 253.792 213.998 L 253.948 214.797 L 254.103 215.593 L 254.258 216.385 L 254.412 217.173 L 254.567 217.958 L 254.72 218.74 L 254.874 219.519 L 255.027 220.294 L 255.18 221.066 L 255.333 221.835 L 255.485 222.601 L 255.637 223.363 L 255.789 224.123 L 255.94 224.88 L 256.092 225.634 L 256.243 226.385 L 256.393 227.134 L 256.544 227.879 L 256.694 228.622 L 256.844 229.363 L 256.994 230.1 L 257.144 230.836 L 257.294 231.569 L 257.443 232.299 L 257.593 233.027 L 257.742 233.753 L 257.891 234.477 L 258.04 235.199 L 258.189 235.918 L 258.338 236.636 L 258.486 237.351 L 258.635 238.065 L 258.784 238.777 L 258.932 239.487 L 259.081 240.196 L 259.229 240.903 L 259.378 241.608 L 259.526 242.312 L 259.675 243.014 L 259.823 243.715 L 259.972 244.415 L 260.121 245.114 L 260.27 245.811 L 260.418 246.507 L 260.567 247.203 L 260.716 247.897 L 260.866 248.591 L 261.015 249.283 L 261.164 249.975 L 261.314 250.667 L 261.464 251.357 L 261.614 252.048 L 261.764 252.737 L 261.914 253.427 L 262.065 254.116 L 262.215 254.805 L 262.366 255.493 L 262.518 256.182 L 262.669 256.87 L 262.821 257.559 L 262.973 258.247 L 263.126 258.936 L 263.279 259.625 L 263.432 260.315 L 263.585 261.005 L 263.739 261.695 L 263.893 262.386 L 264.048 263.077 L 264.203 263.77 L 264.358 264.462 L 264.514 265.156 L 264.67 265.851 L 264.827 266.546 L 264.984 267.243 L 265.142 267.941 L 265.3 268.639 L 265.458 269.339 L 265.618 270.041 L 265.777 270.744 L 265.937 271.448 L 266.098 272.153 L 266.259 272.861 L 266.421 273.569 L 266.584 274.28 L 266.747 274.992 L 266.91 275.706 L 267.074 276.422 L 267.239 277.14 L 267.405 277.86 M 0 267.16 L 0.17 267.912 L 0.34 268.662 L 0.509 269.408 L 0.678 270.152 L 0.845 270.892 L 1.012 271.629 L 1.179 272.364 L 1.345 273.095 L 1.51 273.824 L 1.675 274.55 L 1.84 275.273 L 2.003 275.993 L 2.166 276.711 L 2.329 277.426 L 2.491 278.139 L 2.653 278.85 L 2.814 279.557 L 2.975 280.263 L 3.135 280.966 L 3.295 281.667 L 3.454 282.366 L 3.613 283.063 L 3.772 283.758 L 3.93 284.45 L 4.088 285.141 L 4.245 285.83 L 4.402 286.517 L 4.559 287.203 L 4.715 287.886 L 4.871 288.568 L 5.027 289.249 L 5.183 289.928 L 5.338 290.606 L 5.493 291.282 L 5.647 291.957 L 5.802 292.631 L 5.956 293.303 L 6.11 293.975 L 6.264 294.645 L 6.418 295.315 L 6.571 295.984 L 6.725 296.651 L 6.878 297.318 L 7.031 297.985 L 7.185 298.651 L 7.338 299.316 L 7.491 299.981 L 7.643 300.645 L 7.796 301.309 L 7.949 301.973 L 8.102 302.636 L 8.255 303.299 L 8.408 303.963 L 8.561 304.626 L 8.714 305.289 L 8.867 305.953 L 9.02 306.617 L 9.173 307.281 L 9.326 307.945 L 9.48 308.61 L 9.634 309.275 L 9.787 309.941 L 9.941 310.607 L 10.096 311.275 L 10.25 311.943 L 10.405 312.611 L 10.559 313.281 L 10.714 313.952 L 10.87 314.623 L 11.025 315.296 L 11.181 315.97 L 11.338 316.645 L 11.494 317.321 L 11.651 317.999 L 11.808 318.678 L 11.966 319.359 L 12.124 320.041 L 12.282 320.725 L 12.441 321.411 L 12.6 322.098 L 12.76 322.788 L 12.92 323.479 L 13.081 324.171 L 13.242 324.866 L 13.403 325.563 L 13.565 326.263 L 13.728 326.964 L 13.891 327.667 L 14.054 328.373 L 14.219 329.081 L 14.383 329.792 L 14.549 330.505 L 14.714 331.221 L 14.881 331.939 L 15.048 332.659 L 15.216 333.383 L 15.384 334.109 L 15.553 334.838 L 15.723 335.57 L 15.893 336.304" id="blue" stroke="blue" style="stroke:blue" vector-effect="non-scaling-stroke"/><g id="captions"><text alignment-baseline="middle" text-anchor="middle" transform="rotate(0,347.001,218.543)" x="347.001" y="218.543">WIND, 1, 1</text></g></g></svg>