<svg width="797.305" height="390.839" viewBox="0 0 797.305 390.839" xmlns="http://www.w3.org/2000/svg"><g id="svgGroup" stroke-linecap="round" fill-rule="evenodd" font-size="9pt" stroke="#000" stroke-width="0.25mm" fill="none" style="stroke:#000;stroke-width:0.25mm;fill:none"><path d="M 1.2 45.026 L 1.185 46.417 L 1.171 47.803 L 1.156 49.184 L 1.142 50.561 L 1.127 51.934 L 1.113 53.303 L 1.099 54.667 L 1.085 56.026 L 1.071 57.381 L 1.056 58.732 L 1.042 60.079 L 1.028 61.421 L 1.014 62.759 L 1 64.092 L 0.986 65.421 L 0.973 66.746 L 0.959 68.066 L 0.945 69.382 L 0.931 70.693 L 0.918 72 L 0.904 73.303 L 0.891 74.602 L 0.877 75.896 L 0.864 77.186 L 0.85 78.471 L 0.837 79.752 L 0.824 81.029 L 0.81 82.302 L 0.797 83.57 L 0.784 84.834 L 0.771 86.093 L 0.758 87.348 L 0.745 88.599 L 0.732 89.846 L 0.719 91.088 L 0.706 92.326 L 0.694 93.56 L 0.681 94.789 L 0.668 96.015 L 0.656 97.235 L 0.643 98.452 L 0.631 99.664 L 0.618 100.872 L 0.606 102.076 L 0.593 103.276 L 0.581 104.471 L 0.569 105.662 L 0.557 106.849 L 0.544 108.032 L 0.532 109.21 L 0.52 110.384 L 0.508 111.554 L 0.496 112.72 L 0.485 113.881 L 0.473 115.038 L 0.461 116.191 L 0.449 117.34 L 0.438 118.485 L 0.426 119.625 L 0.415 120.761 L 0.403 121.893 L 0.392 123.021 L 0.38 124.145 L 0.369 125.265 L 0.358 126.38 L 0.347 127.491 L 0.335 128.598 L 0.324 129.701 L 0.313 130.8 L 0.302 131.895 L 0.291 132.985 L 0.281 134.072 L 0.27 135.154 L 0.259 136.232 L 0.248 137.306 L 0.238 138.376 L 0.227 139.442 L 0.217 140.504 L 0.206 141.562 L 0.196 142.615 L 0.185 143.665 L 0.175 144.71 L 0.165 145.752 L 0.155 146.789 L 0.145 147.823 L 0.135 148.852 L 0.125 149.877 L 0.115 150.899 L 0.105 151.916 L 0.095 152.929 L 0.085 153.939 L 0.075 154.944 L 0.066 155.945 L 0.056 156.943 L 0.047 157.936 L 0.037 158.925 L 0.028 159.911 L 0.019 160.892 L 0.009 161.87 L 0 162.844 L 1.2 45.026 Z M 259.61 41.639 L 259.596 42.937 L 259.582 44.231 L 259.568 45.522 L 259.554 46.809 L 259.541 48.092 L 259.527 49.371 L 259.513 50.647 L 259.5 51.919 L 259.486 53.188 L 259.473 54.453 L 259.459 55.714 L 259.446 56.971 L 259.433 58.225 L 259.42 59.475 L 259.407 60.721 L 259.394 61.964 L 259.381 63.203 L 259.368 64.438 L 259.355 65.67 L 259.342 66.898 L 259.329 68.122 L 259.317 69.343 L 259.304 70.56 L 259.292 71.773 L 259.279 72.983 L 259.267 74.189 L 259.254 75.391 L 259.242 76.59 L 259.23 77.785 L 259.218 78.977 L 259.206 80.165 L 259.194 81.349 L 259.182 82.529 L 259.17 83.706 L 259.158 84.88 L 259.147 86.05 L 259.135 87.216 L 259.123 88.378 L 259.112 89.537 L 259.101 90.693 L 259.089 91.844 L 259.078 92.992 L 259.067 94.137 L 259.056 95.278 L 259.045 96.415 L 259.034 97.549 L 259.023 98.679 L 259.012 99.806 L 259.001 100.929 L 258.991 102.048 L 258.98 103.164 L 258.97 104.276 L 258.959 105.385 L 258.949 106.49 L 258.939 107.592 L 258.929 108.69 L 258.919 109.784 L 258.909 110.875 L 258.899 111.962 L 258.889 113.046 L 258.879 114.127 L 258.87 115.203 L 258.86 116.277 L 258.851 117.346 L 258.841 118.412 L 258.832 119.475 L 258.823 120.534 L 258.814 121.59 L 258.804 122.642 L 258.796 123.691 L 258.787 124.736 L 258.778 125.778 L 258.769 126.816 L 258.761 127.85 L 258.752 128.882 L 258.744 129.909 L 258.735 130.934 L 258.727 131.954 L 258.719 132.972 L 258.711 133.986 L 258.703 134.996 L 258.695 136.003 L 258.688 137.006 L 258.68 138.006 L 258.672 139.003 L 258.665 139.996 L 258.658 140.986 L 258.65 141.972 L 258.643 142.955 L 258.636 143.935 L 258.629 144.911 L 258.622 145.884 L 258.615 146.853 L 258.609 147.819 L 258.602 148.781 L 258.596 149.74 L 258.589 150.696 L 258.583 151.649 L 258.577 152.598 L 258.571 153.543 L 259.61 41.639 Z M 532.971 268.832 L 532.832 268.072 L 532.694 267.31 L 532.557 266.546 L 532.42 265.779 L 532.284 265.01 L 532.149 264.238 L 532.014 263.463 L 531.88 262.685 L 531.747 261.905 L 531.614 261.122 L 531.482 260.336 L 531.351 259.546 L 531.221 258.754 L 531.091 257.959 L 530.961 257.16 L 530.832 256.358 L 530.704 255.553 L 530.577 254.744 L 530.45 253.932 L 530.324 253.117 L 530.199 252.298 L 530.074 251.476 L 529.95 250.649 L 529.826 249.82 L 529.703 248.986 L 529.581 248.149 L 529.459 247.308 L 529.338 246.463 L 529.218 245.614 L 529.098 244.761 L 528.979 243.904 L 528.86 243.043 L 528.742 242.178 L 528.625 241.309 L 528.508 240.435 L 528.392 239.558 L 528.277 238.676 L 528.162 237.79 L 528.048 236.899 L 527.934 236.004 L 527.821 235.104 L 527.709 234.201 L 527.597 233.292 L 527.486 232.379 L 527.375 231.461 L 527.266 230.539 L 527.156 229.612 L 527.047 228.68 L 526.939 227.744 L 526.832 226.803 L 526.725 225.857 L 526.618 224.906 L 526.513 223.95 L 526.408 222.989 L 526.303 222.024 L 526.199 221.053 L 526.096 220.078 L 525.993 219.097 L 525.891 218.111 L 525.789 217.12 L 525.688 216.124 L 525.587 215.123 L 525.488 214.117 L 525.388 213.105 L 525.29 212.088 L 525.191 211.066 L 525.094 210.038 L 524.997 209.006 L 524.9 207.967 L 524.805 206.924 L 524.709 205.875 L 524.615 204.821 L 524.52 203.761 L 524.427 202.695 L 524.334 201.624 L 524.241 200.548 L 524.15 199.466 L 524.058 198.379 L 523.967 197.285 L 523.877 196.187 L 523.788 195.082 L 523.699 193.972 L 523.61 192.856 L 523.522 191.735 L 523.435 190.608 L 523.348 189.475 L 523.261 188.336 L 523.176 187.191 L 523.09 186.041 L 523.006 184.885 L 522.921 183.723 L 522.838 182.555 L 522.755 181.381 L 522.672 180.201 L 522.59 179.016 L 522.509 177.824 L 522.428 176.626 L 522.347 175.423 L 522.267 174.213 L 522.188 172.998 L 532.971 268.832 Z M 265.426 244.964 L 265.373 244.31 L 265.319 243.654 L 265.266 242.996 L 265.212 242.335 L 265.159 241.671 L 265.105 241.005 L 265.052 240.337 L 264.998 239.666 L 264.944 238.993 L 264.89 238.317 L 264.837 237.639 L 264.783 236.958 L 264.729 236.275 L 264.675 235.588 L 264.621 234.9 L 264.567 234.209 L 264.513 233.515 L 264.459 232.818 L 264.405 232.119 L 264.351 231.417 L 264.296 230.712 L 264.242 230.005 L 264.188 229.295 L 264.133 228.582 L 264.079 227.867 L 264.024 227.148 L 263.97 226.427 L 263.915 225.704 L 263.86 224.977 L 263.806 224.248 L 263.751 223.515 L 263.696 222.78 L 263.641 222.042 L 263.586 221.301 L 263.531 220.558 L 263.476 219.811 L 263.42 219.062 L 263.365 218.309 L 263.31 217.554 L 263.254 216.796 L 263.198 216.035 L 263.143 215.271 L 263.087 214.504 L 263.031 213.733 L 262.975 212.96 L 262.919 212.184 L 262.863 211.405 L 262.807 210.623 L 262.751 209.838 L 262.695 209.05 L 262.638 208.259 L 262.582 207.465 L 262.525 206.667 L 262.468 205.867 L 262.412 205.063 L 262.355 204.257 L 262.298 203.447 L 262.241 202.634 L 262.183 201.819 L 262.126 200.999 L 262.069 200.177 L 262.011 199.352 L 261.954 198.523 L 261.896 197.692 L 261.838 196.857 L 261.78 196.019 L 261.722 195.178 L 261.664 194.333 L 261.606 193.486 L 261.548 192.635 L 261.489 191.781 L 261.431 190.923 L 261.372 190.063 L 261.313 189.199 L 261.254 188.332 L 261.195 187.461 L 261.136 186.588 L 261.077 185.711 L 261.017 184.831 L 260.958 183.947 L 260.898 183.06 L 260.839 182.17 L 260.779 181.277 L 260.719 180.38 L 260.659 179.48 L 260.598 178.577 L 260.538 177.67 L 260.478 176.76 L 260.417 175.846 L 260.356 174.93 L 260.295 174.009 L 260.234 173.086 L 260.173 172.159 L 260.112 171.228 L 260.05 170.295 L 259.989 169.358 L 259.927 168.417 L 259.865 167.473 L 259.803 166.526 L 259.741 165.575 L 265.426 244.964 Z M 8.67 275.279 L 8.616 274.635 L 8.561 273.99 L 8.505 273.342 L 8.45 272.691 L 8.395 272.038 L 8.339 271.383 L 8.283 270.726 L 8.227 270.065 L 8.171 269.403 L 8.115 268.738 L 8.058 268.07 L 8.001 267.4 L 7.944 266.727 L 7.887 266.051 L 7.83 265.373 L 7.773 264.692 L 7.715 264.009 L 7.657 263.322 L 7.599 262.633 L 7.541 261.942 L 7.483 261.247 L 7.424 260.55 L 7.366 259.849 L 7.307 259.146 L 7.248 258.44 L 7.188 257.732 L 7.129 257.02 L 7.069 256.305 L 7.009 255.587 L 6.949 254.867 L 6.888 254.143 L 6.828 253.416 L 6.767 252.687 L 6.706 251.954 L 6.645 251.218 L 6.583 250.479 L 6.522 249.737 L 6.46 248.992 L 6.397 248.244 L 6.335 247.492 L 6.273 246.738 L 6.21 245.98 L 6.147 245.219 L 6.083 244.455 L 6.02 243.687 L 5.956 242.916 L 5.892 242.142 L 5.828 241.365 L 5.764 240.584 L 5.699 239.8 L 5.634 239.012 L 5.569 238.222 L 5.503 237.428 L 5.438 236.63 L 5.372 235.829 L 5.306 235.025 L 5.239 234.217 L 5.173 233.406 L 5.106 232.591 L 5.039 231.773 L 4.971 230.951 L 4.904 230.126 L 4.836 229.298 L 4.768 228.465 L 4.699 227.63 L 4.63 226.79 L 4.561 225.947 L 4.492 225.101 L 4.423 224.251 L 4.353 223.397 L 4.283 222.54 L 4.213 221.679 L 4.142 220.815 L 4.072 219.947 L 4 219.075 L 3.929 218.199 L 3.858 217.32 L 3.786 216.437 L 3.714 215.551 L 3.641 214.66 L 3.568 213.766 L 3.495 212.869 L 3.422 211.967 L 3.349 211.062 L 3.275 210.153 L 3.201 209.24 L 3.126 208.323 L 3.052 207.403 L 2.977 206.479 L 2.902 205.551 L 2.826 204.619 L 2.75 203.683 L 2.674 202.744 L 2.598 201.801 L 2.521 200.853 L 2.444 199.902 L 2.367 198.947 L 2.29 197.989 L 2.212 197.026 L 2.134 196.059 L 8.67 275.279 Z M 519.117 17.746 L 519.112 18.611 L 519.108 19.475 L 519.103 20.338 L 519.099 21.199 L 519.095 22.059 L 519.091 22.917 L 519.087 23.774 L 519.083 24.629 L 519.08 25.483 L 519.076 26.335 L 519.073 27.186 L 519.069 28.035 L 519.066 28.883 L 519.063 29.73 L 519.06 30.575 L 519.057 31.418 L 519.054 32.26 L 519.051 33.101 L 519.049 33.94 L 519.046 34.778 L 519.044 35.614 L 519.041 36.449 L 519.039 37.283 L 519.037 38.115 L 519.035 38.945 L 519.033 39.774 L 519.032 40.602 L 519.03 41.428 L 519.029 42.252 L 519.027 43.076 L 519.026 43.897 L 519.025 44.718 L 519.024 45.537 L 519.023 46.354 L 519.022 47.17 L 519.021 47.984 L 519.02 48.797 L 519.02 49.609 L 519.019 50.419 L 519.019 51.228 L 519.019 52.035 L 519.019 52.841 L 519.019 53.646 L 519.019 54.448 L 519.019 55.25 L 519.02 56.05 L 519.02 56.849 L 519.021 57.646 L 519.022 58.442 L 519.023 59.236 L 519.024 60.029 L 519.025 60.82 L 519.026 61.61 L 519.027 62.399 L 519.029 63.186 L 519.03 63.971 L 519.032 64.756 L 519.034 65.538 L 519.036 66.32 L 519.038 67.1 L 519.04 67.878 L 519.042 68.655 L 519.044 69.431 L 519.047 70.205 L 519.049 70.978 L 519.052 71.749 L 519.055 72.519 L 519.058 73.288 L 519.061 74.055 L 519.064 74.82 L 519.068 75.584 L 519.071 76.347 L 519.075 77.109 L 519.078 77.868 L 519.082 78.627 L 519.086 79.384 L 519.09 80.14 L 519.094 80.894 L 519.099 81.647 L 519.103 82.398 L 519.107 83.148 L 519.112 83.896 L 519.117 84.644 L 519.122 85.389 L 519.127 86.134 L 519.132 86.876 L 519.137 87.618 L 519.143 88.358 L 519.148 89.096 L 519.154 89.834 L 519.16 90.569 L 519.165 91.304 L 519.171 92.037 L 519.178 92.768 L 519.184 93.498 L 519.19 94.227 L 519.197 94.954 L 519.203 95.68 L 519.21 96.405 L 519.217 97.128 L 519.117 17.746 Z M 522.005 173.563 L 521.969 172.896 L 521.932 172.226 L 521.896 171.555 L 521.86 170.882 L 521.824 170.208 L 521.788 169.531 L 521.753 168.853 L 521.717 168.173 L 521.682 167.491 L 521.647 166.807 L 521.612 166.121 L 521.577 165.434 L 521.543 164.745 L 521.509 164.053 L 521.474 163.36 L 521.44 162.666 L 521.407 161.969 L 521.373 161.271 L 521.339 160.57 L 521.306 159.868 L 521.273 159.164 L 521.24 158.458 L 521.207 157.751 L 521.174 157.041 L 521.142 156.33 L 521.11 155.616 L 521.078 154.901 L 521.046 154.184 L 521.014 153.465 L 520.982 152.745 L 520.951 152.022 L 520.919 151.298 L 520.888 150.571 L 520.857 149.843 L 520.827 149.113 L 520.796 148.381 L 520.765 147.647 L 520.735 146.911 L 520.705 146.174 L 520.675 145.434 L 520.645 144.693 L 520.616 143.95 L 520.586 143.205 L 520.557 142.457 L 520.528 141.708 L 520.499 140.958 L 520.47 140.205 L 520.441 139.45 L 520.413 138.694 L 520.385 137.935 L 520.356 137.175 L 520.328 136.412 L 520.301 135.648 L 520.273 134.882 L 520.245 134.114 L 520.218 133.344 L 520.191 132.572 L 520.164 131.798 L 520.137 131.023 L 520.11 130.245 L 520.084 129.465 L 520.057 128.684 L 520.031 127.9 L 520.005 127.115 L 519.979 126.328 L 519.953 125.539 L 519.928 124.747 L 519.902 123.954 L 519.877 123.159 L 519.852 122.362 L 519.827 121.563 L 519.802 120.763 L 519.778 119.96 L 519.753 119.155 L 519.729 118.348 L 519.705 117.54 L 519.681 116.729 L 519.657 115.917 L 519.633 115.102 L 519.609 114.286 L 519.586 113.467 L 519.563 112.647 L 519.54 111.825 L 519.517 111 L 519.494 110.174 L 519.471 109.346 L 519.449 108.516 L 519.426 107.684 L 519.404 106.849 L 519.382 106.013 L 519.36 105.175 L 519.339 104.335 L 519.317 103.493 L 519.296 102.649 L 519.274 101.803 L 519.253 100.955 L 519.232 100.106 L 519.211 99.254 L 519.191 98.4 L 519.17 97.544 L 522.005 173.563 Z M 280.965 332.394 L 280.799 331.675 L 280.635 330.957 L 280.47 330.241 L 280.307 329.526 L 280.144 328.814 L 279.982 328.104 L 279.82 327.395 L 279.658 326.687 L 279.498 325.982 L 279.338 325.278 L 279.178 324.575 L 279.019 323.874 L 278.86 323.173 L 278.702 322.475 L 278.545 321.777 L 278.387 321.08 L 278.231 320.385 L 278.074 319.69 L 277.919 318.997 L 277.763 318.304 L 277.608 317.611 L 277.454 316.92 L 277.299 316.229 L 277.146 315.539 L 276.992 314.849 L 276.839 314.16 L 276.686 313.47 L 276.534 312.782 L 276.382 312.093 L 276.23 311.404 L 276.078 310.716 L 275.927 310.027 L 275.776 309.339 L 275.625 308.65 L 275.474 307.961 L 275.324 307.271 L 275.174 306.582 L 275.024 305.891 L 274.874 305.201 L 274.725 304.509 L 274.575 303.817 L 274.426 303.125 L 274.277 302.431 L 274.128 301.737 L 273.979 301.042 L 273.83 300.345 L 273.681 299.648 L 273.532 298.949 L 273.384 298.249 L 273.235 297.548 L 273.087 296.846 L 272.938 296.142 L 272.79 295.437 L 272.641 294.73 L 272.493 294.021 L 272.344 293.311 L 272.195 292.599 L 272.047 291.886 L 271.898 291.17 L 271.749 290.452 L 271.6 289.733 L 271.451 289.011 L 271.302 288.287 L 271.153 287.561 L 271.004 286.833 L 270.854 286.103 L 270.705 285.37 L 270.555 284.634 L 270.405 283.897 L 270.255 283.156 L 270.104 282.413 L 269.954 281.668 L 269.803 280.919 L 269.652 280.168 L 269.501 279.414 L 269.349 278.657 L 269.197 277.898 L 269.045 277.135 L 268.893 276.369 L 268.74 275.6 L 268.587 274.828 L 268.434 274.053 L 268.281 273.274 L 268.127 272.492 L 267.973 271.707 L 267.818 270.919 L 267.663 270.127 L 267.508 269.331 L 267.352 268.532 L 267.196 267.73 L 267.04 266.923 L 266.883 266.113 L 266.726 265.3 L 266.568 264.482 L 266.41 263.661 L 266.252 262.836 L 266.093 262.007 L 265.933 261.174 L 265.774 260.337 L 265.613 259.497 L 280.965 332.394 Z M 29.453 390.839 L 29.283 390.104 L 29.113 389.372 L 28.944 388.643 L 28.776 387.917 L 28.608 387.193 L 28.441 386.473 L 28.275 385.755 L 28.109 385.039 L 27.944 384.326 L 27.779 383.615 L 27.615 382.907 L 27.451 382.201 L 27.288 381.498 L 27.126 380.797 L 26.964 380.098 L 26.802 379.401 L 26.641 378.706 L 26.48 378.013 L 26.32 377.322 L 26.161 376.632 L 26.001 375.945 L 25.843 375.259 L 25.684 374.576 L 25.526 373.893 L 25.369 373.213 L 25.211 372.533 L 25.055 371.856 L 24.898 371.179 L 24.742 370.504 L 24.586 369.83 L 24.43 369.157 L 24.275 368.486 L 24.12 367.815 L 23.965 367.145 L 23.81 366.477 L 23.656 365.809 L 23.502 365.142 L 23.348 364.475 L 23.194 363.809 L 23.04 363.144 L 22.887 362.479 L 22.733 361.815 L 22.58 361.151 L 22.427 360.487 L 22.274 359.823 L 22.121 359.16 L 21.968 358.497 L 21.815 357.834 L 21.662 357.17 L 21.51 356.507 L 21.357 355.843 L 21.204 355.179 L 21.051 354.515 L 20.898 353.85 L 20.745 353.185 L 20.592 352.519 L 20.439 351.853 L 20.285 351.185 L 20.132 350.518 L 19.978 349.849 L 19.825 349.179 L 19.671 348.509 L 19.517 347.837 L 19.362 347.165 L 19.208 346.491 L 19.053 345.816 L 18.898 345.14 L 18.743 344.462 L 18.587 343.783 L 18.432 343.103 L 18.276 342.42 L 18.119 341.737 L 17.963 341.051 L 17.805 340.364 L 17.648 339.675 L 17.49 338.984 L 17.332 338.292 L 17.174 337.597 L 17.015 336.9 L 16.855 336.201 L 16.695 335.5 L 16.535 334.797 L 16.375 334.092 L 16.213 333.384 L 16.052 332.673 L 15.89 331.961 L 15.727 331.245 L 15.564 330.527 L 15.4 329.807 L 15.236 329.084 L 15.071 328.358 L 14.905 327.629 L 14.739 326.898 L 14.573 326.163 L 14.406 325.426 L 14.238 324.686 L 14.069 323.942 L 13.9 323.196 L 13.731 322.446 L 13.56 321.694 L 29.453 390.839 Z" id="blue" stroke="blue" style="stroke:blue" vector-effect="non-scaling-stroke"/><path d="M 797.296 0.728 L 795.606 0.682 L 794.344 0.649 L 793.504 0.627 L 792.248 0.596 L 790.995 0.565 L 790.162 0.545 L 788.916 0.515 L 787.673 0.487 L 786.846 0.468 L 785.61 0.441 L 784.377 0.415 L 783.557 0.398 L 782.33 0.373 L 781.106 0.349 L 780.293 0.333 L 779.075 0.31 L 777.862 0.288 L 776.651 0.267 L 775.846 0.254 L 774.642 0.234 L 773.441 0.215 L 772.243 0.197 L 771.447 0.185 L 770.255 0.169 L 769.067 0.153 L 767.882 0.138 L 766.701 0.123 L 765.915 0.114 L 764.739 0.101 L 763.567 0.089 L 762.398 0.078 L 761.232 0.067 L 760.07 0.057 L 759.297 0.051 L 758.14 0.043 L 756.986 0.035 L 755.836 0.028 L 754.689 0.022 L 753.545 0.016 L 752.405 0.012 L 751.267 0.008 L 750.511 0.006 L 749.379 0.003 L 748.25 0.001 L 747.124 0 L 746.001 0 L 744.882 0 L 743.765 0.002 L 742.652 0.004 L 741.542 0.006 L 740.434 0.01 L 739.33 0.014 L 738.229 0.019 L 737.131 0.025 L 736.036 0.031 L 734.944 0.038 L 733.854 0.046 L 732.768 0.055 L 731.685 0.064 L 730.604 0.074 L 729.527 0.085 L 728.452 0.096 L 727.38 0.109 L 725.955 0.126 L 724.89 0.14 L 723.828 0.154 L 722.768 0.17 L 721.712 0.186 L 720.657 0.202 L 719.606 0.22 L 718.558 0.238 L 717.164 0.263 L 716.122 0.283 L 715.082 0.303 L 714.045 0.324 L 713.011 0.346 L 711.636 0.376 L 710.608 0.4 L 709.583 0.424 L 708.56 0.448 L 707.539 0.474 L 706.183 0.509 L 705.168 0.536 L 704.157 0.563 L 703.147 0.592 L 701.805 0.631 L 700.802 0.66 L 699.8 0.691 L 698.469 0.733 L 697.474 0.765 L 696.481 0.798 L 695.16 0.842 L 694.173 0.877 L 693.188 0.912 L 691.877 0.959 L 690.898 0.996 L 689.92 1.033 L 688.62 1.083 L 687.648 1.121 L 686.678 1.16 L 685.388 1.213 L 684.423 1.254 L 683.14 1.309 L 682.18 1.351 L 680.904 1.408 L 679.949 1.451 L 678.997 1.495 L 677.73 1.555 L 676.782 1.6 L 675.521 1.662 L 674.578 1.708 L 673.324 1.772 L 672.386 1.82 L 671.138 1.885 L 670.204 1.934 L 668.962 2.001 L 668.033 2.052 L 666.797 2.121 L 665.565 2.19 L 664.642 2.243 L 663.416 2.315 L 662.498 2.369 L 661.277 2.442 L 660.363 2.498 L 659.148 2.573 L 657.935 2.648 L 657.028 2.706 L 655.821 2.784 L 654.617 2.862 L 653.716 2.922 L 652.517 3.002 L 651.62 3.063 L 650.426 3.145 L 649.236 3.227 L 648.344 3.29 L 647.158 3.374 L 645.975 3.46 L 644.795 3.546 L 643.911 3.611 L 642.735 3.699 L 641.562 3.788 L 640.684 3.855 L 639.515 3.945 L 638.349 4.036 L 637.185 4.129 L 636.314 4.198 L 635.155 4.292 L 633.998 4.386 L 632.843 4.481 L 631.978 4.553 L 630.827 4.65 L 629.679 4.748 L 628.532 4.846 L 627.388 4.945 L 626.531 5.02 L 625.391 5.121 L 624.252 5.223 L 623.116 5.325 L 621.981 5.428 L 620.848 5.532 L 620 5.61 L 618.871 5.716 L 617.743 5.822 L 616.617 5.928 L 615.493 6.036 L 614.371 6.144 L 613.53 6.226 L 612.411 6.336 L 611.293 6.446 L 610.177 6.557 L 609.062 6.669 L 607.949 6.782 L 606.837 6.895 L 605.726 7.009 L 604.617 7.124 L 603.786 7.21 L 602.68 7.326 L 601.574 7.443 L 600.47 7.56 L 599.367 7.678 L 598.265 7.797 L 597.164 7.916 L 596.064 8.036 L 594.965 8.157 L 593.868 8.278 L 592.771 8.4 L 591.675 8.523 L 590.58 8.646 L 589.486 8.77 L 588.666 8.863 L 587.573 8.988 L 586.481 9.114 L 585.389 9.24 L 584.299 9.367 L 583.208 9.494 L 582.119 9.622 L 581.03 9.75 L 579.941 9.879 L 578.853 10.009 L 577.766 10.139 L 576.678 10.27 L 575.591 10.401 L 574.505 10.533 L 573.418 10.666 L 572.332 10.798 L 571.246 10.932 L 570.16 11.066 L 569.074 11.2 L 568.26 11.301 L 567.174 11.437 L 566.089 11.572 L 565.003 11.709 L 563.917 11.845 L 562.831 11.983 L 561.745 12.12 L 560.659 12.258 L 559.572 12.397 L 558.485 12.536 L 557.398 12.675 L 556.311 12.815 L 555.223 12.956 L 554.134 13.096 L 553.046 13.238 L 551.956 13.379 L 551.139 13.486 L 550.048 13.628 L 548.957 13.77 L 547.866 13.913 L 546.773 14.057 L 545.68 14.201 L 544.586 14.345 L 543.491 14.489 L 542.396 14.634 L 541.299 14.779 L 540.476 14.889 L 539.378 15.034 L 538.279 15.18 L 537.178 15.327 L 536.077 15.474 L 534.975 15.621 L 533.871 15.768 L 533.042 15.879 L 531.936 16.027 L 530.829 16.175 L 529.721 16.323 L 528.611 16.472 L 527.5 16.621 L 526.665 16.733 L 525.552 16.882 L 524.436 17.032 L 523.319 17.182 L 522.201 17.332 L 521.361 17.445 L 520.24 17.595 L 519.117 17.746 L 517.992 17.897 L 516.865 18.048 L 516.019 18.162 L 514.889 18.313 L 513.758 18.465 L 512.624 18.617 L 511.773 18.731 L 510.636 18.883 L 509.497 19.035 L 508.641 19.149 L 507.498 19.302 L 506.353 19.455 L 505.493 19.569 L 504.344 19.722 L 503.193 19.875 L 502.328 19.99 L 501.173 20.144 L 500.016 20.297 L 499.146 20.412 L 497.984 20.566 L 496.82 20.719 L 495.946 20.835 L 494.777 20.989 L 493.606 21.142 L 492.726 21.258 L 491.55 21.412 L 490.666 21.527 L 489.486 21.681 L 488.598 21.797 L 487.413 21.951 L 486.225 22.105 L 485.332 22.221 L 484.138 22.375 L 483.241 22.491 L 482.043 22.645 L 481.142 22.761 L 479.938 22.915 L 479.033 23.031 L 477.824 23.185 L 476.915 23.301 L 475.7 23.455 L 474.787 23.57 L 473.567 23.725 L 472.649 23.84 L 471.73 23.956 L 470.501 24.11 L 469.578 24.225 L 468.343 24.379 L 467.415 24.494 L 466.174 24.648 L 465.241 24.763 L 464.306 24.879 L 463.057 25.032 L 462.117 25.147 L 461.175 25.262 L 459.917 25.415 L 458.97 25.53 L 458.022 25.645 L 456.753 25.798 L 455.8 25.913 L 454.844 26.027 L 453.566 26.18 L 452.605 26.294 L 451.642 26.409 L 450.677 26.523 L 449.386 26.675 L 448.416 26.789 L 447.443 26.903 L 446.468 27.017 L 445.164 27.168 L 444.183 27.282 L 443.2 27.395 L 442.215 27.509 L 441.227 27.622 L 439.906 27.773 L 438.912 27.885 L 437.916 27.998 L 436.918 28.111 L 435.917 28.224 L 434.914 28.336 L 433.572 28.486 L 432.563 28.598 L 431.551 28.71 L 430.536 28.822 L 429.519 28.933 L 428.5 29.045 L 427.478 29.156 L 426.453 29.267 L 425.425 29.378 L 424.395 29.489 L 423.362 29.6 L 422.327 29.711 L 421.288 29.821 L 420.247 29.931 L 419.203 30.041 L 418.157 30.151 L 417.108 30.261 L 416.055 30.37 L 415 30.48 L 413.943 30.589 L 412.882 30.698 L 411.818 30.807 L 410.752 30.915 L 409.683 31.024 L 408.611 31.132 L 407.535 31.24 L 406.457 31.347 L 405.376 31.455 L 404.292 31.562 L 403.205 31.67 L 402.115 31.776 L 401.022 31.883 L 400.292 31.954 L 399.193 32.06 L 398.092 32.167 L 396.988 32.272 L 395.88 32.378 L 394.77 32.483 L 394.028 32.554 L 392.912 32.659 L 391.793 32.763 L 390.671 32.868 L 389.545 32.972 L 388.793 33.042 L 387.663 33.145 L 386.529 33.249 L 385.391 33.352 L 384.251 33.456 L 383.489 33.524 L 382.343 33.627 L 381.193 33.729 L 380.041 33.831 L 379.27 33.899 L 378.112 34.001 L 376.951 34.102 L 376.174 34.17 L 375.007 34.271 L 373.836 34.371 L 373.054 34.438 L 371.878 34.538 L 370.698 34.638 L 369.909 34.705 L 368.723 34.804 L 367.534 34.903 L 366.739 34.969 L 365.544 35.068 L 364.346 35.166 L 363.545 35.231 L 362.34 35.329 L 361.535 35.394 L 360.324 35.491 L 359.11 35.588 L 358.299 35.653 L 357.078 35.749 L 356.263 35.813 L 355.036 35.909 L 354.217 35.973 L 352.984 36.068 L 351.748 36.163 L 350.922 36.226 L 349.679 36.321 L 348.849 36.383 L 347.6 36.477 L 346.765 36.54 L 345.51 36.633 L 344.671 36.695 L 343.41 36.788 L 342.567 36.849 L 341.299 36.942 L 340.451 37.003 L 339.177 37.094 L 338.325 37.155 L 337.045 37.246 L 336.189 37.306 L 335.331 37.367 L 334.041 37.457 L 333.179 37.517 L 331.882 37.606 L 331.015 37.666 L 329.712 37.754 L 328.841 37.813 L 327.968 37.872 L 326.656 37.96 L 325.778 38.019 L 324.899 38.077 L 323.577 38.164 L 322.693 38.222 L 321.364 38.308 L 320.476 38.366 L 319.586 38.423 L 318.248 38.508 L 317.353 38.565 L 316.456 38.622 L 315.108 38.706 L 314.207 38.762 L 313.304 38.818 L 311.946 38.902 L 311.038 38.957 L 310.128 39.013 L 308.761 39.095 L 307.846 39.15 L 306.93 39.205 L 306.012 39.259 L 304.631 39.341 L 303.708 39.395 L 302.783 39.449 L 301.857 39.502 L 300.463 39.582 L 299.531 39.635 L 298.598 39.688 L 297.662 39.741 L 296.255 39.82 L 295.315 39.872 L 294.373 39.924 L 293.428 39.976 L 292.008 40.054 L 291.059 40.105 L 290.108 40.156 L 289.155 40.207 L 288.199 40.258 L 286.763 40.334 L 285.803 40.384 L 284.84 40.434 L 283.876 40.484 L 282.91 40.533 L 281.942 40.583 L 280.485 40.657 L 279.512 40.706 L 278.537 40.754 L 277.559 40.803 L 276.58 40.851 L 275.598 40.899 L 274.614 40.947 L 273.135 41.018 L 272.146 41.066 L 271.155 41.113 L 270.162 41.16 L 269.167 41.206 L 268.17 41.253 L 267.171 41.299 L 266.17 41.345 L 265.166 41.391 L 264.161 41.437 L 262.648 41.505 L 261.638 41.55 L 260.625 41.594 L 259.61 41.639 L 258.592 41.683 L 257.573 41.728 L 256.551 41.772 L 255.528 41.815 L 254.502 41.859 L 253.474 41.902 L 252.444 41.945 L 251.412 41.988 L 250.377 42.03 L 249.34 42.073 L 248.302 42.115 L 247.261 42.157 L 246.217 42.198 L 245.172 42.24 L 244.124 42.281 L 243.074 42.322 L 242.022 42.362 L 240.968 42.403 L 239.912 42.443 L 238.853 42.483 L 237.792 42.523 L 236.729 42.562 L 235.663 42.601 L 234.596 42.64 L 233.526 42.679 L 232.454 42.718 L 231.379 42.756 L 230.303 42.794 L 229.224 42.832 L 228.142 42.869 L 227.059 42.907 L 225.973 42.944 L 225.429 42.962 L 224.34 42.999 L 223.249 43.035 L 222.155 43.072 L 221.059 43.108 L 219.96 43.143 L 218.86 43.179 L 217.757 43.214 L 216.651 43.249 L 215.543 43.283 L 214.989 43.301 L 213.878 43.335 L 212.764 43.369 L 211.648 43.403 L 210.53 43.436 L 209.409 43.47 L 208.286 43.503 L 207.161 43.535 L 206.597 43.552 L 205.469 43.584 L 204.337 43.616 L 203.204 43.648 L 202.068 43.68 L 200.929 43.711 L 199.789 43.742 L 199.217 43.757 L 198.073 43.788 L 196.926 43.818 L 195.777 43.849 L 194.625 43.878 L 194.049 43.893 L 192.893 43.923 L 191.736 43.952 L 190.576 43.981 L 189.413 44.009 L 188.831 44.024 L 187.665 44.052 L 186.496 44.08 L 185.325 44.107 L 184.152 44.135 L 183.564 44.149 L 182.387 44.176 L 181.207 44.202 L 180.025 44.229 L 178.84 44.255 L 178.247 44.268 L 177.059 44.294 L 175.868 44.319 L 174.674 44.344 L 174.077 44.357 L 172.88 44.382 L 171.68 44.406 L 170.478 44.43 L 169.876 44.442 L 168.67 44.466 L 167.461 44.49 L 166.856 44.501 L 165.644 44.524 L 164.429 44.547 L 163.212 44.57 L 162.602 44.581 L 161.381 44.603 L 160.158 44.625 L 159.545 44.635 L 158.317 44.657 L 157.087 44.678 L 155.855 44.699 L 155.237 44.709 L 154.001 44.729 L 152.762 44.749 L 152.141 44.759 L 150.898 44.779 L 149.653 44.798 L 149.029 44.808 L 147.78 44.827 L 146.528 44.845 L 145.901 44.854 L 144.645 44.873 L 143.386 44.89 L 142.756 44.899 L 141.493 44.917 L 140.228 44.934 L 139.595 44.942 L 138.326 44.959 L 137.054 44.975 L 136.417 44.983 L 135.142 44.999 L 133.863 45.015 L 133.223 45.022 L 131.941 45.037 L 131.299 45.045 L 130.012 45.06 L 128.723 45.074 L 128.078 45.081 L 126.785 45.095 L 125.489 45.108 L 124.84 45.115 L 123.541 45.128 L 122.89 45.135 L 121.586 45.147 L 120.28 45.16 L 119.626 45.166 L 118.315 45.178 L 117.659 45.184 L 116.344 45.195 L 115.027 45.206 L 114.367 45.211 L 113.046 45.222 L 112.384 45.227 L 111.059 45.237 L 109.731 45.247 L 109.066 45.252 L 107.733 45.262 L 107.066 45.266 L 105.73 45.275 L 105.061 45.279 L 103.72 45.288 L 103.049 45.292 L 101.704 45.3 L 100.357 45.307 L 99.682 45.311 L 98.33 45.318 L 97.653 45.322 L 96.297 45.328 L 95.619 45.332 L 94.259 45.338 L 93.577 45.341 L 92.213 45.346 L 91.53 45.349 L 90.162 45.354 L 88.791 45.359 L 88.104 45.361 L 86.729 45.366 L 86.04 45.368 L 84.66 45.372 L 83.969 45.374 L 82.585 45.377 L 81.892 45.378 L 80.504 45.381 L 79.809 45.383 L 78.417 45.385 L 77.719 45.386 L 76.323 45.388 L 75.623 45.389 L 74.222 45.39 L 73.521 45.391 L 72.115 45.392 L 71.412 45.392 L 70.002 45.392 L 69.296 45.392 L 67.882 45.392 L 67.174 45.392 L 65.756 45.392 L 65.046 45.391 L 64.335 45.391 L 62.911 45.389 L 62.198 45.388 L 60.769 45.387 L 60.054 45.386 L 58.621 45.383 L 57.904 45.382 L 56.467 45.379 L 55.747 45.378 L 54.306 45.374 L 53.584 45.372 L 52.138 45.368 L 51.414 45.366 L 50.689 45.364 L 49.237 45.36 L 48.51 45.357 L 47.054 45.352 L 46.325 45.349 L 44.864 45.344 L 44.133 45.341 L 43.401 45.338 L 41.934 45.332 L 41.2 45.328 L 39.729 45.321 L 38.992 45.318 L 37.517 45.311 L 36.778 45.307 L 36.038 45.303 L 34.557 45.295 L 33.815 45.291 L 32.329 45.282 L 31.585 45.277 L 30.84 45.273 L 29.348 45.264 L 28.601 45.259 L 27.105 45.249 L 26.355 45.244 L 25.605 45.239 L 24.103 45.228 L 23.35 45.223 L 21.843 45.212 L 21.089 45.206 L 20.333 45.2 L 18.82 45.188 L 18.063 45.182 L 16.545 45.17 L 15.785 45.164 L 15.024 45.157 L 13.5 45.144 L 12.737 45.137 L 11.974 45.131 L 10.444 45.117 L 9.678 45.11 L 8.143 45.095 L 7.375 45.088 L 6.606 45.081 L 5.065 45.066 L 4.293 45.058 L 3.521 45.05 L 1.974 45.034 L 1.2 45.026 L 0 162.844 L 0.775 162.848 L 2.322 162.855 L 3.095 162.858 L 3.867 162.862 L 5.409 162.868 L 6.18 162.871 L 6.949 162.873 L 8.486 162.879 L 9.253 162.881 L 10.786 162.885 L 11.552 162.887 L 12.317 162.889 L 13.844 162.892 L 14.607 162.893 L 15.369 162.894 L 16.891 162.897 L 17.655 162.897 L 18.926 162.897 L 19.928 162.899 L 20.686 162.899 L 22.198 162.9 L 22.958 162.899 L 24.22 162.897 L 25.217 162.898 L 25.973 162.897 L 27.231 162.894 L 28.228 162.894 L 29.482 162.891 L 30.473 162.891 L 31.225 162.888 L 32.475 162.883 L 33.467 162.883 L 34.712 162.877 L 35.698 162.876 L 36.446 162.873 L 37.687 162.866 L 38.673 162.864 L 39.916 162.857 L 40.656 162.853 L 42.134 162.847 L 42.867 162.842 L 43.848 162.839 L 45.083 162.83 L 45.818 162.824 L 47.287 162.817 L 48.021 162.811 L 49.486 162.803 L 50.218 162.796 L 50.949 162.789 L 52.409 162.78 L 53.138 162.773 L 54.594 162.763 L 55.321 162.755 L 56.774 162.745 L 57.504 162.736 L 58.71 162.723 L 59.676 162.716 L 60.878 162.702 L 61.842 162.695 L 63.048 162.68 L 63.761 162.67 L 64.721 162.662 L 65.916 162.647 L 66.874 162.638 L 68.066 162.622 L 69.021 162.613 L 70.216 162.595 L 70.93 162.584 L 72.354 162.568 L 73.066 162.556 L 74.487 162.539 L 75.197 162.527 L 76.614 162.509 L 77.327 162.496 L 78.5 162.476 L 79.446 162.465 L 80.616 162.444 L 81.56 162.432 L 82.727 162.41 L 83.668 162.397 L 84.839 162.375 L 85.54 162.36 L 86.939 162.339 L 87.637 162.324 L 89.038 162.302 L 90.192 162.277 L 91.126 162.263 L 92.277 162.238 L 93.209 162.223 L 94.356 162.197 L 95.286 162.181 L 96.438 162.155 L 97.128 162.137 L 98.506 162.112 L 99.195 162.094 L 100.575 162.067 L 101.71 162.039 L 102.633 162.021 L 103.764 161.992 L 104.684 161.974 L 105.812 161.944 L 106.73 161.926 L 107.855 161.895 L 108.771 161.876 L 109.902 161.845 L 111.257 161.814 L 111.941 161.793 L 113.056 161.76 L 113.968 161.74 L 115.09 161.707 L 116.435 161.674 L 117.108 161.651 L 118.45 161.618 L 119.12 161.595 L 120.466 161.561 L 121.566 161.525 L 122.47 161.503 L 123.567 161.466 L 124.468 161.443 L 125.573 161.406 L 126.9 161.369 L 127.563 161.344 L 128.894 161.306 L 129.98 161.267 L 130.875 161.242 L 131.957 161.203 L 132.85 161.177 L 133.941 161.136 L 135.253 161.097 L 135.909 161.069 L 137.225 161.028 L 138.296 160.986 L 139.183 160.959 L 140.264 160.916 L 141.564 160.874 L 142.214 160.844 L 143.519 160.801 L 144.579 160.756 L 145.46 160.727 L 146.53 160.682 L 147.807 160.637 L 148.684 160.606 L 149.749 160.56 L 151.032 160.514 L 151.673 160.482 L 152.962 160.435 L 154.006 160.387 L 154.877 160.354 L 155.932 160.305 L 157.213 160.257 L 158.249 160.207 L 159.117 160.173 L 160.164 160.123 L 161.429 160.072 L 162.06 160.037 L 163.321 159.986 L 164.589 159.934 L 165.613 159.881 L 166.472 159.845 L 167.508 159.791 L 168.759 159.738 L 169.383 159.7 L 170.641 159.646 L 171.669 159.591 L 172.897 159.535 L 173.749 159.497 L 174.773 159.44 L 176.021 159.384 L 177.025 159.326 L 177.873 159.286 L 178.89 159.228 L 180.12 159.17 L 181.358 159.111 L 182.352 159.051 L 183.195 159.009 L 184.203 158.949 L 185.435 158.888 L 186.438 158.827 L 187.637 158.765 L 188.475 158.721 L 189.474 158.659 L 190.696 158.596 L 191.691 158.532 L 192.88 158.468 L 193.712 158.422 L 194.703 158.358 L 195.915 158.292 L 196.902 158.226 L 198.098 158.16 L 198.696 158.113 L 199.889 158.046 L 201.093 157.977 L 202.07 157.91 L 203.257 157.84 L 204.455 157.771 L 205.407 157.701 L 206.228 157.652 L 207.197 157.582 L 208.375 157.51 L 209.563 157.438 L 210.527 157.366 L 211.711 157.293 L 212.671 157.221 L 213.817 157.146 L 214.63 157.094 L 215.585 157.02 L 216.747 156.944 L 217.921 156.868 L 218.87 156.793 L 220.04 156.716 L 220.985 156.64 L 222.137 156.561 L 223.302 156.483 L 224.219 156.405 L 225.008 156.348 L 226.167 156.268 L 227.102 156.189 L 228.242 156.108 L 229.396 156.026 L 230.325 155.946 L 231.46 155.863 L 232.607 155.78 L 233.531 155.698 L 234.66 155.613 L 235.802 155.529 L 236.72 155.445 L 237.843 155.359 L 238.979 155.273 L 239.892 155.188 L 241.009 155.1 L 242.14 155.012 L 243.047 154.925 L 244.158 154.836 L 245.283 154.747 L 246.186 154.658 L 247.29 154.568 L 248.41 154.476 L 249.307 154.387 L 250.406 154.294 L 251.52 154.202 L 252.412 154.11 L 253.505 154.016 L 254.613 153.922 L 255.5 153.829 L 256.587 153.734 L 257.69 153.637 L 258.571 153.543 L 259.653 153.446 L 260.732 153.348 L 261.835 153.25 L 263.055 153.126 L 264.129 153.026 L 265.219 152.926 L 266.086 152.828 L 267.154 152.727 L 268.219 152.625 L 269.302 152.523 L 270.163 152.423 L 271.223 152.319 L 272.308 152.215 L 273.502 152.085 L 274.556 151.98 L 275.607 151.874 L 276.677 151.767 L 277.525 151.664 L 278.571 151.556 L 279.628 151.448 L 281.019 151.31 L 281.86 151.204 L 282.897 151.093 L 283.933 150.983 L 284.988 150.871 L 285.836 150.764 L 287.189 150.621 L 288.217 150.508 L 289.264 150.394 L 290.091 150.284 L 291.127 150.169 L 292.467 150.023 L 293.507 149.907 L 294.326 149.794 L 295.355 149.677 L 296.684 149.528 L 297.693 149.409 L 298.724 149.29 L 299.549 149.175 L 300.867 149.023 L 301.869 148.902 L 302.869 148.78 L 303.899 148.658 L 305.017 148.507 L 306.011 148.384 L 307.003 148.26 L 308.027 148.135 L 309.134 147.982 L 310.12 147.856 L 311.121 147.729 L 312.408 147.569 L 313.388 147.44 L 314.401 147.312 L 315.493 147.154 L 316.467 147.024 L 317.456 146.894 L 318.727 146.729 L 319.72 146.597 L 320.511 146.47 L 321.773 146.303 L 322.753 146.169 L 324.01 146 L 324.968 145.864 L 325.961 145.728 L 327.025 145.563 L 327.977 145.426 L 328.945 145.288 L 330.186 145.114 L 331.15 144.975 L 332.385 144.8 L 333.365 144.659 L 334.412 144.489 L 335.35 144.346 L 336.305 144.204 L 337.526 144.025 L 338.477 143.88 L 339.693 143.7 L 340.661 143.554 L 341.69 143.378 L 342.633 143.231 L 343.838 143.047 L 344.778 142.899 L 345.977 142.713 L 346.913 142.563 L 348.107 142.376 L 349.039 142.225 L 350.257 142.036 L 350.998 141.89 L 352.2 141.7 L 353.38 141.508 L 354.303 141.353 L 355.478 141.16 L 356.396 141.004 L 357.566 140.809 L 358.481 140.651 L 359.665 140.454 L 360.826 140.257 L 361.758 140.096 L 362.737 139.905 L 363.643 139.744 L 364.814 139.543 L 365.961 139.341 L 366.862 139.177 L 368.025 138.974 L 369.164 138.769 L 370.059 138.603 L 371.214 138.397 L 372.345 138.19 L 373.234 138.021 L 374.382 137.812 L 375.505 137.603 L 376.388 137.432 L 377.528 137.22 L 378.643 137.008 L 379.521 136.834 L 380.653 136.62 L 381.783 136.405 L 382.887 136.189 L 383.757 136.012 L 384.879 135.795 L 386.024 135.576 L 386.969 135.366 L 388.06 135.145 L 388.922 134.965 L 390.031 134.742 L 391.138 134.519 L 392.242 134.295 L 393.291 134.069 L 394.315 133.874 L 395.412 133.647 L 396.506 133.419 L 397.597 133.19 L 398.686 132.96 L 399.748 132.729 L 400.588 132.539 L 401.67 132.306 L 402.749 132.072 L 403.825 131.838 L 404.899 131.602 L 405.97 131.365 L 407.039 131.127 L 408.105 130.889 L 409.169 130.649 L 410.23 130.408 L 411.289 130.167 L 412.345 129.924 L 413.399 129.68 L 414.45 129.436 L 415.499 129.19 L 416.521 128.943 L 417.725 128.684 L 418.767 128.435 L 419.806 128.185 L 420.842 127.934 L 421.876 127.682 L 422.908 127.429 L 423.938 127.176 L 424.965 126.921 L 425.99 126.665 L 426.987 126.408 L 428.164 126.137 L 429.182 125.878 L 430.197 125.618 L 431.21 125.356 L 432.221 125.094 L 433.244 124.831 L 434.484 124.521 L 435.462 124.256 L 436.618 123.976 L 437.616 123.708 L 438.613 123.439 L 439.622 123.169 L 440.845 122.853 L 441.835 122.581 L 442.796 122.308 L 443.933 122.02 L 444.931 121.744 L 446.14 121.422 L 447.118 121.144 L 448.068 120.865 L 449.207 120.571 L 450.405 120.244 L 451.374 119.961 L 452.341 119.678 L 453.3 119.393 L 454.631 119.046 L 455.591 118.759 L 456.564 118.471 L 457.743 118.135 L 458.671 117.844 L 459.784 117.537 L 460.956 117.198 L 461.903 116.903 L 462.842 116.608 L 464.146 116.249 L 465.087 115.951 L 466.04 115.652 L 467.171 115.304 L 468.263 114.987 L 469.415 114.637 L 470.36 114.332 L 471.481 113.98 L 472.548 113.657 L 473.488 113.348 L 474.627 112.992 L 475.542 112.681 L 476.811 112.305 L 477.742 111.991 L 478.846 111.629 L 479.911 111.296 L 481.037 110.931 L 481.939 110.612 L 483.192 110.228 L 484.111 109.906 L 485.202 109.535 L 486.253 109.193 L 487.379 108.82 L 488.464 108.444 L 489.507 108.098 L 490.613 107.72 L 491.499 107.388 L 492.728 106.99 L 493.63 106.655 L 494.722 106.27 L 495.943 105.867 L 496.839 105.527 L 497.925 105.138 L 499.139 104.73 L 500.011 104.386 L 501.234 103.974 L 502.318 103.579 L 503.185 103.23 L 504.4 102.813 L 505.455 102.412 L 506.461 102.04 L 507.53 101.636 L 508.723 101.212 L 509.599 100.853 L 510.664 100.444 L 511.849 100.015 L 512.703 99.651 L 513.897 99.218 L 514.955 98.801 L 516.132 98.364 L 516.979 97.993 L 518.164 97.552 L 519.217 97.128 L 520.398 96.683 L 521.431 96.255 L 522.404 95.855 L 523.451 95.423 L 524.623 94.969 L 525.668 94.533 L 526.825 94.076 L 527.659 93.684 L 528.823 93.222 L 529.863 92.778 L 531.024 92.311 L 532.061 91.862 L 533.207 91.391 L 534.035 90.986 L 535.173 90.51 L 536.324 90.031 L 537.357 89.57 L 538.505 89.086 L 539.536 88.62 L 540.67 88.131 L 541.49 87.708 L 542.618 87.214 L 543.757 86.717 L 544.784 86.237 L 545.907 85.734 L 547.042 85.228 L 548.067 84.739 L 549.199 84.227 L 550.223 83.731 L 551.328 83.213 L 552.248 82.739 L 553.271 82.233 L 554.384 81.704 L 555.507 81.171 L 556.529 80.655 L 557.639 80.115 L 558.748 79.57 L 559.866 79.022 L 560.887 78.489 L 561.993 77.932 L 563.108 77.371 L 564.129 76.825 L 565.232 76.254 L 566.335 75.678 L 567.446 75.096 L 568.458 74.53 L 569.344 73.984 L 570.444 73.386 L 571.543 72.782 L 572.649 72.171 L 573.67 71.574 L 574.768 70.949 L 575.865 70.317 L 576.961 69.677 L 578.064 69.03 L 579.087 68.394 L 580.183 67.728 L 581.278 67.053 L 582.373 66.367 L 583.467 65.671 L 584.561 64.963 L 585.655 64.242 L 586.754 63.508 L 587.783 62.779 L 588.872 62.014 L 589.739 61.276 L 590.832 60.474 L 591.925 59.652 L 593.018 58.806 L 594.11 57.935 L 593.018 58.806 L 591.922 59.652 L 590.826 60.475 L 589.73 61.277 L 588.77 62.019 L 587.772 62.783 L 586.857 63.508 L 585.636 64.245 L 584.54 64.967 L 583.444 65.677 L 582.348 66.375 L 581.252 67.062 L 580.155 67.739 L 579.058 68.407 L 578.156 69.039 L 576.925 69.693 L 575.827 70.335 L 574.729 70.97 L 573.631 71.597 L 572.736 72.191 L 571.498 72.809 L 570.398 73.417 L 569.297 74.019 L 568.309 74.573 L 567.532 75.134 L 566.285 75.723 L 565.182 76.304 L 564.078 76.88 L 563.193 77.424 L 561.938 77.994 L 560.832 78.557 L 559.95 79.087 L 558.689 79.646 L 557.58 80.196 L 556.47 80.743 L 555.592 81.258 L 554.322 81.802 L 553.209 82.339 L 552.333 82.843 L 551.153 83.334 L 550.163 83.857 L 549.288 84.352 L 548.004 84.877 L 547.131 85.365 L 545.843 85.885 L 544.721 86.397 L 543.848 86.877 L 542.553 87.389 L 541.427 87.893 L 540.654 88.322 L 539.474 88.823 L 538.602 89.29 L 537.294 89.79 L 536.423 90.252 L 535.11 90.748 L 533.974 91.236 L 533.196 91.648 L 532.003 92.133 L 531.131 92.585 L 529.805 93.07 L 528.933 93.517 L 527.601 93.999 L 526.819 94.398 L 525.614 94.872 L 524.741 95.311 L 523.399 95.786 L 522.524 96.221 L 521.254 96.649 L 520.524 97.076 L 519.17 97.544 L 518.294 97.972 L 516.935 98.437 L 516.142 98.818 L 514.915 99.275 L 514.037 99.697 L 512.666 100.156 L 511.868 100.531 L 510.632 100.981 L 509.75 101.397 L 508.747 101.774 L 507.505 102.221 L 506.62 102.631 L 505.3 103.037 L 504.567 103.44 L 503.169 103.886 L 502.359 104.247 L 501.409 104.653 L 500.002 105.096 L 499.189 105.453 L 497.924 105.888 L 497.029 106.286 L 496 106.647 L 494.728 107.078 L 493.829 107.473 L 492.794 107.83 L 491.513 108.257 L 490.687 108.605 L 489.72 108.997 L 488.349 109.384 L 487.601 109.764 L 486.476 110.158 L 485.096 110.542 L 484.344 110.919 L 483.289 111.267 L 481.984 111.684 L 481.143 112.021 L 480.159 112.402 L 478.761 112.78 L 478 113.15 L 476.932 113.492 L 475.61 113.903 L 474.758 114.233 L 473.762 114.608 L 472.685 114.946 L 471.422 115.311 L 470.65 115.673 L 469.565 116.008 L 468.56 116.378 L 467.128 116.745 L 466.347 117.103 L 465.254 117.435 L 464.318 117.758 L 462.961 118.157 L 462.086 118.476 L 461.143 118.797 L 460.119 119.159 L 458.664 119.52 L 457.946 119.828 L 456.915 120.188 L 455.801 120.511 L 454.845 120.827 L 453.462 121.218 L 452.567 121.529 L 451.605 121.842 L 450.641 122.154 L 449.592 122.507 L 448.109 122.86 L 447.371 123.16 L 446.398 123.468 L 445.338 123.818 L 444.199 124.133 L 442.864 124.475 L 442.114 124.77 L 441.13 125.075 L 440.057 125.421 L 438.906 125.731 L 437.915 126.034 L 436.922 126.336 L 435.567 126.673 L 434.802 126.962 L 433.713 127.303 L 432.548 127.61 L 431.542 127.908 L 430.535 128.206 L 429.525 128.502 L 428.513 128.798 L 427.138 129.129 L 426.353 129.413 L 425.334 129.707 L 424.312 130 L 423.288 130.293 L 422.262 130.584 L 421.234 130.876 L 420.203 131.166 L 419.17 131.456 L 418.134 131.745 L 416.732 132.069 L 415.922 132.346 L 414.879 132.633 L 413.834 132.92 L 412.786 133.206 L 411.735 133.491 L 410.682 133.776 L 409.627 134.06 L 408.569 134.343 L 407.509 134.626 L 406.446 134.908 L 405.38 135.19 L 404.313 135.471 L 403.242 135.751 L 402.169 136.031 L 401.094 136.31 L 400.056 136.552 L 399.204 136.818 L 398.122 137.095 L 397.037 137.372 L 395.949 137.648 L 394.858 137.924 L 393.454 138.198 L 392.801 138.448 L 391.703 138.722 L 390.602 138.995 L 389.499 139.268 L 388.441 139.504 L 387.56 139.763 L 386.95 139.992 L 385.478 140.282 L 384.362 140.552 L 383.299 140.785 L 382.402 141.042 L 381.278 141.31 L 380.152 141.578 L 379.082 141.81 L 378.173 142.064 L 377.039 142.33 L 375.964 142.56 L 375.046 142.813 L 373.905 143.077 L 372.824 143.306 L 371.898 143.557 L 370.749 143.82 L 369.664 144.047 L 368.729 144.296 L 367.572 144.558 L 366.481 144.783 L 365.538 145.032 L 364.372 145.292 L 363.277 145.516 L 362.821 145.72 L 361.378 145.963 L 360.418 146.208 L 359.24 146.466 L 358.138 146.688 L 357.169 146.932 L 356.064 147.153 L 355.09 147.396 L 353.98 147.616 L 353.001 147.858 L 351.804 148.112 L 351.202 148.287 L 349.855 148.549 L 348.739 148.767 L 347.743 149.007 L 346.623 149.224 L 345.621 149.463 L 344.498 149.679 L 343.49 149.917 L 342.363 150.132 L 341.839 150.327 L 340.379 150.561 L 339.357 150.798 L 338.226 151.011 L 337.198 151.247 L 336.063 151.459 L 335.131 151.659 L 334.583 151.851 L 333.117 152.082 L 332.074 152.316 L 330.932 152.526 L 329.882 152.759 L 328.736 152.969 L 327.791 153.165 L 327.218 153.355 L 325.746 153.583 L 324.794 153.778 L 323.727 154.009 L 322.572 154.216 L 321.498 154.446 L 320.839 154.609 L 319.544 154.824 L 318.46 155.052 L 317.298 155.257 L 316.33 155.45 L 315.717 155.636 L 314.238 155.859 L 313.264 156.051 L 312.161 156.277 L 310.99 156.48 L 310.01 156.67 L 309.375 156.854 L 307.892 157.075 L 306.906 157.264 L 305.918 157.453 L 305.268 157.636 L 303.782 157.855 L 302.789 158.043 L 301.793 158.23 L 300.656 158.453 L 299.956 158.609 L 298.639 158.816 L 297.635 159.002 L 296.485 159.223 L 295.291 159.421 L 294.768 159.564 L 293.444 159.769 L 292.28 159.988 L 291.081 160.184 L 290.546 160.326 L 289.219 160.53 L 288.197 160.713 L 287.018 160.931 L 286.291 161.083 L 284.959 161.286 L 283.93 161.467 L 282.898 161.649 L 282.346 161.788 L 280.843 162.024 L 279.628 162.217 L 278.588 162.397 L 278.023 162.535 L 276.682 162.735 L 275.637 162.914 L 274.589 163.093 L 273.828 163.267 L 272.322 163.476 L 271.268 163.654 L 270.684 163.79 L 269.336 163.987 L 268.277 164.164 L 267.215 164.341 L 266.623 164.477 L 265.269 164.672 L 264.201 164.848 L 263.401 165.02 L 261.891 165.225 L 260.817 165.4 L 259.741 165.575 L 259.129 165.709 L 257.768 165.902 L 256.687 166.076 L 256.067 166.21 L 254.703 166.402 L 253.616 166.575 L 252.989 166.708 L 251.621 166.899 L 250.528 167.071 L 249.893 167.203 L 248.523 167.394 L 247.424 167.565 L 246.781 167.697 L 245.407 167.886 L 244.302 168.057 L 243.652 168.188 L 242.275 168.376 L 241.164 168.546 L 240.505 168.676 L 239.126 168.864 L 238.009 169.033 L 237.342 169.162 L 235.959 169.349 L 234.836 169.518 L 234.161 169.646 L 232.775 169.832 L 231.646 170 L 230.962 170.128 L 229.575 170.313 L 228.44 170.48 L 227.747 170.608 L 226.356 170.792 L 225.359 170.928 L 224.898 171.038 L 223.5 171.221 L 222.354 171.387 L 221.65 171.513 L 220.249 171.696 L 219.537 171.822 L 218.137 172.004 L 216.981 172.168 L 216.259 172.293 L 215.018 172.444 L 214.08 172.591 L 213.357 172.716 L 211.947 172.897 L 211.215 173.021 L 209.806 173.201 L 208.633 173.363 L 207.892 173.487 L 206.654 173.636 L 206.128 173.743 L 204.713 173.922 L 203.531 174.083 L 202.778 174.206 L 201.36 174.384 L 200.172 174.544 L 199.577 174.637 L 198.387 174.797 L 197.622 174.919 L 196.198 175.096 L 195.424 175.218 L 194.194 175.363 L 193.2 175.506 L 192.423 175.628 L 190.993 175.803 L 190.207 175.924 L 188.978 176.067 L 187.971 176.21 L 187.182 176.331 L 185.746 176.504 L 184.947 176.625 L 183.72 176.767 L 183.119 176.872 L 181.681 177.044 L 180.456 177.201 L 179.644 177.321 L 178.419 177.461 L 177.802 177.566 L 176.358 177.737 L 175.534 177.856 L 174.314 177.996 L 173.267 178.136 L 172.44 178.255 L 170.991 178.425 L 170.368 178.513 L 169.124 178.667 L 168.285 178.785 L 167.063 178.922 L 166.41 179.026 L 164.954 179.195 L 163.698 179.348 L 163.069 179.434 L 161.811 179.587 L 160.955 179.705 L 159.734 179.84 L 159.06 179.943 L 157.595 180.11 L 156.727 180.227 L 155.513 180.361 L 154.82 180.464 L 153.354 180.63 L 152.715 180.715 L 151.437 180.866 L 150.554 180.982 L 149.343 181.114 L 148.231 181.251 L 147.344 181.367 L 146.127 181.499 L 145.411 181.601 L 143.932 181.765 L 143.284 181.848 L 141.989 181.998 L 141.085 182.113 L 139.873 182.243 L 139.135 182.344 L 137.651 182.507 L 136.997 182.589 L 135.691 182.738 L 134.77 182.852 L 133.564 182.981 L 132.803 183.082 L 131.593 183.21 L 130.83 183.311 L 129.336 183.472 L 128.675 183.553 L 127.354 183.7 L 126.413 183.814 L 125.209 183.94 L 124.422 184.041 L 123.215 184.167 L 122.426 184.268 L 120.924 184.427 L 120.255 184.507 L 118.918 184.653 L 118.248 184.732 L 116.907 184.878 L 115.943 184.99 L 114.741 185.114 L 113.924 185.215 L 113.088 185.306 L 111.738 185.451 L 110.757 185.563 L 109.565 185.685 L 108.724 185.785 L 107.529 185.907 L 106.684 186.008 L 105.487 186.129 L 104.639 186.229 L 103.439 186.35 L 102.589 186.45 L 101.066 186.606 L 100.38 186.683 L 99.007 186.826 L 98.318 186.902 L 97.308 187.013 L 96.117 187.132 L 95.238 187.232 L 94.045 187.351 L 93.162 187.451 L 91.966 187.569 L 91.08 187.669 L 89.546 187.822 L 88.849 187.897 L 87.455 188.039 L 86.756 188.114 L 85.718 188.224 L 84.533 188.34 L 83.616 188.44 L 82.429 188.556 L 81.508 188.656 L 80.319 188.771 L 79.395 188.871 L 78.556 188.955 L 77.143 189.096 L 76.435 189.17 L 75.019 189.309 L 74.309 189.383 L 72.889 189.523 L 72.177 189.596 L 71.104 189.705 L 69.925 189.818 L 68.963 189.917 L 67.781 190.03 L 66.815 190.129 L 65.633 190.242 L 65.029 190.305 L 63.943 190.413 L 62.759 190.525 L 61.783 190.624 L 60.597 190.735 L 59.616 190.834 L 58.772 190.916 L 57.324 191.053 L 56.599 191.125 L 55.147 191.262 L 54.419 191.334 L 52.963 191.471 L 52.234 191.542 L 51.504 191.613 L 50.043 191.75 L 49.311 191.821 L 47.846 191.958 L 47.112 192.028 L 45.983 192.135 L 44.808 192.243 L 44.171 192.305 L 42.698 192.441 L 41.959 192.511 L 40.82 192.618 L 39.643 192.725 L 38.597 192.823 L 37.751 192.901 L 36.677 192.999 L 35.624 193.098 L 34.446 193.204 L 33.387 193.302 L 32.539 193.379 L 31.462 193.477 L 30.396 193.575 L 29.216 193.68 L 28.145 193.778 L 27.295 193.855 L 26.214 193.951 L 25.136 194.049 L 24.284 194.125 L 22.775 194.259 L 22.018 194.327 L 20.934 194.423 L 19.842 194.521 L 18.989 194.596 L 17.47 194.73 L 16.709 194.797 L 15.948 194.864 L 14.425 194.997 L 13.661 195.064 L 12.897 195.131 L 11.368 195.264 L 10.602 195.331 L 9.069 195.463 L 8.3 195.53 L 7.532 195.597 L 5.994 195.729 L 5.222 195.795 L 4.451 195.861 L 2.908 195.993 L 2.134 196.059 L 8.67 275.279 L 9.442 275.212 L 10.984 275.08 L 11.755 275.013 L 12.524 274.947 L 14.062 274.814 L 14.83 274.747 L 15.597 274.68 L 17.13 274.547 L 17.896 274.48 L 19.425 274.347 L 20.189 274.279 L 20.952 274.212 L 22.477 274.079 L 23.239 274.011 L 24 273.943 L 25.52 273.809 L 26.279 273.741 L 27.321 273.648 L 28.554 273.539 L 29.311 273.471 L 30.823 273.337 L 31.579 273.268 L 32.614 273.174 L 33.841 273.065 L 34.594 272.996 L 35.626 272.902 L 36.85 272.792 L 37.88 272.698 L 39.101 272.588 L 39.85 272.519 L 40.876 272.424 L 42.094 272.314 L 43.117 272.218 L 44.333 272.108 L 45.078 272.038 L 46.098 271.943 L 47.31 271.832 L 48.328 271.737 L 49.07 271.666 L 50.552 271.53 L 51.293 271.459 L 52.499 271.348 L 53.51 271.252 L 54.248 271.181 L 55.723 271.044 L 56.46 270.972 L 57.931 270.835 L 58.666 270.764 L 59.4 270.692 L 60.867 270.555 L 61.599 270.483 L 63.063 270.345 L 63.793 270.273 L 65.254 270.135 L 65.983 270.063 L 66.979 269.964 L 68.167 269.852 L 69.161 269.753 L 70.347 269.641 L 71.338 269.542 L 72.063 269.468 L 73.244 269.355 L 74.233 269.256 L 75.412 269.143 L 76.398 269.043 L 77.575 268.93 L 78.559 268.83 L 79.277 268.756 L 80.714 268.616 L 81.431 268.541 L 82.864 268.401 L 83.58 268.327 L 85.01 268.186 L 85.724 268.111 L 86.698 268.01 L 87.863 267.895 L 88.834 267.794 L 89.996 267.679 L 90.966 267.577 L 92.126 267.462 L 93.093 267.36 L 93.8 267.284 L 95.214 267.142 L 95.92 267.065 L 97.331 266.923 L 98.292 266.82 L 99.443 266.704 L 100.402 266.601 L 101.55 266.485 L 102.506 266.381 L 103.652 266.265 L 104.606 266.161 L 105.305 266.083 L 106.701 265.939 L 107.398 265.861 L 108.791 265.718 L 109.739 265.613 L 110.876 265.495 L 111.822 265.39 L 112.956 265.272 L 113.899 265.166 L 115.031 265.048 L 115.972 264.942 L 117.102 264.824 L 118.041 264.718 L 119.417 264.573 L 120.104 264.492 L 121.039 264.386 L 122.162 264.267 L 123.095 264.159 L 124.464 264.013 L 125.147 263.932 L 126.512 263.786 L 127.193 263.705 L 128.555 263.558 L 129.481 263.449 L 130.593 263.329 L 131.517 263.22 L 132.627 263.1 L 133.548 262.991 L 134.9 262.843 L 135.575 262.76 L 136.923 262.612 L 137.839 262.502 L 138.942 262.38 L 139.856 262.27 L 140.956 262.148 L 141.867 262.037 L 143.206 261.888 L 143.874 261.804 L 145.209 261.654 L 146.116 261.543 L 147.208 261.42 L 148.113 261.308 L 149.441 261.157 L 150.104 261.072 L 151.43 260.921 L 152.329 260.808 L 153.414 260.684 L 154.311 260.571 L 155.63 260.419 L 156.71 260.295 L 157.604 260.181 L 158.917 260.029 L 159.572 259.942 L 160.883 259.789 L 161.772 259.674 L 162.844 259.548 L 163.73 259.433 L 165.034 259.28 L 165.918 259.164 L 166.985 259.038 L 167.867 258.921 L 169.164 258.767 L 169.811 258.678 L 171.105 258.523 L 172.397 258.368 L 173.272 258.251 L 174.33 258.123 L 175.203 258.005 L 176.488 257.849 L 177.129 257.759 L 178.411 257.602 L 179.28 257.484 L 180.558 257.327 L 181.607 257.197 L 182.472 257.078 L 183.745 256.921 L 184.607 256.801 L 185.651 256.671 L 186.511 256.55 L 187.778 256.392 L 189.042 256.233 L 189.899 256.112 L 190.935 255.98 L 191.789 255.859 L 193.047 255.699 L 193.899 255.577 L 195.153 255.417 L 196.183 255.284 L 197.031 255.161 L 198.28 255 L 199.126 254.877 L 200.372 254.715 L 201.394 254.582 L 202.236 254.458 L 203.477 254.295 L 204.317 254.171 L 205.554 254.008 L 206.171 253.911 L 207.406 253.747 L 208.638 253.584 L 209.472 253.458 L 210.701 253.293 L 211.928 253.129 L 212.757 253.002 L 213.764 252.865 L 214.591 252.738 L 215.812 252.572 L 217.03 252.406 L 217.854 252.278 L 219.069 252.112 L 219.89 251.983 L 221.102 251.816 L 222.097 251.677 L 222.915 251.548 L 224.122 251.38 L 225.326 251.211 L 226.14 251.081 L 227.342 250.912 L 228.153 250.781 L 229.351 250.611 L 230.547 250.441 L 231.355 250.309 L 232.336 250.168 L 233.527 249.997 L 234.331 249.865 L 235.519 249.693 L 236.705 249.521 L 237.505 249.388 L 238.688 249.215 L 239.868 249.043 L 240.665 248.908 L 241.842 248.735 L 243.017 248.561 L 243.81 248.426 L 244.981 248.251 L 246.151 248.077 L 246.94 247.94 L 248.107 247.765 L 249.271 247.589 L 250.057 247.452 L 251.218 247.275 L 252.377 247.099 L 253.159 246.96 L 254.315 246.783 L 255.469 246.605 L 256.247 246.466 L 257.398 246.287 L 258.546 246.109 L 259.321 245.968 L 260.466 245.789 L 261.609 245.609 L 262.381 245.468 L 263.521 245.287 L 264.659 245.106 L 265.426 244.964 L 266.561 244.782 L 267.694 244.6 L 268.825 244.418 L 269.787 244.244 L 270.915 244.061 L 272.04 243.877 L 272.799 243.732 L 273.921 243.548 L 275.041 243.363 L 276.159 243.178 L 276.913 243.032 L 278.028 242.846 L 279.141 242.66 L 280.088 242.482 L 281.198 242.295 L 282.306 242.107 L 283.411 241.92 L 284.157 241.771 L 285.259 241.582 L 286.36 241.393 L 287.652 241.173 L 288.393 241.022 L 289.488 240.832 L 290.581 240.641 L 291.672 240.45 L 292.408 240.298 L 293.688 240.075 L 294.774 239.883 L 295.858 239.69 L 296.588 239.537 L 297.669 239.343 L 298.938 239.118 L 300.015 238.923 L 300.741 238.768 L 301.814 238.573 L 303.075 238.346 L 304.145 238.149 L 305.212 237.953 L 305.932 237.795 L 307.184 237.566 L 308.246 237.368 L 309.307 237.17 L 310.365 236.971 L 311.265 236.779 L 312.32 236.58 L 313.374 236.379 L 314.425 236.179 L 315.319 235.985 L 316.367 235.784 L 317.413 235.582 L 318.642 235.347 L 319.684 235.144 L 320.724 234.94 L 321.609 234.744 L 322.646 234.539 L 323.68 234.334 L 324.896 234.096 L 325.927 233.89 L 326.622 233.724 L 327.831 233.485 L 328.857 233.277 L 330.062 233.036 L 331.084 232.828 L 332.104 232.619 L 332.972 232.417 L 333.988 232.207 L 335.003 231.996 L 336.195 231.752 L 337.206 231.541 L 338.394 231.296 L 339.401 231.083 L 340.258 230.877 L 341.261 230.664 L 342.263 230.449 L 343.44 230.201 L 344.438 229.986 L 345.611 229.737 L 346.605 229.52 L 347.451 229.311 L 348.442 229.093 L 349.606 228.842 L 350.593 228.623 L 351.753 228.37 L 352.736 228.15 L 353.891 227.896 L 354.87 227.675 L 356.021 227.42 L 356.68 227.239 L 357.827 226.983 L 358.972 226.726 L 359.942 226.502 L 361.082 226.243 L 362.048 226.018 L 363.185 225.759 L 364.147 225.532 L 365.279 225.271 L 366.408 225.01 L 367.365 224.782 L 368.18 224.56 L 369.134 224.331 L 370.255 224.067 L 371.374 223.802 L 372.322 223.571 L 373.436 223.304 L 374.549 223.037 L 375.491 222.804 L 376.599 222.536 L 377.705 222.267 L 378.641 222.032 L 379.742 221.761 L 380.842 221.49 L 381.772 221.253 L 382.867 220.98 L 383.96 220.707 L 384.885 220.468 L 385.974 220.193 L 387.06 219.918 L 388.144 219.641 L 389.061 219.4 L 390.141 219.122 L 391.219 218.844 L 392 218.607 L 393.074 218.327 L 393.983 218.082 L 395.053 217.801 L 396.12 217.518 L 397.186 217.236 L 398.249 216.952 L 399.439 216.66 L 400.498 216.375 L 401.554 216.089 L 402.608 215.802 L 403.66 215.514 L 404.71 215.225 L 405.598 214.973 L 406.644 214.682 L 407.688 214.392 L 408.729 214.1 L 409.769 213.807 L 410.806 213.514 L 411.841 213.22 L 412.875 212.925 L 413.906 212.629 L 414.935 212.333 L 415.962 212.035 L 416.987 211.737 L 418.009 211.438 L 419.03 211.138 L 420.049 210.837 L 421.066 210.535 L 422.356 210.188 L 423.368 209.885 L 424.378 209.581 L 425.386 209.275 L 426.392 208.969 L 427.395 208.662 L 428.397 208.354 L 429.397 208.046 L 430.395 207.736 L 431.391 207.426 L 432.654 207.069 L 433.645 206.757 L 434.634 206.444 L 435.622 206.129 L 436.607 205.814 L 437.591 205.498 L 438.725 205.143 L 439.705 204.825 L 440.946 204.461 L 441.921 204.141 L 442.894 203.82 L 443.865 203.498 L 444.986 203.137 L 445.953 202.813 L 446.918 202.489 L 448.141 202.117 L 449.101 201.79 L 450.211 201.424 L 451.169 201.095 L 452.124 200.765 L 453.332 200.389 L 454.433 200.018 L 455.382 199.685 L 456.329 199.351 L 457.275 199.017 L 458.619 198.595 L 459.56 198.258 L 460.499 197.92 L 461.585 197.541 L 462.521 197.201 L 463.703 196.814 L 464.783 196.431 L 465.712 196.088 L 466.64 195.744 L 467.959 195.312 L 468.882 194.965 L 469.804 194.618 L 470.872 194.229 L 472.033 193.832 L 473.096 193.44 L 474.01 193.088 L 475.07 192.695 L 476.22 192.293 L 477.129 191.938 L 478.182 191.54 L 479.088 191.183 L 480.374 190.735 L 481.275 190.375 L 482.321 189.973 L 483.453 189.563 L 484.495 189.158 L 485.389 188.793 L 486.659 188.338 L 487.55 187.971 L 488.584 187.561 L 489.701 187.143 L 490.732 186.731 L 491.761 186.317 L 492.87 185.895 L 493.895 185.479 L 494.773 185.104 L 496.02 184.636 L 496.895 184.258 L 497.913 183.836 L 499.152 183.364 L 500.022 182.983 L 501.035 182.557 L 502.267 182.081 L 503.131 181.695 L 504.358 181.216 L 505.364 180.785 L 506.224 180.396 L 507.444 179.912 L 508.445 179.477 L 509.516 179.034 L 510.514 178.596 L 511.724 178.107 L 512.573 177.709 L 513.567 177.267 L 514.77 176.773 L 515.616 176.372 L 516.814 175.875 L 517.801 175.427 L 518.995 174.927 L 519.835 174.52 L 521.024 174.017 L 522.005 173.563 L 523.19 173.057 L 524.169 172.6 L 525.205 172.135 L 526.181 171.675 L 527.358 171.162 L 528.33 170.7 L 529.503 170.184 L 530.328 169.762 L 531.496 169.243 L 532.464 168.775 L 533.628 168.252 L 534.593 167.78 L 535.754 167.255 L 536.571 166.824 L 537.728 166.295 L 538.882 165.765 L 539.841 165.285 L 540.992 164.751 L 541.949 164.268 L 543.096 163.73 L 543.905 163.289 L 545.048 162.748 L 546.189 162.206 L 547.141 161.715 L 548.279 161.168 L 549.415 160.621 L 550.364 160.124 L 551.497 159.573 L 552.445 159.073 L 553.575 158.518 L 554.555 158.007 L 555.5 157.503 L 556.625 156.942 L 557.748 156.38 L 558.69 155.87 L 559.81 155.304 L 560.929 154.737 L 562.045 154.167 L 562.985 153.65 L 564.099 153.077 L 565.212 152.502 L 566.15 151.979 L 567.26 151.4 L 568.369 150.819 L 569.476 150.236 L 570.412 149.707 L 571.366 149.167 L 572.469 148.578 L 573.571 147.988 L 574.671 147.395 L 575.605 146.856 L 576.703 146.26 L 577.801 145.661 L 578.897 145.061 L 579.992 144.458 L 580.924 143.91 L 582.017 143.303 L 583.11 142.694 L 584.201 142.084 L 585.291 141.471 L 586.38 140.856 L 587.468 140.239 L 588.555 139.62 L 589.487 139.056 L 590.573 138.433 L 591.5 137.855 L 592.584 137.228 L 593.668 136.598 L 594.75 135.966 L 595.832 135.332 L 596.92 134.696 L 598.008 134.057 L 599.095 133.416 L 600.181 132.772 L 601.266 132.127 L 602.35 131.478 L 603.434 130.828 L 604.517 130.175 L 605.526 129.521 L 606.516 128.912 L 607.597 128.251 L 608.677 127.589 L 609.757 126.924 L 610.837 126.256 L 611.917 125.586 L 612.996 124.914 L 614.074 124.239 L 615.018 123.564 L 616.196 122.874 L 617.273 122.192 L 618.349 121.506 L 619.426 120.819 L 620.503 120.128 L 621.46 119.438 L 622.612 118.732 L 623.688 118.034 L 624.763 117.333 L 625.839 116.63 L 626.867 115.925 L 628.069 115.158 L 629.016 114.495 L 630.092 113.78 L 631.123 113.064 L 632.367 112.285 L 633.401 111.563 L 634.339 110.886 L 635.376 110.159 L 636.613 109.368 L 637.652 108.635 L 638.548 107.947 L 639.78 107.147 L 640.824 106.405 L 642.019 105.6 L 642.946 104.899 L 643.994 104.148 L 645.188 103.333 L 646.081 102.624 L 647.304 101.802 L 648.358 101.038 L 649.552 100.211 L 650.444 99.488 L 651.664 98.654 L 652.693 97.877 L 653.746 97.084 L 654.781 96.3 L 655.829 95.499 L 656.897 94.708 L 658.09 93.853 L 658.983 93.102 L 660.177 92.24 L 661.371 91.374 L 662.265 90.611 L 663.437 89.738 L 664.467 88.906 L 665.529 88.085 L 666.538 87.246 L 667.751 86.356 L 668.822 85.522 L 669.828 84.67 L 671.009 83.768 L 672.013 82.907 L 673.213 81.995 L 674.111 81.184 L 675.298 80.263 L 676.298 79.382 L 677.488 78.451 L 678.487 77.56 L 679.68 76.619 L 680.664 75.717 L 681.669 74.809 L 682.779 73.91 L 683.774 72.99 L 684.977 72.02 L 685.964 71.087 L 687.252 70.046 L 688.237 69.1 L 689.229 68.146 L 690.441 67.142 L 691.426 66.173 L 692.419 65.195 L 693.637 64.167 L 694.618 63.172 L 695.683 62.111 L 696.908 61.055 L 697.896 60.03 L 698.885 58.993 L 700.185 57.85 L 701.175 56.79 L 702.166 55.716 L 703.471 54.535 L 703.498 54.534 L 702.192 55.714 L 701.168 56.789 L 700.18 57.849 L 698.921 58.99 L 697.897 60.027 L 696.911 61.052 L 695.865 62.1 L 694.504 63.171 L 693.644 64.163 L 692.611 65.182 L 691.441 66.164 L 690.456 67.133 L 689.434 68.129 L 688.258 69.087 L 687.273 70.033 L 686.026 71.072 L 684.996 72.006 L 683.993 72.967 L 682.803 73.892 L 682.122 74.772 L 680.699 75.692 L 679.712 76.594 L 678.725 77.525 L 677.523 78.422 L 676.542 79.342 L 675.334 80.23 L 674.36 81.14 L 673.466 81.947 L 672.272 82.854 L 671.052 83.723 L 670.089 84.614 L 668.863 85.474 L 668.271 86.283 L 666.813 87.176 L 665.578 88.024 L 665.007 88.82 L 663.49 89.669 L 662.546 90.53 L 661.654 91.289 L 660.464 92.15 L 659.273 93.008 L 658.382 93.756 L 657.191 94.606 L 656.409 95.377 L 654.842 96.199 L 654.334 96.953 L 652.755 97.769 L 652.257 98.516 L 650.756 99.357 L 649.863 100.076 L 648.671 100.9 L 647.917 101.642 L 646.403 102.471 L 645.509 103.178 L 644.316 103.989 L 643.575 104.718 L 642.347 105.428 L 641.152 106.23 L 640.421 106.949 L 638.883 107.758 L 637.985 108.444 L 637.264 109.154 L 635.716 109.955 L 634.999 110.659 L 633.744 111.348 L 633.034 112.045 L 631.472 112.836 L 630.766 113.528 L 629.698 114.232 L 628.427 114.909 L 627.222 115.674 L 626.525 116.354 L 625.457 117.047 L 624.388 117.738 L 623.32 118.426 L 621.558 119.173 L 621.204 119.822 L 620.134 120.503 L 619.064 121.181 L 617.994 121.857 L 616.923 122.53 L 615.125 123.265 L 614.794 123.897 L 613.721 124.563 L 612.647 125.227 L 611.573 125.888 L 610.499 126.547 L 609.424 127.204 L 608.349 127.859 L 607.272 128.511 L 605.931 129.144 L 605.274 129.77 L 604.195 130.415 L 603.116 131.059 L 602.036 131.7 L 600.955 132.339 L 599.873 132.976 L 598.791 133.611 L 597.707 134.243 L 596.622 134.874 L 595.537 135.502 L 594.45 136.129 L 593.362 136.753 L 592.274 137.375 L 590.887 137.984 L 590.243 138.576 L 590.069 139.084 L 588.225 139.739 L 587.131 140.352 L 586.036 140.962 L 584.939 141.571 L 583.841 142.177 L 582.741 142.782 L 581.641 143.385 L 581.487 143.874 L 579.61 144.517 L 578.505 145.115 L 577.399 145.71 L 576.292 146.304 L 576.148 146.78 L 574.252 147.418 L 573.14 148.006 L 572.027 148.593 L 570.585 149.173 L 570.92 149.607 L 569.006 150.238 L 567.886 150.818 L 566.765 151.396 L 566.633 151.853 L 564.705 152.479 L 563.579 153.052 L 563.449 153.502 L 561.511 154.125 L 560.38 154.694 L 559.247 155.261 L 559.12 155.702 L 557.169 156.321 L 556.031 156.883 L 555.904 157.318 L 553.603 157.936 L 552.943 158.457 L 552.815 158.886 L 550.847 159.499 L 550.719 159.924 L 548.746 160.535 L 547.593 161.085 L 547.464 161.504 L 545.483 162.112 L 544.325 162.658 L 543.727 163.082 L 542.345 163.643 L 542.212 164.053 L 540.219 164.657 L 540.083 165.062 L 538.087 165.665 L 536.914 166.201 L 536.308 166.616 L 534.912 167.168 L 534.769 167.565 L 532.762 168.163 L 532.616 168.556 L 530.605 169.153 L 529.99 169.559 L 528.582 170.104 L 528.429 170.491 L 526.411 171.085 L 526.254 171.468 L 523.893 172.071 L 524.212 172.408 L 522.188 172.998 L 522.022 173.375 L 519.995 173.964 L 519.362 174.358 L 517.935 174.893 L 517.759 175.264 L 515.726 175.851 L 515.086 176.24 L 513.65 176.771 L 513.464 177.137 L 512.006 177.596 L 510.565 178.125 L 510.369 178.486 L 508 179.083 L 508.268 179.395 L 506.225 179.975 L 505.568 180.354 L 505.145 180.73 L 503.1 181.308 L 502.436 181.684 L 500.976 182.205 L 500.752 182.555 L 499.287 183.006 L 497.822 183.525 L 497.586 183.871 L 496.12 184.32 L 494.65 184.837 L 493.968 185.205 L 493.512 185.568 L 491.15 186.158 L 491.345 186.448 L 490.304 186.866 L 487.946 187.456 L 488.124 187.742 L 486.656 188.185 L 485.167 188.695 L 484.465 189.056 L 483.978 189.41 L 481.625 189.997 L 481.772 190.277 L 480.302 190.717 L 478.802 191.223 L 478.086 191.579 L 477.577 191.928 L 476.107 192.366 L 474.313 192.889 L 474.421 193.162 L 472.95 193.598 L 472.423 193.942 L 470.085 194.525 L 470.168 194.794 L 468.697 195.228 L 467.765 195.6 L 466.242 196.099 L 465.496 196.447 L 464.558 196.817 L 464 197.156 L 461.674 197.736 L 461.331 198.029 L 460.762 198.366 L 459.292 198.795 L 458.343 199.162 L 456.802 199.657 L 456.033 199.999 L 455.078 200.364 L 454.122 200.729 L 453.524 201.061 L 451.216 201.637 L 450.831 201.925 L 449.867 202.287 L 449.253 202.618 L 447.784 203.042 L 445.983 203.553 L 445.578 203.838 L 444.604 204.198 L 443.97 204.527 L 442.501 204.948 L 441.522 205.307 L 440.542 205.665 L 438.739 206.173 L 438.304 206.455 L 437.645 206.781 L 436.177 207.2 L 435.186 207.556 L 434.194 207.912 L 433.199 208.267 L 432.203 208.622 L 430.4 209.127 L 429.93 209.406 L 428.928 209.76 L 427.924 210.113 L 426.918 210.466 L 425.91 210.819 L 424.9 211.171 L 423.889 211.523 L 422.875 211.875 L 421.86 212.226 L 420.053 212.727 L 419.542 213.004 L 418.52 213.354 L 417.497 213.704 L 416.471 214.054 L 415.443 214.403 L 414.414 214.752 L 413.383 215.101 L 412.349 215.449 L 411.314 215.797 L 410.276 216.145 L 409.237 216.493 L 408.196 216.84 L 407.153 217.187 L 406.107 217.534 L 405.06 217.881 L 403.697 218.267 L 403.12 218.54 L 402.067 218.886 L 401.012 219.232 L 399.955 219.577 L 398.896 219.922 L 396.896 220.44 L 396.639 220.657 L 395.574 221.002 L 394.506 221.346 L 393.437 221.691 L 392.076 222.072 L 391.455 222.345 L 391.717 222.456 L 389.6 222.954 L 388.521 223.297 L 387.167 223.677 L 386.522 223.949 L 385.437 224.292 L 384.349 224.635 L 382.996 225.014 L 382.335 225.286 L 381.242 225.628 L 379.889 226.005 L 379.216 226.278 L 378.117 226.619 L 376.764 226.996 L 376.079 227.269 L 374.974 227.61 L 373.622 227.985 L 372.925 228.258 L 371.814 228.599 L 370.462 228.973 L 369.754 229.246 L 368.636 229.587 L 367.285 229.961 L 367.801 230.006 L 365.528 230.526 L 364.797 230.799 L 363.67 231.14 L 362.322 231.512 L 361.58 231.785 L 360.232 232.156 L 359.483 232.43 L 358.134 232.801 L 357.378 233.075 L 356.236 233.415 L 355.906 233.584 L 354.437 233.978 L 353.092 234.347 L 352.313 234.621 L 350.968 234.99 L 350.182 235.265 L 348.836 235.633 L 348.043 235.908 L 346.696 236.276 L 347.053 236.329 L 344.875 236.836 L 344.065 237.112 L 342.721 237.479 L 341.904 237.755 L 340.559 238.121 L 339.563 238.423 L 339.868 238.481 L 337.719 238.983 L 336.883 239.26 L 335.539 239.624 L 334.695 239.902 L 333.35 240.266 L 332.342 240.568 L 332.595 240.629 L 330.476 241.127 L 329.463 241.429 L 328.598 241.708 L 327.252 242.07 L 326.38 242.35 L 325.971 242.519 L 324.348 242.93 L 323.464 243.21 L 322.119 243.572 L 321.092 243.873 L 321.265 243.941 L 319.19 244.431 L 318.158 244.733 L 317.252 245.014 L 315.906 245.374 L 314.869 245.676 L 315.002 245.747 L 312.948 246.233 L 311.905 246.535 L 310.861 246.837 L 310.966 246.91 L 308.927 247.393 L 307.878 247.695 L 306.827 247.997 L 305.883 248.282 L 305.422 248.452 L 303.824 248.855 L 302.766 249.157 L 301.808 249.443 L 300.459 249.8 L 300.274 249.916 L 298.68 250.317 L 297.707 250.604 L 296.357 250.96 L 296.155 251.078 L 294.567 251.478 L 293.493 251.78 L 292.503 252.068 L 292.01 252.24 L 290.427 252.639 L 289.347 252.941 L 288.265 253.243 L 288.035 253.363 L 286.525 253.749 L 285.173 254.103 L 284.084 254.405 L 283.837 254.526 L 282.259 254.922 L 281.166 255.225 L 280.07 255.527 L 279.987 255.619 L 278.04 256.085 L 276.939 256.388 L 276.665 256.511 L 275.094 256.905 L 273.988 257.208 L 272.881 257.511 L 272.596 257.635 L 271.025 258.028 L 269.912 258.331 L 269.769 258.43 L 267.85 258.89 L 266.733 259.193 L 265.613 259.497 L 265.3 259.623 L 263.736 260.014 L 262.612 260.318 L 262.289 260.446 L 260.727 260.836 L 259.597 261.14 L 259.264 261.268 L 257.703 261.658 L 256.569 261.962 L 256.226 262.092 L 254.667 262.48 L 253.527 262.784 L 253.174 262.915 L 251.617 263.303 L 250.472 263.607 L 250.109 263.739 L 248.553 264.126 L 247.404 264.431 L 247.03 264.564 L 245.476 264.95 L 244.321 265.255 L 243.937 265.389 L 242.385 265.775 L 241.225 266.08 L 240.831 266.215 L 239.28 266.6 L 238.115 266.905 L 237.71 267.041 L 236.162 267.425 L 234.992 267.731 L 234.576 267.869 L 233.029 268.252 L 231.826 268.564 L 231.645 268.652 L 230.092 269.035 L 228.913 269.342 L 228.484 269.481 L 226.933 269.863 L 226.495 270.003 L 224.948 270.385 L 223.761 270.692 L 223.311 270.833 L 221.755 271.216 L 220.786 271.477 L 220.333 271.618 L 218.784 271.999 L 218.321 272.142 L 216.776 272.522 L 215.575 272.83 L 215.101 272.974 L 213.558 273.353 L 213.298 273.452 L 211.752 273.831 L 210.542 274.14 L 210.056 274.286 L 208.512 274.664 L 207.298 274.973 L 206.691 275.143 L 205.475 275.452 L 204.975 275.599 L 203.431 275.977 L 202.921 276.125 L 201.399 276.499 L 200.374 276.766 L 199.86 276.915 L 198.315 277.292 L 197.792 277.442 L 196.276 277.814 L 195.238 278.082 L 194.711 278.233 L 193.165 278.609 L 192.628 278.761 L 191.118 279.13 L 190.769 279.241 L 189.225 279.617 L 187.98 279.929 L 187.428 280.082 L 185.925 280.449 L 185.557 280.563 L 184.013 280.938 L 183.449 281.093 L 181.954 281.458 L 180.878 281.732 L 180.31 281.888 L 178.766 282.262 L 178.136 282.431 L 176.875 282.744 L 176.294 282.901 L 174.804 283.264 L 174.396 283.384 L 172.851 283.757 L 171.58 284.071 L 170.944 284.24 L 169.672 284.554 L 169.074 284.714 L 167.589 285.074 L 167.159 285.197 L 165.611 285.57 L 165 285.731 L 163.524 286.09 L 163.075 286.216 L 161.529 286.587 L 160.886 286.756 L 159.597 287.072 L 158.97 287.235 L 157.501 287.591 L 156.365 287.873 L 155.734 288.037 L 154.261 288.393 L 153.787 288.523 L 152.236 288.894 L 151.585 289.063 L 150.282 289.38 L 149.634 289.546 L 148.17 289.9 L 147.673 290.033 L 146.122 290.403 L 145.466 290.572 L 144.153 290.89 L 143.489 291.059 L 142.033 291.41 L 141.513 291.547 L 140.055 291.897 L 139.532 292.035 L 137.979 292.404 L 137.317 292.573 L 135.991 292.893 L 135.307 293.065 L 133.858 293.412 L 133.312 293.554 L 131.861 293.901 L 131.312 294.043 L 129.756 294.412 L 129.088 294.581 L 127.749 294.902 L 127.079 295.071 L 125.737 295.392 L 125.03 295.567 L 123.587 295.912 L 123.01 296.058 L 122.129 296.273 L 120.779 296.595 L 120.056 296.772 L 118.625 297.115 L 118.024 297.264 L 116.592 297.606 L 115.988 297.756 L 114.555 298.098 L 113.948 298.249 L 112.512 298.591 L 111.902 298.742 L 110.341 299.11 L 109.657 299.279 L 108.288 299.603 L 107.603 299.772 L 106.852 299.954 L 105.427 300.292 L 104.79 300.448 L 103.364 300.787 L 102.723 300.943 L 101.296 301.281 L 100.651 301.438 L 99.086 301.805 L 98.393 301.975 L 97.007 302.301 L 96.313 302.47 L 95.535 302.656 L 94.12 302.991 L 93.446 303.153 L 92.03 303.488 L 91.353 303.65 L 89.936 303.985 L 89.255 304.148 L 88.388 304.354 L 86.986 304.683 L 86.284 304.852 L 84.88 305.181 L 84.176 305.351 L 82.768 305.68 L 82.063 305.85 L 81.252 306.04 L 79.847 306.371 L 79.131 306.54 L 77.725 306.871 L 77.005 307.04 L 75.598 307.371 L 74.985 307.519 L 74.163 307.711 L 72.755 308.041 L 72.025 308.212 L 70.617 308.542 L 69.883 308.714 L 69.02 308.917 L 67.589 309.249 L 66.872 309.419 L 65.438 309.752 L 64.719 309.922 L 63.282 310.255 L 62.562 310.425 L 61.842 310.595 L 60.4 310.929 L 59.678 311.099 L 58.233 311.433 L 57.509 311.603 L 56.646 311.802 L 55.252 312.127 L 54.609 312.278 L 53.157 312.613 L 52.429 312.783 L 51.557 312.983 L 50.163 313.307 L 49.368 313.49 L 48.513 313.688 L 47.243 313.984 L 46.441 314.167 L 45.047 314.491 L 44.24 314.675 L 43.385 314.873 L 42.111 315.169 L 41.298 315.354 L 39.904 315.677 L 39.085 315.863 L 38.23 316.06 L 36.953 316.356 L 36.128 316.543 L 35.272 316.74 L 33.79 317.079 L 33.047 317.25 L 31.768 317.546 L 30.93 317.735 L 30.074 317.932 L 28.584 318.272 L 27.838 318.443 L 27.092 318.614 L 25.598 318.954 L 24.849 319.126 L 24.101 319.297 L 22.602 319.638 L 21.851 319.809 L 20.349 320.151 L 19.597 320.322 L 18.844 320.494 L 17.338 320.836 L 16.583 321.008 L 15.828 321.179 L 14.317 321.522 L 13.56 321.694 L 29.453 390.839 L 30.208 390.664 L 31.716 390.314 L 32.47 390.139 L 33.223 389.965 L 34.728 389.616 L 35.479 389.441 L 36.231 389.267 L 37.732 388.919 L 38.482 388.745 L 39.98 388.398 L 40.729 388.224 L 41.477 388.051 L 42.973 387.704 L 43.719 387.531 L 44.466 387.358 L 45.958 387.012 L 46.703 386.839 L 47.448 386.666 L 48.936 386.321 L 49.679 386.149 L 51.165 385.805 L 51.907 385.632 L 52.649 385.46 L 54.131 385.117 L 54.871 384.945 L 55.611 384.774 L 57.09 384.431 L 57.829 384.259 L 59.305 383.917 L 60.042 383.746 L 60.779 383.575 L 62.252 383.234 L 62.988 383.063 L 64.458 382.722 L 65.192 382.552 L 65.926 382.382 L 67.393 382.042 L 68.126 381.872 L 68.858 381.702 L 70.321 381.363 L 71.052 381.193 L 72.512 380.855 L 73.242 380.686 L 73.971 380.517 L 75.429 380.179 L 76.156 380.01 L 77.611 379.673 L 78.338 379.504 L 79.064 379.336 L 80.515 378.999 L 81.24 378.831 L 82.689 378.495 L 83.412 378.327 L 84.858 377.992 L 85.581 377.825 L 86.303 377.657 L 87.745 377.323 L 88.466 377.156 L 89.906 376.822 L 90.625 376.655 L 91.344 376.488 L 92.781 376.155 L 93.498 375.989 L 94.932 375.656 L 95.649 375.49 L 97.08 375.158 L 97.795 374.992 L 98.51 374.826 L 99.938 374.495 L 100.651 374.33 L 102.077 373.999 L 102.789 373.834 L 104.212 373.504 L 104.923 373.339 L 105.633 373.174 L 107.053 372.845 L 107.762 372.681 L 109.179 372.352 L 109.887 372.188 L 111.301 371.86 L 112.008 371.696 L 112.714 371.532 L 114.125 371.205 L 114.83 371.041 L 116.238 370.715 L 116.942 370.552 L 118.348 370.225 L 119.05 370.063 L 120.453 369.737 L 121.154 369.574 L 122.555 369.25 L 123.255 369.087 L 123.954 368.925 L 125.352 368.601 L 126.05 368.439 L 127.445 368.115 L 128.141 367.954 L 129.534 367.631 L 130.229 367.469 L 131.619 367.147 L 132.314 366.986 L 133.701 366.664 L 134.394 366.503 L 135.779 366.182 L 136.47 366.021 L 137.853 365.701 L 138.543 365.541 L 139.233 365.38 L 140.612 365.06 L 141.301 364.901 L 142.677 364.581 L 143.365 364.422 L 144.738 364.103 L 145.425 363.944 L 146.796 363.626 L 147.481 363.467 L 148.85 363.149 L 149.534 362.99 L 150.9 362.673 L 151.582 362.515 L 152.946 362.198 L 153.627 362.04 L 154.988 361.724 L 155.668 361.567 L 157.027 361.251 L 157.706 361.094 L 159.062 360.779 L 159.739 360.622 L 161.093 360.307 L 161.769 360.15 L 163.12 359.837 L 163.795 359.68 L 165.144 359.367 L 165.818 359.211 L 167.164 358.898 L 167.836 358.742 L 169.18 358.43 L 169.851 358.274 L 171.192 357.963 L 171.862 357.807 L 173.201 357.496 L 174.538 357.186 L 175.206 357.031 L 176.54 356.721 L 177.207 356.566 L 178.539 356.257 L 179.204 356.102 L 180.533 355.793 L 181.198 355.639 L 182.524 355.331 L 183.187 355.177 L 184.512 354.869 L 185.173 354.716 L 186.495 354.409 L 187.156 354.255 L 188.475 353.949 L 189.793 353.642 L 190.451 353.489 L 191.767 353.184 L 192.424 353.031 L 193.737 352.726 L 194.392 352.574 L 195.703 352.269 L 196.357 352.117 L 197.665 351.813 L 198.972 351.509 L 199.624 351.358 L 200.928 351.055 L 201.579 350.903 L 202.88 350.601 L 203.53 350.45 L 204.829 350.148 L 206.126 349.846 L 206.774 349.695 L 208.069 349.394 L 208.716 349.244 L 210.008 348.944 L 210.653 348.793 L 211.943 348.493 L 213.231 348.194 L 213.875 348.044 L 215.16 347.745 L 215.802 347.596 L 217.086 347.297 L 218.367 346.999 L 219.007 346.85 L 220.286 346.552 L 220.925 346.404 L 222.202 346.107 L 222.84 345.958 L 224.114 345.662 L 225.386 345.365 L 226.022 345.217 L 227.292 344.922 L 228.56 344.626 L 229.194 344.479 L 230.46 344.184 L 231.092 344.037 L 232.356 343.743 L 233.618 343.449 L 234.248 343.302 L 235.507 343.008 L 236.136 342.862 L 237.393 342.569 L 238.649 342.277 L 239.276 342.13 L 240.529 341.838 L 241.78 341.547 L 242.405 341.401 L 243.654 341.11 L 244.278 340.965 L 245.524 340.674 L 246.769 340.384 L 247.391 340.239 L 248.633 339.949 L 249.874 339.66 L 250.493 339.515 L 251.732 339.226 L 252.968 338.938 L 253.586 338.793 L 254.82 338.505 L 256.053 338.218 L 256.668 338.074 L 257.899 337.787 L 259.127 337.5 L 259.741 337.357 L 260.967 337.07 L 262.191 336.785 L 262.803 336.642 L 264.025 336.356 L 265.246 336.071 L 265.855 335.929 L 267.073 335.644 L 268.29 335.36 L 268.897 335.218 L 270.111 334.934 L 271.324 334.65 L 271.929 334.509 L 273.139 334.226 L 274.348 333.943 L 274.951 333.802 L 276.157 333.52 L 277.361 333.238 L 277.963 333.097 L 279.165 332.816 L 280.365 332.535 L 280.965 332.394 L 282.163 332.114 L 283.359 331.834 L 284.554 331.554 L 285.151 331.414 L 286.343 331.135 L 287.534 330.856 L 288.128 330.716 L 289.317 330.438 L 290.503 330.159 L 291.689 329.882 L 292.281 329.743 L 293.463 329.465 L 294.644 329.188 L 295.234 329.05 L 296.413 328.773 L 297.59 328.497 L 298.766 328.221 L 299.353 328.083 L 300.526 327.807 L 301.698 327.532 L 302.868 327.257 L 303.452 327.12 L 304.62 326.845 L 305.786 326.571 L 306.95 326.297 L 307.532 326.16 L 308.694 325.887 L 309.854 325.614 L 311.013 325.341 L 311.592 325.205 L 312.748 324.932 L 313.903 324.66 L 315.057 324.388 L 315.633 324.253 L 316.784 323.981 L 317.933 323.71 L 319.081 323.44 L 320.227 323.169 L 320.799 323.034 L 321.943 322.764 L 323.086 322.495 L 324.226 322.225 L 325.365 321.956 L 325.934 321.822 L 327.071 321.553 L 328.206 321.285 L 329.34 321.017 L 329.906 320.883 L 331.037 320.615 L 332.167 320.348 L 333.295 320.081 L 334.422 319.814 L 335.547 319.548 L 336.108 319.414 L 337.231 319.148 L 338.352 318.883 L 339.472 318.617 L 340.589 318.352 L 341.148 318.219 L 342.263 317.954 L 343.377 317.69 L 344.49 317.426 L 345.601 317.162 L 346.71 316.898 L 347.264 316.766 L 348.371 316.503 L 349.476 316.24 L 350.58 315.977 L 351.683 315.714 L 352.783 315.452 L 353.882 315.19 L 354.431 315.059 L 355.528 314.798 L 356.624 314.536 L 357.717 314.275 L 358.81 314.014 L 359.9 313.754 L 360.989 313.494 L 361.533 313.363 L 362.62 313.104 L 363.705 312.844 L 364.789 312.584 L 365.871 312.325 L 366.952 312.066 L 368.031 311.808 L 369.108 311.549 L 370.184 311.291 L 370.721 311.162 L 371.795 310.904 L 372.867 310.646 L 373.938 310.389 L 375.007 310.132 L 376.074 309.875 L 377.14 309.618 L 378.204 309.362 L 379.267 309.106 L 380.328 308.85 L 381.388 308.594 L 381.917 308.466 L 382.975 308.211 L 384.031 307.956 L 385.085 307.701 L 386.138 307.446 L 387.189 307.191 L 388.239 306.937 L 389.288 306.683 L 390.334 306.429 L 391.379 306.175 L 392.423 305.922 L 393.465 305.669 L 394.506 305.416 L 395.545 305.163 L 396.583 304.91 L 397.619 304.658 L 398.653 304.406 L 399.686 304.154 L 400.718 303.902 L 401.748 303.65 L 402.776 303.399 L 403.803 303.148 L 404.828 302.896 L 405.341 302.771 L 406.364 302.52 L 407.385 302.27 L 408.406 302.019 L 409.424 301.769 L 410.441 301.519 L 411.457 301.269 L 412.977 300.895 L 413.989 300.645 L 414.999 300.396 L 416.008 300.147 L 417.015 299.898 L 418.021 299.649 L 419.025 299.401 L 420.028 299.152 L 421.029 298.904 L 422.029 298.656 L 423.027 298.408 L 424.024 298.16 L 425.019 297.913 L 426.013 297.665 L 427.005 297.418 L 427.996 297.171 L 428.985 296.924 L 429.973 296.677 L 430.959 296.43 L 431.944 296.184 L 432.927 295.937 L 433.909 295.691 L 435.379 295.321 L 436.357 295.075 L 437.333 294.83 L 438.308 294.584 L 439.282 294.338 L 440.254 294.093 L 441.225 293.847 L 442.194 293.602 L 443.161 293.357 L 444.127 293.112 L 445.574 292.744 L 446.536 292.5 L 447.497 292.255 L 448.457 292.01 L 449.415 291.766 L 450.371 291.521 L 451.326 291.277 L 452.28 291.033 L 453.707 290.667 L 454.657 290.423 L 455.605 290.179 L 456.552 289.935 L 457.498 289.691 L 458.441 289.447 L 459.384 289.204 L 460.795 288.839 L 461.734 288.595 L 462.671 288.352 L 463.607 288.108 L 464.541 287.865 L 465.94 287.5 L 466.871 287.257 L 467.8 287.014 L 468.728 286.771 L 469.654 286.528 L 471.041 286.164 L 471.964 285.921 L 472.885 285.678 L 473.805 285.435 L 474.723 285.192 L 476.098 284.828 L 477.012 284.585 L 477.925 284.343 L 478.837 284.1 L 480.202 283.736 L 481.11 283.493 L 482.017 283.251 L 482.922 283.008 L 484.277 282.644 L 485.179 282.401 L 486.079 282.158 L 486.978 281.916 L 488.323 281.552 L 489.218 281.309 L 490.112 281.066 L 491.004 280.823 L 492.339 280.459 L 493.228 280.216 L 494.115 279.974 L 495.443 279.609 L 496.327 279.366 L 497.209 279.123 L 498.529 278.758 L 499.408 278.515 L 500.285 278.272 L 501.598 277.907 L 502.471 277.664 L 503.344 277.42 L 504.649 277.055 L 505.517 276.811 L 506.385 276.568 L 507.682 276.202 L 508.546 275.958 L 509.408 275.714 L 510.699 275.348 L 511.557 275.104 L 512.414 274.859 L 513.697 274.493 L 514.551 274.248 L 515.828 273.881 L 516.678 273.636 L 517.527 273.391 L 518.797 273.023 L 519.642 272.778 L 520.907 272.41 L 521.749 272.164 L 523.008 271.795 L 523.846 271.549 L 524.683 271.303 L 525.935 270.933 L 526.768 270.687 L 528.015 270.316 L 528.844 270.069 L 530.086 269.699 L 530.912 269.451 L 532.148 269.08 L 532.971 268.832 L 534.202 268.459 L 535.021 268.211 L 536.247 267.838 L 537.062 267.589 L 538.283 267.215 L 539.095 266.966 L 540.31 266.591 L 541.119 266.341 L 542.329 265.966 L 543.134 265.715 L 544.339 265.339 L 545.141 265.088 L 546.34 264.711 L 547.138 264.459 L 548.333 264.081 L 549.524 263.702 L 550.317 263.449 L 551.503 263.069 L 552.292 262.816 L 553.473 262.435 L 554.259 262.181 L 555.435 261.799 L 556.607 261.416 L 557.388 261.161 L 558.555 260.777 L 559.72 260.393 L 560.494 260.136 L 561.654 259.75 L 562.425 259.493 L 563.579 259.106 L 564.73 258.718 L 565.496 258.459 L 566.642 258.071 L 567.785 257.681 L 568.545 257.421 L 569.682 257.03 L 570.817 256.638 L 571.949 256.245 L 572.701 255.983 L 573.828 255.589 L 574.951 255.194 L 575.699 254.93 L 576.817 254.533 L 577.932 254.136 L 579.045 253.738 L 579.784 253.471 L 580.892 253.072 L 581.996 252.671 L 583.097 252.269 L 584.195 251.866 L 584.925 251.597 L 586.018 251.193 L 587.108 250.787 L 588.195 250.381 L 589.279 249.973 L 590 249.701 L 591.079 249.291 L 592.154 248.881 L 593.227 248.469 L 594.297 248.057 L 595.364 247.643 L 596.428 247.228 L 597.488 246.812 L 598.194 246.534 L 599.25 246.116 L 600.302 245.697 L 601.352 245.277 L 602.399 244.855 L 603.443 244.433 L 604.483 244.009 L 605.521 243.584 L 606.556 243.157 L 607.588 242.73 L 608.617 242.301 L 609.642 241.87 L 610.665 241.439 L 611.685 241.006 L 612.702 240.572 L 613.716 240.136 L 614.727 239.699 L 615.735 239.261 L 616.74 238.821 L 617.743 238.38 L 618.742 237.938 L 619.738 237.494 L 620.731 237.049 L 621.722 236.602 L 622.709 236.154 L 624.021 235.554 L 625.001 235.103 L 625.979 234.65 L 626.954 234.195 L 627.925 233.739 L 628.894 233.282 L 630.181 232.669 L 631.143 232.208 L 632.102 231.745 L 633.059 231.281 L 634.012 230.815 L 635.278 230.191 L 636.225 229.722 L 637.168 229.25 L 638.109 228.777 L 639.359 228.144 L 640.293 227.668 L 641.224 227.189 L 642.152 226.709 L 643.385 226.066 L 644.306 225.582 L 645.224 225.096 L 646.445 224.446 L 647.356 223.956 L 648.568 223.3 L 649.473 222.806 L 650.375 222.311 L 651.573 221.647 L 652.469 221.147 L 653.658 220.478 L 654.547 219.973 L 655.728 219.298 L 656.61 218.79 L 657.782 218.109 L 658.658 217.596 L 659.821 216.909 L 660.69 216.392 L 661.844 215.699 L 662.706 215.178 L 663.851 214.479 L 664.707 213.953 L 665.844 213.248 L 666.975 212.54 L 667.821 212.006 L 668.944 211.292 L 670.062 210.573 L 670.897 210.033 L 672.006 209.308 L 673.11 208.58 L 673.935 208.032 L 675.03 207.297 L 676.121 206.559 L 677.206 205.818 L 678.287 205.072 L 679.094 204.51 L 680.166 203.758 L 681.233 203.002 L 682.296 202.242 L 683.353 201.479 L 684.405 200.711 L 685.453 199.94 L 686.495 199.165 L 687.274 198.581 L 688.308 197.798 L 689.337 197.012 L 690.361 196.222 L 691.635 195.229 L 692.648 194.43 L 693.657 193.626 L 694.66 192.819 L 695.659 192.007 L 696.653 191.192 L 697.642 190.372 L 698.627 189.548 L 699.85 188.513 L 700.824 187.679 L 701.793 186.842 L 702.757 186 L 703.955 184.942 L 704.908 184.09 L 705.857 183.234 L 707.036 182.159 L 707.975 181.293 L 708.774 180.428 L 710.236 179.326 L 710.866 178.453 L 712.144 177.345 L 712.933 176.459 L 714.191 175.339 L 715.127 174.438 L 716.101 173.31 L 717.328 172.171 L 718.106 171.258 L 719.209 170.109 L 720.533 168.945 L 721.177 168.018 L 722.26 166.848 L 723.335 165.671 L 724.403 164.486 L 725.463 163.295 L 726.516 162.095 L 727.562 160.889 L 728.705 159.672 L 729.634 158.451 L 730.658 157.221 L 731.675 155.984 L 732.685 154.74 L 733.688 153.488 L 734.627 152.229 L 735.869 150.707 L 736.849 149.43 L 737.772 148.146 L 738.981 146.594 L 739.891 145.292 L 741.078 143.719 L 741.976 142.401 L 743.142 140.807 L 744.028 139.47 L 745.133 137.855 L 746.265 136.229 L 747.132 134.864 L 748.209 133.217 L 749.275 131.557 L 750.332 129.885 L 751.309 128.203 L 752.416 126.507 L 753.443 124.8 L 754.438 123.08 L 755.635 121.058 L 756.632 119.312 L 757.599 117.554 L 758.758 115.486 L 759.658 113.702 L 760.822 111.604 L 761.941 109.488 L 762.86 107.661 L 763.939 105.513 L 765.005 103.348 L 766.024 101.166 L 767.088 98.967 L 768.272 96.431 L 769.285 94.194 L 770.277 91.938 L 771.381 89.339 L 772.524 86.717 L 773.477 84.402 L 774.558 81.735 L 775.6 79.044 L 776.802 75.989 L 777.833 73.247 L 778.844 70.481 L 779.954 67.34 L 781.069 64.168 L 782.151 60.965 L 783.205 57.731 L 784.254 54.465 L 785.389 50.799 L 786.494 47.094 L 787.585 43.349 L 788.754 39.184 L 789.785 35.355 L 790.9 31.097 L 792.08 26.396 L 793.13 22.034 L 794.246 17.22 L 795.416 11.937 L 797.305 2.836 L 797.296 0.728 Z" vector-effect="non-scaling-stroke"/></g></svg>