<svg width="599.129" height="195.489" viewBox="0 0 599.129 195.489" xmlns="http://www.w3.org/2000/svg"><g id="svgGroup" stroke-linecap="round" fill-rule="evenodd" font-size="9pt" stroke="#000" stroke-width="0.25mm" fill="none" style="stroke:#000;stroke-width:0.25mm;fill:none"><path d="M 593.04 0 L 591.947 0.558 L 590.849 1.109 L 589.75 1.653 L 588.651 2.191 L 587.546 2.685 L 586.657 3.205 L 585.949 3.676 L 584.551 4.202 L 583.45 4.713 L 582.348 5.22 L 581.247 5.722 L 580.144 6.22 L 579.041 6.715 L 577.937 7.205 L 577.249 7.641 L 575.826 8.135 L 574.721 8.615 L 573.615 9.091 L 572.508 9.564 L 571.831 9.983 L 570.393 10.462 L 569.283 10.927 L 568.173 11.388 L 567.022 11.811 L 566.597 12.205 L 565.142 12.672 L 564.028 13.123 L 562.913 13.572 L 562.255 13.966 L 560.786 14.423 L 559.668 14.866 L 559.015 15.252 L 557.537 15.704 L 556.416 16.14 L 555.293 16.574 L 554.647 16.952 L 553.154 17.397 L 552.029 17.825 L 551.386 18.197 L 549.819 18.603 L 548.953 19.014 L 548.314 19.38 L 546.801 19.816 L 546.165 20.178 L 544.645 20.611 L 543.509 21.026 L 542.875 21.383 L 541.346 21.812 L 540.205 22.223 L 539.492 22.541 L 538.234 22.954 L 537.605 23.303 L 536.058 23.726 L 535.43 24.073 L 533.877 24.493 L 532.725 24.894 L 532.007 25.203 L 530.735 25.607 L 530.109 25.946 L 528.539 26.361 L 527.913 26.698 L 526.336 27.111 L 525.614 27.413 L 524.329 27.81 L 523.704 28.142 L 522.114 28.551 L 521.488 28.88 L 519.799 29.257 L 519.467 29.568 L 517.863 29.974 L 517.237 30.298 L 515.627 30.703 L 514.895 30.993 L 513.587 31.381 L 512.959 31.7 L 511.336 32.102 L 510.6 32.388 L 509.282 32.772 L 508.652 33.088 L 507.473 33.394 L 506.148 33.776 L 505.516 34.088 L 503.771 34.455 L 503.44 34.748 L 501.789 35.142 L 501.04 35.421 L 500.276 35.736 L 498.616 36.128 L 497.863 36.404 L 496.516 36.779 L 495.874 37.082 L 494.668 37.381 L 493.313 37.753 L 492.667 38.054 L 491.455 38.351 L 490.093 38.721 L 489.327 38.99 L 488.547 39.296 L 486.752 39.654 L 486.406 39.931 L 485.295 40.252 L 483.493 40.61 L 483.141 40.884 L 481.91 41.175 L 480.524 41.54 L 479.743 41.803 L 478.945 42.101 L 477.127 42.456 L 476.764 42.725 L 475.521 43.013 L 474.119 43.374 L 473.327 43.633 L 472.516 43.928 L 471.265 44.214 L 469.756 44.545 L 469.378 44.81 L 468.121 45.094 L 467.298 45.385 L 465.454 45.735 L 465.065 45.996 L 463.8 46.279 L 462.86 46.541 L 461.425 46.895 L 460.609 47.148 L 459.662 47.408 L 458.819 47.694 L 456.958 48.041 L 456.443 48.27 L 455.592 48.555 L 454.309 48.834 L 453.35 49.091 L 451.891 49.441 L 451.055 49.689 L 450.089 49.945 L 449.122 50.2 L 448.251 50.481 L 446.372 50.824 L 445.831 51.048 L 444.855 51.301 L 443.972 51.58 L 442.669 51.855 L 441.103 52.174 L 440.549 52.395 L 439.562 52.646 L 438.664 52.924 L 437.352 53.196 L 436.358 53.446 L 435.362 53.696 L 433.782 54.012 L 433.208 54.23 L 432.291 54.505 L 430.969 54.775 L 429.961 55.022 L 428.952 55.27 L 427.94 55.517 L 426.926 55.763 L 425.33 56.077 L 424.733 56.291 L 423.712 56.536 L 422.689 56.781 L 421.664 57.026 L 420.636 57.27 L 419.606 57.514 L 418.574 57.758 L 417.539 58.001 L 416.502 58.244 L 414.888 58.553 L 414.26 58.764 L 413.216 59.006 L 412.17 59.247 L 411.121 59.488 L 410.07 59.729 L 409.016 59.97 L 407.96 60.21 L 406.902 60.45 L 405.841 60.689 L 404.778 60.929 L 403.712 61.168 L 402.644 61.406 L 401.574 61.645 L 400.501 61.883 L 399.425 62.12 L 398.197 62.341 L 397.517 62.546 L 396.435 62.783 L 395.35 63.02 L 394.262 63.256 L 393.172 63.492 L 391.42 63.775 L 391.069 63.948 L 389.972 64.184 L 388.872 64.418 L 387.77 64.653 L 386.531 64.87 L 385.814 65.072 L 385.551 65.219 L 383.761 65.505 L 382.647 65.738 L 381.407 65.954 L 380.67 66.155 L 379.548 66.387 L 378.423 66.62 L 377.18 66.834 L 376.428 67.034 L 375.296 67.265 L 374.05 67.479 L 373.289 67.678 L 372.149 67.909 L 370.9 68.121 L 370.128 68.32 L 368.981 68.55 L 367.73 68.762 L 366.947 68.96 L 365.792 69.189 L 364.538 69.4 L 363.745 69.597 L 362.582 69.826 L 361.326 70.036 L 361.325 70.148 L 359.441 70.408 L 358.628 70.605 L 357.453 70.833 L 356.194 71.041 L 355.37 71.237 L 354.109 71.445 L 353.278 71.641 L 352.015 71.848 L 351.177 72.044 L 349.984 72.27 L 349.499 72.39 L 348.049 72.638 L 346.785 72.844 L 345.926 73.039 L 344.66 73.244 L 343.794 73.439 L 342.526 73.643 L 341.653 73.837 L 340.382 74.041 L 340.267 74.153 L 338.414 74.406 L 337.525 74.6 L 336.253 74.803 L 335.356 74.997 L 334.083 75.199 L 333.138 75.371 L 332.984 75.483 L 331.141 75.734 L 330.225 75.927 L 328.948 76.128 L 328.025 76.321 L 326.747 76.522 L 325.788 76.692 L 325.594 76.804 L 323.761 77.053 L 322.797 77.223 L 321.852 77.415 L 320.569 77.614 L 319.617 77.806 L 319.057 77.923 L 317.548 78.142 L 316.583 78.334 L 315.297 78.532 L 314.317 78.7 L 314.058 78.812 L 312.244 79.057 L 311.258 79.225 L 310.271 79.417 L 308.98 79.613 L 307.989 79.781 L 307.696 79.893 L 305.89 80.136 L 304.893 80.303 L 303.894 80.47 L 303.577 80.583 L 301.778 80.824 L 300.774 80.99 L 299.768 81.156 L 298.739 81.347 L 298.128 81.462 L 296.623 81.675 L 295.609 81.841 L 294.565 82.031 L 293.263 82.224 L 292.924 82.312 L 291.418 82.523 L 290.358 82.713 L 289.053 82.905 L 288.698 82.993 L 287.194 83.203 L 286.163 83.367 L 285.084 83.557 L 284.438 83.671 L 282.937 83.88 L 281.898 84.044 L 280.857 84.208 L 280.474 84.295 L 278.91 84.53 L 277.599 84.719 L 276.55 84.882 L 276.15 84.97 L 274.647 85.177 L 273.593 85.339 L 272.537 85.502 L 272.05 85.619 L 270.292 85.848 L 269.229 86.011 L 268.802 86.098 L 267.301 86.303 L 266.234 86.465 L 265.164 86.626 L 264.725 86.715 L 263.222 86.918 L 262.147 87.079 L 261.601 87.198 L 259.858 87.424 L 258.776 87.585 L 257.693 87.745 L 257.225 87.834 L 255.725 88.036 L 254.636 88.196 L 254.158 88.284 L 252.657 88.485 L 251.563 88.645 L 251.074 88.734 L 249.574 88.934 L 248.473 89.094 L 247.974 89.183 L 246.473 89.382 L 245.367 89.541 L 244.857 89.63 L 243.357 89.829 L 242.245 89.987 L 241.724 90.077 L 240.223 90.274 L 239.106 90.433 L 238.574 90.523 L 237.074 90.719 L 235.95 90.878 L 235.407 90.967 L 233.907 91.164 L 232.778 91.321 L 232.223 91.411 L 230.723 91.607 L 229.589 91.764 L 229.022 91.855 L 227.523 92.049 L 226.382 92.206 L 225.804 92.297 L 224.305 92.491 L 223.212 92.625 L 222.939 92.683 L 221.434 92.876 L 220.283 93.033 L 219.689 93.124 L 218.185 93.316 L 217.58 93.407 L 216.08 93.599 L 214.918 93.755 L 214.301 93.846 L 212.879 94.013 L 212.004 94.138 L 211.384 94.23 L 209.878 94.42 L 209.246 94.511 L 207.744 94.701 L 206.567 94.857 L 205.923 94.949 L 204.516 95.112 L 204.15 95.174 L 202.645 95.363 L 201.459 95.518 L 200.8 95.61 L 199.296 95.798 L 198.104 95.953 L 197.505 96.022 L 196.311 96.177 L 195.636 96.27 L 194.13 96.457 L 193.443 96.55 L 192.062 96.708 L 191.121 96.834 L 190.43 96.927 L 188.922 97.113 L 188.219 97.206 L 186.846 97.363 L 185.889 97.489 L 185.182 97.583 L 183.672 97.767 L 182.953 97.861 L 181.588 98.016 L 181.118 98.082 L 179.608 98.266 L 178.38 98.42 L 177.644 98.514 L 176.288 98.666 L 175.795 98.734 L 174.283 98.917 L 173.533 99.012 L 172.187 99.163 L 171.184 99.29 L 170.429 99.385 L 168.916 99.566 L 168.29 99.633 L 167.043 99.785 L 166.272 99.881 L 164.934 100.029 L 164.391 100.1 L 162.876 100.28 L 161.618 100.432 L 160.985 100.498 L 159.725 100.65 L 158.934 100.746 L 157.603 100.892 L 157.033 100.964 L 155.513 101.143 L 154.706 101.239 L 153.388 101.384 L 152.793 101.456 L 151.274 101.634 L 150.633 101.7 L 149.354 101.851 L 148.527 101.948 L 147.219 102.09 L 146.142 102.219 L 145.31 102.316 L 143.999 102.457 L 143.372 102.532 L 141.846 102.708 L 141.195 102.773 L 139.899 102.924 L 139.047 103.021 L 137.748 103.161 L 137.092 103.237 L 135.565 103.412 L 134.909 103.476 L 133.601 103.626 L 132.729 103.725 L 131.441 103.862 L 130.757 103.939 L 129.467 104.076 L 128.78 104.153 L 127.247 104.327 L 126.584 104.39 L 125.262 104.54 L 124.365 104.64 L 123.088 104.774 L 122.37 104.853 L 121.092 104.987 L 120.37 105.066 L 118.834 105.238 L 118.163 105.301 L 116.825 105.451 L 116.153 105.514 L 114.811 105.663 L 113.886 105.763 L 112.619 105.895 L 111.863 105.976 L 110.995 106.059 L 109.645 106.208 L 108.7 106.309 L 107.448 106.438 L 106.663 106.521 L 105.41 106.65 L 104.62 106.732 L 103.366 106.861 L 102.572 106.944 L 101.317 107.071 L 100.519 107.155 L 98.971 107.323 L 98.282 107.385 L 96.909 107.534 L 96.219 107.595 L 95.239 107.697 L 93.999 107.822 L 93.165 107.907 L 91.925 108.032 L 91.087 108.117 L 89.845 108.242 L 89.003 108.327 L 87.448 108.494 L 86.749 108.555 L 85.355 108.704 L 84.654 108.764 L 83.641 108.867 L 82.415 108.989 L 81.537 109.076 L 80.311 109.198 L 79.427 109.285 L 78.2 109.406 L 77.311 109.494 L 76.454 109.571 L 75.042 109.719 L 74.332 109.779 L 72.916 109.928 L 72.204 109.988 L 70.784 110.136 L 70.071 110.196 L 69.017 110.299 L 67.807 110.417 L 66.874 110.507 L 65.663 110.625 L 64.725 110.715 L 63.514 110.832 L 62.918 110.878 L 61.849 110.982 L 60.638 111.098 L 59.687 111.189 L 58.475 111.305 L 57.519 111.396 L 56.663 111.47 L 55.215 111.618 L 54.488 111.677 L 53.037 111.824 L 52.307 111.883 L 50.853 112.031 L 50.121 112.089 L 49.39 112.148 L 47.93 112.296 L 47.196 112.354 L 45.733 112.502 L 44.997 112.56 L 43.879 112.666 L 42.687 112.778 L 42.054 112.824 L 40.581 112.971 L 39.841 113.029 L 38.711 113.135 L 37.52 113.246 L 36.487 113.341 L 35.634 113.411 L 34.552 113.509 L 33.512 113.604 L 32.321 113.714 L 31.274 113.809 L 30.42 113.879 L 29.335 113.976 L 28.28 114.072 L 27.09 114.181 L 26.029 114.276 L 25.173 114.346 L 24.086 114.442 L 23.016 114.538 L 22.16 114.607 L 20.652 114.754 L 19.894 114.811 L 18.805 114.907 L 17.72 115.004 L 16.863 115.072 L 15.345 115.219 L 14.583 115.276 L 13.82 115.333 L 12.298 115.479 L 11.533 115.536 L 10.767 115.593 L 9.24 115.74 L 8.472 115.796 L 6.94 115.943 L 6.17 115.999 L 5.4 116.056 L 3.863 116.202 L 3.09 116.259 L 2.318 116.315 L 0.775 116.462 L 0 116.518 L 9.057 195.489 L 9.832 195.446 L 11.375 195.313 L 12.148 195.27 L 12.921 195.228 L 14.459 195.094 L 15.23 195.051 L 16.001 195.008 L 17.534 194.875 L 18.303 194.832 L 19.833 194.699 L 20.6 194.655 L 21.367 194.612 L 22.893 194.479 L 23.657 194.435 L 24.422 194.392 L 25.943 194.259 L 26.705 194.215 L 27.746 194.138 L 28.984 194.038 L 29.744 193.994 L 31.257 193.861 L 32.016 193.817 L 33.049 193.739 L 34.283 193.639 L 35.039 193.596 L 36.069 193.518 L 37.299 193.418 L 38.326 193.34 L 39.554 193.24 L 40.306 193.196 L 41.329 193.118 L 42.555 193.017 L 43.575 192.939 L 44.798 192.839 L 45.546 192.795 L 46.563 192.717 L 47.783 192.616 L 48.796 192.538 L 49.542 192.493 L 51.025 192.359 L 51.769 192.314 L 52.984 192.213 L 53.991 192.135 L 54.732 192.09 L 56.208 191.956 L 56.948 191.911 L 58.421 191.776 L 59.159 191.731 L 59.896 191.685 L 61.364 191.551 L 62.1 191.506 L 63.565 191.371 L 64.299 191.326 L 65.761 191.191 L 66.494 191.145 L 67.483 191.066 L 68.683 190.965 L 69.67 190.886 L 70.868 190.784 L 71.852 190.705 L 72.58 190.659 L 73.775 190.557 L 74.755 190.478 L 75.948 190.376 L 76.926 190.297 L 78.116 190.194 L 79.091 190.115 L 79.814 190.068 L 81.252 189.933 L 81.973 189.887 L 83.408 189.752 L 84.127 189.705 L 85.559 189.569 L 86.277 189.522 L 87.242 189.442 L 88.422 189.34 L 89.384 189.26 L 90.562 189.157 L 91.521 189.077 L 92.697 188.974 L 93.654 188.894 L 94.365 188.846 L 95.782 188.711 L 96.492 188.663 L 97.905 188.527 L 98.855 188.447 L 100.023 188.343 L 100.971 188.263 L 102.137 188.159 L 103.082 188.079 L 104.246 187.975 L 105.188 187.894 L 105.891 187.846 L 107.29 187.71 L 107.991 187.661 L 109.387 187.525 L 110.322 187.444 L 111.479 187.34 L 112.412 187.258 L 113.566 187.154 L 114.497 187.073 L 115.649 186.968 L 116.577 186.887 L 117.728 186.782 L 118.653 186.701 L 120.033 186.564 L 120.724 186.514 L 121.646 186.433 L 122.791 186.327 L 123.71 186.246 L 125.082 186.109 L 125.769 186.059 L 127.138 185.921 L 127.824 185.871 L 129.189 185.734 L 130.1 185.652 L 131.236 185.546 L 132.145 185.464 L 133.279 185.358 L 134.185 185.275 L 135.541 185.138 L 136.22 185.086 L 137.573 184.949 L 138.474 184.866 L 139.601 184.759 L 140.499 184.677 L 141.624 184.57 L 142.52 184.487 L 143.863 184.349 L 144.536 184.297 L 145.877 184.159 L 146.767 184.075 L 147.885 183.968 L 148.773 183.885 L 150.107 183.746 L 150.775 183.693 L 152.106 183.555 L 152.988 183.471 L 154.1 183.363 L 154.98 183.279 L 156.304 183.14 L 157.413 183.032 L 158.289 182.948 L 159.608 182.809 L 160.269 182.755 L 161.585 182.616 L 162.456 182.531 L 163.558 182.422 L 164.426 182.338 L 165.736 182.198 L 166.602 182.113 L 167.699 182.004 L 168.562 181.919 L 169.866 181.779 L 170.518 181.724 L 171.819 181.584 L 173.117 181.443 L 173.974 181.358 L 175.063 181.248 L 175.918 181.163 L 177.209 181.022 L 177.857 180.966 L 179.146 180.825 L 179.995 180.74 L 181.281 180.598 L 182.362 180.487 L 183.207 180.401 L 184.488 180.26 L 185.331 180.173 L 186.407 180.062 L 187.248 179.975 L 188.522 179.833 L 189.795 179.691 L 190.631 179.604 L 191.702 179.492 L 192.536 179.405 L 193.802 179.263 L 194.634 179.176 L 195.897 179.033 L 196.961 178.92 L 197.789 178.833 L 199.047 178.69 L 199.872 178.602 L 201.127 178.459 L 202.186 178.345 L 203.007 178.257 L 204.257 178.114 L 205.076 178.025 L 206.323 177.881 L 206.947 177.823 L 208.191 177.679 L 209.432 177.535 L 210.245 177.446 L 211.484 177.301 L 212.72 177.157 L 213.529 177.067 L 214.573 176.952 L 215.38 176.863 L 216.61 176.718 L 217.839 176.573 L 218.641 176.483 L 219.867 176.337 L 220.666 176.247 L 221.889 176.102 L 222.924 175.985 L 223.72 175.895 L 224.937 175.749 L 226.153 175.602 L 226.945 175.512 L 228.157 175.365 L 228.947 175.274 L 230.156 175.127 L 231.364 174.98 L 232.149 174.889 L 233.173 174.771 L 234.375 174.624 L 235.158 174.532 L 236.357 174.384 L 237.555 174.236 L 238.333 174.144 L 239.527 173.996 L 240.72 173.848 L 241.495 173.755 L 242.684 173.606 L 243.872 173.457 L 244.642 173.365 L 245.827 173.215 L 247.009 173.066 L 247.776 172.973 L 248.956 172.823 L 250.133 172.673 L 250.897 172.58 L 252.071 172.429 L 253.244 172.279 L 254.003 172.185 L 255.173 172.034 L 256.34 171.883 L 257.096 171.789 L 258.261 171.638 L 259.423 171.486 L 260.175 171.391 L 261.335 171.24 L 262.493 171.088 L 263.241 170.992 L 264.396 170.84 L 265.549 170.687 L 266.294 170.591 L 267.443 170.439 L 268.591 170.286 L 269.738 170.132 L 270.644 170.007 L 271.787 169.853 L 272.928 169.7 L 273.664 169.603 L 274.802 169.448 L 275.938 169.294 L 277.072 169.14 L 277.803 169.042 L 278.935 168.887 L 280.064 168.732 L 280.954 168.605 L 282.08 168.449 L 283.205 168.293 L 284.327 168.138 L 285.05 168.038 L 286.169 167.882 L 287.287 167.726 L 288.563 167.54 L 289.28 167.44 L 290.393 167.283 L 291.504 167.126 L 292.613 166.968 L 293.326 166.868 L 294.589 166.681 L 295.694 166.523 L 296.796 166.364 L 297.504 166.263 L 298.603 166.104 L 299.856 165.916 L 300.952 165.757 L 301.654 165.655 L 302.747 165.495 L 303.992 165.306 L 305.081 165.146 L 306.168 164.985 L 306.864 164.882 L 308.101 164.693 L 309.183 164.532 L 310.264 164.37 L 311.343 164.208 L 312.184 164.076 L 313.26 163.913 L 314.334 163.751 L 315.406 163.588 L 316.241 163.455 L 317.31 163.291 L 318.377 163.128 L 319.591 162.936 L 320.654 162.772 L 321.716 162.607 L 322.542 162.472 L 323.601 162.308 L 324.658 162.142 L 325.859 161.949 L 326.912 161.783 L 327.584 161.676 L 328.779 161.481 L 329.828 161.315 L 331.019 161.12 L 332.064 160.952 L 333.107 160.785 L 333.915 160.648 L 334.955 160.48 L 335.993 160.312 L 337.172 160.115 L 338.207 159.946 L 339.381 159.749 L 340.412 159.579 L 341.21 159.44 L 342.238 159.27 L 343.264 159.1 L 344.428 158.901 L 345.451 158.73 L 346.611 158.531 L 347.63 158.359 L 348.417 158.219 L 349.433 158.047 L 350.585 157.846 L 351.598 157.673 L 352.746 157.472 L 353.755 157.298 L 354.898 157.096 L 355.904 156.922 L 357.043 156.72 L 357.68 156.605 L 358.816 156.401 L 359.949 156.198 L 360.946 156.022 L 362.076 155.818 L 363.069 155.641 L 364.194 155.436 L 365.185 155.259 L 366.306 155.054 L 367.424 154.847 L 368.409 154.669 L 369.165 154.523 L 370.147 154.344 L 371.258 154.137 L 372.367 153.929 L 373.344 153.749 L 374.449 153.54 L 375.551 153.331 L 376.523 153.15 L 377.621 152.94 L 378.718 152.73 L 379.684 152.548 L 380.776 152.337 L 381.867 152.126 L 382.827 151.942 L 383.914 151.73 L 384.998 151.518 L 385.954 151.333 L 387.034 151.12 L 388.112 150.906 L 389.188 150.692 L 390.137 150.505 L 391.209 150.29 L 392.279 150.075 L 393.001 149.921 L 394.067 149.705 L 395.007 149.517 L 396.07 149.299 L 397.13 149.082 L 398.189 148.864 L 399.245 148.646 L 400.521 148.393 L 401.573 148.174 L 402.623 147.954 L 403.67 147.734 L 404.716 147.513 L 405.76 147.292 L 406.681 147.099 L 407.721 146.876 L 408.759 146.654 L 409.795 146.431 L 410.829 146.207 L 411.861 145.983 L 412.891 145.759 L 413.919 145.534 L 414.945 145.308 L 415.969 145.082 L 416.991 144.856 L 418.011 144.629 L 419.029 144.402 L 420.045 144.174 L 421.059 143.945 L 422.072 143.716 L 423.413 143.423 L 424.421 143.193 L 425.427 142.962 L 426.431 142.731 L 427.433 142.499 L 428.433 142.267 L 429.431 142.034 L 430.427 141.801 L 431.422 141.567 L 432.415 141.333 L 433.73 141.033 L 434.718 140.798 L 435.705 140.561 L 436.689 140.325 L 437.672 140.087 L 438.653 139.849 L 439.745 139.582 L 440.722 139.343 L 442.017 139.038 L 442.99 138.798 L 443.961 138.557 L 444.93 138.315 L 446.009 138.044 L 446.975 137.801 L 447.938 137.558 L 449.216 137.248 L 450.175 137.004 L 451.243 136.729 L 452.199 136.483 L 453.153 136.237 L 454.418 135.923 L 455.477 135.646 L 456.425 135.397 L 457.372 135.148 L 458.316 134.898 L 459.677 134.552 L 460.617 134.3 L 461.555 134.049 L 462.601 133.766 L 463.536 133.513 L 464.775 133.192 L 465.814 132.907 L 466.744 132.652 L 467.671 132.396 L 469.008 132.042 L 469.931 131.784 L 470.853 131.526 L 471.88 131.237 L 473.1 130.909 L 474.123 130.619 L 475.037 130.357 L 476.056 130.065 L 477.266 129.734 L 478.175 129.471 L 479.188 129.176 L 480.094 128.911 L 481.398 128.546 L 482.3 128.279 L 483.306 127.981 L 484.498 127.644 L 485.499 127.344 L 486.394 127.074 L 487.683 126.704 L 488.574 126.432 L 489.568 126.129 L 490.746 125.786 L 491.736 125.481 L 492.724 125.175 L 493.895 124.829 L 494.879 124.521 L 495.758 124.244 L 497.024 123.864 L 497.9 123.585 L 498.877 123.273 L 500.136 122.891 L 501.006 122.609 L 501.978 122.294 L 503.229 121.908 L 504.095 121.623 L 505.341 121.235 L 506.305 120.917 L 507.166 120.629 L 508.405 120.238 L 509.364 119.916 L 510.497 119.554 L 511.453 119.231 L 512.682 118.834 L 513.532 118.541 L 514.484 118.214 L 515.706 117.815 L 516.551 117.518 L 517.769 117.116 L 518.713 116.785 L 519.926 116.38 L 520.765 116.08 L 521.973 115.673 L 522.911 115.337 L 524.114 114.928 L 525.049 114.59 L 526.147 114.211 L 527.079 113.871 L 528.273 113.456 L 529.201 113.113 L 530.391 112.696 L 531.215 112.385 L 532.4 111.964 L 533.323 111.617 L 534.504 111.195 L 535.423 110.845 L 536.6 110.42 L 537.415 110.101 L 538.587 109.673 L 539.757 109.243 L 540.67 108.887 L 541.835 108.455 L 542.745 108.096 L 543.907 107.661 L 544.712 107.334 L 545.869 106.895 L 547.025 106.455 L 547.928 106.09 L 549.079 105.648 L 550.228 105.203 L 551.127 104.834 L 552.272 104.386 L 553.169 104.014 L 554.311 103.564 L 555.348 103.146 L 556.241 102.77 L 557.377 102.315 L 558.51 101.858 L 559.4 101.477 L 560.529 101.017 L 561.657 100.555 L 562.782 100.091 L 563.667 99.705 L 564.789 99.238 L 565.909 98.769 L 566.791 98.378 L 567.908 97.906 L 569.023 97.432 L 570.136 96.956 L 571.013 96.558 L 572.019 96.115 L 573.127 95.634 L 574.232 95.151 L 575.336 94.666 L 576.209 94.261 L 577.31 93.772 L 578.409 93.282 L 579.506 92.79 L 580.601 92.296 L 581.469 91.882 L 582.562 91.384 L 583.653 90.884 L 584.742 90.382 L 585.83 89.878 L 586.915 89.372 L 587.999 88.864 L 589.082 88.354 L 589.944 87.926 L 591.024 87.412 L 591.995 86.933 L 593.072 86.415 L 594.147 85.895 L 595.221 85.373 L 596.293 84.848 L 596.248 84.114 L 596.203 83.378 L 596.158 82.639 L 596.113 81.898 L 596.069 81.155 L 596.025 80.41 L 595.981 79.662 L 595.937 78.912 L 595.894 78.16 L 595.85 77.406 L 595.808 76.649 L 595.765 75.891 L 595.723 75.13 L 595.681 74.366 L 595.639 73.601 L 595.597 72.833 L 595.556 72.063 L 595.515 71.29 L 595.474 70.515 L 595.433 69.738 L 595.408 69.253 L 599.129 69.72 L 598.73 61.677 L 595.074 62.51 L 591.414 63.327 L 590.961 53.265 L 594.679 53.75 L 598.396 54.25 L 598.036 45.416 L 594.373 46.217 L 590.707 47.006 L 590.427 39.524 L 594.142 40.037 L 597.855 40.562 L 597.531 31.01 L 593.862 31.786 L 590.191 32.55 L 589.941 24.424 L 593.652 24.962 L 597.362 25.51 L 597.127 17.079 L 593.454 17.833 L 593.409 16.093 L 593.385 15.166 L 593.361 14.236 L 593.338 13.304 L 593.315 12.369 L 593.292 11.432 L 593.27 10.493 L 593.248 9.551 L 593.226 8.607 L 593.204 7.66 L 593.182 6.711 L 593.161 5.76 L 593.14 4.806 L 593.12 3.85 L 593.099 2.891 L 593.079 1.93 L 593.059 0.966 L 593.04 0 Z" vector-effect="non-scaling-stroke"/><path d="M 517.863 29.974 L 517.902 30.972 L 517.94 31.967 L 517.979 32.96 L 518.018 33.949 L 518.058 34.935 L 518.097 35.918 L 518.137 36.898 L 518.177 37.875 L 518.217 38.849 L 518.257 39.82 L 518.298 40.787 L 518.339 41.752 L 518.38 42.714 L 518.421 43.673 L 518.463 44.629 L 518.505 45.582 L 518.547 46.531 L 518.589 47.478 L 518.632 48.422 L 518.674 49.363 L 518.717 50.301 L 518.761 51.236 L 518.804 52.168 L 518.848 53.097 L 518.892 54.022 L 518.936 54.945 L 518.981 55.865 L 519.025 56.783 L 519.07 57.697 L 519.115 58.608 L 519.161 59.516 L 519.206 60.421 L 519.252 61.323 L 519.298 62.223 L 519.345 63.119 L 519.392 64.013 L 519.438 64.903 L 519.486 65.791 L 519.533 66.676 L 519.581 67.558 L 519.628 68.437 L 519.677 69.313 L 519.725 70.186 L 519.774 71.056 L 519.822 71.923 L 519.872 72.788 L 519.921 73.649 L 519.971 74.508 L 520.021 75.364 L 520.071 76.217 L 520.121 77.067 L 520.172 77.914 L 520.223 78.759 L 520.274 79.6 L 520.325 80.439 L 520.377 81.275 L 520.429 82.108 L 520.481 82.938 L 520.533 83.766 L 520.586 84.59 L 520.639 85.412 L 520.692 86.231 L 520.746 87.048 L 520.799 87.861 L 520.853 88.672 L 520.908 89.479 L 520.962 90.285 L 521.017 91.087 L 521.072 91.886 L 521.127 92.683 L 521.183 93.477 L 521.239 94.269 L 521.295 95.057 L 521.351 95.843 L 521.408 96.626 L 521.465 97.406 L 521.522 98.184 L 521.579 98.959 L 521.637 99.731 L 521.695 100.501 L 521.753 101.268 L 521.812 102.032 L 521.871 102.794 L 521.93 103.552 L 521.989 104.309 L 522.048 105.062 L 522.108 105.813 L 522.168 106.561 L 522.229 107.307 L 522.289 108.05 L 522.35 108.79 L 522.412 109.528 L 522.473 110.263 L 522.535 110.996 L 522.597 111.726 L 522.659 112.453 L 522.722 113.178 L 522.784 113.9 L 522.848 114.62 L 522.911 115.337 M 257.693 87.745 L 257.79 88.758 L 257.887 89.767 L 257.983 90.771 L 258.079 91.772 L 258.175 92.768 L 258.27 93.76 L 258.365 94.748 L 258.46 95.732 L 258.555 96.712 L 258.649 97.688 L 258.744 98.66 L 258.837 99.628 L 258.931 100.592 L 259.024 101.551 L 259.118 102.507 L 259.21 103.459 L 259.303 104.407 L 259.395 105.351 L 259.487 106.291 L 259.579 107.227 L 259.671 108.159 L 259.762 109.087 L 259.853 110.011 L 259.944 110.931 L 260.035 111.848 L 260.125 112.76 L 260.215 113.669 L 260.305 114.573 L 260.395 115.474 L 260.484 116.371 L 260.573 117.265 L 260.662 118.154 L 260.751 119.04 L 260.84 119.922 L 260.928 120.8 L 261.016 121.674 L 261.104 122.545 L 261.192 123.412 L 261.279 124.275 L 261.366 125.134 L 261.453 125.99 L 261.54 126.842 L 261.626 127.691 L 261.713 128.536 L 261.799 129.377 L 261.885 130.214 L 261.971 131.048 L 262.056 131.879 L 262.142 132.706 L 262.227 133.529 L 262.312 134.349 L 262.397 135.165 L 262.481 135.978 L 262.566 136.787 L 262.65 137.593 L 262.734 138.395 L 262.818 139.194 L 262.902 139.99 L 262.985 140.782 L 263.069 141.57 L 263.152 142.356 L 263.235 143.138 L 263.318 143.917 L 263.4 144.692 L 263.483 145.464 L 263.565 146.233 L 263.648 146.999 L 263.73 147.761 L 263.812 148.52 L 263.894 149.276 L 263.975 150.029 L 264.057 150.779 L 264.138 151.525 L 264.219 152.269 L 264.3 153.009 L 264.381 153.747 L 264.462 154.481 L 264.543 155.213 L 264.624 155.941 L 264.704 156.666 L 264.785 157.389 L 264.865 158.108 L 264.945 158.825 L 265.025 159.539 L 265.105 160.25 L 265.185 160.958 L 265.265 161.663 L 265.344 162.366 L 265.424 163.066 L 265.503 163.763 L 265.583 164.457 L 265.662 165.149 L 265.741 165.838 L 265.82 166.525 L 265.899 167.209 L 265.978 167.89 L 266.057 168.569 L 266.136 169.246 L 266.215 169.92 L 266.294 170.591 M 0 116.518 L 0.109 117.481 L 0.217 118.441 L 0.325 119.397 L 0.433 120.349 L 0.54 121.297 L 0.647 122.242 L 0.753 123.182 L 0.859 124.119 L 0.965 125.051 L 1.07 125.98 L 1.175 126.905 L 1.279 127.827 L 1.383 128.744 L 1.486 129.658 L 1.59 130.568 L 1.692 131.474 L 1.795 132.377 L 1.897 133.275 L 1.998 134.17 L 2.099 135.062 L 2.2 135.949 L 2.3 136.833 L 2.4 137.713 L 2.5 138.59 L 2.599 139.462 L 2.698 140.331 L 2.796 141.197 L 2.894 142.059 L 2.992 142.917 L 3.089 143.771 L 3.186 144.622 L 3.283 145.47 L 3.379 146.314 L 3.474 147.154 L 3.57 147.991 L 3.665 148.824 L 3.759 149.653 L 3.854 150.479 L 3.948 151.302 L 4.041 152.121 L 4.134 152.937 L 4.227 153.749 L 4.32 154.557 L 4.412 155.363 L 4.503 156.164 L 4.595 156.963 L 4.686 157.758 L 4.776 158.55 L 4.867 159.338 L 4.957 160.123 L 5.046 160.904 L 5.136 161.683 L 5.225 162.458 L 5.313 163.229 L 5.401 163.998 L 5.489 164.763 L 5.577 165.525 L 5.664 166.283 L 5.751 167.039 L 5.838 167.791 L 5.924 168.54 L 6.01 169.286 L 6.096 170.029 L 6.181 170.769 L 6.266 171.505 L 6.35 172.239 L 6.435 172.969 L 6.519 173.696 L 6.603 174.421 L 6.686 175.142 L 6.769 175.861 L 6.852 176.576 L 6.934 177.288 L 7.017 177.998 L 7.098 178.704 L 7.18 179.408 L 7.261 180.109 L 7.342 180.807 L 7.423 181.502 L 7.504 182.194 L 7.584 182.884 L 7.664 183.571 L 7.743 184.255 L 7.823 184.936 L 7.902 185.615 L 7.98 186.291 L 8.059 186.964 L 8.137 187.635 L 8.215 188.303 L 8.293 188.969 L 8.371 189.632 L 8.448 190.292 L 8.525 190.95 L 8.602 191.606 L 8.678 192.259 L 8.754 192.91 L 8.83 193.558 L 8.906 194.204 L 8.982 194.848 L 9.057 195.489" id="blue" stroke="blue" style="stroke:blue" vector-effect="non-scaling-stroke"/><g id="captions"><text alignment-baseline="middle" text-anchor="middle" transform="rotate(0,298.656,123.763)" x="298.656" y="123.763">WIND, 2, 1</text></g></g></svg>