<svg width="22.167" height="43.367" viewBox="0 0 22.167 43.367" xmlns="http://www.w3.org/2000/svg"><g id="svgGroup" stroke-linecap="round" fill-rule="evenodd" font-size="9pt" stroke="#000" stroke-width="0.25mm" fill="none" style="stroke:#000;stroke-width:0.25mm;fill:none"><path d="M 21.354 0 L 20.31 0.065 L 19.265 0.129 L 18.22 0.193 L 17.175 0.258 L 16.131 0.322 L 15.086 0.386 L 14.041 0.45 L 12.996 0.514 L 11.952 0.578 L 10.907 0.641 L 9.862 0.705 L 8.817 0.769 L 7.772 0.832 L 6.728 0.895 L 5.683 0.959 L 4.638 1.022 L 3.593 1.085 L 2.548 1.148 L 1.504 1.211 L 2.207 1.156 L 0.364 43.367 L 2.463 17.755 L 3.5 17.562 L 4.538 17.368 L 5.575 17.174 L 6.612 16.98 L 7.649 16.786 L 8.686 16.592 L 9.723 16.398 L 10.76 16.204 L 11.797 16.01 L 12.834 15.816 L 13.871 15.622 L 14.908 15.428 L 15.945 15.234 L 16.982 15.04 L 18.019 14.846 L 19.056 14.651 L 20.093 14.457 L 21.13 14.263 L 22.167 14.068 L 22.167 14.055 L 22.166 14.041 L 22.165 14.028 L 22.164 14.014 L 22.163 14.001 L 22.163 13.987 L 22.162 13.974 L 22.161 13.96 L 22.16 13.946 L 22.159 13.933 L 22.159 13.919 L 22.158 13.906 L 22.157 13.892 L 22.156 13.879 L 22.155 13.865 L 22.155 13.852 L 22.154 13.838 L 22.153 13.825 L 22.152 13.811 L 22.152 13.798 L 22.151 13.784 L 22.15 13.77 L 22.149 13.757 L 22.148 13.743 L 22.148 13.73 L 22.147 13.716 L 22.146 13.703 L 22.145 13.689 L 22.144 13.676 L 22.144 13.662 L 22.143 13.648 L 22.142 13.635 L 22.141 13.621 L 22.14 13.608 L 22.14 13.594 L 22.139 13.581 L 22.138 13.567 L 22.137 13.554 L 22.136 13.54 L 22.136 13.526 L 22.135 13.513 L 22.134 13.499 L 22.133 13.486 L 22.133 13.472 L 22.132 13.459 L 22.131 13.445 L 22.13 13.431 L 22.129 13.418 L 22.129 13.404 L 22.128 13.391 L 22.127 13.377 L 22.126 13.363 L 22.125 13.35 L 22.125 13.336 L 22.124 13.323 L 22.123 13.309 L 22.122 13.296 L 22.121 13.282 L 22.121 13.268 L 22.12 13.255 L 22.119 13.241 L 22.118 13.228 L 22.117 13.214 L 22.117 13.2 L 22.116 13.187 L 22.115 13.173 L 22.114 13.16 L 22.113 13.146 L 22.113 13.132 L 22.112 13.119 L 22.111 13.105 L 22.11 13.092 L 22.109 13.078 L 22.109 13.064 L 22.108 13.051 L 22.107 13.037 L 22.106 13.024 L 22.106 13.01 L 22.105 12.996 L 22.104 12.983 L 22.103 12.969 L 22.102 12.956 L 22.102 12.942 L 22.101 12.928 L 22.1 12.915 L 22.099 12.901 L 22.098 12.887 L 22.098 12.874 L 22.097 12.86 L 22.096 12.847 L 22.095 12.833 L 22.094 12.819 L 22.094 12.806 L 22.093 12.792 L 22.092 12.779 L 22.091 12.765 L 22.09 12.751 L 22.09 12.738 L 22.089 12.724 L 22.088 12.71 L 22.087 12.697 L 22.086 12.683 L 22.086 12.669 L 22.085 12.656 L 22.084 12.642 L 22.083 12.629 L 22.082 12.615 L 22.082 12.601 L 22.081 12.588 L 22.08 12.574 L 22.079 12.56 L 22.078 12.547 L 22.078 12.533 L 22.077 12.519 L 22.076 12.506 L 22.075 12.492 L 22.075 12.478 L 22.074 12.465 L 22.073 12.451 L 22.072 12.438 L 22.071 12.424 L 22.071 12.41 L 22.07 12.397 L 22.069 12.383 L 22.068 12.369 L 22.067 12.356 L 22.067 12.342 L 22.066 12.328 L 22.065 12.315 L 22.064 12.301 L 22.063 12.287 L 22.063 12.274 L 22.062 12.26 L 22.061 12.246 L 22.06 12.233 L 22.059 12.219 L 22.059 12.205 L 22.058 12.192 L 22.057 12.178 L 22.056 12.164 L 22.055 12.151 L 22.055 12.137 L 22.054 12.123 L 22.053 12.11 L 22.052 12.096 L 22.051 12.082 L 22.051 12.068 L 22.05 12.055 L 22.049 12.041 L 22.048 12.027 L 22.047 12.014 L 22.047 12 L 22.046 11.986 L 22.045 11.973 L 22.044 11.959 L 22.043 11.945 L 22.043 11.932 L 22.042 11.918 L 22.041 11.904 L 22.04 11.891 L 22.039 11.877 L 22.039 11.863 L 22.038 11.849 L 22.037 11.836 L 22.036 11.822 L 22.035 11.808 L 22.035 11.795 L 22.034 11.781 L 22.033 11.767 L 22.032 11.753 L 22.031 11.74 L 22.031 11.726 L 22.03 11.712 L 22.029 11.699 L 22.028 11.685 L 22.027 11.671 L 22.027 11.657 L 22.026 11.644 L 22.025 11.63 L 22.024 11.616 L 22.023 11.603 L 22.023 11.589 L 22.022 11.575 L 22.021 11.561 L 22.02 11.548 L 22.019 11.534 L 22.019 11.52 L 22.018 11.507 L 22.017 11.493 L 22.016 11.479 L 22.015 11.465 L 22.015 11.452 L 22.014 11.438 L 22.013 11.424 L 22.012 11.41 L 22.011 11.397 L 22.011 11.383 L 22.01 11.369 L 22.009 11.355 L 22.008 11.342 L 22.007 11.328 L 22.007 11.314 L 22.006 11.301 L 22.005 11.287 L 22.004 11.273 L 22.003 11.259 L 22.003 11.246 L 22.002 11.232 L 22.001 11.218 L 22 11.204 L 21.999 11.191 L 21.999 11.177 L 21.998 11.163 L 21.997 11.149 L 21.996 11.136 L 21.995 11.122 L 21.995 11.108 L 21.994 11.094 L 21.993 11.08 L 21.992 11.067 L 21.991 11.053 L 21.991 11.039 L 21.99 11.025 L 21.989 11.012 L 21.988 10.998 L 21.987 10.984 L 21.987 10.97 L 21.986 10.957 L 21.985 10.943 L 21.984 10.929 L 21.983 10.915 L 21.983 10.901 L 21.982 10.888 L 21.981 10.874 L 21.98 10.86 L 21.979 10.846 L 21.979 10.833 L 21.978 10.819 L 21.977 10.805 L 21.976 10.791 L 21.975 10.777 L 21.975 10.764 L 21.974 10.75 L 21.973 10.736 L 21.972 10.722 L 21.971 10.709 L 21.971 10.695 L 21.97 10.681 L 21.969 10.667 L 21.968 10.653 L 21.967 10.64 L 21.967 10.626 L 21.966 10.612 L 21.965 10.598 L 21.964 10.584 L 21.963 10.571 L 21.963 10.557 L 21.962 10.543 L 21.961 10.529 L 21.96 10.515 L 21.959 10.502 L 21.959 10.488 L 21.958 10.474 L 21.957 10.46 L 21.956 10.446 L 21.955 10.432 L 21.955 10.419 L 21.954 10.405 L 21.953 10.391 L 21.952 10.377 L 21.951 10.363 L 21.951 10.35 L 21.95 10.336 L 21.949 10.322 L 21.948 10.308 L 21.947 10.294 L 21.947 10.28 L 21.946 10.267 L 21.945 10.253 L 21.944 10.239 L 21.943 10.225 L 21.943 10.211 L 21.942 10.198 L 21.941 10.184 L 21.94 10.17 L 21.939 10.156 L 21.939 10.142 L 21.938 10.128 L 21.937 10.114 L 21.936 10.101 L 21.935 10.087 L 21.935 10.073 L 21.934 10.059 L 21.933 10.045 L 21.932 10.031 L 21.931 10.018 L 21.931 10.004 L 21.93 9.99 L 21.929 9.976 L 21.928 9.962 L 21.927 9.948 L 21.926 9.935 L 21.926 9.921 L 21.925 9.907 L 21.924 9.893 L 21.923 9.879 L 21.922 9.865 L 21.922 9.851 L 21.921 9.838 L 21.92 9.824 L 21.919 9.81 L 21.918 9.796 L 21.918 9.782 L 21.917 9.768 L 21.916 9.754 L 21.915 9.74 L 21.914 9.727 L 21.914 9.713 L 21.913 9.699 L 21.912 9.685 L 21.911 9.671 L 21.91 9.657 L 21.91 9.643 L 21.909 9.629 L 21.908 9.616 L 21.907 9.602 L 21.906 9.588 L 21.906 9.574 L 21.905 9.56 L 21.904 9.546 L 21.903 9.532 L 21.902 9.518 L 21.902 9.505 L 21.901 9.491 L 21.9 9.477 L 21.899 9.463 L 21.898 9.449 L 21.898 9.435 L 21.897 9.421 L 21.896 9.407 L 21.895 9.393 L 21.894 9.379 L 21.893 9.366 L 21.893 9.352 L 21.892 9.338 L 21.891 9.324 L 21.89 9.31 L 21.889 9.296 L 21.889 9.282 L 21.888 9.268 L 21.887 9.254 L 21.886 9.24 L 21.885 9.227 L 21.885 9.213 L 21.884 9.199 L 21.883 9.185 L 21.882 9.171 L 21.881 9.157 L 21.881 9.143 L 21.88 9.129 L 21.879 9.115 L 21.878 9.101 L 21.877 9.087 L 21.877 9.073 L 21.876 9.06 L 21.875 9.046 L 21.874 9.032 L 21.873 9.018 L 21.873 9.004 L 21.872 8.99 L 21.871 8.976 L 21.87 8.962 L 21.869 8.948 L 21.868 8.934 L 21.868 8.92 L 21.867 8.906 L 21.866 8.892 L 21.865 8.878 L 21.864 8.865 L 21.864 8.851 L 21.863 8.837 L 21.862 8.823 L 21.861 8.809 L 21.86 8.795 L 21.86 8.781 L 21.859 8.767 L 21.858 8.753 L 21.857 8.739 L 21.856 8.725 L 21.856 8.711 L 21.855 8.697 L 21.854 8.683 L 21.853 8.669 L 21.852 8.655 L 21.851 8.641 L 21.851 8.627 L 21.85 8.613 L 21.849 8.599 L 21.848 8.586 L 21.847 8.572 L 21.847 8.558 L 21.846 8.544 L 21.845 8.53 L 21.844 8.516 L 21.843 8.502 L 21.843 8.488 L 21.842 8.474 L 21.841 8.46 L 21.84 8.446 L 21.839 8.432 L 21.839 8.418 L 21.838 8.404 L 21.837 8.39 L 21.836 8.376 L 21.835 8.362 L 21.835 8.348 L 21.834 8.334 L 21.833 8.32 L 21.832 8.306 L 21.831 8.292 L 21.83 8.278 L 21.83 8.264 L 21.829 8.25 L 21.828 8.236 L 21.827 8.222 L 21.826 8.208 L 21.826 8.194 L 21.825 8.18 L 21.824 8.166 L 21.823 8.152 L 21.822 8.138 L 21.822 8.124 L 21.821 8.11 L 21.82 8.096 L 21.819 8.082 L 21.818 8.068 L 21.817 8.054 L 21.817 8.04 L 21.816 8.026 L 21.815 8.012 L 21.814 7.998 L 21.813 7.984 L 21.813 7.97 L 21.812 7.956 L 21.811 7.942 L 21.81 7.928 L 21.809 7.914 L 21.809 7.9 L 21.808 7.886 L 21.807 7.872 L 21.806 7.858 L 21.805 7.844 L 21.805 7.83 L 21.804 7.816 L 21.803 7.802 L 21.802 7.788 L 21.801 7.774 L 21.8 7.76 L 21.8 7.746 L 21.799 7.732 L 21.798 7.718 L 21.797 7.704 L 21.796 7.69 L 21.796 7.676 L 21.795 7.662 L 21.794 7.648 L 21.793 7.634 L 21.792 7.619 L 21.792 7.605 L 21.791 7.591 L 21.79 7.577 L 21.789 7.563 L 21.788 7.549 L 21.787 7.535 L 21.787 7.521 L 21.786 7.507 L 21.785 7.493 L 21.784 7.479 L 21.783 7.465 L 21.783 7.451 L 21.782 7.437 L 21.781 7.423 L 21.78 7.409 L 21.779 7.395 L 21.779 7.381 L 21.778 7.367 L 21.777 7.353 L 21.776 7.338 L 21.775 7.324 L 21.774 7.31 L 21.774 7.296 L 21.773 7.282 L 21.772 7.268 L 21.771 7.254 L 21.77 7.24 L 21.77 7.226 L 21.769 7.212 L 21.768 7.198 L 21.767 7.184 L 21.766 7.17 L 21.766 7.156 L 21.765 7.141 L 21.764 7.127 L 21.763 7.113 L 21.762 7.099 L 21.761 7.085 L 21.761 7.071 L 21.76 7.057 L 21.759 7.043 L 21.758 7.029 L 21.757 7.015 L 21.757 7.001 L 21.756 6.987 L 21.755 6.972 L 21.754 6.958 L 21.753 6.944 L 21.753 6.93 L 21.752 6.916 L 21.751 6.902 L 21.75 6.888 L 21.749 6.874 L 21.748 6.86 L 21.748 6.846 L 21.747 6.831 L 21.746 6.817 L 21.745 6.803 L 21.744 6.789 L 21.744 6.775 L 21.743 6.761 L 21.742 6.747 L 21.741 6.733 L 21.74 6.719 L 21.739 6.705 L 21.739 6.69 L 21.738 6.676 L 21.737 6.662 L 21.736 6.648 L 21.735 6.634 L 21.735 6.62 L 21.734 6.606 L 21.733 6.592 L 21.732 6.577 L 21.731 6.563 L 21.731 6.549 L 21.73 6.535 L 21.729 6.521 L 21.728 6.507 L 21.727 6.493 L 21.726 6.479 L 21.726 6.464 L 21.725 6.45 L 21.724 6.436 L 21.723 6.422 L 21.722 6.408 L 21.722 6.394 L 21.721 6.38 L 21.72 6.365 L 21.719 6.351 L 21.718 6.337 L 21.717 6.323 L 21.717 6.309 L 21.716 6.295 L 21.715 6.281 L 21.714 6.266 L 21.713 6.252 L 21.713 6.238 L 21.712 6.224 L 21.711 6.21 L 21.71 6.196 L 21.709 6.182 L 21.708 6.167 L 21.708 6.153 L 21.707 6.139 L 21.706 6.125 L 21.705 6.111 L 21.704 6.097 L 21.704 6.082 L 21.703 6.068 L 21.702 6.054 L 21.701 6.04 L 21.7 6.026 L 21.699 6.012 L 21.699 5.997 L 21.698 5.983 L 21.697 5.969 L 21.696 5.955 L 21.695 5.941 L 21.695 5.926 L 21.694 5.912 L 21.693 5.898 L 21.692 5.884 L 21.691 5.87 L 21.69 5.856 L 21.69 5.841 L 21.689 5.827 L 21.688 5.813 L 21.687 5.799 L 21.686 5.785 L 21.686 5.77 L 21.685 5.756 L 21.684 5.742 L 21.683 5.728 L 21.682 5.714 L 21.681 5.7 L 21.681 5.685 L 21.68 5.671 L 21.679 5.657 L 21.678 5.643 L 21.677 5.629 L 21.677 5.614 L 21.676 5.6 L 21.675 5.586 L 21.674 5.572 L 21.673 5.557 L 21.672 5.543 L 21.672 5.529 L 21.671 5.515 L 21.67 5.501 L 21.669 5.486 L 21.668 5.472 L 21.668 5.458 L 21.667 5.444 L 21.666 5.43 L 21.665 5.415 L 21.664 5.401 L 21.663 5.387 L 21.663 5.373 L 21.662 5.358 L 21.661 5.344 L 21.66 5.33 L 21.659 5.316 L 21.659 5.302 L 21.658 5.287 L 21.657 5.273 L 21.656 5.259 L 21.655 5.245 L 21.654 5.23 L 21.654 5.216 L 21.653 5.202 L 21.652 5.188 L 21.651 5.173 L 21.65 5.159 L 21.65 5.145 L 21.649 5.131 L 21.648 5.117 L 21.647 5.102 L 21.646 5.088 L 21.645 5.074 L 21.645 5.06 L 21.644 5.045 L 21.643 5.031 L 21.642 5.017 L 21.641 5.003 L 21.641 4.988 L 21.64 4.974 L 21.639 4.96 L 21.638 4.945 L 21.637 4.931 L 21.636 4.917 L 21.636 4.903 L 21.635 4.888 L 21.634 4.874 L 21.633 4.86 L 21.632 4.846 L 21.631 4.831 L 21.631 4.817 L 21.63 4.803 L 21.629 4.789 L 21.628 4.774 L 21.627 4.76 L 21.627 4.746 L 21.626 4.731 L 21.625 4.717 L 21.624 4.703 L 21.623 4.689 L 21.622 4.674 L 21.622 4.66 L 21.621 4.646 L 21.62 4.632 L 21.619 4.617 L 21.618 4.603 L 21.617 4.589 L 21.617 4.574 L 21.616 4.56 L 21.615 4.546 L 21.614 4.532 L 21.613 4.517 L 21.613 4.503 L 21.612 4.489 L 21.611 4.474 L 21.61 4.46 L 21.609 4.446 L 21.608 4.431 L 21.608 4.417 L 21.607 4.403 L 21.606 4.389 L 21.605 4.374 L 21.604 4.36 L 21.604 4.346 L 21.603 4.331 L 21.602 4.317 L 21.601 4.303 L 21.6 4.288 L 21.599 4.274 L 21.599 4.26 L 21.598 4.245 L 21.597 4.231 L 21.596 4.217 L 21.595 4.203 L 21.594 4.188 L 21.594 4.174 L 21.593 4.16 L 21.592 4.145 L 21.591 4.131 L 21.59 4.117 L 21.59 4.102 L 21.589 4.088 L 21.588 4.074 L 21.587 4.059 L 21.586 4.045 L 21.585 4.031 L 21.585 4.016 L 21.584 4.002 L 21.583 3.988 L 21.582 3.973 L 21.581 3.959 L 21.58 3.945 L 21.58 3.93 L 21.579 3.916 L 21.578 3.902 L 21.577 3.887 L 21.576 3.873 L 21.575 3.859 L 21.575 3.844 L 21.574 3.83 L 21.573 3.815 L 21.572 3.801 L 21.571 3.787 L 21.571 3.772 L 21.57 3.758 L 21.569 3.744 L 21.568 3.729 L 21.567 3.715 L 21.566 3.701 L 21.566 3.686 L 21.565 3.672 L 21.564 3.658 L 21.563 3.643 L 21.562 3.629 L 21.561 3.614 L 21.561 3.6 L 21.56 3.586 L 21.559 3.571 L 21.558 3.557 L 21.557 3.543 L 21.557 3.528 L 21.556 3.514 L 21.555 3.499 L 21.554 3.485 L 21.553 3.471 L 21.552 3.456 L 21.552 3.442 L 21.551 3.428 L 21.55 3.413 L 21.549 3.399 L 21.548 3.384 L 21.547 3.37 L 21.547 3.356 L 21.546 3.341 L 21.545 3.327 L 21.544 3.312 L 21.543 3.298 L 21.542 3.284 L 21.542 3.269 L 21.541 3.255 L 21.54 3.241 L 21.539 3.226 L 21.538 3.212 L 21.538 3.197 L 21.537 3.183 L 21.536 3.169 L 21.535 3.154 L 21.534 3.14 L 21.533 3.125 L 21.533 3.111 L 21.532 3.096 L 21.531 3.082 L 21.53 3.068 L 21.529 3.053 L 21.528 3.039 L 21.528 3.024 L 21.527 3.01 L 21.526 2.996 L 21.525 2.981 L 21.524 2.967 L 21.523 2.952 L 21.523 2.938 L 21.522 2.923 L 21.521 2.909 L 21.52 2.895 L 21.519 2.88 L 21.518 2.866 L 21.518 2.851 L 21.517 2.837 L 21.516 2.822 L 21.515 2.808 L 21.514 2.794 L 21.514 2.779 L 21.513 2.765 L 21.512 2.75 L 21.511 2.736 L 21.51 2.721 L 21.509 2.707 L 21.509 2.693 L 21.508 2.678 L 21.507 2.664 L 21.506 2.649 L 21.505 2.635 L 21.504 2.62 L 21.504 2.606 L 21.503 2.591 L 21.502 2.577 L 21.501 2.563 L 21.5 2.548 L 21.499 2.534 L 21.499 2.519 L 21.498 2.505 L 21.497 2.49 L 21.496 2.476 L 21.495 2.461 L 21.494 2.447 L 21.494 2.432 L 21.493 2.418 L 21.492 2.403 L 21.491 2.389 L 21.49 2.375 L 21.489 2.36 L 21.489 2.346 L 21.488 2.331 L 21.487 2.317 L 21.486 2.302 L 21.485 2.288 L 21.484 2.273 L 21.484 2.259 L 21.483 2.244 L 21.482 2.23 L 21.481 2.215 L 21.48 2.201 L 21.479 2.186 L 21.479 2.172 L 21.478 2.157 L 21.477 2.143 L 21.476 2.128 L 21.475 2.114 L 21.475 2.099 L 21.474 2.085 L 21.473 2.07 L 21.472 2.056 L 21.471 2.041 L 21.47 2.027 L 21.47 2.012 L 21.469 1.998 L 21.468 1.983 L 21.467 1.969 L 21.466 1.954 L 21.465 1.94 L 21.465 1.925 L 21.464 1.911 L 21.463 1.896 L 21.462 1.882 L 21.461 1.867 L 21.46 1.853 L 21.46 1.838 L 21.459 1.824 L 21.458 1.809 L 21.457 1.795 L 21.456 1.78 L 21.455 1.766 L 21.455 1.751 L 21.454 1.737 L 21.453 1.722 L 21.452 1.708 L 21.451 1.693 L 21.45 1.679 L 21.45 1.664 L 21.449 1.65 L 21.448 1.635 L 21.447 1.62 L 21.446 1.606 L 21.445 1.591 L 21.445 1.577 L 21.444 1.562 L 21.443 1.548 L 21.442 1.533 L 21.441 1.519 L 21.44 1.504 L 21.44 1.49 L 21.439 1.475 L 21.438 1.461 L 21.437 1.446 L 21.436 1.431 L 21.435 1.417 L 21.435 1.402 L 21.434 1.388 L 21.433 1.373 L 21.432 1.359 L 21.431 1.344 L 21.43 1.33 L 21.43 1.315 L 21.429 1.3 L 21.428 1.286 L 21.427 1.271 L 21.426 1.257 L 21.425 1.242 L 21.425 1.228 L 21.424 1.213 L 21.423 1.199 L 21.422 1.184 L 21.421 1.169 L 21.42 1.155 L 21.42 1.14 L 21.419 1.126 L 21.418 1.111 L 21.417 1.097 L 21.416 1.082 L 21.415 1.067 L 21.415 1.053 L 21.414 1.038 L 21.413 1.024 L 21.412 1.009 L 21.411 0.994 L 21.41 0.98 L 21.41 0.965 L 21.409 0.951 L 21.408 0.936 L 21.407 0.922 L 21.406 0.907 L 21.405 0.892 L 21.405 0.878 L 21.404 0.863 L 21.403 0.849 L 21.402 0.834 L 21.401 0.819 L 21.4 0.805 L 21.4 0.79 L 21.399 0.776 L 21.398 0.761 L 21.397 0.746 L 21.396 0.732 L 21.395 0.717 L 21.395 0.703 L 21.394 0.688 L 21.393 0.673 L 21.392 0.659 L 21.391 0.644 L 21.39 0.63 L 21.389 0.615 L 21.389 0.6 L 21.388 0.586 L 21.387 0.571 L 21.386 0.556 L 21.385 0.542 L 21.384 0.527 L 21.384 0.513 L 21.383 0.498 L 21.382 0.483 L 21.381 0.469 L 21.38 0.454 L 21.379 0.439 L 21.379 0.425 L 21.378 0.41 L 21.377 0.396 L 21.376 0.381 L 21.375 0.366 L 21.374 0.352 L 21.374 0.337 L 21.373 0.322 L 21.372 0.308 L 21.371 0.293 L 21.37 0.278 L 21.369 0.264 L 21.369 0.249 L 21.368 0.235 L 21.367 0.22 L 21.366 0.205 L 21.365 0.191 L 21.364 0.176 L 21.364 0.161 L 21.363 0.147 L 21.362 0.132 L 21.361 0.117 L 21.36 0.103 L 21.359 0.088 L 21.359 0.073 L 21.358 0.059 L 21.357 0.044 L 21.356 0.029 L 21.355 0.015 L 21.354 0 Z" vector-effect="non-scaling-stroke"/><path d="M 2.207 1.156 L 2.203 1.203 L 2.198 1.251 L 2.194 1.298 L 2.189 1.346 L 2.185 1.393 L 2.18 1.441 L 2.176 1.488 L 2.172 1.536 L 2.167 1.583 L 2.163 1.631 L 2.158 1.678 L 2.154 1.726 L 2.149 1.773 L 2.145 1.82 L 2.141 1.868 L 2.136 1.915 L 2.132 1.963 L 2.127 2.01 L 2.123 2.057 L 2.119 2.105 L 2.114 2.152 L 2.11 2.199 L 2.105 2.247 L 2.101 2.294 L 2.097 2.341 L 2.092 2.388 L 2.088 2.436 L 2.083 2.483 L 2.079 2.53 L 2.075 2.577 L 2.07 2.624 L 2.066 2.672 L 2.062 2.719 L 2.057 2.766 L 2.053 2.813 L 2.048 2.86 L 2.044 2.907 L 2.04 2.954 L 2.035 3.002 L 2.031 3.049 L 2.027 3.096 L 2.022 3.143 L 2.018 3.19 L 2.014 3.237 L 2.009 3.284 L 2.005 3.331 L 2 3.378 L 1.996 3.425 L 1.992 3.472 L 1.987 3.519 L 1.983 3.566 L 1.979 3.613 L 1.974 3.659 L 1.97 3.706 L 1.966 3.753 L 1.961 3.8 L 1.957 3.847 L 1.953 3.894 L 1.948 3.941 L 1.944 3.987 L 1.94 4.034 L 1.935 4.081 L 1.931 4.128 L 1.927 4.175 L 1.922 4.221 L 1.918 4.268 L 1.914 4.315 L 1.909 4.362 L 1.905 4.408 L 1.901 4.455 L 1.896 4.502 L 1.892 4.548 L 1.888 4.595 L 1.883 4.642 L 1.879 4.688 L 1.875 4.735 L 1.87 4.782 L 1.866 4.828 L 1.862 4.875 L 1.858 4.921 L 1.853 4.968 L 1.849 5.014 L 1.845 5.061 L 1.84 5.108 L 1.836 5.154 L 1.832 5.201 L 1.827 5.247 L 1.823 5.294 L 1.819 5.34 L 1.815 5.386 L 1.81 5.433 L 1.806 5.479 L 1.802 5.526 L 1.797 5.572 L 1.793 5.619 L 1.789 5.665 L 1.785 5.711 L 1.78 5.758 L 1.776 5.804 L 1.772 5.85 L 1.767 5.897 L 1.763 5.943 L 1.759 5.989 L 1.755 6.035 L 1.75 6.082 L 1.746 6.128 L 1.742 6.174 L 1.738 6.22 L 1.733 6.267 L 1.729 6.313 L 1.725 6.359 L 1.721 6.405 L 1.716 6.451 L 1.712 6.498 L 1.708 6.544 L 1.704 6.59 L 1.699 6.636 L 1.695 6.682 L 1.691 6.728 L 1.687 6.774 L 1.682 6.82 L 1.678 6.866 L 1.674 6.912 L 1.67 6.958 L 1.665 7.005 L 1.661 7.051 L 1.657 7.097 L 1.653 7.142 L 1.649 7.188 L 1.644 7.234 L 1.64 7.28 L 1.636 7.326 L 1.632 7.372 L 1.627 7.418 L 1.623 7.464 L 1.619 7.51 L 1.615 7.556 L 1.611 7.602 L 1.606 7.648 L 1.602 7.693 L 1.598 7.739 L 1.594 7.785 L 1.59 7.831 L 1.585 7.877 L 1.581 7.922 L 1.577 7.968 L 1.573 8.014 L 1.569 8.06 L 1.564 8.105 L 1.56 8.151 L 1.556 8.197 L 1.552 8.243 L 1.548 8.288 L 1.544 8.334 L 1.539 8.38 L 1.535 8.425 L 1.531 8.471 L 1.527 8.516 L 1.523 8.562 L 1.519 8.608 L 1.514 8.653 L 1.51 8.699 L 1.506 8.744 L 1.502 8.79 L 1.498 8.835 L 1.494 8.881 L 1.489 8.927 L 1.485 8.972 L 1.481 9.018 L 1.477 9.063 L 1.473 9.108 L 1.469 9.154 L 1.465 9.199 L 1.46 9.245 L 1.456 9.29 L 1.452 9.336 L 1.448 9.381 L 1.444 9.426 L 1.44 9.472 L 1.436 9.517 L 1.432 9.562 L 1.427 9.608 L 1.423 9.653 L 1.419 9.698 L 1.415 9.744 L 1.411 9.789 L 1.407 9.834 L 1.403 9.88 L 1.399 9.925 L 1.395 9.97 L 1.391 10.015 L 1.386 10.061 L 1.382 10.106 L 1.378 10.151 L 1.374 10.196 L 1.37 10.241 L 1.366 10.286 L 1.362 10.332 L 1.358 10.377 L 1.354 10.422 L 1.35 10.467 L 1.346 10.512 L 1.342 10.557 L 1.338 10.602 L 1.334 10.647 L 1.329 10.692 L 1.325 10.737 L 1.321 10.783 L 1.317 10.828 L 1.313 10.873 L 1.309 10.918 L 1.305 10.963 L 1.301 11.008 L 1.297 11.052 L 1.293 11.097 L 1.289 11.142 L 1.285 11.187 L 1.281 11.232 L 1.277 11.277 L 1.273 11.322 L 1.269 11.367 L 1.265 11.412 L 1.261 11.457 L 1.257 11.501 L 1.253 11.546 L 1.249 11.591 L 1.245 11.636 L 1.241 11.681 L 1.237 11.726 L 1.233 11.77 L 1.229 11.815 L 1.225 11.86 L 1.221 11.905 L 1.217 11.949 L 1.213 11.994 L 1.209 12.039 L 1.205 12.083 L 1.201 12.128 L 1.197 12.173 L 1.193 12.218 L 1.189 12.262 L 1.185 12.307 L 1.181 12.351 L 1.177 12.396 L 1.174 12.441 L 1.17 12.485 L 1.166 12.53 L 1.162 12.574 L 1.158 12.619 L 1.154 12.664 L 1.15 12.708 L 1.146 12.753 L 1.142 12.797 L 1.138 12.842 L 1.134 12.886 L 1.13 12.931 L 1.126 12.975 L 1.123 13.02 L 1.119 13.064 L 1.115 13.108 L 1.111 13.153 L 1.107 13.197 L 1.103 13.242 L 1.099 13.286 L 1.095 13.33 L 1.092 13.375 L 1.088 13.419 L 1.084 13.464 L 1.08 13.508 L 1.076 13.552 L 1.072 13.597 L 1.068 13.641 L 1.065 13.685 L 1.061 13.729 L 1.057 13.774 L 1.053 13.818 L 1.049 13.862 L 1.045 13.906 L 1.042 13.951 L 1.038 13.995 L 1.034 14.039 L 1.03 14.083 L 1.026 14.127 L 1.022 14.172 L 1.019 14.216 L 1.015 14.26 L 1.011 14.304 L 1.007 14.348 L 1.004 14.392 L 1 14.436 L 0.996 14.481 L 0.992 14.525 L 0.988 14.569 L 0.985 14.613 L 0.981 14.657 L 0.977 14.701 L 0.973 14.745 L 0.97 14.789 L 0.966 14.833 L 0.962 14.877 L 0.958 14.921 L 0.955 14.965 L 0.951 15.009 L 0.947 15.053 L 0.944 15.097 L 0.94 15.141 L 0.936 15.185 L 0.932 15.228 L 0.929 15.272 L 0.925 15.316 L 0.921 15.36 L 0.918 15.404 L 0.914 15.448 L 0.91 15.492 L 0.907 15.536 L 0.903 15.579 L 0.899 15.623 L 0.896 15.667 L 0.892 15.711 L 0.888 15.755 L 0.885 15.798 L 0.881 15.842 L 0.877 15.886 L 0.874 15.93 L 0.87 15.973 L 0.866 16.017 L 0.863 16.061 L 0.859 16.104 L 0.856 16.148 L 0.852 16.192 L 0.848 16.235 L 0.845 16.279 L 0.841 16.323 L 0.838 16.366 L 0.834 16.41 L 0.83 16.454 L 0.827 16.497 L 0.823 16.541 L 0.82 16.584 L 0.816 16.628 L 0.813 16.671 L 0.809 16.715 L 0.806 16.759 L 0.802 16.802 L 0.798 16.846 L 0.795 16.889 L 0.791 16.933 L 0.788 16.976 L 0.784 17.02 L 0.781 17.063 L 0.777 17.106 L 0.774 17.15 L 0.77 17.193 L 0.767 17.237 L 0.763 17.28 L 0.76 17.324 L 0.757 17.367 L 0.753 17.41 L 0.75 17.454 L 0.746 17.497 L 0.743 17.54 L 0.739 17.584 L 0.736 17.627 L 0.732 17.67 L 0.729 17.714 L 0.726 17.757 L 0.722 17.8 L 0.719 17.843 L 0.715 17.887 L 0.712 17.93 L 0.709 17.973 L 0.705 18.016 L 0.702 18.06 L 0.698 18.103 L 0.695 18.146 L 0.692 18.189 L 0.688 18.232 L 0.685 18.276 L 0.682 18.319 L 0.678 18.362 L 0.675 18.405 L 0.672 18.448 L 0.668 18.491 L 0.665 18.534 L 0.662 18.578 L 0.658 18.621 L 0.655 18.664 L 0.652 18.707 L 0.648 18.75 L 0.645 18.793 L 0.642 18.836 L 0.639 18.879 L 0.635 18.922 L 0.632 18.965 L 0.629 19.008 L 0.626 19.051 L 0.622 19.094 L 0.619 19.137 L 0.616 19.18 L 0.613 19.223 L 0.609 19.266 L 0.606 19.309 L 0.603 19.351 L 0.6 19.394 L 0.597 19.437 L 0.593 19.48 L 0.59 19.523 L 0.587 19.566 L 0.584 19.609 L 0.581 19.652 L 0.578 19.694 L 0.574 19.737 L 0.571 19.78 L 0.568 19.823 L 0.565 19.866 L 0.562 19.908 L 0.559 19.951 L 0.556 19.994 L 0.553 20.037 L 0.55 20.079 L 0.546 20.122 L 0.543 20.165 L 0.54 20.208 L 0.537 20.25 L 0.534 20.293 L 0.531 20.336 L 0.528 20.378 L 0.525 20.421 L 0.522 20.464 L 0.519 20.506 L 0.516 20.549 L 0.513 20.592 L 0.51 20.634 L 0.507 20.677 L 0.504 20.719 L 0.501 20.762 L 0.498 20.805 L 0.495 20.847 L 0.492 20.89 L 0.489 20.932 L 0.486 20.975 L 0.483 21.017 L 0.48 21.06 L 0.477 21.102 L 0.474 21.145 L 0.472 21.187 L 0.469 21.23 L 0.466 21.272 L 0.463 21.315 L 0.46 21.357 L 0.457 21.4 L 0.454 21.442 L 0.451 21.484 L 0.449 21.527 L 0.446 21.569 L 0.443 21.612 L 0.44 21.654 L 0.437 21.696 L 0.434 21.739 L 0.432 21.781 L 0.429 21.823 L 0.426 21.866 L 0.423 21.908 L 0.42 21.95 L 0.418 21.993 L 0.415 22.035 L 0.412 22.077 L 0.409 22.119 L 0.407 22.162 L 0.404 22.204 L 0.401 22.246 L 0.398 22.288 L 0.396 22.331 L 0.393 22.373 L 0.39 22.415 L 0.388 22.457 L 0.385 22.499 L 0.382 22.542 L 0.38 22.584 L 0.377 22.626 L 0.374 22.668 L 0.372 22.71 L 0.369 22.752 L 0.366 22.795 L 0.364 22.837 L 0.361 22.879 L 0.359 22.921 L 0.356 22.963 L 0.353 23.005 L 0.351 23.047 L 0.348 23.089 L 0.346 23.131 L 0.343 23.173 L 0.341 23.215 L 0.338 23.257 L 0.336 23.299 L 0.333 23.341 L 0.331 23.383 L 0.328 23.425 L 0.326 23.467 L 0.323 23.509 L 0.321 23.551 L 0.318 23.593 L 0.316 23.635 L 0.313 23.677 L 0.311 23.719 L 0.308 23.761 L 0.306 23.803 L 0.303 23.844 L 0.301 23.886 L 0.299 23.928 L 0.296 23.97 L 0.294 24.012 L 0.292 24.054 L 0.289 24.096 L 0.287 24.137 L 0.284 24.179 L 0.282 24.221 L 0.28 24.263 L 0.277 24.305 L 0.275 24.346 L 0.273 24.388 L 0.27 24.43 L 0.268 24.472 L 0.266 24.513 L 0.264 24.555 L 0.261 24.597 L 0.259 24.638 L 0.257 24.68 L 0.255 24.722 L 0.252 24.763 L 0.25 24.805 L 0.248 24.847 L 0.246 24.888 L 0.244 24.93 L 0.241 24.972 L 0.239 25.013 L 0.237 25.055 L 0.235 25.097 L 0.233 25.138 L 0.231 25.18 L 0.228 25.221 L 0.226 25.263 L 0.224 25.305 L 0.222 25.346 L 0.22 25.388 L 0.218 25.429 L 0.216 25.471 L 0.214 25.512 L 0.212 25.554 L 0.21 25.595 L 0.208 25.637 L 0.206 25.678 L 0.204 25.72 L 0.202 25.761 L 0.2 25.803 L 0.198 25.844 L 0.196 25.885 L 0.194 25.927 L 0.192 25.968 L 0.19 26.01 L 0.188 26.051 L 0.186 26.092 L 0.184 26.134 L 0.182 26.175 L 0.18 26.217 L 0.178 26.258 L 0.176 26.299 L 0.174 26.341 L 0.172 26.382 L 0.171 26.423 L 0.169 26.465 L 0.167 26.506 L 0.165 26.547 L 0.163 26.588 L 0.161 26.63 L 0.16 26.671 L 0.158 26.712 L 0.156 26.753 L 0.154 26.795 L 0.152 26.836 L 0.151 26.877 L 0.149 26.918 L 0.147 26.96 L 0.145 27.001 L 0.144 27.042 L 0.142 27.083 L 0.14 27.124 L 0.139 27.165 L 0.137 27.207 L 0.135 27.248 L 0.134 27.289 L 0.132 27.33 L 0.13 27.371 L 0.129 27.412 L 0.127 27.453 L 0.125 27.494 L 0.124 27.535 L 0.122 27.577 L 0.121 27.618 L 0.119 27.659 L 0.117 27.7 L 0.116 27.741 L 0.114 27.782 L 0.113 27.823 L 0.111 27.864 L 0.11 27.905 L 0.108 27.946 L 0.107 27.987 L 0.105 28.028 L 0.104 28.069 L 0.102 28.11 L 0.101 28.151 L 0.099 28.192 L 0.098 28.232 L 0.097 28.273 L 0.095 28.314 L 0.094 28.355 L 0.092 28.396 L 0.091 28.437 L 0.09 28.478 L 0.088 28.519 L 0.087 28.56 L 0.085 28.6 L 0.084 28.641 L 0.083 28.682 L 0.082 28.723 L 0.08 28.764 L 0.079 28.805 L 0.078 28.845 L 0.076 28.886 L 0.075 28.927 L 0.074 28.968 L 0.073 29.009 L 0.071 29.049 L 0.07 29.09 L 0.069 29.131 L 0.068 29.172 L 0.066 29.212 L 0.065 29.253 L 0.064 29.294 L 0.063 29.334 L 0.062 29.375 L 0.061 29.416 L 0.06 29.456 L 0.058 29.497 L 0.057 29.538 L 0.056 29.578 L 0.055 29.619 L 0.054 29.66 L 0.053 29.7 L 0.052 29.741 L 0.051 29.782 L 0.05 29.822 L 0.049 29.863 L 0.048 29.903 L 0.047 29.944 L 0.046 29.984 L 0.045 30.025 L 0.044 30.066 L 0.043 30.106 L 0.042 30.147 L 0.041 30.187 L 0.04 30.228 L 0.039 30.268 L 0.038 30.309 L 0.037 30.349 L 0.036 30.39 L 0.035 30.43 L 0.035 30.471 L 0.034 30.511 L 0.033 30.552 L 0.032 30.592 L 0.031 30.632 L 0.03 30.673 L 0.03 30.713 L 0.029 30.754 L 0.028 30.794 L 0.027 30.834 L 0.026 30.875 L 0.026 30.915 L 0.025 30.956 L 0.024 30.996 L 0.024 31.036 L 0.023 31.077 L 0.022 31.117 L 0.021 31.157 L 0.021 31.198 L 0.02 31.238 L 0.019 31.278 L 0.019 31.319 L 0.018 31.359 L 0.018 31.399 L 0.017 31.439 L 0.016 31.48 L 0.016 31.52 L 0.015 31.56 L 0.015 31.6 L 0.014 31.641 L 0.013 31.681 L 0.013 31.721 L 0.012 31.761 L 0.012 31.801 L 0.011 31.842 L 0.011 31.882 L 0.01 31.922 L 0.01 31.962 L 0.009 32.002 L 0.009 32.042 L 0.009 32.083 L 0.008 32.123 L 0.008 32.163 L 0.007 32.203 L 0.007 32.243 L 0.007 32.283 L 0.006 32.323 L 0.006 32.363 L 0.005 32.403 L 0.005 32.443 L 0.005 32.483 L 0.004 32.524 L 0.004 32.564 L 0.004 32.604 L 0.004 32.644 L 0.003 32.684 L 0.003 32.724 L 0.003 32.764 L 0.003 32.804 L 0.002 32.844 L 0.002 32.884 L 0.002 32.924 L 0.002 32.964 L 0.001 33.004 L 0.001 33.043 L 0.001 33.083 L 0.001 33.123 L 0.001 33.163 L 0.001 33.203 L 0.001 33.243 L 0 33.283 L 0 33.323 L 0 33.363 L 0 33.403 L 0 33.442 L 0 33.482 L 0 33.522 L 0 33.562 L 0 33.602 L 0 33.642 L 0 33.682 L 0 33.721 L 0 33.761 L 0 33.801 L 0 33.841 L 0 33.881 L 0 33.92 L 0 33.96 L 0 34 L 0.001 34.04 L 0.001 34.079 L 0.001 34.119 L 0.001 34.159 L 0.001 34.198 L 0.001 34.238 L 0.001 34.278 L 0.002 34.318 L 0.002 34.357 L 0.002 34.397 L 0.002 34.437 L 0.002 34.476 L 0.003 34.516 L 0.003 34.556 L 0.003 34.595 L 0.003 34.635 L 0.004 34.675 L 0.004 34.714 L 0.004 34.754 L 0.005 34.793 L 0.005 34.833 L 0.005 34.873 L 0.006 34.912 L 0.006 34.952 L 0.006 34.991 L 0.007 35.031 L 0.007 35.07 L 0.008 35.11 L 0.008 35.149 L 0.009 35.189 L 0.009 35.228 L 0.009 35.268 L 0.01 35.307 L 0.01 35.347 L 0.011 35.386 L 0.011 35.426 L 0.012 35.465 L 0.012 35.505 L 0.013 35.544 L 0.014 35.584 L 0.014 35.623 L 0.015 35.663 L 0.015 35.702 L 0.016 35.742 L 0.016 35.781 L 0.017 35.82 L 0.018 35.86 L 0.018 35.899 L 0.019 35.938 L 0.02 35.978 L 0.02 36.017 L 0.021 36.057 L 0.022 36.096 L 0.022 36.135 L 0.023 36.175 L 0.024 36.214 L 0.025 36.253 L 0.025 36.293 L 0.026 36.332 L 0.027 36.371 L 0.028 36.41 L 0.029 36.45 L 0.029 36.489 L 0.03 36.528 L 0.031 36.568 L 0.032 36.607 L 0.033 36.646 L 0.034 36.685 L 0.035 36.725 L 0.035 36.764 L 0.036 36.803 L 0.037 36.842 L 0.038 36.881 L 0.039 36.921 L 0.04 36.96 L 0.041 36.999 L 0.042 37.038 L 0.043 37.077 L 0.044 37.116 L 0.045 37.156 L 0.046 37.195 L 0.047 37.234 L 0.048 37.273 L 0.049 37.312 L 0.05 37.351 L 0.051 37.39 L 0.052 37.429 L 0.054 37.469 L 0.055 37.508 L 0.056 37.547 L 0.057 37.586 L 0.058 37.625 L 0.059 37.664 L 0.06 37.703 L 0.062 37.742 L 0.063 37.781 L 0.064 37.82 L 0.065 37.859 L 0.067 37.898 L 0.068 37.937 L 0.069 37.976 L 0.07 38.015 L 0.072 38.054 L 0.073 38.093 L 0.074 38.132 L 0.076 38.171 L 0.077 38.21 L 0.078 38.249 L 0.08 38.288 L 0.081 38.327 L 0.082 38.366 L 0.084 38.405 L 0.085 38.443 L 0.087 38.482 L 0.088 38.521 L 0.089 38.56 L 0.091 38.599 L 0.092 38.638 L 0.094 38.677 L 0.095 38.716 L 0.097 38.755 L 0.098 38.793 L 0.1 38.832 L 0.101 38.871 L 0.103 38.91 L 0.104 38.949 L 0.106 38.987 L 0.108 39.026 L 0.109 39.065 L 0.111 39.104 L 0.112 39.143 L 0.114 39.181 L 0.116 39.22 L 0.117 39.259 L 0.119 39.298 L 0.121 39.336 L 0.122 39.375 L 0.124 39.414 L 0.126 39.453 L 0.128 39.491 L 0.129 39.53 L 0.131 39.569 L 0.133 39.607 L 0.135 39.646 L 0.136 39.685 L 0.138 39.724 L 0.14 39.762 L 0.142 39.801 L 0.144 39.84 L 0.145 39.878 L 0.147 39.917 L 0.149 39.955 L 0.151 39.994 L 0.153 40.033 L 0.155 40.071 L 0.157 40.11 L 0.159 40.149 L 0.161 40.187 L 0.163 40.226 L 0.165 40.264 L 0.167 40.303 L 0.169 40.341 L 0.171 40.38 L 0.173 40.419 L 0.175 40.457 L 0.177 40.496 L 0.179 40.534 L 0.181 40.573 L 0.183 40.611 L 0.185 40.65 L 0.187 40.688 L 0.189 40.727 L 0.191 40.765 L 0.193 40.804 L 0.195 40.842 L 0.198 40.881 L 0.2 40.919 L 0.202 40.957 L 0.204 40.996 L 0.206 41.034 L 0.209 41.073 L 0.211 41.111 L 0.213 41.15 L 0.215 41.188 L 0.218 41.226 L 0.22 41.265 L 0.222 41.303 L 0.224 41.342 L 0.227 41.38 L 0.229 41.418 L 0.231 41.457 L 0.234 41.495 L 0.236 41.533 L 0.238 41.572 L 0.241 41.61 L 0.243 41.649 L 0.246 41.687 L 0.248 41.725 L 0.251 41.763 L 0.253 41.802 L 0.255 41.84 L 0.258 41.878 L 0.26 41.917 L 0.263 41.955 L 0.265 41.993 L 0.268 42.031 L 0.27 42.07 L 0.273 42.108 L 0.276 42.146 L 0.278 42.184 L 0.281 42.223 L 0.283 42.261 L 0.286 42.299 L 0.289 42.337 L 0.291 42.376 L 0.294 42.414 L 0.296 42.452 L 0.299 42.49 L 0.302 42.528 L 0.304 42.566 L 0.307 42.605 L 0.31 42.643 L 0.313 42.681 L 0.315 42.719 L 0.318 42.757 L 0.321 42.795 L 0.324 42.834 L 0.326 42.872 L 0.329 42.91 L 0.332 42.948 L 0.335 42.986 L 0.338 43.024 L 0.341 43.062 L 0.343 43.1 L 0.346 43.138 L 0.349 43.176 L 0.352 43.214 L 0.355 43.252 L 0.358 43.291 L 0.361 43.329 L 0.364 43.367" id="blue" stroke="blue" style="stroke:blue" vector-effect="non-scaling-stroke"/><g id="captions"><text alignment-baseline="middle" text-anchor="middle" transform="rotate(0,11.352,8.326)" x="11.352" y="8.326">WIND, 3, 1</text></g></g></svg>