<svg width="3482.255" height="1432.97" viewBox="0 0 3482.255 1432.97" xmlns="http://www.w3.org/2000/svg"><g id="svgGroup" stroke-linecap="round" fill-rule="evenodd" font-size="9pt" stroke="#000" stroke-width="0.25mm" fill="none" style="stroke:#000;stroke-width:0.25mm;fill:none"><path d="M 3453.61 0 L 3447.288 5.998 L 3442.352 11.154 L 3437.469 16.242 L 3431.206 22.036 L 3426.245 27.004 L 3421.34 31.915 L 3415.95 36.979 L 3409.853 42.356 L 3405.133 47.108 L 3399.744 52.025 L 3394.478 56.706 L 3389.525 61.333 L 3384.137 66.122 L 3378.837 70.681 L 3373.858 75.19 L 3367.496 80.417 L 3362.423 84.856 L 3357.029 89.456 L 3351.662 93.837 L 3347.409 97.813 L 3341.606 102.148 L 3336.563 106.423 L 3331.165 110.861 L 3325.736 115.09 L 3320.334 119.468 L 3314.877 123.641 L 3309.47 127.962 L 3305.141 131.533 L 3299.345 135.816 L 3293.836 139.884 L 3288.419 144.098 L 3282.88 148.116 L 3278.726 151.732 L 3272.425 155.907 L 3266.845 159.855 L 3262.715 163.399 L 3256.618 167.325 L 3251.181 171.368 L 3246.795 174.688 L 3240.924 178.705 L 3235.047 182.7 L 3230.644 185.96 L 3224.75 189.912 L 3220.228 193.303 L 3213.977 197.067 L 3209.907 200.397 L 3203.617 204.123 L 3199.556 207.414 L 3193.07 211.272 L 3188.619 214.385 L 3182.662 218.177 L 3178.151 221.416 L 3171.611 225.2 L 3167.134 228.244 L 3161.142 231.962 L 3156.634 235.129 L 3151.551 238.157 L 3145.533 241.822 L 3141.026 244.938 L 3134.389 248.601 L 3129.862 251.534 L 3125.356 254.602 L 3118.676 258.215 L 3114.169 261.25 L 3108.99 264.16 L 3104.484 267.164 L 3097.748 270.715 L 3093.239 273.687 L 3088.089 276.683 L 3082.85 279.526 L 3076.708 282.977 L 3072.195 285.89 L 3067.021 288.829 L 3061.843 291.753 L 3056.659 294.664 L 3049.786 297.946 L 3045.828 300.751 L 3040.624 303.621 L 3035.414 306.478 L 3030.199 309.322 L 3024.978 312.153 L 3017.983 315.361 L 3014.032 318.081 L 3008.789 320.874 L 3003.538 323.655 L 2998.282 326.422 L 2993.019 329.178 L 2987.749 331.922 L 2982.473 334.653 L 2977.189 337.373 L 2971.686 339.97 L 2967.133 342.614 L 2961.827 345.299 L 2956.514 347.973 L 2951.194 350.635 L 2945.866 353.286 L 2940.531 355.926 L 2935.187 358.555 L 2929.836 361.172 L 2924.477 363.779 L 2919.11 366.375 L 2913.734 368.961 L 2908.351 371.536 L 2902.959 374.1 L 2897.274 376.561 L 2892.664 379.044 L 2889.789 381.017 L 2882.955 383.648 L 2877.523 386.163 L 2872.081 388.668 L 2866.631 391.163 L 2861.171 393.648 L 2855.702 396.123 L 2850.224 398.589 L 2847.363 400.479 L 2840.408 403.044 L 2834.905 405.483 L 2829.391 407.912 L 2823.868 410.332 L 2821.011 412.172 L 2813.982 414.7 L 2808.433 417.094 L 2802.873 419.479 L 2796.945 421.788 L 2794.944 423.509 L 2787.842 425.998 L 2782.244 428.35 L 2776.636 430.694 L 2773.773 432.453 L 2766.613 434.915 L 2760.976 437.235 L 2758.108 438.968 L 2750.906 441.411 L 2745.239 443.707 L 2739.562 445.996 L 2736.685 447.695 L 2729.425 450.112 L 2723.717 452.379 L 2720.832 454.052 L 2713.132 456.405 L 2708.285 458.563 L 2705.391 460.215 L 2698.047 462.596 L 2695.145 464.232 L 2687.775 466.603 L 2681.985 468.814 L 2679.07 470.426 L 2671.66 472.781 L 2665.836 474.972 L 2662.214 476.55 L 2655.948 478.771 L 2653.011 480.349 L 2645.533 482.677 L 2642.585 484.239 L 2635.082 486.558 L 2629.182 488.706 L 2625.511 490.245 L 2619.166 492.427 L 2616.189 493.957 L 2608.62 496.251 L 2605.63 497.767 L 2598.037 500.054 L 2594.322 501.561 L 2587.908 503.711 L 2584.891 505.202 L 2577.248 507.471 L 2574.216 508.95 L 2566.125 511.194 L 2563.997 512.558 L 2556.305 514.81 L 2553.242 516.266 L 2545.526 518.511 L 2541.733 519.971 L 2535.202 522.073 L 2532.107 523.508 L 2524.341 525.738 L 2520.516 527.18 L 2513.937 529.265 L 2510.807 530.679 L 2505.321 532.297 L 2498.708 534.37 L 2495.551 535.769 L 2487.288 537.969 L 2485.029 539.248 L 2477.158 541.446 L 2473.256 542.853 L 2469.628 544.279 L 2461.725 546.47 L 2457.797 547.865 L 2451.076 549.904 L 2447.83 551.263 L 2442.25 552.844 L 2435.493 554.874 L 2432.216 556.219 L 2426.613 557.794 L 2419.821 559.814 L 2415.821 561.181 L 2412.082 562.564 L 2403.663 564.728 L 2401.225 565.933 L 2396.258 567.453 L 2387.814 569.613 L 2385.337 570.805 L 2379.668 572.357 L 2372.767 574.351 L 2368.684 575.692 L 2364.846 577.043 L 2356.349 579.192 L 2353.795 580.362 L 2348.081 581.901 L 2341.107 583.88 L 2336.967 585.205 L 2333.059 586.539 L 2327.319 588.07 L 2319.935 590.05 L 2317.286 591.199 L 2311.523 592.723 L 2307.556 594.043 L 2298.972 596.174 L 2296.264 597.31 L 2290.473 598.828 L 2285.834 600.186 L 2278.715 602.14 L 2274.457 603.438 L 2269.79 604.789 L 2265.726 606.09 L 2257.082 608.212 L 2253.649 609.376 L 2249.548 610.672 L 2243.695 612.175 L 2238.974 613.516 L 2231.744 615.455 L 2227.396 616.736 L 2222.646 618.072 L 2217.887 619.407 L 2213.697 620.688 L 2204.983 622.799 L 2201.43 623.945 L 2196.634 625.273 L 2192.393 626.549 L 2186.465 628.038 L 2178.825 629.979 L 2175.212 631.118 L 2170.368 632.44 L 2166.062 633.709 L 2160.1 635.192 L 2155.229 636.51 L 2150.349 637.826 L 2142.644 639.761 L 2138.946 640.891 L 2134.56 642.154 L 2128.556 643.63 L 2123.628 644.941 L 2118.691 646.252 L 2113.745 647.561 L 2108.789 648.869 L 2101.01 650.798 L 2097.212 651.92 L 2092.227 653.226 L 2087.233 654.53 L 2082.23 655.835 L 2077.217 657.138 L 2072.195 658.44 L 2067.164 659.742 L 2062.124 661.043 L 2057.074 662.343 L 2049.202 664.266 L 2045.279 665.38 L 2040.199 666.679 L 2035.109 667.977 L 2030.01 669.274 L 2024.901 670.571 L 2019.783 671.867 L 2014.655 673.163 L 2009.518 674.459 L 2004.371 675.753 L 1999.214 677.048 L 1994.048 678.342 L 1988.872 679.636 L 1983.686 680.929 L 1978.49 682.222 L 1973.285 683.515 L 1967.568 684.877 L 1963.451 685.982 L 1958.218 687.273 L 1952.975 688.565 L 1947.722 689.856 L 1942.459 691.148 L 1934.196 693.086 L 1930.793 694.055 L 1925.499 695.346 L 1920.196 696.636 L 1914.882 697.927 L 1909.1 699.282 L 1904.846 700.388 L 1903.846 700.801 L 1895.893 702.523 L 1890.533 703.814 L 1884.736 705.168 L 1880.411 706.273 L 1875.022 707.563 L 1869.622 708.854 L 1863.803 710.207 L 1859.427 711.313 L 1853.998 712.604 L 1848.162 713.955 L 1843.749 715.063 L 1838.291 716.354 L 1832.438 717.704 L 1827.987 718.813 L 1822.499 720.105 L 1816.629 721.454 L 1812.141 722.565 L 1806.622 723.858 L 1800.735 725.206 L 1796.209 726.319 L 1790.66 727.613 L 1784.755 728.96 L 1784.406 729.199 L 1776.08 730.969 L 1771.487 732.084 L 1765.89 733.38 L 1759.966 734.727 L 1755.333 735.843 L 1749.396 737.19 L 1744.74 738.308 L 1738.789 739.654 L 1734.11 740.774 L 1728.443 742.073 L 1726.115 742.631 L 1719.58 744.086 L 1713.61 745.432 L 1708.861 746.555 L 1702.878 747.901 L 1698.105 749.026 L 1692.108 750.372 L 1687.311 751.499 L 1681.301 752.845 L 1680.589 753.104 L 1672.311 754.861 L 1667.459 755.991 L 1661.433 757.337 L 1656.557 758.47 L 1650.518 759.815 L 1645.395 760.987 L 1644.563 761.255 L 1636.295 763.008 L 1631.354 764.145 L 1625.291 765.491 L 1620.326 766.63 L 1614.25 767.977 L 1609.068 769.151 L 1608.113 769.428 L 1599.857 771.177 L 1594.653 772.352 L 1589.616 773.498 L 1583.504 774.845 L 1578.441 775.993 L 1575.866 776.559 L 1568.969 778.053 L 1563.866 779.205 L 1557.73 780.553 L 1552.46 781.731 L 1551.31 782.025 L 1543.074 783.769 L 1537.78 784.949 L 1532.602 786.107 L 1526.432 787.456 L 1521.112 788.638 L 1519.861 788.943 L 1511.63 790.683 L 1506.287 791.866 L 1500.935 793.05 L 1499.614 793.36 L 1491.391 795.099 L 1486.016 796.284 L 1480.632 797.47 L 1475.319 798.644 L 1472.576 799.218 L 1465.617 800.712 L 1460.202 801.9 L 1454.838 803.079 L 1448.582 804.432 L 1446.624 804.847 L 1439.643 806.341 L 1434.227 807.525 L 1427.951 808.88 L 1425.946 809.298 L 1418.956 810.792 L 1413.467 811.987 L 1407.991 813.178 L 1405.137 813.761 L 1398.138 815.256 L 1392.617 816.453 L 1387.087 817.651 L 1385.005 818.077 L 1377.969 819.572 L 1371.635 820.931 L 1366.072 822.132 L 1363.941 822.563 L 1356.908 824.058 L 1351.322 825.261 L 1345.728 826.464 L 1343.913 826.832 L 1335.703 828.557 L 1330.084 829.764 L 1327.873 830.201 L 1320.821 831.697 L 1315.178 832.906 L 1309.528 834.115 L 1307.287 834.557 L 1300.209 836.054 L 1294.535 837.265 L 1292.55 837.653 L 1284.35 839.375 L 1278.651 840.589 L 1272.944 841.804 L 1270.62 842.254 L 1263.524 843.752 L 1257.793 844.97 L 1255.44 845.423 L 1248.333 846.922 L 1242.578 848.142 L 1240.195 848.598 L 1233.076 850.098 L 1227.298 851.32 L 1224.884 851.78 L 1217.754 853.28 L 1211.952 854.505 L 1209.507 854.969 L 1202.366 856.469 L 1196.54 857.697 L 1194.064 858.164 L 1186.912 859.665 L 1181.062 860.896 L 1178.554 861.366 L 1171.392 862.869 L 1165.518 864.102 L 1162.978 864.576 L 1155.805 866.079 L 1149.908 867.315 L 1147.334 867.793 L 1140.152 869.297 L 1134.23 870.536 L 1131.623 871.018 L 1124.431 872.523 L 1118.485 873.765 L 1115.844 874.251 L 1108.643 875.756 L 1102.802 876.979 L 1100.921 877.305 L 1093.688 878.812 L 1087.696 880.059 L 1085.012 880.552 L 1077.771 882.06 L 1075.055 882.556 L 1067.819 884.064 L 1061.785 885.316 L 1059.033 885.817 L 1051.967 887.295 L 1046.651 888.391 L 1043.891 888.894 L 1036.615 890.405 L 1033.821 890.911 L 1026.55 892.422 L 1020.454 893.682 L 1017.623 894.193 L 1010.557 895.666 L 1008.444 896.023 L 1001.147 897.536 L 995.012 898.801 L 992.137 899.318 L 984.834 900.832 L 978.674 902.1 L 975.57 902.67 L 969.403 903.939 L 966.484 904.462 L 959.155 905.978 L 956.199 906.506 L 949.147 907.971 L 943.627 909.096 L 940.662 909.626 L 933.309 911.144 L 930.307 911.679 L 923.25 913.142 L 917.683 914.273 L 914.67 914.811 L 907.294 916.331 L 904.243 916.872 L 897.186 918.333 L 894.803 918.729 L 887.417 920.25 L 881.109 921.538 L 878.008 922.087 L 870.951 923.544 L 868.508 923.95 L 861.1 925.473 L 857.953 926.029 L 850.909 927.483 L 845.198 928.635 L 842.039 929.193 L 834.612 930.718 L 831.397 931.294 L 825.01 932.592 L 821.804 933.156 L 814.746 934.608 L 812.174 935.034 L 804.72 936.561 L 798.288 937.867 L 795.045 938.444 L 788.604 939.749 L 785.335 940.323 L 778.268 941.773 L 775.623 942.21 L 768.132 943.742 L 764.813 944.323 L 757.764 945.768 L 755.053 946.215 L 747.557 947.747 L 744.276 948.326 L 737.757 949.643 L 734.377 950.233 L 727.334 951.675 L 721.388 952.863 L 717.993 953.456 L 710.924 954.899 L 708.127 955.36 L 700.58 956.898 L 697.263 957.48 L 690.674 958.806 L 687.217 959.409 L 680.157 960.848 L 677.28 961.322 L 669.713 962.861 L 666.372 963.445 L 659.737 964.778 L 656.213 965.391 L 649.166 966.825 L 646.206 967.313 L 639.144 968.747 L 636.176 969.236 L 628.573 970.78 L 625.201 971.365 L 618.504 972.708 L 614.902 973.333 L 607.856 974.762 L 604.801 975.266 L 597.742 976.695 L 594.677 977.201 L 587.041 978.747 L 583.638 979.335 L 576.878 980.687 L 573.468 981.275 L 566.693 982.63 L 562.998 983.27 L 555.947 984.694 L 552.779 985.217 L 548.495 985.996 L 541.683 987.356 L 537.919 988.007 L 530.901 989.424 L 527.643 989.961 L 520.613 991.379 L 517.343 991.918 L 510.302 993.336 L 507.022 993.877 L 499.968 995.296 L 496.677 995.84 L 488.961 997.395 L 485.484 997.988 L 478.578 999.362 L 475.094 999.956 L 471.215 1000.625 L 464.189 1002.037 L 460.788 1002.598 L 453.752 1004.01 L 450.339 1004.574 L 443.292 1005.986 L 439.866 1006.552 L 432.106 1008.112 L 428.587 1008.709 L 421.596 1010.095 L 418.068 1010.692 L 414.074 1011.381 L 407.063 1012.784 L 403.518 1013.37 L 396.498 1014.773 L 392.939 1015.363 L 385.91 1016.766 L 382.336 1017.358 L 378.046 1018.122 L 370.98 1019.52 L 367.414 1020.12 L 360.332 1021.521 L 356.758 1022.122 L 349.66 1023.524 L 346.079 1024.126 L 341.94 1024.839 L 334.945 1026.231 L 331.222 1026.849 L 324.219 1028.241 L 320.48 1028.862 L 313.471 1030.254 L 310.296 1030.76 L 306.105 1031.482 L 299.087 1032.874 L 295.308 1033.502 L 288.283 1034.894 L 284.486 1035.525 L 280.186 1036.282 L 272.975 1037.701 L 269.336 1038.308 L 262.108 1039.73 L 258.461 1040.337 L 251.218 1041.762 L 247.563 1042.369 L 243.909 1042.976 L 236.644 1044.404 L 232.979 1045.013 L 225.698 1046.443 L 222.024 1047.052 L 217.647 1047.806 L 210.664 1049.182 L 207.365 1049.704 L 200.046 1051.14 L 196.354 1051.751 L 191.934 1052.511 L 184.943 1053.886 L 180.88 1054.565 L 176.586 1055.31 L 170.179 1056.55 L 166.087 1057.234 L 159.09 1058.607 L 154.976 1059.294 L 150.675 1060.039 L 144.25 1061.279 L 140.106 1061.972 L 133.104 1063.343 L 128.937 1064.04 L 124.63 1064.783 L 118.189 1066.025 L 113.99 1066.728 L 109.679 1067.47 L 102.216 1068.928 L 98.45 1069.545 L 91.993 1070.787 L 87.738 1071.5 L 83.422 1072.24 L 75.92 1073.704 L 72.135 1074.323 L 68.35 1074.941 L 60.826 1076.408 L 57.03 1077.027 L 53.234 1077.646 L 45.687 1079.117 L 41.88 1079.737 L 34.317 1081.21 L 30.502 1081.831 L 26.685 1082.452 L 19.1 1083.928 L 15.273 1084.55 L 11.446 1085.172 L 3.838 1086.652 L 0 1087.275 L 79.594 1432.97 L 83.367 1432.093 L 90.908 1430.342 L 94.674 1429.467 L 98.439 1428.593 L 105.962 1426.846 L 109.72 1425.973 L 113.476 1425.1 L 120.982 1423.357 L 124.732 1422.486 L 132.224 1420.746 L 135.967 1419.877 L 139.708 1419.008 L 147.183 1417.272 L 150.918 1416.405 L 154.65 1415.538 L 162.108 1413.806 L 165.833 1412.941 L 169.557 1412.076 L 176.997 1410.348 L 180.714 1409.485 L 188.142 1407.76 L 191.852 1406.898 L 195.561 1406.036 L 202.971 1404.315 L 206.673 1403.456 L 210.372 1402.596 L 217.765 1400.879 L 221.459 1400.022 L 228.839 1398.308 L 232.525 1397.451 L 236.21 1396.596 L 243.573 1394.886 L 247.251 1394.031 L 254.601 1392.324 L 258.272 1391.472 L 261.942 1390.619 L 269.274 1388.916 L 272.937 1388.065 L 276.598 1387.215 L 283.913 1385.516 L 287.568 1384.667 L 294.87 1382.971 L 298.518 1382.124 L 302.164 1381.277 L 309.449 1379.585 L 313.089 1378.74 L 320.361 1377.051 L 323.994 1376.207 L 327.625 1375.364 L 334.88 1373.678 L 338.504 1372.837 L 345.746 1371.154 L 349.364 1370.314 L 356.594 1368.635 L 360.205 1367.796 L 363.815 1366.958 L 371.027 1365.282 L 374.63 1364.445 L 381.829 1362.773 L 385.426 1361.938 L 389.02 1361.103 L 396.202 1359.434 L 399.79 1358.601 L 406.96 1356.936 L 410.541 1356.104 L 417.698 1354.441 L 421.273 1353.611 L 424.846 1352.781 L 431.986 1351.122 L 435.552 1350.294 L 442.679 1348.638 L 446.239 1347.811 L 453.353 1346.158 L 456.907 1345.333 L 460.459 1344.508 L 467.556 1342.859 L 471.101 1342.035 L 478.185 1340.39 L 481.724 1339.568 L 488.796 1337.925 L 492.328 1337.104 L 495.859 1336.284 L 502.913 1334.645 L 506.437 1333.826 L 513.479 1332.19 L 516.997 1331.373 L 524.026 1329.74 L 527.537 1328.924 L 534.553 1327.294 L 538.058 1326.479 L 545.062 1324.852 L 548.56 1324.039 L 552.057 1323.227 L 559.043 1321.603 L 562.534 1320.792 L 569.508 1319.172 L 572.991 1318.362 L 579.953 1316.745 L 583.43 1315.937 L 590.379 1314.322 L 593.85 1313.515 L 600.786 1311.904 L 604.25 1311.098 L 611.174 1309.49 L 614.632 1308.686 L 621.543 1307.08 L 624.995 1306.277 L 628.445 1305.476 L 635.338 1303.873 L 638.782 1303.073 L 645.663 1301.474 L 649.1 1300.675 L 655.969 1299.078 L 659.4 1298.281 L 666.256 1296.687 L 669.681 1295.891 L 676.524 1294.301 L 679.942 1293.506 L 686.773 1291.918 L 690.185 1291.125 L 697.003 1289.54 L 700.409 1288.748 L 707.214 1287.166 L 710.614 1286.376 L 717.407 1284.797 L 720.8 1284.008 L 727.58 1282.431 L 730.967 1281.644 L 737.735 1280.07 L 741.116 1279.284 L 747.871 1277.713 L 751.245 1276.929 L 757.988 1275.361 L 761.356 1274.577 L 768.086 1273.012 L 771.448 1272.231 L 778.166 1270.668 L 781.521 1269.888 L 788.226 1268.328 L 791.576 1267.549 L 798.268 1265.993 L 804.953 1264.438 L 808.292 1263.661 L 814.963 1262.109 L 818.296 1261.334 L 824.955 1259.785 L 828.282 1259.011 L 834.928 1257.465 L 838.249 1256.692 L 844.883 1255.149 L 848.197 1254.378 L 854.819 1252.837 L 858.126 1252.067 L 864.736 1250.529 L 868.037 1249.761 L 874.634 1248.226 L 881.223 1246.693 L 884.514 1245.927 L 891.09 1244.396 L 894.375 1243.631 L 900.939 1242.104 L 904.218 1241.34 L 910.769 1239.815 L 914.042 1239.054 L 920.58 1237.531 L 927.111 1236.011 L 930.373 1235.251 L 936.892 1233.734 L 940.148 1232.975 L 946.653 1231.46 L 949.903 1230.704 L 956.397 1229.191 L 962.882 1227.681 L 966.122 1226.927 L 972.594 1225.419 L 975.828 1224.666 L 982.288 1223.161 L 985.515 1222.409 L 991.964 1220.907 L 998.404 1219.406 L 1001.62 1218.657 L 1008.048 1217.159 L 1011.259 1216.411 L 1017.674 1214.916 L 1024.081 1213.423 L 1027.282 1212.677 L 1033.676 1211.186 L 1036.871 1210.442 L 1043.253 1208.954 L 1046.441 1208.21 L 1052.811 1206.725 L 1059.173 1205.242 L 1062.351 1204.501 L 1068.701 1203.02 L 1075.042 1201.541 L 1078.21 1200.802 L 1084.539 1199.326 L 1087.701 1198.589 L 1094.018 1197.115 L 1100.327 1195.643 L 1103.478 1194.908 L 1109.775 1193.439 L 1112.92 1192.705 L 1119.204 1191.238 L 1125.48 1189.773 L 1128.615 1189.042 L 1134.879 1187.579 L 1141.135 1186.119 L 1144.26 1185.389 L 1150.504 1183.931 L 1153.622 1183.203 L 1159.854 1181.748 L 1166.077 1180.294 L 1169.186 1179.568 L 1175.397 1178.117 L 1181.6 1176.668 L 1184.698 1175.944 L 1190.889 1174.498 L 1197.071 1173.053 L 1200.16 1172.331 L 1206.33 1170.889 L 1212.493 1169.448 L 1215.571 1168.728 L 1221.721 1167.29 L 1227.863 1165.854 L 1230.931 1165.136 L 1237.061 1163.703 L 1243.183 1162.271 L 1246.241 1161.555 L 1252.351 1160.126 L 1258.453 1158.698 L 1261.501 1157.984 L 1267.59 1156.559 L 1273.672 1155.135 L 1276.71 1154.424 L 1282.779 1153.003 L 1288.841 1151.583 L 1291.869 1150.874 L 1297.918 1149.457 L 1303.959 1148.042 L 1306.977 1147.335 L 1313.006 1145.922 L 1319.028 1144.511 L 1322.035 1143.806 L 1328.044 1142.397 L 1334.046 1140.99 L 1337.043 1140.287 L 1343.032 1138.882 L 1349.013 1137.479 L 1354.987 1136.077 L 1357.97 1135.377 L 1363.931 1133.978 L 1369.884 1132.581 L 1372.858 1131.883 L 1378.799 1130.488 L 1384.732 1129.094 L 1390.657 1127.703 L 1393.617 1127.007 L 1399.53 1125.618 L 1405.435 1124.23 L 1408.385 1123.537 L 1414.278 1122.151 L 1420.163 1120.767 L 1426.04 1119.385 L 1428.976 1118.695 L 1434.841 1117.315 L 1440.699 1115.936 L 1446.548 1114.56 L 1449.47 1113.872 L 1455.307 1112.497 L 1461.137 1111.124 L 1466.958 1109.753 L 1469.866 1109.068 L 1475.676 1107.699 L 1481.478 1106.331 L 1487.271 1104.965 L 1490.165 1104.283 L 1495.947 1102.919 L 1501.721 1101.557 L 1507.488 1100.196 L 1510.368 1099.516 L 1516.122 1098.158 L 1521.868 1096.801 L 1527.607 1095.445 L 1533.337 1094.091 L 1536.2 1093.415 L 1541.918 1092.063 L 1547.629 1090.713 L 1553.332 1089.364 L 1559.027 1088.017 L 1561.872 1087.344 L 1567.555 1085.999 L 1573.23 1084.655 L 1578.898 1083.313 L 1581.729 1082.642 L 1587.384 1081.302 L 1593.032 1079.963 L 1598.672 1078.626 L 1604.304 1077.29 L 1609.929 1075.956 L 1612.738 1075.289 L 1618.35 1073.957 L 1623.955 1072.626 L 1629.552 1071.296 L 1635.141 1069.968 L 1637.933 1069.305 L 1643.51 1067.979 L 1649.08 1066.654 L 1654.641 1065.331 L 1660.195 1064.009 L 1665.741 1062.688 L 1668.511 1062.029 L 1674.046 1060.71 L 1679.572 1059.393 L 1685.091 1058.077 L 1690.602 1056.763 L 1696.105 1055.45 L 1701.601 1054.138 L 1704.346 1053.482 L 1709.83 1052.172 L 1715.306 1050.864 L 1720.774 1049.556 L 1726.234 1048.251 L 1731.687 1046.946 L 1737.132 1045.642 L 1739.852 1044.991 L 1745.285 1043.69 L 1750.711 1042.389 L 1756.128 1041.09 L 1761.539 1039.793 L 1766.941 1038.496 L 1772.336 1037.201 L 1777.723 1035.907 L 1783.102 1034.614 L 1785.788 1033.968 L 1791.156 1032.677 L 1796.516 1031.387 L 1801.868 1030.098 L 1807.213 1028.811 L 1812.55 1027.525 L 1817.879 1026.24 L 1823.2 1024.956 L 1828.514 1023.673 L 1833.82 1022.391 L 1839.118 1021.111 L 1841.765 1020.471 L 1847.052 1019.192 L 1852.331 1017.915 L 1857.602 1016.638 L 1862.866 1015.363 L 1868.123 1014.088 L 1873.371 1012.815 L 1878.612 1011.543 L 1883.845 1010.272 L 1889.071 1009.002 L 1894.289 1007.733 L 1899.499 1006.465 L 1904.702 1005.198 L 1909.897 1003.933 L 1915.085 1002.668 L 1920.265 1001.404 L 1925.437 1000.141 L 1930.602 998.88 L 1935.759 997.619 L 1940.908 996.359 L 1946.05 995.1 L 1951.184 993.843 L 1956.311 992.586 L 1958.871 991.958 L 1963.987 990.702 L 1969.094 989.448 L 1974.195 988.194 L 1979.287 986.942 L 1984.372 985.69 L 1989.45 984.439 L 1997.052 982.565 L 2002.11 981.316 L 2007.161 980.068 L 2012.205 978.821 L 2017.241 977.575 L 2022.269 976.33 L 2027.29 975.086 L 2032.303 973.842 L 2037.309 972.599 L 2042.307 971.358 L 2047.298 970.116 L 2052.282 968.876 L 2057.257 967.636 L 2062.226 966.398 L 2067.186 965.16 L 2072.14 963.922 L 2077.086 962.686 L 2082.024 961.45 L 2086.955 960.215 L 2091.878 958.98 L 2096.794 957.746 L 2101.702 956.513 L 2109.051 954.665 L 2113.941 953.433 L 2118.823 952.202 L 2123.698 950.972 L 2128.565 949.743 L 2133.425 948.514 L 2138.278 947.285 L 2143.123 946.057 L 2147.96 944.83 L 2152.791 943.603 L 2160.022 941.764 L 2164.834 940.539 L 2169.638 939.314 L 2174.435 938.09 L 2179.224 936.866 L 2184.007 935.643 L 2188.781 934.42 L 2193.549 933.197 L 2200.686 931.365 L 2205.434 930.143 L 2210.176 928.922 L 2214.91 927.702 L 2219.637 926.482 L 2224.356 925.262 L 2229.068 924.043 L 2236.122 922.214 L 2240.816 920.996 L 2245.502 919.778 L 2250.181 918.56 L 2254.853 917.342 L 2261.846 915.517 L 2266.5 914.3 L 2271.146 913.083 L 2275.784 911.867 L 2280.416 910.651 L 2287.349 908.827 L 2291.962 907.611 L 2296.568 906.396 L 2301.166 905.18 L 2305.757 903.965 L 2312.631 902.143 L 2317.204 900.928 L 2321.769 899.713 L 2326.328 898.498 L 2333.152 896.676 L 2337.692 895.462 L 2342.225 894.247 L 2346.751 893.033 L 2353.526 891.211 L 2358.033 889.997 L 2362.534 888.782 L 2367.027 887.568 L 2373.753 885.746 L 2378.228 884.531 L 2382.696 883.316 L 2387.157 882.102 L 2393.835 880.279 L 2398.277 879.064 L 2402.713 877.848 L 2409.353 876.025 L 2413.77 874.809 L 2418.18 873.593 L 2424.782 871.768 L 2429.175 870.551 L 2433.56 869.334 L 2440.124 867.508 L 2444.492 866.29 L 2448.852 865.072 L 2455.379 863.244 L 2459.721 862.025 L 2464.056 860.806 L 2470.545 858.976 L 2474.862 857.756 L 2479.173 856.535 L 2485.625 854.703 L 2489.917 853.481 L 2494.202 852.258 L 2500.617 850.423 L 2504.884 849.199 L 2511.272 847.362 L 2515.522 846.137 L 2519.765 844.911 L 2526.115 843.071 L 2530.34 841.843 L 2536.664 840.001 L 2540.872 838.772 L 2547.169 836.926 L 2551.359 835.695 L 2555.542 834.464 L 2561.802 832.614 L 2565.967 831.381 L 2572.202 829.529 L 2576.349 828.293 L 2582.557 826.437 L 2586.687 825.199 L 2592.868 823.341 L 2596.981 822.1 L 2603.136 820.238 L 2607.231 818.995 L 2613.36 817.129 L 2617.437 815.884 L 2623.54 814.014 L 2627.6 812.766 L 2633.676 810.893 L 2637.719 809.642 L 2643.769 807.764 L 2647.794 806.51 L 2653.819 804.628 L 2657.826 803.371 L 2663.825 801.484 L 2667.815 800.225 L 2673.787 798.333 L 2679.744 796.438 L 2683.706 795.173 L 2689.637 793.274 L 2693.582 792.005 L 2699.487 790.1 L 2703.415 788.829 L 2709.294 786.918 L 2715.158 785.005 L 2719.058 783.727 L 2724.896 781.808 L 2730.718 779.885 L 2734.591 778.601 L 2740.387 776.672 L 2744.243 775.384 L 2750.013 773.449 L 2755.769 771.511 L 2759.597 770.216 L 2765.327 768.271 L 2771.041 766.322 L 2774.842 765.02 L 2780.53 763.064 L 2786.203 761.104 L 2791.861 759.14 L 2795.625 757.829 L 2801.257 755.857 L 2806.874 753.882 L 2810.61 752.562 L 2816.202 750.579 L 2821.778 748.592 L 2827.339 746.599 L 2831.038 745.269 L 2836.574 743.269 L 2842.094 741.264 L 2847.599 739.254 L 2853.089 737.24 L 2856.741 735.894 L 2862.205 733.871 L 2867.655 731.844 L 2873.089 729.811 L 2878.509 727.772 L 2882.113 726.411 L 2887.507 724.364 L 2892.886 722.311 L 2898.25 720.253 L 2903.599 718.19 L 2908.933 716.121 L 2914.251 714.046 L 2919.555 711.966 L 2923.082 710.576 L 2928.361 708.486 L 2933.625 706.39 L 2938.873 704.288 L 2944.107 702.181 L 2949.326 700.067 L 2954.53 697.947 L 2959.718 695.821 L 2964.892 693.689 L 2970.051 691.55 L 2975.195 689.405 L 2980.325 687.253 L 2985.439 685.095 L 2990.539 682.931 L 2995.623 680.76 L 3000.693 678.582 L 3005.748 676.397 L 3010.788 674.206 L 3015.814 672.008 L 3020.824 669.802 L 3025.82 667.59 L 3030.801 665.371 L 3035.768 663.145 L 3040.719 660.911 L 3045.656 658.67 L 3052.216 655.671 L 3057.118 653.413 L 3062.006 651.148 L 3066.88 648.875 L 3071.738 646.595 L 3076.582 644.307 L 3083.018 641.245 L 3087.828 638.939 L 3092.624 636.625 L 3097.404 634.303 L 3102.171 631.974 L 3108.503 628.855 L 3113.235 626.507 L 3117.953 624.151 L 3122.656 621.787 L 3128.904 618.621 L 3133.574 616.237 L 3138.229 613.845 L 3142.869 611.445 L 3149.034 608.231 L 3153.641 605.811 L 3158.234 603.382 L 3164.334 600.13 L 3168.893 597.681 L 3174.949 594.402 L 3179.475 591.932 L 3183.986 589.454 L 3189.978 586.135 L 3194.456 583.635 L 3200.404 580.289 L 3204.848 577.768 L 3210.752 574.392 L 3215.163 571.85 L 3221.022 568.446 L 3225.4 565.882 L 3231.215 562.448 L 3235.56 559.862 L 3241.331 556.399 L 3245.643 553.79 L 3251.37 550.297 L 3255.649 547.666 L 3261.332 544.142 L 3266.99 540.601 L 3271.218 537.934 L 3276.832 534.361 L 3282.422 530.772 L 3286.597 528.067 L 3292.143 524.446 L 3297.664 520.806 L 3301.789 518.065 L 3307.266 514.393 L 3312.719 510.703 L 3318.147 506.994 L 3323.551 503.267 L 3327.587 500.459 L 3332.947 496.698 L 3338.283 492.919 L 3343.594 489.12 L 3348.881 485.302 L 3354.143 481.465 L 3359.38 477.609 L 3364.593 473.733 L 3368.487 470.813 L 3373.657 466.902 L 3378.803 462.971 L 3383.925 459.021 L 3390.293 454.055 L 3395.36 450.059 L 3400.403 446.043 L 3405.421 442.007 L 3410.416 437.95 L 3415.386 433.872 L 3420.333 429.774 L 3425.255 425.655 L 3431.374 420.477 L 3436.242 416.311 L 3441.086 412.123 L 3445.907 407.915 L 3451.899 402.624 L 3456.665 398.367 L 3461.408 394.089 L 3467.304 388.711 L 3467.131 385.352 L 3466.958 381.982 L 3466.786 378.602 L 3466.615 375.211 L 3466.445 371.81 L 3466.275 368.398 L 3466.106 364.976 L 3465.937 361.543 L 3465.769 358.1 L 3465.602 354.646 L 3465.436 351.182 L 3465.27 347.707 L 3465.105 344.222 L 3464.941 340.726 L 3464.777 337.219 L 3464.614 333.702 L 3464.452 330.175 L 3464.29 326.636 L 3464.129 323.087 L 3463.969 319.528 L 3463.809 315.958 L 3463.65 312.377 L 3463.578 310.752 L 3482.255 312.408 L 3480.538 271.99 L 3462.069 275.224 L 3443.59 278.4 L 3441.917 235.852 L 3460.588 237.567 L 3479.254 239.34 L 3477.636 194.651 L 3459.147 197.77 L 3440.65 200.837 L 3439.351 162.037 L 3458.012 163.861 L 3476.668 165.738 L 3475.172 116.954 L 3456.666 119.97 L 3438.152 122.937 L 3436.962 80.438 L 3455.613 82.364 L 3455.495 77.935 L 3455.383 73.698 L 3455.272 69.45 L 3455.162 65.191 L 3455.053 60.922 L 3454.944 56.641 L 3454.837 52.35 L 3454.73 48.047 L 3454.624 43.734 L 3454.519 39.41 L 3454.414 35.075 L 3454.311 30.729 L 3454.208 26.372 L 3454.107 22.004 L 3454.006 17.625 L 3453.905 13.235 L 3453.806 8.834 L 3453.708 4.423 L 3453.61 0 Z" vector-effect="non-scaling-stroke"/><g id="captions"><text alignment-baseline="middle" text-anchor="middle" transform="rotate(0,1742.973,891.316)" x="1742.973" y="891.316">WIND, 1, 1</text></g></g></svg>