<svg width="97.837" height="182.159" viewBox="0 0 97.837 182.159" xmlns="http://www.w3.org/2000/svg"><g id="svgGroup" stroke-linecap="round" fill-rule="evenodd" font-size="9pt" stroke="#000" stroke-width="0.25mm" fill="none" style="stroke:#000;stroke-width:0.25mm;fill:none"><path d="M 97.827 0.728 L 96.138 0.682 L 94.876 0.649 L 94.036 0.627 L 92.78 0.596 L 91.527 0.565 L 90.694 0.545 L 89.447 0.515 L 88.205 0.487 L 87.378 0.468 L 86.142 0.441 L 84.909 0.415 L 84.089 0.398 L 82.862 0.373 L 81.638 0.349 L 80.825 0.333 L 79.607 0.31 L 78.393 0.288 L 77.183 0.267 L 76.378 0.254 L 75.174 0.234 L 73.973 0.215 L 72.775 0.197 L 71.979 0.185 L 70.787 0.169 L 69.599 0.153 L 68.414 0.138 L 67.233 0.123 L 66.447 0.114 L 65.271 0.101 L 64.099 0.089 L 62.93 0.078 L 61.764 0.067 L 60.602 0.057 L 59.829 0.051 L 58.672 0.043 L 57.518 0.035 L 56.368 0.028 L 55.221 0.022 L 54.077 0.016 L 52.937 0.012 L 51.799 0.008 L 51.043 0.006 L 49.911 0.003 L 48.782 0.001 L 47.656 0 L 46.533 0 L 45.414 0 L 44.297 0.002 L 43.184 0.004 L 42.074 0.006 L 40.966 0.01 L 39.862 0.014 L 38.761 0.019 L 37.663 0.025 L 36.568 0.031 L 35.475 0.038 L 34.386 0.046 L 33.3 0.055 L 32.216 0.064 L 31.136 0.074 L 30.058 0.085 L 28.984 0.096 L 27.912 0.109 L 26.487 0.126 L 25.422 0.14 L 24.36 0.154 L 23.3 0.17 L 22.243 0.186 L 21.189 0.202 L 20.138 0.22 L 19.09 0.238 L 17.696 0.263 L 16.653 0.283 L 15.614 0.303 L 14.577 0.324 L 13.543 0.346 L 12.168 0.376 L 11.14 0.4 L 10.114 0.424 L 9.092 0.448 L 8.071 0.474 L 6.715 0.509 L 5.7 0.536 L 4.688 0.563 L 3.679 0.592 L 3.68 1.16 L 3.681 1.727 L 3.682 2.294 L 3.683 2.86 L 3.684 3.426 L 3.685 3.991 L 3.686 4.556 L 3.688 5.12 L 3.689 5.683 L 3.69 6.246 L 3.692 6.809 L 3.693 7.37 L 3.695 7.931 L 3.695 8.17 L 0 7.531 L 0.031 16.907 L 3.722 16.243 L 7.412 15.575 L 7.449 23.636 L 3.753 23.001 L 0.056 22.371 L 0.108 31.31 L 3.797 30.637 L 7.485 29.96 L 7.547 38.672 L 3.849 38.047 L 0.151 37.427 L 0.232 46.953 L 3.919 46.271 L 3.924 46.811 L 3.929 47.33 L 3.934 47.849 L 3.939 48.366 L 3.944 48.884 L 3.949 49.4 L 3.955 49.916 L 3.96 50.432 L 3.965 50.947 L 3.97 51.461 L 3.976 51.975 L 3.981 52.488 L 3.986 53 L 3.992 53.513 L 3.997 54.024 L 4.003 54.535 L 4.03 54.534 L 4.046 56.063 L 4.062 57.587 L 4.079 59.106 L 4.096 60.62 L 4.114 62.128 L 4.132 63.631 L 4.15 65.13 L 4.169 66.623 L 4.188 68.11 L 4.208 69.593 L 4.248 72.517 L 7.931 71.81 L 8.056 80.233 L 4.354 79.637 L 0.651 79.047 L 0.786 87.213 L 4.468 86.501 L 8.148 85.782 L 8.292 93.691 L 4.588 93.107 L 0.883 92.531 L 1.093 102.922 L 4.772 102.196 L 8.449 101.463 L 8.613 108.808 L 4.907 108.239 L 1.199 107.678 L 1.435 117.395 L 5.111 116.654 L 8.786 115.905 L 8.966 122.689 L 5.257 122.136 L 1.547 121.591 L 1.805 130.636 L 5.478 129.88 L 9.149 129.114 L 9.419 137.795 L 5.707 137.259 L 1.994 136.734 L 2.358 147.435 L 6.027 146.659 L 9.693 145.871 L 9.987 153.767 L 6.272 153.254 L 2.556 152.751 L 2.949 162.541 L 6.613 161.742 L 10.274 160.931 L 10.583 168.05 L 6.865 167.559 L 6.903 168.414 L 6.953 169.501 L 7.002 170.583 L 7.052 171.66 L 7.102 172.732 L 7.153 173.799 L 7.203 174.861 L 7.254 175.918 L 7.306 176.971 L 7.358 178.018 L 7.41 179.061 L 7.462 180.098 L 7.515 181.131 L 7.568 182.159 L 8.507 181.293 L 9.305 180.428 L 10.768 179.326 L 11.398 178.453 L 12.676 177.345 L 13.465 176.459 L 14.723 175.339 L 15.659 174.438 L 16.632 173.31 L 17.86 172.171 L 18.637 171.258 L 19.74 170.109 L 21.065 168.945 L 21.709 168.018 L 22.791 166.848 L 23.867 165.671 L 24.934 164.486 L 25.995 163.295 L 27.048 162.095 L 28.094 160.889 L 29.237 159.672 L 30.165 158.451 L 31.19 157.221 L 32.207 155.984 L 33.217 154.74 L 34.22 153.488 L 35.159 152.229 L 36.401 150.707 L 37.381 149.43 L 38.303 148.146 L 39.512 146.594 L 40.423 145.292 L 41.61 143.719 L 42.508 142.401 L 43.673 140.807 L 44.56 139.47 L 45.664 137.855 L 46.797 136.229 L 47.664 134.864 L 48.741 133.217 L 49.807 131.557 L 50.864 129.885 L 51.841 128.203 L 52.948 126.507 L 53.975 124.8 L 54.969 123.08 L 56.167 121.058 L 57.164 119.312 L 58.131 117.554 L 59.29 115.486 L 60.19 113.702 L 61.354 111.604 L 62.473 109.488 L 63.392 107.661 L 64.471 105.513 L 65.537 103.348 L 66.556 101.166 L 67.62 98.967 L 68.804 96.431 L 69.817 94.194 L 70.809 91.938 L 71.912 89.339 L 73.056 86.717 L 74.009 84.402 L 75.09 81.735 L 76.132 79.044 L 77.334 75.989 L 78.365 73.247 L 79.375 70.481 L 80.486 67.34 L 81.601 64.168 L 82.683 60.965 L 83.737 57.731 L 84.786 54.465 L 85.921 50.799 L 87.026 47.094 L 88.117 43.349 L 89.285 39.184 L 90.317 35.355 L 91.432 31.097 L 92.612 26.396 L 93.662 22.034 L 94.778 17.22 L 95.947 11.937 L 97.837 2.836 L 97.837 2.817 L 97.836 2.798 L 97.836 2.779 L 97.836 2.759 L 97.836 2.74 L 97.836 2.721 L 97.836 2.701 L 97.835 2.682 L 97.835 2.663 L 97.835 2.643 L 97.835 2.624 L 97.835 2.604 L 97.834 2.584 L 97.834 2.565 L 97.834 2.545 L 97.834 2.525 L 97.834 2.506 L 97.834 2.486 L 97.834 2.466 L 97.833 2.446 L 97.833 2.426 L 97.833 2.406 L 97.833 2.386 L 97.833 2.366 L 97.833 2.346 L 97.832 2.326 L 97.832 2.306 L 97.832 2.286 L 97.832 2.266 L 97.832 2.245 L 97.832 2.225 L 97.832 2.205 L 97.832 2.184 L 97.831 2.164 L 97.831 2.143 L 97.831 2.123 L 97.831 2.102 L 97.831 2.082 L 97.831 2.061 L 97.831 2.04 L 97.831 2.02 L 97.83 1.999 L 97.83 1.978 L 97.83 1.957 L 97.83 1.936 L 97.83 1.916 L 97.83 1.895 L 97.83 1.874 L 97.83 1.853 L 97.83 1.832 L 97.83 1.81 L 97.83 1.789 L 97.829 1.768 L 97.829 1.747 L 97.829 1.726 L 97.829 1.704 L 97.829 1.683 L 97.829 1.662 L 97.829 1.64 L 97.829 1.619 L 97.829 1.597 L 97.829 1.576 L 97.829 1.554 L 97.829 1.532 L 97.828 1.511 L 97.828 1.489 L 97.828 1.467 L 97.828 1.446 L 97.828 1.424 L 97.828 1.402 L 97.828 1.38 L 97.828 1.358 L 97.828 1.336 L 97.828 1.314 L 97.828 1.292 L 97.828 1.27 L 97.828 1.248 L 97.828 1.226 L 97.828 1.203 L 97.828 1.181 L 97.828 1.159 L 97.828 1.136 L 97.828 1.114 L 97.828 1.092 L 97.828 1.069 L 97.828 1.047 L 97.828 1.024 L 97.827 1.002 L 97.827 0.979 L 97.827 0.956 L 97.827 0.934 L 97.827 0.911 L 97.827 0.888 L 97.827 0.865 L 97.827 0.842 L 97.827 0.82 L 97.827 0.797 L 97.827 0.774 L 97.827 0.751 L 97.827 0.728 Z" vector-effect="non-scaling-stroke"/><g id="captions"><text alignment-baseline="middle" text-anchor="middle" transform="rotate(0,50.387,64.944)" x="50.387" y="64.944">WIND, 0, 0</text></g></g></svg>