<svg width="696.433" height="286.594" viewBox="0 0 696.433 286.594" xmlns="http://www.w3.org/2000/svg"><g id="svgGroup" stroke-linecap="round" fill-rule="evenodd" font-size="9pt" stroke="#000" stroke-width="0.25mm" fill="none" style="stroke:#000;stroke-width:0.25mm;fill:none"><path d="M 690.722 0 L 689.458 1.2 L 688.47 2.231 L 687.494 3.248 L 686.241 4.407 L 685.249 5.401 L 684.268 6.383 L 683.19 7.396 L 681.971 8.471 L 681.027 9.422 L 679.949 10.405 L 678.896 11.341 L 677.905 12.267 L 676.827 13.224 L 675.767 14.136 L 674.772 15.038 L 673.499 16.083 L 672.485 16.971 L 671.406 17.891 L 670.332 18.767 L 669.482 19.563 L 668.321 20.43 L 667.313 21.285 L 666.233 22.172 L 665.147 23.018 L 664.067 23.894 L 662.975 24.728 L 661.894 25.592 L 661.028 26.307 L 659.869 27.163 L 658.767 27.977 L 657.684 28.82 L 656.576 29.623 L 655.745 30.346 L 654.485 31.181 L 653.369 31.971 L 652.543 32.68 L 651.324 33.465 L 650.236 34.274 L 649.359 34.938 L 648.185 35.741 L 647.009 36.54 L 646.129 37.192 L 644.95 37.982 L 644.046 38.661 L 642.795 39.413 L 641.981 40.079 L 640.723 40.825 L 639.911 41.483 L 638.614 42.254 L 637.724 42.877 L 636.532 43.635 L 635.63 44.283 L 634.322 45.04 L 633.427 45.649 L 632.228 46.392 L 631.327 47.026 L 630.31 47.631 L 629.107 48.364 L 628.205 48.988 L 626.878 49.72 L 625.972 50.307 L 625.071 50.92 L 623.735 51.643 L 622.834 52.25 L 621.798 52.832 L 620.897 53.433 L 619.55 54.143 L 618.648 54.737 L 617.618 55.337 L 616.57 55.905 L 615.342 56.595 L 614.439 57.178 L 613.404 57.766 L 612.369 58.351 L 611.332 58.933 L 609.957 59.589 L 609.166 60.15 L 608.125 60.724 L 607.083 61.296 L 606.04 61.864 L 604.996 62.431 L 603.597 63.072 L 602.806 63.616 L 601.758 64.175 L 600.708 64.731 L 599.656 65.284 L 598.604 65.836 L 597.55 66.384 L 596.495 66.931 L 595.438 67.475 L 594.337 67.994 L 593.427 68.523 L 592.365 69.06 L 591.303 69.595 L 590.239 70.127 L 589.173 70.657 L 588.106 71.185 L 587.037 71.711 L 585.967 72.234 L 584.895 72.756 L 583.822 73.275 L 582.747 73.792 L 581.67 74.307 L 580.592 74.82 L 579.455 75.312 L 578.533 75.809 L 577.958 76.203 L 576.591 76.73 L 575.505 77.233 L 574.416 77.734 L 573.326 78.233 L 572.234 78.73 L 571.14 79.225 L 570.045 79.718 L 569.473 80.096 L 568.082 80.609 L 566.981 81.097 L 565.878 81.582 L 564.774 82.066 L 564.202 82.434 L 562.796 82.94 L 561.687 83.419 L 560.575 83.896 L 559.389 84.358 L 558.989 84.702 L 557.568 85.2 L 556.449 85.67 L 555.327 86.139 L 554.755 86.491 L 553.323 86.983 L 552.195 87.447 L 551.622 87.794 L 550.181 88.282 L 549.048 88.741 L 547.912 89.199 L 547.337 89.539 L 545.885 90.022 L 544.743 90.476 L 544.166 90.81 L 542.626 91.281 L 541.657 91.713 L 541.078 92.043 L 539.609 92.519 L 539.029 92.846 L 537.555 93.321 L 536.397 93.763 L 535.814 94.085 L 534.332 94.556 L 533.167 94.994 L 532.443 95.31 L 531.19 95.754 L 530.602 96.07 L 529.107 96.535 L 528.517 96.848 L 527.016 97.312 L 525.836 97.741 L 525.102 98.049 L 523.833 98.485 L 523.238 98.791 L 521.724 99.25 L 521.126 99.553 L 519.607 100.011 L 518.864 100.312 L 517.582 100.742 L 516.978 101.04 L 515.45 101.494 L 514.843 101.79 L 513.225 102.239 L 512.799 102.512 L 511.261 102.962 L 510.648 103.253 L 509.105 103.702 L 508.347 103.994 L 507.04 104.415 L 506.421 104.702 L 504.868 105.148 L 504.103 105.436 L 502.787 105.853 L 502.161 106.136 L 501.064 106.459 L 499.742 106.874 L 499.11 107.154 L 497.458 107.594 L 497.006 107.85 L 495.432 108.289 L 494.651 108.571 L 493.926 108.856 L 492.345 109.294 L 491.559 109.573 L 490.215 109.981 L 489.566 110.253 L 488.45 110.569 L 487.099 110.975 L 486.443 111.244 L 485.323 111.559 L 483.964 111.963 L 483.164 112.236 L 482.416 112.513 L 480.733 112.946 L 480.245 113.187 L 479.252 113.491 L 477.563 113.923 L 477.067 114.161 L 475.934 114.471 L 474.553 114.87 L 473.737 115.138 L 472.969 115.409 L 471.27 115.838 L 470.759 116.072 L 469.616 116.38 L 468.221 116.776 L 467.393 117.041 L 466.612 117.308 L 465.464 117.614 L 463.987 118.01 L 463.457 118.24 L 462.305 118.545 L 461.511 118.809 L 459.794 119.235 L 459.253 119.462 L 458.095 119.766 L 457.167 120.037 L 455.743 120.428 L 454.891 120.688 L 453.958 120.958 L 453.145 121.218 L 451.416 121.642 L 450.73 121.875 L 449.91 122.134 L 448.739 122.435 L 447.795 122.703 L 446.349 123.091 L 445.479 123.347 L 444.529 123.614 L 443.577 123.881 L 442.739 124.138 L 440.997 124.56 L 440.286 124.789 L 439.327 125.055 L 438.479 125.31 L 437.293 125.608 L 435.765 125.996 L 435.042 126.224 L 434.074 126.488 L 433.212 126.742 L 432.02 127.038 L 431.046 127.302 L 430.07 127.565 L 428.529 127.952 L 427.789 128.178 L 426.912 128.431 L 425.711 128.726 L 424.726 128.988 L 423.738 129.25 L 422.749 129.512 L 421.758 129.774 L 420.202 130.16 L 419.442 130.384 L 418.445 130.645 L 417.447 130.906 L 416.446 131.167 L 415.443 131.428 L 414.439 131.688 L 413.433 131.948 L 412.425 132.209 L 411.415 132.469 L 409.84 132.853 L 409.056 133.076 L 408.04 133.336 L 407.022 133.595 L 406.002 133.855 L 404.98 134.114 L 403.957 134.373 L 402.931 134.633 L 401.904 134.892 L 400.874 135.151 L 399.843 135.41 L 398.81 135.668 L 397.774 135.927 L 396.737 136.186 L 395.698 136.444 L 394.657 136.703 L 393.514 136.975 L 392.69 137.196 L 391.644 137.455 L 390.595 137.713 L 389.544 137.971 L 388.492 138.23 L 386.839 138.617 L 386.159 138.811 L 385.1 139.069 L 384.039 139.327 L 382.976 139.585 L 381.82 139.856 L 380.969 140.078 L 380.769 140.16 L 379.179 140.505 L 378.107 140.763 L 376.947 141.034 L 376.082 141.255 L 375.004 141.513 L 373.924 141.771 L 372.761 142.041 L 371.885 142.263 L 370.8 142.521 L 369.632 142.791 L 368.75 143.013 L 367.658 143.271 L 366.488 143.541 L 365.597 143.763 L 364.5 144.021 L 363.326 144.291 L 362.428 144.513 L 361.324 144.772 L 360.147 145.041 L 359.242 145.264 L 358.132 145.523 L 356.951 145.792 L 356.881 145.84 L 355.216 146.194 L 354.297 146.417 L 353.178 146.676 L 351.993 146.945 L 351.067 147.169 L 349.879 147.438 L 348.948 147.662 L 347.758 147.931 L 346.822 148.155 L 345.689 148.415 L 345.223 148.526 L 343.916 148.817 L 342.722 149.086 L 341.772 149.311 L 340.576 149.58 L 339.621 149.805 L 338.422 150.074 L 337.462 150.3 L 336.26 150.569 L 336.118 150.621 L 334.462 150.972 L 333.492 151.198 L 332.287 151.467 L 331.311 151.694 L 330.104 151.963 L 329.079 152.197 L 328.913 152.251 L 327.259 152.602 L 326.271 152.829 L 325.058 153.098 L 324.065 153.326 L 322.85 153.595 L 321.814 153.83 L 321.623 153.886 L 319.971 154.235 L 318.931 154.47 L 317.923 154.7 L 316.701 154.969 L 315.688 155.199 L 315.173 155.312 L 313.794 155.611 L 312.773 155.841 L 311.546 156.111 L 310.492 156.346 L 310.262 156.405 L 308.615 156.754 L 307.556 156.99 L 306.52 157.221 L 305.286 157.491 L 304.222 157.728 L 303.972 157.789 L 302.326 158.137 L 301.257 158.373 L 300.187 158.61 L 299.923 158.672 L 298.278 159.02 L 297.203 159.257 L 296.126 159.494 L 295.064 159.729 L 294.515 159.844 L 293.123 160.142 L 292.04 160.38 L 290.968 160.616 L 289.716 160.886 L 289.325 160.969 L 287.929 161.268 L 286.845 161.505 L 285.59 161.776 L 285.189 161.86 L 283.791 162.158 L 282.693 162.397 L 281.598 162.636 L 281.027 162.752 L 279.628 163.051 L 278.523 163.291 L 277.417 163.53 L 277.001 163.615 L 275.594 163.914 L 274.327 164.186 L 273.214 164.426 L 272.788 164.513 L 271.382 164.812 L 270.264 165.052 L 269.146 165.293 L 268.783 165.366 L 267.141 165.711 L 266.017 165.953 L 265.575 166.04 L 264.164 166.339 L 263.036 166.581 L 261.906 166.823 L 261.457 166.911 L 260.042 167.211 L 258.907 167.453 L 258.51 167.531 L 256.87 167.875 L 255.73 168.118 L 254.589 168.361 L 254.124 168.451 L 252.705 168.75 L 251.559 168.994 L 251.088 169.085 L 249.667 169.384 L 248.516 169.628 L 248.039 169.72 L 246.615 170.02 L 245.46 170.264 L 244.977 170.356 L 243.551 170.656 L 242.39 170.901 L 241.901 170.994 L 240.473 171.294 L 239.308 171.539 L 238.813 171.633 L 237.382 171.933 L 236.212 172.179 L 235.711 172.273 L 234.278 172.574 L 233.104 172.82 L 232.596 172.915 L 231.161 173.216 L 229.982 173.463 L 229.467 173.559 L 228.03 173.859 L 226.846 174.107 L 226.325 174.204 L 224.886 174.505 L 223.697 174.753 L 223.169 174.85 L 221.729 175.151 L 220.56 175.396 L 220.184 175.461 L 218.738 175.762 L 217.539 176.012 L 217.002 176.11 L 215.554 176.412 L 215.011 176.511 L 213.564 176.813 L 212.357 177.063 L 211.807 177.163 L 210.393 177.459 L 209.33 177.678 L 208.778 177.779 L 207.323 178.081 L 206.764 178.182 L 205.31 178.484 L 204.091 178.736 L 203.525 178.839 L 202.111 179.133 L 201.689 179.205 L 200.229 179.507 L 199.002 179.76 L 198.427 179.864 L 196.967 180.166 L 195.735 180.42 L 195.114 180.534 L 193.881 180.788 L 193.297 180.892 L 191.831 181.196 L 191.24 181.301 L 189.829 181.594 L 188.725 181.819 L 188.132 181.925 L 186.662 182.229 L 186.061 182.336 L 184.65 182.628 L 183.537 182.855 L 182.934 182.962 L 181.459 183.266 L 180.849 183.374 L 179.437 183.667 L 178.961 183.746 L 177.483 184.05 L 176.222 184.308 L 175.602 184.417 L 174.19 184.709 L 173.702 184.79 L 172.22 185.095 L 171.591 185.206 L 170.182 185.497 L 169.04 185.727 L 168.408 185.839 L 166.922 186.144 L 166.279 186.259 L 165.002 186.518 L 164.361 186.631 L 162.949 186.922 L 162.435 187.007 L 160.944 187.312 L 159.658 187.573 L 159.009 187.689 L 157.721 187.95 L 157.067 188.065 L 155.654 188.355 L 155.125 188.442 L 153.626 188.748 L 152.963 188.865 L 151.553 189.154 L 151.011 189.243 L 149.511 189.549 L 148.855 189.665 L 147.551 189.929 L 146.875 190.047 L 145.467 190.335 L 144.278 190.573 L 143.599 190.691 L 142.185 190.98 L 141.625 191.072 L 140.116 191.38 L 139.453 191.496 L 138.135 191.761 L 137.443 191.882 L 136.031 192.17 L 135.456 192.264 L 133.943 192.572 L 133.274 192.689 L 131.947 192.956 L 131.243 193.078 L 129.833 193.365 L 129.241 193.463 L 127.829 193.749 L 127.235 193.847 L 125.715 194.156 L 125.04 194.273 L 123.701 194.542 L 122.98 194.667 L 121.571 194.952 L 120.96 195.053 L 119.548 195.339 L 118.935 195.44 L 117.408 195.749 L 116.728 195.867 L 115.376 196.137 L 114.694 196.255 L 113.339 196.526 L 112.6 196.654 L 111.189 196.939 L 110.556 197.043 L 109.699 197.199 L 108.337 197.471 L 107.584 197.601 L 106.18 197.885 L 105.529 197.992 L 104.123 198.276 L 103.469 198.384 L 102.06 198.667 L 101.404 198.775 L 99.994 199.059 L 99.335 199.168 L 97.792 199.479 L 97.097 199.598 L 95.716 199.872 L 95.019 199.991 L 94.243 200.125 L 92.838 200.407 L 92.158 200.52 L 90.75 200.802 L 90.068 200.915 L 88.658 201.197 L 87.973 201.31 L 86.421 201.622 L 85.717 201.742 L 84.319 202.019 L 83.614 202.138 L 82.815 202.276 L 81.413 202.557 L 80.704 202.674 L 79.3 202.955 L 78.588 203.073 L 77.182 203.353 L 76.467 203.472 L 75.609 203.624 L 74.196 203.904 L 73.483 204.024 L 72.066 204.304 L 71.352 204.424 L 69.932 204.705 L 69.216 204.825 L 68.388 204.968 L 66.989 205.246 L 66.244 205.37 L 64.844 205.648 L 64.096 205.772 L 62.694 206.051 L 62.059 206.152 L 61.221 206.296 L 59.817 206.575 L 59.062 206.7 L 57.657 206.979 L 56.897 207.105 L 56.037 207.256 L 54.595 207.54 L 53.867 207.662 L 52.422 207.946 L 51.692 208.067 L 50.244 208.352 L 49.513 208.474 L 48.782 208.595 L 47.329 208.881 L 46.596 209.003 L 45.14 209.289 L 44.405 209.41 L 43.529 209.561 L 42.133 209.836 L 41.473 209.941 L 40.009 210.228 L 39.271 210.35 L 38.387 210.502 L 36.989 210.777 L 36.176 210.913 L 35.317 211.062 L 34.036 211.31 L 33.217 211.447 L 31.818 211.721 L 30.995 211.859 L 30.135 212.008 L 28.85 212.256 L 28.021 212.394 L 26.621 212.669 L 25.787 212.808 L 24.926 212.957 L 23.638 213.205 L 22.798 213.346 L 21.936 213.494 L 20.443 213.786 L 19.69 213.909 L 18.399 214.157 L 17.548 214.3 L 16.684 214.448 L 15.184 214.741 L 14.427 214.865 L 13.67 214.988 L 12.165 215.282 L 11.406 215.405 L 10.647 215.529 L 9.137 215.823 L 8.376 215.947 L 6.863 216.242 L 6.1 216.366 L 5.337 216.49 L 3.82 216.786 L 3.055 216.91 L 2.289 217.034 L 0.768 217.33 L 0 217.455 L 15.919 286.594 L 16.673 286.419 L 18.182 286.068 L 18.935 285.893 L 19.688 285.719 L 21.192 285.369 L 21.944 285.195 L 22.695 285.02 L 24.196 284.671 L 24.946 284.497 L 26.445 284.149 L 27.193 283.975 L 27.942 283.802 L 29.437 283.454 L 30.184 283.281 L 30.93 283.108 L 32.422 282.761 L 33.167 282.588 L 33.911 282.415 L 35.399 282.07 L 36.143 281.897 L 37.628 281.552 L 38.37 281.38 L 39.112 281.207 L 40.594 280.863 L 41.335 280.691 L 42.074 280.519 L 43.553 280.176 L 44.292 280.004 L 45.768 279.662 L 46.505 279.49 L 47.242 279.319 L 48.715 278.977 L 49.45 278.806 L 50.92 278.465 L 51.654 278.294 L 52.388 278.124 L 53.855 277.783 L 54.587 277.613 L 55.32 277.443 L 56.783 277.103 L 57.514 276.933 L 58.974 276.594 L 59.704 276.425 L 60.433 276.255 L 61.89 275.917 L 62.618 275.748 L 64.072 275.41 L 64.799 275.241 L 65.525 275.073 L 66.976 274.736 L 67.701 274.567 L 69.149 274.231 L 69.873 274.063 L 71.319 273.727 L 72.041 273.559 L 72.763 273.392 L 74.205 273.056 L 74.926 272.889 L 76.366 272.555 L 77.085 272.388 L 77.804 272.221 L 79.24 271.887 L 79.958 271.72 L 81.392 271.387 L 82.108 271.221 L 83.54 270.888 L 84.255 270.722 L 84.969 270.556 L 86.397 270.224 L 87.11 270.059 L 88.536 269.728 L 89.248 269.562 L 90.671 269.232 L 91.381 269.067 L 92.092 268.902 L 93.511 268.572 L 94.22 268.407 L 95.637 268.078 L 96.345 267.914 L 97.759 267.585 L 98.466 267.421 L 99.172 267.257 L 100.583 266.929 L 101.287 266.765 L 102.696 266.438 L 103.399 266.275 L 104.805 265.948 L 105.507 265.785 L 106.911 265.459 L 107.612 265.296 L 109.012 264.97 L 109.712 264.808 L 110.411 264.645 L 111.809 264.321 L 112.507 264.158 L 113.902 263.834 L 114.598 263.672 L 115.991 263.349 L 116.686 263.187 L 118.076 262.864 L 118.77 262.703 L 120.157 262.381 L 120.85 262.22 L 122.235 261.898 L 122.926 261.737 L 124.309 261.416 L 124.999 261.255 L 125.689 261.095 L 127.068 260.775 L 127.756 260.615 L 129.133 260.295 L 129.82 260.135 L 131.194 259.816 L 131.88 259.656 L 133.251 259.337 L 133.936 259.178 L 135.305 258.86 L 135.988 258.701 L 137.355 258.384 L 138.037 258.225 L 139.401 257.908 L 140.082 257.75 L 141.443 257.433 L 142.123 257.275 L 143.481 256.959 L 144.16 256.802 L 145.516 256.486 L 146.193 256.329 L 147.547 256.014 L 148.223 255.857 L 149.574 255.543 L 150.249 255.386 L 151.598 255.072 L 152.271 254.915 L 153.617 254.602 L 154.29 254.446 L 155.633 254.134 L 156.304 253.978 L 157.645 253.666 L 158.315 253.51 L 159.654 253.199 L 160.991 252.888 L 161.658 252.732 L 162.993 252.422 L 163.659 252.267 L 164.991 251.957 L 165.656 251.802 L 166.986 251.493 L 167.65 251.338 L 168.977 251.03 L 169.639 250.876 L 170.964 250.567 L 171.625 250.413 L 172.947 250.106 L 173.607 249.952 L 174.927 249.645 L 176.245 249.339 L 176.903 249.185 L 178.218 248.879 L 178.875 248.726 L 180.188 248.421 L 180.844 248.268 L 182.154 247.963 L 182.808 247.811 L 184.116 247.506 L 185.422 247.202 L 186.075 247.05 L 187.378 246.747 L 188.03 246.595 L 189.331 246.292 L 189.981 246.141 L 191.279 245.838 L 192.576 245.536 L 193.224 245.385 L 194.519 245.084 L 195.166 244.933 L 196.458 244.632 L 197.103 244.482 L 198.393 244.181 L 199.681 243.881 L 200.324 243.731 L 201.61 243.432 L 202.252 243.282 L 203.535 242.983 L 204.816 242.685 L 205.456 242.535 L 206.735 242.237 L 207.374 242.088 L 208.651 241.791 L 209.288 241.642 L 210.562 241.345 L 211.835 241.048 L 212.47 240.9 L 213.74 240.604 L 215.008 240.308 L 215.642 240.16 L 216.908 239.865 L 217.54 239.718 L 218.804 239.423 L 220.065 239.129 L 220.696 238.982 L 221.955 238.688 L 222.584 238.541 L 223.841 238.248 L 225.096 237.955 L 225.723 237.808 L 226.976 237.516 L 228.227 237.224 L 228.852 237.078 L 230.101 236.786 L 230.724 236.641 L 231.971 236.35 L 233.215 236.059 L 233.837 235.914 L 235.079 235.623 L 236.32 235.334 L 236.94 235.189 L 238.178 234.9 L 239.414 234.611 L 240.032 234.466 L 241.266 234.178 L 242.499 233.89 L 243.114 233.746 L 244.344 233.458 L 245.573 233.171 L 246.186 233.027 L 247.412 232.741 L 248.637 232.454 L 249.248 232.311 L 250.47 232.025 L 251.691 231.74 L 252.3 231.597 L 253.518 231.312 L 254.734 231.027 L 255.342 230.885 L 256.556 230.601 L 257.768 230.317 L 258.374 230.175 L 259.584 229.891 L 260.792 229.608 L 261.395 229.467 L 262.601 229.184 L 263.806 228.902 L 264.407 228.761 L 265.609 228.479 L 266.809 228.198 L 267.409 228.057 L 268.606 227.776 L 269.803 227.496 L 270.997 227.215 L 271.594 227.075 L 272.786 226.796 L 273.977 226.516 L 274.572 226.377 L 275.76 226.098 L 276.946 225.819 L 278.131 225.541 L 278.723 225.401 L 279.906 225.124 L 281.087 224.846 L 281.677 224.707 L 282.856 224.43 L 284.033 224.153 L 285.208 223.877 L 285.795 223.739 L 286.968 223.463 L 288.14 223.187 L 289.31 222.912 L 289.894 222.774 L 291.061 222.499 L 292.227 222.225 L 293.392 221.951 L 293.973 221.814 L 295.135 221.54 L 296.296 221.266 L 297.454 220.993 L 298.033 220.857 L 299.189 220.584 L 300.344 220.311 L 301.498 220.039 L 302.074 219.903 L 303.224 219.632 L 304.374 219.36 L 305.521 219.089 L 306.667 218.818 L 307.24 218.683 L 308.384 218.413 L 309.526 218.143 L 310.666 217.873 L 311.805 217.603 L 312.374 217.469 L 313.511 217.2 L 314.646 216.931 L 315.78 216.663 L 316.346 216.528 L 317.477 216.26 L 318.606 215.993 L 319.734 215.725 L 320.861 215.458 L 321.986 215.191 L 322.548 215.058 L 323.67 214.791 L 324.791 214.525 L 325.91 214.259 L 327.028 213.994 L 327.587 213.861 L 328.702 213.596 L 329.816 213.331 L 330.928 213.066 L 332.039 212.802 L 333.148 212.538 L 333.702 212.406 L 334.809 212.142 L 335.914 211.879 L 337.018 211.615 L 338.12 211.353 L 339.221 211.09 L 340.32 210.828 L 340.869 210.696 L 341.966 210.434 L 343.061 210.173 L 344.155 209.911 L 345.247 209.65 L 346.337 209.389 L 347.426 209.128 L 347.97 208.998 L 349.057 208.738 L 350.142 208.478 L 351.226 208.218 L 352.308 207.959 L 353.388 207.699 L 354.467 207.44 L 355.545 207.181 L 356.62 206.923 L 357.158 206.794 L 358.231 206.535 L 359.303 206.277 L 360.374 206.02 L 361.443 205.762 L 362.51 205.505 L 363.576 205.248 L 364.64 204.991 L 365.703 204.735 L 366.764 204.478 L 367.824 204.222 L 368.353 204.094 L 369.41 203.838 L 370.466 203.583 L 371.52 203.328 L 372.573 203.073 L 373.625 202.818 L 374.674 202.563 L 375.722 202.309 L 376.769 202.054 L 377.814 201.8 L 378.858 201.547 L 379.9 201.293 L 380.94 201.04 L 381.979 200.787 L 383.017 200.534 L 384.053 200.281 L 385.087 200.028 L 386.12 199.776 L 387.152 199.524 L 388.182 199.272 L 389.21 199.02 L 390.237 198.769 L 391.262 198.517 L 391.774 198.392 L 392.797 198.14 L 393.819 197.89 L 394.839 197.639 L 395.857 197.388 L 396.874 197.138 L 397.89 196.888 L 399.41 196.513 L 400.422 196.263 L 401.432 196.014 L 402.441 195.764 L 403.448 195.515 L 404.454 195.266 L 405.458 195.017 L 406.461 194.768 L 407.462 194.52 L 408.461 194.272 L 409.46 194.023 L 410.456 193.775 L 411.451 193.527 L 412.445 193.28 L 413.437 193.032 L 414.428 192.784 L 415.417 192.537 L 416.405 192.29 L 417.391 192.043 L 418.376 191.796 L 419.359 191.549 L 420.34 191.303 L 421.81 190.933 L 422.788 190.687 L 423.765 190.44 L 424.74 190.194 L 425.713 189.949 L 426.685 189.703 L 427.656 189.457 L 428.625 189.211 L 429.592 188.966 L 430.558 188.721 L 432.004 188.353 L 432.967 188.108 L 433.928 187.863 L 434.887 187.618 L 435.845 187.373 L 436.801 187.129 L 437.756 186.884 L 438.71 186.639 L 440.137 186.273 L 441.087 186.029 L 442.035 185.784 L 442.982 185.54 L 443.927 185.296 L 444.871 185.052 L 445.814 184.809 L 447.224 184.443 L 448.163 184.199 L 449.1 183.956 L 450.036 183.712 L 450.971 183.468 L 452.369 183.103 L 453.3 182.86 L 454.229 182.617 L 455.157 182.373 L 456.083 182.13 L 457.47 181.765 L 458.392 181.522 L 459.314 181.279 L 460.233 181.036 L 461.151 180.793 L 462.526 180.429 L 463.441 180.186 L 464.354 179.943 L 465.266 179.7 L 466.63 179.335 L 467.538 179.092 L 468.445 178.849 L 469.35 178.607 L 470.705 178.242 L 471.607 177.999 L 472.507 177.756 L 473.405 177.514 L 474.751 177.149 L 475.646 176.906 L 476.539 176.663 L 477.431 176.42 L 478.767 176.056 L 479.655 175.813 L 480.543 175.57 L 481.871 175.205 L 482.754 174.962 L 483.636 174.719 L 484.956 174.354 L 485.835 174.11 L 486.712 173.867 L 488.025 173.502 L 488.898 173.258 L 489.77 173.014 L 491.076 172.649 L 491.944 172.405 L 492.811 172.161 L 494.109 171.795 L 494.972 171.551 L 495.835 171.307 L 497.125 170.941 L 497.983 170.696 L 498.84 170.452 L 500.123 170.085 L 500.977 169.84 L 502.254 169.472 L 503.104 169.227 L 503.953 168.982 L 505.223 168.614 L 506.068 168.369 L 507.333 168 L 508.174 167.754 L 509.434 167.385 L 510.272 167.139 L 511.108 166.893 L 512.36 166.523 L 513.193 166.276 L 514.44 165.906 L 515.27 165.659 L 516.511 165.287 L 517.337 165.04 L 518.574 164.668 L 519.396 164.42 L 520.627 164.048 L 521.446 163.799 L 522.672 163.426 L 523.487 163.177 L 524.708 162.803 L 525.52 162.553 L 526.735 162.179 L 527.544 161.928 L 528.754 161.553 L 529.559 161.302 L 530.764 160.926 L 531.565 160.674 L 532.765 160.297 L 533.563 160.045 L 534.757 159.667 L 535.949 159.288 L 536.741 159.035 L 537.927 158.655 L 538.716 158.401 L 539.897 158.02 L 540.683 157.766 L 541.859 157.384 L 543.032 157.001 L 543.812 156.745 L 544.979 156.362 L 546.144 155.977 L 546.918 155.72 L 548.077 155.334 L 548.849 155.077 L 550.003 154.69 L 551.154 154.302 L 551.919 154.043 L 553.065 153.654 L 554.208 153.264 L 554.968 153.004 L 556.106 152.613 L 557.241 152.221 L 558.372 151.828 L 559.125 151.566 L 560.251 151.171 L 561.375 150.776 L 562.122 150.512 L 563.24 150.116 L 564.356 149.718 L 565.468 149.32 L 566.208 149.054 L 567.315 148.654 L 568.419 148.253 L 569.52 147.851 L 570.618 147.448 L 571.348 147.179 L 572.441 146.774 L 573.531 146.369 L 574.618 145.962 L 575.702 145.554 L 576.423 145.282 L 577.501 144.873 L 578.577 144.462 L 579.65 144.051 L 580.72 143.638 L 581.787 143.224 L 582.85 142.809 L 583.911 142.393 L 584.616 142.115 L 585.672 141.697 L 586.725 141.278 L 587.775 140.858 L 588.821 140.436 L 589.865 140.013 L 590.906 139.589 L 591.944 139.164 L 592.978 138.738 L 594.01 138.31 L 595.039 137.881 L 596.065 137.451 L 597.088 137.019 L 598.108 136.586 L 599.125 136.152 L 600.139 135.716 L 601.15 135.279 L 602.158 134.841 L 603.163 134.402 L 604.165 133.96 L 605.164 133.518 L 606.16 133.074 L 607.154 132.629 L 608.144 132.182 L 609.131 131.734 L 610.443 131.134 L 611.424 130.683 L 612.401 130.23 L 613.376 129.775 L 614.348 129.319 L 615.316 128.861 L 616.604 128.249 L 617.566 127.788 L 618.525 127.325 L 619.481 126.861 L 620.434 126.395 L 621.701 125.771 L 622.647 125.301 L 623.591 124.83 L 624.531 124.357 L 625.781 123.724 L 626.715 123.247 L 627.646 122.769 L 628.574 122.289 L 629.807 121.646 L 630.728 121.162 L 631.647 120.676 L 632.867 120.026 L 633.779 119.536 L 634.99 118.88 L 635.895 118.386 L 636.797 117.891 L 637.996 117.227 L 638.891 116.727 L 640.081 116.058 L 640.97 115.554 L 642.15 114.878 L 643.033 114.37 L 644.204 113.689 L 645.08 113.176 L 646.243 112.49 L 647.112 111.972 L 648.266 111.28 L 649.129 110.758 L 650.274 110.059 L 651.13 109.533 L 652.266 108.828 L 653.398 108.12 L 654.244 107.587 L 655.366 106.872 L 656.484 106.154 L 657.319 105.613 L 658.429 104.889 L 659.533 104.161 L 660.358 103.613 L 661.453 102.879 L 662.544 102.141 L 663.629 101.399 L 664.71 100.653 L 665.517 100.092 L 666.589 99.34 L 667.657 98.584 L 668.719 97.824 L 669.776 97.06 L 670.829 96.293 L 671.876 95.522 L 672.919 94.747 L 673.697 94.163 L 674.731 93.38 L 675.761 92.594 L 676.785 91.804 L 678.059 90.811 L 679.072 90.012 L 680.081 89.209 L 681.084 88.401 L 682.083 87.59 L 683.077 86.774 L 684.067 85.955 L 685.051 85.131 L 686.275 84.095 L 687.248 83.262 L 688.217 82.425 L 689.181 81.583 L 690.38 80.525 L 691.333 79.673 L 692.282 78.818 L 693.461 77.742 L 693.426 77.07 L 693.392 76.396 L 693.357 75.72 L 693.323 75.042 L 693.289 74.362 L 693.255 73.68 L 693.221 72.995 L 693.187 72.309 L 693.154 71.62 L 693.12 70.929 L 693.087 70.236 L 693.054 69.541 L 693.021 68.844 L 692.988 68.145 L 692.955 67.444 L 692.923 66.74 L 692.89 66.035 L 692.858 65.327 L 692.826 64.617 L 692.794 63.906 L 692.762 63.192 L 692.73 62.475 L 692.716 62.15 L 696.433 62.644 L 696.076 54.238 L 692.414 55.045 L 688.749 55.841 L 688.402 47.008 L 692.118 47.513 L 695.832 48.031 L 695.496 38.77 L 691.829 39.554 L 688.16 40.328 L 687.89 32.245 L 691.602 32.772 L 695.314 33.31 L 695.004 23.23 L 691.333 23.994 L 687.66 24.748 L 687.413 15.925 L 691.123 16.473 L 691.099 15.587 L 691.077 14.74 L 691.054 13.89 L 691.032 13.038 L 691.011 12.184 L 690.989 11.328 L 690.967 10.47 L 690.946 9.609 L 690.925 8.747 L 690.904 7.882 L 690.883 7.015 L 690.862 6.146 L 690.842 5.274 L 690.821 4.401 L 690.801 3.525 L 690.781 2.647 L 690.761 1.767 L 690.742 0.885 L 690.722 0 Z" vector-effect="non-scaling-stroke"/><path d="M 0 217.455 L 0.171 218.208 L 0.341 218.957 L 0.51 219.704 L 0.679 220.447 L 0.847 221.187 L 1.014 221.924 L 1.181 222.659 L 1.347 223.39 L 1.513 224.119 L 1.678 224.845 L 1.843 225.568 L 2.007 226.288 L 2.17 227.006 L 2.333 227.721 L 2.495 228.434 L 2.657 229.144 L 2.819 229.852 L 2.98 230.557 L 3.14 231.26 L 3.3 231.961 L 3.46 232.66 L 3.619 233.357 L 3.778 234.052 L 3.936 234.744 L 4.094 235.435 L 4.252 236.124 L 4.409 236.811 L 4.566 237.496 L 4.723 238.18 L 4.879 238.862 L 5.035 239.543 L 5.191 240.222 L 5.346 240.899 L 5.502 241.575 L 5.657 242.25 L 5.811 242.924 L 5.966 243.597 L 6.12 244.268 L 6.274 244.938 L 6.428 245.608 L 6.582 246.277 L 6.736 246.944 L 6.889 247.611 L 7.043 248.278 L 7.196 248.943 L 7.349 249.608 L 7.503 250.273 L 7.656 250.937 L 7.809 251.601 L 7.962 252.265 L 8.115 252.928 L 8.268 253.592 L 8.421 254.255 L 8.575 254.918 L 8.728 255.582 L 8.881 256.245 L 9.034 256.909 L 9.188 257.573 L 9.342 258.237 L 9.495 258.902 L 9.649 259.567 L 9.803 260.233 L 9.957 260.899 L 10.112 261.566 L 10.267 262.234 L 10.421 262.903 L 10.576 263.572 L 10.732 264.243 L 10.887 264.915 L 11.043 265.587 L 11.199 266.261 L 11.356 266.936 L 11.513 267.613 L 11.67 268.29 L 11.827 268.969 L 11.985 269.65 L 12.144 270.332 L 12.302 271.016 L 12.461 271.702 L 12.621 272.389 L 12.781 273.078 L 12.941 273.769 L 13.102 274.462 L 13.263 275.157 L 13.425 275.854 L 13.587 276.553 L 13.75 277.254 L 13.913 277.958 L 14.077 278.663 L 14.241 279.371 L 14.406 280.082 L 14.572 280.795 L 14.738 281.51 L 14.905 282.229 L 15.072 282.949 L 15.24 283.673 L 15.409 284.399 L 15.578 285.128 L 15.748 285.859 L 15.919 286.594 M 511.261 102.962 L 511.328 103.687 L 511.395 104.409 L 511.462 105.129 L 511.53 105.846 L 511.598 106.561 L 511.666 107.273 L 511.735 107.982 L 511.804 108.689 L 511.873 109.394 L 511.942 110.095 L 512.012 110.795 L 512.082 111.491 L 512.152 112.186 L 512.223 112.877 L 512.294 113.567 L 512.365 114.254 L 512.436 114.938 L 512.508 115.62 L 512.58 116.299 L 512.652 116.976 L 512.725 117.651 L 512.797 118.323 L 512.87 118.993 L 512.944 119.66 L 513.018 120.325 L 513.091 120.988 L 513.166 121.648 L 513.24 122.306 L 513.315 122.962 L 513.39 123.615 L 513.466 124.266 L 513.541 124.915 L 513.617 125.561 L 513.694 126.205 L 513.77 126.847 L 513.847 127.487 L 513.924 128.124 L 514.002 128.759 L 514.079 129.392 L 514.157 130.023 L 514.236 130.651 L 514.314 131.278 L 514.393 131.902 L 514.472 132.524 L 514.552 133.144 L 514.632 133.762 L 514.712 134.378 L 514.792 134.991 L 514.873 135.603 L 514.954 136.212 L 515.035 136.82 L 515.117 137.425 L 515.199 138.028 L 515.281 138.63 L 515.363 139.229 L 515.446 139.827 L 515.529 140.422 L 515.613 141.016 L 515.696 141.607 L 515.78 142.197 L 515.865 142.785 L 515.949 143.371 L 516.034 143.955 L 516.119 144.537 L 516.205 145.117 L 516.291 145.696 L 516.377 146.273 L 516.463 146.848 L 516.55 147.421 L 516.637 147.992 L 516.725 148.562 L 516.812 149.13 L 516.9 149.697 L 516.989 150.261 L 517.077 150.824 L 517.166 151.386 L 517.255 151.946 L 517.345 152.504 L 517.435 153.061 L 517.525 153.616 L 517.616 154.169 L 517.706 154.721 L 517.797 155.272 L 517.889 155.821 L 517.981 156.368 L 518.073 156.914 L 518.165 157.459 L 518.258 158.002 L 518.351 158.544 L 518.444 159.085 L 518.538 159.624 L 518.632 160.162 L 518.727 160.698 L 518.821 161.234 L 518.916 161.768 L 519.012 162.301 L 519.107 162.832 L 519.203 163.363 L 519.299 163.892 L 519.396 164.42 M 254.589 168.361 L 254.718 169.015 L 254.847 169.667 L 254.975 170.317 L 255.104 170.964 L 255.232 171.609 L 255.36 172.252 L 255.487 172.893 L 255.615 173.531 L 255.742 174.168 L 255.869 174.802 L 255.996 175.435 L 256.123 176.065 L 256.25 176.694 L 256.376 177.32 L 256.503 177.945 L 256.629 178.567 L 256.755 179.188 L 256.881 179.807 L 257.007 180.425 L 257.132 181.04 L 257.258 181.654 L 257.383 182.266 L 257.509 182.877 L 257.634 183.486 L 257.759 184.093 L 257.884 184.699 L 258.009 185.303 L 258.134 185.906 L 258.259 186.508 L 258.384 187.108 L 258.508 187.707 L 258.633 188.304 L 258.758 188.9 L 258.882 189.495 L 259.007 190.089 L 259.132 190.682 L 259.256 191.273 L 259.381 191.864 L 259.505 192.453 L 259.63 193.041 L 259.755 193.629 L 259.879 194.215 L 260.004 194.801 L 260.129 195.386 L 260.253 195.97 L 260.378 196.553 L 260.503 197.135 L 260.628 197.717 L 260.753 198.298 L 260.878 198.879 L 261.004 199.459 L 261.129 200.038 L 261.254 200.617 L 261.38 201.196 L 261.506 201.774 L 261.631 202.352 L 261.757 202.93 L 261.883 203.507 L 262.01 204.084 L 262.136 204.661 L 262.263 205.238 L 262.389 205.814 L 262.516 206.391 L 262.644 206.967 L 262.771 207.544 L 262.898 208.12 L 263.026 208.697 L 263.154 209.274 L 263.282 209.851 L 263.411 210.428 L 263.539 211.006 L 263.668 211.584 L 263.797 212.162 L 263.927 212.741 L 264.057 213.32 L 264.187 213.899 L 264.317 214.48 L 264.447 215.06 L 264.578 215.641 L 264.71 216.223 L 264.841 216.806 L 264.973 217.389 L 265.105 217.973 L 265.237 218.558 L 265.37 219.144 L 265.503 219.73 L 265.637 220.318 L 265.771 220.906 L 265.905 221.496 L 266.04 222.086 L 266.175 222.678 L 266.31 223.271 L 266.446 223.865 L 266.582 224.46 L 266.719 225.056 L 266.856 225.654 L 266.994 226.252 L 267.131 226.853 L 267.27 227.454 L 267.409 228.057" id="blue" stroke="blue" style="stroke:blue" vector-effect="non-scaling-stroke"/><g id="captions"><text alignment-baseline="middle" text-anchor="middle" transform="rotate(0,348.595,178.263)" x="348.595" y="178.263">WIND, 1, 1</text></g></g></svg>