<svg width="2989.797" height="787.858" viewBox="0 0 2989.797 787.858" xmlns="http://www.w3.org/2000/svg"><g id="svgGroup" stroke-linecap="round" fill-rule="evenodd" font-size="9pt" stroke="#000" stroke-width="0.25mm" fill="none" style="stroke:#000;stroke-width:0.25mm;fill:none"><path d="M 2969.328 0 L 2963.844 0.61 L 2958.365 1.223 L 2952.89 1.839 L 2947.419 2.459 L 2943.318 2.925 L 2937.854 3.55 L 2932.394 4.178 L 2926.937 4.809 L 2921.483 5.443 L 2916.032 6.079 L 2910.585 6.719 L 2905.139 7.361 L 2899.697 8.007 L 2894.256 8.655 L 2888.818 9.306 L 2883.381 9.96 L 2877.947 10.616 L 2872.513 11.275 L 2867.081 11.937 L 2861.65 12.601 L 2856.22 13.268 L 2850.791 13.938 L 2845.362 14.61 L 2841.291 15.115 L 2835.862 15.792 L 2830.434 16.471 L 2825.005 17.152 L 2819.576 17.835 L 2814.146 18.521 L 2808.716 19.21 L 2803.284 19.9 L 2797.851 20.593 L 2792.417 21.288 L 2786.981 21.986 L 2781.544 22.685 L 2776.104 23.387 L 2770.662 24.09 L 2765.218 24.796 L 2759.771 25.504 L 2755.684 26.036 L 2750.232 26.747 L 2744.777 27.461 L 2739.318 28.176 L 2733.856 28.893 L 2728.391 29.612 L 2722.921 30.332 L 2717.447 31.055 L 2711.969 31.779 L 2706.486 32.505 L 2702.371 33.051 L 2696.88 33.779 L 2691.384 34.51 L 2685.882 35.242 L 2680.376 35.976 L 2674.863 36.711 L 2669.344 37.448 L 2665.202 38.001 L 2659.672 38.741 L 2654.137 39.482 L 2648.594 40.224 L 2643.045 40.967 L 2637.489 41.712 L 2633.317 42.272 L 2627.748 43.019 L 2622.172 43.767 L 2616.587 44.516 L 2610.995 45.267 L 2606.796 45.831 L 2601.189 46.584 L 2595.574 47.337 L 2589.95 48.092 L 2584.317 48.848 L 2580.086 49.415 L 2574.438 50.173 L 2568.779 50.931 L 2563.111 51.691 L 2558.854 52.261 L 2553.169 53.021 L 2547.473 53.783 L 2543.195 54.355 L 2537.481 55.118 L 2531.756 55.881 L 2527.455 56.455 L 2521.711 57.219 L 2515.956 57.985 L 2511.632 58.559 L 2505.857 59.326 L 2500.07 60.093 L 2495.721 60.669 L 2489.913 61.437 L 2484.092 62.205 L 2479.718 62.781 L 2473.875 63.55 L 2468.019 64.32 L 2463.618 64.897 L 2457.739 65.667 L 2453.321 66.245 L 2447.418 67.015 L 2442.982 67.593 L 2437.055 68.364 L 2431.114 69.135 L 2426.648 69.713 L 2420.682 70.484 L 2416.197 71.063 L 2410.205 71.834 L 2405.7 72.412 L 2399.682 73.184 L 2395.157 73.762 L 2389.111 74.533 L 2384.566 75.111 L 2378.493 75.882 L 2373.927 76.46 L 2367.825 77.231 L 2363.237 77.809 L 2358.641 78.386 L 2352.497 79.156 L 2347.879 79.734 L 2341.705 80.503 L 2337.064 81.08 L 2330.86 81.849 L 2326.196 82.425 L 2321.522 83.001 L 2315.274 83.769 L 2310.576 84.344 L 2305.868 84.92 L 2299.574 85.686 L 2294.841 86.26 L 2290.098 86.835 L 2283.758 87.599 L 2278.99 88.173 L 2274.211 88.746 L 2267.822 89.509 L 2263.018 90.081 L 2258.202 90.652 L 2253.375 91.223 L 2246.922 91.984 L 2242.069 92.554 L 2237.204 93.124 L 2232.328 93.693 L 2225.809 94.45 L 2220.905 95.018 L 2215.99 95.585 L 2211.063 96.152 L 2206.124 96.718 L 2199.52 97.472 L 2194.552 98.037 L 2189.573 98.601 L 2184.581 99.164 L 2179.576 99.727 L 2174.559 100.289 L 2167.85 101.038 L 2162.804 101.598 L 2157.745 102.158 L 2152.673 102.717 L 2147.588 103.276 L 2142.49 103.833 L 2137.379 104.39 L 2132.254 104.946 L 2127.117 105.502 L 2121.966 106.056 L 2116.801 106.61 L 2111.624 107.163 L 2106.432 107.715 L 2101.227 108.266 L 2096.008 108.816 L 2090.775 109.366 L 2085.528 109.914 L 2080.268 110.462 L 2074.993 111.009 L 2069.704 111.555 L 2064.401 112.1 L 2059.083 112.643 L 2053.751 113.186 L 2048.404 113.728 L 2043.043 114.269 L 2037.668 114.809 L 2032.277 115.348 L 2026.872 115.886 L 2021.452 116.423 L 2016.016 116.958 L 2010.566 117.493 L 2005.101 118.027 L 2001.448 118.382 L 1995.958 118.913 L 1990.451 119.444 L 1984.93 119.973 L 1979.392 120.502 L 1973.84 121.029 L 1970.129 121.38 L 1964.55 121.905 L 1958.955 122.429 L 1953.344 122.951 L 1947.717 123.473 L 1943.957 123.82 L 1938.304 124.339 L 1932.634 124.857 L 1926.948 125.374 L 1921.245 125.89 L 1917.434 126.232 L 1911.704 126.746 L 1905.958 127.258 L 1900.195 127.769 L 1896.343 128.108 L 1890.552 128.617 L 1884.744 129.124 L 1880.862 129.461 L 1875.026 129.966 L 1869.172 130.469 L 1865.261 130.804 L 1859.378 131.304 L 1853.479 131.804 L 1849.536 132.136 L 1843.608 132.633 L 1837.662 133.129 L 1833.688 133.458 L 1827.712 133.951 L 1821.719 134.443 L 1817.714 134.77 L 1811.691 135.258 L 1807.665 135.584 L 1801.612 136.07 L 1795.541 136.555 L 1791.484 136.877 L 1785.382 137.359 L 1781.304 137.68 L 1775.172 138.159 L 1771.074 138.478 L 1764.911 138.954 L 1758.73 139.43 L 1754.599 139.745 L 1748.386 140.218 L 1744.234 140.531 L 1737.99 141.001 L 1733.817 141.313 L 1727.542 141.779 L 1723.347 142.09 L 1717.04 142.553 L 1712.825 142.861 L 1706.485 143.322 L 1702.248 143.628 L 1695.877 144.086 L 1691.618 144.39 L 1685.214 144.845 L 1680.934 145.147 L 1676.645 145.449 L 1670.195 145.899 L 1665.884 146.199 L 1659.401 146.646 L 1655.068 146.943 L 1648.551 147.388 L 1644.196 147.683 L 1639.832 147.977 L 1633.269 148.417 L 1628.882 148.709 L 1624.486 149.001 L 1617.876 149.436 L 1613.457 149.725 L 1606.813 150.157 L 1602.372 150.444 L 1597.921 150.73 L 1591.228 151.158 L 1586.755 151.442 L 1582.272 151.725 L 1575.531 152.148 L 1571.025 152.428 L 1566.51 152.708 L 1559.72 153.126 L 1555.181 153.404 L 1550.633 153.68 L 1543.794 154.094 L 1539.222 154.368 L 1534.641 154.641 L 1530.05 154.914 L 1523.146 155.321 L 1518.532 155.591 L 1513.908 155.86 L 1509.274 156.128 L 1502.305 156.529 L 1497.647 156.794 L 1492.979 157.059 L 1488.302 157.323 L 1481.268 157.717 L 1476.566 157.978 L 1471.854 158.239 L 1467.133 158.498 L 1460.032 158.885 L 1455.286 159.142 L 1450.53 159.398 L 1445.764 159.653 L 1440.988 159.907 L 1433.805 160.286 L 1429.004 160.538 L 1424.193 160.788 L 1419.371 161.037 L 1414.54 161.286 L 1409.699 161.533 L 1402.418 161.902 L 1397.551 162.147 L 1392.674 162.39 L 1387.786 162.633 L 1382.889 162.874 L 1377.981 163.115 L 1373.063 163.354 L 1365.666 163.711 L 1360.722 163.948 L 1355.768 164.184 L 1350.803 164.418 L 1345.828 164.652 L 1340.843 164.884 L 1335.846 165.116 L 1330.84 165.346 L 1325.823 165.575 L 1320.795 165.803 L 1313.234 166.143 L 1308.179 166.368 L 1303.115 166.592 L 1298.039 166.816 L 1292.953 167.037 L 1287.856 167.258 L 1282.749 167.478 L 1277.63 167.696 L 1272.501 167.914 L 1267.361 168.13 L 1262.211 168.345 L 1257.049 168.559 L 1251.877 168.772 L 1246.693 168.984 L 1241.499 169.194 L 1236.294 169.404 L 1231.078 169.612 L 1225.851 169.819 L 1220.612 170.025 L 1215.363 170.23 L 1210.103 170.433 L 1204.832 170.635 L 1199.549 170.836 L 1194.256 171.036 L 1188.951 171.235 L 1183.635 171.433 L 1178.308 171.629 L 1172.97 171.824 L 1167.62 172.018 L 1162.26 172.211 L 1156.887 172.402 L 1151.504 172.593 L 1146.109 172.782 L 1140.703 172.97 L 1135.286 173.156 L 1129.857 173.342 L 1127.138 173.434 L 1121.692 173.617 L 1116.234 173.8 L 1110.765 173.981 L 1105.285 174.161 L 1099.793 174.339 L 1094.289 174.516 L 1088.774 174.692 L 1083.247 174.867 L 1077.708 175.041 L 1074.935 175.127 L 1069.379 175.298 L 1063.811 175.469 L 1058.232 175.638 L 1052.641 175.805 L 1047.038 175.972 L 1041.423 176.137 L 1035.796 176.301 L 1032.979 176.382 L 1027.334 176.544 L 1021.678 176.705 L 1016.01 176.864 L 1010.33 177.022 L 1004.638 177.179 L 998.935 177.334 L 996.078 177.411 L 990.356 177.565 L 984.622 177.717 L 978.876 177.867 L 973.118 178.017 L 970.235 178.091 L 964.459 178.238 L 958.67 178.384 L 952.87 178.529 L 947.057 178.672 L 944.147 178.743 L 938.316 178.885 L 932.472 179.024 L 926.617 179.163 L 920.749 179.3 L 917.811 179.368 L 911.925 179.503 L 906.026 179.637 L 900.115 179.769 L 894.192 179.9 L 891.226 179.965 L 885.284 180.094 L 879.33 180.222 L 873.363 180.348 L 870.375 180.41 L 864.389 180.534 L 858.391 180.657 L 852.38 180.778 L 849.37 180.838 L 843.341 180.957 L 837.299 181.075 L 834.273 181.133 L 828.212 181.249 L 822.138 181.363 L 816.052 181.475 L 813.004 181.531 L 806.898 181.642 L 800.78 181.751 L 797.716 181.805 L 791.578 181.912 L 785.428 182.017 L 779.265 182.121 L 776.179 182.173 L 769.996 182.274 L 763.801 182.375 L 760.698 182.424 L 754.484 182.523 L 748.256 182.619 L 745.137 182.667 L 738.89 182.761 L 732.63 182.854 L 729.495 182.9 L 723.215 182.991 L 716.923 183.08 L 713.771 183.125 L 707.459 183.212 L 701.133 183.297 L 697.966 183.339 L 691.62 183.423 L 685.262 183.504 L 682.078 183.545 L 675.699 183.624 L 669.308 183.702 L 666.107 183.741 L 659.696 183.816 L 656.485 183.854 L 650.053 183.927 L 643.609 183.999 L 640.381 184.034 L 633.916 184.104 L 627.438 184.172 L 624.194 184.206 L 617.696 184.271 L 614.441 184.304 L 607.923 184.367 L 601.391 184.429 L 598.119 184.459 L 591.567 184.519 L 588.286 184.548 L 581.713 184.605 L 575.127 184.661 L 571.829 184.688 L 565.222 184.741 L 561.913 184.767 L 555.286 184.818 L 548.645 184.868 L 545.32 184.892 L 538.658 184.939 L 535.322 184.962 L 528.64 185.006 L 525.294 185.028 L 518.591 185.07 L 515.235 185.091 L 508.511 185.13 L 501.774 185.169 L 498.4 185.187 L 491.642 185.223 L 488.258 185.24 L 481.479 185.274 L 478.084 185.29 L 471.284 185.321 L 467.879 185.335 L 461.058 185.364 L 457.642 185.378 L 450.8 185.404 L 443.944 185.428 L 440.511 185.44 L 433.634 185.462 L 430.19 185.472 L 423.292 185.491 L 419.838 185.501 L 412.918 185.518 L 409.453 185.525 L 402.512 185.54 L 399.037 185.547 L 392.074 185.559 L 388.588 185.564 L 381.605 185.574 L 378.108 185.578 L 371.103 185.585 L 367.595 185.588 L 360.568 185.592 L 357.05 185.594 L 350.002 185.596 L 346.473 185.596 L 339.403 185.596 L 335.863 185.595 L 328.772 185.592 L 325.221 185.59 L 321.666 185.587 L 314.546 185.581 L 310.981 185.577 L 303.839 185.568 L 300.262 185.563 L 293.099 185.551 L 289.511 185.545 L 282.326 185.53 L 278.728 185.523 L 271.52 185.506 L 267.911 185.497 L 260.681 185.478 L 257.061 185.467 L 253.437 185.457 L 246.178 185.434 L 242.543 185.422 L 235.263 185.396 L 231.617 185.383 L 224.313 185.355 L 220.656 185.34 L 216.996 185.325 L 209.663 185.294 L 205.991 185.277 L 198.636 185.243 L 194.953 185.226 L 187.575 185.189 L 183.881 185.17 L 180.183 185.15 L 172.776 185.11 L 169.067 185.089 L 161.637 185.046 L 157.917 185.024 L 154.192 185.002 L 146.733 184.955 L 142.997 184.931 L 135.515 184.882 L 131.768 184.857 L 128.018 184.831 L 120.505 184.778 L 116.743 184.751 L 109.208 184.696 L 105.435 184.667 L 101.658 184.639 L 94.092 184.58 L 90.304 184.549 L 82.716 184.488 L 78.916 184.456 L 75.112 184.424 L 67.493 184.359 L 63.678 184.325 L 59.859 184.291 L 52.21 184.222 L 48.379 184.187 L 40.707 184.115 L 36.865 184.079 L 33.019 184.042 L 25.316 183.966 L 21.458 183.928 L 17.597 183.889 L 9.863 183.81 L 5.99 183.77 L 0 772.858 L 3.873 773.05 L 11.609 773.26 L 15.471 773.45 L 19.33 773.639 L 27.039 773.845 L 30.888 774.032 L 34.734 774.219 L 42.417 774.42 L 46.252 774.604 L 53.915 774.802 L 57.741 774.985 L 61.563 775.166 L 69.2 775.36 L 73.012 775.539 L 76.821 775.718 L 84.431 775.907 L 88.249 776.084 L 94.591 776.256 L 99.61 776.444 L 103.396 776.618 L 110.96 776.799 L 114.755 776.971 L 121.053 777.135 L 126.047 777.318 L 129.83 777.488 L 136.103 777.648 L 141.101 777.828 L 147.356 777.985 L 152.324 778.162 L 156.084 778.327 L 162.314 778.479 L 167.288 778.654 L 173.499 778.804 L 178.442 778.976 L 182.18 779.135 L 188.366 779.28 L 193.315 779.45 L 199.513 779.592 L 203.212 779.747 L 210.602 779.898 L 214.261 780.051 L 219.185 780.215 L 225.341 780.35 L 229.017 780.5 L 236.362 780.643 L 240.029 780.791 L 247.354 780.93 L 251.011 781.076 L 254.666 781.222 L 261.965 781.356 L 265.611 781.5 L 272.891 781.631 L 276.527 781.772 L 283.788 781.9 L 287.439 782.039 L 293.441 782.152 L 298.298 782.301 L 304.283 782.411 L 309.129 782.557 L 315.133 782.664 L 318.694 782.797 L 323.525 782.939 L 329.469 783.042 L 334.29 783.182 L 340.217 783.282 L 345.027 783.42 L 350.973 783.517 L 354.54 783.642 L 361.665 783.746 L 365.222 783.869 L 372.328 783.969 L 375.876 784.09 L 382.964 784.187 L 386.531 784.306 L 392.362 784.389 L 397.13 784.516 L 402.943 784.596 L 407.7 784.721 L 413.497 784.797 L 418.243 784.92 L 424.066 784.994 L 427.568 785.104 L 434.564 785.184 L 438.058 785.293 L 445.068 785.369 L 450.793 785.433 L 455.511 785.548 L 461.22 785.609 L 465.927 785.722 L 471.62 785.779 L 476.316 785.889 L 482.04 785.945 L 485.491 786.043 L 492.385 786.104 L 495.827 786.2 L 502.739 786.258 L 508.361 786.303 L 513.029 786.405 L 518.635 786.448 L 523.293 786.547 L 528.883 786.587 L 533.529 786.684 L 539.103 786.72 L 543.739 786.814 L 549.35 786.849 L 556.131 786.888 L 559.556 786.971 L 565.077 786.998 L 569.695 787.087 L 575.26 787.112 L 581.994 787.142 L 585.357 787.219 L 592.073 787.246 L 595.427 787.321 L 602.169 787.344 L 607.612 787.357 L 612.195 787.436 L 617.622 787.446 L 622.195 787.523 L 627.67 787.53 L 634.311 787.542 L 637.628 787.608 L 644.297 787.617 L 649.664 787.616 L 654.211 787.685 L 659.562 787.681 L 664.098 787.747 L 669.502 787.741 L 676.069 787.738 L 679.348 787.794 L 685.947 787.788 L 691.237 787.773 L 695.749 787.832 L 701.098 787.815 L 707.607 787.801 L 710.859 787.85 L 717.404 787.833 L 722.635 787.807 L 727.122 787.858 L 732.416 787.83 L 738.793 787.804 L 743.262 787.85 L 748.53 787.817 L 754.956 787.786 L 758.165 787.824 L 764.628 787.789 L 769.776 787.748 L 774.22 787.786 L 779.435 787.743 L 785.864 787.7 L 790.968 787.651 L 795.398 787.685 L 800.574 787.633 L 806.906 787.583 L 810.069 787.608 L 816.385 787.554 L 822.75 787.498 L 827.787 787.436 L 832.185 787.459 L 837.299 787.396 L 843.565 787.331 L 846.695 787.348 L 853.008 787.28 L 858.085 787.209 L 864.219 787.135 L 868.585 787.148 L 873.637 787.072 L 879.905 786.994 L 884.834 786.912 L 889.186 786.92 L 894.201 786.836 L 900.366 786.749 L 906.589 786.661 L 911.467 786.569 L 915.798 786.569 L 920.767 786.476 L 926.956 786.38 L 931.902 786.281 L 937.89 786.18 L 942.2 786.172 L 947.122 786.069 L 953.267 785.963 L 958.167 785.855 L 964.103 785.743 L 968.392 785.728 L 973.269 785.615 L 979.369 785.498 L 984.225 785.381 L 990.225 785.259 L 993.223 785.239 L 999.209 785.114 L 1005.265 784.986 L 1010.076 784.86 L 1016.031 784.727 L 1022.06 784.593 L 1026.714 784.459 L 1030.957 784.426 L 1035.723 784.29 L 1041.632 784.147 L 1047.617 784.002 L 1052.352 783.86 L 1058.321 783.711 L 1063.035 783.564 L 1068.76 783.409 L 1072.972 783.363 L 1077.664 783.211 L 1083.497 783.051 L 1089.412 782.889 L 1094.074 782.731 L 1099.972 782.564 L 1104.613 782.401 L 1110.397 782.23 L 1116.269 782.057 L 1120.733 781.886 L 1124.812 781.824 L 1130.658 781.644 L 1135.247 781.471 L 1140.976 781.286 L 1146.795 781.099 L 1151.355 780.919 L 1157.054 780.727 L 1162.847 780.534 L 1167.378 780.347 L 1173.048 780.149 L 1178.815 779.948 L 1183.317 779.755 L 1188.958 779.55 L 1194.699 779.342 L 1199.172 779.143 L 1204.785 778.931 L 1210.499 778.717 L 1214.944 778.511 L 1220.527 778.292 L 1226.216 778.07 L 1230.633 777.859 L 1236.188 777.632 L 1241.851 777.404 L 1246.239 777.186 L 1251.766 776.952 L 1257.403 776.717 L 1261.763 776.493 L 1267.262 776.252 L 1272.874 776.01 L 1277.206 775.779 L 1282.676 775.532 L 1288.263 775.282 L 1292.568 775.045 L 1298.01 774.79 L 1303.443 774.533 L 1309.049 774.274 L 1314.952 773.893 L 1320.353 773.628 L 1325.88 773.362 L 1330.115 773.109 L 1335.489 772.837 L 1340.853 772.563 L 1346.345 772.286 L 1350.545 772.025 L 1355.881 771.743 L 1361.407 771.46 L 1367.173 771.05 L 1372.479 770.761 L 1377.776 770.47 L 1383.209 770.176 L 1387.34 769.899 L 1392.61 769.6 L 1397.967 769.298 L 1404.898 768.849 L 1408.989 768.563 L 1414.219 768.253 L 1419.44 767.941 L 1424.805 767.627 L 1428.964 767.333 L 1435.66 766.864 L 1440.841 766.542 L 1446.173 766.218 L 1450.19 765.913 L 1455.451 765.584 L 1462.077 765.1 L 1467.375 764.765 L 1471.352 764.451 L 1476.578 764.111 L 1483.147 763.614 L 1488.242 763.268 L 1493.498 762.92 L 1497.542 762.595 L 1504.054 762.085 L 1509.111 761.728 L 1514.159 761.369 L 1519.446 761.007 L 1524.8 760.512 L 1529.819 760.145 L 1534.829 759.775 L 1540.086 759.403 L 1545.385 758.896 L 1550.367 758.518 L 1555.461 758.138 L 1561.82 757.592 L 1566.773 757.205 L 1571.983 756.816 L 1577.198 756.292 L 1582.122 755.897 L 1587.164 755.5 L 1593.439 754.934 L 1598.531 754.531 L 1602.398 754.159 L 1608.631 753.583 L 1613.63 753.172 L 1619.834 752.589 L 1624.681 752.171 L 1629.808 751.752 L 1634.871 751.193 L 1639.69 750.768 L 1644.638 750.34 L 1650.761 749.737 L 1655.69 749.303 L 1661.784 748.692 L 1666.858 748.253 L 1671.824 747.673 L 1676.576 747.227 L 1681.464 746.779 L 1687.489 746.151 L 1692.358 745.697 L 1698.355 745.062 L 1703.378 744.602 L 1708.248 744 L 1713.085 743.535 L 1719.025 742.886 L 1723.844 742.414 L 1729.757 741.758 L 1734.558 741.279 L 1740.443 740.617 L 1745.227 740.132 L 1751.325 739.463 L 1754.938 739.016 L 1760.927 738.339 L 1766.74 737.658 L 1771.483 737.158 L 1777.27 736.47 L 1781.996 735.964 L 1787.755 735.269 L 1792.463 734.756 L 1798.362 734.054 L 1804.079 733.348 L 1808.958 732.826 L 1813.551 732.16 L 1818.22 731.633 L 1824.056 730.913 L 1829.704 730.188 L 1834.347 729.65 L 1840.145 728.919 L 1845.75 728.182 L 1850.368 727.635 L 1856.127 726.892 L 1861.692 726.145 L 1866.285 725.588 L 1872.006 724.833 L 1877.529 724.074 L 1882.097 723.507 L 1887.78 722.742 L 1893.264 721.971 L 1897.807 721.394 L 1903.453 720.617 L 1909.085 719.836 L 1914.514 719.05 L 1919.024 718.459 L 1924.62 717.666 L 1930.429 716.87 L 1934.906 716.127 L 1940.265 715.322 L 1944.737 714.716 L 1950.272 713.903 L 1955.794 713.087 L 1961.303 712.267 L 1966.346 711.441 L 1971.883 710.756 L 1977.355 709.924 L 1982.814 709.087 L 1988.261 708.247 L 1993.695 707.402 L 1998.907 706.553 L 2003.288 705.907 L 2008.688 705.05 L 2014.075 704.19 L 2019.449 703.325 L 2024.811 702.456 L 2030.161 701.584 L 2035.499 700.706 L 2040.824 699.825 L 2046.138 698.94 L 2051.439 698.05 L 2056.728 697.157 L 2062.005 696.259 L 2067.27 695.357 L 2072.524 694.45 L 2077.765 693.54 L 2082.77 692.625 L 2089.036 691.634 L 2094.24 690.711 L 2099.434 689.783 L 2104.615 688.851 L 2109.786 687.915 L 2114.944 686.974 L 2120.092 686.03 L 2125.228 685.081 L 2130.353 684.128 L 2135.231 683.171 L 2141.375 682.131 L 2146.465 681.164 L 2151.544 680.194 L 2156.611 679.219 L 2161.668 678.239 L 2166.854 677.255 L 2172.894 676.046 L 2177.672 675.053 L 2183.72 673.974 L 2188.718 672.972 L 2193.706 671.965 L 2198.828 670.954 L 2204.78 669.715 L 2209.734 668.695 L 2214.427 667.672 L 2220.393 666.556 L 2225.461 665.522 L 2231.342 664.258 L 2236.241 663.215 L 2240.875 662.168 L 2246.93 661.026 L 2252.755 659.742 L 2257.61 658.68 L 2262.455 657.614 L 2267.226 656.543 L 2273.977 655.146 L 2278.789 654.065 L 2283.744 652.979 L 2289.474 651.659 L 2293.992 650.565 L 2299.936 649.369 L 2305.627 648.033 L 2310.376 646.924 L 2315.05 645.81 L 2321.672 644.36 L 2326.39 643.235 L 2331.255 642.105 L 2336.599 640.739 L 2342.456 639.498 L 2348.043 638.12 L 2352.868 636.97 L 2358.159 635.582 L 2363.814 634.32 L 2368.61 633.154 L 2374.137 631.749 L 2378.688 630.574 L 2385.145 629.053 L 2389.903 627.866 L 2395.106 626.441 L 2400.844 625.136 L 2406.298 623.698 L 2410.79 622.492 L 2417.167 620.933 L 2421.869 619.714 L 2427 618.255 L 2432.674 616.914 L 2438.221 615.44 L 2443.317 613.964 L 2448.958 612.605 L 2454.311 611.115 L 2458.719 609.86 L 2464.982 608.243 L 2469.603 606.975 L 2474.845 605.462 L 2481.071 603.826 L 2485.666 602.54 L 2490.877 601.009 L 2497.066 599.353 L 2501.405 598.052 L 2507.731 596.381 L 2512.972 594.825 L 2517.285 593.506 L 2523.577 591.814 L 2528.509 590.242 L 2533.982 588.779 L 2539.106 587.193 L 2545.19 585.474 L 2549.684 584.116 L 2554.783 582.511 L 2560.835 580.771 L 2565.077 579.397 L 2571.266 577.641 L 2576.331 576.009 L 2582.338 574.24 L 2586.552 572.84 L 2592.695 571.054 L 2597.729 569.395 L 2603.851 567.593 L 2608.664 565.922 L 2613.98 564.352 L 2618.984 562.665 L 2625.064 560.833 L 2630.054 559.131 L 2635.959 557.285 L 2640.104 555.815 L 2646.142 553.951 L 2651.107 552.22 L 2657.125 550.34 L 2662.077 548.593 L 2667.926 546.698 L 2672.035 545.184 L 2677.802 543.273 L 2683.771 541.35 L 2688.696 539.563 L 2694.646 537.623 L 2699.561 535.82 L 2705.348 533.864 L 2709.419 532.292 L 2715.129 530.318 L 2721.033 528.332 L 2725.925 526.486 L 2731.611 524.483 L 2737.488 522.467 L 2742.369 520.594 L 2748.23 518.558 L 2753.104 516.666 L 2758.575 514.615 L 2763.611 512.796 L 2768.477 510.874 L 2774.106 508.789 L 2779.918 506.689 L 2784.775 504.735 L 2790.386 502.616 L 2795.991 500.485 L 2801.77 498.339 L 2806.62 496.34 L 2812.207 494.173 L 2817.965 491.99 L 2822.81 489.954 L 2828.382 487.748 L 2833.947 485.528 L 2839.677 483.291 L 2844.364 481.205 L 2849.085 479.189 L 2854.631 476.911 L 2860.172 474.618 L 2865.868 472.305 L 2870.71 470.143 L 2876.239 467.8 L 2881.763 465.441 L 2887.284 463.063 L 2892.95 460.664 L 2897.796 458.414 L 2903.307 455.979 L 2908.815 453.523 L 2914.319 451.046 L 2919.819 448.547 L 2925.317 446.024 L 2930.811 443.477 L 2936.436 440.903 L 2941.298 438.474 L 2946.666 435.849 L 2951.262 433.438 L 2956.745 430.752 L 2962.225 428.033 L 2967.704 425.28 L 2973.166 422.491 L 2973.088 418.649 L 2973.012 414.8 L 2972.936 410.943 L 2972.861 407.078 L 2972.787 403.206 L 2972.714 399.326 L 2972.641 395.438 L 2972.569 391.543 L 2972.499 387.64 L 2972.428 383.73 L 2972.359 379.811 L 2972.291 375.885 L 2972.223 371.952 L 2972.156 368.01 L 2972.09 364.061 L 2972.025 360.104 L 2971.96 356.14 L 2971.896 352.168 L 2971.833 348.188 L 2971.771 344.201 L 2971.675 337.915 L 2953.122 340.624 L 2952.557 300.617 L 2971.179 302.802 L 2989.797 305.022 L 2989.294 263.763 L 2970.736 266.436 L 2952.172 269.075 L 2951.734 226.559 L 2970.348 228.815 L 2988.957 231.104 L 2988.586 187.328 L 2970.018 189.933 L 2951.445 192.504 L 2951.144 147.464 L 2969.75 149.787 L 2988.352 152.139 L 2988.16 114.662 L 2969.583 117.204 L 2951.003 119.718 L 2950.832 72.281 L 2969.43 74.661 L 2969.426 72.848 L 2969.414 68.354 L 2969.403 63.853 L 2969.393 59.343 L 2969.383 54.825 L 2969.375 50.3 L 2969.367 45.767 L 2969.36 41.225 L 2969.353 36.676 L 2969.347 32.119 L 2969.342 27.555 L 2969.338 22.982 L 2969.335 18.401 L 2969.332 13.813 L 2969.33 9.216 L 2969.329 4.612 L 2969.328 0 Z" vector-effect="non-scaling-stroke"/><g id="captions"><text alignment-baseline="middle" text-anchor="middle" transform="rotate(0,1478.923,460.914)" x="1478.923" y="460.914">WIND, 2, 0</text></g></g></svg>