<svg width="729.236" height="359.724" viewBox="0 0 729.236 359.724" xmlns="http://www.w3.org/2000/svg"><g id="svgGroup" stroke-linecap="round" fill-rule="evenodd" font-size="9pt" stroke="#000" stroke-width="0.25mm" fill="none" style="stroke:#000;stroke-width:0.25mm;fill:none"><path d="M 723.389 0 L 722.301 0.523 L 721.215 1.044 L 720.13 1.561 L 719.044 2.076 L 717.959 2.588 L 716.874 3.098 L 715.79 3.605 L 714.705 4.11 L 713.621 4.612 L 712.537 5.113 L 711.453 5.611 L 710.369 6.107 L 709.285 6.602 L 708.202 7.094 L 707.119 7.584 L 706.036 8.073 L 704.953 8.56 L 703.87 9.045 L 702.788 9.529 L 701.706 10.011 L 700.624 10.491 L 699.542 10.97 L 698.46 11.448 L 697.379 11.924 L 696.298 12.399 L 695.217 12.872 L 694.136 13.344 L 693.055 13.816 L 691.975 14.285 L 690.894 14.754 L 689.814 15.222 L 688.734 15.688 L 687.655 16.154 L 686.575 16.618 L 685.496 17.082 L 684.417 17.545 L 683.338 18.006 L 682.259 18.467 L 681.181 18.927 L 680.103 19.386 L 679.025 19.845 L 677.947 20.303 L 676.869 20.759 L 675.791 21.216 L 674.714 21.671 L 673.637 22.126 L 672.56 22.58 L 671.484 23.034 L 670.407 23.487 L 669.331 23.939 L 668.255 24.391 L 667.179 24.842 L 666.103 25.293 L 665.027 25.743 L 663.952 26.193 L 662.877 26.642 L 661.802 27.091 L 660.727 27.539 L 659.653 27.987 L 658.578 28.435 L 657.504 28.882 L 656.43 29.328 L 655.356 29.775 L 654.283 30.221 L 653.209 30.667 L 652.136 31.112 L 651.063 31.557 L 649.99 32.002 L 648.917 32.446 L 647.845 32.89 L 646.772 33.334 L 645.7 33.778 L 644.628 34.221 L 643.556 34.664 L 642.485 35.107 L 641.413 35.55 L 640.342 35.992 L 639.27 36.434 L 638.199 36.876 L 637.128 37.318 L 636.058 37.76 L 634.987 38.201 L 633.917 38.642 L 632.846 39.083 L 631.776 39.524 L 630.706 39.965 L 629.636 40.406 L 628.566 40.846 L 627.497 41.286 L 626.427 41.726 L 625.358 42.167 L 624.288 42.606 L 623.219 43.046 L 622.15 43.486 L 621.081 43.925 L 620.012 44.365 L 618.943 44.804 L 617.875 45.243 L 616.806 45.683 L 615.738 46.122 L 614.669 46.56 L 613.601 46.999 L 612.532 47.438 L 611.464 47.877 L 610.396 48.315 L 609.328 48.754 L 608.26 49.192 L 607.191 49.63 L 606.123 50.068 L 605.055 50.507 L 603.987 50.945 L 602.919 51.383 L 601.852 51.82 L 600.784 52.258 L 599.716 52.696 L 598.648 53.133 L 597.58 53.571 L 596.512 54.008 L 595.444 54.446 L 594.376 54.883 L 593.308 55.32 L 592.24 55.757 L 591.172 56.194 L 590.104 56.631 L 589.035 57.068 L 587.967 57.505 L 586.899 57.942 L 585.831 58.378 L 584.762 58.815 L 583.694 59.251 L 582.625 59.688 L 581.556 60.124 L 580.488 60.56 L 579.419 60.996 L 578.35 61.432 L 577.281 61.868 L 576.212 62.304 L 575.142 62.74 L 574.073 63.175 L 573.003 63.611 L 571.934 64.046 L 570.864 64.482 L 569.794 64.917 L 568.724 65.352 L 567.653 65.787 L 566.583 66.222 L 565.513 66.657 L 564.442 67.091 L 563.371 67.526 L 562.3 67.96 L 561.229 68.394 L 560.157 68.829 L 559.086 69.263 L 558.014 69.697 L 556.942 70.13 L 555.87 70.564 L 554.798 70.998 L 553.725 71.431 L 552.652 71.864 L 551.58 72.298 L 550.507 72.731 L 549.433 73.164 L 548.36 73.596 L 547.286 74.029 L 546.212 74.461 L 545.138 74.894 L 544.064 75.326 L 542.99 75.758 L 541.915 76.19 L 540.84 76.622 L 539.765 77.053 L 538.69 77.485 L 537.614 77.916 L 536.539 78.347 L 535.463 78.778 L 534.387 79.209 L 533.311 79.64 L 532.234 80.07 L 531.158 80.501 L 530.081 80.931 L 529.004 81.361 L 527.927 81.791 L 526.849 82.221 L 525.772 82.65 L 524.694 83.08 L 523.616 83.509 L 522.538 83.938 L 521.46 84.367 L 520.382 84.796 L 519.303 85.224 L 518.225 85.653 L 517.146 86.081 L 516.067 86.509 L 514.988 86.937 L 513.909 87.364 L 512.829 87.792 L 511.75 88.219 L 510.67 88.646 L 509.591 89.073 L 508.511 89.5 L 507.431 89.927 L 506.351 90.353 L 505.271 90.78 L 504.191 91.206 L 503.11 91.632 L 502.03 92.058 L 500.95 92.483 L 499.869 92.909 L 498.789 93.334 L 497.708 93.759 L 496.627 94.184 L 495.547 94.608 L 494.466 95.033 L 493.385 95.457 L 492.305 95.882 L 491.224 96.305 L 490.143 96.729 L 489.062 97.153 L 487.981 97.576 L 486.901 98 L 485.82 98.423 L 484.739 98.846 L 483.659 99.268 L 482.578 99.691 L 481.497 100.113 L 480.417 100.535 L 479.336 100.957 L 478.256 101.379 L 477.176 101.801 L 476.095 102.222 L 475.015 102.644 L 473.935 103.065 L 472.855 103.486 L 471.775 103.907 L 470.696 104.327 L 469.616 104.748 L 468.537 105.168 L 467.457 105.588 L 466.378 106.008 L 465.299 106.427 L 464.22 106.847 L 463.141 107.266 L 462.063 107.685 L 460.984 108.104 L 459.906 108.523 L 458.828 108.942 L 457.75 109.36 L 456.672 109.779 L 455.595 110.197 L 454.517 110.615 L 453.44 111.032 L 452.363 111.45 L 451.286 111.867 L 450.21 112.285 L 449.134 112.702 L 448.058 113.119 L 446.982 113.535 L 445.907 113.952 L 444.831 114.368 L 443.756 114.784 L 442.682 115.2 L 441.607 115.616 L 440.533 116.032 L 439.459 116.447 L 438.385 116.863 L 437.312 117.278 L 436.239 117.693 L 435.166 118.108 L 434.093 118.522 L 433.021 118.937 L 431.949 119.351 L 430.878 119.765 L 429.806 120.179 L 428.735 120.593 L 427.665 121.007 L 426.594 121.42 L 425.524 121.833 L 424.454 122.247 L 423.385 122.66 L 422.316 123.072 L 421.247 123.485 L 420.179 123.897 L 419.111 124.31 L 418.043 124.722 L 416.975 125.134 L 415.908 125.546 L 414.842 125.957 L 413.775 126.369 L 412.709 126.78 L 411.644 127.191 L 410.578 127.602 L 409.513 128.013 L 408.449 128.423 L 407.385 128.834 L 406.321 129.244 L 405.257 129.654 L 404.194 130.064 L 403.131 130.474 L 402.069 130.884 L 401.007 131.293 L 399.945 131.703 L 398.884 132.112 L 397.823 132.521 L 396.763 132.929 L 395.702 133.338 L 394.643 133.747 L 393.583 134.155 L 392.524 134.563 L 391.466 134.971 L 390.407 135.379 L 389.349 135.787 L 388.292 136.194 L 387.235 136.602 L 386.178 137.009 L 385.122 137.416 L 384.066 137.823 L 383.01 138.229 L 381.955 138.636 L 380.9 139.042 L 379.846 139.449 L 378.791 139.855 L 377.738 140.261 L 376.684 140.666 L 375.631 141.072 L 374.579 141.478 L 373.527 141.883 L 372.475 142.288 L 371.423 142.693 L 370.372 143.098 L 369.322 143.502 L 368.271 143.907 L 367.222 144.311 L 366.172 144.715 L 365.123 145.12 L 364.074 145.523 L 363.026 145.927 L 361.978 146.331 L 360.93 146.734 L 359.883 147.137 L 358.836 147.54 L 357.789 147.943 L 356.743 148.346 L 355.697 148.749 L 354.652 149.151 L 353.607 149.554 L 352.562 149.956 L 351.518 150.358 L 350.474 150.76 L 349.43 151.161 L 348.387 151.563 L 347.344 151.964 L 346.302 152.365 L 345.26 152.767 L 344.218 153.167 L 343.176 153.568 L 342.135 153.969 L 341.095 154.369 L 340.054 154.77 L 339.014 155.17 L 337.975 155.57 L 336.935 155.97 L 335.896 156.369 L 334.858 156.769 L 333.819 157.168 L 332.781 157.568 L 331.744 157.967 L 330.707 158.366 L 329.67 158.765 L 328.633 159.163 L 327.597 159.562 L 326.561 159.96 L 325.526 160.358 L 324.49 160.756 L 323.455 161.154 L 322.421 161.552 L 321.387 161.95 L 320.353 162.347 L 319.319 162.745 L 318.286 163.142 L 317.253 163.539 L 316.22 163.936 L 315.188 164.332 L 314.156 164.729 L 313.124 165.125 L 312.093 165.522 L 311.062 165.918 L 310.031 166.314 L 309.001 166.71 L 307.971 167.105 L 306.941 167.501 L 305.911 167.896 L 304.882 168.292 L 303.853 168.687 L 302.825 169.082 L 301.796 169.477 L 300.768 169.871 L 299.741 170.266 L 298.713 170.66 L 297.686 171.055 L 296.659 171.449 L 295.633 171.843 L 294.607 172.237 L 293.581 172.63 L 292.555 173.024 L 291.53 173.417 L 290.504 173.811 L 289.48 174.204 L 288.455 174.597 L 287.431 174.99 L 286.407 175.382 L 285.383 175.775 L 284.36 176.167 L 283.336 176.56 L 282.313 176.952 L 281.291 177.344 L 280.268 177.736 L 279.246 178.127 L 278.224 178.519 L 277.203 178.911 L 276.181 179.302 L 275.16 179.693 L 274.139 180.084 L 273.119 180.475 L 272.098 180.866 L 271.078 181.257 L 270.059 181.647 L 269.039 182.037 L 268.02 182.428 L 267 182.818 L 265.982 183.208 L 264.963 183.598 L 263.945 183.987 L 262.926 184.377 L 261.909 184.766 L 260.891 185.156 L 259.873 185.545 L 258.856 185.934 L 257.839 186.323 L 256.822 186.712 L 255.806 187.1 L 254.79 187.489 L 253.774 187.877 L 252.758 188.265 L 251.742 188.654 L 250.727 189.042 L 249.711 189.43 L 248.696 189.817 L 247.682 190.205 L 246.667 190.592 L 245.653 190.98 L 244.639 191.367 L 243.625 191.754 L 242.611 192.141 L 241.597 192.528 L 240.584 192.915 L 239.571 193.301 L 238.558 193.688 L 237.546 194.074 L 236.533 194.46 L 235.521 194.846 L 234.509 195.232 L 233.497 195.618 L 232.485 196.004 L 231.474 196.39 L 230.462 196.775 L 229.451 197.16 L 228.44 197.546 L 227.429 197.931 L 226.419 198.316 L 225.408 198.701 L 224.398 199.085 L 223.388 199.47 L 222.378 199.854 L 221.369 200.239 L 220.359 200.623 L 219.35 201.007 L 218.341 201.391 L 217.332 201.775 L 216.323 202.159 L 215.314 202.543 L 214.306 202.926 L 213.298 203.31 L 212.29 203.693 L 211.282 204.076 L 210.274 204.459 L 209.266 204.842 L 208.259 205.225 L 207.252 205.608 L 206.245 205.99 L 205.238 206.373 L 204.231 206.755 L 203.224 207.138 L 202.218 207.52 L 201.211 207.902 L 200.205 208.284 L 199.199 208.666 L 198.193 209.047 L 197.188 209.429 L 196.182 209.811 L 195.177 210.192 L 194.171 210.573 L 193.166 210.954 L 192.161 211.336 L 191.157 211.716 L 190.152 212.097 L 189.147 212.478 L 188.143 212.859 L 187.139 213.239 L 186.135 213.62 L 185.131 214 L 184.127 214.38 L 183.123 214.76 L 182.119 215.14 L 181.116 215.52 L 180.113 215.9 L 179.11 216.28 L 178.107 216.659 L 177.104 217.039 L 176.101 217.418 L 175.098 217.797 L 174.096 218.177 L 173.093 218.556 L 172.091 218.935 L 171.089 219.314 L 170.087 219.692 L 169.085 220.071 L 168.083 220.45 L 167.082 220.828 L 166.08 221.206 L 165.079 221.585 L 164.077 221.963 L 163.076 222.341 L 162.075 222.719 L 161.074 223.097 L 160.073 223.475 L 159.073 223.852 L 158.072 224.23 L 157.071 224.607 L 156.071 224.985 L 155.071 225.362 L 154.071 225.739 L 153.071 226.117 L 152.071 226.494 L 151.071 226.871 L 150.071 227.248 L 149.072 227.624 L 148.072 228.001 L 147.073 228.378 L 146.073 228.754 L 145.074 229.131 L 144.075 229.507 L 143.076 229.883 L 142.077 230.259 L 141.078 230.635 L 140.08 231.011 L 139.081 231.387 L 138.083 231.763 L 137.084 232.139 L 136.086 232.515 L 135.088 232.89 L 134.089 233.266 L 133.091 233.641 L 132.094 234.016 L 131.096 234.392 L 130.098 234.767 L 129.1 235.142 L 128.103 235.517 L 127.105 235.892 L 126.108 236.267 L 125.111 236.641 L 124.113 237.016 L 123.116 237.391 L 122.119 237.765 L 121.122 238.14 L 120.125 238.514 L 119.129 238.889 L 118.132 239.263 L 117.135 239.637 L 116.139 240.011 L 115.142 240.385 L 114.146 240.759 L 113.15 241.133 L 112.154 241.507 L 111.157 241.881 L 110.161 242.254 L 109.165 242.628 L 108.17 243.001 L 107.174 243.375 L 106.178 243.748 L 105.182 244.122 L 104.187 244.495 L 103.191 244.868 L 102.196 245.241 L 101.201 245.614 L 100.205 245.987 L 99.21 246.36 L 98.215 246.733 L 97.22 247.106 L 96.225 247.479 L 95.23 247.852 L 94.235 248.224 L 93.24 248.597 L 92.246 248.969 L 91.251 249.342 L 90.257 249.714 L 89.262 250.087 L 88.268 250.459 L 87.273 250.831 L 86.279 251.204 L 85.285 251.576 L 84.291 251.948 L 83.297 252.32 L 82.303 252.692 L 81.309 253.064 L 80.315 253.436 L 79.321 253.808 L 78.327 254.18 L 77.334 254.551 L 76.34 254.923 L 75.346 255.295 L 74.353 255.666 L 73.36 256.038 L 72.366 256.41 L 71.373 256.781 L 70.38 257.153 L 69.386 257.524 L 68.393 257.895 L 67.4 258.267 L 66.407 258.638 L 65.414 259.009 L 64.421 259.381 L 63.429 259.752 L 62.436 260.123 L 61.443 260.494 L 60.45 260.865 L 59.458 261.236 L 58.465 261.607 L 57.473 261.978 L 56.48 262.349 L 55.488 262.72 L 54.496 263.091 L 53.503 263.462 L 52.511 263.833 L 51.519 264.204 L 50.527 264.575 L 49.535 264.945 L 48.543 265.316 L 47.551 265.687 L 46.559 266.058 L 45.567 266.428 L 44.576 266.799 L 43.584 267.17 L 42.592 267.54 L 41.601 267.911 L 40.609 268.282 L 39.618 268.652 L 38.626 269.023 L 37.635 269.393 L 36.644 269.764 L 35.652 270.135 L 34.661 270.505 L 33.67 270.876 L 32.679 271.246 L 31.688 271.617 L 30.697 271.987 L 29.706 272.358 L 28.715 272.729 L 27.724 273.099 L 26.733 273.47 L 25.742 273.84 L 24.752 274.211 L 23.761 274.581 L 22.77 274.952 L 21.78 275.323 L 20.789 275.693 L 19.799 276.064 L 18.808 276.434 L 17.818 276.805 L 16.828 277.176 L 15.837 277.546 L 14.847 277.917 L 13.857 278.288 L 12.867 278.658 L 11.877 279.029 L 10.887 279.4 L 9.897 279.771 L 8.907 280.141 L 7.917 280.512 L 6.927 280.883 L 5.938 281.254 L 4.948 281.625 L 3.958 281.996 L 2.969 282.367 L 1.979 282.738 L 0.989 283.109 L 0 283.48 L 1.742 309.737 L 17.333 359.724 L 18.349 359.476 L 19.366 359.228 L 20.383 358.98 L 21.4 358.732 L 22.417 358.484 L 23.433 358.236 L 24.45 357.988 L 25.467 357.74 L 26.484 357.492 L 27.5 357.244 L 28.517 356.997 L 29.534 356.749 L 30.551 356.501 L 31.567 356.253 L 32.584 356.005 L 33.601 355.757 L 34.618 355.509 L 35.634 355.261 L 36.651 355.013 L 37.668 354.765 L 38.685 354.517 L 39.701 354.269 L 40.718 354.021 L 41.735 353.773 L 42.752 353.525 L 43.768 353.277 L 44.785 353.029 L 45.802 352.781 L 46.819 352.533 L 47.836 352.285 L 48.852 352.037 L 49.869 351.789 L 50.886 351.541 L 51.903 351.294 L 52.919 351.046 L 53.936 350.798 L 54.953 350.55 L 55.97 350.302 L 56.986 350.054 L 58.003 349.806 L 59.02 349.558 L 60.037 349.31 L 61.053 349.062 L 62.07 348.814 L 63.087 348.566 L 64.104 348.318 L 65.12 348.07 L 66.137 347.822 L 67.154 347.574 L 68.171 347.326 L 69.187 347.078 L 70.204 346.83 L 71.221 346.582 L 72.238 346.334 L 73.254 346.086 L 74.271 345.838 L 75.288 345.59 L 76.305 345.342 L 77.321 345.094 L 78.338 344.846 L 79.355 344.598 L 80.372 344.35 L 81.388 344.102 L 82.405 343.854 L 83.422 343.606 L 84.439 343.358 L 85.456 343.11 L 86.472 342.862 L 87.489 342.614 L 88.506 342.366 L 89.523 342.118 L 90.539 341.87 L 91.556 341.622 L 92.573 341.374 L 93.59 341.126 L 94.606 340.878 L 95.623 340.63 L 96.64 340.382 L 97.656 340.134 L 98.673 339.886 L 99.69 339.638 L 100.707 339.39 L 101.723 339.142 L 102.74 338.894 L 103.757 338.646 L 104.774 338.398 L 105.79 338.15 L 106.807 337.902 L 107.824 337.654 L 108.841 337.406 L 109.857 337.158 L 110.874 336.91 L 111.891 336.662 L 112.908 336.414 L 113.924 336.166 L 114.941 335.918 L 115.958 335.67 L 116.975 335.422 L 117.991 335.173 L 119.008 334.925 L 120.025 334.677 L 121.042 334.429 L 122.058 334.181 L 123.075 333.933 L 124.092 333.685 L 125.108 333.437 L 126.125 333.189 L 127.142 332.941 L 128.159 332.693 L 129.175 332.445 L 130.192 332.196 L 131.209 331.948 L 132.226 331.7 L 133.242 331.452 L 134.259 331.204 L 135.276 330.956 L 136.293 330.708 L 137.309 330.46 L 138.326 330.211 L 139.343 329.963 L 140.359 329.715 L 141.376 329.467 L 142.393 329.219 L 143.41 328.971 L 144.426 328.722 L 145.443 328.474 L 146.46 328.226 L 147.476 327.978 L 148.493 327.73 L 149.51 327.481 L 150.527 327.233 L 151.543 326.985 L 152.56 326.737 L 153.577 326.489 L 154.593 326.24 L 155.61 325.992 L 156.627 325.744 L 157.644 325.496 L 158.66 325.247 L 159.677 324.999 L 160.694 324.751 L 161.71 324.503 L 162.727 324.254 L 163.744 324.006 L 164.76 323.758 L 165.777 323.509 L 166.794 323.261 L 167.811 323.013 L 168.827 322.764 L 169.844 322.516 L 170.861 322.268 L 171.877 322.019 L 172.894 321.771 L 173.911 321.523 L 174.927 321.274 L 175.944 321.026 L 176.961 320.778 L 177.977 320.529 L 178.994 320.281 L 180.011 320.032 L 181.028 319.784 L 182.044 319.535 L 183.061 319.287 L 184.078 319.039 L 185.094 318.79 L 186.111 318.542 L 187.128 318.293 L 188.144 318.045 L 189.161 317.796 L 190.178 317.548 L 191.194 317.299 L 192.211 317.05 L 193.228 316.802 L 194.244 316.553 L 195.261 316.305 L 196.278 316.056 L 197.294 315.808 L 198.311 315.559 L 199.328 315.31 L 200.344 315.062 L 201.361 314.813 L 202.378 314.564 L 203.394 314.316 L 204.411 314.067 L 205.428 313.818 L 206.444 313.57 L 207.461 313.321 L 208.477 313.072 L 209.494 312.823 L 210.511 312.575 L 211.527 312.326 L 212.544 312.077 L 213.561 311.828 L 214.577 311.579 L 215.594 311.33 L 216.611 311.082 L 217.627 310.833 L 218.644 310.584 L 219.66 310.335 L 220.677 310.086 L 221.694 309.837 L 222.71 309.588 L 223.727 309.339 L 224.744 309.09 L 225.76 308.841 L 226.777 308.592 L 227.793 308.343 L 228.81 308.094 L 229.827 307.845 L 230.843 307.595 L 231.86 307.346 L 232.876 307.097 L 233.893 306.848 L 234.91 306.599 L 235.926 306.349 L 236.943 306.1 L 237.959 305.851 L 238.976 305.602 L 239.993 305.352 L 241.009 305.103 L 242.026 304.853 L 243.042 304.604 L 244.059 304.355 L 245.076 304.105 L 246.092 303.856 L 247.109 303.606 L 248.125 303.357 L 249.142 303.107 L 250.158 302.858 L 251.175 302.608 L 252.192 302.358 L 253.208 302.109 L 254.225 301.859 L 255.241 301.609 L 256.258 301.36 L 257.274 301.11 L 258.291 300.86 L 259.307 300.61 L 260.324 300.36 L 261.341 300.11 L 262.357 299.86 L 263.374 299.61 L 264.39 299.36 L 265.407 299.11 L 266.423 298.86 L 267.44 298.61 L 268.456 298.36 L 269.473 298.11 L 270.489 297.86 L 271.506 297.61 L 272.522 297.359 L 273.539 297.109 L 274.555 296.859 L 275.572 296.608 L 276.588 296.358 L 277.605 296.107 L 278.621 295.857 L 279.638 295.606 L 280.654 295.356 L 281.671 295.105 L 282.687 294.854 L 283.704 294.604 L 284.72 294.353 L 285.737 294.102 L 286.753 293.851 L 287.77 293.601 L 288.786 293.35 L 289.803 293.099 L 290.819 292.848 L 291.836 292.597 L 292.852 292.345 L 293.869 292.094 L 294.885 291.843 L 295.902 291.592 L 296.918 291.34 L 297.935 291.089 L 298.951 290.838 L 299.968 290.586 L 300.984 290.335 L 302 290.083 L 303.017 289.832 L 304.033 289.58 L 305.05 289.328 L 306.066 289.076 L 307.083 288.824 L 308.099 288.573 L 309.115 288.321 L 310.132 288.069 L 311.148 287.816 L 312.165 287.564 L 313.181 287.312 L 314.198 287.06 L 315.214 286.807 L 316.23 286.555 L 317.247 286.303 L 318.263 286.05 L 319.28 285.797 L 320.296 285.545 L 321.312 285.292 L 322.329 285.039 L 323.345 284.786 L 324.362 284.533 L 325.378 284.28 L 326.394 284.027 L 327.411 283.774 L 328.427 283.521 L 329.444 283.267 L 330.46 283.014 L 331.476 282.76 L 332.493 282.507 L 333.509 282.253 L 334.525 281.999 L 335.542 281.745 L 336.558 281.491 L 337.574 281.237 L 338.591 280.983 L 339.607 280.729 L 340.624 280.475 L 341.64 280.221 L 342.656 279.966 L 343.673 279.711 L 344.689 279.457 L 345.705 279.202 L 346.722 278.947 L 347.738 278.692 L 348.754 278.437 L 349.771 278.182 L 350.787 277.927 L 351.803 277.671 L 352.82 277.416 L 353.836 277.16 L 354.852 276.905 L 355.868 276.649 L 356.885 276.393 L 357.901 276.137 L 358.917 275.881 L 359.934 275.625 L 360.95 275.368 L 361.966 275.112 L 362.983 274.855 L 363.999 274.598 L 365.015 274.342 L 366.031 274.085 L 367.048 273.828 L 368.064 273.57 L 369.08 273.313 L 370.097 273.055 L 371.113 272.798 L 372.129 272.54 L 373.145 272.282 L 374.162 272.024 L 375.178 271.766 L 376.194 271.508 L 377.211 271.249 L 378.227 270.99 L 379.243 270.732 L 380.259 270.473 L 381.276 270.214 L 382.292 269.954 L 383.308 269.695 L 384.324 269.436 L 385.341 269.176 L 386.357 268.916 L 387.373 268.656 L 388.389 268.396 L 389.406 268.135 L 390.422 267.875 L 391.438 267.614 L 392.454 267.353 L 393.471 267.092 L 394.487 266.831 L 395.503 266.569 L 396.519 266.308 L 397.536 266.046 L 398.552 265.784 L 399.568 265.522 L 400.584 265.259 L 401.6 264.996 L 402.617 264.734 L 403.633 264.471 L 404.649 264.207 L 405.665 263.944 L 406.682 263.68 L 407.698 263.416 L 408.714 263.152 L 409.73 262.888 L 410.747 262.623 L 411.763 262.359 L 412.779 262.094 L 413.795 261.828 L 414.811 261.563 L 415.828 261.297 L 416.844 261.031 L 417.86 260.765 L 418.876 260.499 L 419.892 260.232 L 420.909 259.965 L 421.925 259.698 L 422.941 259.43 L 423.957 259.162 L 424.974 258.894 L 425.99 258.626 L 427.006 258.358 L 428.022 258.089 L 429.038 257.82 L 430.055 257.55 L 431.071 257.28 L 432.087 257.01 L 433.103 256.74 L 434.12 256.469 L 435.136 256.198 L 436.152 255.927 L 437.168 255.656 L 438.185 255.384 L 439.201 255.111 L 440.217 254.839 L 441.233 254.566 L 442.249 254.293 L 443.266 254.019 L 444.282 253.745 L 445.298 253.471 L 446.314 253.196 L 447.331 252.921 L 448.347 252.646 L 449.363 252.37 L 450.379 252.094 L 451.396 251.818 L 452.412 251.541 L 453.428 251.263 L 454.444 250.986 L 455.461 250.708 L 456.477 250.429 L 457.493 250.15 L 458.509 249.871 L 459.526 249.591 L 460.542 249.311 L 461.558 249.03 L 462.575 248.749 L 463.591 248.468 L 464.607 248.186 L 465.623 247.903 L 466.64 247.62 L 467.656 247.337 L 468.672 247.053 L 469.689 246.769 L 470.705 246.484 L 471.721 246.199 L 472.738 245.913 L 473.754 245.626 L 474.77 245.34 L 475.787 245.052 L 476.803 244.764 L 477.819 244.476 L 478.836 244.187 L 479.852 243.897 L 480.868 243.607 L 481.885 243.316 L 482.901 243.025 L 483.917 242.733 L 484.934 242.441 L 485.95 242.148 L 486.967 241.854 L 487.983 241.559 L 488.999 241.265 L 490.016 240.969 L 491.032 240.673 L 492.049 240.376 L 493.065 240.078 L 494.081 239.78 L 495.098 239.481 L 496.114 239.182 L 497.131 238.881 L 498.147 238.58 L 499.164 238.279 L 500.18 237.976 L 501.197 237.673 L 502.213 237.369 L 503.23 237.065 L 504.246 236.759 L 505.263 236.453 L 506.279 236.146 L 507.296 235.838 L 508.312 235.53 L 509.329 235.22 L 510.345 234.91 L 511.362 234.599 L 512.379 234.287 L 513.395 233.974 L 514.412 233.661 L 515.428 233.346 L 516.445 233.03 L 517.462 232.714 L 518.478 232.397 L 519.495 232.079 L 520.511 231.759 L 521.528 231.439 L 522.545 231.118 L 523.561 230.796 L 524.578 230.473 L 525.595 230.149 L 526.611 229.824 L 527.628 229.498 L 528.645 229.17 L 529.662 228.842 L 530.678 228.513 L 531.695 228.182 L 532.712 227.851 L 533.729 227.518 L 534.745 227.184 L 535.762 226.849 L 536.779 226.513 L 537.796 226.175 L 538.813 225.837 L 539.829 225.497 L 540.846 225.156 L 541.863 224.814 L 542.88 224.47 L 543.897 224.125 L 544.914 223.779 L 545.931 223.432 L 546.948 223.083 L 547.965 222.733 L 548.982 222.381 L 549.998 222.028 L 551.015 221.674 L 552.032 221.318 L 553.049 220.961 L 554.066 220.602 L 555.083 220.242 L 556.1 219.88 L 557.117 219.517 L 558.135 219.153 L 559.152 218.786 L 560.169 218.418 L 561.186 218.049 L 562.203 217.678 L 563.22 217.305 L 564.237 216.93 L 565.254 216.554 L 566.271 216.176 L 567.289 215.797 L 568.306 215.415 L 569.323 215.032 L 570.34 214.647 L 571.357 214.26 L 572.375 213.872 L 573.392 213.481 L 574.409 213.089 L 575.426 212.694 L 576.444 212.298 L 577.461 211.899 L 578.478 211.499 L 579.496 211.097 L 580.513 210.692 L 581.53 210.286 L 582.548 209.877 L 583.565 209.466 L 584.582 209.053 L 585.6 208.638 L 586.617 208.22 L 587.635 207.801 L 588.652 207.379 L 589.669 206.954 L 590.687 206.527 L 591.704 206.098 L 592.722 205.667 L 593.739 205.233 L 594.757 204.796 L 595.774 204.357 L 596.792 203.916 L 597.81 203.472 L 598.827 203.025 L 599.845 202.576 L 600.862 202.124 L 601.88 201.669 L 602.898 201.211 L 603.915 200.751 L 604.933 200.288 L 605.951 199.822 L 606.968 199.353 L 607.986 198.881 L 609.004 198.406 L 610.022 197.928 L 611.039 197.447 L 612.057 196.963 L 613.075 196.475 L 614.093 195.985 L 615.11 195.491 L 616.128 194.994 L 617.146 194.494 L 618.164 193.99 L 619.182 193.483 L 620.2 192.972 L 621.218 192.458 L 622.236 191.94 L 623.254 191.419 L 624.271 190.894 L 625.289 190.365 L 626.307 189.833 L 627.325 189.296 L 628.343 188.756 L 629.361 188.212 L 630.38 187.664 L 631.398 187.112 L 632.416 186.556 L 633.434 185.995 L 634.452 185.431 L 635.47 184.862 L 636.488 184.289 L 637.506 183.711 L 638.525 183.129 L 639.543 182.542 L 640.561 181.951 L 641.579 181.355 L 642.597 180.755 L 643.616 180.15 L 644.634 179.54 L 645.652 178.925 L 646.671 178.304 L 647.689 177.679 L 648.707 177.049 L 649.726 176.414 L 650.744 175.773 L 651.763 175.127 L 652.781 174.475 L 653.8 173.818 L 654.818 173.155 L 655.837 172.487 L 656.855 171.812 L 657.874 171.132 L 658.892 170.446 L 659.911 169.754 L 660.93 169.055 L 661.948 168.351 L 662.967 167.64 L 663.986 166.922 L 665.005 166.198 L 666.023 165.468 L 667.042 164.73 L 668.061 163.986 L 669.08 163.235 L 670.099 162.476 L 671.118 161.711 L 672.137 160.938 L 673.156 160.158 L 674.175 159.37 L 675.194 158.574 L 676.213 157.771 L 677.232 156.959 L 678.251 156.14 L 679.271 155.312 L 680.29 154.476 L 681.309 153.631 L 682.329 152.778 L 683.348 151.916 L 684.367 151.044 L 685.387 150.164 L 686.406 149.275 L 687.426 148.376 L 688.446 147.467 L 689.465 146.548 L 690.485 145.62 L 691.505 144.681 L 692.525 143.732 L 693.545 142.772 L 694.565 141.802 L 695.585 140.821 L 696.605 139.828 L 697.625 138.824 L 698.645 137.808 L 699.665 136.781 L 700.686 135.741 L 701.706 134.689 L 702.727 133.625 L 703.747 132.547 L 704.768 131.457 L 705.789 130.353 L 706.809 129.235 L 707.83 128.104 L 708.851 126.958 L 709.873 125.798 L 710.894 124.622 L 711.915 123.432 L 712.937 122.225 L 713.958 121.003 L 714.98 119.765 L 716.001 118.51 L 717.023 117.237 L 718.045 115.948 L 719.068 114.64 L 720.09 113.314 L 721.112 111.97 L 722.135 110.606 L 723.158 109.222 L 724.181 107.818 L 725.204 106.393 L 726.227 104.947 L 726.223 104.858 L 726.22 104.769 L 726.216 104.68 L 726.212 104.591 L 726.209 104.502 L 726.205 104.413 L 726.202 104.324 L 726.198 104.235 L 726.194 104.146 L 726.191 104.057 L 726.187 103.968 L 726.184 103.879 L 726.18 103.789 L 726.176 103.7 L 726.173 103.611 L 726.169 103.521 L 726.166 103.432 L 726.162 103.343 L 726.158 103.253 L 726.155 103.164 L 726.151 103.074 L 726.148 102.985 L 726.144 102.895 L 726.14 102.806 L 726.137 102.716 L 726.133 102.626 L 726.13 102.537 L 726.126 102.447 L 726.123 102.357 L 726.119 102.268 L 726.115 102.178 L 726.112 102.088 L 726.108 101.998 L 726.105 101.908 L 726.101 101.818 L 726.098 101.728 L 726.094 101.638 L 726.09 101.548 L 726.087 101.458 L 726.083 101.368 L 726.08 101.278 L 726.076 101.188 L 726.073 101.098 L 726.069 101.007 L 726.065 100.917 L 726.062 100.827 L 726.058 100.737 L 726.055 100.646 L 726.051 100.556 L 726.048 100.465 L 726.044 100.375 L 726.041 100.284 L 726.037 100.194 L 726.034 100.103 L 726.03 100.013 L 726.026 99.922 L 726.023 99.832 L 726.019 99.741 L 726.016 99.65 L 726.012 99.559 L 726.009 99.469 L 726.005 99.378 L 726.002 99.287 L 725.998 99.196 L 725.995 99.105 L 725.991 99.014 L 725.988 98.923 L 725.984 98.832 L 725.981 98.741 L 725.977 98.65 L 725.974 98.559 L 725.97 98.468 L 725.967 98.377 L 725.963 98.286 L 725.959 98.194 L 725.956 98.103 L 725.952 98.012 L 725.949 97.921 L 725.945 97.829 L 725.942 97.738 L 725.938 97.646 L 725.935 97.555 L 725.931 97.463 L 725.928 97.372 L 725.924 97.28 L 725.921 97.189 L 725.917 97.097 L 725.914 97.006 L 725.91 96.914 L 725.907 96.822 L 725.904 96.73 L 725.9 96.639 L 725.897 96.547 L 725.893 96.455 L 725.89 96.363 L 725.886 96.271 L 725.883 96.179 L 725.879 96.087 L 725.876 95.995 L 725.872 95.903 L 725.869 95.811 L 725.865 95.719 L 725.862 95.627 L 725.858 95.535 L 725.855 95.443 L 725.851 95.35 L 725.848 95.258 L 725.844 95.166 L 725.841 95.074 L 725.838 94.981 L 725.834 94.889 L 725.831 94.796 L 725.827 94.704 L 725.824 94.612 L 725.82 94.519 L 725.817 94.426 L 725.813 94.334 L 725.81 94.241 L 725.806 94.149 L 725.803 94.056 L 725.8 93.963 L 725.796 93.871 L 725.793 93.778 L 725.789 93.685 L 725.786 93.592 L 725.782 93.499 L 725.779 93.406 L 725.775 93.313 L 725.772 93.22 L 725.769 93.127 L 725.765 93.034 L 725.762 92.941 L 725.758 92.848 L 725.755 92.755 L 725.751 92.662 L 725.748 92.569 L 725.745 92.476 L 725.741 92.382 L 725.738 92.289 L 725.734 92.196 L 725.731 92.102 L 725.728 92.009 L 725.724 91.915 L 725.721 91.822 L 725.717 91.729 L 725.714 91.635 L 725.711 91.541 L 725.707 91.448 L 725.704 91.354 L 725.7 91.261 L 725.697 91.167 L 725.694 91.073 L 725.69 90.98 L 725.687 90.886 L 725.683 90.792 L 725.68 90.698 L 725.677 90.604 L 725.673 90.51 L 725.67 90.416 L 725.666 90.322 L 725.663 90.228 L 725.66 90.134 L 725.656 90.04 L 725.653 89.946 L 725.649 89.852 L 725.646 89.758 L 725.643 89.664 L 725.639 89.569 L 725.636 89.475 L 725.633 89.381 L 725.629 89.287 L 725.626 89.192 L 725.622 89.098 L 725.619 89.003 L 725.616 88.909 L 725.612 88.815 L 725.609 88.72 L 725.606 88.625 L 725.602 88.531 L 725.599 88.436 L 725.596 88.342 L 725.592 88.247 L 725.589 88.152 L 725.586 88.057 L 725.582 87.963 L 725.579 87.868 L 725.576 87.773 L 725.572 87.678 L 725.569 87.583 L 725.565 87.488 L 725.562 87.393 L 725.559 87.298 L 725.555 87.203 L 725.552 87.108 L 725.549 87.013 L 725.545 86.918 L 725.542 86.823 L 725.539 86.728 L 725.535 86.632 L 725.532 86.537 L 725.529 86.442 L 725.525 86.346 L 725.523 86.286 L 729.236 86.812 L 728.943 78.126 L 725.274 78.901 L 721.603 79.67 L 721.322 70.8 L 725.033 71.333 L 728.744 71.874 L 728.481 63.04 L 724.809 63.801 L 721.135 64.555 L 720.89 55.785 L 724.599 56.332 L 728.308 56.886 L 728.074 47.992 L 724.4 48.74 L 720.724 49.483 L 720.507 40.698 L 724.215 41.258 L 727.922 41.824 L 727.722 33.176 L 724.045 33.912 L 720.367 34.643 L 720.173 25.701 L 723.879 26.272 L 727.584 26.848 L 727.406 18.076 L 723.727 18.802 L 723.724 18.655 L 723.722 18.539 L 723.72 18.423 L 723.718 18.306 L 723.715 18.19 L 723.713 18.074 L 723.711 17.957 L 723.709 17.841 L 723.706 17.724 L 723.704 17.608 L 723.702 17.491 L 723.7 17.375 L 723.697 17.258 L 723.695 17.141 L 723.693 17.025 L 723.691 16.908 L 723.688 16.791 L 723.686 16.674 L 723.684 16.558 L 723.682 16.441 L 723.679 16.324 L 723.677 16.207 L 723.675 16.09 L 723.673 15.973 L 723.67 15.856 L 723.668 15.739 L 723.666 15.622 L 723.664 15.505 L 723.661 15.388 L 723.659 15.27 L 723.657 15.153 L 723.655 15.036 L 723.653 14.919 L 723.65 14.801 L 723.648 14.684 L 723.646 14.567 L 723.644 14.449 L 723.641 14.332 L 723.639 14.214 L 723.637 14.097 L 723.635 13.979 L 723.633 13.862 L 723.63 13.744 L 723.628 13.626 L 723.626 13.509 L 723.624 13.391 L 723.622 13.273 L 723.619 13.156 L 723.617 13.038 L 723.615 12.92 L 723.613 12.802 L 723.611 12.684 L 723.608 12.566 L 723.606 12.448 L 723.604 12.33 L 723.602 12.212 L 723.6 12.094 L 723.598 11.976 L 723.595 11.858 L 723.593 11.74 L 723.591 11.622 L 723.589 11.503 L 723.587 11.385 L 723.585 11.267 L 723.582 11.148 L 723.58 11.03 L 723.578 10.912 L 723.576 10.793 L 723.574 10.675 L 723.572 10.556 L 723.569 10.438 L 723.567 10.319 L 723.565 10.201 L 723.563 10.082 L 723.561 9.963 L 723.559 9.845 L 723.557 9.726 L 723.554 9.607 L 723.552 9.488 L 723.55 9.37 L 723.548 9.251 L 723.546 9.132 L 723.544 9.013 L 723.542 8.894 L 723.539 8.775 L 723.537 8.656 L 723.535 8.537 L 723.533 8.418 L 723.531 8.299 L 723.529 8.18 L 723.527 8.06 L 723.525 7.941 L 723.522 7.822 L 723.52 7.703 L 723.518 7.583 L 723.516 7.464 L 723.514 7.345 L 723.512 7.225 L 723.51 7.106 L 723.508 6.986 L 723.506 6.867 L 723.504 6.747 L 723.501 6.628 L 723.499 6.508 L 723.497 6.388 L 723.495 6.269 L 723.493 6.149 L 723.491 6.029 L 723.489 5.909 L 723.487 5.79 L 723.485 5.67 L 723.483 5.55 L 723.481 5.43 L 723.478 5.31 L 723.476 5.19 L 723.474 5.07 L 723.472 4.95 L 723.47 4.83 L 723.468 4.71 L 723.466 4.59 L 723.464 4.47 L 723.462 4.349 L 723.46 4.229 L 723.458 4.109 L 723.456 3.988 L 723.454 3.868 L 723.452 3.748 L 723.45 3.627 L 723.448 3.507 L 723.445 3.386 L 723.443 3.266 L 723.441 3.145 L 723.439 3.025 L 723.437 2.904 L 723.435 2.784 L 723.433 2.663 L 723.431 2.542 L 723.429 2.422 L 723.427 2.301 L 723.425 2.18 L 723.423 2.059 L 723.421 1.938 L 723.419 1.817 L 723.417 1.696 L 723.415 1.576 L 723.413 1.455 L 723.411 1.333 L 723.409 1.212 L 723.407 1.091 L 723.405 0.97 L 723.403 0.849 L 723.401 0.728 L 723.399 0.607 L 723.397 0.485 L 723.395 0.364 L 723.393 0.243 L 723.391 0.121 L 723.389 0 Z" vector-effect="non-scaling-stroke"/><path d="M 505.271 90.78 L 505.28 90.973 L 505.289 91.165 L 505.299 91.358 L 505.308 91.55 L 505.317 91.743 L 505.326 91.935 L 505.336 92.127 L 505.345 92.319 L 505.354 92.511 L 505.364 92.703 L 505.373 92.894 L 505.382 93.086 L 505.391 93.277 L 505.401 93.468 L 505.41 93.66 L 505.42 93.851 L 505.429 94.042 L 505.438 94.232 L 505.448 94.423 L 505.457 94.614 L 505.466 94.804 L 505.476 94.994 L 505.485 95.185 L 505.495 95.375 L 505.504 95.565 L 505.514 95.755 L 505.523 95.945 L 505.532 96.134 L 505.542 96.324 L 505.551 96.513 L 505.561 96.702 L 505.57 96.892 L 505.58 97.081 L 505.589 97.27 L 505.599 97.459 L 505.608 97.647 L 505.618 97.836 L 505.628 98.024 L 505.637 98.213 L 505.647 98.401 L 505.656 98.589 L 505.666 98.777 L 505.675 98.965 L 505.685 99.153 L 505.695 99.341 L 505.704 99.528 L 505.714 99.716 L 505.723 99.903 L 505.733 100.09 L 505.743 100.277 L 505.752 100.464 L 505.762 100.651 L 505.772 100.838 L 505.781 101.024 L 505.791 101.211 L 505.801 101.397 L 505.811 101.584 L 505.82 101.77 L 505.83 101.956 L 505.84 102.142 L 505.849 102.328 L 505.859 102.513 L 505.869 102.699 L 505.879 102.885 L 505.889 103.07 L 505.898 103.255 L 505.908 103.44 L 505.918 103.625 L 505.928 103.81 L 505.938 103.995 L 505.947 104.18 L 505.957 104.364 L 505.967 104.549 L 505.977 104.733 L 505.987 104.917 L 505.997 105.101 L 506.007 105.285 L 506.017 105.469 L 506.026 105.653 L 506.036 105.837 L 506.046 106.02 L 506.056 106.204 L 506.066 106.387 L 506.076 106.57 L 506.086 106.753 L 506.096 106.936 L 506.106 107.119 L 506.116 107.302 L 506.126 107.484 L 506.136 107.667 L 506.146 107.849 L 506.156 108.031 L 506.166 108.213 L 506.176 108.396 L 506.186 108.577 L 506.196 108.759 L 506.206 108.941 L 506.216 109.122 L 506.227 109.304 L 506.237 109.485 L 506.247 109.667 L 506.257 109.848 L 506.267 110.029 L 506.277 110.21 L 506.287 110.39 L 506.297 110.571 L 506.308 110.752 L 506.318 110.932 L 506.328 111.112 L 506.338 111.292 L 506.348 111.473 L 506.359 111.653 L 506.369 111.832 L 506.379 112.012 L 506.389 112.192 L 506.399 112.371 L 506.41 112.551 L 506.42 112.73 L 506.43 112.909 L 506.441 113.088 L 506.451 113.267 L 506.461 113.446 L 506.471 113.625 L 506.482 113.803 L 506.492 113.982 L 506.502 114.16 L 506.513 114.339 L 506.523 114.517 L 506.533 114.695 L 506.544 114.873 L 506.554 115.05 L 506.565 115.228 L 506.575 115.406 L 506.585 115.583 L 506.596 115.761 L 506.606 115.938 L 506.617 116.115 L 506.627 116.292 L 506.638 116.469 L 506.648 116.646 L 506.659 116.822 L 506.669 116.999 L 506.679 117.175 L 506.69 117.352 L 506.701 117.528 L 506.711 117.704 L 506.722 117.88 L 506.732 118.056 L 506.743 118.232 L 506.753 118.407 L 506.764 118.583 L 506.774 118.758 L 506.785 118.934 L 506.796 119.109 L 506.806 119.284 L 506.817 119.459 L 506.827 119.634 L 506.838 119.809 L 506.849 119.983 L 506.859 120.158 L 506.87 120.332 L 506.881 120.507 L 506.891 120.681 L 506.902 120.855 L 506.913 121.029 L 506.923 121.203 L 506.934 121.377 L 506.945 121.55 L 506.956 121.724 L 506.966 121.897 L 506.977 122.07 L 506.988 122.244 L 506.999 122.417 L 507.009 122.59 L 507.02 122.762 L 507.031 122.935 L 507.042 123.108 L 507.053 123.28 L 507.063 123.453 L 507.074 123.625 L 507.085 123.797 L 507.096 123.969 L 507.107 124.141 L 507.118 124.313 L 507.129 124.485 L 507.14 124.656 L 507.15 124.828 L 507.161 124.999 L 507.172 125.171 L 507.183 125.342 L 507.194 125.513 L 507.205 125.684 L 507.216 125.855 L 507.227 126.025 L 507.238 126.196 L 507.249 126.367 L 507.26 126.537 L 507.271 126.707 L 507.282 126.877 L 507.293 127.047 L 507.304 127.217 L 507.315 127.387 L 507.326 127.557 L 507.337 127.727 L 507.348 127.896 L 507.359 128.065 L 507.371 128.235 L 507.382 128.404 L 507.393 128.573 L 507.404 128.742 L 507.415 128.911 L 507.426 129.079 L 507.437 129.248 L 507.448 129.417 L 507.46 129.585 L 507.471 129.753 L 507.482 129.921 L 507.493 130.09 L 507.504 130.257 L 507.516 130.425 L 507.527 130.593 L 507.538 130.761 L 507.549 130.928 L 507.561 131.096 L 507.572 131.263 L 507.583 131.43 L 507.594 131.597 L 507.606 131.764 L 507.617 131.931 L 507.628 132.098 L 507.64 132.264 L 507.651 132.431 L 507.662 132.597 L 507.674 132.764 L 507.685 132.93 L 507.697 133.096 L 507.708 133.262 L 507.719 133.428 L 507.731 133.593 L 507.742 133.759 L 507.754 133.925 L 507.765 134.09 L 507.776 134.255 L 507.788 134.421 L 507.799 134.586 L 507.811 134.751 L 507.822 134.915 L 507.834 135.08 L 507.845 135.245 L 507.857 135.409 L 507.868 135.574 L 507.88 135.738 L 507.891 135.902 L 507.903 136.066 L 507.915 136.23 L 507.926 136.394 L 507.938 136.558 L 507.949 136.722 L 507.961 136.885 L 507.973 137.049 L 507.984 137.212 L 507.996 137.375 L 508.007 137.539 L 508.019 137.702 L 508.031 137.864 L 508.042 138.027 L 508.054 138.19 L 508.066 138.353 L 508.077 138.515 L 508.089 138.677 L 508.101 138.84 L 508.113 139.002 L 508.124 139.164 L 508.136 139.326 L 508.148 139.488 L 508.16 139.649 L 508.171 139.811 L 508.183 139.972 L 508.195 140.134 L 508.207 140.295 L 508.219 140.456 L 508.23 140.617 L 508.242 140.778 L 508.254 140.939 L 508.266 141.1 L 508.278 141.26 L 508.29 141.421 L 508.302 141.581 L 508.314 141.742 L 508.325 141.902 L 508.337 142.062 L 508.349 142.222 L 508.361 142.382 L 508.373 142.542 L 508.385 142.701 L 508.397 142.861 L 508.409 143.02 L 508.421 143.18 L 508.433 143.339 L 508.445 143.498 L 508.457 143.657 L 508.469 143.816 L 508.481 143.975 L 508.493 144.133 L 508.505 144.292 L 508.517 144.45 L 508.529 144.609 L 508.542 144.767 L 508.554 144.925 L 508.566 145.083 L 508.578 145.241 L 508.59 145.399 L 508.602 145.557 L 508.614 145.714 L 508.627 145.872 L 508.639 146.029 L 508.651 146.187 L 508.663 146.344 L 508.675 146.501 L 508.687 146.658 L 508.7 146.815 L 508.712 146.972 L 508.724 147.128 L 508.736 147.285 L 508.749 147.441 L 508.761 147.598 L 508.773 147.754 L 508.786 147.91 L 508.798 148.066 L 508.81 148.222 L 508.822 148.378 L 508.835 148.533 L 508.847 148.689 L 508.859 148.845 L 508.872 149 L 508.884 149.155 L 508.897 149.31 L 508.909 149.466 L 508.921 149.621 L 508.934 149.775 L 508.946 149.93 L 508.959 150.085 L 508.971 150.239 L 508.984 150.394 L 508.996 150.548 L 509.009 150.702 L 509.021 150.856 L 509.034 151.01 L 509.046 151.164 L 509.059 151.318 L 509.071 151.472 L 509.084 151.626 L 509.096 151.779 L 509.109 151.932 L 509.121 152.086 L 509.134 152.239 L 509.146 152.392 L 509.159 152.545 L 509.172 152.698 L 509.184 152.851 L 509.197 153.003 L 509.21 153.156 L 509.222 153.308 L 509.235 153.461 L 509.248 153.613 L 509.26 153.765 L 509.273 153.917 L 509.286 154.069 L 509.298 154.221 L 509.311 154.372 L 509.324 154.524 L 509.337 154.676 L 509.349 154.827 L 509.362 154.978 L 509.375 155.129 L 509.388 155.281 L 509.4 155.431 L 509.413 155.582 L 509.426 155.733 L 509.439 155.884 L 509.452 156.034 L 509.465 156.185 L 509.477 156.335 L 509.49 156.486 L 509.503 156.636 L 509.516 156.786 L 509.529 156.936 L 509.542 157.086 L 509.555 157.235 L 509.568 157.385 L 509.581 157.534 L 509.594 157.684 L 509.607 157.833 L 509.619 157.982 L 509.632 158.132 L 509.645 158.281 L 509.658 158.43 L 509.671 158.578 L 509.685 158.727 L 509.698 158.876 L 509.711 159.024 L 509.724 159.173 L 509.737 159.321 L 509.75 159.469 L 509.763 159.617 L 509.776 159.765 L 509.789 159.913 L 509.802 160.061 L 509.815 160.209 L 509.828 160.356 L 509.842 160.504 L 509.855 160.651 L 509.868 160.798 L 509.881 160.946 L 509.894 161.093 L 509.908 161.24 L 509.921 161.386 L 509.934 161.533 L 509.947 161.68 L 509.96 161.826 L 509.974 161.973 L 509.987 162.119 L 510 162.266 L 510.014 162.412 L 510.027 162.558 L 510.04 162.704 L 510.053 162.85 L 510.067 162.995 L 510.08 163.141 L 510.093 163.287 L 510.107 163.432 L 510.12 163.577 L 510.134 163.723 L 510.147 163.868 L 510.16 164.013 L 510.174 164.158 L 510.187 164.303 L 510.201 164.447 L 510.214 164.592 L 510.228 164.737 L 510.241 164.881 L 510.254 165.025 L 510.268 165.17 L 510.281 165.314 L 510.295 165.458 L 510.309 165.602 L 510.322 165.746 L 510.336 165.889 L 510.349 166.033 L 510.363 166.177 L 510.376 166.32 L 510.39 166.463 L 510.403 166.607 L 510.417 166.75 L 510.431 166.893 L 510.444 167.036 L 510.458 167.179 L 510.472 167.321 L 510.485 167.464 L 510.499 167.607 L 510.513 167.749 L 510.526 167.891 L 510.54 168.034 L 510.554 168.176 L 510.567 168.318 L 510.581 168.46 L 510.595 168.602 L 510.609 168.743 L 510.622 168.885 L 510.636 169.027 L 510.65 169.168 L 510.664 169.31 L 510.678 169.451 L 510.691 169.592 L 510.705 169.733 L 510.719 169.874 L 510.733 170.015 L 510.747 170.156 L 510.761 170.296 L 510.775 170.437 L 510.788 170.577 L 510.802 170.718 L 510.816 170.858 L 510.83 170.998 L 510.844 171.138 L 510.858 171.278 L 510.872 171.418 L 510.886 171.558 L 510.9 171.698 L 510.914 171.837 L 510.928 171.977 L 510.942 172.116 L 510.956 172.256 L 510.97 172.395 L 510.984 172.534 L 510.998 172.673 L 511.012 172.812 L 511.026 172.951 L 511.04 173.089 L 511.054 173.228 L 511.069 173.366 L 511.083 173.505 L 511.097 173.643 L 511.111 173.781 L 511.125 173.92 L 511.139 174.058 L 511.153 174.196 L 511.168 174.333 L 511.182 174.471 L 511.196 174.609 L 511.21 174.746 L 511.224 174.884 L 511.239 175.021 L 511.253 175.159 L 511.267 175.296 L 511.281 175.433 L 511.296 175.57 L 511.31 175.707 L 511.324 175.844 L 511.339 175.98 L 511.353 176.117 L 511.367 176.253 L 511.382 176.39 L 511.396 176.526 L 511.41 176.662 L 511.425 176.798 L 511.439 176.934 L 511.454 177.07 L 511.468 177.206 L 511.482 177.342 L 511.497 177.478 L 511.511 177.613 L 511.526 177.749 L 511.54 177.884 L 511.555 178.019 L 511.569 178.155 L 511.584 178.29 L 511.598 178.425 L 511.613 178.56 L 511.627 178.694 L 511.642 178.829 L 511.656 178.964 L 511.671 179.098 L 511.686 179.233 L 511.7 179.367 L 511.715 179.501 L 511.729 179.635 L 511.744 179.769 L 511.759 179.903 L 511.773 180.037 L 511.788 180.171 L 511.803 180.305 L 511.817 180.438 L 511.832 180.572 L 511.847 180.705 L 511.861 180.838 L 511.876 180.972 L 511.891 181.105 L 511.905 181.238 L 511.92 181.371 L 511.935 181.504 L 511.95 181.636 L 511.965 181.769 L 511.979 181.902 L 511.994 182.034 L 512.009 182.166 L 512.024 182.299 L 512.039 182.431 L 512.054 182.563 L 512.068 182.695 L 512.083 182.827 L 512.098 182.959 L 512.113 183.091 L 512.128 183.222 L 512.143 183.354 L 512.158 183.485 L 512.173 183.617 L 512.188 183.748 L 512.203 183.879 L 512.218 184.01 L 512.233 184.141 L 512.248 184.272 L 512.263 184.403 L 512.278 184.534 L 512.293 184.664 L 512.308 184.795 L 512.323 184.925 L 512.338 185.056 L 512.353 185.186 L 512.368 185.316 L 512.383 185.446 L 512.398 185.576 L 512.413 185.706 L 512.428 185.836 L 512.444 185.966 L 512.459 186.095 L 512.474 186.225 L 512.489 186.354 L 512.504 186.484 L 512.519 186.613 L 512.535 186.742 L 512.55 186.871 L 512.565 187 L 512.58 187.129 L 512.596 187.258 L 512.611 187.387 L 512.626 187.515 L 512.641 187.644 L 512.657 187.773 L 512.672 187.901 L 512.687 188.029 L 512.703 188.157 L 512.718 188.286 L 512.733 188.414 L 512.749 188.542 L 512.764 188.669 L 512.779 188.797 L 512.795 188.925 L 512.81 189.052 L 512.826 189.18 L 512.841 189.307 L 512.857 189.435 L 512.872 189.562 L 512.887 189.689 L 512.903 189.816 L 512.918 189.943 L 512.934 190.07 L 512.949 190.197 L 512.965 190.324 L 512.981 190.45 L 512.996 190.577 L 513.012 190.703 L 513.027 190.83 L 513.043 190.956 L 513.058 191.082 L 513.074 191.208 L 513.09 191.334 L 513.105 191.46 L 513.121 191.586 L 513.136 191.712 L 513.152 191.837 L 513.168 191.963 L 513.183 192.088 L 513.199 192.214 L 513.215 192.339 L 513.231 192.464 L 513.246 192.59 L 513.262 192.715 L 513.278 192.84 L 513.293 192.965 L 513.309 193.089 L 513.325 193.214 L 513.341 193.339 L 513.357 193.463 L 513.372 193.588 L 513.388 193.712 L 513.404 193.836 L 513.42 193.961 L 513.436 194.085 L 513.452 194.209 L 513.468 194.333 L 513.483 194.457 L 513.499 194.581 L 513.515 194.704 L 513.531 194.828 L 513.547 194.951 L 513.563 195.075 L 513.579 195.198 L 513.595 195.322 L 513.611 195.445 L 513.627 195.568 L 513.643 195.691 L 513.659 195.814 L 513.675 195.937 L 513.691 196.06 L 513.707 196.182 L 513.723 196.305 L 513.739 196.427 L 513.755 196.55 L 513.771 196.672 L 513.788 196.795 L 513.804 196.917 L 513.82 197.039 L 513.836 197.161 L 513.852 197.283 L 513.868 197.405 L 513.884 197.527 L 513.901 197.648 L 513.917 197.77 L 513.933 197.891 L 513.949 198.013 L 513.965 198.134 L 513.982 198.256 L 513.998 198.377 L 514.014 198.498 L 514.03 198.619 L 514.047 198.74 L 514.063 198.861 L 514.079 198.982 L 514.096 199.103 L 514.112 199.223 L 514.128 199.344 L 514.145 199.464 L 514.161 199.585 L 514.177 199.705 L 514.194 199.825 L 514.21 199.945 L 514.227 200.066 L 514.243 200.186 L 514.26 200.305 L 514.276 200.425 L 514.292 200.545 L 514.309 200.665 L 514.325 200.784 L 514.342 200.904 L 514.358 201.023 L 514.375 201.143 L 514.391 201.262 L 514.408 201.381 L 514.425 201.5 L 514.441 201.619 L 514.458 201.738 L 514.474 201.857 L 514.491 201.976 L 514.507 202.095 L 514.524 202.214 L 514.541 202.332 L 514.557 202.451 L 514.574 202.569 L 514.591 202.687 L 514.607 202.806 L 514.624 202.924 L 514.641 203.042 L 514.657 203.16 L 514.674 203.278 L 514.691 203.396 L 514.708 203.514 L 514.724 203.632 L 514.741 203.749 L 514.758 203.867 L 514.775 203.984 L 514.791 204.102 L 514.808 204.219 L 514.825 204.336 L 514.842 204.454 L 514.859 204.571 L 514.876 204.688 L 514.893 204.805 L 514.909 204.922 L 514.926 205.038 L 514.943 205.155 L 514.96 205.272 L 514.977 205.388 L 514.994 205.505 L 515.011 205.621 L 515.028 205.738 L 515.045 205.854 L 515.062 205.97 L 515.079 206.086 L 515.096 206.202 L 515.113 206.318 L 515.13 206.434 L 515.147 206.55 L 515.164 206.666 L 515.181 206.782 L 515.198 206.897 L 515.215 207.013 L 515.232 207.128 L 515.249 207.244 L 515.267 207.359 L 515.284 207.474 L 515.301 207.589 L 515.318 207.704 L 515.335 207.819 L 515.352 207.934 L 515.37 208.049 L 515.387 208.164 L 515.404 208.279 L 515.421 208.394 L 515.438 208.508 L 515.456 208.623 L 515.473 208.737 L 515.49 208.851 L 515.508 208.966 L 515.525 209.08 L 515.542 209.194 L 515.559 209.308 L 515.577 209.422 L 515.594 209.536 L 515.611 209.65 L 515.629 209.764 L 515.646 209.878 L 515.664 209.991 L 515.681 210.105 L 515.698 210.218 L 515.716 210.332 L 515.733 210.445 L 515.751 210.558 L 515.768 210.672 L 515.786 210.785 L 515.803 210.898 L 515.821 211.011 L 515.838 211.124 L 515.856 211.237 L 515.873 211.35 L 515.891 211.462 L 515.908 211.575 L 515.926 211.688 L 515.943 211.8 L 515.961 211.913 L 515.979 212.025 L 515.996 212.137 L 516.014 212.25 L 516.031 212.362 L 516.049 212.474 L 516.067 212.586 L 516.084 212.698 L 516.102 212.81 L 516.12 212.922 L 516.138 213.034 L 516.155 213.145 L 516.173 213.257 L 516.191 213.369 L 516.208 213.48 L 516.226 213.591 L 516.244 213.703 L 516.262 213.814 L 516.28 213.925 L 516.297 214.037 L 516.315 214.148 L 516.333 214.259 L 516.351 214.37 L 516.369 214.481 L 516.387 214.591 L 516.404 214.702 L 516.422 214.813 L 516.44 214.924 L 516.458 215.034 L 516.476 215.145 L 516.494 215.255 L 516.512 215.366 L 516.53 215.476 L 516.548 215.586 L 516.566 215.696 L 516.584 215.806 L 516.602 215.917 L 516.62 216.027 L 516.638 216.136 L 516.656 216.246 L 516.674 216.356 L 516.692 216.466 L 516.71 216.576 L 516.728 216.685 L 516.746 216.795 L 516.764 216.904 L 516.783 217.014 L 516.801 217.123 L 516.819 217.232 L 516.837 217.342 L 516.855 217.451 L 516.873 217.56 L 516.892 217.669 L 516.91 217.778 L 516.928 217.887 L 516.946 217.996 L 516.964 218.104 L 516.983 218.213 L 517.001 218.322 L 517.019 218.43 L 517.037 218.539 L 517.056 218.648 L 517.074 218.756 L 517.092 218.864 L 517.111 218.973 L 517.129 219.081 L 517.147 219.189 L 517.166 219.297 L 517.184 219.405 L 517.203 219.513 L 517.221 219.621 L 517.239 219.729 L 517.258 219.837 L 517.276 219.945 L 517.295 220.052 L 517.313 220.16 L 517.332 220.268 L 517.35 220.375 L 517.369 220.483 L 517.387 220.59 L 517.406 220.697 L 517.424 220.805 L 517.443 220.912 L 517.461 221.019 L 517.48 221.126 L 517.498 221.233 L 517.517 221.34 L 517.536 221.447 L 517.554 221.554 L 517.573 221.661 L 517.591 221.768 L 517.61 221.874 L 517.629 221.981 L 517.647 222.088 L 517.666 222.194 L 517.685 222.301 L 517.704 222.407 L 517.722 222.513 L 517.741 222.62 L 517.76 222.726 L 517.778 222.832 L 517.797 222.938 L 517.816 223.045 L 517.835 223.151 L 517.854 223.257 L 517.872 223.362 L 517.891 223.468 L 517.91 223.574 L 517.929 223.68 L 517.948 223.786 L 517.967 223.891 L 517.986 223.997 L 518.004 224.102 L 518.023 224.208 L 518.042 224.313 L 518.061 224.419 L 518.08 224.524 L 518.099 224.629 L 518.118 224.735 L 518.137 224.84 L 518.156 224.945 L 518.175 225.05 L 518.194 225.155 L 518.213 225.26 L 518.232 225.365 L 518.251 225.47 L 518.27 225.574 L 518.289 225.679 L 518.308 225.784 L 518.327 225.889 L 518.347 225.993 L 518.366 226.098 L 518.385 226.202 L 518.404 226.307 L 518.423 226.411 L 518.442 226.515 L 518.461 226.62 L 518.481 226.724 L 518.5 226.828 L 518.519 226.932 L 518.538 227.036 L 518.557 227.14 L 518.577 227.244 L 518.596 227.348 L 518.615 227.452 L 518.635 227.556 L 518.654 227.66 L 518.673 227.764 L 518.692 227.867 L 518.712 227.971 L 518.731 228.075 L 518.751 228.178 L 518.77 228.282 L 518.789 228.385 L 518.809 228.488 L 518.828 228.592 L 518.847 228.695 L 518.867 228.798 L 518.886 228.902 L 518.906 229.005 L 518.925 229.108 L 518.945 229.211 L 518.964 229.314 L 518.984 229.417 L 519.003 229.52 L 519.023 229.623 L 519.042 229.726 L 519.062 229.828 L 519.081 229.931 L 519.101 230.034 L 519.12 230.136 L 519.14 230.239 L 519.16 230.342 L 519.179 230.444 L 519.199 230.547 L 519.219 230.649 L 519.238 230.752 L 519.258 230.854 L 519.278 230.956 L 519.297 231.058 L 519.317 231.161 L 519.337 231.263 L 519.356 231.365 L 519.376 231.467 L 519.396 231.569 L 519.416 231.671 L 519.435 231.773 L 519.455 231.875 L 519.475 231.977 L 519.495 232.079 M 245.653 190.98 L 245.679 191.119 L 245.705 191.259 L 245.731 191.399 L 245.757 191.538 L 245.784 191.678 L 245.81 191.817 L 245.836 191.956 L 245.862 192.095 L 245.888 192.234 L 245.914 192.373 L 245.94 192.512 L 245.966 192.65 L 245.992 192.789 L 246.018 192.928 L 246.044 193.066 L 246.07 193.204 L 246.096 193.342 L 246.122 193.481 L 246.148 193.619 L 246.174 193.756 L 246.2 193.894 L 246.226 194.032 L 246.252 194.17 L 246.278 194.307 L 246.304 194.445 L 246.329 194.582 L 246.355 194.719 L 246.381 194.856 L 246.407 194.993 L 246.433 195.13 L 246.459 195.267 L 246.484 195.404 L 246.51 195.541 L 246.536 195.677 L 246.562 195.814 L 246.587 195.95 L 246.613 196.086 L 246.639 196.222 L 246.664 196.358 L 246.69 196.494 L 246.716 196.63 L 246.741 196.766 L 246.767 196.902 L 246.793 197.037 L 246.818 197.173 L 246.844 197.308 L 246.869 197.444 L 246.895 197.579 L 246.921 197.714 L 246.946 197.849 L 246.972 197.984 L 246.997 198.119 L 247.023 198.254 L 247.048 198.388 L 247.074 198.523 L 247.099 198.657 L 247.125 198.792 L 247.15 198.926 L 247.175 199.06 L 247.201 199.194 L 247.226 199.328 L 247.252 199.462 L 247.277 199.596 L 247.302 199.73 L 247.328 199.863 L 247.353 199.997 L 247.378 200.13 L 247.404 200.264 L 247.429 200.397 L 247.454 200.53 L 247.48 200.663 L 247.505 200.796 L 247.53 200.929 L 247.555 201.062 L 247.581 201.194 L 247.606 201.327 L 247.631 201.46 L 247.656 201.592 L 247.681 201.724 L 247.706 201.856 L 247.732 201.989 L 247.757 202.121 L 247.782 202.253 L 247.807 202.384 L 247.832 202.516 L 247.857 202.648 L 247.882 202.779 L 247.907 202.911 L 247.932 203.042 L 247.957 203.174 L 247.982 203.305 L 248.007 203.436 L 248.032 203.567 L 248.057 203.698 L 248.082 203.829 L 248.107 203.959 L 248.132 204.09 L 248.157 204.221 L 248.182 204.351 L 248.207 204.481 L 248.232 204.612 L 248.257 204.742 L 248.282 204.872 L 248.307 205.002 L 248.332 205.132 L 248.356 205.262 L 248.381 205.391 L 248.406 205.521 L 248.431 205.651 L 248.456 205.78 L 248.48 205.91 L 248.505 206.039 L 248.53 206.168 L 248.555 206.297 L 248.579 206.426 L 248.604 206.555 L 248.629 206.684 L 248.654 206.813 L 248.678 206.941 L 248.703 207.07 L 248.728 207.198 L 248.752 207.327 L 248.777 207.455 L 248.801 207.583 L 248.826 207.711 L 248.851 207.839 L 248.875 207.967 L 248.9 208.095 L 248.924 208.223 L 248.949 208.35 L 248.974 208.478 L 248.998 208.606 L 249.023 208.733 L 249.047 208.86 L 249.072 208.987 L 249.096 209.115 L 249.121 209.242 L 249.145 209.369 L 249.169 209.495 L 249.194 209.622 L 249.218 209.749 L 249.243 209.875 L 249.267 210.002 L 249.292 210.128 L 249.316 210.255 L 249.34 210.381 L 249.365 210.507 L 249.389 210.633 L 249.413 210.759 L 249.438 210.885 L 249.462 211.011 L 249.486 211.137 L 249.511 211.262 L 249.535 211.388 L 249.559 211.513 L 249.583 211.639 L 249.608 211.764 L 249.632 211.889 L 249.656 212.014 L 249.68 212.139 L 249.705 212.264 L 249.729 212.389 L 249.753 212.514 L 249.777 212.638 L 249.801 212.763 L 249.825 212.887 L 249.85 213.012 L 249.874 213.136 L 249.898 213.26 L 249.922 213.385 L 249.946 213.509 L 249.97 213.633 L 249.994 213.756 L 250.018 213.88 L 250.042 214.004 L 250.066 214.128 L 250.09 214.251 L 250.114 214.375 L 250.138 214.498 L 250.162 214.621 L 250.186 214.745 L 250.21 214.868 L 250.234 214.991 L 250.258 215.114 L 250.282 215.237 L 250.306 215.359 L 250.33 215.482 L 250.354 215.605 L 250.378 215.727 L 250.402 215.85 L 250.426 215.972 L 250.449 216.094 L 250.473 216.216 L 250.497 216.339 L 250.521 216.461 L 250.545 216.583 L 250.569 216.704 L 250.592 216.826 L 250.616 216.948 L 250.64 217.069 L 250.664 217.191 L 250.688 217.312 L 250.711 217.434 L 250.735 217.555 L 250.759 217.676 L 250.782 217.797 L 250.806 217.918 L 250.83 218.039 L 250.854 218.16 L 250.877 218.281 L 250.901 218.402 L 250.925 218.522 L 250.948 218.643 L 250.972 218.763 L 250.996 218.884 L 251.019 219.004 L 251.043 219.124 L 251.066 219.244 L 251.09 219.364 L 251.114 219.484 L 251.137 219.604 L 251.161 219.724 L 251.184 219.843 L 251.208 219.963 L 251.231 220.083 L 251.255 220.202 L 251.278 220.321 L 251.302 220.441 L 251.325 220.56 L 251.349 220.679 L 251.372 220.798 L 251.396 220.917 L 251.419 221.036 L 251.443 221.155 L 251.466 221.274 L 251.489 221.392 L 251.513 221.511 L 251.536 221.629 L 251.56 221.748 L 251.583 221.866 L 251.606 221.984 L 251.63 222.103 L 251.653 222.221 L 251.676 222.339 L 251.7 222.457 L 251.723 222.574 L 251.746 222.692 L 251.77 222.81 L 251.793 222.928 L 251.816 223.045 L 251.84 223.163 L 251.863 223.28 L 251.886 223.397 L 251.909 223.514 L 251.933 223.632 L 251.956 223.749 L 251.979 223.866 L 252.002 223.983 L 252.025 224.099 L 252.049 224.216 L 252.072 224.333 L 252.095 224.449 L 252.118 224.566 L 252.141 224.682 L 252.164 224.799 L 252.188 224.915 L 252.211 225.031 L 252.234 225.147 L 252.257 225.263 L 252.28 225.379 L 252.303 225.495 L 252.326 225.611 L 252.349 225.727 L 252.372 225.843 L 252.395 225.958 L 252.418 226.074 L 252.442 226.189 L 252.465 226.304 L 252.488 226.42 L 252.511 226.535 L 252.534 226.65 L 252.557 226.765 L 252.58 226.88 L 252.603 226.995 L 252.625 227.11 L 252.648 227.225 L 252.671 227.339 L 252.694 227.454 L 252.717 227.569 L 252.74 227.683 L 252.763 227.797 L 252.786 227.912 L 252.809 228.026 L 252.832 228.14 L 252.855 228.254 L 252.878 228.368 L 252.9 228.482 L 252.923 228.596 L 252.946 228.71 L 252.969 228.823 L 252.992 228.937 L 253.015 229.051 L 253.037 229.164 L 253.06 229.278 L 253.083 229.391 L 253.106 229.504 L 253.129 229.617 L 253.151 229.731 L 253.174 229.844 L 253.197 229.957 L 253.22 230.07 L 253.242 230.182 L 253.265 230.295 L 253.288 230.408 L 253.311 230.52 L 253.333 230.633 L 253.356 230.745 L 253.379 230.858 L 253.401 230.97 L 253.424 231.082 L 253.447 231.195 L 253.469 231.307 L 253.492 231.419 L 253.515 231.531 L 253.537 231.643 L 253.56 231.755 L 253.583 231.866 L 253.605 231.978 L 253.628 232.09 L 253.65 232.201 L 253.673 232.313 L 253.696 232.424 L 253.718 232.535 L 253.741 232.647 L 253.763 232.758 L 253.786 232.869 L 253.808 232.98 L 253.831 233.091 L 253.853 233.202 L 253.876 233.313 L 253.898 233.424 L 253.921 233.534 L 253.943 233.645 L 253.966 233.756 L 253.988 233.866 L 254.011 233.976 L 254.033 234.087 L 254.056 234.197 L 254.078 234.307 L 254.101 234.418 L 254.123 234.528 L 254.146 234.638 L 254.168 234.748 L 254.191 234.857 L 254.213 234.967 L 254.235 235.077 L 254.258 235.187 L 254.28 235.296 L 254.303 235.406 L 254.325 235.515 L 254.347 235.625 L 254.37 235.734 L 254.392 235.843 L 254.414 235.953 L 254.437 236.062 L 254.459 236.171 L 254.481 236.28 L 254.504 236.389 L 254.526 236.498 L 254.548 236.607 L 254.571 236.715 L 254.593 236.824 L 254.615 236.933 L 254.637 237.041 L 254.66 237.15 L 254.682 237.258 L 254.704 237.367 L 254.727 237.475 L 254.749 237.583 L 254.771 237.691 L 254.793 237.799 L 254.816 237.907 L 254.838 238.015 L 254.86 238.123 L 254.882 238.231 L 254.904 238.339 L 254.927 238.447 L 254.949 238.554 L 254.971 238.662 L 254.993 238.769 L 255.015 238.877 L 255.037 238.984 L 255.06 239.092 L 255.082 239.199 L 255.104 239.306 L 255.126 239.413 L 255.148 239.52 L 255.17 239.627 L 255.192 239.734 L 255.215 239.841 L 255.237 239.948 L 255.259 240.055 L 255.281 240.162 L 255.303 240.268 L 255.325 240.375 L 255.347 240.481 L 255.369 240.588 L 255.391 240.694 L 255.413 240.801 L 255.435 240.907 L 255.457 241.013 L 255.48 241.119 L 255.502 241.225 L 255.524 241.331 L 255.546 241.437 L 255.568 241.543 L 255.59 241.649 L 255.612 241.755 L 255.634 241.861 L 255.656 241.966 L 255.678 242.072 L 255.7 242.178 L 255.722 242.283 L 255.744 242.389 L 255.766 242.494 L 255.788 242.599 L 255.81 242.705 L 255.832 242.81 L 255.854 242.915 L 255.875 243.02 L 255.897 243.125 L 255.919 243.23 L 255.941 243.335 L 255.963 243.44 L 255.985 243.545 L 256.007 243.65 L 256.029 243.754 L 256.051 243.859 L 256.073 243.963 L 256.095 244.068 L 256.117 244.172 L 256.138 244.277 L 256.16 244.381 L 256.182 244.486 L 256.204 244.59 L 256.226 244.694 L 256.248 244.798 L 256.27 244.902 L 256.292 245.006 L 256.313 245.11 L 256.335 245.214 L 256.357 245.318 L 256.379 245.422 L 256.401 245.525 L 256.423 245.629 L 256.444 245.733 L 256.466 245.836 L 256.488 245.94 L 256.51 246.043 L 256.532 246.147 L 256.554 246.25 L 256.575 246.353 L 256.597 246.457 L 256.619 246.56 L 256.641 246.663 L 256.662 246.766 L 256.684 246.869 L 256.706 246.972 L 256.728 247.075 L 256.75 247.178 L 256.771 247.281 L 256.793 247.384 L 256.815 247.486 L 256.837 247.589 L 256.858 247.692 L 256.88 247.794 L 256.902 247.897 L 256.924 247.999 L 256.945 248.102 L 256.967 248.204 L 256.989 248.306 L 257.01 248.409 L 257.032 248.511 L 257.054 248.613 L 257.076 248.715 L 257.097 248.817 L 257.119 248.919 L 257.141 249.021 L 257.162 249.123 L 257.184 249.225 L 257.206 249.327 L 257.227 249.429 L 257.249 249.53 L 257.271 249.632 L 257.292 249.734 L 257.314 249.835 L 257.336 249.937 L 257.357 250.038 L 257.379 250.14 L 257.401 250.241 L 257.422 250.342 L 257.444 250.444 L 257.466 250.545 L 257.487 250.646 L 257.509 250.747 L 257.531 250.848 L 257.552 250.949 L 257.574 251.05 L 257.595 251.151 L 257.617 251.252 L 257.639 251.353 L 257.66 251.454 L 257.682 251.555 L 257.703 251.655 L 257.725 251.756 L 257.747 251.857 L 257.768 251.957 L 257.79 252.058 L 257.812 252.158 L 257.833 252.259 L 257.855 252.359 L 257.876 252.46 L 257.898 252.56 L 257.919 252.66 L 257.941 252.76 L 257.963 252.86 L 257.984 252.961 L 258.006 253.061 L 258.027 253.161 L 258.049 253.261 L 258.07 253.361 L 258.092 253.461 L 258.114 253.561 L 258.135 253.66 L 258.157 253.76 L 258.178 253.86 L 258.2 253.96 L 258.221 254.059 L 258.243 254.159 L 258.264 254.258 L 258.286 254.358 L 258.308 254.458 L 258.329 254.557 L 258.351 254.656 L 258.372 254.756 L 258.394 254.855 L 258.415 254.954 L 258.437 255.054 L 258.458 255.153 L 258.48 255.252 L 258.501 255.351 L 258.523 255.45 L 258.544 255.549 L 258.566 255.648 L 258.587 255.747 L 258.609 255.846 L 258.63 255.945 L 258.652 256.044 L 258.673 256.143 L 258.695 256.242 L 258.717 256.34 L 258.738 256.439 L 258.76 256.538 L 258.781 256.636 L 258.803 256.735 L 258.824 256.833 L 258.846 256.932 L 258.867 257.03 L 258.889 257.129 L 258.91 257.227 L 258.932 257.326 L 258.953 257.424 L 258.975 257.522 L 258.996 257.62 L 259.018 257.719 L 259.039 257.817 L 259.06 257.915 L 259.082 258.013 L 259.103 258.111 L 259.125 258.209 L 259.146 258.307 L 259.168 258.405 L 259.189 258.503 L 259.211 258.601 L 259.232 258.699 L 259.254 258.797 L 259.275 258.894 L 259.297 258.992 L 259.318 259.09 L 259.34 259.188 L 259.361 259.285 L 259.383 259.383 L 259.404 259.48 L 259.426 259.578 L 259.447 259.676 L 259.469 259.773 L 259.49 259.871 L 259.512 259.968 L 259.533 260.065 L 259.555 260.163 L 259.576 260.26 L 259.598 260.357 L 259.619 260.455 L 259.641 260.552 L 259.662 260.649 L 259.683 260.746 L 259.705 260.843 L 259.726 260.94 L 259.748 261.038 L 259.769 261.135 L 259.791 261.232 L 259.812 261.329 L 259.834 261.426 L 259.855 261.523 L 259.877 261.619 L 259.898 261.716 L 259.92 261.813 L 259.941 261.91 L 259.963 262.007 L 259.984 262.103 L 260.006 262.2 L 260.027 262.297 L 260.049 262.394 L 260.07 262.49 L 260.092 262.587 L 260.113 262.683 L 260.135 262.78 L 260.156 262.877 L 260.177 262.973 L 260.199 263.07 L 260.22 263.166 L 260.242 263.262 L 260.263 263.359 L 260.285 263.455 L 260.306 263.552 L 260.328 263.648 L 260.349 263.744 L 260.371 263.84 L 260.392 263.937 L 260.414 264.033 L 260.435 264.129 L 260.457 264.225 L 260.478 264.321 L 260.5 264.417 L 260.521 264.514 L 260.543 264.61 L 260.564 264.706 L 260.586 264.802 L 260.607 264.898 L 260.629 264.994 L 260.65 265.09 L 260.672 265.186 L 260.693 265.282 L 260.715 265.377 L 260.736 265.473 L 260.758 265.569 L 260.779 265.665 L 260.801 265.761 L 260.823 265.856 L 260.844 265.952 L 260.866 266.048 L 260.887 266.144 L 260.909 266.239 L 260.93 266.335 L 260.952 266.431 L 260.973 266.526 L 260.995 266.622 L 261.016 266.718 L 261.038 266.813 L 261.059 266.909 L 261.081 267.004 L 261.102 267.1 L 261.124 267.195 L 261.146 267.291 L 261.167 267.386 L 261.189 267.482 L 261.21 267.577 L 261.232 267.672 L 261.253 267.768 L 261.275 267.863 L 261.296 267.958 L 261.318 268.054 L 261.34 268.149 L 261.361 268.244 L 261.383 268.34 L 261.404 268.435 L 261.426 268.53 L 261.448 268.625 L 261.469 268.721 L 261.491 268.816 L 261.512 268.911 L 261.534 269.006 L 261.555 269.101 L 261.577 269.196 L 261.599 269.291 L 261.62 269.386 L 261.642 269.482 L 261.664 269.577 L 261.685 269.672 L 261.707 269.767 L 261.728 269.862 L 261.75 269.957 L 261.772 270.052 L 261.793 270.147 L 261.815 270.242 L 261.837 270.337 L 261.858 270.432 L 261.88 270.527 L 261.901 270.621 L 261.923 270.716 L 261.945 270.811 L 261.966 270.906 L 261.988 271.001 L 262.01 271.096 L 262.031 271.191 L 262.053 271.285 L 262.075 271.38 L 262.096 271.475 L 262.118 271.57 L 262.14 271.665 L 262.162 271.759 L 262.183 271.854 L 262.205 271.949 L 262.227 272.044 L 262.248 272.138 L 262.27 272.233 L 262.292 272.328 L 262.313 272.423 L 262.335 272.517 L 262.357 272.612 L 262.379 272.707 L 262.4 272.801 L 262.422 272.896 L 262.444 272.991 L 262.466 273.085 L 262.487 273.18 L 262.509 273.275 L 262.531 273.369 L 262.553 273.464 L 262.574 273.558 L 262.596 273.653 L 262.618 273.748 L 262.64 273.842 L 262.662 273.937 L 262.683 274.031 L 262.705 274.126 L 262.727 274.221 L 262.749 274.315 L 262.771 274.41 L 262.792 274.504 L 262.814 274.599 L 262.836 274.693 L 262.858 274.788 L 262.88 274.882 L 262.901 274.977 L 262.923 275.071 L 262.945 275.166 L 262.967 275.26 L 262.989 275.355 L 263.011 275.449 L 263.033 275.544 L 263.054 275.638 L 263.076 275.733 L 263.098 275.827 L 263.12 275.922 L 263.142 276.016 L 263.164 276.111 L 263.186 276.205 L 263.208 276.3 L 263.23 276.394 L 263.252 276.489 L 263.273 276.583 L 263.295 276.678 L 263.317 276.772 L 263.339 276.867 L 263.361 276.961 L 263.383 277.056 L 263.405 277.15 L 263.427 277.245 L 263.449 277.339 L 263.471 277.434 L 263.493 277.528 L 263.515 277.623 L 263.537 277.717 L 263.559 277.812 L 263.581 277.906 L 263.603 278.001 L 263.625 278.095 L 263.647 278.189 L 263.669 278.284 L 263.691 278.378 L 263.713 278.473 L 263.735 278.567 L 263.757 278.662 L 263.779 278.756 L 263.801 278.851 L 263.823 278.945 L 263.846 279.04 L 263.868 279.135 L 263.89 279.229 L 263.912 279.324 L 263.934 279.418 L 263.956 279.513 L 263.978 279.607 L 264 279.702 L 264.022 279.796 L 264.045 279.891 L 264.067 279.985 L 264.089 280.08 L 264.111 280.175 L 264.133 280.269 L 264.155 280.364 L 264.178 280.458 L 264.2 280.553 L 264.222 280.647 L 264.244 280.742 L 264.266 280.837 L 264.289 280.931 L 264.311 281.026 L 264.333 281.121 L 264.355 281.215 L 264.377 281.31 L 264.4 281.405 L 264.422 281.499 L 264.444 281.594 L 264.466 281.689 L 264.489 281.783 L 264.511 281.878 L 264.533 281.973 L 264.556 282.067 L 264.578 282.162 L 264.6 282.257 L 264.623 282.352 L 264.645 282.447 L 264.667 282.541 L 264.69 282.636 L 264.712 282.731 L 264.734 282.826 L 264.757 282.921 L 264.779 283.015 L 264.801 283.11 L 264.824 283.205 L 264.846 283.3 L 264.869 283.395 L 264.891 283.49 L 264.913 283.585 L 264.936 283.68 L 264.958 283.774 L 264.981 283.869 L 265.003 283.964 L 265.026 284.059 L 265.048 284.154 L 265.071 284.249 L 265.093 284.344 L 265.116 284.439 L 265.138 284.534 L 265.161 284.629 L 265.183 284.724 L 265.206 284.82 L 265.228 284.915 L 265.251 285.01 L 265.273 285.105 L 265.296 285.2 L 265.318 285.295 L 265.341 285.39 L 265.364 285.486 L 265.386 285.581 L 265.409 285.676 L 265.431 285.771 L 265.454 285.867 L 265.477 285.962 L 265.499 286.057 L 265.522 286.152 L 265.545 286.248 L 265.567 286.343 L 265.59 286.438 L 265.613 286.534 L 265.635 286.629 L 265.658 286.725 L 265.681 286.82 L 265.703 286.916 L 265.726 287.011 L 265.749 287.106 L 265.772 287.202 L 265.794 287.298 L 265.817 287.393 L 265.84 287.489 L 265.863 287.584 L 265.886 287.68 L 265.908 287.775 L 265.931 287.871 L 265.954 287.967 L 265.977 288.063 L 266 288.158 L 266.022 288.254 L 266.045 288.35 L 266.068 288.446 L 266.091 288.541 L 266.114 288.637 L 266.137 288.733 L 266.16 288.829 L 266.183 288.925 L 266.206 289.021 L 266.229 289.117 L 266.251 289.213 L 266.274 289.309 L 266.297 289.405 L 266.32 289.501 L 266.343 289.597 L 266.366 289.693 L 266.389 289.789 L 266.412 289.885 L 266.435 289.981 L 266.458 290.077 L 266.481 290.173 L 266.504 290.27 L 266.528 290.366 L 266.551 290.462 L 266.574 290.558 L 266.597 290.655 L 266.62 290.751 L 266.643 290.848 L 266.666 290.944 L 266.689 291.04 L 266.712 291.137 L 266.736 291.233 L 266.759 291.33 L 266.782 291.426 L 266.805 291.523 L 266.828 291.62 L 266.852 291.716 L 266.875 291.813 L 266.898 291.909 L 266.921 292.006 L 266.944 292.103 L 266.968 292.2 L 266.991 292.296 L 267.014 292.393 L 267.038 292.49 L 267.061 292.587 L 267.084 292.684 L 267.108 292.781 L 267.131 292.878 L 267.154 292.975 L 267.178 293.072 L 267.201 293.169 L 267.224 293.266 L 267.248 293.363 L 267.271 293.46 L 267.295 293.557 L 267.318 293.655 L 267.341 293.752 L 267.365 293.849 L 267.388 293.946 L 267.412 294.044 L 267.435 294.141 L 267.459 294.238 L 267.482 294.336 L 267.506 294.433 L 267.529 294.531 L 267.553 294.628 L 267.576 294.726 L 267.6 294.824 L 267.624 294.921 L 267.647 295.019 L 267.671 295.116 L 267.694 295.214 L 267.718 295.312 L 267.742 295.41 L 267.765 295.508 L 267.789 295.605 L 267.813 295.703 L 267.836 295.801 L 267.86 295.899 L 267.884 295.997 L 267.907 296.095 L 267.931 296.193 L 267.955 296.291 L 267.979 296.39 L 268.002 296.488 L 268.026 296.586 L 268.05 296.684 L 268.074 296.783 L 268.098 296.881 L 268.121 296.979 L 268.145 297.078 L 268.169 297.176 L 268.193 297.274 L 268.217 297.373 L 268.241 297.472 L 268.265 297.57 L 268.289 297.669 L 268.312 297.767 L 268.336 297.866 L 268.36 297.965 L 268.384 298.064 L 268.408 298.162 L 268.432 298.261 L 268.456 298.36 M 1.742 309.737 L 1.763 309.785 L 1.785 309.834 L 1.806 309.882 L 1.827 309.931 L 1.849 309.979 L 1.87 310.028 L 1.892 310.076 L 1.913 310.124 L 1.934 310.173 L 1.956 310.221 L 1.977 310.27 L 1.999 310.318 L 2.02 310.367 L 2.041 310.415 L 2.062 310.464 L 2.084 310.512 L 2.105 310.56 L 2.126 310.609 L 2.148 310.657 L 2.169 310.706 L 2.19 310.754 L 2.211 310.802 L 2.232 310.851 L 2.254 310.899 L 2.275 310.948 L 2.296 310.996 L 2.317 311.044 L 2.338 311.093 L 2.359 311.141 L 2.38 311.19 L 2.401 311.238 L 2.422 311.286 L 2.443 311.335 L 2.464 311.383 L 2.485 311.431 L 2.506 311.48 L 2.527 311.528 L 2.548 311.576 L 2.569 311.625 L 2.59 311.673 L 2.611 311.721 L 2.632 311.77 L 2.653 311.818 L 2.674 311.866 L 2.695 311.914 L 2.716 311.963 L 2.736 312.011 L 2.757 312.059 L 2.778 312.108 L 2.799 312.156 L 2.82 312.204 L 2.84 312.252 L 2.861 312.301 L 2.882 312.349 L 2.903 312.397 L 2.923 312.445 L 2.944 312.494 L 2.965 312.542 L 2.985 312.59 L 3.006 312.638 L 3.027 312.687 L 3.047 312.735 L 3.068 312.783 L 3.088 312.831 L 3.109 312.88 L 3.13 312.928 L 3.15 312.976 L 3.171 313.024 L 3.191 313.072 L 3.212 313.121 L 3.232 313.169 L 3.253 313.217 L 3.273 313.265 L 3.294 313.313 L 3.314 313.362 L 3.334 313.41 L 3.355 313.458 L 3.375 313.506 L 3.396 313.554 L 3.416 313.603 L 3.436 313.651 L 3.457 313.699 L 3.477 313.747 L 3.497 313.795 L 3.518 313.843 L 3.538 313.892 L 3.558 313.94 L 3.578 313.988 L 3.599 314.036 L 3.619 314.084 L 3.639 314.132 L 3.659 314.18 L 3.679 314.229 L 3.699 314.277 L 3.72 314.325 L 3.74 314.373 L 3.76 314.421 L 3.78 314.469 L 3.8 314.517 L 3.82 314.565 L 3.84 314.614 L 3.86 314.662 L 3.88 314.71 L 3.9 314.758 L 3.92 314.806 L 3.94 314.854 L 3.96 314.902 L 3.98 314.95 L 4 314.998 L 4.02 315.046 L 4.04 315.095 L 4.06 315.143 L 4.08 315.191 L 4.1 315.239 L 4.119 315.287 L 4.139 315.335 L 4.159 315.383 L 4.179 315.431 L 4.199 315.479 L 4.218 315.527 L 4.238 315.575 L 4.258 315.623 L 4.278 315.672 L 4.297 315.72 L 4.317 315.768 L 4.337 315.816 L 4.356 315.864 L 4.376 315.912 L 4.396 315.96 L 4.415 316.008 L 4.435 316.056 L 4.455 316.104 L 4.474 316.152 L 4.494 316.2 L 4.513 316.248 L 4.533 316.296 L 4.552 316.344 L 4.572 316.392 L 4.591 316.44 L 4.611 316.488 L 4.63 316.536 L 4.65 316.584 L 4.669 316.632 L 4.689 316.681 L 4.708 316.729 L 4.728 316.777 L 4.747 316.825 L 4.766 316.873 L 4.786 316.921 L 4.805 316.969 L 4.824 317.017 L 4.844 317.065 L 4.863 317.113 L 4.882 317.161 L 4.901 317.209 L 4.921 317.257 L 4.94 317.305 L 4.959 317.353 L 4.978 317.401 L 4.998 317.449 L 5.017 317.497 L 5.036 317.545 L 5.055 317.593 L 5.074 317.641 L 5.093 317.689 L 5.112 317.737 L 5.132 317.785 L 5.151 317.833 L 5.17 317.881 L 5.189 317.929 L 5.208 317.977 L 5.227 318.025 L 5.246 318.073 L 5.265 318.121 L 5.284 318.169 L 5.303 318.217 L 5.322 318.265 L 5.341 318.313 L 5.36 318.361 L 5.378 318.409 L 5.397 318.457 L 5.416 318.505 L 5.435 318.553 L 5.454 318.601 L 5.473 318.649 L 5.492 318.697 L 5.51 318.745 L 5.529 318.793 L 5.548 318.841 L 5.567 318.889 L 5.585 318.937 L 5.604 318.985 L 5.623 319.033 L 5.642 319.081 L 5.66 319.129 L 5.679 319.177 L 5.698 319.225 L 5.716 319.273 L 5.735 319.321 L 5.753 319.369 L 5.772 319.417 L 5.791 319.465 L 5.809 319.513 L 5.828 319.561 L 5.846 319.609 L 5.865 319.657 L 5.883 319.705 L 5.902 319.753 L 5.92 319.801 L 5.939 319.849 L 5.957 319.897 L 5.976 319.945 L 5.994 319.993 L 6.012 320.041 L 6.031 320.089 L 6.049 320.137 L 6.068 320.185 L 6.086 320.233 L 6.104 320.281 L 6.123 320.329 L 6.141 320.377 L 6.159 320.425 L 6.177 320.473 L 6.196 320.521 L 6.214 320.569 L 6.232 320.617 L 6.25 320.665 L 6.269 320.713 L 6.287 320.761 L 6.305 320.809 L 6.323 320.857 L 6.341 320.905 L 6.359 320.954 L 6.378 321.002 L 6.396 321.05 L 6.414 321.098 L 6.432 321.146 L 6.45 321.194 L 6.468 321.242 L 6.486 321.29 L 6.504 321.338 L 6.522 321.386 L 6.54 321.434 L 6.558 321.482 L 6.576 321.53 L 6.594 321.578 L 6.612 321.626 L 6.63 321.674 L 6.648 321.722 L 6.665 321.77 L 6.683 321.818 L 6.701 321.866 L 6.719 321.914 L 6.737 321.962 L 6.755 322.01 L 6.772 322.058 L 6.79 322.107 L 6.808 322.155 L 6.826 322.203 L 6.843 322.251 L 6.861 322.299 L 6.879 322.347 L 6.897 322.395 L 6.914 322.443 L 6.932 322.491 L 6.95 322.539 L 6.967 322.587 L 6.985 322.635 L 7.002 322.683 L 7.02 322.731 L 7.038 322.78 L 7.055 322.828 L 7.073 322.876 L 7.09 322.924 L 7.108 322.972 L 7.125 323.02 L 7.143 323.068 L 7.16 323.116 L 7.178 323.164 L 7.195 323.212 L 7.213 323.261 L 7.23 323.309 L 7.247 323.357 L 7.265 323.405 L 7.282 323.453 L 7.3 323.501 L 7.317 323.549 L 7.334 323.597 L 7.352 323.646 L 7.369 323.694 L 7.386 323.742 L 7.403 323.79 L 7.421 323.838 L 7.438 323.886 L 7.455 323.934 L 7.472 323.982 L 7.49 324.031 L 7.507 324.079 L 7.524 324.127 L 7.541 324.175 L 7.558 324.223 L 7.575 324.271 L 7.593 324.32 L 7.61 324.368 L 7.627 324.416 L 7.644 324.464 L 7.661 324.512 L 7.678 324.56 L 7.695 324.609 L 7.712 324.657 L 7.729 324.705 L 7.746 324.753 L 7.763 324.801 L 7.78 324.85 L 7.797 324.898 L 7.814 324.946 L 7.831 324.994 L 7.848 325.042 L 7.865 325.091 L 7.881 325.139 L 7.898 325.187 L 7.915 325.235 L 7.932 325.284 L 7.949 325.332 L 7.966 325.38 L 7.982 325.428 L 7.999 325.477 L 8.016 325.525 L 8.033 325.573 L 8.049 325.621 L 8.066 325.67 L 8.083 325.718 L 8.1 325.766 L 8.116 325.814 L 8.133 325.863 L 8.15 325.911 L 8.166 325.959 L 8.183 326.007 L 8.199 326.056 L 8.216 326.104 L 8.233 326.152 L 8.249 326.201 L 8.266 326.249 L 8.282 326.297 L 8.299 326.346 L 8.315 326.394 L 8.332 326.442 L 8.348 326.491 L 8.365 326.539 L 8.381 326.587 L 8.398 326.636 L 8.414 326.684 L 8.431 326.732 L 8.447 326.781 L 8.463 326.829 L 8.48 326.877 L 8.496 326.926 L 8.512 326.974 L 8.529 327.022 L 8.545 327.071 L 8.561 327.119 L 8.578 327.168 L 8.594 327.216 L 8.61 327.264 L 8.626 327.313 L 8.643 327.361 L 8.659 327.41 L 8.675 327.458 L 8.691 327.506 L 8.707 327.555 L 8.724 327.603 L 8.74 327.652 L 8.756 327.7 L 8.772 327.749 L 8.788 327.797 L 8.804 327.845 L 8.82 327.894 L 8.836 327.942 L 8.852 327.991 L 8.869 328.039 L 8.885 328.088 L 8.901 328.136 L 8.917 328.185 L 8.933 328.233 L 8.949 328.282 L 8.965 328.33 L 8.98 328.379 L 8.996 328.427 L 9.012 328.476 L 9.028 328.524 L 9.044 328.573 L 9.06 328.621 L 9.076 328.67 L 9.092 328.718 L 9.108 328.767 L 9.123 328.815 L 9.139 328.864 L 9.155 328.912 L 9.171 328.961 L 9.187 329.01 L 9.202 329.058 L 9.218 329.107 L 9.234 329.155 L 9.25 329.204 L 9.265 329.253 L 9.281 329.301 L 9.297 329.35 L 9.312 329.398 L 9.328 329.447 L 9.344 329.496 L 9.359 329.544 L 9.375 329.593 L 9.39 329.641 L 9.406 329.69 L 9.422 329.739 L 9.437 329.787 L 9.453 329.836 L 9.468 329.885 L 9.484 329.933 L 9.499 329.982 L 9.515 330.031 L 9.53 330.079 L 9.546 330.128 L 9.561 330.177 L 9.577 330.226 L 9.592 330.274 L 9.608 330.323 L 9.623 330.372 L 9.638 330.42 L 9.654 330.469 L 9.669 330.518 L 9.685 330.567 L 9.7 330.615 L 9.715 330.664 L 9.731 330.713 L 9.746 330.762 L 9.761 330.81 L 9.776 330.859 L 9.792 330.908 L 9.807 330.957 L 9.822 331.006 L 9.837 331.054 L 9.853 331.103 L 9.868 331.152 L 9.883 331.201 L 9.898 331.25 L 9.913 331.299 L 9.929 331.347 L 9.944 331.396 L 9.959 331.445 L 9.974 331.494 L 9.989 331.543 L 10.004 331.592 L 10.019 331.641 L 10.034 331.689 L 10.049 331.738 L 10.064 331.787 L 10.079 331.836 L 10.094 331.885 L 10.11 331.934 L 10.125 331.983 L 10.139 332.032 L 10.154 332.081 L 10.169 332.13 L 10.184 332.179 L 10.199 332.228 L 10.214 332.277 L 10.229 332.326 L 10.244 332.375 L 10.259 332.424 L 10.274 332.473 L 10.289 332.522 L 10.304 332.571 L 10.318 332.62 L 10.333 332.669 L 10.348 332.718 L 10.363 332.767 L 10.378 332.816 L 10.392 332.865 L 10.407 332.914 L 10.422 332.963 L 10.437 333.012 L 10.451 333.061 L 10.466 333.11 L 10.481 333.159 L 10.496 333.208 L 10.51 333.257 L 10.525 333.307 L 10.54 333.356 L 10.554 333.405 L 10.569 333.454 L 10.584 333.503 L 10.598 333.552 L 10.613 333.601 L 10.627 333.651 L 10.642 333.7 L 10.657 333.749 L 10.671 333.798 L 10.686 333.847 L 10.7 333.896 L 10.715 333.946 L 10.729 333.995 L 10.744 334.044 L 10.758 334.093 L 10.773 334.143 L 10.787 334.192 L 10.802 334.241 L 10.816 334.29 L 10.831 334.34 L 10.845 334.389 L 10.86 334.438 L 10.874 334.487 L 10.888 334.537 L 10.903 334.586 L 10.917 334.635 L 10.931 334.685 L 10.946 334.734 L 10.96 334.783 L 10.975 334.833 L 10.989 334.882 L 11.003 334.931 L 11.017 334.981 L 11.032 335.03 L 11.046 335.079 L 11.06 335.129 L 11.075 335.178 L 11.089 335.228 L 11.103 335.277 L 11.117 335.326 L 11.132 335.376 L 11.146 335.425 L 11.16 335.475 L 11.174 335.524 L 11.188 335.574 L 11.203 335.623 L 11.217 335.673 L 11.231 335.722 L 11.245 335.772 L 11.259 335.821 L 11.273 335.871 L 11.287 335.92 L 11.301 335.97 L 11.316 336.019 L 11.33 336.069 L 11.344 336.118 L 11.358 336.168 L 11.372 336.217 L 11.386 336.267 L 11.4 336.317 L 11.414 336.366 L 11.428 336.416 L 11.442 336.465 L 11.456 336.515 L 11.47 336.565 L 11.484 336.614 L 11.498 336.664 L 11.512 336.713 L 11.526 336.763 L 11.54 336.813 L 11.554 336.862 L 11.568 336.912 L 11.582 336.962 L 11.595 337.012 L 11.609 337.061 L 11.623 337.111 L 11.637 337.161 L 11.651 337.21 L 11.665 337.26 L 11.679 337.31 L 11.692 337.36 L 11.706 337.409 L 11.72 337.459 L 11.734 337.509 L 11.748 337.559 L 11.762 337.609 L 11.775 337.658 L 11.789 337.708 L 11.803 337.758 L 11.817 337.808 L 11.83 337.858 L 11.844 337.908 L 11.858 337.957 L 11.872 338.007 L 11.885 338.057 L 11.899 338.107 L 11.913 338.157 L 11.926 338.207 L 11.94 338.257 L 11.954 338.307 L 11.968 338.357 L 11.981 338.407 L 11.995 338.456 L 12.009 338.506 L 12.022 338.556 L 12.036 338.606 L 12.049 338.656 L 12.063 338.706 L 12.077 338.756 L 12.09 338.806 L 12.104 338.856 L 12.117 338.906 L 12.131 338.956 L 12.145 339.007 L 12.158 339.057 L 12.172 339.107 L 12.185 339.157 L 12.199 339.207 L 12.212 339.257 L 12.226 339.307 L 12.239 339.357 L 12.253 339.407 L 12.266 339.457 L 12.28 339.508 L 12.293 339.558 L 12.307 339.608 L 12.32 339.658 L 12.334 339.708 L 12.347 339.758 L 12.361 339.809 L 12.374 339.859 L 12.388 339.909 L 12.401 339.959 L 12.414 340.009 L 12.428 340.06 L 12.441 340.11 L 12.455 340.16 L 12.468 340.211 L 12.482 340.261 L 12.495 340.311 L 12.508 340.361 L 12.522 340.412 L 12.535 340.462 L 12.548 340.512 L 12.562 340.563 L 12.575 340.613 L 12.588 340.663 L 12.602 340.714 L 12.615 340.764 L 12.628 340.815 L 12.642 340.865 L 12.655 340.915 L 12.668 340.966 L 12.682 341.016 L 12.695 341.067 L 12.708 341.117 L 12.722 341.168 L 12.735 341.218 L 12.748 341.268 L 12.761 341.319 L 12.775 341.369 L 12.788 341.42 L 12.801 341.471 L 12.814 341.521 L 12.828 341.572 L 12.841 341.622 L 12.854 341.673 L 12.867 341.723 L 12.881 341.774 L 12.894 341.824 L 12.907 341.875 L 12.92 341.926 L 12.933 341.976 L 12.947 342.027 L 12.96 342.078 L 12.973 342.128 L 12.986 342.179 L 12.999 342.229 L 13.013 342.28 L 13.026 342.331 L 13.039 342.382 L 13.052 342.432 L 13.065 342.483 L 13.078 342.534 L 13.091 342.584 L 13.105 342.635 L 13.118 342.686 L 13.131 342.737 L 13.144 342.788 L 13.157 342.838 L 13.17 342.889 L 13.183 342.94 L 13.196 342.991 L 13.21 343.042 L 13.223 343.092 L 13.236 343.143 L 13.249 343.194 L 13.262 343.245 L 13.275 343.296 L 13.288 343.347 L 13.301 343.398 L 13.314 343.449 L 13.327 343.5 L 13.34 343.551 L 13.353 343.601 L 13.367 343.652 L 13.38 343.703 L 13.393 343.754 L 13.406 343.805 L 13.419 343.856 L 13.432 343.907 L 13.445 343.958 L 13.458 344.009 L 13.471 344.061 L 13.484 344.112 L 13.497 344.163 L 13.51 344.214 L 13.523 344.265 L 13.536 344.316 L 13.549 344.367 L 13.562 344.418 L 13.575 344.469 L 13.588 344.52 L 13.601 344.572 L 13.614 344.623 L 13.627 344.674 L 13.64 344.725 L 13.653 344.776 L 13.666 344.828 L 13.679 344.879 L 13.692 344.93 L 13.705 344.981 L 13.718 345.033 L 13.731 345.084 L 13.744 345.135 L 13.757 345.186 L 13.77 345.238 L 13.783 345.289 L 13.796 345.34 L 13.809 345.392 L 13.822 345.443 L 13.835 345.494 L 13.847 345.546 L 13.86 345.597 L 13.873 345.648 L 13.886 345.7 L 13.899 345.751 L 13.912 345.803 L 13.925 345.854 L 13.938 345.906 L 13.951 345.957 L 13.964 346.009 L 13.977 346.06 L 13.99 346.111 L 14.003 346.163 L 14.016 346.215 L 14.029 346.266 L 14.042 346.318 L 14.054 346.369 L 14.067 346.421 L 14.08 346.472 L 14.093 346.524 L 14.106 346.575 L 14.119 346.627 L 14.132 346.679 L 14.145 346.73 L 14.158 346.782 L 14.171 346.834 L 14.184 346.885 L 14.197 346.937 L 14.209 346.989 L 14.222 347.04 L 14.235 347.092 L 14.248 347.144 L 14.261 347.196 L 14.274 347.247 L 14.287 347.299 L 14.3 347.351 L 14.313 347.403 L 14.326 347.454 L 14.338 347.506 L 14.351 347.558 L 14.364 347.61 L 14.377 347.662 L 14.39 347.714 L 14.403 347.765 L 14.416 347.817 L 14.429 347.869 L 14.442 347.921 L 14.455 347.973 L 14.467 348.025 L 14.48 348.077 L 14.493 348.129 L 14.506 348.181 L 14.519 348.233 L 14.532 348.285 L 14.545 348.337 L 14.558 348.389 L 14.571 348.441 L 14.584 348.493 L 14.596 348.545 L 14.609 348.597 L 14.622 348.649 L 14.635 348.701 L 14.648 348.753 L 14.661 348.805 L 14.674 348.858 L 14.687 348.91 L 14.7 348.962 L 14.712 349.014 L 14.725 349.066 L 14.738 349.118 L 14.751 349.171 L 14.764 349.223 L 14.777 349.275 L 14.79 349.327 L 14.803 349.38 L 14.816 349.432 L 14.829 349.484 L 14.841 349.536 L 14.854 349.589 L 14.867 349.641 L 14.88 349.693 L 14.893 349.746 L 14.906 349.798 L 14.919 349.85 L 14.932 349.903 L 14.945 349.955 L 14.958 350.008 L 14.971 350.06 L 14.983 350.112 L 14.996 350.165 L 15.009 350.217 L 15.022 350.27 L 15.035 350.322 L 15.048 350.375 L 15.061 350.427 L 15.074 350.48 L 15.087 350.532 L 15.1 350.585 L 15.113 350.637 L 15.126 350.69 L 15.138 350.743 L 15.151 350.795 L 15.164 350.848 L 15.177 350.9 L 15.19 350.953 L 15.203 351.006 L 15.216 351.058 L 15.229 351.111 L 15.242 351.164 L 15.255 351.216 L 15.268 351.269 L 15.281 351.322 L 15.294 351.375 L 15.307 351.427 L 15.32 351.48 L 15.332 351.533 L 15.345 351.586 L 15.358 351.639 L 15.371 351.691 L 15.384 351.744 L 15.397 351.797 L 15.41 351.85 L 15.423 351.903 L 15.436 351.956 L 15.449 352.009 L 15.462 352.062 L 15.475 352.115 L 15.488 352.167 L 15.501 352.22 L 15.514 352.273 L 15.527 352.326 L 15.54 352.379 L 15.553 352.432 L 15.566 352.485 L 15.579 352.539 L 15.592 352.592 L 15.605 352.645 L 15.618 352.698 L 15.631 352.751 L 15.644 352.804 L 15.657 352.857 L 15.67 352.91 L 15.683 352.963 L 15.696 353.017 L 15.709 353.07 L 15.722 353.123 L 15.735 353.176 L 15.748 353.229 L 15.761 353.283 L 15.774 353.336 L 15.787 353.389 L 15.8 353.442 L 15.813 353.496 L 15.826 353.549 L 15.839 353.602 L 15.852 353.656 L 15.865 353.709 L 15.878 353.762 L 15.891 353.816 L 15.904 353.869 L 15.917 353.923 L 15.93 353.976 L 15.943 354.029 L 15.956 354.083 L 15.97 354.136 L 15.983 354.19 L 15.996 354.243 L 16.009 354.297 L 16.022 354.35 L 16.035 354.404 L 16.048 354.457 L 16.061 354.511 L 16.074 354.565 L 16.087 354.618 L 16.1 354.672 L 16.113 354.725 L 16.126 354.779 L 16.14 354.833 L 16.153 354.886 L 16.166 354.94 L 16.179 354.994 L 16.192 355.047 L 16.205 355.101 L 16.218 355.155 L 16.231 355.209 L 16.244 355.262 L 16.258 355.316 L 16.271 355.37 L 16.284 355.424 L 16.297 355.478 L 16.31 355.532 L 16.323 355.585 L 16.336 355.639 L 16.35 355.693 L 16.363 355.747 L 16.376 355.801 L 16.389 355.855 L 16.402 355.909 L 16.415 355.963 L 16.429 356.017 L 16.442 356.071 L 16.455 356.125 L 16.468 356.179 L 16.481 356.233 L 16.494 356.287 L 16.508 356.341 L 16.521 356.395 L 16.534 356.449 L 16.547 356.503 L 16.56 356.557 L 16.574 356.612 L 16.587 356.666 L 16.6 356.72 L 16.613 356.774 L 16.627 356.828 L 16.64 356.883 L 16.653 356.937 L 16.666 356.991 L 16.679 357.045 L 16.693 357.1 L 16.706 357.154 L 16.719 357.208 L 16.732 357.263 L 16.746 357.317 L 16.759 357.371 L 16.772 357.426 L 16.785 357.48 L 16.799 357.534 L 16.812 357.589 L 16.825 357.643 L 16.839 357.698 L 16.852 357.752 L 16.865 357.807 L 16.878 357.861 L 16.892 357.916 L 16.905 357.97 L 16.918 358.025 L 16.932 358.079 L 16.945 358.134 L 16.958 358.189 L 16.972 358.243 L 16.985 358.298 L 16.998 358.353 L 17.012 358.407 L 17.025 358.462 L 17.038 358.517 L 17.052 358.571 L 17.065 358.626 L 17.078 358.681 L 17.092 358.736 L 17.105 358.79 L 17.118 358.845 L 17.132 358.9 L 17.145 358.955 L 17.158 359.01 L 17.172 359.064 L 17.185 359.119 L 17.199 359.174 L 17.212 359.229 L 17.225 359.284 L 17.239 359.339 L 17.252 359.394 L 17.266 359.449 L 17.279 359.504 L 17.292 359.559 L 17.306 359.614 L 17.319 359.669 L 17.333 359.724" id="blue" stroke="blue" style="stroke:blue" vector-effect="non-scaling-stroke"/><g id="captions"><text alignment-baseline="middle" text-anchor="middle" transform="rotate(0,360.272,211.98)" x="360.272" y="211.98">WIND, 1, 1</text></g></g></svg>