<svg width="586.751" height="885.138" viewBox="0 0 586.751 885.138" xmlns="http://www.w3.org/2000/svg"><g id="svgGroup" stroke-linecap="round" fill-rule="evenodd" font-size="9pt" stroke="#000" stroke-width="0.25mm" fill="none" style="stroke:#000;stroke-width:0.25mm;fill:none"><path d="M 564.896 0 L 558.186 0.194 L 553.168 0.344 L 548.162 0.497 L 541.507 0.705 L 536.529 0.866 L 531.564 1.029 L 524.962 1.252 L 520.024 1.423 L 515.097 1.598 L 508.547 1.835 L 503.648 2.017 L 498.761 2.202 L 492.261 2.453 L 487.4 2.645 L 482.55 2.84 L 476.101 3.105 L 471.276 3.308 L 464.861 3.582 L 460.062 3.792 L 453.68 4.076 L 448.907 4.293 L 444.143 4.513 L 437.808 4.81 L 433.07 5.037 L 426.767 5.344 L 422.052 5.577 L 415.781 5.893 L 411.089 6.134 L 404.849 6.459 L 400.181 6.706 L 393.971 7.04 L 389.326 7.294 L 383.146 7.637 L 376.983 7.986 L 372.372 8.25 L 366.238 8.607 L 361.649 8.878 L 355.543 9.244 L 350.975 9.521 L 344.897 9.895 L 338.835 10.275 L 334.299 10.562 L 328.264 10.95 L 322.244 11.342 L 317.739 11.64 L 311.745 12.041 L 307.259 12.344 L 301.291 12.753 L 295.337 13.167 L 290.881 13.48 L 284.951 13.902 L 279.035 14.329 L 273.133 14.76 L 268.715 15.086 L 262.836 15.525 L 256.97 15.968 L 252.579 16.304 L 246.736 16.755 L 240.905 17.211 L 235.086 17.671 L 230.731 18.018 L 224.933 18.486 L 219.147 18.958 L 213.373 19.434 L 209.05 19.794 L 203.296 20.278 L 197.553 20.765 L 191.821 21.257 L 186.1 21.753 L 181.816 22.128 L 176.113 22.631 L 170.42 23.139 L 164.737 23.65 L 159.064 24.165 L 153.401 24.684 L 149.159 25.076 L 143.512 25.603 L 137.874 26.133 L 132.245 26.666 L 126.625 27.204 L 121.013 27.745 L 116.81 28.154 L 111.213 28.702 L 105.623 29.254 L 100.042 29.809 L 94.468 30.368 L 88.902 30.931 L 83.342 31.497 L 77.79 32.067 L 72.245 32.641 L 68.09 33.073 L 62.556 33.652 L 57.029 34.235 L 51.507 34.822 L 45.992 35.411 L 40.482 36.005 L 34.978 36.601 L 29.479 37.201 L 23.985 37.804 L 18.496 38.41 L 18.497 43.022 L 18.498 47.626 L 18.5 52.223 L 18.503 56.811 L 18.506 61.392 L 18.51 65.965 L 18.515 70.529 L 18.521 75.086 L 18.528 79.635 L 18.535 84.177 L 18.543 88.71 L 18.551 93.235 L 18.561 97.753 L 18.571 102.262 L 18.582 106.764 L 18.594 111.258 L 18.598 113.071 L 0 110.691 L 0.171 158.128 L 18.751 155.614 L 37.328 153.072 L 37.52 190.549 L 18.918 188.197 L 0.312 185.874 L 0.613 230.914 L 19.186 228.343 L 37.754 225.738 L 38.125 269.514 L 19.516 267.225 L 0.902 264.969 L 1.34 307.485 L 19.904 304.846 L 38.462 302.172 L 38.965 343.432 L 20.347 341.212 L 1.725 339.027 L 2.29 379.034 L 20.843 376.325 L 20.939 382.61 L 21.001 386.598 L 21.064 390.578 L 21.128 394.55 L 21.192 398.514 L 21.258 402.471 L 21.324 406.42 L 21.391 410.361 L 21.459 414.295 L 21.527 418.221 L 21.596 422.139 L 21.667 426.05 L 21.737 429.953 L 21.809 433.848 L 21.882 437.736 L 21.955 441.616 L 22.029 445.488 L 22.104 449.353 L 22.18 453.21 L 22.256 457.059 L 22.334 460.901 L 22.361 460.898 L 22.459 465.728 L 22.558 470.547 L 22.659 475.352 L 22.761 480.146 L 22.865 484.928 L 22.969 489.697 L 23.075 494.455 L 23.183 499.2 L 23.291 503.933 L 23.401 508.655 L 23.512 513.364 L 23.625 518.061 L 23.738 522.746 L 23.853 527.419 L 23.97 532.079 L 24.087 536.728 L 24.206 541.365 L 24.432 550.062 L 42.946 547.097 L 44.076 587.636 L 25.426 585.708 L 6.77 583.832 L 7.968 622.844 L 26.473 619.827 L 44.969 616.75 L 46.535 662.896 L 27.873 661.081 L 9.205 659.329 L 10.542 695.124 L 29.027 691.985 L 47.502 688.783 L 49.234 731.335 L 30.56 729.646 L 11.879 728.038 L 14.072 776.731 L 32.533 773.45 L 50.979 770.085 L 52.892 808.685 L 34.204 807.161 L 34.33 809.59 L 34.533 813.475 L 34.737 817.349 L 34.942 821.211 L 35.149 825.062 L 35.357 828.901 L 35.566 832.729 L 35.776 836.546 L 35.988 840.352 L 36.201 844.146 L 36.415 847.929 L 36.631 851.7 L 36.848 855.46 L 37.066 859.209 L 37.286 862.947 L 37.506 866.674 L 37.729 870.389 L 37.952 874.093 L 38.177 877.786 L 38.403 881.468 L 38.63 885.138 L 44.056 882.501 L 49.473 879.851 L 54.881 877.19 L 60.28 874.516 L 65.671 871.83 L 71.054 869.132 L 76.428 866.421 L 81.794 863.699 L 86.098 861.004 L 91.935 858.432 L 97.276 855.672 L 102.611 852.899 L 107.937 850.114 L 113.257 847.316 L 118.569 844.505 L 123.874 841.681 L 129.173 838.844 L 132.49 836.063 L 140.165 832.925 L 145.439 830.047 L 150.706 827.156 L 155.966 824.252 L 161.221 821.334 L 164.655 818.465 L 172.092 815.243 L 177.325 812.283 L 182.552 809.309 L 187.773 806.321 L 192.197 803.347 L 198.366 799.888 L 203.75 797.049 L 208.946 794.003 L 213.396 790.969 L 220.257 787.418 L 224.715 784.351 L 230 781.443 L 234.476 778.346 L 241.249 774.729 L 245.736 771.599 L 250.284 768.654 L 256.993 764.987 L 261.503 761.808 L 267.543 758.126 L 272.672 755.096 L 277.204 751.866 L 283.217 748.13 L 287.714 745.071 L 294.275 741.278 L 298.836 737.977 L 304.813 734.164 L 309.284 731.036 L 315.766 727.168 L 319.773 723.809 L 326.143 720.113 L 330.188 716.715 L 336.492 712.98 L 341.111 709.528 L 347.024 705.554 L 351.446 702.277 L 357.346 698.259 L 363.236 694.219 L 367.641 690.881 L 373.049 686.809 L 379.097 682.907 L 383.329 679.298 L 388.94 675.363 L 395.157 671.173 L 399.446 667.494 L 404.997 663.488 L 410.433 659.244 L 415.941 655.186 L 421.757 650.88 L 426.107 647.291 L 431.558 642.94 L 436.991 638.776 L 442.449 634.368 L 447.844 630.147 L 453.309 625.679 L 458.354 621.406 L 463.949 617.088 L 468.465 613.056 L 473.772 608.682 L 479.261 604.053 L 484.33 599.616 L 490.712 594.382 L 495.695 589.873 L 500.914 585.32 L 506.42 580.503 L 511.38 575.876 L 516.552 571.201 L 522.074 566.256 L 526.829 561.5 L 532.776 556.147 L 538.31 551.056 L 543.224 546.145 L 548.173 541.176 L 554.474 535.375 L 559.366 530.286 L 564.289 525.13 L 570.607 519.127 L 570.503 514.525 L 570.4 509.91 L 570.298 505.284 L 570.197 500.646 L 570.097 495.996 L 569.998 491.335 L 569.9 486.661 L 569.802 481.976 L 569.706 477.279 L 569.61 472.57 L 569.516 467.849 L 569.422 463.117 L 569.329 458.372 L 569.237 453.616 L 569.146 448.848 L 569.056 444.068 L 568.967 439.276 L 568.879 434.473 L 568.792 429.657 L 568.643 421.348 L 550.098 424.108 L 549.498 388.461 L 568.126 390.595 L 586.751 392.761 L 586.041 345.94 L 567.49 348.668 L 548.936 351.366 L 548.422 313.224 L 567.043 315.421 L 585.66 317.648 L 585.072 267.97 L 566.513 270.637 L 547.949 273.274 L 547.535 232.628 L 566.148 234.886 L 584.759 237.17 L 584.391 195.353 L 565.824 197.964 L 547.253 200.548 L 546.935 157.559 L 565.542 159.869 L 584.146 162.204 L 583.879 118.04 L 565.305 120.6 L 546.727 123.134 L 546.514 77.795 L 565.115 80.155 L 565.115 79.879 L 565.093 74.251 L 565.072 68.612 L 565.052 62.96 L 565.033 57.297 L 565.015 51.621 L 564.998 45.934 L 564.982 40.234 L 564.966 34.522 L 564.952 28.799 L 564.939 23.063 L 564.927 17.315 L 564.916 11.556 L 564.905 5.784 L 564.896 0 Z" vector-effect="non-scaling-stroke"/><g id="captions"><text alignment-baseline="middle" text-anchor="middle" transform="rotate(0,297.847,373.822)" x="297.847" y="373.822">WIND, 1, 0</text></g></g></svg>