<svg width="797.303" height="391.01" viewBox="0 0 797.303 391.01" xmlns="http://www.w3.org/2000/svg"><g id="svgGroup" stroke-linecap="round" fill-rule="evenodd" font-size="9pt" stroke="#000" stroke-width="0.25mm" fill="none" style="stroke:#000;stroke-width:0.25mm;fill:none"><path d="M 259.608 41.637 L 259.592 43.071 L 259.577 44.501 L 259.562 45.926 L 259.547 47.347 L 259.532 48.763 L 259.517 50.174 L 259.502 51.582 L 259.487 52.984 L 259.472 54.382 L 259.457 55.776 L 259.443 57.165 L 259.428 58.55 L 259.413 59.93 L 259.399 61.306 L 259.385 62.677 L 259.37 64.044 L 259.356 65.406 L 259.342 66.764 L 259.328 68.117 L 259.314 69.466 L 259.3 70.81 L 259.286 72.15 L 259.273 73.486 L 259.259 74.817 L 259.245 76.143 L 259.232 77.465 L 259.219 78.783 L 259.205 80.096 L 259.192 81.405 L 259.179 82.709 L 259.166 84.009 L 259.153 85.305 L 259.14 86.596 L 259.127 87.882 L 259.114 89.165 L 259.102 90.443 L 259.089 91.716 L 259.077 92.985 L 259.065 94.25 L 259.052 95.51 L 259.04 96.766 L 259.028 98.017 L 259.016 99.265 L 259.004 100.507 L 258.993 101.746 L 258.981 102.98 L 258.969 104.209 L 258.958 105.435 L 258.947 106.656 L 258.935 107.872 L 258.924 109.085 L 258.913 110.292 L 258.902 111.496 L 258.891 112.695 L 258.881 113.89 L 258.87 115.081 L 258.859 116.267 L 258.849 117.449 L 258.839 118.627 L 258.828 119.8 L 258.818 120.97 L 258.808 122.134 L 258.798 123.295 L 258.788 124.451 L 258.779 125.603 L 258.769 126.751 L 258.76 127.895 L 258.75 129.034 L 258.741 130.169 L 258.732 131.3 L 258.723 132.426 L 258.714 133.548 L 258.705 134.667 L 258.697 135.78 L 258.688 136.89 L 258.68 137.996 L 258.671 139.097 L 258.663 140.194 L 258.655 141.287 L 258.647 142.375 L 258.639 143.46 L 258.631 144.54 L 258.624 145.617 L 258.616 146.689 L 258.609 147.756 L 258.602 148.82 L 258.595 149.88 L 258.588 150.935 L 258.581 151.987 L 258.574 153.034 L 258.567 154.077 L 258.561 155.116 L 258.555 156.151 L 258.548 157.182 L 258.542 158.209 L 258.536 159.232 L 258.53 160.251 L 258.525 161.265 L 258.519 162.276 L 258.514 163.283 L 259.608 41.637 Z M 1.198 45.028 L 1.183 46.418 L 1.169 47.804 L 1.155 49.186 L 1.14 50.563 L 1.126 51.936 L 1.112 53.304 L 1.097 54.668 L 1.083 56.028 L 1.069 57.383 L 1.055 58.734 L 1.041 60.08 L 1.027 61.422 L 1.013 62.76 L 0.999 64.093 L 0.985 65.422 L 0.971 66.747 L 0.957 68.067 L 0.944 69.383 L 0.93 70.695 L 0.916 72.002 L 0.903 73.305 L 0.889 74.603 L 0.876 75.897 L 0.862 77.187 L 0.849 78.473 L 0.836 79.754 L 0.823 81.03 L 0.809 82.303 L 0.796 83.571 L 0.783 84.835 L 0.77 86.094 L 0.757 87.35 L 0.744 88.601 L 0.731 89.847 L 0.718 91.09 L 0.705 92.328 L 0.693 93.561 L 0.68 94.791 L 0.667 96.016 L 0.655 97.237 L 0.642 98.453 L 0.63 99.666 L 0.617 100.874 L 0.605 102.078 L 0.593 103.277 L 0.58 104.473 L 0.568 105.664 L 0.556 106.85 L 0.544 108.033 L 0.532 109.211 L 0.52 110.385 L 0.508 111.555 L 0.496 112.721 L 0.484 113.882 L 0.472 115.04 L 0.46 116.193 L 0.449 117.341 L 0.437 118.486 L 0.425 119.626 L 0.414 120.763 L 0.403 121.895 L 0.391 123.023 L 0.38 124.146 L 0.368 125.266 L 0.357 126.381 L 0.346 127.493 L 0.335 128.6 L 0.324 129.703 L 0.313 130.801 L 0.302 131.896 L 0.291 132.987 L 0.28 134.073 L 0.269 135.155 L 0.259 136.234 L 0.248 137.308 L 0.237 138.378 L 0.227 139.443 L 0.216 140.505 L 0.206 141.563 L 0.195 142.617 L 0.185 143.666 L 0.175 144.712 L 0.165 145.753 L 0.154 146.791 L 0.144 147.824 L 0.134 148.854 L 0.124 149.879 L 0.114 150.9 L 0.105 151.917 L 0.095 152.931 L 0.085 153.94 L 0.075 154.945 L 0.066 155.947 L 0.056 156.944 L 0.047 157.937 L 0.037 158.927 L 0.028 159.912 L 0.018 160.894 L 0.009 161.871 L 0 162.845 L 1.198 45.028 Z M 519.115 17.741 L 519.109 18.917 L 519.103 20.09 L 519.097 21.26 L 519.091 22.428 L 519.086 23.593 L 519.081 24.755 L 519.076 25.915 L 519.071 27.072 L 519.066 28.226 L 519.062 29.378 L 519.058 30.526 L 519.054 31.673 L 519.05 32.816 L 519.047 33.957 L 519.043 35.095 L 519.04 36.23 L 519.037 37.363 L 519.034 38.493 L 519.032 39.62 L 519.029 40.745 L 519.027 41.867 L 519.025 42.986 L 519.023 44.103 L 519.022 45.217 L 519.021 46.328 L 519.019 47.436 L 519.019 48.542 L 519.018 49.646 L 519.017 50.746 L 519.017 51.844 L 519.017 52.939 L 519.017 54.032 L 519.017 55.122 L 519.018 56.209 L 519.019 57.293 L 519.02 58.375 L 519.021 59.454 L 519.022 60.531 L 519.024 61.605 L 519.026 62.676 L 519.028 63.745 L 519.03 64.811 L 519.032 65.874 L 519.035 66.935 L 519.038 67.993 L 519.041 69.048 L 519.044 70.101 L 519.048 71.151 L 519.052 72.198 L 519.056 73.243 L 519.06 74.285 L 519.064 75.324 L 519.069 76.361 L 519.074 77.396 L 519.079 78.427 L 519.084 79.456 L 519.09 80.482 L 519.096 81.506 L 519.102 82.527 L 519.108 83.546 L 519.114 84.561 L 519.121 85.575 L 519.128 86.585 L 519.135 87.593 L 519.142 88.599 L 519.15 89.601 L 519.158 90.601 L 519.166 91.599 L 519.174 92.594 L 519.183 93.586 L 519.191 94.576 L 519.2 95.563 L 519.209 96.547 L 519.219 97.529 L 519.228 98.509 L 519.238 99.485 L 519.248 100.459 L 519.259 101.431 L 519.269 102.4 L 519.28 103.366 L 519.291 104.33 L 519.302 105.291 L 519.314 106.25 L 519.326 107.206 L 519.338 108.159 L 519.35 109.11 L 519.362 110.058 L 519.375 111.004 L 519.388 111.947 L 519.401 112.888 L 519.414 113.826 L 519.428 114.761 L 519.442 115.694 L 519.456 116.624 L 519.47 117.552 L 519.485 118.477 L 519.5 119.4 L 519.515 120.32 L 519.53 121.238 L 519.546 122.153 L 519.115 17.741 Z M 524.51 208.109 L 524.447 207.391 L 524.384 206.672 L 524.321 205.949 L 524.258 205.225 L 524.196 204.497 L 524.134 203.767 L 524.072 203.035 L 524.011 202.299 L 523.949 201.562 L 523.888 200.821 L 523.828 200.078 L 523.767 199.333 L 523.707 198.584 L 523.647 197.833 L 523.588 197.08 L 523.529 196.324 L 523.47 195.565 L 523.411 194.803 L 523.352 194.039 L 523.294 193.272 L 523.236 192.503 L 523.178 191.73 L 523.121 190.955 L 523.064 190.178 L 523.007 189.397 L 522.95 188.614 L 522.894 187.828 L 522.838 187.04 L 522.782 186.249 L 522.726 185.455 L 522.671 184.658 L 522.616 183.858 L 522.561 183.056 L 522.507 182.251 L 522.453 181.443 L 522.399 180.632 L 522.345 179.819 L 522.291 179.003 L 522.238 178.184 L 522.185 177.362 L 522.132 176.537 L 522.08 175.71 L 522.028 174.879 L 521.976 174.046 L 521.924 173.21 L 521.873 172.372 L 521.822 171.53 L 521.771 170.686 L 521.72 169.838 L 521.67 168.988 L 521.62 168.135 L 521.57 167.279 L 521.52 166.421 L 521.471 165.559 L 521.421 164.695 L 521.373 163.827 L 521.324 162.957 L 521.276 162.084 L 521.227 161.208 L 521.18 160.329 L 521.132 159.447 L 521.085 158.562 L 521.037 157.675 L 520.991 156.784 L 520.944 155.891 L 520.897 154.994 L 520.851 154.095 L 520.805 153.192 L 520.76 152.287 L 520.714 151.379 L 520.669 150.468 L 520.624 149.554 L 520.58 148.637 L 520.535 147.717 L 520.491 146.794 L 520.447 145.868 L 520.403 144.939 L 520.36 144.007 L 520.316 143.072 L 520.273 142.134 L 520.231 141.193 L 520.188 140.25 L 520.146 139.303 L 520.104 138.353 L 520.062 137.4 L 520.02 136.444 L 519.979 135.485 L 519.938 134.524 L 519.897 133.559 L 519.856 132.591 L 519.816 131.62 L 519.776 130.646 L 519.736 129.669 L 519.696 128.689 L 519.657 127.706 L 519.617 126.72 L 519.578 125.731 L 519.539 124.739 L 519.501 123.744 L 519.463 122.745 L 524.51 208.109 Z M 267.893 263.363 L 267.814 262.691 L 267.735 262.017 L 267.656 261.341 L 267.577 260.662 L 267.498 259.98 L 267.419 259.296 L 267.34 258.61 L 267.261 257.92 L 267.182 257.229 L 267.102 256.534 L 267.023 255.837 L 266.943 255.137 L 266.864 254.435 L 266.784 253.729 L 266.704 253.021 L 266.624 252.31 L 266.544 251.596 L 266.464 250.88 L 266.384 250.16 L 266.303 249.438 L 266.223 248.712 L 266.142 247.984 L 266.061 247.252 L 265.98 246.518 L 265.899 245.781 L 265.818 245.04 L 265.737 244.297 L 265.656 243.55 L 265.574 242.8 L 265.493 242.048 L 265.411 241.292 L 265.329 240.532 L 265.247 239.77 L 265.164 239.004 L 265.082 238.235 L 264.999 237.463 L 264.917 236.688 L 264.834 235.909 L 264.751 235.127 L 264.668 234.342 L 264.584 233.553 L 264.501 232.761 L 264.417 231.965 L 264.333 231.166 L 264.249 230.364 L 264.165 229.558 L 264.08 228.749 L 263.996 227.936 L 263.911 227.12 L 263.826 226.3 L 263.741 225.477 L 263.655 224.65 L 263.57 223.82 L 263.484 222.986 L 263.398 222.148 L 263.312 221.307 L 263.226 220.462 L 263.139 219.614 L 263.052 218.761 L 262.965 217.906 L 262.878 217.046 L 262.791 216.183 L 262.703 215.316 L 262.615 214.446 L 262.527 213.571 L 262.439 212.693 L 262.35 211.811 L 262.261 210.925 L 262.172 210.036 L 262.083 209.143 L 261.994 208.246 L 261.904 207.345 L 261.814 206.44 L 261.724 205.531 L 261.634 204.619 L 261.543 203.702 L 261.452 202.782 L 261.361 201.858 L 261.27 200.93 L 261.178 199.998 L 261.086 199.062 L 260.994 198.122 L 260.902 197.178 L 260.809 196.23 L 260.717 195.279 L 260.624 194.323 L 260.53 193.363 L 260.437 192.399 L 260.343 191.431 L 260.248 190.459 L 260.154 189.483 L 260.059 188.504 L 259.964 187.519 L 259.869 186.531 L 259.774 185.539 L 259.678 184.543 L 259.582 183.543 L 259.486 182.538 L 259.389 181.529 L 259.292 180.517 L 267.893 263.363 Z M 10.656 288.26 L 10.581 287.619 L 10.505 286.975 L 10.429 286.329 L 10.353 285.681 L 10.277 285.03 L 10.201 284.377 L 10.124 283.722 L 10.047 283.064 L 9.97 282.403 L 9.892 281.74 L 9.814 281.075 L 9.736 280.406 L 9.658 279.736 L 9.58 279.062 L 9.501 278.386 L 9.422 277.708 L 9.342 277.026 L 9.263 276.342 L 9.183 275.655 L 9.103 274.966 L 9.022 274.273 L 8.941 273.578 L 8.86 272.88 L 8.779 272.179 L 8.697 271.476 L 8.616 270.769 L 8.533 270.06 L 8.451 269.347 L 8.368 268.632 L 8.285 267.913 L 8.202 267.192 L 8.118 266.468 L 8.034 265.74 L 7.949 265.01 L 7.865 264.276 L 7.78 263.54 L 7.695 262.8 L 7.609 262.057 L 7.523 261.311 L 7.437 260.562 L 7.35 259.81 L 7.263 259.055 L 7.176 258.296 L 7.088 257.534 L 7.001 256.769 L 6.912 256.001 L 6.824 255.229 L 6.735 254.454 L 6.645 253.676 L 6.556 252.894 L 6.466 252.109 L 6.376 251.321 L 6.285 250.529 L 6.194 249.734 L 6.102 248.936 L 6.011 248.134 L 5.919 247.329 L 5.826 246.52 L 5.733 245.708 L 5.64 244.892 L 5.547 244.073 L 5.453 243.251 L 5.358 242.425 L 5.264 241.595 L 5.169 240.762 L 5.073 239.925 L 4.978 239.085 L 4.882 238.241 L 4.785 237.394 L 4.688 236.543 L 4.591 235.688 L 4.493 234.83 L 4.395 233.968 L 4.297 233.103 L 4.198 232.234 L 4.099 231.361 L 3.999 230.484 L 3.899 229.604 L 3.799 228.72 L 3.698 227.833 L 3.597 226.942 L 3.496 226.047 L 3.394 225.148 L 3.291 224.246 L 3.189 223.339 L 3.085 222.429 L 2.982 221.516 L 2.878 220.598 L 2.774 219.677 L 2.669 218.752 L 2.564 217.823 L 2.458 216.89 L 2.352 215.953 L 2.246 215.013 L 2.139 214.069 L 2.032 213.12 L 1.924 212.168 L 1.816 211.213 L 1.708 210.253 L 1.599 209.289 L 10.656 288.26 Z M 29.492 391.01 L 29.322 390.276 L 29.152 389.544 L 28.982 388.815 L 28.814 388.089 L 28.646 387.366 L 28.478 386.645 L 28.312 385.927 L 28.146 385.211 L 27.98 384.498 L 27.815 383.788 L 27.651 383.08 L 27.487 382.374 L 27.323 381.671 L 27.161 380.969 L 26.998 380.27 L 26.837 379.573 L 26.675 378.879 L 26.514 378.186 L 26.354 377.495 L 26.194 376.806 L 26.035 376.118 L 25.876 375.433 L 25.717 374.749 L 25.559 374.067 L 25.401 373.386 L 25.243 372.707 L 25.086 372.029 L 24.929 371.353 L 24.773 370.678 L 24.617 370.004 L 24.461 369.331 L 24.305 368.659 L 24.15 367.989 L 23.995 367.319 L 23.84 366.651 L 23.685 365.983 L 23.531 365.316 L 23.377 364.649 L 23.223 363.983 L 23.069 363.318 L 22.915 362.653 L 22.761 361.989 L 22.608 361.325 L 22.455 360.662 L 22.301 359.998 L 22.148 359.335 L 21.995 358.671 L 21.842 358.008 L 21.689 357.345 L 21.536 356.681 L 21.382 356.018 L 21.229 355.354 L 21.076 354.69 L 20.923 354.025 L 20.77 353.36 L 20.616 352.694 L 20.463 352.028 L 20.309 351.361 L 20.156 350.693 L 20.002 350.024 L 19.848 349.355 L 19.694 348.685 L 19.539 348.013 L 19.385 347.341 L 19.23 346.667 L 19.075 345.992 L 18.92 345.316 L 18.764 344.638 L 18.609 343.959 L 18.453 343.279 L 18.296 342.597 L 18.14 341.913 L 17.983 341.228 L 17.826 340.54 L 17.668 339.852 L 17.51 339.161 L 17.351 338.468 L 17.193 337.773 L 17.033 337.077 L 16.874 336.378 L 16.714 335.677 L 16.553 334.974 L 16.392 334.268 L 16.231 333.56 L 16.069 332.85 L 15.906 332.137 L 15.744 331.422 L 15.58 330.704 L 15.416 329.984 L 15.252 329.261 L 15.086 328.535 L 14.921 327.807 L 14.754 327.075 L 14.588 326.341 L 14.42 325.604 L 14.252 324.863 L 14.083 324.12 L 13.914 323.374 L 13.744 322.624 L 13.573 321.871 L 29.492 391.01 Z M 532.97 268.837 L 532.873 268.308 L 532.777 267.779 L 532.681 267.249 L 532.585 266.717 L 532.49 266.184 L 532.395 265.65 L 532.3 265.115 L 532.206 264.578 L 532.112 264.04 L 532.018 263.501 L 531.925 262.961 L 531.831 262.419 L 531.739 261.876 L 531.646 261.331 L 531.554 260.785 L 531.462 260.237 L 531.371 259.688 L 531.28 259.138 L 531.189 258.586 L 531.098 258.032 L 531.008 257.477 L 530.918 256.92 L 530.829 256.362 L 530.74 255.802 L 530.651 255.241 L 530.562 254.678 L 530.474 254.113 L 530.386 253.547 L 530.298 252.979 L 530.211 252.409 L 530.124 251.837 L 530.037 251.264 L 529.95 250.689 L 529.864 250.112 L 529.778 249.534 L 529.693 248.953 L 529.608 248.371 L 529.523 247.787 L 529.438 247.201 L 529.354 246.613 L 529.27 246.024 L 529.186 245.432 L 529.103 244.839 L 529.02 244.243 L 528.937 243.646 L 528.854 243.046 L 528.772 242.445 L 528.69 241.842 L 528.609 241.236 L 528.527 240.629 L 528.446 240.019 L 528.366 239.408 L 528.285 238.794 L 528.205 238.178 L 528.125 237.561 L 528.046 236.941 L 527.967 236.319 L 527.888 235.694 L 527.809 235.068 L 527.731 234.439 L 527.653 233.809 L 527.575 233.176 L 527.498 232.541 L 527.42 231.903 L 527.344 231.264 L 527.267 230.622 L 527.191 229.978 L 527.115 229.331 L 527.039 228.683 L 526.964 228.032 L 526.889 227.378 L 526.814 226.723 L 526.739 226.065 L 526.665 225.404 L 526.591 224.742 L 526.517 224.077 L 526.444 223.409 L 526.371 222.74 L 526.298 222.067 L 526.226 221.393 L 526.153 220.716 L 526.081 220.036 L 526.01 219.354 L 525.938 218.67 L 525.867 217.983 L 525.796 217.294 L 525.726 216.602 L 525.656 215.908 L 525.586 215.211 L 525.516 214.512 L 525.447 213.81 L 525.377 213.106 L 525.309 212.399 L 525.24 211.689 L 525.172 210.977 L 525.104 210.263 L 525.036 209.546 L 524.968 208.826 L 524.901 208.103 L 524.834 207.378 L 532.97 268.837 Z M 280.982 332.474 L 280.843 331.871 L 280.705 331.269 L 280.567 330.669 L 280.43 330.07 L 280.292 329.473 L 280.156 328.876 L 280.02 328.281 L 279.884 327.687 L 279.748 327.095 L 279.613 326.503 L 279.479 325.912 L 279.344 325.323 L 279.21 324.734 L 279.077 324.147 L 278.944 323.56 L 278.811 322.975 L 278.678 322.39 L 278.546 321.806 L 278.415 321.222 L 278.283 320.64 L 278.152 320.058 L 278.021 319.477 L 277.89 318.896 L 277.76 318.316 L 277.63 317.736 L 277.5 317.157 L 277.371 316.579 L 277.242 316 L 277.113 315.423 L 276.984 314.845 L 276.856 314.268 L 276.728 313.691 L 276.6 313.114 L 276.472 312.537 L 276.344 311.96 L 276.217 311.384 L 276.09 310.807 L 275.963 310.231 L 275.836 309.654 L 275.71 309.077 L 275.583 308.5 L 275.457 307.923 L 275.331 307.346 L 275.205 306.769 L 275.079 306.191 L 274.953 305.613 L 274.828 305.034 L 274.702 304.455 L 274.577 303.875 L 274.452 303.295 L 274.327 302.715 L 274.202 302.134 L 274.077 301.552 L 273.952 300.969 L 273.827 300.386 L 273.702 299.802 L 273.577 299.217 L 273.453 298.632 L 273.328 298.045 L 273.203 297.458 L 273.079 296.87 L 272.954 296.28 L 272.83 295.69 L 272.705 295.098 L 272.58 294.506 L 272.456 293.912 L 272.331 293.317 L 272.206 292.721 L 272.082 292.123 L 271.957 291.524 L 271.832 290.924 L 271.707 290.323 L 271.582 289.72 L 271.458 289.116 L 271.332 288.51 L 271.207 287.902 L 271.082 287.293 L 270.957 286.683 L 270.831 286.071 L 270.706 285.457 L 270.58 284.841 L 270.454 284.224 L 270.328 283.605 L 270.202 282.984 L 270.076 282.361 L 269.95 281.737 L 269.823 281.11 L 269.697 280.482 L 269.57 279.851 L 269.443 279.219 L 269.316 278.584 L 269.188 277.948 L 269.061 277.309 L 268.933 276.668 L 268.805 276.025 L 268.677 275.38 L 268.549 274.733 L 268.42 274.083 L 268.291 273.432 L 268.162 272.777 L 280.982 332.474 Z" id="blue" stroke="blue" style="stroke:blue" vector-effect="non-scaling-stroke"/><path d="M 797.294 0.728 L 795.605 0.682 L 794.342 0.649 L 793.502 0.627 L 792.246 0.596 L 790.994 0.565 L 790.16 0.545 L 788.914 0.515 L 787.671 0.487 L 786.845 0.468 L 785.608 0.441 L 784.375 0.415 L 783.555 0.398 L 782.328 0.373 L 781.105 0.349 L 780.291 0.333 L 779.074 0.31 L 777.86 0.288 L 776.65 0.267 L 775.845 0.254 L 774.64 0.234 L 773.439 0.215 L 772.242 0.197 L 771.445 0.185 L 770.254 0.169 L 769.066 0.153 L 767.881 0.138 L 766.699 0.123 L 765.914 0.114 L 764.738 0.101 L 763.565 0.089 L 762.396 0.078 L 761.231 0.067 L 760.068 0.057 L 759.295 0.051 L 758.138 0.043 L 756.985 0.035 L 755.835 0.028 L 754.688 0.022 L 753.544 0.016 L 752.403 0.012 L 751.266 0.008 L 750.509 0.006 L 749.377 0.003 L 748.248 0.001 L 747.122 0 L 746 0 L 744.88 0 L 743.764 0.002 L 742.65 0.004 L 741.54 0.006 L 740.433 0.01 L 739.329 0.014 L 738.227 0.019 L 737.129 0.025 L 736.034 0.031 L 734.942 0.038 L 733.853 0.046 L 732.766 0.055 L 731.683 0.064 L 730.603 0.074 L 729.525 0.085 L 728.45 0.096 L 727.378 0.109 L 725.954 0.126 L 724.889 0.14 L 723.826 0.154 L 722.767 0.17 L 721.71 0.186 L 720.656 0.202 L 719.605 0.22 L 718.556 0.238 L 717.162 0.263 L 716.12 0.283 L 715.08 0.303 L 714.044 0.324 L 713.009 0.346 L 711.635 0.376 L 710.606 0.4 L 709.581 0.424 L 708.558 0.448 L 707.538 0.474 L 706.181 0.509 L 705.167 0.536 L 704.155 0.563 L 703.146 0.592 L 701.804 0.63 L 700.8 0.66 L 699.799 0.691 L 698.468 0.733 L 697.472 0.765 L 696.479 0.797 L 695.159 0.842 L 694.171 0.876 L 693.186 0.911 L 691.876 0.959 L 690.896 0.995 L 689.919 1.032 L 688.619 1.082 L 687.646 1.121 L 686.676 1.16 L 685.387 1.213 L 684.422 1.253 L 683.139 1.308 L 682.179 1.35 L 680.902 1.407 L 679.948 1.45 L 678.995 1.494 L 677.728 1.554 L 676.78 1.599 L 675.52 1.66 L 674.577 1.707 L 673.323 1.77 L 672.384 1.818 L 671.136 1.883 L 670.203 1.933 L 668.961 2 L 668.032 2.051 L 666.796 2.119 L 665.563 2.189 L 664.641 2.242 L 663.414 2.313 L 662.496 2.367 L 661.275 2.44 L 660.361 2.496 L 659.146 2.571 L 657.933 2.647 L 657.026 2.704 L 655.819 2.782 L 654.615 2.86 L 653.714 2.92 L 652.515 3 L 651.618 3.06 L 650.425 3.142 L 649.234 3.225 L 648.343 3.288 L 647.157 3.372 L 645.973 3.457 L 644.793 3.544 L 643.909 3.609 L 642.734 3.697 L 641.56 3.785 L 640.682 3.852 L 639.514 3.943 L 638.347 4.034 L 637.184 4.126 L 636.313 4.195 L 635.153 4.289 L 633.996 4.383 L 632.841 4.478 L 631.976 4.55 L 630.826 4.647 L 629.677 4.745 L 628.531 4.843 L 627.386 4.942 L 626.53 5.017 L 625.389 5.118 L 624.25 5.219 L 623.114 5.322 L 621.979 5.425 L 620.847 5.529 L 619.998 5.607 L 618.869 5.712 L 617.741 5.818 L 616.615 5.925 L 615.491 6.032 L 614.369 6.141 L 613.528 6.222 L 612.409 6.332 L 611.291 6.442 L 610.175 6.553 L 609.06 6.665 L 607.947 6.778 L 606.835 6.891 L 605.724 7.005 L 604.615 7.12 L 603.784 7.206 L 602.678 7.322 L 601.572 7.439 L 600.468 7.556 L 599.365 7.674 L 598.263 7.793 L 597.162 7.912 L 596.062 8.032 L 594.963 8.152 L 593.866 8.274 L 592.769 8.396 L 591.673 8.518 L 590.578 8.642 L 589.484 8.765 L 588.664 8.859 L 587.571 8.984 L 586.479 9.109 L 585.387 9.235 L 584.297 9.362 L 583.206 9.489 L 582.117 9.617 L 581.028 9.746 L 579.939 9.875 L 578.851 10.005 L 577.764 10.135 L 576.676 10.266 L 575.589 10.397 L 574.503 10.529 L 573.416 10.661 L 572.33 10.794 L 571.244 10.927 L 570.158 11.061 L 569.072 11.196 L 568.258 11.297 L 567.172 11.432 L 566.087 11.568 L 565.001 11.704 L 563.915 11.841 L 562.829 11.978 L 561.743 12.116 L 560.657 12.254 L 559.57 12.392 L 558.483 12.531 L 557.396 12.671 L 556.309 12.811 L 555.221 12.951 L 554.132 13.092 L 553.044 13.233 L 551.954 13.374 L 551.137 13.481 L 550.046 13.623 L 548.955 13.766 L 547.864 13.909 L 546.771 14.052 L 545.678 14.196 L 544.584 14.34 L 543.489 14.485 L 542.394 14.629 L 541.297 14.775 L 540.474 14.884 L 539.376 15.03 L 538.277 15.176 L 537.176 15.322 L 536.075 15.469 L 534.973 15.616 L 533.869 15.763 L 533.04 15.874 L 531.934 16.022 L 530.827 16.17 L 529.719 16.318 L 528.609 16.467 L 527.498 16.616 L 526.663 16.728 L 525.55 16.877 L 524.434 17.027 L 523.317 17.177 L 522.199 17.327 L 521.359 17.44 L 520.238 17.59 L 519.115 17.741 L 517.99 17.892 L 516.863 18.043 L 516.017 18.157 L 514.888 18.308 L 513.756 18.46 L 512.622 18.612 L 511.771 18.726 L 510.634 18.878 L 509.495 19.03 L 508.639 19.145 L 507.496 19.297 L 506.351 19.45 L 505.491 19.565 L 504.342 19.718 L 503.191 19.871 L 502.326 19.986 L 501.171 20.139 L 500.014 20.292 L 499.144 20.407 L 497.983 20.561 L 496.818 20.715 L 495.944 20.83 L 494.775 20.984 L 493.604 21.138 L 492.724 21.253 L 491.548 21.407 L 490.664 21.523 L 489.484 21.677 L 488.596 21.792 L 487.411 21.946 L 486.223 22.101 L 485.33 22.216 L 484.136 22.37 L 483.239 22.486 L 482.041 22.64 L 481.14 22.756 L 479.936 22.91 L 479.031 23.026 L 477.822 23.18 L 476.913 23.296 L 475.699 23.45 L 474.785 23.566 L 473.565 23.72 L 472.647 23.835 L 471.728 23.951 L 470.499 24.105 L 469.576 24.22 L 468.341 24.374 L 467.413 24.49 L 466.172 24.643 L 465.239 24.759 L 464.304 24.874 L 463.055 25.027 L 462.115 25.142 L 461.174 25.258 L 459.915 25.411 L 458.968 25.526 L 458.02 25.641 L 456.752 25.794 L 455.798 25.908 L 454.842 26.023 L 453.564 26.175 L 452.604 26.29 L 451.64 26.404 L 450.675 26.518 L 449.384 26.67 L 448.414 26.784 L 447.441 26.898 L 446.466 27.012 L 445.162 27.164 L 444.181 27.277 L 443.198 27.391 L 442.213 27.504 L 441.225 27.617 L 439.904 27.768 L 438.91 27.881 L 437.915 27.994 L 436.916 28.106 L 435.915 28.219 L 434.912 28.331 L 433.57 28.481 L 432.561 28.593 L 431.549 28.705 L 430.535 28.817 L 429.518 28.929 L 428.498 29.04 L 427.476 29.152 L 426.451 29.263 L 425.423 29.374 L 424.393 29.485 L 423.36 29.596 L 422.325 29.706 L 421.286 29.817 L 420.245 29.927 L 419.202 30.037 L 418.155 30.147 L 417.106 30.257 L 416.054 30.366 L 414.999 30.475 L 413.941 30.585 L 412.88 30.694 L 411.817 30.802 L 410.75 30.911 L 409.681 31.019 L 408.609 31.127 L 407.534 31.235 L 406.455 31.343 L 405.374 31.451 L 404.29 31.558 L 403.203 31.665 L 402.113 31.772 L 401.02 31.879 L 400.29 31.95 L 399.192 32.056 L 398.09 32.162 L 396.986 32.268 L 395.878 32.374 L 394.768 32.479 L 394.026 32.55 L 392.91 32.655 L 391.791 32.759 L 390.669 32.864 L 389.543 32.968 L 388.791 33.038 L 387.661 33.141 L 386.527 33.245 L 385.39 33.348 L 384.249 33.452 L 383.487 33.52 L 382.341 33.623 L 381.192 33.725 L 380.039 33.827 L 379.269 33.895 L 378.11 33.997 L 376.949 34.098 L 376.172 34.166 L 375.005 34.267 L 373.834 34.367 L 373.052 34.434 L 371.876 34.535 L 370.696 34.634 L 369.907 34.701 L 368.722 34.8 L 367.532 34.899 L 366.738 34.965 L 365.542 35.064 L 364.344 35.162 L 363.543 35.228 L 362.338 35.325 L 361.533 35.39 L 360.322 35.488 L 359.108 35.585 L 358.297 35.649 L 357.076 35.745 L 356.261 35.81 L 355.034 35.905 L 354.215 35.969 L 352.982 36.065 L 351.746 36.16 L 350.92 36.223 L 349.677 36.317 L 348.847 36.38 L 347.598 36.474 L 346.763 36.536 L 345.508 36.63 L 344.669 36.692 L 343.408 36.784 L 342.565 36.846 L 341.297 36.938 L 340.45 36.999 L 339.175 37.091 L 338.324 37.152 L 337.043 37.243 L 336.187 37.303 L 335.329 37.363 L 334.039 37.453 L 333.177 37.513 L 331.88 37.603 L 331.014 37.662 L 329.71 37.751 L 328.839 37.81 L 327.966 37.869 L 326.654 37.957 L 325.776 38.015 L 324.897 38.074 L 323.575 38.161 L 322.691 38.219 L 321.363 38.305 L 320.474 38.362 L 319.584 38.42 L 318.246 38.505 L 317.351 38.562 L 316.454 38.619 L 315.106 38.703 L 314.205 38.759 L 313.302 38.815 L 311.944 38.899 L 311.036 38.954 L 310.127 39.01 L 308.759 39.092 L 307.844 39.147 L 306.928 39.202 L 306.01 39.256 L 304.629 39.338 L 303.706 39.392 L 302.782 39.446 L 301.855 39.499 L 300.461 39.579 L 299.529 39.632 L 298.596 39.685 L 297.66 39.738 L 296.254 39.817 L 295.313 39.869 L 294.371 39.921 L 293.427 39.973 L 292.006 40.051 L 291.057 40.102 L 290.106 40.153 L 289.153 40.204 L 288.198 40.255 L 286.761 40.331 L 285.801 40.381 L 284.839 40.431 L 283.874 40.481 L 282.908 40.531 L 281.94 40.58 L 280.484 40.654 L 279.51 40.703 L 278.535 40.752 L 277.557 40.8 L 276.578 40.848 L 275.596 40.897 L 274.613 40.944 L 273.133 41.016 L 272.144 41.063 L 271.154 41.11 L 270.161 41.157 L 269.166 41.204 L 268.169 41.25 L 267.169 41.297 L 266.168 41.343 L 265.165 41.389 L 264.159 41.434 L 262.647 41.502 L 261.636 41.547 L 260.623 41.592 L 259.608 41.637 L 258.591 41.681 L 257.571 41.725 L 256.55 41.769 L 255.526 41.813 L 254.5 41.856 L 253.472 41.9 L 252.442 41.943 L 251.41 41.985 L 250.375 42.028 L 249.339 42.07 L 248.3 42.112 L 247.259 42.154 L 246.216 42.196 L 245.17 42.237 L 244.122 42.279 L 243.073 42.32 L 242.021 42.36 L 240.966 42.401 L 239.91 42.441 L 238.851 42.481 L 237.79 42.521 L 236.727 42.56 L 235.662 42.599 L 234.594 42.638 L 233.524 42.677 L 232.452 42.716 L 231.377 42.754 L 230.301 42.792 L 229.222 42.83 L 228.141 42.868 L 227.057 42.905 L 225.971 42.942 L 225.428 42.96 L 224.338 42.997 L 223.247 43.034 L 222.153 43.07 L 221.057 43.106 L 219.959 43.141 L 218.858 43.177 L 217.755 43.212 L 216.649 43.247 L 215.542 43.282 L 214.987 43.299 L 213.876 43.333 L 212.762 43.367 L 211.646 43.401 L 210.528 43.435 L 209.408 43.468 L 208.285 43.501 L 207.159 43.534 L 206.596 43.55 L 205.467 43.582 L 204.336 43.615 L 203.202 43.646 L 202.066 43.678 L 200.928 43.709 L 199.787 43.74 L 199.216 43.756 L 198.071 43.787 L 196.924 43.817 L 195.775 43.847 L 194.624 43.877 L 194.047 43.892 L 192.892 43.921 L 191.734 43.95 L 190.574 43.979 L 189.411 44.008 L 188.829 44.022 L 187.663 44.051 L 186.494 44.079 L 185.323 44.106 L 184.15 44.134 L 183.562 44.147 L 182.385 44.174 L 181.205 44.201 L 180.023 44.228 L 178.838 44.254 L 178.245 44.267 L 177.057 44.292 L 175.866 44.318 L 174.673 44.343 L 174.075 44.356 L 172.878 44.38 L 171.678 44.405 L 170.476 44.429 L 169.874 44.441 L 168.668 44.465 L 167.46 44.489 L 166.855 44.5 L 165.642 44.523 L 164.428 44.546 L 163.21 44.569 L 162.601 44.58 L 161.38 44.602 L 160.156 44.624 L 159.543 44.635 L 158.316 44.656 L 157.086 44.677 L 155.853 44.698 L 155.236 44.708 L 153.999 44.728 L 152.76 44.749 L 152.14 44.758 L 150.897 44.778 L 149.651 44.797 L 149.027 44.807 L 147.778 44.826 L 146.526 44.845 L 145.899 44.854 L 144.643 44.872 L 143.385 44.89 L 142.754 44.899 L 141.492 44.916 L 140.227 44.933 L 139.593 44.941 L 138.324 44.958 L 137.052 44.974 L 136.416 44.983 L 135.14 44.998 L 133.862 45.014 L 133.221 45.022 L 131.939 45.037 L 131.297 45.044 L 130.011 45.059 L 128.722 45.073 L 128.076 45.08 L 126.783 45.094 L 125.488 45.108 L 124.839 45.115 L 123.539 45.128 L 122.888 45.134 L 121.585 45.147 L 120.278 45.159 L 119.624 45.165 L 118.313 45.177 L 117.657 45.183 L 116.343 45.195 L 115.025 45.206 L 114.366 45.211 L 113.044 45.222 L 112.383 45.227 L 111.057 45.237 L 109.729 45.247 L 109.064 45.252 L 107.732 45.261 L 107.064 45.266 L 105.728 45.275 L 105.059 45.279 L 103.718 45.288 L 103.047 45.292 L 101.702 45.3 L 100.355 45.307 L 99.68 45.311 L 98.328 45.318 L 97.652 45.322 L 96.296 45.328 L 95.617 45.332 L 94.257 45.338 L 93.576 45.341 L 92.212 45.346 L 91.528 45.349 L 90.16 45.354 L 88.789 45.359 L 88.102 45.362 L 86.727 45.366 L 86.038 45.368 L 84.658 45.372 L 83.968 45.374 L 82.584 45.377 L 81.891 45.379 L 80.502 45.382 L 79.807 45.383 L 78.415 45.385 L 77.718 45.386 L 76.321 45.388 L 75.622 45.389 L 74.221 45.391 L 73.519 45.391 L 72.114 45.392 L 71.41 45.392 L 70 45.393 L 69.295 45.393 L 67.881 45.393 L 67.173 45.393 L 65.754 45.392 L 65.044 45.392 L 64.333 45.391 L 62.909 45.39 L 62.196 45.389 L 60.768 45.387 L 60.052 45.386 L 58.62 45.384 L 57.902 45.383 L 56.465 45.38 L 55.746 45.378 L 54.304 45.375 L 53.582 45.373 L 52.136 45.369 L 51.412 45.367 L 50.687 45.365 L 49.236 45.36 L 48.509 45.358 L 47.053 45.353 L 46.323 45.35 L 44.863 45.345 L 44.131 45.342 L 43.399 45.339 L 41.933 45.332 L 41.198 45.329 L 39.727 45.322 L 38.991 45.319 L 37.515 45.311 L 36.776 45.308 L 36.037 45.304 L 34.555 45.296 L 33.813 45.291 L 32.327 45.283 L 31.583 45.278 L 30.838 45.274 L 29.347 45.265 L 28.599 45.26 L 27.103 45.25 L 26.354 45.245 L 25.604 45.24 L 24.101 45.229 L 23.349 45.224 L 21.842 45.213 L 21.087 45.207 L 20.332 45.201 L 18.818 45.19 L 18.061 45.183 L 16.543 45.171 L 15.783 45.165 L 15.022 45.158 L 13.499 45.145 L 12.736 45.139 L 11.972 45.132 L 10.442 45.118 L 9.676 45.111 L 8.141 45.097 L 7.373 45.089 L 6.604 45.082 L 5.063 45.067 L 4.292 45.059 L 3.519 45.051 L 1.973 45.036 L 1.198 45.028 L 0 162.845 L 0.775 162.884 L 2.322 162.926 L 3.094 162.964 L 3.866 163.001 L 5.408 163.043 L 6.178 163.08 L 6.947 163.117 L 8.483 163.158 L 9.25 163.195 L 10.783 163.234 L 11.548 163.271 L 12.313 163.307 L 13.84 163.346 L 14.602 163.381 L 15.364 163.417 L 16.886 163.455 L 17.65 163.49 L 18.918 163.525 L 19.922 163.562 L 20.679 163.597 L 22.192 163.633 L 22.951 163.668 L 24.211 163.701 L 25.209 163.737 L 25.966 163.771 L 27.221 163.803 L 28.22 163.839 L 29.471 163.871 L 30.465 163.906 L 31.217 163.939 L 32.463 163.969 L 33.458 164.004 L 34.7 164.034 L 35.688 164.069 L 36.436 164.101 L 37.673 164.13 L 38.663 164.164 L 39.903 164.192 L 40.642 164.223 L 42.12 164.253 L 42.852 164.284 L 43.837 164.317 L 45.068 164.344 L 45.803 164.374 L 47.272 164.402 L 48.006 164.432 L 49.471 164.46 L 50.202 164.489 L 50.933 164.518 L 52.393 164.545 L 53.122 164.574 L 54.578 164.6 L 55.305 164.628 L 56.758 164.654 L 57.488 164.681 L 58.688 164.704 L 59.66 164.734 L 60.857 164.756 L 61.826 164.785 L 63.027 164.806 L 63.739 164.833 L 64.705 164.861 L 65.894 164.882 L 66.858 164.91 L 68.043 164.93 L 69.005 164.958 L 70.195 164.977 L 70.908 165.002 L 72.333 165.023 L 73.044 165.047 L 74.466 165.067 L 75.175 165.092 L 76.593 165.111 L 77.306 165.135 L 78.472 165.151 L 79.426 165.177 L 80.589 165.193 L 81.54 165.218 L 82.699 165.233 L 83.649 165.258 L 84.813 165.272 L 85.514 165.294 L 86.913 165.31 L 87.612 165.332 L 89.014 165.347 L 90.159 165.36 L 91.102 165.383 L 92.244 165.395 L 93.185 165.418 L 94.324 165.43 L 95.263 165.451 L 96.408 165.463 L 97.098 165.482 L 98.477 165.494 L 99.165 165.514 L 100.548 165.525 L 101.672 165.534 L 102.606 165.555 L 103.727 165.563 L 104.659 165.583 L 105.777 165.591 L 106.706 165.61 L 107.821 165.618 L 108.748 165.636 L 109.87 165.643 L 111.226 165.651 L 111.911 165.668 L 113.015 165.673 L 113.939 165.691 L 115.052 165.696 L 116.399 165.702 L 117.071 165.717 L 118.415 165.723 L 119.085 165.738 L 120.434 165.742 L 121.522 165.745 L 122.439 165.761 L 123.524 165.763 L 124.439 165.778 L 125.534 165.78 L 126.862 165.782 L 127.526 165.795 L 128.859 165.797 L 129.933 165.797 L 130.842 165.811 L 131.912 165.81 L 132.82 165.823 L 133.9 165.822 L 135.214 165.821 L 135.87 165.832 L 137.189 165.831 L 138.247 165.828 L 139.15 165.84 L 140.22 165.837 L 141.521 165.834 L 142.172 165.844 L 143.481 165.84 L 144.527 165.835 L 145.424 165.845 L 146.483 165.84 L 147.759 165.834 L 148.652 165.844 L 149.706 165.837 L 150.991 165.831 L 151.633 165.838 L 152.926 165.831 L 153.955 165.823 L 154.844 165.831 L 155.887 165.822 L 157.173 165.814 L 158.194 165.804 L 159.08 165.811 L 160.115 165.8 L 161.381 165.79 L 162.014 165.795 L 163.277 165.784 L 164.55 165.773 L 165.557 165.761 L 166.437 165.765 L 167.46 165.753 L 168.713 165.74 L 169.339 165.743 L 170.602 165.73 L 171.617 165.715 L 172.844 165.701 L 173.717 165.703 L 174.727 165.688 L 175.981 165.672 L 176.967 165.656 L 177.837 165.658 L 178.84 165.641 L 180.073 165.623 L 181.318 165.606 L 182.293 165.587 L 183.16 165.588 L 184.153 165.569 L 185.391 165.55 L 186.38 165.53 L 187.578 165.51 L 188.44 165.508 L 189.424 165.487 L 190.653 165.466 L 191.633 165.445 L 192.821 165.422 L 193.678 165.419 L 194.654 165.397 L 195.874 165.373 L 196.845 165.35 L 198.045 165.325 L 198.645 165.321 L 199.842 165.296 L 201.053 165.271 L 202.015 165.246 L 203.206 165.219 L 204.412 165.192 L 205.343 165.165 L 206.191 165.159 L 207.145 165.132 L 208.326 165.103 L 209.523 165.074 L 210.47 165.046 L 211.664 165.016 L 212.607 164.986 L 213.752 164.955 L 214.594 164.946 L 215.533 164.916 L 216.699 164.884 L 217.882 164.851 L 218.815 164.82 L 219.994 164.786 L 220.923 164.754 L 222.079 164.72 L 223.254 164.685 L 224.147 164.651 L 224.962 164.638 L 226.132 164.602 L 227.049 164.568 L 228.195 164.531 L 229.359 164.493 L 230.271 164.457 L 231.411 164.419 L 232.569 164.38 L 233.476 164.343 L 234.61 164.303 L 235.763 164.263 L 236.663 164.225 L 237.792 164.184 L 238.94 164.142 L 239.834 164.102 L 240.957 164.06 L 242.1 164.017 L 242.989 163.976 L 244.105 163.932 L 245.243 163.888 L 246.127 163.845 L 247.238 163.8 L 248.37 163.754 L 249.248 163.711 L 250.353 163.664 L 251.481 163.617 L 252.353 163.572 L 253.452 163.524 L 254.575 163.476 L 255.441 163.429 L 256.535 163.38 L 257.653 163.33 L 258.514 163.283 L 259.602 163.232 L 260.689 163.18 L 261.81 163.128 L 262.99 163.052 L 264.071 162.999 L 265.176 162.946 L 266.023 162.895 L 267.098 162.841 L 268.171 162.786 L 269.269 162.731 L 270.109 162.679 L 271.176 162.622 L 272.281 162.566 L 273.435 162.484 L 274.496 162.426 L 275.555 162.368 L 276.642 162.309 L 277.468 162.253 L 278.522 162.194 L 279.593 162.133 L 280.98 162.043 L 281.798 161.986 L 282.844 161.924 L 283.888 161.862 L 284.961 161.799 L 285.793 161.74 L 287.132 161.646 L 288.168 161.582 L 289.235 161.517 L 290.038 161.456 L 291.09 161.39 L 292.415 161.294 L 293.475 161.227 L 294.27 161.164 L 295.316 161.096 L 296.629 160.996 L 297.648 160.927 L 298.7 160.858 L 299.508 160.793 L 300.811 160.691 L 301.822 160.619 L 302.832 160.547 L 303.889 160.475 L 304.96 160.376 L 305.964 160.303 L 306.966 160.229 L 308.017 160.154 L 309.077 160.053 L 310.073 159.977 L 311.092 159.901 L 312.364 159.792 L 313.355 159.715 L 314.397 159.637 L 315.44 159.532 L 316.424 159.453 L 317.433 159.374 L 318.688 159.26 L 319.706 159.18 L 320.48 159.105 L 321.726 158.99 L 322.726 158.908 L 323.967 158.791 L 324.936 158.708 L 325.962 158.624 L 326.974 158.512 L 327.938 158.427 L 328.928 158.342 L 330.152 158.221 L 331.138 158.134 L 332.357 158.012 L 333.372 157.924 L 334.365 157.808 L 335.315 157.719 L 336.293 157.629 L 337.498 157.504 L 338.472 157.413 L 339.671 157.286 L 340.676 157.194 L 341.65 157.074 L 342.617 156.981 L 343.805 156.851 L 344.769 156.756 L 345.951 156.625 L 346.912 156.53 L 348.089 156.397 L 349.045 156.3 L 350.265 156.166 L 350.988 156.077 L 352.185 155.941 L 353.348 155.805 L 354.297 155.705 L 355.454 155.568 L 356.399 155.466 L 357.551 155.327 L 358.493 155.225 L 359.672 155.084 L 360.816 154.943 L 361.792 154.839 L 362.71 154.706 L 363.644 154.6 L 364.811 154.456 L 365.941 154.311 L 366.869 154.204 L 368.029 154.057 L 369.15 153.91 L 370.074 153.801 L 371.225 153.652 L 372.338 153.503 L 373.257 153.391 L 374.401 153.24 L 375.506 153.089 L 376.419 152.975 L 377.556 152.822 L 378.653 152.668 L 379.561 152.552 L 380.691 152.397 L 381.817 152.241 L 382.903 152.084 L 383.805 151.965 L 384.924 151.807 L 386.086 151.648 L 386.981 151.499 L 388.053 151.338 L 388.947 151.217 L 390.054 151.054 L 391.159 150.891 L 392.261 150.727 L 393.269 150.562 L 394.377 150.425 L 395.471 150.258 L 396.563 150.091 L 397.652 149.923 L 398.739 149.754 L 399.781 149.584 L 400.658 149.455 L 401.738 149.284 L 402.815 149.112 L 403.89 148.939 L 404.962 148.765 L 406.032 148.59 L 407.1 148.415 L 408.165 148.239 L 409.228 148.062 L 410.288 147.884 L 411.346 147.705 L 412.401 147.525 L 413.454 147.345 L 414.505 147.164 L 415.553 146.982 L 416.554 146.799 L 417.807 146.6 L 418.848 146.416 L 419.887 146.23 L 420.923 146.044 L 421.957 145.857 L 422.989 145.669 L 424.018 145.48 L 425.046 145.29 L 426.071 145.099 L 427.046 144.908 L 428.275 144.7 L 429.293 144.506 L 430.309 144.312 L 431.322 144.117 L 432.334 143.921 L 433.371 143.725 L 434.579 143.483 L 435.534 143.284 L 436.744 143.068 L 437.744 142.868 L 438.741 142.667 L 439.766 142.464 L 440.956 142.217 L 441.947 142.013 L 442.885 141.808 L 444.079 141.585 L 445.092 141.378 L 446.268 141.125 L 447.248 140.917 L 448.175 140.707 L 449.386 140.479 L 450.551 140.222 L 451.522 140.01 L 452.491 139.796 L 453.445 139.582 L 454.795 139.303 L 455.758 139.087 L 456.749 138.869 L 457.895 138.605 L 458.798 138.387 L 459.987 138.147 L 461.125 137.88 L 462.075 137.658 L 463.01 137.436 L 464.334 137.146 L 465.278 136.921 L 466.251 136.695 L 467.32 136.421 L 468.491 136.173 L 469.609 135.898 L 470.574 135.668 L 471.632 135.39 L 472.763 135.138 L 473.722 134.904 L 474.827 134.623 L 475.738 134.388 L 477.029 134.084 L 477.981 133.847 L 479.021 133.562 L 480.169 133.301 L 481.26 133.013 L 482.158 132.772 L 483.433 132.46 L 484.374 132.216 L 485.4 131.925 L 486.535 131.656 L 487.644 131.362 L 488.663 131.066 L 489.792 130.795 L 490.862 130.497 L 491.744 130.246 L 492.996 129.922 L 493.921 129.669 L 494.969 129.366 L 496.214 129.039 L 497.133 128.782 L 498.175 128.475 L 499.413 128.144 L 500.281 127.884 L 501.546 127.55 L 502.594 127.239 L 503.457 126.975 L 504.715 126.636 L 505.702 126.322 L 506.796 126.029 L 507.821 125.712 L 509.038 125.368 L 509.937 125.097 L 510.957 124.776 L 512.167 124.428 L 513.015 124.153 L 514.253 123.802 L 515.266 123.475 L 516.468 123.122 L 517.31 122.842 L 518.539 122.484 L 519.546 122.153 L 520.77 121.792 L 521.733 121.458 L 522.796 121.144 L 523.797 120.807 L 525.013 120.44 L 526.011 120.1 L 527.192 119.731 L 528.021 119.437 L 529.228 119.064 L 530.221 118.718 L 531.425 118.342 L 532.415 117.992 L 533.585 117.613 L 534.407 117.31 L 535.56 116.928 L 536.754 116.544 L 537.739 116.186 L 538.929 115.798 L 539.912 115.438 L 541.07 115.046 L 541.884 114.732 L 543.026 114.337 L 544.207 113.94 L 545.185 113.571 L 546.322 113.17 L 547.498 112.767 L 548.474 112.392 L 549.646 111.985 L 550.621 111.607 L 551.715 111.197 L 552.722 110.833 L 553.695 110.448 L 554.821 110.031 L 555.984 109.611 L 556.955 109.221 L 558.077 108.797 L 559.198 108.371 L 560.354 107.941 L 561.324 107.542 L 562.441 107.108 L 563.593 106.672 L 564.562 106.264 L 565.676 105.823 L 566.789 105.379 L 567.935 104.932 L 568.873 104.515 L 569.817 104.111 L 570.926 103.656 L 572.034 103.197 L 573.174 102.735 L 574.142 102.302 L 575.248 101.834 L 576.353 101.362 L 577.457 100.886 L 578.59 100.406 L 579.559 99.956 L 580.661 99.469 L 581.763 98.978 L 582.864 98.483 L 583.964 97.983 L 585.063 97.478 L 586.162 96.969 L 587.287 96.454 L 588.26 95.968 L 589.333 95.443 L 590.252 94.961 L 591.349 94.424 L 592.445 93.88 L 593.541 93.33 L 594.633 92.772 L 594.639 92.771 L 593.546 93.329 L 592.448 93.88 L 591.349 94.424 L 590.25 94.962 L 589.145 95.457 L 588.257 95.976 L 587.548 96.447 L 586.15 96.973 L 585.049 97.485 L 583.947 97.991 L 582.846 98.494 L 581.743 98.992 L 580.64 99.486 L 579.536 99.976 L 578.848 100.412 L 577.425 100.906 L 576.32 101.386 L 575.214 101.862 L 574.107 102.336 L 573.43 102.754 L 571.992 103.233 L 570.883 103.698 L 569.772 104.159 L 568.621 104.582 L 568.196 104.977 L 566.741 105.443 L 565.627 105.894 L 564.512 106.343 L 563.854 106.737 L 562.385 107.195 L 561.267 107.637 L 560.614 108.023 L 559.136 108.475 L 558.015 108.911 L 556.892 109.345 L 556.246 109.723 L 554.753 110.168 L 553.628 110.596 L 552.985 110.968 L 551.418 111.374 L 550.552 111.785 L 549.913 112.151 L 548.4 112.587 L 547.764 112.949 L 546.244 113.382 L 545.108 113.797 L 544.474 114.155 L 542.945 114.584 L 541.804 114.994 L 541.091 115.313 L 539.833 115.725 L 539.204 116.075 L 537.657 116.498 L 537.029 116.844 L 535.476 117.265 L 534.324 117.665 L 533.606 117.974 L 532.334 118.378 L 531.708 118.718 L 530.138 119.133 L 529.512 119.469 L 527.935 119.883 L 527.213 120.184 L 525.928 120.581 L 525.303 120.913 L 523.713 121.322 L 523.087 121.651 L 521.398 122.028 L 521.066 122.339 L 519.463 122.745 L 518.836 123.069 L 517.226 123.474 L 516.494 123.765 L 515.186 124.152 L 514.558 124.472 L 512.935 124.873 L 512.199 125.16 L 510.881 125.543 L 510.251 125.859 L 509.072 126.166 L 507.747 126.547 L 507.115 126.859 L 505.37 127.226 L 505.039 127.519 L 503.388 127.914 L 502.639 128.192 L 501.875 128.507 L 500.215 128.9 L 499.462 129.176 L 498.115 129.55 L 497.473 129.854 L 496.267 130.152 L 494.912 130.524 L 494.266 130.825 L 493.054 131.122 L 491.692 131.492 L 490.926 131.762 L 490.146 132.067 L 488.351 132.425 L 488.005 132.702 L 486.894 133.024 L 485.092 133.381 L 484.74 133.655 L 483.509 133.947 L 482.123 134.311 L 481.343 134.574 L 480.544 134.873 L 478.726 135.227 L 478.363 135.497 L 477.12 135.785 L 475.718 136.145 L 474.926 136.405 L 474.115 136.699 L 472.864 136.985 L 471.355 137.317 L 470.977 137.581 L 469.72 137.865 L 468.897 138.157 L 467.053 138.507 L 466.664 138.768 L 465.399 139.051 L 464.459 139.312 L 463.024 139.667 L 462.208 139.919 L 461.261 140.179 L 460.418 140.466 L 458.557 140.812 L 458.042 141.041 L 457.191 141.326 L 455.908 141.605 L 454.949 141.863 L 453.49 142.212 L 452.654 142.46 L 451.688 142.716 L 450.721 142.971 L 449.85 143.252 L 447.971 143.595 L 447.43 143.819 L 446.454 144.072 L 445.571 144.352 L 444.268 144.626 L 442.702 144.945 L 442.148 145.166 L 441.161 145.418 L 440.263 145.695 L 438.951 145.967 L 437.957 146.217 L 436.961 146.467 L 435.381 146.784 L 434.807 147.001 L 433.89 147.276 L 432.568 147.546 L 431.56 147.794 L 430.551 148.041 L 429.539 148.288 L 428.525 148.535 L 426.929 148.848 L 426.332 149.062 L 425.311 149.308 L 424.288 149.553 L 423.263 149.797 L 422.235 150.041 L 421.205 150.285 L 420.173 150.529 L 419.138 150.772 L 418.101 151.015 L 416.487 151.325 L 415.859 151.535 L 414.815 151.777 L 413.769 152.018 L 412.72 152.26 L 411.669 152.5 L 410.615 152.741 L 409.559 152.981 L 408.501 153.221 L 407.44 153.461 L 406.377 153.7 L 405.311 153.939 L 404.243 154.178 L 403.173 154.416 L 402.1 154.654 L 401.024 154.892 L 399.796 155.113 L 399.116 155.317 L 398.034 155.554 L 396.949 155.791 L 395.861 156.027 L 394.771 156.263 L 393.019 156.546 L 392.668 156.72 L 391.571 156.955 L 390.471 157.19 L 389.369 157.424 L 388.13 157.641 L 387.413 157.843 L 387.15 157.991 L 385.36 158.276 L 384.246 158.51 L 383.006 158.726 L 382.269 158.926 L 381.147 159.159 L 380.022 159.391 L 378.779 159.605 L 378.027 159.805 L 376.895 160.037 L 375.649 160.25 L 374.888 160.449 L 373.748 160.68 L 372.499 160.893 L 371.727 161.091 L 370.58 161.321 L 369.329 161.533 L 368.546 161.731 L 367.391 161.96 L 366.137 162.171 L 365.344 162.368 L 364.181 162.597 L 362.925 162.807 L 362.924 162.919 L 361.04 163.18 L 360.227 163.376 L 359.052 163.604 L 357.793 163.812 L 356.969 164.009 L 355.708 164.216 L 354.877 164.412 L 353.614 164.619 L 352.776 164.815 L 351.583 165.041 L 351.098 165.162 L 349.648 165.409 L 348.384 165.615 L 347.525 165.81 L 346.259 166.015 L 345.393 166.21 L 344.125 166.414 L 343.252 166.609 L 341.981 166.813 L 341.866 166.924 L 340.013 167.178 L 339.124 167.371 L 337.852 167.575 L 336.955 167.768 L 335.682 167.971 L 334.737 168.143 L 334.583 168.254 L 332.74 168.505 L 331.824 168.698 L 330.547 168.899 L 329.624 169.092 L 328.346 169.293 L 327.387 169.464 L 327.193 169.575 L 325.36 169.824 L 324.396 169.994 L 323.451 170.186 L 322.168 170.385 L 321.216 170.578 L 320.656 170.694 L 319.147 170.913 L 318.182 171.105 L 316.896 171.303 L 315.916 171.471 L 315.657 171.584 L 313.843 171.828 L 312.857 171.996 L 311.87 172.188 L 310.579 172.384 L 309.588 172.552 L 309.295 172.665 L 307.489 172.907 L 306.492 173.074 L 305.493 173.241 L 305.176 173.354 L 303.377 173.595 L 302.373 173.761 L 301.367 173.928 L 300.338 174.119 L 299.727 174.234 L 298.222 174.446 L 297.208 174.612 L 296.164 174.803 L 294.862 174.995 L 294.523 175.083 L 293.017 175.294 L 291.957 175.485 L 290.652 175.676 L 290.297 175.764 L 288.793 175.974 L 287.762 176.138 L 286.683 176.329 L 286.037 176.443 L 284.536 176.652 L 283.497 176.815 L 282.456 176.979 L 282.073 177.067 L 280.509 177.301 L 279.198 177.491 L 278.149 177.654 L 277.749 177.741 L 276.246 177.948 L 275.192 178.11 L 274.136 178.273 L 273.649 178.39 L 271.891 178.62 L 270.828 178.782 L 270.401 178.87 L 268.9 179.074 L 267.833 179.236 L 266.763 179.398 L 266.324 179.486 L 264.821 179.689 L 263.746 179.85 L 263.2 179.969 L 261.457 180.195 L 260.375 180.356 L 259.292 180.517 L 258.824 180.605 L 257.324 180.807 L 256.235 180.967 L 255.757 181.056 L 254.256 181.257 L 253.162 181.417 L 252.673 181.505 L 251.173 181.705 L 250.072 181.865 L 249.573 181.954 L 248.072 182.153 L 246.966 182.312 L 246.456 182.401 L 244.956 182.6 L 243.844 182.759 L 243.323 182.848 L 241.822 183.046 L 240.705 183.204 L 240.173 183.294 L 238.673 183.491 L 237.549 183.649 L 237.006 183.739 L 235.506 183.935 L 234.377 184.093 L 233.822 184.183 L 232.322 184.378 L 231.188 184.536 L 230.621 184.626 L 229.122 184.82 L 227.981 184.978 L 227.403 185.068 L 225.904 185.262 L 224.811 185.396 L 224.538 185.455 L 223.033 185.648 L 221.882 185.804 L 221.288 185.895 L 219.784 186.087 L 219.179 186.178 L 217.679 186.37 L 216.517 186.526 L 215.9 186.618 L 214.478 186.784 L 213.603 186.909 L 212.983 187.001 L 211.477 187.191 L 210.845 187.283 L 209.343 187.473 L 208.166 187.628 L 207.522 187.72 L 206.115 187.883 L 205.749 187.946 L 204.244 188.134 L 203.058 188.289 L 202.399 188.382 L 200.895 188.57 L 199.703 188.725 L 199.104 188.794 L 197.91 188.948 L 197.235 189.041 L 195.729 189.228 L 195.042 189.321 L 193.661 189.479 L 192.72 189.605 L 192.029 189.698 L 190.521 189.884 L 189.818 189.978 L 188.445 190.134 L 187.488 190.26 L 186.781 190.354 L 185.271 190.538 L 184.552 190.632 L 183.187 190.787 L 182.717 190.854 L 181.207 191.037 L 179.979 191.191 L 179.243 191.285 L 177.887 191.438 L 177.394 191.506 L 175.882 191.688 L 175.132 191.783 L 173.786 191.934 L 172.783 192.061 L 172.028 192.156 L 170.515 192.338 L 169.889 192.404 L 168.642 192.557 L 167.871 192.652 L 166.533 192.8 L 165.99 192.871 L 164.475 193.051 L 163.217 193.204 L 162.584 193.269 L 161.324 193.422 L 160.533 193.517 L 159.202 193.664 L 158.632 193.735 L 157.112 193.914 L 156.305 194.011 L 154.987 194.155 L 154.392 194.228 L 152.874 194.406 L 152.232 194.471 L 150.953 194.622 L 150.126 194.719 L 148.818 194.862 L 147.741 194.99 L 146.909 195.087 L 145.598 195.229 L 144.971 195.303 L 143.445 195.48 L 142.794 195.544 L 141.498 195.695 L 140.646 195.793 L 139.347 195.932 L 138.692 196.008 L 137.164 196.183 L 136.508 196.247 L 135.2 196.398 L 134.328 196.496 L 133.04 196.633 L 132.356 196.71 L 131.066 196.847 L 130.379 196.925 L 128.846 197.098 L 128.183 197.161 L 126.861 197.312 L 125.964 197.411 L 124.687 197.545 L 123.969 197.624 L 122.691 197.758 L 121.969 197.837 L 120.433 198.01 L 119.762 198.072 L 118.424 198.222 L 117.752 198.285 L 116.41 198.435 L 115.485 198.535 L 114.218 198.666 L 113.462 198.747 L 112.594 198.83 L 111.244 198.98 L 110.299 199.08 L 109.047 199.21 L 108.262 199.292 L 107.009 199.421 L 106.219 199.504 L 104.966 199.632 L 104.171 199.715 L 102.916 199.843 L 102.118 199.926 L 100.57 200.095 L 99.881 200.156 L 98.508 200.305 L 97.818 200.367 L 96.838 200.468 L 95.598 200.594 L 94.764 200.679 L 93.524 200.804 L 92.686 200.889 L 91.444 201.013 L 90.602 201.099 L 89.047 201.266 L 88.348 201.326 L 86.954 201.475 L 86.253 201.536 L 85.24 201.638 L 84.014 201.76 L 83.136 201.847 L 81.91 201.969 L 81.026 202.057 L 79.799 202.178 L 78.91 202.265 L 78.053 202.342 L 76.641 202.491 L 75.931 202.551 L 74.515 202.699 L 73.803 202.759 L 72.383 202.907 L 71.67 202.967 L 70.616 203.071 L 69.406 203.189 L 68.473 203.279 L 67.262 203.396 L 66.324 203.486 L 65.113 203.604 L 64.517 203.649 L 63.448 203.753 L 62.237 203.87 L 61.286 203.96 L 60.074 204.077 L 59.118 204.168 L 58.262 204.241 L 56.814 204.389 L 56.087 204.448 L 54.636 204.596 L 53.906 204.654 L 52.452 204.802 L 51.72 204.861 L 50.989 204.919 L 49.529 205.067 L 48.795 205.125 L 47.332 205.273 L 46.596 205.331 L 45.478 205.437 L 44.286 205.549 L 43.653 205.595 L 42.18 205.743 L 41.44 205.801 L 40.31 205.907 L 39.119 206.018 L 38.086 206.112 L 37.233 206.183 L 36.151 206.28 L 35.111 206.375 L 33.92 206.485 L 32.873 206.581 L 32.019 206.65 L 30.934 206.747 L 29.879 206.843 L 28.689 206.952 L 27.628 207.048 L 26.772 207.117 L 25.686 207.213 L 24.615 207.31 L 23.759 207.378 L 22.251 207.525 L 21.493 207.582 L 20.405 207.678 L 19.319 207.775 L 18.462 207.843 L 16.944 207.99 L 16.182 208.047 L 15.419 208.104 L 13.897 208.251 L 13.132 208.307 L 12.366 208.364 L 10.839 208.511 L 10.071 208.567 L 8.539 208.714 L 7.769 208.771 L 6.999 208.827 L 5.462 208.974 L 4.689 209.03 L 3.917 209.086 L 2.374 209.233 L 1.599 209.289 L 10.656 288.26 L 11.431 288.218 L 12.974 288.084 L 13.747 288.042 L 14.52 287.999 L 16.058 287.865 L 16.829 287.823 L 17.6 287.78 L 19.133 287.646 L 19.902 287.603 L 21.432 287.47 L 22.199 287.427 L 22.966 287.384 L 24.492 287.25 L 25.256 287.207 L 26.021 287.163 L 27.542 287.03 L 28.304 286.986 L 29.345 286.909 L 30.583 286.809 L 31.343 286.766 L 32.856 286.632 L 33.615 286.588 L 34.648 286.511 L 35.882 286.411 L 36.638 286.367 L 37.668 286.289 L 38.898 286.189 L 39.925 286.111 L 41.153 286.011 L 41.905 285.967 L 42.928 285.889 L 44.154 285.789 L 45.174 285.711 L 46.397 285.61 L 47.145 285.566 L 48.162 285.488 L 49.382 285.387 L 50.395 285.309 L 51.141 285.264 L 52.624 285.13 L 53.368 285.085 L 54.583 284.985 L 55.59 284.906 L 56.331 284.861 L 57.807 284.727 L 58.547 284.682 L 60.02 284.548 L 60.758 284.502 L 61.495 284.457 L 62.963 284.322 L 63.699 284.277 L 65.164 284.143 L 65.899 284.097 L 67.36 283.962 L 68.093 283.917 L 69.082 283.838 L 70.282 283.736 L 71.269 283.657 L 72.467 283.556 L 73.451 283.476 L 74.179 283.43 L 75.374 283.328 L 76.354 283.249 L 77.547 283.147 L 78.525 283.068 L 79.715 282.966 L 80.69 282.886 L 81.413 282.84 L 82.851 282.705 L 83.572 282.658 L 85.007 282.523 L 85.726 282.476 L 87.158 282.341 L 87.876 282.294 L 88.841 282.214 L 90.021 282.111 L 90.983 282.031 L 92.161 281.928 L 93.12 281.848 L 94.296 281.745 L 95.253 281.665 L 95.964 281.618 L 97.381 281.482 L 98.091 281.434 L 99.504 281.299 L 100.454 281.218 L 101.622 281.115 L 102.57 281.034 L 103.736 280.931 L 104.681 280.85 L 105.845 280.746 L 106.787 280.666 L 107.49 280.617 L 108.889 280.481 L 109.59 280.432 L 110.986 280.296 L 111.921 280.215 L 113.078 280.111 L 114.011 280.03 L 115.165 279.925 L 116.096 279.844 L 117.248 279.739 L 118.176 279.658 L 119.327 279.553 L 120.252 279.472 L 121.632 279.335 L 122.323 279.286 L 123.245 279.204 L 124.39 279.099 L 125.309 279.017 L 126.681 278.88 L 127.368 278.83 L 128.737 278.693 L 129.423 278.642 L 130.788 278.505 L 131.699 278.423 L 132.835 278.317 L 133.744 278.235 L 134.878 278.129 L 135.784 278.046 L 137.14 277.909 L 137.819 277.858 L 139.172 277.72 L 140.073 277.637 L 141.2 277.531 L 142.098 277.448 L 143.223 277.341 L 144.119 277.258 L 145.462 277.12 L 146.135 277.068 L 147.476 276.93 L 148.366 276.847 L 149.484 276.739 L 150.372 276.656 L 151.706 276.517 L 152.374 276.465 L 153.705 276.326 L 154.587 276.242 L 155.699 276.134 L 156.579 276.05 L 157.903 275.911 L 159.012 275.803 L 159.888 275.719 L 161.207 275.58 L 161.868 275.526 L 163.184 275.387 L 164.055 275.302 L 165.157 275.194 L 166.025 275.109 L 167.335 274.969 L 168.201 274.884 L 169.298 274.775 L 170.161 274.69 L 171.465 274.55 L 172.117 274.496 L 173.418 274.355 L 174.716 274.215 L 175.573 274.129 L 176.662 274.019 L 177.517 273.934 L 178.809 273.793 L 179.456 273.738 L 180.745 273.597 L 181.594 273.511 L 182.88 273.37 L 183.961 273.259 L 184.806 273.172 L 186.087 273.031 L 186.93 272.945 L 188.006 272.833 L 188.847 272.747 L 190.121 272.605 L 191.394 272.463 L 192.23 272.376 L 193.301 272.264 L 194.135 272.177 L 195.401 272.034 L 196.233 271.947 L 197.496 271.804 L 198.56 271.691 L 199.388 271.604 L 200.646 271.461 L 201.471 271.373 L 202.726 271.23 L 203.785 271.116 L 204.606 271.028 L 205.856 270.885 L 206.675 270.797 L 207.922 270.653 L 208.546 270.594 L 209.79 270.45 L 211.031 270.306 L 211.844 270.217 L 213.083 270.073 L 214.319 269.928 L 215.128 269.839 L 216.172 269.724 L 216.979 269.634 L 218.209 269.489 L 219.438 269.344 L 220.24 269.254 L 221.466 269.109 L 222.265 269.019 L 223.488 268.873 L 224.523 268.757 L 225.319 268.666 L 226.536 268.52 L 227.752 268.374 L 228.544 268.283 L 229.756 268.137 L 230.546 268.046 L 231.755 267.899 L 232.963 267.752 L 233.748 267.66 L 234.772 267.542 L 235.974 267.395 L 236.757 267.303 L 237.956 267.155 L 239.154 267.008 L 239.932 266.915 L 241.126 266.767 L 242.319 266.619 L 243.094 266.526 L 244.283 266.378 L 245.471 266.229 L 246.241 266.136 L 247.426 265.987 L 248.608 265.837 L 249.375 265.744 L 250.555 265.594 L 251.732 265.445 L 252.496 265.351 L 253.67 265.201 L 254.843 265.05 L 255.602 264.956 L 256.772 264.806 L 257.939 264.655 L 258.695 264.56 L 259.86 264.409 L 261.022 264.258 L 261.774 264.162 L 262.934 264.011 L 264.092 263.859 L 264.84 263.763 L 265.995 263.611 L 267.148 263.459 L 267.893 263.363 L 269.042 263.21 L 270.19 263.057 L 271.337 262.904 L 272.243 262.778 L 273.386 262.625 L 274.527 262.471 L 275.263 262.374 L 276.401 262.22 L 277.537 262.065 L 278.671 261.911 L 279.402 261.813 L 280.534 261.658 L 281.663 261.503 L 282.553 261.376 L 283.679 261.22 L 284.804 261.065 L 285.927 260.909 L 286.649 260.81 L 287.769 260.653 L 288.886 260.497 L 290.162 260.312 L 290.879 260.212 L 291.992 260.055 L 293.103 259.897 L 294.212 259.739 L 294.925 259.639 L 296.188 259.452 L 297.293 259.294 L 298.395 259.136 L 299.103 259.034 L 300.202 258.875 L 301.455 258.688 L 302.551 258.528 L 303.253 258.426 L 304.346 258.266 L 305.591 258.078 L 306.68 257.917 L 307.767 257.757 L 308.463 257.654 L 309.7 257.464 L 310.782 257.303 L 311.863 257.141 L 312.942 256.979 L 313.783 256.847 L 314.859 256.685 L 315.933 256.522 L 317.005 256.359 L 317.84 256.226 L 318.909 256.063 L 319.976 255.899 L 321.19 255.707 L 322.253 255.543 L 323.315 255.378 L 324.141 255.244 L 325.2 255.079 L 326.257 254.914 L 327.458 254.72 L 328.511 254.554 L 329.183 254.447 L 330.378 254.252 L 331.427 254.086 L 332.618 253.891 L 333.663 253.724 L 334.706 253.556 L 335.514 253.419 L 336.554 253.251 L 337.592 253.083 L 338.771 252.886 L 339.806 252.717 L 340.98 252.52 L 342.011 252.351 L 342.809 252.212 L 343.837 252.042 L 344.863 251.871 L 346.027 251.673 L 347.05 251.502 L 348.21 251.302 L 349.23 251.131 L 350.016 250.99 L 351.032 250.818 L 352.184 250.617 L 353.197 250.444 L 354.345 250.243 L 355.354 250.07 L 356.497 249.868 L 357.503 249.694 L 358.642 249.491 L 359.279 249.376 L 360.415 249.173 L 361.548 248.969 L 362.545 248.793 L 363.675 248.589 L 364.668 248.413 L 365.793 248.208 L 366.784 248.031 L 367.905 247.825 L 369.024 247.619 L 370.008 247.44 L 370.764 247.294 L 371.746 247.115 L 372.857 246.908 L 373.966 246.7 L 374.943 246.52 L 376.048 246.311 L 377.15 246.102 L 378.122 245.921 L 379.22 245.712 L 380.317 245.501 L 381.283 245.319 L 382.375 245.108 L 383.466 244.897 L 384.426 244.714 L 385.513 244.501 L 386.597 244.289 L 387.553 244.104 L 388.633 243.891 L 389.711 243.677 L 390.787 243.463 L 391.736 243.277 L 392.808 243.062 L 393.878 242.846 L 394.6 242.692 L 395.666 242.476 L 396.606 242.288 L 397.669 242.071 L 398.729 241.853 L 399.788 241.635 L 400.844 241.417 L 402.12 241.164 L 403.172 240.945 L 404.222 240.725 L 405.269 240.505 L 406.315 240.284 L 407.359 240.063 L 408.28 239.87 L 409.32 239.648 L 410.358 239.425 L 411.394 239.202 L 412.428 238.979 L 413.46 238.755 L 414.49 238.53 L 415.518 238.305 L 416.544 238.08 L 417.568 237.854 L 418.59 237.627 L 419.61 237.4 L 420.628 237.173 L 421.644 236.945 L 422.658 236.716 L 423.671 236.487 L 425.012 236.194 L 426.02 235.964 L 427.026 235.733 L 428.03 235.502 L 429.032 235.271 L 430.032 235.038 L 431.03 234.806 L 432.026 234.572 L 433.021 234.338 L 434.014 234.104 L 435.329 233.805 L 436.318 233.569 L 437.304 233.333 L 438.289 233.096 L 439.271 232.859 L 440.252 232.621 L 441.344 232.353 L 442.321 232.114 L 443.616 231.809 L 444.589 231.569 L 445.56 231.328 L 446.529 231.087 L 447.608 230.815 L 448.574 230.573 L 449.537 230.329 L 450.815 230.02 L 451.774 229.775 L 452.842 229.5 L 453.798 229.254 L 454.752 229.008 L 456.017 228.695 L 457.076 228.417 L 458.024 228.169 L 458.971 227.92 L 459.915 227.67 L 461.276 227.323 L 462.216 227.072 L 463.154 226.82 L 464.2 226.538 L 465.135 226.284 L 466.374 225.963 L 467.414 225.679 L 468.343 225.423 L 469.27 225.167 L 470.607 224.813 L 471.53 224.556 L 472.452 224.297 L 473.479 224.008 L 474.699 223.681 L 475.722 223.39 L 476.636 223.129 L 477.655 222.836 L 478.865 222.505 L 479.774 222.242 L 480.787 221.947 L 481.693 221.682 L 482.997 221.317 L 483.899 221.05 L 484.905 220.752 L 486.097 220.415 L 487.099 220.115 L 487.993 219.846 L 489.282 219.475 L 490.173 219.203 L 491.167 218.9 L 492.345 218.557 L 493.335 218.252 L 494.323 217.946 L 495.494 217.601 L 496.478 217.293 L 497.357 217.015 L 498.623 216.636 L 499.499 216.356 L 500.476 216.045 L 501.735 215.662 L 502.605 215.38 L 503.577 215.065 L 504.828 214.679 L 505.694 214.395 L 506.94 214.006 L 507.904 213.688 L 508.765 213.401 L 510.004 213.009 L 510.963 212.687 L 512.096 212.325 L 513.052 212.002 L 514.281 211.606 L 515.131 211.312 L 516.083 210.986 L 517.305 210.586 L 518.15 210.29 L 519.368 209.887 L 520.312 209.556 L 521.525 209.152 L 522.364 208.851 L 523.572 208.444 L 524.51 208.109 L 525.713 207.699 L 526.648 207.361 L 527.746 206.982 L 528.678 206.642 L 529.872 206.227 L 530.8 205.885 L 531.99 205.467 L 532.814 205.156 L 533.999 204.736 L 534.922 204.389 L 536.103 203.966 L 537.022 203.616 L 538.199 203.191 L 539.014 202.872 L 540.186 202.444 L 541.356 202.014 L 542.269 201.658 L 543.434 201.226 L 544.344 200.867 L 545.506 200.432 L 546.311 200.105 L 547.468 199.667 L 548.624 199.227 L 549.527 198.862 L 550.678 198.419 L 551.827 197.974 L 552.726 197.605 L 553.871 197.158 L 554.768 196.786 L 555.91 196.335 L 556.947 195.918 L 557.84 195.541 L 558.976 195.086 L 560.109 194.629 L 560.999 194.248 L 562.128 193.788 L 563.256 193.326 L 564.381 192.862 L 565.266 192.476 L 566.388 192.009 L 567.509 191.54 L 568.39 191.149 L 569.507 190.677 L 570.622 190.203 L 571.735 189.727 L 572.612 189.33 L 573.618 188.887 L 574.726 188.405 L 575.832 187.922 L 576.935 187.438 L 577.808 187.032 L 578.909 186.544 L 580.008 186.053 L 581.105 185.561 L 582.2 185.067 L 583.069 184.653 L 584.161 184.155 L 585.252 183.655 L 586.341 183.153 L 587.429 182.649 L 588.514 182.143 L 589.598 181.635 L 590.681 181.125 L 591.543 180.697 L 592.623 180.183 L 593.594 179.705 L 594.671 179.187 L 595.746 178.666 L 596.82 178.144 L 597.892 177.619 L 598.978 177.092 L 600.061 176.562 L 601.143 176.03 L 602.222 175.495 L 603.301 174.958 L 604.377 174.418 L 605.452 173.876 L 606.525 173.331 L 607.386 172.792 L 608.553 172.278 L 609.622 171.726 L 610.689 171.171 L 611.754 170.614 L 612.818 170.055 L 613.88 169.493 L 614.941 168.928 L 616.001 168.361 L 616.664 167.804 L 618.199 167.177 L 619.254 166.601 L 620.308 166.023 L 621.36 165.442 L 622.411 164.858 L 623.097 164.285 L 624.585 163.64 L 625.631 163.048 L 626.677 162.453 L 627.721 161.856 L 628.606 161.261 L 629.84 160.569 L 630.916 160.002 L 631.956 159.392 L 632.846 158.785 L 634.218 158.075 L 635.109 157.462 L 636.166 156.88 L 637.062 156.261 L 638.416 155.538 L 639.314 154.911 L 640.223 154.323 L 641.565 153.589 L 642.467 152.953 L 643.675 152.217 L 644.701 151.611 L 645.607 150.965 L 646.81 150.218 L 647.709 149.606 L 649.021 148.847 L 649.934 148.187 L 651.129 147.425 L 652.023 146.799 L 653.32 146.025 L 654.121 145.353 L 655.395 144.614 L 656.204 143.935 L 657.465 143.188 L 658.389 142.497 L 659.571 141.702 L 660.456 141.047 L 661.636 140.243 L 662.814 139.435 L 663.695 138.768 L 664.776 137.953 L 665.986 137.173 L 666.832 136.451 L 667.954 135.664 L 669.198 134.826 L 670.056 134.09 L 671.166 133.289 L 672.253 132.44 L 673.355 131.629 L 674.518 130.768 L 675.388 130.05 L 676.478 129.18 L 677.565 128.347 L 678.656 127.465 L 679.735 126.621 L 680.828 125.727 L 681.837 124.873 L 682.956 124.009 L 683.859 123.203 L 684.921 122.328 L 686.019 121.402 L 687.032 120.515 L 688.309 119.468 L 689.305 118.566 L 690.349 117.656 L 691.45 116.692 L 692.442 115.767 L 693.477 114.832 L 694.581 113.843 L 695.532 112.892 L 696.722 111.821 L 697.828 110.803 L 698.811 109.821 L 699.801 108.827 L 701.061 107.667 L 702.04 106.649 L 703.024 105.618 L 704.288 104.417 L 704.296 104.416 L 703.031 105.616 L 702.044 106.647 L 701.067 107.665 L 699.815 108.824 L 698.822 109.817 L 697.841 110.8 L 696.764 111.812 L 695.544 112.888 L 694.6 113.838 L 693.522 114.822 L 692.469 115.758 L 691.478 116.683 L 690.401 117.641 L 689.341 118.553 L 688.345 119.455 L 687.073 120.5 L 686.058 121.388 L 684.979 122.308 L 683.906 123.184 L 683.055 123.979 L 681.895 124.846 L 680.886 125.701 L 679.807 126.589 L 678.721 127.435 L 677.64 128.31 L 676.549 129.145 L 675.468 130.009 L 674.602 130.723 L 673.443 131.58 L 672.341 132.393 L 671.257 133.236 L 670.149 134.04 L 669.319 134.763 L 668.059 135.598 L 666.942 136.388 L 666.116 137.096 L 664.897 137.882 L 663.81 138.69 L 662.932 139.354 L 661.758 140.158 L 660.583 140.956 L 659.702 141.608 L 658.524 142.399 L 657.619 143.077 L 656.369 143.83 L 655.555 144.496 L 654.297 145.241 L 653.485 145.899 L 652.188 146.671 L 651.297 147.293 L 650.106 148.052 L 649.204 148.7 L 647.896 149.456 L 647 150.065 L 645.802 150.809 L 644.9 151.442 L 643.884 152.048 L 642.68 152.781 L 641.779 153.404 L 640.451 154.137 L 639.546 154.723 L 638.645 155.337 L 637.309 156.059 L 636.407 156.666 L 635.372 157.248 L 634.47 157.849 L 633.123 158.559 L 632.221 159.154 L 631.191 159.753 L 630.144 160.322 L 628.915 161.012 L 628.012 161.595 L 626.978 162.182 L 625.942 162.767 L 624.905 163.349 L 623.531 164.006 L 622.739 164.567 L 621.698 165.141 L 620.656 165.712 L 619.613 166.281 L 618.569 166.847 L 617.17 167.489 L 616.38 168.033 L 615.331 168.591 L 614.281 169.147 L 613.23 169.701 L 612.177 170.252 L 611.123 170.801 L 610.068 171.347 L 609.011 171.891 L 607.911 172.41 L 607 172.939 L 605.939 173.476 L 604.876 174.011 L 603.812 174.543 L 602.747 175.074 L 601.68 175.602 L 600.611 176.127 L 599.541 176.651 L 598.469 177.172 L 597.395 177.692 L 596.32 178.209 L 595.244 178.724 L 594.165 179.236 L 593.028 179.729 L 592.106 180.225 L 591.531 180.62 L 590.165 181.146 L 589.078 181.649 L 587.99 182.15 L 586.9 182.649 L 585.808 183.146 L 584.714 183.641 L 583.618 184.134 L 583.046 184.512 L 581.655 185.025 L 580.554 185.513 L 579.452 185.999 L 578.347 186.483 L 577.776 186.851 L 576.37 187.356 L 575.26 187.835 L 574.148 188.312 L 572.963 188.774 L 572.562 189.118 L 571.142 189.616 L 570.022 190.086 L 568.901 190.555 L 568.328 190.907 L 566.896 191.4 L 565.769 191.864 L 565.195 192.21 L 563.755 192.699 L 562.621 193.158 L 561.486 193.616 L 560.911 193.955 L 559.458 194.439 L 558.317 194.892 L 557.74 195.227 L 556.2 195.698 L 555.23 196.129 L 554.652 196.46 L 553.183 196.936 L 552.602 197.263 L 551.129 197.737 L 549.97 198.179 L 549.388 198.502 L 547.905 198.973 L 546.741 199.411 L 546.016 199.727 L 544.763 200.171 L 544.176 200.486 L 542.68 200.952 L 542.09 201.264 L 540.59 201.728 L 539.41 202.158 L 538.676 202.466 L 537.407 202.902 L 536.811 203.208 L 535.298 203.667 L 534.7 203.97 L 533.181 204.427 L 532.438 204.729 L 531.155 205.159 L 530.552 205.457 L 529.023 205.911 L 528.417 206.206 L 526.798 206.655 L 526.373 206.928 L 524.834 207.378 L 524.222 207.67 L 522.679 208.119 L 521.92 208.411 L 520.614 208.831 L 519.995 209.118 L 518.442 209.564 L 517.677 209.852 L 516.361 210.269 L 515.735 210.552 L 514.638 210.876 L 513.315 211.291 L 512.684 211.57 L 511.031 212.01 L 510.579 212.266 L 509.005 212.706 L 508.225 212.987 L 507.499 213.272 L 505.918 213.71 L 505.133 213.989 L 503.789 214.397 L 503.14 214.669 L 502.023 214.985 L 500.672 215.391 L 500.017 215.66 L 498.896 215.975 L 497.538 216.379 L 496.738 216.653 L 495.99 216.929 L 494.306 217.362 L 493.819 217.603 L 492.825 217.907 L 491.136 218.339 L 490.641 218.577 L 489.507 218.888 L 488.127 219.287 L 487.31 219.555 L 486.543 219.825 L 484.843 220.255 L 484.332 220.489 L 483.19 220.797 L 481.795 221.192 L 480.967 221.457 L 480.185 221.724 L 479.037 222.03 L 477.56 222.426 L 477.031 222.656 L 475.878 222.961 L 475.085 223.225 L 473.368 223.651 L 472.826 223.879 L 471.668 224.182 L 470.74 224.454 L 469.316 224.845 L 468.465 225.104 L 467.531 225.374 L 466.719 225.635 L 464.99 226.059 L 464.303 226.292 L 463.483 226.551 L 462.313 226.851 L 461.368 227.12 L 459.922 227.508 L 459.053 227.764 L 458.103 228.031 L 457.151 228.298 L 456.313 228.554 L 454.57 228.976 L 453.86 229.205 L 452.9 229.471 L 452.052 229.726 L 450.867 230.024 L 449.338 230.412 L 448.616 230.64 L 447.647 230.904 L 446.786 231.158 L 445.593 231.455 L 444.619 231.718 L 443.643 231.982 L 442.102 232.369 L 441.363 232.595 L 440.485 232.847 L 439.285 233.142 L 438.299 233.405 L 437.312 233.667 L 436.322 233.929 L 435.331 234.19 L 433.776 234.576 L 433.016 234.8 L 432.019 235.062 L 431.02 235.323 L 430.019 235.583 L 429.017 235.844 L 428.013 236.105 L 427.006 236.365 L 425.998 236.625 L 424.988 236.885 L 423.414 237.27 L 422.629 237.493 L 421.613 237.752 L 420.595 238.012 L 419.576 238.271 L 418.554 238.531 L 417.53 238.79 L 416.505 239.049 L 415.477 239.308 L 414.448 239.567 L 413.416 239.826 L 412.383 240.085 L 411.348 240.344 L 410.311 240.602 L 409.272 240.861 L 408.23 241.119 L 407.087 241.392 L 406.264 241.613 L 405.217 241.871 L 404.168 242.129 L 403.118 242.388 L 402.065 242.646 L 400.413 243.034 L 399.732 243.227 L 398.673 243.486 L 397.613 243.744 L 396.55 244.002 L 395.393 244.273 L 394.543 244.494 L 394.343 244.577 L 392.752 244.921 L 391.68 245.179 L 390.521 245.45 L 389.656 245.671 L 388.578 245.929 L 387.498 246.187 L 386.334 246.458 L 385.459 246.679 L 384.373 246.937 L 383.206 247.208 L 382.323 247.429 L 381.232 247.687 L 380.061 247.957 L 379.171 248.179 L 378.073 248.438 L 376.899 248.707 L 376.002 248.93 L 374.898 249.188 L 373.72 249.458 L 372.815 249.68 L 371.705 249.939 L 370.525 250.209 L 370.455 250.256 L 368.789 250.61 L 367.871 250.833 L 366.751 251.092 L 365.567 251.362 L 364.64 251.585 L 363.453 251.854 L 362.521 252.078 L 361.331 252.347 L 360.396 252.571 L 359.262 252.831 L 358.797 252.943 L 357.49 253.234 L 356.296 253.503 L 355.346 253.727 L 354.149 253.997 L 353.194 254.222 L 351.995 254.491 L 351.036 254.716 L 349.834 254.985 L 349.691 255.037 L 348.036 255.389 L 347.065 255.615 L 345.86 255.884 L 344.885 256.11 L 343.677 256.38 L 342.652 256.614 L 342.486 256.667 L 340.832 257.018 L 339.844 257.245 L 338.632 257.515 L 337.639 257.743 L 336.423 258.012 L 335.387 258.247 L 335.196 258.302 L 333.545 258.652 L 332.504 258.887 L 331.497 259.116 L 330.274 259.385 L 329.262 259.615 L 328.747 259.728 L 327.367 260.027 L 326.347 260.257 L 325.12 260.527 L 324.065 260.763 L 323.835 260.822 L 322.188 261.17 L 321.13 261.406 L 320.094 261.638 L 318.86 261.908 L 317.796 262.144 L 317.546 262.205 L 315.9 262.553 L 314.831 262.79 L 313.761 263.026 L 313.496 263.089 L 311.852 263.436 L 310.777 263.673 L 309.7 263.911 L 308.637 264.145 L 308.089 264.26 L 306.697 264.559 L 305.614 264.797 L 304.541 265.032 L 303.29 265.303 L 302.898 265.386 L 301.502 265.685 L 300.419 265.922 L 299.164 266.192 L 298.763 266.276 L 297.365 266.575 L 296.267 266.814 L 295.172 267.052 L 294.601 267.169 L 293.201 267.468 L 292.097 267.707 L 290.991 267.947 L 290.575 268.032 L 289.167 268.331 L 287.901 268.603 L 286.788 268.843 L 286.362 268.929 L 284.955 269.228 L 283.838 269.469 L 282.719 269.709 L 282.356 269.783 L 280.714 270.128 L 279.59 270.369 L 279.148 270.457 L 277.738 270.756 L 276.609 270.998 L 275.479 271.24 L 275.031 271.328 L 273.615 271.627 L 272.481 271.87 L 272.083 271.947 L 270.444 272.291 L 269.304 272.534 L 268.162 272.777 L 267.697 272.867 L 266.278 273.167 L 265.132 273.41 L 264.661 273.501 L 263.24 273.801 L 262.089 274.045 L 261.612 274.136 L 260.189 274.436 L 259.033 274.681 L 258.55 274.773 L 257.124 275.073 L 255.964 275.318 L 255.475 275.41 L 254.047 275.71 L 252.881 275.956 L 252.386 276.049 L 250.956 276.35 L 249.786 276.596 L 249.284 276.69 L 247.852 276.99 L 246.677 277.237 L 246.169 277.332 L 244.735 277.632 L 243.555 277.88 L 243.04 277.975 L 241.604 278.276 L 240.419 278.524 L 239.898 278.62 L 238.46 278.921 L 237.271 279.169 L 236.742 279.267 L 235.302 279.568 L 234.134 279.812 L 233.758 279.877 L 232.311 280.179 L 231.113 280.428 L 230.576 280.527 L 229.128 280.829 L 228.585 280.928 L 227.137 281.229 L 225.931 281.48 L 225.38 281.58 L 223.967 281.875 L 222.904 282.095 L 222.352 282.195 L 220.896 282.497 L 220.338 282.599 L 218.884 282.901 L 217.664 283.153 L 217.098 283.255 L 215.685 283.55 L 215.262 283.621 L 213.803 283.924 L 212.576 284.177 L 212.001 284.28 L 210.54 284.583 L 209.308 284.837 L 208.687 284.951 L 207.454 285.204 L 206.87 285.309 L 205.405 285.612 L 204.813 285.718 L 203.403 286.011 L 202.299 286.236 L 201.706 286.342 L 200.235 286.645 L 199.635 286.752 L 198.224 287.045 L 197.11 287.271 L 196.507 287.379 L 195.032 287.683 L 194.422 287.791 L 193.011 288.083 L 192.534 288.162 L 191.057 288.466 L 189.795 288.724 L 189.175 288.834 L 187.764 289.125 L 187.275 289.206 L 185.794 289.511 L 185.164 289.622 L 183.755 289.913 L 182.613 290.144 L 181.981 290.255 L 180.496 290.56 L 179.853 290.675 L 178.576 290.935 L 177.934 291.048 L 176.523 291.338 L 176.008 291.423 L 174.518 291.729 L 173.231 291.99 L 172.583 292.105 L 171.294 292.366 L 170.641 292.481 L 169.227 292.771 L 168.698 292.858 L 167.2 293.165 L 166.536 293.281 L 165.126 293.57 L 164.584 293.659 L 163.085 293.966 L 162.429 294.082 L 161.125 294.345 L 160.449 294.463 L 159.04 294.751 L 157.851 294.989 L 157.172 295.108 L 155.758 295.396 L 155.199 295.489 L 153.69 295.796 L 153.026 295.912 L 151.708 296.178 L 151.017 296.298 L 149.605 296.586 L 149.029 296.681 L 147.516 296.989 L 146.848 297.105 L 145.521 297.372 L 144.816 297.495 L 143.407 297.781 L 142.815 297.879 L 141.402 298.166 L 140.809 298.264 L 139.288 298.572 L 138.614 298.69 L 137.274 298.958 L 136.554 299.083 L 135.145 299.369 L 134.534 299.47 L 133.122 299.756 L 132.509 299.857 L 130.982 300.166 L 130.301 300.284 L 128.949 300.554 L 128.267 300.672 L 126.912 300.942 L 126.173 301.07 L 124.763 301.355 L 124.129 301.46 L 123.273 301.616 L 121.91 301.888 L 121.157 302.018 L 119.754 302.301 L 119.102 302.409 L 117.696 302.692 L 117.042 302.8 L 115.634 303.084 L 114.978 303.192 L 113.567 303.476 L 112.909 303.584 L 111.366 303.895 L 110.67 304.014 L 109.289 304.289 L 108.592 304.408 L 107.816 304.542 L 106.411 304.824 L 105.731 304.936 L 104.324 305.218 L 103.641 305.331 L 102.232 305.614 L 101.547 305.727 L 99.995 306.039 L 99.291 306.158 L 97.893 306.436 L 97.187 306.555 L 96.388 306.693 L 94.986 306.973 L 94.277 307.091 L 92.873 307.371 L 92.161 307.489 L 90.756 307.77 L 90.041 307.888 L 89.183 308.041 L 87.769 308.321 L 87.056 308.441 L 85.64 308.721 L 84.925 308.841 L 83.506 309.121 L 82.789 309.242 L 81.962 309.384 L 80.562 309.663 L 79.818 309.786 L 78.417 310.065 L 77.67 310.189 L 76.268 310.467 L 75.633 310.569 L 74.795 310.713 L 73.391 310.991 L 72.635 311.117 L 71.23 311.395 L 70.471 311.521 L 69.611 311.673 L 68.168 311.957 L 67.441 312.078 L 65.995 312.362 L 65.266 312.484 L 63.817 312.769 L 63.086 312.89 L 62.355 313.012 L 60.902 313.297 L 60.169 313.419 L 58.713 313.705 L 57.978 313.827 L 57.103 313.978 L 55.706 314.253 L 55.046 314.357 L 53.583 314.645 L 52.844 314.767 L 51.96 314.919 L 50.562 315.194 L 49.75 315.329 L 48.891 315.479 L 47.609 315.727 L 46.791 315.863 L 45.391 316.138 L 44.569 316.275 L 43.708 316.424 L 42.424 316.672 L 41.595 316.811 L 40.194 317.085 L 39.361 317.225 L 38.499 317.373 L 37.211 317.621 L 36.372 317.762 L 35.509 317.91 L 34.017 318.202 L 33.264 318.325 L 31.972 318.574 L 31.121 318.716 L 30.258 318.865 L 28.758 319.157 L 28.001 319.281 L 27.244 319.405 L 25.739 319.698 L 24.98 319.822 L 24.22 319.946 L 22.711 320.24 L 21.95 320.364 L 20.437 320.659 L 19.674 320.783 L 18.911 320.907 L 17.394 321.202 L 16.628 321.327 L 15.863 321.451 L 14.341 321.747 L 13.573 321.871 L 29.492 391.01 L 30.247 390.835 L 31.755 390.485 L 32.508 390.31 L 33.261 390.135 L 34.766 389.786 L 35.518 389.611 L 36.269 389.437 L 37.77 389.088 L 38.52 388.914 L 40.018 388.566 L 40.767 388.392 L 41.515 388.218 L 43.01 387.871 L 43.757 387.697 L 44.503 387.524 L 45.995 387.178 L 46.74 387.005 L 47.485 386.832 L 48.973 386.486 L 49.716 386.313 L 51.202 385.968 L 51.944 385.796 L 52.686 385.624 L 54.168 385.28 L 54.908 385.108 L 55.648 384.936 L 57.127 384.592 L 57.865 384.421 L 59.341 384.078 L 60.079 383.907 L 60.815 383.736 L 62.288 383.394 L 63.024 383.223 L 64.494 382.881 L 65.228 382.711 L 65.962 382.54 L 67.428 382.2 L 68.161 382.03 L 68.893 381.86 L 70.356 381.52 L 71.087 381.35 L 72.548 381.011 L 73.277 380.841 L 74.006 380.672 L 75.463 380.334 L 76.191 380.164 L 77.646 379.827 L 78.372 379.658 L 79.098 379.489 L 80.549 379.152 L 81.274 378.984 L 82.723 378.647 L 83.446 378.479 L 84.892 378.143 L 85.615 377.976 L 86.336 377.808 L 87.779 377.473 L 88.499 377.306 L 89.939 376.971 L 90.659 376.804 L 91.378 376.637 L 92.814 376.303 L 93.532 376.137 L 94.965 375.804 L 95.682 375.637 L 97.113 375.305 L 97.828 375.139 L 98.543 374.973 L 99.971 374.641 L 100.684 374.475 L 102.109 374.144 L 102.821 373.979 L 104.244 373.648 L 104.955 373.483 L 105.665 373.318 L 107.085 372.988 L 107.794 372.824 L 109.211 372.494 L 109.918 372.33 L 111.333 372.001 L 112.039 371.837 L 112.745 371.673 L 114.156 371.345 L 114.861 371.182 L 116.269 370.855 L 116.973 370.691 L 118.379 370.364 L 119.081 370.201 L 120.484 369.875 L 121.185 369.712 L 122.586 369.387 L 123.286 369.224 L 123.985 369.062 L 125.382 368.737 L 126.08 368.575 L 127.475 368.251 L 128.172 368.089 L 129.564 367.765 L 130.259 367.604 L 131.649 367.281 L 132.343 367.12 L 133.731 366.797 L 134.424 366.636 L 135.808 366.314 L 136.5 366.154 L 137.882 365.832 L 138.572 365.672 L 139.262 365.512 L 140.641 365.191 L 141.33 365.031 L 142.706 364.711 L 143.394 364.551 L 144.767 364.232 L 145.453 364.073 L 146.825 363.754 L 147.51 363.595 L 148.878 363.277 L 149.562 363.118 L 150.928 362.8 L 151.61 362.641 L 152.974 362.324 L 153.655 362.166 L 155.016 361.85 L 155.696 361.692 L 157.055 361.376 L 157.733 361.218 L 159.09 360.903 L 159.767 360.745 L 161.12 360.431 L 161.797 360.273 L 163.148 359.959 L 163.823 359.802 L 165.171 359.489 L 165.845 359.332 L 167.191 359.019 L 167.863 358.863 L 169.207 358.55 L 169.878 358.394 L 171.219 358.082 L 171.889 357.926 L 173.227 357.615 L 174.564 357.304 L 175.232 357.149 L 176.566 356.838 L 177.233 356.683 L 178.565 356.373 L 179.23 356.219 L 180.559 355.909 L 181.223 355.755 L 182.55 355.446 L 183.213 355.292 L 184.537 354.984 L 185.199 354.83 L 186.521 354.522 L 187.181 354.369 L 188.5 354.062 L 189.818 353.755 L 190.476 353.602 L 191.792 353.296 L 192.449 353.143 L 193.761 352.837 L 194.417 352.685 L 195.727 352.38 L 196.382 352.227 L 197.69 351.923 L 198.996 351.619 L 199.648 351.467 L 200.952 351.163 L 201.603 351.012 L 202.904 350.709 L 203.554 350.557 L 204.853 350.255 L 206.15 349.953 L 206.798 349.802 L 208.092 349.5 L 208.739 349.35 L 210.031 349.049 L 210.677 348.898 L 211.966 348.598 L 213.254 348.298 L 213.898 348.148 L 215.183 347.848 L 215.825 347.699 L 217.108 347.4 L 218.39 347.101 L 219.03 346.952 L 220.309 346.654 L 220.948 346.505 L 222.224 346.207 L 222.862 346.059 L 224.136 345.762 L 225.408 345.465 L 226.044 345.317 L 227.314 345.021 L 228.582 344.725 L 229.216 344.577 L 230.481 344.282 L 231.114 344.134 L 232.377 343.839 L 233.639 343.545 L 234.269 343.398 L 235.528 343.104 L 236.157 342.957 L 237.414 342.664 L 238.67 342.371 L 239.297 342.225 L 240.549 341.932 L 241.801 341.64 L 242.425 341.494 L 243.674 341.203 L 244.298 341.057 L 245.544 340.766 L 246.789 340.475 L 247.411 340.33 L 248.653 340.04 L 249.893 339.75 L 250.513 339.605 L 251.751 339.316 L 252.988 339.027 L 253.605 338.883 L 254.84 338.594 L 256.072 338.306 L 256.688 338.162 L 257.918 337.875 L 259.146 337.587 L 259.76 337.444 L 260.986 337.157 L 262.21 336.871 L 262.822 336.728 L 264.044 336.442 L 265.264 336.156 L 265.874 336.013 L 267.092 335.728 L 268.308 335.444 L 268.915 335.301 L 270.129 335.017 L 271.342 334.733 L 271.947 334.591 L 273.157 334.308 L 274.365 334.025 L 274.969 333.883 L 276.175 333.601 L 277.379 333.319 L 277.981 333.178 L 279.182 332.896 L 280.383 332.614 L 280.982 332.474 L 282.18 332.193 L 283.376 331.912 L 284.571 331.632 L 285.168 331.492 L 286.36 331.212 L 287.55 330.933 L 288.145 330.793 L 289.333 330.514 L 290.52 330.235 L 291.705 329.957 L 292.297 329.818 L 293.479 329.54 L 294.66 329.263 L 295.25 329.124 L 296.429 328.847 L 297.606 328.57 L 298.782 328.294 L 299.369 328.155 L 300.542 327.879 L 301.713 327.604 L 302.883 327.328 L 303.467 327.191 L 304.635 326.916 L 305.801 326.641 L 306.965 326.367 L 307.547 326.23 L 308.709 325.956 L 309.869 325.683 L 311.028 325.41 L 311.607 325.273 L 312.763 325 L 313.918 324.728 L 315.071 324.456 L 315.647 324.32 L 316.798 324.048 L 317.947 323.777 L 319.095 323.506 L 320.241 323.235 L 320.813 323.099 L 321.957 322.829 L 323.099 322.559 L 324.24 322.289 L 325.379 322.02 L 325.948 321.885 L 327.084 321.616 L 328.22 321.347 L 329.353 321.079 L 329.919 320.945 L 331.05 320.677 L 332.18 320.409 L 333.308 320.142 L 334.434 319.875 L 335.559 319.608 L 336.121 319.474 L 337.244 319.208 L 338.365 318.942 L 339.484 318.676 L 340.602 318.41 L 341.16 318.277 L 342.276 318.012 L 343.389 317.747 L 344.502 317.483 L 345.613 317.218 L 346.722 316.954 L 347.276 316.822 L 348.383 316.559 L 349.488 316.295 L 350.592 316.032 L 351.694 315.769 L 352.795 315.506 L 353.894 315.244 L 354.443 315.113 L 355.539 314.851 L 356.635 314.589 L 357.728 314.328 L 358.82 314.067 L 359.911 313.806 L 361 313.545 L 361.544 313.415 L 362.63 313.154 L 363.716 312.894 L 364.799 312.635 L 365.881 312.375 L 366.962 312.116 L 368.041 311.857 L 369.118 311.598 L 370.194 311.339 L 370.731 311.21 L 371.805 310.952 L 372.877 310.694 L 373.947 310.436 L 375.016 310.179 L 376.083 309.921 L 377.149 309.664 L 378.214 309.408 L 379.276 309.151 L 380.338 308.895 L 381.397 308.639 L 381.926 308.511 L 382.984 308.255 L 384.04 307.999 L 385.094 307.744 L 386.147 307.489 L 387.198 307.234 L 388.248 306.98 L 389.296 306.725 L 390.343 306.471 L 391.388 306.217 L 392.431 305.963 L 393.473 305.71 L 394.514 305.456 L 395.553 305.203 L 396.59 304.95 L 397.626 304.697 L 398.661 304.445 L 399.694 304.192 L 400.725 303.94 L 401.755 303.688 L 402.783 303.437 L 403.81 303.185 L 404.836 302.934 L 405.348 302.808 L 406.371 302.557 L 407.392 302.306 L 408.412 302.055 L 409.431 301.805 L 410.448 301.554 L 411.463 301.304 L 412.984 300.929 L 413.996 300.68 L 415.006 300.43 L 416.014 300.181 L 417.022 299.932 L 418.027 299.683 L 419.031 299.434 L 420.034 299.185 L 421.035 298.936 L 422.035 298.688 L 423.033 298.44 L 424.03 298.192 L 425.025 297.944 L 426.019 297.696 L 427.011 297.448 L 428.001 297.201 L 428.991 296.954 L 429.978 296.706 L 430.964 296.459 L 431.949 296.213 L 432.932 295.966 L 433.914 295.719 L 435.384 295.349 L 436.362 295.103 L 437.338 294.857 L 438.313 294.611 L 439.287 294.365 L 440.259 294.119 L 441.229 293.874 L 442.198 293.628 L 443.166 293.383 L 444.132 293.137 L 445.578 292.769 L 446.54 292.524 L 447.501 292.279 L 448.46 292.034 L 449.418 291.79 L 450.375 291.545 L 451.33 291.3 L 452.283 291.056 L 453.711 290.689 L 454.66 290.445 L 455.609 290.201 L 456.555 289.957 L 457.501 289.713 L 458.445 289.469 L 459.387 289.225 L 460.798 288.859 L 461.737 288.616 L 462.674 288.372 L 463.61 288.128 L 464.544 287.885 L 465.943 287.52 L 466.873 287.276 L 467.803 287.033 L 468.73 286.79 L 469.657 286.547 L 471.043 286.182 L 471.966 285.939 L 472.887 285.696 L 473.807 285.453 L 474.725 285.21 L 476.1 284.845 L 477.014 284.602 L 477.927 284.359 L 478.839 284.116 L 480.204 283.752 L 481.112 283.509 L 482.018 283.266 L 482.924 283.023 L 484.279 282.659 L 485.18 282.416 L 486.08 282.173 L 486.979 281.93 L 488.324 281.566 L 489.219 281.323 L 490.113 281.08 L 491.005 280.837 L 492.34 280.472 L 493.229 280.229 L 494.116 279.986 L 495.444 279.621 L 496.327 279.378 L 497.21 279.135 L 498.53 278.77 L 499.408 278.527 L 500.285 278.283 L 501.598 277.918 L 502.472 277.675 L 503.344 277.431 L 504.649 277.065 L 505.518 276.822 L 506.385 276.578 L 507.683 276.212 L 508.546 275.968 L 509.408 275.723 L 510.698 275.357 L 511.557 275.113 L 512.414 274.868 L 513.697 274.501 L 514.55 274.256 L 515.828 273.889 L 516.678 273.644 L 517.526 273.399 L 518.797 273.031 L 519.642 272.785 L 520.906 272.417 L 521.748 272.171 L 523.007 271.802 L 523.845 271.556 L 524.682 271.309 L 525.934 270.939 L 526.767 270.693 L 528.014 270.322 L 528.843 270.075 L 530.085 269.704 L 530.911 269.456 L 532.147 269.085 L 532.97 268.837 L 534.201 268.464 L 535.02 268.216 L 536.245 267.842 L 537.061 267.593 L 538.281 267.219 L 539.093 266.97 L 540.309 266.595 L 541.117 266.345 L 542.327 265.969 L 543.132 265.719 L 544.337 265.342 L 545.139 265.091 L 546.338 264.713 L 547.136 264.461 L 548.331 264.083 L 549.522 263.704 L 550.315 263.451 L 551.501 263.071 L 552.29 262.818 L 553.471 262.437 L 554.257 262.182 L 555.432 261.8 L 556.605 261.417 L 557.385 261.162 L 558.553 260.778 L 559.717 260.393 L 560.492 260.137 L 561.651 259.751 L 562.422 259.493 L 563.576 259.106 L 564.727 258.719 L 565.493 258.46 L 566.639 258.071 L 567.782 257.681 L 568.542 257.421 L 569.68 257.029 L 570.814 256.637 L 571.946 256.245 L 572.698 255.982 L 573.825 255.588 L 574.948 255.193 L 575.696 254.929 L 576.814 254.532 L 577.929 254.135 L 579.041 253.736 L 579.781 253.47 L 580.888 253.07 L 581.992 252.669 L 583.093 252.267 L 584.191 251.864 L 584.922 251.595 L 586.015 251.191 L 587.104 250.785 L 588.191 250.379 L 589.275 249.971 L 589.996 249.699 L 591.075 249.289 L 592.151 248.879 L 593.224 248.467 L 594.293 248.054 L 595.36 247.641 L 596.424 247.226 L 597.484 246.81 L 598.19 246.532 L 599.246 246.114 L 600.298 245.695 L 601.348 245.274 L 602.395 244.853 L 603.439 244.43 L 604.479 244.006 L 605.517 243.581 L 606.552 243.154 L 607.584 242.726 L 608.613 242.297 L 609.638 241.867 L 610.661 241.436 L 611.681 241.003 L 612.698 240.568 L 613.712 240.133 L 614.723 239.696 L 615.731 239.258 L 616.736 238.818 L 617.738 238.377 L 618.738 237.935 L 619.734 237.491 L 620.727 237.045 L 621.717 236.599 L 622.705 236.151 L 624.017 235.551 L 624.997 235.099 L 625.975 234.646 L 626.949 234.192 L 627.921 233.735 L 628.89 233.278 L 630.177 232.665 L 631.139 232.204 L 632.098 231.741 L 633.054 231.277 L 634.008 230.811 L 635.274 230.188 L 636.22 229.718 L 637.164 229.247 L 638.105 228.774 L 639.354 228.141 L 640.288 227.664 L 641.219 227.186 L 642.147 226.705 L 643.38 226.063 L 644.302 225.579 L 645.22 225.093 L 646.44 224.443 L 647.352 223.953 L 648.563 223.297 L 649.468 222.803 L 650.371 222.307 L 651.569 221.643 L 652.465 221.144 L 653.654 220.474 L 654.543 219.97 L 655.724 219.295 L 656.606 218.787 L 657.778 218.106 L 658.654 217.593 L 659.817 216.906 L 660.686 216.389 L 661.84 215.696 L 662.702 215.175 L 663.848 214.476 L 664.703 213.95 L 665.84 213.245 L 666.972 212.537 L 667.817 212.003 L 668.94 211.289 L 670.058 210.571 L 670.893 210.03 L 672.002 209.306 L 673.106 208.578 L 673.931 208.029 L 675.027 207.295 L 676.117 206.557 L 677.203 205.815 L 678.284 205.07 L 679.091 204.508 L 680.163 203.756 L 681.23 203 L 682.292 202.241 L 683.35 201.477 L 684.402 200.71 L 685.45 199.938 L 686.492 199.163 L 687.271 198.579 L 688.305 197.797 L 689.334 197.011 L 690.358 196.221 L 691.632 195.227 L 692.645 194.428 L 693.654 193.625 L 694.658 192.818 L 695.657 192.006 L 696.651 191.191 L 697.64 190.371 L 698.624 189.548 L 699.848 188.512 L 700.822 187.679 L 701.791 186.841 L 702.755 185.999 L 703.953 184.941 L 704.907 184.09 L 705.855 183.234 L 707.034 182.159 L 707.974 181.293 L 708.772 180.428 L 710.235 179.326 L 710.865 178.453 L 712.142 177.345 L 712.931 176.459 L 714.19 175.339 L 715.125 174.438 L 716.099 173.31 L 717.327 172.171 L 718.104 171.258 L 719.207 170.109 L 720.532 168.945 L 721.176 168.018 L 722.258 166.848 L 723.333 165.671 L 724.401 164.486 L 725.461 163.295 L 726.515 162.095 L 727.561 160.889 L 728.704 159.672 L 729.632 158.451 L 730.656 157.221 L 731.674 155.984 L 732.684 154.74 L 733.686 153.488 L 734.626 152.229 L 735.868 150.707 L 736.848 149.43 L 737.77 148.146 L 738.979 146.594 L 739.889 145.292 L 741.076 143.719 L 741.975 142.401 L 743.14 140.807 L 744.026 139.47 L 745.131 137.855 L 746.263 136.229 L 747.131 134.864 L 748.207 133.217 L 749.274 131.557 L 750.33 129.885 L 751.307 128.203 L 752.414 126.507 L 753.441 124.8 L 754.436 123.08 L 755.634 121.058 L 756.63 119.312 L 757.598 117.554 L 758.757 115.486 L 759.656 113.702 L 760.82 111.604 L 761.939 109.488 L 762.859 107.661 L 763.937 105.513 L 765.003 103.348 L 766.022 101.166 L 767.086 98.967 L 768.27 96.431 L 769.283 94.194 L 770.275 91.938 L 771.379 89.339 L 772.523 86.717 L 773.475 84.402 L 774.557 81.735 L 775.598 79.044 L 776.8 75.989 L 777.831 73.247 L 778.842 70.481 L 779.952 67.34 L 781.067 64.168 L 782.15 60.965 L 783.203 57.731 L 784.252 54.465 L 785.388 50.799 L 786.493 47.094 L 787.584 43.349 L 788.752 39.184 L 789.784 35.355 L 790.898 31.097 L 792.079 26.396 L 793.129 22.034 L 794.245 17.22 L 795.414 11.937 L 797.303 2.836 L 797.294 0.728 Z" vector-effect="non-scaling-stroke"/></g></svg>