<svg width="116.833" height="134.741" viewBox="0 0 116.833 134.741" xmlns="http://www.w3.org/2000/svg"><g id="svgGroup" stroke-linecap="round" fill-rule="evenodd" font-size="9pt" stroke="#000" stroke-width="0.25mm" fill="none" style="stroke:#000;stroke-width:0.25mm;fill:none"><path d="M 112.965 0 L 111.623 0.039 L 110.62 0.069 L 109.619 0.099 L 108.287 0.141 L 107.292 0.173 L 106.299 0.206 L 104.978 0.251 L 103.991 0.285 L 103.006 0.32 L 101.696 0.368 L 100.716 0.404 L 99.738 0.441 L 98.438 0.491 L 97.466 0.53 L 96.496 0.569 L 95.206 0.622 L 94.241 0.662 L 92.958 0.717 L 91.999 0.759 L 90.722 0.816 L 89.767 0.86 L 88.815 0.904 L 87.548 0.963 L 86.6 1.009 L 85.34 1.07 L 84.397 1.117 L 83.142 1.18 L 82.204 1.228 L 80.956 1.293 L 80.022 1.343 L 78.78 1.41 L 77.851 1.46 L 76.615 1.529 L 75.383 1.599 L 74.461 1.652 L 73.234 1.723 L 72.316 1.777 L 71.095 1.851 L 70.181 1.906 L 68.966 1.981 L 67.753 2.057 L 66.846 2.114 L 65.639 2.192 L 64.435 2.271 L 63.534 2.33 L 62.335 2.41 L 61.438 2.471 L 60.244 2.553 L 59.054 2.636 L 58.162 2.698 L 56.976 2.783 L 55.793 2.868 L 54.613 2.954 L 53.729 3.02 L 52.553 3.108 L 51.38 3.196 L 50.502 3.263 L 49.333 3.354 L 48.167 3.445 L 47.004 3.537 L 46.132 3.606 L 44.973 3.7 L 43.816 3.794 L 42.661 3.89 L 41.796 3.962 L 40.646 4.059 L 39.497 4.156 L 38.351 4.255 L 37.206 4.354 L 36.349 4.429 L 35.209 4.529 L 34.07 4.631 L 32.934 4.733 L 31.799 4.836 L 30.666 4.94 L 29.818 5.019 L 28.689 5.124 L 27.561 5.23 L 26.435 5.337 L 25.311 5.444 L 24.189 5.553 L 23.348 5.634 L 22.229 5.744 L 21.111 5.855 L 19.995 5.966 L 18.88 6.077 L 17.767 6.19 L 16.655 6.303 L 15.544 6.417 L 14.435 6.532 L 13.604 6.619 L 12.498 6.735 L 11.392 6.851 L 10.288 6.968 L 9.185 7.086 L 8.083 7.205 L 6.982 7.324 L 5.882 7.444 L 4.783 7.565 L 3.686 7.686 L 3.686 8.208 L 3.686 8.729 L 3.686 9.249 L 3.686 9.769 L 3.686 10.288 L 3.687 10.807 L 3.687 11.326 L 3.687 11.843 L 3.688 12.361 L 3.688 12.878 L 3.689 13.394 L 3.689 13.91 L 3.69 14.425 L 3.691 14.94 L 3.691 15.454 L 3.692 15.968 L 3.693 16.482 L 3.694 16.994 L 3.695 17.499 L 0 16.856 L 0.02 24.899 L 3.711 24.239 L 7.402 23.573 L 7.435 32.414 L 3.74 31.777 L 0.043 31.146 L 0.089 39.762 L 3.779 39.091 L 7.467 38.414 L 7.533 47.77 L 3.836 47.145 L 3.841 47.811 L 3.845 48.293 L 3.849 48.774 L 3.853 49.254 L 3.857 49.734 L 3.861 50.213 L 3.865 50.692 L 3.869 51.17 L 3.874 51.648 L 3.878 52.125 L 3.882 52.602 L 3.887 53.078 L 3.891 53.554 L 3.896 54.03 L 3.9 54.504 L 3.905 54.979 L 3.909 55.453 L 3.914 55.926 L 3.919 56.399 L 3.924 56.871 L 3.929 57.343 L 3.937 58.196 L 3.946 59.048 L 3.955 59.899 L 3.965 60.747 L 3.974 61.594 L 3.984 62.44 L 3.994 63.284 L 4.004 64.126 L 4.014 64.966 L 4.024 65.805 L 4.035 66.642 L 4.046 67.478 L 4.057 68.312 L 4.068 69.145 L 4.079 69.975 L 4.09 70.805 L 4.102 71.632 L 4.113 72.458 L 4.125 73.282 L 4.146 74.659 L 0.443 74.067 L 0.578 82.533 L 4.26 81.823 L 7.94 81.105 L 8.089 89.311 L 4.385 88.726 L 0.679 88.151 L 0.873 97.652 L 4.552 96.925 L 8.229 96.189 L 8.442 105.37 L 4.735 104.805 L 1.026 104.25 L 1.257 113.114 L 4.932 112.367 L 8.604 111.609 L 8.851 120.157 L 5.141 119.613 L 5.147 119.805 L 5.169 120.532 L 5.192 121.257 L 5.214 121.981 L 5.237 122.703 L 5.26 123.424 L 5.283 124.143 L 5.306 124.86 L 5.33 125.576 L 5.353 126.29 L 5.377 127.003 L 5.401 127.714 L 5.425 128.424 L 5.449 129.132 L 5.474 129.839 L 5.499 130.544 L 5.523 131.247 L 5.548 131.949 L 5.574 132.649 L 5.599 133.348 L 5.624 134.045 L 5.65 134.741 L 6.738 134.104 L 7.826 133.465 L 8.913 132.824 L 9.999 132.181 L 11.084 131.535 L 12.168 130.887 L 13.252 130.236 L 14.335 129.583 L 15.344 128.93 L 16.334 128.32 L 17.415 127.66 L 18.495 126.997 L 19.576 126.332 L 20.655 125.665 L 21.735 124.995 L 22.814 124.322 L 23.892 123.647 L 24.836 122.973 L 26.014 122.283 L 27.091 121.6 L 28.167 120.915 L 29.244 120.227 L 30.321 119.537 L 31.278 118.847 L 32.43 118.141 L 33.506 117.442 L 34.581 116.742 L 35.657 116.038 L 36.685 115.333 L 37.888 114.566 L 38.834 113.903 L 39.91 113.189 L 40.941 112.473 L 42.185 111.693 L 43.219 110.972 L 44.157 110.295 L 45.194 109.567 L 46.431 108.776 L 47.471 108.043 L 48.366 107.355 L 49.598 106.556 L 50.642 105.813 L 51.837 105.008 L 52.764 104.308 L 53.812 103.556 L 55.006 102.742 L 55.899 102.032 L 57.122 101.211 L 58.176 100.447 L 59.37 99.619 L 60.262 98.897 L 61.482 98.062 L 62.511 97.286 L 63.565 96.492 L 64.599 95.708 L 65.647 94.908 L 66.715 94.116 L 67.908 93.261 L 68.801 92.51 L 69.995 91.648 L 71.189 90.782 L 72.083 90.019 L 73.255 89.146 L 74.285 88.315 L 75.347 87.494 L 76.356 86.655 L 77.569 85.764 L 78.64 84.931 L 79.646 84.079 L 80.827 83.176 L 81.831 82.315 L 83.031 81.403 L 83.929 80.592 L 85.117 79.671 L 86.117 78.791 L 87.307 77.86 L 88.305 76.969 L 89.498 76.027 L 90.482 75.126 L 91.487 74.218 L 92.597 73.318 L 93.592 72.398 L 94.795 71.428 L 95.782 70.495 L 97.07 69.454 L 98.055 68.508 L 99.047 67.554 L 100.259 66.55 L 101.244 65.581 L 102.237 64.603 L 103.456 63.575 L 104.436 62.58 L 105.501 61.519 L 106.726 60.463 L 107.714 59.438 L 108.703 58.402 L 110.003 57.259 L 110.993 56.198 L 111.984 55.124 L 113.289 53.943 L 113.284 53.432 L 113.278 52.921 L 113.273 52.409 L 113.267 51.896 L 113.262 51.383 L 113.257 50.869 L 113.251 50.355 L 113.246 49.84 L 113.241 49.325 L 113.236 48.809 L 113.231 48.292 L 113.226 47.775 L 113.221 47.257 L 113.216 46.739 L 113.211 46.22 L 113.206 45.679 L 109.518 46.362 L 109.437 36.836 L 113.136 37.455 L 116.833 38.08 L 116.772 29.368 L 113.083 30.046 L 109.394 30.718 L 109.342 21.78 L 113.039 22.409 L 116.735 23.044 L 116.699 14.984 L 113.009 15.652 L 109.318 16.315 L 109.286 6.94 L 112.981 7.578 L 112.981 7.34 L 112.979 6.779 L 112.978 6.217 L 112.977 5.655 L 112.975 5.092 L 112.974 4.528 L 112.973 3.964 L 112.971 3.4 L 112.97 2.835 L 112.969 2.269 L 112.968 1.702 L 112.967 1.136 L 112.966 0.568 L 112.965 0 Z" vector-effect="non-scaling-stroke"/><g id="captions"><text alignment-baseline="middle" text-anchor="middle" transform="rotate(0,58.766,51.159)" x="58.766" y="51.159">WIND, 1, 0</text></g></g></svg>