<svg width="741.342" height="351.612" viewBox="0 0 741.342 351.612" xmlns="http://www.w3.org/2000/svg"><g id="svgGroup" stroke-linecap="round" fill-rule="evenodd" font-size="9pt" stroke="#000" stroke-width="0.25mm" fill="none" style="stroke:#000;stroke-width:0.25mm;fill:none"><path d="M 736.572 0 L 735.524 3.071 L 734.472 5.758 L 733.418 8.223 L 732.363 10.538 L 731.308 12.742 L 730.253 14.861 L 729.198 16.91 L 728.144 18.901 L 727.089 20.841 L 726.035 22.737 L 724.981 24.594 L 723.928 26.415 L 722.875 28.204 L 721.822 29.963 L 720.77 31.694 L 719.718 33.399 L 718.666 35.079 L 717.615 36.737 L 716.565 38.372 L 715.514 39.986 L 714.465 41.58 L 713.415 43.155 L 712.366 44.711 L 711.318 46.25 L 710.269 47.771 L 709.222 49.275 L 708.174 50.763 L 707.127 52.235 L 706.08 53.692 L 705.034 55.133 L 703.988 56.56 L 702.942 57.973 L 701.897 59.372 L 700.852 60.757 L 699.808 62.129 L 698.763 63.488 L 697.719 64.834 L 696.676 66.167 L 695.632 67.488 L 694.589 68.797 L 693.547 70.094 L 692.504 71.38 L 691.462 72.654 L 690.42 73.916 L 689.379 75.168 L 688.337 76.409 L 687.296 77.638 L 686.256 78.858 L 685.215 80.067 L 684.175 81.265 L 683.135 82.454 L 682.096 83.632 L 681.056 84.801 L 680.017 85.96 L 678.978 87.11 L 677.939 88.25 L 676.901 89.38 L 675.863 90.502 L 674.825 91.614 L 673.787 92.718 L 672.75 93.813 L 671.712 94.899 L 670.675 95.976 L 669.638 97.045 L 668.602 98.105 L 667.565 99.157 L 666.529 100.201 L 665.493 101.237 L 664.457 102.265 L 663.421 103.285 L 662.386 104.297 L 661.351 105.302 L 660.316 106.298 L 659.281 107.287 L 658.246 108.269 L 657.211 109.243 L 656.177 110.21 L 655.143 111.17 L 654.109 112.123 L 653.075 113.068 L 652.041 114.007 L 651.008 114.938 L 649.975 115.863 L 648.941 116.781 L 647.908 117.692 L 646.876 118.596 L 645.843 119.494 L 644.81 120.386 L 643.778 121.271 L 642.746 122.149 L 641.714 123.021 L 640.682 123.887 L 639.65 124.747 L 638.618 125.601 L 637.587 126.448 L 636.556 127.29 L 635.524 128.126 L 634.493 128.955 L 633.462 129.779 L 632.432 130.597 L 631.401 131.41 L 630.37 132.216 L 629.34 133.017 L 628.31 133.813 L 627.28 134.603 L 626.25 135.387 L 625.22 136.166 L 624.19 136.94 L 623.16 137.708 L 622.131 138.471 L 621.101 139.229 L 620.072 139.982 L 619.043 140.729 L 618.014 141.472 L 616.985 142.209 L 615.956 142.942 L 614.927 143.669 L 613.899 144.392 L 612.87 145.11 L 611.842 145.823 L 610.814 146.531 L 609.786 147.234 L 608.758 147.933 L 607.73 148.627 L 606.702 149.317 L 605.674 150.002 L 604.647 150.682 L 603.619 151.359 L 602.592 152.03 L 601.565 152.697 L 600.537 153.36 L 599.51 154.019 L 598.483 154.673 L 597.456 155.323 L 596.43 155.969 L 595.403 156.61 L 594.376 157.248 L 593.35 157.881 L 592.324 158.51 L 591.297 159.136 L 590.271 159.757 L 589.245 160.374 L 588.219 160.988 L 587.193 161.597 L 586.167 162.203 L 585.141 162.805 L 584.116 163.403 L 583.09 163.997 L 582.065 164.588 L 581.039 165.175 L 580.014 165.758 L 578.989 166.338 L 577.964 166.914 L 576.939 167.487 L 575.914 168.056 L 574.889 168.621 L 573.864 169.183 L 572.84 169.742 L 571.815 170.297 L 570.791 170.849 L 569.766 171.398 L 568.742 171.943 L 567.718 172.485 L 566.693 173.024 L 565.669 173.559 L 564.645 174.092 L 563.621 174.621 L 562.598 175.147 L 561.574 175.67 L 560.55 176.19 L 559.527 176.707 L 558.503 177.22 L 557.48 177.731 L 556.456 178.239 L 555.433 178.744 L 554.41 179.246 L 553.387 179.745 L 552.364 180.242 L 551.341 180.735 L 550.318 181.226 L 549.295 181.714 L 548.272 182.199 L 547.249 182.682 L 546.227 183.161 L 545.204 183.638 L 544.182 184.113 L 543.159 184.585 L 542.137 185.054 L 541.115 185.521 L 540.093 185.985 L 539.071 186.447 L 538.049 186.906 L 537.027 187.362 L 536.005 187.817 L 534.983 188.269 L 533.961 188.718 L 532.94 189.165 L 531.918 189.61 L 530.896 190.052 L 529.875 190.492 L 528.854 190.93 L 527.832 191.366 L 526.811 191.799 L 525.79 192.23 L 524.769 192.659 L 523.747 193.086 L 522.726 193.51 L 521.705 193.933 L 520.685 194.353 L 519.664 194.771 L 518.643 195.188 L 517.622 195.602 L 516.602 196.014 L 515.581 196.424 L 514.56 196.832 L 513.54 197.239 L 512.519 197.643 L 511.499 198.045 L 510.479 198.446 L 509.458 198.845 L 508.438 199.241 L 507.418 199.636 L 506.398 200.029 L 505.378 200.421 L 504.358 200.81 L 503.338 201.198 L 502.318 201.584 L 501.298 201.968 L 500.278 202.351 L 499.258 202.732 L 498.239 203.111 L 497.219 203.489 L 496.199 203.865 L 495.18 204.239 L 494.16 204.612 L 493.141 204.983 L 492.121 205.352 L 491.102 205.72 L 490.082 206.087 L 489.063 206.452 L 488.044 206.815 L 487.024 207.177 L 486.005 207.538 L 484.986 207.897 L 483.967 208.254 L 482.948 208.61 L 481.929 208.965 L 480.91 209.318 L 479.891 209.67 L 478.871 210.021 L 477.853 210.37 L 476.834 210.718 L 475.815 211.065 L 474.796 211.41 L 473.777 211.754 L 472.758 212.097 L 471.739 212.438 L 470.72 212.778 L 469.702 213.117 L 468.683 213.455 L 467.664 213.791 L 466.646 214.127 L 465.627 214.461 L 464.608 214.794 L 463.59 215.125 L 462.571 215.456 L 461.552 215.785 L 460.534 216.114 L 459.515 216.441 L 458.497 216.767 L 457.478 217.092 L 456.46 217.416 L 455.441 217.739 L 454.423 218.06 L 453.404 218.381 L 452.386 218.701 L 451.367 219.019 L 450.349 219.337 L 449.33 219.654 L 448.312 219.969 L 447.293 220.284 L 446.275 220.597 L 445.257 220.91 L 444.238 221.222 L 443.22 221.533 L 442.201 221.842 L 441.183 222.151 L 440.165 222.459 L 439.146 222.766 L 438.128 223.072 L 437.109 223.378 L 436.091 223.682 L 435.073 223.986 L 434.054 224.288 L 433.036 224.59 L 432.017 224.891 L 430.999 225.191 L 429.98 225.49 L 428.962 225.789 L 427.944 226.086 L 426.925 226.383 L 425.907 226.679 L 424.888 226.974 L 423.87 227.268 L 422.851 227.562 L 421.833 227.855 L 420.814 228.147 L 419.796 228.438 L 418.777 228.729 L 417.759 229.018 L 416.74 229.308 L 415.721 229.596 L 414.703 229.883 L 413.684 230.17 L 412.666 230.456 L 411.647 230.742 L 410.628 231.027 L 409.61 231.311 L 408.591 231.594 L 407.572 231.877 L 406.553 232.159 L 405.535 232.44 L 404.516 232.721 L 403.497 233.001 L 402.478 233.28 L 401.459 233.559 L 400.44 233.837 L 399.422 234.115 L 398.403 234.391 L 397.384 234.668 L 396.365 234.943 L 395.346 235.218 L 394.327 235.493 L 393.308 235.766 L 392.289 236.04 L 391.27 236.312 L 390.25 236.584 L 389.231 236.856 L 388.212 237.126 L 387.193 237.397 L 386.174 237.666 L 385.154 237.935 L 384.135 238.204 L 383.116 238.472 L 382.096 238.739 L 381.077 239.006 L 380.058 239.273 L 379.038 239.539 L 378.019 239.804 L 376.999 240.069 L 375.98 240.333 L 374.96 240.596 L 373.94 240.86 L 372.921 241.122 L 371.901 241.385 L 370.881 241.646 L 369.862 241.907 L 368.842 242.168 L 367.822 242.428 L 366.802 242.688 L 365.782 242.947 L 364.762 243.206 L 363.742 243.464 L 362.722 243.722 L 361.702 243.979 L 360.682 244.236 L 359.662 244.492 L 358.642 244.748 L 357.622 245.003 L 356.601 245.258 L 355.581 245.513 L 354.561 245.767 L 353.54 246.021 L 352.52 246.274 L 351.5 246.527 L 350.479 246.779 L 349.459 247.031 L 348.438 247.282 L 347.417 247.533 L 346.397 247.784 L 345.376 248.034 L 344.355 248.283 L 343.335 248.533 L 342.314 248.782 L 341.293 249.03 L 340.272 249.278 L 339.251 249.526 L 338.23 249.773 L 337.209 250.02 L 336.188 250.266 L 335.167 250.512 L 334.146 250.758 L 333.125 251.003 L 332.103 251.248 L 331.082 251.493 L 330.061 251.737 L 329.039 251.981 L 328.018 252.224 L 326.997 252.467 L 325.975 252.71 L 324.954 252.952 L 323.932 253.194 L 322.91 253.435 L 321.889 253.676 L 320.867 253.917 L 319.845 254.157 L 318.823 254.397 L 317.802 254.637 L 316.78 254.876 L 315.758 255.115 L 314.736 255.354 L 313.714 255.592 L 312.692 255.83 L 311.669 256.068 L 310.647 256.305 L 309.625 256.542 L 308.603 256.778 L 307.581 257.015 L 306.558 257.25 L 305.536 257.486 L 304.513 257.721 L 303.491 257.956 L 302.468 258.191 L 301.446 258.425 L 300.423 258.659 L 299.4 258.892 L 298.378 259.125 L 297.355 259.358 L 296.332 259.591 L 295.309 259.823 L 294.286 260.055 L 293.263 260.287 L 292.24 260.518 L 291.217 260.749 L 290.194 260.98 L 289.171 261.211 L 288.148 261.441 L 287.125 261.67 L 286.101 261.9 L 285.078 262.129 L 284.055 262.358 L 283.031 262.587 L 282.008 262.815 L 280.984 263.043 L 279.961 263.271 L 278.937 263.498 L 277.913 263.725 L 276.89 263.952 L 275.866 264.179 L 274.842 264.405 L 273.818 264.631 L 272.794 264.857 L 271.77 265.082 L 270.746 265.307 L 269.722 265.532 L 268.698 265.757 L 267.674 265.981 L 266.65 266.205 L 265.626 266.429 L 264.602 266.653 L 263.577 266.876 L 262.553 267.099 L 261.528 267.321 L 260.504 267.544 L 259.479 267.766 L 258.455 267.988 L 257.43 268.209 L 256.406 268.431 L 255.381 268.652 L 254.356 268.873 L 253.331 269.093 L 252.307 269.314 L 251.282 269.534 L 250.257 269.754 L 249.232 269.973 L 248.207 270.192 L 247.182 270.411 L 246.157 270.63 L 245.132 270.849 L 244.106 271.067 L 243.081 271.285 L 242.056 271.503 L 241.03 271.72 L 240.005 271.938 L 238.98 272.155 L 237.954 272.372 L 236.929 272.588 L 235.903 272.805 L 234.878 273.021 L 233.852 273.236 L 232.826 273.452 L 231.8 273.667 L 230.775 273.883 L 229.749 274.097 L 228.723 274.312 L 227.697 274.527 L 226.671 274.741 L 225.645 274.955 L 224.619 275.168 L 223.593 275.382 L 222.567 275.595 L 221.54 275.808 L 220.514 276.021 L 219.488 276.234 L 218.462 276.446 L 217.435 276.658 L 216.409 276.87 L 215.382 277.082 L 214.356 277.293 L 213.329 277.505 L 212.303 277.716 L 211.276 277.926 L 210.249 278.137 L 209.223 278.347 L 208.196 278.558 L 207.169 278.768 L 206.142 278.977 L 205.115 279.187 L 204.088 279.396 L 203.061 279.605 L 202.034 279.814 L 201.007 280.023 L 199.98 280.231 L 198.953 280.44 L 197.926 280.648 L 196.898 280.855 L 195.871 281.063 L 194.844 281.27 L 193.816 281.478 L 192.789 281.685 L 191.762 281.891 L 190.734 282.098 L 189.706 282.304 L 188.679 282.511 L 187.651 282.717 L 186.624 282.922 L 185.596 283.128 L 184.568 283.333 L 183.54 283.539 L 182.512 283.744 L 181.485 283.948 L 180.457 284.153 L 179.429 284.357 L 178.401 284.562 L 177.373 284.766 L 176.344 284.969 L 175.316 285.173 L 174.288 285.377 L 173.26 285.58 L 172.232 285.783 L 171.203 285.986 L 170.175 286.188 L 169.147 286.391 L 168.118 286.593 L 167.09 286.795 L 166.061 286.997 L 165.033 287.199 L 164.004 287.4 L 162.975 287.602 L 161.947 287.803 L 160.918 288.004 L 159.889 288.205 L 158.86 288.405 L 157.832 288.606 L 156.803 288.806 L 155.774 289.006 L 154.745 289.206 L 153.716 289.406 L 152.687 289.605 L 151.658 289.805 L 150.629 290.004 L 149.6 290.203 L 148.57 290.402 L 147.541 290.6 L 146.512 290.799 L 145.483 290.997 L 144.453 291.195 L 143.424 291.393 L 142.394 291.591 L 141.365 291.789 L 140.336 291.986 L 139.306 292.183 L 138.276 292.38 L 137.247 292.577 L 136.217 292.774 L 135.187 292.971 L 134.158 293.167 L 133.128 293.363 L 132.098 293.559 L 131.068 293.755 L 130.038 293.951 L 129.009 294.146 L 127.979 294.342 L 126.949 294.537 L 125.919 294.732 L 124.888 294.927 L 123.858 295.122 L 122.828 295.316 L 121.798 295.511 L 120.768 295.705 L 119.738 295.899 L 118.707 296.093 L 117.677 296.287 L 116.647 296.48 L 115.616 296.674 L 114.586 296.867 L 113.555 297.06 L 112.525 297.253 L 111.494 297.446 L 110.464 297.638 L 109.433 297.831 L 108.402 298.023 L 107.372 298.215 L 106.341 298.407 L 105.31 298.599 L 104.28 298.791 L 103.249 298.982 L 102.218 299.174 L 101.187 299.365 L 100.156 299.556 L 99.125 299.747 L 98.094 299.938 L 97.063 300.128 L 96.032 300.319 L 95.001 300.509 L 93.97 300.699 L 92.939 300.889 L 91.907 301.079 L 90.876 301.268 L 89.845 301.458 L 88.813 301.647 L 87.782 301.837 L 86.751 302.026 L 85.719 302.215 L 84.688 302.403 L 83.656 302.592 L 82.625 302.78 L 81.593 302.969 L 80.562 303.157 L 79.53 303.345 L 78.498 303.533 L 77.467 303.721 L 76.435 303.908 L 75.403 304.096 L 74.372 304.283 L 73.34 304.47 L 72.308 304.657 L 71.276 304.844 L 70.244 305.031 L 69.212 305.217 L 68.18 305.404 L 67.148 305.59 L 66.116 305.776 L 65.084 305.962 L 64.052 306.148 L 63.02 306.334 L 61.988 306.519 L 60.955 306.705 L 59.923 306.89 L 58.891 307.075 L 57.859 307.26 L 56.826 307.445 L 55.794 307.63 L 54.761 307.814 L 53.729 307.999 L 52.697 308.183 L 51.664 308.367 L 50.631 308.551 L 49.599 308.735 L 48.566 308.919 L 47.534 309.102 L 46.501 309.286 L 45.468 309.469 L 44.436 309.652 L 43.403 309.835 L 42.37 310.018 L 41.337 310.201 L 40.304 310.384 L 39.272 310.566 L 38.239 310.749 L 37.206 310.931 L 36.173 311.113 L 35.14 311.295 L 34.107 311.477 L 33.074 311.658 L 32.041 311.84 L 31.007 312.021 L 29.974 312.203 L 28.941 312.384 L 27.908 312.565 L 26.875 312.746 L 25.841 312.926 L 24.808 313.107 L 23.775 313.288 L 22.741 313.468 L 21.708 313.648 L 20.675 313.828 L 19.641 314.008 L 18.608 314.188 L 17.574 314.368 L 16.541 314.547 L 15.507 314.727 L 14.473 314.906 L 13.44 315.085 L 12.406 315.264 L 11.372 315.443 L 10.339 315.622 L 9.305 315.8 L 8.271 315.979 L 7.237 316.157 L 6.204 316.335 L 5.17 316.514 L 4.136 316.692 L 3.102 316.869 L 2.068 317.047 L 1.034 317.225 L 0 317.402 L 8.311 351.612 L 9.328 351.365 L 10.345 351.117 L 11.362 350.869 L 12.379 350.622 L 13.396 350.374 L 14.413 350.127 L 15.429 349.879 L 16.446 349.632 L 17.463 349.384 L 18.48 349.137 L 19.497 348.889 L 20.514 348.642 L 21.531 348.394 L 22.547 348.147 L 23.564 347.899 L 24.581 347.652 L 25.598 347.404 L 26.615 347.157 L 27.632 346.909 L 28.649 346.662 L 29.665 346.414 L 30.682 346.166 L 31.699 345.919 L 32.716 345.671 L 33.733 345.424 L 34.75 345.176 L 35.767 344.929 L 36.784 344.681 L 37.8 344.434 L 38.817 344.186 L 39.834 343.939 L 40.851 343.691 L 41.868 343.444 L 42.885 343.196 L 43.902 342.949 L 44.918 342.701 L 45.935 342.453 L 46.952 342.206 L 47.969 341.958 L 48.986 341.711 L 50.003 341.463 L 51.02 341.216 L 52.036 340.968 L 53.053 340.721 L 54.07 340.473 L 55.087 340.226 L 56.104 339.978 L 57.121 339.731 L 58.138 339.483 L 59.154 339.235 L 60.171 338.988 L 61.188 338.74 L 62.205 338.493 L 63.222 338.245 L 64.239 337.998 L 65.256 337.75 L 66.273 337.503 L 67.289 337.255 L 68.306 337.007 L 69.323 336.76 L 70.34 336.512 L 71.357 336.265 L 72.374 336.017 L 73.391 335.77 L 74.407 335.522 L 75.424 335.275 L 76.441 335.027 L 77.458 334.779 L 78.475 334.532 L 79.492 334.284 L 80.508 334.037 L 81.525 333.789 L 82.542 333.542 L 83.559 333.294 L 84.576 333.046 L 85.593 332.799 L 86.61 332.551 L 87.626 332.304 L 88.643 332.056 L 89.66 331.808 L 90.677 331.561 L 91.694 331.313 L 92.711 331.066 L 93.728 330.818 L 94.744 330.57 L 95.761 330.323 L 96.778 330.075 L 97.795 329.828 L 98.812 329.58 L 99.829 329.332 L 100.845 329.085 L 101.862 328.837 L 102.879 328.59 L 103.896 328.342 L 104.913 328.094 L 105.93 327.847 L 106.947 327.599 L 107.963 327.351 L 108.98 327.104 L 109.997 326.856 L 111.014 326.608 L 112.031 326.361 L 113.048 326.113 L 114.064 325.865 L 115.081 325.618 L 116.098 325.37 L 117.115 325.122 L 118.132 324.875 L 119.149 324.627 L 120.165 324.379 L 121.182 324.132 L 122.199 323.884 L 123.216 323.636 L 124.233 323.389 L 125.25 323.141 L 126.266 322.893 L 127.283 322.646 L 128.3 322.398 L 129.317 322.15 L 130.334 321.902 L 131.351 321.655 L 132.367 321.407 L 133.384 321.159 L 134.401 320.912 L 135.418 320.664 L 136.435 320.416 L 137.452 320.168 L 138.468 319.921 L 139.485 319.673 L 140.502 319.425 L 141.519 319.177 L 142.536 318.929 L 143.552 318.682 L 144.569 318.434 L 145.586 318.186 L 146.603 317.938 L 147.62 317.69 L 148.637 317.443 L 149.653 317.195 L 150.67 316.947 L 151.687 316.699 L 152.704 316.451 L 153.721 316.203 L 154.737 315.956 L 155.754 315.708 L 156.771 315.46 L 157.788 315.212 L 158.805 314.964 L 159.821 314.716 L 160.838 314.468 L 161.855 314.22 L 162.872 313.972 L 163.889 313.724 L 164.905 313.476 L 165.922 313.229 L 166.939 312.981 L 167.956 312.733 L 168.973 312.485 L 169.989 312.237 L 171.006 311.989 L 172.023 311.741 L 173.04 311.493 L 174.056 311.245 L 175.073 310.997 L 176.09 310.749 L 177.107 310.501 L 178.124 310.252 L 179.14 310.004 L 180.157 309.756 L 181.174 309.508 L 182.191 309.26 L 183.207 309.012 L 184.224 308.764 L 185.241 308.516 L 186.258 308.268 L 187.275 308.019 L 188.291 307.771 L 189.308 307.523 L 190.325 307.275 L 191.342 307.027 L 192.358 306.778 L 193.375 306.53 L 194.392 306.282 L 195.409 306.034 L 196.425 305.785 L 197.442 305.537 L 198.459 305.289 L 199.476 305.04 L 200.492 304.792 L 201.509 304.544 L 202.526 304.295 L 203.543 304.047 L 204.559 303.799 L 205.576 303.55 L 206.593 303.302 L 207.61 303.053 L 208.626 302.805 L 209.643 302.556 L 210.66 302.308 L 211.677 302.059 L 212.693 301.811 L 213.71 301.562 L 214.727 301.314 L 215.743 301.065 L 216.76 300.817 L 217.777 300.568 L 218.794 300.319 L 219.81 300.071 L 220.827 299.822 L 221.844 299.573 L 222.86 299.324 L 223.877 299.076 L 224.894 298.827 L 225.911 298.578 L 226.927 298.329 L 227.944 298.081 L 228.961 297.832 L 229.977 297.583 L 230.994 297.334 L 232.011 297.085 L 233.027 296.836 L 234.044 296.587 L 235.061 296.338 L 236.078 296.089 L 237.094 295.84 L 238.111 295.591 L 239.128 295.342 L 240.144 295.093 L 241.161 294.844 L 242.178 294.594 L 243.194 294.345 L 244.211 294.096 L 245.228 293.847 L 246.244 293.598 L 247.261 293.348 L 248.278 293.099 L 249.294 292.849 L 250.311 292.6 L 251.328 292.351 L 252.344 292.101 L 253.361 291.852 L 254.378 291.602 L 255.394 291.353 L 256.411 291.103 L 257.427 290.853 L 258.444 290.604 L 259.461 290.354 L 260.477 290.104 L 261.494 289.855 L 262.511 289.605 L 263.527 289.355 L 264.544 289.105 L 265.56 288.855 L 266.577 288.605 L 267.594 288.355 L 268.61 288.105 L 269.627 287.855 L 270.644 287.605 L 271.66 287.355 L 272.677 287.105 L 273.693 286.854 L 274.71 286.604 L 275.727 286.354 L 276.743 286.104 L 277.76 285.853 L 278.776 285.603 L 279.793 285.352 L 280.81 285.102 L 281.826 284.851 L 282.843 284.6 L 283.859 284.35 L 284.876 284.099 L 285.892 283.848 L 286.909 283.598 L 287.926 283.347 L 288.942 283.096 L 289.959 282.845 L 290.975 282.594 L 291.992 282.343 L 293.008 282.092 L 294.025 281.84 L 295.042 281.589 L 296.058 281.338 L 297.075 281.086 L 298.091 280.835 L 299.108 280.584 L 300.124 280.332 L 301.141 280.08 L 302.157 279.829 L 303.174 279.577 L 304.19 279.325 L 305.207 279.073 L 306.223 278.821 L 307.24 278.57 L 308.256 278.317 L 309.273 278.065 L 310.29 277.813 L 311.306 277.561 L 312.323 277.309 L 313.339 277.056 L 314.356 276.804 L 315.372 276.551 L 316.389 276.299 L 317.405 276.046 L 318.422 275.793 L 319.438 275.54 L 320.455 275.288 L 321.471 275.035 L 322.487 274.781 L 323.504 274.528 L 324.52 274.275 L 325.537 274.022 L 326.553 273.768 L 327.57 273.515 L 328.586 273.261 L 329.603 273.008 L 330.619 272.754 L 331.636 272.5 L 332.652 272.246 L 333.669 271.992 L 334.685 271.738 L 335.702 271.484 L 336.718 271.23 L 337.734 270.975 L 338.751 270.721 L 339.767 270.466 L 340.784 270.211 L 341.8 269.957 L 342.817 269.702 L 343.833 269.447 L 344.85 269.191 L 345.866 268.936 L 346.882 268.681 L 347.899 268.425 L 348.915 268.17 L 349.932 267.914 L 350.948 267.658 L 351.964 267.403 L 352.981 267.146 L 353.997 266.89 L 355.014 266.634 L 356.03 266.378 L 357.047 266.121 L 358.063 265.864 L 359.079 265.608 L 360.096 265.351 L 361.112 265.094 L 362.129 264.837 L 363.145 264.579 L 364.161 264.322 L 365.178 264.064 L 366.194 263.806 L 367.21 263.549 L 368.227 263.291 L 369.243 263.032 L 370.26 262.774 L 371.276 262.516 L 372.292 262.257 L 373.309 261.998 L 374.325 261.739 L 375.341 261.48 L 376.358 261.221 L 377.374 260.961 L 378.391 260.702 L 379.407 260.442 L 380.423 260.182 L 381.44 259.922 L 382.456 259.662 L 383.472 259.401 L 384.489 259.141 L 385.505 258.88 L 386.521 258.619 L 387.538 258.358 L 388.554 258.096 L 389.571 257.835 L 390.587 257.573 L 391.603 257.311 L 392.62 257.049 L 393.636 256.787 L 394.652 256.524 L 395.669 256.261 L 396.685 255.998 L 397.701 255.735 L 398.718 255.472 L 399.734 255.208 L 400.75 254.944 L 401.767 254.68 L 402.783 254.416 L 403.799 254.151 L 404.816 253.887 L 405.832 253.622 L 406.848 253.356 L 407.865 253.091 L 408.881 252.825 L 409.897 252.559 L 410.914 252.293 L 411.93 252.026 L 412.946 251.76 L 413.963 251.493 L 414.979 251.225 L 415.996 250.958 L 417.012 250.69 L 418.028 250.422 L 419.045 250.153 L 420.061 249.885 L 421.077 249.616 L 422.094 249.346 L 423.11 249.077 L 424.126 248.807 L 425.143 248.537 L 426.159 248.266 L 427.175 247.996 L 428.192 247.725 L 429.208 247.453 L 430.224 247.181 L 431.241 246.909 L 432.257 246.637 L 433.274 246.364 L 434.29 246.091 L 435.306 245.818 L 436.323 245.544 L 437.339 245.27 L 438.355 244.995 L 439.372 244.72 L 440.388 244.445 L 441.405 244.169 L 442.421 243.893 L 443.437 243.617 L 444.454 243.34 L 445.47 243.063 L 446.486 242.785 L 447.503 242.507 L 448.519 242.229 L 449.536 241.95 L 450.552 241.671 L 451.568 241.391 L 452.585 241.111 L 453.601 240.83 L 454.618 240.549 L 455.634 240.268 L 456.651 239.986 L 457.667 239.703 L 458.683 239.421 L 459.7 239.137 L 460.716 238.853 L 461.733 238.569 L 462.749 238.284 L 463.766 237.999 L 464.782 237.713 L 465.799 237.427 L 466.815 237.14 L 467.832 236.852 L 468.848 236.564 L 469.865 236.276 L 470.881 235.987 L 471.898 235.697 L 472.914 235.407 L 473.931 235.116 L 474.947 234.824 L 475.964 234.532 L 476.98 234.24 L 477.997 233.947 L 479.013 233.653 L 480.03 233.358 L 481.046 233.063 L 482.063 232.768 L 483.079 232.471 L 484.096 232.174 L 485.113 231.877 L 486.129 231.578 L 487.146 231.279 L 488.162 230.979 L 489.179 230.679 L 490.196 230.378 L 491.212 230.076 L 492.229 229.773 L 493.245 229.47 L 494.262 229.166 L 495.279 228.861 L 496.295 228.555 L 497.312 228.249 L 498.329 227.941 L 499.346 227.633 L 500.362 227.324 L 501.379 227.015 L 502.396 226.704 L 503.412 226.393 L 504.429 226.08 L 505.446 225.767 L 506.463 225.453 L 507.479 225.138 L 508.496 224.822 L 509.513 224.506 L 510.53 224.188 L 511.547 223.869 L 512.563 223.55 L 513.58 223.229 L 514.597 222.907 L 515.614 222.585 L 516.631 222.261 L 517.648 221.937 L 518.664 221.611 L 519.681 221.284 L 520.698 220.956 L 521.715 220.628 L 522.732 220.298 L 523.749 219.967 L 524.766 219.634 L 525.783 219.301 L 526.8 218.967 L 527.817 218.631 L 528.834 218.294 L 529.851 217.956 L 530.868 217.617 L 531.885 217.276 L 532.902 216.935 L 533.919 216.591 L 534.936 216.247 L 535.953 215.902 L 536.97 215.555 L 537.987 215.206 L 539.004 214.857 L 540.022 214.506 L 541.039 214.153 L 542.056 213.8 L 543.073 213.444 L 544.09 213.088 L 545.107 212.73 L 546.125 212.37 L 547.142 212.009 L 548.159 211.646 L 549.176 211.282 L 550.193 210.916 L 551.211 210.549 L 552.228 210.18 L 553.245 209.809 L 554.263 209.437 L 555.28 209.063 L 556.297 208.687 L 557.315 208.31 L 558.332 207.931 L 559.349 207.55 L 560.367 207.167 L 561.384 206.783 L 562.402 206.397 L 563.419 206.009 L 564.437 205.619 L 565.454 205.227 L 566.471 204.833 L 567.489 204.437 L 568.506 204.039 L 569.524 203.639 L 570.542 203.237 L 571.559 202.833 L 572.577 202.427 L 573.594 202.019 L 574.612 201.609 L 575.629 201.197 L 576.647 200.782 L 577.665 200.365 L 578.682 199.946 L 579.7 199.524 L 580.718 199.101 L 581.735 198.674 L 582.753 198.246 L 583.771 197.815 L 584.789 197.381 L 585.806 196.946 L 586.824 196.507 L 587.842 196.066 L 588.86 195.623 L 589.878 195.177 L 590.895 194.728 L 591.913 194.276 L 592.931 193.822 L 593.949 193.365 L 594.967 192.905 L 595.985 192.443 L 597.003 191.977 L 598.021 191.509 L 599.039 191.037 L 600.057 190.563 L 601.075 190.085 L 602.093 189.605 L 603.111 189.121 L 604.129 188.635 L 605.147 188.145 L 606.165 187.652 L 607.183 187.155 L 608.201 186.655 L 609.219 186.152 L 610.238 185.645 L 611.256 185.135 L 612.274 184.622 L 613.292 184.105 L 614.31 183.584 L 615.329 183.059 L 616.347 182.531 L 617.365 181.999 L 618.384 181.464 L 619.402 180.924 L 620.42 180.38 L 621.439 179.833 L 622.457 179.281 L 623.475 178.726 L 624.494 178.166 L 625.512 177.602 L 626.531 177.034 L 627.549 176.461 L 628.568 175.884 L 629.586 175.303 L 630.605 174.717 L 631.623 174.126 L 632.642 173.531 L 633.66 172.931 L 634.679 172.326 L 635.698 171.717 L 636.716 171.102 L 637.735 170.483 L 638.754 169.858 L 639.772 169.228 L 640.791 168.594 L 641.81 167.953 L 642.829 167.308 L 643.848 166.657 L 644.867 166 L 645.885 165.338 L 646.904 164.67 L 647.923 163.996 L 648.942 163.317 L 649.961 162.631 L 650.98 161.94 L 651.999 161.242 L 653.018 160.538 L 654.038 159.827 L 655.057 159.111 L 656.076 158.387 L 657.095 157.657 L 658.114 156.92 L 659.134 156.177 L 660.153 155.426 L 661.172 154.668 L 662.192 153.903 L 663.211 153.131 L 664.231 152.351 L 665.25 151.564 L 666.27 150.769 L 667.289 149.966 L 668.309 149.155 L 669.328 148.336 L 670.348 147.509 L 671.368 146.673 L 672.388 145.829 L 673.408 144.976 L 674.427 144.115 L 675.447 143.244 L 676.467 142.365 L 677.487 141.476 L 678.508 140.577 L 679.528 139.669 L 680.548 138.751 L 681.568 137.823 L 682.589 136.885 L 683.609 135.937 L 684.629 134.978 L 685.65 134.008 L 686.67 133.027 L 687.691 132.035 L 688.712 131.032 L 689.733 130.017 L 690.754 128.99 L 691.775 127.951 L 692.796 126.899 L 693.817 125.835 L 694.838 124.759 L 695.859 123.669 L 696.881 122.565 L 697.902 121.448 L 698.924 120.317 L 699.945 119.172 L 700.967 118.012 L 701.989 116.837 L 703.011 115.647 L 704.033 114.442 L 705.055 113.22 L 706.078 111.983 L 707.1 110.728 L 708.123 109.456 L 709.146 108.167 L 710.169 106.86 L 711.192 105.535 L 712.215 104.191 L 713.238 102.827 L 714.262 101.444 L 715.286 100.041 L 716.31 98.617 L 717.334 97.171 L 718.358 95.704 L 719.382 94.214 L 720.407 92.701 L 721.432 91.164 L 722.457 89.603 L 723.483 88.016 L 724.508 86.404 L 725.534 84.765 L 726.56 83.099 L 727.587 81.404 L 728.613 79.681 L 729.64 77.927 L 730.668 76.142 L 731.695 74.325 L 732.723 72.475 L 733.752 70.591 L 734.781 68.671 L 735.81 66.715 L 736.839 64.721 L 737.869 62.687 L 737.868 62.631 L 737.866 62.574 L 737.865 62.518 L 737.863 62.462 L 737.862 62.405 L 737.86 62.349 L 737.858 62.292 L 737.857 62.236 L 737.855 62.18 L 737.854 62.123 L 737.852 62.067 L 737.851 62.01 L 737.849 61.954 L 737.847 61.897 L 737.846 61.841 L 737.844 61.784 L 737.843 61.727 L 737.841 61.671 L 737.84 61.614 L 737.838 61.558 L 737.836 61.501 L 737.835 61.445 L 737.833 61.388 L 737.832 61.331 L 737.83 61.275 L 737.829 61.218 L 737.827 61.161 L 737.826 61.105 L 737.824 61.048 L 737.822 60.991 L 737.821 60.934 L 737.819 60.878 L 737.818 60.821 L 737.816 60.764 L 737.815 60.707 L 737.813 60.651 L 737.812 60.594 L 737.81 60.537 L 737.808 60.48 L 737.807 60.423 L 737.805 60.366 L 737.804 60.31 L 737.802 60.253 L 737.801 60.196 L 737.799 60.139 L 737.798 60.082 L 737.796 60.025 L 737.795 59.968 L 737.793 59.911 L 737.791 59.854 L 737.79 59.797 L 737.788 59.74 L 737.787 59.683 L 737.785 59.626 L 737.784 59.569 L 737.782 59.512 L 737.781 59.455 L 737.779 59.398 L 737.778 59.341 L 737.776 59.284 L 737.774 59.227 L 737.773 59.169 L 737.771 59.112 L 737.77 59.055 L 737.768 58.998 L 737.767 58.941 L 737.765 58.884 L 737.764 58.826 L 737.762 58.769 L 737.761 58.712 L 737.759 58.655 L 737.758 58.597 L 737.756 58.54 L 737.754 58.483 L 737.753 58.426 L 737.751 58.368 L 737.75 58.311 L 737.748 58.254 L 737.747 58.196 L 737.745 58.139 L 737.744 58.082 L 737.742 58.024 L 737.741 57.967 L 737.739 57.909 L 737.738 57.852 L 737.736 57.795 L 737.735 57.737 L 737.733 57.68 L 737.732 57.622 L 737.73 57.565 L 737.728 57.507 L 737.727 57.45 L 737.725 57.392 L 737.724 57.335 L 737.722 57.277 L 737.721 57.219 L 737.719 57.162 L 737.718 57.104 L 737.716 57.047 L 737.715 56.989 L 737.713 56.931 L 737.712 56.874 L 737.71 56.816 L 737.709 56.759 L 737.707 56.701 L 737.706 56.643 L 737.704 56.585 L 737.703 56.528 L 737.701 56.47 L 737.7 56.412 L 737.698 56.355 L 737.697 56.297 L 737.695 56.239 L 737.694 56.181 L 737.692 56.123 L 737.691 56.066 L 737.689 56.008 L 737.688 55.95 L 737.686 55.892 L 737.685 55.834 L 737.683 55.776 L 737.682 55.718 L 737.68 55.66 L 737.679 55.603 L 737.677 55.545 L 737.675 55.487 L 737.674 55.429 L 737.672 55.371 L 737.671 55.313 L 737.669 55.255 L 737.668 55.197 L 737.666 55.139 L 737.665 55.081 L 737.663 55.023 L 737.662 54.965 L 737.66 54.907 L 737.659 54.848 L 737.657 54.79 L 737.656 54.732 L 737.654 54.674 L 737.653 54.616 L 737.651 54.558 L 737.65 54.5 L 737.648 54.441 L 737.647 54.383 L 737.645 54.325 L 737.644 54.267 L 737.643 54.209 L 737.641 54.15 L 737.64 54.092 L 737.638 54.034 L 737.637 53.976 L 737.635 53.917 L 737.634 53.878 L 741.342 54.438 L 741.125 45.616 L 737.449 46.358 L 733.772 47.094 L 733.572 38.351 L 737.279 38.917 L 740.985 39.49 L 740.799 30.737 L 737.121 31.467 L 733.441 32.19 L 733.267 23.326 L 736.972 23.904 L 740.676 24.488 L 740.515 15.661 L 736.835 16.379 L 733.153 17.093 L 733.006 8.331 L 736.709 8.919 L 736.708 8.817 L 736.706 8.749 L 736.705 8.682 L 736.704 8.614 L 736.703 8.547 L 736.702 8.479 L 736.701 8.412 L 736.7 8.344 L 736.699 8.276 L 736.698 8.209 L 736.697 8.141 L 736.696 8.073 L 736.695 8.006 L 736.693 7.938 L 736.692 7.87 L 736.691 7.803 L 736.69 7.735 L 736.689 7.667 L 736.688 7.6 L 736.687 7.532 L 736.686 7.464 L 736.685 7.396 L 736.684 7.328 L 736.683 7.261 L 736.682 7.193 L 736.68 7.125 L 736.679 7.057 L 736.678 6.989 L 736.677 6.921 L 736.676 6.854 L 736.675 6.786 L 736.674 6.718 L 736.673 6.65 L 736.672 6.582 L 736.671 6.514 L 736.67 6.446 L 736.669 6.378 L 736.668 6.31 L 736.667 6.242 L 736.665 6.174 L 736.664 6.106 L 736.663 6.038 L 736.662 5.97 L 736.661 5.902 L 736.66 5.834 L 736.659 5.766 L 736.658 5.698 L 736.657 5.629 L 736.656 5.561 L 736.655 5.493 L 736.654 5.425 L 736.653 5.357 L 736.652 5.289 L 736.651 5.22 L 736.65 5.152 L 736.648 5.084 L 736.647 5.016 L 736.646 4.948 L 736.645 4.879 L 736.644 4.811 L 736.643 4.743 L 736.642 4.674 L 736.641 4.606 L 736.64 4.538 L 736.639 4.469 L 736.638 4.401 L 736.637 4.333 L 736.636 4.264 L 736.635 4.196 L 736.634 4.128 L 736.633 4.059 L 736.632 3.991 L 736.631 3.922 L 736.629 3.854 L 736.628 3.785 L 736.627 3.717 L 736.626 3.648 L 736.625 3.58 L 736.624 3.511 L 736.623 3.443 L 736.622 3.374 L 736.621 3.306 L 736.62 3.237 L 736.619 3.169 L 736.618 3.1 L 736.617 3.031 L 736.616 2.963 L 736.615 2.894 L 736.614 2.826 L 736.613 2.757 L 736.612 2.688 L 736.611 2.62 L 736.61 2.551 L 736.609 2.482 L 736.608 2.413 L 736.607 2.345 L 736.606 2.276 L 736.604 2.207 L 736.603 2.138 L 736.602 2.07 L 736.601 2.001 L 736.6 1.932 L 736.599 1.863 L 736.598 1.794 L 736.597 1.725 L 736.596 1.657 L 736.595 1.588 L 736.594 1.519 L 736.593 1.45 L 736.592 1.381 L 736.591 1.312 L 736.59 1.243 L 736.589 1.174 L 736.588 1.105 L 736.587 1.036 L 736.586 0.967 L 736.585 0.898 L 736.584 0.829 L 736.583 0.76 L 736.582 0.691 L 736.581 0.622 L 736.58 0.553 L 736.579 0.484 L 736.578 0.415 L 736.577 0.346 L 736.576 0.277 L 736.575 0.207 L 736.574 0.138 L 736.573 0.069 L 736.572 0 Z" vector-effect="non-scaling-stroke"/><path d="M 0 317.402 L 0.008 317.435 L 0.016 317.468 L 0.024 317.501 L 0.032 317.535 L 0.04 317.568 L 0.048 317.601 L 0.056 317.634 L 0.064 317.667 L 0.072 317.7 L 0.08 317.733 L 0.088 317.766 L 0.096 317.799 L 0.104 317.832 L 0.112 317.865 L 0.12 317.899 L 0.128 317.932 L 0.136 317.965 L 0.144 317.998 L 0.152 318.031 L 0.16 318.064 L 0.168 318.097 L 0.176 318.13 L 0.184 318.163 L 0.192 318.196 L 0.2 318.229 L 0.208 318.262 L 0.216 318.296 L 0.224 318.329 L 0.232 318.362 L 0.24 318.395 L 0.248 318.428 L 0.256 318.461 L 0.264 318.494 L 0.272 318.527 L 0.28 318.56 L 0.288 318.593 L 0.296 318.626 L 0.304 318.659 L 0.312 318.693 L 0.32 318.726 L 0.328 318.759 L 0.336 318.792 L 0.344 318.825 L 0.352 318.858 L 0.36 318.891 L 0.368 318.924 L 0.376 318.957 L 0.384 318.99 L 0.392 319.023 L 0.4 319.056 L 0.408 319.09 L 0.416 319.123 L 0.424 319.156 L 0.432 319.189 L 0.44 319.222 L 0.448 319.255 L 0.456 319.288 L 0.464 319.321 L 0.472 319.354 L 0.48 319.387 L 0.488 319.42 L 0.496 319.453 L 0.504 319.486 L 0.512 319.52 L 0.52 319.553 L 0.528 319.586 L 0.536 319.619 L 0.544 319.652 L 0.552 319.685 L 0.56 319.718 L 0.568 319.751 L 0.576 319.784 L 0.584 319.817 L 0.592 319.85 L 0.6 319.883 L 0.609 319.916 L 0.617 319.95 L 0.625 319.983 L 0.633 320.016 L 0.641 320.049 L 0.649 320.082 L 0.657 320.115 L 0.665 320.148 L 0.673 320.181 L 0.681 320.214 L 0.689 320.247 L 0.697 320.28 L 0.705 320.313 L 0.713 320.347 L 0.721 320.38 L 0.729 320.413 L 0.737 320.446 L 0.745 320.479 L 0.753 320.512 L 0.761 320.545 L 0.769 320.578 L 0.777 320.611 L 0.785 320.644 L 0.793 320.677 L 0.801 320.71 L 0.809 320.744 L 0.817 320.777 L 0.825 320.81 L 0.833 320.843 L 0.841 320.876 L 0.849 320.909 L 0.857 320.942 L 0.865 320.975 L 0.873 321.008 L 0.881 321.041 L 0.889 321.074 L 0.897 321.108 L 0.905 321.141 L 0.913 321.174 L 0.921 321.207 L 0.929 321.24 L 0.937 321.273 L 0.945 321.306 L 0.953 321.339 L 0.961 321.372 L 0.969 321.405 L 0.977 321.439 L 0.985 321.472 L 0.993 321.505 L 1.001 321.538 L 1.009 321.571 L 1.017 321.604 L 1.025 321.637 L 1.033 321.67 L 1.041 321.703 L 1.049 321.736 L 1.057 321.77 L 1.065 321.803 L 1.073 321.836 L 1.081 321.869 L 1.089 321.902 L 1.097 321.935 L 1.105 321.968 L 1.113 322.001 L 1.122 322.034 L 1.13 322.067 L 1.138 322.101 L 1.146 322.134 L 1.154 322.167 L 1.162 322.2 L 1.17 322.233 L 1.178 322.266 L 1.186 322.299 L 1.194 322.332 L 1.202 322.365 L 1.21 322.399 L 1.218 322.432 L 1.226 322.465 L 1.234 322.498 L 1.242 322.531 L 1.25 322.564 L 1.258 322.597 L 1.266 322.63 L 1.274 322.664 L 1.282 322.697 L 1.29 322.73 L 1.298 322.763 L 1.306 322.796 L 1.314 322.829 L 1.322 322.862 L 1.33 322.895 L 1.338 322.929 L 1.346 322.962 L 1.354 322.995 L 1.362 323.028 L 1.37 323.061 L 1.378 323.094 L 1.386 323.127 L 1.394 323.16 L 1.402 323.194 L 1.411 323.227 L 1.419 323.26 L 1.427 323.293 L 1.435 323.326 L 1.443 323.359 L 1.451 323.392 L 1.459 323.426 L 1.467 323.459 L 1.475 323.492 L 1.483 323.525 L 1.491 323.558 L 1.499 323.591 L 1.507 323.625 L 1.515 323.658 L 1.523 323.691 L 1.531 323.724 L 1.539 323.757 L 1.547 323.79 L 1.555 323.823 L 1.563 323.857 L 1.571 323.89 L 1.579 323.923 L 1.587 323.956 L 1.595 323.989 L 1.603 324.022 L 1.611 324.056 L 1.62 324.089 L 1.628 324.122 L 1.636 324.155 L 1.644 324.188 L 1.652 324.221 L 1.66 324.255 L 1.668 324.288 L 1.676 324.321 L 1.684 324.354 L 1.692 324.387 L 1.7 324.421 L 1.708 324.454 L 1.716 324.487 L 1.724 324.52 L 1.732 324.553 L 1.74 324.586 L 1.748 324.62 L 1.756 324.653 L 1.764 324.686 L 1.772 324.719 L 1.78 324.752 L 1.788 324.786 L 1.797 324.819 L 1.805 324.852 L 1.813 324.885 L 1.821 324.918 L 1.829 324.952 L 1.837 324.985 L 1.845 325.018 L 1.853 325.051 L 1.861 325.084 L 1.869 325.118 L 1.877 325.151 L 1.885 325.184 L 1.893 325.217 L 1.901 325.251 L 1.909 325.284 L 1.917 325.317 L 1.925 325.35 L 1.933 325.383 L 1.942 325.417 L 1.95 325.45 L 1.958 325.483 L 1.966 325.516 L 1.974 325.55 L 1.982 325.583 L 1.99 325.616 L 1.998 325.649 L 2.006 325.682 L 2.014 325.716 L 2.022 325.749 L 2.03 325.782 L 2.038 325.815 L 2.046 325.849 L 2.054 325.882 L 2.063 325.915 L 2.071 325.948 L 2.079 325.982 L 2.087 326.015 L 2.095 326.048 L 2.103 326.081 L 2.111 326.115 L 2.119 326.148 L 2.127 326.181 L 2.135 326.214 L 2.143 326.248 L 2.151 326.281 L 2.159 326.314 L 2.167 326.348 L 2.175 326.381 L 2.184 326.414 L 2.192 326.447 L 2.2 326.481 L 2.208 326.514 L 2.216 326.547 L 2.224 326.581 L 2.232 326.614 L 2.24 326.647 L 2.248 326.68 L 2.256 326.714 L 2.264 326.747 L 2.272 326.78 L 2.281 326.814 L 2.289 326.847 L 2.297 326.88 L 2.305 326.913 L 2.313 326.947 L 2.321 326.98 L 2.329 327.013 L 2.337 327.047 L 2.345 327.08 L 2.353 327.113 L 2.361 327.147 L 2.369 327.18 L 2.378 327.213 L 2.386 327.247 L 2.394 327.28 L 2.402 327.313 L 2.41 327.347 L 2.418 327.38 L 2.426 327.413 L 2.434 327.447 L 2.442 327.48 L 2.45 327.513 L 2.458 327.547 L 2.467 327.58 L 2.475 327.613 L 2.483 327.647 L 2.491 327.68 L 2.499 327.713 L 2.507 327.747 L 2.515 327.78 L 2.523 327.813 L 2.531 327.847 L 2.539 327.88 L 2.547 327.914 L 2.556 327.947 L 2.564 327.98 L 2.572 328.014 L 2.58 328.047 L 2.588 328.08 L 2.596 328.114 L 2.604 328.147 L 2.612 328.181 L 2.62 328.214 L 2.629 328.247 L 2.637 328.281 L 2.645 328.314 L 2.653 328.348 L 2.661 328.381 L 2.669 328.414 L 2.677 328.448 L 2.685 328.481 L 2.693 328.515 L 2.702 328.548 L 2.71 328.581 L 2.718 328.615 L 2.726 328.648 L 2.734 328.682 L 2.742 328.715 L 2.75 328.749 L 2.758 328.782 L 2.766 328.815 L 2.775 328.849 L 2.783 328.882 L 2.791 328.916 L 2.799 328.949 L 2.807 328.983 L 2.815 329.016 L 2.823 329.049 L 2.831 329.083 L 2.84 329.116 L 2.848 329.15 L 2.856 329.183 L 2.864 329.217 L 2.872 329.25 L 2.88 329.284 L 2.888 329.317 L 2.896 329.351 L 2.905 329.384 L 2.913 329.418 L 2.921 329.451 L 2.929 329.484 L 2.937 329.518 L 2.945 329.551 L 2.953 329.585 L 2.961 329.618 L 2.97 329.652 L 2.978 329.685 L 2.986 329.719 L 2.994 329.752 L 3.002 329.786 L 3.01 329.819 L 3.018 329.853 L 3.027 329.886 L 3.035 329.92 L 3.043 329.954 L 3.051 329.987 L 3.059 330.021 L 3.067 330.054 L 3.075 330.088 L 3.084 330.121 L 3.092 330.155 L 3.1 330.188 L 3.108 330.222 L 3.116 330.255 L 3.124 330.289 L 3.132 330.322 L 3.141 330.356 L 3.149 330.39 L 3.157 330.423 L 3.165 330.457 L 3.173 330.49 L 3.181 330.524 L 3.189 330.557 L 3.198 330.591 L 3.206 330.624 L 3.214 330.658 L 3.222 330.692 L 3.23 330.725 L 3.238 330.759 L 3.247 330.792 L 3.255 330.826 L 3.263 330.86 L 3.271 330.893 L 3.279 330.927 L 3.287 330.96 L 3.296 330.994 L 3.304 331.028 L 3.312 331.061 L 3.32 331.095 L 3.328 331.128 L 3.336 331.162 L 3.345 331.196 L 3.353 331.229 L 3.361 331.263 L 3.369 331.297 L 3.377 331.33 L 3.385 331.364 L 3.394 331.397 L 3.402 331.431 L 3.41 331.465 L 3.418 331.498 L 3.426 331.532 L 3.434 331.566 L 3.443 331.599 L 3.451 331.633 L 3.459 331.667 L 3.467 331.7 L 3.475 331.734 L 3.484 331.768 L 3.492 331.801 L 3.5 331.835 L 3.508 331.869 L 3.516 331.903 L 3.524 331.936 L 3.533 331.97 L 3.541 332.004 L 3.549 332.037 L 3.557 332.071 L 3.565 332.105 L 3.574 332.138 L 3.582 332.172 L 3.59 332.206 L 3.598 332.24 L 3.606 332.273 L 3.615 332.307 L 3.623 332.341 L 3.631 332.375 L 3.639 332.408 L 3.647 332.442 L 3.656 332.476 L 3.664 332.51 L 3.672 332.543 L 3.68 332.577 L 3.688 332.611 L 3.697 332.645 L 3.705 332.678 L 3.713 332.712 L 3.721 332.746 L 3.729 332.78 L 3.738 332.813 L 3.746 332.847 L 3.754 332.881 L 3.762 332.915 L 3.77 332.949 L 3.779 332.982 L 3.787 333.016 L 3.795 333.05 L 3.803 333.084 L 3.812 333.118 L 3.82 333.151 L 3.828 333.185 L 3.836 333.219 L 3.844 333.253 L 3.853 333.287 L 3.861 333.321 L 3.869 333.354 L 3.877 333.388 L 3.886 333.422 L 3.894 333.456 L 3.902 333.49 L 3.91 333.524 L 3.918 333.557 L 3.927 333.591 L 3.935 333.625 L 3.943 333.659 L 3.951 333.693 L 3.96 333.727 L 3.968 333.761 L 3.976 333.795 L 3.984 333.828 L 3.993 333.862 L 4.001 333.896 L 4.009 333.93 L 4.017 333.964 L 4.026 333.998 L 4.034 334.032 L 4.042 334.066 L 4.05 334.1 L 4.059 334.134 L 4.067 334.168 L 4.075 334.201 L 4.083 334.235 L 4.092 334.269 L 4.1 334.303 L 4.108 334.337 L 4.116 334.371 L 4.125 334.405 L 4.133 334.439 L 4.141 334.473 L 4.149 334.507 L 4.158 334.541 L 4.166 334.575 L 4.174 334.609 L 4.182 334.643 L 4.191 334.677 L 4.199 334.711 L 4.207 334.745 L 4.215 334.779 L 4.224 334.813 L 4.232 334.847 L 4.24 334.881 L 4.248 334.915 L 4.257 334.949 L 4.265 334.983 L 4.273 335.017 L 4.282 335.051 L 4.29 335.085 L 4.298 335.119 L 4.306 335.153 L 4.315 335.187 L 4.323 335.221 L 4.331 335.255 L 4.339 335.289 L 4.348 335.323 L 4.356 335.357 L 4.364 335.391 L 4.373 335.425 L 4.381 335.459 L 4.389 335.494 L 4.397 335.528 L 4.406 335.562 L 4.414 335.596 L 4.422 335.63 L 4.431 335.664 L 4.439 335.698 L 4.447 335.732 L 4.455 335.766 L 4.464 335.8 L 4.472 335.835 L 4.48 335.869 L 4.489 335.903 L 4.497 335.937 L 4.505 335.971 L 4.514 336.005 L 4.522 336.039 L 4.53 336.073 L 4.538 336.108 L 4.547 336.142 L 4.555 336.176 L 4.563 336.21 L 4.572 336.244 L 4.58 336.278 L 4.588 336.313 L 4.597 336.347 L 4.605 336.381 L 4.613 336.415 L 4.622 336.449 L 4.63 336.484 L 4.638 336.518 L 4.647 336.552 L 4.655 336.586 L 4.663 336.62 L 4.671 336.655 L 4.68 336.689 L 4.688 336.723 L 4.696 336.757 L 4.705 336.792 L 4.713 336.826 L 4.721 336.86 L 4.73 336.894 L 4.738 336.929 L 4.746 336.963 L 4.755 336.997 L 4.763 337.031 L 4.771 337.066 L 4.78 337.1 L 4.788 337.134 L 4.796 337.168 L 4.805 337.203 L 4.813 337.237 L 4.821 337.271 L 4.83 337.306 L 4.838 337.34 L 4.846 337.374 L 4.855 337.409 L 4.863 337.443 L 4.872 337.477 L 4.88 337.512 L 4.888 337.546 L 4.897 337.58 L 4.905 337.615 L 4.913 337.649 L 4.922 337.683 L 4.93 337.718 L 4.938 337.752 L 4.947 337.786 L 4.955 337.821 L 4.963 337.855 L 4.972 337.889 L 4.98 337.924 L 4.989 337.958 L 4.997 337.993 L 5.005 338.027 L 5.014 338.061 L 5.022 338.096 L 5.03 338.13 L 5.039 338.165 L 5.047 338.199 L 5.055 338.233 L 5.064 338.268 L 5.072 338.302 L 5.081 338.337 L 5.089 338.371 L 5.097 338.406 L 5.106 338.44 L 5.114 338.475 L 5.123 338.509 L 5.131 338.544 L 5.139 338.578 L 5.148 338.612 L 5.156 338.647 L 5.164 338.681 L 5.173 338.716 L 5.181 338.75 L 5.19 338.785 L 5.198 338.819 L 5.206 338.854 L 5.215 338.888 L 5.223 338.923 L 5.232 338.958 L 5.24 338.992 L 5.248 339.027 L 5.257 339.061 L 5.265 339.096 L 5.274 339.13 L 5.282 339.165 L 5.29 339.199 L 5.299 339.234 L 5.307 339.268 L 5.316 339.303 L 5.324 339.338 L 5.332 339.372 L 5.341 339.407 L 5.349 339.441 L 5.358 339.476 L 5.366 339.511 L 5.375 339.545 L 5.383 339.58 L 5.391 339.614 L 5.4 339.649 L 5.408 339.684 L 5.417 339.718 L 5.425 339.753 L 5.434 339.788 L 5.442 339.822 L 5.45 339.857 L 5.459 339.892 L 5.467 339.926 L 5.476 339.961 L 5.484 339.996 L 5.493 340.03 L 5.501 340.065 L 5.509 340.1 L 5.518 340.134 L 5.526 340.169 L 5.535 340.204 L 5.543 340.238 L 5.552 340.273 L 5.56 340.308 L 5.569 340.343 L 5.577 340.377 L 5.585 340.412 L 5.594 340.447 L 5.602 340.482 L 5.611 340.516 L 5.619 340.551 L 5.628 340.586 L 5.636 340.621 L 5.645 340.655 L 5.653 340.69 L 5.662 340.725 L 5.67 340.76 L 5.679 340.795 L 5.687 340.829 L 5.695 340.864 L 5.704 340.899 L 5.712 340.934 L 5.721 340.969 L 5.729 341.003 L 5.738 341.038 L 5.746 341.073 L 5.755 341.108 L 5.763 341.143 L 5.772 341.178 L 5.78 341.213 L 5.789 341.247 L 5.797 341.282 L 5.806 341.317 L 5.814 341.352 L 5.823 341.387 L 5.831 341.422 L 5.84 341.457 L 5.848 341.492 L 5.857 341.526 L 5.865 341.561 L 5.874 341.596 L 5.882 341.631 L 5.891 341.666 L 5.899 341.701 L 5.908 341.736 L 5.916 341.771 L 5.925 341.806 L 5.933 341.841 L 5.942 341.876 L 5.95 341.911 L 5.959 341.946 L 5.967 341.981 L 5.976 342.016 L 5.984 342.051 L 5.993 342.086 L 6.001 342.121 L 6.01 342.156 L 6.018 342.191 L 6.027 342.226 L 6.035 342.261 L 6.044 342.296 L 6.052 342.331 L 6.061 342.366 L 6.069 342.401 L 6.078 342.436 L 6.086 342.471 L 6.095 342.506 L 6.103 342.541 L 6.112 342.576 L 6.121 342.611 L 6.129 342.646 L 6.138 342.681 L 6.146 342.717 L 6.155 342.752 L 6.163 342.787 L 6.172 342.822 L 6.18 342.857 L 6.189 342.892 L 6.197 342.927 L 6.206 342.962 L 6.215 342.997 L 6.223 343.033 L 6.232 343.068 L 6.24 343.103 L 6.249 343.138 L 6.257 343.173 L 6.266 343.208 L 6.274 343.244 L 6.283 343.279 L 6.292 343.314 L 6.3 343.349 L 6.309 343.384 L 6.317 343.42 L 6.326 343.455 L 6.334 343.49 L 6.343 343.525 L 6.352 343.56 L 6.36 343.596 L 6.369 343.631 L 6.377 343.666 L 6.386 343.701 L 6.394 343.737 L 6.403 343.772 L 6.412 343.807 L 6.42 343.843 L 6.429 343.878 L 6.437 343.913 L 6.446 343.948 L 6.455 343.984 L 6.463 344.019 L 6.472 344.054 L 6.48 344.09 L 6.489 344.125 L 6.498 344.16 L 6.506 344.196 L 6.515 344.231 L 6.523 344.266 L 6.532 344.302 L 6.541 344.337 L 6.549 344.372 L 6.558 344.408 L 6.566 344.443 L 6.575 344.479 L 6.584 344.514 L 6.592 344.549 L 6.601 344.585 L 6.609 344.62 L 6.618 344.656 L 6.627 344.691 L 6.635 344.726 L 6.644 344.762 L 6.653 344.797 L 6.661 344.833 L 6.67 344.868 L 6.678 344.904 L 6.687 344.939 L 6.696 344.975 L 6.704 345.01 L 6.713 345.046 L 6.722 345.081 L 6.73 345.117 L 6.739 345.152 L 6.748 345.188 L 6.756 345.223 L 6.765 345.259 L 6.773 345.294 L 6.782 345.33 L 6.791 345.365 L 6.799 345.401 L 6.808 345.436 L 6.817 345.472 L 6.825 345.507 L 6.834 345.543 L 6.843 345.579 L 6.851 345.614 L 6.86 345.65 L 6.869 345.685 L 6.877 345.721 L 6.886 345.756 L 6.895 345.792 L 6.903 345.828 L 6.912 345.863 L 6.921 345.899 L 6.929 345.935 L 6.938 345.97 L 6.947 346.006 L 6.955 346.042 L 6.964 346.077 L 6.973 346.113 L 6.981 346.149 L 6.99 346.184 L 6.999 346.22 L 7.007 346.256 L 7.016 346.291 L 7.025 346.327 L 7.034 346.363 L 7.042 346.398 L 7.051 346.434 L 7.06 346.47 L 7.068 346.506 L 7.077 346.541 L 7.086 346.577 L 7.094 346.613 L 7.103 346.649 L 7.112 346.684 L 7.121 346.72 L 7.129 346.756 L 7.138 346.792 L 7.147 346.828 L 7.155 346.863 L 7.164 346.899 L 7.173 346.935 L 7.182 346.971 L 7.19 347.007 L 7.199 347.042 L 7.208 347.078 L 7.216 347.114 L 7.225 347.15 L 7.234 347.186 L 7.243 347.222 L 7.251 347.258 L 7.26 347.294 L 7.269 347.329 L 7.278 347.365 L 7.286 347.401 L 7.295 347.437 L 7.304 347.473 L 7.313 347.509 L 7.321 347.545 L 7.33 347.581 L 7.339 347.617 L 7.348 347.653 L 7.356 347.689 L 7.365 347.725 L 7.374 347.761 L 7.383 347.797 L 7.391 347.833 L 7.4 347.869 L 7.409 347.905 L 7.418 347.941 L 7.426 347.977 L 7.435 348.013 L 7.444 348.049 L 7.453 348.085 L 7.461 348.121 L 7.47 348.157 L 7.479 348.193 L 7.488 348.229 L 7.497 348.265 L 7.505 348.301 L 7.514 348.337 L 7.523 348.373 L 7.532 348.409 L 7.54 348.445 L 7.549 348.481 L 7.558 348.517 L 7.567 348.554 L 7.576 348.59 L 7.584 348.626 L 7.593 348.662 L 7.602 348.698 L 7.611 348.734 L 7.62 348.77 L 7.628 348.807 L 7.637 348.843 L 7.646 348.879 L 7.655 348.915 L 7.664 348.951 L 7.672 348.987 L 7.681 349.024 L 7.69 349.06 L 7.699 349.096 L 7.708 349.132 L 7.717 349.169 L 7.725 349.205 L 7.734 349.241 L 7.743 349.277 L 7.752 349.314 L 7.761 349.35 L 7.769 349.386 L 7.778 349.422 L 7.787 349.459 L 7.796 349.495 L 7.805 349.531 L 7.814 349.568 L 7.822 349.604 L 7.831 349.64 L 7.84 349.677 L 7.849 349.713 L 7.858 349.749 L 7.867 349.786 L 7.876 349.822 L 7.884 349.858 L 7.893 349.895 L 7.902 349.931 L 7.911 349.967 L 7.92 350.004 L 7.929 350.04 L 7.938 350.077 L 7.946 350.113 L 7.955 350.149 L 7.964 350.186 L 7.973 350.222 L 7.982 350.259 L 7.991 350.295 L 8 350.332 L 8.009 350.368 L 8.017 350.405 L 8.026 350.441 L 8.035 350.478 L 8.044 350.514 L 8.053 350.55 L 8.062 350.587 L 8.071 350.624 L 8.08 350.66 L 8.088 350.697 L 8.097 350.733 L 8.106 350.77 L 8.115 350.806 L 8.124 350.843 L 8.133 350.879 L 8.142 350.916 L 8.151 350.952 L 8.16 350.989 L 8.169 351.026 L 8.177 351.062 L 8.186 351.099 L 8.195 351.135 L 8.204 351.172 L 8.213 351.209 L 8.222 351.245 L 8.231 351.282 L 8.24 351.319 L 8.249 351.355 L 8.258 351.392 L 8.267 351.429 L 8.276 351.465 L 8.285 351.502 L 8.293 351.539 L 8.302 351.575 L 8.311 351.612 M 506.398 200.029 L 506.402 200.055 L 506.406 200.081 L 506.409 200.107 L 506.413 200.132 L 506.417 200.158 L 506.421 200.184 L 506.425 200.21 L 506.429 200.236 L 506.432 200.261 L 506.436 200.287 L 506.44 200.313 L 506.444 200.338 L 506.448 200.364 L 506.452 200.39 L 506.456 200.416 L 506.459 200.441 L 506.463 200.467 L 506.467 200.493 L 506.471 200.519 L 506.475 200.544 L 506.479 200.57 L 506.483 200.596 L 506.486 200.621 L 506.49 200.647 L 506.494 200.673 L 506.498 200.698 L 506.502 200.724 L 506.506 200.75 L 506.51 200.776 L 506.513 200.801 L 506.517 200.827 L 506.521 200.853 L 506.525 200.878 L 506.529 200.904 L 506.533 200.93 L 506.537 200.955 L 506.54 200.981 L 506.544 201.006 L 506.548 201.032 L 506.552 201.058 L 506.556 201.083 L 506.56 201.109 L 506.564 201.135 L 506.567 201.16 L 506.571 201.186 L 506.575 201.212 L 506.579 201.237 L 506.583 201.263 L 506.587 201.288 L 506.591 201.314 L 506.595 201.34 L 506.598 201.365 L 506.602 201.391 L 506.606 201.416 L 506.61 201.442 L 506.614 201.468 L 506.618 201.493 L 506.622 201.519 L 506.626 201.544 L 506.629 201.57 L 506.633 201.595 L 506.637 201.621 L 506.641 201.646 L 506.645 201.672 L 506.649 201.698 L 506.653 201.723 L 506.657 201.749 L 506.66 201.774 L 506.664 201.8 L 506.668 201.825 L 506.672 201.851 L 506.676 201.876 L 506.68 201.902 L 506.684 201.927 L 506.688 201.953 L 506.692 201.978 L 506.695 202.004 L 506.699 202.029 L 506.703 202.055 L 506.707 202.08 L 506.711 202.106 L 506.715 202.131 L 506.719 202.157 L 506.723 202.182 L 506.727 202.208 L 506.73 202.233 L 506.734 202.259 L 506.738 202.284 L 506.742 202.31 L 506.746 202.335 L 506.75 202.361 L 506.754 202.386 L 506.758 202.411 L 506.762 202.437 L 506.766 202.462 L 506.769 202.488 L 506.773 202.513 L 506.777 202.539 L 506.781 202.564 L 506.785 202.59 L 506.789 202.615 L 506.793 202.64 L 506.797 202.666 L 506.801 202.691 L 506.805 202.717 L 506.808 202.742 L 506.812 202.767 L 506.816 202.793 L 506.82 202.818 L 506.824 202.844 L 506.828 202.869 L 506.832 202.894 L 506.836 202.92 L 506.84 202.945 L 506.844 202.97 L 506.847 202.996 L 506.851 203.021 L 506.855 203.047 L 506.859 203.072 L 506.863 203.097 L 506.867 203.123 L 506.871 203.148 L 506.875 203.173 L 506.879 203.199 L 506.883 203.224 L 506.887 203.249 L 506.891 203.275 L 506.894 203.3 L 506.898 203.325 L 506.902 203.351 L 506.906 203.376 L 506.91 203.401 L 506.914 203.427 L 506.918 203.452 L 506.922 203.477 L 506.926 203.502 L 506.93 203.528 L 506.934 203.553 L 506.938 203.578 L 506.941 203.604 L 506.945 203.629 L 506.949 203.654 L 506.953 203.679 L 506.957 203.705 L 506.961 203.73 L 506.965 203.755 L 506.969 203.78 L 506.973 203.806 L 506.977 203.831 L 506.981 203.856 L 506.985 203.881 L 506.989 203.907 L 506.993 203.932 L 506.996 203.957 L 507 203.982 L 507.004 204.008 L 507.008 204.033 L 507.012 204.058 L 507.016 204.083 L 507.02 204.109 L 507.024 204.134 L 507.028 204.159 L 507.032 204.184 L 507.036 204.209 L 507.04 204.235 L 507.044 204.26 L 507.048 204.285 L 507.052 204.31 L 507.056 204.335 L 507.059 204.36 L 507.063 204.386 L 507.067 204.411 L 507.071 204.436 L 507.075 204.461 L 507.079 204.486 L 507.083 204.511 L 507.087 204.537 L 507.091 204.562 L 507.095 204.587 L 507.099 204.612 L 507.103 204.637 L 507.107 204.662 L 507.111 204.688 L 507.115 204.713 L 507.119 204.738 L 507.123 204.763 L 507.127 204.788 L 507.131 204.813 L 507.134 204.838 L 507.138 204.863 L 507.142 204.888 L 507.146 204.914 L 507.15 204.939 L 507.154 204.964 L 507.158 204.989 L 507.162 205.014 L 507.166 205.039 L 507.17 205.064 L 507.174 205.089 L 507.178 205.114 L 507.182 205.139 L 507.186 205.164 L 507.19 205.189 L 507.194 205.215 L 507.198 205.24 L 507.202 205.265 L 507.206 205.29 L 507.21 205.315 L 507.214 205.34 L 507.218 205.365 L 507.222 205.39 L 507.226 205.415 L 507.229 205.44 L 507.233 205.465 L 507.237 205.49 L 507.241 205.515 L 507.245 205.54 L 507.249 205.565 L 507.253 205.59 L 507.257 205.615 L 507.261 205.64 L 507.265 205.665 L 507.269 205.69 L 507.273 205.715 L 507.277 205.74 L 507.281 205.765 L 507.285 205.79 L 507.289 205.815 L 507.293 205.84 L 507.297 205.865 L 507.301 205.89 L 507.305 205.915 L 507.309 205.94 L 507.313 205.965 L 507.317 205.99 L 507.321 206.015 L 507.325 206.04 L 507.329 206.065 L 507.333 206.09 L 507.337 206.115 L 507.341 206.139 L 507.345 206.164 L 507.349 206.189 L 507.353 206.214 L 507.357 206.239 L 507.361 206.264 L 507.365 206.289 L 507.369 206.314 L 507.373 206.339 L 507.377 206.364 L 507.381 206.389 L 507.385 206.414 L 507.389 206.438 L 507.393 206.463 L 507.397 206.488 L 507.401 206.513 L 507.405 206.538 L 507.409 206.563 L 507.413 206.588 L 507.417 206.613 L 507.421 206.638 L 507.425 206.662 L 507.429 206.687 L 507.433 206.712 L 507.437 206.737 L 507.441 206.762 L 507.445 206.787 L 507.449 206.812 L 507.453 206.836 L 507.457 206.861 L 507.461 206.886 L 507.465 206.911 L 507.469 206.936 L 507.473 206.961 L 507.477 206.985 L 507.481 207.01 L 507.485 207.035 L 507.489 207.06 L 507.493 207.085 L 507.497 207.109 L 507.501 207.134 L 507.505 207.159 L 507.509 207.184 L 507.513 207.209 L 507.517 207.233 L 507.521 207.258 L 507.525 207.283 L 507.529 207.308 L 507.533 207.333 L 507.537 207.357 L 507.541 207.382 L 507.545 207.407 L 507.549 207.432 L 507.553 207.456 L 507.557 207.481 L 507.561 207.506 L 507.565 207.531 L 507.569 207.555 L 507.573 207.58 L 507.577 207.605 L 507.581 207.63 L 507.585 207.654 L 507.589 207.679 L 507.593 207.704 L 507.597 207.729 L 507.601 207.753 L 507.605 207.778 L 507.609 207.803 L 507.613 207.827 L 507.617 207.852 L 507.621 207.877 L 507.625 207.902 L 507.629 207.926 L 507.633 207.951 L 507.637 207.976 L 507.641 208 L 507.645 208.025 L 507.649 208.05 L 507.653 208.074 L 507.657 208.099 L 507.661 208.124 L 507.665 208.148 L 507.669 208.173 L 507.673 208.198 L 507.677 208.222 L 507.681 208.247 L 507.685 208.272 L 507.69 208.296 L 507.694 208.321 L 507.698 208.346 L 507.702 208.37 L 507.706 208.395 L 507.71 208.42 L 507.714 208.444 L 507.718 208.469 L 507.722 208.493 L 507.726 208.518 L 507.73 208.543 L 507.734 208.567 L 507.738 208.592 L 507.742 208.617 L 507.746 208.641 L 507.75 208.666 L 507.754 208.69 L 507.758 208.715 L 507.762 208.74 L 507.766 208.764 L 507.77 208.789 L 507.774 208.813 L 507.778 208.838 L 507.782 208.862 L 507.787 208.887 L 507.791 208.912 L 507.795 208.936 L 507.799 208.961 L 507.803 208.985 L 507.807 209.01 L 507.811 209.034 L 507.815 209.059 L 507.819 209.084 L 507.823 209.108 L 507.827 209.133 L 507.831 209.157 L 507.835 209.182 L 507.839 209.206 L 507.843 209.231 L 507.847 209.255 L 507.851 209.28 L 507.855 209.304 L 507.859 209.329 L 507.864 209.353 L 507.868 209.378 L 507.872 209.402 L 507.876 209.427 L 507.88 209.451 L 507.884 209.476 L 507.888 209.5 L 507.892 209.525 L 507.896 209.549 L 507.9 209.574 L 507.904 209.598 L 507.908 209.623 L 507.912 209.647 L 507.916 209.672 L 507.92 209.696 L 507.925 209.721 L 507.929 209.745 L 507.933 209.77 L 507.937 209.794 L 507.941 209.819 L 507.945 209.843 L 507.949 209.867 L 507.953 209.892 L 507.957 209.916 L 507.961 209.941 L 507.965 209.965 L 507.969 209.99 L 507.973 210.014 L 507.977 210.038 L 507.982 210.063 L 507.986 210.087 L 507.99 210.112 L 507.994 210.136 L 507.998 210.161 L 508.002 210.185 L 508.006 210.209 L 508.01 210.234 L 508.014 210.258 L 508.018 210.283 L 508.022 210.307 L 508.026 210.331 L 508.03 210.356 L 508.035 210.38 L 508.039 210.404 L 508.043 210.429 L 508.047 210.453 L 508.051 210.478 L 508.055 210.502 L 508.059 210.526 L 508.063 210.551 L 508.067 210.575 L 508.071 210.599 L 508.075 210.624 L 508.08 210.648 L 508.084 210.672 L 508.088 210.697 L 508.092 210.721 L 508.096 210.745 L 508.1 210.77 L 508.104 210.794 L 508.108 210.818 L 508.112 210.843 L 508.116 210.867 L 508.12 210.891 L 508.125 210.916 L 508.129 210.94 L 508.133 210.964 L 508.137 210.989 L 508.141 211.013 L 508.145 211.037 L 508.149 211.062 L 508.153 211.086 L 508.157 211.11 L 508.161 211.134 L 508.166 211.159 L 508.17 211.183 L 508.174 211.207 L 508.178 211.232 L 508.182 211.256 L 508.186 211.28 L 508.19 211.304 L 508.194 211.329 L 508.198 211.353 L 508.203 211.377 L 508.207 211.401 L 508.211 211.426 L 508.215 211.45 L 508.219 211.474 L 508.223 211.498 L 508.227 211.523 L 508.231 211.547 L 508.235 211.571 L 508.24 211.595 L 508.244 211.62 L 508.248 211.644 L 508.252 211.668 L 508.256 211.692 L 508.26 211.716 L 508.264 211.741 L 508.268 211.765 L 508.272 211.789 L 508.277 211.813 L 508.281 211.837 L 508.285 211.862 L 508.289 211.886 L 508.293 211.91 L 508.297 211.934 L 508.301 211.958 L 508.305 211.983 L 508.31 212.007 L 508.314 212.031 L 508.318 212.055 L 508.322 212.079 L 508.326 212.103 L 508.33 212.128 L 508.334 212.152 L 508.338 212.176 L 508.343 212.2 L 508.347 212.224 L 508.351 212.248 L 508.355 212.272 L 508.359 212.297 L 508.363 212.321 L 508.367 212.345 L 508.371 212.369 L 508.376 212.393 L 508.38 212.417 L 508.384 212.441 L 508.388 212.466 L 508.392 212.49 L 508.396 212.514 L 508.4 212.538 L 508.405 212.562 L 508.409 212.586 L 508.413 212.61 L 508.417 212.634 L 508.421 212.658 L 508.425 212.682 L 508.429 212.707 L 508.434 212.731 L 508.438 212.755 L 508.442 212.779 L 508.446 212.803 L 508.45 212.827 L 508.454 212.851 L 508.458 212.875 L 508.463 212.899 L 508.467 212.923 L 508.471 212.947 L 508.475 212.971 L 508.479 212.995 L 508.483 213.019 L 508.487 213.044 L 508.492 213.068 L 508.496 213.092 L 508.5 213.116 L 508.504 213.14 L 508.508 213.164 L 508.512 213.188 L 508.516 213.212 L 508.521 213.236 L 508.525 213.26 L 508.529 213.284 L 508.533 213.308 L 508.537 213.332 L 508.541 213.356 L 508.546 213.38 L 508.55 213.404 L 508.554 213.428 L 508.558 213.452 L 508.562 213.476 L 508.566 213.5 L 508.571 213.524 L 508.575 213.548 L 508.579 213.572 L 508.583 213.596 L 508.587 213.62 L 508.591 213.644 L 508.595 213.668 L 508.6 213.692 L 508.604 213.716 L 508.608 213.74 L 508.612 213.764 L 508.616 213.788 L 508.62 213.812 L 508.625 213.836 L 508.629 213.86 L 508.633 213.883 L 508.637 213.907 L 508.641 213.931 L 508.645 213.955 L 508.65 213.979 L 508.654 214.003 L 508.658 214.027 L 508.662 214.051 L 508.666 214.075 L 508.671 214.099 L 508.675 214.123 L 508.679 214.147 L 508.683 214.171 L 508.687 214.195 L 508.691 214.218 L 508.696 214.242 L 508.7 214.266 L 508.704 214.29 L 508.708 214.314 L 508.712 214.338 L 508.717 214.362 L 508.721 214.386 L 508.725 214.41 L 508.729 214.433 L 508.733 214.457 L 508.737 214.481 L 508.742 214.505 L 508.746 214.529 L 508.75 214.553 L 508.754 214.577 L 508.758 214.601 L 508.763 214.624 L 508.767 214.648 L 508.771 214.672 L 508.775 214.696 L 508.779 214.72 L 508.783 214.744 L 508.788 214.768 L 508.792 214.791 L 508.796 214.815 L 508.8 214.839 L 508.804 214.863 L 508.809 214.887 L 508.813 214.911 L 508.817 214.934 L 508.821 214.958 L 508.825 214.982 L 508.83 215.006 L 508.834 215.03 L 508.838 215.053 L 508.842 215.077 L 508.846 215.101 L 508.851 215.125 L 508.855 215.149 L 508.859 215.172 L 508.863 215.196 L 508.867 215.22 L 508.872 215.244 L 508.876 215.268 L 508.88 215.291 L 508.884 215.315 L 508.888 215.339 L 508.893 215.363 L 508.897 215.386 L 508.901 215.41 L 508.905 215.434 L 508.909 215.458 L 508.914 215.482 L 508.918 215.505 L 508.922 215.529 L 508.926 215.553 L 508.931 215.577 L 508.935 215.6 L 508.939 215.624 L 508.943 215.648 L 508.947 215.671 L 508.952 215.695 L 508.956 215.719 L 508.96 215.743 L 508.964 215.766 L 508.968 215.79 L 508.973 215.814 L 508.977 215.838 L 508.981 215.861 L 508.985 215.885 L 508.99 215.909 L 508.994 215.932 L 508.998 215.956 L 509.002 215.98 L 509.006 216.004 L 509.011 216.027 L 509.015 216.051 L 509.019 216.075 L 509.023 216.098 L 509.028 216.122 L 509.032 216.146 L 509.036 216.169 L 509.04 216.193 L 509.044 216.217 L 509.049 216.24 L 509.053 216.264 L 509.057 216.288 L 509.061 216.311 L 509.066 216.335 L 509.07 216.359 L 509.074 216.382 L 509.078 216.406 L 509.083 216.43 L 509.087 216.453 L 509.091 216.477 L 509.095 216.501 L 509.099 216.524 L 509.104 216.548 L 509.108 216.571 L 509.112 216.595 L 509.116 216.619 L 509.121 216.642 L 509.125 216.666 L 509.129 216.69 L 509.133 216.713 L 509.138 216.737 L 509.142 216.76 L 509.146 216.784 L 509.15 216.808 L 509.155 216.831 L 509.159 216.855 L 509.163 216.878 L 509.167 216.902 L 509.172 216.926 L 509.176 216.949 L 509.18 216.973 L 509.184 216.996 L 509.189 217.02 L 509.193 217.044 L 509.197 217.067 L 509.201 217.091 L 509.206 217.114 L 509.21 217.138 L 509.214 217.161 L 509.218 217.185 L 509.223 217.209 L 509.227 217.232 L 509.231 217.256 L 509.235 217.279 L 509.24 217.303 L 509.244 217.326 L 509.248 217.35 L 509.252 217.373 L 509.257 217.397 L 509.261 217.42 L 509.265 217.444 L 509.269 217.468 L 509.274 217.491 L 509.278 217.515 L 509.282 217.538 L 509.286 217.562 L 509.291 217.585 L 509.295 217.609 L 509.299 217.632 L 509.304 217.656 L 509.308 217.679 L 509.312 217.703 L 509.316 217.726 L 509.321 217.75 L 509.325 217.773 L 509.329 217.797 L 509.333 217.82 L 509.338 217.844 L 509.342 217.867 L 509.346 217.891 L 509.35 217.914 L 509.355 217.938 L 509.359 217.961 L 509.363 217.985 L 509.368 218.008 L 509.372 218.032 L 509.376 218.055 L 509.38 218.078 L 509.385 218.102 L 509.389 218.125 L 509.393 218.149 L 509.397 218.172 L 509.402 218.196 L 509.406 218.219 L 509.41 218.243 L 509.415 218.266 L 509.419 218.29 L 509.423 218.313 L 509.427 218.336 L 509.432 218.36 L 509.436 218.383 L 509.44 218.407 L 509.445 218.43 L 509.449 218.454 L 509.453 218.477 L 509.457 218.5 L 509.462 218.524 L 509.466 218.547 L 509.47 218.571 L 509.475 218.594 L 509.479 218.617 L 509.483 218.641 L 509.487 218.664 L 509.492 218.688 L 509.496 218.711 L 509.5 218.734 L 509.505 218.758 L 509.509 218.781 L 509.513 218.805 L 509.517 218.828 L 509.522 218.851 L 509.526 218.875 L 509.53 218.898 L 509.535 218.921 L 509.539 218.945 L 509.543 218.968 L 509.548 218.992 L 509.552 219.015 L 509.556 219.038 L 509.56 219.062 L 509.565 219.085 L 509.569 219.108 L 509.573 219.132 L 509.578 219.155 L 509.582 219.178 L 509.586 219.202 L 509.591 219.225 L 509.595 219.248 L 509.599 219.272 L 509.603 219.295 L 509.608 219.318 L 509.612 219.342 L 509.616 219.365 L 509.621 219.388 L 509.625 219.412 L 509.629 219.435 L 509.634 219.458 L 509.638 219.482 L 509.642 219.505 L 509.647 219.528 L 509.651 219.552 L 509.655 219.575 L 509.659 219.598 L 509.664 219.621 L 509.668 219.645 L 509.672 219.668 L 509.677 219.691 L 509.681 219.715 L 509.685 219.738 L 509.69 219.761 L 509.694 219.784 L 509.698 219.808 L 509.703 219.831 L 509.707 219.854 L 509.711 219.878 L 509.716 219.901 L 509.72 219.924 L 509.724 219.947 L 509.729 219.971 L 509.733 219.994 L 509.737 220.017 L 509.742 220.04 L 509.746 220.064 L 509.75 220.087 L 509.755 220.11 L 509.759 220.133 L 509.763 220.157 L 509.768 220.18 L 509.772 220.203 L 509.776 220.226 L 509.781 220.25 L 509.785 220.273 L 509.789 220.296 L 509.793 220.319 L 509.798 220.342 L 509.802 220.366 L 509.806 220.389 L 509.811 220.412 L 509.815 220.435 L 509.82 220.459 L 509.824 220.482 L 509.828 220.505 L 509.833 220.528 L 509.837 220.551 L 509.841 220.575 L 509.846 220.598 L 509.85 220.621 L 509.854 220.644 L 509.859 220.667 L 509.863 220.691 L 509.867 220.714 L 509.872 220.737 L 509.876 220.76 L 509.88 220.783 L 509.885 220.806 L 509.889 220.83 L 509.893 220.853 L 509.898 220.876 L 509.902 220.899 L 509.906 220.922 L 509.911 220.945 L 509.915 220.969 L 509.919 220.992 L 509.924 221.015 L 509.928 221.038 L 509.932 221.061 L 509.937 221.084 L 509.941 221.107 L 509.945 221.131 L 509.95 221.154 L 509.954 221.177 L 509.959 221.2 L 509.963 221.223 L 509.967 221.246 L 509.972 221.269 L 509.976 221.292 L 509.98 221.316 L 509.985 221.339 L 509.989 221.362 L 509.993 221.385 L 509.998 221.408 L 510.002 221.431 L 510.006 221.454 L 510.011 221.477 L 510.015 221.5 L 510.02 221.524 L 510.024 221.547 L 510.028 221.57 L 510.033 221.593 L 510.037 221.616 L 510.041 221.639 L 510.046 221.662 L 510.05 221.685 L 510.055 221.708 L 510.059 221.731 L 510.063 221.754 L 510.068 221.778 L 510.072 221.801 L 510.076 221.824 L 510.081 221.847 L 510.085 221.87 L 510.089 221.893 L 510.094 221.916 L 510.098 221.939 L 510.103 221.962 L 510.107 221.985 L 510.111 222.008 L 510.116 222.031 L 510.12 222.054 L 510.124 222.077 L 510.129 222.1 L 510.133 222.123 L 510.138 222.146 L 510.142 222.169 L 510.146 222.192 L 510.151 222.216 L 510.155 222.239 L 510.16 222.262 L 510.164 222.285 L 510.168 222.308 L 510.173 222.331 L 510.177 222.354 L 510.181 222.377 L 510.186 222.4 L 510.19 222.423 L 510.195 222.446 L 510.199 222.469 L 510.203 222.492 L 510.208 222.515 L 510.212 222.538 L 510.217 222.561 L 510.221 222.584 L 510.225 222.607 L 510.23 222.63 L 510.234 222.653 L 510.238 222.676 L 510.243 222.699 L 510.247 222.722 L 510.252 222.745 L 510.256 222.768 L 510.26 222.791 L 510.265 222.814 L 510.269 222.836 L 510.274 222.859 L 510.278 222.882 L 510.282 222.905 L 510.287 222.928 L 510.291 222.951 L 510.296 222.974 L 510.3 222.997 L 510.304 223.02 L 510.309 223.043 L 510.313 223.066 L 510.318 223.089 L 510.322 223.112 L 510.326 223.135 L 510.331 223.158 L 510.335 223.181 L 510.34 223.204 L 510.344 223.227 L 510.349 223.25 L 510.353 223.272 L 510.357 223.295 L 510.362 223.318 L 510.366 223.341 L 510.371 223.364 L 510.375 223.387 L 510.379 223.41 L 510.384 223.433 L 510.388 223.456 L 510.393 223.479 L 510.397 223.502 L 510.401 223.525 L 510.406 223.547 L 510.41 223.57 L 510.415 223.593 L 510.419 223.616 L 510.424 223.639 L 510.428 223.662 L 510.432 223.685 L 510.437 223.708 L 510.441 223.731 L 510.446 223.753 L 510.45 223.776 L 510.454 223.799 L 510.459 223.822 L 510.463 223.845 L 510.468 223.868 L 510.472 223.891 L 510.477 223.914 L 510.481 223.936 L 510.485 223.959 L 510.49 223.982 L 510.494 224.005 L 510.499 224.028 L 510.503 224.051 L 510.508 224.074 L 510.512 224.096 L 510.516 224.119 L 510.521 224.142 L 510.525 224.165 L 510.53 224.188 M 254.356 268.873 L 254.361 268.894 L 254.366 268.915 L 254.371 268.936 L 254.376 268.957 L 254.381 268.979 L 254.386 269 L 254.391 269.021 L 254.396 269.042 L 254.4 269.063 L 254.405 269.085 L 254.41 269.106 L 254.415 269.127 L 254.42 269.148 L 254.425 269.169 L 254.43 269.19 L 254.435 269.212 L 254.44 269.233 L 254.445 269.254 L 254.45 269.275 L 254.454 269.296 L 254.459 269.317 L 254.464 269.339 L 254.469 269.36 L 254.474 269.381 L 254.479 269.402 L 254.484 269.423 L 254.489 269.444 L 254.494 269.466 L 254.499 269.487 L 254.504 269.508 L 254.509 269.529 L 254.513 269.55 L 254.518 269.571 L 254.523 269.593 L 254.528 269.614 L 254.533 269.635 L 254.538 269.656 L 254.543 269.677 L 254.548 269.698 L 254.553 269.72 L 254.558 269.741 L 254.563 269.762 L 254.568 269.783 L 254.573 269.804 L 254.577 269.826 L 254.582 269.847 L 254.587 269.868 L 254.592 269.889 L 254.597 269.91 L 254.602 269.931 L 254.607 269.953 L 254.612 269.974 L 254.617 269.995 L 254.622 270.016 L 254.627 270.037 L 254.632 270.058 L 254.637 270.08 L 254.641 270.101 L 254.646 270.122 L 254.651 270.143 L 254.656 270.164 L 254.661 270.185 L 254.666 270.207 L 254.671 270.228 L 254.676 270.249 L 254.681 270.27 L 254.686 270.291 L 254.691 270.313 L 254.696 270.334 L 254.701 270.355 L 254.705 270.376 L 254.71 270.397 L 254.715 270.418 L 254.72 270.44 L 254.725 270.461 L 254.73 270.482 L 254.735 270.503 L 254.74 270.524 L 254.745 270.545 L 254.75 270.567 L 254.755 270.588 L 254.76 270.609 L 254.765 270.63 L 254.77 270.651 L 254.775 270.673 L 254.779 270.694 L 254.784 270.715 L 254.789 270.736 L 254.794 270.757 L 254.799 270.778 L 254.804 270.8 L 254.809 270.821 L 254.814 270.842 L 254.819 270.863 L 254.824 270.884 L 254.829 270.906 L 254.834 270.927 L 254.839 270.948 L 254.844 270.969 L 254.849 270.99 L 254.854 271.011 L 254.858 271.033 L 254.863 271.054 L 254.868 271.075 L 254.873 271.096 L 254.878 271.117 L 254.883 271.138 L 254.888 271.16 L 254.893 271.181 L 254.898 271.202 L 254.903 271.223 L 254.908 271.244 L 254.913 271.266 L 254.918 271.287 L 254.923 271.308 L 254.928 271.329 L 254.933 271.35 L 254.938 271.372 L 254.942 271.393 L 254.947 271.414 L 254.952 271.435 L 254.957 271.456 L 254.962 271.477 L 254.967 271.499 L 254.972 271.52 L 254.977 271.541 L 254.982 271.562 L 254.987 271.583 L 254.992 271.605 L 254.997 271.626 L 255.002 271.647 L 255.007 271.668 L 255.012 271.689 L 255.017 271.71 L 255.022 271.732 L 255.027 271.753 L 255.032 271.774 L 255.036 271.795 L 255.041 271.816 L 255.046 271.838 L 255.051 271.859 L 255.056 271.88 L 255.061 271.901 L 255.066 271.922 L 255.071 271.944 L 255.076 271.965 L 255.081 271.986 L 255.086 272.007 L 255.091 272.028 L 255.096 272.05 L 255.101 272.071 L 255.106 272.092 L 255.111 272.113 L 255.116 272.134 L 255.121 272.155 L 255.126 272.177 L 255.131 272.198 L 255.136 272.219 L 255.14 272.24 L 255.145 272.261 L 255.15 272.283 L 255.155 272.304 L 255.16 272.325 L 255.165 272.346 L 255.17 272.367 L 255.175 272.389 L 255.18 272.41 L 255.185 272.431 L 255.19 272.452 L 255.195 272.473 L 255.2 272.495 L 255.205 272.516 L 255.21 272.537 L 255.215 272.558 L 255.22 272.579 L 255.225 272.601 L 255.23 272.622 L 255.235 272.643 L 255.24 272.664 L 255.245 272.685 L 255.25 272.707 L 255.255 272.728 L 255.26 272.749 L 255.265 272.77 L 255.27 272.791 L 255.274 272.813 L 255.279 272.834 L 255.284 272.855 L 255.289 272.876 L 255.294 272.897 L 255.299 272.919 L 255.304 272.94 L 255.309 272.961 L 255.314 272.982 L 255.319 273.003 L 255.324 273.025 L 255.329 273.046 L 255.334 273.067 L 255.339 273.088 L 255.344 273.11 L 255.349 273.131 L 255.354 273.152 L 255.359 273.173 L 255.364 273.194 L 255.369 273.216 L 255.374 273.237 L 255.379 273.258 L 255.384 273.279 L 255.389 273.3 L 255.394 273.322 L 255.399 273.343 L 255.404 273.364 L 255.409 273.385 L 255.414 273.407 L 255.419 273.428 L 255.424 273.449 L 255.429 273.47 L 255.434 273.491 L 255.439 273.513 L 255.444 273.534 L 255.449 273.555 L 255.454 273.576 L 255.459 273.597 L 255.463 273.619 L 255.468 273.64 L 255.473 273.661 L 255.478 273.682 L 255.483 273.704 L 255.488 273.725 L 255.493 273.746 L 255.498 273.767 L 255.503 273.788 L 255.508 273.81 L 255.513 273.831 L 255.518 273.852 L 255.523 273.873 L 255.528 273.895 L 255.533 273.916 L 255.538 273.937 L 255.543 273.958 L 255.548 273.979 L 255.553 274.001 L 255.558 274.022 L 255.563 274.043 L 255.568 274.064 L 255.573 274.086 L 255.578 274.107 L 255.583 274.128 L 255.588 274.149 L 255.593 274.171 L 255.598 274.192 L 255.603 274.213 L 255.608 274.234 L 255.613 274.255 L 255.618 274.277 L 255.623 274.298 L 255.628 274.319 L 255.633 274.34 L 255.638 274.362 L 255.643 274.383 L 255.648 274.404 L 255.653 274.425 L 255.658 274.447 L 255.663 274.468 L 255.668 274.489 L 255.673 274.51 L 255.678 274.532 L 255.683 274.553 L 255.688 274.574 L 255.693 274.595 L 255.698 274.617 L 255.703 274.638 L 255.708 274.659 L 255.713 274.68 L 255.718 274.702 L 255.723 274.723 L 255.728 274.744 L 255.733 274.765 L 255.738 274.786 L 255.743 274.808 L 255.748 274.829 L 255.753 274.85 L 255.758 274.871 L 255.763 274.893 L 255.768 274.914 L 255.773 274.935 L 255.778 274.956 L 255.783 274.978 L 255.788 274.999 L 255.793 275.02 L 255.798 275.041 L 255.803 275.063 L 255.808 275.084 L 255.813 275.105 L 255.818 275.127 L 255.823 275.148 L 255.828 275.169 L 255.833 275.19 L 255.838 275.212 L 255.843 275.233 L 255.848 275.254 L 255.853 275.275 L 255.858 275.297 L 255.863 275.318 L 255.868 275.339 L 255.873 275.36 L 255.878 275.382 L 255.883 275.403 L 255.888 275.424 L 255.893 275.445 L 255.898 275.467 L 255.903 275.488 L 255.908 275.509 L 255.913 275.53 L 255.918 275.552 L 255.923 275.573 L 255.928 275.594 L 255.933 275.616 L 255.938 275.637 L 255.943 275.658 L 255.948 275.679 L 255.953 275.701 L 255.958 275.722 L 255.963 275.743 L 255.968 275.764 L 255.973 275.786 L 255.978 275.807 L 255.984 275.828 L 255.989 275.85 L 255.994 275.871 L 255.999 275.892 L 256.004 275.913 L 256.009 275.935 L 256.014 275.956 L 256.019 275.977 L 256.024 275.999 L 256.029 276.02 L 256.034 276.041 L 256.039 276.062 L 256.044 276.084 L 256.049 276.105 L 256.054 276.126 L 256.059 276.148 L 256.064 276.169 L 256.069 276.19 L 256.074 276.211 L 256.079 276.233 L 256.084 276.254 L 256.089 276.275 L 256.094 276.297 L 256.099 276.318 L 256.104 276.339 L 256.109 276.36 L 256.114 276.382 L 256.119 276.403 L 256.124 276.424 L 256.129 276.446 L 256.134 276.467 L 256.139 276.488 L 256.144 276.51 L 256.149 276.531 L 256.154 276.552 L 256.159 276.573 L 256.165 276.595 L 256.17 276.616 L 256.175 276.637 L 256.18 276.659 L 256.185 276.68 L 256.19 276.701 L 256.195 276.723 L 256.2 276.744 L 256.205 276.765 L 256.21 276.786 L 256.215 276.808 L 256.22 276.829 L 256.225 276.85 L 256.23 276.872 L 256.235 276.893 L 256.24 276.914 L 256.245 276.936 L 256.25 276.957 L 256.255 276.978 L 256.26 277 L 256.265 277.021 L 256.27 277.042 L 256.275 277.064 L 256.28 277.085 L 256.285 277.106 L 256.291 277.127 L 256.296 277.149 L 256.301 277.17 L 256.306 277.191 L 256.311 277.213 L 256.316 277.234 L 256.321 277.255 L 256.326 277.277 L 256.331 277.298 L 256.336 277.319 L 256.341 277.341 L 256.346 277.362 L 256.351 277.383 L 256.356 277.405 L 256.361 277.426 L 256.366 277.447 L 256.371 277.469 L 256.376 277.49 L 256.381 277.511 L 256.386 277.533 L 256.392 277.554 L 256.397 277.575 L 256.402 277.597 L 256.407 277.618 L 256.412 277.639 L 256.417 277.661 L 256.422 277.682 L 256.427 277.703 L 256.432 277.725 L 256.437 277.746 L 256.442 277.767 L 256.447 277.789 L 256.452 277.81 L 256.457 277.832 L 256.462 277.853 L 256.467 277.874 L 256.472 277.896 L 256.478 277.917 L 256.483 277.938 L 256.488 277.96 L 256.493 277.981 L 256.498 278.002 L 256.503 278.024 L 256.508 278.045 L 256.513 278.066 L 256.518 278.088 L 256.523 278.109 L 256.528 278.13 L 256.533 278.152 L 256.538 278.173 L 256.543 278.195 L 256.548 278.216 L 256.553 278.237 L 256.559 278.259 L 256.564 278.28 L 256.569 278.301 L 256.574 278.323 L 256.579 278.344 L 256.584 278.365 L 256.589 278.387 L 256.594 278.408 L 256.599 278.43 L 256.604 278.451 L 256.609 278.472 L 256.614 278.494 L 256.619 278.515 L 256.624 278.536 L 256.63 278.558 L 256.635 278.579 L 256.64 278.601 L 256.645 278.622 L 256.65 278.643 L 256.655 278.665 L 256.66 278.686 L 256.665 278.708 L 256.67 278.729 L 256.675 278.75 L 256.68 278.772 L 256.685 278.793 L 256.69 278.814 L 256.696 278.836 L 256.701 278.857 L 256.706 278.879 L 256.711 278.9 L 256.716 278.921 L 256.721 278.943 L 256.726 278.964 L 256.731 278.986 L 256.736 279.007 L 256.741 279.028 L 256.746 279.05 L 256.751 279.071 L 256.757 279.093 L 256.762 279.114 L 256.767 279.135 L 256.772 279.157 L 256.777 279.178 L 256.782 279.2 L 256.787 279.221 L 256.792 279.242 L 256.797 279.264 L 256.802 279.285 L 256.807 279.307 L 256.813 279.328 L 256.818 279.349 L 256.823 279.371 L 256.828 279.392 L 256.833 279.414 L 256.838 279.435 L 256.843 279.457 L 256.848 279.478 L 256.853 279.499 L 256.858 279.521 L 256.863 279.542 L 256.869 279.564 L 256.874 279.585 L 256.879 279.607 L 256.884 279.628 L 256.889 279.649 L 256.894 279.671 L 256.899 279.692 L 256.904 279.714 L 256.909 279.735 L 256.914 279.757 L 256.92 279.778 L 256.925 279.799 L 256.93 279.821 L 256.935 279.842 L 256.94 279.864 L 256.945 279.885 L 256.95 279.907 L 256.955 279.928 L 256.96 279.949 L 256.966 279.971 L 256.971 279.992 L 256.976 280.014 L 256.981 280.035 L 256.986 280.057 L 256.991 280.078 L 256.996 280.1 L 257.001 280.121 L 257.006 280.142 L 257.011 280.164 L 257.017 280.185 L 257.022 280.207 L 257.027 280.228 L 257.032 280.25 L 257.037 280.271 L 257.042 280.293 L 257.047 280.314 L 257.052 280.336 L 257.057 280.357 L 257.063 280.378 L 257.068 280.4 L 257.073 280.421 L 257.078 280.443 L 257.083 280.464 L 257.088 280.486 L 257.093 280.507 L 257.098 280.529 L 257.104 280.55 L 257.109 280.572 L 257.114 280.593 L 257.119 280.615 L 257.124 280.636 L 257.129 280.658 L 257.134 280.679 L 257.139 280.701 L 257.144 280.722 L 257.15 280.744 L 257.155 280.765 L 257.16 280.786 L 257.165 280.808 L 257.17 280.829 L 257.175 280.851 L 257.18 280.872 L 257.185 280.894 L 257.191 280.915 L 257.196 280.937 L 257.201 280.958 L 257.206 280.98 L 257.211 281.001 L 257.216 281.023 L 257.221 281.044 L 257.227 281.066 L 257.232 281.087 L 257.237 281.109 L 257.242 281.13 L 257.247 281.152 L 257.252 281.173 L 257.257 281.195 L 257.262 281.216 L 257.268 281.238 L 257.273 281.259 L 257.278 281.281 L 257.283 281.302 L 257.288 281.324 L 257.293 281.345 L 257.298 281.367 L 257.304 281.388 L 257.309 281.41 L 257.314 281.432 L 257.319 281.453 L 257.324 281.475 L 257.329 281.496 L 257.334 281.518 L 257.339 281.539 L 257.345 281.561 L 257.35 281.582 L 257.355 281.604 L 257.36 281.625 L 257.365 281.647 L 257.37 281.668 L 257.375 281.69 L 257.381 281.711 L 257.386 281.733 L 257.391 281.754 L 257.396 281.776 L 257.401 281.798 L 257.406 281.819 L 257.411 281.841 L 257.417 281.862 L 257.422 281.884 L 257.427 281.905 L 257.432 281.927 L 257.437 281.948 L 257.442 281.97 L 257.448 281.991 L 257.453 282.013 L 257.458 282.035 L 257.463 282.056 L 257.468 282.078 L 257.473 282.099 L 257.478 282.121 L 257.484 282.142 L 257.489 282.164 L 257.494 282.185 L 257.499 282.207 L 257.504 282.229 L 257.509 282.25 L 257.515 282.272 L 257.52 282.293 L 257.525 282.315 L 257.53 282.336 L 257.535 282.358 L 257.54 282.38 L 257.546 282.401 L 257.551 282.423 L 257.556 282.444 L 257.561 282.466 L 257.566 282.487 L 257.571 282.509 L 257.576 282.531 L 257.582 282.552 L 257.587 282.574 L 257.592 282.595 L 257.597 282.617 L 257.602 282.639 L 257.607 282.66 L 257.613 282.682 L 257.618 282.703 L 257.623 282.725 L 257.628 282.746 L 257.633 282.768 L 257.638 282.79 L 257.644 282.811 L 257.649 282.833 L 257.654 282.854 L 257.659 282.876 L 257.664 282.898 L 257.67 282.919 L 257.675 282.941 L 257.68 282.962 L 257.685 282.984 L 257.69 283.006 L 257.695 283.027 L 257.701 283.049 L 257.706 283.071 L 257.711 283.092 L 257.716 283.114 L 257.721 283.135 L 257.726 283.157 L 257.732 283.179 L 257.737 283.2 L 257.742 283.222 L 257.747 283.243 L 257.752 283.265 L 257.758 283.287 L 257.763 283.308 L 257.768 283.33 L 257.773 283.352 L 257.778 283.373 L 257.783 283.395 L 257.789 283.417 L 257.794 283.438 L 257.799 283.46 L 257.804 283.481 L 257.809 283.503 L 257.815 283.525 L 257.82 283.546 L 257.825 283.568 L 257.83 283.59 L 257.835 283.611 L 257.841 283.633 L 257.846 283.655 L 257.851 283.676 L 257.856 283.698 L 257.861 283.72 L 257.866 283.741 L 257.872 283.763 L 257.877 283.785 L 257.882 283.806 L 257.887 283.828 L 257.892 283.85 L 257.898 283.871 L 257.903 283.893 L 257.908 283.915 L 257.913 283.936 L 257.918 283.958 L 257.924 283.98 L 257.929 284.001 L 257.934 284.023 L 257.939 284.045 L 257.944 284.066 L 257.95 284.088 L 257.955 284.11 L 257.96 284.131 L 257.965 284.153 L 257.97 284.175 L 257.976 284.196 L 257.981 284.218 L 257.986 284.24 L 257.991 284.261 L 257.996 284.283 L 258.002 284.305 L 258.007 284.326 L 258.012 284.348 L 258.017 284.37 L 258.023 284.392 L 258.028 284.413 L 258.033 284.435 L 258.038 284.457 L 258.043 284.478 L 258.049 284.5 L 258.054 284.522 L 258.059 284.544 L 258.064 284.565 L 258.069 284.587 L 258.075 284.609 L 258.08 284.63 L 258.085 284.652 L 258.09 284.674 L 258.096 284.696 L 258.101 284.717 L 258.106 284.739 L 258.111 284.761 L 258.116 284.782 L 258.122 284.804 L 258.127 284.826 L 258.132 284.848 L 258.137 284.869 L 258.142 284.891 L 258.148 284.913 L 258.153 284.935 L 258.158 284.956 L 258.163 284.978 L 258.169 285 L 258.174 285.022 L 258.179 285.043 L 258.184 285.065 L 258.19 285.087 L 258.195 285.108 L 258.2 285.13 L 258.205 285.152 L 258.21 285.174 L 258.216 285.195 L 258.221 285.217 L 258.226 285.239 L 258.231 285.261 L 258.237 285.283 L 258.242 285.304 L 258.247 285.326 L 258.252 285.348 L 258.258 285.37 L 258.263 285.391 L 258.268 285.413 L 258.273 285.435 L 258.278 285.457 L 258.284 285.478 L 258.289 285.5 L 258.294 285.522 L 258.299 285.544 L 258.305 285.566 L 258.31 285.587 L 258.315 285.609 L 258.32 285.631 L 258.326 285.653 L 258.331 285.674 L 258.336 285.696 L 258.341 285.718 L 258.347 285.74 L 258.352 285.762 L 258.357 285.783 L 258.362 285.805 L 258.368 285.827 L 258.373 285.849 L 258.378 285.871 L 258.383 285.892 L 258.389 285.914 L 258.394 285.936 L 258.399 285.958 L 258.404 285.98 L 258.41 286.001 L 258.415 286.023 L 258.42 286.045 L 258.425 286.067 L 258.431 286.089 L 258.436 286.111 L 258.441 286.132 L 258.446 286.154 L 258.452 286.176 L 258.457 286.198 L 258.462 286.22 L 258.467 286.242 L 258.473 286.263 L 258.478 286.285 L 258.483 286.307 L 258.488 286.329 L 258.494 286.351 L 258.499 286.373 L 258.504 286.394 L 258.509 286.416 L 258.515 286.438 L 258.52 286.46 L 258.525 286.482 L 258.53 286.504 L 258.536 286.525 L 258.541 286.547 L 258.546 286.569 L 258.552 286.591 L 258.557 286.613 L 258.562 286.635 L 258.567 286.657 L 258.573 286.678 L 258.578 286.7 L 258.583 286.722 L 258.588 286.744 L 258.594 286.766 L 258.599 286.788 L 258.604 286.81 L 258.609 286.832 L 258.615 286.853 L 258.62 286.875 L 258.625 286.897 L 258.631 286.919 L 258.636 286.941 L 258.641 286.963 L 258.646 286.985 L 258.652 287.007 L 258.657 287.028 L 258.662 287.05 L 258.668 287.072 L 258.673 287.094 L 258.678 287.116 L 258.683 287.138 L 258.689 287.16 L 258.694 287.182 L 258.699 287.204 L 258.704 287.226 L 258.71 287.247 L 258.715 287.269 L 258.72 287.291 L 258.726 287.313 L 258.731 287.335 L 258.736 287.357 L 258.741 287.379 L 258.747 287.401 L 258.752 287.423 L 258.757 287.445 L 258.763 287.467 L 258.768 287.489 L 258.773 287.51 L 258.778 287.532 L 258.784 287.554 L 258.789 287.576 L 258.794 287.598 L 258.8 287.62 L 258.805 287.642 L 258.81 287.664 L 258.816 287.686 L 258.821 287.708 L 258.826 287.73 L 258.831 287.752 L 258.837 287.774 L 258.842 287.796 L 258.847 287.818 L 258.853 287.84 L 258.858 287.862 L 258.863 287.883 L 258.869 287.905 L 258.874 287.927 L 258.879 287.949 L 258.884 287.971 L 258.89 287.993 L 258.895 288.015 L 258.9 288.037 L 258.906 288.059 L 258.911 288.081 L 258.916 288.103 L 258.922 288.125 L 258.927 288.147 L 258.932 288.169 L 258.937 288.191 L 258.943 288.213 L 258.948 288.235 L 258.953 288.257 L 258.959 288.279 L 258.964 288.301 L 258.969 288.323 L 258.975 288.345 L 258.98 288.367 L 258.985 288.389 L 258.991 288.411 L 258.996 288.433 L 259.001 288.455 L 259.007 288.477 L 259.012 288.499 L 259.017 288.521 L 259.023 288.543 L 259.028 288.565 L 259.033 288.587 L 259.038 288.609 L 259.044 288.631 L 259.049 288.653 L 259.054 288.675 L 259.06 288.697 L 259.065 288.719 L 259.07 288.741 L 259.076 288.763 L 259.081 288.785 L 259.086 288.807 L 259.092 288.829 L 259.097 288.851 L 259.102 288.873 L 259.108 288.895 L 259.113 288.917 L 259.118 288.939 L 259.124 288.961 L 259.129 288.984 L 259.134 289.006 L 259.14 289.028 L 259.145 289.05 L 259.15 289.072 L 259.156 289.094 L 259.161 289.116 L 259.166 289.138 L 259.172 289.16 L 259.177 289.182 L 259.182 289.204 L 259.188 289.226 L 259.193 289.248 L 259.198 289.27 L 259.204 289.292 L 259.209 289.314 L 259.214 289.337 L 259.22 289.359 L 259.225 289.381 L 259.23 289.403 L 259.236 289.425 L 259.241 289.447 L 259.246 289.469 L 259.252 289.491 L 259.257 289.513 L 259.262 289.535 L 259.268 289.557 L 259.273 289.579 L 259.279 289.602 L 259.284 289.624 L 259.289 289.646 L 259.295 289.668 L 259.3 289.69 L 259.305 289.712 L 259.311 289.734 L 259.316 289.756 L 259.321 289.778 L 259.327 289.801 L 259.332 289.823 L 259.337 289.845 L 259.343 289.867 L 259.348 289.889 L 259.353 289.911 L 259.359 289.933 L 259.364 289.955 L 259.37 289.978 L 259.375 290 L 259.38 290.022 L 259.386 290.044 L 259.391 290.066 L 259.396 290.088 L 259.402 290.11 L 259.407 290.133 L 259.412 290.155 L 259.418 290.177 L 259.423 290.199 L 259.429 290.221 L 259.434 290.243 L 259.439 290.265 L 259.445 290.288 L 259.45 290.31 L 259.455 290.332 L 259.461 290.354" id="blue" stroke="blue" style="stroke:blue" vector-effect="non-scaling-stroke"/><g id="captions"><text alignment-baseline="middle" text-anchor="middle" transform="rotate(0,370.057,252.343)" x="370.057" y="252.343">WIND, 1, 1</text></g></g></svg>