<svg width="489.17" height="910.793" viewBox="0 0 489.17 910.793" xmlns="http://www.w3.org/2000/svg"><g id="svgGroup" stroke-linecap="round" fill-rule="evenodd" font-size="9pt" stroke="#000" stroke-width="0.25mm" fill="none" style="stroke:#000;stroke-width:0.25mm;fill:none"><path d="M 489.123 3.638 L 480.677 3.411 L 474.364 3.245 L 470.166 3.137 L 463.884 2.979 L 457.621 2.825 L 453.456 2.724 L 447.224 2.577 L 441.01 2.434 L 436.878 2.341 L 430.695 2.206 L 424.529 2.074 L 420.43 1.988 L 414.295 1.864 L 408.178 1.743 L 404.11 1.665 L 398.023 1.552 L 391.953 1.442 L 385.902 1.337 L 381.877 1.269 L 375.855 1.17 L 369.85 1.076 L 363.863 0.985 L 359.881 0.927 L 353.923 0.844 L 347.981 0.764 L 342.057 0.688 L 336.15 0.617 L 332.222 0.571 L 326.343 0.506 L 320.481 0.445 L 314.636 0.389 L 308.807 0.335 L 302.996 0.286 L 299.13 0.256 L 293.346 0.213 L 287.578 0.175 L 281.826 0.14 L 276.091 0.109 L 270.372 0.082 L 264.669 0.059 L 258.982 0.04 L 255.2 0.029 L 249.539 0.016 L 243.894 0.007 L 238.265 0.002 L 232.652 0 L 227.054 0.002 L 221.472 0.008 L 215.905 0.018 L 210.354 0.032 L 204.818 0.049 L 199.297 0.07 L 193.791 0.095 L 188.3 0.123 L 182.824 0.155 L 177.363 0.191 L 171.917 0.23 L 166.486 0.273 L 161.069 0.32 L 155.666 0.37 L 150.279 0.424 L 144.905 0.482 L 139.546 0.543 L 132.423 0.63 L 127.097 0.699 L 121.785 0.772 L 116.487 0.849 L 111.203 0.929 L 105.933 1.012 L 100.677 1.099 L 95.434 1.19 L 88.465 1.316 L 83.254 1.415 L 78.056 1.517 L 72.872 1.622 L 67.701 1.731 L 60.826 1.882 L 55.686 1.998 L 50.559 2.119 L 45.444 2.242 L 40.342 2.369 L 33.56 2.544 L 28.488 2.679 L 23.429 2.817 L 18.382 2.958 L 18.391 8.742 L 18.401 14.514 L 18.412 20.273 L 18.425 26.021 L 18.438 31.757 L 18.452 37.481 L 18.467 43.192 L 18.483 48.892 L 18.5 54.579 L 18.519 60.255 L 18.538 65.918 L 18.558 71.57 L 18.579 77.209 L 18.601 82.837 L 18.601 83.113 L 0 80.753 L 0.212 126.092 L 18.79 123.558 L 37.365 120.998 L 37.631 165.162 L 19.027 162.827 L 0.42 160.517 L 0.738 203.507 L 19.309 200.922 L 37.877 198.311 L 38.244 240.128 L 19.634 237.844 L 1.02 235.586 L 1.434 276.232 L 19.998 273.595 L 38.557 270.928 L 39.146 320.606 L 20.528 318.379 L 1.907 316.182 L 2.421 354.324 L 20.976 351.627 L 39.526 348.898 L 40.236 395.719 L 21.612 393.553 L 2.984 391.419 L 3.583 427.066 L 22.129 424.306 L 22.278 432.615 L 22.365 437.431 L 22.453 442.234 L 22.542 447.026 L 22.632 451.806 L 22.723 456.574 L 22.815 461.33 L 22.908 466.075 L 23.001 470.807 L 23.096 475.528 L 23.191 480.237 L 23.288 484.934 L 23.385 489.619 L 23.484 494.293 L 23.583 498.954 L 23.683 503.604 L 23.784 508.242 L 23.886 512.868 L 23.989 517.483 L 24.093 522.085 L 24.131 522.082 L 24.229 526.505 L 24.327 530.917 L 24.426 535.317 L 24.527 539.707 L 24.628 544.086 L 24.729 548.454 L 24.832 552.811 L 24.935 557.157 L 25.04 561.492 L 25.145 565.816 L 25.251 570.13 L 25.358 574.432 L 25.465 578.724 L 25.574 583.004 L 25.683 587.274 L 25.793 591.533 L 25.904 595.781 L 26.016 600.018 L 26.134 604.446 L 7.483 602.52 L 8.673 645.019 L 27.187 642.053 L 45.693 639.036 L 47.189 687.82 L 28.533 685.944 L 9.872 684.12 L 11.171 722.92 L 29.668 719.852 L 48.157 716.734 L 49.775 761.423 L 31.109 759.65 L 12.438 757.935 L 14.111 800.483 L 32.59 797.307 L 51.059 794.073 L 52.776 834.491 L 34.099 832.834 L 34.171 834.46 L 34.33 838.04 L 34.49 841.611 L 34.65 845.17 L 34.811 848.719 L 34.973 852.257 L 35.135 855.785 L 35.298 859.302 L 35.462 862.808 L 35.626 866.304 L 35.791 869.79 L 35.957 873.264 L 36.123 876.729 L 36.29 880.182 L 36.458 883.626 L 36.627 887.058 L 36.796 890.481 L 36.966 893.892 L 37.136 897.293 L 37.307 900.684 L 37.479 904.064 L 37.652 907.434 L 37.825 910.793 L 42.523 906.466 L 46.514 902.138 L 53.828 896.63 L 56.977 892.265 L 63.364 886.726 L 67.311 882.296 L 73.601 876.695 L 78.281 872.19 L 83.149 866.552 L 89.287 860.854 L 93.173 856.291 L 98.689 850.544 L 105.313 844.726 L 108.532 840.088 L 113.944 834.239 L 119.319 828.354 L 124.658 822.432 L 129.961 816.473 L 135.227 810.477 L 140.458 804.443 L 146.173 798.358 L 150.813 792.253 L 155.935 786.106 L 161.021 779.922 L 166.071 773.699 L 171.086 767.438 L 175.783 761.144 L 181.991 753.533 L 186.892 747.148 L 191.503 740.729 L 197.549 732.968 L 202.1 726.462 L 208.036 718.597 L 212.527 712.003 L 218.354 704.033 L 222.785 697.35 L 228.308 689.277 L 233.969 681.143 L 238.307 674.322 L 243.689 666.083 L 249.022 657.784 L 254.306 649.426 L 259.189 641.013 L 264.724 632.536 L 269.861 623.998 L 274.834 615.4 L 280.823 605.292 L 285.806 596.56 L 290.642 587.768 L 296.436 577.432 L 300.935 568.508 L 306.756 558.018 L 312.35 547.439 L 316.946 538.303 L 322.341 527.566 L 327.671 516.741 L 332.765 505.83 L 338.085 494.834 L 344.004 482.157 L 349.07 470.969 L 354.03 459.692 L 359.548 446.696 L 365.268 433.584 L 370.03 422.012 L 375.436 408.677 L 380.646 395.222 L 386.656 379.945 L 391.809 366.235 L 396.864 352.404 L 402.416 336.699 L 407.99 320.842 L 413.401 304.826 L 418.67 288.653 L 423.916 272.325 L 429.592 253.996 L 435.117 235.469 L 440.572 216.746 L 446.413 195.919 L 451.572 176.775 L 457.145 155.485 L 463.047 131.978 L 468.296 110.172 L 473.876 86.1 L 479.723 59.686 L 489.17 14.18 L 489.169 14.085 L 489.169 13.989 L 489.168 13.893 L 489.167 13.797 L 489.166 13.7 L 489.165 13.604 L 489.164 13.507 L 489.163 13.41 L 489.162 13.313 L 489.161 13.215 L 489.16 13.118 L 489.16 13.02 L 489.159 12.922 L 489.158 12.824 L 489.157 12.726 L 489.156 12.627 L 489.156 12.528 L 489.155 12.429 L 489.154 12.33 L 489.153 12.231 L 489.152 12.131 L 489.152 12.031 L 489.151 11.931 L 489.15 11.831 L 489.15 11.731 L 489.149 11.63 L 489.148 11.53 L 489.147 11.429 L 489.147 11.328 L 489.146 11.226 L 489.145 11.125 L 489.145 11.023 L 489.144 10.921 L 489.144 10.819 L 489.143 10.717 L 489.142 10.614 L 489.142 10.511 L 489.141 10.408 L 489.141 10.305 L 489.14 10.202 L 489.139 10.098 L 489.139 9.995 L 489.138 9.891 L 489.138 9.787 L 489.137 9.682 L 489.137 9.578 L 489.136 9.473 L 489.136 9.368 L 489.135 9.263 L 489.135 9.158 L 489.134 9.052 L 489.134 8.946 L 489.133 8.84 L 489.133 8.734 L 489.133 8.628 L 489.132 8.521 L 489.132 8.415 L 489.131 8.308 L 489.131 8.201 L 489.131 8.093 L 489.13 7.986 L 489.13 7.878 L 489.13 7.77 L 489.129 7.662 L 489.129 7.554 L 489.129 7.445 L 489.128 7.337 L 489.128 7.228 L 489.128 7.119 L 489.127 7.009 L 489.127 6.9 L 489.127 6.79 L 489.127 6.68 L 489.126 6.57 L 489.126 6.46 L 489.126 6.349 L 489.126 6.239 L 489.125 6.128 L 489.125 6.017 L 489.125 5.905 L 489.125 5.794 L 489.125 5.682 L 489.125 5.57 L 489.124 5.458 L 489.124 5.346 L 489.124 5.234 L 489.124 5.121 L 489.124 5.008 L 489.124 4.895 L 489.124 4.782 L 489.124 4.668 L 489.124 4.555 L 489.123 4.441 L 489.123 4.327 L 489.123 4.212 L 489.123 4.098 L 489.123 3.983 L 489.123 3.868 L 489.123 3.753 L 489.123 3.638 Z" vector-effect="non-scaling-stroke"/><g id="captions"><text alignment-baseline="middle" text-anchor="middle" transform="rotate(0,251.923,324.721)" x="251.923" y="324.721">WIND, 0, 0</text></g></g></svg>