<svg width="117.303" height="177.028" viewBox="0 0 117.303 177.028" xmlns="http://www.w3.org/2000/svg"><g id="svgGroup" stroke-linecap="round" fill-rule="evenodd" font-size="9pt" stroke="#000" stroke-width="0.25mm" fill="none" style="stroke:#000;stroke-width:0.25mm;fill:none"><path d="M 112.955 0 L 111.613 0.039 L 110.609 0.069 L 109.608 0.099 L 108.277 0.141 L 107.282 0.173 L 106.288 0.206 L 104.968 0.25 L 103.98 0.285 L 102.995 0.32 L 101.685 0.367 L 100.705 0.403 L 99.728 0.44 L 98.428 0.491 L 97.456 0.529 L 96.486 0.568 L 95.196 0.621 L 94.231 0.662 L 92.948 0.716 L 91.988 0.758 L 90.712 0.815 L 89.757 0.859 L 88.804 0.903 L 87.537 0.962 L 86.59 1.007 L 85.329 1.069 L 84.386 1.115 L 83.132 1.179 L 82.194 1.227 L 80.946 1.292 L 80.012 1.341 L 78.77 1.408 L 77.841 1.459 L 76.605 1.527 L 75.372 1.597 L 74.45 1.65 L 73.223 1.721 L 72.305 1.776 L 71.084 1.849 L 70.171 1.904 L 68.955 1.979 L 67.743 2.055 L 66.835 2.112 L 65.628 2.19 L 64.425 2.268 L 63.523 2.328 L 62.325 2.408 L 61.428 2.469 L 60.234 2.551 L 59.043 2.633 L 58.152 2.696 L 56.966 2.78 L 55.783 2.866 L 54.602 2.952 L 53.719 3.017 L 52.543 3.105 L 51.37 3.194 L 50.492 3.261 L 49.323 3.351 L 48.157 3.442 L 46.993 3.534 L 46.122 3.604 L 44.962 3.697 L 43.805 3.792 L 42.65 3.887 L 41.786 3.959 L 40.635 4.056 L 39.486 4.153 L 38.34 4.251 L 37.196 4.351 L 36.339 4.426 L 35.198 4.526 L 34.06 4.628 L 32.923 4.73 L 31.788 4.833 L 30.656 4.937 L 29.808 5.015 L 28.678 5.121 L 27.551 5.227 L 26.425 5.333 L 25.301 5.441 L 24.178 5.549 L 23.338 5.631 L 22.218 5.74 L 21.1 5.851 L 19.984 5.962 L 18.869 6.074 L 17.756 6.186 L 16.644 6.299 L 15.534 6.413 L 14.425 6.528 L 13.594 6.615 L 12.487 6.73 L 11.381 6.847 L 10.277 6.964 L 9.174 7.082 L 8.072 7.201 L 6.971 7.32 L 5.871 7.44 L 4.773 7.561 L 3.675 7.682 L 3.675 8.604 L 3.675 9.525 L 3.676 10.445 L 3.676 11.362 L 3.677 12.278 L 3.678 13.193 L 3.679 14.106 L 3.68 15.017 L 3.681 15.927 L 3.683 16.835 L 3.684 17.742 L 3.686 18.647 L 3.688 19.551 L 3.69 20.452 L 3.692 21.353 L 3.694 22.252 L 3.695 22.614 L 0 21.976 L 0.035 31.787 L 3.726 31.123 L 7.416 30.453 L 7.456 38.272 L 3.759 37.639 L 0.062 37.013 L 0.124 46.344 L 3.813 45.669 L 7.5 44.986 L 7.577 54.065 L 3.879 53.445 L 0.179 52.832 L 0.27 61.658 L 3.956 60.969 L 7.641 60.273 L 7.746 68.848 L 4.045 68.242 L 0.343 67.643 L 0.461 75.968 L 4.144 75.265 L 4.164 76.522 L 4.176 77.32 L 4.189 78.116 L 4.201 78.91 L 4.214 79.703 L 4.227 80.494 L 4.24 81.284 L 4.254 82.072 L 4.267 82.859 L 4.281 83.644 L 4.295 84.428 L 4.309 85.21 L 4.323 85.991 L 4.338 86.77 L 4.352 87.547 L 4.367 88.323 L 4.382 89.098 L 4.397 89.871 L 4.412 90.642 L 4.427 91.412 L 4.442 92.18 L 4.448 92.18 L 4.467 93.146 L 4.487 94.109 L 4.508 95.07 L 4.528 96.029 L 4.549 96.986 L 4.57 97.939 L 4.591 98.891 L 4.612 99.84 L 4.634 100.787 L 4.656 101.731 L 4.678 102.673 L 4.701 103.612 L 4.723 104.549 L 4.746 105.484 L 4.77 106.416 L 4.793 107.346 L 4.817 108.273 L 4.862 110.012 L 8.536 109.259 L 8.771 117.69 L 5.061 117.142 L 1.35 116.604 L 1.599 124.73 L 5.27 123.965 L 8.939 123.189 L 9.263 132.742 L 5.55 132.216 L 1.836 131.703 L 2.115 139.185 L 5.781 138.397 L 9.445 137.596 L 9.804 146.43 L 6.088 145.929 L 2.369 145.445 L 2.822 155.507 L 6.482 154.69 L 10.139 153.857 L 10.537 161.9 L 6.817 161.432 L 6.842 161.918 L 6.882 162.695 L 6.923 163.47 L 6.964 164.242 L 7.005 165.012 L 7.047 165.78 L 7.089 166.546 L 7.131 167.309 L 7.173 168.07 L 7.216 168.829 L 7.259 169.586 L 7.302 170.34 L 7.345 171.092 L 7.389 171.842 L 7.433 172.589 L 7.477 173.335 L 7.521 174.078 L 7.566 174.819 L 7.611 175.557 L 7.656 176.294 L 7.702 177.028 L 8.787 176.5 L 9.87 175.97 L 10.952 175.438 L 12.032 174.903 L 13.11 174.366 L 14.186 173.826 L 15.261 173.284 L 16.335 172.74 L 17.195 172.201 L 18.363 171.686 L 19.431 171.134 L 20.498 170.58 L 21.563 170.023 L 22.627 169.463 L 23.689 168.901 L 24.751 168.336 L 25.81 167.769 L 26.474 167.213 L 28.009 166.585 L 29.063 166.009 L 30.117 165.431 L 31.169 164.85 L 32.22 164.267 L 32.907 163.693 L 34.394 163.049 L 35.441 162.457 L 36.486 161.862 L 37.53 161.264 L 38.415 160.669 L 39.649 159.978 L 40.726 159.41 L 41.765 158.801 L 42.655 158.194 L 44.027 157.484 L 44.919 156.87 L 45.976 156.289 L 46.871 155.669 L 48.226 154.946 L 49.123 154.32 L 50.033 153.731 L 51.374 152.997 L 52.276 152.362 L 53.484 151.625 L 54.51 151.019 L 55.416 150.373 L 56.619 149.626 L 57.519 149.014 L 58.831 148.256 L 59.743 147.595 L 60.938 146.833 L 61.832 146.207 L 63.129 145.434 L 63.93 144.762 L 65.204 144.023 L 66.013 143.343 L 67.274 142.596 L 68.198 141.906 L 69.38 141.111 L 70.265 140.455 L 71.445 139.652 L 72.623 138.844 L 73.504 138.176 L 74.586 137.362 L 75.795 136.581 L 76.641 135.86 L 77.764 135.073 L 79.007 134.235 L 79.865 133.499 L 80.975 132.698 L 82.062 131.849 L 83.164 131.037 L 84.327 130.176 L 85.197 129.458 L 86.287 128.588 L 87.374 127.755 L 88.466 126.874 L 89.544 126.029 L 90.637 125.136 L 91.646 124.281 L 92.765 123.418 L 93.669 122.611 L 94.73 121.736 L 95.828 120.811 L 96.842 119.923 L 98.118 118.876 L 99.115 117.975 L 100.158 117.064 L 101.26 116.101 L 102.252 115.175 L 103.286 114.24 L 104.391 113.251 L 105.341 112.3 L 106.531 111.229 L 107.638 110.211 L 108.62 109.229 L 109.61 108.235 L 110.871 107.075 L 111.849 106.057 L 112.834 105.026 L 114.097 103.825 L 114.076 102.905 L 114.056 101.982 L 114.035 101.057 L 114.015 100.129 L 113.995 99.199 L 113.975 98.267 L 113.956 97.332 L 113.936 96.395 L 113.917 95.456 L 113.898 94.514 L 113.879 93.57 L 113.86 92.623 L 113.842 91.674 L 113.823 90.723 L 113.805 89.77 L 113.787 88.814 L 113.769 87.855 L 113.752 86.895 L 113.734 85.931 L 113.704 84.27 L 110.023 84.983 L 109.897 77.53 L 113.601 78.119 L 117.303 78.714 L 117.157 69.027 L 113.474 69.734 L 109.79 70.435 L 109.683 62.483 L 113.384 63.084 L 117.085 63.692 L 116.963 53.433 L 113.278 54.127 L 109.592 54.816 L 109.506 46.364 L 113.205 46.977 L 116.904 47.596 L 116.828 38.909 L 113.14 39.593 L 109.452 40.271 L 109.386 31.35 L 113.084 31.974 L 116.781 32.603 L 116.726 23.446 L 113.037 24.12 L 109.347 24.788 L 109.303 15.397 L 112.999 16.031 L 112.999 15.976 L 112.994 14.85 L 112.99 13.722 L 112.986 12.592 L 112.982 11.459 L 112.979 10.324 L 112.975 9.187 L 112.972 8.047 L 112.969 6.904 L 112.966 5.76 L 112.963 4.613 L 112.961 3.463 L 112.959 2.311 L 112.957 1.157 L 112.955 0 Z" vector-effect="non-scaling-stroke"/><g id="captions"><text alignment-baseline="middle" text-anchor="middle" transform="rotate(0,59.545,74.764)" x="59.545" y="74.764">WIND, 1, 0</text></g></g></svg>