<svg width="26.63" height="55.119" viewBox="0 0 26.63 55.119" xmlns="http://www.w3.org/2000/svg"><g id="svgGroup" stroke-linecap="round" fill-rule="evenodd" font-size="9pt" stroke="#000" stroke-width="0.25mm" fill="none" style="stroke:#000;stroke-width:0.25mm;fill:none"><path d="M 20.806 0 L 19.766 0.146 L 18.725 0.292 L 17.685 0.438 L 16.645 0.583 L 15.605 0.729 L 14.564 0.874 L 13.524 1.019 L 12.484 1.164 L 11.444 1.308 L 10.403 1.453 L 9.363 1.597 L 8.323 1.741 L 7.282 1.885 L 6.242 2.029 L 5.202 2.173 L 4.161 2.316 L 3.121 2.46 L 2.081 2.603 L 1.04 2.746 L 0 2.889 L 2.893 55.119 L 3.938 55.057 L 4.983 54.994 L 6.029 54.932 L 7.074 54.87 L 8.119 54.807 L 9.164 54.744 L 10.209 54.681 L 11.254 54.619 L 12.299 54.556 L 13.345 54.492 L 14.39 54.429 L 15.435 54.366 L 16.48 54.302 L 17.525 54.238 L 18.57 54.175 L 19.615 54.111 L 20.66 54.047 L 21.706 53.983 L 22.751 53.918 L 23.795 53.854 L 23.793 53.807 L 23.79 53.76 L 23.787 53.713 L 23.785 53.666 L 23.782 53.619 L 23.779 53.572 L 23.777 53.525 L 23.774 53.477 L 23.771 53.43 L 23.768 53.383 L 23.766 53.336 L 23.763 53.289 L 23.76 53.242 L 23.758 53.195 L 23.755 53.147 L 23.752 53.1 L 23.75 53.053 L 23.747 53.006 L 23.744 52.959 L 23.742 52.911 L 23.739 52.864 L 23.736 52.817 L 23.733 52.77 L 23.731 52.722 L 23.728 52.675 L 23.725 52.628 L 23.723 52.58 L 23.72 52.533 L 23.717 52.486 L 23.715 52.438 L 23.712 52.391 L 23.709 52.344 L 23.706 52.296 L 23.704 52.249 L 23.701 52.201 L 23.698 52.154 L 23.696 52.106 L 23.693 52.059 L 23.69 52.011 L 23.688 51.964 L 23.685 51.916 L 23.682 51.869 L 23.679 51.821 L 23.677 51.774 L 23.674 51.726 L 23.671 51.679 L 23.669 51.631 L 23.666 51.584 L 23.663 51.536 L 23.66 51.488 L 23.658 51.441 L 23.655 51.393 L 23.652 51.345 L 23.65 51.298 L 23.647 51.25 L 23.644 51.202 L 23.641 51.155 L 23.639 51.107 L 23.636 51.059 L 23.633 51.011 L 23.631 50.964 L 23.628 50.916 L 23.625 50.868 L 23.622 50.82 L 23.62 50.772 L 23.617 50.725 L 23.614 50.677 L 23.612 50.629 L 23.609 50.581 L 23.606 50.533 L 23.603 50.485 L 23.601 50.437 L 23.598 50.389 L 23.595 50.342 L 23.592 50.294 L 23.59 50.246 L 23.587 50.198 L 23.584 50.15 L 23.582 50.102 L 23.579 50.054 L 23.576 50.006 L 23.573 49.958 L 23.571 49.91 L 23.568 49.862 L 23.565 49.813 L 23.562 49.765 L 23.56 49.717 L 23.557 49.669 L 23.554 49.621 L 23.552 49.573 L 23.549 49.525 L 23.546 49.477 L 23.543 49.428 L 23.541 49.38 L 23.538 49.332 L 23.535 49.284 L 23.532 49.236 L 23.53 49.187 L 23.527 49.139 L 23.524 49.091 L 23.521 49.043 L 23.519 48.994 L 23.516 48.946 L 23.513 48.898 L 23.51 48.849 L 23.508 48.801 L 23.505 48.753 L 23.502 48.704 L 23.499 48.656 L 23.497 48.607 L 23.494 48.559 L 23.491 48.511 L 23.488 48.462 L 23.486 48.414 L 23.483 48.365 L 23.48 48.317 L 23.477 48.268 L 23.475 48.22 L 23.472 48.171 L 23.469 48.123 L 23.466 48.074 L 23.464 48.026 L 23.461 47.977 L 23.458 47.929 L 23.455 47.88 L 23.453 47.831 L 23.45 47.783 L 23.447 47.734 L 23.444 47.685 L 23.442 47.637 L 23.439 47.588 L 23.436 47.539 L 23.433 47.491 L 23.431 47.442 L 23.428 47.393 L 23.425 47.345 L 23.422 47.296 L 23.42 47.247 L 23.417 47.198 L 23.414 47.149 L 23.411 47.101 L 23.409 47.052 L 23.406 47.003 L 23.403 46.954 L 23.4 46.905 L 23.398 46.856 L 23.395 46.808 L 23.392 46.759 L 23.389 46.71 L 23.386 46.661 L 23.384 46.612 L 23.381 46.563 L 23.378 46.514 L 23.375 46.465 L 23.373 46.416 L 23.37 46.367 L 23.367 46.318 L 23.364 46.269 L 23.362 46.22 L 23.359 46.171 L 23.356 46.122 L 23.353 46.073 L 23.35 46.024 L 23.348 45.975 L 23.345 45.925 L 23.342 45.876 L 23.339 45.827 L 23.337 45.778 L 23.334 45.729 L 23.331 45.68 L 23.327 45.612 L 19.677 46.47 L 19.183 37.695 L 22.907 38.138 L 26.63 38.582 L 26.136 29.725 L 22.485 30.581 L 18.834 31.436 L 18.347 22.647 L 22.07 23.093 L 25.794 23.54 L 25.31 14.761 L 21.659 15.614 L 18.007 16.466 L 17.529 7.744 L 21.252 8.192 L 21.249 8.14 L 21.246 8.081 L 21.243 8.022 L 21.24 7.962 L 21.236 7.903 L 21.233 7.844 L 21.23 7.784 L 21.227 7.725 L 21.223 7.666 L 21.22 7.606 L 21.217 7.547 L 21.214 7.487 L 21.211 7.428 L 21.207 7.369 L 21.204 7.309 L 21.201 7.25 L 21.198 7.19 L 21.194 7.131 L 21.191 7.071 L 21.188 7.012 L 21.185 6.952 L 21.181 6.893 L 21.178 6.833 L 21.175 6.773 L 21.172 6.714 L 21.168 6.654 L 21.165 6.594 L 21.162 6.535 L 21.158 6.475 L 21.155 6.415 L 21.152 6.356 L 21.149 6.296 L 21.145 6.236 L 21.142 6.177 L 21.139 6.117 L 21.136 6.057 L 21.132 5.997 L 21.129 5.937 L 21.126 5.878 L 21.123 5.818 L 21.119 5.758 L 21.116 5.698 L 21.113 5.638 L 21.11 5.578 L 21.106 5.518 L 21.103 5.458 L 21.1 5.398 L 21.096 5.338 L 21.093 5.278 L 21.09 5.218 L 21.087 5.158 L 21.083 5.098 L 21.08 5.038 L 21.077 4.978 L 21.074 4.918 L 21.07 4.858 L 21.067 4.798 L 21.064 4.738 L 21.06 4.678 L 21.057 4.618 L 21.054 4.557 L 21.051 4.497 L 21.047 4.437 L 21.044 4.377 L 21.041 4.317 L 21.037 4.256 L 21.034 4.196 L 21.031 4.136 L 21.028 4.076 L 21.024 4.015 L 21.021 3.955 L 21.018 3.895 L 21.014 3.834 L 21.011 3.774 L 21.008 3.713 L 21.005 3.653 L 21.001 3.593 L 20.998 3.532 L 20.995 3.472 L 20.991 3.411 L 20.988 3.351 L 20.985 3.29 L 20.982 3.23 L 20.978 3.169 L 20.975 3.109 L 20.972 3.048 L 20.968 2.988 L 20.965 2.927 L 20.962 2.866 L 20.958 2.806 L 20.955 2.745 L 20.952 2.684 L 20.949 2.624 L 20.945 2.563 L 20.942 2.502 L 20.939 2.442 L 20.935 2.381 L 20.932 2.32 L 20.929 2.259 L 20.925 2.199 L 20.922 2.138 L 20.919 2.077 L 20.915 2.016 L 20.912 1.955 L 20.909 1.894 L 20.906 1.834 L 20.902 1.773 L 20.899 1.712 L 20.896 1.651 L 20.892 1.59 L 20.889 1.529 L 20.886 1.468 L 20.882 1.407 L 20.879 1.346 L 20.876 1.285 L 20.872 1.224 L 20.869 1.163 L 20.866 1.102 L 20.862 1.041 L 20.859 0.98 L 20.856 0.919 L 20.852 0.857 L 20.849 0.796 L 20.846 0.735 L 20.842 0.674 L 20.839 0.613 L 20.836 0.552 L 20.832 0.49 L 20.829 0.429 L 20.826 0.368 L 20.822 0.307 L 20.819 0.245 L 20.816 0.184 L 20.812 0.123 L 20.809 0.061 L 20.806 0 Z" vector-effect="non-scaling-stroke"/><path d="M 2.893 55.119 L 2.891 55.073 L 2.888 55.027 L 2.885 54.981 L 2.883 54.936 L 2.88 54.89 L 2.878 54.844 L 2.875 54.798 L 2.872 54.752 L 2.87 54.706 L 2.867 54.661 L 2.865 54.615 L 2.862 54.569 L 2.859 54.523 L 2.857 54.477 L 2.854 54.431 L 2.852 54.385 L 2.849 54.339 L 2.846 54.293 L 2.844 54.247 L 2.841 54.202 L 2.838 54.156 L 2.836 54.11 L 2.833 54.064 L 2.831 54.018 L 2.828 53.971 L 2.825 53.925 L 2.823 53.879 L 2.82 53.833 L 2.818 53.787 L 2.815 53.741 L 2.812 53.695 L 2.81 53.649 L 2.807 53.603 L 2.805 53.557 L 2.802 53.511 L 2.799 53.464 L 2.797 53.418 L 2.794 53.372 L 2.791 53.326 L 2.789 53.28 L 2.786 53.233 L 2.784 53.187 L 2.781 53.141 L 2.778 53.095 L 2.776 53.048 L 2.773 53.002 L 2.771 52.956 L 2.768 52.91 L 2.765 52.863 L 2.763 52.817 L 2.76 52.771 L 2.757 52.724 L 2.755 52.678 L 2.752 52.631 L 2.75 52.585 L 2.747 52.539 L 2.744 52.492 L 2.742 52.446 L 2.739 52.399 L 2.736 52.353 L 2.734 52.306 L 2.731 52.26 L 2.728 52.214 L 2.726 52.167 L 2.723 52.121 L 2.721 52.074 L 2.718 52.027 L 2.715 51.981 L 2.713 51.934 L 2.71 51.888 L 2.707 51.841 L 2.705 51.795 L 2.702 51.748 L 2.7 51.701 L 2.697 51.655 L 2.694 51.608 L 2.692 51.561 L 2.689 51.515 L 2.686 51.468 L 2.684 51.421 L 2.681 51.375 L 2.678 51.328 L 2.676 51.281 L 2.673 51.234 L 2.671 51.188 L 2.668 51.141 L 2.665 51.094 L 2.663 51.047 L 2.66 51.001 L 2.657 50.954 L 2.655 50.907 L 2.652 50.86 L 2.649 50.813 L 2.647 50.766 L 2.644 50.72 L 2.641 50.673 L 2.639 50.626 L 2.636 50.579 L 2.633 50.532 L 2.631 50.485 L 2.628 50.438 L 2.626 50.391 L 2.623 50.344 L 2.62 50.297 L 2.618 50.25 L 2.615 50.203 L 2.612 50.156 L 2.61 50.109 L 2.607 50.062 L 2.604 50.015 L 2.602 49.968 L 2.599 49.921 L 2.596 49.874 L 2.594 49.827 L 2.591 49.779 L 2.588 49.732 L 2.586 49.685 L 2.583 49.638 L 2.58 49.591 L 2.578 49.544 L 2.575 49.496 L 2.572 49.449 L 2.57 49.402 L 2.567 49.355 L 2.564 49.307 L 2.562 49.26 L 2.559 49.213 L 2.556 49.166 L 2.554 49.118 L 2.551 49.071 L 2.548 49.024 L 2.546 48.976 L 2.543 48.929 L 2.54 48.882 L 2.538 48.834 L 2.535 48.787 L 2.532 48.74 L 2.53 48.692 L 2.527 48.645 L 2.524 48.597 L 2.522 48.55 L 2.519 48.502 L 2.516 48.455 L 2.514 48.407 L 2.511 48.36 L 2.508 48.312 L 2.506 48.265 L 2.503 48.217 L 2.5 48.17 L 2.498 48.122 L 2.495 48.075 L 2.492 48.027 L 2.49 47.979 L 2.487 47.932 L 2.484 47.884 L 2.482 47.837 L 2.479 47.789 L 2.476 47.741 L 2.474 47.694 L 2.471 47.646 L 2.468 47.598 L 2.465 47.551 L 2.463 47.503 L 2.46 47.455 L 2.457 47.407 L 2.455 47.36 L 2.452 47.312 L 2.449 47.264 L 2.447 47.216 L 2.444 47.168 L 2.441 47.121 L 2.439 47.073 L 2.436 47.025 L 2.433 46.977 L 2.431 46.929 L 2.428 46.881 L 2.425 46.833 L 2.422 46.785 L 2.42 46.738 L 2.417 46.69 L 2.414 46.642 L 2.412 46.594 L 2.409 46.546 L 2.406 46.498 L 2.404 46.45 L 2.401 46.402 L 2.398 46.354 L 2.395 46.306 L 2.393 46.258 L 2.39 46.21 L 2.387 46.161 L 2.385 46.113 L 2.382 46.065 L 2.379 46.017 L 2.377 45.969 L 2.374 45.921 L 2.371 45.873 L 2.368 45.825 L 2.366 45.776 L 2.363 45.728 L 2.36 45.68 L 2.358 45.632 L 2.355 45.584 L 2.352 45.535 L 2.349 45.487 L 2.347 45.439 L 2.344 45.391 L 2.341 45.342 L 2.339 45.294 L 2.336 45.246 L 2.333 45.197 L 2.331 45.149 L 2.328 45.101 L 2.325 45.052 L 2.322 45.004 L 2.32 44.955 L 2.317 44.907 L 2.314 44.859 L 2.312 44.81 L 2.309 44.762 L 2.306 44.713 L 2.303 44.665 L 2.301 44.616 L 2.298 44.568 L 2.295 44.519 L 2.292 44.471 L 2.29 44.422 L 2.287 44.374 L 2.284 44.325 L 2.282 44.277 L 2.279 44.228 L 2.276 44.179 L 2.273 44.131 L 2.271 44.082 L 2.268 44.034 L 2.265 43.985 L 2.263 43.936 L 2.26 43.888 L 2.257 43.839 L 2.254 43.79 L 2.252 43.741 L 2.249 43.693 L 2.246 43.644 L 2.243 43.595 L 2.241 43.547 L 2.238 43.498 L 2.235 43.449 L 2.232 43.4 L 2.23 43.351 L 2.227 43.302 L 2.224 43.254 L 2.222 43.205 L 2.219 43.156 L 2.216 43.107 L 2.213 43.058 L 2.211 43.009 L 2.208 42.96 L 2.205 42.911 L 2.202 42.862 L 2.2 42.813 L 2.197 42.765 L 2.194 42.716 L 2.191 42.667 L 2.189 42.618 L 2.186 42.568 L 2.183 42.519 L 2.18 42.47 L 2.178 42.421 L 2.175 42.372 L 2.172 42.323 L 2.169 42.274 L 2.167 42.225 L 2.164 42.176 L 2.161 42.127 L 2.158 42.078 L 2.156 42.028 L 2.153 41.979 L 2.15 41.93 L 2.147 41.881 L 2.145 41.832 L 2.142 41.782 L 2.139 41.733 L 2.136 41.684 L 2.134 41.635 L 2.131 41.585 L 2.128 41.536 L 2.125 41.487 L 2.123 41.437 L 2.12 41.388 L 2.117 41.339 L 2.114 41.289 L 2.112 41.24 L 2.109 41.191 L 2.106 41.141 L 2.103 41.092 L 2.101 41.042 L 2.098 40.993 L 2.095 40.943 L 2.092 40.894 L 2.089 40.845 L 2.087 40.795 L 2.084 40.746 L 2.081 40.696 L 2.078 40.646 L 2.076 40.597 L 2.073 40.547 L 2.07 40.498 L 2.067 40.448 L 2.065 40.399 L 2.062 40.349 L 2.059 40.299 L 2.056 40.25 L 2.054 40.2 L 2.051 40.15 L 2.048 40.101 L 2.045 40.051 L 2.042 40.001 L 2.04 39.952 L 2.037 39.902 L 2.034 39.852 L 2.031 39.802 L 2.029 39.753 L 2.026 39.703 L 2.023 39.653 L 2.02 39.603 L 2.017 39.553 L 2.015 39.504 L 2.012 39.454 L 2.009 39.404 L 2.006 39.354 L 2.004 39.304 L 2.001 39.254 L 1.998 39.204 L 1.995 39.154 L 1.992 39.105 L 1.99 39.055 L 1.987 39.005 L 1.984 38.955 L 1.981 38.905 L 1.978 38.855 L 1.976 38.805 L 1.973 38.755 L 1.97 38.705 L 1.967 38.654 L 1.964 38.604 L 1.962 38.554 L 1.959 38.504 L 1.956 38.454 L 1.953 38.404 L 1.951 38.354 L 1.948 38.304 L 1.945 38.254 L 1.942 38.203 L 1.939 38.153 L 1.937 38.103 L 1.934 38.053 L 1.931 38.003 L 1.928 37.952 L 1.925 37.902 L 1.923 37.852 L 1.92 37.802 L 1.917 37.751 L 1.914 37.701 L 1.911 37.651 L 1.909 37.6 L 1.906 37.55 L 1.903 37.5 L 1.9 37.449 L 1.897 37.399 L 1.894 37.348 L 1.892 37.298 L 1.889 37.248 L 1.886 37.197 L 1.883 37.147 L 1.88 37.096 L 1.878 37.046 L 1.875 36.995 L 1.872 36.945 L 1.869 36.894 L 1.866 36.844 L 1.864 36.793 L 1.861 36.743 L 1.858 36.692 L 1.855 36.641 L 1.852 36.591 L 1.849 36.54 L 1.847 36.49 L 1.844 36.439 L 1.841 36.388 L 1.838 36.338 L 1.835 36.287 L 1.833 36.236 L 1.83 36.185 L 1.827 36.135 L 1.824 36.084 L 1.821 36.033 L 1.818 35.983 L 1.816 35.932 L 1.813 35.881 L 1.81 35.83 L 1.807 35.779 L 1.804 35.729 L 1.802 35.678 L 1.799 35.627 L 1.796 35.576 L 1.793 35.525 L 1.79 35.474 L 1.787 35.423 L 1.785 35.372 L 1.782 35.321 L 1.779 35.27 L 1.776 35.219 L 1.773 35.169 L 1.77 35.118 L 1.768 35.067 L 1.765 35.016 L 1.762 34.964 L 1.759 34.913 L 1.756 34.862 L 1.753 34.811 L 1.751 34.76 L 1.748 34.709 L 1.745 34.658 L 1.742 34.607 L 1.739 34.556 L 1.736 34.505 L 1.733 34.453 L 1.731 34.402 L 1.728 34.351 L 1.725 34.3 L 1.722 34.249 L 1.719 34.197 L 1.716 34.146 L 1.714 34.095 L 1.711 34.044 L 1.708 33.992 L 1.705 33.941 L 1.702 33.89 L 1.699 33.838 L 1.696 33.787 L 1.694 33.736 L 1.691 33.684 L 1.688 33.633 L 1.685 33.582 L 1.682 33.53 L 1.679 33.479 L 1.677 33.427 L 1.674 33.376 L 1.671 33.324 L 1.668 33.273 L 1.665 33.221 L 1.662 33.17 L 1.659 33.118 L 1.657 33.067 L 1.654 33.015 L 1.651 32.964 L 1.648 32.912 L 1.645 32.861 L 1.642 32.809 L 1.639 32.757 L 1.636 32.706 L 1.634 32.654 L 1.631 32.603 L 1.628 32.551 L 1.625 32.499 L 1.622 32.447 L 1.619 32.396 L 1.616 32.344 L 1.614 32.292 L 1.611 32.241 L 1.608 32.189 L 1.605 32.137 L 1.602 32.085 L 1.599 32.033 L 1.596 31.982 L 1.593 31.93 L 1.591 31.878 L 1.588 31.826 L 1.585 31.774 L 1.582 31.722 L 1.579 31.67 L 1.576 31.619 L 1.573 31.567 L 1.57 31.515 L 1.568 31.463 L 1.565 31.411 L 1.562 31.359 L 1.559 31.307 L 1.556 31.255 L 1.553 31.203 L 1.55 31.151 L 1.547 31.099 L 1.545 31.047 L 1.542 30.995 L 1.539 30.942 L 1.536 30.89 L 1.533 30.838 L 1.53 30.786 L 1.527 30.734 L 1.524 30.682 L 1.521 30.63 L 1.519 30.577 L 1.516 30.525 L 1.513 30.473 L 1.51 30.421 L 1.507 30.369 L 1.504 30.316 L 1.501 30.264 L 1.498 30.212 L 1.495 30.159 L 1.493 30.107 L 1.49 30.055 L 1.487 30.003 L 1.484 29.95 L 1.481 29.898 L 1.478 29.845 L 1.475 29.793 L 1.472 29.741 L 1.469 29.688 L 1.466 29.636 L 1.464 29.583 L 1.461 29.531 L 1.458 29.478 L 1.455 29.426 L 1.452 29.373 L 1.449 29.321 L 1.446 29.268 L 1.443 29.216 L 1.44 29.163 L 1.437 29.111 L 1.434 29.058 L 1.432 29.006 L 1.429 28.953 L 1.426 28.9 L 1.423 28.848 L 1.42 28.795 L 1.417 28.742 L 1.414 28.69 L 1.411 28.637 L 1.408 28.584 L 1.405 28.532 L 1.402 28.479 L 1.4 28.426 L 1.397 28.373 L 1.394 28.321 L 1.391 28.268 L 1.388 28.215 L 1.385 28.162 L 1.382 28.109 L 1.379 28.056 L 1.376 28.004 L 1.373 27.951 L 1.37 27.898 L 1.367 27.845 L 1.365 27.792 L 1.362 27.739 L 1.359 27.686 L 1.356 27.633 L 1.353 27.58 L 1.35 27.527 L 1.347 27.474 L 1.344 27.421 L 1.341 27.368 L 1.338 27.315 L 1.335 27.262 L 1.332 27.209 L 1.329 27.156 L 1.326 27.103 L 1.324 27.05 L 1.321 26.997 L 1.318 26.943 L 1.315 26.89 L 1.312 26.837 L 1.309 26.784 L 1.306 26.731 L 1.303 26.678 L 1.3 26.624 L 1.297 26.571 L 1.294 26.518 L 1.291 26.465 L 1.288 26.411 L 1.285 26.358 L 1.282 26.305 L 1.279 26.251 L 1.277 26.198 L 1.274 26.145 L 1.271 26.091 L 1.268 26.038 L 1.265 25.985 L 1.262 25.931 L 1.259 25.878 L 1.256 25.824 L 1.253 25.771 L 1.25 25.717 L 1.247 25.664 L 1.244 25.61 L 1.241 25.557 L 1.238 25.503 L 1.235 25.45 L 1.232 25.396 L 1.229 25.343 L 1.226 25.289 L 1.223 25.236 L 1.22 25.182 L 1.218 25.128 L 1.215 25.075 L 1.212 25.021 L 1.209 24.968 L 1.206 24.914 L 1.203 24.86 L 1.2 24.806 L 1.197 24.753 L 1.194 24.699 L 1.191 24.645 L 1.188 24.592 L 1.185 24.538 L 1.182 24.484 L 1.179 24.43 L 1.176 24.376 L 1.173 24.323 L 1.17 24.269 L 1.167 24.215 L 1.164 24.161 L 1.161 24.107 L 1.158 24.053 L 1.155 23.999 L 1.152 23.945 L 1.149 23.891 L 1.146 23.838 L 1.143 23.784 L 1.14 23.73 L 1.137 23.676 L 1.134 23.622 L 1.131 23.568 L 1.129 23.514 L 1.126 23.459 L 1.123 23.405 L 1.12 23.351 L 1.117 23.297 L 1.114 23.243 L 1.111 23.189 L 1.108 23.135 L 1.105 23.081 L 1.102 23.027 L 1.099 22.972 L 1.096 22.918 L 1.093 22.864 L 1.09 22.81 L 1.087 22.756 L 1.084 22.701 L 1.081 22.647 L 1.078 22.593 L 1.075 22.538 L 1.072 22.484 L 1.069 22.43 L 1.066 22.376 L 1.063 22.321 L 1.06 22.267 L 1.057 22.212 L 1.054 22.158 L 1.051 22.104 L 1.048 22.049 L 1.045 21.995 L 1.042 21.94 L 1.039 21.886 L 1.036 21.831 L 1.033 21.777 L 1.03 21.722 L 1.027 21.668 L 1.024 21.613 L 1.021 21.559 L 1.018 21.504 L 1.015 21.45 L 1.012 21.395 L 1.009 21.341 L 1.006 21.286 L 1.003 21.231 L 1 21.177 L 0.997 21.122 L 0.994 21.067 L 0.991 21.013 L 0.988 20.958 L 0.985 20.903 L 0.982 20.849 L 0.979 20.794 L 0.976 20.739 L 0.973 20.684 L 0.97 20.629 L 0.967 20.575 L 0.964 20.52 L 0.961 20.465 L 0.958 20.41 L 0.955 20.355 L 0.952 20.3 L 0.949 20.246 L 0.946 20.191 L 0.943 20.136 L 0.94 20.081 L 0.937 20.026 L 0.934 19.971 L 0.931 19.916 L 0.928 19.861 L 0.925 19.806 L 0.922 19.751 L 0.919 19.696 L 0.916 19.641 L 0.913 19.586 L 0.909 19.531 L 0.906 19.476 L 0.903 19.421 L 0.9 19.365 L 0.897 19.31 L 0.894 19.255 L 0.891 19.2 L 0.888 19.145 L 0.885 19.09 L 0.882 19.035 L 0.879 18.979 L 0.876 18.924 L 0.873 18.869 L 0.87 18.814 L 0.867 18.758 L 0.864 18.703 L 0.861 18.648 L 0.858 18.592 L 0.855 18.537 L 0.852 18.482 L 0.849 18.426 L 0.846 18.371 L 0.843 18.316 L 0.84 18.26 L 0.837 18.205 L 0.834 18.149 L 0.831 18.094 L 0.828 18.038 L 0.825 17.983 L 0.821 17.928 L 0.818 17.872 L 0.815 17.817 L 0.812 17.761 L 0.809 17.705 L 0.806 17.65 L 0.803 17.594 L 0.8 17.539 L 0.797 17.483 L 0.794 17.428 L 0.791 17.372 L 0.788 17.316 L 0.785 17.261 L 0.782 17.205 L 0.779 17.149 L 0.776 17.094 L 0.773 17.038 L 0.77 16.982 L 0.767 16.926 L 0.764 16.871 L 0.76 16.815 L 0.757 16.759 L 0.754 16.703 L 0.751 16.647 L 0.748 16.592 L 0.745 16.536 L 0.742 16.48 L 0.739 16.424 L 0.736 16.368 L 0.733 16.312 L 0.73 16.256 L 0.727 16.2 L 0.724 16.144 L 0.721 16.088 L 0.718 16.032 L 0.715 15.976 L 0.711 15.92 L 0.708 15.864 L 0.705 15.808 L 0.702 15.752 L 0.699 15.696 L 0.696 15.64 L 0.693 15.584 L 0.69 15.528 L 0.687 15.472 L 0.684 15.416 L 0.681 15.36 L 0.678 15.303 L 0.675 15.247 L 0.671 15.191 L 0.668 15.135 L 0.665 15.079 L 0.662 15.022 L 0.659 14.966 L 0.656 14.91 L 0.653 14.854 L 0.65 14.797 L 0.647 14.741 L 0.644 14.685 L 0.641 14.628 L 0.638 14.572 L 0.635 14.516 L 0.631 14.459 L 0.628 14.403 L 0.625 14.347 L 0.622 14.29 L 0.619 14.234 L 0.616 14.177 L 0.613 14.121 L 0.61 14.064 L 0.607 14.008 L 0.604 13.951 L 0.601 13.895 L 0.597 13.838 L 0.594 13.782 L 0.591 13.725 L 0.588 13.668 L 0.585 13.612 L 0.582 13.555 L 0.579 13.499 L 0.576 13.442 L 0.573 13.385 L 0.57 13.329 L 0.566 13.272 L 0.563 13.215 L 0.56 13.159 L 0.557 13.102 L 0.554 13.045 L 0.551 12.988 L 0.548 12.932 L 0.545 12.875 L 0.542 12.818 L 0.538 12.761 L 0.535 12.704 L 0.532 12.647 L 0.529 12.591 L 0.526 12.534 L 0.523 12.477 L 0.52 12.42 L 0.517 12.363 L 0.514 12.306 L 0.51 12.249 L 0.507 12.192 L 0.504 12.135 L 0.501 12.078 L 0.498 12.021 L 0.495 11.964 L 0.492 11.907 L 0.489 11.85 L 0.486 11.793 L 0.482 11.736 L 0.479 11.679 L 0.476 11.622 L 0.473 11.565 L 0.47 11.508 L 0.467 11.45 L 0.464 11.393 L 0.461 11.336 L 0.457 11.279 L 0.454 11.222 L 0.451 11.164 L 0.448 11.107 L 0.445 11.05 L 0.442 10.993 L 0.439 10.935 L 0.436 10.878 L 0.432 10.821 L 0.429 10.763 L 0.426 10.706 L 0.423 10.649 L 0.42 10.591 L 0.417 10.534 L 0.414 10.477 L 0.41 10.419 L 0.407 10.362 L 0.404 10.304 L 0.401 10.247 L 0.398 10.189 L 0.395 10.132 L 0.392 10.074 L 0.389 10.017 L 0.385 9.959 L 0.382 9.902 L 0.379 9.844 L 0.376 9.787 L 0.373 9.729 L 0.37 9.671 L 0.367 9.614 L 0.363 9.556 L 0.36 9.498 L 0.357 9.441 L 0.354 9.383 L 0.351 9.325 L 0.348 9.268 L 0.344 9.21 L 0.341 9.152 L 0.338 9.094 L 0.335 9.037 L 0.332 8.979 L 0.329 8.921 L 0.326 8.863 L 0.322 8.806 L 0.319 8.748 L 0.316 8.69 L 0.313 8.632 L 0.31 8.574 L 0.307 8.516 L 0.303 8.458 L 0.3 8.4 L 0.297 8.342 L 0.294 8.284 L 0.291 8.226 L 0.288 8.168 L 0.284 8.11 L 0.281 8.052 L 0.278 7.994 L 0.275 7.936 L 0.272 7.878 L 0.269 7.82 L 0.265 7.762 L 0.262 7.704 L 0.259 7.646 L 0.256 7.588 L 0.253 7.53 L 0.25 7.471 L 0.246 7.413 L 0.243 7.355 L 0.24 7.297 L 0.237 7.239 L 0.234 7.18 L 0.231 7.122 L 0.227 7.064 L 0.224 7.006 L 0.221 6.947 L 0.218 6.889 L 0.215 6.831 L 0.211 6.772 L 0.208 6.714 L 0.205 6.656 L 0.202 6.597 L 0.199 6.539 L 0.196 6.48 L 0.192 6.422 L 0.189 6.363 L 0.186 6.305 L 0.183 6.246 L 0.18 6.188 L 0.176 6.129 L 0.173 6.071 L 0.17 6.012 L 0.167 5.954 L 0.164 5.895 L 0.161 5.837 L 0.157 5.778 L 0.154 5.72 L 0.151 5.661 L 0.148 5.602 L 0.145 5.544 L 0.141 5.485 L 0.138 5.426 L 0.135 5.368 L 0.132 5.309 L 0.129 5.25 L 0.125 5.191 L 0.122 5.133 L 0.119 5.074 L 0.116 5.015 L 0.113 4.956 L 0.109 4.897 L 0.106 4.839 L 0.103 4.78 L 0.1 4.721 L 0.097 4.662 L 0.093 4.603 L 0.09 4.544 L 0.087 4.485 L 0.084 4.426 L 0.08 4.367 L 0.077 4.308 L 0.074 4.249 L 0.071 4.19 L 0.068 4.131 L 0.064 4.072 L 0.061 4.013 L 0.058 3.954 L 0.055 3.895 L 0.052 3.836 L 0.048 3.777 L 0.045 3.718 L 0.042 3.659 L 0.039 3.6 L 0.035 3.54 L 0.032 3.481 L 0.029 3.422 L 0.026 3.363 L 0.023 3.304 L 0.019 3.244 L 0.016 3.185 L 0.013 3.126 L 0.01 3.067 L 0.006 3.007 L 0.003 2.948 L 0 2.889" id="blue" stroke="blue" style="stroke:blue" vector-effect="non-scaling-stroke"/><g id="captions"><text alignment-baseline="middle" text-anchor="middle" transform="rotate(0,11.874,27.973)" x="11.874" y="27.973">WIND, 3, 0</text></g></g></svg>