<svg width="3976.428" height="1950.527" viewBox="0 0 3976.428 1950.527" xmlns="http://www.w3.org/2000/svg"><g id="svgGroup" stroke-linecap="round" fill-rule="evenodd" font-size="9pt" stroke="#000" stroke-width="0.25mm" fill="none" style="stroke:#000;stroke-width:0.25mm;fill:none"><path d="M 3976.145 3.268 L 3971.938 3.16 L 3965.644 3.001 L 3959.369 2.846 L 3953.112 2.696 L 3946.873 2.549 L 3940.653 2.407 L 3936.517 2.315 L 3930.328 2.18 L 3924.156 2.049 L 3918.003 1.922 L 3911.868 1.8 L 3905.752 1.682 L 3899.653 1.567 L 3893.571 1.457 L 3887.508 1.351 L 3883.475 1.283 L 3877.442 1.184 L 3871.425 1.089 L 3865.426 0.998 L 3859.445 0.911 L 3853.48 0.828 L 3847.533 0.749 L 3841.604 0.674 L 3835.691 0.603 L 3829.795 0.537 L 3823.916 0.474 L 3818.054 0.415 L 3812.209 0.36 L 3806.381 0.309 L 3800.569 0.262 L 3794.774 0.219 L 3788.995 0.18 L 3781.315 0.133 L 3775.574 0.103 L 3769.85 0.077 L 3764.141 0.055 L 3758.449 0.036 L 3752.773 0.021 L 3747.112 0.01 L 3741.468 0.003 L 3735.839 0 L 3728.358 0.001 L 3722.765 0.007 L 3717.188 0.016 L 3711.626 0.029 L 3706.08 0.046 L 3698.709 0.074 L 3693.198 0.1 L 3687.702 0.129 L 3682.221 0.161 L 3676.755 0.198 L 3669.49 0.252 L 3664.059 0.297 L 3658.642 0.346 L 3653.24 0.398 L 3646.059 0.473 L 3640.691 0.534 L 3635.336 0.598 L 3628.219 0.689 L 3622.898 0.762 L 3617.591 0.838 L 3610.536 0.944 L 3605.262 1.029 L 3600.001 1.116 L 3593.008 1.239 L 3587.779 1.335 L 3580.827 1.468 L 3575.63 1.572 L 3570.446 1.679 L 3563.554 1.828 L 3558.4 1.943 L 3551.549 2.102 L 3546.426 2.225 L 3539.616 2.395 L 3534.522 2.527 L 3529.442 2.662 L 3522.688 2.847 L 3517.637 2.99 L 3510.922 3.185 L 3504.228 3.387 L 3499.222 3.541 L 3492.567 3.753 L 3487.59 3.915 L 3480.972 4.136 L 3476.022 4.306 L 3469.441 4.538 L 3464.519 4.715 L 3457.974 4.956 L 3451.449 5.203 L 3446.569 5.392 L 3440.08 5.648 L 3435.227 5.844 L 3428.772 6.111 L 3422.338 6.383 L 3417.524 6.59 L 3411.124 6.871 L 3404.742 7.158 L 3399.968 7.376 L 3393.62 7.672 L 3387.29 7.974 L 3380.978 8.281 L 3376.256 8.514 L 3369.976 8.83 L 3363.714 9.151 L 3357.47 9.477 L 3352.799 9.725 L 3346.585 10.061 L 3340.388 10.401 L 3334.209 10.747 L 3328.046 11.097 L 3323.435 11.363 L 3317.302 11.723 L 3311.184 12.087 L 3305.083 12.456 L 3298.998 12.831 L 3292.928 13.21 L 3288.386 13.497 L 3282.344 13.885 L 3276.316 14.277 L 3270.304 14.674 L 3264.307 15.076 L 3258.324 15.483 L 3252.356 15.894 L 3246.402 16.31 L 3240.462 16.731 L 3234.536 17.156 L 3228.624 17.586 L 3222.725 18.021 L 3216.84 18.46 L 3210.968 18.903 L 3205.109 19.351 L 3199.262 19.803 L 3193.428 20.26 L 3187.607 20.721 L 3181.798 21.187 L 3176 21.657 L 3170.215 22.131 L 3164.441 22.609 L 3158.679 23.092 L 3152.927 23.579 L 3147.187 24.07 L 3141.458 24.565 L 3135.74 25.064 L 3130.032 25.568 L 3124.334 26.075 L 3118.646 26.587 L 3112.969 27.102 L 3107.301 27.622 L 3100.229 28.276 L 3094.582 28.805 L 3088.944 29.337 L 3083.316 29.873 L 3077.696 30.413 L 3072.084 30.956 L 3066.481 31.504 L 3060.886 32.055 L 3053.903 32.749 L 3048.326 33.309 L 3042.756 33.872 L 3037.193 34.438 L 3031.638 35.008 L 3026.089 35.582 L 3019.163 36.305 L 3013.629 36.888 L 3008.102 37.473 L 3002.581 38.063 L 2997.066 38.655 L 2990.18 39.401 L 2984.677 40.001 L 2979.18 40.604 L 2973.688 41.211 L 2968.201 41.821 L 2961.348 42.588 L 2955.871 43.205 L 2950.398 43.825 L 2944.93 44.448 L 2938.099 45.231 L 2932.639 45.861 L 2927.183 46.494 L 2921.729 47.13 L 2916.279 47.769 L 2909.47 48.572 L 2904.025 49.218 L 2898.584 49.866 L 2893.144 50.517 L 2886.347 51.335 L 2880.912 51.992 L 2875.478 52.652 L 2870.046 53.315 L 2863.257 54.147 L 2857.827 54.815 L 2852.398 55.487 L 2846.969 56.16 L 2841.541 56.836 L 2834.756 57.685 L 2829.327 58.367 L 2823.899 59.051 L 2818.47 59.737 L 2811.683 60.599 L 2806.252 61.291 L 2800.82 61.985 L 2795.387 62.681 L 2789.952 63.379 L 2783.156 64.255 L 2777.717 64.959 L 2772.276 65.664 L 2766.833 66.372 L 2760.025 67.259 L 2754.576 67.971 L 2749.123 68.685 L 2743.668 69.401 L 2738.209 70.119 L 2732.746 70.838 L 2725.913 71.741 L 2720.441 72.465 L 2714.965 73.19 L 2709.485 73.918 L 2704.001 74.647 L 2698.511 75.378 L 2691.642 76.293 L 2686.141 77.028 L 2680.634 77.764 L 2675.122 78.501 L 2669.604 79.24 L 2664.079 79.981 L 2658.549 80.723 L 2651.626 81.653 L 2646.081 82.398 L 2640.529 83.144 L 2634.969 83.892 L 2629.403 84.641 L 2623.828 85.391 L 2618.246 86.143 L 2612.656 86.896 L 2607.058 87.65 L 2601.452 88.405 L 2595.837 89.161 L 2590.214 89.918 L 2584.581 90.676 L 2578.94 91.435 L 2573.289 92.195 L 2567.628 92.956 L 2561.958 93.718 L 2556.278 94.481 L 2550.588 95.244 L 2544.888 96.009 L 2539.177 96.774 L 2533.455 97.54 L 2527.723 98.307 L 2521.979 99.074 L 2516.224 99.842 L 2510.458 100.61 L 2504.68 101.379 L 2498.89 102.149 L 2493.088 102.919 L 2487.273 103.69 L 2481.446 104.461 L 2477.068 105.039 L 2471.219 105.811 L 2465.357 106.583 L 2459.481 107.355 L 2453.592 108.128 L 2447.69 108.901 L 2443.254 109.481 L 2437.327 110.254 L 2431.386 111.028 L 2425.431 111.801 L 2419.461 112.575 L 2414.974 113.155 L 2408.978 113.929 L 2402.967 114.703 L 2396.941 115.476 L 2392.411 116.057 L 2386.357 116.83 L 2380.288 117.604 L 2374.203 118.377 L 2369.628 118.957 L 2363.514 119.73 L 2357.383 120.503 L 2352.774 121.083 L 2346.614 121.855 L 2340.437 122.627 L 2335.793 123.206 L 2329.585 123.977 L 2323.359 124.748 L 2318.679 125.326 L 2312.422 126.096 L 2307.717 126.673 L 2301.429 127.443 L 2295.121 128.211 L 2290.378 128.787 L 2284.038 129.555 L 2279.27 130.13 L 2272.896 130.897 L 2268.103 131.471 L 2261.695 132.237 L 2256.876 132.81 L 2250.433 133.574 L 2245.588 134.146 L 2239.11 134.909 L 2234.238 135.48 L 2227.724 136.241 L 2222.825 136.811 L 2216.274 137.57 L 2211.347 138.139 L 2206.408 138.707 L 2199.804 139.464 L 2194.837 140.031 L 2188.195 140.786 L 2183.199 141.351 L 2178.191 141.916 L 2171.494 142.668 L 2166.456 143.231 L 2161.406 143.794 L 2154.652 144.543 L 2149.572 145.103 L 2144.478 145.664 L 2137.667 146.409 L 2132.542 146.968 L 2127.405 147.525 L 2120.534 148.267 L 2115.366 148.823 L 2110.184 149.378 L 2104.988 149.932 L 2098.039 150.669 L 2092.811 151.221 L 2087.569 151.773 L 2082.313 152.323 L 2077.043 152.872 L 2069.995 153.603 L 2064.692 154.15 L 2059.374 154.697 L 2054.043 155.242 L 2048.696 155.786 L 2043.336 156.33 L 2036.165 157.052 L 2030.77 157.593 L 2025.36 158.133 L 2019.935 158.672 L 2014.495 159.21 L 2009.04 159.746 L 2003.569 160.282 L 1998.084 160.816 L 1992.583 161.35 L 1987.067 161.882 L 1981.535 162.413 L 1975.987 162.943 L 1970.424 163.472 L 1964.845 163.999 L 1959.251 164.526 L 1953.64 165.051 L 1948.014 165.575 L 1942.371 166.098 L 1936.712 166.619 L 1931.037 167.139 L 1925.346 167.658 L 1919.638 168.176 L 1913.914 168.692 L 1908.173 169.207 L 1902.415 169.721 L 1896.641 170.233 L 1890.85 170.744 L 1885.042 171.254 L 1879.218 171.762 L 1873.376 172.269 L 1867.517 172.774 L 1863.601 173.11 L 1857.713 173.613 L 1851.808 174.115 L 1845.886 174.615 L 1839.946 175.114 L 1833.988 175.611 L 1830.007 175.941 L 1824.02 176.436 L 1818.015 176.929 L 1811.992 177.421 L 1805.951 177.911 L 1801.914 178.237 L 1795.843 178.724 L 1789.754 179.21 L 1783.647 179.694 L 1779.565 180.016 L 1773.427 180.498 L 1767.271 180.978 L 1761.096 181.456 L 1756.969 181.774 L 1750.763 182.25 L 1744.538 182.724 L 1740.378 183.039 L 1734.121 183.51 L 1727.846 183.979 L 1721.552 184.447 L 1717.345 184.758 L 1711.019 185.223 L 1704.673 185.686 L 1700.432 185.993 L 1694.054 186.453 L 1689.791 186.759 L 1683.381 187.216 L 1676.951 187.671 L 1672.653 187.974 L 1666.19 188.426 L 1659.707 188.876 L 1655.374 189.176 L 1648.858 189.623 L 1644.503 189.92 L 1637.954 190.364 L 1633.576 190.659 L 1626.993 191.1 L 1620.389 191.539 L 1615.976 191.83 L 1609.338 192.266 L 1604.901 192.556 L 1598.23 192.988 L 1593.77 193.275 L 1587.064 193.705 L 1582.581 193.99 L 1575.84 194.415 L 1571.334 194.698 L 1564.558 195.121 L 1560.029 195.401 L 1553.218 195.82 L 1548.666 196.098 L 1541.819 196.514 L 1537.243 196.79 L 1532.657 197.065 L 1525.76 197.476 L 1521.151 197.748 L 1514.218 198.155 L 1509.585 198.426 L 1502.616 198.829 L 1497.958 199.097 L 1493.291 199.364 L 1486.271 199.763 L 1481.579 200.027 L 1474.523 200.422 L 1469.806 200.684 L 1465.08 200.945 L 1457.972 201.335 L 1453.221 201.593 L 1448.46 201.851 L 1441.3 202.235 L 1436.514 202.491 L 1431.718 202.745 L 1424.505 203.124 L 1419.684 203.375 L 1414.853 203.626 L 1407.587 204 L 1402.731 204.248 L 1397.864 204.494 L 1390.545 204.863 L 1385.653 205.107 L 1380.75 205.35 L 1373.377 205.713 L 1368.449 205.954 L 1363.51 206.193 L 1358.561 206.432 L 1351.118 206.787 L 1346.143 207.023 L 1341.157 207.258 L 1336.161 207.491 L 1328.648 207.84 L 1323.625 208.07 L 1318.592 208.3 L 1313.549 208.529 L 1308.495 208.756 L 1300.894 209.096 L 1295.813 209.321 L 1290.722 209.544 L 1285.62 209.767 L 1280.507 209.988 L 1272.817 210.318 L 1267.678 210.537 L 1262.527 210.754 L 1257.365 210.971 L 1252.193 211.186 L 1244.414 211.506 L 1239.215 211.719 L 1234.004 211.93 L 1228.783 212.14 L 1223.55 212.349 L 1218.306 212.556 L 1213.052 212.763 L 1205.149 213.07 L 1199.867 213.274 L 1194.573 213.476 L 1189.269 213.677 L 1183.953 213.877 L 1178.626 214.076 L 1173.288 214.274 L 1167.938 214.47 L 1162.578 214.665 L 1154.515 214.956 L 1149.126 215.148 L 1143.726 215.339 L 1138.314 215.528 L 1132.891 215.717 L 1127.457 215.904 L 1122.011 216.09 L 1116.553 216.275 L 1111.084 216.458 L 1105.604 216.64 L 1100.112 216.821 L 1094.608 217.001 L 1089.093 217.18 L 1083.566 217.357 L 1078.028 217.533 L 1072.478 217.708 L 1066.916 217.881 L 1061.342 218.053 L 1055.757 218.224 L 1050.16 218.394 L 1044.552 218.562 L 1038.931 218.729 L 1033.299 218.895 L 1027.655 219.059 L 1021.998 219.223 L 1016.33 219.384 L 1010.651 219.545 L 1004.959 219.704 L 999.255 219.862 L 993.539 220.019 L 987.811 220.174 L 982.072 220.328 L 976.32 220.481 L 970.556 220.632 L 964.78 220.782 L 958.991 220.931 L 953.191 221.078 L 947.378 221.224 L 941.554 221.368 L 935.717 221.512 L 932.794 221.583 L 926.938 221.724 L 921.071 221.864 L 915.191 222.002 L 909.298 222.139 L 903.394 222.275 L 897.477 222.409 L 891.547 222.542 L 885.606 222.674 L 879.651 222.804 L 876.67 222.869 L 870.697 222.997 L 864.711 223.123 L 858.713 223.249 L 852.702 223.373 L 846.679 223.495 L 840.643 223.616 L 837.621 223.676 L 831.566 223.795 L 825.499 223.913 L 819.419 224.029 L 813.326 224.144 L 807.22 224.257 L 801.102 224.369 L 798.038 224.424 L 791.901 224.534 L 785.751 224.642 L 779.588 224.749 L 773.412 224.854 L 770.319 224.906 L 764.124 225.009 L 757.915 225.111 L 751.694 225.211 L 745.46 225.31 L 742.338 225.359 L 736.085 225.456 L 729.818 225.551 L 723.538 225.644 L 717.246 225.736 L 714.094 225.782 L 707.782 225.872 L 701.456 225.96 L 695.118 226.047 L 688.766 226.133 L 685.585 226.175 L 679.213 226.258 L 672.828 226.34 L 666.43 226.42 L 663.226 226.459 L 656.808 226.537 L 650.377 226.613 L 643.932 226.688 L 640.705 226.725 L 634.24 226.798 L 627.762 226.869 L 624.517 226.904 L 618.019 226.972 L 611.507 227.04 L 604.982 227.105 L 601.714 227.137 L 595.169 227.201 L 588.61 227.263 L 585.325 227.293 L 578.745 227.352 L 572.152 227.41 L 565.546 227.466 L 562.237 227.494 L 555.61 227.548 L 548.969 227.6 L 545.644 227.626 L 538.982 227.676 L 532.307 227.724 L 528.964 227.748 L 522.268 227.794 L 515.559 227.838 L 512.199 227.86 L 505.468 227.902 L 498.724 227.943 L 495.347 227.962 L 488.582 228 L 481.803 228.037 L 478.408 228.054 L 471.608 228.088 L 464.794 228.121 L 461.382 228.136 L 454.547 228.166 L 447.698 228.195 L 444.269 228.208 L 437.398 228.234 L 433.958 228.246 L 427.067 228.27 L 420.162 228.292 L 416.704 228.302 L 409.777 228.321 L 402.836 228.339 L 399.361 228.347 L 392.399 228.362 L 388.912 228.369 L 381.929 228.382 L 374.931 228.393 L 371.427 228.398 L 364.408 228.407 L 360.893 228.41 L 353.852 228.416 L 346.797 228.421 L 343.264 228.422 L 336.187 228.424 L 332.643 228.424 L 325.545 228.424 L 321.99 228.423 L 314.87 228.42 L 307.736 228.415 L 304.163 228.412 L 297.007 228.404 L 293.423 228.4 L 286.245 228.39 L 282.65 228.384 L 275.45 228.371 L 268.235 228.357 L 264.622 228.349 L 257.385 228.333 L 253.761 228.323 L 246.503 228.304 L 242.868 228.294 L 235.587 228.271 L 231.941 228.26 L 224.638 228.235 L 220.98 228.222 L 213.655 228.195 L 206.315 228.166 L 202.639 228.151 L 195.277 228.119 L 191.59 228.103 L 184.205 228.068 L 180.507 228.051 L 173.1 228.014 L 169.391 227.994 L 161.961 227.955 L 158.241 227.934 L 150.788 227.892 L 147.057 227.87 L 139.582 227.826 L 135.839 227.802 L 128.342 227.755 L 124.587 227.73 L 117.067 227.68 L 113.302 227.654 L 105.759 227.602 L 101.982 227.574 L 94.416 227.519 L 90.628 227.49 L 83.039 227.432 L 79.24 227.402 L 75.436 227.372 L 67.817 227.31 L 64.002 227.278 L 56.36 227.214 L 52.533 227.181 L 44.869 227.113 L 41.03 227.079 L 33.343 227.009 L 29.493 226.973 L 21.782 226.9 L 17.921 226.863 L 10.186 226.788 L 6.314 226.749 L 4.251 433.656 L 8.124 433.685 L 15.859 433.742 L 19.721 433.77 L 27.434 433.825 L 31.285 433.851 L 38.975 433.903 L 42.815 433.928 L 50.484 433.977 L 54.312 434.001 L 61.959 434.048 L 65.777 434.07 L 73.026 434.11 L 77.208 434.135 L 81.011 434.156 L 88.606 434.196 L 92.398 434.215 L 99.971 434.252 L 103.752 434.27 L 111.304 434.305 L 115.074 434.321 L 122.604 434.353 L 126.363 434.369 L 133.871 434.398 L 137.619 434.412 L 145.106 434.438 L 148.843 434.451 L 156.308 434.475 L 160.035 434.486 L 167.108 434.503 L 171.194 434.517 L 178.246 434.532 L 182.32 434.544 L 189.352 434.556 L 193.415 434.567 L 200.426 434.577 L 204.477 434.586 L 211.467 434.594 L 218.811 434.602 L 222.477 434.606 L 229.799 434.612 L 233.454 434.615 L 240.755 434.618 L 244.4 434.619 L 251.679 434.62 L 255.313 434.62 L 262.572 434.618 L 266.195 434.617 L 273.433 434.613 L 280.292 434.603 L 284.262 434.603 L 291.101 434.59 L 295.059 434.589 L 301.878 434.574 L 305.826 434.571 L 312.624 434.554 L 319.771 434.539 L 323.699 434.533 L 330.464 434.512 L 334.382 434.505 L 341.126 434.481 L 345.033 434.473 L 351.758 434.447 L 358.828 434.422 L 362.358 434.409 L 369.407 434.381 L 372.927 434.367 L 379.956 434.336 L 386.614 434.301 L 390.473 434.288 L 397.111 434.25 L 400.96 434.235 L 407.578 434.195 L 414.539 434.157 L 418.369 434.139 L 424.955 434.095 L 431.881 434.053 L 435.34 434.03 L 442.246 433.985 L 445.694 433.962 L 452.58 433.914 L 459.1 433.861 L 462.884 433.838 L 469.737 433.786 L 476.223 433.73 L 479.99 433.705 L 486.458 433.646 L 493.263 433.588 L 496.661 433.558 L 503.447 433.497 L 509.869 433.432 L 513.6 433.403 L 520.353 433.339 L 526.743 433.27 L 530.457 433.239 L 536.828 433.167 L 543.534 433.097 L 546.882 433.061 L 553.569 432.988 L 560.242 432.914 L 563.574 432.876 L 570.228 432.799 L 576.523 432.718 L 583.15 432.637 L 586.804 432.599 L 593.067 432.514 L 599.662 432.43 L 602.955 432.387 L 609.531 432.3 L 616.094 432.212 L 622.299 432.119 L 625.913 432.076 L 632.101 431.981 L 638.618 431.887 L 642.214 431.841 L 648.371 431.743 L 654.856 431.645 L 654.392 431.642 L 647.906 431.747 L 642.173 431.849 L 637.627 431.898 L 631.602 432.004 L 625.833 432.103 L 621.279 432.15 L 615.99 432.251 L 608.989 432.345 L 602.4 432.441 L 599.098 432.488 L 592.493 432.581 L 586.613 432.672 L 582.095 432.715 L 575.915 432.809 L 570 432.897 L 562.946 432.982 L 559.605 433.025 L 552.922 433.11 L 546.224 433.194 L 542.866 433.235 L 536.151 433.317 L 530.123 433.396 L 525.632 433.433 L 519.999 433.514 L 512.886 433.589 L 508.734 433.626 L 503.059 433.704 L 495.918 433.774 L 492.512 433.81 L 485.697 433.881 L 479.535 433.95 L 475.074 433.982 L 469.262 434.052 L 462.089 434.116 L 457.928 434.148 L 452.074 434.215 L 444.872 434.275 L 441.416 434.306 L 434.502 434.366 L 431.036 434.395 L 424.101 434.453 L 417.78 434.509 L 413.345 434.535 L 406.7 434.592 L 400.341 434.644 L 395.898 434.668 L 389.836 434.721 L 385.389 434.743 L 379.301 434.794 L 372.002 434.839 L 368.476 434.862 L 361.419 434.907 L 357.883 434.929 L 350.805 434.971 L 344.301 435.012 L 339.885 435.03 L 333.633 435.071 L 329.213 435.087 L 322.934 435.126 L 318.51 435.141 L 311.622 435.177 L 305.033 435.21 L 300.601 435.224 L 294.251 435.256 L 289.815 435.268 L 283.437 435.299 L 278.997 435.31 L 272.592 435.338 L 265.141 435.361 L 261.512 435.373 L 254.247 435.394 L 250.607 435.405 L 243.322 435.424 L 239.671 435.433 L 232.364 435.451 L 228.703 435.459 L 221.375 435.474 L 217.704 435.48 L 210.355 435.493 L 203.524 435.504 L 199.099 435.507 L 192.447 435.518 L 188.018 435.519 L 181.339 435.528 L 176.905 435.528 L 170.198 435.534 L 165.76 435.533 L 159.025 435.537 L 155.142 435.536 L 147.672 435.535 L 143.929 435.534 L 136.438 435.531 L 132.684 435.529 L 125.171 435.523 L 121.407 435.52 L 113.873 435.512 L 110.098 435.507 L 102.541 435.496 L 98.756 435.49 L 91.177 435.478 L 87.381 435.47 L 79.781 435.455 L 75.974 435.447 L 71.629 435.436 L 64.659 435.42 L 60.713 435.409 L 53.062 435.388 L 49.229 435.377 L 41.556 435.354 L 37.712 435.341 L 30.017 435.315 L 26.162 435.301 L 18.445 435.273 L 14.579 435.258 L 6.84 435.227 L 2.963 435.211 L 0 932.859 L 3.87 933.684 L 11.603 934.507 L 15.463 935.326 L 23.177 936.143 L 27.028 936.955 L 34.723 937.765 L 38.564 938.571 L 46.239 939.374 L 50.071 940.175 L 57.728 940.97 L 61.549 941.765 L 67.662 942.545 L 73 943.343 L 76.809 944.129 L 84.421 944.907 L 88.221 945.687 L 95.815 946.459 L 99.605 947.233 L 107.18 947.998 L 110.962 948.766 L 118.518 949.524 L 122.29 950.286 L 129.827 951.037 L 133.59 951.793 L 141.109 952.537 L 144.862 953.288 L 152.363 954.024 L 156.107 954.769 L 162.05 955.492 L 167.324 956.237 L 173.247 956.953 L 178.513 957.693 L 184.417 958.402 L 189.676 959.136 L 195.559 959.838 L 200.81 960.566 L 206.675 961.262 L 214.071 961.96 L 217.763 962.672 L 225.141 963.363 L 228.823 964.069 L 236.184 964.754 L 239.857 965.454 L 247.2 966.131 L 250.864 966.825 L 258.189 967.496 L 261.845 968.184 L 269.151 968.848 L 274.894 969.501 L 280.087 970.187 L 285.811 970.833 L 290.996 971.513 L 296.701 972.152 L 301.879 972.826 L 307.565 973.459 L 314.794 974.094 L 319.959 974.758 L 325.615 975.381 L 330.771 976.038 L 336.409 976.654 L 341.557 977.305 L 347.177 977.915 L 354.342 978.525 L 357.918 979.163 L 365.066 979.766 L 368.634 980.398 L 375.765 980.994 L 381.323 981.582 L 386.438 982.209 L 391.978 982.79 L 397.085 983.411 L 402.608 983.985 L 409.681 984.56 L 414.774 985.171 L 420.267 985.735 L 427.312 986.299 L 430.828 986.897 L 437.856 987.454 L 441.364 988.046 L 448.375 988.596 L 453.81 989.139 L 458.868 989.725 L 465.851 990.264 L 471.257 990.797 L 476.302 991.373 L 481.692 991.899 L 488.635 992.423 L 492.101 992.988 L 499.028 993.505 L 504.377 994.016 L 509.396 994.574 L 516.294 995.08 L 521.616 995.581 L 526.621 996.128 L 531.926 996.623 L 538.786 997.114 L 542.211 997.651 L 549.055 998.136 L 555.888 998.616 L 559.299 999.144 L 566.116 999.617 L 571.355 1000.086 L 578.15 1000.552 L 583.109 1001.067 L 588.32 1001.526 L 595.088 1001.981 L 598.467 1002.486 L 605.219 1002.934 L 611.959 1003.377 L 617.123 1003.818 L 622.05 1004.31 L 627.197 1004.743 L 633.901 1005.172 L 638.814 1005.653 L 643.935 1006.077 L 650.612 1006.495 L 655.336 1006.907 L 660.456 1007.388 L 667.276 1007.802 L 672.194 1008.205 L 678.829 1008.61 L 682.144 1009.071 L 688.766 1009.468 L 695.552 1009.862 L 700.411 1010.245 L 706.766 1010.628 L 712.034 1011.078 L 716.868 1011.451 L 723.62 1011.824 L 728.421 1012.187 L 734.713 1012.55 L 739.987 1012.982 L 744.763 1013.335 L 751.282 1013.687 L 757.991 1014.036 L 762.456 1014.373 L 767.734 1014.789 L 772.453 1015.121 L 778.927 1015.453 L 785.603 1015.781 L 789.995 1016.098 L 795.065 1016.495 L 801.716 1016.81 L 806.369 1017.119 L 812.788 1017.425 L 819.421 1017.728 L 824.034 1018.024 L 830.121 1018.315 L 835.397 1018.685 L 839.986 1018.971 L 846.35 1019.251 L 852.941 1019.528 L 857.489 1019.8 L 863.824 1020.068 L 870.145 1020.33 L 873.306 1020.674 L 879.616 1020.929 L 886.165 1021.18 L 890.651 1021.428 L 896.931 1021.669 L 903.463 1021.907 L 907.91 1022.142 L 914.162 1022.37 L 920.677 1022.595 L 924.72 1022.814 L 929.748 1023.12 L 935.965 1023.33 L 942.446 1023.537 L 946.822 1023.744 L 953.011 1023.941 L 959.476 1024.134 L 963.813 1024.327 L 969.974 1024.511 L 976.422 1024.691 L 980.722 1024.871 L 986.854 1025.041 L 992.977 1025.206 L 999.399 1025.367 L 1003.653 1025.53 L 1009.748 1025.682 L 1015.833 1025.828 L 1022.229 1025.971 L 1026.437 1026.116 L 1032.494 1026.249 L 1038.874 1026.378 L 1043.045 1026.51 L 1049.075 1026.629 L 1055.096 1026.743 L 1061.45 1026.853 L 1065.576 1026.967 L 1071.569 1027.067 L 1077.553 1027.162 L 1083.881 1027.252 L 1087.963 1027.349 L 1093.919 1027.43 L 1099.866 1027.505 L 1106.17 1027.576 L 1110.207 1027.656 L 1116.127 1027.717 L 1122.038 1027.772 L 1128.316 1027.824 L 1132.31 1027.885 L 1138.194 1027.927 L 1144.068 1027.963 L 1150.497 1027.994 L 1155.68 1027.928 L 1161.524 1027.95 L 1167.359 1027.966 L 1173.185 1027.977 L 1179.411 1027.983 L 1183.297 1028.002 L 1189.097 1027.998 L 1194.887 1027.989 L 1201.278 1027.974 L 1206.308 1027.861 L 1212.069 1027.837 L 1217.82 1027.807 L 1223.563 1027.771 L 1229.738 1027.731 L 1233.518 1027.707 L 1239.522 1027.657 L 1246.293 1027.483 L 1251.988 1027.422 L 1258.137 1027.355 L 1261.855 1027.306 L 1267.825 1027.229 L 1274.517 1027.026 L 1280.165 1026.937 L 1285.804 1026.843 L 1291.917 1026.743 L 1295.881 1026.666 L 1302.497 1026.433 L 1308.098 1026.317 L 1313.69 1026.195 L 1319.777 1026.068 L 1323.693 1025.965 L 1330.233 1025.702 L 1335.788 1025.558 L 1341.334 1025.409 L 1347.203 1025.254 L 1353.686 1024.966 L 1359.737 1024.799 L 1363.239 1024.659 L 1369.084 1024.481 L 1375.504 1024.169 L 1380.983 1023.979 L 1386.805 1023.783 L 1393.18 1023.452 L 1399.194 1023.244 L 1402.975 1023.067 L 1409.299 1022.715 L 1414.722 1022.49 L 1420.505 1022.259 L 1426.785 1021.889 L 1432.179 1021.646 L 1437.938 1021.396 L 1444.777 1021.006 L 1448.091 1020.783 L 1453.836 1020.516 L 1460.024 1020.106 L 1465.361 1019.826 L 1471.082 1019.54 L 1477.226 1019.11 L 1482.934 1018.811 L 1489.046 1018.367 L 1494.973 1018.054 L 1498.593 1017.781 L 1504.657 1017.317 L 1510.335 1016.987 L 1516.368 1016.508 L 1522.032 1016.165 L 1528.033 1015.672 L 1533.255 1015.316 L 1538.895 1014.953 L 1544.855 1014.44 L 1550.481 1014.062 L 1556.41 1013.535 L 1562.021 1013.144 L 1567.919 1012.602 L 1574.086 1012.195 L 1577.978 1011.692 L 1583.57 1011.276 L 1589.402 1010.704 L 1594.979 1010.274 L 1600.781 1009.687 L 1606.344 1009.243 L 1612.117 1008.642 L 1617.665 1008.182 L 1623.883 1007.566 L 1629.606 1006.941 L 1635.135 1006.461 L 1640.828 1005.822 L 1646.343 1005.327 L 1652.007 1004.672 L 1657.507 1004.162 L 1663.637 1003.491 L 1669.254 1002.813 L 1674.733 1002.281 L 1680.826 1001.586 L 1686.395 1000.884 L 1691.855 1000.329 L 1697.395 999.612 L 1702.84 999.042 L 1708.871 998.306 L 1714.365 997.564 L 1719.79 996.971 L 1725.783 996.211 L 1731.764 995.442 L 1737.193 994.666 L 1742.593 994.042 L 1748.536 993.248 L 1753.92 992.447 L 1759.299 991.799 L 1765.206 990.979 L 1771.1 990.151 L 1776.422 989.315 L 1781.775 988.635 L 1787.632 987.78 L 1793.477 986.917 L 1798.738 986.046 L 1803.502 985.335 L 1811.183 984.367 L 1816.977 983.467 L 1822.758 982.559 L 1827.945 981.644 L 1833.231 980.886 L 1838.977 979.95 L 1844.71 979.004 L 1850.431 978.05 L 1856.139 977.085 L 1861.234 976.114 L 1866.481 975.304 L 1872.155 974.312 L 1877.217 973.313 L 1884.742 972.215 L 1890.376 971.193 L 1895.998 970.161 L 1901.608 969.12 L 1907.206 968.069 L 1912.792 967.007 L 1918.366 965.936 L 1923.305 964.858 L 1930.732 963.674 L 1936.267 962.572 L 1941.79 961.459 L 1947.302 960.337 L 1952.801 959.203 L 1958.289 958.06 L 1963.765 956.906 L 1968.587 955.745 L 1975.915 954.473 L 1981.353 953.286 L 1986.78 952.09 L 1992.195 950.882 L 1997.599 949.664 L 2002.336 948.439 L 2009.586 947.095 L 2014.953 945.844 L 2020.308 944.581 L 2025.651 943.307 L 2030.322 942.027 L 2037.909 940.618 L 2043.784 939.121 L 2049.078 937.801 L 2054.361 936.469 L 2058.96 935.131 L 2066.078 933.664 L 2071.736 932.292 L 2077.522 930.721 L 2082.744 929.329 L 2087.275 927.931 L 2094.326 926.401 L 2099.929 924.967 L 2105.642 923.332 L 2110.119 921.885 L 2117.115 920.301 L 2122.673 918.817 L 2128.329 917.129 L 2132.754 915.631 L 2140.114 913.987 L 2145.727 912.258 L 2150.113 910.721 L 2157.431 909.035 L 2163.002 907.264 L 2168.046 905.68 L 2172.899 904.084 L 2180.154 902.144 L 2185.163 900.519 L 2189.98 898.882 L 2197.185 896.896 L 2202.584 895.222 L 2208.047 893.336 L 2212.297 891.647 L 2219.459 889.799 L 2224.884 887.869 L 2229.62 886.131 L 2236.71 884.035 L 2242.029 882.259 L 2246.699 880.273 L 2253.771 878.331 L 2259.119 876.306 L 2263.786 874.477 L 2270.778 872.282 L 2275.421 870.421 L 2282.379 868.191 L 2287.602 866.29 L 2292.178 864.175 L 2299.12 862.099 L 2304.794 859.937 L 2309.336 857.77 L 2316.23 855.643 L 2320.753 853.442 L 2327.61 851.278 L 2333.222 849.028 L 2337.715 846.773 L 2344.522 844.556 L 2349.507 842.26 L 2356.252 839.793 L 2360.732 837.678 L 2367.853 835.166 L 2372.972 832.791 L 2377.422 830.621 L 2384.492 828.05 L 2389.407 825.62 L 2396.039 823.014 L 2400.447 820.767 L 2407.445 818.113 L 2412.324 815.603 L 2418.89 812.914 L 2423.258 810.587 L 2430.183 807.848 L 2435.029 805.254 L 2441.918 802.471 L 2446.267 799.84 L 2452.712 797.239 L 2457.527 794.559 L 2464.344 791.686 L 2469.144 788.959 L 2475.924 786.039 L 2480.246 783.273 L 2486.567 780.535 L 2491.341 777.716 L 2497.528 774.709 L 2504.214 771.667 L 2508.969 768.775 L 2515.619 765.683 L 2520.362 762.74 L 2526.976 759.597 L 2531.709 756.602 L 2537.795 753.415 L 2544.353 750.192 L 2549.07 747.117 L 2555.592 743.84 L 2560.302 740.71 L 2566.319 737.384 L 2572.784 734.021 L 2577.481 730.807 L 2583.457 727.393 L 2589.866 723.942 L 2594.553 720.638 L 2600.489 717.134 L 2606.842 713.591 L 2611.521 710.194 L 2617.418 706.595 L 2623.716 702.955 L 2628.388 699.462 L 2634.247 695.763 L 2640.49 692.023 L 2645.159 688.427 L 2650.98 684.625 L 2657.015 680.782 L 2663.861 676.656 L 2668.526 672.916 L 2674.299 668.966 L 2680.059 664.977 L 2686.158 660.944 L 2690.822 657.049 L 2696.752 652.938 L 2703.177 648.543 L 2709.207 644.346 L 2713.876 640.284 L 2719.56 636.007 L 2725.232 631.685 L 2731.073 627.314 L 2737.761 622.647 L 2742.439 618.357 L 2748.072 613.847 L 2753.694 609.288 L 2759.305 604.678 L 2765.062 600.013 L 2771.69 595.045 L 2776.385 590.445 L 2781.962 585.619 L 2787.671 580.735 L 2794.035 575.544 L 2799.585 570.543 L 2805.124 565.48 L 2810.655 560.354 L 2816.299 555.16 L 2822.654 549.652 L 2828.161 544.325 L 2833.845 538.923 L 2838.701 533.612 L 2845.062 527.815 L 2850.546 522.188 L 2856.022 516.48 L 2861.491 510.688 L 2867.043 504.807 L 2873.409 498.592 L 2878.862 492.53 L 2884.309 486.371 L 2889.825 480.109 L 2896.203 473.499 L 2901.531 467.026 L 2907.532 460.286 L 2913.011 453.578 L 2919.4 446.503 L 2924.813 439.54 L 2930.221 432.439 L 2935.626 425.192 L 2941.075 417.792 L 2947.497 409.993 L 2952.899 402.261 L 2958.24 394.348 L 2964.114 386.106 L 2970.564 377.562 L 2975.958 369.031 L 2981.352 360.263 L 2986.746 351.24 L 2992.134 341.94 L 2998.992 331.998 L 3004.387 322.077 L 3009.784 311.797 L 3015.184 301.121 L 3020.584 290.007 L 3027.433 278.086 L 3027.008 278.096 L 3020.173 290.023 L 3015.076 301.131 L 3009.645 311.81 L 3004.218 322.093 L 2998.795 332.02 L 2991.578 341.987 L 2986.5 351.284 L 2981.084 360.316 L 2975.67 369.093 L 2970.258 377.635 L 2964.94 386.132 L 2956.394 394.511 L 2952.545 402.386 L 2947.132 410.134 L 2941.847 417.888 L 2935.207 425.348 L 2929.796 432.614 L 2924.384 439.737 L 2918.97 446.723 L 2913.721 453.755 L 2907.066 460.534 L 2899.638 467.402 L 2895.776 473.843 L 2890.544 480.414 L 2883.86 486.754 L 2878.423 492.947 L 2872.981 499.044 L 2867.764 505.224 L 2861.056 511.193 L 2855.603 517.026 L 2850.144 522.777 L 2844.679 528.448 L 2839.47 534.215 L 2835.533 539.483 L 2827.766 545.032 L 2822.286 550.411 L 2817.081 555.892 L 2810.312 561.2 L 2804.812 566.384 L 2799.305 571.507 L 2793.789 576.571 L 2788.574 581.742 L 2781.759 586.753 L 2776.221 591.647 L 2773.599 596.153 L 2766.038 601.217 L 2759.193 606.021 L 2753.628 610.71 L 2748.052 615.35 L 2742.467 619.943 L 2739.848 624.141 L 2732.244 628.921 L 2725.344 633.45 L 2719.727 637.865 L 2714.098 642.237 L 2711.472 646.209 L 2703.473 650.629 L 2698.176 655.034 L 2691.217 659.322 L 2688.578 663.128 L 2680.54 667.402 L 2674.846 671.505 L 2669.141 675.572 L 2666.483 679.228 L 2658.77 683.511 L 2651.745 687.554 L 2645.997 691.486 L 2643.316 695.001 L 2635.196 699.013 L 2629.416 702.849 L 2626.713 706.266 L 2618.565 710.189 L 2612.751 713.935 L 2610.023 717.259 L 2601.847 721.097 L 2595.997 724.757 L 2593.242 727.993 L 2585.037 731.751 L 2579.152 735.33 L 2576.367 738.481 L 2568.134 742.163 L 2562.211 745.664 L 2559.394 748.736 L 2551.132 752.344 L 2548.292 755.364 L 2540.016 758.927 L 2534.029 762.307 L 2531.152 765.252 L 2522.848 768.748 L 2519.945 771.645 L 2511.626 775.099 L 2508.695 777.949 L 2500.361 781.362 L 2494.282 784.587 L 2491.309 787.37 L 2482.377 790.619 L 2480.84 793.246 L 2472.46 796.557 L 2469.429 799.256 L 2461.035 802.53 L 2457.973 805.188 L 2449.021 808.327 L 2447.363 810.829 L 2438.937 814.03 L 2435.811 816.611 L 2427.37 819.777 L 2423.533 822.229 L 2416.655 825.236 L 2413.463 827.744 L 2404.99 830.841 L 2401.104 833.224 L 2394.175 836.163 L 2390.914 838.602 L 2382.408 841.635 L 2378.473 843.952 L 2374.569 846.391 L 2366.044 849.378 L 2362.073 851.648 L 2355.054 854.476 L 2351.663 856.802 L 2342.665 859.636 L 2340.578 861.812 L 2335.054 864.269 L 2326.056 867.063 L 2323.891 869.194 L 2314.886 871.957 L 2312.675 874.061 L 2307.094 876.448 L 2298.089 879.174 L 2295.799 881.235 L 2289.65 883.499 L 2282.461 886.147 L 2278.294 888.205 L 2271.076 890.827 L 2266.882 892.861 L 2262.634 895.015 L 2253.619 897.637 L 2251.124 899.597 L 2244.933 901.76 L 2237.634 904.309 L 2233.358 906.27 L 2228.999 908.351 L 2219.98 910.903 L 2216.879 912.709 L 2212.465 914.757 L 2206.24 916.84 L 2198.846 919.309 L 2194.474 921.191 L 2189.577 923.112 L 2182.141 925.548 L 2177.727 927.398 L 2172.796 929.288 L 2168.228 931.249 L 2159.205 933.68 L 2155.888 935.371 L 2151.263 937.303 L 2142.234 939.702 L 2138.858 941.364 L 2134.175 943.267 L 2127.874 945.204 L 2120.11 947.435 L 2116.655 949.061 L 2111.894 950.927 L 2105.571 952.825 L 2097.778 955.018 L 2094.243 956.608 L 2089.135 958.354 L 2084.275 960.176 L 2077.924 962.028 L 2070.097 964.175 L 2066.462 965.723 L 2061.293 967.425 L 2056.114 969.118 L 2051.133 970.89 L 2042.091 973.118 L 2038.355 974.626 L 2033.125 976.286 L 2027.885 977.939 L 2022.632 979.583 L 2014.728 981.643 L 2010.897 983.114 L 2005.608 984.735 L 2000.307 986.349 L 1994.994 987.954 L 1989.669 989.553 L 1981.718 991.563 L 1977.771 992.993 L 1972.408 994.569 L 1967.034 996.138 L 1961.647 997.699 L 1956.249 999.254 L 1950.839 1000.802 L 1945.416 1002.342 L 1937.404 1004.293 L 1933.299 1005.669 L 1927.837 1007.189 L 1922.363 1008.702 L 1916.877 1010.209 L 1911.379 1011.71 L 1905.868 1013.204 L 1900.345 1014.691 L 1892.272 1016.585 L 1888.004 1017.912 L 1882.441 1019.381 L 1876.621 1020.776 L 1872.307 1022.085 L 1866.708 1023.535 L 1861.097 1024.979 L 1855.473 1026.416 L 1849.837 1027.848 L 1844.002 1029.204 L 1839.568 1030.48 L 1833.896 1031.894 L 1828.21 1033.303 L 1820.031 1035.111 L 1815.362 1036.292 L 1810.837 1037.544 L 1805.099 1038.93 L 1799.348 1040.31 L 1793.476 1041.607 L 1788.872 1042.839 L 1783.085 1044.203 L 1777.283 1045.562 L 1771.398 1046.835 L 1766.716 1048.047 L 1760.878 1049.39 L 1754.981 1050.646 L 1750.242 1051.844 L 1744.366 1053.172 L 1738.476 1054.495 L 1732.567 1055.728 L 1727.748 1056.908 L 1721.82 1058.216 L 1715.899 1059.432 L 1711.023 1060.6 L 1705.092 1061.804 L 1700.182 1062.963 L 1694.19 1064.247 L 1688.247 1065.436 L 1683.279 1066.582 L 1677.249 1067.853 L 1671.294 1069.025 L 1666.267 1070.16 L 1660.302 1071.321 L 1655.241 1072.448 L 1649.265 1073.599 L 1644.168 1074.719 L 1638.048 1075.958 L 1632.06 1077.094 L 1626.904 1078.202 L 1620.906 1079.327 L 1615.715 1080.428 L 1609.706 1081.544 L 1604.479 1082.638 L 1598.46 1083.743 L 1596.374 1084.351 L 1588.557 1085.666 L 1583.25 1086.745 L 1577.222 1087.832 L 1571.878 1088.905 L 1565.84 1089.982 L 1560.46 1091.048 L 1554.411 1092.116 L 1549.263 1093.064 L 1543.836 1094.12 L 1537.766 1095.174 L 1532.303 1096.224 L 1526.222 1097.268 L 1520.722 1098.312 L 1517.585 1098.894 L 1510.83 1100.009 L 1505.272 1101.043 L 1499.173 1102.065 L 1493.577 1103.093 L 1487.468 1104.107 L 1482.2 1105.008 L 1476.555 1106.027 L 1470.425 1107.028 L 1468.024 1107.474 L 1460.856 1108.67 L 1454.718 1109.659 L 1449.391 1110.537 L 1443.638 1111.539 L 1437.48 1112.515 L 1432.123 1113.382 L 1426.32 1114.376 L 1422.976 1114.904 L 1416.2 1115.94 L 1410.337 1116.925 L 1404.15 1117.877 L 1398.733 1118.724 L 1392.819 1119.702 L 1386.612 1120.641 L 1383.953 1121.049 L 1377.164 1122.055 L 1371.177 1123.022 L 1364.952 1123.946 L 1359.465 1124.769 L 1353.968 1125.588 L 1347.918 1126.546 L 1344.405 1127.034 L 1337.603 1128.01 L 1332.067 1128.817 L 1326.522 1129.62 L 1320.385 1130.565 L 1316.812 1131.039 L 1310 1131.995 L 1304.415 1132.786 L 1298.821 1133.573 L 1292.597 1134.507 L 1286.286 1135.379 L 1283.339 1135.747 L 1276.507 1136.679 L 1270.863 1137.451 L 1264.55 1138.374 L 1258.212 1139.229 L 1255.181 1139.586 L 1248.34 1140.499 L 1242.646 1141.256 L 1236.943 1142.01 L 1231.23 1142.761 L 1227.467 1143.263 L 1219.91 1144.248 L 1214.166 1144.991 L 1208.412 1145.73 L 1205.244 1146.07 L 1198.375 1146.949 L 1192.594 1147.68 L 1186.803 1148.408 L 1181.002 1149.133 L 1177.026 1149.625 L 1169.483 1150.573 L 1163.651 1151.291 L 1157.809 1152.005 L 1154.499 1152.328 L 1147.604 1153.175 L 1141.733 1153.881 L 1135.853 1154.585 L 1132.488 1154.9 L 1125.576 1155.734 L 1119.667 1156.429 L 1113.748 1157.121 L 1110.328 1157.43 L 1103.398 1158.25 L 1097.451 1158.934 L 1091.494 1159.616 L 1088.018 1159.917 L 1081.07 1160.724 L 1075.084 1161.398 L 1069.088 1162.069 L 1065.555 1162.364 L 1058.59 1163.157 L 1052.565 1163.821 L 1048.983 1164.111 L 1042.012 1164.894 L 1035.958 1165.551 L 1029.894 1166.204 L 1026.254 1166.488 L 1019.265 1167.258 L 1013.171 1167.905 L 1007.068 1168.549 L 1003.369 1168.825 L 996.363 1169.584 L 990.23 1170.22 L 986.48 1170.492 L 979.468 1171.241 L 973.305 1171.871 L 969.504 1172.138 L 962.485 1172.878 L 956.293 1173.5 L 950.947 1173.949 L 947.796 1174.117 L 940.74 1174.845 L 934.511 1175.458 L 930.626 1175.714 L 923.564 1176.433 L 917.305 1177.039 L 913.367 1177.291 L 906.298 1178 L 900.009 1178.6 L 896.829 1178.686 L 890.528 1179.28 L 884.213 1179.872 L 880.197 1180.115 L 873.096 1180.807 L 866.75 1181.393 L 862.68 1181.632 L 856.571 1182.129 L 850.81 1182.623 L 846.714 1182.857 L 839.581 1183.533 L 833.178 1184.105 L 829.028 1184.335 L 821.889 1185.001 L 816.5 1185.375 L 812.916 1185.519 L 805.751 1186.177 L 799.29 1186.736 L 795.058 1186.958 L 788.974 1187.411 L 785.298 1187.551 L 778.112 1188.195 L 771.603 1188.744 L 767.297 1188.959 L 761.234 1189.393 L 755.251 1189.859 L 750.918 1190.069 L 743.7 1190.697 L 739.32 1190.906 L 733.279 1191.322 L 727.227 1191.78 L 722.819 1191.983 L 715.58 1192.598 L 708.964 1193.123 L 705.614 1193.127 L 698.984 1193.648 L 694.5 1193.845 L 687.24 1194.447 L 681.807 1194.749 L 677.806 1194.871 L 670.52 1195.465 L 665.958 1195.656 L 659.951 1196.027 L 653.73 1196.463 L 649.139 1196.65 L 643.12 1197.012 L 638.999 1197.127 L 631.677 1197.704 L 624.918 1198.198 L 621.493 1198.168 L 614.719 1198.658 L 610.031 1198.835 L 604.031 1199.173 L 597.691 1199.593 L 592.972 1199.766 L 585.604 1200.322 L 582.144 1200.276 L 575.303 1200.752 L 568.447 1201.227 L 564.974 1201.174 L 558.104 1201.644 L 553.284 1201.809 L 547.296 1202.114 L 542.895 1202.214 L 535.475 1202.748 L 529.983 1202.974 L 525.549 1203.071 L 518.103 1203.598 L 514.584 1203.525 L 507.628 1203.978 L 502.685 1204.13 L 496.717 1204.406 L 492.164 1204.499 L 484.693 1205.01 L 479.186 1205.212 L 474.599 1205.301 L 467.102 1205.806 L 463.538 1205.713 L 456.494 1206.149 L 452.922 1206.051 L 445.86 1206.483 L 440.769 1206.622 L 434.82 1206.862 L 428.106 1207.236 L 422.981 1207.37 L 417.023 1207.602 L 412.254 1207.681 L 406.292 1207.907 L 401.5 1207.984 L 393.922 1208.459 L 390.294 1208.338 L 383.125 1208.749 L 379.487 1208.623 L 372.301 1209.031 L 367.035 1209.153 L 361.105 1209.352 L 356.161 1209.424 L 350.228 1209.617 L 345.26 1209.686 L 339.323 1209.874 L 332.408 1210.221 L 327.062 1210.334 L 321.118 1210.513 L 316.087 1210.576 L 310.14 1210.75 L 305.084 1210.811 L 299.134 1210.978 L 294.053 1211.037 L 286.347 1211.468 L 282.624 1211.306 L 275.272 1211.682 L 271.54 1211.516 L 264.169 1211.888 L 260.427 1211.717 L 253.037 1212.086 L 249.286 1211.91 L 241.878 1212.275 L 238.116 1212.096 L 230.689 1212.457 L 225.101 1212.547 L 219.183 1212.671 L 213.86 1212.717 L 207.94 1212.836 L 202.59 1212.88 L 196.668 1212.993 L 191.292 1213.035 L 185.368 1213.142 L 179.964 1213.182 L 175.839 1213.023 L 168.304 1213.364 L 164.476 1213.157 L 156.922 1213.494 L 153.084 1213.283 L 145.51 1213.616 L 141.663 1213.401 L 134.07 1213.731 L 130.212 1213.511 L 122.599 1213.837 L 118.732 1213.614 L 111.099 1213.936 L 107.222 1213.708 L 99.57 1214.027 L 95.682 1213.794 L 90.028 1213.814 L 84.388 1213.834 L 80.213 1213.634 L 72.515 1213.944 L 68.603 1213.7 L 60.885 1214.006 L 56.963 1213.759 L 49.226 1214.061 L 45.294 1213.81 L 37.536 1214.108 L 33.593 1213.852 L 25.816 1214.147 L 21.863 1213.887 L 61.402 1493.09 L 65.308 1493.041 L 73.04 1492.439 L 76.938 1492.389 L 84.653 1491.787 L 88.543 1491.737 L 96.24 1491.135 L 100.121 1491.085 L 107.802 1490.483 L 111.674 1490.432 L 119.337 1489.83 L 123.201 1489.778 L 128.452 1489.521 L 134.703 1489.124 L 138.555 1489.071 L 146.179 1488.469 L 150.023 1488.416 L 157.63 1487.814 L 161.465 1487.76 L 169.055 1487.158 L 172.882 1487.103 L 180.456 1486.501 L 184.274 1486.446 L 191.831 1485.844 L 195.641 1485.788 L 203.181 1485.186 L 206.983 1485.129 L 214.507 1484.527 L 218.3 1484.47 L 223.416 1484.213 L 229.592 1483.809 L 234.692 1483.553 L 240.859 1483.148 L 245.943 1482.892 L 252.102 1482.487 L 257.17 1482.23 L 263.32 1481.824 L 268.373 1481.568 L 275.804 1480.966 L 279.55 1480.905 L 286.966 1480.303 L 290.704 1480.241 L 298.103 1479.639 L 301.832 1479.576 L 309.215 1478.974 L 312.937 1478.91 L 320.304 1478.308 L 324.017 1478.244 L 331.368 1477.641 L 336.324 1477.384 L 342.408 1476.973 L 347.349 1476.717 L 353.425 1476.305 L 358.35 1476.048 L 364.417 1475.635 L 369.327 1475.378 L 376.61 1474.776 L 382.661 1474.361 L 387.547 1474.105 L 393.59 1473.689 L 398.461 1473.433 L 404.495 1473.016 L 409.351 1472.76 L 416.576 1472.157 L 420.217 1472.086 L 427.426 1471.482 L 431.06 1471.411 L 438.253 1470.807 L 443.061 1470.55 L 449.058 1470.13 L 453.85 1469.873 L 459.838 1469.452 L 464.617 1469.195 L 471.759 1468.591 L 477.732 1468.168 L 482.486 1467.911 L 489.603 1467.307 L 493.19 1467.231 L 500.292 1466.626 L 503.871 1466.549 L 510.957 1465.943 L 515.665 1465.686 L 521.6 1465.26 L 528.661 1464.654 L 533.345 1464.396 L 539.266 1463.968 L 543.936 1463.71 L 550.962 1463.104 L 554.504 1463.023 L 561.515 1462.417 L 566.154 1462.158 L 572.045 1461.728 L 579.031 1461.121 L 583.647 1460.862 L 589.524 1460.429 L 594.126 1460.171 L 601.078 1459.563 L 604.582 1459.478 L 611.519 1458.87 L 618.446 1458.261 L 621.937 1458.175 L 628.85 1457.566 L 633.398 1457.306 L 640.292 1456.697 L 646.119 1456.259 L 650.646 1455.999 L 657.515 1455.39 L 660.977 1455.3 L 667.831 1454.689 L 674.676 1454.079 L 679.163 1453.818 L 684.956 1453.376 L 689.43 1453.115 L 696.242 1452.503 L 702.019 1452.059 L 706.472 1451.798 L 713.259 1451.185 L 717.696 1450.923 L 723.454 1450.477 L 730.217 1449.863 L 734.631 1449.601 L 741.377 1448.988 L 744.776 1448.89 L 751.507 1448.275 L 758.228 1447.661 L 762.605 1447.397 L 769.308 1446.782 L 775.019 1446.33 L 779.376 1446.066 L 786.055 1445.45 L 790.395 1445.185 L 797.057 1444.569 L 802.743 1444.113 L 807.062 1443.848 L 813.7 1443.23 L 820.329 1442.612 L 824.624 1442.346 L 830.284 1441.886 L 834.568 1441.62 L 841.165 1441 L 847.752 1440.38 L 852.012 1440.113 L 857.646 1439.65 L 864.21 1439.029 L 868.45 1438.761 L 874.997 1438.139 L 881.534 1437.516 L 885.751 1437.248 L 892.271 1436.624 L 897.868 1436.156 L 902.064 1435.886 L 908.562 1435.262 L 915.05 1434.636 L 919.223 1434.366 L 925.694 1433.74 L 932.156 1433.114 L 935.412 1432.995 L 941.861 1432.367 L 948.3 1431.739 L 952.431 1431.467 L 958.853 1430.838 L 965.267 1430.208 L 969.375 1429.935 L 975.772 1429.304 L 982.159 1428.674 L 986.246 1428.398 L 991.752 1427.916 L 998.117 1427.283 L 1004.473 1426.65 L 1008.533 1426.374 L 1014.872 1425.739 L 1021.202 1425.105 L 1025.241 1424.827 L 1031.555 1424.191 L 1037.86 1423.555 L 1041.876 1423.275 L 1048.165 1422.638 L 1054.445 1422 L 1060.715 1421.361 L 1064.703 1421.08 L 1070.958 1420.44 L 1077.204 1419.799 L 1083.44 1419.158 L 1087.4 1418.875 L 1093.621 1418.232 L 1099.833 1417.589 L 1103.771 1417.304 L 1109.967 1416.659 L 1116.154 1416.014 L 1122.332 1415.368 L 1126.243 1415.081 L 1132.406 1414.434 L 1138.559 1413.786 L 1144.704 1413.137 L 1148.587 1412.848 L 1154.716 1412.197 L 1160.837 1411.546 L 1166.948 1410.894 L 1170.804 1410.602 L 1176.9 1409.949 L 1182.988 1409.294 L 1189.066 1408.639 L 1192.895 1408.345 L 1198.958 1407.688 L 1205.013 1407.03 L 1211.058 1406.372 L 1215.618 1405.939 L 1221.645 1405.279 L 1227.665 1404.618 L 1233.675 1403.956 L 1239.677 1403.293 L 1243.444 1402.993 L 1249.43 1402.328 L 1255.408 1401.663 L 1261.378 1400.996 L 1265.853 1400.56 L 1271.805 1399.892 L 1277.748 1399.222 L 1283.683 1398.552 L 1289.609 1397.881 L 1293.315 1397.574 L 1299.226 1396.901 L 1305.844 1396.096 L 1311.736 1395.421 L 1317.62 1394.744 L 1321.291 1394.433 L 1327.16 1393.755 L 1333.723 1392.946 L 1339.573 1392.266 L 1345.414 1391.584 L 1351.246 1390.902 L 1354.877 1390.585 L 1361.386 1389.772 L 1367.194 1389.087 L 1372.992 1388.4 L 1378.783 1387.712 L 1382.38 1387.39 L 1388.836 1386.573 L 1394.601 1385.882 L 1400.358 1385.189 L 1406.107 1384.495 L 1412.517 1383.674 L 1418.247 1382.978 L 1421.797 1382.649 L 1427.513 1381.95 L 1433.881 1381.126 L 1439.578 1380.424 L 1445.266 1379.721 L 1451.601 1378.894 L 1457.271 1378.188 L 1460.774 1377.852 L 1467.077 1377.021 L 1472.722 1376.312 L 1478.359 1375.601 L 1484.629 1374.767 L 1490.248 1374.054 L 1495.858 1373.338 L 1502.095 1372.501 L 1505.545 1372.155 L 1511.131 1371.436 L 1517.337 1370.595 L 1522.904 1369.873 L 1528.464 1369.149 L 1534.637 1368.304 L 1540.179 1367.577 L 1546.329 1366.73 L 1551.853 1366 L 1555.244 1365.642 L 1561.365 1364.791 L 1566.864 1364.056 L 1572.962 1363.202 L 1578.444 1362.464 L 1584.519 1361.607 L 1589.983 1360.866 L 1595.438 1360.123 L 1601.482 1359.261 L 1606.92 1358.515 L 1612.942 1357.651 L 1618.362 1356.9 L 1624.362 1356.033 L 1629.764 1355.279 L 1633.65 1354.785 L 1639.037 1354.028 L 1644.996 1353.155 L 1650.365 1352.394 L 1656.302 1351.517 L 1661.653 1350.752 L 1667.569 1349.872 L 1672.902 1349.103 L 1678.797 1348.219 L 1684.679 1347.334 L 1689.986 1346.559 L 1695.847 1345.67 L 1701.136 1344.891 L 1706.976 1343.998 L 1712.248 1343.215 L 1718.067 1342.319 L 1723.874 1341.42 L 1729.119 1340.631 L 1734.905 1339.728 L 1740.68 1338.824 L 1745.898 1338.028 L 1751.652 1337.119 L 1756.853 1336.319 L 1762.586 1335.406 L 1768.309 1334.491 L 1773.482 1333.684 L 1779.184 1332.765 L 1784.874 1331.843 L 1790.554 1330.919 L 1795.692 1330.103 L 1801.35 1329.175 L 1806.998 1328.244 L 1812.11 1327.42 L 1817.737 1326.485 L 1823.353 1325.548 L 1828.958 1324.608 L 1834.035 1323.774 L 1839.62 1322.829 L 1845.194 1321.882 L 1850.757 1320.932 L 1855.798 1320.087 L 1863.335 1318.746 L 1868.865 1317.788 L 1874.384 1316.827 L 1879.892 1315.864 L 1884.887 1315.006 L 1890.375 1314.037 L 1895.853 1313.066 L 1901.32 1312.092 L 1906.777 1311.115 L 1912.223 1310.135 L 1917.164 1309.259 L 1922.591 1308.273 L 1928.007 1307.285 L 1935.37 1305.904 L 1940.762 1304.909 L 1946.144 1303.911 L 1951.515 1302.91 L 1956.876 1301.906 L 1962.227 1300.899 L 1967.567 1299.889 L 1972.897 1298.876 L 1980.151 1297.467 L 1985.458 1296.447 L 1990.755 1295.423 L 1996.041 1294.396 L 2001.317 1293.366 L 2006.583 1292.332 L 2011.839 1291.295 L 2017.084 1290.254 L 2024.231 1288.816 L 2029.454 1287.768 L 2034.666 1286.716 L 2039.869 1285.66 L 2045.062 1284.601 L 2050.244 1283.538 L 2057.31 1282.076 L 2062.47 1281.004 L 2067.62 1279.929 L 2072.76 1278.85 L 2077.891 1277.767 L 2084.888 1276.283 L 2090.449 1275.087 L 2095.547 1273.991 L 2100.634 1272.891 L 2105.711 1271.787 L 2112.64 1270.281 L 2117.695 1269.168 L 2123.187 1267.946 L 2128.222 1266.824 L 2133.248 1265.698 L 2140.108 1264.168 L 2145.111 1263.033 L 2150.546 1261.787 L 2155.529 1260.643 L 2162.334 1259.093 L 2167.295 1257.938 L 2172.684 1256.673 L 2177.626 1255.509 L 2184.375 1253.938 L 2189.729 1252.657 L 2194.638 1251.478 L 2201.345 1249.89 L 2206.664 1248.594 L 2211.542 1247.398 L 2216.41 1246.197 L 2223.488 1244.482 L 2228.334 1243.27 L 2233.171 1242.052 L 2240.205 1240.318 L 2245.019 1239.089 L 2250.249 1237.747 L 2255.045 1236.506 L 2261.6 1234.855 L 2266.796 1233.494 L 2271.561 1232.236 L 2278.491 1230.457 L 2283.235 1229.186 L 2288.387 1227.801 L 2294.858 1226.11 L 2299.988 1224.711 L 2304.691 1223.414 L 2311.533 1221.595 L 2316.214 1220.285 L 2323.026 1218.45 L 2327.686 1217.126 L 2332.75 1215.685 L 2339.108 1213.938 L 2344.151 1212.483 L 2349.183 1211.02 L 2355.5 1209.251 L 2360.51 1207.773 L 2366.797 1205.988 L 2371.786 1204.495 L 2376.764 1202.993 L 2383.01 1201.185 L 2387.968 1199.667 L 2394.589 1197.73 L 2399.117 1196.308 L 2405.709 1194.354 L 2410.622 1192.802 L 2415.121 1191.356 L 2421.671 1189.374 L 2426.555 1187.797 L 2433.074 1185.797 L 2437.532 1184.315 L 2444.023 1182.296 L 2448.865 1180.681 L 2455.326 1178.643 L 2459.744 1177.125 L 2466.176 1175.066 L 2470.977 1173.412 L 2477.381 1171.332 L 2482.161 1169.659 L 2488.137 1167.675 L 2492.898 1165.98 L 2499.244 1163.858 L 2503.985 1162.142 L 2510.303 1159.998 L 2515.025 1158.26 L 2520.916 1156.212 L 2525.618 1154.452 L 2531.88 1152.262 L 2538.125 1150.058 L 2542.797 1148.263 L 2549.015 1146.036 L 2553.669 1144.216 L 2559.859 1141.964 L 2564.494 1140.12 L 2570.657 1137.842 L 2576.805 1135.551 L 2581.411 1133.668 L 2587.531 1131.35 L 2592.12 1129.441 L 2598.214 1127.096 L 2604.292 1124.737 L 2608.853 1122.786 L 2614.905 1120.398 L 2620.941 1117.995 L 2625.475 1116.001 L 2631.485 1113.569 L 2637.48 1111.12 L 2641.987 1109.082 L 2647.956 1106.603 L 2653.91 1104.107 L 2658.392 1102.023 L 2664.321 1099.495 L 2670.235 1096.951 L 2674.692 1094.817 L 2680.581 1092.239 L 2686.455 1089.644 L 2692.728 1086.894 L 2697.152 1084.692 L 2702.988 1082.043 L 2708.81 1079.376 L 2714.617 1076.69 L 2719.009 1074.415 L 2724.792 1071.692 L 2730.981 1068.808 L 2736.737 1066.045 L 2741.1 1063.693 L 2746.833 1060.891 L 2752.552 1058.068 L 2758.258 1055.224 L 2764.375 1052.213 L 2768.702 1049.759 L 2774.374 1046.851 L 2780.031 1043.921 L 2785.675 1040.968 L 2791.306 1037.993 L 2797.357 1034.844 L 2801.644 1032.257 L 2807.242 1029.212 L 2812.828 1026.143 L 2818.84 1022.896 L 2824.402 1019.777 L 2829.95 1016.633 L 2835.486 1013.464 L 2841.009 1010.269 L 2846.969 1006.889 L 2852.47 1003.641 L 2857.958 1000.365 L 2862.181 997.501 L 2868.108 994.01 L 2873.57 990.652 L 2879.019 987.266 L 2884.457 983.85 L 2889.884 980.405 L 2895.767 976.764 L 2901.174 973.259 L 2906.569 969.722 L 2911.955 966.155 L 2917.806 962.386 L 2923.173 958.755 L 2929.715 954.649 L 2935.055 950.951 L 2940.872 947.046 L 2946.195 943.28 L 2951.508 939.48 L 2956.812 935.645 L 2962.106 931.775 L 2967.894 927.69 L 2973.174 923.747 L 2978.445 919.768 L 2984.827 915.306 L 2990.59 911.068 L 2995.833 906.973 L 3001.068 902.839 L 3006.296 898.666 L 3011.516 894.453 L 3018.336 889.567 L 3023.539 885.271 L 3028.736 880.933 L 3033.926 876.553 L 3039.111 872.131 L 3045.879 867.028 L 3051.11 862.514 L 3055.317 857.995 L 3062.574 852.934 L 3067.777 848.283 L 3073.638 843.558 L 3077.817 838.655 L 3084.93 833.408 L 3090.106 828.566 L 3094.408 823.706 L 3101.413 818.314 L 3105.741 813.354 L 3112.673 807.862 L 3118.355 802.75 L 3122.804 797.429 L 3129.639 791.785 L 3134.042 786.563 L 3140.809 780.816 L 3145.241 775.486 L 3151.943 769.635 L 3156.404 764.196 L 3163.043 758.239 L 3167.534 752.69 L 3174.113 746.626 L 3178.636 740.966 L 3185.157 734.794 L 3189.712 729.022 L 3196.179 722.741 L 3200.766 716.857 L 3206.694 710.482 L 3213.08 704.038 L 3217.716 697.985 L 3223.617 691.445 L 3229.931 684.837 L 3234.617 678.616 L 3240.496 671.912 L 3246.744 665.143 L 3251.484 658.756 L 3257.347 651.89 L 3263.203 644.972 L 3269.374 637.994 L 3274.187 631.391 L 3280.034 624.318 L 3285.877 617.196 L 3291.716 610.024 L 3297.247 602.811 L 3302.8 595.774 L 3307.723 588.869 L 3313.554 581.51 L 3319.385 574.107 L 3325.217 566.661 L 3330.819 559.18 L 3336.001 551.892 L 3341.83 544.327 L 3347.663 536.725 L 3353.5 529.089 L 3359.163 521.422 L 3364.259 513.959 L 3370.105 506.227 L 3375.959 498.468 L 3381.547 490.687 L 3387.247 482.74 L 3393.11 474.911 L 3398.985 467.062 L 3404.758 459.197 L 3409.756 451.551 L 3415.583 443.656 L 3421.954 435.395 L 3426.925 427.715 L 3432.793 419.798 L 3439.17 411.53 L 3444.123 403.839 L 3449.959 395.922 L 3455.387 387.895 L 3461.33 379.989 L 3467.727 371.761 L 3472.627 364.101 L 3479.034 355.908 L 3483.936 348.277 L 3490.358 340.129 L 3495.265 332.537 L 3501.704 324.445 L 3506.621 316.902 L 3513.088 308.876 L 3519.537 300.89 L 3524.83 293.149 L 3530.98 285.536 L 3536.229 277.877 L 3541.492 270.262 L 3548.023 262.502 L 3548.639 262.49 L 3542.09 270.234 L 3536.166 277.861 L 3530.893 285.521 L 3525.974 293.083 L 3519.46 300.849 L 3513.667 308.805 L 3507.21 316.813 L 3502.132 324.35 L 3495.856 332.421 L 3490.784 340.007 L 3484.522 348.133 L 3479.453 355.758 L 3473.202 363.93 L 3468.134 371.585 L 3461.89 379.791 L 3456.536 387.65 L 3449.864 395.715 L 3445.245 403.568 L 3439.56 411.269 L 3433.328 419.516 L 3428.031 427.385 L 3422.336 435.076 L 3416.103 443.317 L 3410.831 451.161 L 3405.123 458.822 L 3400.04 466.631 L 3394.173 474.446 L 3388.315 482.24 L 3381.497 490.238 L 3376.968 497.947 L 3371.117 505.672 L 3365.273 513.37 L 3359.532 520.851 L 3354.478 528.46 L 3348.64 536.063 L 3342.806 543.63 L 3336.974 551.16 L 3331.206 558.469 L 3326.148 565.894 L 3320.312 573.305 L 3314.477 580.675 L 3308.641 588 L 3304.376 594.818 L 3297.696 601.908 L 3292.614 609.064 L 3286.769 616.203 L 3280.921 623.293 L 3275.069 630.334 L 3270.82 636.849 L 3264.105 643.824 L 3258.243 650.71 L 3252.375 657.544 L 3248.131 663.844 L 3241.409 670.61 L 3235.525 677.284 L 3231.279 683.417 L 3224.549 690.023 L 3218.644 696.535 L 3214.391 702.5 L 3207.649 708.944 L 3201.72 715.293 L 3197.455 721.091 L 3190.697 727.372 L 3186.423 733.058 L 3179.656 739.231 L 3175.371 744.806 L 3168.593 750.872 L 3164.296 756.338 L 3157.505 762.297 L 3153.194 767.655 L 3146.389 773.508 L 3142.062 778.759 L 3135.243 784.509 L 3130.899 789.655 L 3124.062 795.302 L 3119.796 800.482 L 3114.001 805.556 L 3107.144 811.053 L 3102.759 815.941 L 3095.882 821.34 L 3091.477 826.13 L 3086.329 830.918 L 3079.424 836.173 L 3075.094 840.946 L 3069.277 845.633 L 3064.108 850.232 L 3057.167 855.303 L 3052.69 859.764 L 3047.498 864.228 L 3040.531 869.29 L 3035.49 873.655 L 3030.276 877.988 L 3025.054 882.278 L 3019.826 886.528 L 3012.808 891.373 L 3007.724 895.527 L 3002.47 899.654 L 2997.207 903.741 L 2991.937 907.789 L 2986.773 911.902 L 2979.07 916.441 L 2974.428 920.323 L 2969.119 924.22 L 2963.918 928.178 L 2957.997 932.049 L 2952.662 935.838 L 2947.318 939.592 L 2941.964 943.312 L 2936.715 947.089 L 2930.761 950.789 L 2923.536 954.932 L 2918.761 958.466 L 2913.466 962.108 L 2907.477 965.68 L 2902.047 969.172 L 2896.607 972.633 L 2891.269 976.147 L 2885.246 979.598 L 2879.774 982.971 L 2874.29 986.315 L 2868.794 989.631 L 2863.397 992.995 L 2859.678 995.738 L 2853.098 999.069 L 2847.561 1002.276 L 2842.118 1005.528 L 2836.02 1008.734 L 2830.447 1011.863 L 2824.862 1014.967 L 2819.265 1018.046 L 2813.757 1021.168 L 2807.608 1024.25 L 2801.973 1027.257 L 2798.686 1029.673 L 2792.121 1032.797 L 2785.936 1035.789 L 2780.254 1038.705 L 2774.559 1041.6 L 2768.851 1044.473 L 2765.498 1046.755 L 2758.877 1049.746 L 2752.63 1052.611 L 2746.873 1055.401 L 2741.102 1058.172 L 2737.692 1060.352 L 2730.937 1063.189 L 2725.214 1065.953 L 2718.901 1068.702 L 2715.444 1070.805 L 2708.655 1073.569 L 2702.796 1076.209 L 2696.922 1078.831 L 2693.417 1080.864 L 2686.666 1083.605 L 2680.277 1086.232 L 2674.351 1088.787 L 2670.797 1090.752 L 2663.933 1093.382 L 2657.967 1095.889 L 2654.377 1097.807 L 2647.484 1100.392 L 2641.478 1102.854 L 2637.851 1104.726 L 2630.929 1107.267 L 2624.883 1109.685 L 2621.219 1111.515 L 2614.266 1114.015 L 2608.179 1116.391 L 2604.477 1118.18 L 2597.494 1120.64 L 2591.365 1122.977 L 2587.626 1124.727 L 2580.611 1127.148 L 2576.847 1128.872 L 2569.812 1131.269 L 2563.615 1133.545 L 2559.812 1135.233 L 2552.745 1137.595 L 2548.917 1139.259 L 2541.829 1141.599 L 2537.975 1143.241 L 2530.868 1145.56 L 2524.573 1147.757 L 2520.68 1149.366 L 2513.483 1151.629 L 2510.015 1153.156 L 2502.851 1155.423 L 2498.907 1156.992 L 2491.722 1159.24 L 2487.752 1160.788 L 2480.502 1162.996 L 2476.946 1164.464 L 2469.716 1166.675 L 2465.694 1168.187 L 2458.443 1170.381 L 2454.208 1171.876 L 2447.518 1173.97 L 2443.445 1175.447 L 2436.147 1177.608 L 2431.87 1179.07 L 2425.126 1181.131 L 2421 1182.577 L 2413.656 1184.706 L 2409.336 1186.138 L 2404.977 1187.589 L 2397.6 1189.696 L 2393.249 1191.107 L 2386.411 1193.117 L 2382.193 1194.51 L 2374.761 1196.572 L 2370.929 1197.89 L 2365.927 1199.374 L 2358.468 1201.418 L 2354.591 1202.715 L 2347.11 1204.746 L 2343.205 1206.032 L 2338.151 1207.485 L 2330.642 1209.499 L 2326.692 1210.766 L 2321.479 1212.207 L 2314.463 1214.137 L 2309.951 1215.454 L 2302.907 1217.373 L 2298.373 1218.679 L 2293.766 1220.004 L 2286.175 1221.975 L 2282.112 1223.199 L 2276.829 1224.597 L 2269.702 1226.486 L 2265.105 1227.763 L 2260.421 1229.057 L 2252.769 1231.001 L 2248.522 1232.201 L 2243.802 1233.482 L 2238.461 1234.848 L 2231.237 1236.706 L 2226.565 1237.951 L 2221.709 1239.221 L 2214.443 1241.067 L 2209.739 1242.299 L 2204.853 1243.556 L 2200.032 1244.804 L 2192.267 1246.704 L 2187.89 1247.858 L 2183.032 1249.095 L 2175.233 1250.984 L 2170.821 1252.127 L 2165.924 1253.354 L 2160.459 1254.666 L 2153.112 1256.457 L 2148.654 1257.587 L 2143.707 1258.801 L 2138.206 1260.099 L 2130.81 1261.879 L 2126.306 1262.996 L 2121.265 1264.202 L 2116.255 1265.4 L 2110.71 1266.684 L 2103.255 1268.45 L 2098.692 1269.553 L 2093.601 1270.744 L 2088.499 1271.932 L 2083.413 1273.115 L 2075.421 1274.953 L 2070.8 1276.043 L 2065.656 1277.221 L 2060.503 1278.397 L 2055.34 1279.57 L 2047.763 1281.312 L 2043.086 1282.39 L 2037.892 1283.557 L 2032.687 1284.721 L 2027.473 1285.883 L 2022.248 1287.043 L 2014.598 1288.774 L 2009.855 1289.84 L 2004.598 1290.994 L 1999.331 1292.146 L 1994.055 1293.296 L 1988.769 1294.445 L 1983.472 1295.591 L 1978.165 1296.736 L 1970.419 1298.454 L 1965.584 1299.505 L 1960.245 1300.645 L 1954.895 1301.784 L 1949.536 1302.921 L 1944.166 1304.056 L 1938.785 1305.19 L 1933.395 1306.322 L 1925.551 1308.031 L 1920.624 1309.07 L 1915.2 1310.199 L 1909.77 1311.33 L 1904.819 1312.364 L 1899.365 1313.489 L 1893.901 1314.612 L 1888.427 1315.735 L 1882.942 1316.856 L 1877.467 1317.978 L 1872.448 1319.005 L 1866.933 1320.124 L 1861.408 1321.241 L 1853.406 1322.939 L 1848.362 1323.964 L 1843.288 1324.987 L 1837.72 1326.101 L 1832.14 1327.214 L 1826.59 1328.324 L 1821.471 1329.344 L 1815.861 1330.455 L 1810.24 1331.565 L 1804.659 1332.672 L 1799.495 1333.689 L 1793.843 1334.797 L 1788.238 1335.901 L 1783.042 1336.916 L 1777.359 1338.023 L 1771.665 1339.129 L 1766.028 1340.229 L 1760.786 1341.243 L 1755.061 1342.348 L 1749.4 1343.446 L 1744.124 1344.458 L 1738.447 1345.554 L 1733.15 1346.566 L 1727.373 1347.669 L 1721.672 1348.763 L 1716.341 1349.774 L 1710.532 1350.877 L 1704.807 1351.97 L 1699.442 1352.98 L 1693.7 1354.072 L 1688.314 1355.082 L 1682.555 1356.172 L 1677.148 1357.182 L 1671.265 1358.284 L 1665.482 1359.373 L 1660.04 1360.383 L 1654.24 1361.472 L 1648.777 1362.482 L 1642.96 1363.569 L 1637.475 1364.58 L 1631.641 1365.666 L 1629.359 1365.949 L 1622.375 1367.26 L 1616.843 1368.271 L 1610.983 1369.357 L 1605.43 1370.368 L 1599.552 1371.453 L 1593.977 1372.465 L 1588.083 1373.549 L 1582.632 1374.542 L 1577.028 1375.554 L 1571.106 1376.638 L 1565.479 1377.652 L 1559.541 1378.736 L 1553.891 1379.75 L 1550.905 1380.154 L 1544.544 1381.318 L 1538.86 1382.334 L 1532.885 1383.417 L 1527.179 1384.433 L 1521.187 1385.517 L 1515.635 1386.508 L 1509.898 1387.526 L 1503.879 1388.61 L 1501.284 1388.919 L 1494.663 1390.111 L 1488.625 1391.195 L 1483.023 1392.187 L 1477.22 1393.208 L 1471.155 1394.292 L 1465.527 1395.284 L 1459.692 1396.307 L 1456.587 1396.707 L 1450.096 1397.872 L 1444.225 1398.898 L 1438.114 1399.983 L 1432.436 1400.976 L 1426.533 1402.004 L 1420.394 1403.089 L 1417.684 1403.397 L 1411.14 1404.563 L 1405.192 1405.594 L 1399.024 1406.681 L 1393.287 1407.676 L 1387.542 1408.671 L 1381.553 1409.705 L 1378.347 1410.105 L 1371.751 1411.274 L 1365.973 1412.27 L 1360.187 1413.267 L 1354.143 1414.305 L 1350.902 1414.705 L 1344.269 1415.876 L 1338.449 1416.874 L 1332.622 1417.872 L 1326.522 1418.916 L 1320.239 1420.007 L 1317.396 1420.317 L 1310.714 1421.489 L 1304.845 1422.49 L 1298.689 1423.539 L 1292.366 1424.632 L 1289.484 1424.943 L 1282.766 1426.118 L 1276.855 1427.121 L 1270.935 1428.125 L 1265.008 1429.129 L 1262.032 1429.443 L 1254.603 1430.761 L 1248.649 1431.767 L 1242.687 1432.774 L 1239.739 1433.087 L 1232.953 1434.266 L 1226.967 1435.274 L 1220.974 1436.282 L 1214.972 1437.291 L 1211.897 1437.616 L 1204.408 1438.938 L 1198.38 1439.949 L 1192.344 1440.961 L 1189.324 1441.278 L 1182.472 1442.462 L 1176.412 1443.475 L 1170.343 1444.49 L 1167.297 1444.808 L 1160.412 1445.995 L 1154.32 1447.011 L 1148.219 1448.028 L 1145.145 1448.348 L 1138.228 1449.537 L 1132.103 1450.556 L 1125.97 1451.575 L 1122.868 1451.897 L 1115.919 1453.089 L 1109.762 1454.111 L 1103.595 1455.133 L 1100.465 1455.457 L 1093.484 1456.652 L 1087.294 1457.676 L 1084.137 1458.003 L 1077.138 1459.199 L 1070.923 1460.226 L 1064.699 1461.253 L 1061.511 1461.582 L 1054.482 1462.781 L 1048.233 1463.811 L 1041.976 1464.842 L 1038.757 1465.174 L 1031.697 1466.376 L 1025.415 1467.409 L 1022.166 1467.744 L 1015.09 1468.948 L 1008.783 1469.984 L 1005.504 1470.321 L 998.411 1471.526 L 992.08 1472.565 L 986.125 1473.532 L 983.31 1473.767 L 976.171 1474.977 L 969.808 1476.018 L 966.487 1476.36 L 959.333 1477.571 L 952.944 1478.616 L 949.59 1478.961 L 942.421 1480.174 L 936.007 1481.221 L 932.751 1481.553 L 926.329 1482.601 L 919.893 1483.65 L 916.497 1483.999 L 909.28 1485.217 L 902.819 1486.27 L 899.387 1486.623 L 892.606 1487.756 L 886.583 1488.71 L 883.142 1489.064 L 875.879 1490.287 L 869.369 1491.345 L 865.891 1491.703 L 858.616 1492.927 L 852.549 1493.897 L 849.524 1494.155 L 842.216 1495.383 L 835.657 1496.447 L 832.131 1496.811 L 825.3 1497.944 L 822.226 1498.208 L 814.887 1499.439 L 808.288 1500.508 L 804.715 1500.877 L 797.875 1502.01 L 791.706 1502.981 L 788.122 1503.352 L 780.74 1504.588 L 777.12 1504.963 L 770.272 1506.094 L 764.056 1507.071 L 760.424 1507.448 L 753.013 1508.688 L 746.324 1509.767 L 742.926 1510.102 L 736.226 1511.182 L 732.543 1511.565 L 725.105 1512.808 L 718.934 1513.781 L 715.684 1514.067 L 708.215 1515.313 L 704.477 1515.704 L 697.598 1516.833 L 691.264 1517.825 L 687.513 1518.217 L 680.607 1519.348 L 677.288 1519.643 L 669.774 1520.895 L 662.964 1521.989 L 659.504 1522.326 L 652.683 1523.421 L 648.866 1523.822 L 641.948 1524.951 L 635.531 1525.955 L 631.699 1526.358 L 624.132 1527.615 L 620.643 1527.953 L 613.765 1529.056 L 606.873 1530.161 L 603.373 1530.499 L 596.47 1531.605 L 592.566 1532.018 L 585.618 1533.146 L 582.131 1533.465 L 574.507 1534.729 L 568.221 1535.706 L 564.72 1536.028 L 557.067 1537.295 L 553.529 1537.635 L 546.554 1538.75 L 542.563 1539.176 L 535.602 1540.3 L 532.016 1540.634 L 524.339 1541.904 L 518.023 1542.882 L 514.421 1543.218 L 506.715 1544.492 L 503.14 1544.833 L 496.091 1545.958 L 492.508 1546.3 L 485.444 1547.427 L 481.346 1547.868 L 474.371 1548.989 L 467.681 1550.03 L 463.563 1550.474 L 456.568 1551.596 L 452.842 1551.951 L 445.836 1553.073 L 442.099 1553.43 L 434.312 1554.713 L 430.683 1555.056 L 423.529 1556.196 L 419.892 1556.54 L 412.722 1557.682 L 408.494 1558.143 L 401.507 1559.257 L 397.65 1559.633 L 390.653 1560.747 L 386.783 1561.125 L 379.776 1562.24 L 372.933 1563.303 L 368.652 1563.772 L 361.631 1564.887 L 357.722 1565.271 L 350.692 1566.387 L 346.768 1566.773 L 339.73 1567.888 L 335.79 1568.277 L 327.886 1569.573 L 324.178 1569.92 L 316.869 1571.081 L 313.153 1571.429 L 305.828 1572.592 L 302.105 1572.94 L 294.764 1574.106 L 291.032 1574.454 L 283.675 1575.621 L 279.936 1575.97 L 272.563 1577.14 L 268.088 1577.638 L 261.071 1578.741 L 256.933 1579.162 L 249.911 1580.264 L 245.755 1580.688 L 238.727 1581.79 L 234.551 1582.217 L 227.519 1583.318 L 223.324 1583.748 L 218.992 1584.223 L 211.528 1585.405 L 207.734 1585.757 L 200.254 1586.941 L 196.452 1587.294 L 188.956 1588.48 L 185.145 1588.833 L 177.633 1590.021 L 173.814 1590.375 L 166.285 1591.565 L 162.457 1591.919 L 154.912 1593.112 L 151.076 1593.466 L 143.514 1594.662 L 139.67 1595.016 L 133.135 1595.992 L 128.755 1596.452 L 124.386 1596.923 L 116.785 1598.123 L 112.922 1598.479 L 105.304 1599.681 L 101.432 1600.037 L 93.797 1601.242 L 89.917 1601.599 L 82.265 1602.806 L 78.376 1603.163 L 70.708 1604.372 L 66.81 1604.729 L 145.957 1950.527 L 149.732 1949.655 L 157.275 1947.914 L 161.043 1947.044 L 168.572 1945.305 L 172.334 1944.437 L 179.85 1942.701 L 183.605 1941.834 L 191.109 1940.102 L 194.857 1939.236 L 202.348 1937.507 L 206.09 1936.643 L 209.83 1935.779 L 217.303 1934.054 L 221.036 1933.192 L 228.496 1931.47 L 232.223 1930.609 L 239.67 1928.89 L 243.39 1928.031 L 250.824 1926.314 L 254.538 1925.457 L 261.959 1923.743 L 265.666 1922.887 L 273.075 1921.177 L 276.775 1920.322 L 284.17 1918.615 L 287.865 1917.762 L 295.247 1916.057 L 298.935 1915.206 L 302.621 1914.355 L 309.985 1912.654 L 313.665 1911.805 L 321.017 1910.107 L 324.689 1909.259 L 332.028 1907.565 L 335.695 1906.718 L 343.021 1905.027 L 346.681 1904.182 L 353.994 1902.493 L 357.647 1901.649 L 364.947 1899.964 L 368.594 1899.122 L 375.882 1897.439 L 379.522 1896.598 L 386.797 1894.919 L 390.431 1894.08 L 397.692 1892.403 L 401.32 1891.565 L 408.569 1889.891 L 412.19 1889.055 L 419.426 1887.384 L 423.04 1886.55 L 430.263 1884.882 L 433.872 1884.049 L 441.082 1882.384 L 444.684 1881.552 L 451.881 1879.89 L 459.07 1878.23 L 462.661 1877.401 L 469.837 1875.743 L 473.421 1874.916 L 480.585 1873.261 L 484.163 1872.435 L 491.313 1870.784 L 494.885 1869.959 L 502.023 1868.311 L 505.588 1867.487 L 512.713 1865.842 L 516.272 1865.02 L 523.384 1863.377 L 526.937 1862.557 L 534.036 1860.917 L 537.582 1860.098 L 544.668 1858.462 L 551.746 1856.827 L 555.282 1856.01 L 562.347 1854.379 L 565.876 1853.563 L 572.929 1851.935 L 576.452 1851.121 L 583.491 1849.495 L 587.008 1848.683 L 594.035 1847.06 L 601.053 1845.438 L 604.559 1844.629 L 611.565 1843.01 L 615.064 1842.202 L 622.057 1840.587 L 625.551 1839.78 L 632.531 1838.167 L 636.018 1837.362 L 642.985 1835.752 L 649.944 1834.145 L 653.421 1833.342 L 660.367 1831.737 L 663.837 1830.935 L 670.771 1829.333 L 674.235 1828.533 L 681.156 1826.934 L 688.068 1825.337 L 691.522 1824.539 L 698.422 1822.945 L 701.868 1822.149 L 708.756 1820.557 L 715.635 1818.968 L 719.071 1818.174 L 725.937 1816.587 L 729.367 1815.795 L 736.221 1814.211 L 743.066 1812.629 L 746.486 1811.839 L 753.318 1810.26 L 756.731 1809.471 L 763.552 1807.895 L 770.363 1806.32 L 773.766 1805.534 L 780.565 1803.963 L 783.961 1803.178 L 790.748 1801.609 L 797.526 1800.042 L 800.912 1799.26 L 807.677 1797.696 L 811.057 1796.915 L 817.81 1795.353 L 824.555 1793.794 L 827.924 1793.015 L 834.656 1791.459 L 841.38 1789.905 L 844.739 1789.128 L 851.45 1787.576 L 854.802 1786.801 L 861.501 1785.252 L 868.191 1783.705 L 871.533 1782.932 L 878.211 1781.388 L 884.881 1779.846 L 888.212 1779.075 L 894.87 1777.536 L 898.195 1776.767 L 904.839 1775.23 L 911.476 1773.695 L 914.791 1772.928 L 921.415 1771.396 L 928.03 1769.866 L 931.335 1769.101 L 937.938 1767.573 L 944.532 1766.048 L 947.827 1765.286 L 954.409 1763.763 L 960.983 1762.241 L 964.267 1761.482 L 970.828 1759.963 L 977.382 1758.447 L 980.655 1757.689 L 987.196 1756.175 L 993.729 1754.663 L 996.992 1753.908 L 1003.512 1752.399 L 1010.024 1750.891 L 1013.277 1750.138 L 1019.776 1748.633 L 1026.268 1747.131 L 1029.51 1746.38 L 1035.989 1744.88 L 1042.46 1743.381 L 1045.692 1742.633 L 1052.151 1741.137 L 1058.601 1739.643 L 1065.043 1738.151 L 1068.26 1737.406 L 1074.69 1735.916 L 1081.111 1734.429 L 1084.319 1733.686 L 1090.728 1732.201 L 1097.129 1730.717 L 1100.326 1729.977 L 1106.714 1728.496 L 1113.095 1727.017 L 1119.467 1725.541 L 1122.65 1724.803 L 1129.01 1723.328 L 1135.361 1721.856 L 1141.705 1720.385 L 1144.873 1719.651 L 1151.204 1718.183 L 1157.527 1716.716 L 1160.686 1715.984 L 1166.996 1714.52 L 1173.299 1713.058 L 1179.593 1711.598 L 1182.737 1710.868 L 1189.02 1709.411 L 1195.294 1707.955 L 1201.559 1706.501 L 1204.689 1705.775 L 1210.943 1704.323 L 1217.188 1702.873 L 1223.426 1701.425 L 1226.541 1700.702 L 1232.766 1699.257 L 1238.984 1697.813 L 1245.192 1696.371 L 1248.294 1695.651 L 1254.491 1694.211 L 1260.679 1692.773 L 1266.86 1691.337 L 1269.947 1690.62 L 1276.115 1689.187 L 1282.275 1687.755 L 1288.428 1686.325 L 1294.572 1684.896 L 1297.641 1684.183 L 1303.772 1682.757 L 1309.896 1681.333 L 1316.012 1679.91 L 1319.067 1679.2 L 1325.17 1677.78 L 1331.266 1676.362 L 1337.354 1674.945 L 1343.433 1673.53 L 1346.47 1672.823 L 1352.537 1671.411 L 1358.596 1670 L 1364.647 1668.591 L 1370.691 1667.183 L 1373.709 1666.48 L 1379.74 1665.075 L 1385.763 1663.671 L 1391.779 1662.27 L 1397.786 1660.87 L 1403.785 1659.471 L 1406.781 1658.772 L 1412.768 1657.376 L 1418.747 1655.982 L 1424.718 1654.589 L 1430.681 1653.198 L 1433.659 1652.503 L 1439.61 1651.114 L 1445.553 1649.727 L 1451.488 1648.341 L 1457.415 1646.957 L 1463.334 1645.574 L 1469.245 1644.193 L 1472.197 1643.504 L 1478.096 1642.125 L 1483.987 1640.748 L 1489.87 1639.373 L 1495.745 1637.999 L 1501.613 1636.627 L 1507.472 1635.256 L 1510.398 1634.571 L 1516.246 1633.203 L 1522.085 1631.836 L 1527.916 1630.471 L 1533.739 1629.107 L 1539.555 1627.745 L 1545.362 1626.384 L 1551.162 1625.025 L 1554.059 1624.346 L 1559.847 1622.989 L 1565.626 1621.633 L 1571.398 1620.279 L 1577.162 1618.927 L 1582.918 1617.576 L 1588.666 1616.227 L 1594.406 1614.879 L 1600.139 1613.532 L 1603.002 1612.859 L 1608.722 1611.515 L 1614.435 1610.172 L 1620.14 1608.831 L 1625.837 1607.491 L 1631.525 1606.153 L 1637.207 1604.816 L 1642.88 1603.48 L 1648.545 1602.146 L 1654.203 1600.813 L 1659.852 1599.482 L 1665.494 1598.152 L 1671.128 1596.824 L 1676.754 1595.497 L 1679.564 1594.834 L 1685.178 1593.509 L 1690.785 1592.186 L 1696.383 1590.863 L 1701.974 1589.543 L 1707.557 1588.223 L 1713.132 1586.905 L 1718.7 1585.589 L 1724.259 1584.273 L 1729.811 1582.96 L 1735.355 1581.647 L 1740.891 1580.336 L 1746.419 1579.026 L 1751.94 1577.717 L 1757.453 1576.41 L 1762.958 1575.104 L 1768.455 1573.8 L 1773.944 1572.496 L 1779.426 1571.194 L 1784.9 1569.894 L 1790.366 1568.594 L 1795.824 1567.296 L 1801.275 1565.999 L 1806.718 1564.703 L 1812.153 1563.409 L 1817.58 1562.116 L 1822.999 1560.824 L 1828.411 1559.534 L 1833.815 1558.244 L 1839.212 1556.956 L 1844.6 1555.669 L 1849.981 1554.383 L 1855.355 1553.099 L 1860.72 1551.816 L 1866.078 1550.533 L 1871.428 1549.253 L 1876.77 1547.973 L 1882.105 1546.694 L 1887.432 1545.417 L 1892.751 1544.14 L 1898.063 1542.865 L 1906.016 1540.955 L 1911.308 1539.682 L 1916.593 1538.411 L 1921.87 1537.141 L 1927.14 1535.872 L 1932.401 1534.604 L 1937.655 1533.338 L 1942.902 1532.072 L 1948.141 1530.807 L 1953.372 1529.544 L 1958.595 1528.281 L 1963.811 1527.02 L 1969.019 1525.759 L 1976.818 1523.871 L 1982.007 1522.613 L 1987.188 1521.356 L 1992.362 1520.1 L 1997.529 1518.845 L 2002.687 1517.592 L 2007.838 1516.339 L 2012.982 1515.087 L 2020.683 1513.211 L 2025.808 1511.961 L 2030.925 1510.713 L 2036.034 1509.465 L 2041.136 1508.218 L 2046.23 1506.973 L 2051.317 1505.728 L 2056.396 1504.484 L 2064 1502.619 L 2069.061 1501.377 L 2074.113 1500.136 L 2079.159 1498.896 L 2084.196 1497.657 L 2089.226 1496.419 L 2096.757 1494.562 L 2101.769 1493.326 L 2106.772 1492.09 L 2111.768 1490.856 L 2116.757 1489.622 L 2124.226 1487.772 L 2129.196 1486.54 L 2134.159 1485.308 L 2139.113 1484.078 L 2144.061 1482.848 L 2151.468 1481.004 L 2156.397 1479.776 L 2161.318 1478.549 L 2166.232 1477.322 L 2171.138 1476.096 L 2178.484 1474.258 L 2183.371 1473.033 L 2188.252 1471.809 L 2193.125 1470.586 L 2200.42 1468.752 L 2205.274 1467.53 L 2210.121 1466.309 L 2214.96 1465.088 L 2222.205 1463.258 L 2227.026 1462.039 L 2231.839 1460.82 L 2239.045 1458.993 L 2243.84 1457.775 L 2248.628 1456.558 L 2253.408 1455.342 L 2260.564 1453.518 L 2265.325 1452.302 L 2270.08 1451.087 L 2277.197 1449.265 L 2281.933 1448.051 L 2286.661 1446.838 L 2291.382 1445.624 L 2298.45 1443.805 L 2303.153 1442.593 L 2307.848 1441.381 L 2314.877 1439.563 L 2319.554 1438.352 L 2324.224 1437.141 L 2331.214 1435.325 L 2335.865 1434.115 L 2340.509 1432.904 L 2347.462 1431.09 L 2352.087 1429.88 L 2359.012 1428.066 L 2363.62 1426.857 L 2368.22 1425.648 L 2375.106 1423.835 L 2379.688 1422.626 L 2384.263 1421.417 L 2391.111 1419.605 L 2395.668 1418.396 L 2402.489 1416.584 L 2407.027 1415.376 L 2411.558 1414.168 L 2418.341 1412.355 L 2422.854 1411.147 L 2429.61 1409.335 L 2434.105 1408.126 L 2440.834 1406.314 L 2445.311 1405.105 L 2449.78 1403.897 L 2456.471 1402.084 L 2460.923 1400.875 L 2467.586 1399.061 L 2472.02 1397.852 L 2478.657 1396.037 L 2483.072 1394.827 L 2489.682 1393.012 L 2494.08 1391.802 L 2500.663 1389.985 L 2505.043 1388.774 L 2511.599 1386.957 L 2515.961 1385.745 L 2522.49 1383.926 L 2526.834 1382.713 L 2533.337 1380.893 L 2537.663 1379.679 L 2544.139 1377.857 L 2548.447 1376.642 L 2554.896 1374.818 L 2559.186 1373.602 L 2565.609 1371.777 L 2572.015 1369.95 L 2576.278 1368.732 L 2582.657 1366.903 L 2586.902 1365.683 L 2593.255 1363.852 L 2597.482 1362.63 L 2603.809 1360.796 L 2610.119 1358.961 L 2614.318 1357.737 L 2620.602 1355.899 L 2624.783 1354.672 L 2631.041 1352.832 L 2637.283 1350.989 L 2641.436 1349.759 L 2647.652 1347.913 L 2653.852 1346.065 L 2657.976 1344.832 L 2664.15 1342.981 L 2670.308 1341.127 L 2674.404 1339.89 L 2680.536 1338.033 L 2686.652 1336.173 L 2690.72 1334.932 L 2696.81 1333.069 L 2702.884 1331.203 L 2706.925 1329.957 L 2712.973 1328.087 L 2719.005 1326.214 L 2725.022 1324.338 L 2729.024 1323.086 L 2735.015 1321.206 L 2740.99 1319.322 L 2746.95 1317.436 L 2750.914 1316.177 L 2756.847 1314.286 L 2762.765 1312.391 L 2768.668 1310.494 L 2772.594 1309.227 L 2778.471 1307.324 L 2784.332 1305.417 L 2790.177 1303.507 L 2796.007 1301.594 L 2799.885 1300.317 L 2805.69 1298.397 L 2811.478 1296.474 L 2817.252 1294.548 L 2823.01 1292.617 L 2828.752 1290.683 L 2832.572 1289.391 L 2838.289 1287.45 L 2843.991 1285.505 L 2849.677 1283.556 L 2855.348 1281.603 L 2861.004 1279.646 L 2866.644 1277.684 L 2872.269 1275.718 L 2877.878 1273.747 L 2883.473 1271.773 L 2889.052 1269.793 L 2892.763 1268.471 L 2898.317 1266.484 L 2903.855 1264.492 L 2909.379 1262.495 L 2914.887 1260.493 L 2920.38 1258.487 L 2925.857 1256.475 L 2931.32 1254.458 L 2936.767 1252.437 L 2942.2 1250.41 L 2947.617 1248.378 L 2953.019 1246.34 L 2960.198 1243.615 L 2965.565 1241.565 L 2970.917 1239.509 L 2976.253 1237.448 L 2981.575 1235.381 L 2986.882 1233.308 L 2992.173 1231.23 L 2997.45 1229.146 L 3002.712 1227.055 L 3007.958 1224.959 L 3014.931 1222.155 L 3020.143 1220.045 L 3025.339 1217.928 L 3030.521 1215.805 L 3035.688 1213.676 L 3040.841 1211.541 L 3047.687 1208.683 L 3052.804 1206.533 L 3057.907 1204.376 L 3062.995 1202.212 L 3068.068 1200.041 L 3074.809 1197.137 L 3079.847 1194.95 L 3084.871 1192.757 L 3091.546 1189.822 L 3096.535 1187.612 L 3101.51 1185.395 L 3106.469 1183.171 L 3113.06 1180.195 L 3117.985 1177.954 L 3122.896 1175.705 L 3129.421 1172.696 L 3134.297 1170.43 L 3140.777 1167.397 L 3145.619 1165.114 L 3150.447 1162.823 L 3156.861 1159.756 L 3161.655 1157.446 L 3168.024 1154.355 L 3172.784 1152.027 L 3179.108 1148.91 L 3183.834 1146.563 L 3190.112 1143.422 L 3194.805 1141.056 L 3201.038 1137.888 L 3205.697 1135.503 L 3211.885 1132.309 L 3216.51 1129.904 L 3222.654 1126.684 L 3227.245 1124.259 L 3233.344 1121.012 L 3239.418 1117.749 L 3243.956 1115.292 L 3249.985 1112.002 L 3255.989 1108.696 L 3260.475 1106.206 L 3266.434 1102.872 L 3272.368 1099.521 L 3276.802 1096.998 L 3282.691 1093.619 L 3288.556 1090.223 L 3294.395 1086.81 L 3298.757 1084.24 L 3304.552 1080.798 L 3310.322 1077.339 L 3316.067 1073.862 L 3321.786 1070.369 L 3327.481 1066.858 L 3331.735 1064.213 L 3337.386 1060.671 L 3343.012 1057.112 L 3348.613 1053.534 L 3354.189 1049.939 L 3359.74 1046.325 L 3365.266 1042.694 L 3370.767 1039.044 L 3376.244 1035.375 L 3381.696 1031.688 L 3387.123 1027.983 L 3392.526 1024.258 L 3397.904 1020.515 L 3403.257 1016.753 L 3409.914 1012.023 L 3415.212 1008.218 L 3420.486 1004.393 L 3425.735 1000.549 L 3430.96 996.685 L 3436.16 992.801 L 3442.626 987.919 L 3447.772 983.991 L 3452.893 980.043 L 3459.26 975.079 L 3464.327 971.086 L 3469.369 967.072 L 3475.638 962.026 L 3480.627 957.966 L 3486.828 952.861 L 3491.762 948.754 L 3497.896 943.591 L 3502.776 939.437 L 3508.843 934.215 L 3513.669 930.013 L 3519.668 924.731 L 3524.441 920.481 L 3530.373 915.138 L 3536.269 909.761 L 3542.127 904.35 L 3546.787 899.997 L 3552.579 894.524 L 3558.334 889.016 L 3564.053 883.474 L 3571.102 877.851 L 3574.281 873.385 L 3580.645 867.722 L 3585.499 862.053 L 3591.05 856.34 L 3597.241 850.572 L 3602.045 844.794 L 3607.722 838.966 L 3613.965 831.934 L 3619.324 826.032 L 3625.228 820.077 L 3629.569 814.115 L 3636.23 806.893 L 3641.963 800.821 L 3646.276 794.736 L 3652.764 787.37 L 3658.033 781.187 L 3663.919 773.723 L 3668.639 767.466 L 3674.897 759.899 L 3679.985 753.548 L 3685.446 745.884 L 3691.277 738.164 L 3697.3 730.382 L 3701.838 723.858 L 3707.878 715.97 L 3713.167 708.03 L 3718.754 700.033 L 3724.291 691.977 L 3729.613 683.866 L 3736.4 674.322 L 3741.498 666.079 L 3746.828 657.779 L 3751.972 649.421 L 3758.207 639.593 L 3763.256 631.105 L 3769.236 621.126 L 3775.264 611.063 L 3780.168 602.372 L 3786.147 592.153 L 3791.687 581.85 L 3797.347 571.465 L 3802.942 560.995 L 3808.471 550.44 L 3813.868 539.8 L 3820.101 527.534 L 3825.368 516.708 L 3831.435 504.23 L 3836.572 493.217 L 3842.428 480.523 L 3848.2 467.714 L 3853.889 454.789 L 3859.496 441.747 L 3864.99 428.587 L 3871.138 413.642 L 3876.464 400.23 L 3882.304 384.999 L 3888.211 369.619 L 3893.932 354.084 L 3899.535 338.394 L 3905.662 320.78 L 3911.677 302.974 L 3916.952 286.782 L 3923.299 266.779 L 3928.925 248.388 L 3934.953 227.931 L 3940.89 207.235 L 3946.653 186.297 L 3952.267 165.114 L 3958.229 141.728 L 3964.497 116.061 L 3970.559 90.048 L 3976.428 63.686 L 3976.145 3.268 Z" vector-effect="non-scaling-stroke"/></g></svg>