<svg width="198.632" height="67.898" viewBox="0 0 198.632 67.898" xmlns="http://www.w3.org/2000/svg"><g id="svgGroup" stroke-linecap="round" fill-rule="evenodd" font-size="9pt" stroke="#000" stroke-width="0.25mm" fill="none" style="stroke:#000;stroke-width:0.25mm;fill:none"><path d="M 188.701 0 L 187.689 0.278 L 186.674 0.557 L 185.659 0.834 L 184.645 1.111 L 183.63 1.386 L 182.615 1.661 L 181.6 1.936 L 180.585 2.209 L 179.569 2.482 L 178.554 2.754 L 177.538 3.025 L 176.523 3.295 L 175.507 3.565 L 174.491 3.834 L 173.475 4.102 L 172.459 4.369 L 171.442 4.635 L 170.426 4.901 L 169.409 5.166 L 168.393 5.429 L 167.376 5.693 L 166.359 5.955 L 165.342 6.216 L 164.325 6.477 L 163.307 6.736 L 162.29 6.995 L 161.272 7.253 L 160.254 7.51 L 159.236 7.766 L 158.218 8.022 L 157.199 8.276 L 156.181 8.529 L 155.162 8.782 L 154.144 9.034 L 153.125 9.285 L 152.105 9.534 L 151.086 9.783 L 150.067 10.031 L 149.047 10.278 L 148.027 10.525 L 147.007 10.77 L 145.987 11.014 L 144.967 11.257 L 143.946 11.499 L 142.926 11.741 L 141.905 11.981 L 140.884 12.22 L 139.863 12.458 L 138.841 12.695 L 137.82 12.932 L 136.798 13.167 L 135.776 13.401 L 134.753 13.634 L 133.731 13.866 L 132.708 14.097 L 131.686 14.326 L 130.663 14.555 L 129.639 14.783 L 128.616 15.009 L 127.592 15.234 L 126.568 15.459 L 125.544 15.682 L 124.52 15.904 L 123.495 16.124 L 122.47 16.344 L 121.445 16.562 L 120.42 16.779 L 119.395 16.995 L 118.369 17.21 L 117.343 17.423 L 116.317 17.635 L 115.29 17.846 L 114.263 18.056 L 113.236 18.264 L 112.209 18.471 L 111.181 18.677 L 110.154 18.881 L 109.125 19.084 L 108.097 19.285 L 107.068 19.485 L 106.04 19.684 L 105.01 19.881 L 103.981 20.077 L 102.951 20.271 L 101.921 20.464 L 100.89 20.656 L 99.86 20.845 L 98.829 21.034 L 97.797 21.22 L 96.766 21.406 L 95.733 21.589 L 94.701 21.771 L 93.668 21.951 L 92.635 22.13 L 91.602 22.307 L 90.568 22.482 L 89.534 22.655 L 88.5 22.827 L 87.465 22.997 L 86.43 23.165 L 85.394 23.331 L 84.358 23.495 L 83.322 23.657 L 82.285 23.818 L 81.248 23.976 L 80.21 24.132 L 79.172 24.287 L 78.134 24.439 L 77.095 24.589 L 76.055 24.737 L 75.015 24.883 L 73.975 25.027 L 72.934 25.168 L 71.893 25.307 L 70.852 25.444 L 69.809 25.579 L 68.767 25.711 L 67.723 25.84 L 66.68 25.967 L 65.635 26.092 L 64.59 26.213 L 63.545 26.333 L 62.499 26.449 L 61.453 26.563 L 60.405 26.674 L 59.358 26.782 L 58.309 26.887 L 57.26 26.989 L 56.211 27.088 L 55.16 27.183 L 54.109 27.276 L 53.058 27.365 L 52.005 27.451 L 50.952 27.534 L 49.898 27.613 L 48.843 27.688 L 47.788 27.76 L 46.732 27.827 L 45.675 27.891 L 44.617 27.951 L 43.558 28.007 L 42.498 28.059 L 41.438 28.106 L 40.376 28.149 L 39.314 28.188 L 38.25 28.221 L 37.186 28.25 L 36.12 28.274 L 35.054 28.293 L 33.986 28.306 L 32.917 28.314 L 31.847 28.316 L 30.776 28.313 L 29.703 28.304 L 28.629 28.288 L 27.554 28.266 L 26.477 28.237 L 25.399 28.201 L 24.319 28.158 L 23.238 28.108 L 22.155 28.05 L 21.07 27.984 L 19.984 27.91 L 18.895 27.826 L 17.805 27.734 L 16.713 27.632 L 15.619 27.521 L 14.522 27.398 L 13.423 27.265 L 12.322 27.121 L 11.218 26.964 L 10.111 26.794 L 9.002 26.612 L 7.889 26.414 L 6.774 26.202 L 5.655 25.974 L 4.532 25.729 L 3.406 25.466 L 2.275 25.183 L 1.14 24.879 L 0 24.553 L 9.28 67.898 L 10.318 67.745 L 11.356 67.593 L 12.394 67.44 L 13.431 67.287 L 14.469 67.134 L 15.507 66.981 L 16.544 66.828 L 17.582 66.674 L 18.62 66.521 L 19.657 66.367 L 20.695 66.213 L 21.732 66.059 L 22.77 65.905 L 23.807 65.75 L 24.844 65.596 L 25.882 65.441 L 26.919 65.286 L 27.956 65.131 L 28.994 64.976 L 30.031 64.821 L 31.068 64.665 L 32.105 64.51 L 33.142 64.354 L 34.179 64.198 L 35.216 64.042 L 36.254 63.886 L 37.291 63.73 L 38.327 63.573 L 39.364 63.416 L 40.401 63.26 L 41.438 63.103 L 42.475 62.946 L 43.512 62.788 L 44.549 62.631 L 45.585 62.473 L 46.622 62.315 L 47.659 62.158 L 48.695 61.999 L 49.732 61.841 L 50.769 61.683 L 51.805 61.524 L 52.842 61.366 L 53.878 61.207 L 54.914 61.048 L 55.951 60.888 L 56.987 60.729 L 58.024 60.57 L 59.06 60.41 L 60.096 60.25 L 61.132 60.09 L 62.169 59.93 L 63.205 59.769 L 64.241 59.609 L 65.277 59.448 L 66.313 59.287 L 67.349 59.126 L 68.385 58.965 L 69.421 58.804 L 70.457 58.642 L 71.493 58.481 L 72.529 58.319 L 73.564 58.157 L 74.6 57.994 L 75.636 57.832 L 76.672 57.67 L 77.707 57.507 L 78.743 57.344 L 79.778 57.181 L 80.814 57.018 L 81.849 56.854 L 82.885 56.691 L 83.92 56.527 L 84.956 56.363 L 85.991 56.199 L 87.026 56.035 L 88.062 55.87 L 89.097 55.705 L 90.132 55.541 L 91.167 55.376 L 92.203 55.211 L 93.238 55.045 L 94.273 54.88 L 95.308 54.714 L 96.343 54.548 L 97.378 54.382 L 98.413 54.216 L 99.448 54.049 L 100.482 53.883 L 101.517 53.716 L 102.552 53.549 L 103.587 53.382 L 104.621 53.214 L 105.656 53.047 L 106.691 52.879 L 107.725 52.711 L 108.76 52.543 L 109.794 52.375 L 110.829 52.206 L 111.863 52.037 L 112.898 51.868 L 113.932 51.699 L 114.966 51.53 L 116 51.361 L 117.035 51.191 L 118.069 51.021 L 119.103 50.851 L 120.137 50.681 L 121.171 50.51 L 122.205 50.34 L 123.239 50.169 L 124.273 49.998 L 125.307 49.827 L 126.341 49.655 L 127.375 49.484 L 128.408 49.312 L 129.442 49.14 L 130.476 48.968 L 131.509 48.795 L 132.543 48.623 L 133.577 48.45 L 134.61 48.277 L 135.644 48.104 L 136.677 47.93 L 137.71 47.756 L 138.744 47.583 L 139.777 47.409 L 140.81 47.234 L 141.843 47.06 L 142.877 46.885 L 143.91 46.71 L 144.943 46.535 L 145.976 46.36 L 147.009 46.184 L 148.042 46.008 L 149.075 45.833 L 150.108 45.656 L 151.141 45.48 L 152.173 45.303 L 153.206 45.126 L 154.239 44.949 L 155.271 44.772 L 156.304 44.595 L 157.337 44.417 L 158.369 44.239 L 159.402 44.061 L 160.434 43.883 L 161.466 43.704 L 162.499 43.525 L 163.531 43.346 L 164.563 43.167 L 165.595 42.987 L 166.628 42.808 L 167.66 42.628 L 168.692 42.447 L 169.724 42.267 L 170.756 42.086 L 171.788 41.906 L 172.82 41.724 L 173.851 41.543 L 174.883 41.362 L 175.915 41.18 L 176.947 40.998 L 177.978 40.815 L 179.01 40.633 L 180.041 40.45 L 181.073 40.267 L 182.104 40.084 L 183.136 39.901 L 184.167 39.717 L 185.198 39.533 L 186.23 39.349 L 187.261 39.164 L 188.292 38.98 L 189.323 38.795 L 190.354 38.609 L 191.385 38.424 L 192.416 38.238 L 193.447 38.052 L 194.478 37.866 L 195.509 37.68 L 196.539 37.493 L 196.532 37.457 L 196.524 37.421 L 196.516 37.385 L 196.508 37.349 L 196.5 37.313 L 196.492 37.276 L 196.484 37.24 L 196.477 37.204 L 196.469 37.168 L 196.461 37.132 L 196.453 37.096 L 196.445 37.06 L 196.437 37.024 L 196.43 36.988 L 196.422 36.952 L 196.414 36.916 L 196.406 36.879 L 196.398 36.843 L 196.39 36.807 L 196.383 36.771 L 196.375 36.735 L 196.367 36.699 L 196.359 36.663 L 196.351 36.627 L 196.343 36.591 L 196.335 36.555 L 196.328 36.518 L 196.32 36.482 L 196.312 36.446 L 196.304 36.41 L 196.296 36.374 L 196.288 36.338 L 196.281 36.302 L 196.273 36.266 L 196.265 36.23 L 196.257 36.194 L 196.249 36.158 L 196.241 36.121 L 196.234 36.085 L 196.226 36.049 L 196.218 36.013 L 196.21 35.977 L 196.202 35.941 L 196.194 35.905 L 196.187 35.869 L 196.179 35.833 L 196.171 35.797 L 196.163 35.761 L 196.155 35.725 L 196.148 35.688 L 196.14 35.652 L 196.132 35.616 L 196.124 35.58 L 196.116 35.544 L 196.108 35.508 L 196.101 35.472 L 196.093 35.436 L 196.085 35.4 L 196.077 35.364 L 196.069 35.328 L 196.062 35.291 L 196.054 35.255 L 196.046 35.219 L 196.038 35.183 L 196.03 35.147 L 196.022 35.111 L 196.015 35.075 L 196.007 35.039 L 195.999 35.003 L 195.991 34.967 L 195.983 34.931 L 195.976 34.894 L 195.968 34.858 L 195.96 34.822 L 195.952 34.786 L 195.944 34.75 L 195.937 34.714 L 195.929 34.678 L 195.921 34.642 L 195.913 34.606 L 195.905 34.57 L 195.897 34.534 L 195.89 34.497 L 195.882 34.461 L 195.874 34.425 L 195.866 34.389 L 195.858 34.353 L 195.851 34.317 L 195.843 34.281 L 195.835 34.245 L 195.827 34.209 L 195.819 34.173 L 195.812 34.137 L 195.804 34.1 L 195.796 34.064 L 195.788 34.028 L 195.78 33.992 L 195.773 33.956 L 195.765 33.92 L 195.757 33.884 L 195.749 33.848 L 195.741 33.812 L 195.734 33.776 L 195.726 33.739 L 195.718 33.703 L 195.71 33.667 L 195.702 33.631 L 195.695 33.595 L 195.687 33.559 L 195.679 33.523 L 195.671 33.487 L 195.663 33.451 L 195.656 33.415 L 195.648 33.378 L 195.64 33.342 L 195.632 33.306 L 195.624 33.27 L 195.617 33.234 L 195.609 33.198 L 195.601 33.162 L 195.593 33.126 L 195.586 33.09 L 195.578 33.053 L 195.57 33.017 L 195.562 32.981 L 195.554 32.945 L 195.547 32.909 L 195.539 32.873 L 195.531 32.837 L 195.523 32.801 L 195.515 32.764 L 195.508 32.728 L 195.5 32.692 L 195.492 32.656 L 195.484 32.62 L 195.477 32.584 L 195.469 32.548 L 195.461 32.512 L 195.453 32.476 L 195.445 32.439 L 195.438 32.403 L 195.43 32.367 L 195.422 32.331 L 195.414 32.295 L 195.406 32.259 L 195.399 32.223 L 195.391 32.186 L 195.383 32.15 L 195.375 32.114 L 195.368 32.078 L 195.36 32.042 L 195.352 32.006 L 195.344 31.97 L 195.336 31.934 L 195.329 31.897 L 195.321 31.861 L 195.313 31.825 L 195.305 31.789 L 195.298 31.753 L 195.29 31.717 L 195.282 31.68 L 195.274 31.644 L 195.266 31.608 L 195.259 31.572 L 195.251 31.536 L 195.243 31.5 L 195.235 31.464 L 195.228 31.427 L 195.22 31.391 L 195.212 31.355 L 195.204 31.319 L 195.197 31.283 L 195.189 31.247 L 195.181 31.21 L 195.173 31.174 L 195.165 31.138 L 195.158 31.102 L 195.15 31.066 L 195.142 31.03 L 195.134 30.993 L 195.127 30.957 L 195.119 30.921 L 195.111 30.885 L 195.103 30.849 L 195.096 30.813 L 195.088 30.776 L 195.08 30.74 L 195.072 30.704 L 195.064 30.668 L 195.057 30.632 L 195.049 30.595 L 195.041 30.559 L 195.033 30.523 L 195.026 30.487 L 195.018 30.451 L 195.01 30.415 L 195.002 30.378 L 194.995 30.342 L 194.987 30.306 L 194.979 30.27 L 194.971 30.234 L 194.964 30.197 L 194.956 30.161 L 194.948 30.125 L 194.94 30.089 L 194.932 30.052 L 194.925 30.016 L 194.917 29.98 L 194.909 29.944 L 194.901 29.908 L 194.894 29.871 L 194.886 29.835 L 194.885 29.829 L 198.632 29.698 L 196.79 21.029 L 193.313 22.434 L 189.831 23.827 L 188.034 15.234 L 191.783 15.115 L 195.531 15.009 L 193.755 6.37 L 190.268 7.752 L 190.26 7.709 L 190.252 7.67 L 190.244 7.632 L 190.236 7.593 L 190.228 7.554 L 190.22 7.515 L 190.212 7.476 L 190.204 7.436 L 190.196 7.397 L 190.188 7.358 L 190.18 7.319 L 190.172 7.28 L 190.164 7.241 L 190.156 7.202 L 190.149 7.163 L 190.141 7.124 L 190.133 7.085 L 190.125 7.046 L 190.117 7.007 L 190.109 6.968 L 190.101 6.929 L 190.093 6.889 L 190.085 6.85 L 190.077 6.811 L 190.069 6.772 L 190.061 6.733 L 190.053 6.694 L 190.045 6.655 L 190.037 6.615 L 190.029 6.576 L 190.021 6.537 L 190.013 6.498 L 190.005 6.459 L 189.997 6.419 L 189.989 6.38 L 189.981 6.341 L 189.973 6.302 L 189.965 6.262 L 189.957 6.223 L 189.949 6.184 L 189.941 6.145 L 189.933 6.105 L 189.925 6.066 L 189.917 6.027 L 189.909 5.987 L 189.901 5.948 L 189.893 5.909 L 189.885 5.87 L 189.877 5.83 L 189.869 5.791 L 189.861 5.752 L 189.853 5.712 L 189.845 5.673 L 189.838 5.633 L 189.83 5.594 L 189.822 5.555 L 189.814 5.515 L 189.806 5.476 L 189.798 5.436 L 189.79 5.397 L 189.782 5.358 L 189.774 5.318 L 189.766 5.279 L 189.758 5.239 L 189.75 5.2 L 189.742 5.16 L 189.734 5.121 L 189.726 5.081 L 189.718 5.042 L 189.71 5.002 L 189.701 4.963 L 189.693 4.923 L 189.685 4.884 L 189.677 4.844 L 189.669 4.805 L 189.661 4.765 L 189.653 4.726 L 189.645 4.686 L 189.637 4.647 L 189.629 4.607 L 189.621 4.567 L 189.613 4.528 L 189.605 4.488 L 189.597 4.449 L 189.589 4.409 L 189.581 4.369 L 189.573 4.33 L 189.565 4.29 L 189.557 4.25 L 189.549 4.211 L 189.541 4.171 L 189.533 4.131 L 189.525 4.092 L 189.517 4.052 L 189.509 4.012 L 189.501 3.973 L 189.493 3.933 L 189.485 3.893 L 189.477 3.854 L 189.469 3.814 L 189.461 3.774 L 189.453 3.734 L 189.445 3.695 L 189.437 3.655 L 189.429 3.615 L 189.421 3.575 L 189.413 3.535 L 189.405 3.496 L 189.396 3.456 L 189.388 3.416 L 189.38 3.376 L 189.372 3.336 L 189.364 3.296 L 189.356 3.257 L 189.348 3.217 L 189.34 3.177 L 189.332 3.137 L 189.324 3.097 L 189.316 3.057 L 189.308 3.017 L 189.3 2.977 L 189.292 2.937 L 189.284 2.898 L 189.276 2.858 L 189.268 2.818 L 189.26 2.778 L 189.252 2.738 L 189.243 2.698 L 189.235 2.658 L 189.227 2.618 L 189.219 2.578 L 189.211 2.538 L 189.203 2.498 L 189.195 2.458 L 189.187 2.418 L 189.179 2.378 L 189.171 2.338 L 189.163 2.298 L 189.155 2.257 L 189.147 2.217 L 189.139 2.177 L 189.13 2.137 L 189.122 2.097 L 189.114 2.057 L 189.106 2.017 L 189.098 1.977 L 189.09 1.937 L 189.082 1.897 L 189.074 1.856 L 189.066 1.816 L 189.058 1.776 L 189.05 1.736 L 189.042 1.696 L 189.033 1.655 L 189.025 1.615 L 189.017 1.575 L 189.009 1.535 L 189.001 1.495 L 188.993 1.454 L 188.985 1.414 L 188.977 1.374 L 188.969 1.334 L 188.961 1.293 L 188.952 1.253 L 188.944 1.213 L 188.936 1.172 L 188.928 1.132 L 188.92 1.092 L 188.912 1.052 L 188.904 1.011 L 188.896 0.971 L 188.888 0.93 L 188.88 0.89 L 188.871 0.85 L 188.863 0.809 L 188.855 0.769 L 188.847 0.729 L 188.839 0.688 L 188.831 0.648 L 188.823 0.607 L 188.815 0.567 L 188.806 0.527 L 188.798 0.486 L 188.79 0.446 L 188.782 0.405 L 188.774 0.365 L 188.766 0.324 L 188.758 0.284 L 188.75 0.243 L 188.741 0.203 L 188.733 0.162 L 188.725 0.122 L 188.717 0.081 L 188.709 0.041 L 188.701 0 Z" vector-effect="non-scaling-stroke"/><path d="M 0 24.553 L 0.01 24.602 L 0.02 24.65 L 0.031 24.699 L 0.041 24.747 L 0.051 24.795 L 0.061 24.844 L 0.072 24.892 L 0.082 24.94 L 0.092 24.989 L 0.102 25.037 L 0.113 25.085 L 0.123 25.133 L 0.133 25.182 L 0.143 25.23 L 0.153 25.278 L 0.164 25.326 L 0.174 25.374 L 0.184 25.423 L 0.194 25.471 L 0.204 25.519 L 0.215 25.567 L 0.225 25.615 L 0.235 25.663 L 0.245 25.711 L 0.255 25.759 L 0.266 25.807 L 0.276 25.856 L 0.286 25.904 L 0.296 25.952 L 0.306 26 L 0.316 26.048 L 0.327 26.096 L 0.337 26.144 L 0.347 26.192 L 0.357 26.239 L 0.367 26.287 L 0.377 26.335 L 0.387 26.383 L 0.398 26.431 L 0.408 26.479 L 0.418 26.527 L 0.428 26.575 L 0.438 26.623 L 0.448 26.67 L 0.458 26.718 L 0.469 26.766 L 0.479 26.814 L 0.489 26.861 L 0.499 26.909 L 0.509 26.957 L 0.519 27.005 L 0.529 27.052 L 0.539 27.1 L 0.549 27.148 L 0.56 27.195 L 0.57 27.243 L 0.58 27.291 L 0.59 27.338 L 0.6 27.386 L 0.61 27.434 L 0.62 27.481 L 0.63 27.529 L 0.64 27.576 L 0.65 27.624 L 0.66 27.672 L 0.671 27.719 L 0.681 27.767 L 0.691 27.814 L 0.701 27.862 L 0.711 27.909 L 0.721 27.956 L 0.731 28.004 L 0.741 28.051 L 0.751 28.099 L 0.761 28.146 L 0.771 28.194 L 0.781 28.241 L 0.791 28.288 L 0.801 28.336 L 0.811 28.383 L 0.821 28.43 L 0.831 28.478 L 0.841 28.525 L 0.851 28.572 L 0.861 28.62 L 0.871 28.667 L 0.881 28.714 L 0.892 28.761 L 0.902 28.809 L 0.912 28.856 L 0.922 28.903 L 0.932 28.95 L 0.942 28.997 L 0.952 29.045 L 0.962 29.092 L 0.972 29.139 L 0.982 29.186 L 0.992 29.233 L 1.002 29.28 L 1.012 29.327 L 1.022 29.374 L 1.032 29.421 L 1.041 29.468 L 1.051 29.515 L 1.061 29.562 L 1.071 29.61 L 1.081 29.657 L 1.091 29.703 L 1.101 29.75 L 1.111 29.797 L 1.121 29.844 L 1.131 29.891 L 1.141 29.938 L 1.151 29.985 L 1.161 30.032 L 1.171 30.079 L 1.181 30.126 L 1.191 30.173 L 1.201 30.219 L 1.211 30.266 L 1.221 30.313 L 1.231 30.36 L 1.241 30.407 L 1.251 30.453 L 1.26 30.5 L 1.27 30.547 L 1.28 30.594 L 1.29 30.64 L 1.3 30.687 L 1.31 30.734 L 1.32 30.781 L 1.33 30.827 L 1.34 30.874 L 1.35 30.921 L 1.36 30.967 L 1.369 31.014 L 1.379 31.06 L 1.389 31.107 L 1.399 31.154 L 1.409 31.2 L 1.419 31.247 L 1.429 31.293 L 1.439 31.34 L 1.449 31.386 L 1.458 31.433 L 1.468 31.479 L 1.478 31.526 L 1.488 31.572 L 1.498 31.619 L 1.508 31.665 L 1.518 31.712 L 1.528 31.758 L 1.537 31.805 L 1.547 31.851 L 1.557 31.897 L 1.567 31.944 L 1.577 31.99 L 1.587 32.037 L 1.597 32.083 L 1.606 32.129 L 1.616 32.176 L 1.626 32.222 L 1.636 32.268 L 1.646 32.314 L 1.656 32.361 L 1.665 32.407 L 1.675 32.453 L 1.685 32.499 L 1.695 32.546 L 1.705 32.592 L 1.714 32.638 L 1.724 32.684 L 1.734 32.73 L 1.744 32.777 L 1.754 32.823 L 1.764 32.869 L 1.773 32.915 L 1.783 32.961 L 1.793 33.007 L 1.803 33.053 L 1.813 33.099 L 1.822 33.146 L 1.832 33.192 L 1.842 33.238 L 1.852 33.284 L 1.861 33.33 L 1.871 33.376 L 1.881 33.422 L 1.891 33.468 L 1.901 33.514 L 1.91 33.56 L 1.92 33.606 L 1.93 33.651 L 1.94 33.697 L 1.949 33.743 L 1.959 33.789 L 1.969 33.835 L 1.979 33.881 L 1.988 33.927 L 1.998 33.973 L 2.008 34.019 L 2.018 34.064 L 2.027 34.11 L 2.037 34.156 L 2.047 34.202 L 2.057 34.248 L 2.066 34.293 L 2.076 34.339 L 2.086 34.385 L 2.096 34.431 L 2.105 34.476 L 2.115 34.522 L 2.125 34.568 L 2.134 34.613 L 2.144 34.659 L 2.154 34.705 L 2.164 34.75 L 2.173 34.796 L 2.183 34.842 L 2.193 34.887 L 2.202 34.933 L 2.212 34.978 L 2.222 35.024 L 2.231 35.07 L 2.241 35.115 L 2.251 35.161 L 2.261 35.206 L 2.27 35.252 L 2.28 35.297 L 2.29 35.343 L 2.299 35.388 L 2.309 35.434 L 2.319 35.479 L 2.328 35.525 L 2.338 35.57 L 2.348 35.616 L 2.357 35.661 L 2.367 35.706 L 2.377 35.752 L 2.386 35.797 L 2.396 35.843 L 2.406 35.888 L 2.415 35.933 L 2.425 35.979 L 2.435 36.024 L 2.444 36.069 L 2.454 36.115 L 2.464 36.16 L 2.473 36.205 L 2.483 36.25 L 2.492 36.296 L 2.502 36.341 L 2.512 36.386 L 2.521 36.431 L 2.531 36.477 L 2.541 36.522 L 2.55 36.567 L 2.56 36.612 L 2.569 36.657 L 2.579 36.703 L 2.589 36.748 L 2.598 36.793 L 2.608 36.838 L 2.618 36.883 L 2.627 36.928 L 2.637 36.973 L 2.646 37.018 L 2.656 37.063 L 2.666 37.109 L 2.675 37.154 L 2.685 37.199 L 2.694 37.244 L 2.704 37.289 L 2.713 37.334 L 2.723 37.379 L 2.733 37.424 L 2.742 37.469 L 2.752 37.514 L 2.761 37.559 L 2.771 37.603 L 2.781 37.648 L 2.79 37.693 L 2.8 37.738 L 2.809 37.783 L 2.819 37.828 L 2.828 37.873 L 2.838 37.918 L 2.847 37.963 L 2.857 38.007 L 2.867 38.052 L 2.876 38.097 L 2.886 38.142 L 2.895 38.187 L 2.905 38.232 L 2.914 38.276 L 2.924 38.321 L 2.933 38.366 L 2.943 38.411 L 2.952 38.455 L 2.962 38.5 L 2.972 38.545 L 2.981 38.589 L 2.991 38.634 L 3 38.679 L 3.01 38.724 L 3.019 38.768 L 3.029 38.813 L 3.038 38.857 L 3.048 38.902 L 3.057 38.947 L 3.067 38.991 L 3.076 39.036 L 3.086 39.081 L 3.095 39.125 L 3.105 39.17 L 3.114 39.214 L 3.124 39.259 L 3.133 39.303 L 3.143 39.348 L 3.152 39.392 L 3.162 39.437 L 3.171 39.481 L 3.181 39.526 L 3.19 39.57 L 3.2 39.615 L 3.209 39.659 L 3.219 39.704 L 3.228 39.748 L 3.238 39.792 L 3.247 39.837 L 3.257 39.881 L 3.266 39.926 L 3.275 39.97 L 3.285 40.014 L 3.294 40.059 L 3.304 40.103 L 3.313 40.147 L 3.323 40.192 L 3.332 40.236 L 3.342 40.28 L 3.351 40.325 L 3.361 40.369 L 3.37 40.413 L 3.38 40.458 L 3.389 40.502 L 3.398 40.546 L 3.408 40.59 L 3.417 40.635 L 3.427 40.679 L 3.436 40.723 L 3.446 40.767 L 3.455 40.811 L 3.464 40.856 L 3.474 40.9 L 3.483 40.944 L 3.493 40.988 L 3.502 41.032 L 3.512 41.076 L 3.521 41.12 L 3.53 41.164 L 3.54 41.209 L 3.549 41.253 L 3.559 41.297 L 3.568 41.341 L 3.577 41.385 L 3.587 41.429 L 3.596 41.473 L 3.606 41.517 L 3.615 41.561 L 3.624 41.605 L 3.634 41.649 L 3.643 41.693 L 3.653 41.737 L 3.662 41.781 L 3.671 41.825 L 3.681 41.869 L 3.69 41.913 L 3.7 41.957 L 3.709 42.001 L 3.718 42.045 L 3.728 42.088 L 3.737 42.132 L 3.746 42.176 L 3.756 42.22 L 3.765 42.264 L 3.775 42.308 L 3.784 42.352 L 3.793 42.395 L 3.803 42.439 L 3.812 42.483 L 3.821 42.527 L 3.831 42.571 L 3.84 42.614 L 3.849 42.658 L 3.859 42.702 L 3.868 42.746 L 3.877 42.79 L 3.887 42.833 L 3.896 42.877 L 3.905 42.921 L 3.915 42.964 L 3.924 43.008 L 3.934 43.052 L 3.943 43.095 L 3.952 43.139 L 3.962 43.183 L 3.971 43.226 L 3.98 43.27 L 3.989 43.314 L 3.999 43.357 L 4.008 43.401 L 4.017 43.445 L 4.027 43.488 L 4.036 43.532 L 4.045 43.575 L 4.055 43.619 L 4.064 43.662 L 4.073 43.706 L 4.083 43.75 L 4.092 43.793 L 4.101 43.837 L 4.111 43.88 L 4.12 43.924 L 4.129 43.967 L 4.138 44.011 L 4.148 44.054 L 4.157 44.098 L 4.166 44.141 L 4.176 44.184 L 4.185 44.228 L 4.194 44.271 L 4.203 44.315 L 4.213 44.358 L 4.222 44.402 L 4.231 44.445 L 4.241 44.488 L 4.25 44.532 L 4.259 44.575 L 4.268 44.618 L 4.278 44.662 L 4.287 44.705 L 4.296 44.748 L 4.306 44.792 L 4.315 44.835 L 4.324 44.878 L 4.333 44.922 L 4.343 44.965 L 4.352 45.008 L 4.361 45.052 L 4.37 45.095 L 4.38 45.138 L 4.389 45.181 L 4.398 45.225 L 4.407 45.268 L 4.417 45.311 L 4.426 45.354 L 4.435 45.397 L 4.444 45.441 L 4.454 45.484 L 4.463 45.527 L 4.472 45.57 L 4.481 45.613 L 4.491 45.656 L 4.5 45.7 L 4.509 45.743 L 4.518 45.786 L 4.527 45.829 L 4.537 45.872 L 4.546 45.915 L 4.555 45.958 L 4.564 46.001 L 4.574 46.044 L 4.583 46.087 L 4.592 46.13 L 4.601 46.174 L 4.61 46.217 L 4.62 46.26 L 4.629 46.303 L 4.638 46.346 L 4.647 46.389 L 4.656 46.432 L 4.666 46.475 L 4.675 46.518 L 4.684 46.561 L 4.693 46.603 L 4.702 46.646 L 4.712 46.689 L 4.721 46.732 L 4.73 46.775 L 4.739 46.818 L 4.748 46.861 L 4.758 46.904 L 4.767 46.947 L 4.776 46.99 L 4.785 47.033 L 4.794 47.075 L 4.804 47.118 L 4.813 47.161 L 4.822 47.204 L 4.831 47.247 L 4.84 47.29 L 4.849 47.333 L 4.859 47.375 L 4.868 47.418 L 4.877 47.461 L 4.886 47.504 L 4.895 47.546 L 4.904 47.589 L 4.914 47.632 L 4.923 47.675 L 4.932 47.718 L 4.941 47.76 L 4.95 47.803 L 4.959 47.846 L 4.969 47.888 L 4.978 47.931 L 4.987 47.974 L 4.996 48.017 L 5.005 48.059 L 5.014 48.102 L 5.023 48.145 L 5.033 48.187 L 5.042 48.23 L 5.051 48.273 L 5.06 48.315 L 5.069 48.358 L 5.078 48.4 L 5.087 48.443 L 5.097 48.486 L 5.106 48.528 L 5.115 48.571 L 5.124 48.613 L 5.133 48.656 L 5.142 48.699 L 5.151 48.741 L 5.16 48.784 L 5.17 48.826 L 5.179 48.869 L 5.188 48.911 L 5.197 48.954 L 5.206 48.996 L 5.215 49.039 L 5.224 49.081 L 5.233 49.124 L 5.242 49.166 L 5.252 49.209 L 5.261 49.251 L 5.27 49.294 L 5.279 49.336 L 5.288 49.379 L 5.297 49.421 L 5.306 49.463 L 5.315 49.506 L 5.324 49.548 L 5.333 49.591 L 5.343 49.633 L 5.352 49.675 L 5.361 49.718 L 5.37 49.76 L 5.379 49.803 L 5.388 49.845 L 5.397 49.887 L 5.406 49.93 L 5.415 49.972 L 5.424 50.014 L 5.433 50.057 L 5.443 50.099 L 5.452 50.141 L 5.461 50.184 L 5.47 50.226 L 5.479 50.268 L 5.488 50.31 L 5.497 50.353 L 5.506 50.395 L 5.515 50.437 L 5.524 50.479 L 5.533 50.522 L 5.542 50.564 L 5.551 50.606 L 5.56 50.648 L 5.57 50.691 L 5.579 50.733 L 5.588 50.775 L 5.597 50.817 L 5.606 50.859 L 5.615 50.902 L 5.624 50.944 L 5.633 50.986 L 5.642 51.028 L 5.651 51.07 L 5.66 51.112 L 5.669 51.155 L 5.678 51.197 L 5.687 51.239 L 5.696 51.281 L 5.705 51.323 L 5.714 51.365 L 5.723 51.407 L 5.732 51.449 L 5.741 51.491 L 5.75 51.534 L 5.76 51.576 L 5.769 51.618 L 5.778 51.66 L 5.787 51.702 L 5.796 51.744 L 5.805 51.786 L 5.814 51.828 L 5.823 51.87 L 5.832 51.912 L 5.841 51.954 L 5.85 51.996 L 5.859 52.038 L 5.868 52.08 L 5.877 52.122 L 5.886 52.164 L 5.895 52.206 L 5.904 52.248 L 5.913 52.29 L 5.922 52.332 L 5.931 52.374 L 5.94 52.416 L 5.949 52.458 L 5.958 52.5 L 5.967 52.541 L 5.976 52.583 L 5.985 52.625 L 5.994 52.667 L 6.003 52.709 L 6.012 52.751 L 6.021 52.793 L 6.03 52.835 L 6.039 52.877 L 6.048 52.918 L 6.057 52.96 L 6.066 53.002 L 6.075 53.044 L 6.084 53.086 L 6.093 53.128 L 6.102 53.17 L 6.111 53.211 L 6.12 53.253 L 6.129 53.295 L 6.138 53.337 L 6.147 53.379 L 6.156 53.42 L 6.165 53.462 L 6.174 53.504 L 6.183 53.546 L 6.192 53.587 L 6.201 53.629 L 6.21 53.671 L 6.219 53.713 L 6.228 53.754 L 6.237 53.796 L 6.246 53.838 L 6.255 53.88 L 6.264 53.921 L 6.273 53.963 L 6.282 54.005 L 6.29 54.046 L 6.299 54.088 L 6.308 54.13 L 6.317 54.172 L 6.326 54.213 L 6.335 54.255 L 6.344 54.297 L 6.353 54.338 L 6.362 54.38 L 6.371 54.422 L 6.38 54.463 L 6.389 54.505 L 6.398 54.546 L 6.407 54.588 L 6.416 54.63 L 6.425 54.671 L 6.434 54.713 L 6.443 54.754 L 6.452 54.796 L 6.461 54.838 L 6.47 54.879 L 6.479 54.921 L 6.488 54.962 L 6.496 55.004 L 6.505 55.046 L 6.514 55.087 L 6.523 55.129 L 6.532 55.17 L 6.541 55.212 L 6.55 55.253 L 6.559 55.295 L 6.568 55.336 L 6.577 55.378 L 6.586 55.419 L 6.595 55.461 L 6.604 55.502 L 6.613 55.544 L 6.622 55.585 L 6.63 55.627 L 6.639 55.668 L 6.648 55.71 L 6.657 55.751 L 6.666 55.793 L 6.675 55.834 L 6.684 55.876 L 6.693 55.917 L 6.702 55.958 L 6.711 56 L 6.72 56.041 L 6.729 56.083 L 6.738 56.124 L 6.746 56.166 L 6.755 56.207 L 6.764 56.248 L 6.773 56.29 L 6.782 56.331 L 6.791 56.373 L 6.8 56.414 L 6.809 56.455 L 6.818 56.497 L 6.827 56.538 L 6.836 56.579 L 6.845 56.621 L 6.853 56.662 L 6.862 56.704 L 6.871 56.745 L 6.88 56.786 L 6.889 56.828 L 6.898 56.869 L 6.907 56.91 L 6.916 56.952 L 6.925 56.993 L 6.934 57.034 L 6.942 57.075 L 6.951 57.117 L 6.96 57.158 L 6.969 57.199 L 6.978 57.241 L 6.987 57.282 L 6.996 57.323 L 7.005 57.364 L 7.014 57.406 L 7.022 57.447 L 7.031 57.488 L 7.04 57.53 L 7.049 57.571 L 7.058 57.612 L 7.067 57.653 L 7.076 57.694 L 7.085 57.736 L 7.094 57.777 L 7.102 57.818 L 7.111 57.859 L 7.12 57.901 L 7.129 57.942 L 7.138 57.983 L 7.147 58.024 L 7.156 58.065 L 7.165 58.107 L 7.173 58.148 L 7.182 58.189 L 7.191 58.23 L 7.2 58.271 L 7.209 58.312 L 7.218 58.354 L 7.227 58.395 L 7.236 58.436 L 7.244 58.477 L 7.253 58.518 L 7.262 58.559 L 7.271 58.6 L 7.28 58.642 L 7.289 58.683 L 7.298 58.724 L 7.307 58.765 L 7.315 58.806 L 7.324 58.847 L 7.333 58.888 L 7.342 58.929 L 7.351 58.971 L 7.36 59.012 L 7.369 59.053 L 7.377 59.094 L 7.386 59.135 L 7.395 59.176 L 7.404 59.217 L 7.413 59.258 L 7.422 59.299 L 7.431 59.34 L 7.439 59.381 L 7.448 59.422 L 7.457 59.463 L 7.466 59.504 L 7.475 59.545 L 7.484 59.587 L 7.493 59.628 L 7.501 59.669 L 7.51 59.71 L 7.519 59.751 L 7.528 59.792 L 7.537 59.833 L 7.546 59.874 L 7.554 59.915 L 7.563 59.956 L 7.572 59.997 L 7.581 60.038 L 7.59 60.079 L 7.599 60.12 L 7.608 60.161 L 7.616 60.202 L 7.625 60.243 L 7.634 60.284 L 7.643 60.325 L 7.652 60.366 L 7.661 60.406 L 7.669 60.447 L 7.678 60.488 L 7.687 60.529 L 7.696 60.57 L 7.705 60.611 L 7.714 60.652 L 7.722 60.693 L 7.731 60.734 L 7.74 60.775 L 7.749 60.816 L 7.758 60.857 L 7.767 60.898 L 7.775 60.939 L 7.784 60.98 L 7.793 61.02 L 7.802 61.061 L 7.811 61.102 L 7.82 61.143 L 7.828 61.184 L 7.837 61.225 L 7.846 61.266 L 7.855 61.307 L 7.864 61.348 L 7.873 61.389 L 7.881 61.429 L 7.89 61.47 L 7.899 61.511 L 7.908 61.552 L 7.917 61.593 L 7.926 61.634 L 7.934 61.675 L 7.943 61.715 L 7.952 61.756 L 7.961 61.797 L 7.97 61.838 L 7.978 61.879 L 7.987 61.92 L 7.996 61.96 L 8.005 62.001 L 8.014 62.042 L 8.023 62.083 L 8.031 62.124 L 8.04 62.165 L 8.049 62.205 L 8.058 62.246 L 8.067 62.287 L 8.075 62.328 L 8.084 62.369 L 8.093 62.409 L 8.102 62.45 L 8.111 62.491 L 8.12 62.532 L 8.128 62.573 L 8.137 62.613 L 8.146 62.654 L 8.155 62.695 L 8.164 62.736 L 8.172 62.777 L 8.181 62.817 L 8.19 62.858 L 8.199 62.899 L 8.208 62.94 L 8.216 62.98 L 8.225 63.021 L 8.234 63.062 L 8.243 63.103 L 8.252 63.143 L 8.26 63.184 L 8.269 63.225 L 8.278 63.266 L 8.287 63.306 L 8.296 63.347 L 8.304 63.388 L 8.313 63.429 L 8.322 63.469 L 8.331 63.51 L 8.34 63.551 L 8.349 63.592 L 8.357 63.632 L 8.366 63.673 L 8.375 63.714 L 8.384 63.754 L 8.393 63.795 L 8.401 63.836 L 8.41 63.877 L 8.419 63.917 L 8.428 63.958 L 8.437 63.999 L 8.445 64.039 L 8.454 64.08 L 8.463 64.121 L 8.472 64.161 L 8.481 64.202 L 8.489 64.243 L 8.498 64.284 L 8.507 64.324 L 8.516 64.365 L 8.524 64.406 L 8.533 64.446 L 8.542 64.487 L 8.551 64.528 L 8.56 64.568 L 8.568 64.609 L 8.577 64.65 L 8.586 64.69 L 8.595 64.731 L 8.604 64.772 L 8.612 64.812 L 8.621 64.853 L 8.63 64.894 L 8.639 64.934 L 8.648 64.975 L 8.656 65.016 L 8.665 65.056 L 8.674 65.097 L 8.683 65.138 L 8.692 65.178 L 8.7 65.219 L 8.709 65.259 L 8.718 65.3 L 8.727 65.341 L 8.736 65.381 L 8.744 65.422 L 8.753 65.463 L 8.762 65.503 L 8.771 65.544 L 8.779 65.584 L 8.788 65.625 L 8.797 65.666 L 8.806 65.706 L 8.815 65.747 L 8.823 65.788 L 8.832 65.828 L 8.841 65.869 L 8.85 65.909 L 8.859 65.95 L 8.867 65.991 L 8.876 66.031 L 8.885 66.072 L 8.894 66.112 L 8.903 66.153 L 8.911 66.194 L 8.92 66.234 L 8.929 66.275 L 8.938 66.315 L 8.946 66.356 L 8.955 66.397 L 8.964 66.437 L 8.973 66.478 L 8.982 66.518 L 8.99 66.559 L 8.999 66.6 L 9.008 66.64 L 9.017 66.681 L 9.026 66.721 L 9.034 66.762 L 9.043 66.803 L 9.052 66.843 L 9.061 66.884 L 9.069 66.924 L 9.078 66.965 L 9.087 67.005 L 9.096 67.046 L 9.105 67.087 L 9.113 67.127 L 9.122 67.168 L 9.131 67.208 L 9.14 67.249 L 9.149 67.289 L 9.157 67.33 L 9.166 67.371 L 9.175 67.411 L 9.184 67.452 L 9.192 67.492 L 9.201 67.533 L 9.21 67.573 L 9.219 67.614 L 9.228 67.655 L 9.236 67.695 L 9.245 67.736 L 9.254 67.776 L 9.263 67.817 L 9.271 67.857 L 9.28 67.898" id="blue" stroke="blue" style="stroke:blue" vector-effect="non-scaling-stroke"/><g id="captions"><text alignment-baseline="middle" text-anchor="middle" transform="rotate(0,99.143,37.569)" x="99.143" y="37.569">WIND, 3, 1</text></g></g></svg>