<svg width="596.9" height="217.344" viewBox="0 0 596.9 217.344" xmlns="http://www.w3.org/2000/svg"><g id="svgGroup" stroke-linecap="round" fill-rule="evenodd" font-size="9pt" stroke="#000" stroke-width="0.25mm" fill="none" style="stroke:#000;stroke-width:0.25mm;fill:none"><path d="M 591.976 0 L 590.884 0.872 L 589.788 1.718 L 588.692 2.54 L 587.596 3.342 L 586.636 4.085 L 585.638 4.848 L 584.723 5.573 L 583.503 6.311 L 582.407 7.033 L 581.311 7.742 L 580.214 8.44 L 579.118 9.128 L 578.021 9.805 L 576.924 10.473 L 576.022 11.105 L 574.791 11.758 L 573.694 12.4 L 572.596 13.035 L 571.497 13.663 L 570.602 14.257 L 569.364 14.874 L 568.264 15.482 L 567.163 16.085 L 566.175 16.639 L 565.399 17.199 L 564.151 17.789 L 563.048 18.37 L 561.944 18.946 L 561.059 19.489 L 559.804 20.06 L 558.698 20.622 L 557.816 21.153 L 556.555 21.711 L 555.447 22.262 L 554.337 22.809 L 553.458 23.324 L 552.188 23.867 L 551.076 24.404 L 550.199 24.908 L 549.02 25.399 L 548.029 25.922 L 547.154 26.417 L 545.871 26.942 L 544.997 27.43 L 543.709 27.95 L 542.587 28.462 L 541.714 28.942 L 540.419 29.454 L 539.293 29.959 L 538.52 30.387 L 537.34 30.888 L 536.468 31.355 L 535.16 31.855 L 534.289 32.318 L 532.976 32.813 L 531.84 33.301 L 531.062 33.713 L 529.869 34.199 L 528.998 34.65 L 527.671 35.135 L 526.799 35.583 L 525.468 36.064 L 524.685 36.464 L 523.48 36.937 L 522.607 37.377 L 521.265 37.851 L 520.391 38.287 L 519.12 38.715 L 518.39 39.142 L 517.036 39.609 L 516.16 40.038 L 514.801 40.502 L 514.008 40.884 L 512.782 41.341 L 511.903 41.763 L 510.532 42.221 L 509.734 42.596 L 508.498 43.047 L 507.617 43.462 L 506.614 43.839 L 505.371 44.286 L 504.486 44.697 L 503.166 45.103 L 502.433 45.505 L 501.035 45.951 L 500.226 46.313 L 499.275 46.719 L 497.869 47.161 L 497.055 47.519 L 495.79 47.953 L 494.895 48.351 L 493.867 48.713 L 492.594 49.143 L 491.695 49.538 L 490.66 49.896 L 489.379 50.323 L 488.553 50.67 L 487.586 51.062 L 486.215 51.449 L 485.467 51.83 L 484.342 52.224 L 482.962 52.608 L 482.21 52.985 L 481.155 53.332 L 479.85 53.749 L 479.009 54.087 L 478.026 54.468 L 476.627 54.846 L 475.866 55.216 L 474.798 55.557 L 473.476 55.968 L 472.624 56.299 L 471.629 56.674 L 470.551 57.011 L 469.289 57.376 L 468.516 57.739 L 467.432 58.073 L 466.426 58.443 L 464.994 58.811 L 464.213 59.169 L 463.12 59.5 L 462.184 59.824 L 460.827 60.223 L 459.952 60.542 L 459.009 60.863 L 457.985 61.225 L 456.53 61.586 L 455.812 61.894 L 454.781 62.253 L 453.667 62.577 L 452.712 62.892 L 451.328 63.283 L 450.434 63.594 L 449.472 63.907 L 448.507 64.22 L 447.459 64.573 L 445.976 64.926 L 445.237 65.225 L 444.264 65.534 L 443.205 65.884 L 442.065 66.198 L 440.73 66.54 L 439.98 66.835 L 438.996 67.14 L 437.924 67.486 L 436.773 67.797 L 435.781 68.1 L 434.788 68.402 L 433.434 68.738 L 432.668 69.027 L 431.579 69.369 L 430.414 69.675 L 429.409 69.973 L 428.401 70.271 L 427.391 70.568 L 426.379 70.864 L 425.004 71.195 L 424.219 71.478 L 423.2 71.772 L 422.179 72.065 L 421.155 72.358 L 420.129 72.65 L 419.1 72.941 L 418.069 73.232 L 417.036 73.522 L 416 73.811 L 414.598 74.135 L 413.789 74.411 L 412.746 74.698 L 411.7 74.985 L 410.652 75.271 L 409.601 75.556 L 408.549 75.841 L 407.493 76.125 L 406.435 76.408 L 405.375 76.691 L 404.312 76.974 L 403.247 77.255 L 402.179 77.536 L 401.108 77.816 L 400.035 78.096 L 398.96 78.375 L 397.923 78.618 L 397.071 78.883 L 395.988 79.161 L 394.903 79.437 L 393.815 79.714 L 392.725 79.989 L 391.32 80.264 L 390.667 80.514 L 389.569 80.788 L 388.468 81.061 L 387.365 81.334 L 386.308 81.569 L 385.426 81.829 L 384.816 82.058 L 383.345 82.347 L 382.229 82.617 L 381.165 82.851 L 380.268 83.107 L 379.144 83.376 L 378.018 83.643 L 376.948 83.875 L 376.039 84.129 L 374.905 84.395 L 373.83 84.625 L 372.913 84.878 L 371.771 85.143 L 370.691 85.371 L 369.765 85.622 L 368.615 85.885 L 367.53 86.112 L 366.595 86.362 L 365.438 86.623 L 364.347 86.849 L 363.404 87.097 L 362.239 87.357 L 361.143 87.581 L 360.687 87.786 L 359.244 88.028 L 358.285 88.274 L 357.106 88.531 L 356.004 88.753 L 355.036 88.997 L 353.93 89.218 L 352.956 89.461 L 351.846 89.681 L 350.867 89.923 L 349.67 90.178 L 349.068 90.353 L 347.721 90.615 L 346.606 90.832 L 345.609 91.072 L 344.49 91.289 L 343.487 91.528 L 342.364 91.744 L 341.356 91.982 L 340.23 92.197 L 339.705 92.393 L 338.245 92.627 L 337.223 92.863 L 336.092 93.077 L 335.064 93.312 L 333.929 93.525 L 332.998 93.724 L 332.45 93.917 L 330.983 94.148 L 329.94 94.381 L 328.798 94.592 L 327.748 94.824 L 326.603 95.034 L 325.657 95.23 L 325.084 95.421 L 323.612 95.648 L 322.661 95.844 L 321.593 96.074 L 320.438 96.281 L 319.364 96.511 L 318.705 96.674 L 317.41 96.889 L 316.326 97.117 L 315.164 97.323 L 314.196 97.515 L 313.583 97.701 L 312.104 97.925 L 311.13 98.116 L 310.028 98.342 L 308.856 98.545 L 307.876 98.735 L 307.241 98.919 L 305.758 99.141 L 304.772 99.33 L 303.784 99.518 L 303.134 99.701 L 301.649 99.921 L 300.655 100.108 L 299.659 100.296 L 298.523 100.518 L 297.822 100.675 L 296.505 100.882 L 295.501 101.068 L 294.352 101.289 L 293.157 101.486 L 292.634 101.629 L 291.31 101.834 L 290.147 102.054 L 288.947 102.25 L 288.413 102.391 L 287.085 102.595 L 286.063 102.778 L 284.885 102.996 L 284.157 103.149 L 282.826 103.351 L 281.796 103.533 L 280.764 103.714 L 280.212 103.854 L 278.71 104.09 L 277.494 104.282 L 276.455 104.462 L 275.89 104.601 L 274.548 104.8 L 273.503 104.979 L 272.455 105.158 L 271.694 105.332 L 270.188 105.541 L 269.135 105.719 L 268.55 105.856 L 267.202 106.053 L 266.143 106.23 L 265.081 106.406 L 264.49 106.542 L 263.135 106.738 L 262.068 106.914 L 261.267 107.085 L 259.757 107.291 L 258.683 107.466 L 257.608 107.64 L 256.995 107.774 L 255.635 107.968 L 254.553 108.142 L 253.933 108.275 L 252.57 108.468 L 251.482 108.641 L 250.855 108.773 L 249.488 108.965 L 248.394 109.137 L 247.759 109.269 L 246.389 109.459 L 245.29 109.631 L 244.647 109.762 L 243.274 109.952 L 242.169 110.122 L 241.518 110.253 L 240.141 110.442 L 239.03 110.612 L 238.371 110.742 L 236.992 110.929 L 235.875 111.098 L 235.208 111.228 L 233.825 111.415 L 232.702 111.583 L 232.027 111.712 L 230.642 111.898 L 229.513 112.065 L 228.829 112.193 L 227.441 112.379 L 226.306 112.545 L 225.613 112.673 L 224.223 112.857 L 223.226 112.993 L 222.765 113.103 L 221.366 113.287 L 220.22 113.452 L 219.516 113.579 L 218.115 113.761 L 217.403 113.887 L 216.003 114.069 L 214.847 114.233 L 214.126 114.359 L 212.884 114.51 L 211.947 114.657 L 211.223 114.782 L 209.813 114.962 L 209.081 115.087 L 207.672 115.266 L 206.5 115.429 L 205.758 115.553 L 204.52 115.701 L 203.994 115.809 L 202.579 115.987 L 201.397 116.148 L 200.644 116.271 L 199.226 116.449 L 198.038 116.61 L 197.443 116.703 L 196.253 116.862 L 195.488 116.985 L 194.064 117.161 L 193.29 117.283 L 192.06 117.428 L 191.066 117.571 L 190.289 117.693 L 188.86 117.868 L 188.073 117.989 L 186.845 118.133 L 185.837 118.275 L 185.048 118.396 L 183.612 118.57 L 182.814 118.69 L 181.586 118.832 L 180.986 118.937 L 179.547 119.11 L 178.322 119.266 L 177.511 119.386 L 176.285 119.526 L 175.668 119.631 L 174.224 119.803 L 173.4 119.922 L 172.18 120.061 L 171.133 120.201 L 170.306 120.32 L 168.857 120.49 L 168.235 120.578 L 166.99 120.732 L 166.151 120.851 L 164.93 120.988 L 164.276 121.091 L 162.82 121.26 L 161.564 121.413 L 160.935 121.5 L 159.677 121.653 L 158.822 121.77 L 157.6 121.905 L 156.927 122.008 L 155.462 122.175 L 154.594 122.292 L 153.379 122.426 L 152.687 122.529 L 151.22 122.695 L 150.581 122.78 L 149.304 122.931 L 148.42 123.047 L 147.209 123.18 L 146.098 123.317 L 145.21 123.433 L 143.993 123.564 L 143.277 123.666 L 141.798 123.83 L 141.15 123.914 L 139.856 124.063 L 138.952 124.178 L 137.74 124.308 L 137.001 124.41 L 135.517 124.573 L 134.864 124.655 L 133.557 124.803 L 132.637 124.918 L 131.43 125.046 L 130.669 125.148 L 129.459 125.275 L 128.696 125.377 L 127.202 125.538 L 126.541 125.619 L 125.22 125.766 L 124.279 125.879 L 123.075 126.005 L 122.288 126.107 L 121.082 126.232 L 120.292 126.333 L 118.79 126.493 L 118.122 126.572 L 116.785 126.718 L 116.114 126.798 L 114.774 126.943 L 113.809 127.056 L 112.607 127.179 L 111.79 127.28 L 110.954 127.371 L 109.604 127.516 L 108.624 127.628 L 107.431 127.75 L 106.59 127.851 L 105.395 127.973 L 104.551 128.073 L 103.353 128.194 L 102.506 128.295 L 101.306 128.416 L 100.455 128.516 L 98.933 128.671 L 98.246 128.748 L 96.873 128.891 L 96.185 128.968 L 95.175 129.079 L 93.983 129.198 L 93.104 129.298 L 91.911 129.416 L 91.028 129.516 L 89.833 129.634 L 88.946 129.734 L 87.412 129.887 L 86.715 129.963 L 85.321 130.104 L 84.622 130.18 L 83.584 130.289 L 82.399 130.406 L 81.482 130.505 L 80.295 130.621 L 79.375 130.721 L 78.186 130.837 L 77.261 130.936 L 76.422 131.021 L 75.009 131.161 L 74.301 131.235 L 72.885 131.375 L 72.175 131.449 L 70.755 131.588 L 70.043 131.662 L 68.97 131.77 L 67.791 131.884 L 66.829 131.983 L 65.648 132.096 L 64.682 132.195 L 63.499 132.307 L 62.895 132.371 L 61.81 132.479 L 60.625 132.591 L 59.649 132.689 L 58.463 132.801 L 57.482 132.9 L 56.639 132.981 L 55.191 133.119 L 54.465 133.19 L 53.013 133.328 L 52.285 133.399 L 50.83 133.537 L 50.1 133.608 L 49.37 133.679 L 47.91 133.816 L 47.177 133.887 L 45.713 134.023 L 44.979 134.094 L 43.85 134.201 L 42.674 134.309 L 42.038 134.371 L 40.564 134.507 L 39.825 134.577 L 38.686 134.683 L 37.509 134.79 L 36.463 134.889 L 35.617 134.967 L 34.543 135.065 L 33.49 135.163 L 32.312 135.269 L 31.254 135.368 L 30.405 135.445 L 29.328 135.542 L 28.262 135.64 L 27.083 135.745 L 26.012 135.844 L 25.161 135.92 L 24.08 136.017 L 23.002 136.115 L 22.15 136.191 L 20.641 136.325 L 19.885 136.393 L 18.8 136.488 L 17.709 136.586 L 16.855 136.662 L 15.337 136.795 L 14.576 136.862 L 13.815 136.93 L 12.291 137.063 L 11.527 137.13 L 10.763 137.197 L 9.235 137.33 L 8.468 137.396 L 6.935 137.529 L 6.167 137.596 L 5.398 137.662 L 3.86 137.794 L 3.089 137.861 L 2.318 137.927 L 0.774 138.059 L 0 138.125 L 6.537 217.344 L 7.309 217.278 L 8.851 217.145 L 9.621 217.079 L 10.391 217.012 L 11.928 216.879 L 12.696 216.813 L 13.463 216.746 L 14.996 216.613 L 15.762 216.545 L 17.291 216.412 L 18.055 216.345 L 18.818 216.277 L 20.343 216.144 L 21.105 216.076 L 21.866 216.009 L 23.386 215.875 L 24.146 215.807 L 25.187 215.713 L 26.42 215.605 L 27.177 215.536 L 28.69 215.402 L 29.445 215.334 L 30.48 215.24 L 31.708 215.13 L 32.461 215.062 L 33.493 214.967 L 34.716 214.858 L 35.746 214.763 L 36.967 214.654 L 37.716 214.584 L 38.742 214.489 L 39.96 214.379 L 40.984 214.284 L 42.199 214.174 L 42.944 214.104 L 43.964 214.008 L 45.176 213.898 L 46.194 213.802 L 46.936 213.731 L 48.419 213.595 L 49.159 213.525 L 50.365 213.414 L 51.377 213.317 L 52.115 213.246 L 53.59 213.109 L 54.326 213.038 L 55.797 212.901 L 56.532 212.829 L 57.266 212.758 L 58.733 212.62 L 59.465 212.548 L 60.929 212.411 L 61.66 212.338 L 63.12 212.201 L 63.849 212.128 L 64.846 212.03 L 66.034 211.917 L 67.028 211.819 L 68.213 211.706 L 69.205 211.607 L 69.929 211.534 L 71.111 211.421 L 72.099 211.321 L 73.279 211.208 L 74.265 211.109 L 75.441 210.995 L 76.425 210.895 L 77.144 210.821 L 78.58 210.681 L 79.297 210.607 L 80.731 210.467 L 81.446 210.392 L 82.876 210.252 L 83.59 210.177 L 84.564 210.075 L 85.729 209.961 L 86.701 209.859 L 87.863 209.744 L 88.832 209.642 L 89.992 209.527 L 90.959 209.425 L 91.666 209.349 L 93.081 209.207 L 93.786 209.131 L 95.197 208.989 L 96.158 208.886 L 97.309 208.77 L 98.268 208.666 L 99.416 208.55 L 100.373 208.446 L 101.518 208.33 L 102.472 208.226 L 103.171 208.148 L 104.567 208.005 L 105.264 207.927 L 106.657 207.783 L 107.605 207.678 L 108.742 207.561 L 109.688 207.455 L 110.822 207.338 L 111.766 207.232 L 112.898 207.114 L 113.839 207.008 L 114.968 206.889 L 115.907 206.783 L 117.283 206.638 L 117.97 206.558 L 118.905 206.451 L 120.029 206.332 L 120.962 206.225 L 122.33 206.079 L 123.013 205.998 L 124.378 205.851 L 125.059 205.77 L 126.421 205.623 L 127.347 205.515 L 128.46 205.395 L 129.383 205.286 L 130.493 205.165 L 131.414 205.056 L 132.766 204.908 L 133.441 204.825 L 134.79 204.677 L 135.706 204.567 L 136.808 204.446 L 137.722 204.335 L 138.822 204.213 L 139.734 204.103 L 141.072 203.953 L 141.74 203.869 L 143.076 203.72 L 143.982 203.608 L 145.075 203.485 L 145.979 203.373 L 147.308 203.223 L 147.971 203.137 L 149.296 202.986 L 150.196 202.874 L 151.28 202.75 L 152.177 202.636 L 153.496 202.485 L 154.576 202.36 L 155.47 202.246 L 156.784 202.094 L 157.439 202.007 L 158.749 201.854 L 159.638 201.74 L 160.71 201.614 L 161.597 201.499 L 162.901 201.345 L 163.784 201.229 L 164.852 201.103 L 165.733 200.987 L 167.03 200.832 L 167.677 200.744 L 168.971 200.589 L 170.263 200.434 L 171.138 200.316 L 172.196 200.188 L 173.069 200.071 L 174.355 199.915 L 174.996 199.824 L 176.278 199.668 L 177.146 199.549 L 178.425 199.392 L 179.473 199.263 L 180.338 199.144 L 181.611 198.986 L 182.474 198.866 L 183.517 198.736 L 184.377 198.616 L 185.644 198.457 L 186.909 198.298 L 187.765 198.177 L 188.801 198.046 L 189.655 197.924 L 190.913 197.764 L 191.765 197.642 L 193.02 197.482 L 194.049 197.35 L 194.897 197.227 L 196.147 197.066 L 196.992 196.942 L 198.238 196.781 L 199.261 196.647 L 200.103 196.523 L 201.344 196.361 L 202.183 196.236 L 203.421 196.073 L 204.037 195.976 L 205.272 195.813 L 206.505 195.649 L 207.338 195.523 L 208.567 195.359 L 209.794 195.194 L 210.624 195.067 L 211.63 194.931 L 212.457 194.804 L 213.678 194.638 L 214.897 194.472 L 215.72 194.344 L 216.935 194.177 L 217.757 194.048 L 218.968 193.881 L 219.963 193.742 L 220.781 193.613 L 221.988 193.445 L 223.193 193.277 L 224.007 193.146 L 225.208 192.977 L 226.019 192.846 L 227.217 192.677 L 228.413 192.507 L 229.221 192.375 L 230.202 192.234 L 231.393 192.063 L 232.198 191.93 L 233.385 191.759 L 234.571 191.587 L 235.372 191.453 L 236.554 191.281 L 237.734 191.108 L 238.531 190.974 L 239.708 190.8 L 240.883 190.627 L 241.676 190.491 L 242.848 190.317 L 244.017 190.142 L 244.807 190.006 L 245.973 189.83 L 247.137 189.655 L 247.923 189.517 L 249.084 189.341 L 250.243 189.164 L 251.025 189.026 L 252.181 188.848 L 253.335 188.671 L 254.113 188.531 L 255.264 188.353 L 256.412 188.174 L 257.187 188.034 L 258.332 187.854 L 259.476 187.674 L 260.247 187.533 L 261.387 187.353 L 262.525 187.172 L 263.293 187.029 L 264.427 186.848 L 265.56 186.666 L 266.691 186.483 L 267.654 186.309 L 268.781 186.126 L 269.906 185.942 L 270.665 185.797 L 271.787 185.613 L 272.907 185.429 L 274.026 185.244 L 274.78 185.097 L 275.895 184.911 L 277.008 184.725 L 277.955 184.547 L 279.064 184.36 L 280.172 184.173 L 281.277 183.985 L 282.023 183.836 L 283.125 183.647 L 284.226 183.459 L 285.519 183.238 L 286.259 183.088 L 287.354 182.897 L 288.447 182.707 L 289.538 182.516 L 290.274 182.364 L 291.554 182.141 L 292.64 181.949 L 293.724 181.756 L 294.455 181.602 L 295.535 181.409 L 296.805 181.183 L 297.881 180.989 L 298.607 180.833 L 299.681 180.638 L 300.941 180.411 L 302.011 180.215 L 303.078 180.018 L 303.798 179.861 L 305.05 179.632 L 306.112 179.434 L 307.173 179.235 L 308.231 179.036 L 309.132 178.845 L 310.187 178.645 L 311.24 178.445 L 312.291 178.244 L 313.185 178.051 L 314.233 177.849 L 315.279 177.647 L 316.508 177.412 L 317.55 177.209 L 318.59 177.006 L 319.475 176.809 L 320.512 176.605 L 321.547 176.4 L 322.763 176.162 L 323.793 175.956 L 324.488 175.789 L 325.698 175.55 L 326.723 175.343 L 327.928 175.102 L 328.95 174.893 L 329.97 174.684 L 330.838 174.482 L 331.855 174.272 L 332.869 174.062 L 334.062 173.818 L 335.072 173.606 L 336.26 173.361 L 337.267 173.148 L 338.124 172.943 L 339.128 172.729 L 340.129 172.515 L 341.306 172.267 L 342.304 172.051 L 343.477 171.802 L 344.471 171.586 L 345.317 171.376 L 346.308 171.159 L 347.472 170.907 L 348.459 170.689 L 349.619 170.436 L 350.602 170.216 L 351.757 169.962 L 352.737 169.741 L 353.888 169.486 L 354.546 169.305 L 355.693 169.048 L 356.838 168.791 L 357.808 168.567 L 358.949 168.309 L 359.915 168.084 L 361.051 167.824 L 362.013 167.598 L 363.145 167.337 L 364.274 167.075 L 365.231 166.847 L 366.046 166.626 L 367 166.396 L 368.121 166.132 L 369.24 165.867 L 370.188 165.636 L 371.303 165.37 L 372.415 165.103 L 373.357 164.87 L 374.465 164.601 L 375.571 164.332 L 376.507 164.097 L 377.609 163.827 L 378.708 163.555 L 379.639 163.318 L 380.734 163.046 L 381.826 162.772 L 382.751 162.533 L 383.84 162.259 L 384.926 161.983 L 386.01 161.707 L 386.928 161.465 L 388.008 161.187 L 389.085 160.909 L 389.866 160.672 L 390.94 160.392 L 391.849 160.148 L 392.919 159.866 L 393.986 159.584 L 395.052 159.301 L 396.115 159.017 L 397.306 158.726 L 398.364 158.44 L 399.42 158.154 L 400.475 157.867 L 401.527 157.579 L 402.577 157.291 L 403.464 157.038 L 404.51 156.748 L 405.554 156.457 L 406.596 156.165 L 407.635 155.873 L 408.672 155.579 L 409.708 155.285 L 410.741 154.99 L 411.772 154.695 L 412.801 154.398 L 413.828 154.101 L 414.853 153.802 L 415.876 153.503 L 416.896 153.203 L 417.915 152.902 L 418.932 152.601 L 420.222 152.254 L 421.234 151.95 L 422.244 151.646 L 423.252 151.341 L 424.258 151.035 L 425.262 150.728 L 426.264 150.42 L 427.263 150.111 L 428.261 149.802 L 429.257 149.491 L 430.52 149.135 L 431.511 148.822 L 432.501 148.509 L 433.488 148.195 L 434.473 147.88 L 435.457 147.564 L 436.592 147.208 L 437.571 146.89 L 438.812 146.526 L 439.787 146.206 L 440.76 145.885 L 441.731 145.564 L 442.852 145.202 L 443.819 144.879 L 444.785 144.554 L 446.007 144.182 L 446.968 143.856 L 448.078 143.489 L 449.035 143.16 L 449.99 142.831 L 451.199 142.454 L 452.3 142.083 L 453.249 141.75 L 454.196 141.417 L 455.141 141.082 L 456.485 140.66 L 457.426 140.323 L 458.365 139.985 L 459.452 139.607 L 460.387 139.267 L 461.569 138.879 L 462.649 138.497 L 463.578 138.154 L 464.506 137.81 L 465.825 137.377 L 466.748 137.031 L 467.67 136.683 L 468.738 136.294 L 469.899 135.897 L 470.962 135.506 L 471.876 135.154 L 472.936 134.76 L 474.087 134.358 L 474.995 134.003 L 476.049 133.606 L 476.954 133.248 L 478.24 132.8 L 479.141 132.441 L 480.187 132.038 L 481.32 131.628 L 482.361 131.223 L 483.256 130.859 L 484.526 130.403 L 485.416 130.036 L 486.45 129.626 L 487.567 129.208 L 488.598 128.796 L 489.627 128.382 L 490.736 127.961 L 491.762 127.544 L 492.64 127.169 L 493.886 126.701 L 494.761 126.323 L 495.779 125.902 L 497.018 125.43 L 497.888 125.048 L 498.901 124.623 L 500.133 124.146 L 500.998 123.761 L 502.224 123.282 L 503.23 122.851 L 504.09 122.461 L 505.31 121.978 L 506.311 121.543 L 507.382 121.099 L 508.38 120.662 L 509.59 120.172 L 510.44 119.775 L 511.433 119.333 L 512.636 118.839 L 513.482 118.437 L 514.68 117.94 L 515.668 117.492 L 516.862 116.992 L 517.701 116.585 L 518.89 116.082 L 519.872 115.628 L 521.057 115.122 L 522.035 114.665 L 523.072 114.2 L 524.047 113.74 L 525.224 113.228 L 526.197 112.765 L 527.369 112.249 L 528.194 111.828 L 529.362 111.309 L 530.33 110.84 L 531.494 110.318 L 532.46 109.846 L 533.62 109.32 L 534.437 108.89 L 535.594 108.361 L 536.748 107.83 L 537.707 107.35 L 538.858 106.816 L 539.815 106.333 L 540.962 105.796 L 541.771 105.355 L 542.914 104.814 L 544.056 104.271 L 545.008 103.78 L 546.146 103.234 L 547.282 102.686 L 548.231 102.19 L 549.363 101.638 L 550.311 101.139 L 551.441 100.584 L 552.421 100.073 L 553.366 99.568 L 554.491 99.008 L 555.614 98.446 L 556.556 97.936 L 557.677 97.37 L 558.795 96.802 L 559.912 96.232 L 560.851 95.715 L 561.966 95.142 L 563.078 94.567 L 564.016 94.045 L 565.126 93.466 L 566.235 92.885 L 567.342 92.302 L 568.278 91.772 L 569.232 91.232 L 570.335 90.644 L 571.437 90.053 L 572.537 89.461 L 573.471 88.922 L 574.57 88.325 L 575.667 87.727 L 576.763 87.126 L 577.858 86.523 L 578.79 85.975 L 579.884 85.368 L 580.976 84.76 L 582.067 84.149 L 583.157 83.536 L 584.246 82.922 L 585.335 82.305 L 586.422 81.686 L 587.353 81.121 L 588.439 80.498 L 589.367 79.92 L 590.451 79.293 L 591.534 78.663 L 592.616 78.032 L 593.698 77.398 L 593.673 76.702 L 593.647 76.005 L 593.622 75.306 L 593.597 74.606 L 593.572 73.904 L 593.547 73.201 L 593.522 72.496 L 593.498 71.789 L 593.473 71.081 L 593.449 70.371 L 593.425 69.66 L 593.401 68.947 L 593.378 68.233 L 593.354 67.517 L 593.331 66.8 L 593.308 66.081 L 593.285 65.36 L 593.262 64.638 L 593.24 63.914 L 593.217 63.189 L 593.195 62.462 L 593.189 62.27 L 596.9 62.814 L 596.653 54.266 L 592.98 55.024 L 589.305 55.771 L 589.075 46.907 L 592.783 47.462 L 596.49 48.027 L 596.277 38.846 L 592.601 39.582 L 588.922 40.309 L 588.727 30.808 L 592.433 31.383 L 596.137 31.968 L 595.989 23.762 L 592.308 24.48 L 588.626 25.19 L 588.491 16.724 L 592.194 17.316 L 592.174 15.939 L 592.162 15.115 L 592.15 14.289 L 592.138 13.462 L 592.127 12.632 L 592.116 11.802 L 592.105 10.969 L 592.094 10.135 L 592.083 9.299 L 592.073 8.462 L 592.062 7.623 L 592.052 6.783 L 592.042 5.941 L 592.032 5.097 L 592.022 4.251 L 592.013 3.404 L 592.003 2.556 L 591.994 1.705 L 591.985 0.854 L 591.976 0 Z" vector-effect="non-scaling-stroke"/><path d="M 257.608 107.64 L 257.67 108.591 L 257.732 109.539 L 257.793 110.483 L 257.855 111.423 L 257.917 112.36 L 257.978 113.294 L 258.039 114.224 L 258.101 115.151 L 258.162 116.075 L 258.222 116.995 L 258.283 117.912 L 258.344 118.825 L 258.404 119.735 L 258.465 120.642 L 258.525 121.545 L 258.585 122.446 L 258.645 123.342 L 258.705 124.236 L 258.765 125.126 L 258.824 126.013 L 258.884 126.896 L 258.943 127.776 L 259.002 128.653 L 259.062 129.527 L 259.121 130.397 L 259.179 131.264 L 259.238 132.128 L 259.297 132.989 L 259.355 133.846 L 259.414 134.7 L 259.472 135.551 L 259.53 136.399 L 259.589 137.243 L 259.647 138.084 L 259.705 138.922 L 259.762 139.757 L 259.82 140.589 L 259.878 141.417 L 259.935 142.243 L 259.992 143.065 L 260.05 143.884 L 260.107 144.7 L 260.164 145.513 L 260.221 146.322 L 260.278 147.129 L 260.335 147.932 L 260.391 148.733 L 260.448 149.53 L 260.504 150.324 L 260.561 151.115 L 260.617 151.904 L 260.673 152.689 L 260.73 153.471 L 260.786 154.25 L 260.842 155.026 L 260.898 155.799 L 260.953 156.569 L 261.009 157.336 L 261.065 158.1 L 261.12 158.861 L 261.176 159.62 L 261.231 160.375 L 261.287 161.127 L 261.342 161.877 L 261.397 162.623 L 261.452 163.367 L 261.507 164.108 L 261.562 164.846 L 261.617 165.581 L 261.672 166.313 L 261.727 167.042 L 261.781 167.769 L 261.836 168.493 L 261.891 169.214 L 261.945 169.932 L 262 170.648 L 262.054 171.36 L 262.108 172.07 L 262.163 172.778 L 262.217 173.482 L 262.271 174.184 L 262.325 174.883 L 262.379 175.58 L 262.433 176.274 L 262.487 176.965 L 262.541 177.654 L 262.595 178.34 L 262.649 179.023 L 262.703 179.704 L 262.757 180.383 L 262.81 181.059 L 262.864 181.732 L 262.918 182.403 L 262.971 183.071 L 263.025 183.737 L 263.079 184.4 L 263.132 185.061 L 263.186 185.719 L 263.239 186.375 L 263.293 187.029 M 0 138.125 L 0.078 139.091 L 0.156 140.054 L 0.233 141.013 L 0.311 141.968 L 0.388 142.919 L 0.464 143.866 L 0.541 144.809 L 0.617 145.749 L 0.692 146.685 L 0.768 147.616 L 0.843 148.544 L 0.918 149.469 L 0.993 150.389 L 1.067 151.305 L 1.141 152.218 L 1.215 153.127 L 1.288 154.033 L 1.362 154.934 L 1.435 155.832 L 1.507 156.726 L 1.58 157.616 L 1.652 158.503 L 1.724 159.386 L 1.795 160.265 L 1.867 161.14 L 1.938 162.012 L 2.009 162.88 L 2.079 163.745 L 2.149 164.606 L 2.219 165.463 L 2.289 166.316 L 2.359 167.166 L 2.428 168.013 L 2.497 168.856 L 2.565 169.695 L 2.634 170.531 L 2.702 171.363 L 2.77 172.192 L 2.838 173.017 L 2.905 173.838 L 2.972 174.657 L 3.039 175.471 L 3.106 176.282 L 3.172 177.09 L 3.238 177.895 L 3.304 178.696 L 3.37 179.493 L 3.435 180.287 L 3.5 181.078 L 3.565 181.865 L 3.63 182.649 L 3.694 183.43 L 3.759 184.207 L 3.822 184.982 L 3.886 185.752 L 3.95 186.52 L 4.013 187.284 L 4.076 188.045 L 4.139 188.803 L 4.201 189.558 L 4.264 190.309 L 4.326 191.058 L 4.388 191.803 L 4.449 192.545 L 4.511 193.284 L 4.572 194.019 L 4.633 194.752 L 4.694 195.482 L 4.755 196.209 L 4.815 196.932 L 4.875 197.653 L 4.935 198.37 L 4.995 199.085 L 5.054 199.797 L 5.114 200.506 L 5.173 201.212 L 5.232 201.915 L 5.291 202.615 L 5.349 203.312 L 5.408 204.007 L 5.466 204.699 L 5.524 205.388 L 5.581 206.074 L 5.639 206.758 L 5.697 207.438 L 5.754 208.117 L 5.811 208.792 L 5.868 209.465 L 5.924 210.135 L 5.981 210.803 L 6.037 211.468 L 6.093 212.131 L 6.149 212.791 L 6.205 213.449 L 6.261 214.104 L 6.316 214.757 L 6.372 215.407 L 6.427 216.055 L 6.482 216.701 L 6.537 217.344 M 517.036 39.609 L 517.057 40.465 L 517.078 41.319 L 517.098 42.171 L 517.119 43.021 L 517.141 43.869 L 517.162 44.715 L 517.183 45.559 L 517.205 46.401 L 517.227 47.241 L 517.248 48.079 L 517.271 48.915 L 517.293 49.749 L 517.315 50.581 L 517.338 51.411 L 517.36 52.239 L 517.383 53.066 L 517.406 53.89 L 517.429 54.712 L 517.452 55.533 L 517.476 56.351 L 517.499 57.168 L 517.523 57.982 L 517.547 58.795 L 517.571 59.605 L 517.595 60.414 L 517.619 61.22 L 517.644 62.025 L 517.668 62.828 L 517.693 63.629 L 517.718 64.428 L 517.743 65.225 L 517.769 66.02 L 517.794 66.813 L 517.82 67.604 L 517.845 68.393 L 517.871 69.181 L 517.897 69.966 L 517.924 70.749 L 517.95 71.531 L 517.977 72.31 L 518.003 73.088 L 518.03 73.864 L 518.057 74.638 L 518.084 75.409 L 518.112 76.179 L 518.139 76.947 L 518.167 77.714 L 518.195 78.478 L 518.223 79.24 L 518.251 80 L 518.279 80.759 L 518.308 81.516 L 518.336 82.27 L 518.365 83.023 L 518.394 83.774 L 518.423 84.523 L 518.452 85.27 L 518.482 86.015 L 518.512 86.758 L 518.541 87.5 L 518.571 88.239 L 518.601 88.977 L 518.632 89.713 L 518.662 90.446 L 518.693 91.178 L 518.724 91.909 L 518.755 92.637 L 518.786 93.363 L 518.817 94.088 L 518.848 94.81 L 518.88 95.531 L 518.912 96.25 L 518.944 96.967 L 518.976 97.682 L 519.008 98.395 L 519.041 99.107 L 519.073 99.816 L 519.106 100.524 L 519.139 101.23 L 519.172 101.934 L 519.206 102.636 L 519.239 103.336 L 519.273 104.034 L 519.307 104.731 L 519.341 105.426 L 519.375 106.119 L 519.409 106.81 L 519.444 107.499 L 519.478 108.187 L 519.513 108.872 L 519.548 109.556 L 519.584 110.238 L 519.619 110.918 L 519.655 111.597 L 519.69 112.273 L 519.726 112.948 L 519.762 113.621 L 519.799 114.292 L 519.835 114.961 L 519.872 115.628" id="blue" stroke="blue" style="stroke:blue" vector-effect="non-scaling-stroke"/><g id="captions"><text alignment-baseline="middle" text-anchor="middle" transform="rotate(0,297.016,140.963)" x="297.016" y="140.963">WIND, 2, 1</text></g></g></svg>