<svg width="3986.517" height="1955.052" viewBox="0 0 3986.517 1955.052" xmlns="http://www.w3.org/2000/svg"><g id="svgGroup" stroke-linecap="round" fill-rule="evenodd" font-size="9pt" stroke="#000" stroke-width="0.25mm" fill="none" style="stroke:#000;stroke-width:0.25mm;fill:none"><path d="M 1298.039 208.184 L 1297.962 215.355 L 1297.886 222.504 L 1297.81 229.63 L 1297.734 236.733 L 1297.658 243.814 L 1297.583 250.872 L 1297.508 257.908 L 1297.434 264.921 L 1297.36 271.912 L 1297.286 278.88 L 1297.213 285.826 L 1297.14 292.749 L 1297.067 299.65 L 1296.995 306.529 L 1296.923 313.385 L 1296.852 320.218 L 1296.781 327.029 L 1296.71 333.818 L 1296.64 340.585 L 1296.57 347.329 L 1296.501 354.051 L 1296.432 360.75 L 1296.363 367.428 L 1296.295 374.083 L 1296.227 380.715 L 1296.16 387.326 L 1296.093 393.914 L 1296.026 400.48 L 1295.96 407.024 L 1295.894 413.546 L 1295.829 420.046 L 1295.764 426.523 L 1295.7 432.979 L 1295.636 439.412 L 1295.572 445.824 L 1295.509 452.213 L 1295.447 458.58 L 1295.385 464.925 L 1295.323 471.249 L 1295.262 477.55 L 1295.201 483.83 L 1295.141 490.087 L 1295.081 496.323 L 1295.022 502.537 L 1294.963 508.728 L 1294.905 514.899 L 1294.847 521.047 L 1294.79 527.173 L 1294.733 533.278 L 1294.677 539.361 L 1294.621 545.423 L 1294.566 551.462 L 1294.511 557.48 L 1294.456 563.477 L 1294.403 569.452 L 1294.349 575.405 L 1294.297 581.337 L 1294.244 587.247 L 1294.193 593.135 L 1294.142 599.002 L 1294.091 604.848 L 1294.041 610.672 L 1293.991 616.475 L 1293.942 622.257 L 1293.894 628.017 L 1293.846 633.756 L 1293.799 639.473 L 1293.752 645.169 L 1293.706 650.844 L 1293.66 656.498 L 1293.615 662.131 L 1293.57 667.742 L 1293.526 673.333 L 1293.483 678.902 L 1293.44 684.45 L 1293.398 689.978 L 1293.356 695.484 L 1293.315 700.969 L 1293.275 706.434 L 1293.235 711.877 L 1293.196 717.3 L 1293.157 722.702 L 1293.119 728.083 L 1293.082 733.443 L 1293.045 738.782 L 1293.009 744.101 L 1292.973 749.399 L 1292.938 754.677 L 1292.904 759.934 L 1292.87 765.17 L 1292.837 770.386 L 1292.804 775.582 L 1292.773 780.757 L 1292.741 785.911 L 1292.711 791.046 L 1292.681 796.16 L 1292.652 801.253 L 1292.623 806.327 L 1292.595 811.38 L 1292.568 816.413 M 5.99 225.138 L 5.917 232.09 L 5.845 239.02 L 5.773 245.928 L 5.701 252.814 L 5.629 259.678 L 5.558 266.52 L 5.487 273.34 L 5.416 280.138 L 5.345 286.914 L 5.274 293.669 L 5.204 300.401 L 5.134 307.111 L 5.064 313.8 L 4.995 320.467 L 4.925 327.112 L 4.856 333.735 L 4.787 340.336 L 4.719 346.915 L 4.65 353.473 L 4.582 360.009 L 4.515 366.523 L 4.447 373.016 L 4.38 379.486 L 4.312 385.935 L 4.246 392.363 L 4.179 398.768 L 4.113 405.152 L 4.047 411.515 L 3.981 417.856 L 3.915 424.175 L 3.85 430.472 L 3.785 436.749 L 3.72 443.003 L 3.655 449.236 L 3.591 455.448 L 3.527 461.638 L 3.463 467.807 L 3.4 473.954 L 3.337 480.08 L 3.274 486.184 L 3.211 492.267 L 3.148 498.329 L 3.086 504.369 L 3.024 510.388 L 2.963 516.386 L 2.901 522.363 L 2.84 528.318 L 2.779 534.252 L 2.718 540.165 L 2.658 546.056 L 2.598 551.927 L 2.538 557.776 L 2.479 563.605 L 2.42 569.412 L 2.361 575.198 L 2.302 580.963 L 2.243 586.707 L 2.185 592.43 L 2.127 598.132 L 2.07 603.814 L 2.013 609.474 L 1.955 615.113 L 1.899 620.732 L 1.842 626.33 L 1.786 631.907 L 1.73 637.463 L 1.674 642.998 L 1.619 648.513 L 1.564 654.007 L 1.509 659.48 L 1.455 664.933 L 1.4 670.365 L 1.347 675.777 L 1.293 681.168 L 1.24 686.538 L 1.186 691.888 L 1.134 697.217 L 1.081 702.526 L 1.029 707.815 L 0.977 713.083 L 0.925 718.331 L 0.874 723.559 L 0.823 728.767 L 0.772 733.954 L 0.722 739.121 L 0.672 744.268 L 0.622 749.394 L 0.572 754.501 L 0.523 759.587 L 0.474 764.654 L 0.425 769.7 L 0.377 774.727 L 0.328 779.734 L 0.281 784.72 L 0.233 789.687 L 0.186 794.634 L 0.139 799.562 L 0.092 804.469 L 0.046 809.357 L 0 814.226 M 2595.574 88.705 L 2595.543 94.584 L 2595.513 100.45 L 2595.485 106.302 L 2595.457 112.141 L 2595.43 117.966 L 2595.404 123.777 L 2595.379 129.575 L 2595.355 135.36 L 2595.332 141.131 L 2595.311 146.888 L 2595.29 152.632 L 2595.27 158.363 L 2595.251 164.08 L 2595.233 169.784 L 2595.216 175.474 L 2595.2 181.151 L 2595.185 186.815 L 2595.171 192.465 L 2595.159 198.101 L 2595.147 203.724 L 2595.136 209.334 L 2595.126 214.931 L 2595.117 220.513 L 2595.11 226.083 L 2595.103 231.639 L 2595.097 237.182 L 2595.093 242.711 L 2595.089 248.228 L 2595.087 253.73 L 2595.085 259.22 L 2595.085 264.696 L 2595.085 270.158 L 2595.087 275.608 L 2595.09 281.044 L 2595.094 286.466 L 2595.098 291.876 L 2595.104 297.272 L 2595.111 302.655 L 2595.119 308.024 L 2595.128 313.381 L 2595.139 318.723 L 2595.15 324.053 L 2595.162 329.37 L 2595.176 334.673 L 2595.19 339.963 L 2595.206 345.24 L 2595.222 350.503 L 2595.24 355.753 L 2595.259 360.99 L 2595.279 366.214 L 2595.3 371.425 L 2595.322 376.622 L 2595.346 381.807 L 2595.37 386.978 L 2595.395 392.136 L 2595.422 397.281 L 2595.45 402.412 L 2595.479 407.531 L 2595.509 412.636 L 2595.54 417.728 L 2595.572 422.807 L 2595.605 427.874 L 2595.64 432.926 L 2595.675 437.966 L 2595.712 442.993 L 2595.75 448.007 L 2595.789 453.007 L 2595.829 457.995 L 2595.87 462.97 L 2595.913 467.931 L 2595.956 472.879 L 2596.001 477.815 L 2596.047 482.737 L 2596.094 487.647 L 2596.142 492.543 L 2596.191 497.427 L 2596.242 502.297 L 2596.293 507.155 L 2596.346 511.999 L 2596.4 516.831 L 2596.455 521.65 L 2596.512 526.456 L 2596.569 531.249 L 2596.628 536.029 L 2596.688 540.796 L 2596.749 545.55 L 2596.811 550.291 L 2596.875 555.02 L 2596.939 559.735 L 2597.005 564.438 L 2597.072 569.128 L 2597.14 573.805 L 2597.21 578.47 L 2597.28 583.121 L 2597.352 587.76 L 2597.425 592.386 L 2597.499 596.999 L 2597.574 601.6 L 2597.651 606.188 L 2597.729 610.763 M 2597.313 613.727 L 2597.504 618.718 L 2597.697 623.694 L 2597.891 628.655 L 2598.087 633.6 L 2598.283 638.53 L 2598.48 643.445 L 2598.679 648.345 L 2598.879 653.23 L 2599.08 658.1 L 2599.282 662.954 L 2599.485 667.794 L 2599.69 672.618 L 2599.895 677.427 L 2600.102 682.222 L 2600.31 687.001 L 2600.519 691.765 L 2600.729 696.514 L 2600.941 701.248 L 2601.154 705.967 L 2601.367 710.671 L 2601.582 715.361 L 2601.799 720.035 L 2602.016 724.695 L 2602.235 729.339 L 2602.455 733.969 L 2602.676 738.584 L 2602.898 743.184 L 2603.121 747.769 L 2603.346 752.339 L 2603.572 756.895 L 2603.799 761.436 L 2604.027 765.962 L 2604.257 770.474 L 2604.487 774.971 L 2604.719 779.453 L 2604.953 783.921 L 2605.187 788.374 L 2605.423 792.812 L 2605.66 797.236 L 2605.898 801.645 L 2606.137 806.04 L 2606.378 810.42 L 2606.62 814.785 L 2606.863 819.137 L 2607.107 823.473 L 2607.353 827.796 L 2607.6 832.104 L 2607.848 836.397 L 2608.098 840.677 L 2608.348 844.942 L 2608.6 849.192 L 2608.854 853.429 L 2609.108 857.651 L 2609.364 861.859 L 2609.621 866.052 L 2609.879 870.232 L 2610.139 874.397 L 2610.4 878.549 L 2610.662 882.686 L 2610.926 886.809 L 2611.19 890.918 L 2611.456 895.013 L 2611.724 899.094 L 2611.993 903.161 L 2612.263 907.214 L 2612.534 911.254 L 2612.806 915.279 L 2613.08 919.291 L 2613.356 923.289 L 2613.632 927.273 L 2613.91 931.243 L 2614.189 935.199 L 2614.47 939.142 L 2614.751 943.071 L 2615.035 946.987 L 2615.319 950.889 L 2615.605 954.777 L 2615.892 958.652 L 2616.18 962.513 L 2616.47 966.361 L 2616.761 970.195 L 2617.054 974.016 L 2617.348 977.824 L 2617.643 981.618 L 2617.939 985.399 L 2618.237 989.167 L 2618.536 992.922 L 2618.837 996.663 L 2619.139 1000.391 L 2619.442 1004.106 L 2619.747 1007.808 L 2620.053 1011.497 L 2620.36 1015.173 L 2620.669 1018.836 L 2620.979 1022.486 L 2621.29 1026.123 L 2621.603 1029.747 L 2621.918 1033.359 L 2622.233 1036.957 L 2622.55 1040.543 M 1296.46 902.583 L 1296.945 907.647 L 1297.428 912.69 L 1297.909 917.713 L 1298.39 922.715 L 1298.869 927.696 L 1299.346 932.657 L 1299.822 937.597 L 1300.297 942.518 L 1300.77 947.417 L 1301.242 952.297 L 1301.713 957.156 L 1302.183 961.996 L 1302.651 966.815 L 1303.118 971.614 L 1303.583 976.393 L 1304.047 981.152 L 1304.51 985.891 L 1304.972 990.61 L 1305.432 995.31 L 1305.892 999.99 L 1306.349 1004.65 L 1306.806 1009.29 L 1307.262 1013.911 L 1307.716 1018.512 L 1308.169 1023.094 L 1308.621 1027.657 L 1309.071 1032.2 L 1309.521 1036.724 L 1309.969 1041.228 L 1310.416 1045.714 L 1310.862 1050.18 L 1311.307 1054.627 L 1311.751 1059.056 L 1312.194 1063.465 L 1312.635 1067.856 L 1313.075 1072.228 L 1313.515 1076.581 L 1313.953 1080.915 L 1314.39 1085.231 L 1314.826 1089.529 L 1315.261 1093.807 L 1315.695 1098.068 L 1316.128 1102.31 L 1316.559 1106.535 L 1316.99 1110.741 L 1317.42 1114.929 L 1317.849 1119.098 L 1318.277 1123.251 L 1318.704 1127.385 L 1319.13 1131.501 L 1319.555 1135.6 L 1319.979 1139.681 L 1320.402 1143.745 L 1320.824 1147.791 L 1321.245 1151.82 L 1321.665 1155.832 L 1322.085 1159.827 L 1322.503 1163.804 L 1322.921 1167.765 L 1323.338 1171.709 L 1323.754 1175.636 L 1324.169 1179.546 L 1324.584 1183.439 L 1324.997 1187.316 L 1325.41 1191.177 L 1325.822 1195.022 L 1326.233 1198.85 L 1326.644 1202.662 L 1327.054 1206.458 L 1327.463 1210.238 L 1327.871 1214.002 L 1328.279 1217.751 L 1328.686 1221.484 L 1329.092 1225.201 L 1329.497 1228.904 L 1329.902 1232.591 L 1330.307 1236.262 L 1330.71 1239.919 L 1331.113 1243.561 L 1331.516 1247.188 L 1331.918 1250.8 L 1332.319 1254.398 L 1332.72 1257.981 L 1333.12 1261.55 L 1333.52 1265.105 L 1333.919 1268.646 L 1334.318 1272.173 L 1334.716 1275.686 L 1335.114 1279.185 L 1335.511 1282.671 L 1335.908 1286.143 L 1336.304 1289.602 L 1336.701 1293.048 L 1337.096 1296.481 L 1337.492 1299.901 L 1337.887 1303.309 L 1338.281 1306.703 L 1338.675 1310.086 L 1339.069 1313.456 L 1339.463 1316.813 M 7.995 1046.446 L 8.539 1051.264 L 9.082 1056.063 L 9.622 1060.842 L 10.16 1065.602 L 10.696 1070.343 L 11.229 1075.064 L 11.761 1079.766 L 12.291 1084.449 L 12.819 1089.113 L 13.345 1093.758 L 13.868 1098.384 L 14.39 1102.99 L 14.91 1107.578 L 15.427 1112.147 L 15.943 1116.696 L 16.456 1121.228 L 16.968 1125.74 L 17.478 1130.233 L 17.985 1134.708 L 18.491 1139.164 L 18.995 1143.602 L 19.497 1148.021 L 19.996 1152.422 L 20.494 1156.804 L 20.99 1161.168 L 21.484 1165.513 L 21.976 1169.841 L 22.466 1174.15 L 22.955 1178.441 L 23.441 1182.714 L 23.925 1186.969 L 24.408 1191.205 L 24.888 1195.424 L 25.367 1199.626 L 25.844 1203.809 L 26.319 1207.975 L 26.792 1212.123 L 27.264 1216.253 L 27.733 1220.366 L 28.201 1224.461 L 28.667 1228.539 L 29.131 1232.6 L 29.593 1236.644 L 30.054 1240.67 L 30.512 1244.679 L 30.969 1248.671 L 31.424 1252.646 L 31.878 1256.604 L 32.329 1260.546 L 32.779 1264.47 L 33.227 1268.378 L 33.674 1272.27 L 34.118 1276.144 L 34.561 1280.003 L 35.003 1283.845 L 35.442 1287.67 L 35.88 1291.48 L 36.316 1295.273 L 36.751 1299.051 L 37.184 1302.812 L 37.615 1306.557 L 38.045 1310.287 L 38.473 1314.001 L 38.899 1317.7 L 39.324 1321.382 L 39.747 1325.05 L 40.169 1328.702 L 40.589 1332.339 L 41.008 1335.961 L 41.425 1339.567 L 41.84 1343.159 L 42.254 1346.736 L 42.667 1350.298 L 43.078 1353.846 L 43.487 1357.379 L 43.895 1360.897 L 44.302 1364.401 L 44.707 1367.891 L 45.111 1371.367 L 45.513 1374.829 L 45.914 1378.277 L 46.313 1381.711 L 46.711 1385.131 L 47.108 1388.538 L 47.504 1391.932 L 47.898 1395.312 L 48.29 1398.678 L 48.682 1402.032 L 49.072 1405.373 L 49.46 1408.701 L 49.848 1412.016 L 50.234 1415.319 L 50.619 1418.609 L 51.003 1421.886 L 51.385 1425.152 L 51.767 1428.405 L 52.147 1431.647 L 52.526 1434.876 L 52.904 1438.094 L 53.28 1441.301 M 67.867 1609.357 L 68.721 1613.121 L 69.571 1616.868 L 70.417 1620.6 L 71.261 1624.317 L 72.101 1628.018 L 72.938 1631.704 L 73.772 1635.376 L 74.604 1639.033 L 75.432 1642.676 L 76.258 1646.305 L 77.08 1649.92 L 77.9 1653.522 L 78.718 1657.111 L 79.532 1660.687 L 80.344 1664.251 L 81.154 1667.802 L 81.961 1671.341 L 82.766 1674.869 L 83.569 1678.385 L 84.369 1681.89 L 85.167 1685.384 L 85.963 1688.867 L 86.757 1692.341 L 87.549 1695.804 L 88.339 1699.258 L 89.128 1702.702 L 89.914 1706.138 L 90.699 1709.564 L 91.482 1712.983 L 92.264 1716.393 L 93.044 1719.795 L 93.822 1723.19 L 94.6 1726.578 L 95.376 1729.959 L 96.151 1733.334 L 96.924 1736.703 L 97.697 1740.065 L 98.469 1743.423 L 99.239 1746.775 L 100.009 1750.122 L 100.778 1753.465 L 101.547 1756.804 L 102.314 1760.139 L 103.082 1763.471 L 103.848 1766.799 L 104.615 1770.125 L 105.381 1773.448 L 106.147 1776.77 L 106.912 1780.089 L 107.678 1783.407 L 108.443 1786.725 L 109.209 1790.041 L 109.974 1793.357 L 110.74 1796.674 L 111.506 1799.99 L 112.273 1803.308 L 113.04 1806.626 L 113.807 1809.946 L 114.575 1813.267 L 115.344 1816.591 L 116.114 1819.917 L 116.884 1823.246 L 117.655 1826.578 L 118.427 1829.914 L 119.2 1833.253 L 119.974 1836.596 L 120.75 1839.944 L 121.526 1843.297 L 122.304 1846.655 L 123.084 1850.018 L 123.865 1853.388 L 124.647 1856.763 L 125.431 1860.145 L 126.217 1863.534 L 127.004 1866.93 L 127.794 1870.333 L 128.585 1873.744 L 129.378 1877.164 L 130.173 1880.591 L 130.971 1884.028 L 131.77 1887.473 L 132.572 1890.928 L 133.376 1894.393 L 134.183 1897.867 L 134.991 1901.352 L 135.803 1904.847 L 136.617 1908.353 L 137.433 1911.871 L 138.253 1915.399 L 139.075 1918.94 L 139.9 1922.492 L 140.728 1926.057 L 141.558 1929.635 L 142.392 1933.225 L 143.229 1936.828 L 144.069 1940.445 L 144.912 1944.076 L 145.758 1947.72 L 146.608 1951.379 L 147.461 1955.052 M 2624.172 1036.892 L 2624.506 1040.517 L 2624.842 1044.129 L 2625.18 1047.728 L 2625.518 1051.314 L 2625.858 1054.887 L 2626.2 1058.447 L 2626.543 1061.994 L 2626.887 1065.528 L 2627.233 1069.05 L 2627.58 1072.559 L 2627.928 1076.056 L 2628.278 1079.54 L 2628.629 1083.011 L 2628.982 1086.47 L 2629.336 1089.916 L 2629.692 1093.35 L 2630.048 1096.772 L 2630.407 1100.182 L 2630.767 1103.579 L 2631.128 1106.964 L 2631.49 1110.337 L 2631.854 1113.698 L 2632.22 1117.047 L 2632.587 1120.384 L 2632.955 1123.709 L 2633.325 1127.022 L 2633.696 1130.324 L 2634.069 1133.613 L 2634.443 1136.892 L 2634.818 1140.158 L 2635.195 1143.413 L 2635.574 1146.656 L 2635.954 1149.888 L 2636.335 1153.109 L 2636.718 1156.318 L 2637.102 1159.516 L 2637.488 1162.703 L 2637.875 1165.879 L 2638.264 1169.043 L 2638.654 1172.197 L 2639.045 1175.34 L 2639.439 1178.471 L 2639.833 1181.593 L 2640.229 1184.703 L 2640.627 1187.803 L 2641.026 1190.892 L 2641.426 1193.97 L 2641.828 1197.038 L 2642.232 1200.096 L 2642.637 1203.143 L 2643.043 1206.181 L 2643.451 1209.208 L 2643.86 1212.225 L 2644.271 1215.232 L 2644.684 1218.229 L 2645.098 1221.216 L 2645.513 1224.193 L 2645.93 1227.161 L 2646.349 1230.119 L 2646.769 1233.067 L 2647.19 1236.006 L 2647.613 1238.936 L 2648.038 1241.856 L 2648.464 1244.767 L 2648.892 1247.669 L 2649.321 1250.562 L 2649.752 1253.446 L 2650.184 1256.321 L 2650.618 1259.187 L 2651.053 1262.045 L 2651.49 1264.894 L 2651.929 1267.734 L 2652.369 1270.566 L 2652.81 1273.389 L 2653.253 1276.205 L 2653.698 1279.012 L 2654.144 1281.811 L 2654.592 1284.602 L 2655.041 1287.385 L 2655.492 1290.16 L 2655.945 1292.928 L 2656.399 1295.688 L 2656.855 1298.441 L 2657.312 1301.186 L 2657.771 1303.923 L 2658.232 1306.654 L 2658.694 1309.378 L 2659.157 1312.094 L 2659.623 1314.804 L 2660.09 1317.506 L 2660.558 1320.202 L 2661.028 1322.892 L 2661.5 1325.575 L 2661.973 1328.251 L 2662.448 1330.922 L 2662.925 1333.586 L 2663.403 1336.244 L 2663.883 1338.896 L 2664.365 1341.542 L 2664.848 1344.183 M 1340.811 1363.887 L 1341.456 1367.158 L 1342.1 1370.417 L 1342.743 1373.665 L 1343.385 1376.902 L 1344.026 1380.127 L 1344.665 1383.342 L 1345.304 1386.546 L 1345.942 1389.739 L 1346.579 1392.922 L 1347.214 1396.094 L 1347.849 1399.256 L 1348.483 1402.408 L 1349.117 1405.55 L 1349.749 1408.683 L 1350.381 1411.806 L 1351.012 1414.92 L 1351.642 1418.024 L 1352.272 1421.119 L 1352.9 1424.206 L 1353.529 1427.284 L 1354.157 1430.353 L 1354.784 1433.414 L 1355.41 1436.467 L 1356.036 1439.512 L 1356.662 1442.548 L 1357.288 1445.578 L 1357.912 1448.6 L 1358.537 1451.614 L 1359.161 1454.622 L 1359.785 1457.622 L 1360.409 1460.616 L 1361.032 1463.603 L 1361.656 1466.584 L 1362.279 1469.559 L 1362.902 1472.528 L 1363.525 1475.491 L 1364.148 1478.449 L 1364.771 1481.401 L 1365.394 1484.348 L 1366.017 1487.289 L 1366.64 1490.226 L 1367.263 1493.159 L 1367.887 1496.087 L 1368.511 1499.011 L 1369.134 1501.931 L 1369.759 1504.847 L 1370.383 1507.759 L 1371.008 1510.668 L 1371.633 1513.574 L 1372.259 1516.477 L 1372.885 1519.377 L 1373.512 1522.275 L 1374.139 1525.17 L 1374.767 1528.063 L 1375.395 1530.954 L 1376.025 1533.843 L 1376.654 1536.731 L 1377.285 1539.617 L 1377.916 1542.502 L 1378.548 1545.387 L 1379.181 1548.27 L 1379.815 1551.153 L 1380.449 1554.036 L 1381.085 1556.919 L 1381.722 1559.802 L 1382.359 1562.685 L 1382.998 1565.569 L 1383.638 1568.453 L 1384.279 1571.338 L 1384.921 1574.225 L 1385.564 1577.113 L 1386.209 1580.002 L 1386.855 1582.893 L 1387.502 1585.787 L 1388.151 1588.682 L 1388.801 1591.58 L 1389.452 1594.48 L 1390.105 1597.384 L 1390.759 1600.29 L 1391.415 1603.199 L 1392.073 1606.112 L 1392.732 1609.029 L 1393.392 1611.949 L 1394.055 1614.873 L 1394.719 1617.802 L 1395.385 1620.735 L 1396.052 1623.672 L 1396.722 1626.615 L 1397.393 1629.562 L 1398.067 1632.515 L 1398.742 1635.473 L 1399.419 1638.437 L 1400.098 1641.406 L 1400.779 1644.381 L 1401.462 1647.363 L 1402.148 1650.351 L 1402.835 1653.345 L 1403.525 1656.346 L 1404.217 1659.354 L 1404.911 1662.369" id="blue" stroke="blue" style="stroke:blue" vector-effect="non-scaling-stroke"/><path d="M 3986.517 14.18 L 3977.07 59.686 L 3971.223 86.1 L 3965.643 110.172 L 3960.393 131.978 L 3954.491 155.485 L 3948.918 176.775 L 3943.76 195.919 L 3937.919 216.746 L 3932.463 235.469 L 3926.938 253.996 L 3921.262 272.325 L 3916.016 288.653 L 3910.748 304.826 L 3905.336 320.842 L 3899.762 336.699 L 3894.21 352.404 L 3889.156 366.235 L 3884.002 379.945 L 3877.992 395.222 L 3872.783 408.677 L 3867.376 422.012 L 3862.614 433.584 L 3856.895 446.696 L 3851.376 459.692 L 3846.416 470.969 L 3841.35 482.157 L 3835.431 494.834 L 3830.112 505.83 L 3825.017 516.741 L 3819.687 527.566 L 3814.293 538.303 L 3809.697 547.439 L 3804.102 558.018 L 3798.281 568.508 L 3793.783 577.432 L 3787.988 587.768 L 3783.152 596.56 L 3778.169 605.292 L 3772.18 615.4 L 3767.207 623.998 L 3762.07 632.536 L 3756.535 641.013 L 3751.652 649.426 L 3746.369 657.784 L 3741.036 666.083 L 3735.653 674.322 L 3731.316 681.143 L 3725.655 689.277 L 3720.131 697.35 L 3715.7 704.033 L 3709.874 712.003 L 3705.382 718.597 L 3699.447 726.462 L 3694.895 732.968 L 3688.85 740.729 L 3684.239 747.148 L 3679.338 753.533 L 3673.129 761.144 L 3668.432 767.438 L 3663.418 773.699 L 3658.368 779.922 L 3653.282 786.106 L 3648.16 792.253 L 3643.519 798.358 L 3637.804 804.443 L 3632.574 810.477 L 3627.307 816.473 L 3622.005 822.432 L 3616.666 828.354 L 3611.29 834.239 L 3605.878 840.088 L 3602.659 844.726 L 3596.035 850.544 L 3590.52 856.291 L 3586.634 860.854 L 3580.495 866.552 L 3575.627 872.19 L 3570.948 876.695 L 3564.657 882.296 L 3560.711 886.726 L 3554.323 892.265 L 3551.174 896.63 L 3543.86 902.138 L 3539.869 906.466 L 3535.171 910.793 L 3529.276 916.172 L 3524.533 920.45 L 3519.766 924.707 L 3513.774 929.997 L 3508.954 934.206 L 3504.11 938.393 L 3499.241 942.559 L 3493.122 947.738 L 3488.2 951.857 L 3483.254 955.955 L 3478.283 960.032 L 3473.289 964.089 L 3468.27 968.126 L 3463.227 972.142 L 3458.16 976.137 L 3451.792 981.103 L 3446.671 985.054 L 3441.525 988.984 L 3436.354 992.895 L 3432.461 995.815 L 3427.248 999.691 L 3422.01 1003.548 L 3416.748 1007.385 L 3411.462 1011.203 L 3406.15 1015.001 L 3400.815 1018.781 L 3395.455 1022.541 L 3391.418 1025.349 L 3386.015 1029.076 L 3380.587 1032.785 L 3375.134 1036.475 L 3369.656 1040.147 L 3365.532 1042.889 L 3360.011 1046.528 L 3354.465 1050.15 L 3350.289 1052.854 L 3344.7 1056.444 L 3339.085 1060.016 L 3334.858 1062.683 L 3329.2 1066.225 L 3323.517 1069.748 L 3319.238 1072.379 L 3313.511 1075.873 L 3309.199 1078.481 L 3303.428 1081.944 L 3299.083 1084.531 L 3293.268 1087.964 L 3288.89 1090.528 L 3283.03 1093.933 L 3278.619 1096.475 L 3272.716 1099.85 L 3268.271 1102.371 L 3262.323 1105.718 L 3257.846 1108.217 L 3251.853 1111.536 L 3247.342 1114.015 L 3242.817 1116.484 L 3236.761 1119.763 L 3232.202 1122.213 L 3226.101 1125.465 L 3221.509 1127.893 L 3216.902 1130.314 L 3210.737 1133.527 L 3206.096 1135.928 L 3201.441 1138.32 L 3196.772 1140.704 L 3190.523 1143.869 L 3185.82 1146.233 L 3181.102 1148.59 L 3176.37 1150.938 L 3170.038 1154.056 L 3165.272 1156.386 L 3160.491 1158.707 L 3155.696 1161.021 L 3150.886 1163.327 L 3144.45 1166.389 L 3139.606 1168.677 L 3134.747 1170.958 L 3129.874 1173.231 L 3124.986 1175.496 L 3120.083 1177.754 L 3113.524 1180.753 L 3108.587 1182.994 L 3103.635 1185.227 L 3098.669 1187.453 L 3093.688 1189.673 L 3088.692 1191.885 L 3083.681 1194.09 L 3078.656 1196.288 L 3073.616 1198.48 L 3068.561 1200.664 L 3063.491 1202.842 L 3058.406 1205.013 L 3053.307 1207.178 L 3048.192 1209.336 L 3043.063 1211.487 L 3037.919 1213.632 L 3032.76 1215.771 L 3027.586 1217.903 L 3022.397 1220.029 L 3017.193 1222.149 L 3011.975 1224.263 L 3006.741 1226.371 L 3001.492 1228.473 L 2996.229 1230.568 L 2990.95 1232.658 L 2987.422 1234.048 L 2982.119 1236.129 L 2976.8 1238.203 L 2971.466 1240.272 L 2966.118 1242.336 L 2960.754 1244.394 L 2955.375 1246.446 L 2949.981 1248.493 L 2946.376 1249.855 L 2940.957 1251.893 L 2935.522 1253.926 L 2930.073 1255.954 L 2924.608 1257.977 L 2920.957 1259.322 L 2915.467 1261.337 L 2909.961 1263.346 L 2904.441 1265.351 L 2898.905 1267.351 L 2895.207 1268.682 L 2889.645 1270.674 L 2884.069 1272.662 L 2878.478 1274.645 L 2874.741 1275.964 L 2869.124 1277.94 L 2863.492 1279.911 L 2859.729 1281.223 L 2854.071 1283.187 L 2848.398 1285.147 L 2842.709 1287.103 L 2838.908 1288.404 L 2833.194 1290.353 L 2827.464 1292.298 L 2823.636 1293.593 L 2817.881 1295.532 L 2812.11 1297.467 L 2808.255 1298.755 L 2802.458 1300.683 L 2798.585 1301.967 L 2792.763 1303.89 L 2786.926 1305.809 L 2783.025 1307.087 L 2777.162 1309.001 L 2771.283 1310.911 L 2767.355 1312.183 L 2761.45 1314.088 L 2757.505 1315.356 L 2751.574 1317.256 L 2747.611 1318.521 L 2741.655 1320.415 L 2735.682 1322.307 L 2731.692 1323.567 L 2725.694 1325.454 L 2721.686 1326.71 L 2715.662 1328.593 L 2711.637 1329.846 L 2705.586 1331.724 L 2701.544 1332.975 L 2695.467 1334.849 L 2691.407 1336.097 L 2685.304 1337.967 L 2681.227 1339.212 L 2675.098 1341.078 L 2671.003 1342.32 L 2664.848 1344.183 L 2660.736 1345.423 L 2654.554 1347.282 L 2650.424 1348.52 L 2644.216 1350.375 L 2640.069 1351.611 L 2633.835 1353.463 L 2629.67 1354.697 L 2623.409 1356.546 L 2619.227 1357.778 L 2615.037 1359.009 L 2608.739 1360.854 L 2604.532 1362.083 L 2598.208 1363.926 L 2593.983 1365.153 L 2587.632 1366.994 L 2583.389 1368.22 L 2579.14 1369.445 L 2572.752 1371.282 L 2568.484 1372.506 L 2562.07 1374.341 L 2557.784 1375.563 L 2553.492 1376.785 L 2547.04 1378.617 L 2542.73 1379.838 L 2538.413 1381.059 L 2531.923 1382.889 L 2527.588 1384.108 L 2523.246 1385.327 L 2516.719 1387.155 L 2512.359 1388.373 L 2507.992 1389.591 L 2501.427 1391.417 L 2497.042 1392.634 L 2492.65 1393.85 L 2486.048 1395.675 L 2481.637 1396.891 L 2477.22 1398.107 L 2470.58 1399.931 L 2466.145 1401.146 L 2461.702 1402.361 L 2455.025 1404.184 L 2450.564 1405.399 L 2446.096 1406.614 L 2441.621 1407.828 L 2434.895 1409.65 L 2430.401 1410.865 L 2425.901 1412.079 L 2421.393 1413.294 L 2414.618 1415.115 L 2410.092 1416.33 L 2405.559 1417.544 L 2401.019 1418.759 L 2394.195 1420.581 L 2389.637 1421.795 L 2385.071 1423.01 L 2380.498 1424.225 L 2373.625 1426.048 L 2369.034 1427.263 L 2364.435 1428.478 L 2359.829 1429.694 L 2355.216 1430.909 L 2348.283 1432.733 L 2343.652 1433.949 L 2339.013 1435.166 L 2334.367 1436.382 L 2329.714 1437.599 L 2322.72 1439.425 L 2318.049 1440.642 L 2313.37 1441.86 L 2308.683 1443.078 L 2303.99 1444.297 L 2296.936 1446.125 L 2292.224 1447.345 L 2287.504 1448.564 L 2282.777 1449.784 L 2278.043 1451.005 L 2273.302 1452.226 L 2268.553 1453.447 L 2261.416 1455.28 L 2256.649 1456.502 L 2251.874 1457.725 L 2247.092 1458.948 L 2242.302 1460.172 L 2237.506 1461.397 L 2232.701 1462.621 L 2227.89 1463.847 L 2220.658 1465.686 L 2215.828 1466.913 L 2210.99 1468.14 L 2206.145 1469.368 L 2201.293 1470.596 L 2196.433 1471.825 L 2191.565 1473.055 L 2186.69 1474.285 L 2181.808 1475.516 L 2176.918 1476.747 L 2169.57 1478.596 L 2164.661 1479.829 L 2159.745 1481.063 L 2154.822 1482.297 L 2149.891 1483.532 L 2144.953 1484.768 L 2140.007 1486.005 L 2135.054 1487.242 L 2130.093 1488.48 L 2125.125 1489.719 L 2120.149 1490.959 L 2115.166 1492.199 L 2110.175 1493.44 L 2105.177 1494.682 L 2100.171 1495.925 L 2095.157 1497.168 L 2090.137 1498.413 L 2085.108 1499.658 L 2080.072 1500.904 L 2075.029 1502.151 L 2069.978 1503.398 L 2064.919 1504.647 L 2057.317 1506.522 L 2052.24 1507.772 L 2047.155 1509.024 L 2042.062 1510.277 L 2036.962 1511.53 L 2031.854 1512.785 L 2026.739 1514.04 L 2024.178 1514.668 L 2019.052 1515.925 L 2013.917 1517.183 L 2008.776 1518.442 L 2003.626 1519.701 L 1998.469 1520.962 L 1993.304 1522.224 L 1988.132 1523.487 L 1982.952 1524.75 L 1977.765 1526.015 L 1972.57 1527.281 L 1967.367 1528.548 L 1962.156 1529.816 L 1956.938 1531.084 L 1951.713 1532.354 L 1946.479 1533.625 L 1941.239 1534.898 L 1935.99 1536.171 L 1930.734 1537.445 L 1925.47 1538.721 L 1920.198 1539.997 L 1914.919 1541.275 L 1909.632 1542.554 L 1906.986 1543.193 L 1901.688 1544.474 L 1896.381 1545.755 L 1891.068 1547.038 L 1885.746 1548.322 L 1880.417 1549.607 L 1875.08 1550.893 L 1869.736 1552.181 L 1864.384 1553.469 L 1859.024 1554.759 L 1853.656 1556.05 L 1850.969 1556.696 L 1845.59 1557.989 L 1840.203 1559.283 L 1834.808 1560.578 L 1829.406 1561.875 L 1823.996 1563.173 L 1818.578 1564.472 L 1813.152 1565.772 L 1807.719 1567.074 L 1804.999 1567.725 L 1799.554 1569.028 L 1794.102 1570.333 L 1788.641 1571.639 L 1783.173 1572.946 L 1777.697 1574.255 L 1772.213 1575.565 L 1769.468 1576.22 L 1763.973 1577.532 L 1758.47 1578.845 L 1752.959 1580.16 L 1747.44 1581.475 L 1741.913 1582.793 L 1736.379 1584.111 L 1733.609 1584.771 L 1728.063 1586.091 L 1722.509 1587.413 L 1716.947 1588.737 L 1711.378 1590.061 L 1705.8 1591.387 L 1703.009 1592.051 L 1697.42 1593.379 L 1691.823 1594.708 L 1686.218 1596.039 L 1680.605 1597.372 L 1677.796 1598.038 L 1672.172 1599.373 L 1666.54 1600.708 L 1660.9 1602.046 L 1655.252 1603.384 L 1649.596 1604.724 L 1646.765 1605.395 L 1641.098 1606.737 L 1635.422 1608.081 L 1629.739 1609.426 L 1626.894 1610.099 L 1621.199 1611.447 L 1615.496 1612.795 L 1609.786 1614.146 L 1604.067 1615.497 L 1601.205 1616.174 L 1595.474 1617.528 L 1589.736 1618.883 L 1583.989 1620.24 L 1578.235 1621.599 L 1575.355 1622.279 L 1569.589 1623.639 L 1563.815 1625.001 L 1558.033 1626.365 L 1555.139 1627.048 L 1549.345 1628.414 L 1543.543 1629.781 L 1537.734 1631.15 L 1534.826 1631.835 L 1529.004 1633.207 L 1523.175 1634.58 L 1517.337 1635.954 L 1514.415 1636.642 L 1508.566 1638.019 L 1502.709 1639.397 L 1496.843 1640.777 L 1493.908 1641.468 L 1488.031 1642.85 L 1482.145 1644.234 L 1476.252 1645.619 L 1473.302 1646.313 L 1467.397 1647.7 L 1461.484 1649.09 L 1458.525 1649.785 L 1452.599 1651.177 L 1446.666 1652.57 L 1440.725 1653.965 L 1437.752 1654.663 L 1431.799 1656.061 L 1425.838 1657.46 L 1422.854 1658.16 L 1416.881 1659.561 L 1410.9 1660.964 L 1404.911 1662.369 L 1401.913 1663.072 L 1395.912 1664.479 L 1389.903 1665.888 L 1386.895 1666.593 L 1380.874 1668.004 L 1374.844 1669.417 L 1371.827 1670.124 L 1365.785 1671.54 L 1359.736 1672.957 L 1356.708 1673.666 L 1350.647 1675.085 L 1344.577 1676.507 L 1341.54 1677.218 L 1335.458 1678.641 L 1329.368 1680.067 L 1326.32 1680.78 L 1320.219 1682.208 L 1314.109 1683.638 L 1311.051 1684.353 L 1304.929 1685.785 L 1298.799 1687.219 L 1295.731 1687.936 L 1289.589 1689.373 L 1283.438 1690.811 L 1280.36 1691.531 L 1274.198 1692.971 L 1268.027 1694.413 L 1264.939 1695.135 L 1258.756 1696.58 L 1252.565 1698.027 L 1249.467 1698.751 L 1243.264 1700.2 L 1237.053 1701.651 L 1233.944 1702.377 L 1227.721 1703.83 L 1221.49 1705.286 L 1218.371 1706.014 L 1212.127 1707.472 L 1209.003 1708.201 L 1202.747 1709.662 L 1196.483 1711.124 L 1193.348 1711.856 L 1187.072 1713.321 L 1180.787 1714.787 L 1177.642 1715.521 L 1171.345 1716.99 L 1168.194 1717.726 L 1161.885 1719.197 L 1155.568 1720.671 L 1152.407 1721.409 L 1146.078 1722.885 L 1142.91 1723.624 L 1136.568 1725.103 L 1130.219 1726.583 L 1127.041 1727.324 L 1120.679 1728.808 L 1114.309 1730.293 L 1111.121 1731.036 L 1104.738 1732.524 L 1101.544 1733.269 L 1095.149 1734.759 L 1091.949 1735.505 L 1085.541 1736.998 L 1079.126 1738.493 L 1075.915 1739.241 L 1069.488 1740.739 L 1066.271 1741.489 L 1059.831 1742.989 L 1053.383 1744.491 L 1050.156 1745.243 L 1043.695 1746.748 L 1040.462 1747.501 L 1033.989 1749.009 L 1030.749 1749.763 L 1024.264 1751.274 L 1017.771 1752.786 L 1014.521 1753.543 L 1008.015 1755.058 L 1004.759 1755.816 L 998.241 1757.334 L 994.979 1758.093 L 988.448 1759.614 L 981.909 1761.136 L 978.636 1761.898 L 972.085 1763.423 L 968.806 1764.186 L 962.243 1765.714 L 958.958 1766.478 L 952.381 1768.009 L 949.09 1768.775 L 942.502 1770.308 L 935.905 1771.844 L 932.603 1772.612 L 925.994 1774.15 L 922.686 1774.919 L 916.064 1776.46 L 912.75 1777.231 L 906.116 1778.775 L 902.796 1779.547 L 896.149 1781.094 L 892.823 1781.867 L 886.163 1783.417 L 882.831 1784.192 L 876.159 1785.744 L 872.82 1786.521 L 866.136 1788.075 L 859.443 1789.632 L 856.094 1790.411 L 849.389 1791.97 L 846.033 1792.751 L 839.316 1794.313 L 835.954 1795.095 L 829.224 1796.66 L 825.855 1797.443 L 819.113 1799.011 L 815.738 1799.796 L 808.983 1801.366 L 805.602 1802.153 L 798.835 1803.726 L 795.448 1804.514 L 788.667 1806.09 L 785.274 1806.879 L 778.481 1808.458 L 775.082 1809.249 L 768.276 1810.831 L 764.87 1811.622 L 758.052 1813.207 L 754.64 1814.001 L 747.81 1815.588 L 744.391 1816.383 L 737.548 1817.974 L 734.123 1818.77 L 727.267 1820.363 L 723.836 1821.161 L 716.968 1822.757 L 713.531 1823.556 L 706.649 1825.156 L 703.206 1825.956 L 696.312 1827.558 L 692.862 1828.36 L 689.41 1829.162 L 682.499 1830.768 L 679.041 1831.572 L 672.118 1833.181 L 668.653 1833.986 L 661.717 1835.598 L 658.246 1836.404 L 651.297 1838.019 L 647.82 1838.827 L 640.859 1840.445 L 637.375 1841.254 L 630.401 1842.875 L 626.911 1843.686 L 619.924 1845.309 L 616.428 1846.122 L 612.929 1846.935 L 605.926 1848.562 L 602.421 1849.376 L 595.404 1851.006 L 591.893 1851.822 L 584.864 1853.455 L 581.346 1854.273 L 574.305 1855.909 L 570.781 1856.727 L 563.726 1858.366 L 560.196 1859.186 L 556.663 1860.007 L 549.592 1861.65 L 546.053 1862.472 L 538.969 1864.118 L 535.423 1864.942 L 528.326 1866.59 L 524.775 1867.415 L 521.221 1868.241 L 514.107 1869.894 L 510.547 1870.721 L 503.42 1872.376 L 499.853 1873.205 L 492.714 1874.863 L 489.141 1875.693 L 485.565 1876.524 L 478.409 1878.186 L 474.827 1879.018 L 467.658 1880.683 L 464.07 1881.517 L 456.888 1883.185 L 453.293 1884.02 L 449.697 1884.856 L 442.497 1886.528 L 438.894 1887.365 L 431.682 1889.04 L 428.073 1889.878 L 424.461 1890.717 L 417.232 1892.396 L 413.614 1893.237 L 406.372 1894.919 L 402.747 1895.761 L 395.492 1897.446 L 391.861 1898.289 L 388.228 1899.133 L 380.956 1900.822 L 377.317 1901.668 L 370.031 1903.36 L 366.386 1904.206 L 362.738 1905.054 L 355.435 1906.75 L 351.781 1907.599 L 344.466 1909.298 L 340.805 1910.148 L 337.142 1910.999 L 329.809 1912.702 L 326.14 1913.554 L 322.468 1914.407 L 315.118 1916.114 L 311.44 1916.968 L 304.077 1918.678 L 300.393 1919.534 L 296.706 1920.39 L 289.326 1922.104 L 285.633 1922.962 L 278.24 1924.679 L 274.54 1925.538 L 270.838 1926.398 L 263.428 1928.119 L 259.72 1928.98 L 256.009 1929.842 L 248.582 1931.567 L 244.865 1932.43 L 237.424 1934.158 L 233.701 1935.023 L 229.975 1935.888 L 222.517 1937.62 L 218.785 1938.487 L 215.051 1939.355 L 207.575 1941.091 L 203.835 1941.959 L 200.092 1942.829 L 192.599 1944.569 L 188.849 1945.44 L 181.344 1947.183 L 177.588 1948.055 L 173.83 1948.928 L 166.307 1950.675 L 162.542 1951.55 L 158.775 1952.424 L 151.235 1954.176 L 147.461 1955.052 L 67.867 1609.357 L 71.706 1608.734 L 79.313 1607.255 L 83.141 1606.633 L 86.968 1606.011 L 94.553 1604.534 L 98.369 1603.914 L 102.185 1603.293 L 109.748 1601.82 L 113.555 1601.199 L 121.101 1599.729 L 124.898 1599.11 L 128.694 1598.49 L 136.218 1597.023 L 140.003 1596.405 L 143.788 1595.786 L 151.29 1594.323 L 155.606 1593.582 L 159.861 1592.869 L 166.318 1591.627 L 170.083 1591.01 L 177.547 1589.552 L 181.858 1588.81 L 186.056 1588.107 L 192.497 1586.866 L 196.805 1586.123 L 200.972 1585.426 L 207.974 1584.055 L 212.118 1583.362 L 218.542 1582.121 L 222.844 1581.377 L 226.957 1580.689 L 233.955 1579.316 L 238.046 1578.633 L 244.454 1577.393 L 248.748 1576.647 L 252.81 1575.969 L 259.801 1574.594 L 264.221 1573.834 L 267.914 1573.223 L 275.232 1571.787 L 278.531 1571.264 L 285.515 1569.888 L 289.892 1569.135 L 293.565 1568.526 L 300.846 1567.095 L 304.512 1566.487 L 311.777 1565.059 L 315.431 1564.452 L 319.085 1563.844 L 326.329 1562.419 L 329.976 1561.812 L 337.203 1560.39 L 340.842 1559.784 L 348.054 1558.364 L 352.354 1557.607 L 356.151 1556.976 L 363.175 1555.584 L 366.954 1554.956 L 373.973 1553.564 L 378.163 1552.843 L 381.338 1552.337 L 388.348 1550.944 L 392.087 1550.324 L 399.09 1548.931 L 402.812 1548.314 L 409.808 1546.921 L 413.946 1546.208 L 417.528 1545.607 L 424.626 1544.204 L 428.199 1543.603 L 435.281 1542.203 L 438.847 1541.603 L 445.914 1540.205 L 450.204 1539.44 L 453.778 1538.848 L 460.806 1537.445 L 464.365 1536.856 L 471.385 1535.453 L 474.93 1534.866 L 481.941 1533.464 L 485.936 1532.775 L 489.463 1532.178 L 496.454 1530.791 L 499.974 1530.194 L 507.733 1528.635 L 511.16 1528.068 L 518.206 1526.656 L 521.62 1526.092 L 528.656 1524.681 L 532.057 1524.119 L 539.082 1522.708 L 542.961 1522.038 L 546.445 1521.444 L 553.352 1520.071 L 556.829 1519.477 L 564.544 1517.922 L 567.836 1517.379 L 574.889 1515.96 L 578.169 1515.419 L 585.211 1514 L 588.48 1513.461 L 595.51 1512.043 L 598.768 1511.506 L 605.786 1510.089 L 609.55 1509.438 L 616.363 1508.079 L 620.647 1507.299 L 623.814 1506.777 L 630.865 1505.352 L 634.561 1504.712 L 641.335 1503.358 L 644.746 1502.77 L 651.505 1501.418 L 654.908 1500.83 L 662.544 1499.283 L 665.609 1498.778 L 672.668 1497.348 L 675.724 1496.845 L 682.769 1495.416 L 686.372 1494.79 L 693.069 1493.448 L 696.44 1492.862 L 704.043 1491.319 L 707.011 1490.829 L 714.073 1489.395 L 717.033 1488.907 L 724.08 1487.474 L 727.604 1486.861 L 734.24 1485.527 L 737.58 1484.944 L 745.147 1483.404 L 748.024 1482.93 L 755.084 1481.492 L 758.542 1480.889 L 765.131 1479.562 L 768.448 1478.98 L 775.995 1477.443 L 778.792 1476.981 L 785.861 1475.539 L 789.255 1474.945 L 795.201 1473.757 L 802.244 1472.316 L 805.625 1471.725 L 812.143 1470.409 L 815.424 1469.829 L 822.92 1468.297 L 825.632 1467.85 L 832.68 1466.405 L 836 1465.824 L 843.49 1464.292 L 846.135 1463.855 L 853.203 1462.406 L 856.471 1461.832 L 862.913 1460.526 L 866.155 1459.949 L 872.588 1458.644 L 880.042 1457.116 L 882.614 1456.691 L 889.671 1455.239 L 892.878 1454.674 L 899.264 1453.376 L 902.479 1452.801 L 909.907 1451.275 L 913.065 1450.718 L 918.776 1449.565 L 925.821 1448.111 L 928.968 1447.556 L 936.375 1446.032 L 938.818 1445.627 L 945.876 1444.169 L 948.977 1443.62 L 955.284 1442.332 L 962.67 1440.811 L 965.053 1440.415 L 972.111 1438.955 L 975.162 1438.413 L 982.537 1436.893 L 985.55 1436.356 L 991.118 1435.224 L 998.174 1433.761 L 1001.177 1433.227 L 1008.529 1431.709 L 1011.495 1431.178 L 1017.014 1430.054 L 1024.067 1428.589 L 1027.023 1428.061 L 1034.351 1426.545 L 1037.271 1426.021 L 1043.437 1424.753 L 1046.541 1424.183 L 1052.701 1422.914 L 1060.004 1421.401 L 1062.879 1420.883 L 1069.014 1419.618 L 1076.311 1418.106 L 1078.424 1417.749 L 1085.49 1416.276 L 1088.322 1415.764 L 1094.418 1414.504 L 1101.689 1412.994 L 1104.482 1412.487 L 1111.759 1410.976 L 1114.519 1410.473 L 1119.834 1409.377 L 1126.901 1407.9 L 1129.653 1407.399 L 1135.686 1406.147 L 1142.923 1404.639 L 1145.639 1404.143 L 1152.88 1402.634 L 1155.563 1402.142 L 1161.556 1400.894 L 1168.789 1399.387 L 1170.669 1399.061 L 1176.511 1397.839 L 1183.711 1396.334 L 1186.353 1395.847 L 1192.299 1394.605 L 1199.49 1393.101 L 1202.097 1392.618 L 1208.019 1391.38 L 1215.201 1389.876 L 1217.775 1389.398 L 1223.673 1388.162 L 1230.845 1386.659 L 1233.386 1386.184 L 1239.259 1384.951 L 1246.422 1383.449 L 1248.93 1382.978 L 1254.779 1381.748 L 1261.931 1380.246 L 1264.407 1379.779 L 1270.233 1378.552 L 1277.374 1377.051 L 1279.819 1376.588 L 1285.621 1375.363 L 1292.751 1373.863 L 1295.165 1373.403 L 1300.943 1372.18 L 1308.062 1370.681 L 1310.445 1370.224 L 1316.2 1369.004 L 1323.307 1367.506 L 1325.661 1367.052 L 1331.392 1365.835 L 1338.487 1364.337 L 1340.811 1363.887 L 1346.519 1362.672 L 1352.218 1361.457 L 1360.417 1359.735 L 1362.403 1359.348 L 1368.076 1358.136 L 1375.155 1356.639 L 1377.395 1356.198 L 1383.046 1354.988 L 1388.688 1353.78 L 1395.741 1352.284 L 1397.951 1351.846 L 1403.57 1350.64 L 1411.78 1348.914 L 1413.595 1348.547 L 1419.189 1347.343 L 1424.775 1346.14 L 1431.808 1344.645 L 1433.94 1344.215 L 1439.503 1343.013 L 1445.837 1341.655 L 1452.873 1340.159 L 1454.954 1339.733 L 1460.484 1338.535 L 1466.005 1337.338 L 1473.004 1335.843 L 1475.858 1335.261 L 1481.334 1334.069 L 1486.823 1332.875 L 1493.813 1331.381 L 1495.819 1330.962 L 1502.095 1329.608 L 1507.51 1328.423 L 1514.492 1326.93 L 1516.449 1326.515 L 1522.705 1325.162 L 1528.069 1323.983 L 1533.485 1322.794 L 1540.443 1321.301 L 1543.187 1320.726 L 1548.499 1319.553 L 1553.883 1318.367 L 1559.258 1317.181 L 1567.482 1315.443 L 1568.803 1315.132 L 1574.154 1313.948 L 1579.498 1312.765 L 1587.728 1311.025 L 1588.98 1310.721 L 1594.299 1309.539 L 1600.469 1308.19 L 1605.648 1307.031 L 1610.942 1305.851 L 1619.177 1304.108 L 1620.327 1303.814 L 1625.598 1302.635 L 1631.733 1301.287 L 1636.837 1300.136 L 1643.734 1298.641 L 1646.309 1298.076 L 1651.372 1296.927 L 1657.483 1295.58 L 1662.52 1294.435 L 1667.725 1293.26 L 1675.981 1291.511 L 1676.936 1291.233 L 1682.117 1290.059 L 1688.193 1288.713 L 1693.159 1287.573 L 1699.222 1286.227 L 1704.162 1285.09 L 1712.431 1283.337 L 1713.262 1283.069 L 1718.386 1281.898 L 1724.424 1280.552 L 1729.301 1279.42 L 1735.326 1278.074 L 1740.178 1276.944 L 1748.457 1275.186 L 1749.168 1274.927 L 1755.178 1273.582 L 1759.976 1272.454 L 1765.972 1271.109 L 1770.745 1269.983 L 1776.729 1268.637 L 1781.478 1267.514 L 1787.448 1266.168 L 1793.983 1264.714 L 1796.31 1264.156 L 1801.978 1262.857 L 1806.657 1261.737 L 1812.607 1260.391 L 1817.263 1259.272 L 1823.201 1257.926 L 1827.833 1256.809 L 1833.757 1255.462 L 1839.354 1254.166 L 1843.947 1253.052 L 1852.274 1251.282 L 1852.623 1251.043 L 1858.527 1249.695 L 1864.076 1248.401 L 1868.602 1247.289 L 1874.49 1245.941 L 1880.008 1244.648 L 1884.496 1243.537 L 1890.366 1242.188 L 1895.855 1240.896 L 1900.305 1239.787 L 1906.158 1238.437 L 1911.617 1237.145 L 1916.03 1236.038 L 1921.866 1234.686 L 1927.295 1233.395 L 1931.671 1232.289 L 1937.489 1230.937 L 1942.889 1229.646 L 1948.279 1228.355 L 1952.603 1227.25 L 1958.4 1225.896 L 1963.761 1224.606 L 1971.713 1222.883 L 1972.714 1222.471 L 1976.967 1221.364 L 1982.749 1220.01 L 1988.063 1218.719 L 1993.367 1217.428 L 1998.66 1216.137 L 2002.064 1215.168 L 2010.326 1213.23 L 2015.589 1211.939 L 2020.842 1210.647 L 2026.085 1209.356 L 2031.319 1208.064 L 2035.436 1206.96 L 2041.152 1205.597 L 2046.358 1204.305 L 2051.553 1203.012 L 2056.739 1201.718 L 2061.915 1200.424 L 2067.082 1199.13 L 2072.238 1197.836 L 2077.385 1196.541 L 2082.523 1195.246 L 2087.651 1193.95 L 2092.769 1192.654 L 2097.878 1191.357 L 2102.977 1190.059 L 2108.067 1188.761 L 2113.147 1187.463 L 2117.069 1186.348 L 2124.942 1184.426 L 2129.991 1183.125 L 2135.032 1181.824 L 2140.063 1180.523 L 2145.085 1179.22 L 2150.097 1177.917 L 2155.1 1176.613 L 2160.094 1175.308 L 2165.079 1174.002 L 2168.878 1172.881 L 2176.657 1170.952 L 2181.612 1169.643 L 2186.558 1168.334 L 2191.495 1167.024 L 2196.423 1165.712 L 2202.427 1164.236 L 2206.813 1162.974 L 2210.511 1161.844 L 2218.217 1159.909 L 2223.096 1158.592 L 2227.967 1157.274 L 2233.93 1155.792 L 2238.236 1154.522 L 2243.079 1153.201 L 2246.692 1152.062 L 2254.333 1150.12 L 2260.26 1148.632 L 2264.501 1147.356 L 2269.298 1146.027 L 2272.851 1144.881 L 2281.565 1142.771 L 2285.755 1141.489 L 2290.513 1140.155 L 2295.263 1138.818 L 2299.612 1137.538 L 2306.841 1135.598 L 2311.563 1134.257 L 2317.416 1132.754 L 2321.516 1131.459 L 2324.949 1130.294 L 2333.593 1128.173 L 2337.657 1126.872 L 2342.324 1125.52 L 2346.582 1124.223 L 2353.701 1122.268 L 2358.341 1120.911 L 2364.132 1119.393 L 2366.84 1118.257 L 2375.424 1116.125 L 2379.39 1114.805 L 2385.154 1113.281 L 2387.802 1112.132 L 2395.186 1110.152 L 2400.927 1108.621 L 2404.834 1107.287 L 2408.975 1105.962 L 2415.949 1103.983 L 2421.662 1102.445 L 2424.216 1101.274 L 2432.713 1099.126 L 2436.552 1097.774 L 2440.635 1096.434 L 2447.535 1094.44 L 2453.204 1092.887 L 2455.681 1091.696 L 2464.125 1089.536 L 2469.093 1088.015 L 2471.53 1086.81 L 2479.949 1084.646 L 2483.689 1083.264 L 2487.689 1081.896 L 2494.481 1079.876 L 2500.083 1078.302 L 2503.361 1076.957 L 2510.117 1074.927 L 2515.698 1073.345 L 2518.943 1071.987 L 2525.664 1069.947 L 2529.592 1068.552 L 2537.496 1066.362 L 2541.124 1064.935 L 2545.026 1063.529 L 2552.897 1061.33 L 2555.155 1060.051 L 2563.418 1057.851 L 2566.576 1056.453 L 2573.189 1054.38 L 2578.674 1052.761 L 2581.804 1051.347 L 2588.383 1049.262 L 2592.209 1047.82 L 2599.974 1045.59 L 2603.069 1044.156 L 2609.6 1042.053 L 2613.393 1040.594 L 2621.109 1038.348 L 2624.172 1036.892 L 2631.864 1034.64 L 2633.992 1033.276 L 2642.083 1031.032 L 2645.116 1029.554 L 2652.759 1027.285 L 2655.776 1025.793 L 2662.19 1023.643 L 2665.904 1022.136 L 2673.498 1019.85 L 2676.488 1018.334 L 2684.056 1016.039 L 2687.033 1014.509 L 2693.379 1012.328 L 2697.05 1010.789 L 2702.95 1008.641 L 2710.452 1006.322 L 2713.401 1004.759 L 2720.878 1002.431 L 2723.816 1000.854 L 2730.081 998.633 L 2733.703 997.054 L 2739.527 994.863 L 2746.938 992.508 L 2749.852 990.896 L 2755.643 988.685 L 2763.012 986.314 L 2765.914 984.679 L 2773.258 982.298 L 2776.152 980.646 L 2780.999 978.488 L 2788.7 976.135 L 2791.584 974.461 L 2797.292 972.195 L 2804.553 969.777 L 2807.429 968.078 L 2813.107 965.79 L 2818.773 963.493 L 2825.976 961.05 L 2828.843 959.318 L 2834.48 956.998 L 2841.641 954.536 L 2844.503 952.776 L 2850.112 950.432 L 2855.709 948.08 L 2862.812 945.591 L 2864.813 943.87 L 2870.741 941.561 L 2876.3 939.176 L 2881.85 936.782 L 2888.879 934.255 L 2891.736 932.415 L 2897.259 929.994 L 2902.772 927.565 L 2908.276 925.127 L 2915.231 922.561 L 2918.091 920.671 L 2923.569 918.206 L 2929.038 915.73 L 2934.498 913.245 L 2939.949 910.75 L 2945.39 908.245 L 2950.823 905.731 L 2957.657 903.099 L 2960.531 901.126 L 2965.142 898.644 L 2970.826 896.182 L 2976.218 893.618 L 2981.602 891.043 L 2986.977 888.458 L 2992.345 885.862 L 2997.704 883.255 L 3003.055 880.637 L 3008.398 878.008 L 3013.734 875.368 L 3019.062 872.717 L 3024.382 870.055 L 3029.695 867.381 L 3035 864.696 L 3039.554 862.052 L 3045.057 859.455 L 3050.34 856.736 L 3055.617 854.004 L 3060.886 851.261 L 3066.149 848.505 L 3071.406 845.737 L 3076.656 842.957 L 3081.9 840.164 L 3085.85 837.444 L 3092.845 834.236 L 3098.067 831.405 L 3103.282 828.561 L 3108.492 825.704 L 3113.696 822.833 L 3117.654 820.029 L 3124.527 816.746 L 3129.71 813.836 L 3134.889 810.911 L 3140.062 807.973 L 3144.576 805.06 L 3150.718 801.608 L 3155.956 798.765 L 3161.107 795.77 L 3165.616 792.797 L 3172.351 789.246 L 3176.858 786.242 L 3182.037 783.332 L 3186.544 780.297 L 3193.223 776.684 L 3197.729 773.616 L 3202.256 770.683 L 3208.893 767.021 L 3213.4 763.904 L 3219.418 760.239 L 3224.501 757.212 L 3229.009 754.044 L 3235.001 750.327 L 3239.479 747.282 L 3246.019 743.498 L 3250.529 740.259 L 3256.487 736.467 L 3260.938 733.354 L 3267.424 729.496 L 3271.484 726.205 L 3277.774 722.479 L 3281.844 719.149 L 3288.096 715.386 L 3292.618 711.995 L 3298.511 708.042 L 3302.914 704.782 L 3308.792 700.788 L 3314.662 696.771 L 3319.048 693.45 L 3324.485 689.408 L 3330.582 685.482 L 3334.712 681.938 L 3340.293 677.99 L 3346.594 673.814 L 3350.747 670.198 L 3356.287 666.18 L 3361.703 661.967 L 3367.213 657.898 L 3373.008 653.616 L 3377.338 650.044 L 3382.745 645.724 L 3388.202 641.551 L 3393.604 637.173 L 3399.033 632.943 L 3404.43 628.505 L 3409.473 624.231 L 3415.276 619.896 L 3419.53 615.92 L 3424.897 611.539 L 3430.291 606.938 L 3435.364 602.499 L 3441.725 597.273 L 3446.704 592.763 L 3452.004 588.204 L 3457.392 583.416 L 3462.346 578.788 L 3467.612 574.108 L 3473.001 569.19 L 3477.72 564.438 L 3483.818 559.062 L 3489.207 553.998 L 3494.112 549.087 L 3499.074 544.119 L 3505.337 538.324 L 3510.219 533.237 L 3515.156 528.081 L 3521.478 522.082 L 3521.439 522.085 L 3515.121 528.089 L 3510.198 533.244 L 3505.306 538.333 L 3499.005 544.135 L 3494.056 549.103 L 3489.142 554.015 L 3483.608 559.105 L 3477.661 564.458 L 3472.906 569.214 L 3467.384 574.159 L 3462.212 578.834 L 3457.252 583.461 L 3451.746 588.278 L 3446.527 592.831 L 3441.544 597.341 L 3435.162 602.574 L 3430.093 607.011 L 3424.604 611.64 L 3419.297 616.014 L 3414.781 620.046 L 3409.186 624.364 L 3404.141 628.637 L 3398.676 633.105 L 3393.281 637.326 L 3387.823 641.734 L 3382.39 645.898 L 3376.939 650.249 L 3372.589 653.838 L 3366.773 658.144 L 3361.265 662.202 L 3355.829 666.446 L 3350.278 670.452 L 3345.989 674.131 L 3339.772 678.321 L 3334.161 682.256 L 3329.929 685.865 L 3323.881 689.767 L 3318.473 693.839 L 3314.068 697.177 L 3308.178 701.217 L 3302.278 705.235 L 3297.856 708.512 L 3291.943 712.486 L 3287.324 715.939 L 3281.02 719.674 L 3276.975 723.071 L 3270.605 726.767 L 3266.598 730.126 L 3260.116 733.994 L 3255.645 737.123 L 3249.668 740.935 L 3245.107 744.237 L 3238.546 748.029 L 3234.049 751.088 L 3228.036 754.824 L 3223.504 758.054 L 3218.375 761.084 L 3212.335 764.766 L 3207.825 767.946 L 3201.116 771.613 L 3196.568 774.557 L 3192.081 777.688 L 3185.308 781.304 L 3180.832 784.401 L 3175.547 787.309 L 3171.089 790.376 L 3164.228 793.927 L 3159.778 796.962 L 3154.582 800.008 L 3149.198 802.846 L 3143.029 806.305 L 3138.605 809.279 L 3133.384 812.267 L 3128.157 815.241 L 3122.924 818.201 L 3115.487 821.423 L 3112.053 824.292 L 3106.798 827.21 L 3101.538 830.114 L 3096.271 833.005 L 3090.997 835.883 L 3083.322 839.021 L 3080.005 841.803 L 3074.706 844.639 L 3069.401 847.463 L 3064.089 850.274 L 3058.769 853.072 L 3053.443 855.857 L 3048.108 858.63 L 3042.767 861.39 L 3036.93 863.962 L 3032.626 866.657 L 3027.26 869.38 L 3021.886 872.09 L 3016.503 874.788 L 3011.112 877.474 L 3005.713 880.148 L 3000.305 882.809 L 2994.888 885.459 L 2989.462 888.096 L 2984.101 890.719 L 2978.732 893.331 L 2973.356 895.933 L 2967.972 898.523 L 2963.116 900.916 L 2957.716 903.485 L 2953.405 905.627 L 2947.992 908.177 L 2942.572 910.717 L 2937.143 913.247 L 2931.706 915.766 L 2926.26 918.276 L 2920.806 920.775 L 2915.343 923.264 L 2911.001 925.335 L 2905.524 927.806 L 2900.038 930.267 L 2894.544 932.718 L 2889.04 935.16 L 2884.676 937.188 L 2879.158 939.612 L 2873.63 942.027 L 2868.092 944.433 L 2863.061 946.648 L 2858.673 948.635 L 2853.109 951.014 L 2847.535 953.384 L 2841.951 955.745 L 2837.543 957.7 L 2831.942 960.044 L 2826.332 962.379 L 2821.907 964.312 L 2816.28 966.631 L 2810.642 968.941 L 2804.993 971.242 L 2800.545 973.145 L 2794.879 975.43 L 2789.201 977.707 L 2784.736 979.588 L 2779.548 981.675 L 2773.841 983.928 L 2769.357 985.788 L 2763.631 988.025 L 2759.136 989.871 L 2753.391 992.094 L 2747.634 994.309 L 2743.119 996.134 L 2737.342 998.334 L 2731.554 1000.526 L 2727.529 1002.16 L 2721.72 1004.337 L 2717.172 1006.129 L 2711.343 1008.292 L 2706.781 1010.072 L 2700.931 1012.221 L 2695.069 1014.362 L 2690.995 1015.954 L 2685.111 1018.082 L 2680.513 1019.829 L 2674.608 1021.943 L 2669.995 1023.679 L 2664.069 1025.779 L 2659.95 1027.336 L 2654.001 1029.424 L 2649.359 1031.135 L 2643.388 1033.209 L 2638.73 1034.909 L 2633.24 1036.806 L 2628.567 1038.495 L 2622.55 1040.543 L 2617.861 1042.22 L 2611.821 1044.256 L 2607.625 1045.759 L 2601.561 1047.782 L 2596.84 1049.437 L 2590.752 1051.448 L 2586.524 1052.93 L 2580.413 1054.928 L 2575.657 1056.561 L 2571.406 1058.028 L 2565.26 1060.01 L 2560.48 1061.627 L 2554.817 1063.437 L 2550.02 1065.044 L 2543.824 1067.003 L 2539.522 1068.44 L 2534.699 1070.032 L 2528.468 1071.974 L 2524.142 1073.397 L 2517.885 1075.327 L 2513.025 1076.899 L 2508.673 1078.309 L 2502.38 1080.224 L 2497.493 1081.781 L 2493.116 1083.178 L 2486.785 1085.076 L 2482.391 1086.464 L 2477.469 1088.003 L 2471.616 1089.731 L 2466.675 1091.261 L 2461.725 1092.787 L 2455.836 1094.5 L 2450.867 1096.017 L 2446.412 1097.375 L 2439.966 1099.228 L 2435.493 1100.577 L 2430.486 1102.076 L 2424.523 1103.762 L 2419.496 1105.252 L 2414.987 1106.586 L 2408.463 1108.41 L 2403.935 1109.735 L 2398.869 1111.209 L 2394.324 1112.527 L 2388.276 1114.181 L 2383.18 1115.643 L 2378.608 1116.949 L 2373.494 1118.403 L 2367.396 1120.041 L 2362.26 1121.486 L 2357.651 1122.778 L 2353.033 1124.066 L 2346.351 1125.836 L 2341.714 1127.117 L 2337.068 1128.394 L 2331.872 1129.817 L 2325.674 1131.422 L 2320.999 1132.688 L 2315.772 1134.099 L 2311.08 1135.359 L 2306.378 1136.615 L 2299.575 1138.349 L 2294.853 1139.598 L 2290.122 1140.843 L 2285.382 1142.086 L 2280.084 1143.473 L 2273.76 1145.04 L 2268.99 1146.272 L 2264.212 1147.502 L 2258.871 1148.875 L 2254.073 1150.098 L 2247.686 1151.646 L 2242.868 1152.863 L 2238.042 1154.076 L 2232.646 1155.433 L 2227.801 1156.641 L 2222.946 1157.845 L 2218.082 1159.047 L 2211.606 1160.571 L 2206.721 1161.766 L 2201.261 1163.104 L 2196.356 1164.293 L 2191.443 1165.48 L 2186.52 1166.664 L 2181.588 1167.844 L 2176.646 1169.023 L 2170.068 1170.52 L 2165.105 1171.692 L 2160.132 1172.861 L 2155.15 1174.028 L 2150.159 1175.192 L 2145.158 1176.353 L 2140.148 1177.511 L 2135.128 1178.667 L 2130.098 1179.82 L 2125.059 1180.971 L 2118.353 1182.437 L 2113.292 1183.582 L 2108.221 1184.724 L 2103.14 1185.864 L 2098.049 1187.001 L 2092.949 1188.136 L 2087.839 1189.268 L 2082.719 1190.398 L 2077.589 1191.525 L 2072.449 1192.65 L 2067.299 1193.773 L 2062.14 1194.893 L 2056.97 1196.01 L 2051.79 1197.126 L 2046.6 1198.239 L 2041.4 1199.349 L 2036.795 1200.315 L 2031.576 1201.421 L 2026.347 1202.525 L 2021.108 1203.626 L 2015.859 1204.725 L 2010.599 1205.822 L 2004.22 1207.085 L 1998.939 1208.177 L 1993.647 1209.267 L 1988.345 1210.354 L 1983.032 1211.439 L 1978.33 1212.38 L 1972.998 1213.461 L 1969.39 1214.232 L 1964.04 1215.309 L 1958.679 1216.384 L 1953.936 1217.315 L 1948.556 1218.386 L 1943.165 1219.455 L 1937.764 1220.521 L 1932.986 1221.445 L 1927.564 1222.507 L 1922.132 1223.568 L 1917.329 1224.485 L 1911.877 1225.541 L 1906.414 1226.596 L 1901.584 1227.507 L 1896.101 1228.558 L 1890.608 1229.607 L 1885.751 1230.512 L 1880.238 1231.557 L 1874.713 1232.6 L 1869.83 1233.5 L 1864.285 1234.539 L 1858.729 1235.576 L 1853.82 1236.471 L 1850.041 1237.202 L 1845.118 1238.094 L 1839.523 1239.124 L 1833.918 1240.153 L 1828.967 1241.039 L 1823.341 1242.064 L 1818.373 1242.946 L 1812.727 1243.967 L 1807.741 1244.846 L 1802.074 1245.864 L 1796.395 1246.88 L 1793.211 1247.455 L 1787.514 1248.468 L 1782.487 1249.339 L 1776.769 1250.348 L 1771.723 1251.216 L 1765.984 1252.222 L 1760.921 1253.086 L 1755.161 1254.089 L 1750.08 1254.95 L 1746.148 1255.653 L 1741.052 1256.511 L 1735.251 1257.509 L 1730.137 1258.363 L 1724.316 1259.357 L 1719.184 1260.209 L 1714.043 1261.059 L 1710.057 1261.753 L 1704.902 1262.6 L 1699.03 1263.587 L 1693.856 1264.431 L 1687.962 1265.415 L 1682.77 1266.256 L 1677.57 1267.096 L 1673.529 1267.781 L 1668.313 1268.619 L 1663.089 1269.454 L 1657.134 1270.429 L 1651.892 1271.262 L 1645.915 1272.234 L 1642.556 1272.771 L 1637.289 1273.6 L 1631.283 1274.569 L 1625.998 1275.395 L 1620.704 1276.219 L 1616.577 1276.892 L 1611.267 1277.714 L 1605.949 1278.535 L 1599.881 1279.495 L 1594.544 1280.313 L 1589.2 1281.13 L 1585.024 1281.796 L 1579.663 1282.611 L 1574.293 1283.424 L 1568.915 1284.235 L 1564.708 1284.897 L 1559.314 1285.707 L 1553.911 1286.515 L 1548.5 1287.321 L 1542.317 1288.269 L 1538.835 1288.784 L 1533.399 1289.587 L 1527.954 1290.389 L 1521.73 1291.332 L 1516.267 1292.131 L 1512.754 1292.641 L 1507.275 1293.438 L 1501.01 1294.377 L 1495.513 1295.172 L 1491.975 1295.678 L 1486.463 1296.471 L 1480.942 1297.262 L 1474.624 1298.195 L 1471.062 1298.697 L 1465.515 1299.486 L 1459.96 1300.273 L 1454.396 1301.059 L 1450.81 1301.558 L 1444.432 1302.484 L 1438.843 1303.267 L 1433.244 1304.049 L 1429.633 1304.544 L 1424.019 1305.324 L 1418.397 1306.102 L 1412.766 1306.88 L 1408.316 1307.515 L 1402.668 1308.291 L 1397.011 1309.065 L 1393.356 1309.554 L 1387.684 1310.327 L 1382.003 1311.099 L 1376.314 1311.869 L 1372.634 1312.355 L 1366.929 1313.124 L 1361.215 1313.891 L 1356.684 1314.518 L 1350.952 1315.285 L 1345.212 1316.05 L 1339.463 1316.813 L 1335.739 1317.294 L 1329.975 1318.056 L 1324.201 1318.817 L 1320.459 1319.295 L 1314.67 1320.054 L 1308.872 1320.812 L 1305.111 1321.288 L 1299.298 1322.045 L 1293.475 1322.8 L 1289.696 1323.274 L 1283.858 1324.028 L 1278.011 1324.781 L 1274.213 1325.252 L 1268.35 1326.004 L 1262.478 1326.754 L 1258.661 1327.223 L 1252.774 1327.972 L 1246.877 1328.72 L 1243.041 1329.187 L 1237.129 1329.934 L 1231.207 1330.679 L 1227.353 1331.144 L 1221.415 1331.888 L 1215.469 1332.632 L 1211.595 1333.094 L 1205.632 1333.836 L 1199.661 1334.577 L 1195.768 1335.038 L 1189.78 1335.777 L 1183.783 1336.516 L 1179.871 1336.974 L 1173.858 1337.712 L 1168.742 1338.302 L 1164.813 1338.758 L 1158.777 1339.494 L 1152.731 1340.228 L 1148.782 1340.683 L 1142.721 1341.416 L 1138.759 1341.869 L 1132.681 1342.601 L 1126.594 1343.332 L 1122.613 1343.783 L 1117.438 1344.365 L 1111.327 1345.094 L 1107.328 1345.544 L 1101.201 1346.271 L 1097.19 1346.72 L 1091.046 1347.446 L 1084.894 1348.171 L 1080.862 1348.618 L 1075.638 1349.194 L 1071.596 1349.64 L 1065.413 1350.363 L 1059.22 1351.085 L 1055.157 1351.529 L 1048.948 1352.25 L 1042.729 1352.971 L 1039.608 1353.264 L 1033.375 1353.983 L 1029.281 1354.424 L 1023.032 1355.142 L 1018.924 1355.582 L 1013.63 1356.15 L 1007.357 1356.866 L 1003.231 1357.305 L 996.941 1358.02 L 992.802 1358.457 L 987.479 1359.021 L 981.164 1359.735 L 977.007 1360.171 L 970.676 1360.883 L 966.505 1361.318 L 961.152 1361.879 L 956.97 1362.313 L 950.607 1363.023 L 944.235 1363.733 L 940.032 1364.166 L 934.65 1364.723 L 930.435 1365.155 L 924.031 1365.862 L 919.803 1366.293 L 914.398 1366.848 L 907.97 1367.554 L 903.723 1367.984 L 897.278 1368.689 L 894.043 1368.965 L 887.583 1369.669 L 883.31 1370.096 L 877.865 1370.647 L 873.581 1371.074 L 867.089 1371.776 L 860.587 1372.478 L 857.324 1372.75 L 850.807 1373.451 L 846.49 1373.876 L 841.005 1374.422 L 836.676 1374.846 L 830.127 1375.545 L 825.784 1375.968 L 820.276 1376.512 L 815.92 1376.935 L 809.339 1377.632 L 806.036 1377.899 L 799.44 1378.596 L 795.058 1379.016 L 789.517 1379.557 L 782.896 1380.252 L 778.495 1380.672 L 772.936 1381.211 L 768.524 1381.63 L 761.87 1382.324 L 758.53 1382.586 L 751.861 1383.279 L 747.422 1383.696 L 741.829 1384.233 L 737.378 1384.649 L 730.677 1385.341 L 727.312 1385.6 L 720.596 1386.291 L 716.117 1386.706 L 710.491 1387.239 L 706.001 1387.654 L 700.364 1388.186 L 695.861 1388.6 L 689.096 1389.289 L 685.7 1389.544 L 678.92 1390.232 L 674.39 1390.644 L 668.72 1391.174 L 664.177 1391.586 L 658.497 1392.115 L 653.942 1392.526 L 647.113 1393.212 L 643.684 1393.464 L 636.84 1394.149 L 633.403 1394.4 L 626.543 1395.085 L 621.948 1395.494 L 616.224 1396.02 L 611.616 1396.428 L 608.16 1396.677 L 601.261 1397.36 L 596.633 1397.767 L 590.882 1398.291 L 586.242 1398.697 L 580.48 1399.221 L 575.827 1399.627 L 570.055 1400.149 L 565.389 1400.554 L 559.606 1401.075 L 554.928 1401.48 L 547.949 1402.161 L 544.444 1402.405 L 537.448 1403.085 L 533.936 1403.328 L 529.224 1403.731 L 523.404 1404.25 L 518.68 1404.653 L 512.848 1405.171 L 508.111 1405.573 L 502.269 1406.091 L 497.519 1406.493 L 490.453 1407.17 L 486.904 1407.41 L 479.822 1408.088 L 476.265 1408.327 L 471.481 1408.727 L 465.601 1409.242 L 460.804 1409.642 L 454.914 1410.156 L 450.104 1410.555 L 444.203 1411.069 L 439.38 1411.468 L 435.792 1411.704 L 428.632 1412.379 L 425.036 1412.614 L 417.86 1413.289 L 414.256 1413.524 L 407.064 1414.198 L 403.452 1414.432 L 398.576 1414.829 L 392.624 1415.34 L 387.734 1415.736 L 381.771 1416.246 L 376.868 1416.642 L 370.894 1417.151 L 367.255 1417.382 L 362.334 1417.778 L 356.346 1418.286 L 351.411 1418.681 L 345.412 1419.188 L 340.464 1419.583 L 336.801 1419.812 L 329.493 1420.484 L 325.821 1420.713 L 318.497 1421.385 L 314.817 1421.612 L 307.476 1422.284 L 303.789 1422.511 L 300.098 1422.738 L 292.735 1423.409 L 289.037 1423.635 L 281.657 1424.306 L 277.951 1424.532 L 272.915 1424.923 L 266.839 1425.427 L 263.122 1425.652 L 255.704 1426.322 L 251.977 1426.546 L 246.91 1426.936 L 240.808 1427.439 L 235.726 1427.829 L 231.984 1428.052 L 225.869 1428.554 L 220.768 1428.944 L 214.641 1429.445 L 209.526 1429.835 L 205.765 1430.056 L 199.624 1430.556 L 194.489 1430.945 L 188.338 1431.445 L 183.189 1431.834 L 179.408 1432.054 L 173.242 1432.553 L 168.074 1432.941 L 164.282 1433.16 L 156.715 1433.828 L 152.914 1434.046 L 146.723 1434.545 L 141.521 1434.932 L 137.709 1435.149 L 130.103 1435.817 L 126.282 1436.034 L 122.458 1436.25 L 114.83 1436.918 L 110.997 1437.134 L 107.162 1437.349 L 99.511 1438.016 L 95.667 1438.231 L 87.999 1438.899 L 84.147 1439.113 L 80.291 1439.327 L 72.6 1439.994 L 68.736 1440.208 L 64.87 1440.421 L 57.156 1441.088 L 53.28 1441.301 L 7.995 1046.446 L 11.871 1046.164 L 19.584 1045.431 L 23.447 1045.15 L 27.31 1044.868 L 34.996 1044.135 L 38.845 1043.853 L 42.695 1043.571 L 50.354 1042.837 L 54.193 1042.554 L 61.832 1041.82 L 65.658 1041.537 L 69.484 1041.253 L 77.097 1040.519 L 80.909 1040.236 L 84.722 1039.951 L 92.308 1039.217 L 96.595 1038.877 L 102.023 1038.392 L 107.466 1037.912 L 111.255 1037.626 L 118.795 1036.892 L 123.076 1036.548 L 128.428 1036.067 L 133.86 1035.584 L 138.138 1035.239 L 143.446 1034.76 L 149.396 1034.215 L 154.672 1033.737 L 160.093 1033.251 L 164.365 1032.903 L 169.599 1032.426 L 175.553 1031.877 L 180.757 1031.402 L 186.166 1030.913 L 190.431 1030.561 L 195.593 1030.088 L 201.551 1029.534 L 207.198 1029.004 L 210.9 1028.713 L 218.264 1027.976 L 221.428 1027.745 L 227.389 1027.185 L 232.979 1026.657 L 236.658 1026.365 L 243.977 1025.627 L 247.646 1025.334 L 254.946 1024.596 L 258.602 1024.304 L 262.258 1024.011 L 269.532 1023.272 L 273.179 1022.978 L 280.434 1022.239 L 284.072 1021.945 L 291.308 1021.206 L 295.588 1020.838 L 300.372 1020.383 L 306.429 1019.802 L 311.185 1019.349 L 317.241 1018.766 L 322.584 1018.245 L 325.564 1018.018 L 331.618 1017.432 L 336.311 1016.981 L 342.364 1016.393 L 347.03 1015.943 L 353.081 1015.353 L 358.348 1014.834 L 361.917 1014.535 L 369.015 1013.794 L 372.574 1013.495 L 379.653 1012.753 L 383.203 1012.453 L 390.263 1011.711 L 394.552 1011.327 L 398.995 1010.889 L 405.129 1010.283 L 409.548 1009.846 L 415.679 1009.237 L 420.072 1008.802 L 426.2 1008.191 L 431.266 1007.678 L 434.77 1007.375 L 441.739 1006.632 L 445.233 1006.328 L 453.008 1005.493 L 457.221 1005.066 L 463.429 1004.443 L 467.619 1004.018 L 473.822 1003.393 L 477.989 1002.968 L 484.188 1002.341 L 489.089 1001.833 L 492.541 1001.527 L 499.407 1000.781 L 502.85 1000.474 L 510.59 999.629 L 514.582 999.214 L 520.856 998.574 L 524.828 998.16 L 531.096 997.518 L 535.046 997.104 L 541.308 996.46 L 545.237 996.048 L 551.493 995.402 L 556.219 994.899 L 562.972 994.15 L 567.309 993.735 L 571.091 993.33 L 577.423 992.673 L 582.052 992.174 L 588.758 991.425 L 592.121 991.112 L 598.809 990.362 L 602.163 990.048 L 609.846 989.187 L 613.453 988.791 L 619.845 988.121 L 623.434 987.726 L 629.818 987.054 L 634.303 986.559 L 640.915 985.807 L 644.232 985.491 L 651.894 984.623 L 655.332 984.235 L 661.78 983.552 L 665.201 983.165 L 671.64 982.479 L 676.002 981.988 L 682.54 981.234 L 685.819 980.915 L 693.458 980.039 L 696.733 979.66 L 703.232 978.963 L 707.492 978.475 L 713.972 977.72 L 717.223 977.398 L 724.854 976.516 L 727.988 976.144 L 734.543 975.436 L 738.703 974.951 L 744.092 974.308 L 750.63 973.596 L 754.763 973.112 L 761.159 972.354 L 764.368 972.029 L 771.961 971.139 L 774.933 970.775 L 781.523 970.053 L 785.56 969.571 L 793.16 968.677 L 796.012 968.318 L 802.664 967.587 L 806.62 967.108 L 812.922 966.347 L 816.083 966.018 L 822.375 965.256 L 829.952 964.354 L 832.666 964.002 L 839.356 963.26 L 843.209 962.783 L 849.445 962.021 L 852.574 961.688 L 860.139 960.78 L 863.915 960.306 L 868.932 959.67 L 875.658 958.915 L 879.411 958.442 L 886.968 957.529 L 889.437 957.189 L 896.217 956.426 L 899.895 955.954 L 906.034 955.187 L 913.583 954.269 L 915.936 953.934 L 922.76 953.161 L 926.354 952.692 L 933.906 951.769 L 937.44 951.301 L 942.225 950.67 L 949.09 949.888 L 952.603 949.421 L 960.145 948.492 L 963.598 948.027 L 968.306 947.396 L 975.209 946.604 L 978.643 946.139 L 986.173 945.205 L 989.548 944.742 L 995.518 943.969 L 998.513 943.623 L 1004.474 942.848 L 1011.993 941.908 L 1015.291 941.447 L 1021.221 940.671 L 1028.746 939.728 L 1030.573 939.417 L 1037.608 938.601 L 1040.829 938.141 L 1046.713 937.363 L 1054.225 936.414 L 1057.383 935.956 L 1064.913 935.004 L 1068.015 934.547 L 1072.388 933.922 L 1079.501 933.089 L 1082.585 932.632 L 1088.393 931.851 L 1095.896 930.892 L 1098.919 930.437 L 1106.439 929.476 L 1109.408 929.021 L 1115.166 928.238 L 1122.69 927.273 L 1124.056 926.981 L 1129.522 926.31 L 1137.014 925.341 L 1139.906 924.889 L 1145.61 924.102 L 1153.104 923.129 L 1155.938 922.678 L 1161.612 921.89 L 1169.109 920.913 L 1171.885 920.464 L 1177.53 919.674 L 1185.028 918.694 L 1187.747 918.245 L 1193.363 917.454 L 1200.863 916.469 L 1203.525 916.022 L 1209.112 915.229 L 1216.614 914.241 L 1219.22 913.794 L 1224.779 913 L 1232.281 912.007 L 1234.832 911.562 L 1240.362 910.765 L 1247.865 909.769 L 1250.362 909.324 L 1255.863 908.527 L 1263.366 907.526 L 1265.809 907.083 L 1271.282 906.283 L 1278.785 905.279 L 1281.176 904.836 L 1286.62 904.034 L 1294.122 903.026 L 1296.46 902.583 L 1301.877 901.78 L 1307.285 900.976 L 1315.999 899.844 L 1318.728 899.252 L 1324.104 898.447 L 1331.622 897.429 L 1333.814 896.988 L 1339.163 896.181 L 1344.501 895.372 L 1352.003 894.349 L 1354.142 893.909 L 1359.453 893.099 L 1368.244 891.949 L 1370.681 891.364 L 1375.961 890.552 L 1381.232 889.74 L 1388.745 888.707 L 1390.746 888.268 L 1395.99 887.453 L 1402.547 886.507 L 1410.366 885.333 L 1412.278 884.894 L 1417.483 884.077 L 1422.678 883.259 L 1430.186 882.213 L 1433.417 881.643 L 1438.808 880.691 L 1443.964 879.87 L 1451.483 878.819 L 1453.262 878.382 L 1459.784 877.423 L 1465.084 876.47 L 1472.613 875.414 L 1474.309 874.977 L 1480.82 874.014 L 1486.04 873.06 L 1491.11 872.232 L 1498.633 871.168 L 1501.692 870.593 L 1506.833 869.638 L 1511.864 868.807 L 1516.887 867.975 L 1525.881 866.77 L 1527.467 866.205 L 1532.46 865.37 L 1537.445 864.535 L 1546.473 863.323 L 1547.94 862.759 L 1552.897 861.921 L 1559.349 860.94 L 1564.287 859.982 L 1569.214 859.142 L 1578.285 857.918 L 1579.58 857.357 L 1584.479 856.514 L 1590.908 855.525 L 1595.733 854.566 L 1603.278 853.472 L 1606.078 852.888 L 1610.84 851.927 L 1617.257 850.932 L 1621.981 849.97 L 1626.802 849.119 L 1635.963 847.876 L 1636.934 847.318 L 1641.728 846.465 L 1648.121 845.462 L 1652.737 844.497 L 1659.119 843.491 L 1663.699 842.526 L 1672.915 841.27 L 1673.683 840.713 L 1678.41 839.853 L 1684.777 838.841 L 1689.261 837.873 L 1695.618 836.857 L 1700.067 835.889 L 1709.332 834.62 L 1709.906 834.064 L 1716.259 833.044 L 1720.623 832.072 L 1726.965 831.049 L 1731.294 830.076 L 1737.625 829.05 L 1741.921 828.076 L 1748.241 827.046 L 1755.489 825.809 L 1757.916 825.206 L 1763.881 824.074 L 1768.07 823.096 L 1774.384 822.061 L 1778.541 821.081 L 1784.843 820.043 L 1788.967 819.062 L 1795.258 818.02 L 1801.133 816.881 L 1805.2 815.899 L 1814.622 814.595 L 1814.623 814.034 L 1820.906 812.986 L 1826.718 811.842 L 1830.686 810.854 L 1836.956 809.802 L 1842.73 808.655 L 1846.643 807.664 L 1852.9 806.607 L 1858.636 805.456 L 1862.496 804.463 L 1868.74 803.401 L 1874.438 802.247 L 1878.246 801.251 L 1884.477 800.184 L 1890.137 799.026 L 1893.894 798.027 L 1900.11 796.955 L 1905.733 795.793 L 1911.343 794.63 L 1915.029 793.628 L 1921.229 792.549 L 1926.802 791.382 L 1935.748 789.953 L 1937.065 789.216 L 1940.648 788.205 L 1946.845 787.122 L 1952.357 785.949 L 1957.856 784.774 L 1963.342 783.599 L 1965.096 782.73 L 1973.857 781.316 L 1979.306 780.136 L 1984.743 778.954 L 1990.168 777.771 L 1995.579 776.587 L 1998.982 775.563 L 2005.121 774.459 L 2010.499 773.27 L 2015.864 772.08 L 2021.217 770.888 L 2026.557 769.694 L 2031.885 768.499 L 2037.201 767.303 L 2042.505 766.105 L 2047.797 764.906 L 2053.076 763.705 L 2058.344 762.502 L 2063.6 761.298 L 2068.844 760.092 L 2074.076 758.885 L 2079.297 757.676 L 2082.435 756.623 L 2090.507 755.076 L 2095.691 753.861 L 2100.864 752.645 L 2106.025 751.427 L 2111.174 750.207 L 2116.313 748.986 L 2121.44 747.763 L 2126.556 746.538 L 2131.66 745.311 L 2134.647 744.24 L 2142.624 742.673 L 2147.694 741.44 L 2152.753 740.205 L 2157.801 738.969 L 2162.838 737.73 L 2169.451 736.379 L 2174.037 735.006 L 2176.904 733.918 L 2184.806 732.336 L 2189.786 731.087 L 2194.755 729.837 L 2201.313 728.474 L 2205.804 727.089 L 2210.739 725.832 L 2213.509 724.727 L 2221.342 723.131 L 2227.854 721.759 L 2232.269 720.362 L 2237.149 719.094 L 2239.854 717.977 L 2249.248 716.262 L 2253.605 714.856 L 2258.442 713.579 L 2263.269 712.3 L 2267.448 711.061 L 2274.747 709.313 L 2279.542 708.026 L 2285.953 706.632 L 2290.208 705.207 L 2292.786 704.062 L 2302.09 702.329 L 2306.306 700.896 L 2311.039 699.595 L 2315.12 698.333 L 2322.293 696.562 L 2326.996 695.253 L 2333.321 693.838 L 2335.264 692.533 L 2344.484 690.783 L 2348.599 689.327 L 2354.886 687.905 L 2356.774 686.583 L 2364.32 684.927 L 2370.575 683.496 L 2374.631 682.024 L 2378.59 680.726 L 2385.601 678.924 L 2391.817 677.483 L 2393.63 676.136 L 2402.722 674.364 L 2406.713 672.871 L 2410.616 671.555 L 2417.546 669.734 L 2423.699 668.277 L 2425.459 666.905 L 2434.469 665.119 L 2440.024 663.512 L 2441.756 662.126 L 2450.728 660.334 L 2454.632 658.808 L 2458.458 657.46 L 2465.271 655.61 L 2471.329 654.126 L 2474.561 652.621 L 2481.336 650.761 L 2487.363 649.269 L 2490.573 647.749 L 2497.31 645.878 L 2501.074 644.498 L 2509.377 642.534 L 2513.196 640.961 L 2516.938 639.569 L 2525.197 637.595 L 2526.851 636.13 L 2535.574 634.296 L 2538.737 632.734 L 2545.361 630.828 L 2551.253 629.294 L 2554.404 627.717 L 2560.993 625.798 L 2564.677 624.365 L 2572.792 622.358 L 2575.931 620.76 L 2582.471 618.823 L 2586.132 617.37 L 2594.182 615.347 L 2597.313 613.727 L 2605.329 611.696 L 2606.99 610.142 L 2615.436 608.256 L 2618.563 606.612 L 2626.514 604.564 L 2629.64 602.907 L 2636.065 600.921 L 2639.677 599.414 L 2647.561 597.346 L 2650.689 595.664 L 2658.541 593.588 L 2661.671 591.891 L 2668.032 589.872 L 2671.619 588.327 L 2677.379 586.323 L 2685.145 584.219 L 2688.287 582.488 L 2696.02 580.374 L 2699.167 578.627 L 2705.454 576.563 L 2709.021 574.97 L 2714.725 572.918 L 2722.372 570.773 L 2725.541 568.987 L 2731.222 566.912 L 2738.818 564.747 L 2742.002 562.935 L 2749.565 560.757 L 2752.76 558.926 L 2757.089 556.871 L 2764.925 554.84 L 2768.138 552.982 L 2773.767 550.84 L 2781.228 548.615 L 2784.462 546.726 L 2790.073 544.557 L 2795.678 542.377 L 2803.07 540.116 L 2806.337 538.184 L 2811.925 535.974 L 2819.268 533.684 L 2822.561 531.716 L 2828.134 529.472 L 2833.703 527.216 L 2840.979 524.884 L 2843.103 522.912 L 2848.862 520.797 L 2854.413 518.489 L 2859.958 516.167 L 2867.151 513.77 L 2870.534 511.678 L 2876.069 509.312 L 2881.6 506.93 L 2887.126 504.531 L 2894.241 502.06 L 2897.681 499.881 L 2903.2 497.429 L 2908.715 494.959 L 2914.228 492.468 L 2919.737 489.956 L 2925.244 487.423 L 2930.748 484.866 L 2937.74 482.237 L 2941.283 479.879 L 2945.724 477.284 L 2951.252 474.811 L 2956.747 472.121 L 2962.239 469.4 L 2967.731 466.645 L 2973.193 463.856 L 2973.166 463.859 L 2967.704 466.648 L 2962.225 469.401 L 2956.745 472.12 L 2951.262 474.806 L 2946.666 477.217 L 2941.298 479.842 L 2936.436 482.271 L 2930.811 484.845 L 2925.317 487.392 L 2919.819 489.915 L 2914.319 492.414 L 2908.815 494.891 L 2903.307 497.347 L 2897.796 499.782 L 2892.95 502.032 L 2887.284 504.431 L 2881.763 506.809 L 2876.239 509.168 L 2870.71 511.511 L 2865.868 513.673 L 2860.172 515.986 L 2854.631 518.279 L 2849.085 520.557 L 2844.364 522.573 L 2839.677 524.659 L 2833.947 526.896 L 2828.382 529.116 L 2822.81 531.322 L 2817.965 533.358 L 2812.207 535.541 L 2806.62 537.708 L 2801.77 539.707 L 2795.991 541.853 L 2790.386 543.984 L 2784.775 546.103 L 2779.918 548.057 L 2774.106 550.157 L 2768.477 552.242 L 2763.611 554.164 L 2758.575 555.983 L 2753.104 558.034 L 2748.23 559.926 L 2742.369 561.962 L 2737.488 563.835 L 2731.611 565.851 L 2725.925 567.854 L 2721.033 569.7 L 2715.129 571.686 L 2709.419 573.66 L 2705.348 575.232 L 2699.561 577.188 L 2694.646 578.991 L 2688.696 580.931 L 2683.771 582.718 L 2677.802 584.641 L 2672.035 586.552 L 2667.926 588.066 L 2662.077 589.962 L 2657.125 591.708 L 2651.107 593.588 L 2646.142 595.319 L 2640.104 597.183 L 2635.959 598.653 L 2630.054 600.499 L 2625.064 602.201 L 2618.984 604.033 L 2613.98 605.72 L 2608.664 607.29 L 2603.851 608.961 L 2597.729 610.763 L 2592.695 612.422 L 2586.552 614.208 L 2582.338 615.608 L 2576.331 617.377 L 2571.266 619.009 L 2565.077 620.765 L 2560.835 622.139 L 2554.783 623.879 L 2549.684 625.484 L 2545.19 626.842 L 2539.106 628.561 L 2533.982 630.147 L 2528.509 631.61 L 2523.577 633.182 L 2517.285 634.874 L 2512.972 636.193 L 2507.731 637.749 L 2501.405 639.42 L 2497.066 640.721 L 2490.877 642.377 L 2485.666 643.908 L 2481.071 645.194 L 2474.845 646.83 L 2469.603 648.343 L 2464.982 649.611 L 2458.719 651.228 L 2454.311 652.483 L 2448.958 653.973 L 2443.317 655.332 L 2438.221 656.808 L 2432.674 658.282 L 2427 659.623 L 2421.869 661.082 L 2417.167 662.301 L 2410.79 663.86 L 2406.298 665.066 L 2400.844 666.504 L 2395.106 667.809 L 2389.903 669.234 L 2385.145 670.421 L 2378.688 671.942 L 2374.137 673.117 L 2368.61 674.522 L 2363.814 675.688 L 2358.159 676.95 L 2352.868 678.338 L 2348.043 679.488 L 2342.456 680.866 L 2336.599 682.107 L 2331.255 683.473 L 2326.39 684.603 L 2321.672 685.728 L 2315.05 687.178 L 2310.376 688.292 L 2305.627 689.401 L 2299.936 690.737 L 2293.992 691.933 L 2289.474 693.027 L 2283.744 694.347 L 2278.789 695.433 L 2273.977 696.514 L 2267.226 697.911 L 2262.455 698.982 L 2257.61 700.048 L 2252.755 701.11 L 2246.93 702.394 L 2240.875 703.536 L 2236.241 704.583 L 2231.342 705.626 L 2225.461 706.89 L 2220.393 707.924 L 2214.427 709.04 L 2209.734 710.063 L 2204.78 711.083 L 2198.828 712.322 L 2193.706 713.334 L 2188.718 714.34 L 2183.72 715.342 L 2177.672 716.422 L 2172.894 717.414 L 2166.854 718.623 L 2161.668 719.607 L 2156.611 720.587 L 2151.544 721.562 L 2146.465 722.532 L 2141.375 723.499 L 2135.231 724.539 L 2130.353 725.496 L 2125.228 726.449 L 2120.092 727.398 L 2114.944 728.343 L 2109.786 729.283 L 2104.615 730.219 L 2099.434 731.151 L 2094.24 732.079 L 2089.036 733.002 L 2082.77 733.993 L 2077.765 734.908 L 2072.524 735.818 L 2067.27 736.725 L 2062.005 737.627 L 2056.728 738.525 L 2051.439 739.418 L 2046.138 740.308 L 2040.824 741.193 L 2035.499 742.075 L 2030.161 742.952 L 2024.811 743.825 L 2019.449 744.693 L 2014.075 745.558 L 2008.688 746.419 L 2003.288 747.275 L 1998.907 747.921 L 1993.695 748.77 L 1988.261 749.615 L 1982.814 750.455 L 1977.355 751.292 L 1971.883 752.124 L 1966.346 752.809 L 1961.303 753.635 L 1955.794 754.455 L 1950.272 755.271 L 1944.737 756.084 L 1940.265 756.69 L 1934.906 757.495 L 1930.429 758.238 L 1924.62 759.035 L 1919.024 759.827 L 1914.514 760.418 L 1909.085 761.204 L 1903.453 761.985 L 1897.807 762.762 L 1893.264 763.34 L 1887.78 764.11 L 1882.097 764.875 L 1877.529 765.443 L 1872.006 766.201 L 1866.285 766.956 L 1861.692 767.513 L 1856.127 768.26 L 1850.368 769.003 L 1845.75 769.55 L 1840.145 770.287 L 1834.347 771.018 L 1829.704 771.556 L 1824.056 772.281 L 1818.22 773.001 L 1813.551 773.528 L 1808.958 774.194 L 1804.079 774.716 L 1798.362 775.422 L 1792.463 776.125 L 1787.755 776.637 L 1781.996 777.332 L 1777.27 777.838 L 1771.483 778.527 L 1766.74 779.026 L 1760.927 779.707 L 1754.938 780.384 L 1751.325 780.831 L 1745.227 781.5 L 1740.443 781.985 L 1734.558 782.648 L 1729.757 783.126 L 1723.844 783.782 L 1719.025 784.254 L 1713.085 784.903 L 1708.248 785.368 L 1703.378 785.97 L 1698.355 786.43 L 1692.358 787.065 L 1687.489 787.519 L 1681.464 788.147 L 1676.576 788.595 L 1671.824 789.041 L 1666.858 789.621 L 1661.784 790.06 L 1655.69 790.671 L 1650.761 791.105 L 1644.638 791.708 L 1639.69 792.136 L 1634.871 792.561 L 1629.808 793.12 L 1624.681 793.539 L 1619.834 793.957 L 1613.63 794.54 L 1608.631 794.951 L 1602.398 795.527 L 1598.531 795.9 L 1593.439 796.302 L 1587.164 796.868 L 1582.122 797.265 L 1577.198 797.66 L 1571.983 798.185 L 1566.773 798.573 L 1561.82 798.96 L 1555.461 799.506 L 1550.367 799.886 L 1545.385 800.264 L 1540.086 800.771 L 1534.829 801.143 L 1529.819 801.513 L 1524.8 801.88 L 1519.446 802.375 L 1514.159 802.737 L 1509.111 803.096 L 1504.054 803.453 L 1497.542 803.963 L 1493.498 804.288 L 1488.242 804.636 L 1483.147 804.982 L 1476.578 805.479 L 1471.352 805.819 L 1467.375 806.133 L 1462.077 806.468 L 1455.451 806.952 L 1450.19 807.281 L 1446.173 807.586 L 1440.841 807.91 L 1435.66 808.232 L 1428.964 808.701 L 1424.805 808.995 L 1419.44 809.309 L 1414.219 809.622 L 1408.989 809.931 L 1404.898 810.217 L 1397.967 810.666 L 1392.61 810.968 L 1387.34 811.267 L 1383.209 811.544 L 1377.776 811.838 L 1372.479 812.129 L 1367.173 812.418 L 1361.407 812.828 L 1355.881 813.111 L 1350.545 813.393 L 1346.345 813.654 L 1340.853 813.931 L 1335.489 814.205 L 1330.115 814.477 L 1325.88 814.73 L 1320.353 814.996 L 1314.952 815.261 L 1309.049 815.642 L 1303.443 815.901 L 1298.01 816.158 L 1292.568 816.413 L 1288.263 816.65 L 1282.676 816.9 L 1277.206 817.147 L 1272.874 817.378 L 1267.262 817.62 L 1261.763 817.861 L 1257.403 818.085 L 1251.766 818.32 L 1246.239 818.554 L 1241.851 818.772 L 1236.188 819 L 1230.633 819.227 L 1226.216 819.439 L 1220.527 819.66 L 1214.944 819.879 L 1210.499 820.085 L 1204.785 820.299 L 1199.172 820.511 L 1194.699 820.711 L 1188.958 820.918 L 1183.317 821.123 L 1178.815 821.316 L 1173.048 821.517 L 1167.378 821.715 L 1162.847 821.902 L 1157.054 822.095 L 1151.355 822.287 L 1146.795 822.467 L 1140.976 822.654 L 1135.247 822.839 L 1130.658 823.012 L 1124.812 823.192 L 1120.733 823.254 L 1116.269 823.425 L 1110.397 823.598 L 1104.613 823.769 L 1099.972 823.932 L 1094.074 824.099 L 1089.412 824.257 L 1083.497 824.419 L 1077.664 824.579 L 1072.972 824.731 L 1068.76 824.777 L 1063.035 824.932 L 1058.321 825.079 L 1052.352 825.228 L 1047.617 825.37 L 1041.632 825.515 L 1035.723 825.658 L 1030.957 825.794 L 1026.714 825.827 L 1022.06 825.961 L 1016.031 826.095 L 1010.076 826.228 L 1005.265 826.354 L 999.209 826.482 L 993.223 826.607 L 990.225 826.627 L 984.225 826.749 L 979.369 826.866 L 973.269 826.983 L 968.392 827.096 L 964.103 827.111 L 958.167 827.223 L 953.267 827.331 L 947.122 827.437 L 942.2 827.54 L 937.89 827.548 L 931.902 827.649 L 926.956 827.748 L 920.767 827.844 L 915.798 827.938 L 911.467 827.937 L 906.589 828.029 L 900.366 828.117 L 894.201 828.204 L 889.186 828.288 L 884.834 828.28 L 879.905 828.362 L 873.637 828.44 L 868.585 828.516 L 864.219 828.503 L 858.085 828.577 L 853.008 828.648 L 846.695 828.716 L 843.565 828.699 L 837.299 828.764 L 832.185 828.827 L 827.787 828.804 L 822.75 828.866 L 816.385 828.922 L 810.069 828.977 L 806.906 828.951 L 800.574 829.001 L 795.398 829.053 L 790.968 829.019 L 785.864 829.069 L 779.435 829.111 L 774.22 829.154 L 769.776 829.116 L 764.628 829.157 L 758.165 829.192 L 754.956 829.154 L 748.53 829.185 L 743.262 829.218 L 738.793 829.172 L 732.416 829.198 L 727.122 829.226 L 722.635 829.175 L 717.404 829.201 L 710.859 829.218 L 707.607 829.169 L 701.098 829.183 L 695.749 829.2 L 691.237 829.141 L 685.947 829.156 L 679.348 829.162 L 676.069 829.106 L 669.502 829.109 L 664.098 829.115 L 659.562 829.049 L 654.211 829.053 L 649.664 828.984 L 644.297 828.985 L 637.628 828.976 L 634.311 828.91 L 627.67 828.898 L 622.195 828.891 L 617.622 828.814 L 612.195 828.804 L 607.612 828.725 L 602.169 828.712 L 595.427 828.689 L 592.073 828.614 L 585.357 828.587 L 581.994 828.51 L 575.26 828.48 L 569.695 828.455 L 565.077 828.366 L 559.556 828.339 L 556.131 828.256 L 549.35 828.217 L 543.739 828.182 L 539.103 828.088 L 533.529 828.052 L 528.883 827.955 L 523.293 827.915 L 518.635 827.816 L 513.029 827.773 L 508.361 827.671 L 502.739 827.626 L 495.827 827.568 L 492.385 827.472 L 485.491 827.411 L 482.04 827.313 L 476.316 827.257 L 471.62 827.148 L 465.927 827.09 L 461.22 826.977 L 455.511 826.916 L 450.793 826.801 L 445.068 826.737 L 438.058 826.661 L 434.564 826.552 L 427.568 826.472 L 424.066 826.362 L 418.243 826.288 L 413.497 826.165 L 407.7 826.089 L 402.943 825.964 L 397.13 825.884 L 392.362 825.757 L 386.531 825.674 L 382.964 825.555 L 375.876 825.458 L 372.328 825.337 L 365.222 825.237 L 361.665 825.114 L 354.54 825.01 L 350.973 824.885 L 345.027 824.788 L 340.217 824.65 L 334.29 824.55 L 329.469 824.41 L 323.525 824.307 L 318.694 824.165 L 315.133 824.032 L 309.129 823.925 L 304.283 823.779 L 298.298 823.669 L 293.441 823.52 L 287.439 823.407 L 283.788 823.268 L 276.527 823.14 L 272.891 822.999 L 265.611 822.868 L 261.965 822.725 L 254.666 822.59 L 251.011 822.444 L 247.354 822.298 L 240.029 822.159 L 236.362 822.011 L 229.017 821.868 L 225.341 821.718 L 219.185 821.583 L 214.261 821.419 L 210.602 821.266 L 203.212 821.115 L 199.513 820.96 L 193.315 820.818 L 188.366 820.649 L 182.18 820.503 L 178.442 820.344 L 173.499 820.172 L 167.288 820.022 L 162.314 819.847 L 156.084 819.695 L 152.324 819.53 L 147.356 819.353 L 141.101 819.196 L 136.103 819.016 L 129.83 818.856 L 126.047 818.687 L 121.053 818.504 L 114.755 818.339 L 110.96 818.167 L 103.396 817.986 L 99.61 817.812 L 94.591 817.624 L 88.249 817.452 L 84.431 817.275 L 76.821 817.086 L 73.012 816.907 L 69.2 816.728 L 61.563 816.535 L 57.741 816.353 L 53.915 816.17 L 46.252 815.973 L 42.417 815.788 L 34.734 815.587 L 30.888 815.4 L 27.039 815.213 L 19.33 815.007 L 15.471 814.818 L 11.609 814.628 L 3.873 814.418 L 0 814.226 L 5.99 225.138 L 9.863 225.178 L 17.597 225.257 L 21.458 225.296 L 25.316 225.334 L 33.019 225.41 L 36.865 225.447 L 40.707 225.483 L 48.379 225.555 L 52.21 225.59 L 59.859 225.659 L 63.678 225.693 L 67.493 225.727 L 75.112 225.792 L 78.916 225.824 L 82.716 225.856 L 90.304 225.917 L 94.092 225.948 L 101.658 226.007 L 105.435 226.035 L 109.208 226.064 L 116.743 226.119 L 120.505 226.146 L 128.018 226.199 L 131.768 226.225 L 135.515 226.25 L 142.997 226.299 L 146.733 226.323 L 154.192 226.37 L 157.917 226.392 L 161.637 226.414 L 169.067 226.457 L 172.776 226.478 L 180.183 226.518 L 183.881 226.538 L 187.575 226.557 L 194.953 226.594 L 198.636 226.611 L 205.991 226.646 L 209.663 226.662 L 216.996 226.693 L 220.656 226.708 L 224.313 226.723 L 231.617 226.751 L 235.263 226.764 L 242.543 226.79 L 246.178 226.802 L 253.437 226.825 L 257.061 226.835 L 260.681 226.846 L 267.911 226.865 L 271.52 226.874 L 278.728 226.891 L 282.326 226.898 L 289.511 226.913 L 293.099 226.919 L 300.262 226.931 L 303.839 226.936 L 310.981 226.945 L 314.546 226.949 L 321.666 226.955 L 325.221 226.958 L 328.772 226.96 L 335.863 226.963 L 339.403 226.964 L 346.473 226.964 L 350.002 226.964 L 357.05 226.962 L 360.568 226.96 L 367.595 226.956 L 371.103 226.953 L 378.108 226.946 L 381.605 226.942 L 388.588 226.932 L 392.074 226.927 L 399.037 226.915 L 402.512 226.908 L 409.453 226.894 L 412.918 226.886 L 419.838 226.869 L 423.292 226.859 L 430.19 226.84 L 433.634 226.83 L 440.511 226.808 L 443.944 226.796 L 450.8 226.772 L 457.642 226.746 L 461.058 226.732 L 467.879 226.704 L 471.284 226.689 L 478.084 226.658 L 481.479 226.642 L 488.258 226.608 L 491.642 226.591 L 498.4 226.555 L 501.774 226.537 L 508.511 226.499 L 515.235 226.459 L 518.591 226.438 L 525.294 226.396 L 528.64 226.374 L 535.322 226.33 L 538.658 226.307 L 545.32 226.26 L 548.645 226.236 L 555.286 226.186 L 561.913 226.136 L 565.222 226.109 L 571.829 226.056 L 575.127 226.029 L 581.713 225.973 L 588.286 225.916 L 591.567 225.887 L 598.119 225.827 L 601.391 225.797 L 607.923 225.735 L 614.441 225.672 L 617.696 225.639 L 624.194 225.574 L 627.438 225.54 L 633.916 225.472 L 640.381 225.402 L 643.609 225.367 L 650.053 225.295 L 656.485 225.222 L 659.696 225.184 L 666.107 225.109 L 669.308 225.07 L 675.699 224.992 L 682.078 224.913 L 685.262 224.872 L 691.62 224.791 L 697.966 224.707 L 701.133 224.665 L 707.459 224.58 L 713.771 224.493 L 716.923 224.448 L 723.215 224.359 L 729.495 224.268 L 732.63 224.223 L 738.89 224.13 L 745.137 224.035 L 748.256 223.987 L 754.484 223.891 L 760.698 223.792 L 763.801 223.743 L 769.996 223.642 L 776.179 223.541 L 779.265 223.489 L 785.428 223.385 L 791.578 223.28 L 797.716 223.173 L 800.78 223.119 L 806.898 223.01 L 813.004 222.899 L 816.052 222.844 L 822.138 222.731 L 828.212 222.617 L 834.273 222.501 L 837.299 222.443 L 843.341 222.325 L 849.37 222.206 L 852.38 222.146 L 858.391 222.025 L 864.389 221.902 L 870.375 221.778 L 873.363 221.716 L 879.33 221.59 L 885.284 221.462 L 891.226 221.333 L 894.192 221.268 L 900.115 221.138 L 906.026 221.005 L 911.925 220.871 L 917.811 220.736 L 920.749 220.668 L 926.617 220.531 L 932.472 220.393 L 938.316 220.253 L 944.147 220.111 L 947.057 220.04 L 952.87 219.897 L 958.67 219.752 L 964.459 219.606 L 970.235 219.459 L 973.118 219.385 L 978.876 219.235 L 984.622 219.085 L 990.356 218.933 L 996.078 218.779 L 998.935 218.702 L 1004.638 218.547 L 1010.33 218.39 L 1016.01 218.232 L 1021.678 218.073 L 1027.334 217.912 L 1032.979 217.75 L 1035.796 217.669 L 1041.423 217.505 L 1047.038 217.34 L 1052.641 217.174 L 1058.232 217.006 L 1063.811 216.837 L 1069.379 216.666 L 1074.935 216.495 L 1077.708 216.409 L 1083.247 216.235 L 1088.774 216.06 L 1094.289 215.884 L 1099.793 215.707 L 1105.285 215.529 L 1110.765 215.349 L 1116.234 215.168 L 1121.692 214.986 L 1127.138 214.802 L 1129.857 214.71 L 1135.286 214.524 L 1140.703 214.338 L 1146.109 214.15 L 1151.504 213.961 L 1156.887 213.771 L 1162.26 213.579 L 1167.62 213.386 L 1172.97 213.192 L 1178.308 212.997 L 1183.635 212.801 L 1188.951 212.603 L 1194.256 212.405 L 1199.549 212.205 L 1204.832 212.003 L 1210.103 211.801 L 1215.363 211.598 L 1220.612 211.393 L 1225.851 211.187 L 1231.078 210.98 L 1236.294 210.772 L 1241.499 210.562 L 1246.693 210.352 L 1251.877 210.14 L 1257.049 209.927 L 1262.211 209.713 L 1267.361 209.498 L 1272.501 209.282 L 1277.63 209.065 L 1282.749 208.846 L 1287.856 208.626 L 1292.953 208.405 L 1298.039 208.184 L 1303.115 207.961 L 1308.179 207.736 L 1313.234 207.511 L 1320.795 207.171 L 1325.823 206.943 L 1330.84 206.714 L 1335.846 206.484 L 1340.843 206.252 L 1345.828 206.02 L 1350.803 205.786 L 1355.768 205.552 L 1360.722 205.316 L 1365.666 205.079 L 1373.063 204.722 L 1377.981 204.483 L 1382.889 204.242 L 1387.786 204.001 L 1392.674 203.758 L 1397.551 203.515 L 1402.418 203.27 L 1409.699 202.901 L 1414.54 202.654 L 1419.371 202.405 L 1424.193 202.156 L 1429.004 201.906 L 1433.805 201.654 L 1440.988 201.275 L 1445.764 201.021 L 1450.53 200.766 L 1455.286 200.51 L 1460.032 200.253 L 1467.133 199.866 L 1471.854 199.607 L 1476.566 199.346 L 1481.268 199.085 L 1488.302 198.691 L 1492.979 198.427 L 1497.647 198.162 L 1502.305 197.897 L 1509.274 197.496 L 1513.908 197.228 L 1518.532 196.959 L 1523.146 196.689 L 1530.05 196.282 L 1534.641 196.009 L 1539.222 195.736 L 1543.794 195.462 L 1550.633 195.048 L 1555.181 194.772 L 1559.72 194.494 L 1566.51 194.076 L 1571.025 193.796 L 1575.531 193.516 L 1582.272 193.093 L 1586.755 192.81 L 1591.228 192.526 L 1597.921 192.098 L 1602.372 191.812 L 1606.813 191.525 L 1613.457 191.093 L 1617.876 190.804 L 1624.486 190.369 L 1628.882 190.077 L 1633.269 189.785 L 1639.832 189.345 L 1644.196 189.051 L 1648.551 188.756 L 1655.068 188.311 L 1659.401 188.014 L 1665.884 187.567 L 1670.195 187.267 L 1676.645 186.817 L 1680.934 186.515 L 1685.214 186.213 L 1691.618 185.758 L 1695.877 185.454 L 1702.248 184.996 L 1706.485 184.69 L 1712.825 184.229 L 1717.04 183.921 L 1723.347 183.458 L 1727.542 183.148 L 1733.817 182.681 L 1737.99 182.369 L 1744.234 181.899 L 1748.386 181.586 L 1754.599 181.113 L 1758.73 180.798 L 1764.911 180.323 L 1771.074 179.846 L 1775.172 179.527 L 1781.304 179.048 L 1785.382 178.727 L 1791.484 178.245 L 1795.541 177.923 L 1801.612 177.438 L 1807.665 176.952 L 1811.691 176.627 L 1817.714 176.138 L 1821.719 175.811 L 1827.712 175.319 L 1833.688 174.826 L 1837.662 174.497 L 1843.608 174.001 L 1849.536 173.504 L 1853.479 173.172 L 1859.378 172.673 L 1865.261 172.172 L 1869.172 171.837 L 1875.026 171.334 L 1880.862 170.829 L 1884.744 170.492 L 1890.552 169.985 L 1896.343 169.476 L 1900.195 169.137 L 1905.958 168.626 L 1911.704 168.114 L 1917.434 167.601 L 1921.245 167.258 L 1926.948 166.742 L 1932.634 166.225 L 1938.304 165.707 L 1943.957 165.188 L 1947.717 164.841 L 1953.344 164.319 L 1958.955 163.797 L 1964.55 163.273 L 1970.129 162.748 L 1973.84 162.397 L 1979.392 161.87 L 1984.93 161.342 L 1990.451 160.812 L 1995.958 160.282 L 2001.448 159.75 L 2005.101 159.395 L 2010.566 158.861 L 2016.016 158.327 L 2021.452 157.791 L 2026.872 157.254 L 2032.277 156.716 L 2037.668 156.177 L 2043.043 155.637 L 2048.404 155.096 L 2053.751 154.554 L 2059.083 154.012 L 2064.401 153.468 L 2069.704 152.923 L 2074.993 152.377 L 2080.268 151.83 L 2085.528 151.283 L 2090.775 150.734 L 2096.008 150.185 L 2101.227 149.634 L 2106.432 149.083 L 2111.624 148.531 L 2116.801 147.978 L 2121.966 147.424 L 2127.117 146.87 L 2132.254 146.314 L 2137.379 145.758 L 2142.49 145.201 L 2147.588 144.644 L 2152.673 144.085 L 2157.745 143.526 L 2162.804 142.966 L 2167.85 142.406 L 2174.559 141.657 L 2179.576 141.095 L 2184.581 140.532 L 2189.573 139.969 L 2194.552 139.405 L 2199.52 138.84 L 2206.124 138.086 L 2211.063 137.52 L 2215.99 136.953 L 2220.905 136.386 L 2225.809 135.818 L 2232.328 135.061 L 2237.204 134.492 L 2242.069 133.922 L 2246.922 133.352 L 2253.375 132.591 L 2258.202 132.02 L 2263.018 131.449 L 2267.822 130.877 L 2274.211 130.114 L 2278.99 129.541 L 2283.758 128.968 L 2290.098 128.203 L 2294.841 127.628 L 2299.574 127.054 L 2305.868 126.288 L 2310.576 125.712 L 2315.274 125.137 L 2321.522 124.369 L 2326.196 123.793 L 2330.86 123.217 L 2337.064 122.448 L 2341.705 121.871 L 2347.879 121.102 L 2352.497 120.524 L 2358.641 119.754 L 2363.237 119.177 L 2367.825 118.599 L 2373.927 117.828 L 2378.493 117.25 L 2384.566 116.479 L 2389.111 115.901 L 2395.157 115.13 L 2399.682 114.552 L 2405.7 113.78 L 2410.205 113.202 L 2416.197 112.431 L 2420.682 111.852 L 2426.648 111.081 L 2431.114 110.503 L 2437.055 109.732 L 2442.982 108.961 L 2447.418 108.383 L 2453.321 107.613 L 2457.739 107.035 L 2463.618 106.265 L 2468.019 105.688 L 2473.875 104.919 L 2479.718 104.149 L 2484.092 103.573 L 2489.913 102.805 L 2495.721 102.037 L 2500.07 101.461 L 2505.857 100.694 L 2511.632 99.928 L 2515.956 99.353 L 2521.711 98.588 L 2527.455 97.823 L 2531.756 97.249 L 2537.481 96.486 L 2543.195 95.723 L 2547.473 95.151 L 2553.169 94.39 L 2558.854 93.629 L 2563.111 93.059 L 2568.779 92.299 L 2574.438 91.541 L 2580.086 90.783 L 2584.317 90.216 L 2589.95 89.46 L 2595.574 88.705 L 2601.189 87.952 L 2606.796 87.199 L 2610.995 86.635 L 2616.587 85.884 L 2622.172 85.135 L 2627.748 84.387 L 2633.317 83.64 L 2637.489 83.08 L 2643.045 82.335 L 2648.594 81.592 L 2654.137 80.85 L 2659.672 80.109 L 2665.202 79.37 L 2669.344 78.816 L 2674.863 78.079 L 2680.376 77.344 L 2685.882 76.61 L 2691.384 75.878 L 2696.88 75.148 L 2702.371 74.419 L 2706.486 73.873 L 2711.969 73.147 L 2717.447 72.423 L 2722.921 71.7 L 2728.391 70.98 L 2733.856 70.261 L 2739.318 69.544 L 2744.777 68.829 L 2750.232 68.115 L 2755.684 67.404 L 2759.771 66.872 L 2765.218 66.164 L 2770.662 65.458 L 2776.104 64.755 L 2781.544 64.053 L 2786.981 63.354 L 2792.417 62.656 L 2797.851 61.961 L 2803.284 61.268 L 2808.716 60.578 L 2814.146 59.889 L 2819.576 59.203 L 2825.005 58.52 L 2830.434 57.839 L 2835.862 57.16 L 2841.291 56.483 L 2845.362 55.978 L 2850.791 55.306 L 2856.22 54.636 L 2861.65 53.969 L 2867.081 53.305 L 2872.513 52.643 L 2877.947 51.984 L 2883.381 51.328 L 2888.818 50.674 L 2894.256 50.023 L 2899.697 49.375 L 2905.139 48.729 L 2910.585 48.087 L 2916.032 47.447 L 2921.483 46.811 L 2926.937 46.177 L 2932.394 45.546 L 2937.854 44.918 L 2943.318 44.293 L 2947.419 43.827 L 2952.89 43.208 L 2958.365 42.591 L 2963.844 41.978 L 2969.328 41.368 L 2974.817 40.762 L 2980.311 40.159 L 2985.81 39.559 L 2991.314 38.963 L 2996.824 38.37 L 3002.339 37.78 L 3007.861 37.193 L 3013.388 36.611 L 3018.922 36.031 L 3023.077 35.599 L 3028.622 35.025 L 3034.174 34.455 L 3039.734 33.889 L 3045.3 33.326 L 3050.874 32.767 L 3056.455 32.212 L 3062.045 31.66 L 3067.642 31.112 L 3071.845 30.704 L 3077.457 30.162 L 3083.077 29.625 L 3088.706 29.091 L 3094.344 28.561 L 3099.991 28.035 L 3104.233 27.643 L 3109.896 27.123 L 3115.569 26.608 L 3121.252 26.097 L 3126.945 25.589 L 3132.648 25.086 L 3136.932 24.711 L 3142.653 24.215 L 3148.385 23.723 L 3154.128 23.236 L 3159.882 22.752 L 3164.205 22.392 L 3169.979 21.916 L 3175.765 21.444 L 3181.563 20.977 L 3185.918 20.629 L 3191.737 20.169 L 3197.568 19.713 L 3203.411 19.262 L 3207.802 18.926 L 3213.668 18.483 L 3219.547 18.044 L 3223.965 17.718 L 3229.867 17.287 L 3235.783 16.86 L 3241.713 16.438 L 3246.169 16.125 L 3252.123 15.711 L 3258.091 15.302 L 3262.577 14.999 L 3268.571 14.598 L 3273.076 14.3 L 3279.096 13.908 L 3285.131 13.52 L 3289.667 13.233 L 3295.729 12.854 L 3301.807 12.479 L 3306.375 12.202 L 3312.481 11.836 L 3317.07 11.565 L 3323.204 11.208 L 3327.815 10.944 L 3333.978 10.596 L 3340.158 10.253 L 3344.803 9.999 L 3351.013 9.664 L 3355.681 9.417 L 3361.921 9.092 L 3366.613 8.852 L 3372.884 8.535 L 3377.599 8.302 L 3383.902 7.995 L 3388.64 7.768 L 3394.975 7.471 L 3399.739 7.251 L 3404.512 7.034 L 3410.894 6.75 L 3415.693 6.541 L 3422.108 6.266 L 3426.933 6.063 L 3433.382 5.798 L 3438.232 5.603 L 3443.093 5.411 L 3449.593 5.16 L 3454.48 4.975 L 3459.379 4.793 L 3465.929 4.556 L 3470.856 4.382 L 3475.794 4.211 L 3482.396 3.987 L 3487.361 3.824 L 3492.339 3.663 L 3498.994 3.455 L 3504 3.302 L 3509.018 3.152 L 3515.728 2.958 L 3520.775 2.817 L 3525.834 2.679 L 3530.906 2.544 L 3537.689 2.369 L 3542.79 2.242 L 3547.905 2.119 L 3553.032 1.998 L 3558.173 1.882 L 3565.047 1.731 L 3570.218 1.622 L 3575.402 1.517 L 3580.6 1.415 L 3585.811 1.316 L 3592.78 1.19 L 3598.023 1.099 L 3603.279 1.012 L 3608.55 0.929 L 3613.834 0.849 L 3619.131 0.772 L 3624.443 0.699 L 3629.769 0.63 L 3636.892 0.543 L 3642.252 0.482 L 3647.625 0.424 L 3653.013 0.37 L 3658.415 0.32 L 3663.832 0.273 L 3669.263 0.23 L 3674.71 0.191 L 3680.171 0.155 L 3685.647 0.123 L 3691.137 0.095 L 3696.643 0.07 L 3702.164 0.049 L 3707.7 0.032 L 3713.252 0.018 L 3718.819 0.008 L 3724.401 0.002 L 3729.999 0 L 3735.612 0.002 L 3741.241 0.007 L 3746.885 0.016 L 3752.546 0.029 L 3756.328 0.04 L 3762.015 0.059 L 3767.718 0.082 L 3773.438 0.109 L 3779.173 0.14 L 3784.924 0.175 L 3790.692 0.213 L 3796.477 0.256 L 3800.342 0.286 L 3806.154 0.335 L 3811.982 0.389 L 3817.827 0.445 L 3823.689 0.506 L 3829.568 0.571 L 3833.497 0.617 L 3839.404 0.688 L 3845.328 0.764 L 3851.269 0.844 L 3857.227 0.927 L 3861.209 0.985 L 3867.197 1.076 L 3873.201 1.17 L 3879.224 1.269 L 3883.248 1.337 L 3889.3 1.442 L 3895.369 1.552 L 3901.456 1.665 L 3905.524 1.743 L 3911.641 1.864 L 3917.776 1.988 L 3921.876 2.074 L 3928.041 2.206 L 3934.224 2.341 L 3938.357 2.434 L 3944.57 2.577 L 3950.802 2.724 L 3954.968 2.825 L 3961.231 2.979 L 3967.512 3.137 L 3971.71 3.245 L 3978.023 3.411 L 3986.47 3.638" vector-effect="non-scaling-stroke"/></g></svg>